<svg xmlns="http://www.w3.org/2000/svg" viewBox="0 0 1920.22 604.44"><defs><style>.cls-1{fill:#0e4740;}.cls-2{fill:#d3d3d3;}.cls-3{fill:#105147;}.cls-4{fill:#115e4f;}.cls-5{fill:#136b5a;}.cls-6{fill:#e8e9eb;}.cls-7{fill:#e0e0e0;}.cls-8{fill:#f9f9f9;}.cls-9{fill:#e0dfd5;}.cls-10{fill:#f2f2f2;}.cls-11{fill:#157563;}.cls-12{fill:#797e9c;}.cls-13{fill:#d3d1c7;}.cls-14{fill:#165e55;}</style></defs><g id="Layer_2" data-name="Layer 2"><g id="Background"><g id="road"><path class="cls-1" d="M1811.59,452.63c-29.86.5-60,1.44-88.11,7-38.33,7.59-77.3,13.24-119.33,12.46-13.62-.26-25.12,1.92-33.59,7.18a36.05,36.05,0,0,1-18.19,5c-21.84.47-43.51,2.42-65.6,1-26.71-1.68-53.56-.33-79.69,2-21.1,1.9-42.21,4.09-63.27,6.23-20.63,2.1-105.31,21.95-126.61,22l227.09,88.9,475.93-.09c-.3-47-.09-98.1-.09-145.07"/><path class="cls-2" d="M1308.8,604.36,1204,511.93a53.31,53.31,0,0,0-14.18-2q-109.07,0-218.15.06c-10.55,3.79-19.47,3.36-31.13.27-8.93-2-20.69-1.31-30.39-1.31q-109.9,0-219.8,0c-4.62,0-9.34-.17-13.55,1l-64.83-2.81c-165.66,67.57-216.12,90.05-236.26,97.2"/><path class="cls-2" d="M1254.78,507.11l-17.26,2.15c-3.08.54-12.7-1.69-9.71,2l111.4,93.1,107.2.07Z"/><path class="cls-3" d="M1890.24,396.67a260.5,260.5,0,0,0-41.9-.12,595.51,595.51,0,0,1-95.47-1.37c-31.28-2.89-62.24-9.07-93.78-8.78-35,.32-69.1-5.42-103.8-6.36-47-1.29-93.91-2.21-137.91,14.37a103.9,103.9,0,0,1-34.29,6.41,152.26,152.26,0,0,0-72.78,20l-48.26,16.91c-21.74,9.86-45.56,14.5-70.35,16.71-4.34.39-8.53,1.09-11.53,3.88-3,4.15,14.57,39.46,17.72,42,19.91,16.27,43.27-4.47,64.55,10.67l14.3,2.64c21.09,2.6,42,6,63.44,6.83,25.59,1,50.48-3,75.26-7.09,35.59-5.88,71.21-12.95,107.79-10.76,21.21,1.27,42,.15,63-.4,9.18-.24,18.43-1.19,23.75-7.64,6.79-8.21,16.1-11.38,28.16-10.63,23.95,1.49,46.69-3,69.71-7.34,27-5.07,51.2-16.12,79.72-18.53,35.85-3,71.15-1.93,106.73.42,14.57,1,11,5.08,25.84,3.83V399.18"/><path class="cls-1" d="M511.6,472.22c-43.52-1.6-85.86-4.76-126.33-12.73-15.09-3-31.87-2.78-46.91-5.22-31.26-5.08-63.5-6.66-95.91-8s-64.8,2.12-97.51-1.58c-11.93-1.35-21.66-4.1-32.42-6.05-32.18-5.82-66.1-8.73-98.62-13.93C9.08,424,2.37,422.91.11,426.88l0,177.48H375.67S545.56,551.43,626.86,499"/><path class="cls-4" d="M1267.69,438.67c-17.44,9.38-37.56,13.19-57.76,17a73.25,73.25,0,0,1-15.84,1.7c-5.09-.15-10.11,0-13.83,3.29-5.74,1.26-8.58-2.13-11.52-4.68a807.66,807.66,0,0,1-69.36-68.79c-2.8-3.16,1.12-3.59,4.63-7.85,2.9-2,3.23,1.73,6.76,2.15,13.87,1.64,28,.27,41.75,1.8,25.49,2.85,50.68-.56,76-1.37,36.41-1.15,70.86-10,105.75-17.19,22.06-4.56,44.22-9.25,67.23-10.41,9.37-.47,17.53-4.89,27-5.07,11.9.42,23.34-2.06,34.82-3.8,14-2.12,27.93-4.88,41.58-8.27,30.26-8.36,60-18,92.37-20.83,18.81-1.63,37.4-4.37,56.17-6.11a415.66,415.66,0,0,1,52.7-8.12c31.83-3.82,63.76-7.24,95.21-12.65,17.56-3,35-5.81,53.15-4.6,17.13,1.89,34.23-1.28,51.31-.18,10.86.7,4.56-3,14.36,2.1v112.4c-18.84,2.71-19.93,1.13-38.84.17-27.15-1.38-54.23,2.23-81.48,1.61-34.7-.8-68.8-4.87-103-9a366.78,366.78,0,0,0-52.29-2.75c-30.1.64-59.44-5.4-89.37-6.17-19.66-.51-39.34-1.32-59,.48-3.19.29-6.43.88-9.57.66-22.6-1.61-42.59,5.29-62.61,11.63-15,4.75-30.17,8.06-46.55,8.48-23.11.59-43.37,7.54-62.22,17.64"/><path class="cls-5" d="M1447,335.67l-9.66-18.8c-4.29-3.38,7.29-7.78.1-11.87a5.89,5.89,0,0,0-.94-.36c-23.48,1.74-46.91,3.44-66.69,15.2a81.9,81.9,0,0,1-26.59,10.49c-6.32,1.21-12,1.36-15.19-4.41-3.66-6.61-10.48-7.72-18.69-5.58a120.22,120.22,0,0,1-31.52,4.4c-8-.07-15.6,1.21-23.26,2.71-12.81,2.51-25.71,4.64-38.82,6.19-12,1.42-24.3,2-35.72,5.43-28.76,8.65-57.64,16.49-89.37,14.13-5.13-.38-9.85.51-13.72,4.24,3.89,6.59,4.5,7.84,9,13.46,4.9,5,8.32,11.05,13.23,16.09,4.14-2.54,10.64-2.95,15.08-2.54,21.26,2,42.65,2.93,64,2.87,20.6-.06,41.19-2.15,61.8-3.05a304.47,304.47,0,0,0,56.6-8.07c25.17-5.94,50.65-10.65,76.17-15.36,18.94-3.5,39.06-3,57-9.86,1.87-.16,11.26-1.26,11.2-2.45C1440.71,342.41,1443.18,340.39,1447,335.67Z"/><path class="cls-6" d="M942.54,371.25c-19.63-.34-39.24-.65-58.86-1.47-12.91-.53-26.34-3.24-39.16,1.14l-42.89,41.6a413.5,413.5,0,0,0,59.76,3.34c6.4-.15,12.86.7,19.18.89,24.62.74,49.34,2.4,73.89-1l19.85,1.73c44.26.05,109.44-.82,153.7-.82-13.46-14.73-49.6-57.53-60.48-72.3-3.58-1.7-9.23-3.57-7,1.72,3.16,7.56,15.06,23.65,9.65,23.78-23.22.53-71.15,1-94.37,1.36"/><path class="cls-7" d="M1127.75,416.36c-5.87-4.21-32.61-2.76-38.33-2.61-35.81.95-71.62.25-107.43.34l-27.25-.74c-1.27,0-2.56,0-3.82.07-42.49,2.16-84.84-.58-127.24-2.05-7.69-.27-15.6-2.45-23,1.13-30.72,26-48.47,46.65-81.43,71.07-9.19,6.81-30.19,20.92-37.45,29.24l234.47-.66,73.57,1.72c72.48-.06,199.41-3.14,271.89-3.13Z"/><path class="cls-8" d="M1231.4,513c-32.83-23.87-62.43-47.71-90.45-75.08-21.06-20.59-47-43-63-66.37-6.53-8.09-10.64-17.64-17-25.79-2.25-2.87-2.36.53-3.63,2.1,4.64,9.27,10.2,16,15,24.59,10.57,15.5,23,30.06,34.73,45,30.59,34.35,61.83,67.58,99.2,97.69,16.86,13.89,78.93,73.64,102.55,89.19h68.39Z"/><path class="cls-8" d="M943.58,537.73c8.75-6.36,20.69-3,31.43-1.67a7.77,7.77,0,0,1,2.62,1.84c4.6,5.27,4.59,10.46,4,16.85.15,4.41-.27,9-.11,13.35.11,6.28.89,8.63-1.4,15h0c-11.93,5.41-24.34,3-36.56,1.4-4.55-.58-5.74-4.64-6-8.11"/><path class="cls-3" d="M570,497.34c-13.11,0-26,1.08-39.36.29-23.46-1.39-47-2.73-70.5-3.44q-45.41-1.35-90-7.16c-12.17-1.59-24.13-4.84-35.68-8.33-15.11-4.58-29.9-8.86-46.65-9-8.39-.06-15.12-5.94-24.47-6.85-36.46-3.57-72.7-8.59-109.68-4.05-8.22,1-16.26-1.35-24.16-3.06-5.54-1.2-10.94-2.88-16.64-.61-1.23.49-2.85,1.45-3.73.22-7.61-10.6-23-8.57-34.53-12.75C51.27,434.16,23.62,435,0,427.26c0-21.6.22-44,.22-65.63C2.29,359.88,6,358.24,9,358.52c16.58,1.59,33.79.53,49.23,7,10,4.17,20.47,5.86,32,5.68,50.88-.78,101.72,1.55,152.58,2.1,24.56.27,49.45-.45,74,2.5a62.06,62.06,0,0,0,14,.12c15-1.61,29.94-.38,44.95-.17,31.15.43,62.32,1,93.5-.54,12.7-.64,25.28,3.23,38.33,2.49,4.68-.26,8.94-.29,13.33-2,15.14-5.86,25.06-4,35.12,6.64,2.78,2.94,6.13,3.79,10.12,3.53,21.39-1.4,42.8,3.63,64.18-.18a14.67,14.67,0,0,1,9.32,1.36c10.38,5.57,22.14,7.71,34.46,8.24,22.27,1,43.67,6.07,65.75,8.06,8.79.78,14.36.78,15.64-7.53,1-6.38,6.7-10.28,15.44-10.65,5-.21,9.2,1.21,11.83,4.63,2.52,3.27,1.05,6.28-1.09,9.38-2.61,3.8-9.06,5.83-8.48,11.05.23,4.7-3.65,7.58-7.83,10.26-40.72,26.12-82.09,51.58-125.88,74.59-4.2,2.21-8.19,5.77-14.38,3.69-10.08-.88-15.91-1.55-25.83-2.91"/><path class="cls-7" d="M611.05,508.55l44.07,3.7c22.74-12.82,41-26.26,61.68-40.88,25.73-18.2,55.8-41.18,78.83-61.5-.39-5-11.6-.89-15.3-3-5.12-.41-7.42,2.13-9.18,5.24-2.16,1.79-4.06,3.82-6.5,5.35-23.79,14.88-47.25,30.12-71.66,44.38-22.09,12.91-42.51,26.54-66.64,37.25"/><path class="cls-9" d="M1057.48,347.73c-6.66-4.66-14.83-3.38-22.33-2.7a320.08,320.08,0,0,1-63.58-.6c-4.48,0-7.93-1-3.19-4.38,8-5.78,7.87-11.57,1.88-18.12a13.67,13.67,0,0,1-3-6.1c-4.45-3.07-7.54.07-10.13,1.83C940.38,329,919.27,331.82,899,336.58c-10.25,2.41-34.84.43-43.39,6.86C847.65,352.3,837,361,829.11,369.89c2.43.46,20.27,2.38,22.68,2.34,30.69-.51,61.23,3.36,91.91,1.92l29.8,0c22.55.47,45.13.32,67.7.08,10.49-.11,21-1,31.45-1.54Z"/><path class="cls-6" d="M844.73,341.21c6.17-.59,11.92.13,16.93,3.19-12.55,16.67-28.5,31.43-44.11,46.35-8.46,8.08-12.89,11.51-21.92,19.23-2.94-2.63-10.32.23-15.54-2.26-2-4.29,3-5.64,5.79-7.74,21.43-16.14,43.07-32.13,60.18-51.27C849.4,345.81,843.56,343.87,844.73,341.21Z"/><path class="cls-8" d="M868,343.69a8.33,8.33,0,0,0-6.1-.54c-2.74.93-4.44,2.71-6.09,4.51-20.79,22.62-42.63,44.6-67.37,64.78-39.53,32.89-78.68,64.26-123.27,93-3.87,2.5-7.51,4.82-12.32,8.22-26.3,17.41-54.23,33.18-82.36,48.76-32.26,17.86-51.55,26.57-85.84,41.94l47.17,0c36.25-19.67,59.11-34,93.47-55.55l58-37.22A1349.89,1349.89,0,0,0,803.6,413.91c14.81-13.69,29-27.72,43.25-41.77,7.21-6.85,13-14.48,19.48-21.72C868.07,348.47,870.38,346.36,868,343.69Z"/><path class="cls-10" d="M1057.48,347.73c-6.66-4.66-14.83-3.38-22.33-2.7-21.26,2-45.42,2.93-66.6.66l-100.33-1.35c-7.9,8.86-13.05,18.43-21,27.29,2.42.46,2.11.64,4.52.6,30.69-.51,61.23,3.36,91.91,1.92l29.8,0c22.55.47,45.13.32,67.7.08,10.49-.11,21-1,31.45-1.54Z"/><path class="cls-9" d="M1119.05,296.89c-4.83-2.73-10.13-5.08-13.84-8.87-7.44,0-13.47,2.8-19.88,5.38-12.7,5.13-22.47,13.38-35.32,18.39-18.24,7.13-37.65,7.62-57.29,7.87A25.59,25.59,0,0,1,981.13,332c-6,3.3-10.85,7.92-11.72,14.12,5.39.46,10.19,2.37,15.8,2.85,24.23,2.06,48.17-2,72.27-1.21l19.24-5.54c3.49-2.49,7.88-3.65,12.23-4.87a128.78,128.78,0,0,0,30.15-12.2C1132.15,317.56,1132.07,304.27,1119.05,296.89Z"/><path class="cls-9" d="M1352.57,198.32c12.29,1.58,13.51-8.74,21.41-11.88,9.9-.41,15.79-5.64,20.88-11.14s10.64-8.56,19.5-6.93c1.43,1.22,2.79,2.5,4.3,3.66,16.48,12.69,17.25,17.16,4.95,32.16-3,3.7-8,5-13.47,5.87-15.59,2.36-16.49,3.82-14.84,15.87.59,4.27-.75,8.69-1,13-.44,6.91,4,11.26,12.16,13.74a97.76,97.76,0,0,1,10.44,4.15c15.26,6.57,15.81,11.3,1.68,20a95.08,95.08,0,0,0-14.33,11c-1.07,4.26-5.61,5.46-10,6.52q-63.42,15.22-128.34,26.1c-12.2,2.06-24.26,4.65-36.61,6.14-5.6.68-11.17,2.08-16.92.83-6.24-4.19-.18-6.3,2.87-8.29,6.27-4.08,13.65-7,20.15-10.9,19.78-11.78,36.62-26.23,57.06-37.4,5-2.74,3.72-7.58,6.59-11,16.2-4.14,17.13-17.79,27-25.93,2.34-1.93,3.22-4.9,4.78-7.39,2.41-6,9.36-9.64,13-15.29C1346.4,207,1349.36,202.54,1352.57,198.32Z"/><path class="cls-8" d="M974.92,512.23c-.74-3.8-2.53-7.7-2-11.39,1.31-9-5.71-8.65-13.84-8.85-8.58-.21-13.57.89-12.76,8.83.49,4.84-1.19,9.81-1.89,14.72,8.75,4.56,13.9,3.44,21,3.26C972.05,518.64,975.58,517.71,974.92,512.23Z"/><path class="cls-11" d="M1446.83,282.81c.81-2.3,1.35-4.95-3.82-3.05-11.28,7.41-24.8,8.43-38.8,8.1-3.7,1.55-7.18,3.19-11.49,4-13.82,2.71-27.37,6.18-41.14,9-46.81,9.69-93.67,19.21-141.64,25-2.07-3.24-5.54-2.15-8.19-1.1-8.53,3.41-17.73,3.44-26.9,3.81-13.1,1.32-26.15,2.87-39,5.14a328.36,328.36,0,0,0-63.13,7.4c-7.25.54-5,4-3.1,7.47,1.77,3.2,5.53,5.61,8.09,8.55,10.44-2.82,20.7-1.39,31.3-1.07,15,.45,28.69-2.7,42.8-6.23,13.22-3.31,25.77-8.3,39.41-10.35,15.36-2.31,30.92-3.75,46.33-6,11.92-1.74,23.18-6,35.53-5.8,13.76.23,27.14-.92,39.75-5.47,4.63-1.66,9.31-1.18,10.88,2.39,1.87,4.23,1.89,8.89,9.42,9.61,5.9.56,11.35-.73,16.74-2.3,11.15-3.25,20.31-9,30.21-13.91,17.71-8.73,39-7.95,58.43-12,.46-1.83,2.11-4.3,1.15-5.38"/><path class="cls-11" d="M1494.65,271.3c.89,1.15,2.91,2.85,2.49,3.36-6.23,7.63,2.31,8.85,8,11.32,3.89-4.83,9.37-8.94,11.12-14.73Z"/><path class="cls-8" d="M948.06,470.69c-1.21-6.31-.14-10.06,10.59-10.26,13.46-.25,10.05,6.33,10.93,12,1,6.82-2.81,8.15-11,8.43C947.86,481.19,946.71,477,948.06,470.69Z"/><path class="cls-8" d="M950.22,445.93c-1.25-6,1-8.84,9.45-8.65,9.36.22,7.27,5,7.68,9.13.73,7.25-6.05,5.63-11.44,6C948.24,453,949.21,449.33,950.22,445.93Z"/><path class="cls-8" d="M962.94,419.14c3.93,3.52,1.32,7.36,2.1,11.25-4.42-.64-10.08,2.6-12.67-2.43C949.53,422.46,953.11,419.57,962.94,419.14Z"/><path class="cls-8" d="M954.46,415.73a8.74,8.74,0,0,1-2.14-6.17c.27-2.73,2.34-3.77,5.59-3.75,2.8,0,6-.22,6.78,2.61.59,2.11.89,4.4-2.56,5.52l-5.73,1.82C955.76,415.74,955.11,415.73,954.46,415.73Z"/><path class="cls-8" d="M955.39,399.32a10.6,10.6,0,0,1-1.62-6.17c.2-2.73,1.76-3.77,4.22-3.75,2.12,0,4.52-.22,5.12,2.61.45,2.11.67,4.4-1.93,5.52l-4.32,1.82Q956.13,399.32,955.39,399.32Z"/><path class="cls-8" d="M956,383.94a9.93,9.93,0,0,1-1.4-5.58c.18-2.46,1.53-3.41,3.67-3.39,1.83,0,3.92-.2,4.44,2.36.39,1.91.58,4-1.68,5L957.27,384C956.84,383.94,956.42,383.93,956,383.94Z"/><path class="cls-8" d="M956.78,369a9.24,9.24,0,0,1-1-4.62c.13-2,1.09-2.82,2.62-2.81,1.31,0,2.8-.16,3.17,2,.28,1.58.42,3.29-1.19,4.13l-2.69,1.36C957.39,369,957.09,369,956.78,369Z"/><path class="cls-9" d="M.22,106.66C15.11,101.37,27.38,91.93,39.69,84c13.92-9,30.89-14.56,44.77-23.64,3-2,6-3.83,8.11-6.48,14-17.41,34.06-31.19,49-48.07,3.76-4.28,7.78-4.31,12.3-1.15q19.88,13.89,39.55,28c1.23.88,2.54,2.39,2.47,3.57-.77,12.84,10.21,24.29,7.38,37.34-.94,4.31,1.34,7.36,5.55,10,9.38,6,13.42,15.74,24.21,20.84,2,.95,2.14,2.65,1,4.41-8.55,13.22-8.35,28.45-16.13,41.87-2.52,4.36-5.88,8-4.09,13.93,3.31,10.86,13.07,15.46,24.88,18.41,8.6,2.15,11.22,6.07,9.9,12.46-1.49,7.21,3.74,14.69-1.94,22.22-7.88-2.77-12.07-10-23.24-12,9.13,19.11,6.12,38.71,12.33,57.32-10.37,4.87-21.06.45-31.59.7-6-2.18-13.6-.45-18.82-4.54-4.13-4.74-5.25-10.32-6.31-15.72-4.91-25.29-19.47-48-31.89-71.19-3.4-6.36-9.68-10.76-18.29-14.17-2.54,4.35-1.16,8.38-.61,12.33.43,3,1.31,6.09-.19,9-1.95,3.87-5.37,5.41-9.87,2.35-7.82-5.32-15.13-11-20.57-18-1.94-2.49-2.83-5.33-1.48-8,3.58-7.07-.56-12.2-6.1-17.33-5.06-4.68-10.26-9.26-15.36-13.9-4.23-3.84-6.39-2.45-7.55,1.66-8.61,30.41-24.16,60-19.39,92,1.45,9.82-3.47,16.68-15.25,20.43C25.25,241,21.45,244.12,18,249c-6.28,2.45-12.86,3.25-17.81-.5C.11,201.08.29,154.05.22,106.66Z"/><path class="cls-9" d="M355.57,103.39c6.08,13.62,21.65,23,27,37.19,3.58,9.43,6.19,19.22,11.85,28.24,1.82,2.9,1,6.49-1.46,9.53-4.67,5.81-3.56,11.86.35,17.33,8.07,11.31,16.74,22.35,25.3,33.45,4.49,5.82,6.49,11.43,5,18.7-2,10-.85,20.35-1,30.54,0,2.7,1,5.74-4.09,6.56l-21.85-3.82c-4.15-15.1-14.47-28.76-17.32-44.17a5.23,5.23,0,0,0-2-2.86c-20.55-15.79-33.59-36.19-54-52.13-8.34-6.53-3.45-15.41-3.49-23.06-.05-10.52-4.17-20.92-1.17-31.62.71-2.52-3.35-5.83-5.21-8.78,8.29.31,11.39-4.5,14.83-9,9.23,5.23,11.79-2.63,16.77-5.31C348.74,102.28,351.31,98.21,355.57,103.39Z"/><path class="cls-12" d="M280.62,115.92c.35-8.12-2-13.18-3.32-18.4-.55-2.08-1.94-4.56,1-5.89,2.35-1.06,3.72,1.19,5.34,2.31,8.84,6.08,11.61,14,9.49,23.6-3.47,15.72-3.4,15.77,11.6,22.88,3.52,1.66,4.26,4,2.85,7.09-1.93,4.3-5.59,7.36-9.49,10.14-12.12,8.64-13.11,11.69-7.66,24.18,1.43,3.29,5.89,7.4.54,10-4.76,2.29-8.82-2-11.33-5.06-4.2-5.06-7.32-10.83-10.68-16.41-2.13-3.53-.82-6.75,2-9.61,6.75-6.91,8.55-15,7.69-23.89A55.07,55.07,0,0,1,280.62,115.92Z"/><path class="cls-13" d="M378,231.63c-15.3-16.86-30.67-34-49-49.3-3.85-3.21-6.18-6.83-5.78-11.21,1.05-11.61-1.53-23.15-1.23-34.69.17-6.89-.62-13.14-5.65-18.89-5.88-8.69-10.89-17.76-18.43-25.74A18.89,18.89,0,0,1,287,85.89c-3.51-3.5-10.36-6.59-10.69-12.32-10.48-10.87-17.45-23.25-25.38-35.21-1.09-8.87-10.23-15.07-13-23.29-1.24-3.65-3.31-4.54-7.86-5.16-19.29-2.63-38.41-6-57.69-8.67C153.6-1.36,135.89-1,124.14,13.48c-2.41,3-5.63,5.92-11.29,5.11-12,8.46-25.83,15.24-37.29,24.2-4.66,2.2-9.8,2.92-15.2,3s-10.57.77-14.8,3.67C32.56,55.27,22.34,64,9.79,70.22A23.8,23.8,0,0,0,.22,78.93c0,9.3,0,18.38,0,27.68,11.84.91,19.83-6,27.41-11.1A292.8,292.8,0,0,1,57.34,77.88C72.1,70.31,89,64.47,98.7,52c11.7-15,29.75-26.18,41.78-41,4.1-5.06,9.1-5.11,15.24-1.4,11.9,7.2,22,15.87,32.86,23.85,1.83,1.34,3.6,3,3.73,4.94.56,8.11,6.89,15.79,6.25,23.36C197.28,77,207.94,87.16,218.9,97.7a58.86,58.86,0,0,0,7.41,6c2.67,1.86,3.8,4,2.57,6.68-6.4,13.8-7.61,28.79-16.23,42.06-3.47,5.34-2.78,10.52-.47,16.05,3.41,8.16,11,12.58,20.67,15.72,4.2,1.37,9.94,2.14,10.86,6.06,1.61,6.89,3.22,14,.89,21.31-3.84-.42-5.62-2.29-7.88-3.51-3.48-1.87-7.18-4.94-11.44-3.14-5,2.1-3.34,6.31-2.26,9.79A125.05,125.05,0,0,1,228,243.42c.5,7.42,2,14.84,7.24,21.37,3.62,2.09,7.93,2.46,12.19,2.61,11.71.4,23.35,2.08,34.86,2.7,15.24.82,29.91,5.45,45.39,3.76,14.37,1.33,28.52,4.27,43.2,3.43,2.73-.15,4.3,1.72,6,3.08,5.72,4.1,12.14,4.56,19.11,2.17,2-1,3.11-2.63,2.61-4.27C393.7,262.16,389.94,244.84,378,231.63Z"/><path class="cls-13" d="M586.17,267.78c1-2.69-.44-5.41-1.88-7.94.05-2.89.11-5.77.16-8.66,2.17-11.08,0-21.79-5-32.2a8.78,8.78,0,0,0-4.69-4.42c-16.91-6.42-33.64-13.3-53.09-14-5.06,2.15-4.9,5.75-4.41,9.44,1.14,8.62,3.71,17.12,8.8,24.71,6.25,9.32,4,16.84-4.35,24.3-4,3.56-8.11,7-12.17,10.52-2.6,2.26-5.34,3.15-7.73.08-6.45-8.28-16.8-14.72-20.6-24.16-4.76-11.79-13.23-22.77-13.42-35.57-4.79-10.18-2.75-20.77-3.09-31.22,0-1.39,0-2.77,0-4.16A109,109,0,0,0,453,140.16c-3.5-2.33-4.85-5.24-4.55-8.8.23-2.78.19-5.75-3.78-7.18-8.61-3.09-17-7.64-26-8.64-12-1.31-22.19-5.07-33.14-8.15-9.26-2.61-19-7.39-29.93-4-2.34,4.82.49,9,4.15,12.25,16.53,14.46,21.67,32.73,29.27,50.2,1.65,3.79,2.28,7.56.36,11.35-4.42,8.74-2.08,16.79,3.85,24.56,7.26,9.53,14.28,19.16,21.71,28.61,3.4,4.32,6.27,8.74,5.36,14-2.33,13.48-.59,27.06-1.69,40.57,4.38,3.09,9.82,3.06,15.16,2.82,11.48-.51,21.92,3.32,32.95,4.73,10.85,1.39,21,5.46,32.52,5.53,9.75.06,18.85,4.24,28.91,3.91.73,0,1.55,1.62,2.33,2.49l.93,1c4.24,1.65,9.19,2,13.09,4.23,2.78.9,5.7.74,8.6.63a60.44,60.44,0,0,1,12.3,1.79c10.2,2.14,20.57,2.65,30.89.18,3.35-2.66.9-5.14-.54-7.52C588.6,293,581,281.42,586.17,267.78Z"/><path class="cls-13" d="M125.15,152.18c-3.83,10,1.84,19.91-.88,30.71-8.06-6.49-15.31-11.59-21.45-17.7-4-4-5.95-6.89-2.36-11.67,2.88-3.84,1.65-8-2.21-11.53-8.47-7.83-16.73-15.8-25.16-23.66-4.7-4.37-6.76-2.24-8.08,2Q61,133.2,56.81,146c-7.51,22.7-17.06,45.31-12.54,69.14,2.25,11.87-3.07,18.92-17.14,22.68-7.1,1.9-10.27,5.55-9.12,11.34,8.12-3.36,15.1,2.25,22.55,1.87,32.89-1.67,65.2,5,98,3.75,13.57,1.83,27.33,2.72,40.88,4.68,2.4.35,5,0,6.75-1.77-4.6-28.8-18.53-55.32-32.6-81.92C147.8,164.84,138.12,157.94,125.15,152.18Z"/><path class="cls-9" d="M663.93,322.78c-18.44-2.6-36.86-5.28-55.34-7.71a26.48,26.48,0,0,1-11.39-3.91c-9.63-7.86-11.53-18.5-16.18-28-3.74-7.66,3.11-15.41,3.27-23.3,4,3.53,8,7,11.82,10.59,6.14,5.7,13.57,9.26,23.29,10.62,16,2.24,28.62,14.58,28,26.94-.16,3.13,2.4,4.2,4.42,6C655.43,317.34,662.37,317.85,663.93,322.78Z"/><path class="cls-9" d="M470.14,208.16c16.84-4.71,35.39-1.19,52.11-6.49-4.55,5.94-1,11.93.52,17.63a53.41,53.41,0,0,0,8.28,17.84c5.58,7.59,3.16,13.81-3,19.81S515,268.6,508.8,274.64c-3.2,3.12-5.37,2-7.27-.47-9.65-12.65-24-22.86-28.5-38.31-2.32-8.05-8.71-15.47-7.56-24.32C466.14,209.68,468.77,209.44,470.14,208.16Z"/><path class="cls-13" d="M1517.39,256.27c-3.2,1.06-4.54,1.24-1.61-1.75h0c8.62-8.42,14.45-17.9,18.94-28.38-4.91.62-7.87,3.9-13,2.82l9.21-10.86c-3.67-5.61-10.58-6.25-17.37-6.09a40.83,40.83,0,0,1-14.41-2.1c-4.75-3.4-7.7-7.93-11.9-11.59-7.69-6.69-11.79-15.75-22.48-20.44l-50.39-9.51c-.83,3.54,2.14,5.83,5,7.82,9.48,6.7,9.61,13.83,3.85,22.32-3.78,5.56-9.24,8-16.53,9.36-7.56,1.43-15.42,3.85-15.48,10.77-.07,7.41-1,14.86.11,22.28,1,6.29,5.07,10.71,12.35,13.59,5.41,2.14,10.75,4.39,16,6.81,4.75,2.21,5,5,2.23,8.36-3.33,4.07-8.76,6.51-12.75,10-3,2.61-8.72,5-3.63,9.57,8.15,2.69,16.08,1.49,23.91-.9,5.72-1.75,13.17-1.89,13.68-8.6-1-4.66,5.34-6.37,6.78-10.05,1-2.45,4.65-6.44,1.77-7.17-8.65-2.18-2.45-4.63-.82-6.62,2.08-2.56,4.32-5,5-8,7-10.61,7-10.61,18.6-2.57l8,5.5c1,.7,3.05,1.33,2.16,2.5-7.48,9.7,5.83,12.3,10.13,18,7.21,3.27,14.42,4.52,21.6-.05,3.69-3.82,7.35-7.65,7.58-12.82C1516.78,258.39,1516.24,261.12,1517.39,256.27Z"/><path class="cls-13" d="M967.23,315.83c-6,1.4-2,4.25-.68,5.64,6.61,7.22,6,13.27-2.95,19.15-1.74,1.15-6.94,4.37-3.24,4.88,4,.56,6.07,1.31,9,.59,7-5.3,11.08-12.64,20.94-16.17,3.74-1.33,5.66-6.24,2.37-10.26C983.89,319.71,975.78,316.9,967.23,315.83Z"/><path class="cls-13" d="M1275.06,261.53c-6.31,20.32-26.35,31.21-46.24,40.21,2-3,6.79-5.34,12.5-7.46,8.25-3.06,13.56-8.5,13.88-16.07-8.27-1.26-15.38,2.61-23.25,3.11-3.75,3.65-9.56,6.38-11.62,10.62-6.73,13.89-18.58,23.12-36.46,28.11a25.9,25.9,0,0,0,4.12-2c5.61-3.48,9.39-7.6,4.94-13.4-14.09-5.46-29.67-8-44.78-9.07-12.93-.89-23.75-7.43-36.86-6.18l-6.08-1.34c1.3,5.57,5.64,9,12.2,11.41,9.6,3.56,11.38,17.39,2.5,22.09-6.66,3.53-13.26,7.28-20.94,9.75-8.45,2.72-17.84,4.17-24.59,9.54,20.66,1.85,37.79-5.07,58.38-4a19.14,19.14,0,0,0,4.38-.63c13.46-4.71,24.53-13.29,40.12-14.56a20.66,20.66,0,0,0,3.07-.47c-4.35,1.69-7.2,4.91-4.46,9.63a268.2,268.2,0,0,0,34.07-4.83c1.18-1,2.15-2.29,3.59-3A416.75,416.75,0,0,0,1264,292.75c9.66-6.65,17.8-15,30.17-19.4,7.47-2.69,7.79-8,4.8-13.49Z"/><path class="cls-13" d="M1373.68,237.58c-4.11-1-4.37,2.84-5.47,4.85-3.31,6-6.22,12.11-10.2,20,6.44-3.08,10.5-5.33,14.9-7.06,5.65-2.21,6.37-6.38,7.4-10.32S1377.57,238.52,1373.68,237.58Z"/><path class="cls-13" d="M367.07,172.47c8.43-8.1,4.6-14.66-4.6-22.09C362.3,158.71,358.75,166.12,367.07,172.47Z"/><path class="cls-14" d="M1847.61,207.68l21.63,27.69c-9.21,1.73-14.86-6.42-23.92-8.24,6.85,17.06,17.25,28.83,30.11,42.3-11.13-3.93-19.37-7.07-27-12-2-1.28-4.31-5.95-6.68-1.53-1.65,3.08,1.81,4.53,3.8,5.8,8.46,5.42,13.4,15.64,24.72,20.64-12.09,3.66-20-.36-29.22,4.58-26.61-2.6-53.56,8.84-79.36,12.28-22.14,2.94-43.62,10.81-66.09,11-.9-9.6,6.62-12.52,10.62-18-3.68,1-7.41,3.25-11.54,3.69-2.77.29-6,.57-7.2-2.95s1.65-5.65,4-7.3c10.2-7.25,19.46-15.94,27.84-23.27-3.48,3.57-9.49,4.52-14.86,7-3,1.42-6.84,4.05-9.18-.69-1.9-3.86,1.22-6.61,3.43-8.95a128.8,128.8,0,0,0,17.44-23.81c-5.8.08-12.27,6.93-15.71.4s4.13-10.4,7.16-15.24c.59-.95,1.43-1.71,2.06-2.64,3.84-4.65,7.77-9.2,10.59-14.8,3.07-5.44,7-10.2,9.79-16.11-3.2,1.92-6.17,3.84-9.69,4a5.75,5.75,0,0,1-4-1.71c-1.81-5.16,1.38-8.27,4-11.17,9.7-10.87,16.85-23.86,24.38-36.81-3.4-1.21-8.53,2.67-9.63-4.43,12.4-10,21-23.57,28.47-39.67-6.59-.92-11.49,4.55-18.12,3.12,17.7-18.16,29.64-40.16,40.59-64.77a141.41,141.41,0,0,0,41.19,53.73c-1.33.47-1.87.88-2.37.81-5-.62-12.31-5.24-14.55-1.82-3.49,5.31,2.11,12.11,4.06,18.15,1.53,4.73,3.06,9.69,6.46,13.35,6,3.55,9.53,10,14,15.32,2.34,2.75,5.46,5.74,4.16,10.07-1.44,4.76-6.13,1.71-9.13,3.74,4.07,13.15,13.5,22.55,18.37,35a7,7,0,0,1-3.72,6.38c-3.44,2.08-.15,3.58.49,5.12C1846.44,199.71,1849,203.09,1847.61,207.68Z"/><path class="cls-14" d="M1519.22,247.56c-2.57,1-14.66,6.66-16.19,5.7a16.14,16.14,0,0,1,2.15-9.19c1.51-2.59,3.9-4.39,5.14-7.25,5.82-9.64,17.22-23.24,20.61-35.34-2.69-.16-15.19,3.93-16.26,2.63-.81-1,5.29-7,6.63-9.63,1.71-3.38,7-6.65,8.81-9.92,3.71-4.81,5.78-10.34,8.33-14.45,1.8-2.08,0-4.26-.91-7.79-5,.06-8.74,5.76-14.78,4.48,14.44-18.14,22.93-39.45,30-62.56,8.53,11.79,15.47,23.7,26.38,31.13l14.53,12.85c-4.69,2.87-9.12-.69-13.8,1.35.34,5.28,2.83,9.62,5.56,13.84,9.76,8.69,15.62,21.66,25.47,30.28a6,6,0,0,1,1.79,6.34c-1.75,4.36-5.31,2.09-9,2.64,3.32,4.88,6.76,9.38,9.82,14.16a59,59,0,0,0,4.39,5.73c1,1,1.86,2.1,2.78,3.15a56,56,0,0,0,5.07,4.92c3.69,3.34,9.93,6.68,7.23,12.44-2.57,5.47-8,0-12.15-.82,8.68,9.41,16.79,19.51,26.65,27.45,3.29,2.66,8.34,6.08,6.45,10.81-2.35,5.89-7.84,2-12,1.28-1.35-.22-2.62-1-5.28-1.1a203,203,0,0,0,16.12,18.52c2,2.1,4.76,4.64,3.35,7.88-1.69,3.86-5.29,2.71-8.33,1.86s-5.85-2.32-9.32-2.93c3.09,3.28,6.76,5,9.57,8,4.2,4.49,1.83,6.41-2.32,7.61-42.7,9.64-92.62,1.77-132.9,23.74-4.88,2.66-10.53,3.49-15.82,5.17-4,.34-2.38-2.55-1.54-4.17,2.1-4.07,5.6-6.84,8.13-10.53.9-1.32,3.47-2.44,1.82-4.59-9.6-12.46-5.31-5.18-1.35-12.66-3.49,2.18,5.17.43,2.24-4-5.06-7.73-8.78-6.95-6.85-14.88-5.2.06.12-7.54.88-15.58,1.76-8.39,7.62-14.28,10.29-22.11"/><path class="cls-3" d="M1502.36,272.78c1.81,14.09,7.79,1,12.15,2.58,1.38,7.08-2.92,12.18-5.7,17.75-1.62,3.25-3.42,6.59-.38,9.5,2.42,2.33,5.1.58,7.62-1.12,3.13-2.11,5.62-5.74,10.67-6-2.35,8.94-9.42,12.58-13.56,18.83-2.17,3.27-4,7.16-3.23,10.84.93,4.27,4.77.27,7.56,1.37-2.52,9.92-11.39,13.94-14.94,22.46-22.25,10.3-45.86,14-69.31,18.43-1,.2-2.34-1.27-3.51-2,.48-3.29,8.63-6.7-.61-9.94-4.17-1.46-.26-4.31,1.17-5.38a41.11,41.11,0,0,0,12.15-13.85c-6.37-1.44-8.75,5.81-13.91,5.5.57-8.54,10.78-12.53,8.73-22.14-4.35-1.7-5.71,4.75-10.51,3.53,3-8.18,10.35-13,11.29-21.73-10.12-6.51-9.91-6.34-2.38-18.53,3.27-5.3,8.79-10.34,4.87-18.34-1.76-3.27-.48-6.19,1.1-8.78,3.63-6,5.75-11.43,3.57-19.58-1.86-7,6.33-7.53,8.1-14.31,1.09-2,2.71-12.38,3.55-14.52,3.82-9.72,4.3,4,11,11.11,11.41,5,19.1,1.1,17.39,16.14-.6,5.24,5.49,9.58,8.43,14.41C1497.94,256.29,1496.06,266.49,1502.36,272.78Z"/><path class="cls-3" d="M1728.54,253.7c-9.63,7.77-21,9.56-31.74,13.94,9.24-9.38,16.66-20.1,23.26-31.61,1.29-2.24,3.66-4.62,1.25-7.2-2-2.14-3.64.76-5.32,1.83a34.38,34.38,0,0,1-15.91,5.64l12-16.42h0c4.63-3.61,7.66-8.75,10.41-14.17-3.75-5-3.85-10.6-2.13-16.52l-4.72-.06c-2.44-3.35-7.25-2.95-9.28-8.14,8.31-2.35,7.42-7.77,2.6-13.22-6.11-6.92-10.72-15.46-17.82-21.27-3.4-4.55-5.44-9.84-6.94-16.35h16.65c-17.74-12.06-29.89-26.14-40.8-44.35-7.79,21.75-16.07,40.91-31.11,59.37l15.64-4.36c-2.06,6.47-3.33,11.84-7.42,15.43a58.66,58.66,0,0,0-12.15,14.12c-2.62,4-6,9.23,1.93,11,4.55,1.05,2.21,3.82,1.36,6a83.16,83.16,0,0,1-9.76,17.8c-3,4.24-6.23,8.42-5.95,14.45l3.82,5.27,2.12,2.39,4.26,4.62h0c2.66,3.69,7.79,4.85,8.82,10.71-6.67-.9-11.58-7-19.65-6.69,12.39,17.27,26.16,30.7,42,44.3-9.67.38-16-6-24.6-4.38,7.31,12.38,16.34,21.21,27.2,31.87-10.25-1.85-17.32-7.85-26.57-6.34,4,7.74,10.16,10.77,15.68,14.39,3.93,2.58,1.48,3.92,0,5.83l49.9-11.5c4.69-10,14.84-14.35,21.43-25.6-10.77,2.08-18.42,9.12-29.43,7.77C1704.13,281.41,1717.75,269.59,1728.54,253.7Z"/><path class="cls-3" d="M1896.82,104c-2.7,2.26-6.64,3-7.4,7.65a3.8,3.8,0,0,0,0,1l-9.91,9c5.25,2.52,9.34-2.46,14.11-.08a3.23,3.23,0,0,1,.08.53q-.57,1.53-1.14,3.09a11,11,0,0,1-3.29,2.29c-6.18,6.87-14.27,11.63-18,21.25a5.6,5.6,0,0,0-.08.77c-2.09.52-4.31,1.36-4,3.93.46,3.79,3.76,2.29,5.91,1.69a10.12,10.12,0,0,1,2.54-.46,2.91,2.91,0,0,1,.15.69c-3.72,5-7.6,10.07-9.93,16.33a16.45,16.45,0,0,0-3.07,6.33l-7.5,8.72h0l-6.43,7.55c4.12,2.06,1.7,1.47,6.3,2.83h0l.08.07c-2.3,4.52-6.7,7-8.76,11.74,3,9.14,9.64,15,14.62,21.65a69.8,69.8,0,0,0-8.59-4.59c-2.68-1.06-5.51-1.65-7.61,1.23s-.88,6.07.62,8.71c5.38,9.45,10.63,19,18.45,25.73-5.47-2.48-10.86-6-16.52-8.85-2.58-1.29-5.49-2.06-7.32,1.45a6.65,6.65,0,0,0,1.65,8.41c6.81,5.82,12.44,13.31,19.49,18a53.75,53.75,0,0,0-12.91-.2c-3.76.41-8.63-.91-9.64,5.76,27-.17,54.42.17,81.4,2.88,0-71.1,0-142.84,0-213.94C1911.07,83.14,1906.88,97,1896.82,104Z"/><path class="cls-9" d="M1232,281.32c-7.54,10.47-14.77,21.09-22.78,31.34-2.83,3.63-8.7,4.37-14,5.46-8.83,1.81-17,4.66-19.29,12.64l-38.73,5.4c10.53-7.18,20.62-15,35.41-16.71,16-1.9,17-2.59,20.38-14.84,11.27-4.57,19-12.43,28.7-18.49C1224.88,284.09,1227.12,281.19,1232,281.32Z"/><path class="cls-9" d="M1275.06,261.53c2.58,7.35-1.46,12.59-7,18.63-12.23,13.24-31,19.26-47.16,28.25,6-6.34,6.9-15.6,21.17-17,6.88-.66,8-9.15,13.17-13.22C1259.17,270.76,1266,265.34,1275.06,261.53Z"/><path class="cls-5" d="M854.09,341.5c-4.58-1-8.5-.29-13.88-.29h0c-9.92-1.08-19.8-2.49-29.9-2.11h0L808,337.38c-2.47-1.28-5.4-1.31-8.17-1.83-19.44-3.69-39.22-4.71-59.15-4.7l-16.55-.17c-1.3-.85-2.66-2.48-3.9-2.43-15.51.61-30.26-3.85-45.64-3.86h0c-3.44-1-7.65.73-10.62-1.84-21-8.13-44.13-9-66.74-11.62-15.47,1.82-30.31-1.08-45.31-3.36l-27.57-9.23c-22.15-3-44.44-5.59-65.92-10.73-12.78-3.06-26.3-1.78-38.87-5.13-7.53-1.19-14.75-4.89-22.81-1.6-5.7-1.1,1.42.71-11.52-2.33-4.48-1.23-8-4-10.24-3.84-15.95.84-31.34-2.39-47-3.59h0c-5.36-.15-11,.49-16-.61-17.38-3.78-35.31-4.29-53-6-7.68-.73-15.56-.38-23.2-1.77-10.72-.46-21.28-2.49-32.09-1.9h0c-5.25-2.8-12.27-.2-17.39-3.38-13.76-1.39-27.41-3.81-41.35-3.33-2.15-.49-4.29-1-6.4-1.66-25.2-.69-50-4.83-75.31-4.78-10.65,0-21.49-5.23-31.81-2-5,1.56-7.82,1.86-13.32,3.22-5.53-.26-12.3-.51-17.83-.76,0,6.5,0,13.06,0,19.56,20.75,2.5,42.61,5.07,63.39,7.39,23.6,2.64,47.17,5.66,70.9,7.28,22.38,1.52,44.62,3.69,66.8,6.2,18.37,2.07,36.55,5,55.29,4,4.76-.25,8.94-.24,11.91-4.05,8.32-10.69,21.8-11.07,35.09-8.5,28.39,5.48,56.56,11.61,85,16.84,27.77,5.1,55.46,10.06,83.93,12.56,22.24,1.95,44.33,5.16,66.3,8.52,5.89.9,11.27,3.26,17.38,1.16,13.49,3.52,27.61,4,41.59,4.94,8.79.61,17.58.92,25.14,5h0c5.23,8.58,12.66,16,25.62,16.41,23.72.82,47.41,3,71.22,1.85H793c18.69.08,37.42-.31,56,1.72C849.08,349.05,854.84,343.82,854.09,341.5Z"/><path class="cls-4" d="M754.6,407.09c-5.37,1.56-11.23-.56-16.88-1-25.87-2-50.89-8.28-77-8.62a4.21,4.21,0,0,1-1.07,0c-15.34-4.11-29.18-9.31-47.51-7.53-16.28,1.59-34.11-.26-51.25-.69-4.23-.11-7.42-.71-8.9-4.5-3.34-8.62-16.74-12.62-26.84-7.41-14.18,7.31-28.82,2.65-43.26,2.07-3.64-.14-7.31-2.14-11.38-1.71-32.83,3.42-65.84,1.4-98.73,1.2-12.77-.07-25.58.23-38.23-.06-27.45-.65-54.95-1-82.41-2.47-26.41-1.37-53.1.51-79.56-.65-31.49-1.39-62.95-1.49-94.44-1.31-7.51.05-13.15-3.16-18.73-5.49-18.13-7.57-39.1-4.68-58.15-7.06,0-31-.11-63-.11-94,4.08-3.27,10.31-2.67,15.27-1.89,59,9.28,119.08,12.82,178.69,18.86,19.47,2,38.63,6.18,58.6,4.9,5.1-.33,9.91-.52,13.55-3.89C277.44,275.43,292,275,307.45,278c30.17,6,60.4,11.81,90.56,17.83,32.72,6.53,66.22,9.16,99.25,14,16,2.34,32.45,3.52,48.16,7.25,3.6.85,7.11-.07,10.67.06,15.75,1.46,31.22,4.38,47.22,4.7,7.69.15,15.59,1.39,21.49,6.06,8.76,10.46,20.38,15.1,37.32,15.57,19.55.55,39.15.54,58.7,1.49,12.34.71,24.7-1.24,37,.24,5.17-.43,10.34.1,15.51,0,6.34-.09,12.69.17,19-.2,10.66-.7,21.31.24,31.93.59,4.58.15,9,.1,13.57-.07,4.22-.17,9.53-1,11.07,3.86-17.63,21-41,38-64.48,54.81-1.54,1.11-2.91,2.36-4.36,3.55l-8.94,4.38"/></g></g></g></svg>