<svg xmlns="http://www.w3.org/2000/svg" viewBox="0 0 1920.14 599.11"><defs><style>.cls-1{fill:#0e4740;}.cls-2{fill:#d3d3d3;}.cls-3{fill:#105147;}.cls-4{fill:#115e4f;}.cls-5{fill:#136b5a;}.cls-6{fill:#e8e9eb;}.cls-7{fill:#e0e0e0;}.cls-8{fill:#f9f9f9;}.cls-9{fill:#165e55;}.cls-10{fill:#dfceca;}.cls-11{fill:#f2f2f2;}.cls-12{fill:#e9d6cb;}.cls-13{fill:#ebd6cc;}.cls-14{fill:#157563;}.cls-15{fill:#ead7cb;}.cls-16{fill:#797e9c;}.cls-17{fill:#d6c1b9;}.cls-18{fill:#ceb8b2;}.cls-19{fill:#e8d6cc;}.cls-20{fill:#e8d3cc;}</style></defs><g id="Layer_2" data-name="Layer 2"><g id="Layer_16" data-name="Layer 16"><g id="road"><path class="cls-1" d="M1431,598.9l489.1-.13c-.3-46.54-.08-97.16-.08-143.7a28.24,28.24,0,0,0-9.54-2.07c-38.23-3.24-76.77-5.17-115.54-4.52-29.59.49-59.49,1.43-87.3,6.94-38,7.51-76.6,13.12-118.24,12.34-13.5-.26-24.88,1.91-33.28,7.12a35.75,35.75,0,0,1-18,5c-21.64.46-43.11,2.4-65,1-26.46-1.66-53.07-.32-79,2-20.9,1.88-41.82,4.05-62.68,6.17-20.45,2.08-104.34,21.76-125.45,21.78"/><path class="cls-2" d="M1178.88,505.28q-108.06,0-216.15.07c-10.45,3.75-19.29,3.32-30.84.26-8.85-1.95-20.5-1.3-30.12-1.3q-108.88,0-217.78,0c-4.58,0-9.25-.17-13.42,1l-64.24-2.78c-164.14,67-214.14,89.23-234.1,96.31l573.39.28,351.18-.3-103.87-91.57A52.79,52.79,0,0,0,1178.88,505.28Z"/><path class="cls-2" d="M1326.93,598.82l106.22.07-190.59-94.37-16.2,1.76c-3,.53-8.88-.56-5.92,3.09"/><path class="cls-3" d="M1250.48,433.7c-21.55,9.77-45.15,14.36-69.71,16.56-4.3.38-8.44,1.07-11.42,3.84-2.92,4.11.57,6.83,3.69,9.38,19.73,16.12,42.42,28.85,63.52,43.85l28.47,1.6c20.9,2.58,41.66,5.94,62.87,6.76,25.35,1,50-3,74.56-7,35.26-5.83,70.56-12.84,106.8-10.67,21,1.26,41.64.15,62.43-.4,9.1-.23,18.26-1.17,23.54-7.56,6.72-8.14,16-11.28,27.9-10.54,23.73,1.48,46.26-3,69.07-7.27,26.75-5,50.73-16,79-18.36,35.52-3,70.5-1.91,105.75.42,14.44,1,28.39,5,43.13,3.8V395.52c-3.54-2.5-7.74-2.08-12.07-1.87a249.37,249.37,0,0,1-35.1-.62,259,259,0,0,0-41.5-.12,590.47,590.47,0,0,1-94.6-1.35c-31-2.87-61.67-9-92.93-8.7-34.66.32-68.46-5.37-102.84-6.31-46.58-1.27-93-2.18-136.65,14.24a102.8,102.8,0,0,1-34,6.36,150.84,150.84,0,0,0-72.12,19.79"/><path class="cls-1" d="M506.91,467.89c-43.12-1.59-85.07-4.72-125.17-12.61-15-2.94-31.58-2.76-46.48-5.18-31-5-62.92-6.59-95-7.89s-64.21,2.1-96.62-1.57c-11.82-1.34-21.46-4.06-32.12-6C79.6,428.88,46,426,13.78,420.84,9,420.08,2.35,419,.11,423l0,175.85H372.23s168.33-52.45,248.88-104.43"/><path class="cls-4" d="M1256.06,434.64c-17.27,9.3-37.21,13.08-57.23,16.84a73.06,73.06,0,0,1-15.69,1.69c-5-.15-10,0-13.7,3.26-5.69,1.25-8.5-2.11-11.42-4.64a800,800,0,0,1-68.72-68.16c-2.78-3.13,1.11-3.55,4.59-7.78,2.87-2,3.2,1.71,6.7,2.13,13.74,1.63,27.72.27,41.36,1.79,25.26,2.82,50.22-.56,75.27-1.36,36.08-1.14,70.22-9.9,104.79-17,21.86-4.51,43.81-9.16,66.61-10.31,9.28-.47,17.37-4.84,26.76-5,11.79.43,23.13-2,34.51-3.75,13.9-2.11,27.67-4.84,41.19-8.2,30-8.28,59.5-17.87,91.53-20.64,18.63-1.62,37.05-4.33,55.65-6.06a413.6,413.6,0,0,1,52.21-8c31.54-3.79,63.18-7.18,94.34-12.54,17.4-3,34.71-5.75,52.66-4.55,17,1.87,33.93-1.27,50.85-.18,10.75.7,22-.25,31.75,4.77V395.52c-18.66,2.69-37.27,1.12-56,.17-26.9-1.37-53.74,2.21-80.73,1.59-34.39-.79-68.17-4.82-102-8.95a366,366,0,0,0-51.81-2.72c-29.82.64-58.89-5.35-88.55-6.12-19.48-.5-39-1.3-58.43.48-3.16.29-6.37.88-9.48.66-22.4-1.59-42.2,5.24-62,11.52-14.89,4.71-29.9,8-46.12,8.4-22.9.59-43,7.48-61.65,17.49"/><path class="cls-5" d="M1089.11,383.44c-4.86-5-8.25-10.95-13.11-15.94-4.48-5.57-6.11-7.5-10-14,3.83-3.71,9.53-3.89,14.61-3.52,31.44,2.34,60-5.43,88.55-14,11.32-3.41,23.53-4,35.39-5.38,13-1.54,25.77-3.64,38.47-6.13,7.59-1.49,15.16-2.76,23-2.69a118.8,118.8,0,0,0,31.23-4.36c8.14-2.12,14.9-1,18.52,5.53,3.16,5.72,8.8,5.57,15.05,4.37a81,81,0,0,0,26.35-10.39c19.6-11.65,42.81-13.34,66.08-15.07a5.78,5.78,0,0,1,.93.36c7.12,4.06-4.35,8.42-.1,11.76,6.4,5,1.17,8.22-1.32,12,5.32-.81,11-.25,6.54,5.26-3.79,4.68-1.88,8.08-1.57,14.14.07,1.18-9.24,2.27-11.09,2.44-17.8,6.83-37.73,6.29-56.5,9.76-25.29,4.67-50.53,9.33-75.47,15.22a302.35,302.35,0,0,1-56.08,8c-20.42.88-40.82,3-61.24,3-21.12.06-42.32-.88-63.37-2.84C1099.66,380.52,1093.21,380.92,1089.11,383.44Z"/><path class="cls-6" d="M933.9,367.85c-19.45-.34-38.88-.65-58.33-1.46-12.79-.53-26.09-3.21-38.79,1.13l-42.5,41.22a410.17,410.17,0,0,0,59.21,3.31c6.34-.15,12.74.69,19,.88,24.39.73,48.89,2.38,73.21-1l19.67,1.71c43.85.05,108.43-.81,152.29-.82-13.34-14.59-49.15-57-59.93-71.62-3.54-1.69-9.15-3.54-7,1.7,3.12,7.49,14.91,23.43,9.55,23.55-23,.54-70.49,1-93.5,1.36"/><path class="cls-7" d="M1117.41,412.55c-5.82-4.18-32.31-2.74-38-2.59-35.48.93-71,.24-106.44.33l-27-.73c-1.26,0-2.53,0-3.78.07-42.1,2.14-84.07-.57-126.07-2-7.63-.26-15.46-2.42-22.78,1.13-30.44,25.77-48,46.22-80.68,70.42-9.11,6.74-29.91,20.72-37.11,29l232.32-.66,72.89,1.71c71.82-.06,197.52-1,269.34-1Z"/><path class="cls-8" d="M860,340.54a8.25,8.25,0,0,0-6-.54,14.36,14.36,0,0,0-6,4.47c-20.61,22.42-42.25,44.19-66.76,64.18-39.17,32.59-78,63.67-122.13,92.18-3.84,2.48-7.45,4.78-12.21,8.15-26.06,17.25-53.74,32.88-81.61,48.31-32,17.7-51.08,26.33-85.05,41.56l46.74,0c35.91-19.48,58.57-33.68,92.61-55L677,506.9a1339.14,1339.14,0,0,0,119.26-96.79c14.66-13.56,28.76-27.47,42.84-41.38,7.15-6.79,12.88-14.35,19.3-21.52C860.11,345.28,862.4,343.18,860,340.54Z"/><path class="cls-8" d="M1220.11,508.3c-32.53-23.66-61.86-47.28-89.62-74.4-20.87-20.39-46.62-42.62-62.38-65.75-6.46-8-10.54-17.48-16.85-25.56-2.22-2.84-2.33.52-3.59,2.08,4.59,9.18,10.1,15.89,14.81,24.37,10.47,15.35,22.79,29.78,34.41,44.6,30.31,34,61.26,67,98.29,96.8,16.7,13.76,78.34,73,101.75,88.41l67.63,0Z"/><path class="cls-8" d="M933.93,532.8c8.67-6.31,20.51-3,31.14-1.65a7.68,7.68,0,0,1,2.61,1.82c4.55,5.22,4.54,10.36,4,16.7.15,4.36-.27,8.86-.11,13.22.11,6.22.88,8.55-1.39,14.91h0c-11.82,5.36-24.11,2.94-36.22,1.39-4.51-.58-5.69-4.6-6-8"/><path class="cls-3" d="M564.74,492.78c-13,0-25.8,1.07-39,.29-23.24-1.38-46.56-2.71-69.85-3.41q-45-1.34-89.19-7.1c-12.05-1.57-23.9-4.79-35.34-8.25-15-4.53-29.63-8.78-46.23-8.91-8.31-.06-15-5.88-24.25-6.79-36.12-3.53-72-8.5-108.67-4-8.14,1-16.11-1.34-23.94-3-5.49-1.19-10.84-2.86-16.49-.61-1.22.49-2.82,1.44-3.69.22-7.54-10.5-22.79-8.49-34.21-12.63C50.8,430.18,23.4,431,0,423.35c0-21.41.22-43.63.22-65,2-1.73,5.76-3.36,8.66-3.08,16.43,1.58,33.49.53,48.79,6.94C67.53,366.3,78,368,89.35,367.8c50.41-.78,100.78,1.53,151.17,2.08,24.34.26,49-.45,73.32,2.48a62.08,62.08,0,0,0,13.83.12c14.87-1.61,29.66-.38,44.54-.17,30.86.43,61.74,1,92.63-.54,12.6-.63,25.05,3.2,38,2.47,4.63-.26,8.86-.29,13.2-2,15-5.8,24.83-4,34.81,6.58,2.75,2.92,6.07,3.76,10,3.5,21.19-1.39,42.4,3.59,63.59-.18a14.47,14.47,0,0,1,9.23,1.36c10.3,5.51,21.94,7.63,34.15,8.16,22.07.95,43.27,6,65.15,8,8.7.78,14.22.77,15.49-7.46,1-6.32,6.65-10.19,15.3-10.55,4.94-.21,9.11,1.2,11.72,4.59s1,6.22-1.07,9.29c-2.59,3.77-9,5.78-8.41,10.94.23,4.66-3.61,7.52-7.76,10.18-40.34,25.88-81.34,51.1-124.73,73.9-4.15,2.19-8.1,5.72-14.25,3.66-10-.88-15.75-1.54-25.58-2.89"/><path class="cls-7" d="M605.44,503.89l43.67,3.67c22.53-12.71,40.61-26,61.11-40.52,25.5-18,55.3-40.79,78.11-60.93-.38-4.91-11.48-.88-15.15-3-5.07-.4-7.36,2.11-9.1,5.19-2.14,1.78-4,3.79-6.44,5.3-23.58,14.75-46.82,29.85-71,44-21.88,12.78-42.12,26.29-66,36.9"/><path class="cls-9" d="M1845.91,212.74l22.22,25.37c-9.46,1.59-15.27-5.88-24.57-7.54,7,15.63,17.72,26.41,30.93,38.75-11.44-3.6-19.89-6.47-27.78-11-2-1.17-4.44-5.45-6.87-1.41-1.69,2.83,1.87,4.16,3.9,5.32,8.69,5,13.77,14.33,25.4,18.91-12.42,3.36-22.86-1-32.34,3.52-27.33-2.38-52.69,8.78-79.19,11.93-22.73,2.7-44.8,9.9-67.87,10.05-.93-8.79,6.8-11.47,10.91-16.48-3.78.95-7.62,3-11.85,3.38-2.85.27-6.2.52-7.4-2.7s1.69-5.18,4.07-6.69c10.47-6.65,20-14.61,28.59-21.32-3.57,3.27-9.75,4.14-15.26,6.45-3.1,1.3-7,3.71-9.43-.63-2-3.54,1.25-6.06,3.52-8.2a120.16,120.16,0,0,0,17.92-21.82c-6,.07-12.61,6.35-16.14.36s4.24-9.52,7.35-14c.61-.87,1.47-1.56,2.12-2.42,3.94-4.25,8-8.43,10.87-13.56,3.16-5,7.18-9.34,10.06-14.75-3.28,1.76-6.33,3.51-10,3.68a6.29,6.29,0,0,1-4.15-1.56c-1.85-4.73,1.43-7.58,4.09-10.23,10-10,17.3-21.86,25-33.73-3.48-1.1-8.76,2.44-9.88-4.05,12.73-9.19,21.54-21.6,29.24-36.35-6.78-.85-11.81,4.16-18.61,2.86,18.17-16.64,30.44-36.8,41.68-59.34,10.27,20.5,24.38,36.3,42.31,49.22-1.37.44-1.92.8-2.43.75-5.2-.58-12.65-4.8-15-1.67-3.58,4.86,2.17,11.1,4.18,16.62,1.57,4.34,3.14,8.88,6.63,12.24,6.14,3.25,9.79,9.18,14.42,14,2.4,2.53,5.6,5.26,4.26,9.23-1.47,4.36-6.29,1.57-9.37,3.43,4.18,12,13.87,20.65,18.87,32.09,0,2.82-1.53,4.62-3.82,5.85-3.54,1.9-.16,3.28.5,4.68C1844.72,205.44,1847.28,208.54,1845.91,212.74Z"/><path class="cls-9" d="M1570.11,146.5,1585,158.27c-4.81,2.63-9.36-.63-14.17,1.23.35,4.84,2.9,8.82,5.71,12.69,10,8,16,19.84,26.16,27.74,1.59,1.24,2.79,3.69,1.84,5.81-1.81,4-5.46,1.91-9.23,2.41,3.41,4.48,6.94,8.6,10.09,13a56.24,56.24,0,0,0,4.51,5.25c1,.94,1.91,1.92,2.85,2.89a56,56,0,0,0,5.21,4.51c3.79,3.05,10.2,6.12,7.42,11.39-2.64,5-8.17,0-12.47-.75,8.91,8.62,17.24,17.87,27.37,25.15,3.38,2.43,8.57,5.57,6.63,9.9-2.42,5.4-8.06,1.8-12.37,1.18a30,30,0,0,0-5.42-1,194.32,194.32,0,0,0,16.57,17c2.07,1.92,4.88,4.25,3.43,7.22-1.74,3.54-5.43,2.48-8.55,1.7s-6-2.13-9.58-2.69c3.18,3,7,4.58,9.84,7.34,4.3,4.12,1.87,5.88-2.39,7-43.85,8.83-89.36,10.22-130.72,30.34-5,2.44-10.82,3.2-16.25,4.74-4.15.31-2.45-2.34-1.59-3.82,2.17-3.73,5.76-6.27,8.35-9.65.93-1.21,3.58-2.24,1.88-4.2-9.87-11.42-11.23-13.34-7.16-20.2-3.58,2,5.3.4,2.29-3.7-5.19-7.08-9-6.37-7-13.63-5.34,0,.13-6.91.91-14.28,1.81-7.68,7.82-13.08,10.57-20.25,1.17-2.95-.24-3.11.26-6.37-1.53-1.15,1-2.1-.18-1.67-2.64.95-5.68,2.67-7.81,0-2.64-3.27.53-5.86,2.21-8.42,1.56-2.37,4-4,5.28-6.63,6-8.84,11.53-17.89,15-29-2.76-.14-6.34,1.16-8-1.89s.59-5.41,2-7.82c1.75-3.09,4.26-5.64,6.16-8.64,3.81-4.4,5.29-10.77,11-13.62a6.89,6.89,0,0,0,1.9-7.31c-5.09.05-9,5.28-15.18,4.1,14.83-16.62,23.55-36.14,30.75-57.31C1551.78,128.78,1558.91,139.69,1570.11,146.5Z"/><path class="cls-3" d="M1491.32,272.39c1.86,12.91,8,.9,12.48,2.36,1.41,6.49-3,11.17-5.85,16.27-1.67,3-3.51,6-.39,8.71,2.49,2.13,5.24.52,7.82-1,3.22-1.94,5.78-5.27,11-5.47-2.41,8.19-9.68,11.53-13.93,17.25-2.23,3-4.14,6.56-3.31,9.93,1,3.91,4.9.24,7.76,1.25-2.59,9.09-11.7,12.77-15.34,20.58-22.86,9.44-47.1,12.86-71.19,16.89-1.07.18-2.4-1.17-3.61-1.8.5-3,8.87-6.15-.62-9.11-4.28-1.35-.26-4,1.21-4.94a39.29,39.29,0,0,0,12.47-12.68c-6.54-1.32-9,5.32-14.28,5,.58-7.83,11.07-11.48,9-20.29-4.48-1.55-5.88,4.35-10.81,3.24,3-7.5,10.64-11.88,11.61-19.91-10.4-6-10.18-5.81-2.45-17,3.36-4.85,9-9.47,5-16.8-1.8-3-.49-5.67,1.13-8,3.73-5.49,5.9-10.47,3.67-17.93-1.91-6.39,5.6-11.19,7.42-17.41,1.12-1.87,1.51-4,2.38-6,3.93-8.9,8.47-10.39,15.32-3.88,7.39,7,17.71,12.06,16,25.85-.61,4.8,5.65,8.78,8.67,13.2C1486.79,257.28,1484.86,266.62,1491.32,272.39Z"/><path class="cls-3" d="M1723.62,254.91c-9.89,7.12-21.58,8.76-32.6,12.77,9.49-8.59,17.11-18.42,23.89-29,1.32-2.05,3.76-4.23,1.29-6.59-2-2-3.74.69-5.47,1.67A37.91,37.91,0,0,1,1694.4,239l12.36-15h0c4.75-3.32,7.87-8,10.69-13-3.85-4.57-4-9.71-2.19-15.13l-4.84-.06c-2.51-3.07-7.46-2.7-9.54-7.45,8.53-2.16,7.62-7.12,2.67-12.12-6.27-6.34-11-14.16-18.29-19.49-3.51-4.17-5.59-9-7.14-15h17.11c-18.22-11.05-30.7-23.94-41.91-40.63-8,19.92-16.5,37.49-32,54.39l16.06-4c-2.12,5.93-3.42,10.84-7.62,14.13a56.35,56.35,0,0,0-12.48,12.94c-2.69,3.69-6.15,8.46,2,10.13,4.66,1,2.26,3.5,1.39,5.51a74,74,0,0,1-10,16.31c-3.07,3.88-6.4,7.71-6.11,13.23l3.92,4.83,2.17,2.19,4.39,4.23h0c2.73,3.39,8,4.45,9.07,9.81-6.86-.82-11.9-6.41-20.19-6.13,12.72,15.83,26.86,28.13,43.12,40.6-9.93.34-16.47-5.47-25.26-4,7.5,11.35,16.78,19.43,27.93,29.2-10.52-1.69-17.78-7.19-27.28-5.81,4.1,7.09,10.43,9.87,16.1,13.18,4,2.37,1.52,3.6,0,5.35l51.25-10.54c4.81-9.16,15.24-13.14,22-23.46-11.06,1.91-18.92,8.36-30.23,7.13C1698.55,280.3,1712.54,269.47,1723.62,254.91Z"/><path class="cls-10" d="M1047.79,344.54c-6.6-4.61-14.7-3.35-22.13-2.67a316.52,316.52,0,0,1-63-.6c-4.44,0-7.86-.95-3.16-4.33,8-5.74,7.8-11.48,1.86-18a13.56,13.56,0,0,1-3-6c-4.41-3-7.47.07-10,1.81-16.56,11.26-37.47,14-57.61,18.76-10.16,2.38-22,1.31-30.45,7.69-7.83,8.77-12.93,18.26-20.76,27,2.4.46,2.09.64,4.48.6,30.41-.51,60.66,3.33,91.06,1.9l29.53-.05c22.35.47,44.72.31,67.08.08,10.39-.11,20.78-1,31.16-1.52Z"/><path class="cls-11" d="M1047.79,344.54c-6.6-4.61-14.7-3.35-22.13-2.67-21.07,1.93-45,2.9-66,.65l-99.41-1.33c-7.83,8.77-12.93,18.26-20.76,27,2.4.46,2.09.64,4.48.6,30.41-.51,60.66,3.33,91.06,1.9l29.53-.05c22.35.47,44.72.31,67.08.08,10.39-.11,20.78-1,31.16-1.52Z"/><path class="cls-6" d="M837,338.08c6.11-.58,11.82.13,16.78,3.16-12.44,16.52-28.24,31.14-43.7,45.92-8.38,8-12.77,11.41-21.73,19.06-2.91-2.61-10.22.22-15.39-2.24-1.93-4.25,3-5.58,5.73-7.66,21.24-16,42.67-31.84,59.63-50.81C841.61,342.64,835.82,340.72,837,338.08Z"/><path class="cls-12" d="M1108.79,294.17c-4.78-2.71-10-5-13.72-8.79-7.37,0-13.34,2.77-19.69,5.33-12.58,5.08-22.26,13.25-35,18.22-18.08,7.07-37.32,7.55-56.77,7.8a25.37,25.37,0,0,1-11.49,12.2c-6,3.27-10.74,7.84-11.6,14,5.33.46,10.08,2.36,15.64,2.83,24,2,47.73-2,71.62-1.2l19.06-5.48c3.45-2.47,7.8-3.63,12.12-4.83a127.61,127.61,0,0,0,29.87-12.09C1121.77,314.65,1121.69,301.48,1108.79,294.17Z"/><path class="cls-13" d="M1340.17,196.5c12.17,1.56,13.39-8.65,21.21-11.77,9.81-.41,15.65-5.59,20.69-11s10.55-8.48,19.32-6.86c1.42,1.21,2.77,2.47,4.27,3.62,16.32,12.58,17.08,17,4.9,31.87-3,3.67-7.89,5-13.36,5.81-15.44,2.34-16.33,3.79-14.69,15.73.58,4.23-.75,8.61-1,12.92-.44,6.85,3.91,11.16,12,13.61a97.84,97.84,0,0,1,10.33,4.11c15.12,6.52,15.67,11.2,1.67,19.79a95.54,95.54,0,0,0-14.2,10.93c-1.06,4.22-5.55,5.41-9.95,6.46q-62.85,15.09-127.17,25.86c-12.09,2-24,4.61-36.28,6.09-5.54.67-11.06,2.06-16.76.82-6.17-4.16-.18-6.24,2.85-8.21,6.21-4.05,13.52-7,20-10.81,19.59-11.67,36.28-26,56.53-37.06,5-2.71,3.68-7.5,6.53-10.89,16-4.09,17-17.62,26.72-25.68,2.32-1.91,3.2-4.86,4.74-7.32,2.39-5.94,9.27-9.56,12.85-15.15C1334.06,205.11,1337,200.68,1340.17,196.5Z"/><path class="cls-8" d="M965,507.53c-.73-3.77-2.51-7.63-2-11.29,1.29-8.95-5.66-8.56-13.72-8.76-8.5-.21-13.44.88-12.64,8.75.49,4.79-1.17,9.72-1.87,14.58,8.66,4.52,13.78,3.41,20.82,3.24C962.15,513.88,965.65,513,965,507.53Z"/><path class="cls-3" d="M1896.45,117.71c-2.77,2.07-6.82,2.7-7.6,7a3.55,3.55,0,0,0,0,.92l-10.18,8.23c5.4,2.3,9.6-2.26,14.5-.08a4,4,0,0,1,.08.48l-1.17,2.83a11.42,11.42,0,0,1-3.38,2.11c-6.35,6.29-14.65,10.65-18.44,19.46a4.82,4.82,0,0,0-.08.71c-2.15.48-4.42,1.24-4.1,3.6.47,3.47,3.86,2.1,6.06,1.55a11.05,11.05,0,0,1,2.61-.42,2.08,2.08,0,0,1,.16.63c-3.82,4.62-7.81,9.22-10.21,15a14.7,14.7,0,0,0-3.15,5.8l-7.7,8h0l-6.6,6.91c4.22,1.89,1.75,1.35,6.47,2.6h0l.08.06c-2.36,4.14-6.88,6.42-9,10.76,3.09,8.37,9.9,13.75,15,19.83a76.77,76.77,0,0,0-8.82-4.2c-2.75-1-5.66-1.51-7.82,1.13s-.91,5.56.64,8c5.52,8.65,10.92,17.44,18.94,23.57-5.61-2.27-11.14-5.5-17-8.11-2.65-1.18-5.63-1.89-7.52,1.33-1.72,2.94-.69,5.88,1.7,7.7,7,5.33,12.77,12.2,20,16.49a62.75,62.75,0,0,0-13.26-.17c-3.86.37-8.86-.84-9.9,5.27,27.78-.15,55.56-.13,83.27,2.35V91.56C1910.77,98.93,1906.79,111.29,1896.45,117.71Z"/><path class="cls-14" d="M1433.56,280.21c.8-2.27,1.34-4.9-3.78-3-11.18,7.33-24.57,8.35-38.44,8-3.67,1.54-7.12,3.16-11.39,4-13.69,2.68-27.12,6.13-40.77,9-46.37,9.6-92.81,19-140.34,24.76-2-3.21-5.49-2.13-8.11-1.08-8.45,3.37-17.57,3.4-26.65,3.76-13,1.32-25.92,2.85-38.69,5.1a308.15,308.15,0,0,0-60.87,7c-7.18.53-6.64,4.36-4.75,7.77,1.75,3.17,4.89,5.89,7.42,8.8,10.35-2.79,21.1-1.7,31.6-1.39,14.91.45,28.43-2.67,42.41-6.17,13.1-3.28,25.53-8.22,39-10.25,15.22-2.29,30.63-3.72,45.9-5.94,11.81-1.72,23-5.94,35.2-5.74,13.64.22,26.9-.92,39.4-5.42,4.58-1.65,9.21-1.17,10.78,2.36,1.85,4.2,1.86,8.81,9.32,9.52,5.85.56,11.25-.72,16.6-2.28,11-3.22,20.11-8.94,29.92-13.78,17.55-8.65,38.6-7.87,57.9-11.87.46-1.81,2.09-4.25,1.14-5.33"/><path class="cls-14" d="M1481,268.81c.88,1.14,2.88,2.82,2.46,3.33-6.17,7.57,2.29,8.77,7.92,11.22,3.85-4.78,9.28-8.86,11-14.59Z"/><path class="cls-8" d="M939.36,466.37c-1.19-6.25-.13-10,10.5-10.16,13.34-.25,10,6.27,10.83,11.85,1,6.75-2.78,8.08-10.85,8.35C939.17,476.78,938,472.67,939.36,466.37Z"/><path class="cls-8" d="M941.51,441.84c-1.24-5.95.94-8.76,9.36-8.57,9.27.21,7.2,5,7.61,9,.72,7.19-6,5.58-11.33,6C939.55,448.82,940.51,445.21,941.51,441.84Z"/><path class="cls-8" d="M954.11,415.3c3.89,3.48,1.31,7.29,2.08,11.14-4.38-.63-10,2.58-12.56-2.41C940.82,418.58,944.37,415.72,954.11,415.3Z"/><path class="cls-8" d="M945.71,411.92a8.69,8.69,0,0,1-2.12-6.12c.26-2.7,2.31-3.73,5.54-3.71,2.77,0,5.92-.22,6.71,2.59.59,2.09.88,4.36-2.53,5.46L947.63,412Q946.67,411.91,945.71,411.92Z"/><path class="cls-8" d="M946.63,395.66a10.56,10.56,0,0,1-1.61-6.12c.21-2.7,1.75-3.73,4.19-3.71,2.09,0,4.48-.22,5.07,2.59.44,2.09.67,4.36-1.91,5.46l-4.29,1.81C947.6,395.66,947.11,395.65,946.63,395.66Z"/><path class="cls-8" d="M947.23,380.42a9.76,9.76,0,0,1-1.39-5.53c.17-2.44,1.51-3.38,3.63-3.36,1.82,0,3.89-.19,4.4,2.34.39,1.89.58,3.94-1.66,4.94l-3.72,1.63C948.07,380.42,947.65,380.41,947.23,380.42Z"/><path class="cls-8" d="M948,365.66a9.11,9.11,0,0,1-1-4.58c.12-2,1.08-2.8,2.59-2.78,1.3,0,2.78-.17,3.15,1.93.27,1.57.41,3.27-1.19,4.1l-2.66,1.35C948.61,365.66,948.31,365.65,948,365.66Z"/><path class="cls-13" d="M.22,105.68C15,100.44,27.13,91.09,39.33,83.21c13.79-8.91,30.6-14.42,44.35-23.42,3-2,5.93-3.8,8-6.42,13.9-17.26,33.74-30.91,48.5-47.64C144,1.5,147.93,1.46,152.41,4.6q19.69,13.75,39.18,27.7c1.23.87,2.52,2.37,2.45,3.53-.75,12.73,10.12,24.08,7.31,37-.93,4.28,1.33,7.3,5.5,10,9.3,5.94,13.3,15.59,24,20.64,2,1,2.11,2.63,1,4.37-8.48,13.1-8.28,28.19-16,41.49-2.5,4.31-5.82,8-4,13.8,3.28,10.76,12.95,15.32,24.65,18.24,8.52,2.13,11.12,6,9.81,12.35-1.48,7.14,3.7,14.56-1.93,22-7.8-2.75-12-9.88-23-11.93,9,18.94,6.06,38.36,12.21,56.8-10.27,4.82-20.87.44-31.3.69-5.94-2.16-13.48-.44-18.65-4.5-4.09-4.69-5.2-10.22-6.25-15.58-4.87-25.05-19.29-47.51-31.6-70.53-3.37-6.3-9.59-10.67-18.12-14-2.52,4.31-1.15,8.3-.6,12.22.42,3,1.29,6-.19,8.95-1.94,3.84-5.32,5.37-9.79,2.33-7.74-5.27-15-10.93-20.37-17.82-1.93-2.47-2.81-5.28-1.47-7.91,3.55-7-.55-12.09-6-17.17-5-4.64-10.16-9.17-15.22-13.77-4.19-3.81-6.32-2.43-7.48,1.64-8.53,30.13-23.93,59.41-19.21,91.19,1.44,9.73-3.43,16.52-15.11,20.24-7.1,2.27-10.86,5.37-14.31,10.17-6.22,2.44-12.74,3.22-17.64-.49C.11,199.24.28,152.64.22,105.68Z"/><path class="cls-15" d="M352.31,102.44c6,13.5,21.45,22.78,26.79,36.85,3.55,9.35,6.13,19.05,11.74,28,1.81,2.88,1,6.44-1.45,9.45-4.62,5.76-3.52,11.74.35,17.17,8,11.2,16.59,22.15,25.07,33.14,4.45,5.77,6.43,11.32,5,18.53-2,9.89-.85,20.16-1,30.26-.05,2.67.95,5.69-4.05,6.5l-21.66-3.79c-4.11-15-14.34-28.5-17.16-43.77a5.2,5.2,0,0,0-2-2.83c-20.36-15.64-33.28-35.86-53.47-51.65-8.27-6.47-3.42-15.27-3.46-22.84-.05-10.43-4.14-20.73-1.16-31.34.7-2.49-3.32-5.77-5.16-8.69,8.21.3,11.29-4.46,14.69-8.9,9.14,5.17,11.68-2.61,16.62-5.26C345.55,101.34,348.09,97.31,352.31,102.44Z"/><path class="cls-16" d="M278.05,114.86c.34-8-1.95-13.06-3.3-18.23-.53-2.07-1.92-4.52,1-5.84,2.32-1.05,3.69,1.18,5.29,2.28,8.75,6,11.5,13.87,9.4,23.39-3.43,15.58-3.37,15.63,11.5,22.67,3.49,1.65,4.22,3.92,2.82,7-1.91,4.25-5.54,7.29-9.4,10-12,8.57-13,11.58-7.59,24,1.42,3.26,5.83,7.34.54,9.88-4.72,2.27-8.75-2-11.23-5-4.17-5-7.26-10.73-10.59-16.25-2.1-3.5-.81-6.69,2-9.52,6.7-6.85,8.48-14.86,7.63-23.67A54.32,54.32,0,0,1,278.05,114.86Z"/><path class="cls-17" d="M1507.74,226.86l9.13-10.76c-3.64-5.56-10.48-6.19-17.21-6a40.36,40.36,0,0,1-14.28-2.08c-4.7-3.37-7.63-7.85-11.79-11.48-7.62-6.63-11.67-15.6-22.27-20.25l-49.93-9.42c-.82,3.5,2.12,5.77,4.91,7.74,9.39,6.64,9.52,13.71,3.81,22.12-3.74,5.5-9.16,7.9-16.38,9.27-7.49,1.43-15.28,3.82-15.34,10.68-.07,7.33-1,14.71.12,22.07.94,6.23,5,10.62,12.23,13.47,5.36,2.12,10.65,4.35,15.83,6.75,4.7,2.18,5,4.92,2.2,8.28-3.29,4-8.68,6.44-12.63,9.92-2.94,2.58-8.64,4.95-3.59,9.48,8.07,2.66,15.92,1.48,23.68-.9,5.67-1.73,13-1.87,13.55-8.51-1-4.63,5.3-6.32,6.73-10,1-2.43,4.61-6.39,1.75-7.11-8.57-2.16-2.42-4.58-.82-6.56,2.07-2.53,4.28-4.92,5-7.93-2.46-7.94,5.2-12.73,9.57-18.58,3.59-4.8,7.64-4.17,11.75-.76,2.62,2.17,4.5,5.5,8.55,5.71,13.81.73,18.94,7.84,22.38,16.74.88,2.27,2,5.83,7.19,3.44,8.53-8.34,14.31-17.74,18.76-28.12C1515.77,224.68,1512.84,227.93,1507.74,226.86Z"/><path class="cls-17" d="M374.49,229.51C359.33,212.8,344.1,195.77,326,180.66c-3.82-3.19-6.13-6.77-5.74-11.11,1-11.5-1.51-22.93-1.22-34.37.18-6.83-.6-13-5.59-18.72-5.83-8.61-10.79-17.59-18.26-25.51a18.69,18.69,0,0,1-10.83-5.85c-3.48-3.46-10.26-6.52-10.59-12.21-10.39-10.76-17.29-23-25.15-34.88-1.08-8.79-10.13-14.93-12.88-23.08-1.23-3.62-3.28-4.49-7.78-5.11-19.12-2.61-38.07-5.94-57.17-8.59C152.19-1.35,134.65-1,123,13.36c-2.4,2.95-5.59,5.86-11.19,5.06-11.89,8.38-25.59,15.1-36.95,24-4.62,2.18-9.71,2.89-15.06,3S49.34,46.1,45.14,49c-12.87,5.79-23,14.39-35.44,20.6A23.56,23.56,0,0,0,.22,78.21c0,9.21,0,18.21,0,27.42,11.72.9,19.65-6,27.15-11A291.6,291.6,0,0,1,56.81,77.16c14.63-7.49,31.41-13.28,41-25.6,11.58-14.91,29.48-25.94,41.39-40.64,4.06-5,9-5.07,15.1-1.39,11.8,7.14,21.76,15.72,32.56,23.64,1.82,1.33,3.57,3,3.7,4.89.55,8,6.83,15.64,6.19,23.14-1.27,15.14,9.29,25.16,20.15,35.6a59.52,59.52,0,0,0,7.35,5.93c2.64,1.84,3.76,4,2.54,6.62C220.44,123,219.24,137.87,210.7,151c-3.44,5.29-2.76,10.43-.47,15.91,3.38,8.08,10.94,12.46,20.48,15.57,4.16,1.36,9.86,2.12,10.77,6,1.59,6.82,3.19,13.83.87,21.11-3.8-.41-5.56-2.26-7.81-3.47-3.44-1.86-7.11-4.9-11.33-3.12-4.91,2.08-3.3,6.26-2.24,9.7a123.88,123.88,0,0,1,4.9,28.46c.49,7.35,2,14.7,7.18,21.18,3.58,2.06,7.85,2.43,12.07,2.58,11.61.4,23.14,2.06,34.55,2.67,15.09.82,29.63,5.4,45,3.73,14.24,1.32,28.25,4.23,42.8,3.4,2.7-.16,4.26,1.7,6,3.05,5.67,4.07,12,4.52,18.94,2.15,2-1,3.08-2.61,2.58-4.23C390.09,259.75,386.36,242.59,374.49,229.51Z"/><path class="cls-17" d="M580.79,265.32c1-2.66-.43-5.35-1.86-7.87.06-2.85.11-5.71.17-8.57,2.14-11,0-21.59-4.93-31.91a8.74,8.74,0,0,0-4.65-4.38c-16.75-6.36-33.33-13.18-52.6-13.85-5,2.13-4.86,5.7-4.38,9.35,1.13,8.54,3.68,17,8.72,24.49,6.2,9.23,4,16.68-4.3,24.07-4,3.53-8,7-12.06,10.43-2.58,2.23-5.3,3.12-7.66.08-6.39-8.21-16.64-14.59-20.42-23.94-4.71-11.68-13.11-22.56-13.29-35.25-4.74-10.08-2.72-20.58-3.06-30.93,0-1.37,0-2.74,0-4.12a107.75,107.75,0,0,0-11.6-34c-3.46-2.31-4.8-5.2-4.51-8.73.23-2.75.2-5.7-3.74-7.11-8.53-3.06-16.85-7.57-25.8-8.56-11.85-1.3-22-5-32.83-8.08-9.18-2.58-18.8-7.32-29.66-4-2.32,4.78.48,9,4.11,12.14,16.38,14.32,21.47,32.43,29,49.74,1.63,3.75,2.25,7.49.35,11.24-4.38,8.66-2.06,16.64,3.81,24.34,7.19,9.44,14.15,19,21.52,28.34,3.36,4.28,6.2,8.67,5.3,13.88-2.3,13.36-.57,26.81-1.67,40.2,4.34,3.06,9.73,3,15,2.79,11.38-.51,21.72,3.29,32.65,4.69,10.75,1.38,20.79,5.4,32.22,5.48,9.67.06,18.68,4.2,28.65,3.87.72,0,1.54,1.6,2.31,2.46.31.34.61.67.92,1,4.2,1.64,9.1,2,13,4.19,2.75.89,5.64.73,8.52.63a59.46,59.46,0,0,1,12.19,1.77c10.1,2.12,20.38,2.63,30.61.18,3.31-2.64.89-5.09-.55-7.45C583.2,290.32,575.71,278.84,580.79,265.32Z"/><path class="cls-17" d="M124,150.78c-3.79,9.95,1.83,19.74-.87,30.43-8-6.43-15.17-11.48-21.25-17.53-4-3.94-5.9-6.83-2.34-11.57,2.85-3.8,1.64-7.88-2.19-11.42C89,132.93,80.78,125,72.42,117.25c-4.65-4.34-6.7-2.22-8,2Q60.47,132,56.29,144.68c-7.44,22.5-16.9,44.89-12.43,68.51,2.23,11.76-3,18.74-17,22.47-7,1.88-10.17,5.5-9,11.24,8-3.33,15,2.23,22.34,1.85,32.59-1.65,64.6,4.92,97.11,3.71,13.45,1.82,27.07,2.7,40.5,4.64,2.38.35,5,0,6.69-1.75-4.55-28.54-18.36-54.82-32.3-81.17C146.45,163.33,136.86,156.49,124,150.78Z"/><path class="cls-13" d="M657.84,319.82c-18.27-2.57-36.52-5.23-54.83-7.64a26.2,26.2,0,0,1-11.29-3.88c-9.53-7.78-11.42-18.32-16-27.76-3.7-7.59,3.08-15.27,3.24-23.09,3.91,3.49,7.9,6.94,11.71,10.49,6.08,5.65,13.45,9.18,23.08,10.53,15.87,2.21,28.36,14.44,27.75,26.68-.16,3.11,2.37,4.17,4.37,6C649.42,314.43,656.29,314.93,657.84,319.82Z"/><path class="cls-13" d="M465.83,206.25c16.68-4.66,35.07-1.18,51.63-6.42-4.5,5.87-1,11.82.52,17.46a52.92,52.92,0,0,0,8.2,17.68c5.53,7.52,3.13,13.68-2.93,19.62s-13,11.54-19.11,17.53c-3.18,3.09-5.32,2-7.21-.47-9.56-12.53-23.81-22.65-28.23-38-2.31-8-8.64-15.32-7.5-24.09C461.86,207.76,464.47,207.52,465.83,206.25Z"/><path class="cls-18" d="M1503.47,253.92c-3.16,1.05-4.5,1.23-1.59-1.73-6.1-1.68-3.79-6.54-6.15-9.61-4.57-6-7-13.93-19.91-12.16-4.22.58-6.83-1.75-8.16-5.17-1.75-4.46-7.69-4.57-12.28-5.34-5.19-.88-4.31,3.46-6.09,5.51s-3,4.48-5.23,6.05c-6.44,4.47-7,9.05-1.62,14.17,6.89-10.52,6.89-10.52,18.43-2.55l7.9,5.45c1,.7,3,1.32,2.13,2.48-7.4,9.61,5.78,12.18,10,17.79,7.14,3.24,14.28,4.49,21.4,0,3.66-3.79,7.28-7.59,7.5-12.71C1502.87,256,1502.33,258.72,1503.47,253.92Z"/><path class="cls-18" d="M958.36,312.93c-6,1.4-2,4.21-.68,5.6,6.56,7.15,5.92,13.14-2.91,19-1.73,1.13-6.88,4.32-3.21,4.83,4,.56,6,1.3,9,.58,7-5.25,11-12.51,20.74-16,3.7-1.33,5.61-6.19,2.35-10.17C974.87,316.78,966.83,314,958.36,312.93Z"/><path class="cls-18" d="M1263.37,259.13c-6.25,20.13-26.11,30.93-45.82,39.85,2-3,6.73-5.3,12.39-7.4,8.17-3,13.43-8.42,13.75-15.92-8.19-1.25-15.24,2.58-23,3.08-3.71,3.61-9.47,6.32-11.51,10.53-6.67,13.75-18.41,22.9-36.13,27.85a25.54,25.54,0,0,0,4.09-2c5.55-3.44,9.31-7.52,4.89-13.27-14-5.41-29.4-8-44.37-9-12.81-.88-23.53-7.36-36.52-6.12l-6-1.33c1.29,5.52,5.59,8.89,12.1,11.31,9.5,3.53,11.27,17.22,2.48,21.88-6.61,3.5-13.15,7.21-20.76,9.66-8.37,2.7-17.67,4.13-24.36,9.45,20.47,1.84,40.08-4.74,60.48-3.7.54,0,1.14-.59,1.7-.91,13.34-4.66,24.31-13.16,39.76-14.41a23.46,23.46,0,0,0,3-.47c-4.31,1.67-7.14,4.86-4.43,9.53a263.39,263.39,0,0,0,33.76-4.78c1.18-1,2.14-2.27,3.56-3a413.31,413.31,0,0,0,50-29.9c9.57-6.59,17.64-14.82,29.89-19.22,7.4-2.66,7.72-7.93,4.76-13.36Z"/><path class="cls-18" d="M1361.08,235.4c-4.06-1-4.32,2.82-5.42,4.81-3.27,5.93-6.15,12-10.1,19.8,6.37-3.05,10.4-5.28,14.76-7,5.59-2.19,6.31-6.32,7.34-10.22S1364.94,236.33,1361.08,235.4Z"/><path class="cls-18" d="M363.7,170.88c8.36-8,4.56-14.52-4.55-21.88C359,157.26,355.46,164.6,363.7,170.88Z"/><path class="cls-19" d="M1220.65,278.74c-7.47,10.37-14.63,20.9-22.57,31.05-2.81,3.6-8.61,4.33-13.87,5.41-8.76,1.79-16.87,4.62-19.13,12.53l-38.36,5.34c10.43-7.11,20.43-14.82,35.08-16.55,15.86-1.88,16.88-2.57,20.19-14.7,11.16-4.53,18.83-12.32,28.43-18.32C1213.65,281.48,1215.87,278.61,1220.65,278.74Z"/><path class="cls-20" d="M1263.37,259.13c2.56,7.28-1.45,12.48-7,18.46-12.11,13.12-30.73,19.08-46.73,28,6-6.29,6.84-15.47,21-16.83,6.81-.66,7.87-9.07,13-13.11C1247.62,268.28,1254.37,262.91,1263.37,259.13Z"/><path class="cls-5" d="M519.58,295.6c-21.94-3-44-5.53-65.32-10.63-12.66-3-26.05-1.76-38.51-5.08-7.46-1.18-14.62-4.84-22.6-1.59-5.65-1.08,1.41.71-11.41-2.3-4.44-1.22-8-3.93-10.15-3.81-15.8.83-31-2.36-46.57-3.56h0c-5.31-.15-10.92.49-15.89-.6-17.22-3.75-35-4.25-52.54-5.91-7.61-.73-15.41-.38-23-1.76-10.61-.46-21.07-2.46-31.79-1.88h0c-5.2-2.78-12.15-.2-17.23-3.35-13.63-1.38-27.15-3.78-41-3.3-2.13-.48-4.25-1-6.34-1.64-25-.69-49.57-4.79-74.62-4.74-10.55,0-21.16.78-31.52-2-5-1.32-9.82-.4-13.2,3.19-5.48-.25-12.18-.5-17.66-.75,0,6.44,0,12.94,0,19.38,20.56,2.48,42.22,5,62.8,7.33,23.39,2.61,46.75,5.61,70.26,7.21,22.17,1.51,44.21,3.66,66.18,6.14,18.21,2.06,36.22,4.94,54.78,4,4.72-.24,8.87-.23,11.81-4,8.24-10.59,21.6-11,34.77-8.42,28.13,5.43,56,11.5,84.27,16.69,27.51,5,55,10,83.15,12.44,22,1.93,43.93,5.12,65.7,8.44,5.84.89,11.16,3.23,17.22,1.15,13.37,3.49,27.35,3.94,41.21,4.9,8.7.6,17.41.91,24.91,5h0c5.18,8.5,12.54,15.82,25.38,16.26,23.51.81,47,3,70.57,1.83h72.48c18.53.09,37.08-.3,55.51,1.71,7.65-5.47,1.26-6.63-4.17-8.08l-4.54.23h0c-9.83-1.08-19.63-2.48-29.63-2.1h0l-2.25-1.7c-2.45-1.27-5.35-1.3-8.09-1.82-19.26-3.65-38.87-4.66-58.61-4.66l-16.4-.16c-1.29-.84-2.63-2.46-3.87-2.41-15.36.6-30-3.82-45.22-3.83h0c-3.4-1-7.58.73-10.52-1.82-20.81-8-43.72-8.91-66.12-11.51-15.33,1.8-30-1.08-44.9-3.33"/><path class="cls-4" d="M747.68,403.35c-5.32,1.55-11.13-.55-16.73-1-25.62-1.93-50.42-8.21-76.32-8.54a5.39,5.39,0,0,1-1.07,0c-15.2-4.08-28.91-9.23-47.08-7.46-16.12,1.57-33.79-.26-50.77-.69-4.2-.11-7.36-.7-8.82-4.46-3.31-8.53-16.58-12.5-26.6-7.34-14,7.25-28.55,2.62-42.85,2-3.62-.14-7.25-2.12-11.28-1.7-32.54,3.39-65.24,1.4-97.82,1.2-12.66-.08-25.35.23-37.89-.07-27.19-.64-54.44-1-81.65-2.44-26.17-1.35-52.62.51-78.83-.65-31.2-1.37-62.38-1.47-93.58-1.29-7.44,0-13-3.13-18.56-5.44-18-7.5-38.74-4.64-57.61-7,0-30.75-.11-62.39-.11-93.13,4.05-3.25,10.22-2.65,15.13-1.88,58.49,9.2,118,12.71,177,18.69,19.3,2,38.28,6.13,58.06,4.86,5.06-.33,9.82-.52,13.43-3.86,11.12-10.29,25.54-10.77,40.85-7.73,29.9,5.92,59.85,11.7,89.73,17.66C426.78,299.6,460,302.21,492.7,307c15.91,2.32,32.16,3.49,47.71,7.18,3.57.85,7.06-.07,10.58.07,15.6,1.44,30.93,4.33,46.78,4.65,7.62.15,15.45,1.38,21.3,6,8.68,10.37,20.2,15,37,15.44,19.37.54,38.79.53,58.16,1.46,12.22.71,24.47-1.22,36.67.24,5.13-.42,10.25.1,15.37,0,6.28-.1,12.57.17,18.85-.21,10.56-.69,21.1.24,31.63.59,4.54.15,8.94.11,13.45-.07,4.18-.17,9.44-1,11,3.83-17.46,20.79-40.59,37.61-63.88,54.31-1.53,1.09-2.89,2.34-4.32,3.51l-8.86,4.34"/></g></g></g></svg>