<svg xmlns="http://www.w3.org/2000/svg" viewBox="0 0 1920.78 380.13"><defs><style>.cls-1{fill:#fcf3e6;}.cls-2{fill:#05222d;}.cls-3{fill:#062e42;}</style></defs><g id="Layer_2" data-name="Layer 2"><g id="Layer_16" data-name="Layer 16"><g id="Sky"><path id="sky-2" data-name="sky" class="cls-1" d="M1920.78.16H.26V248.31c0,12.45-.14,45.78-.14,57.11,0,4.4,270.63,42.95,276.46,38.7,3.52-4.9,8.83-5.09,14.26-4.92,20.21.64,40.36,2.22,60.63,2.26,10.52,0,21.06.57,31.59,1.5,6,1,11.07,1.75,15,2.35,10.87,1.66,21.77,3.07,32.68,4.32,12.57,2.16,25.12,4.2,37.72,5,25.87,1.62,51.32,5.29,77,7.92,29.64,3,58.51,10.06,88.16,12.76,23,2.09,45.73,5,68.93,4.81,78.43-.69,156.88.27,235.31-.17,60.68-.33,121.35.45,182,.09,61.81-.37,123.63,0,185.44-.13,25.61-.06,50.86-4,76.22-6.83,20.79-2.36,41.3-7.62,61.94-8.68,28.71-1.48,57-3.54,85.47-8.2,26.08-4.27,52.42-7.85,79-9.94,35.68-2.8,71.3-6.77,107-10.07,5.38,1.06,8.94-1.86,11.79-5.42,13.59-17,171.23-4.12,192.5-7.35l.52-35.11h1Z"/><path class="cls-2" d="M389.06,267.18c39.63,10.08,79.3,20,118.87,30.29,31.41,8.17,62.77,16.51,93.29,27.46,1.33.48,2.7.85,4,1.42,3.42,1.51,8.65,2.51,8.17,6.58-.42,3.51-5.48,3.44-9,3.81-18.37,3.8-37,1.16-55.44,1.76-1.38-2.7-4.06-3.43-6.76-4.44-27.61-10.31-55.15-20.76-83.18-30C425.41,293,392,281.41,358.48,270c-2.37-.81-6.76-.48-5.86-4.3.74-3.18,4.63-2.33,7.38-2.47C370,262.68,379.8,263,389.06,267.18Z"/><path class="cls-3" d="M310.33,175.42c5.93-1.18,207.41,13.34,323.26-3l504.3-33c96.22-7.77,296.33,46.31,343.17,45.28,9.59-.21,19.3-.87,28.76.22,10.3,1.19,21.37-.57,30.71,5.61,11,1.45,182.87,7.34,184.32-3L1864.7.31C1861.51.2,1188.78.09,1185.59.09,896,.08,489.66.07,200.11.09"/><path class="cls-2" d="M1695.28.05c-8.14,0-6.28,0-11.47,5.23l-15.85,14c-4,3.92-9,9.21-12.29,14.51-11.48,21.38-23.86,43.54-26.36,67.91-.36,3.5-1.69,6.88-7,7.55-37,4.67-64.11,33.31-64.85,72.36-.06,3.4-1.34,4.2-4.5,6.15-4.81,3-7.07,2.4-12.33,2.77-10.42,9.26-27.11,20.91-35.2,32.6-5,7.17-10,14.6-15.43,21.48-2.52,9.11-5.66,14.31-15.43,16.48-10.87,2.41-20.06,8.28-29.19,14.12-3,1.94-5.82,4.42-4.63,8.34s5.08,3,8.1,3c6.38.13,12.76,0,19.15,0a23.44,23.44,0,0,1,9.2-8.1c16.31-8.63,35-10.21,52.2-16,4.33-1.46,6-2.52,7-6.91,2.5-10.54,9.85-19,18.36-25.09,21-14.91,44.94-23.41,71.18-26,6.76-.66,13.13-3.71,16.4-10,4.71-9.08,8.52-18.6,13.45-27.55,14-25.39,31.69-47,62-56.36,8.63-2.67,20.56-4.57,22.22-15,1.29-8,4.47-14.83,7.91-21.71,9.28-18.54,19.85-36.16,34.89-51.41,6.31-6.4,17.4-13.16,20.45-22.32C1770.59,0,1706.41.05,1695.28.05Z"/><path class="cls-3" d="M1804.15.14a9,9,0,0,0-6.69,2.63C1771,25.88,1750.73,53.44,1739.3,85.7c-4.37,12.3-11.35,17.93-22.52,21.5A97,97,0,0,0,1680,129c-16.79,15.5-27.14,34.71-35.92,54.88-4.83,11.12-12.75,17.44-25.7,18.18-7.79.45-15.35,2.92-22.77,5.17-24.17,7.36-47,17.57-59.15,40.19-4.9,9.13-11.42,12.9-20.41,15.41a129.39,129.39,0,0,1-13.42,3.3c-10,1.65-19,5.71-27.65,10.37-4.21,2.26-10.06,4.82-5.92,11.48,19.64,2.27,38.88-1.33,58-4.62,24.84-4.29,49.09-10.89,69.26-26.61,3.06-2.38,6.32-2.58,9.9-2.73,54.19-2.28,54.48,26.22,101.52-.63,8-1.61,63,9.87,72.4,9.48,49.15-2,95.47,20.63,140,1.19,0-55.74.06-208.28.06-264Z"/><path class="cls-3" d="M385.06,324.9c34.92,5.67,70.1,9.45,105.35,12.06,19,1.41,38.08,3.53,57.24,2.06,4.78-6.36-1.75-7.47-5.16-9.29-7.74-4.12-16.42-6.24-24.62-9.42-27.52-10.68-55.56-20.07-83.49-29.73-24.08-8.34-48.75-15.11-73.26-24.4,10.66-2.24,19.76,2.24,29.29,2.2A252.69,252.69,0,0,1,430.9,263c3-2.09,2.12-5,1.12-7.38-5.37-12.67-11.86-24.57-24.15-32.69-19.06-12.58-40-18.77-63.16-17.36-9.8.59-16.41-2.49-18.43-12.5-.79-4-2.76-7.71-4.61-11.36-15.14-29.86-38.08-48.54-74.73-47.52-4.61.13-9.22.11-13.83-.09C219.7,133.54,217.67,132,218,119c.46-16.78-8.06-29.69-18.4-41.89-8.15-9.61-19.55-14.45-31.6-17.79-6.84-1.89-9.62-5.66-10-12.4a133.15,133.15,0,0,0-7.16-35.87C149.6,7.16,148.28,2,143.85.13,99.52.05,55.35,0,11,0L.11.06S.33,166.65.17,244.65c0,4.48-.06,7.88-.17,11.55,3.44,3.45,11.09,6,15.32,6.77,32,6,64.19,10.67,96.35,15.79L248.59,302.7"/><path class="cls-2" d="M324.29,110.59c6.5,13.33,14.73,25,13.58,40.56-.35,4.84,4.06,4.76,7.32,5.57,21,5.2,41.29,11.58,54.41,29.89,3.31,6.34,7.29,12.43,6.46,20-.7,6.38,4.35,7.54,9.22,9.09,20.47,6.52,41.22,12.42,59.44,24,3.69,2.36,9.94,3.49,9,8.64-.84,4.79-1.45,6.17-4.71,7.88-.82.43-8.28,1-9.16,1.52-12.78,1.36-26.46,3.82-39.24,5.18-2.69-5.13-4.4-11.38-7.16-16.47-14.3-26.36-39.32-35-68-37.48-.35,0-.71,0-1.06,0-8.09-.53-16.5,1.66-24.22-1.58-9-3.75-6.66-13.33-9.68-20-6.49-14.41-16-26.22-27.81-36.67s-26.48-12-41.42-13c-9.52-.64-19.09.77-28.63-.93-6.25-1.12-9.49-3.63-8.69-10.13.45-3.68.13-7.45.07-11.18-.11-6.66.54-12.82-6.62-18-4.21-3.08-2.78-10.76-7.7-15.78-10.06-10.3-21.9-16.47-35.89-19.63-5.67-1.28-9.64-3.77-9.52-10.26.31-17.52-5.22-35.3-10.69-51.75L294.73,0c10.93,18.33,16.42,37,13.26,58.24-.35,2.34-.56,6.51-1.89,8-10.8,12.57-7.07,21,7.67,30.48C319.55,100.52,321,105.79,324.29,110.59Z"/></g></g></g></svg>