<svg xmlns="http://www.w3.org/2000/svg" xmlns:xlink="http://www.w3.org/1999/xlink" viewBox="0 0 1920.34 311.49"><defs><style>.cls-1{fill:#f4c684;}.cls-2{fill:#ffd9a6;opacity:0.6;isolation:isolate;}.cls-3{fill:url(#linear-gradient);}</style><linearGradient id="linear-gradient" x1="-1054.95" y1="936.63" x2="-1054.95" y2="935.63" gradientTransform="matrix(1920.18, 0, 0, -280.62, 2026654.01, 262835.62)" gradientUnits="userSpaceOnUse"><stop offset="0" stop-color="#024988"/><stop offset="0.51" stop-color="#705b7b"/><stop offset="1" stop-color="#be6b83"/></linearGradient></defs><g id="Layer_2" data-name="Layer 2"><g id="Background"><g id="sky"><path id="Path_2964" data-name="Path 2964" class="cls-1" d="M1920,180.85c-105.65,94-362.43,130.64-530.45,130.64-194.49,0-469.9-44.07-765.61-44.07C362.2,267.42,268.16,333.71,0,281.5V1.57H1920Z"/><path id="Path_2965" data-name="Path 2965" class="cls-2" d="M1920,249.7c-105.5,96-361.92-27.11-529.71-27.11-194.22,0-460,88.9-755.26,88.9-261.38,0-364.55-41.36-632.34-94.68V1.57H1920Z"/><path id="Path_2966" data-name="Path 2966" class="cls-3" d="M1920.34,137.9c-105.66,81.8-362.46,142.72-530.5,142.72-194.51,0-417.29-65.78-777.45-65.78-261.78,0-344,85.07-612.23,39.7V0H1920.34Z"/></g></g></g></svg>