<svg xmlns="http://www.w3.org/2000/svg" viewBox="0 0 1401 981"><defs><style>.cls-1{fill:#e0dfd5;}.cls-2{fill:#313638;}.cls-3{fill:#e2e2e2;}.cls-4{fill:#b4b4b4;}.cls-5{fill:#e4e9e1;}.cls-6{fill:#ababab;}.cls-7{fill:#bbcbb4;}.cls-8{fill:#dcdfde;}.cls-9{fill:#fcbc94;}.cls-10{fill:#efefef;}.cls-11{fill:#9b7b66;}.cls-12{fill:#8d7160;}.cls-13{fill:#fff;}.cls-14{fill:#fdfdfd;}.cls-15{fill:#fdfefe;}.cls-16{fill:#f5f6f6;}.cls-17{fill:#f2dfd1;}.cls-18{fill:#9c7b66;}.cls-19{fill:#f2e0d2;}.cls-20{fill:#dadede;}.cls-21{fill:#a1816b;}.cls-22{fill:#eef1f2;}.cls-23{fill:#eef2f2;}.cls-24{fill:#edf1f2;}.cls-25{fill:#edf0f1;}.cls-26{fill:#eceff0;}.cls-27{fill:#ecf0f1;}.cls-28{fill:#ebeff0;}.cls-29{fill:#ebf0f1;}.cls-30{fill:#eef3f4;}.cls-31{fill:#f0f2f3;}.cls-32{fill:#eef2f3;}.cls-33{fill:#eff2f3;}.cls-34{fill:#edeff0;}.cls-35{fill:#f2f7f7;}.cls-36{fill:#7e695c;}.cls-37{fill:#f5f6f4;}.cls-38{fill:#f0f3f3;}.cls-39{fill:#f1f3f4;}.cls-40{fill:#eceff1;}.cls-41{fill:#f6f6f7;}.cls-42{fill:#eef0f1;}.cls-43{fill:#f5f5f6;}.cls-44{fill:#f4f6f7;}.cls-45{fill:#ecf1f2;}.cls-46{fill:#f3f8f9;}.cls-47{fill:#eff1f2;}.cls-48{fill:#f3f8f8;}.cls-49{fill:#f2f8f8;}.cls-50{fill:#f5f6f7;}.cls-51{fill:#f6f6f6;}.cls-52{fill:#edf2f3;}.cls-53{fill:#edf2f2;}.cls-54{fill:#f4f8f9;}.cls-55{fill:#f3f7f7;}.cls-56{fill:#f0f3f4;}.cls-57{fill:#f4f7f8;}.cls-58{fill:#f4f7f7;}.cls-59{fill:#f6f7f7;}.cls-60{fill:#f5f7f8;}.cls-61{fill:#f4f8f8;}.cls-62{fill:#f5f8f7;}.cls-63{fill:#f2f5f6;}.cls-64{fill:#f6f7f8;}.cls-65{fill:#f9f9f9;}.cls-66{fill:#f8f8f9;}.cls-67{fill:#f9fbfb;}.cls-68{fill:#fdfcfb;}.cls-69{fill:#f6fbfb;}.cls-70{fill:#f6fafa;}.cls-71{fill:#f8fbfb;}.cls-72{fill:#f9fafa;}.cls-73{fill:#f7fafa;}.cls-74{fill:#f6fafb;}.cls-75{fill:#f6f9fa;}.cls-76{fill:#f9fcfc;}.cls-77{fill:#f8fafa;}.cls-78{fill:#f5fafb;}.cls-79{fill:#f8fafb;}.cls-80{fill:#f8f9fa;}.cls-81{fill:#485d68;}.cls-82{fill:#fefefe;}.cls-83{fill:#7f685a;}.cls-84{fill:#f8faf8;}.cls-85{fill:#f7faf7;}.cls-86{fill:#f8fbf9;}.cls-87{fill:#f7faf8;}.cls-88{fill:#f8faf7;}.cls-89{fill:#f9fbf9;}.cls-90{fill:#fafcfb;}.cls-91{fill:#fbfcfb;}.cls-92{fill:#fbfcfa;}.cls-93{fill:#fafdfc;}.cls-94{fill:#fafdfb;}.cls-95{fill:#fcfdfc;}.cls-96{fill:#fbfdfc;}.cls-97{fill:#fbfdfb;}.cls-98{fill:#fcfdfd;}.cls-99{fill:#fbfdfd;}.cls-100{fill:#fbfefd;}.cls-101{fill:#e8e9eb;}.cls-102{fill:#878686;}.cls-103{fill:#a9a9a9;}.cls-104{fill:#dddedc;}.cls-105{fill:#cdd5cd;}.cls-106{fill:#c09079;}.cls-107{fill:#1c2529;}.cls-108{fill:#a9abab;}.cls-109{fill:#7d685a;}.cls-110{fill:#bd9176;}.cls-111{fill:#8f8e8e;}.cls-112{fill:#7b7979;}.cls-113{fill:#907361;}.cls-114{fill:#fff9f6;}.cls-115{fill:#fffaf6;}.cls-116{fill:#fffaf7;}.cls-117{fill:#fff9f5;}.cls-118{fill:#fcf7f4;}.cls-119{fill:#fefcfa;}.cls-120{fill:#fffcfa;}.cls-121{fill:#fcf8f5;}.cls-122{fill:#f9f8f7;}.cls-123{fill:#fefcfb;}.cls-124{fill:#fffcfb;}.cls-125{fill:#fffdfc;}.cls-126{fill:#fffdfb;}.cls-127{fill:#a6866e;}.cls-128{fill:#454c52;}.cls-129{fill:#7d6759;}.cls-130{fill:#afb4b4;}.cls-131{fill:#f7f8f7;}.cls-132{fill:#feffff;}.cls-133{fill:#f7f9f7;}.cls-134{fill:#f9f6f3;}.cls-135{fill:#fbf8f6;}.cls-136{fill:#fdf9f7;}.cls-137{fill:#f8f4f2;}.cls-138{fill:#fbfaf8;}.cls-139{fill:#f9f9f8;}.cls-140{fill:#f5f3f1;}.cls-141{fill:#fcfcfb;}.cls-142{fill:#f6f5f3;}.cls-143{fill:#f8f9f8;}.cls-144{fill:#fffbf8;}.cls-145{fill:#fff8f4;}.cls-146{fill:#f5f4f3;}.cls-147{fill:#fbfbfb;}.cls-148{fill:#444d53;}.cls-149{fill:#f9fcf1;}.cls-150{fill:#e8f1e7;}.cls-151{fill:#ac967a;}.cls-152{fill:#e1e1e1;}.cls-153{fill:#f1bb41;}.cls-154{fill:#a8acac;}.cls-155{fill:#edba41;}.cls-156{fill:#0b5c8c;}.cls-157{fill:#039fdc;}.cls-158{fill:#07486f;}.cls-159{fill:#1175bc;}.cls-160{fill:#06486f;}.cls-161{fill:#095b8d;}.cls-162{fill:#019fdc;}.cls-163{fill:#1275bc;}</style></defs><title>about me</title><g id="about_me" data-name="about me"><path class="cls-1" d="M1044,234.33a58.64,58.64,0,0,1-6.22.13q-66.25,0-132.52,0c-2.18,0-4.5-.59-6.47,1a21.93,21.93,0,0,0-.25,5.72q0,179,0,358.1c-.34,2.87,1.26,4.78,3.12,6.62,5.87,5.8,11.56,11.78,17.94,17.05,1.35,1.12,3.37,2.54,1.3,4.68-1.85,1.91-3.86,2-5.83,0-.9-.89-1.82-1.77-2.72-2.67-3.16-3.12-6.17-6.41-9.5-9.34-1.28-1.12-2.76-3.72-4.87-.78,1.48,1.46.88,3.32.89,5q.06,29.94,0,59.88c0,1,0,1.91,0,2.87a2.19,2.19,0,0,1-2.18,2.56c-1.1.13-2.18.47-3.28.65l-49.62,7.9q-34.28,5.44-68.53,10.88Q743.11,709.73,711,715c-.62,2.52,1.31,3.81,2.74,5.11,11.47,10.47,22.8,21.12,36,29.44,2,1.13,3.81,3.1,6.55,2.15,1.64-1,2-2.82,2.53-4.48,2.86-8.62,8.61-10.86,16.72-6.48,29.76,16.06,59.67,31.85,89.39,48a57.89,57.89,0,0,1,6.36,3.16c2.6,1.51,4.46.92,5.85-1.63,3.79-5.17,5.46-5.59,11.22-2.83,1.87.89,3.68,1.9,5.5,2.89,29.55,16,59.32,31.62,88.82,47.72,6.48-2.41,12.31-1.86,17.78,2.9,6,5.27,11.22,5.07,17.6,0,7.31-5.78,11.84-5.84,19.29-.25s11.84,5.39,18.83-.34c6.2-5.08,11.61-5.62,17.66-.35,7.73,6.74,14.48,5.32,20.82-.45,4.69-4.28,9.57-4.16,14.77-.43-6.38-3.08-10.29-2.81-15.11,1-8.34,6.65-12.38,6.71-20.83.31-6.26-4.75-11.25-4.67-17.29.28-7,5.73-11.82,5.89-18.94.64-8-5.91-11.62-5.85-19.58.32-6,4.64-10.76,4.71-17.05.26-1.82-1.29-3.44-2.88-5.49-3.85-4.06-1.92-7.83-1.36-10,1.44,2.38,2,5.39,2.71,8.09,4,9,4.41,17.45,10,26.81,13.81a11.65,11.65,0,0,0,3.24-.69c4.72-1.23,9-.74,12.93,2.66,7.2,6.2,12.49,6.08,20.08,0,6-4.79,11.17-4.8,17.34,0,8.08,6.22,12.34,6.16,20.47-.28,5.14-4.07,9.24-4.31,15.33-.73-6.27-3.67-11.59-1.9-16.71,2.42-6.17,5.19-11.5,5.15-17.73.28-8.07-6.32-12-6.33-19.92,0-6.13,4.87-11.55,4.88-17.75-.2-2.64-2.17-5.29-4.21-8.83-4.4-2-.11-4.29-.58-5,2.23,1.72,2.74,4.8,3.58,7.4,4.9,8.57,4.35,16.48,10,25.72,13.05,7.7-3.06,14.43-2,20.63,3.9,3.21,3.07,7.52,3.24,11.65,1.1,2-1,3.54-2.72,5.35-4,5.28-3.76,10.32-3.86,16,0-3.41-1.64-6.43-2.5-9.73-2.06s-5.46,2.46-7.9,4.26c-6.45,4.77-11.52,4.65-17.74-.38-1.62-1.31-3.19-2.83-5.23-3.28-3.14-.7-6.58-2.18-9,1.6.43,2.93,3.07,3.45,5.09,4.54,24.21,13,48.46,25.86,72.66,38.86,34.6,18.59,69.29,37,103.9,55.63,2.24,1.2,4.63,2.21,5.92,4.63h151.61c.89-1.65.45-3.44.45-5.15q0-64.51,0-129a9.74,9.74,0,0,0-.12-1.79c-.79-2.31-2.75-3.45-4.63-4.66q-17.35-11.12-34.66-22.3c-52.52-33.82-104.92-67.81-157.63-101.32-6-3.82-8.14-8-8.13-15.06q.31-167.43.15-334.86c0-2.24.07-4.48-.09-6.71-.13-1.91-.26-3.86-2.08-5.1-3.47-1.66-7.19-1.06-10.8-1-13.95.23-28-1-41.84,1.48-3,.45-1.47,4.26-3.9,5.53-1-2.28,1.25-2.92,1.62-4.29.39-2.11-.92-3.65-1.87-5.26q-8.7-14.83-17.43-29.67c-12.77-21.69-25.34-43.51-38.34-65.06-2.2-3.65-2.72-6.92-.36-10.67a78.46,78.46,0,0,0,4.38-7.94c.86-1.8,2.33-3.2-.59-4.52-9.47-.61-19.52.13-29,0C1052.75,234,1044.59,234.19,1044,234.33Z"/><path class="cls-2" d="M198.6,704.23c.26-.39.72-.77.75-1.18,1.06-12.08,4.58-23.67,7-35.47,5.77-27.83,11.94-55.58,18-83.37a37.2,37.2,0,0,1,1.08-4.15c2-5.61,7.38-7,12.1-3.19.37.29.77.57,1.15.85,2.5-.12,4.09,1.57,5.79,3,20.85,17.61,43.9,31.89,68,44.55,30.18,15.87,61.65,28.72,93.92,39.67,10.15,3,20.52,5.1,30.84,7.38,2.39.49,4.74,1.19,7.12,1.7,1.7.23,3.31.82,5,1.05,5.8.49,9.58,3.47,11.23,9.08a8.4,8.4,0,0,1,.06,3.16c-2.05,10.45-4.74,20.77-6.38,31.3-1.85,6.38-4.72,12.52-4.71,19.36-1.12,7.24-2.8,14.36-4.52,21.48-4.58,23.67-9.95,47.16-15,70.72q-15.56,72.35-31.2,144.65c-.5,2.32-.7,4.78-2.58,6.56H139.06c-2-2.29-1.08-4.86-.54-7.3,6.35-29,12.49-58,18.78-87,5.74-26.48,11.39-53,17.16-79.48a24.6,24.6,0,0,1,1.41-5,7,7,0,0,1,1.16-1.73,6.63,6.63,0,0,1,.31-.59c2.48-6.58,3.25-13.56,4.79-20.36,3.49-15.31,6.62-30.71,9.92-46.06,2.07-9.62,4.18-19.23,6.27-28.84A.48.48,0,0,1,198.6,704.23Z"/><path class="cls-2" d="M1061.14,877.78c4.57,3.24,9.68,5.52,14.59,8.15q84.69,45.38,169.43,90.65c.84.45,1.67.93,2.54,1.35,1.9.89,1.52,2.12.54,3.45H834.7c-2.2-3.09-.2-5.85.86-8.55a618.74,618.74,0,0,0,26.33-82.5c5.72-23.92,10.28-48,11.6-72.69.34-6.37.87-12.73.7-19.1-.08-3.12,1.08-5.91,1.61-8.86,3.55-6.28,6.45-7.2,12.82-3.8q45.3,24.21,90.56,48.49c1.28.69,3.24.83,3.13,3-.8,3.45,2.28,1.07,3.11,2.07a7.08,7.08,0,0,1,4.57.6c9.44,5.14,18.94,10.19,28.41,15.29a7.66,7.66,0,0,1,1.35,1.27,11.63,11.63,0,0,1-15.77,6.12,38.77,38.77,0,0,1-6.31-4.33c-4.71-3.5-9.28-3.49-14.46.06,6.14-3.53,11.43-2.26,16.6,2.23,6.27,5.44,11.58,5.28,18.1.19,1.7-1.32,3.21-3.31,5.85-2.31,3.72,1.11,6.91,3.28,10.26,5.1,7.42,4,15.06,7.66,22.22,12.16-2.26,5.78-7.82,8.43-13.38,6.36a23.71,23.71,0,0,1-6-3.8c-6.42-4.92-11.79-4.91-18.32-.07-8.45,6.27-11.1,6.24-19.34-.23-5.06-4-10.34-4.66-15.92-1,6.38-3.23,12-1.78,17.23,2.56,5.69,4.7,10.91,4.72,16.95.35,8.9-6.41,12.64-6.35,21.26.36,4.95,3.86,10.71,3.7,16.33-.27C1056.8,878.86,1058.21,876.25,1061.14,877.78Z"/><path class="cls-1" d="M396.21,981.38a10.74,10.74,0,0,1,.44-4.71Q419.83,869.3,443,761.93c.2-.93.26-1.89.39-2.84,2-4.5,6.1-3.88,9.86-4.12,3.62,1,4.59,4.79,7.13,6.94,4.31,5,4.31,5,.73,8.71-11.9,9.7-13.67,24.6-4.49,38,.81,1.18,1.77,2.25,2.64,3.39.43.5.83,1,1.25,1.54a15.27,15.27,0,0,1,1.19,1.56c1.32,2.87,3.78,4.74,6,6.84,11.07,8.25,23.66,13.89,35.55,20.74,17.85,10.27,35.78,20.43,54,30s37.42,16.57,58.24,14.69c19.58-1.76,37.76,2.27,55.62,9.26A153.31,153.31,0,0,1,697,910.12c1.61,1,3.37,1.9,4.06,3.88,0,5.2-2.61,9.77-3.54,14.76a39.69,39.69,0,0,0-1.09,6.57c-.31,2.17-1.15,4.23-1.23,6.47-.22,6,1.5,10.84,7.6,13.24a17.33,17.33,0,0,1,4.47,2.61c.69.54,1.33,1.14,2,1.64a9,9,0,0,1,1.05.79c3.49,2.34,7.37,3.93,11.11,5.8,7.34,4.19,15,7.74,22.26,12.12,1.3.78,3.09,1.23,2.71,3.38Z"/><path class="cls-1" d="M177.57,801.13q-16.23,75.17-32.44,150.33-2.92,13.53-5.82,27.08a22.36,22.36,0,0,0-.25,2.84H.89V828.93c7.26-1.91,14.73-2.57,22.11-3.8C42,822,61.07,819,80.11,815.91s38.09-6,57.13-9.08c13.37-2.14,26.73-4.37,40.1-6.56v0c.27.15.39.33.37.54S177.64,801.13,177.57,801.13Z"/><path class="cls-3" d="M821.27,981.38h-54.7c-20.15-7.67-39.11-17.94-58.55-27.15-9-4.25-10.78-10-6.4-18.8,2.7-5.45,4.33-11.34,7.36-16.62a2.45,2.45,0,0,1,1.84-1c13.54,7.43,27.18,14.7,40.82,21.94,2.37,1.25,5.22,1.6,7.09,3.78,1.27,3,.78,6.35,1.58,9.46-.12,5.8,3,9.71,7.88,12,5.15,2.4,10.44,2.37,15.44-.94,2-1.3,3.2-3.62,5.76-4.06,11,6,22.45,11.39,33,18.28C823,979.62,822.14,980.51,821.27,981.38Z"/><path class="cls-4" d="M821.27,981.38c.27-1,.54-1.94.82-2.92-1.12-2.89.49-5.3,1.47-7.76a624.19,624.19,0,0,0,27.06-83.23c6.13-25.12,11-50.46,12.31-76.4.29-5.89.76-11.76.8-17.66,0-2-.18-4.22,1.74-5.71a17.78,17.78,0,0,1,7.08,3.25c2.22,1.58,2.4-.31,3.25-1.27.8,24.33-1.72,48.38-6.09,72.27-7.21,39.33-19,77.31-33.71,114.44-.63,1.59-1.75,3.1-1.3,5Z"/><path class="cls-5" d="M1400.81,846.19c-.35.57-.66.56-.93-.06,0-.29,0-.59,0-.88a11.41,11.41,0,0,1-1.93-7.27c.06-1.27,0-2.55,0-3.83"/><path class="cls-6" d="M709.92,919a123.53,123.53,0,0,1-6.8,16.76,24.14,24.14,0,0,0-1.93,4.86,9.19,9.19,0,0,0,3.54,10.11,17.37,17.37,0,0,0,3.3,1.9l55.2,26.24c1.29.61,2.71,1,3.34,2.51H752.18c-11.11-3.76-20.88-10.36-31.59-15-3.76-2.25-7.94-3.71-11.6-6.15l0,0c-.54-.56-1.47-.41-2-1-2.16-1.92-4.89-2.83-7.43-4.06a8.85,8.85,0,0,1-5-5.89c-1.28-4.79-2-9.55.88-14.08.91-6.93,4-13.17,6.11-19.74a2.12,2.12,0,0,1,1.21-.75A10.23,10.23,0,0,1,709.92,919Z"/><path class="cls-7" d="M1399.88,846.13q.46,0,.93.06,0,65.68-.06,131.36c0,1.26,1,2.94-.9,3.83Z"/><path class="cls-8" d="M720.52,965.87c7,2.61,13.53,6,20.19,9.26,2.7,1.31,5.45,2.49,8.17,3.75,1.28.59,2.67,1.06,3.3,2.5h-5.76A30.41,30.41,0,0,0,740,977.3c-6.45-3.51-13-6.89-19.46-10.32-.29-.24-.39-.49-.29-.74S720.42,965.87,720.52,965.87Z"/><path class="cls-9" d="M501.75,574.24a34.53,34.53,0,0,0,7.4,1.83,60.27,60.27,0,0,1,23.12,8.84c12.89,7.92,26.83,13.38,40.89,18.64,15.25,5.71,30.7,10.82,46.28,15.58A61.53,61.53,0,0,1,651,640.58c8.52,11,17.1,21.88,25.32,33.08,20.46,27.35,37,56.55,42.74,91.39a56.13,56.13,0,0,0,3.88-10.62c2.06-6.9,5.43-8.89,12.17-6.67,4.35,1.44,8.89,2.65,12.56,5.7a4.11,4.11,0,0,1,.69,1.37c.48,3.26-.55,6.33-1.31,9.41-11,44.76-22.23,89.47-36.15,133.45-1,3.28-.92,7.56-5.44,8.82a37,37,0,0,1-16.59-10c-4.92-5.07-6.21-11.34-5.21-18.19a39.5,39.5,0,0,0,.47-11.25c-1.79.16-2.74,1.53-3.86,2.44a50.31,50.31,0,0,1-20,9.93c-3.31.81-6.7,1.36-9.92.17-13.37-4.94-26.85-3.68-40.63-2-13.47,1.65-26.83-.83-39.32-6.13-10.94-4.65-15.88-14-16.42-25.51-.45-9.7,5.23-16.79,14.63-19.28,1.24-.32,2.5-.55,3.72-.9,7.62-2.23,10.08-6.12,8.66-14-.74-4.09-1.48-8.17-1.1-12.35.76-8.58,7.34-12.49,14.9-8.39,9,4.89,18.79,7.86,28.47,12.5-14.18-6.09-25.54-15.25-36.44-25.1-1.79-2.23-4.15-3.94-5.73-6.37a101,101,0,0,1-21-36,11.32,11.32,0,0,1-.35-1.42,101.56,101.56,0,0,1-4.28-38.25c.74-9.22.86-18.52-.91-27.69-1.48-7.59-6.12-13.28-11.71-18.21a97,97,0,0,0-36.4-20.6c-16.16-4.91-30.12-13.82-42.53-25.2-2.68-3.12-4.92-6.58-7.53-9.76-4.25-6.8-7.93-13.84-9.35-21.86-1.75-9.89.18-18.4,8.9-24.48,3.08-1.69,6.08-1.33,9,.38,6.46,11.2,18.31,15.43,28.5,21.77A37.91,37.91,0,0,0,501.75,574.24Z"/><path class="cls-9" d="M244.67,337.92c-8.33-13.61-9.43-27.65-3.08-42.42,8.62-20.05,16.72-40.31,23.41-61.11a177.12,177.12,0,0,0,6.23-25c1.59-9.47,4.06-18.66,9.5-26.81a34.81,34.81,0,0,0,2.47-5.68c4.88-11.83,4.95-24.5,6.52-36.91a6.86,6.86,0,0,0-1.47-5.35c1.78-7.19,8.07-11.69,17.12-8,5.51,2.26,9.61,6.16,13,10.88,5,7,7.69,14.92,9.64,23.17.44,1.85.81,3.72,1.2,5.59,2.48,3.12,1.51,6.69,1.07,10.06-1.05,8-2.48,16-5.45,23.57-3.09,7.92-7.79,14.54-15.28,18.86a14.44,14.44,0,0,1-7.22,2.16c-2.54-.75-5-2.48-7.71-.31-.53.23-1.06-.25-1.6,0,.62,0,1.17.33,1.77.36,1.79.6,3.61,1.09,5.37,1.81,2.26,1.48,4.78,2.52,7,4.06,4.75,3.27,5.88,7.85,2.94,12.84-3,5.17-7.42,8.56-13.82,8.9,2.19.61,4.13,1.22,4.12,3.87-.65,1.48-2.93,1.27-3.44,3.71,2.87-.17,2.3-3.27,3.91-4,9.62,2.13,13.93,16.34,7.27,24-4.1,4.69-9.09,7.12-17.23,8.38,5.48-1.17,11-1,16.56-.75,2.71.1,5.48,1,6,3.86.61,3.63,2.9,4.11,5.73,4.38,18.69,1.82,33.83,10.7,46.89,23.66,1.79,1.78,3.78,3.53,3.75,6.41-.23,1.71-2.59,1.69-2.87,3.69,2.08,1.08,3.16-1.43,4.86-1.43,1.37.26,2.15,1.29,3,2.28,10.08,12.32,22.86,44.64,23.89,60.17-.3-1.91,1-3.77,1.12-5.85,2.05-5.52,3.19-11.36,6-16.59a46.65,46.65,0,0,1,2.64-4.54c7.07-10.16,16.82-10.45,24.42-.71,1.76,2.25,3.33,4.68,5.55,6.49,4.94,4,9.46,4.34,14.31.3s10.69-6.18,16.92-7.17c1.92,1.2,3.22,3.51,5.92,3.36,11.62,6.35,17.45,20.54,13,33.17a88.7,88.7,0,0,1-26.89,38.85A55.38,55.38,0,0,0,445,456.49c-.92,2.35-1.88,4.76-4,6.44-3.12.44-4.89,2.3-5.57,5.31-7,5.6-15.35,7.55-24.32,9.22A95.52,95.52,0,0,0,422,485.92c7.39,4.81,10,11.71,9.32,20.12-.36,4.27-.72,8.6-3,12.42-3.2,1.91-5.89-.18-8.56-1.3q-23.61-9.9-46.77-20.87c-22.78-10.8-45.53-21.66-68.05-33-2.67-1.34-5.76-2.39-5.89-6.19a17.11,17.11,0,0,1,2.22-7.76c1.92-3.19,4.65-5.06,8.43-3.54a52.44,52.44,0,0,0,25.86,3.45c.55-.07,1.29-.16,1.6.61-11.91-5.36-21.34-13.94-30.12-23.34C291.5,409.94,280.38,390.2,267.13,372c-2-2.78-4.81-5.18-5.56-8.8.25-1.32,2.63-1.77,1.68-3.43-.68-1.19-2.29-.54-3.45-.84-3.92-1.49-5.26-5.3-7.36-8.35s-3.74-6.59-5.89-9.72v0A21.83,21.83,0,0,1,244.67,337.92Z"/><path class="cls-10" d="M241.51,563.18q4.41-20.77,8.84-41.55,5.7-26.61,11.47-53.2c1.83-2,2.19-3.92-.06-5.85a15.73,15.73,0,0,0,2.84-2.47c4-4.86,8.82-5.85,14.52-3.17,4.18,2,8.09,4.49,12.47,6.07a3.63,3.63,0,0,1,3.59,1.35c1.2,2.44,3.44,2.28,5.64,2.25a19.21,19.21,0,0,1,5.32,2.09c17.78,8.64,35.15,18.12,53.23,26.15a15.49,15.49,0,0,1,5.6,3.57c1.23,2.43,3.22,3.15,5.8,2.61,6.38,1.14,11.68,4.88,17.45,7.44,12.2,5.41,24.4,10.78,36.74,15.85a10.49,10.49,0,0,1,1.22.58l1.77.88c2.36,1,4.78,2,7.12,3.07,1.16.68,2.57,1.12,2.77,2.77-.47,2.08-1.83,3.8-2.37,5.86-2.32,11.58-4.91,23.1-7.38,34.65-.4,1.85-.64,3.82-2.33,5.09-1.85,1.1-3.74.27-5.47-.18-5.75-1.47-10.4.31-14.4,4.37a19.93,19.93,0,0,0-5.3,19c.23,8.4,6.12,11.51,12.9,13.8,2.76.83,4.72,2.5,4.1,5.54-2.37,11.54-3.78,23.32-8.07,34.41-2.32,2.23-4.83,1-7.18.19a669.81,669.81,0,0,1-62.73-25.16c-29.48-13.72-57.86-29.35-83.82-49.1-3.94-3-7.75-6.16-11.5-9.41C241.89,568.62,240.61,566.37,241.51,563.18Z"/><path class="cls-1" d="M650.6,256.43c10.21,10.25,20.7,20.22,30.57,30.82l.22.42c.52,1.11-.63,2.88.81,3.43s1.67-1.64,2.88-2c.82,2.49,2.55,4.29,4.37,6.09q10,9.93,20,20c2.66,2.68,2.68,2.77.22,5.23Q678.35,351.75,647,383.05c-2.59,2.58-2.72,2.58-5.32,0Q610.28,351.75,579,320.4c-2.3-2.3-2.3-2.41.15-4.87q31.33-31.33,62.66-62.66c1.65-1.65,3.09-2.93,5-.4C646.22,255.55,647.37,257,650.6,256.43Z"/><path class="cls-11" d="M300.29,252.68c-1.52-2.47-4.45-2.78-7.12-4.49,2.36-.53,4.28-.89,6.17-1.4a15.27,15.27,0,0,0,10.06-8.74c1.92-4.1.73-7.82-3.15-10.19-1.75-1.07-3.65-1.91-5.5-2.8a2.19,2.19,0,0,1-1.33-1.8,2.84,2.84,0,0,1,1.79-3.2c11.61-2.27,18-10.28,22-20.56a90.77,90.77,0,0,0,6-33.18l4.57-2.79c3.05,5.85,3,11.92,1.32,18.11-.83,2.09-4.71,3.37-1.72,6.49,1.81,2.28,1.2,4.85.77,7.33a103.42,103.42,0,0,1-5.81,21.08A99.93,99.93,0,0,0,323.59,233c-1.38,6.41-.35,12,4.93,16.33a8,8,0,0,1,2.55,3.39c1.4,4.16,1.4,4.16,5.07,1.06a12.71,12.71,0,0,1,4.69-.83c9.43-.77,14.39-5.11,16.21-14.66,1.71-8.93,2.73-18,4-27,1.11-8,3.16-15.64,7.47-22.55a12.26,12.26,0,0,0,.67-1.3,7.89,7.89,0,0,1,.75-1.21l.43-.57c1.52-1.82,2.55-4,4.25-5.71,1.19-1.17,2.22-2.85,4.37-2.07,1.4,1.09.55,3,1.63,4.44,2.79-.73,4.91-3.14,7.89-3.4.58,1.73-.7,2.65-1.68,3.61-7.65,7.51-11.86,16.7-13.53,27.19-.44,2.78-.46,5.73-2.22,8.17-5,2.43-5,2.43-1.41,6,1.07,2,.45,4.07.1,6.09-2.26,12.7-4.76,25.36-7.15,38-1.16,6.14-1.29,11.67,2.9,16.69a5.45,5.45,0,0,1,.93,2.18c.75,1.66-1.43,5.65,3.31,4.12a8.53,8.53,0,0,1,1.23-.57,5.92,5.92,0,0,1,1.38-.27c2.43,0,4.6,1.14,6.91,1.67,7.94,1.82,15.21-2,17.75-9.72,2.68-8.11,5.05-16.33,7.42-24.55a7,7,0,0,1,.32-1.43c3-8.58,5.16-17.41,8-26,2.38-7.31,5.23-14.42,10.15-20.43,2.52-3.09,5.39-6,9.9-5.84,1.3,1,.29,3.65,2.72,3.86.45,2.05-1.27,2.77-2.44,3.67-7.29,5.58-11.44,13-13.55,21.83-3.87,16.24-8.57,32.28-12.58,48.5a14.71,14.71,0,0,1-2,5.31c-1.19,1.66-4.29,2.31-2.79,5.37a10,10,0,0,1,.55,1.21,6.34,6.34,0,0,1,.34,1.33c-.66,12.07,4.22,19.44,14.7,22.52a14.9,14.9,0,0,0,13.2-2.09,30.81,30.81,0,0,0,9.55-10.53q12.15-21.42,24.3-42.84c1.24-2.2,2.29-4.65,5.26-5.12a3.58,3.58,0,0,1,2.58,1.19c1.87,2.61.31,4.92-.84,7.11-5.33,10.16-9.73,20.76-15,31-.58,1.13-1.14,2.28-1.64,3.45-2.7,6.44-1.33,9.64,5.24,12.32,14.45,5.89,28.95,1.55,38-11.23,2-2.82,3.1-6.36,6.35-8.22a8,8,0,0,1,5.56.23,2.07,2.07,0,0,1,.57,1.26c-7.35,18.52-18.7,33.17-38.48,39.63-5.28,1.72-10.75,1.46-16.12.94-5.74-.55-9.83-4.8-11.16-10.92-.77-3.6-1-7.26.31-10.46A24.79,24.79,0,0,1,440,323a28.54,28.54,0,0,0-5.47,4c-6.83,2.14-13.69,2.82-20.64.47-11.43-3.85-19.11-13.22-18.07-25.74-10.05,7.46-20.93,9.15-31.79,2.94-12.48-7.12-10.89-18.94-8.32-31.06a33.59,33.59,0,0,1-8.1,11.12c-3.34,3-7.71,4.49-11.09,7.42-1.75,0-2.09-2.7-4.4-2.19.41,2.52,2.93,1,3.89,2.14a24.74,24.74,0,0,1,4.61,1.17c17.77,8.33,33.17,19.64,44.68,35.75a80.11,80.11,0,0,1,15.12,51.18,3.55,3.55,0,0,0,.56,1c-.21,3.19-1.36,6.17-2.16,9.75-1.66-3.29-1.78-6.53-2.5-9.58-3.46-14.61-8.14-28.77-15.34-42a75.08,75.08,0,0,0-9.78-14.62l-.53-.09a2.89,2.89,0,0,1-.85-.63,1.86,1.86,0,0,1-.39-1.49c-5.63-8.18-13.31-14.08-21.62-19.24-11-6.81-23.06-9.84-35.66-10.27-.9-1.05-.06-1.64.11-2.34.77-3.24-.25-5-3.58-5.25-3.65-.31-7.33-.2-11-.24-3.51,0-7,0-11.32,0l10.9-3.52a22.69,22.69,0,0,0,8.2-4.8c4.73-4.21,5.92-8.78,3.53-14.63-1.71-4.19-4.19-7.85-8.72-9.56Z"/><path class="cls-11" d="M401,381.16H400c-.65-5.67.78-11.44-.7-17.07a2.86,2.86,0,0,1,1-1.53c1-.82,3.3-.53,3.07-2.37-.26-2-2.73-.95-3.88-2-1.43-1-1.57-2.62-2-4.19-2.91-11.59-7.57-22.32-15.45-31.52-4-4.66-3-5.33,2.49-7.45,8.22-3.17,12,1.73,16.18,6.9,1.24,4.91,1.24,4.91,5.54,2.3,8.73,5,17.84,6.13,27.4,2.72,3.43.29,5.49-1.63,7-4.39,2.83-1.27,3.79.85,4.54,2.74,2.64,6.62,7.7,9.13,14.53,9.37a78.89,78.89,0,0,0,26.29-3.79c7.88-2.43,14.35.14,19.77,6,1.3,1.4,2.54,2.87,1.67,5-.55,5.55-1.87,11-2.86,16.44a2.39,2.39,0,0,1,0,3.63c-2.53,4.9-2.85,10.37-3.75,15.63-2.62,15.37-7.12,30.06-14.52,43.8-3.63,6.76-7.54,13.38-13.29,18.59-12.25,11.11-20,25.06-26,40.2-2.69,6.82-5.12,13.71-6.1,21,0,.27-.37.5-.56.75-1.24-.52-1.49-2.39-3.53-2.38.51,2,2.68,1.36,3.48,2.47q-1.5,8.57-3,17.14a10.59,10.59,0,0,1,0,1.95,2,2,0,0,1-1.87,1.69,11.26,11.26,0,0,1-8-3.44,1.38,1.38,0,0,1,.18-1.29c.38-4.61,2-9,2.11-13.68.11-7-1.95-12.71-8.08-16.8-4.89-3.26-9.41-7.06-14.67-11,2.9-.57,5.14-1,7.38-1.43a50.27,50.27,0,0,0,17.88-6.51,6.14,6.14,0,0,1,3.08-1.21,6.25,6.25,0,0,0,4.55-4.72,45.14,45.14,0,0,0,4-7.62,52,52,0,0,1,16.4-21.91c9.53-7.54,16.44-17.28,22.07-27.95a81.31,81.31,0,0,0,4.39-9.54A27.05,27.05,0,0,0,478,365.27l-3-2.34c-.66-2.72-2.07-4.39-5.17-3.72a3.49,3.49,0,0,1-3,1.93c-5,.28-9,2.58-12.77,5.82-6.14,5.33-13.23,4.53-18.32-1.87-2.56-3.23-4.89-6.63-8.36-9.08-5.72-4-11-3.47-15.59,1.93a40.73,40.73,0,0,0-7,12.44C403.45,374,402.23,377.56,401,381.16Z"/><path class="cls-9" d="M470,257.35c-1.92.87-2.57,2.76-3.5,4.4q-12.39,21.87-24.76,43.75a35.19,35.19,0,0,1-6.1,7.95c-8.26,8-16.78,8.61-27.12.94-6.86-5.09-8.61-12.33-6.56-20.53a11.87,11.87,0,0,0,1.88-6.7c4.9-18.94,9.9-37.85,14.65-56.82,2.51-10,8.44-17.28,17-22.71,11.91-4,22.42-2,31.22,7.31,1.09,1.15,2.15,2.32,3.23,3.48a35,35,0,0,0,3.82,5.38c1.64,4.75,3.84,9.34,4.2,14.46,1.39,5.49-1.95,9.63-4,14.12A24.86,24.86,0,0,0,470,257.35Z"/><path class="cls-9" d="M370.27,218.09c.87-4.69,1.61-9.41,2.66-14.06a41.91,41.91,0,0,1,14.66-24,6.88,6.88,0,0,0,.89-1.11c18-6,33.82,1.67,41.86,18.64,1,2,1.62,4.15,2.42,6.22-10.74,5.48-14.9,15.6-18.34,26.14-2.61,8-4.92,16.12-7.37,24.18a4.9,4.9,0,0,1-1.12,2.58c-1.22-.18-1.71-2-3.52-1.38.52,1.76,2.4,1.2,3.31,2-.1,3.42-1.68,6.45-2.59,9.66-1.48,5.21-3.25,10.35-4.55,15.61-2.1,8.48-11.86,12.94-19.71,10.73-2.61-.73-5.17-1.64-7.75-2.46-1.77-1-3.56-1.89-5.32-2.88-.29-1.53-1.54-2.38-2.41-3.49a15,15,0,0,1-3.13-12.95c3-15,5.6-30,8.38-45.07.17-.94.6-1.85-.26-2.67C368.35,221.68,369.48,219.94,370.27,218.09Z"/><path class="cls-9" d="M379,177.87c-3.56,2-5,5.9-7.81,8.55-1.38-.24-2.3-1.84-4.2-1.26,0,2.06,2.41,1.8,3.13,3.05-3.34,6.88-6.22,13.89-7.27,21.55-1.27,9.27-2.67,18.52-3.95,27.79-1.72,12.43-10,17.68-19.67,17-1.11-.07-2.23,0-3.34,0a10.88,10.88,0,0,1-5.5-1.13c-.37-1.61-1.89-2.09-3-2.95-5.18-4.07-7-9.43-5.78-15.74a99.73,99.73,0,0,1,5.38-19.3,93,93,0,0,0,6-23.07c.19-1.44.54-2.87-1.09-3.76,1.27-1.82,2.38-3.69,2-6.06,1.1-6.35-.12-12.69-.11-19,1.33-.88,2.61-1.84,4-2.61a29,29,0,0,1,39.85,12.44A8.88,8.88,0,0,1,379,177.87Z"/><path class="cls-9" d="M505.49,292.92c-1.54.55-1.88,2.07-2.59,3.28A51.73,51.73,0,0,1,495.05,307c-10.39,10.48-25,11-37.23,5.52-6.11-2.74-7.29-6.95-4.21-13.4,5.7-11.94,11.57-23.79,17.3-35.7.71-1.48,2.24-2.89,1.09-4.84,1-1.75,2.61-3.2,2.74-5.4,1.41-3.14,1.68-6.92,5-9a18.64,18.64,0,0,1,12.91-1.47c6.55,1.59,12.72,3.89,16.67,9.89-.46,1.19-2,1.55-2.43,3.1,1.75.88,2.47-1.24,3.77-1.15a5.93,5.93,0,0,1,1.65,2.93c1.77,10.23-.61,19.88-4.18,29.35C506.61,288.56,506.62,291,505.49,292.92Z"/><path class="cls-4" d="M241.51,563.18c0,2.36,1,4,2.88,5.59,18.11,15.82,38.21,28.68,59.12,40.36,29.58,16.53,60.54,30,92.45,41.27,4.19,1.48,8.21,3.53,12.71,4.06a2.64,2.64,0,0,1,.78,1.36c-.59,3.62.7,7.92-3.7,10.16-8.52-2.2-16.66-5.5-24.86-8.59-36.73-13.81-72.11-30.38-105.13-51.71a295.91,295.91,0,0,1-37.09-28A80.91,80.91,0,0,1,241.51,563.18Z"/><path class="cls-11" d="M246.55,340.86c1.71.75,2.37,2.43,3.38,3.8,3.34,4.53,6,9.56,10,13.63a5,5,0,0,1,1.9,4.88c2.05,1.35,3.35,3.38,4.7,5.32,9.82,14.15,19.42,28.46,29.48,42.43a137.9,137.9,0,0,0,32.63,32.67,90,90,0,0,0,10.48,6,27.33,27.33,0,0,1-10.36,1.53c-6.42-.11-12.7-.87-18.63-3.58-4-1.83-6.62-.75-8.25,3.42-.74,1.92-1.13,4-1.69,6-.32.61-.56,1.28-1.27,1.58a4,4,0,0,1-4.35-1.57c1.33-8.56,1.7-17.06-.91-25.5a50.8,50.8,0,0,0-3.69-9.29c-4.76-8.83-9.68-17.57-14.47-26.39q-13.67-25.2-27.23-50.45C247.49,343.88,246.48,342.57,246.55,340.86Z"/><path class="cls-11" d="M747.42,754.1c-3.27-1.28-6.53-2.57-9.8-3.83a41,41,0,0,0-4.51-1.6c-4.92-1.27-7.23,0-8.4,5a51.6,51.6,0,0,1-4.68,13c-.43.79-.63,1.85-2,2.13-1.63-3.31-1.14-7-1.8-10.51a151.36,151.36,0,0,0-12-35.7,330,330,0,0,0-25.17-44c-1-1.56-2.53-2.91-2.76-4.94,4.12,3.1,6.46,7.7,9.67,11.57,5.65,6.83,11.11,13.83,16.47,20.89,2.51,3.32,6.38,5.25,8.54,8.86,5.13,6.17,11.46,11.1,17.37,16.44a199,199,0,0,0,21.9,17C750.08,750.69,750,753,747.42,754.1Z"/><path class="cls-12" d="M507.55,341.92c-3.2-7.16-11.87-11.65-19.14-9.84-2.32.57-4.61,1.26-6.9,1.95a62.61,62.61,0,0,1-23.25,2c-6.94-.57-12.48-3.81-14.75-11-.55-1.76-1.24-2.54-3-1.4a1.1,1.1,0,0,1-1.14-1l7.5-14.67c.1,4-.95,7.58-.83,11.4q.42,13.63,13.85,13.94c17.7.43,30.07-8.61,39.94-22.14A129.23,129.23,0,0,0,510.46,293c.22-6.48,3.28-12.11,5.4-18,.15-.44.81-.38,1.28-.28,1.84,3.77.87,7.79.88,11.68a49.52,49.52,0,0,1-2.76,16.24A59.94,59.94,0,0,1,504,322.1c-2.38,2.78-3.29,5.21-.07,8.07,2.56,2.27,3.39,5.61,4.46,8.75A3.35,3.35,0,0,1,507.55,341.92Z"/><path class="cls-13" d="M898.94,601.6c4.72,4.52,9.5,9,14.16,13.57,3.73,3.68,8.1,6.71,11.31,10.87a4.52,4.52,0,0,1-.5,1c-5.47,5.52-5.85,5.52-11.3.18-3.87-3.79-7.72-7.62-11.65-11.36-.77-.73-1.47-2.36-3-1-5.17,4.93-10.43,9.78-15.48,14.84-1.83,1.82-3.23,2.19-5.14.31-1.23-1.21-2.66-2.21-4.43-3.65l25.19-24.58C898.27,601.23,898.56,601.2,898.94,601.6Z"/><path class="cls-14" d="M98.78,72.2c0,4.74-2.07,8.12-5,11.25-4,4.16-4.49,8.75-1.8,13.08a18.51,18.51,0,0,0,2.12,2.58c6.26,6.93,6.27,14.36,0,21.35-5,5.57-5,10.5,0,16,6.47,7.15,6.68,14.41.06,21.2-4.45,4.57-5.16,11.28.11,16.5,5.5,5.45,6.1,12.55,2.19,18.27a12.47,12.47,0,0,1-2.23,2.47,1.76,1.76,0,0,1-2.58-.07,1.58,1.58,0,0,1,.07-2.16c.55-.78,1.25-1.46,1.77-2.26A10.53,10.53,0,0,0,92.88,178c-.69-.88-1.55-1.61-2.28-2.45-5-5.76-5.06-13.32-.07-19.17.52-.6,1.13-1.13,1.65-1.73,4.18-4.78,4.21-10.37-.26-15-3-3.14-5.07-6.58-5.08-11,0-4,1.27-7.68,4.36-10.27,5-4.2,5-12.18.19-17-6.42-6.48-6.12-14,.07-20.83,4.78-5.26,5-9.5.9-15.4-.18-.26-.44-.47-.62-.73-.55-.85-.92-1.75.08-2.51a1.94,1.94,0,0,1,2.61.31,13.63,13.63,0,0,1,4.21,7.86A14.43,14.43,0,0,1,98.78,72.2Z"/><path class="cls-14" d="M118,72.2c.15,4.07-1.47,7.4-4.17,10.37-5.72,6.25-5.69,10.7,0,17.06s5.85,14.37-.13,20.25c-5.3,5.22-4.87,12.48.08,17.29,6.1,5.92,5.77,13.83.07,20.16s-5.69,10.89,0,17.09c5.15,5.63,5.68,13.21,1.31,18.8a5.1,5.1,0,0,1-2.5,2.13,1.8,1.8,0,0,1-1.76-.46,1.34,1.34,0,0,1-.2-1.74c.49-.81,1.17-1.51,1.71-2.3a10.49,10.49,0,0,0-.83-13.62c-.52-.6-1.15-1.12-1.67-1.72a14.08,14.08,0,0,1-.05-19.18c.32-.36.68-.68,1-1,4.91-5.42,5-10.82,0-16.08-2.24-2.39-4-4.94-4.5-8.26a14.51,14.51,0,0,1,3.8-12.36c5.83-6.44,5.79-11.14.06-17.58-5.51-6.18-5.51-13.71,0-19.86s5.74-9.18,1-16.5c-.53-.82-1.19-1.64-.33-2.53s2-.57,3,.17C116.12,64,118,68.54,118,72.2Z"/><path class="cls-15" d="M80,71.59c-.11,4.8-1.48,8.27-4.4,11.07A11.48,11.48,0,0,0,72,88.19c-.94,4-.36,7.81,2.88,10.52,6.49,5.45,6.31,16.38.12,22.14-4.91,4.55-4.87,10.67,0,15.23a15.13,15.13,0,0,1,.09,22.1c-5,4.7-4.79,10.62.09,15.63,3.88,4,5.55,8.45,4.47,13.91a13,13,0,0,1-2.94,5.94c-.93,1.08-2.06,2.55-3.57,1.4-1.74-1.32-.07-2.46.71-3.57,3.92-5.52,3.59-9.9-1.09-15-6.43-7-6.42-14.17,0-21.22,5-5.48,5.29-10.93,0-16A14.78,14.78,0,0,1,72.63,118c5.35-5.23,5.08-10.75,0-16.43-6.18-6.85-6.18-14.1,0-20.9,4.94-5.42,5.24-9.51,1.1-15.35-.71-1-2.08-2-.7-3.23s2.61.07,3.58,1.11A14.13,14.13,0,0,1,80,71.59Z"/><path class="cls-16" d="M198.6,704.23a1.24,1.24,0,0,0-.28.78,12.94,12.94,0,0,1-7.72-4.51c-5.53-6.59-15.7-6.3-21.62-.24-7.91,8.08-18.13,7.69-26.4-.14-6.43-6.1-12.81-6.48-19.69-1.17-.25.19-.47.43-.71.64-1.07,1-2.23,1.33-3.37.2s-.59-2.36.36-3.34a17.95,17.95,0,0,1,25.41-.72c.7.64,1.35,1.36,2.07,2,5.91,5.23,13.18,5.22,19-.25,3-2.81,6.07-5.07,10.15-6a18,18,0,0,1,15,3.14c2.47,1.75,4.3,4.28,7.07,5.69C199.59,701.24,198.19,703,198.6,704.23Z"/><path class="cls-6" d="M437.6,531.59l-3.07-1.76a9.86,9.86,0,0,1,1.74-7.71,1.34,1.34,0,0,1,.49,0c6.44,0,11.71,3.64,17.55,5.5,2.38.76,4.42,2.61,7.17,2.15,3,.87,5.14,3.09,7.63,4.77a40.91,40.91,0,0,1,5.72,2.8c-.37.87-.74,1.69.05,2.6,2.55,2.94,2.4,6.36,1.48,9.8-.52,2-.3,4.11-1.48,5.89-3.46,1.26-5.11-.89-6.57-3.43-.71-8.91-1.77-10.14-10.44-12.75-5.44-1.64-10.87-3.37-16.17-5.42a7.5,7.5,0,0,1-1.23-.35,6.74,6.74,0,0,1-1.13-.51,4.74,4.74,0,0,1-1.07-.62A2.07,2.07,0,0,1,437.6,531.59Z"/><path class="cls-11" d="M508.38,338.92a3.94,3.94,0,0,1-1.91-2.05,21.25,21.25,0,0,0-5.75-8.05c-1.58-1.33-1.93-2.55-.36-4.37a106,106,0,0,0,12.07-17.59c.8-1.44.83-3.56,2.83-4.24-.45,6.47-2.22,12.71-3.5,19-.38,1.93.39,4.22-1.41,5.81-1.11-.62-1.47-2.35-3.39-2.42.57,2.09,2.51,1.44,3.42,2.37C510.39,331.37,508.9,335.06,508.38,338.92Z"/><path class="cls-17" d="M288.25,134.66c2.69.08,3.58,1.68,3.35,4.1-.35,3.76-.72,7.53-1.16,11.28-.52,4.38-1.14,8.74-1.68,13.12-.63,5.08-1.91,9.9-5.56,13.76-.2-6,1.07-11.94,1.78-17.88C286,150.9,286.44,142.69,288.25,134.66Z"/><path class="cls-18" d="M517.14,274.7c-1.84,5.59-3.2,11.35-5.76,16.7-.26.55-.61,1.07-.92,1.6l-.28-.25c-1.3-1.8-2.24-3.84-3.54-5.65a91.39,91.39,0,0,0,4.8-22.58c.2-2.35.6-4.69.9-7C514.69,263,517.26,268.49,517.14,274.7Z"/><path class="cls-19" d="M469,551.8a11,11,0,0,0,5.85,3.87h0a4,4,0,0,1,.83,1c8.64,5.9,17.64,11.27,26,17.53-5.52.23-10.18-2.19-14.6-5-6.06-3.85-11.86-8.12-18-11.89-2.95-1.82-4.38-4-4-7.39C467.27,549,468.19,550.3,469,551.8Z"/><path class="cls-20" d="M461.48,529.81c-1,1.32-2.26,1-3.44.54-7.09-2.76-14.47-4.72-21.28-8.19a3,3,0,0,1-.06-.94c.34-.8.66-1.61,1.8-1.2A123.77,123.77,0,0,1,461.48,529.81Z"/><path class="cls-21" d="M479.77,244.19c-.88,3.36-2.65,6.35-4,9.53a2.15,2.15,0,0,1-3-1.28c0-2.81,1.76-5,3.08-7.18a13.36,13.36,0,0,0,2.08-7C479.59,239.92,477.73,242.66,479.77,244.19Z"/><path class="cls-22" d="M545.74,535.16a3.2,3.2,0,0,1-6.39-.11,3.16,3.16,0,0,1,2.95-3.17A3.35,3.35,0,0,1,545.74,535.16Z"/><path class="cls-23" d="M609.31,535a3.33,3.33,0,0,1,3.63-3.09,3.15,3.15,0,1,1-.86,6.25A3.13,3.13,0,0,1,609.31,535Z"/><path class="cls-22" d="M790.49,535.14a3.15,3.15,0,0,1-2.91,3.05,3.19,3.19,0,0,1-3.44-3.1,3.15,3.15,0,0,1,2.89-3.2A3.3,3.3,0,0,1,790.49,535.14Z"/><path class="cls-23" d="M860.39,535a3.19,3.19,0,1,1-3.65-3.08C858.39,531.54,860.24,533.11,860.39,535Z"/><path class="cls-22" d="M542.15,217.49a3.31,3.31,0,0,1,3.56,3.16,3.11,3.11,0,0,1-3,3.13,3.16,3.16,0,0,1-.61-6.29Z"/><path class="cls-22" d="M542.76,287.34a3.19,3.19,0,0,1-.46,6.37,3.19,3.19,0,0,1,.46-6.37Z"/><path class="cls-24" d="M787.25,217.46a3.27,3.27,0,0,1,3.2,3.48,3.09,3.09,0,0,1-3.2,2.86,3.19,3.19,0,0,1-3.08-3.46A3.16,3.16,0,0,1,787.25,217.46Z"/><path class="cls-22" d="M787.16,293.73a3.18,3.18,0,0,1,.19-6.36,3.15,3.15,0,0,1,3.11,3A3.3,3.3,0,0,1,787.16,293.73Z"/><path class="cls-22" d="M857.37,217.46a3.18,3.18,0,1,1-.42,6.34,3.28,3.28,0,0,1-2.91-3.63A3.22,3.22,0,0,1,857.37,217.46Z"/><path class="cls-22" d="M860.4,290.37a3.29,3.29,0,0,1-2.79,3.29,3.24,3.24,0,0,1-3.62-2.9,3.21,3.21,0,0,1,6.41-.39Z"/><path class="cls-25" d="M612.7,363.57a3.3,3.3,0,0,1-3.37-3.25,3.1,3.1,0,0,1,3-3.1,3.28,3.28,0,0,1,3.39,3.22A3.23,3.23,0,0,1,612.7,363.57Z"/><path class="cls-22" d="M615.75,220.65a3.36,3.36,0,0,1-3,3.13,3.33,3.33,0,0,1-3.43-3.15,3.26,3.26,0,0,1,3.44-3.13C614.55,217.71,615.44,218.92,615.75,220.65Z"/><path class="cls-25" d="M860.39,360.37a3.16,3.16,0,0,1-2.82,3.15,3.22,3.22,0,0,1-3.57-3,3.08,3.08,0,0,1,2.79-3.28A3.3,3.3,0,0,1,860.39,360.37Z"/><path class="cls-26" d="M580.6,220.5a3.05,3.05,0,0,1-3.15,3.29,3,3,0,0,1-3-3,3,3,0,0,1,3.15-3.29A3,3,0,0,1,580.6,220.5Z"/><path class="cls-22" d="M717.1,287.35a3.33,3.33,0,0,1,3.39,3.28,3.1,3.1,0,0,1-3,3.06,3.21,3.21,0,0,1-3.32-3.24A3.3,3.3,0,0,1,717.1,287.35Z"/><path class="cls-27" d="M752.53,287.35a3.14,3.14,0,0,1,2.79,3.64,2.79,2.79,0,0,1-3.22,2.67,3,3,0,0,1-2.89-3.11A3.25,3.25,0,0,1,752.53,287.35Z"/><path class="cls-28" d="M892,293.72a3,3,0,0,1-2.88-2.92,3.07,3.07,0,1,1,6.11-.53A3.18,3.18,0,0,1,892,293.72Z"/><path class="cls-29" d="M857,468.39a3.23,3.23,0,0,1-3-3.55,3,3,0,0,1,3.29-2.74,3.13,3.13,0,0,1,3.08,3A3.33,3.33,0,0,1,857,468.39Z"/><path class="cls-30" d="M472.72,182.67A3.1,3.1,0,0,1,475.8,186a2.94,2.94,0,0,1-3.18,2.79,3,3,0,0,1-3.11-2.89A3.18,3.18,0,0,1,472.72,182.67Z"/><path class="cls-29" d="M615.7,465.4a3.28,3.28,0,0,1-3.61,3,3.12,3.12,0,0,1-2.77-3.3,3.23,3.23,0,0,1,3.58-2.95A3.38,3.38,0,0,1,615.7,465.4Z"/><path class="cls-28" d="M790.48,465a3.31,3.31,0,0,1-3.26,3.44,3.09,3.09,0,0,1-3.07-3,3.19,3.19,0,0,1,3.24-3.31A3.16,3.16,0,0,1,790.48,465Z"/><path class="cls-30" d="M717.31,433.36a3.13,3.13,0,0,1-3.14-3,3.19,3.19,0,0,1,3.3-3.19,3.1,3.1,0,0,1,3,3.45A3,3,0,0,1,717.31,433.36Z"/><path class="cls-26" d="M720.49,221.05a3.11,3.11,0,0,1-3.09,2.75,3.22,3.22,0,0,1-3.23-3.34,3.12,3.12,0,0,1,3.11-3A3.29,3.29,0,0,1,720.49,221.05Z"/><path class="cls-27" d="M857.23,322.47a3,3,0,0,1,3.11,2.88,3.17,3.17,0,1,1-6.34-.15A3,3,0,0,1,857.23,322.47Z"/><path class="cls-31" d="M717.19,392.2a3.12,3.12,0,0,1,3.28,3.21,3,3,0,0,1-3,3,3.24,3.24,0,0,1-3.34-3.18A3.35,3.35,0,0,1,717.19,392.2Z"/><path class="cls-30" d="M720.5,186a3,3,0,0,1-3.07,2.8,3.07,3.07,0,0,1-3.24-3.21,3,3,0,0,1,3.06-3A3.18,3.18,0,0,1,720.5,186Z"/><path class="cls-32" d="M545.71,500.39a3.17,3.17,0,1,1-3.34-3.29A3.23,3.23,0,0,1,545.71,500.39Z"/><path class="cls-26" d="M822.59,223.81a3.2,3.2,0,0,1-3.4-3.23,3,3,0,0,1,2.92-3.08,3.06,3.06,0,0,1,3.25,3.21A3,3,0,0,1,822.59,223.81Z"/><path class="cls-33" d="M402.36,112.72a3.17,3.17,0,0,1,3.45,3.18A3,3,0,0,1,402.9,119a3.12,3.12,0,0,1-3.29-3.19A3,3,0,0,1,402.36,112.72Z"/><path class="cls-33" d="M437.76,112.71a3,3,0,0,1,3,2.82,3.11,3.11,0,0,1-3,3.48,3,3,0,0,1-3.16-2.84A3.13,3.13,0,0,1,437.76,112.71Z"/><path class="cls-29" d="M542.45,252.5a3.16,3.16,0,0,1,3.24,3.24,3.18,3.18,0,0,1-6.32.16A3.16,3.16,0,0,1,542.45,252.5Z"/><path class="cls-26" d="M787.71,322.49a2.83,2.83,0,0,1,2.75,2.91,3.06,3.06,0,0,1-3.27,3.17,3.17,3.17,0,0,1-3.05-3.42A3.21,3.21,0,0,1,787.71,322.49Z"/><path class="cls-26" d="M930.34,220.81a3.19,3.19,0,0,1-6.38-.25,3.12,3.12,0,0,1,3-3.07A3.3,3.3,0,0,1,930.34,220.81Z"/><path class="cls-34" d="M612.34,119a3.17,3.17,0,0,1,.25-6.33,3.14,3.14,0,0,1,3.09,3C615.89,117.38,614.11,119.09,612.34,119Z"/><path class="cls-30" d="M930.33,185.57c-.17,1.8-1,3-2.82,3.25a3.09,3.09,0,1,1-.3-6.15C929.1,182.74,929.94,183.94,930.33,185.57Z"/><path class="cls-33" d="M682.36,112.7a3.18,3.18,0,0,1,3.06,3.59,2.93,2.93,0,0,1-3.25,2.71,3.07,3.07,0,0,1-2.88-3.57A3,3,0,0,1,682.36,112.7Z"/><path class="cls-35" d="M577.47,357.21a3,3,0,0,1,3.08,3,2.9,2.9,0,0,1-2.68,3.34,3.1,3.1,0,0,1-3.4-3.16A3,3,0,0,1,577.47,357.21Z"/><path class="cls-26" d="M787.26,119.05a3.24,3.24,0,0,1-3.12-3,3.2,3.2,0,0,1,3.21-3.34,3.1,3.1,0,0,1,3.11,3A3.25,3.25,0,0,1,787.26,119.05Z"/><path class="cls-36" d="M294.54,456.89c1.66-.19,3,.76,4.6,1.05,1.18,1.27.84,2.6.15,3.94-1.28,1.47-2.71,2.66-4.79,2.71a6.69,6.69,0,0,1-2.92-1.59C293.89,461.6,293.23,458.77,294.54,456.89Z"/><path class="cls-34" d="M857.25,119a3.17,3.17,0,0,1-.26-6.33,3.17,3.17,0,1,1,.26,6.33Z"/><path class="cls-26" d="M262.72,217.46c1.69.14,2.92.9,3.19,2.75a3.1,3.1,0,0,1-2.82,3.6,3.16,3.16,0,0,1-3.3-3.2C259.82,218.74,260.94,217.83,262.72,217.46Z"/><path class="cls-33" d="M962.11,112.71a3.1,3.1,0,0,1,3.1,3.36,3.1,3.1,0,0,1-6.18,0A3.12,3.12,0,0,1,962.11,112.71Z"/><path class="cls-31" d="M367.71,147.7a3.12,3.12,0,1,1,0,6.24,3,3,0,0,1-3.13-2.87A3.13,3.13,0,0,1,367.71,147.7Z"/><path class="cls-31" d="M475.82,150.8a3.17,3.17,0,0,1-3.51,3.11,3,3,0,0,1-2.8-3.21,3.09,3.09,0,0,1,3.51-2.94A3,3,0,0,1,475.82,150.8Z"/><path class="cls-26" d="M895.24,535.38a3,3,0,0,1-3,2.82,3,3,0,0,1-3.18-3.26,2.93,2.93,0,0,1,2.92-3.06A3.21,3.21,0,0,1,895.24,535.38Z"/><path class="cls-37" d="M473.75,223.8c-4-.83-4.36-1.32-3.82-5.38.14-.06.3-.1.44-.17,1.86-1.05,3.68-1.2,4.94.8S475.39,222.58,473.75,223.8Z"/><path class="cls-31" d="M717.16,147.7a3.14,3.14,0,0,1,3.32,3.18,3,3,0,0,1-3,3.05,3.24,3.24,0,0,1-3.37-3.16A3.38,3.38,0,0,1,717.16,147.7Z"/><path class="cls-26" d="M825.38,535.08a3,3,0,0,1-2.89,3.12,3.14,3.14,0,0,1-3.3-3.19,3,3,0,0,1,2.9-3.12A3.14,3.14,0,0,1,825.38,535.08Z"/><path class="cls-27" d="M752.44,538.21a3.2,3.2,0,0,1-3.22-3.29,3.07,3.07,0,1,1,3.22,3.29Z"/><path class="cls-26" d="M717.47,538.22a3.31,3.31,0,0,1-3.33-3.28,3.22,3.22,0,0,1,3.06-3.08,3.33,3.33,0,0,1,3.32,3.29A3.28,3.28,0,0,1,717.47,538.22Z"/><path class="cls-26" d="M647.27,531.86a3.22,3.22,0,0,1,3.29,3.36,3,3,0,0,1-3,3,3,3,0,0,1-3.11-3.33A3,3,0,0,1,647.27,531.86Z"/><path class="cls-38" d="M685.47,360.21c-.07,1.85-.91,3-2.75,3.29a3.15,3.15,0,1,1-.24-6.28A3.06,3.06,0,0,1,685.47,360.21Z"/><path class="cls-39" d="M930.32,150.82a3.18,3.18,0,0,1-2.84,3.09A3.15,3.15,0,0,1,924,151a3.18,3.18,0,0,1,3.25-3.26A3.38,3.38,0,0,1,930.32,150.82Z"/><path class="cls-26" d="M507.35,217.48a3.17,3.17,0,0,1,3.27,3.34,2.88,2.88,0,0,1-3,3,3.13,3.13,0,0,1-3.16-3.32C504.56,218.58,505.76,217.76,507.35,217.48Z"/><path class="cls-40" d="M507.75,538.22a3.15,3.15,0,0,1-3.26-3.38,3,3,0,0,1,3.06-3,3.08,3.08,0,0,1,3.07,3.39A2.93,2.93,0,0,1,507.75,538.22Z"/><path class="cls-33" d="M685.47,465.36a3,3,0,0,1-2.92,3,3.08,3.08,0,0,1-3.29-3.17,3,3,0,0,1,2.92-3.1A3.18,3.18,0,0,1,685.47,465.36Z"/><path class="cls-27" d="M857.22,258.66a3.07,3.07,0,0,1-3.21-3.25,3,3,0,0,1,3.1-2.89,3.12,3.12,0,0,1,3.23,3.24A3,3,0,0,1,857.22,258.66Z"/><path class="cls-29" d="M790.47,255.51a3.11,3.11,0,0,1-3.31,3.14,3.07,3.07,0,0,1-.16-6.12A3.1,3.1,0,0,1,790.47,255.51Z"/><path class="cls-27" d="M612.22,258.64a2.94,2.94,0,0,1-2.89-2.95,3.09,3.09,0,0,1,3.29-3.17,3,3,0,0,1,3,3C615.86,257.19,614.17,258.72,612.22,258.64Z"/><path class="cls-31" d="M717.62,77.88a2.89,2.89,0,0,1,2.85,3A3,3,0,0,1,717,84a2.91,2.91,0,0,1-2.82-3.22C714.32,79,715.5,77.88,717.62,77.88Z"/><path class="cls-41" d="M825.29,465.74a2.92,2.92,0,0,1-3.3,2.6,3,3,0,0,1-2.69-3.74,2.84,2.84,0,0,1,3.5-2.4C824.59,462.51,825.47,463.77,825.29,465.74Z"/><path class="cls-42" d="M790.47,81.2A3,3,0,0,1,787.35,84a3.14,3.14,0,0,1-3.19-3.4,3,3,0,0,1,3.36-2.7A3.07,3.07,0,0,1,790.47,81.2Z"/><path class="cls-43" d="M752.23,468.39c-1.79-.31-2.92-1.25-3-3.13a3.11,3.11,0,0,1,3.38-3.15,3.16,3.16,0,0,1-.4,6.28Z"/><path class="cls-44" d="M930.31,80.83c-.24,1.64-1,2.93-2.89,3.12a3,3,0,0,1-3.41-3.1,2.87,2.87,0,0,1,3.07-2.94C929,77.85,930,79,930.31,80.83Z"/><path class="cls-45" d="M720.51,465a3.29,3.29,0,0,1-3.32,3.34,3.13,3.13,0,0,1-3-3.06,3.27,3.27,0,0,1,3.31-3.24A3.16,3.16,0,0,1,720.51,465Z"/><path class="cls-46" d="M262.89,112.71a3,3,0,0,1,3,3.06,2.88,2.88,0,0,1-2.81,3.19,3,3,0,0,1-3.24-3.27A3,3,0,0,1,262.89,112.71Z"/><path class="cls-47" d="M301.06,115.94a3.19,3.19,0,0,1-6.37-.14,3.12,3.12,0,0,1,3-3.08A3.33,3.33,0,0,1,301.06,115.94Z"/><path class="cls-48" d="M332.82,119c-1.77-.21-3-1-3.07-3a2.91,2.91,0,0,1,2.7-3.31,3.09,3.09,0,0,1,3.38,3.17C335.77,117.82,334.61,118.72,332.82,119Z"/><path class="cls-42" d="M370.9,115.71a3.31,3.31,0,0,1-3.27,3.3,3.07,3.07,0,0,1-3.05-3,3.23,3.23,0,0,1,3.23-3.31A3.34,3.34,0,0,1,370.9,115.71Z"/><path class="cls-42" d="M472.66,112.7a3.23,3.23,0,0,1,3.12,3.56A3.05,3.05,0,0,1,472.5,119a3.17,3.17,0,0,1-2.95-3.54A3.06,3.06,0,0,1,472.66,112.7Z"/><path class="cls-47" d="M542.75,112.72a3.23,3.23,0,0,1,2.91,3.6,3.18,3.18,0,0,1-6.31-.44A3.28,3.28,0,0,1,542.75,112.72Z"/><path class="cls-46" d="M580.57,115.83a2.89,2.89,0,0,1-2.93,3.1,2.81,2.81,0,0,1-3.15-2.83,3,3,0,0,1,3.13-3.36A3.06,3.06,0,0,1,580.57,115.83Z"/><path class="cls-49" d="M650.55,115.86a2.9,2.9,0,0,1-2.95,3.08,2.77,2.77,0,0,1-3.12-2.85,3,3,0,0,1,3.13-3.35A3.1,3.1,0,0,1,650.55,115.86Z"/><path class="cls-42" d="M717.62,119c-1.81.08-3.6-1.58-3.44-3.24a3.1,3.1,0,0,1,3-3.06,3.16,3.16,0,0,1,.43,6.3Z"/><path class="cls-33" d="M755.35,115.74c-.07,2.07-1.14,3.2-3,3.22a2.93,2.93,0,0,1-3.15-2.92,3,3,0,0,1,3.23-3.31A2.91,2.91,0,0,1,755.35,115.74Z"/><path class="cls-46" d="M822.32,112.73a2.88,2.88,0,0,1,3,2.83,2.93,2.93,0,0,1-2.61,3.39,3.12,3.12,0,1,1-.36-6.22Z"/><path class="cls-49" d="M895.23,115.9a2.93,2.93,0,0,1-3.05,3,2.81,2.81,0,0,1-3-3,3,3,0,0,1,3.23-3.25A3,3,0,0,1,895.23,115.9Z"/><path class="cls-38" d="M997,119c-1.75-.31-3-1.18-3.06-3.09a3.08,3.08,0,0,1,3.35-3.21A2.92,2.92,0,0,1,1000,116C1000,117.92,998.79,118.83,997,119Z"/><path class="cls-50" d="M402.67,154a3,3,0,0,1-3-3.1,2.89,2.89,0,0,1,2.92-3.12,3,3,0,0,1,3.2,3.3A3,3,0,0,1,402.67,154Z"/><path class="cls-50" d="M440.77,151a3.09,3.09,0,1,1-6.15-.48,2.84,2.84,0,0,1,3.26-2.73C439.73,147.88,440.68,149.07,440.77,151Z"/><path class="cls-47" d="M542.4,154a3.23,3.23,0,0,1-3-3.51,3.19,3.19,0,0,1,6.33.27A3.27,3.27,0,0,1,542.4,154Z"/><path class="cls-50" d="M682.11,153.94a3,3,0,0,1-2.83-3.13,3,3,0,0,1,3.44-3,2.85,2.85,0,0,1,2.67,3.32C685.22,152.92,684.09,153.91,682.11,153.94Z"/><path class="cls-41" d="M962.26,147.74c1.75.25,2.9,1.16,3,3.07a3,3,0,0,1-3.42,3.09,2.88,2.88,0,0,1-2.72-3.28C959.16,148.76,960.37,147.83,962.26,147.74Z"/><path class="cls-51" d="M647.45,468.39c-1.86-.25-3-1.21-3-3.1a2.91,2.91,0,0,1,2.86-3.17,3.08,3.08,0,0,1,3.2,3.32C650.39,467.34,649.2,468.19,647.45,468.39Z"/><path class="cls-52" d="M542.42,188.87a3.09,3.09,0,0,1-3.07-3,3.21,3.21,0,0,1,3.29-3.22,3.18,3.18,0,0,1,3,3.44A3.09,3.09,0,0,1,542.42,188.87Z"/><path class="cls-41" d="M580.56,465a3,3,0,0,1-2.72,3.34,3,3,0,0,1-3.38-3.12,3.05,3.05,0,0,1,6.1-.22Z"/><path class="cls-52" d="M612.57,188.86a3,3,0,0,1-3.21-2.68,3.14,3.14,0,0,1,2.95-3.51,3.23,3.23,0,0,1,3.37,3.16A3.11,3.11,0,0,1,612.57,188.86Z"/><path class="cls-52" d="M542.65,427.17a3.18,3.18,0,0,1,3,3.45,3.19,3.19,0,0,1-6.33-.23A3.21,3.21,0,0,1,542.65,427.17Z"/><path class="cls-52" d="M790.48,185.83a2.93,2.93,0,0,1-2.82,3,3.07,3.07,0,0,1-3.5-2.94A3,3,0,0,1,787,182.7,3.17,3.17,0,0,1,790.48,185.83Z"/><path class="cls-53" d="M542.14,468.37a3.16,3.16,0,0,1-2.78-3.09,3.21,3.21,0,0,1,3.35-3.19,3.15,3.15,0,0,1,3,3.1A3.31,3.31,0,0,1,542.14,468.37Z"/><path class="cls-52" d="M857.13,188.87A3.06,3.06,0,0,1,854,186a3.14,3.14,0,0,1,3.19-3.3,3.07,3.07,0,0,1,3.14,2.9A3.13,3.13,0,0,1,857.13,188.87Z"/><path class="cls-41" d="M510.59,465.06a3,3,0,0,1-2.73,3.29,3,3,0,0,1-3.36-3.15,3,3,0,0,1,3-3.07A3,3,0,0,1,510.59,465.06Z"/><path class="cls-52" d="M612.09,427.18c2-.07,3.77,1.53,3.59,3.2a3.18,3.18,0,0,1-6.35-.22A3,3,0,0,1,612.09,427.18Z"/><path class="cls-45" d="M472.58,468.39a3.11,3.11,0,0,1-3.05-2.88,3.2,3.2,0,0,1,3.08-3.45,3.13,3.13,0,0,1,3.19,2.88A3.23,3.23,0,0,1,472.58,468.39Z"/><path class="cls-25" d="M647.49,217.48a3.16,3.16,0,0,1,3.06,3.42,2.93,2.93,0,0,1-3.07,2.89,3,3,0,0,1-3-3.38A3,3,0,0,1,647.49,217.48Z"/><path class="cls-24" d="M682.31,217.47a3.21,3.21,0,0,1,3.12,3.54,2.91,2.91,0,0,1-3.18,2.78,3.16,3.16,0,0,1,.06-6.32Z"/><path class="cls-25" d="M895.24,220.85a2.93,2.93,0,0,1-2.87,2.93,3,3,0,0,1-3.26-3.15A3,3,0,0,1,892,217.5,3.17,3.17,0,0,1,895.24,220.85Z"/><path class="cls-24" d="M965.26,220.66a3.21,3.21,0,0,1-3.39,3.12,3,3,0,0,1-2.86-3.16,2.94,2.94,0,0,1,2.89-3.11A3.18,3.18,0,0,1,965.26,220.66Z"/><path class="cls-46" d="M504.65,362c0-1.21,0-2.42,0-3.63a12.3,12.3,0,0,1,2.14-1,2.78,2.78,0,0,1,3.29,1.33,3.11,3.11,0,0,1-.09,3.62,2.8,2.8,0,0,1-3.83.82A12.67,12.67,0,0,1,504.65,362Z"/><path class="cls-54" d="M507.58,112.73a2.88,2.88,0,0,1,3,2.84A2.92,2.92,0,0,1,508,119a3.12,3.12,0,1,1-.37-6.23Z"/><path class="cls-47" d="M542.76,363.52a3.24,3.24,0,0,1-3.4-3.16,3.12,3.12,0,0,1,2.95-3.13,3.25,3.25,0,0,1,3.4,3.15A3.16,3.16,0,0,1,542.76,363.52Z"/><path class="cls-47" d="M717.51,363.54a3.33,3.33,0,0,1-3.33-3.26,3.09,3.09,0,0,1,3-3.06,3.26,3.26,0,0,1,3.32,3.25A3.21,3.21,0,0,1,717.51,363.54Z"/><path class="cls-47" d="M542.4,398.44a3.22,3.22,0,0,1-3-3.5,3.19,3.19,0,0,1,6.33.27A3.26,3.26,0,0,1,542.4,398.44Z"/><path class="cls-52" d="M860.36,430.25a3.18,3.18,0,1,1-3.59-3.05A3.25,3.25,0,0,1,860.36,430.25Z"/><path class="cls-50" d="M682.53,392.23c1.84.27,2.94,1.32,2.88,3.18a2.87,2.87,0,0,1-3,3,3.1,3.1,0,1,1,.13-6.2Z"/><path class="cls-52" d="M790.48,430.38a3,3,0,0,1-2.91,2.95,3.07,3.07,0,0,1-3.41-3,3,3,0,0,1,2.9-3.1A3.16,3.16,0,0,1,790.48,430.38Z"/><path class="cls-55" d="M475.81,500a3,3,0,0,1-2.82,3.21,2.92,2.92,0,0,1-3.42-2.57,3.14,3.14,0,1,1,6.24-.64Z"/><path class="cls-55" d="M717.19,503.24c-1.86-.2-3-1.27-2.94-3.09a2.89,2.89,0,0,1,3-3,3.11,3.11,0,0,1,3.21,3.33A3.16,3.16,0,0,1,717.19,503.24Z"/><path class="cls-45" d="M787.47,503.26a3.09,3.09,0,0,1-3.31-2.76,3.15,3.15,0,0,1,3.07-3.41,3.11,3.11,0,0,1,3.23,3.24A3,3,0,0,1,787.47,503.26Z"/><path class="cls-56" d="M752.28,363.54c-1.8-.36-3-1.26-3-3.17a3.08,3.08,0,0,1,3.41-3.14,2.94,2.94,0,0,1,2.69,3.36C755.24,362.52,754.06,363.38,752.28,363.54Z"/><path class="cls-25" d="M790.48,360.73a3.1,3.1,0,0,1-3.11,2.81,3.21,3.21,0,0,1-3.2-3.37,3.06,3.06,0,0,1,3.11-3A3.3,3.3,0,0,1,790.48,360.73Z"/><path class="cls-46" d="M822.07,357.22c1.83.07,3,.93,3.22,2.81a2.86,2.86,0,0,1-2.53,3.43,3.07,3.07,0,0,1-3.52-3A3,3,0,0,1,822.07,357.22Z"/><path class="cls-26" d="M580.59,534.9a3,3,0,0,1-2.69,3.28,3.1,3.1,0,0,1-3.46-3,3,3,0,0,1,2.69-3.31A3.19,3.19,0,0,1,580.59,534.9Z"/><path class="cls-22" d="M685.5,535c-.15,1.87-1,3-2.89,3.22a3.16,3.16,0,0,1-3.36-3.15,3.06,3.06,0,0,1,2.89-3.16A3.18,3.18,0,0,1,685.5,535Z"/><path class="cls-48" d="M895.23,360.26c-.07,2-1.13,3.14-2.94,3.2a2.82,2.82,0,0,1-3.14-2.86,3,3,0,1,1,6.08-.34Z"/><path class="cls-57" d="M720.47,325.63a2.9,2.9,0,0,1-2.91,2.89,3,3,0,0,1-3.34-3.16,2.88,2.88,0,0,1,3.15-2.86A3,3,0,0,1,720.47,325.63Z"/><path class="cls-26" d="M825.37,290.65a3,3,0,0,1-3,3,3.09,3.09,0,0,1-3.21-3.25,3,3,0,0,1,3-3.05A3.13,3.13,0,0,1,825.37,290.65Z"/><path class="cls-26" d="M580.6,290.58a3,3,0,0,1-2.89,3.1,3.09,3.09,0,0,1-3.28-3.18,3,3,0,0,1,2.88-3.12A3.18,3.18,0,0,1,580.6,290.58Z"/><path class="cls-42" d="M930.32,115.71a3.29,3.29,0,0,1-3.38,3.28,3.05,3.05,0,0,1-3-3.08,3.18,3.18,0,0,1,6.35-.2Z"/><path class="cls-31" d="M370.91,81c-.38,1.76-1.27,2.94-3.18,3a3.08,3.08,0,0,1-3.14-3.4,2.93,2.93,0,0,1,3.35-2.68C369.85,78,370.69,79.24,370.91,81Z"/><path class="cls-31" d="M475.84,80.79A3,3,0,0,1,473,84a3.09,3.09,0,0,1-3.43-3.12,2.94,2.94,0,0,1,3.12-3A3,3,0,0,1,475.84,80.79Z"/><path class="cls-58" d="M720.48,255.61a2.88,2.88,0,0,1-2.83,3,2.94,2.94,0,0,1-3.41-2.6,3.13,3.13,0,1,1,6.24-.39Z"/><path class="cls-51" d="M895.15,466a2.93,2.93,0,0,1-3.3,2.37,3,3,0,0,1-2.64-3.76,2.86,2.86,0,0,1,3.49-2.41A3.17,3.17,0,0,1,895.15,466Z"/><path class="cls-25" d="M755.33,221.17a2.82,2.82,0,0,1-3.33,2.58,2.92,2.92,0,0,1-2.76-3.3,3.08,3.08,0,0,1,3.62-2.9C754.7,218,755.48,219.23,755.33,221.17Z"/><path class="cls-59" d="M752.4,398.45c-1.8-.15-3-1-3.13-2.9a3,3,0,0,1,3.18-3.29,2.77,2.77,0,0,1,2.86,3.08A2.93,2.93,0,0,1,752.4,398.45Z"/><path class="cls-59" d="M891.75,153.91a2.89,2.89,0,0,1-2.6-3.21,2.77,2.77,0,0,1,3-2.94,3,3,0,0,1,3,3.43A3.13,3.13,0,0,1,891.75,153.91Z"/><path class="cls-39" d="M857,147.71a3.13,3.13,0,0,1,3.28,2.74,3.16,3.16,0,1,1-6.31.28A3.12,3.12,0,0,1,857,147.71Z"/><path class="cls-59" d="M335.79,151.3a2.88,2.88,0,0,1-3.09,2.61,2.94,2.94,0,0,1-2.92-3.49c.21-1.94,1.45-2.73,3.25-2.63A3.07,3.07,0,0,1,335.79,151.3Z"/><path class="cls-56" d="M790.48,150.7a3.2,3.2,0,0,1-3.28,3.23,3,3,0,0,1-3-3,2.89,2.89,0,0,1,2.75-3.2A3.2,3.2,0,0,1,790.48,150.7Z"/><path class="cls-56" d="M790.47,395.5a3.22,3.22,0,0,1-3.74,2.88,3.09,3.09,0,1,1,3.74-2.88Z"/><path class="cls-59" d="M752.46,147.75a2.78,2.78,0,0,1,2.85,3,2.84,2.84,0,0,1-2.77,3.2,3.05,3.05,0,0,1-3.3-3.19A3.13,3.13,0,0,1,752.46,147.75Z"/><path class="cls-48" d="M962.4,188.79c-2,0-3.23-.92-3.33-2.76a2.86,2.86,0,0,1,2.66-3.31,3,3,0,0,1,3.46,3A2.87,2.87,0,0,1,962.4,188.79Z"/><path class="cls-59" d="M650.55,151a3,3,0,1,1-6.07-.41,2.75,2.75,0,0,1,3.15-2.78C649.43,147.88,650.49,149,650.55,151Z"/><path class="cls-39" d="M612.33,153.94a3.18,3.18,0,0,1-3-3.52,3.18,3.18,0,0,1,6.32.33A3.26,3.26,0,0,1,612.33,153.94Z"/><path class="cls-39" d="M860.32,395.71a3.24,3.24,0,0,1-3.77,2.66,3,3,0,0,1-2.51-3.44,3.14,3.14,0,0,1,3.75-2.64A3.21,3.21,0,0,1,860.32,395.71Z"/><path class="cls-59" d="M892.29,398.44a2.9,2.9,0,0,1-3.12-2.85,2.83,2.83,0,0,1,2.61-3.34,3,3,0,0,1,3.43,3.05C895.18,397.18,894.11,398.15,892.29,398.44Z"/><path class="cls-45" d="M860.37,500.29a3.1,3.1,0,0,1-2.93,2.94,3,3,0,0,1-3.43-3,3,3,0,0,1,2.88-3.11A3.2,3.2,0,0,1,860.37,500.29Z"/><path class="cls-45" d="M612,497.12c2-.13,3.78,1.37,3.67,3.08a3,3,0,0,1-3,3,3.05,3.05,0,0,1-3.37-3.07A3,3,0,0,1,612,497.12Z"/><path class="cls-60" d="M962.06,77.89a2.9,2.9,0,0,1,3.14,2.78A3,3,0,0,1,962,84a2.82,2.82,0,0,1-2.94-3C959,79.09,960.09,78,962.06,77.89Z"/><path class="cls-42" d="M857.07,77.87a3,3,0,0,1,3.27,2.83,3.21,3.21,0,0,1-3.2,3.3A3.13,3.13,0,0,1,854,80.66,3,3,0,0,1,857.07,77.87Z"/><path class="cls-61" d="M682,497.13c2,0,3.17.92,3.38,2.72a2.75,2.75,0,0,1-2.58,3.33,2.94,2.94,0,0,1-3.51-2.9A2.88,2.88,0,0,1,682,497.13Z"/><path class="cls-60" d="M685.45,80.83c-.13,1.68-.86,2.93-2.79,3.12a3,3,0,0,1-3.37-3.08,2.78,2.78,0,0,1,3-3C684.17,77.86,685.21,78.88,685.45,80.83Z"/><path class="cls-27" d="M545.72,325.58a3,3,0,0,1-2.83,3,3.06,3.06,0,0,1-3.52-2.91,2.91,2.91,0,0,1,2.8-3.15A3.13,3.13,0,0,1,545.72,325.58Z"/><path class="cls-25" d="M997.22,217.48a3.1,3.1,0,0,1,2.78,3.63,2.8,2.8,0,0,1-3.24,2.65,2.94,2.94,0,0,1-2.87-3.11A3.21,3.21,0,0,1,997.22,217.48Z"/><path class="cls-42" d="M615.68,80.78A3.24,3.24,0,0,1,612.23,84a3,3,0,0,1-2.89-3.08,3.18,3.18,0,0,1,6.34-.11Z"/><path class="cls-32" d="M542.42,77.87a3,3,0,0,1,3.27,2.82,3.12,3.12,0,0,1-3.3,3.28,2.91,2.91,0,0,1-3-3.08C539.38,79,540.55,78,542.42,77.87Z"/><path class="cls-60" d="M437.48,84a3,3,0,1,1,.5-6.06,2.73,2.73,0,0,1,2.74,3.18C440.6,82.91,439.52,84,437.48,84Z"/><path class="cls-60" d="M405.8,81.1a3.09,3.09,0,1,1-6.15-.59A2.81,2.81,0,0,1,403,77.93C404.88,78.09,405.76,79.24,405.8,81.1Z"/><path class="cls-62" d="M685.08,289.12c0,.47-.08.95-.07,1.42,0,1.39-.3,2.57-1.75,3a2.91,2.91,0,0,1-3.3-1.33,2.65,2.65,0,0,1,0-3.5c.38-.51.79-1,1.18-1.5C682.75,287.29,684.26,287.48,685.08,289.12Z"/><path class="cls-32" d="M297.49,84a3.05,3.05,0,0,1-2.79-3.17,3,3,0,0,1,3.6-2.89A2.8,2.8,0,0,1,301,81.23C300.75,83,299.56,84,297.49,84Z"/><path class="cls-48" d="M679.26,185.77a2.93,2.93,0,0,1,2.79-3.06,3,3,0,0,1,3.37,3.11,2.81,2.81,0,0,1-3,3A3,3,0,0,1,679.26,185.77Z"/><path class="cls-39" d="M612.34,398.44a3.19,3.19,0,0,1-3-3.5,3.18,3.18,0,0,1,6.32.3A3.27,3.27,0,0,1,612.34,398.44Z"/><path class="cls-48" d="M437.57,188.81a2.9,2.9,0,0,1-3-2.94,3,3,0,0,1,3.31-3.16,2.83,2.83,0,0,1,2.8,3.17C440.7,187.78,439.53,188.7,437.57,188.81Z"/><path class="cls-59" d="M650.55,395.18a3,3,0,0,1-2.77,3.21,2.93,2.93,0,0,1-3.31-3.13,2.75,2.75,0,0,1,3-3A2.87,2.87,0,0,1,650.55,395.18Z"/><path class="cls-48" d="M685.44,430.34a3.09,3.09,0,0,1-6.16.08,3.08,3.08,0,1,1,6.16-.08Z"/><path class="cls-63" d="M474.83,537.38c-3.8,1-3.8,1-5.72-2.8l0,0a3.72,3.72,0,0,0,.8-1c1.17-1.65,2.65-2.34,4.42-1.06S476.3,535.59,474.83,537.38Z"/><path class="cls-64" d="M997,147.75a2.78,2.78,0,0,1,3,2.79,2.86,2.86,0,0,1-2.58,3.36,3.05,3.05,0,0,1-3.48-3A3.11,3.11,0,0,1,997,147.75Z"/><path class="cls-65" d="M510.58,395.52a2.82,2.82,0,0,1-3,2.88,3,3,0,0,1-3.09-3.35,2.81,2.81,0,0,1,3.2-2.75C509.56,392.38,510.55,393.52,510.58,395.52Z"/><path class="cls-66" d="M580.55,395.64a2.88,2.88,0,0,1-3,2.76,2.93,2.93,0,0,1-3-3.43,2.75,2.75,0,0,1,3.24-2.66C579.56,392.45,580.56,393.59,580.55,395.64Z"/><path class="cls-66" d="M822.33,398.44a3.08,3.08,0,1,1,.1-6.16,2.8,2.8,0,0,1,2.86,3.08C825.27,397.23,824.2,398.21,822.33,398.44Z"/><path class="cls-48" d="M650.52,430.66a2.79,2.79,0,0,1-3.13,2.6,2.72,2.72,0,0,1-2.91-3,2.94,2.94,0,0,1,3.34-3.07A3.1,3.1,0,0,1,650.52,430.66Z"/><path class="cls-46" d="M752.09,427.18c1.87,0,3,.92,3.21,2.77a2.77,2.77,0,0,1-2.58,3.31,3.06,3.06,0,1,1-.63-6.08Z"/><path class="cls-48" d="M892,188.79c-1.86-.25-2.88-1.26-2.79-3.15a2.76,2.76,0,0,1,3-2.93,3,3,0,0,1,3.05,3.38C895,188,893.73,188.74,892,188.79Z"/><path class="cls-66" d="M263,147.75c1.84.22,2.95,1.18,2.94,3.06A2.84,2.84,0,0,1,263,153.9a3,3,0,0,1-3.17-3.27C260,148.72,261.18,147.91,263,147.75Z"/><path class="cls-65" d="M510.59,150.84a2.88,2.88,0,0,1-2.84,3.07,3,3,0,0,1-3.24-3.23,2.82,2.82,0,0,1,3.09-2.88C509.43,147.81,510.47,148.89,510.59,150.84Z"/><path class="cls-66" d="M577.57,147.75c1.87.27,3,1.22,3,3.11a3,3,0,0,1-3.4,3,2.86,2.86,0,0,1-2.64-3.31C574.64,148.68,575.85,147.87,577.57,147.75Z"/><path class="cls-66" d="M822.43,147.74c1.84.29,2.92,1.29,2.86,3.17a2.82,2.82,0,0,1-3,3,3,3,0,0,1-3.06-3.37C819.46,148.62,820.69,147.87,822.43,147.74Z"/><path class="cls-48" d="M647.64,188.79c-1.81,0-3-.86-3.15-2.75a2.83,2.83,0,0,1,2.59-3.32,3,3,0,0,1,3.44,3C650.53,187.59,649.47,188.54,647.64,188.79Z"/><path class="cls-67" d="M261.76,462.58c1.59.29,3.75-.4,3.9,2.29s-1.41,3.61-3.84,3.56C259.09,465.43,259.08,465,261.76,462.58Z"/><path class="cls-46" d="M752.53,188.8c-1.76-.05-3-.79-3.26-2.68a3,3,0,0,1,3-3.41,2.79,2.79,0,0,1,3,2.91C755.4,187.5,754.39,188.52,752.53,188.8Z"/><path class="cls-54" d="M1000,185.93a2.74,2.74,0,0,1-3.06,2.83,2.78,2.78,0,0,1-3-2.93,3,3,0,0,1,3.31-3.12C999.13,182.91,1000,184.1,1000,185.93Z"/><path class="cls-68" d="M510.69,254.56c-.27,2.21-.84,4.21-3.72,3.79a2.55,2.55,0,0,1-2.31-3.06c.32-2.95,2.61-2.69,4.69-2.68Z"/><path class="cls-48" d="M892.31,433.29c-1.8,0-3-.86-3.15-2.75a2.85,2.85,0,0,1,2.59-3.33,3,3,0,0,1,3.44,3C895.21,432.09,894.14,433,892.31,433.29Z"/><path class="cls-66" d="M259.82,395.43c.09-2,1.13-3.05,2.94-3.13a2.76,2.76,0,0,1,3.12,2.8,3,3,0,1,1-6.06.33Z"/><path class="cls-69" d="M577.67,497.12a3,3,0,1,1-.54,6.06,2.79,2.79,0,0,1-2.61-3.28A2.85,2.85,0,0,1,577.67,497.12Z"/><path class="cls-70" d="M650.53,500.33a3,3,0,0,1-6,.13,2.93,2.93,0,0,1,3.06-3.33A3,3,0,0,1,650.53,500.33Z"/><path class="cls-70" d="M752.49,497.12a2.81,2.81,0,0,1,2.8,3.14,2.74,2.74,0,0,1-3,2.93,2.9,2.9,0,0,1-3.05-3.33A3,3,0,0,1,752.49,497.12Z"/><path class="cls-71" d="M822.38,258.61a2.83,2.83,0,0,1-3.12-2.79,2.89,2.89,0,0,1,3.14-3.25,3,3,0,0,1,0,6Z"/><path class="cls-72" d="M265.88,81.08A2.79,2.79,0,0,1,263,83.94a2.9,2.9,0,0,1-3.19-3.19,2.77,2.77,0,0,1,3.07-2.82A2.87,2.87,0,0,1,265.88,81.08Z"/><path class="cls-73" d="M752.26,252.55a3,3,0,0,1,.35,6.05,2.94,2.94,0,0,1-3.34-3.05A2.89,2.89,0,0,1,752.26,252.55Z"/><path class="cls-74" d="M825.31,500.09a3,3,0,0,1-6.06.41,3,3,0,0,1,3-3.36C824.18,497.19,825.12,498.26,825.31,500.09Z"/><path class="cls-75" d="M682.42,252.55a3,3,0,0,1,.34,6,3,3,0,0,1-3.47-2.93A3,3,0,0,1,682.42,252.55Z"/><path class="cls-70" d="M891.83,503.19a3,3,0,0,1,.34-6.05,3,3,0,0,1,3,3.38A3,3,0,0,1,891.83,503.19Z"/><path class="cls-76" d="M650.6,256.43c-2.48,2.28-3.81,2.59-5.16,1.2s-1-2.75,1.3-5.16C649.42,252.42,650.67,253.78,650.6,256.43Z"/><path class="cls-77" d="M895.21,325.28c0,1.82-.81,3-2.69,3.22a2.75,2.75,0,0,1-3.33-2.51,3,3,0,1,1,6-.71Z"/><path class="cls-78" d="M825.32,186a2.82,2.82,0,0,1-3.18,2.72,2.77,2.77,0,0,1-2.89-3,3,3,0,0,1,3.4-3C824.49,183,825.29,184.2,825.32,186Z"/><path class="cls-78" d="M577.68,182.69a3,3,0,1,1-.55,6.07,2.79,2.79,0,0,1-2.61-3.28A2.88,2.88,0,0,1,577.68,182.69Z"/><path class="cls-79" d="M822.34,328.54a3,3,0,1,1,.07-6,2.7,2.7,0,0,1,2.86,3A2.8,2.8,0,0,1,822.34,328.54Z"/><path class="cls-78" d="M507.69,182.69a2.91,2.91,0,0,1,2.87,3.1,2.87,2.87,0,0,1-3.4,3,2.79,2.79,0,0,1-2.62-3.28A2.88,2.88,0,0,1,507.69,182.69Z"/><path class="cls-77" d="M755.31,325.55c-.17,1.91-1.12,2.95-3,3a2.92,2.92,0,0,1-3-3.34,2.81,2.81,0,0,1,3.26-2.64C754.43,322.63,755.26,323.8,755.31,325.55Z"/><path class="cls-71" d="M580.53,325.83a2.77,2.77,0,0,1-3,2.68,2.88,2.88,0,0,1-3-3.33,2.79,2.79,0,0,1,3.23-2.65C579.5,322.61,580.6,323.85,580.53,325.83Z"/><path class="cls-69" d="M507.78,503.21c-1.79,0-3-.81-3.25-2.69a2.93,2.93,0,0,1,3-3.37,3,3,0,0,1,.22,6.06Z"/><path class="cls-78" d="M265.9,185.67a3,3,0,0,1-6.06.35,3,3,0,0,1,3.1-3.31A2.87,2.87,0,0,1,265.9,185.67Z"/><path class="cls-80" d="M1000,81c-.15,1.8-1,2.9-3,3a3,3,0,0,1-3.11-3.3,2.79,2.79,0,0,1,3.19-2.71C999,78,999.92,79.12,1000,81Z"/><path class="cls-80" d="M895.21,80.83a3,3,0,1,1-6,0,2.69,2.69,0,0,1,3-2.88A2.83,2.83,0,0,1,895.21,80.83Z"/><path class="cls-71" d="M577.48,258.61c-1.87-.14-2.94-1.11-3-3a2.76,2.76,0,0,1,2.83-3.07,2.89,2.89,0,0,1,3.18,3.19A2.83,2.83,0,0,1,577.48,258.61Z"/><path class="cls-72" d="M822.58,77.93a3,3,0,0,1-.24,6,3,3,0,1,1,.24-6Z"/><path class="cls-80" d="M752.49,77.93a2.7,2.7,0,0,1,2.8,2.95A2.77,2.77,0,0,1,752.46,84a3,3,0,0,1-3.2-3.21A2.93,2.93,0,0,1,752.49,77.93Z"/><path class="cls-80" d="M650.54,80.9a3,3,0,1,1-6-.14,2.72,2.72,0,0,1,3-2.82A2.82,2.82,0,0,1,650.54,80.9Z"/><path class="cls-72" d="M577.52,84a3,3,0,1,1,.27-6,2.73,2.73,0,0,1,2.73,3.14A2.82,2.82,0,0,1,577.52,84Z"/><path class="cls-72" d="M507.53,77.91c1.86.14,3,1,3,2.93A2.75,2.75,0,0,1,507.76,84a2.92,2.92,0,0,1-3.24-3.16A2.82,2.82,0,0,1,507.53,77.91Z"/><path class="cls-80" d="M335.79,81.3a2.78,2.78,0,0,1-3,2.64,2.89,2.89,0,0,1-3-3.36A2.77,2.77,0,0,1,333,77.94,2.92,2.92,0,0,1,335.79,81.3Z"/><path class="cls-78" d="M825.31,430.42a2.74,2.74,0,0,1-2.87,2.82,2.8,2.8,0,0,1-3.19-2.71,3,3,0,1,1,6.06-.11Z"/><path class="cls-78" d="M577.55,427.19a3,3,0,1,1-.3,6.07,2.76,2.76,0,0,1-2.73-3.17A2.86,2.86,0,0,1,577.55,427.19Z"/><path class="cls-78" d="M510.57,430.18a2.76,2.76,0,0,1-2.86,3.07,2.79,2.79,0,0,1-3.19-2.72,3,3,0,0,1,3.09-3.32A2.87,2.87,0,0,1,510.57,430.18Z"/><path class="cls-78" d="M265.9,430.33a2.81,2.81,0,0,1-3,2.92,2.76,2.76,0,0,1-3-2.88,2.94,2.94,0,0,1,3.24-3.16A2.89,2.89,0,0,1,265.9,430.33Z"/><path class="cls-73" d="M892,258.61a2.72,2.72,0,0,1-2.77-2.89,2.78,2.78,0,0,1,2.73-3.16,3,3,0,1,1,0,6.05Z"/><path class="cls-11" d="M244.67,337.92a3.27,3.27,0,0,1,1.89,3A2.82,2.82,0,0,1,244.67,337.92Z"/><path class="cls-6" d="M438.5,520l-1.8,1.2a2,2,0,0,1,.7-2Z"/><path class="cls-6" d="M469.94,533.55a.89.89,0,0,1-.8,1A1,1,0,0,1,469.94,533.55Z"/><path class="cls-6" d="M475.71,556.71a1,1,0,0,1-.83-1Z"/><path class="cls-10" d="M865.47,787.7c0,1.75-.1,3.51-.09,5.26a337,337,0,0,1-2.69,39.52A445.55,445.55,0,0,1,851,892.91a609.59,609.59,0,0,1-28.91,85.55,11,11,0,0,1-4.37-1.75c-8.63-4.59-17.23-9.23-25.86-13.84-1.15-.62-2.21-1.26-2.35-2.72-1.75-2.92,1.13-5.49.6-8.32a8.1,8.1,0,0,1,.3-2.08c2.3-7.77.64-13.62-5.17-18.14-5-3.89-11.61-3.85-18.13.11a7.37,7.37,0,0,1-.9.95c-.3.32-.63.61-1,.9a16.52,16.52,0,0,0-4.46,6c-.65,1.39-1,3-2.92,3.43a3.09,3.09,0,0,1-3.16-.15c-3.69-1.89-7.43-3.66-11.09-5.6q-12.21-6.48-24.36-13.11c-2.23-1.21-4.39-2.55-6.62-3.78a3.43,3.43,0,0,1-1.89-2.57c-1.86-3.19.5-5.89,1-8.81,15-44.57,26.61-90.08,37.57-135.77,1.31-5.44,2.5-10.9,4.21-16.23a7.44,7.44,0,0,1,2.32-5.6c1.16-1.62,1.2-3.61,1.71-5.43,2.23-8,9.3-11.46,16.67-7.59,15.51,8.16,30.89,16.59,46.35,24.86,11.95,6.39,23.93,12.71,35.9,19.06A56,56,0,0,1,865.47,787.7Z"/><path class="cls-81" d="M1085.39,233.62c1.19-.92,1.65-2.33,2.34-3.56,15-26.59,30-53.14,44.71-79.84,2.23-4.05,4.8-5.57,9.34-5.57,22.53,0,45.07-.23,67.61-.42,14.87-.12,29.73-.21,44.59-.52,3.29-.07,5.17,1,6.86,3.85q28.59,49,57.48,97.93a6.47,6.47,0,0,1,.06,7.42q-27.93,49.43-55.6,99c-1.51,2.7-3.19,3.83-6.36,3.85-20.94.1-41.87.41-62.81.66-18.26-.09-36.53-.29-54.77.82-.36.24-.63.17-.79-.24-4-5.37-7.07-11.35-10.47-17.11Q1103,298,1078.3,256.18c-1.92-3.25-2.32-5.88-.13-9.21,2.61-4,4.62-8.36,6.88-12.57C1084.71,234,1084.8,233.68,1085.39,233.62Z"/><path class="cls-13" d="M965.37,665a26.16,26.16,0,0,1,25.52,22.17c.43,3,0,3.57-3.19,3.71-.64,0-1.28,0-1.91,0-3.65-.05-3.65-.05-4.74-3.66-2.18-7.22-7.82-12.11-14.58-12.61-7.68-.56-14.44,4.29-17,12-.46,1.4.06,3.59-1.92,4a15.67,15.67,0,0,1-7.11,0c-1.38-.34-1.2-1.78-1-2.84,1-6.16,3.4-11.73,8.09-15.86C952.55,667.44,958.42,664.66,965.37,665Z"/><path class="cls-15" d="M1061.14,877.78c-2,0-3,1.56-4.32,2.72-6.52,5.93-14.37,6.25-20.48,0a12,12,0,0,0-17-.18c-6.46,6.45-14,6.17-20.82,0-5.25-4.77-9.74-5.06-15.41-1-.26.19-.45.45-.71.65-.81.63-1.7,1-2.52.09a1.81,1.81,0,0,1,.12-2.59,13.34,13.34,0,0,1,8.75-4.43,13.92,13.92,0,0,1,11,3.55c.6.52,1.13,1.13,1.72,1.66,4.82,4.26,10.25,4.24,15,0,7.88-7,14.39-7,22.33,0,4.86,4.29,10.21,4.3,15,0,.82-.75,1.57-1.58,2.35-2.38,4.31-2.43,8.72-3.9,13.7-2a14.45,14.45,0,0,1,5.59,3.57c4.91,5.28,11.38,5.31,16.36.25s11.19-6,17.13-3.15a10.45,10.45,0,0,1,4.09,3.24,1.55,1.55,0,0,1,0,2.16,1.57,1.57,0,0,1-2.15.22c-.55-.33-1-.78-1.56-1.12-5.69-3.53-9.75-3.21-14.74,1.23-3.07,2.73-6.37,4.59-10.72,4.55a13.67,13.67,0,0,1-10.26-4.29C1070.13,876.91,1066,875.39,1061.14,877.78Z"/><path class="cls-82" d="M1023.76,858.58a15,15,0,0,0-4.63,3.32c-6.38,5.77-13.92,5.78-20.22.09-6-5.43-9.39-5.71-16-1.19-1,.66-2,1.49-2.93.5-1.23-1.22-.24-2.29.67-3.25,4.28-4.5,12.12-5.16,17.61-1.38a46.53,46.53,0,0,1,3.63,3.11c4.48,3.83,9.87,3.84,14.35,0,1.21-1,2.37-2.12,3.56-3.18,3.19-1.47,6.35-2.7,10.08-2.06a12.77,12.77,0,0,1,7.56,3.69c5.49,5.83,12.44,5.51,18-.06s13-5.44,19-.39c.6.51,1.17,1.08,1.79,1.57,5.59,4.46,10.65,4.41,15.8-.52a15.09,15.09,0,0,1,8.72-4.54,13.17,13.17,0,0,1,11.69,4.09c.66.68,1.44,1.46.65,2.47a1.83,1.83,0,0,1-2.57.27c-.14-.08-.26-.18-.4-.26-7.82-4.56-10-4.35-16.8,1.67a13.62,13.62,0,0,1-17.58,1,30.9,30.9,0,0,1-2.92-2.46c-5-4.48-10.32-4.51-15.38,0-1.54,1.38-2.94,2.91-4.89,3.78-6.33,2.8-11.83,1.37-16.64-3.3C1032.38,858.17,1028.52,856.64,1023.76,858.58Z"/><path class="cls-82" d="M985.42,839.46c-1,.76-2,1.51-2.95,2.3-.79.64-1.71,1-2.51.26-1-.92-.64-2,.19-2.87a23,23,0,0,1,2.16-1.76c7.37-4.08,12.78-3.76,18.63,2.18,5.09,5.17,12,4.63,16.46-.2a14.25,14.25,0,0,1,19.87-.79,13.62,13.62,0,0,1,1.46,1.24c3.78,4.46,10.66,5.1,15.69-.12,6.26-6.51,14.94-6.48,21.65-.06,5.28,5.05,10.56,5,16-.16a17.2,17.2,0,0,1,7.32-4.31c4.8-1.33,8.79.4,12.49,3.16,1,.73,2.12,1.88,1.14,3.23s-2.18.57-3.32-.19c-6.56-4.36-9.91-4.1-15.66,1.11-6.4,5.81-13.76,5.82-20.63-.09-2.08-1.79-4-3.63-6.94-3.89a10.68,10.68,0,0,0-9.11,3.24c-6.67,6.82-14.75,6.59-21.68.41-5.6-5-10.75-4.9-16.07-.07-7.08,6.42-14.11,6.63-21.26,0a13.9,13.9,0,0,0-10.91-3.71A2.74,2.74,0,0,0,985.42,839.46Z"/><path class="cls-83" d="M755.85,751.41c.32,2-.64,3.74-1,5.6-3.62,2-5.6-.29-7.51-2.82l.09-.09c1.31-1.72.26-4.61,2.84-5.69Z"/><path class="cls-84" d="M927.29,531.87a3.22,3.22,0,0,1,3.05,3c.16,1.83-1.05,3-2.8,3.31S924,536.69,924,535A3.58,3.58,0,0,1,927.29,531.87Z"/><path class="cls-84" d="M1035.12,535.1c-.32,1.77-1.33,3-3.13,3.06a3.08,3.08,0,0,1-3.21-2.93,3.26,3.26,0,0,1,3.31-3.32A3.36,3.36,0,0,1,1035.12,535.1Z"/><path class="cls-84" d="M1105.13,535c-.22,1.81-1.21,3.06-3,3.2s-3-1-3.33-2.79a3.27,3.27,0,0,1,3.15-3.48A3.42,3.42,0,0,1,1105.13,535Z"/><path class="cls-84" d="M927.49,287.38a3.24,3.24,0,0,1,2.87,3.17,3.11,3.11,0,0,1-3,3.14,3.34,3.34,0,0,1-3.26-3.39A3.52,3.52,0,0,1,927.49,287.38Z"/><path class="cls-84" d="M965.17,465.19c-.09,1.88-1,3.05-2.86,3.12s-2.91-1.09-3.21-2.83a3.05,3.05,0,0,1,3.09-3.39A3.23,3.23,0,0,1,965.17,465.19Z"/><path class="cls-85" d="M1035.09,465.37a3.34,3.34,0,0,1-3.1,2.91,3.29,3.29,0,0,1-3.21-3.39c.28-1.85,1.69-2.63,3.36-2.8C1033.58,461.94,1035.15,463.72,1035.09,465.37Z"/><path class="cls-86" d="M930.32,430.11c-.28,1.79-1.14,3-3,3.2a3.15,3.15,0,0,1-3.3-3.24,2.72,2.72,0,0,1,3.09-2.82A3.25,3.25,0,0,1,930.32,430.11Z"/><path class="cls-87" d="M1105.08,500.45c-.14,1.76-1.34,2.57-3.12,2.58s-3.18-.75-3.14-2.7a2.92,2.92,0,0,1,2.85-3.14A3.13,3.13,0,0,1,1105.08,500.45Z"/><path class="cls-88" d="M1101.72,357.28a3.33,3.33,0,0,1,3.33,2.84,3.17,3.17,0,0,1-2.63,3.4c-1.66.17-3.77-1.48-3.66-3A3.39,3.39,0,0,1,1101.72,357.28Z"/><path class="cls-84" d="M1102.11,462.06a3.12,3.12,0,0,1-.19,6.23,3.3,3.3,0,0,1-3.12-3.48C1099.14,463,1100.57,462.35,1102.11,462.06Z"/><path class="cls-84" d="M1033.19,322.69c.84.08,1.91,1,1.92,2.91a2.93,2.93,0,0,1-3.53,2.84,2.74,2.74,0,0,1-2.66-3.21C1029.09,323.47,1030.3,322.49,1033.19,322.69Z"/><path class="cls-88" d="M1035.11,360.53c0,1.52-1.65,3.21-3.1,3-1.65-.26-3.07-1.05-3.25-2.95a3.39,3.39,0,0,1,3.38-3.25A3.52,3.52,0,0,1,1035.11,360.53Z"/><path class="cls-89" d="M1000.14,360.35a3.11,3.11,0,0,1-2.93,3.15c-1.62.24-3.25-1.58-3.16-3.38a2.73,2.73,0,0,1,2.6-2.84A3.21,3.21,0,0,1,1000.14,360.35Z"/><path class="cls-90" d="M1138.05,357a3.78,3.78,0,0,1,.79.24,8.31,8.31,0,0,1,1,3.1,2.84,2.84,0,0,1-2.36,3.08,2.66,2.66,0,0,1-3.16-1.49,3.21,3.21,0,0,1,.6-3.92C1135.82,357.15,1137,357.29,1138.05,357Z"/><path class="cls-90" d="M965.17,360.38a3.19,3.19,0,0,1-2.94,3.11,3.06,3.06,0,0,1-3.12-3.36c.28-1.73,1.27-2.91,3.17-2.84S965.07,358.5,965.17,360.38Z"/><path class="cls-89" d="M930.3,395.7c-.59,1.68-1.65,2.7-3.46,2.64a3.11,3.11,0,0,1-2.7-3.67,2.94,2.94,0,0,1,3.53-2.32C929.45,392.63,930.21,394,930.3,395.7Z"/><path class="cls-91" d="M965.15,395.46a2.88,2.88,0,0,1-3.28,2.87,3,3,0,0,1-2.79-3.3,2.84,2.84,0,0,1,3.27-2.7A3,3,0,0,1,965.15,395.46Z"/><path class="cls-92" d="M1000.15,395.25c-.3,1.68-1.09,3-3,3.11a2.84,2.84,0,0,1-3.08-2.91,3,3,0,0,1,3-3.15A3,3,0,0,1,1000.15,395.25Z"/><path class="cls-84" d="M1105.12,395.25a3.39,3.39,0,0,1-3,3.06,3.3,3.3,0,0,1-3.33-3.23,2.94,2.94,0,0,1,3.22-2.78A3,3,0,0,1,1105.12,395.25Z"/><path class="cls-84" d="M1105.1,430.16a3.18,3.18,0,0,1-6.3.55,3.25,3.25,0,0,1,3.11-3.43A3.35,3.35,0,0,1,1105.1,430.16Z"/><path class="cls-87" d="M1035.09,430.12a2.91,2.91,0,0,1-2.87,3.14c-1.86.22-2.92-.95-3.3-2.65s1.29-3.36,3.08-3.38C1034,427.21,1034.71,428.49,1035.09,430.12Z"/><path class="cls-89" d="M997.2,462.06c1.67.4,3,1.3,2.9,3.14a2.91,2.91,0,0,1-2.9,3.09,3.09,3.09,0,0,1-3.14-3.3A3.34,3.34,0,0,1,997.2,462.06Z"/><path class="cls-92" d="M1066.76,462.1a3,3,0,0,1,3.09,3.08c0,1.85-.93,3-2.86,3.12a2.79,2.79,0,0,1-3-3A3.22,3.22,0,0,1,1066.76,462.1Z"/><path class="cls-92" d="M1137.17,462.11a3.22,3.22,0,0,1,2.65,3.32,2.78,2.78,0,0,1-3.07,2.87c-1.94-.17-2.75-1.4-2.73-3.23A3,3,0,0,1,1137.17,462.11Z"/><path class="cls-90" d="M926.67,503a2.71,2.71,0,0,1-2.62-3,2.78,2.78,0,0,1,3.18-2.75,3,3,0,0,1,3,3.08C930.29,501.91,928.73,503.11,926.67,503Z"/><path class="cls-87" d="M1032.17,497.19a2.9,2.9,0,0,1,2.94,3.25c-.29,1.92-1.57,2.67-3.4,2.58s-3.16-1.68-2.81-3.16A3.17,3.17,0,0,1,1032.17,497.19Z"/><path class="cls-84" d="M930.3,360.3c0,1.62-1.88,3.45-3.44,3.19a2.9,2.9,0,0,1-2.75-3.23,3.11,3.11,0,0,1,3.12-3A3.25,3.25,0,0,1,930.3,360.3Z"/><path class="cls-84" d="M962.18,538.22a3.18,3.18,0,0,1-.47-6.31,3.29,3.29,0,0,1,3.4,3.15A3.36,3.36,0,0,1,962.18,538.22Z"/><path class="cls-84" d="M997.26,531.85a3,3,0,0,1,2.85,3.22,2.92,2.92,0,0,1-2.87,3.14,3.32,3.32,0,0,1-3.13-3.43A3.36,3.36,0,0,1,997.26,531.85Z"/><path class="cls-85" d="M1067.05,538.1a3,3,0,0,1-3.07-3c0-1.94,1.13-2.92,2.89-3.2s2.92,1.09,3,3A3,3,0,0,1,1067.05,538.1Z"/><path class="cls-85" d="M1137,538.13c-1.73-.21-2.93-1-3-3s1.09-3.35,2.72-3.23,3,1,3.14,2.94S1138.89,537.78,1137,538.13Z"/><path class="cls-85" d="M1105.09,325.31c-.23,1.59-.88,3-2.86,3.13a2.87,2.87,0,0,1-3.35-2.65,3.12,3.12,0,0,1,6.21-.48Z"/><path class="cls-90" d="M930.27,325.58a3.19,3.19,0,0,1-3.08,2.83,2.78,2.78,0,0,1-3.15-2.79c0-1.92,1.09-2.89,3-3A3,3,0,0,1,930.27,325.58Z"/><path class="cls-93" d="M1069.86,360.39c-.06,1.89-1.45,3.34-3,3.08a3.12,3.12,0,0,1-2.8-3.3,2.78,2.78,0,0,1,3.07-2.88C1069.05,357.46,1069.81,358.7,1069.86,360.39Z"/><path class="cls-84" d="M997,293.72a3.37,3.37,0,0,1-2.93-3.16,3.28,3.28,0,0,1,3.4-3.15,2.92,2.92,0,0,1,2.61,3.34A3,3,0,0,1,997,293.72Z"/><path class="cls-84" d="M965.12,290.55a3.14,3.14,0,0,1-2.81,3.08c-1.91.3-2.89-1-3.21-2.69a3.17,3.17,0,0,1,2.88-3.58A3.6,3.6,0,0,1,965.12,290.55Z"/><path class="cls-91" d="M930.25,255.36a3,3,0,0,1-3,3.13c-1.84,0-3-.86-3.19-2.79a2.77,2.77,0,0,1,2.93-3A3.2,3.2,0,0,1,930.25,255.36Z"/><path class="cls-84" d="M927.07,462.05a3.7,3.7,0,0,1,3.22,3.47,3.13,3.13,0,0,1-6.23-.41A3.28,3.28,0,0,1,927.07,462.05Z"/><path class="cls-90" d="M1000.13,430.51a2.8,2.8,0,0,1-3.39,2.52,2.89,2.89,0,1,1,.65-5.74C999.3,427.5,999.94,428.88,1000.13,430.51Z"/><path class="cls-94" d="M965.15,430.27a2.85,2.85,0,0,1-3.21,2.78,2.57,2.57,0,0,1-2.82-3c.28-1.73,1.26-2.9,3.17-2.83S965.08,428.47,965.15,430.27Z"/><path class="cls-89" d="M1032,392.24c1.61,0,3.27,1.53,3.11,3a3.22,3.22,0,0,1-3.11,3.07,3.25,3.25,0,0,1-3.12-3A3.45,3.45,0,0,1,1032,392.24Z"/><path class="cls-90" d="M1000.13,500.48a2.83,2.83,0,0,1-3.41,2.52,2.7,2.7,0,0,1-2.63-3.23c.2-1.88,1.46-2.73,3.31-2.52S999.94,498.86,1000.13,500.48Z"/><path class="cls-95" d="M1066.61,392.11c1.92.26,3,1.25,3.17,3.05a2.88,2.88,0,1,1-5.74.35C1064,393.66,1065.12,392.71,1066.61,392.11Z"/><path class="cls-95" d="M1139.85,395.46c-.16,1.85-1.14,2.93-3,2.86a2.64,2.64,0,0,1-2.75-3.1c.1-1.8,1.19-3.07,3-3S1139.73,393.66,1139.85,395.46Z"/><path class="cls-96" d="M996.84,328.42a2.8,2.8,0,0,1-2.77-3.19,2.69,2.69,0,0,1,2.9-2.58,2.91,2.91,0,0,1,3.1,2.91A3,3,0,0,1,996.84,328.42Z"/><path class="cls-97" d="M965.12,500.46c-.21,1.76-1.4,2.59-3.24,2.55a2.37,2.37,0,0,1-2.54-2.76c0-1.87,1-3,2.91-3A2.82,2.82,0,0,1,965.12,500.46Z"/><path class="cls-98" d="M1069.81,325.44a2.88,2.88,0,1,1-5.76.07,2.6,2.6,0,0,1,2.53-2.84A2.78,2.78,0,0,1,1069.81,325.44Z"/><path class="cls-95" d="M962.14,328.43a2.72,2.72,0,0,1-2.76-3.15,2.52,2.52,0,0,1,2.75-2.6,2.61,2.61,0,0,1,3,2.86C965.1,327.44,964,328.35,962.14,328.43Z"/><path class="cls-98" d="M1069.82,500.23a2.8,2.8,0,0,1-3.26,2.74,2.61,2.61,0,0,1-2.51-2.87,2.64,2.64,0,0,1,3-2.86C1069,497.31,1069.8,498.51,1069.82,500.23Z"/><path class="cls-98" d="M1137.12,497.22a2.68,2.68,0,0,1,2.69,3,2.72,2.72,0,0,1-3.09,2.78,2.64,2.64,0,0,1-2.66-2.73A2.8,2.8,0,0,1,1137.12,497.22Z"/><path class="cls-99" d="M1069.81,430a2.78,2.78,0,0,1-3.11,3,2.6,2.6,0,0,1-2.65-2.73,2.88,2.88,0,0,1,5.76-.23Z"/><path class="cls-100" d="M1136.91,427.25a2.67,2.67,0,0,1,2.89,2.83,2.6,2.6,0,0,1-2.44,2.92,2.79,2.79,0,0,1-3.31-2.54A2.86,2.86,0,0,1,1136.91,427.25Z"/><path class="cls-96" d="M999.82,255.67a2.74,2.74,0,0,1-3.08,2.77,2.8,2.8,0,0,1-2.67-3.21,2.89,2.89,0,0,1,5.75.44Z"/><path class="cls-95" d="M965.14,255.53c-.13,1.85-1.09,2.91-3,2.9a2.6,2.6,0,0,1-2.79-2.59,2.71,2.71,0,0,1,2.7-3.15A2.76,2.76,0,0,1,965.14,255.53Z"/><path class="cls-9" d="M459.45,762.78c-2.7-1.57-3.49-4.73-5.65-6.75-4.75-3.79-5.71-9.06-5.59-14.68,0-1.23.53-2.44,0-3.66a38.65,38.65,0,0,1,4.68-18.82c1.26-4.44,4.25-7.49,8-10a8.44,8.44,0,0,1,2.05-.93,5.52,5.52,0,0,1,1.56-.24,80.05,80.05,0,0,1,25,4c14.7,4.94,29.13,10.62,43.62,16.17a35.86,35.86,0,0,1,9.23,5c6.69,5.2,10,12,8.91,20.5-.63,4.92-1.54,9.8-4,14.23-3,5.45-7.56,7.91-13.2,5.55-14.58-6.1-30-5.79-45.24-6.87-8.12-.58-16.26-1.09-24.37-1.86A11.92,11.92,0,0,1,459.45,762.78Z"/><path class="cls-9" d="M459.53,687V684.2c-1-15.68,8.19-27.34,22.89-29.2,1.59,0,3,.78,4.51,1.1,14,6.15,27.76,12.9,40.52,21.49,12.1,8.16,18.38,19.17,17.14,34a24.5,24.5,0,0,1-.8,5.18c-1.86,6.09-5.42,8.26-11.66,6.66-5.87-1.5-11.45-4-17.15-6-8.25-3-16.55-5.86-24.72-9a56.87,56.87,0,0,0-25.22-4.17c-3.82-2.39-5.12-6.34-5.64-10.36A18.18,18.18,0,0,1,459.53,687Z"/><path class="cls-101" d="M482.48,656.19C471,658.6,461.77,666.89,460.4,680a11.37,11.37,0,0,1-.86,4.19c-2.06-4.61-5.42-7.46-10.62-7.82-1.85-4.53,1-8.53,1.44-12.8,1.52-9.42,3.75-18.68,5.85-28a6.39,6.39,0,0,1,1.49-2.94c2.61-1.83,4.56.11,6.42,1.37,7.91,5.34,16.12,10.19,24,15.57a36.22,36.22,0,0,1,4.1,3.15c1.29,1.34,1.61,2.71-.49,3.69C488.62,657.46,485.59,655.54,482.48,656.19Z"/><path class="cls-6" d="M405.75,666c1.58-2.12,1.34-4.74,1.9-7.12a18.22,18.22,0,0,1,1.06-3.58,4.26,4.26,0,0,1,4.05-.73c8.25,2.21,16.65,3.82,25,5.78a5.25,5.25,0,0,1,2.47,1.36c1.29,4.46-.12,8.3-2.73,11.87-8.53-.88-16.76-3.18-25-5.28C410.15,667.7,407.76,667.37,405.75,666Z"/><path class="cls-101" d="M459.53,687c1.06,4,1.12,8.21,3,12a18.35,18.35,0,0,0,2.61,4.52c3.75,3.25.83,4.29-1.8,5.42l-.91.36a3.92,3.92,0,0,0-.94.67c-3.44,2.45-5.89,5.85-8.67,8.94-.39-2.43.41-4.71.9-7q2.58-12.08,5.22-24.11C459,687.46,459.34,687.23,459.53,687Z"/><path class="cls-101" d="M448.17,737.69A58.8,58.8,0,0,0,453.8,756c-2.14.36-4.26.8-6.41,1.05a5.8,5.8,0,0,0-4,2Z"/><path class="cls-102" d="M437.46,673.56c.1-4,1.46-7.78,2.83-11.51l.6-.36c2.22-.27,4.2.12,5.6,2.07a3.81,3.81,0,0,1,.32,1.34c-.61,3.5-1.07,7-2.61,10.33C442,674.75,439.48,675,437.46,673.56Z"/><path class="cls-103" d="M444.2,675.43c-1.06-4,.27-7.41,2.37-10.68,1.33-2.65,3.22-1.77,5.13-.8q-1.4,6.21-2.78,12.43Z"/><path class="cls-81" d="M177.57,801.13a1.22,1.22,0,0,1-.24-.9,5.37,5.37,0,0,1,.5.57S177.66,801,177.57,801.13Z"/><path class="cls-11" d="M587.27,777a243.74,243.74,0,0,0,19.42,15.5c4.6,3.2,9.48,5.9,14.28,8.74,1.63,1,3.23,1.95,5.67,3.43a15,15,0,0,1-7.1-1.35c-8.85-3.22-17.72-6.4-25.88-11.2-6.53-3.84-11.82.93-12.28,6.82a46.62,46.62,0,0,0,1.3,13.27c1.68,8-1.4,12.95-9.3,15.06a24.56,24.56,0,0,1-2.8.62c-10.3,1.6-17.34,10.15-14.63,22.69,2.38,11,9,18.37,20.08,21.55a124.1,124.1,0,0,0,28.27,4.44,47.45,47.45,0,0,0,13.28-1.34,45.88,45.88,0,0,1,26.9,1.27c10.78,4,20,1.09,29.11-4.23,4.26-2.48,7.88-5.84,12.16-9.47a64.2,64.2,0,0,1-.37,14.64c-1,6.54-.55,12.76,4.34,17.88a35.1,35.1,0,0,0,8.39,6.29c2.36,1.33,4.7,2.7,7,4,.55.42,1.29.63,1.47,1.42-.16,3.1-.59,6.1-3.38,8.11l-.46,0h-.47c-1.1.72-1.5-.11-1.92-.87-18.27-12.5-38.16-21.15-60.06-24.76a78.28,78.28,0,0,0-23.78-.41c-8.58,1.21-17.18-.17-25.6-2.2a151.83,151.83,0,0,1-42.41-17.09c-12.18-7.27-24.77-13.87-37.18-20.76s-24.57-13.58-36.81-20.45a27.4,27.4,0,0,1-8.22-6.42c1.42-1.56,3.22-1.23,4.92-.84a136.84,136.84,0,0,0,33.29,3.11c7.2-.12,8.65,1.73,7.84,9a29.64,29.64,0,0,0,.46,7.55,30.47,30.47,0,0,1,2.72-10.53,9.58,9.58,0,0,1,8.33-6.23,176.88,176.88,0,0,0,19.37-3.18,26,26,0,0,0,17.36-13.21c2.26-4,3.41-8.3,1.78-12.87-1.26-3.52-.39-5.95,3.36-7a22.72,22.72,0,0,0,11.91-8.43C580.27,776.33,583.3,775.07,587.27,777Z"/><path class="cls-11" d="M463.37,708.9c1.47-1.51,3.59-2.82,1.8-5.42,6.74-2,13.28-.93,19.7,1.38q20.94,7.53,41.84,15.16c1.2.44,2.41.84,3.6,1.31,7.11,2.79,11.53,1.85,12.63-8.44a35.91,35.91,0,0,0-.92-14.23,33.86,33.86,0,0,0-13.25-18.23,200.1,200.1,0,0,0-30.72-17.52c-3.9-1.84-7.77-3.73-11.65-5.6,1.11-3.07,4-.47,5.64-1.75.86-.76.36-1.3-.3-1.78-1.47-1-3-2.08-4.45-3.12,2.76-2.6,6-1.54,9.06-1,14.62,2.5,27.53,9,39.63,17.28,4.15,2.85,8.13,6,13.24,8.47,0-7-3.26-12.07-7.39-16.53C531.33,647.53,518.89,639,504,634.61A114.43,114.43,0,0,1,467.5,616c-1.78-1.33-3.72-2.51-4.87-4.54a5,5,0,0,1-.45-1.46c0-2.41.08-4.77,2.23-6.42,5.69,3.82,10.57,8.69,16.41,12.35a118,118,0,0,0,29.44,13.59c10.85,3.21,20.45,8.88,29.17,16,2,1.62,3.88,3.32,5.8,5,8.34,7.29,12.12,16.59,12.08,27.54,0,7.49-.14,15-.53,22.46a96.9,96.9,0,0,0,3.87,32.11c.22.76.34,1.54.5,2.32-2.48.67-2.48.67-5.78-.41,1.81.19,3.59,2.13,6,1.19,2.61,5.81,4.76,11.81,7.85,17.41,3.65,6.6,8.38,12.41,13,18.31C579.53,779.4,573,783,565.85,785.6a36.11,36.11,0,0,1-8.54,1.62c4.51,6.14,5.49,12.46,1.92,18.94-3.78,6.87-9.45,11.72-17.17,13.45-4.12.92-8.4,3.53-12.76.48,0-2.42,2-3.5,3.44-4.92,12.71-12.65,9-29.11-7.9-35.14-9.62-3.45-19.71-3.8-29.67-4.92s-20-2.21-30-3.1c-1.89-.17-3.92-.26-4.64-2.6,2.62-2.3,2.61-2.29.35-4.79-.53-.58-1-1.23-1.45-1.85,8.78-.2,17.48,1,26.21,1.64,6.19.46,12.39,1,18.6,1.14,10.14.24,19.94,1.79,29.32,5.87,5.39,2.35,9.33.9,12-4.22a36.41,36.41,0,0,0,4.08-19.41c-.38-5.55-3.62-9.77-7.83-13.2a29.33,29.33,0,0,0-8.26-4.77c-14.18-5.32-28.38-10.56-42.54-15.93C482.1,710.52,472.7,709.94,463.37,708.9Z"/><path class="cls-9" d="M460.55,769.41c3.73,1.82,7.86,1.11,11.77,1.64,10.42,1.42,20.93,2.19,31.4,3.25,7.78.79,15.49,1.79,22.92,4.56,16.13,6,20.45,23.15,8.82,35.9-1.81,2-4,3.68-6,5.51-1.17,1.78-3.06,2.26-5,2.45-17.76,1.77-35.51,2.61-53.08-1.68-4.19-1-8.34-2.19-11-6l-.5-.45a2.9,2.9,0,0,1-1.43-1.13,31.88,31.88,0,0,1-9.28-21.83C449.05,782.52,452.22,774.48,460.55,769.41Z"/><path class="cls-12" d="M460.47,815c9.68,5.1,20.23,6.6,30.93,7.1a199.17,199.17,0,0,0,38.11-1.84c7.09-.93,14.4-1.22,20.36-5.85,3.38-2.63,6.62-5.4,8.45-9.56,2.65-6,1.87-11.42-2.06-16.52-.66-.87-1.3-1.76-2-2.72,10.75.14,19.64-3.19,25.83-12.24a11.67,11.67,0,0,1,2.11-1.9c1.7,1.83,3.39,3.67,5.09,5.51-.24.21-.54.63-.71.59-3.83-1.09-5.94.73-8.18,3.77-3.14,4.25-7.26,7.6-12.9,8.39-1.63.23-3.26.79-2.14,3.13,3.87,8,.26,14.49-4.46,20.65-4.2,5.49-10,8.22-16.63,9.6a153.91,153.91,0,0,1-19.8,2.91,5.17,5.17,0,0,0-4.46,3.09,32.66,32.66,0,0,0-3.77,13.23c-.09,1.22.33,2.5-.62,4.14-2.05-4.47-4-8.52-2.86-13.34a17.1,17.1,0,0,0,.54-2.33c.35-3.52-.59-4.63-4.17-4.74-3.19-.09-6.39-.11-9.59,0-9.31.3-18.39-1.27-27.4-3.39a16.72,16.72,0,0,0-3.78-.47C463.77,820.31,461.3,818.33,460.47,815Z"/><path class="cls-104" d="M700.4,914.3l1.92.87c.29,2.47-.74,4.65-1.59,6.85-1.71,4.41-3.49,8.8-5.24,13.2a1.91,1.91,0,0,1-.58-2.15C696.61,926.77,698,920.37,700.4,914.3Z"/><path class="cls-105" d="M720.52,965.87c0,.37,0,.74,0,1.11l-8.35-4.15c-1.24-.63-2.59-1.13-3.19-2.57A46.29,46.29,0,0,1,720.52,965.87Z"/><path class="cls-105" d="M707.07,959.25a2.64,2.64,0,0,1,2,1A2.15,2.15,0,0,1,707.07,959.25Z"/><path class="cls-106" d="M458.54,813.43l1.43,1.13A1.69,1.69,0,0,1,458.54,813.43Z"/><path class="cls-107" d="M791.7,950l-.24,1.58c-3.17,9.78-7.8,13.31-17.27,13.15-8.14-.14-12.4-3.24-15.31-11.14a31.21,31.21,0,0,1-1-10.58c1.64-3.89,3-8,6.5-10.72a1.29,1.29,0,0,0,1.1-.92l0,0c9-5.17,17.72-3.16,23.1,3.48C792.29,939.42,792.88,944.52,791.7,950Z"/><path class="cls-108" d="M758.88,953.61c.55.76,1.11,1.52,1.65,2.3,7.28,10.52,22,10.19,28.75-.65.75-1.21,1.45-2.44,2.18-3.66.4,3.09-1.29,5.7-2,8.55-3.89,5.76-9.12,8.5-16.24,8A15.4,15.4,0,0,1,758.88,953.61Z"/><path class="cls-109" d="M703.25,915.18a52.38,52.38,0,0,1,2.9-8.54c3.31-1.48,5.2.39,6.83,2.88,0,3-1.94,5.41-2.22,8.3l-.84,1.18C707.17,918.63,705.17,917,703.25,915.18Z"/><path class="cls-3" d="M440.29,662.05c-7.91-.82-15.56-2.94-23.27-4.71-2.78-.64-5.54-1.37-8.31-2.06,0-.27,0-.54,0-.82q3-14,6-27.93c.37-1.7.71-3.41,1.07-5.12.92-4.35.93-4.35-3.21-6.19,1-1.47,2.47-1.52,4-1.53,6.73-1,11.62-4.16,13-11.3.53-2,1.29-3.93,2-5.9,2.12-6,0-11-3.82-15.59-1-1.26-3-1.9-2.79-4.06,2.2-5.11,2.7-10.65,3.94-16,1.72-7.4,3.22-14.85,4.79-22.28a3.41,3.41,0,0,1,1-2.09,5.59,5.59,0,0,0,5.82-3.89c3.22.28,6.07,1.79,9.09,2.7,4.26,1.29,8.53,2.52,12.74,3.92,5.94,2,8.34,6.52,6.79,12.59l-3.8-1.85c-2.87-.14-5.68-2-8.6-.23-11.05,4.51-12.25,9.62-12.09,22.59.11,8.18,3.53,15.45,7.74,22.31,1.41,2.31,2.91,4.56,4.23,6.93a5.1,5.1,0,0,1,.33,1.5c-2.49,13.14-6.52,25.89-9.86,38.81-1.28,4.93-2.43,9.89-3.91,14.77-.59,2-.95,4.06-2.77,5.41Z"/><path class="cls-110" d="M713,909.52c-2.59-.22-4.16-2.85-6.83-2.88l-1-1c2.32-.39,2.26-2.52,2.74-4,3.56-11.39,7.15-22.77,10.47-34.23,10.07-34.84,18.85-70,27.43-105.24.64-2.62,1-5.29,1.53-7.94,2.53.89,4.64,2.87,7.51,2.82-6,26.43-12.65,52.69-19.62,78.88-6.19,23.27-12.75,46.44-20.41,69.28C714.31,906.66,714.12,908.3,713,909.52Z"/><path class="cls-111" d="M455.56,601.86c-7.25-8.83-12.09-18.75-12.75-30.26A32.21,32.21,0,0,1,444,559.33c2.05-6.1,6.38-10.11,12.6-9.61-5.7,4.46-8.82,10.17-8.6,17.53a42.62,42.62,0,0,0,4.41,17.34c1.65,3.41,3.48,6.72,5.23,10.08C458.82,597.61,458.82,600.21,455.56,601.86Z"/><path class="cls-112" d="M455.56,601.86c1.19-2.26,1.42-4.79,2.11-7.19a39.14,39.14,0,0,1,6.74,8.92c-.35,2.23-.71,4.47-1.06,6.7a1.69,1.69,0,0,1-1.86-.16c-2.72-1.88-5.25-3.91-5.81-7.47A3.6,3.6,0,0,1,455.56,601.86Z"/><path class="cls-113" d="M561.33,735.76c-.25.92-.48,2.09-1.75,1.58-2.72-1.07-5.35-2.34-9-4,4.47-.4,7.38,1.58,10.6,1.62A1.54,1.54,0,0,1,561.33,735.76Z"/><path class="cls-110" d="M298.44,461.76a6.48,6.48,0,0,0,.7-3.82l1-1.06c-.13,1.9,1,2.86,2.55,3.61,9.64,4.63,19,9.79,28.82,14.09,4.09,1.8,8,3.94,12,5.91,26.37,12.91,53,25.27,80.07,36.66,1.32.55,2.58,1.3,4.11,1l.12,1.1c.64,2.64,1.19,5.26-2,6.77-8.08-2.43-15.64-6.17-23.33-9.54-10.76-4.73-21.38-9.77-32.06-14.68a5.76,5.76,0,0,0-6-2.77c-21.58-10.14-43-20.55-64.17-31.59A18,18,0,0,1,298.44,461.76Z"/><path class="cls-114" d="M297.58,293.66c-1.59-.36-2.87-1.35-2.85-3.17a3.09,3.09,0,0,1,3-3.13,3.32,3.32,0,0,1,3.26,3.39A3.52,3.52,0,0,1,297.58,293.66Z"/><path class="cls-115" d="M301.06,395.13a3.4,3.4,0,0,1-3.07,3.15,3.27,3.27,0,0,1-3.27-3.36A3.07,3.07,0,0,1,298,392C299.72,392.09,300.78,393.32,301.06,395.13Z"/><path class="cls-115" d="M301,151.22c-.54,1.49-1.52,2.68-3.42,2.54-1.72-.12-3.29-2.23-2.75-3.78s1.72-2.72,3.61-2.43A3.36,3.36,0,0,1,301,151.22Z"/><path class="cls-114" d="M301,186c-.19,1.79-1.4,2.58-3.19,2.56s-3.14-.82-3.07-2.76a2.91,2.91,0,0,1,2.91-3.08A3.21,3.21,0,0,1,301,186Z"/><path class="cls-116" d="M370.91,360.11c-.27,1.81-1.14,3-3,3.21a3.14,3.14,0,0,1-3.3-3.25,2.71,2.71,0,0,1,3.09-2.82A3.22,3.22,0,0,1,370.91,360.11Z"/><path class="cls-115" d="M298,328.43a3.16,3.16,0,0,1-3.27-3.23,2.67,2.67,0,0,1,2.78-2.61c2.07-.18,3.58,1,3.5,2.83A3.15,3.15,0,0,1,298,328.43Z"/><path class="cls-117" d="M300.25,252.65c.41,1.32,1.23,2.57.42,4.06a3.12,3.12,0,0,1-5.94-1.41,2.44,2.44,0,0,1,2.26-2.59,22.69,22.69,0,0,1,3.3,0Z"/><path class="cls-118" d="M301.21,220.06a3.92,3.92,0,0,1-1.79,3.2c-1.95,1-3.39-.07-4.78-1.26a1.2,1.2,0,0,1-.12-2C297.67,216.33,298.07,216.34,301.21,220.06Z"/><path class="cls-114" d="M370.9,465.15a3.27,3.27,0,0,1-3.06,3.11,3.23,3.23,0,0,1-3.16-3,3.32,3.32,0,0,1,3.27-3.33C369.83,462.16,370.52,463.57,370.9,465.15Z"/><path class="cls-117" d="M265.8,290.4a2.78,2.78,0,0,1-2.81,3.1,2.72,2.72,0,0,1-3.07-2.81,3,3,0,0,1,3-3.38A2.92,2.92,0,0,1,265.8,290.4Z"/><path class="cls-117" d="M332.64,462a3.22,3.22,0,0,1,3.07,3,2.91,2.91,0,1,1-5.8.39C329.76,463.48,330.77,462.45,332.64,462Z"/><path class="cls-116" d="M332.6,398.33c-1.7-.14-2.64-1.21-2.69-3.08a2.87,2.87,0,0,1,2.85-3.13,3.1,3.1,0,0,1,3,3.15A2.88,2.88,0,0,1,332.6,398.33Z"/><path class="cls-114" d="M370.89,395.47a3.12,3.12,0,1,1-3.27-3.4A3.68,3.68,0,0,1,370.89,395.47Z"/><path class="cls-116" d="M402.87,392.05a3.28,3.28,0,0,1,2.86,3.17,3.07,3.07,0,0,1-3.37,3.06,2.93,2.93,0,0,1-2.67-3.29C399.77,393.17,401.1,392.33,402.87,392.05Z"/><path class="cls-116" d="M437.75,392.06c1.74.42,3,1.33,3,3.17a2.92,2.92,0,0,1-2.93,3.07,3.07,3.07,0,0,1-3.1-3.33A3.18,3.18,0,0,1,437.75,392.06Z"/><path class="cls-114" d="M475.74,395.35a3.36,3.36,0,0,1-3,2.94,3.24,3.24,0,0,1-3.2-2.84,3.68,3.68,0,0,1,3.29-3.38A3.38,3.38,0,0,1,475.74,395.35Z"/><path class="cls-116" d="M370.9,430.33c-.47,1.88-1.54,2.85-3.45,2.68a2.75,2.75,0,0,1-2.81-3.15,2.8,2.8,0,0,1,3.31-2.63A3.2,3.2,0,0,1,370.9,430.33Z"/><path class="cls-115" d="M297.82,363.36c-1.64-.27-3-1-3.13-2.89a3.31,3.31,0,0,1,3.39-3.18,3.23,3.23,0,0,1,2.94,3.16C301.14,361.89,299.45,363.36,297.82,363.36Z"/><path class="cls-119" d="M369.41,322.5c.36.39.73.78,1.09,1.18.21.32.42.65.65,1l0,.06a4.48,4.48,0,0,1-1.49,2.92,3.05,3.05,0,0,1-3.57.4,2.9,2.9,0,0,1,.9-5.38A21.15,21.15,0,0,1,369.41,322.5Z"/><path class="cls-116" d="M405.71,465.06a3.19,3.19,0,0,1-2.8,3.15,3,3,0,0,1-3.23-2.81c-.12-1.92,1-3,2.75-3.33C403.89,461.77,405.57,463.29,405.71,465.06Z"/><path class="cls-120" d="M440.72,430.32A2.61,2.61,0,0,1,438,433c-2,.12-3.48-1.13-3.36-3a2.7,2.7,0,0,1,3.11-2.77C439.7,427.31,440.47,428.61,440.72,430.32Z"/><path class="cls-120" d="M402.66,427.2c1.8.05,3,.9,3,2.81s-1,2.89-2.88,3-3.23-1-3.12-2.68A3,3,0,0,1,402.66,427.2Z"/><path class="cls-121" d="M440,462.73c.83,1.64,1.28,3.29-.27,4.75-1.39,1.29-2.86,1-4.28,0-.83-1.59-1.28-3.1.28-4.61S438.57,462.25,440,462.73Z"/><path class="cls-122" d="M469.76,359.21c1.14-2,2.75-2.75,4.73-1.36s1.4,3.29.44,5.08C470.55,363.53,470.53,363.52,469.76,359.21Z"/><path class="cls-123" d="M261.8,363.17c-2.29-1-2-3-1.9-4.88a10.94,10.94,0,0,1,2.14-1c1.76-.35,3.19.21,3.6,2.09s-.08,3.46-2.43,3.62Z"/><path class="cls-124" d="M335.73,360.12a2.68,2.68,0,0,1-2.86,2.93c-1.64.08-2.81-.55-2.93-2.36s.59-3.13,2.52-3.43A2.87,2.87,0,0,1,335.73,360.12Z"/><path class="cls-125" d="M262.7,258.41a2.89,2.89,0,1,1,.55-5.74,2.64,2.64,0,0,1,2.48,2.9A2.72,2.72,0,0,1,262.7,258.41Z"/><path class="cls-126" d="M405.72,500.26a2.67,2.67,0,0,1-3,2.68,2.58,2.58,0,0,1-2.75-2.62,2.74,2.74,0,0,1,2.74-3.13A2.82,2.82,0,0,1,405.72,500.26Z"/><path class="cls-125" d="M335.72,325.29c0,1.82-.86,3-2.78,3.07a2.61,2.61,0,0,1-3-2.87,2.53,2.53,0,0,1,2.5-2.85A2.72,2.72,0,0,1,335.72,325.29Z"/><path class="cls-125" d="M265.73,325.69a2.76,2.76,0,0,1-3.19,2.68,2.72,2.72,0,0,1-2.54-3.32,2.59,2.59,0,0,1,2.94-2.42A2.7,2.7,0,0,1,265.73,325.69Z"/><path class="cls-125" d="M335.73,430.32a2.73,2.73,0,0,1-3.26,2.64,2.53,2.53,0,0,1-2.5-2.85,2.6,2.6,0,0,1,3-2.86C334.87,427.32,335.7,428.51,335.73,430.32Z"/><path class="cls-127" d="M294.52,220l.12,2-4.51-2.19C292,218.83,293.19,220.16,294.52,220Z"/><path class="cls-107" d="M432.7,596.94c-.1,2.1-1.5,3.75-1.95,5.72-3.51,8.58-10.31,10.92-18.87,9.92-6.61-1.45-11-5.26-12.73-11.93-1.75-7.72-.2-14.51,5.63-20.11,10.63-7.34,22-4.73,26.88,6.29A14.74,14.74,0,0,1,432.7,596.94Z"/><path class="cls-128" d="M432.7,596.94a47.06,47.06,0,0,0-.89-6.55c-2.11-9.61-12.94-15.81-23.61-11.32-1.14.48-2,1.58-3.42,1.47,3.82-4.76,9-5.87,14.66-5.14a41.67,41.67,0,0,1,5.42,1.44c6.29,4.35,9.71,10.09,8.7,18A3.4,3.4,0,0,1,432.7,596.94Z"/><path class="cls-129" d="M425.87,526c1.67-2,.25-4.83,2-6.77l8.4,2.89a9.62,9.62,0,0,1-1.74,7.71l-7.74-3.1a7.2,7.2,0,0,0-.91-.72Z"/><path class="cls-130" d="M399.15,600.65c2.79,5.14,6.72,8.94,12.43,10.68,1.33.78,2.79.3,4.19.44,2.27.24,2.63,1.39,1.56,3.24l-4.84.2C404.22,613.25,399.48,608.07,399.15,600.65Z"/><path class="cls-131" d="M298.44,461.76c2.29,1.33,3.42,3.05,1.9,5.66-4.54,1.49-4.87,1.33-5.84-2.83A5.27,5.27,0,0,1,298.44,461.76Z"/><path class="cls-82" d="M301,535.4a3.5,3.5,0,0,1-3.23,2.82c-1.58.1-3.46-2.08-3.06-3.57a3.26,3.26,0,0,1,3.4-2.74A3.6,3.6,0,0,1,301,535.4Z"/><path class="cls-15" d="M368,531.85a3.36,3.36,0,0,1,3,3.06c.12,1.82-1.16,2.93-2.87,3.28-1.53.31-3.51-1.65-3.44-3.23A3.83,3.83,0,0,1,368,531.85Z"/><path class="cls-14" d="M335.71,534.83a3.18,3.18,0,0,1-3.22,3.38c-1.8-.1-2.41-1.33-2.45-2.94s.38-3.25,2.49-3.37A3.21,3.21,0,0,1,335.71,534.83Z"/><path class="cls-95" d="M364.51,499c1.13-1.56,2.59-2.47,4.46-1.59s2.31,2.45,1.51,4.36C366.27,503.72,365.49,503.35,364.51,499Z"/><path class="cls-15" d="M402.72,531.87a3.52,3.52,0,0,1,2.9,3.18c.15,1.57-2,3.44-3.5,3.15-1.68-.34-2.3-1.68-2.45-3.14A3.19,3.19,0,0,1,402.72,531.87Z"/><path class="cls-82" d="M298,502.92c-1.69,0-3-.42-3.32-2.21-.23-1.56,1.78-3.59,3.34-3.33a3.18,3.18,0,0,1,2.94,3.25C300.94,502.42,299.47,502.87,298,502.92Z"/><path class="cls-14" d="M262.72,532.05a2.92,2.92,0,0,1,3,3,2.78,2.78,0,0,1-2.5,3,3,3,0,0,1-.47-6Z"/><path class="cls-14" d="M440.41,532.59a2.54,2.54,0,0,0,0,.48c.49,1.8.49,3.55-1.19,4.73-2,1.39-3.17-.61-4.65-1.32-.22-2.38,1.07-3.83,3-4.89a2.19,2.19,0,0,1,.83.16,1.72,1.72,0,0,0,1,.43,3,3,0,0,1,1,.41Z"/><path class="cls-132" d="M263,502.85a2.6,2.6,0,0,1-2.94-2.38,2.68,2.68,0,0,1,2.6-3.19,2.64,2.64,0,0,1,2.95,2.85A2.57,2.57,0,0,1,263,502.85Z"/><path class="cls-132" d="M332.66,497.28a2.64,2.64,0,0,1,3,2.81,2.51,2.51,0,0,1-2.57,2.74,2.55,2.55,0,0,1-3-2.33A2.69,2.69,0,0,1,332.66,497.28Z"/><path class="cls-110" d="M425.88,526l.91.72A.8.8,0,0,1,425.88,526Z"/><path class="cls-84" d="M615.75,290.41c-.22,1.79-1.18,3.06-3,3.23a3.06,3.06,0,0,1-3.37-2.73,3.3,3.3,0,0,1,3.1-3.52C614.35,287.51,615.33,288.68,615.75,290.41Z"/><path class="cls-133" d="M647.17,293.69c-1.79-.18-2.56-1.4-2.54-3.18s.81-3.14,2.76-3.07a2.91,2.91,0,0,1,3.09,2.9A3.2,3.2,0,0,1,647.17,293.69Z"/><path class="cls-85" d="M615.63,325.68c-.41,1.81-1.38,2.85-3.27,2.78a2.91,2.91,0,0,1-3-3.38c.34-1.89,1.65-2.56,3.43-2.45C614.72,322.75,615.45,324,615.63,325.68Z"/><path class="cls-94" d="M650.45,360.31a3.1,3.1,0,0,1-2.73,3.16,2.85,2.85,0,0,1-3.08-2.89c0-1.83.72-3.08,2.67-3.29A2.87,2.87,0,0,1,650.45,360.31Z"/><path class="cls-95" d="M682.05,322.67a2.68,2.68,0,0,1,3,2.8,2.58,2.58,0,0,1-2.45,2.91,2.71,2.71,0,0,1-3.29-2.55A2.75,2.75,0,0,1,682.05,322.67Z"/><path class="cls-95" d="M650.45,325.56c-.17,1.89-1.18,2.91-3.07,2.83s-2.8-1.3-2.68-3.14a2.54,2.54,0,0,1,2.78-2.58C649.39,322.66,650.33,323.71,650.45,325.56Z"/><path class="cls-12" d="M434.84,327.39c-8.6,4.34-17.19,3.81-25.84.09-1.49-.64-2-2-3.07-2.89a8.67,8.67,0,0,1-5.74-1.52c-2.72-2.63-5.44-5.27-8.18-7.88-.48-.45-1.19-.81-1.72-.31-2.71,2.52-6.24,1.81-9.46,2.27a4.7,4.7,0,0,0,1.6,3.53c9.43,10.31,14.61,22.58,17.05,36.17a6,6,0,0,0,.58,1.31c0,.18.08.37.13.56a9.66,9.66,0,0,1,.18,3.47c0,.19-.05.38-.07.58,1.29,6.15.69,12.27-.26,18.39.61.2-.43-.06-.17.49.13.26-.58.46-.6.15-.12-1.89-.19-3.78-.17-5.67a76.87,76.87,0,0,0-8.61-35.8,83.41,83.41,0,0,0-13.7-19.42,114,114,0,0,0-39.33-27.23,3.44,3.44,0,0,1-1.67-1.63l0,0a7.56,7.56,0,0,1,4.71-4.57c5.93-2.41,10.05-7.16,13-12.82a14.9,14.9,0,0,1,3.24-4.57c0,2.24.5,4.63-.11,6.7-1,3.28-1,6.66-1.25,9.92-.59,7.52,3.32,13,9.49,17,8,5.22,26.12,3.63,32.08-5.92.06-.09.29-.06.82-.16-.36,3.74-1,7.35-.13,11.09,1.78,7.84,6.51,13.07,13.6,16.14,6.26,2.71,12.84,3.89,19.57,1.48a3.8,3.8,0,0,1,3.63.2A.72.72,0,0,1,434.84,327.39Z"/><path class="cls-134" d="M370.27,218.09c1.54,2.62.53,4.4-1.89,5.71-3.29-1.09-4.3-2.25-3.62-4.18S366.82,217.3,370.27,218.09Z"/><path class="cls-135" d="M365.8,288c3.56-.93,3.78-.82,5.32,2.88l-.05.07a4,4,0,0,1-.59,1c-1.25,1.91-2.91,2.4-4.7.92S364.31,289.59,365.8,288Z"/><path class="cls-120" d="M370.08,188.21a17.91,17.91,0,0,1-2.81.26,2.6,2.6,0,0,1-2.58-2.31,2.71,2.71,0,0,1,1.53-3.15,3.07,3.07,0,0,1,3.52.51,4.37,4.37,0,0,1,1.41,2.9h0a10.88,10.88,0,0,0-.73,1.17C370.32,187.81,370.21,188,370.08,188.21Z"/><path class="cls-136" d="M472.79,252.44l3,1.28c-.22,4-.22,4-3.82,4.84l-1.95-1.2C469.22,254,469.44,253.58,472.79,252.44Z"/><path class="cls-122" d="M475.8,325.49a3,3,0,0,1-3,3,3.08,3.08,0,0,1-3.22-3.26,2.87,2.87,0,0,1,3.24-2.71A2.91,2.91,0,0,1,475.8,325.49Z"/><path class="cls-137" d="M506.64,287.1c4.07,1.19,4.13,1.29,3.54,5.65-1.53.76-3.08,1.4-4.69.17C504.11,290.63,504.16,288.62,506.64,287.1Z"/><path class="cls-138" d="M403.88,287.16c2.92,3.8,2.65,4.76-1.88,6.7v0a8.55,8.55,0,0,0-1-.8C398.77,289.22,399.23,288.27,403.88,287.16Z"/><path class="cls-139" d="M434.84,327.39a1.65,1.65,0,0,0-.34-.87c.76-3.86.76-3.86,4.88-3.94l1.13,1C440.61,328.56,439.43,329.35,434.84,327.39Z"/><path class="cls-140" d="M335.79,292.05a8.5,8.5,0,0,1-2.41,1.46,2.72,2.72,0,0,1-3.53-2.31,2.93,2.93,0,0,1,1.69-3.58,2.82,2.82,0,0,1,3.95,1.59,8.82,8.82,0,0,1,.32,2.81Z"/><path class="cls-126" d="M405.72,257.32a10.38,10.38,0,0,1-2.61,1.06,2.54,2.54,0,0,1-3.09-2.25,2.61,2.61,0,0,1,1.47-3.18c1.67-.69,3.18-.37,4,1.39a9.81,9.81,0,0,1,.44,2.33C405.87,256.89,405.8,257.11,405.72,257.32Z"/><path class="cls-68" d="M330.35,253.45c2.17-1.29,4.07-1.24,5.5,1.13,0,1.85-.29,3.5-2.5,3.9C330.71,259,329.71,257.28,330.35,253.45Z"/><path class="cls-141" d="M333.87,182.57c3,3.69,2.59,5-2,6.06a2.92,2.92,0,0,1-2-3.7C330.35,182.78,332.12,182.65,333.87,182.57Z"/><path class="cls-9" d="M371.15,324.65l-.65-1A.92.92,0,0,1,371.15,324.65Z"/><path class="cls-9" d="M370.43,187.6l.73-1.17A1.27,1.27,0,0,1,370.43,187.6Z"/><path class="cls-9" d="M370.48,291.9c.2-.32.4-.64.59-1C370.88,291.26,370.68,291.58,370.48,291.9Z"/><path class="cls-9" d="M401,293.09a1,1,0,0,1,1,.8Z"/><path class="cls-142" d="M473,427.16a2.85,2.85,0,0,1,2.81,3,2.79,2.79,0,0,1-2.9,3.06,3,3,0,0,1-3.35-3.14A3.33,3.33,0,0,1,473,427.16Z"/><path class="cls-143" d="M437.67,363.41c-1.71-.24-2.93-1.06-3.05-3a3,3,0,0,1,3.28-3.21,2.92,2.92,0,0,1,2.84,3.19C440.72,362.25,439.58,363.28,437.67,363.41Z"/><path class="cls-143" d="M400.06,358.16a6.07,6.07,0,0,1,1.7-.79c2.4-.32,3.91.77,4,2.78s-1.25,3.27-3.67,3.17a7.6,7.6,0,0,1-1.8-.55l0,.1c-1.24-1.52-.8-3.11-.21-4.71Z"/><path class="cls-139" d="M400.19,323.07c2.3-.93,4.35-1,5.74,1.52a9.79,9.79,0,0,1-.48,2.25,2.89,2.89,0,0,1-3.51,1.56,2.68,2.68,0,0,1-2.23-2.63A11.2,11.2,0,0,1,400.19,323.07Z"/><path class="cls-72" d="M440.39,502.08a7.58,7.58,0,0,1-2.16.95c-2.22.21-3.59-.91-3.59-2.8a2.8,2.8,0,0,1,2.44-3.06c1.86-.36,3.06.63,3.47,2.92a8.15,8.15,0,0,1-.11,1.9Z"/><path class="cls-144" d="M437.59,223.71a3.32,3.32,0,0,1-2.89-3.06,3.25,3.25,0,0,1,3.3-3.23,3,3,0,0,1,2.72,3.27A3.11,3.11,0,0,1,437.59,223.71Z"/><path class="cls-116" d="M440.76,290.41a3.17,3.17,0,0,1-3,3.13c-1.62.23-3.26-1.6-3.13-3.36a2.88,2.88,0,0,1,3.16-2.8C439.7,287.35,440.47,288.76,440.76,290.41Z"/><path class="cls-126" d="M437.38,252.66a2.69,2.69,0,0,1,3,2.81,2.6,2.6,0,0,1-2.45,2.92,2.7,2.7,0,0,1-3.29-2.56A2.74,2.74,0,0,1,437.38,252.66Z"/><path class="cls-116" d="M402.78,223.73a3,3,0,0,1-3.08-3,2.92,2.92,0,0,1,2.61-3.34,3.25,3.25,0,0,1,3.39,3.14C405.6,222.39,404.42,223.32,402.78,223.73Z"/><path class="cls-120" d="M370.85,255.72a3.2,3.2,0,0,1-3.23,2.71,2.78,2.78,0,0,1-3-3c.11-1.93,1.29-2.8,3.14-2.83A3,3,0,0,1,370.85,255.72Z"/><path class="cls-120" d="M405.74,185.51a2.79,2.79,0,0,1-2.91,3c-1.84.11-3.25-1-3.13-2.68s1-3,2.91-3.11A2.76,2.76,0,0,1,405.74,185.51Z"/><path class="cls-145" d="M335.76,220.36a3.12,3.12,0,0,1-3.15,3.33,2.65,2.65,0,0,1-2.69-2.7c-.23-2.07,1-3.62,2.75-3.58A3.19,3.19,0,0,1,335.76,220.36Z"/><path class="cls-114" d="M475.73,290.19a3.34,3.34,0,0,1-2.84,3.37,3.66,3.66,0,0,1-3.4-3.27,3.28,3.28,0,0,1,3.12-2.94A3.36,3.36,0,0,1,475.73,290.19Z"/><path class="cls-146" d="M301,430.17a2.94,2.94,0,0,1-3,3,2.9,2.9,0,0,1-3.31-2.68,3.17,3.17,0,0,1,3.21-3.34C299.8,427.26,300.7,428.44,301,430.17Z"/><path class="cls-10" d="M439.39,532.65l-1-.9a1.92,1.92,0,0,1,.92.07c.26.17.36.35.28.54S439.47,532.65,439.39,532.65Z"/><path class="cls-3" d="M439.39,532.65c0-.28,0-.55,0-.83l1,.77Z"/><path class="cls-147" d="M510.38,327.41a10.3,10.3,0,0,1-2.58,1,3,3,0,1,1,2.67-3.31,15.49,15.49,0,0,1-.12,2.35Z"/><path class="cls-148" d="M791.7,950c-.05-1.42-.11-2.85-.15-4.28a16.88,16.88,0,0,0-21-15.68c-1.68.44-3.22,1.44-5,1.31a16.23,16.23,0,0,1,20.06-1.31A16.43,16.43,0,0,1,791.7,950Z"/><path class="cls-148" d="M765.48,931.39a1.06,1.06,0,0,1-1.1.92A1,1,0,0,1,765.48,931.39Z"/><path class="cls-149" d="M1313.24,247.17c-2.43,0-4.91,0-7.39,0-33.88.31-67.75.55-101.62,1.06-4.24.06-6.48-1.26-8.61-4.92-17.11-29.54-34.47-58.94-51.74-88.38-1-1.64-1.85-3.31-2.79-5,1.09-1.34,2.47-.83,3.61-.84q53.68-.56,107.36-1.08c2.86,0,4.57.73,6.08,3.32q26.77,45.93,53.74,91.73C1312.5,244.13,1313.52,245.07,1313.24,247.17Z"/><path class="cls-149" d="M1193.46,262.22c1.21-2.25,2.6-4.42,3.58-6.76,1-2.49,2.74-3,5.26-3q45.75-.31,91.51-.82l16.29-.14c1.07,0,2.18-.23,3.18.38.21,1.88-1,3.08-1.77,4.41-17.08,30.48-34.24,60.92-51.24,91.44-1.61,2.89-3.35,4.32-6.68,3.9a49.78,49.78,0,0,0-6.23,0c-9.39.73-18.79.19-28.18.3-7.5.1-15-.1-22.49.08-3.31.08-4.64-1.42-4.93-4.4a41.17,41.17,0,0,1-.13-4.3c0-23.27,0-46.53,0-69.8A39.21,39.21,0,0,1,1193.46,262.22Z"/><path class="cls-1" d="M1185,233.45l9.3,15.53a2.78,2.78,0,0,0,.1,2.67l-54.93,97.71c-1.92-.19-2.2-1.41-2.73-2.32q-27-46-54.06-92c-1.5-2.55-1.61-4.53-.11-7,2.89-4.76,5.55-9.65,8.31-14.49a24.32,24.32,0,0,1,7.54-1q39.51,0,79,0A30.46,30.46,0,0,1,1185,233.45Z"/><path class="cls-149" d="M1185,233.45c-1.27,1.41-3,1-4.5,1q-42.54,0-85.09,0c-1.54,0-3.23.47-4.53-.88l38.78-69.29c2.25-4,4.53-8,6.68-11.82a1.49,1.49,0,0,1,1.76,1Z"/><path class="cls-1" d="M1193.46,262.22q0,40.71,0,81.42c0,1.11,0,2.23,0,3.35.08,4.52.08,4.54,4.54,4.53,12.46-.06,24.92-.16,37.39-.18,4,0,8-.32,11.95.25-4.71,1.25-9.53.59-14.27.63-29.1.23-58.2.25-87.3.34a3,3,0,0,1-2.3-.52c-.29-1.55.82-2.66,1.49-3.86q23.89-42.66,47.84-85.27A4.6,4.6,0,0,1,1193.46,262.22Z"/><path class="cls-150" d="M1194.4,251.65c-1.2-.84-1.11-1.74-.1-2.67A2.46,2.46,0,0,1,1194.4,251.65Z"/><path class="cls-11" d="M461.52,709.93a.91.91,0,0,1,.94-.67Z"/><path class="cls-151" d="M492,655.56c-1.55,1.63-4.16-.13-5.64,1.75l-3.92-1.12C485.58,654.65,488.84,655.59,492,655.56Z"/><path class="cls-9" d="M463.45,611.23C468.78,615,474,619,479.59,622.39a97.13,97.13,0,0,0,23.17,10.18,89,89,0,0,1,40.78,25.82c5,5.44,7.89,11.85,7.68,19.43-1.79.71-2.78-.6-3.89-1.34-6.66-4.4-13.14-9.08-20-13.22-9.6-5.84-19.83-10.24-31-12.17a41.63,41.63,0,0,0-9-.43q-12.07-7.75-24.15-15.5c-1.47-.94-3-1.79-4.51-2.68a3.37,3.37,0,0,1-1-3.45,129.21,129.21,0,0,1,3.42-15.16A3.43,3.43,0,0,1,463.45,611.23Z"/><path class="cls-152" d="M463.45,611.23c-2.36,6.91-3.34,14.14-4.82,21.25L451.7,664c-1.55,1.29-3.63-.76-5.14.81-.11-.27-.23-.54-.36-.8-1.34-1.54-1-3.31-.53-5,4-15.23,7.9-30.47,12.19-45.61.56-2,.81-5.1,4.46-3.88l1,.81A4.92,4.92,0,0,0,463.45,611.23Z"/><path class="cls-6" d="M462.32,609.48c-1.94,0-2.28,1.52-2.63,2.87Q452.91,638.14,446.2,664L440.3,662c.73-6,2.78-11.71,4.26-17.54,3.54-14,7.39-27.9,11.12-41.84A41.2,41.2,0,0,0,462.32,609.48Z"/><path class="cls-153" d="M788,946.83a13.24,13.24,0,1,1-26.47-.25,13.24,13.24,0,1,1,26.47.25Z"/><path class="cls-154" d="M417.33,615c0-1.56-.44-2.72-2.31-2.74-1.21,0-2.5.13-3.44-.94,3-.18,6,.31,8.94-.6,4.52-1.38,7.4-4.65,10.23-8.07C430.57,608.76,423.61,614.8,417.33,615Z"/><path class="cls-155" d="M415.31,581.4a13.17,13.17,0,0,1,13.46,13.15,13.38,13.38,0,1,1-26.75.18A13.16,13.16,0,0,1,415.31,581.4Z"/><path class="cls-11" d="M400.05,358.16a8.05,8.05,0,0,0,.21,4.71C398.49,361.37,398.67,359.8,400.05,358.16Z"/><path class="cls-98" d="M1136.86,322.66a2.87,2.87,0,1,1-2.79,3.21A2.76,2.76,0,0,1,1136.86,322.66Z"/><path class="cls-156" d="M769.5,956.22c-6.07-4-7.4-9.09-3.92-15.07a10.17,10.17,0,0,1,9.51,5.51C774.63,950.67,773.18,954.09,769.5,956.22Z"/><path class="cls-157" d="M780,937.36c5.86,3.65,7.15,8,4.28,14.55a9.16,9.16,0,0,1-9.4-5.13C774.48,942.53,775.94,939.25,780,937.36Z"/><path class="cls-158" d="M775.21,946.84l9,5.07c-3.79,5.83-8.43,7.19-14.75,4.31q2.38-4.66,4.75-9.33C774.55,946.4,774.87,946.4,775.21,946.84Z"/><path class="cls-159" d="M775.21,946.84c-.32,0-.64,0-1,0-2.17-3-6-3.43-8.67-5.73,3.84-5.52,8.19-6.66,14.38-3.79C778,940.35,776,943.29,775.21,946.84Z"/><path class="cls-160" d="M424.88,599.79q-5.7,9-15.1,4.08a12.25,12.25,0,0,1,5.59-9.5C419.43,594.61,422.73,596.19,424.88,599.79Z"/><path class="cls-161" d="M424.88,599.79,415.39,595a2.27,2.27,0,0,1-.59-1.26c1.11-3.32,2-6.78,5.6-8.48C426.28,588.44,427.8,593.37,424.88,599.79Z"/><path class="cls-162" d="M415.3,594.08q0,.45.09.9c-2.21,2.74-3.12,6.32-5.61,8.88-5.62-4-6.77-8.52-3.71-14.61C410.19,588.87,413,590.91,415.3,594.08Z"/><path class="cls-163" d="M415.3,594.08l-9.23-4.83c4-5.67,8.17-6.85,14.33-4C418.67,588.17,417.45,591.4,415.3,594.08Z"/></g></svg>