<svg xmlns="http://www.w3.org/2000/svg" viewBox="0 0 1418 945"><defs><style>.cls-1{fill:#fdfdfd;}.cls-2{fill:#fcbc94;}.cls-3{fill:#313638;}.cls-4{fill:#e4b363;}.cls-5{fill:#ef6461;}.cls-6{fill:#fcd5b6;}.cls-7{fill:#2c4658;}.cls-8{fill:#07c39b;}.cls-9{fill:#ab652b;}.cls-10{fill:#d57c33;}.cls-11{fill:#e0dfd5;}</style></defs><title>resume</title><g id="cv"><path class="cls-1" d="M265.06,780.29a20.59,20.59,0,0,0,3.71-.51q101.81-32.35,203.61-64.7c4.54-1.44,6.28-3.31,4.11-8s-.41-7,4.53-8.31c9-2.4,17.72-5.48,26.6-8.17,3.31-1,5.1-1.87,3.29-6.16-2.7-6.37-1.48-7.4,5.44-5.85,15,3.35,30.06,5.11,45.43,2.19a74.29,74.29,0,0,0,34.93-16.36c6.25-5.27,13.1-4.55,18.83.7,8.59,7.86,16.82,8.36,26.5,1.47,4.85-3.44,9-3.9,13.92.61,9,8.25,20.7,8.26,28.95-.32,5.15-5.34,8.21-4.29,12.88.28,9.46,9.23,22,7.25,29.62-3.71,2-2.85,1.94-6.92,5.46-8.74,2.43.31,5.94-.16,6.54,2.53,2.11,9.55,10.18,7.88,16.56,9.54,3.87,1,7.68,2.23,10.53,5.31-.23,1.53-.36,3.65,1.5,3.62a45.37,45.37,0,0,1,21.07,4.63c1.19.57,2.47-.22,3.26-1.31,1.14-1.59,0-2.75-.82-4-2.88-4.45-5.54-9.13-6.49-14.32-.73-4.06-2.71-5.72-6.45-7a13.08,13.08,0,0,1-7.72-18.57c3.77-7.51,2.83-14.32-1.4-21.32-13.59-22.52-26.76-45.3-40.58-67.69C723.41,537.33,720,527,711,520.57c-12.4-8.81-26.87-13.39-40.62-19.16C650.79,493.19,631.69,484,612,476.07c-9-3.6-17.61-6.53-27-7.79l-.35-.29c-4.79-8.14-13.51-10.49-21.18-14.39l-1.63-.56c-2.28-3.78-5-6.74-10.06-5.8l-.39-.37c-1.68-3.83-3.87-6.87-8.78-5.7l-.21-.23c-.58-3.44-2.87-3.55-5.57-2.83l-.48-.42c-.38-4.39-3-3.18-5.48-2.15-6.63-2-11.73-6.66-17.54-10.08-2.21-1.3-4-3.09-6.37-.16-5.27,6.39-10.69,12.68-16.18,18.88-1.93,2.18-1.9,3.74.32,5.62q23,19.5,45.84,39.1a10.9,10.9,0,0,0,5.79,5.29l8.2,8.13c-15.87,13.7-31.63,27.54-47.67,41-6,5.08-11.73,10.51-19.85,13-8,2.48-15.62,6.05-23.73,8.3-4.09,1.14-6.52,3.09-4.62,8.13,2,5.34,2.92,11.09,4.81,16.48,9.76,27.76,18.17,56,27.11,84,1.45,4.56.91,6.54-4,8.14-10.22,3.34-20.86,5.44-30.67,10.05-2.3-1.62-2.23-4.37-3-6.67-13-40.41-26-80.82-38.6-121.34-1.64-5.25-3.55-6.11-8.36-4.49-13.56,4.58-27.2,8.92-40.87,13.16-3.45,1.07-6.79,3.34-10.72,1.87,3.71-7.39,7.46-14.76,11.12-22.17q38-76.68,75.93-153.37,24.85-.07,49.7-.15c2.71,0,5.6.57,7.84-1.67Q506,386,516.67,375.34a6.36,6.36,0,0,0,1.84-4.76q0-50.08,0-100.16c0-2.95-.72-4.87-4.19-4.67-3.06.17-4.61,1.64-4.69,4.67,0,1.76,0,3.52,0,5.27q0,41,0,82.08c0,3-.46,6-.71,9-4.18-1.26-8.86-.21-12.73-2.82-1.28-2.12-2.21-4.58-3.91-6.27-3.14-3.11-7.58-5.31-11.57-4-3.79,1.22-.56,5.64-1.13,8.57a27.26,27.26,0,0,0-.25,2.75c-3,1.06-4.25-2.62-7-2-1.66,6.95-3.66,13.8-7.77,20.94-1.53-6.08-2.61-11.41.24-16.16,3.84-6.4,2.88-11-3.54-14.63,4.06-5,7.55-10.58,12.32-14.74,10.83-9.42,17.4-20.58,17.46-35.17-.79-18.93-14.75-33.59-31.29-32.86-17.52.78-30.33,15-29.86,33.06-2.93,4.68-1.86,8.37,1.43,12.86,5.49,7.49,10.69,15.47,14.25,24,1.41,3.36,4.66,10.44-3.12,13.1-10.11-.24-14.7,2.19-18.23,11.12-3.22,8.14-5.58,16.62-8.32,24.95-4,.51-3.67-2.1-3.67-4.76,0-39.73.11-79.46-.09-119.19,0-5.58,1.52-7.31,7.27-7.24,26.41.28,52.82-.12,79.23.2,5.82.07,9-1.64,11.57-6.89,12.51-25.73,25.52-51.22,38-77,2.46-5.09,4.34-5.91,9.49-3.34,44.41,22.21,89,44.13,133.49,66.1Q784.56,283.33,878,329.4c62.45,30.84,124.79,61.9,187.4,92.41,7.51,3.65,9.71,7.11,5.5,14.2a31.21,31.21,0,0,0-2.49,3.71q-28.14,57.06-56.21,114.15-92.52,187.25-185,374.49c-2.6,5.27-6.65,10.08-6.7,16.43q-274,0-548.08.21c-6.84,0-7.53-2-7.5-7.92m139.64-32.9M814.92,401.84l1.69,1.7c-.63,1.63-1.25,3.26-1.9,4.87-1,2.44-3.34,5.16.65,6.94s3.91-2.14,4.88-4c4.92-9.6,9.8-19.23,14.33-29,1.12-2.4,4.81-5.38-.17-8.16-4.42-2.46-6.11.3-8.44,3.22-4.06,5.07-6.9,11.27-13.27,16.08.15-8.86,3.57-15.47,5.06-22.5.72-3.37.35-5-2.81-6.42-3.58-1.56-4.86.28-6.22,3.12-5,10.4-10.16,20.71-15.26,31.06-1.11,2.24-2.83,4.59.77,6.21s3.62-1.56,4.49-3.38c1-2.14,1.4-6.23,3.72-5.57,3.65,1,1.22,4.38.49,6.83-.21.69.07,1.52-.07,2.25-.4,2.19-.06,4,2.27,4.9,2.18.88,3.17-.69,4.36-2C811.34,406,812.29,403.16,814.92,401.84ZM703.31,315.56c.5-4.84-10.08-13.74-14.16-12.43a4.22,4.22,0,0,0-1.89,2.12q-8.55,17.13-17,34.32c-1,2.07-.66,3.77,1.61,5,2.53,1.36,3.71,0,4.7-1.94,1.89-3.81,3.71-7.66,5.67-11.44.76-1.48,1.49-3.54,3.79-2.67,2.61,1,2.05,3.19,1.23,5.06-1.62,3.66-3.39,7.25-5.2,10.82-1.26,2.46-2,4.45,1.37,6s3.87-.84,4.88-2.76c5-9.55,7.31-20.37,13.93-29.16A8.92,8.92,0,0,0,703.31,315.56ZM680,304c0-5.42-3.34-8.34-10.69-11.35-2.93-1.2-4.37-.95-5.82,2.1-5.29,11.1-10.86,22.07-16.34,33.08-.92,1.85-2,3.59.83,4.91,2.57,1.21,4.16.65,5.4-1.94,1.83-3.84,3.85-7.6,5.91-11.33.66-1.21,1.2-3.07,3.2-2.41,2.2.72,2.25,2.59,1.56,4.32-1.4,3.49-3.12,6.86-4.51,10.35-.92,2.29-3.72,4.8.38,6.93s4.34-1.54,5.65-3.71c4.78-8,5.23-18,12.14-25C679.31,308.26,679.53,305.31,680,304Zm49.43,63.44c0,5.89,3.62,8.05,7.75,9.64,5.36,2.08,8.9-.9,11.15-5.08,5-9.27,9.57-18.77,14.25-28.21.94-1.91,2.51-3.85-.88-5.5s-4.36-.13-5.61,2.46q-6.2,12.9-12.68,25.64c-1.07,2.1-2.22,5.37-5.39,3.53-2.45-1.42-1-4.05,0-6.07,4.19-8.57,8.46-17.09,12.61-25.68.88-1.83,3-4-.51-5.53-3-1.32-4.58-.08-5.88,2.65-4.42,9.28-9,18.47-13.47,27.75A25.38,25.38,0,0,0,729.44,367.4Zm-94.5-41.61c5.18.31,7.64-3.34,9.62-7.14,4.5-8.66,8.71-17.47,13.06-26.22,1.22-2.45,2-4.78-1.37-6.19-3-1.28-3.91.91-4.94,3-3.65,7.42-7.19,14.9-11.13,22.17-1.6,2.95-2.31,9.24-6.91,6.76-4.21-2.26.39-6.57,1.77-9.64,3.39-7.54,7.21-14.89,10.9-22.29,1.13-2.27,1.5-4.21-1.18-5.72-3.12-1.76-4.06.71-5,2.64-4.75,9.66-9.75,19.23-14,29.13C622.78,319.38,627.4,325.61,634.94,325.79ZM770.76,388.5c-.27,5.4,3.53,7.38,7.68,8.88,4.54,1.65,8.12-.36,10.17-4.17,5-9.27,9.56-18.75,14.24-28.17,1.14-2.29,3.68-4.83-.6-6.7s-4.52,1.91-5.65,4.09c-4.12,8-8,16.17-12.12,24.2-1.1,2.16-2.43,5.38-5.39,3.88s-1.1-4.37,0-6.58c4.1-8.32,8.29-16.6,12.36-24.94,1-2.12,2.82-4.35-.78-6.23s-4.32.58-5.46,2.87q-6.33,12.83-12.71,25.62A15.35,15.35,0,0,0,770.76,388.5ZM602.6,304.09c.19,5.67,2.69,8.46,6.81,10,4.5,1.73,8.17.06,10.35-3.67,1.91-3.27,7.06-7.27,2.83-10.82-5.36-4.48-4.79,3.26-7.16,5.15-1.38,1.1-2.46,2.89-4.38,1.74-1.49-.9-1.26-2.79-.61-4.1,3.75-7.63,7.61-15.2,11.51-22.75.56-1.1,1.6-2.14,3-1.53,1.68.73,1.73,2.3,1.35,3.82a34.52,34.52,0,0,1-1.29,3.52c-.84,2.27-2.59,4.54,1.2,6.09s4.13-1.66,5.13-3.64a25.32,25.32,0,0,0,2.18-6.36c.84-4.22-1-7.34-4.7-9.34s-7.68-2.31-10.39.91C610.6,282.48,606.31,293.7,602.6,304.09ZM915,416c-.06-3-2.79-3.14-4.58-4.29-2.17-1.38-3.8-.54-5.09,1.35l-21.58,31.68c-1.06,1.55-2,3.11.25,4.41,1.79,1.07,3.57,1.92,5.13-.53,1.3-2,2.3-4.59,5.77-3s2.88,4.11,1.85,6.85.69,3.68,2.76,4.31c2.42.74,3-1,3.5-2.79q4.59-14.7,9.24-29.37C913.15,421.77,914.07,418.91,915,416Zm-207.7-59.25a8.64,8.64,0,0,0,4.93,8.12c3.31,1.82,6.64,2.32,9.9-.07,3.85-2.83,5.35-7.17,7-11.34.55-1.42-1-2.11-2.15-2.63-1.44-.66-3-1-4,.65s-1.58,3.14-2.5,4.63c-1.06,1.71-2.37,3.88-4.64,2.8s-1.42-3.53-.6-5.3c2.65-5.68,5.36-11.34,8.29-16.88,1.43-2.71,2.34-7.78,6-6.44,4.93,1.79.21,5.34-.42,8-.58,2.46,0,3.7,2.24,4.7s3.32-.24,4.07-1.92a41.64,41.64,0,0,0,3-7.69c.94-4.2-1-7.32-4.72-9.32s-7.62-2.5-10.4.8C715.43,334.25,711.2,345.48,707.29,356.78Zm162,36.49c0-1.92-1.34-2.24-2.37-2.86-2-1.22-3.23-.07-4.29,1.55-3,4.61-6.05,9.22-9.14,13.78-.84,1.24-2,2.57-3.63,1.34-1.34-1-.13-2.19.27-3.32,1.67-4.72,3.25-9.47,4.89-14.2.87-2.5,1.68-5-2-5.9-3.43-.87-3.62,2-4.25,4-3.58,11.22-7,22.5-10.59,33.7-1,3.19-.61,5.13,2.61,6.59,2.9,1.3,4.58.54,6.26-2,6.86-10.19,13.85-20.28,20.79-30.41C868.37,394.73,868.87,393.88,869.26,393.27Zm55.38,53.45c2.3,1.18,3.5,1,4.49-.66,1.4-2.36.33-3.59-1.64-4.82-5.26-3.28-.61-6.51.29-9.64,1-3.5,3.41-2.91,5.87-1.45,3.48,2.06,5.56-.74,4.78-2.91-1.51-4.25-6.6-4.66-10.21-6.57-3.14-1.66-3.72,1.54-4.64,3.36q-6.78,13.39-13.34,26.9c-4.79,9.82-4.53,10.34,5.69,14.23,2,.76,3.8,1.68,5.07-.88,1-1.95.25-3.47-1.63-4.29-5-2.17-3-5.45-1.46-8.64C919.43,448.32,920.39,444.12,924.64,446.72Zm-50.31-2.39c2.43,0,2.56-2.46,3.38-4.05,4-7.78,7.83-15.67,11.78-23.49,1.4-2.76,2-6.48,6.71-5.43,1.87.42,2.41-1.46,3-2.8.76-1.88-.59-2.75-2-3.42-3.16-1.51-6.34-3-9.52-4.44-1.4-.64-2.86-1.16-4,.42-.94,1.31-1.51,2.9,0,4,3.36,2.39,1.44,4.7.22,7.13-4.27,8.5-8.35,17.09-12.82,25.48C869,441.62,870.59,443.17,874.33,444.33Zm-108.17-58.6c-.67-.76-1.17-1.84-1.95-2.1-6.28-2.09-3.64-5.72-1.81-9.36,4.16-8.27,8.29-16.56,12.29-24.91.75-1.59,2.3-3.64-.77-5-2.32-1-4-1.38-5.39,1.51-5.43,11.27-11,22.46-16.63,33.64-1.28,2.56-.81,4.37,1.86,5.37,3.59,1.33,6.48,4.93,10.86,3.59C765.28,388.31,765.57,386.86,766.16,385.73Zm-69.08-28.85c1.13.27,1.95-.58,2.54-1.78,5.72-11.68,11.39-23.38,17.18-35,1.18-2.39.4-3.59-1.72-4.76-2.54-1.41-3.57-.12-4.58,1.93-5.51,11.23-11,22.49-16.67,33.6C691.92,354.56,693.75,355.77,697.08,356.88Zm183,42c.09-2.38-1.75-3-3.27-3.71-2.37-1.1-3,.87-3.76,2.44q-8.16,16.55-16.33,33.08c-1.05,2.12-2.06,4,1,5.6s4-.22,5.11-2.37q8.06-16.18,16.09-32.36C879.35,400.63,879.7,399.69,880.07,398.85Z"/><path class="cls-1" d="M607.68,0h70.94A4.77,4.77,0,0,0,683,4.7l1.51,1.5,1,.56c-.19-.32-.38-.65-.58-1l-1.5-1.52L681.64,0h15.09c0,2.89,1.87,4.11,4.35,4.75l1.07.55-.59-1c-.6-1.41-1.21-2.83-1.81-4.25h52.83A2.64,2.64,0,0,0,754,3.18l1.52,1.46c-.16,5.31,3.81,5.55,7.51,6.1l1.5,1.55,1,.55-.55-1-1.57-1.48c-1.43-3.38-4.19-5.1-7.57-6l-1.48-1.5c-.07-.95-.13-1.89-.2-2.84h37.73c6,3,11.59,6.54,15.75,12-.4,4.72,2.54,6.25,6.47,6.36a5.36,5.36,0,0,0,5.76-4.91c.52-3.83-.48-7-5.26-7.26C812,4.64,808.26,4.24,808.43,0h33.2l3.09,14.94-1.46,1.53-1.5-1.5-2.06-2-.65.94,2.45,1.3,1.5,1.49c.33,2.62,2.07,4.32,3.92,5.93q1.2,5.22,2.39,10.44c-.45.93-.9,1.87-1.36,2.8l-1.14-.48.55,1.08,2.85,2.7c2.53,3.53,3,7.7,3.68,11.81-.41,1.62-.63,3.42-3,3.11l-1.07-.56.59,1.06a11.48,11.48,0,0,0,6,5.79q1.77,7.4,3.55,14.81l-1.53,1.61-1.52-1.48-1.47-1.54a3.1,3.1,0,0,0-3-1.54l-1.52-1.47-1.46-1.56a3.13,3.13,0,0,0-3.1-3l-1.48-1.5-1-.6c.22.31.44.61.67.91l1.5,1.48a3.1,3.1,0,0,0,3,3l1.55,1.46c.49.5,1,1,1.48,1.51a3.07,3.07,0,0,0,3,1.6l1.57,1.44c.5.5,1,1,1.48,1.51,1.18,2.16,2,4.54,4.25,6q3.27,13.48,6.53,27c-.53,1.8.56,4.66-3,4.5a3.09,3.09,0,0,0-3-1.53l-1.45-1.53L860,110a8.71,8.71,0,0,0-.78-.8c-.93.71-.09.9.38,1.2l1.56,1.47,1.53,1.44,2.84,1.77c.94,3,2.77,5.11,6,5.78,3.06,7.72,2.82,16.34,6.41,23.92,3.18,5.78,6.86,11.18,12,15.43a14.81,14.81,0,0,0,6,7.69c2.2,1.23,6,4.4,6.4,3.23,2.89-9,6,1.15,8.65-.35l1,.57-.61-1c-.51-3-3-4.25-4.9-6.14-2.8-2.85-1.87-6.63-1-9.7.93-3.47,3.66.15,5.55-.39l1.46,1.53a3.06,3.06,0,0,0,3,3l1.5,1.52,1.51,1.53,1,.54-.59-1-1.55-1.47-1.54-1.48a3.09,3.09,0,0,0-3.1-3l-1.52-1.47c-5.43-4.42-4.65-10.92-5.95-16.56,1.92-1.39,3.51,2.86,5.5-.71-7.69-4.13-9-11.58-10.22-19.65l5.86,2.53c.64,1.2,1.78,1.42,3,1.52.11,2,1.22,2.85,3.1,2.93l1.46,1.56,1.51,1.51,1.53,1.48,1.51,1.52,1.53,1.51,1,.56-.59-1-1.56-1.46-1.54-1.49-1.48-1.54-1.54-1.48-1.58-1.43-3.08-3-2.79-1.77c-5.15-6.1-11.95-11.33-11-20.68l.34-.3c1.46-.13,3.69.27,4.22-.5,1-1.54-.91-2.62-2-3.19-7.07-3.54-6.25-10.73-8-16.75-.49-1.67,3.41-2.57,1-4.27-5.8-4.13-4-10.66-6-15.8,2.05-1.59,3.62,2.64,5.87-1.07-8.2-4.14-11.48-11.12-10.44-20.13.74-.21,1.95.38,2-1,0-.25-1.13-.53-1.73-.8a53.39,53.39,0,0,1-5.78-15c-.43-2.2-.79-4,2.3-4.07.33.45.57,1.24,1.23.35,0,0-.5-.53-.77-.81C873.89,10.77,871,6,870.31,0h9.06c-.26,2.11.85,3,2.8,3.25l1.59,1.42,1.5,1.5a3,3,0,0,0,3,3l1.52,1.46a3,3,0,0,0,2.93,1.63l1.51,1.47c.34,2.72,2,4.06,4.6,4.5l1.48,1.56,1,.56-.59-1L899.16,18a5,5,0,0,0-4.57-4.52l-1.48-1.49a3.14,3.14,0,0,0-3.05-1.51L888.59,8.9a3,3,0,0,0-3.06-3L884,4.42l-1.44-1.56L880.88,0h244.51c0,1.26,0,2.53.08,3.79l-35,41.14c-11.34,11-21,23.48-31.43,35.31-18.08,20.56-36,41.29-53.95,61.94-4.57-.34-3.42,4.26-5.24,6.31-14,15.77-27.63,31.89-41.42,47.86-6.82,7.89-13.85,15.62-20.62,23.57-3.86,4.53-7.44,5.73-12.8,1.79-9.16-6.73-17.87-13.8-24.12-23.42-2.94-4.53-4.78-4.28-8.37-.19-6.92,7.87-16,12.84-26.08,15.68-4.1,1.15-8.36,1.6-11.85-2.24-5.38-5.91-13-9.35-18-15.68-2-2.46-4.46-3.06-7.39-2.47Q723.57,101.93,618,10.4C614.36,7.23,609.39,5.18,607.68,0ZM904.89,39.39l1.5,1.49,1,.57-.68-.88-1.48-1.5-1.52-1.51a3,3,0,0,0-3.09-3l-1.48-1.52a3.08,3.08,0,0,0-3-1.58L894.66,30c-.47-2.44-1.5-4.27-4.45-4.41,0,3.14,1.67,4.31,4.12,4.75l1.51,1.46a3.08,3.08,0,0,0,3,1.58l1.53,1.46c.1,1.91,1.2,2.83,3,3Zm-18.16.07,1,.54-.58-1c-.32-.49-.58-1.22-1.23-.34A7.42,7.42,0,0,0,886.73,39.46Zm89.08-1.54,1,.59-.61-1L974.66,36l-1.55-1.46-1.51-1.51-1.51-1.5-1-.6.65,1,1.55,1.48,1.54,1.48c.5.51,1,1,1.5,1.52ZM829.31,36.5l1.06.58-.58-1-1.57-1.47-1-.58c.22.32.43.64.65,1ZM717.69,34.93l1,.52-.56-1L716.59,33a8.71,8.71,0,0,0-.78-.8c-.94.71,0,.88.39,1.2C716.7,33.9,717.2,34.41,717.69,34.93ZM953.2,33.35l1.5,1.49a3.18,3.18,0,0,0,3,3.12c.33.47.6,1.25,1.26.34,0-.06-.52-.54-.8-.82a3.15,3.15,0,0,0-3.19-2.89c-.49-.5-1-1-1.48-1.51l-1-.64C952.72,32.75,953,33.05,953.2,33.35Zm107-1.39,1.07.58-.58-1.06L1059.15,30l-1.53-1.48a3.11,3.11,0,0,0-3-1.54l-1.48-1.52a4.83,4.83,0,0,0-4.58-4.49L1047,19.51l-1-.61.71.87,1.49,1.5a4.84,4.84,0,0,0,4.55,4.53l1.52,1.48a3.08,3.08,0,0,0,2.92,1.63l1.53,1.49ZM1006,31.85l1.5,1.49c.57,1,1.12,2.08,1.75,3.08,0,.06,1-.25,1-.47.26-1.87-.84-2.66-2.53-2.88l-1.49-1.5c-.29-.44-.42-1.34-1.19-.43C1005.4,31.38,1005.7,31.62,1006,31.85Zm-164.51,0,1,.56-.58-1L840.36,30l-1.55-1.48L837.27,27l-1.5-1.51L834.23,24l-2.87-1.69-1.47-1.52-1.54-1.48c-.31-1.19-.75-2.25-2.26-2.13a.71.71,0,0,0-.47.48c-.08,1.53,1.06,1.88,2.21,2.18l1.54,1.49,1.51,1.45a3.38,3.38,0,0,0,3,1.56l1.51,1.51c.51.49,1,1,1.54,1.47l1.51,1.52L840,30.37Zm-18.16,0,1.07.57-.61-1L822.21,30a3.18,3.18,0,0,0-3-3.05L817.11,25l-.7.92,2.3,1.54a3.25,3.25,0,0,0,3.14,2.86Zm89.08-1.53,1,.55-.58-1-1.61-1.43L909.74,27a3.15,3.15,0,0,0-3.09-3c-.49-.74-1.4-1.73-1.94-.82-.64,1.07.9,1,1.56,1.28a3.19,3.19,0,0,0,3.14,2.88l1.52,1.5Zm52.85-1.53,1,.57-.58-1L964.12,27l-1.55-1.47c-.33-1.77-1-3.3-3-3.72-.85-.19-1.48.33-1.23,1.23.52,1.92,2.1,2.54,3.87,2.84.5.51,1,1,1.5,1.52Zm52.82-1.5,1,.56-.6-1L1017,25.45a3.28,3.28,0,0,0-3.08-3l-1-.58.59,1a3.3,3.3,0,0,0,3.11,3Zm-18.14,0,1,.57-.6-1-1.57-1.47a3.13,3.13,0,0,0-3.12-2.94L994.21,21l-1.5-1.51-1-.6c.22.32.44.63.67.94.52.48,1,1,1.57,1.43l1.5,1.5a3.05,3.05,0,0,0,3,3.08C998.94,26.36,999.44,26.87,1000,27.37Zm-253.56,0,1.5,1.49c.17,1.24.52,2.33,2.08,2.25a.7.7,0,0,0,.49-.48c.08-1.6-1.11-1.83-2.29-2.05L746.69,27c-.5-.5-1-1-1.51-1.51a3.17,3.17,0,0,0-3-1.55l-1.49-1.5c-.75-3.3-3.91-4.18-6.07-6.06l-1-.58.61,1c.15,4,2,6.16,6.17,5.95l1.51,1.48a3.15,3.15,0,0,0,3,1.59C745.35,26.36,745.87,26.85,746.39,27.34Zm319.9-5.94,1.06.58-.59-1.05-1.57-1.47L1063.64,18l-2.86-1.75a7.82,7.82,0,0,0-6.21-5.82l-1.5-1.49-1-.6c.23.3.45.59.69.88.49.51,1,1,1.49,1.51.68,3.36,2.89,5.2,6.08,6.05a3.13,3.13,0,0,0,3,1.52c.5.51,1,1,1.49,1.53Zm-36.23,0c.33.45.57,1.23,1.23.35a6.74,6.74,0,0,0-.77-.8L1029,19.49l-1-.59c.22.31.43.62.66.92Zm-54.23-.12,1.47,1.52c.31,2.72,2,4,4.53,4.58l1,.57-.6-1a5.17,5.17,0,0,0-4.68-4.42L976.1,21l-1-.59C975.37,20.71,975.6,21,975.83,21.28Zm-36.24,0,1.47,1.52c.42,2.35,1.45,3.92,4.26,3.82-.15-3-1.91-3.72-3.94-4.14L939.87,21l-1-.61ZM917,191.85l1.52,1.45,2.94,1.64,1,.58-.6-1a3.26,3.26,0,0,0-3-1.57l-1.45-1.53L915.8,190l-1.51-1.5a3.13,3.13,0,0,0-3.1-3l-1.47-1.57-1.05-.56.59,1,1.62,1.42a3.08,3.08,0,0,0,3,3l1.52,1.49Zm-12.06-10.57,1,.59-.6-1-1.57-1.47c-.28-.48-.45-1.29-1.17-.4,0,0,.54.49.83.75C903.87,180.28,904.38,180.78,904.89,181.28Zm15-2.92c.35.46.65,1.23,1.29.32.05-.08-.5-.56-.77-.86l-1.63-1.39-1.5-1.51-1.52-1.51-1-.6.66,1,1.52,1.5c.51.5,1,1,1.53,1.49Zm13.66-4.63,1.5,1.49c.35,2.72,2,4.1,4.61,4.5l.78.53c-.18-.26-.35-.53-.52-.79a4.86,4.86,0,0,0-4.59-4.52l-1.49-1.5-1-.6C933.1,173.14,933.32,173.44,933.55,173.73Zm-4.56-3,1,.54-.57-1c-.53-.48-1.06-1-1.6-1.43-.37-2.68-2-4.05-4.58-4.53l-1-.59.61,1a5.14,5.14,0,0,0,4.67,4.44Zm15.16-3.11,1.5,1.49,2,2,.64-.94c-.79-.43-1.58-.86-2.38-1.28l-1.49-1.51-1.5-1.52-1.5-1.51-1.51-1.5-1.52-1.49-1-.6c.21.33.41.66.62,1l1.54,1.49,1.55,1.47,1.53,1.48ZM954.71,19.78l1,.58-.6-1-1.53-1.5L952,16.42l-1.53-1.5L949,13.42l-1.52-1.49-1.54-1.48a3.08,3.08,0,0,0-3-1.54l-1.47-1.52c-.26-.49-.39-1.32-1.18-.46.29.26.58.52.88.77l1.52,1.46a3,3,0,0,0,2.93,1.63l1.52,1.5,1.52,1.49c.51.51,1,1,1.52,1.5l1.53,1.49,1.5,1.53Zm-36.26,0,1,.58-.62-1-1.56-1.47-1.54-1.47L914.22,15l-1.47-1.54-1-.59.66.95,1.56,1.45,1.5,1.53,1.5,1.52ZM853.58,152.6l1,.57c-.2-.33-.4-.65-.59-1l-1.57-1.46-1.52-1.5-1.53-1.48-1.51-1.51-1.54-1.48-1-.61.66.94c.5.51,1,1,1.51,1.52l1.53,1.48,1.53,1.5,1.51,1.51ZM841.51,142l1,.6-.62-1-1.55-1.49a3.09,3.09,0,0,0-3.09-3l-1.52-1.47-1-.63c.23.29.47.58.72.86l1.46,1.53a3.08,3.08,0,0,0,3,3C840.48,141,841,141.54,841.51,142ZM971.28,18.31l1,.56-.6-1-1.56-1.49a3,3,0,0,0-3.09-3L965.54,12a3.06,3.06,0,0,0-2.94-1.62c-.49-.51-1-1-1.46-1.52L959.62,7.3c-.27-1.21-.7-2.27-2.21-2.2a.68.68,0,0,0-.48.48c0,1.53,1.08,1.88,2.26,2.17l1.54,1.48,1.5,1.46a3.18,3.18,0,0,0,3,1.53l1.48,1.52a3.09,3.09,0,0,0,3,3Zm-36.26,0,1,.52-.57-1-1.73-1.32c-.31-.76.13-2.12-1.45-1.83a.72.72,0,0,0-.49.48c-.3,1.6,1.1,1.12,1.83,1.46ZM924.38,134.62l1.07.56-.58-1-1.07-.56Zm-72.32-.14,1.46,1.52c.32,2.71,2,4,4.54,4.58l1.06.58-.62-1a5.11,5.11,0,0,0-4.66-4.44l-1.52-1.47-1-.61C851.58,133.9,851.82,134.19,852.06,134.48ZM830.91,133l1,.54-.58-1-1.56-1.47-1.52-1.5a3.2,3.2,0,0,0-3.06-3l-2.12-2-.68.94,2.34,1.58A3.27,3.27,0,0,0,827.9,130l1.5,1.52C829.9,132,830.4,132.51,830.91,133Zm16.58-1.5,1.06.57-.6-1-1.58-1.45a3.15,3.15,0,0,0-3.09-3l-1.53-1.46-.94-.61c.23.29.46.58.7.86l1.45,1.53a3.06,3.06,0,0,0,3,3ZM1042.21,16.81l1,.55-.59-1-1.6-1.44a3,3,0,0,0-3.09-3l-1.53-1.47L1035,8.92a3.15,3.15,0,0,0-3-1.57l-1.5-1.49c-.49-.51-1-1-1.48-1.54-.26-1.21-.67-2.28-2.2-2.19a.7.7,0,0,0-.48.48c0,1.56,1.13,1.83,2.3,2.1l1.54,1.48,1.49,1.49a3.16,3.16,0,0,0,2.95,1.62c.53.47,1.06.94,1.6,1.4l1.48,1.52a3.07,3.07,0,0,0,3,3ZM972.83,129.94l1.49,1.48,2.89,1.7c.23,1,.47,2,1.72,2a1.22,1.22,0,0,0,.8-.89c-.12-1.23-1.16-1.4-2.13-1.58a3.2,3.2,0,0,0-2.94-1.56l-1.48-1.51-1.51-1.5a3.15,3.15,0,0,0-3.1-3c-.51-.5-1-1-1.53-1.49l-1.52-1.47L964,120.62l-1-.59.66.92,1.56,1.45,1.48,1.51,1.5,1.52a3.21,3.21,0,0,0,3,3Zm51.29-113.16,1,.58-.6-1L1023,14.9a3.15,3.15,0,0,0-3.09-3l-1.52-1.47a3,3,0,0,0-3-1.57l-1.47-1.51-1.49-1.52c-.29-.5-.47-1.29-1.19-.4,0,0,.55.49.84.75l1.53,1.49,1.5,1.48a3.12,3.12,0,0,0,3,1.55l1.46,1.53a3.1,3.1,0,0,0,3,3ZM984.8,124l1.05.59-.6-1-1.59-1.44a5.77,5.77,0,0,0-4.39-3.23,8,8,0,0,0-6.15-5.91l-1-.56.59,1a7.92,7.92,0,0,0,6.18,6,5.15,5.15,0,0,0,4.5,3Zm-36.24,0,1.05.58c-.2-.35-.4-.69-.59-1-.35-.46-.6-1.28-1.29-.35A8.11,8.11,0,0,0,948.56,124Zm-111.63-1.57,1,.55c-.2-.34-.39-.68-.58-1l-1.59-1.44-1.55-1.46a3.12,3.12,0,0,0-3-3l-1.52-1.46a3.06,3.06,0,0,0-3-1.54l-1.45-1.54-1.51-1.5a5.2,5.2,0,0,0-4.57-4.55l-1-.54.58,1a5,5,0,0,0,4.63,4.47c.51.5,1,1,1.52,1.5l1.54,1.44a3,3,0,0,0,2.94,1.63l1.48,1.5a3,3,0,0,0,3.11,3l1.49,1.53Zm-18.12,0,1,.53-.58-1-1.53-1.51-1.61-1.4-1.47-1.54-1.55-1.47a3.14,3.14,0,0,0-3-1.57L808.63,113c-.19-1.86-1-3.3-2.9-3.8-.89-.23-1.46.31-1.25,1.21.47,2,2,2.6,3.82,2.93l1.5,1.47a3.22,3.22,0,0,0,3,1.59c.5.51,1,1,1.5,1.53l1.57,1.44,1.45,1.58ZM695.06,15.29l1,.54-.57-1L694,13.37c-.43-2.64-2.1-4-4.62-4.5l-1-.56.6,1a5.18,5.18,0,0,0,4.63,4.47ZM954.7,113.34c.5.5,1,1,1.48,1.52.13,1.87,1.26,2.77,3,3.08l1.06.58-.62-1a3.16,3.16,0,0,0-3.16-2.92L955,113.08l-1-.64Zm-18.11,0,1.5,1.5c.27,2.74,2,4,4.5,4.59a8.33,8.33,0,0,0,.83.8c.9-.69.1-.94-.37-1.27a5,5,0,0,0-4.7-4.39l-1.5-1.49-1-.61C936.13,112.76,936.35,113.05,936.59,113.34Zm64.9-101.12,1.51,1.49a3,3,0,0,0,3,3l1.51,1.48,1.53,1.19.59-.81-1.88-.62-1.47-1.52a3,3,0,0,0-3.06-3L1001.76,12c-.28-.47-.42-1.31-1.19-.43Zm-51.35,98.16,1,.55-.58-1L949,108.44l-1.52-1.5a3.18,3.18,0,0,0-3.13-2.94l-1.51-1.48a3,3,0,0,0-3-1.61l-1.48-1.5-1.52-1.5a3.06,3.06,0,0,0-3.11-3l-1.48-1.5-1.51-1.51a3.1,3.1,0,0,0-3-1.55l-1.47-1.52c-.27-1.71-1.12-2.77-3-2.53-.21,0-.53,1-.47,1.07,1,.65,2.07,1.22,3.12,1.8l1.52,1.46a3.1,3.1,0,0,0,2.93,1.62l1.58,1.44,1.5,1.5a3,3,0,0,0,3,3l1.51,1.51,1.51,1.47a3.08,3.08,0,0,0,3,1.53c.49.51,1,1,1.48,1.51a3.13,3.13,0,0,0,3,3.08l1.53,1.48Zm-18.09,0,1,.56c-.19-.33-.38-.67-.58-1l-1.58-1.44a5,5,0,0,0-4.6-4.5l-1.49-1.48-1-.59c.23.31.45.62.68.92l1.49,1.49a5,5,0,0,0,4.57,4.52Zm51.31-98.12,1.52,1.47a3.15,3.15,0,0,0,3,3.1l1,.58-.6-1a3.24,3.24,0,0,0-3.18-2.91c-.49-.5-1-1-1.48-1.51s-1-1-1.49-1.52a3.06,3.06,0,0,0-3-1.53l-1.5-1.49-1.48-1.54a3.16,3.16,0,0,0-3-3.05l-1-.54c.2.32.39.65.58,1a3.23,3.23,0,0,0,3.14,3l1.53,1.49,1.49,1.49a3.19,3.19,0,0,0,2.95,1.62C982.31,11.28,982.83,11.77,983.36,12.24ZM997,102.77l1.49,1.5a3.19,3.19,0,0,0,3,3.11l1,.56-.57-1a3.14,3.14,0,0,0-3.19-2.89l-1.48-1.51L995.76,101a3.24,3.24,0,0,0-3-1.53l-1.47-1.52c-.33-2.7-2-4-4.54-4.58l-1.06-.56.59,1a5.25,5.25,0,0,0,4.68,4.42l1.51,1.47a3.07,3.07,0,0,0,2.95,1.62C995.91,101.82,996.43,102.3,997,102.77Zm-18.22.13,1,.58-.6-1L977.65,101l-1-.59.62,1Zm-18-.13,1.48,1.52a3,3,0,0,0,3.06,3l1.5,1.49,1.54,1.18.59-.8-1.86-.64-1.5-1.5a3,3,0,0,0-3-3L961,102.52,959.52,101a3.24,3.24,0,0,0-3-1.58l-1.64-1.36c-.53-1.07-1-2.14-1.64-3.17,0,0-1,.23-1.06.44-.33,2,1,2.51,2.6,2.83l1.39,1.61a3.26,3.26,0,0,0,3,1.59Zm-146.45.07,1.06.56-.6-1-1.6-1.44a3.06,3.06,0,0,0-3.09-3l-1.5-1.5c-.29-.44-.43-1.32-1.2-.42.31.24.61.47.93.69l1.5,1.5a3.06,3.06,0,0,0,3,3.06Zm105.65-3,1,.55-.59-1-1.61-1.42a3.06,3.06,0,0,0-3.07-3l-1.49-1.5c-.31-.46-.49-1.3-1.24-.4l.94.7,1.5,1.49a3.06,3.06,0,0,0,3,3Zm52.83-1.51,1,.56-.59-1-1.55-1.48-1.56-1.46-1.52-1.5-1.53-1.49-1-.61c.22.32.44.64.67,1,.51.5,1,1,1.53,1.49l1.51,1.51c.5.51,1,1,1.51,1.51ZM790.05,96.88c.34.47.61,1.22,1.26.34.05,0-.49-.54-.76-.83s-.64-1.18-1.27-.31C789.24,96.13,789.78,96.61,790.05,96.88Zm-4.42-3.11,1,.57c-.2-.33-.4-.66-.61-1l-1.54-1.5L783,90.36l-1.57-1.46-1.5-1.5a19,19,0,0,0-1.57-1.14,7.18,7.18,0,0,0-.61.76l1.85.71c.51.49,1,1,1.53,1.48s1,1,1.49,1.53,1,1,1.51,1.51Zm217.26-1.44c.33.46.57,1.25,1.25.36,0,0-.53-.51-.81-.79l-1.06-.59Zm-200.68,0,1,.57-.6-1-1.56-1.47c-.3-.51-.52-1.28-1.22-.38a10.81,10.81,0,0,0,.83.78ZM909.4,90.75l1,.54-.59-1L908.3,88.8c-.28-.27-.76-.81-.82-.77-.91.68-.1.91.37,1.24Zm89.1-1.56,1,.58-.62-.92-1.51-1.52-1.53-1.49a3.12,3.12,0,0,0-3.08-3l-1.52-1.47-1-.59.68.88c.5.5,1,1,1.48,1.51a3.13,3.13,0,0,0,3,3l1.52,1.5C997.47,88.2,998,88.69,998.5,89.19Zm-36.27,0,1,.56c-.2-.33-.39-.66-.59-1l-1.59-1.44c-.28-.49-.4-1.35-1.2-.46l.89.77C961.23,88.21,961.73,88.72,962.23,89.24ZM815.76,87.79l1,.58-.6-1-1.57-1.47L813.1,84.4a3.08,3.08,0,0,0-3-1.56l-1.48-1.51a3,3,0,0,0-3.08-3c-.5-.5-1-1-1.48-1.51l-1.52-1.5a3.12,3.12,0,0,0-3-1.6c-.53-.48-1.05-1-1.59-1.43l-1.49-1.5a3,3,0,0,0-3-3L792,66.28l-1-.58.68.88c.5.49,1,1,1.49,1.49a3,3,0,0,0,3.08,3l1.5,1.49,1.48,1.53a3.26,3.26,0,0,0,3,1.57l1.53,1.48,1.51,1.48a3.06,3.06,0,0,0,3,3l1.5,1.49a3.12,3.12,0,0,0,3,1.59l1.5,1.51ZM705.6,7.75l1.5,1.49c.54,2.37,1.5,4.28,4.56,4.39-.18-3.06-1.75-4.32-4.22-4.73l-1.51-1.48-1-.59Zm342.64-1.5,1.06.56-.6-1c-.29-.27-.78-.82-.83-.77C1046.93,5.7,1047.8,5.92,1048.24,6.25ZM772,81.72l1.05.56c-.19-.35-.38-.7-.58-1-.33-.57-.64-1.28-1.33-.36A8.71,8.71,0,0,0,772,81.72Zm232.5-3.07,1,.56-.58-1-1.56-1.48-1.54-1.48c-.38-2.66-2.06-4-4.58-4.53l-1-.56.59,1a5,5,0,0,0,4.64,4.46c.5.51,1,1,1.51,1.52Zm-18.14,0,1,.55-.58-1-1.58-1.45-1.51-1.51c-.29-.48-.47-1.31-1.19-.4,0,0,.54.5.83.76l1.52,1.5C985.37,77.65,985.87,78.17,986.38,78.68Zm-18.11,0,1.53,1.45,2.85,1.76a8.1,8.1,0,0,0,6.15,5.9l1,.55-.59-1a8,8,0,0,0-6.14-6,3.14,3.14,0,0,0-3-1.49l-1.45-1.53-1.52-1.5c-.29-.5-.49-1.29-1.2-.39,0,0,.54.5.83.76ZM993.9,6.26l1,.56-.6-1a8.16,8.16,0,0,0-.83-.82C992.56,5.71,993.41,5.93,993.9,6.26ZM947,75.74c.34.46.63,1.21,1.27.33,0,0-.5-.54-.77-.83L946,73.79l-1.52-1.49-1-.58c.21.32.42.65.64,1l1.54,1.47C946.07,74.69,946.56,75.21,947,75.74ZM834,72.62l1,.57-.61-1-1.55-1.48a3,3,0,0,0-3.1-3l-1.51-1.49-1.47-1.53c-.55-1-1.17-2-2.49-2-.13,0-.4.37-.38.54.2,1.45,1.34,1.65,2.5,1.8l1.59,1.42,1.49,1.51a3.12,3.12,0,0,0,3,3.06Zm105.64-3,1,.56-.6-1-1.58-1.44c-.22-1.24-.63-2.32-2.17-2.26a.71.71,0,0,0-.49.49c0,1.57,1.1,1.88,2.31,2.12Zm69.39-3,1.06.55-.59-1-1.59-1.44c-.23-1.22-.61-2.32-2.17-2.22a.72.72,0,0,0-.49.48c-.06,1.58,1.11,1.86,2.31,2.09Zm-93.53-3.1,1.49,1.5c.35,2.69,2,4.1,4.56,4.55l2.09,2,.68-.94-2.38-1.51a5,5,0,0,0-4.67-4.36l-1.5-1.49-1.49-1.52a3.19,3.19,0,0,0-3-1.56l-1.47-1.52-1.54-1.48a3.19,3.19,0,0,0-3-3l-1-.58c.2.34.4.67.61,1a3.17,3.17,0,0,0,3.14,2.95l1.5,1.52,1.52,1.46a3.17,3.17,0,0,0,2.94,1.61C914.4,62.58,914.92,63.07,915.45,63.54Zm-128.27,0,1,.58-.61-.93L786,61.73l-.93-.62c.21.3.42.61.64.91ZM840,62.07l1,.57-.6-1-1.58-1.45a3,3,0,0,0-3.08-3l-1.52-1.47c-.49-.51-1-1-1.49-1.51a19.12,19.12,0,0,0-1.58-1.14,7.19,7.19,0,0,0-.59.75l1.83.72c.52.49,1,1,1.56,1.45s1,1,1.48,1.51a3.11,3.11,0,0,0,3,3Zm-19.68-1.45c.35.42.63,1.22,1.26.31.05-.06-.49-.54-.75-.83-.35-.54-.66-1.28-1.34-.35C819.42,59.81,820,60.32,820.29,60.62Zm125.32-1.55,1,.54c-.19-.34-.38-.67-.56-1l-1.6-1.43a3.15,3.15,0,0,0-3.09-3l-1.5-1.49c-.3-.43-.44-1.33-1.21-.42l.92.71,1.5,1.49a3,3,0,0,0,3,3C944.62,58,945.11,58.56,945.61,59.07ZM993.94,53l1.52,1.48a3.16,3.16,0,0,0,3,3.12l1,.54-.58-1a3.09,3.09,0,0,0-3.17-2.91l-1.48-1.51-1.52-1.5a3.17,3.17,0,0,0-2.92-1.64l-1.5-1.48-1.52-1.51a3.1,3.1,0,0,0-3.14-2.92c-.49-.51-1-1-1.48-1.51l-1.5-1.51-1-.58.64.92,1.58,1.44,1.51,1.48a3.07,3.07,0,0,0,3,3.08l1.54,1.48c.5.49,1,1,1.49,1.48a3.28,3.28,0,0,0,3,1.55Zm-18.24.14c.33.48.61,1.21,1.26.34,0-.05-.5-.53-.78-.81l-1.59-1.44a3,3,0,0,0-3-1.57l-1.48-1.51-1.54-1.48a3.15,3.15,0,0,0-3-3.09l-1-.57.6,1a3.19,3.19,0,0,0,3.14,2.94l1.5,1.52,1.52,1.46a3.13,3.13,0,0,0,3,1.58ZM921.46,53,923,54.48c.17,1.25.53,2.34,2.09,2.29a.68.68,0,0,0,.49-.48c.07-1.59-1.1-1.88-2.3-2.09l-1.49-1.5-1-.6C921,52.41,921.24,52.71,921.46,53Zm-21.1-1.51,1,.55-.58-1-1.56-1.47-1.53-1.49c-.37-2.68-2-4.08-4.59-4.52l-2.08-2-.67.93,2.34,1.54a5.12,5.12,0,0,0,4.66,4.36L898.85,50ZM1045.23,50l1.51,1.49c.17,1.23.55,2.3,2.08,2.25a.68.68,0,0,0,.49-.47c0-1.56-1.1-1.85-2.29-2.07l-1.48-1.5-1-.61C1044.78,49.38,1045,49.69,1045.23,50ZM935.05,50l1,.54-.59-1-1.61-1.42a4.85,4.85,0,0,0-4.6-4.5l-1.47-1.5-1-.62c.22.32.44.64.67,1L929,43.93c.33,2.71,2,4.08,4.57,4.52ZM917,50l1,.56-.6-1-1.56-1.47a3.11,3.11,0,0,0-3.1-3l-1.51-1.48c-.3-.45-.44-1.35-1.22-.42l.93.7,1.48,1.52a3.1,3.1,0,0,0,3,3Zm-90.61,0,1,.55-.58-1c-.33-.51-.59-1.3-1.28-.37A6.46,6.46,0,0,0,826.34,50Zm-92.07-1.52,1,.55-.56-.93-1.56-1.47a3.09,3.09,0,0,0-3-1.6l-1.5-1.49-1.5-1.51c-1.46-2.19-3-4.25-6.12-5.22-.12,4.59,2.56,5.37,5.75,5.59l1.54,1.48,1.49,1.48a3.21,3.21,0,0,0,3,1.6Zm268.87-1.75.55.32-.57-.29-.55-.37Zm-79.86-7.68-1.5-1.5c-.32-2.71-2-4.09-4.54-4.56l-1-.57.59,1a5,5,0,0,0,4.68,4.41l1.5,1.5,1,.61Zm100.83-7.23,1.6,1.4c.21.93.26,2,1.48,2.18.25,0,.85-.57.81-.82-.15-1.23-1.26-1.24-2.17-1.47l-1.42-1.59c-.51-.39-1-.8-1.56-1.14a7.07,7.07,0,0,0-.59.77Zm-9,39.23,1.46,1.53c.26,1.71,1.11,2.77,3,2.52.21,0,.53-1,.47-1.07-1-.64-2.06-1.21-3.11-1.79l-1.53-1.46-1.54-1.18-.59.81Zm.27,16.3-1.49-1.5c-.32-2.71-2-4.09-4.54-4.57l-1-.58.6,1a5,5,0,0,0,4.67,4.43l1.5,1.5a2.89,2.89,0,0,0,3,1.55l.76.53-.54-.75A3,3,0,0,0,1015.34,87.39ZM987.92,31.83c.49.5,1,1,1.48,1.51.28,2.74,2,4.06,4.52,4.59l1,.56-.6-1a5,5,0,0,0-4.67-4.43l-1.51-1.49c-.49-1.07-1.13-2-2.46-2-.13,0-.39.38-.36.55C985.58,31.6,986.73,31.75,987.92,31.83Zm10.81,8.75-1-.57.6,1c.25,1.21.62,2.32,2.17,2.25a.7.7,0,0,0,.48-.49C1001.08,41.15,999.91,40.86,998.73,40.58ZM953.09,65.16c.34.46.6,1.26,1.27.35,0-.06-.51-.54-.78-.83a3.42,3.42,0,0,0-3.12-3l-1-.55.58,1A3.3,3.3,0,0,0,953.09,65.16ZM699.9,17.93l-1-.56.58,1c.26,1.2.63,2.32,2.18,2.25a.72.72,0,0,0,.48-.49C702.23,18.55,701.05,18.24,699.9,17.93ZM933.52,158.69l1,.58-.6-1c-.2-1-.49-1.94-1.67-2-.27,0-.84.57-.82.84C931.56,158.26,932.56,158.48,933.52,158.69Zm-73.61-1.93-1-.57c.19.33.39.66.59,1a5.69,5.69,0,0,0,3.27,4.3c.55.41.81,1.83,1.83.51l-1.85-.48C862.63,159.43,862.77,157.2,859.91,156.76Zm6-10.55-1-.58.6,1c.62,1,1.23,2.05,1.91,3,.05.06,1-.28,1-.5C868.73,147.28,867.57,146.52,865.93,146.21ZM729.76,13.8l1,.53-.57-1c-.45-1.84-1.38-3.12-3.49-2.45A1.86,1.86,0,0,0,726,12.5C726.77,14,728.4,13.61,729.76,13.8Zm193.53,8.64-1-.54c.2.33.4.66.59,1,.33,1.79,1.12,3.26,3,3.72.89.22,1.43-.34,1.21-1.22C926.62,23.45,925,22.83,923.29,22.44ZM835.42,10.77l1,.57-.6-1c-.32-1.76-1-3.29-2.92-3.72a1,1,0,0,0-1.25,1.25C832.11,9.83,833.71,10.42,835.42,10.77Zm92.41,63-1-.58.62,1c.4,1.78,1,3.46,3.16,3.6a1.32,1.32,0,0,0,.89-.89C931.33,74.64,929.57,74.19,927.83,73.75ZM846,51.52l1,.55-.58-1c-.46-1.75-1-3.42-3.22-3.55a1.29,1.29,0,0,0-.87.9C842.5,50.63,844.28,51.05,846,51.52ZM1040.73,47l1,.56c-.19-.33-.39-.65-.59-1-.36-1.77-1.1-3.27-3-3.73-.89-.21-1.44.33-1.21,1.23C1037.4,46,1039,46.62,1040.73,47ZM838.79,75.24l-1-.55.59,1C839,78,839.9,80,842.86,80,842.92,76.89,841.14,75.81,838.79,75.24Zm153.6-7.1,1,.54-.59-1c-.63-2.32-1.57-4.29-4.65-4.34A4.7,4.7,0,0,0,992.39,68.14ZM907.92,10.73l1,.57-.59-1c-.65-2.83-2.26-4.6-5.86-5.41C903.24,8.58,905.12,10.08,907.92,10.73Zm-129.5,33c.13-.2.39-.42.36-.58a5.76,5.76,0,0,0-.5-1.07,2.1,2.1,0,0,0-.26-1.23c.58-6.35,6.86-8.81,9.43-13.79,2.6.61,3.2,2.91,4.17,4.9,0,4.81,3.37,5.81,7,5.32a5.72,5.72,0,0,0,5-6.4c-.29-3-.79-6.88-5.75-5.24-8-.31-9.59-7.58-13.48-12.35-.65-4.56-3.84-5.33-7.53-4.64a5.42,5.42,0,0,0-4.71,5.77c.19,3.62,1.39,6.85,6.17,6.15,2.24.35,4.21,1.15,5.4,3.24-4.58,3.81-9.4,7.47-8.74,14.44a19.59,19.59,0,0,1-7.33-6.7c-1-4.78-4.4-5-7.92-3.74-3,1.09-4.87,3.75-3.92,7.1,1,3.62,3.08,6.34,7.58,4.52l3.06,2.29c-1.16,6.42-7.47,8.39-11,12.73-2-1.13-4.53-1.64-4.59-4.63-1.13-4.35-4.3-4.3-7.53-3.12-2.46.9-4.28,3-4,5.73.33,3.24,1.22,6.57,5.84,5.78,2.39.43,4.85.72,6,3.33-7.3,8.47-14.55,17-21.92,25.38-1.58,1.79-3.55,3.89-1.26,5.6,1.89,1.41,3.3-1.4,4.53-2.84,7.27-8.48,14.48-17,21.72-25.54,1.83.6,2.94,2,4,3.52-1,4.48,1.6,6.59,5.36,7.48a5.31,5.31,0,0,0,6.53-3.83c1.08-3.49,1.21-7.14-3.79-8.07-2.65-1.54-5.52-2.83-7.14-5.68,2.23-.09,3.25-1.81,4.71-3.15,2.79-2.55,4.82-6.48,9.5-6.18.93,4.42,2.69,8.2,8,8.09a5.69,5.69,0,0,0,5.63-5c.57-3.38-.12-6.46-4.34-7.15-1.43-.26-2.7-1.56-4.3-.61ZM983.27,90.29l-.46-.45a5.89,5.89,0,0,0-.51,1c0,.09.28.29.44.44C982.92,91,983.1,90.62,983.27,90.29Zm19.62-29.57-.48-1.07c-.18.12-.52.29-.5.35a7.13,7.13,0,0,0,.45,1.07ZM834,41.8l.55-.26c-.16-.12-.31-.32-.47-.34s-.36.15-.53.24ZM961.67,40c-.18.11-.53.27-.51.33a7.42,7.42,0,0,0,.44,1.1c.18-.12.53-.28.52-.34A7.36,7.36,0,0,0,961.67,40ZM998.36,9.39l-.53-1c-.17.13-.5.31-.48.37a8.47,8.47,0,0,0,.51,1ZM861.9,142.94l.23-.32-.36-.05Zm85.92-113.6.35.25.07-.37Z"/><path class="cls-2" d="M585,468.29c9.4,1.25,18.06,4.18,27,7.78,19.71,7.91,38.81,17.12,58.36,25.34,13.75,5.77,28.22,10.35,40.62,19.16,9,6.42,12.45,16.76,17.91,25.59,13.82,22.39,27,45.17,40.58,67.69,4.23,7,5.17,13.81,1.4,21.32a13.08,13.08,0,0,0,7.72,18.57c3.74,1.25,5.72,2.91,6.45,7,1,5.19,3.61,9.87,6.49,14.32.82,1.27,2,2.43.82,4-.79,1.09-2.07,1.88-3.26,1.31A45.37,45.37,0,0,0,768,675.73c-1.86,0-1.73-2.09-1.51-3.63,3.94-.28,5.15-3,2.88-5.47-7.19-7.73-3.67-23-18.06-25.61-.95-.17-1.63-1.82-2.43-2.78-4.36-7.11-12-10.76-17.64-16.45-1.63-2.87-4.65-4.12-7.1-6-3.1-2.73-5.62-6.26-10.82-7.9,2.29,7.29,2.21,13.75-1.11,19.88-3.37,5.58-1.46,9.44,3.95,12.16l16.74,13.73a6.74,6.74,0,0,1,0,1.1c-3.52,1.82-3.49,5.89-5.46,8.74-7.59,11-20.16,12.94-29.62,3.71-4.67-4.57-7.73-5.62-12.88-.28-8.25,8.58-19.93,8.57-28.95.32-4.93-4.51-9.07-4.05-13.92-.61-9.68,6.89-17.91,6.39-26.5-1.47-5.73-5.25-12.58-6-18.83-.7a74.29,74.29,0,0,1-34.93,16.36c-15.37,2.92-30.41,1.16-45.43-2.19-6.92-1.55-8.14-.52-5.44,5.85,1.81,4.29,0,5.16-3.29,6.16-8.88,2.69-17.65,5.77-26.6,8.17-4.94,1.33-6.66,3.74-4.53,8.31s.43,6.54-4.11,8q-101.83,32.25-203.61,64.7a20.59,20.59,0,0,1-3.71.51V763.68q13.57-4.24,27.16-8.51,75.15-23.77,150.3-47.58c12.09-3.84,12-4,9.77-16.13,9.81-4.61,20.45-6.71,30.67-10.05,4.9-1.6,5.44-3.58,4-8.14-8.94-28-17.35-56.21-27.11-84-1.89-5.39-2.8-11.14-4.81-16.48-1.9-5,.53-7,4.62-8.13,8.11-2.25,15.77-5.82,23.73-8.3,8.12-2.52,13.81-7.95,19.85-13,16-13.5,31.8-27.34,47.67-41,4.06,2.25,6.79,8.11,12.91,4.75,25.91,22.69,52.4,44.77,77.5,68.32C655.8,589,670.22,599,691.08,593.58c2.11-.54,4.54.16,8.7.38l-121-104.88c0-3.14,2.37-4.9,4.35-6.65C588,478.17,591,473.89,585,468.29Z"/><path class="cls-3" d="M452.29,691.46c2.27,12.15,2.32,12.29-9.77,16.13q-75.13,23.86-150.3,47.58-13.58,4.29-27.16,8.51v-163c10.82,1.55,19.77-4.85,29.66-7.23,11.95-2.87,23.65-7,35.25-11.1,7-2.5,14.88-3.12,20.81-8.37,3.92,1.48,7.26-.79,10.71-1.86,13.67-4.24,27.31-8.58,40.87-13.16,4.81-1.62,6.72-.76,8.36,4.49,12.61,40.52,25.63,80.93,38.6,121.34C450.06,687.09,450,689.84,452.29,691.46Z"/><path class="cls-4" d="M1070.92,436c1.54,5.67,7.57,5,11.25,7.68,3.12,2.26,3.8,3.63,2.08,7.08-9.14,18.4-18,36.93-27,55.38-19.49,39.7-38.57,79.62-58.71,119-19.23,37.6-36.87,76-56.4,113.41C925,771.4,909.37,805,893,838.24c-13.59,27.54-26.62,55.35-40.62,82.69-3.93,7.69-8.83,15.17-10.73,23.86H820.5c0-6.35,4.1-11.16,6.7-16.43q92.37-187.3,185-374.49,28.18-57,56.21-114.15A31.21,31.21,0,0,1,1070.92,436Z"/><path class="cls-4" d="M829.18,193.39c2.93-.59,5.43,0,7.39,2.47,5,6.33,12.62,9.77,18,15.68,3.49,3.84,7.75,3.39,11.85,2.24,10.07-2.84,19.16-7.81,26.08-15.68,3.59-4.09,5.43-4.34,8.37.19,6.25,9.62,15,16.69,24.12,23.42,5.36,3.94,8.94,2.74,12.8-1.79,6.77-7.95,13.8-15.68,20.62-23.57,13.79-16,27.41-32.09,41.42-47.86,1.82-2.05.67-6.65,5.23-6.31-.18,1.79-.1,3.38,1.54,4.7,6.5,5.23,14.44,5.25,20.17-.84,7.85-8.33,15.26-17.08,22.78-25.71,16.4-18.82,33.49-37,48.8-56.81,12-11.83,22.45-25,33.25-37.82,5.92-7,2.75-17-6.13-21.91L1125.39,0h3c4.39,6.2,10.74,10.28,16.48,15,2.88,2.36,3.81,4.39,1.45,7.44-13.4,15.26-26.87,30.46-40.18,45.8q-43.68,50.31-87.24,100.72Q974,220.7,929.16,272.5c-3.13,3.63-5.08,4.2-8.93.73C907.37,261.64,894,250.59,881,239.12,863.77,223.86,845.68,209.52,829.18,193.39Z"/><path class="cls-5" d="M829.18,193.39c16.5,16.13,34.59,30.47,51.86,45.73,13,11.47,26.33,22.52,39.19,34.11,3.85,3.47,5.8,2.9,8.93-.73q44.75-51.9,89.76-103.57,43.64-50.35,87.24-100.72c13.31-15.34,26.78-30.54,40.18-45.8a38,38,0,0,1,4,2.2c7.85,5.52,8.3,8.3,2,15.48-21.18,24.33-42.55,48.5-63.65,72.9-24.06,27.82-47.8,55.91-71.89,83.7C1000.89,215,984.51,233,968.53,251.27q-14.81,16.95-29,34.46c-3.16,3.9-5.37,4.9-9.66,1.18-23.63-20.49-47.59-40.59-71.28-61-16.83-14.52-33.35-29.41-50.14-44-22.1-19.19-44.38-38.18-66.49-57.35-19.63-17-39.08-34.22-58.7-51.23-25.5-22.11-51.11-44.08-76.62-66.19-2.2-1.91-5-3.65-5-7.15h6c1.71,5.18,6.68,7.23,10.34,10.4Q723.5,102,829.18,193.39Z"/><path class="cls-5" d="M844.72,14.94,841.63,0h24.15c5.22,14.36,8,29.38,11.77,44.12,8,31,15.54,62.12,23.27,93.19-3,3.14-8.63.44-11.12,4.85-4.32-.86-7.64,2.81-11.81,2.59-3.59-7.58-3.35-16.2-6.41-23.92,0-3.81-.5-7.49-2.63-10.78q-3.26-13.48-6.53-27a15.51,15.51,0,0,0-2.42-7.87q-1.78-7.41-3.55-14.81c0-3.35-.42-6.59-2.46-9.4-.69-4.11-1.15-8.28-3.68-11.8.58-2.17,1-4.31-.9-6.11q-1.2-5.22-2.39-10.43A16.3,16.3,0,0,0,844.72,14.94Z"/><path class="cls-6" d="M900.82,137.31c-7.73-31.07-15.29-62.19-23.27-93.19C873.76,29.38,871,14.36,865.78,0h4.53c.7,6,3.58,10.77,7.78,14.89l-.46.46c-3.09.06-2.73,1.87-2.3,4.07a53.39,53.39,0,0,0,5.78,15l-.36.45-.59.4.73.94,0,0c-1,9,2.24,16,10.44,20.13-2.25,3.71-3.82-.52-5.87,1.07,1.91,5.14.16,11.67,6,15.8,2.38,1.7-1.52,2.6-1,4.27,1.74,6,.92,13.21,8,16.75,1.12.57,3.08,1.65,2,3.19-.53.77-2.76.37-4.22.51L895.34,96c-.18.15-.55.39-.52.44.3.6.66,1.18,1,1.77-1,9.35,5.84,14.58,11,20.68l-.44.55-5.86-2.53c1.27,8.07,2.53,15.52,10.22,19.65-2,3.57-3.58-.68-5.5.71,1.3,5.64.52,12.14,5.94,16.57l-.24.24c-1.88.53-4.61-3.09-5.54.38-.83,3.07-1.76,6.85,1,9.7,1.86,1.89,4.39,3.18,4.9,6.14l-.43.44c-2.69,1.5-5.76-8.7-8.65.35-.37,1.17-4.2-2-6.39-3.23,2.18-2.78,2.45-6.11,2.63-9.45C897.86,151.23,902.3,144.6,900.82,137.31Z"/><path class="cls-7" d="M807.57,12c-4.16-5.42-9.72-9-15.75-12h16.61c-.17,4.24,3.53,4.64,6.11,6.15C815.19,11.65,814.39,15.42,807.57,12Z"/><path class="cls-6" d="M699.75,0c.6,1.42,1.21,2.84,1.81,4.25l-.48.5c-2.48-.64-4.33-1.86-4.35-4.75Z"/><path class="cls-6" d="M683,4.7A4.77,4.77,0,0,1,678.62,0h3q.9,2.13,1.78,4.27Z"/><path class="cls-6" d="M880.88,0l1.69,2.86-.41.4c-1.94-.22-3-1.15-2.79-3.26Z"/><path class="cls-6" d="M754,3.18A2.64,2.64,0,0,1,752.58,0h1.51c.07,1,.13,1.89.19,2.84Z"/><path class="cls-8" d="M563.81,507.07c-6.12,3.36-8.85-2.5-12.91-4.75l-8.2-8.13c7.67-6.85,12.68-16.29,21.44-22.08,4.64.69,6.52,5.19,10.09,7.36,1.72,1,3.15,1.4,4.53-.41,1-1.25,2-2.78.29-3.86-8.49-5.44-16.6-11.56-26.25-15l4.15,5-20,23.63q-22.9-19.56-45.84-39.1c-2.22-1.88-2.25-3.44-.32-5.62,5.49-6.2,10.91-12.49,16.18-18.88,2.41-2.93,4.16-1.14,6.37.16,5.81,3.42,10.91,8.09,17.53,10.07,1.4,1.82,3.13,2.77,5.49,2.16l.47.41c.45,3.72,3.28,2.76,5.58,2.84l.21.22c1.6,3.94,4.61,5.72,8.78,5.71l.39.36c1.84,4.55,5.81,5.42,10.06,5.81.54.19,1.08.38,1.63.55,4.95,7.9,12.83,11.49,21.18,14.4l.35.29c6.06,5.61,3,9.89-1.86,14.15-2,1.75-4.33,3.51-4.35,6.65C572.75,494.23,565.94,498.7,563.81,507.07Z"/><path class="cls-6" d="M491,303.12c-.06,14.59-6.63,25.75-17.46,35.17-4.77,4.16-8.26,9.78-12.32,14.74-6.52,2.09-10,5.54-5.84,12.62,3.46,5.87,2.57,12,.89,18.93-3.8-7.47-5.42-15-7.52-22.08-2.92-.31-4.09,3.58-7.48,1.79.38-3.62.76-7.33,1.14-11,7.78-2.66,4.53-9.74,3.12-13.1-3.56-8.5-8.76-16.48-14.25-24-3.29-4.49-4.36-8.18-1.43-12.86,3.12-.62,3.44,3.17,5.78,3.82,6.46-14.54,9.61-16.74,24.56-17.24,2.25-.08,4.66.37,6.72-.28,8.94-2.83,12.73,2.63,15.82,9.38,1,2.24,1.92,4.55,2.85,6.77C487.9,305.43,488.65,302.68,491,303.12Z"/><path class="cls-7" d="M442.41,353.25c-.38,3.71-.76,7.42-1.14,11,3.39,1.79,4.56-2.1,7.48-1.79,2.1,7.08,3.72,14.61,7.52,22.08,1.68-6.92,2.57-13.06-.89-18.93-4.17-7.08-.68-10.53,5.84-12.62,6.42,3.61,7.38,8.23,3.54,14.63-2.85,4.75-1.77,10.08-.24,16.16,4.11-7.14,6.11-14,7.77-20.94,2.73-.58,4,3.1,7,2a27.26,27.26,0,0,1,.25-2.75c.57-2.93-2.66-7.35,1.13-8.57,4-1.28,8.43.92,11.57,4,1.7,1.69,2.63,4.15,3.91,6.26-.87.42-1.78,1.28-2.59,1.19-6.73-.7-8.6,2.59-8.09,8.78.43,5.14.08,10.35.08,15.52-14.84,1-29.74-.63-44.56,1-8.14-1.9-16.39-.49-24.58-.9l-.53-.2c2.74-8.33,5.1-16.81,8.32-24.95C427.71,355.44,432.3,353,442.41,353.25Z"/><path class="cls-6" d="M441,390.42c14.82-1.67,29.72-.05,44.56-1,9.7-5.57,16.24-14.39,23.33-22.66.25-3,.71-6,.71-9q.09-41,0-82.08c0-1.75,0-3.51,0-5.27.08-3,1.63-4.5,4.69-4.67,3.47-.2,4.19,1.72,4.19,4.67q-.06,50.08,0,100.16a6.36,6.36,0,0,1-1.84,4.76Q506,386,495.36,396.63c-2.24,2.24-5.13,1.66-7.84,1.67q-24.86.1-49.7.15c-.34,0-.68.07-1,.08C439.14,396.32,440.1,393.4,441,390.42Z"/><path class="cls-8" d="M814.92,401.84c-2.63,1.32-3.58,4.12-5.43,6.13-1.19,1.29-2.18,2.86-4.36,2-2.33-.93-2.67-2.71-2.27-4.9.14-.73-.14-1.56.07-2.25.73-2.45,3.16-5.78-.49-6.83-2.32-.66-2.7,3.43-3.72,5.57-.87,1.82-1,5-4.49,3.38s-1.88-4-.77-6.21c5.1-10.35,10.27-20.66,15.26-31.06,1.36-2.84,2.64-4.68,6.22-3.12,3.16,1.38,3.53,3.05,2.81,6.42-1.49,7-4.91,13.64-5.06,22.5,6.37-4.81,9.21-11,13.27-16.08,2.33-2.92,4-5.68,8.44-3.22,5,2.78,1.29,5.76.17,8.16-4.53,9.79-9.41,19.42-14.33,29-1,1.88-1,5.73-4.88,4s-1.64-4.5-.65-6.94c.65-1.61,1.27-3.24,1.9-4.87,1-1,2.18-2.36.61-3.44C816.06,399.3,815.29,400.69,814.92,401.84Zm-2.66-7.75c-.15.15-.41.29-.42.46s.21.34.33.52c.15-.15.4-.29.42-.45S812.38,394.27,812.26,394.09Z"/><path class="cls-3" d="M491,303.12c-2.35-.44-3.1,2.31-5.42,2.65-.93-2.22-1.82-4.53-2.85-6.77-3.09-6.75-6.88-12.21-15.82-9.38-2.06.65-4.47.2-6.72.28-14.95.5-18.1,2.7-24.56,17.24-2.34-.65-2.66-4.44-5.78-3.82-.47-18.09,12.34-32.28,29.86-33.06C476.25,269.53,490.21,284.19,491,303.12Z"/><path class="cls-8" d="M703.31,315.56a8.92,8.92,0,0,1-1.06,2.95c-6.62,8.79-8.94,19.61-13.93,29.16-1,1.92-1.56,4.32-4.88,2.76s-2.63-3.58-1.37-6c1.81-3.57,3.58-7.16,5.2-10.82.82-1.87,1.38-4.06-1.23-5.06-2.3-.87-3,1.19-3.79,2.67-2,3.78-3.78,7.63-5.67,11.44-1,2-2.17,3.3-4.7,1.94-2.27-1.22-2.62-2.92-1.61-5q8.43-17.19,17-34.32a4.22,4.22,0,0,1,1.89-2.12C693.23,301.82,703.81,310.72,703.31,315.56ZM693.17,311c-3,2-3.92,5.68-5.33,8.93a2.1,2.1,0,0,0,2,3.13c4.66-.52,5.07-4.89,6.43-8.16C697.11,312.93,695.67,311.71,693.17,311Z"/><path class="cls-8" d="M680,304c-.48,1.35-.7,4.3-2.29,5.91-6.91,7-7.36,17.07-12.14,25-1.31,2.17-1.46,5.88-5.65,3.71s-1.3-4.64-.38-6.93c1.39-3.49,3.11-6.86,4.51-10.35.69-1.73.64-3.6-1.56-4.32-2-.66-2.54,1.2-3.2,2.41-2.06,3.73-4.08,7.49-5.91,11.33-1.24,2.59-2.83,3.15-5.4,1.94-2.82-1.32-1.75-3.06-.83-4.91,5.48-11,11.05-22,16.34-33.08,1.45-3,2.89-3.3,5.82-2.1C676.67,295.62,680,298.54,680,304Zm-10.41-4c-2.84,2.08-3.83,5.67-4.81,9.15a1.84,1.84,0,0,0,2.23,2.21c4.38-1.05,5.2-4.88,5.85-8.53C673.17,301.18,672,300.06,669.6,300Z"/><path class="cls-8" d="M729.44,367.4a25.38,25.38,0,0,1,1.33-4.4c4.44-9.28,9.05-18.47,13.47-27.75,1.3-2.73,2.9-4,5.88-2.65,3.52,1.56,1.39,3.7.51,5.53-4.15,8.59-8.42,17.11-12.61,25.68-1,2-2.44,4.65,0,6.07,3.17,1.84,4.32-1.43,5.39-3.53q6.5-12.74,12.68-25.64c1.25-2.59,2.35-4,5.61-2.46s1.82,3.59.88,5.5c-4.68,9.44-9.25,18.94-14.25,28.21-2.25,4.18-5.79,7.16-11.15,5.08C733.06,375.45,729.43,373.29,729.44,367.4Z"/><path class="cls-8" d="M634.93,325.78c-7.53-.17-12.15-6.4-9.14-13.47,4.21-9.9,9.21-19.47,14-29.13,1-1.93,1.89-4.4,5-2.64,2.68,1.51,2.31,3.45,1.18,5.72-3.69,7.4-7.51,14.75-10.9,22.29-1.38,3.07-6,7.38-1.77,9.64,4.6,2.48,5.31-3.81,6.91-6.76,3.94-7.27,7.48-14.75,11.13-22.17,1-2.11,1.91-4.3,4.94-3,3.34,1.41,2.59,3.74,1.37,6.19-4.35,8.75-8.56,17.56-13.06,26.22C642.58,322.45,640.12,326.1,634.93,325.78Z"/><path class="cls-8" d="M770.77,388.5a15.22,15.22,0,0,1,1.72-7.25q6.36-12.81,12.71-25.62c1.14-2.29,1.9-4.73,5.46-2.87s1.82,4.11.78,6.23c-4.07,8.34-8.26,16.62-12.36,24.94-1.09,2.21-3,5.07,0,6.58s4.29-1.72,5.39-3.88c4.11-8,8-16.17,12.12-24.2,1.13-2.18,1.49-5.9,5.65-4.09s1.74,4.41.6,6.7c-4.68,9.42-9.26,18.9-14.24,28.17-2.05,3.81-5.63,5.82-10.17,4.17C774.29,395.88,770.49,393.9,770.77,388.5Z"/><path class="cls-8" d="M602.6,304.09c3.71-10.39,8-21.61,15.86-30.94,2.71-3.22,6.77-2.9,10.39-.91s5.54,5.12,4.7,9.34a25.32,25.32,0,0,1-2.18,6.36c-1,2-1.24,5.23-5.13,3.64s-2-3.82-1.2-6.09a34.52,34.52,0,0,0,1.29-3.52c.38-1.52.33-3.09-1.35-3.82-1.43-.61-2.47.43-3,1.53-3.9,7.55-7.76,15.12-11.51,22.75-.65,1.31-.88,3.2.61,4.1,1.92,1.15,3-.64,4.38-1.74,2.37-1.89,1.8-9.63,7.16-5.15,4.23,3.55-.92,7.55-2.83,10.82-2.18,3.73-5.85,5.4-10.35,3.67C605.29,312.55,602.79,309.76,602.6,304.09Z"/><path class="cls-8" d="M915,416c-.92,2.88-1.84,5.74-2.75,8.61Q907.62,439.33,903,454c-.55,1.78-1.08,3.53-3.5,2.79-2.07-.63-3.76-1.67-2.76-4.31s1.75-5.2-1.85-6.85-4.47,1-5.77,3c-1.56,2.45-3.34,1.6-5.13.53-2.21-1.3-1.31-2.86-.25-4.41l21.58-31.68c1.29-1.89,2.92-2.73,5.09-1.35C912.2,412.89,914.93,413,915,416Zm-11.66,12.49c-3.55,2.34-4.82,5.68-6.76,8.38a2.29,2.29,0,0,0,.93,3.71,2.38,2.38,0,0,0,3.63-1.34C902.27,436.3,904,433.43,903.33,428.52Z"/><path class="cls-8" d="M707.29,356.78c3.91-11.3,8.14-22.53,16-31.86,2.78-3.3,6.78-2.75,10.4-.8s5.66,5.12,4.72,9.32a41.64,41.64,0,0,1-3,7.69c-.75,1.68-1.76,2.95-4.07,1.92s-2.82-2.24-2.24-4.7c.63-2.69,5.35-6.24.42-8-3.69-1.34-4.6,3.73-6,6.44-2.93,5.54-5.64,11.2-8.29,16.88-.82,1.77-1.74,4.19.6,5.3s3.58-1.09,4.64-2.8c.92-1.49,1.57-3.14,2.5-4.63s2.55-1.31,4-.65c1.12.52,2.7,1.21,2.15,2.63-1.64,4.17-3.14,8.51-7,11.34-3.26,2.39-6.59,1.89-9.9.07A8.64,8.64,0,0,1,707.29,356.78Z"/><path class="cls-8" d="M748.88,638.24c.8,1,1.48,2.61,2.43,2.78,14.39,2.62,10.87,17.88,18.06,25.61,2.27,2.43,1.06,5.19-2.88,5.47-2.84-3.07-6.65-4.29-10.52-5.3-6.38-1.66-14.45,0-16.56-9.54-.6-2.69-4.11-2.22-6.54-2.53a6.74,6.74,0,0,0,0-1.1C740.58,651,742.8,642.59,748.88,638.24Z"/><path class="cls-8" d="M869.26,393.27c-.39.61-.89,1.46-1.45,2.28C860.87,405.68,853.88,415.77,847,426c-1.68,2.49-3.36,3.25-6.26,2-3.22-1.46-3.66-3.4-2.61-6.59,3.64-11.2,7-22.48,10.59-33.7.63-2,.82-4.83,4.25-4,3.68.94,2.87,3.4,2,5.9-1.64,4.73-3.22,9.48-4.89,14.2-.4,1.13-1.61,2.31-.27,3.32,1.63,1.23,2.79-.1,3.63-1.34,3.09-4.56,6.12-9.17,9.14-13.78,1.06-1.62,2.24-2.77,4.29-1.55C867.92,391,869.29,391.35,869.26,393.27Z"/><path class="cls-8" d="M924.64,446.72c-4.25-2.6-5.21,1.6-6.73,4.63-1.58,3.19-3.51,6.47,1.46,8.64,1.88.82,2.6,2.34,1.63,4.29-1.27,2.56-3.08,1.64-5.07.88-10.22-3.89-10.48-4.41-5.69-14.23q6.59-13.49,13.34-26.9c.92-1.82,1.5-5,4.64-3.36,3.61,1.91,8.7,2.32,10.21,6.57.78,2.17-1.3,5-4.78,2.91-2.46-1.46-4.87-2-5.87,1.45-.9,3.13-5.55,6.36-.29,9.64,2,1.23,3,2.46,1.64,4.82C928.14,447.74,926.94,447.9,924.64,446.72Z"/><path class="cls-8" d="M874.33,444.33c-3.74-1.16-5.37-2.71-3.28-6.62,4.47-8.39,8.55-17,12.82-25.48,1.22-2.43,3.14-4.74-.22-7.13-1.52-1.08-.95-2.67,0-4,1.15-1.58,2.61-1.06,4-.42,3.18,1.46,6.36,2.93,9.52,4.44,1.4.67,2.75,1.54,2,3.42-.55,1.34-1.09,3.22-3,2.8-4.7-1.05-5.31,2.67-6.71,5.43-4,7.82-7.77,15.71-11.78,23.49C876.89,441.87,876.76,444.37,874.33,444.33Z"/><path class="cls-8" d="M766.16,385.73c-.59,1.13-.88,2.58-1.54,2.78-4.38,1.34-7.27-2.26-10.86-3.59-2.67-1-3.14-2.81-1.86-5.37,5.61-11.18,11.2-22.37,16.63-33.64,1.39-2.89,3.07-2.51,5.39-1.51,3.07,1.32,1.52,3.37.77,5-4,8.35-8.13,16.64-12.29,24.91-1.83,3.64-4.47,7.27,1.81,9.36C765,383.89,765.49,385,766.16,385.73Z"/><path class="cls-8" d="M697.08,356.88c-3.33-1.11-5.16-2.32-3.25-6,5.72-11.11,11.16-22.37,16.67-33.6,1-2.05,2-3.34,4.58-1.93,2.12,1.17,2.9,2.37,1.72,4.76-5.79,11.65-11.46,23.35-17.18,35C699,356.3,698.21,357.15,697.08,356.88Z"/><path class="cls-8" d="M880.07,398.85c-.37.84-.72,1.78-1.17,2.68q-8,16.19-16.09,32.36c-1.07,2.15-2.09,3.95-5.11,2.37s-2-3.48-1-5.6q8.17-16.53,16.33-33.08c.78-1.57,1.39-3.54,3.76-2.44C878.32,395.85,880.16,396.47,880.07,398.85Z"/><path class="cls-8" d="M508.86,366.72c-7.09,8.27-13.63,17.09-23.33,22.66,0-5.17.35-10.38-.08-15.52-.51-6.19,1.36-9.48,8.09-8.78.81.09,1.72-.77,2.59-1.19C500,366.51,504.68,365.46,508.86,366.72Z"/><path class="cls-7" d="M564.14,472.11c-8.76,5.79-13.77,15.23-21.44,22.08a10.9,10.9,0,0,1-5.79-5.29l20-23.62C560.48,466.37,563.26,468.24,564.14,472.11Z"/><path class="cls-6" d="M584.62,468c-8.35-2.91-16.23-6.5-21.18-14.4C571.11,457.5,579.83,459.85,584.62,468Z"/><path class="cls-6" d="M561.81,453c-4.25-.39-8.22-1.26-10.06-5.81C556.76,446.3,559.53,449.26,561.81,453Z"/><path class="cls-6" d="M551.36,446.87c-4.17,0-7.18-1.77-8.78-5.71C547.49,440,549.68,443,551.36,446.87Z"/><path class="cls-6" d="M542.37,440.94c-2.3-.08-5.13.88-5.58-2.84C539.5,437.39,541.79,437.5,542.37,440.94Z"/><path class="cls-6" d="M536.32,437.69c-2.36.61-4.09-.34-5.49-2.16C533.35,434.51,535.94,433.3,536.32,437.69Z"/><path class="cls-4" d="M967,862.64c-10-14.63-17.87-30.25-20.39-48-9.41-66.56,42.76-117,97.28-117.7,48.94-.59,81.66,22.86,101,66.79a174.32,174.32,0,0,1,5.88,29.88c1,11.11,1.17,11.1,12.24,11.8,8.74,3.3,7.18,10.18,5.9,17-2.84,6.61-8.2,7.83-14.26,5.82s-8.11,0-10.15,5.74c-9,25.19-25.43,44.57-49.48,56.27-45.08,21.92-91.78,12.12-126.47-25.51l.06.11Zm80.93-1.7c34.8.12,62.58-27.43,62.51-62-.06-34.11-28.71-62.52-62.74-62.23a62.18,62.18,0,0,0-61.4,61.73C986.17,833.74,1012.88,860.82,1047.88,860.94Z"/><path class="cls-7" d="M504.18,182c-10.09-10.61-18.71-22.1-22.43-36.61l-.93-1.69v-.27c-1.13-7.2-4.93-11.73-12.5-12.48-9.24-.92-13.46-.06-18.61,10.36-1,3.08-2.23,6.11-3.12,9.23C443.89,160,440,168.83,432.9,176c-14.74,14.79-32.81,15.78-51.89,12.75-2.42-.84-4.67-2.73-7.47-1.23l0,0c-9.74-4.64-19.3-9.94-30.72-8.44-6-8.42-1.43-17.53-1.65-26.31-.28-11.09.75-22.15-10.15-30.06-6.42-4.65-2.94-17.32,4.82-19.07,17.87-4,36.09-4.65,54.31-4.38,22.64.33,44.63,5.49,66.82,9.33,11,1.9,22.08-.38,32.52-3.34,31-8.75,62.44-10.11,94.13-7,6.17.59,15.49-.78,17.23,9.49.19.68.39,1.37.58,2.06h0c-.33,3.1.41,6.39-3.21,8.5-7.87,4.59-8.46,12.77-9.74,20.65-1.61,10,3.4,19.31,2.13,29.33-1.13,8.91-1.9,9.9-11,7.52-1.58-1.88-2.85-1.82-4.94-.21-16.74,12.89-36.14,13.25-55.93,11.48Zm72.65-24.59c8.23-14,6.7-28.65,2.79-43.33-1.3-4.86-5.13-8-10.27-8.88-21.71-3.65-43.25-3.9-64.48,3-5.45,1.78-6.63,3.25-1.4,7.43,4.82,3.85,11.09,6.46,13.44,12.95-8.93-.6-17.86-1.26-26.79-1.76-3.4-.19-4.95,1.63-4.86,5.1.63,25.4,22.78,49.24,48,50,13.45.4,26.82-2.21,37.19-12.39C574.73,166.64,576.39,162.35,576.83,157.43Zm-145.28,8.31c6-6.92,8.77-15.37,11.2-24,1.91-4.13,1.56-8.47,1.24-12.81-1-9.77-7.75-16.72-19.55-19.78C407,104.68,389.36,104,371.57,106c-3.34.37-6.82.69-10.06,3.33,5.48,4.42,10.81,8.17,15.42,12.66,3.36,3.27,9.14,4.49,9.6,10.44-2.25,0-4.49.08-6.74.09-17.52.11-24.65.49-25,25-.15,10.23,2.9,15.76,12.45,20.05,9.76,4.38,20,7.1,30.65,6.65C412,183.64,424.32,179.16,431.55,165.74Zm-65.79-42.36c-6.13-3.85-12.82-3.26-17.13-.51-3.61,2.29-1.68,8.78-.6,14.22C353.16,130.85,358.53,126.37,365.76,123.38Z"/><path class="cls-5" d="M968.49,864.68c34.69,37.63,81.39,47.43,126.47,25.51,24-11.7,40.48-31.08,49.48-56.27,2-5.72,4.19-7.71,10.15-5.74s11.42.79,14.26-5.82c4.48.35,9,1.54,10.36,6.12,1.6,5.48-.15,11.07-3.26,15.69-2,2.9-5.6,2.78-9,2.09-10.22-2.06-9.57-1.71-13.73,7.86-15.49,35.66-41.86,57.61-81,63.65-23.58,3.65-45.33-1.29-65.92-12.27-15.84-8.45-27-21.94-37-36.48C968.51,867.92,968.73,866.14,968.49,864.68Z"/><path class="cls-4" d="M579.61,175.76c9.1,2.38,9.87,1.39,11-7.52,1.27-10-3.74-19.37-2.13-29.33,1.28-7.88,1.87-16.06,9.74-20.65,3.62-2.11,2.88-5.4,3.21-8.5,11.22,7.64,11.05,12.79,2,22.82-6.4,7.08-6.39,17.07-6.13,26.26.17,6.44,2.47,12.7,2.6,19.26.18,9.39-3.89,12.68-12.17,8.83-2.66-1.24-3.19.07-4.83,1.24C565,200.92,532.16,205,512,190.8c-3.26-2.29-6.57-4.63-7.79-8.78l14.56,5c11.48,8.07,24.23,7.87,37.24,5.56,9-1.59,17-4.92,24-11.26C583.11,178.44,580.64,177.53,579.61,175.76Z"/><path class="cls-4" d="M449.71,141.33c5.15-10.42,9.37-11.28,18.61-10.36,7.57.75,11.37,5.28,12.5,12.48-13.37-3.25-19.18.17-23.86,13.29-2.84,8-4.37,16.41-9.19,23.69C435.25,199.35,417,203.79,396,201.22c-11-1.34-21.69-3.85-30.73-10.77-2.22-1.7-3.54-.86-5.12.64a5.66,5.66,0,0,1-9.09-1.05c-2.28-4.15-5.86-7.06-8.22-11,11.42-1.5,21,3.8,30.72,8.44,6.81,5.17,14.81,6.89,23,7.68,27.11,2.58,38.47-3.72,50.58-28.82,3.41-7.08,6.47-14.75,6-23.14C453,140.3,452.07,139.77,449.71,141.33Z"/><path class="cls-9" d="M1163,805.39c-11.07-.7-11.19-.69-12.24-11.8a174.32,174.32,0,0,0-5.88-29.88c5.85,2.29,5.28,8.55,7.48,12.91,3.53,7,6.41,14.57,6.18,22.63C1158.39,803,1162.79,802.44,1163,805.39Z"/><path class="cls-5" d="M441,390.42c-.87,3-1.83,5.9-4.17,8.11a20.49,20.49,0,0,0-4.42-.07c-7.92,1.57-12.83-2.08-16-8.94C424.58,389.93,432.83,388.52,441,390.42Z"/><path class="cls-9" d="M601.46,109.75c-.19-.69-.39-1.38-.58-2.06C601.07,108.37,601.27,109.06,601.46,109.75Z"/><path class="cls-9" d="M480.82,143.72l.93,1.69Z"/><path class="cls-9" d="M967,862.64l1.6,2.15C968,864.08,967.48,863.36,967,862.64Z"/><path class="cls-5" d="M1098.35,63.52c-15.31,19.76-32.4,38-48.8,56.81-7.52,8.63-14.93,17.38-22.78,25.71-5.73,6.09-13.67,6.07-20.17.84-1.64-1.32-1.72-2.91-1.54-4.7,18-20.65,35.88-41.38,54-61.94,10.4-11.83,20.09-24.31,31.43-35.31C1096.83,49.54,1099.19,55.85,1098.35,63.52Z"/><path class="cls-8" d="M1098.35,63.52c.84-7.67-1.52-14-7.9-18.59l35-41.14c8.88,4.93,12,14.86,6.13,21.91C1120.8,38.55,1110.31,51.69,1098.35,63.52Z"/><path class="cls-7" d="M751.22,61.54c-1.19-2.61-3.65-2.9-6-3.33-5.13-7.55,1-7.48,5.69-8.39.06,3,2.64,3.5,4.59,4.63l3.78,3.11c1.62,2.85,4.49,4.14,7.14,5.68.22,6.85-2.82,7.69-8.1,4.42-1-1.49-2.16-2.92-4-3.52Z"/><path class="cls-6" d="M751.22,61.54l3.07,2.6c-7.24,8.52-14.45,17.06-21.72,25.54-1.23,1.44-2.64,4.25-4.53,2.84-2.29-1.71-.32-3.81,1.26-5.6C736.67,78.52,743.92,70,751.22,61.54Z"/><path class="cls-7" d="M791.62,32c-1-2-1.57-4.29-4.17-4.9l-3.7-3.25c-1.19-2.09-3.16-2.89-5.4-3.24-.66-4.66.58-7.74,6.07-7.28,3.89,4.77,5.49,12,13.48,12.35C799.13,31,796,32.1,791.62,32Z"/><path class="cls-6" d="M877.89,144.75c4.17.22,7.49-3.45,11.81-2.59-.8,5.68,4.25,10.39,2.72,16.2l-2.52,1.82C884.75,155.93,881.07,150.53,877.89,144.75Z"/><path class="cls-7" d="M766.48,41.72l-3.06-2.29c-4.3-6.45-4-7.08,4.26-7.88a19.59,19.59,0,0,0,7.33,6.7,1.15,1.15,0,0,0,.26,1.09c-1.68,2.73-3.89-2-5.68.52.86,1.81,1.73,3.68,2.61,5.54Z"/><path class="cls-6" d="M766.48,41.72l5.72,3.69-.09-.15,1.63,1.64-.15-.09.85,1.66a1.25,1.25,0,0,0-1-.24c-4.68-.3-6.71,3.63-9.5,6.18-1.46,1.34-2.48,3.06-4.71,3.15l-3.78-3.11C759,50.11,765.32,48.14,766.48,41.72Z"/><path class="cls-8" d="M791.62,32c4.36.14,7.51-.92,6.28-6.32,5-1.64,5.46,2.27,5.75,5.24a5.72,5.72,0,0,1-5,6.4C795,37.77,791.63,36.77,791.62,32Z"/><path class="cls-8" d="M784.42,13.29c-5.49-.46-6.73,2.62-6.07,7.28-4.78.7-6-2.53-6.17-6.15a5.42,5.42,0,0,1,4.71-5.77C780.58,8,783.77,8.73,784.42,13.29Z"/><path class="cls-6" d="M775.27,39.34a1.15,1.15,0,0,1-.26-1.09c-.66-7,4.16-10.63,8.74-14.44l3.7,3.25c-2.57,5-8.85,7.44-9.43,13.79Z"/><path class="cls-8" d="M782.73,44.13c4.22.69,4.91,3.77,4.34,7.15a5.69,5.69,0,0,1-5.63,5c-5.3.11-7.06-3.67-8-8.09a1.25,1.25,0,0,1,1,.24C780.62,52.54,781.25,52.21,782.73,44.13Z"/><path class="cls-8" d="M767.68,31.55c-8.23.8-8.56,1.43-4.26,7.88-4.5,1.82-6.56-.9-7.58-4.52-1-3.35.9-6,3.92-7.1C763.28,26.55,766.72,26.77,767.68,31.55Z"/><path class="cls-8" d="M807.57,12c6.82,3.46,7.62-.31,7-5.81,4.78.22,5.78,3.43,5.26,7.26A5.36,5.36,0,0,1,814,18.32C810.11,18.21,807.17,16.68,807.57,12Z"/><path class="cls-8" d="M758.28,67.66c5.28,3.27,8.32,2.43,8.1-4.42,5,.93,4.87,4.58,3.79,8.07a5.31,5.31,0,0,1-6.53,3.83C759.88,74.25,757.28,72.14,758.28,67.66Z"/><path class="cls-8" d="M750.87,49.82c-4.68.91-10.82.84-5.69,8.39-4.62.79-5.51-2.54-5.84-5.78-.28-2.7,1.54-4.83,4-5.73C746.57,45.52,749.74,45.47,750.87,49.82Z"/><path class="cls-7" d="M889.9,160.18l2.52-1.82,6.07.06c-.18,3.34-.45,6.67-2.63,9.45A14.78,14.78,0,0,1,889.9,160.18Z"/><path class="cls-7" d="M782.73,44.13c-1.48,8.08-2.11,8.41-8.29,4.34l-.85-1.66c2.32-.05,4.7,0,4.84-3.29C780,42.57,781.3,43.87,782.73,44.13Z"/><path class="cls-8" d="M778.43,43.52c-.14,3.27-2.52,3.24-4.84,3.29l.15.09-1.63-1.64.09.15c-.88-1.87-1.75-3.74-2.61-5.55,1.79-2.47,4,2.21,5.68-.52L778,40.85a2.1,2.1,0,0,1,.26,1.23c-.89.63-1.4,1.23.14,1.65Z"/><path class="cls-6" d="M868.85,110.05c2.13,3.29,2.65,7,2.63,10.78-3.21-.67-5-2.76-6-5.78l.4-.5C869.41,114.71,868.32,111.85,868.85,110.05Z"/><path class="cls-6" d="M763,10.75c-3.7-.56-7.67-.8-7.51-6.11l.3-.3c3.38.94,6.14,2.66,7.57,6Z"/><path class="cls-6" d="M853.89,51c2,2.81,2.44,6.05,2.46,9.4a11.48,11.48,0,0,1-6-5.79l.48-.5C853.26,54.43,853.48,52.63,853.89,51Z"/><path class="cls-6" d="M978.85,119.41a7.94,7.94,0,0,1-6.18-6l.45-.46a8,8,0,0,1,6.15,5.91Z"/><path class="cls-6" d="M1060.36,16.78c-3.19-.85-5.4-2.69-6.08-6.05l.3-.31a7.84,7.84,0,0,1,6.2,5.83Z"/><path class="cls-6" d="M973.1,81.3a8,8,0,0,1,6.14,6l-.44.45a8.1,8.1,0,0,1-6.15-5.9Z"/><path class="cls-6" d="M734.61,16.42c2.16,1.88,5.32,2.76,6.07,6.06l-.31.32c-4.17.2-6-2-6.17-6Z"/><path class="cls-6" d="M907.92,10.73c-2.8-.65-4.68-2.15-5.48-5.8,3.6.81,5.21,2.58,5.86,5.41Z"/><path class="cls-6" d="M726.76,42.44c-3.19-.22-5.87-1-5.75-5.59,3.1,1,4.66,3,6.12,5.22Z"/><path class="cls-6" d="M894.33,30.34c-2.45-.44-4.13-1.61-4.12-4.75,2.95.14,4,2,4.45,4.41Z"/><path class="cls-6" d="M992.39,68.14a4.7,4.7,0,0,1-4.2-4.8c3.08,0,4,2,4.65,4.34Z"/><path class="cls-6" d="M707.44,8.89c2.47.42,4,1.68,4.22,4.74-3.06-.11-4-2-4.56-4.39Z"/><path class="cls-6" d="M844.72,14.94a16.3,16.3,0,0,1,2.2,7.73c-1.85-1.62-3.59-3.32-3.92-5.94l.26-.26Z"/><path class="cls-6" d="M859.89,75.22a15.42,15.42,0,0,1,2.43,7.87c-2.2-1.43-3.07-3.81-4.24-6,0,0,.29-.3.29-.3Z"/><path class="cls-6" d="M838.79,75.24c2.35.57,4.13,1.65,4.07,4.79-3,0-3.89-2-4.53-4.31Z"/><path class="cls-6" d="M1040.73,47c-1.76-.35-3.33-1-3.83-2.92-.23-.9.32-1.44,1.21-1.23,1.92.46,2.66,2,3,3.73Z"/><path class="cls-6" d="M893.09,43.6c2.57.44,4.21,1.84,4.58,4.52l-.34.35a5.14,5.14,0,0,1-4.66-4.37Z"/><path class="cls-6" d="M933.57,48.45C931,48,929.33,46.64,929,43.93l.29-.3a4.85,4.85,0,0,1,4.6,4.5Z"/><path class="cls-6" d="M846,51.52c-1.72-.47-3.5-.89-3.64-3.12a1.29,1.29,0,0,1,.87-.9c2.18.13,2.76,1.8,3.22,3.55Z"/><path class="cls-6" d="M930.53,108.84a5,5,0,0,1-4.57-4.52l.33-.34a5,5,0,0,1,4.6,4.5Z"/><path class="cls-6" d="M938.35,114.57a5,5,0,0,1,4.7,4.39l-.46.48c-2.5-.55-4.23-1.86-4.5-4.61Z"/><path class="cls-6" d="M927.83,73.75c1.74.44,3.5.89,3.64,3.13a1.32,1.32,0,0,1-.89.89c-2.2-.14-2.76-1.82-3.16-3.6Z"/><path class="cls-6" d="M962.22,25.83c-1.76-.3-3.34-.92-3.86-2.84-.25-.9.38-1.42,1.23-1.23,1.95.42,2.65,1.95,3,3.72Z"/><path class="cls-6" d="M853.85,135.68a5.11,5.11,0,0,1,4.65,4.44l-.44.46c-2.52-.54-4.22-1.87-4.53-4.58Z"/><path class="cls-6" d="M923.28,164.33c2.54.48,4.21,1.85,4.58,4.53l-.34.34a5.14,5.14,0,0,1-4.66-4.44Z"/><path class="cls-6" d="M917.24,33c2.57.47,4.22,1.85,4.54,4.56l-.27.28a5,5,0,0,1-4.68-4.42Z"/><path class="cls-6" d="M1048.54,21a4.85,4.85,0,0,1,4.58,4.5l-.31.32a4.86,4.86,0,0,1-4.55-4.54Z"/><path class="cls-6" d="M835.42,10.78c-1.71-.36-3.31-.95-3.75-2.89a1,1,0,0,1,1.25-1.25c2,.43,2.6,2,2.92,3.72Z"/><path class="cls-6" d="M1001.46,75.65a5.07,5.07,0,0,1-4.64-4.47l.42-.43c2.52.5,4.2,1.87,4.58,4.53Z"/><path class="cls-6" d="M823.36,110.36a5,5,0,0,1-4.63-4.48l.42-.43a5.18,5.18,0,0,1,4.56,4.55Z"/><path class="cls-6" d="M689.33,8.87c2.52.5,4.19,1.86,4.61,4.5l-.38.39a5.18,5.18,0,0,1-4.63-4.47Z"/><path class="cls-6" d="M808.29,113.35c-1.77-.33-3.34-1-3.81-2.93-.21-.9.36-1.44,1.25-1.21,1.91.5,2.71,1.94,2.9,3.8Z"/><path class="cls-6" d="M981.83,27.38c-2.51-.54-4.22-1.86-4.53-4.58l.31-.31a5.17,5.17,0,0,1,4.67,4.42Z"/><path class="cls-6" d="M986.73,93.34c2.5.54,4.2,1.88,4.53,4.58l-.33.33a5.25,5.25,0,0,1-4.68-4.42Z"/><path class="cls-6" d="M1013.58,86.16a5,5,0,0,1-4.67-4.43l.41-.42c2.55.49,4.21,1.87,4.53,4.58Z"/><path class="cls-6" d="M941.38,22.49c2,.42,3.79,1.13,3.94,4.14-2.81.1-3.84-1.47-4.25-3.82Z"/><path class="cls-6" d="M898.86,18.26c-2.57-.44-4.26-1.78-4.6-4.5l.33-.33A5,5,0,0,1,899.16,18Z"/><path class="cls-6" d="M989.68,33.06a5,5,0,0,1,4.66,4.44l-.43.43c-2.52-.53-4.23-1.85-4.51-4.59Z"/><path class="cls-6" d="M939.66,179.72c-2.61-.4-4.26-1.78-4.61-4.5l.29-.29a4.88,4.88,0,0,1,4.58,4.53Z"/><path class="cls-6" d="M921.49,69.6c-2.57-.46-4.2-1.87-4.55-4.56l.29-.28a5,5,0,0,1,4.66,4.36Z"/><path class="cls-6" d="M923.29,22.44c1.73.39,3.33,1,3.81,2.95.22.88-.32,1.44-1.21,1.22-1.91-.46-2.7-1.93-3-3.72Z"/><path class="cls-6" d="M729.76,13.8c-1.36-.19-3,.19-3.8-1.3a1.86,1.86,0,0,1,.78-1.63c2.11-.67,3,.61,3.49,2.45Z"/><path class="cls-6" d="M1007.78,33.07c1.69.22,2.79,1,2.53,2.88,0,.22-1,.53-1,.47-.63-1-1.18-2-1.75-3.08Z"/><path class="cls-6" d="M849.31,33.1c1.9,1.8,1.48,3.94.9,6.11l-2.85-2.71a6.67,6.67,0,0,0,.59-.6Z"/><path class="cls-6" d="M865.93,146.21c1.64.31,2.8,1.07,2.53,2.95,0,.22-1,.56-1,.5-.68-1-1.29-2-1.91-3Z"/><path class="cls-6" d="M859.91,156.75c2.86.45,2.72,2.68,2.84,4.76l0,0a5.69,5.69,0,0,1-3.27-4.3Z"/><path class="cls-6" d="M1016.87,72.28c1,.58,2.1,1.15,3.1,1.79.06,0-.26,1-.47,1.07-1.86.25-2.71-.81-3-2.52Z"/><path class="cls-6" d="M954.79,98.15c-1.55-.32-2.93-.84-2.6-2.83,0-.21,1-.49,1.06-.44.6,1,1.11,2.1,1.64,3.17Z"/><path class="cls-6" d="M926,89.21c-1-.58-2.1-1.15-3.11-1.8-.06,0,.26-1,.47-1.07,1.86-.24,2.71.82,3,2.53Z"/><path class="cls-6" d="M909.41,27.33a3.19,3.19,0,0,1-3.14-2.88l.38-.46a3.15,3.15,0,0,1,3.09,3Z"/><path class="cls-6" d="M995.43,86.21a3.11,3.11,0,0,1-3-3l.32-.32a3.12,3.12,0,0,1,3.08,3Z"/><path class="cls-6" d="M1028.63,4.72c-1.17-.28-2.35-.55-2.3-2.11a.7.7,0,0,1,.48-.48c1.53-.09,1.94,1,2.2,2.19Z"/><path class="cls-6" d="M1025.83,33.14c.91.24,2,.25,2.17,1.48,0,.25-.56.85-.81.82-1.22-.17-1.27-1.25-1.48-2.18Z"/><path class="cls-6" d="M975.81,6.21a3.25,3.25,0,0,1-3.13-3l.43-.44a3.16,3.16,0,0,1,3,3.05Z"/><path class="cls-6" d="M938.08,68.09c-1.2-.25-2.35-.56-2.3-2.13a.71.71,0,0,1,.49-.49c1.54-.06,2,1,2.17,2.26Z"/><path class="cls-6" d="M959.18,7.75c-1.17-.29-2.3-.64-2.25-2.17a.68.68,0,0,1,.48-.48c1.51-.07,1.94,1,2.21,2.2Z"/><path class="cls-6" d="M819.18,26.94a3.2,3.2,0,0,1,3,3.06l-.36.37a3.26,3.26,0,0,1-3.14-2.87Z"/><path class="cls-6" d="M903.37,37.89a3,3,0,0,1-3-3l.25-.25a3,3,0,0,1,3.09,3Z"/><path class="cls-6" d="M957.66,38a3.18,3.18,0,0,1-3-3.13l.25-.24a3.15,3.15,0,0,1,3.18,2.89Z"/><path class="cls-6" d="M885.53,5.9a3,3,0,0,1,3.06,3l-.3.3a3,3,0,0,1-3-3Z"/><path class="cls-6" d="M998.43,25.85a3,3,0,0,1-3-3.08l.26-.26a3.13,3.13,0,0,1,3.12,2.95Z"/><path class="cls-6" d="M1016.55,25.85a3.3,3.3,0,0,1-3.11-3l.43-.44a3.26,3.26,0,0,1,3.07,3Z"/><path class="cls-6" d="M915.72,94.94a3.06,3.06,0,0,1,3.07,3l-.32.32a3.06,3.06,0,0,1-3-3Z"/><path class="cls-6" d="M936.58,98.27a3,3,0,0,1-3-3l.28-.28a3.06,3.06,0,0,1,3.09,3Z"/><path class="cls-6" d="M812.79,101.3a3.06,3.06,0,0,1-3-3.06l.27-.28a3.08,3.08,0,0,1,3.09,3Z"/><path class="cls-6" d="M947.1,107.36a3.13,3.13,0,0,1-3-3.08l.29-.28a3.16,3.16,0,0,1,3.11,3Z"/><path class="cls-6" d="M965.28,107.3a3,3,0,0,1-3.06-3l.29-.29a3,3,0,0,1,3,3Z"/><path class="cls-6" d="M998.72,104a3.16,3.16,0,0,1,3.18,2.9l-.46.47a3.19,3.19,0,0,1-3-3.11Z"/><path class="cls-6" d="M959.18,117.94a3.17,3.17,0,0,1-3-3.09l.3-.3a3.17,3.17,0,0,1,3.15,2.93Z"/><path class="cls-6" d="M833.94,119.39a3,3,0,0,1-3.1-3l.38-.39a3.12,3.12,0,0,1,3,3.06Z"/><path class="cls-6" d="M979.27,118.89a5.77,5.77,0,0,1,4.39,3.23l-.31.31a5.15,5.15,0,0,1-4.5-3Z"/><path class="cls-6" d="M971.28,128.47a3.21,3.21,0,0,1-3-3l.34-.34a3.16,3.16,0,0,1,3.09,3Z"/><path class="cls-6" d="M825.19,126.58a3.19,3.19,0,0,1,3,3l-.35.35a3.29,3.29,0,0,1-3.16-2.83Z"/><path class="cls-6" d="M846,130a3,3,0,0,1-3-3l.32-.32a3.15,3.15,0,0,1,3.08,3Z"/><path class="cls-6" d="M977.6,132.64c1,.19,2,.36,2.13,1.59a1.22,1.22,0,0,1-.8.89c-1.25,0-1.49-1-1.72-2Z"/><path class="cls-6" d="M837.24,137.2a3.09,3.09,0,0,1,3.08,3l-.35.36a3.09,3.09,0,0,1-3-3Z"/><path class="cls-6" d="M805.53,78.34a3,3,0,0,1,3.08,3l-.31.31a3.07,3.07,0,0,1-3-3Z"/><path class="cls-6" d="M915.43,158.66a3.07,3.07,0,0,1-3-3l.31-.31a3.1,3.1,0,0,1,3.09,3Z"/><path class="cls-6" d="M933.52,158.69c-1-.21-2-.43-2-1.63,0-.27.55-.86.82-.84,1.18.09,1.47,1.05,1.67,2Z"/><path class="cls-6" d="M913.91,188.84a3.07,3.07,0,0,1-3-3l.31-.32a3.13,3.13,0,0,1,3.1,3Z"/><path class="cls-6" d="M1047,51.17c1.18.23,2.33.52,2.28,2.08a.68.68,0,0,1-.49.47c-1.53.05-1.91-1-2.08-2.25Z"/><path class="cls-6" d="M915.43,48.48a3.1,3.1,0,0,1-3-3l.32-.33a3.13,3.13,0,0,1,3.1,3Z"/><path class="cls-6" d="M986.36,47a3.08,3.08,0,0,1-3-3.09l.25-.25a3.11,3.11,0,0,1,3.13,2.93Z"/><path class="cls-6" d="M965.58,43.55a3.15,3.15,0,0,1,3,3.09l-.29.29A3.19,3.19,0,0,1,965.15,44Z"/><path class="cls-6" d="M699.9,17.93c1.15.31,2.33.62,2.25,2.18a.72.72,0,0,1-.48.49c-1.55.07-1.92-1.05-2.18-2.25Z"/><path class="cls-6" d="M1007.5,65.08c-1.19-.24-2.36-.52-2.3-2.1a.72.72,0,0,1,.49-.48c1.56-.1,1.94,1,2.16,2.22Z"/><path class="cls-6" d="M950.47,61.68a3.42,3.42,0,0,1,3.11,3l-.49.49a3.31,3.31,0,0,1-3.07-3Z"/><path class="cls-6" d="M827.83,19.87c-1.15-.31-2.29-.66-2.21-2.19a.71.71,0,0,1,.47-.48c1.51-.12,1.95.94,2.26,2.13Z"/><path class="cls-6" d="M846.28,66.27a3.13,3.13,0,0,1,3.1,3l-.36.36a3.09,3.09,0,0,1-3-3Z"/><path class="cls-6" d="M998.74,40.58c1.17.28,2.34.57,2.27,2.14a.7.7,0,0,1-.48.49c-1.55.07-1.92-1-2.17-2.25Z"/><path class="cls-6" d="M1003.25,13.45a3,3,0,0,1,3.06,3l-.29.29a3,3,0,0,1-3-3Z"/><path class="cls-6" d="M985.14,13.45a3.24,3.24,0,0,1,3.18,2.91l-.45.45a3.15,3.15,0,0,1-3-3.1Z"/><path class="cls-6" d="M967,13.44a3,3,0,0,1,3.09,3l-.36.36a3.09,3.09,0,0,1-3-3.05Z"/><path class="cls-6" d="M748.17,28.54c1.18.23,2.37.46,2.29,2.06a.7.7,0,0,1-.49.48c-1.56.08-1.91-1-2.08-2.25Z"/><path class="cls-6" d="M1040.72,15.26a3.07,3.07,0,0,1-3-3l.29-.29a3,3,0,0,1,3.09,3Z"/><path class="cls-6" d="M1022.58,15.29a3.12,3.12,0,0,1-3-3l.33-.33a3.16,3.16,0,0,1,3.08,3Z"/><path class="cls-6" d="M995.7,54.21a3.09,3.09,0,0,1,3.17,2.91l-.44.45a3.16,3.16,0,0,1-3-3.12Z"/><path class="cls-6" d="M941.38,54.19a3.15,3.15,0,0,1,3.09,3l-.35.36a3,3,0,0,1-3-3.05Z"/><path class="cls-6" d="M923.26,54.19c1.2.22,2.37.51,2.3,2.1a.68.68,0,0,1-.49.48c-1.56,0-1.92-1-2.09-2.29Z"/><path class="cls-6" d="M835.73,57.2a3,3,0,0,1,3.08,3l-.35.36a3.11,3.11,0,0,1-3-3Z"/><path class="cls-6" d="M905.18,54.14a3.19,3.19,0,0,1,3,3l-.32.32a3.17,3.17,0,0,1-3.13-2.95Z"/><path class="cls-6" d="M832.42,71.12a3.12,3.12,0,0,1-3-3.07l.26-.27a3,3,0,0,1,3.1,3Z"/><path class="cls-6" d="M793.46,67.77a3,3,0,0,1,3,3l-.25.25a3,3,0,0,1-3.08-3Z"/><path class="cls-6" d="M912.45,123.9c-1.88-.08-3-1-3.09-2.93l.24-.3,3.08,3Z"/><path class="cls-6" d="M933.65,16.66c-.73-.34-2.13.14-1.83-1.46a.72.72,0,0,1,.49-.48c1.58-.29,1.14,1.07,1.45,1.83Z"/><path class="cls-6" d="M987.91,31.84c-1.18-.09-2.33-.24-2.57-1.7,0-.17.23-.55.36-.55,1.33,0,2,.92,2.46,2Z"/><path class="cls-6" d="M892.67,44.1l-2.34-1.54.67-.93,2.08,2Z"/><path class="cls-6" d="M826.33,65.13c-1.16-.16-2.3-.36-2.5-1.81,0-.17.25-.54.38-.54,1.32,0,1.94,1,2.49,2Z"/><path class="cls-6" d="M945.91,168.89l2.38,1.29-.64.94-2-2Z"/><path class="cls-6" d="M841.5,15.24l-2.45-1.3.65-.94,2.06,2Z"/><path class="cls-6" d="M824.73,127.14l-2.34-1.58.68-.94,2.12,2Z"/><path class="cls-6" d="M921.89,69.12l2.38,1.51-.68.94-2.09-2Z"/><path class="cls-6" d="M818.71,27.5,816.41,26l.7-.92L819.18,27Z"/><path class="cls-6" d="M995.38,101.34a3.07,3.07,0,0,1-2.94-1.62l.29-.29a3.27,3.27,0,0,1,3,1.54Z"/><path class="cls-6" d="M956.53,99.41a3.24,3.24,0,0,1,3,1.58l-.38.37a3.29,3.29,0,0,1-3-1.6Z"/><path class="cls-6" d="M802.21,75.65a3.25,3.25,0,0,1-3-1.57l.35-.35a3.15,3.15,0,0,1,3,1.61Z"/><path class="cls-6" d="M992.42,51.48a3.28,3.28,0,0,1-3-1.55l.38-.37a3.17,3.17,0,0,1,2.92,1.64Z"/><path class="cls-6" d="M906.81,118.9l2.79,1.77-.24.3c-1.21-.1-2.35-.32-3-1.52Z"/><path class="cls-6" d="M971.61,49.62a3.05,3.05,0,0,1,3,1.58l-.3.3a3.15,3.15,0,0,1-3-1.59Z"/><path class="cls-6" d="M930.47,92.3a3.13,3.13,0,0,1-2.93-1.63l.28-.29a3.12,3.12,0,0,1,3,1.56Z"/><path class="cls-6" d="M862.75,161.51l1.85.48c-1,1.32-1.28-.1-1.83-.51Z"/><path class="cls-6" d="M983.28,90.29l-.54,1c-.16-.15-.47-.35-.44-.44a5.89,5.89,0,0,1,.51-1Z"/><path class="cls-6" d="M810.1,114.52a3.14,3.14,0,0,1,3,1.57l-.34.33a3.24,3.24,0,0,1-3-1.6Z"/><path class="cls-6" d="M1015.35,87.38a3,3,0,0,1,3,1.61l-.22.22a2.89,2.89,0,0,1-3-1.55Z"/><path class="cls-6" d="M779.57,87.73,777.73,87a7.18,7.18,0,0,1,.61-.76,19,19,0,0,1,1.57,1.14Z"/><path class="cls-6" d="M812.77,84.73a3.15,3.15,0,0,1-3-1.6l.3-.3a3.1,3.1,0,0,1,3,1.57Z"/><path class="cls-6" d="M1002.89,60.72l-.53.35a7.13,7.13,0,0,1-.45-1.07c0-.06.32-.23.5-.35Z"/><path class="cls-6" d="M1032,7.35a3.15,3.15,0,0,1,3,1.57l-.39.38a3.16,3.16,0,0,1-2.94-1.62Z"/><path class="cls-6" d="M1054.6,27a3.13,3.13,0,0,1,3,1.55l-.37.37a3.1,3.1,0,0,1-2.92-1.64Z"/><path class="cls-6" d="M834,41.8l-.45-.36c.17-.09.36-.26.53-.24s.31.22.47.34Z"/><path class="cls-6" d="M730.13,45.07a3.09,3.09,0,0,1,3,1.6l-.34.33a3.21,3.21,0,0,1-3-1.6Z"/><path class="cls-6" d="M974.66,131.08a3.23,3.23,0,0,1,2.94,1.57l-.39.47-2.89-1.7Z"/><path class="cls-6" d="M1007.79,18l1.87.63-.59.81-1.53-1.19Z"/><path class="cls-6" d="M961.67,40a7.36,7.36,0,0,1,.45,1.09c0,.06-.34.22-.52.34a7.42,7.42,0,0,1-.44-1.1C961.14,40.3,961.49,40.14,961.67,40Z"/><path class="cls-6" d="M862.92,113a3.09,3.09,0,0,1,3,1.53l-.4.5-2.84-1.77Z"/><path class="cls-6" d="M829.35,114.93a3,3,0,0,1-2.92-1.64l.26-.26a3.08,3.08,0,0,1,3,1.55Z"/><path class="cls-6" d="M832.37,54.56l-1.82-.73a7.19,7.19,0,0,1,.59-.75,19.12,19.12,0,0,1,1.58,1.14Z"/><path class="cls-6" d="M906.27,24.45c-.66-.31-2.2-.21-1.56-1.28.54-.91,1.45.08,1.94.82Z"/><path class="cls-6" d="M998.36,9.39l-.5.39a8.47,8.47,0,0,1-.51-1c0-.06.31-.24.48-.37Z"/><path class="cls-6" d="M898.82,33.38a3.08,3.08,0,0,1-3-1.58l.32-.32a3.1,3.1,0,0,1,3,1.59Z"/><path class="cls-6" d="M1015.06,71.1l-1.86-.65.59-.81,1.54,1.18Z"/><path class="cls-6" d="M962.61,10.32A3.08,3.08,0,0,1,965.54,12l-.28.28a3.2,3.2,0,0,1-3-1.54Z"/><path class="cls-6" d="M881.11,34.45c.6.27,1.74.55,1.73.8,0,1.34-1.24.75-2,1l0,0a10,10,0,0,0-.14-1.34Z"/><path class="cls-6" d="M890.06,10.42a3.16,3.16,0,0,1,3.05,1.52l-.36.35a3,3,0,0,1-2.93-1.63Z"/><path class="cls-6" d="M911.24,60.18a3.21,3.21,0,0,1,3,1.57l-.36.36a3.18,3.18,0,0,1-2.94-1.63Z"/><path class="cls-6" d="M1063.33,18.31a3.16,3.16,0,0,1-3-1.53l.42-.53,2.86,1.75Z"/><path class="cls-6" d="M744.84,25.87a3.18,3.18,0,0,1-3-1.6l.3-.3a3.19,3.19,0,0,1,3,1.56Z"/><path class="cls-6" d="M855,74.18a3.09,3.09,0,0,1-3-1.61l.3-.3a3.1,3.1,0,0,1,3,1.54Z"/><path class="cls-6" d="M831.37,22.33,834.23,24l-.34.34a3.38,3.38,0,0,1-3-1.56Z"/><path class="cls-6" d="M970.09,79.81a3.14,3.14,0,0,1,3,1.49l-.45.56L969.8,80.1Z"/><path class="cls-6" d="M1018.08,10.73a3.14,3.14,0,0,1-3-1.56l.29-.29a3,3,0,0,1,3,1.57Z"/><path class="cls-6" d="M981.78,10.8a3.16,3.16,0,0,1-2.93-1.62l.29-.3a3.09,3.09,0,0,1,3,1.54Z"/><path class="cls-6" d="M942.89,8.91a3.08,3.08,0,0,1,3,1.54l-.35.34a3,3,0,0,1-2.93-1.63Z"/><path class="cls-6" d="M918.81,193a3.26,3.26,0,0,1,3,1.57l-.41.4-2.94-1.64Z"/><path class="cls-6" d="M942.62,102.78a3.1,3.1,0,0,1-3-1.54l.34-.34a3.06,3.06,0,0,1,2.94,1.62Z"/><path class="cls-6" d="M967.05,108.51l1.86.65c-.2.26-.39.53-.59.8l-1.54-1.18Z"/><path class="cls-6" d="M1024.11,31.87l-1.85-.68a7.07,7.07,0,0,1,.59-.77c.54.34,1,.75,1.56,1.14Z"/><path class="cls-6" d="M923.29,39.08,924,40l-1-.61Z"/><path class="cls-6" d="M980.29,41l-.64-.92,1,.58Z"/><path class="cls-6" d="M998.36,41l-.6-1,1,.57Z"/><path class="cls-6" d="M906.71,40.56l.67.89-1-.58Z"/><path class="cls-6" d="M927.47,42.47l-.66-1,1,.62Z"/><path class="cls-6" d="M980.64,40.63l1.5,1.51-.28.28L980.29,41Z"/><path class="cls-6" d="M728.3,43.92l-1.54-1.48.37-.37,1.5,1.51Z"/><path class="cls-7" d="M778.42,43.73c-1.54-.42-1-1-.14-1.65a5.76,5.76,0,0,1,.5,1.07C778.81,43.31,778.55,43.53,778.42,43.73Z"/><path class="cls-6" d="M910.91,43.94l-.93-.71c.78-.93.92,0,1.21.42Z"/><path class="cls-6" d="M927.82,42.13l1.47,1.5-.29.3-1.53-1.46Z"/><path class="cls-6" d="M965.15,44l-.6-1,1,.57Z"/><path class="cls-6" d="M982.14,42.14l1.48,1.5-.24.25-1.52-1.48S982.14,42.14,982.14,42.14Z"/><path class="cls-6" d="M728.63,43.58l1.5,1.49-.34.33-1.49-1.48Z"/><path class="cls-6" d="M912.39,45.45c-.49-.51-1-1-1.48-1.51l.28-.29,1.52,1.47Z"/><path class="cls-6" d="M1003.14,46.77l-.57-.34.55.37Z"/><path class="cls-6" d="M733.1,46.67l1.56,1.47-.39.39L732.76,47Z"/><path class="cls-6" d="M969.79,48.45l-1.5-1.52.29-.29,1.54,1.48Z"/><path class="cls-6" d="M986.76,46.57l1.51,1.51-.36.37L986.37,47Z"/><path class="cls-6" d="M1041.13,46.55c.2.33.4.65.59,1l-1-.56Z"/><path class="cls-6" d="M734.66,48.14l.56.93-1-.54Z"/><path class="cls-6" d="M826.34,50.05a7,7,0,0,1-.82-.84c.69-.93,1-.14,1.28.37Z"/><path class="cls-6" d="M898.84,50l-1.51-1.51.34-.34,1.52,1.5Z"/><path class="cls-6" d="M917,50l-1.52-1.52.38-.38,1.56,1.46Z"/><path class="cls-6" d="M933.89,48.13l1.61,1.42-.45.46-1.48-1.56Z"/><path class="cls-6" d="M970.12,48.12l1.48,1.5-.29.29-1.52-1.46Z"/><path class="cls-6" d="M989.4,49.93c-.49-.5-1-1-1.49-1.48l.36-.37,1.51,1.48Z"/><path class="cls-6" d="M1045.23,50c-.23-.3-.45-.61-.68-.92l1,.61Z"/><path class="cls-6" d="M826.8,49.58l.58,1-1-.55Z"/><path class="cls-6" d="M900.36,51.49,898.84,50l.35-.35c.53.48,1,1,1.57,1.46Z"/><path class="cls-6" d="M917.38,49.56l.59,1L917,50Z"/><path class="cls-6" d="M935.5,49.55l.59,1-1-.54Z"/><path class="cls-6" d="M1046.74,51.47,1045.23,50l.31-.31,1.49,1.5Z"/><path class="cls-6" d="M846.45,51.05l.58,1-1-.55Z"/><path class="cls-6" d="M900.76,51.08l.58,1-1-.55Z"/><path class="cls-6" d="M921.46,53l-.67-.91,1,.6Z"/><path class="cls-6" d="M939.58,53l-.91-.72c.77-.91.91,0,1.21.42Z"/><path class="cls-6" d="M975.7,53.11l-1.41-1.62.3-.29,1.59,1.44Z"/><path class="cls-6" d="M992.7,51.2l1.52,1.5-.28.28-1.52-1.5Z"/><path class="cls-6" d="M850.38,54.62l-.59-1.06,1.07.56Z"/><path class="cls-6" d="M904.77,54.56c-.21-.33-.41-.66-.61-1l1,.58Z"/><path class="cls-6" d="M923,54.48c-.51-.49-1-1-1.52-1.47l.31-.31,1.49,1.5Z"/><path class="cls-6" d="M941.09,54.48,939.59,53l.29-.29,1.5,1.49Z"/><path class="cls-6" d="M976.18,52.64c.28.28.82.76.78.81-.65.87-.93.14-1.26-.34Z"/><path class="cls-6" d="M994.22,52.7c.49.5,1,1,1.48,1.51l-.24.24L993.94,53Z"/><path class="cls-6" d="M833.93,56l-1.56-1.46.35-.33c.5.5,1,1,1.49,1.51Z"/><path class="cls-6" d="M834.21,55.73l1.52,1.47-.3.3c-.5-.49-1-1-1.49-1.5Z"/><path class="cls-6" d="M908.22,57.19l1.54,1.48-.35.36-1.5-1.52Z"/><path class="cls-6" d="M945.61,59.07c-.5-.51-1-1-1.49-1.55l.35-.35,1.6,1.43Z"/><path class="cls-6" d="M998.87,57.12l.58,1-1-.54Z"/><path class="cls-6" d="M820.29,60.62c-.29-.3-.87-.81-.83-.87.68-.93,1-.19,1.34.35Z"/><path class="cls-6" d="M909.76,58.67c.49.51,1,1,1.48,1.51l-.31.3L909.41,59Z"/><path class="cls-6" d="M946.07,58.6c.18.34.37.67.56,1l-1-.54Z"/><path class="cls-6" d="M785.66,62l-.63-.92.93.62Z"/><path class="cls-6" d="M820.8,60.1c.26.29.8.77.75.83-.63.91-.91.11-1.26-.31Z"/><path class="cls-6" d="M840,62.07l-1.51-1.53.35-.35,1.58,1.45Z"/><path class="cls-6" d="M950,62.14l-.58-1,1,.55Z"/><path class="cls-6" d="M787.18,63.54,785.66,62l.3-.29,1.57,1.46Z"/><path class="cls-6" d="M840.39,61.64l.6,1-1-.57Z"/><path class="cls-6" d="M914.23,61.75l1.49,1.53-.27.27c-.53-.48-1.05-1-1.58-1.44Z"/><path class="cls-6" d="M787.53,63.19l.61.93-1-.58Z"/><path class="cls-6" d="M844.48,65.08l-.66-.91,1,.6Z"/><path class="cls-6" d="M916.94,65l-1.49-1.5.27-.26,1.5,1.48Z"/><path class="cls-6" d="M791.67,66.58,791,65.7l1,.58Z"/><path class="cls-6" d="M826.7,64.76l1.47,1.53-.25.26-1.59-1.43Z"/><path class="cls-6" d="M844.8,64.77l1.48,1.5-.28.29-1.51-1.48Z"/><path class="cls-6" d="M953.58,64.68c.27.29.82.77.78.83-.67.91-.93.11-1.27-.34Z"/><path class="cls-6" d="M1009,66.64c-.49-.52-1-1-1.48-1.57l.35-.35,1.6,1.44Z"/><path class="cls-6" d="M792,66.28l1.5,1.49-.3.3c-.5-.5-1-1-1.49-1.49Z"/><path class="cls-6" d="M828.17,66.29l1.51,1.49-.26.27-1.5-1.5Z"/><path class="cls-6" d="M1009.45,66.16l.59,1-1.06-.55Z"/><path class="cls-6" d="M938.44,67.73,940,69.17l-.43.45-1.51-1.53Z"/><path class="cls-6" d="M992.84,67.68l.59,1-1-.54Z"/><path class="cls-6" d="M849.38,69.24l1.46,1.56-.26.26L849,69.6Z"/><path class="cls-6" d="M940,69.17l.6,1-1-.56Z"/><path class="cls-6" d="M996.82,71.18l-.59-1,1,.56Z"/><path class="cls-6" d="M1003.12,46.8l.57.29-.55-.32Z"/><path class="cls-6" d="M834,72.62l-1.53-1.51.36-.36,1.55,1.48Z"/><path class="cls-6" d="M852.06,72.57c-.5-.5-1-1-1.48-1.51l.26-.26,1.52,1.47Z"/><path class="cls-6" d="M944,72.69l-.64-1,1,.58Z"/><path class="cls-6" d="M972.68,3.25c-.19-.33-.38-.66-.58-1l1,.54Z"/><path class="cls-6" d="M1015.33,70.82c.51.49,1,1,1.54,1.46l-.34.34-1.47-1.53Z"/><path class="cls-6" d="M799.22,74.08l-1.48-1.53.25-.25,1.58,1.44Z"/><path class="cls-6" d="M834.33,72.23l.61,1-1-.57Z"/><path class="cls-6" d="M755.47,4.64,754,3.18l.33-.34,1.49,1.5Z"/><path class="cls-6" d="M927.42,74.17l-.62-1,1,.58Z"/><path class="cls-6" d="M945.58,74.17,944,72.69l.4-.39L946,73.79Z"/><path class="cls-6" d="M882.57,2.86,884,4.42l-.25.25-1.59-1.42Z"/><path class="cls-6" d="M684.53,6.2,683,4.7l.4-.43,1.51,1.52Z"/><path class="cls-6" d="M838.33,75.72l-.59-1,1,.55Z"/><path class="cls-6" d="M855.38,73.81l1.47,1.54-.26.26L855,74.17Z"/><path class="cls-6" d="M701.56,4.25c.19.35.39.7.59,1l-1.07-.55Z"/><path class="cls-6" d="M947,75.74c-.48-.53-1-1-1.46-1.57l.38-.38,1.58,1.45Z"/><path class="cls-6" d="M983.35,75.65c-.29-.27-.85-.75-.83-.77.72-.91.9-.08,1.18.41Z"/><path class="cls-6" d="M803.75,77.14l-1.53-1.49.31-.31,1.51,1.5Z"/><path class="cls-6" d="M885.26,6.17l-1.5-1.5.25-.25,1.52,1.48Z"/><path class="cls-6" d="M856.85,75.35l1.52,1.48a4,4,0,0,0-.29.29l-1.49-1.51Z"/><path class="cls-6" d="M993.9,6.26c-.49-.33-1.34-.55-.39-1.27a8.16,8.16,0,0,1,.83.82Z"/><path class="cls-6" d="M947.54,75.24c.27.29.81.78.77.83-.64.88-.93.13-1.27-.33Z"/><path class="cls-6" d="M966.75,77.16c-.29-.27-.84-.75-.83-.77.71-.9.91-.11,1.19.39Z"/><path class="cls-6" d="M984.87,77.14l-1.52-1.5.35-.35c.51.49,1,1,1.52,1.5Z"/><path class="cls-6" d="M1003,77.17l-1.5-1.53.36-.36,1.54,1.48Z"/><path class="cls-6" d="M805.26,78.61l-1.51-1.48.29-.29c.5.5,1,1,1.49,1.5Z"/><path class="cls-6" d="M968.27,78.66l-1.52-1.51.36-.37c.51.5,1,1,1.52,1.51Z"/><path class="cls-6" d="M985.22,76.79l1.58,1.45-.43.44-1.5-1.54Z"/><path class="cls-6" d="M1004.52,78.65,1003,77.17l.4-.41,1.56,1.48Z"/><path class="cls-6" d="M1012.05,6.2c-.29-.26-.85-.74-.84-.75.72-.89.9-.1,1.18.4Z"/><path class="cls-6" d="M969.8,80.1l-1.53-1.45.36-.36c.49.5,1,1,1.46,1.52Z"/><path class="cls-6" d="M986.8,78.24l.58,1-1-.55Z"/><path class="cls-6" d="M1004.92,78.24l.58,1-1-.56Z"/><path class="cls-6" d="M772,81.72a8.71,8.71,0,0,1-.86-.84c.69-.92,1-.21,1.33.36Z"/><path class="cls-6" d="M1029,4.32c.5.51,1,1,1.48,1.55l-.32.32-1.54-1.48Z"/><path class="cls-6" d="M990.9,81.68c-.23-.3-.45-.6-.68-.89l1,.59Z"/><path class="cls-6" d="M1008.91,81.73l-.6-1,1,.58Z"/><path class="cls-6" d="M772.49,81.24c.2.34.39.69.58,1L772,81.72Z"/><path class="cls-6" d="M809.8,83.13l-1.5-1.49.31-.3,1.48,1.49Z"/><path class="cls-6" d="M1048.24,6.25c-.44-.33-1.31-.55-.37-1.24.05,0,.54.5.83.77Z"/><path class="cls-6" d="M991.19,81.38l1.52,1.47-.32.32-1.49-1.5Z"/><path class="cls-6" d="M684.93,5.79c.2.32.39.65.58,1l-1-.56Z"/><path class="cls-6" d="M705.6,7.75l-.67-.92,1,.59Z"/><path class="cls-6" d="M941.11,7.7l-.87-.77c.79-.86.92,0,1.18.46Z"/><path class="cls-6" d="M813.1,84.4l1.52,1.49-.35.35-1.5-1.52Z"/><path class="cls-6" d="M976.16,5.86l1.48,1.54-.29.29-1.53-1.48Z"/><path class="cls-6" d="M815.75,87.79c-.49-.52-1-1-1.48-1.55l.35-.35,1.57,1.47Z"/><path class="cls-6" d="M994.34,5.81l.6,1-1-.56Z"/><path class="cls-6" d="M960.73,87.7l-.88-.78c.8-.89.92,0,1.2.46Z"/><path class="cls-6" d="M995.79,85.84l1.53,1.49-.37.38-1.52-1.5Z"/><path class="cls-6" d="M1015.08,87.66l-1.5-1.5.27-.27,1.5,1.5S1015.08,87.66,1015.08,87.66Z"/><path class="cls-6" d="M1013.58,7.69l-1.53-1.49.34-.35,1.5,1.52Z"/><path class="cls-6" d="M779.91,87.4l1.5,1.51-.31.31-1.52-1.49Z"/><path class="cls-6" d="M816.19,87.36l.6,1-1-.58Z"/><path class="cls-6" d="M907.85,89.27c-.47-.33-1.28-.56-.37-1.24.06,0,.54.5.82.77Z"/><path class="cls-6" d="M962.23,89.24c-.5-.52-1-1-1.49-1.55l.31-.31,1.59,1.44Z"/><path class="cls-6" d="M979.24,87.31l.59,1-1-.55Z"/><path class="cls-6" d="M997.32,87.33l1.51,1.52-.33.34c-.51-.5-1-1-1.55-1.48Z"/><path class="cls-6" d="M1031.66,7.68l-1.49-1.49.32-.32,1.5,1.48Z"/><path class="cls-6" d="M782.59,90.75c-.49-.51-1-1-1.49-1.53l.31-.31L783,90.36Z"/><path class="cls-6" d="M800.7,90.75c-.28-.27-.84-.75-.82-.78.7-.9.92-.13,1.22.38Z"/><path class="cls-6" d="M909.4,90.75l-1.55-1.48.45-.47,1.54,1.49Z"/><path class="cls-6" d="M927.54,90.67,926,89.21l.34-.34,1.47,1.52Z"/><path class="cls-6" d="M962.64,88.82c.2.32.39.65.59,1l-1-.56Z"/><path class="cls-6" d="M1048.7,5.78l.6,1-1.06-.56Z"/><path class="cls-6" d="M998.83,88.85l.62.92-1-.58Z"/><path class="cls-6" d="M1018.31,89l.54.75-.76-.53Z"/><path class="cls-6" d="M784.11,92.26l-1.51-1.51.38-.39,1.52,1.5Z"/><path class="cls-6" d="M802.21,92.29l-1.5-1.54.39-.4,1.56,1.47Z"/><path class="cls-6" d="M909.84,90.29l.59,1-1-.54Z"/><path class="cls-6" d="M688.93,9.29l-.6-1,1,.56Z"/><path class="cls-6" d="M966.71,92.28l-.66-1,1,.61Z"/><path class="cls-6" d="M1002.89,92.33l-.62-1,1.06.59Z"/><path class="cls-6" d="M785.63,93.77l-1.52-1.52.39-.39c.52.49,1,1,1.54,1.49Z"/><path class="cls-6" d="M802.66,91.82l.6,1-1-.57Z"/><path class="cls-6" d="M913.92,93.75,913,93c.75-.9.93-.06,1.24.4Z"/><path class="cls-6" d="M932.05,93.74c-.53-.49-1-1-1.58-1.44l.36-.36,1.51,1.51Z"/><path class="cls-6" d="M968.24,93.77l-1.52-1.5.34-.34,1.53,1.49Z"/><path class="cls-6" d="M986.25,93.83l-.59-1,1.06.56Z"/><path class="cls-6" d="M1003.33,91.9c.28.28.83.76.81.79-.68.89-.92.1-1.25-.36Z"/><path class="cls-6" d="M786,93.35c.21.33.41.66.61,1l-1-.57Z"/><path class="cls-6" d="M914.23,93.44l1.49,1.5-.29.29-1.51-1.48Z"/><path class="cls-6" d="M932.34,93.45l1.49,1.5-.28.27-1.5-1.49Z"/><path class="cls-6" d="M705.93,7.42l1.51,1.47-.34.35-1.5-1.49Z"/><path class="cls-6" d="M968.59,93.42l1.52,1.5-.36.36-1.5-1.52Z"/><path class="cls-6" d="M942.64,9.16,941.12,7.7l.3-.31,1.47,1.52Z"/><path class="cls-6" d="M796.49,70.81l1.5,1.5-.25.24-1.5-1.49Z"/><path class="cls-6" d="M790.05,96.89c-.27-.28-.81-.76-.77-.81.63-.87.92-.13,1.27.31Z"/><path class="cls-6" d="M808.28,96.75l-.92-.7c.77-.9.91,0,1.2.42Z"/><path class="cls-6" d="M959.62,7.3l1.52,1.51-.41.42-1.55-1.48Z"/><path class="cls-6" d="M977.64,7.4l1.5,1.48-.29.3-1.5-1.49Z"/><path class="cls-6" d="M1013.89,7.37c.49.51,1,1,1.48,1.51l-.29.29-1.5-1.48Z"/><path class="cls-6" d="M970.11,94.92l1.55,1.46-.4.41-1.51-1.52Z"/><path class="cls-6" d="M790.55,96.39c.27.29.81.78.76.83-.65.88-.92.13-1.26-.34Z"/><path class="cls-6" d="M808.56,96.47l1.5,1.49-.27.28c-.5-.5-1-1-1.51-1.49Z"/><path class="cls-6" d="M972.77,98.32l-1.5-1.54.39-.4,1.56,1.48Z"/><path class="cls-6" d="M1052.78,9.23l-.68-.89,1,.6Z"/><path class="cls-6" d="M918.79,97.94l1.61,1.42-.46.47-1.47-1.57Z"/><path class="cls-6" d="M938.09,99.78c-.5-.51-1-1-1.51-1.51l.34-.36,1.53,1.5Z"/><path class="cls-6" d="M956.18,99.76c-.46-.54-.92-1.08-1.39-1.61l.1-.1,1.64,1.36Z"/><path class="cls-6" d="M973.22,97.86l.59,1-1-.56Z"/><path class="cls-6" d="M991.26,97.92l1.47,1.51-.29.29-1.51-1.47Z"/><path class="cls-6" d="M920.4,99.36l.59,1-1-.55Z"/><path class="cls-6" d="M939.6,101.24l-1.51-1.47.36-.36,1.49,1.5Z"/><path class="cls-6" d="M888.59,8.9l1.47,1.53-.24.23L888.3,9.2Z"/><path class="cls-6" d="M977.23,101.38l-.62-1,1,.59Z"/><path class="cls-6" d="M961.14,8.81l1.46,1.51-.37.37-1.5-1.46Z"/><path class="cls-6" d="M814.29,102.85c-.5-.52-1-1-1.49-1.55l.35-.35,1.6,1.43Z"/><path class="cls-6" d="M924.46,102.83l-.67-.92,1,.59Z"/><path class="cls-6" d="M1035,8.92l1.46,1.54-.24.25L1034.6,9.3Z"/><path class="cls-6" d="M959.52,101l1.47,1.53-.25.26-1.59-1.43Z"/><path class="cls-6" d="M977.65,101l1.53,1.49-.44.43-1.51-1.52Z"/><path class="cls-6" d="M995.76,101l1.47,1.54-.27.27-1.58-1.44Z"/><path class="cls-6" d="M814.75,102.38l.6,1-1.06-.56Z"/><path class="cls-6" d="M924.8,102.5l1.49,1.48-.33.34-1.5-1.49Z"/><path class="cls-6" d="M944.11,104.28l-1.49-1.5.26-.26,1.51,1.48Z"/><path class="cls-6" d="M962.22,104.29l-1.48-1.52.25-.25L962.5,104Z"/><path class="cls-6" d="M979.18,102.47l.6,1-1-.58Z"/><path class="cls-6" d="M998.46,104.27l-1.5-1.5s.26-.25.27-.26l1.49,1.51Z"/><path class="cls-6" d="M818.73,105.88l-.58-1,1,.54Z"/><path class="cls-6" d="M1054.28,10.73l-1.5-1.5.29-.29,1.5,1.48Z"/><path class="cls-6" d="M764.48,12.29,763,10.74l.36-.36,1.57,1.48Z"/><path class="cls-6" d="M835.84,10.36l.6,1-1-.57Z"/><path class="cls-6" d="M908.3,10.34l.59,1-1-.57Z"/><path class="cls-6" d="M947.09,12.29l-1.52-1.5.35-.34,1.54,1.48Z"/><path class="cls-6" d="M948.64,108.85l-1.53-1.49.4-.41,1.52,1.49Z"/><path class="cls-6" d="M966.78,108.78l-1.5-1.49.27-.27,1.5,1.49Z"/><path class="cls-6" d="M1001.9,106.91l.57,1c-.35-.18-.69-.37-1-.56Z"/><path class="cls-6" d="M983.35,12.25l-1.57-1.45.39-.38c.5.51,1,1,1.49,1.52Z"/><path class="cls-6" d="M859.57,110.37c-.47-.3-1.31-.49-.38-1.2a8.71,8.71,0,0,1,.78.8Z"/><path class="cls-6" d="M932.05,110.36l-1.52-1.52.36-.36,1.58,1.44Z"/><path class="cls-6" d="M950.14,110.38l-1.5-1.54.39-.4,1.56,1.49Z"/><path class="cls-6" d="M1001.49,12.23l-.92-.7c.77-.89.91,0,1.19.42Z"/><path class="cls-6" d="M1018.35,10.45l1.53,1.47-.33.32-1.47-1.52Z"/><path class="cls-6" d="M824.88,111.86c-.51-.5-1-1-1.52-1.5l.35-.36,1.52,1.5Z"/><path class="cls-6" d="M861.13,111.84l-1.56-1.47.4-.4,1.5,1.52Z"/><path class="cls-6" d="M1036.45,10.46l1.53,1.47-.29.29c-.49-.51-1-1-1.48-1.51Z"/><path class="cls-6" d="M932.47,109.92c.2.33.39.67.58,1l-1-.56Z"/><path class="cls-6" d="M950.59,109.93l.58,1-1-.55Z"/><path class="cls-6" d="M825.23,111.5l1.45,1.53-.25.26-1.55-1.43Z"/><path class="cls-6" d="M862.66,113.28l-1.53-1.44.34-.35,1.45,1.53Z"/><path class="cls-6" d="M936.58,113.35l-.68-.88,1,.61Z"/><path class="cls-6" d="M954.7,113.34l-.71-.9,1,.64Z"/><path class="cls-6" d="M972.67,113.44l-.59-1,1,.56Z"/><path class="cls-6" d="M808.63,113l1.47,1.51-.3.3-1.5-1.47Z"/><path class="cls-6" d="M764.91,11.86l.55,1-1-.55Z"/><path class="cls-6" d="M893.11,11.94l1.48,1.49-.33.33-1.51-1.47Z"/><path class="cls-6" d="M936.85,113.08l1.5,1.49-.26.26-1.51-1.49Z"/><path class="cls-6" d="M955,113.08l1.52,1.48-.3.29c-.49-.5-1-1-1.48-1.51Z"/><path class="cls-6" d="M912.38,13.8l-.66-1,1,.59Z"/><path class="cls-6" d="M947.46,11.93,949,13.42l-.37.37-1.51-1.5Z"/><path class="cls-6" d="M830.84,116.42l-1.49-1.5.35-.34,1.52,1.46Z"/><path class="cls-6" d="M965.54,12l1.5,1.49-.29.29-1.49-1.5Z"/><path class="cls-6" d="M983.66,11.94c.5.5,1,1,1.48,1.51l-.26.26-1.52-1.47Z"/><path class="cls-6" d="M1003,13.71l-1.51-1.49.27-.27,1.49,1.51Z"/><path class="cls-6" d="M813.1,116.09l1.55,1.47-.39.38c-.5-.51-1-1-1.49-1.52Z"/><path class="cls-6" d="M695.06,15.3l-1.5-1.54.38-.39,1.58,1.46Z"/><path class="cls-6" d="M814.65,117.56l1.47,1.54-.29.29-1.57-1.45Z"/><path class="cls-6" d="M959.63,117.48l.62,1-1.07-.58Z"/><path class="cls-6" d="M816.12,119.1l1.61,1.41-.45.45c-.48-.53-1-1-1.45-1.57Z"/><path class="cls-6" d="M835.44,120.92l-1.5-1.53.3-.3c.53.48,1,1,1.56,1.46Z"/><path class="cls-6" d="M730.23,13.32l.57,1-1-.53Z"/><path class="cls-6" d="M943.05,119c.47.33,1.27.58.37,1.27a8.33,8.33,0,0,1-.83-.8Z"/><path class="cls-6" d="M963.7,121,963,120l1,.59Z"/><path class="cls-6" d="M912.75,13.43,914.22,15l-.28.28-1.56-1.46Z"/><path class="cls-6" d="M818.81,122.48,817.28,121l.45-.45,1.53,1.5Z"/><path class="cls-6" d="M836.93,122.46l-1.49-1.54.36-.37,1.59,1.44Z"/><path class="cls-6" d="M950.13,15.29l-1.52-1.5.36-.37,1.52,1.5Z"/><path class="cls-6" d="M964,120.62l1.48,1.52-.27.27L963.7,121Z"/><path class="cls-6" d="M695.52,14.83l.57,1c-.34-.18-.68-.36-1-.53Z"/><path class="cls-6" d="M734.2,16.84l-.61-1,1,.58Z"/><path class="cls-6" d="M819.26,122l.58,1-1-.53Z"/><path class="cls-6" d="M837.39,122c.19.34.38.68.58,1l-1-.55Z"/><path class="cls-6" d="M948.56,124a8.11,8.11,0,0,1-.83-.81c.69-.93.94-.11,1.29.35Z"/><path class="cls-6" d="M841.76,15l1.5,1.5-.26.26-1.5-1.49Z"/><path class="cls-6" d="M983.66,122.12l1.59,1.44-.45.45-1.45-1.58Z"/><path class="cls-6" d="M878.09,14.89c.27.28.81.76.77.81-.66.89-.9.1-1.23-.35Z"/><path class="cls-6" d="M841.5,125.41l-.69-.86.94.61Z"/><path class="cls-6" d="M912.68,123.67l1.58,1.44-.36.35-1.45-1.56Z"/><path class="cls-6" d="M949,123.57c.19.35.39.69.59,1l-1.05-.58Z"/><path class="cls-6" d="M968.24,125.43l-1.5-1.52.31-.31,1.52,1.5Z"/><path class="cls-6" d="M985.25,123.56l.6,1L984.8,124Z"/><path class="cls-6" d="M841.75,125.16l1.53,1.46s-.31.32-.31.32l-1.47-1.53Z"/><path class="cls-6" d="M915.41,127l-1.5-1.51.35-.35,1.54,1.48Z"/><path class="cls-6" d="M914.22,15l1.55,1.47-.33.33-1.5-1.52Z"/><path class="cls-6" d="M950.49,14.92l1.53,1.5-.36.36-1.53-1.5Z"/><path class="cls-6" d="M1023,14.9l1.57,1.47-.41.42-1.54-1.51Z"/><path class="cls-6" d="M917,128.46,915.42,127l.38-.38,1.48,1.53Z"/><path class="cls-6" d="M918.46,130,917,128.45l.33-.33,1.54,1.49Z"/><path class="cls-6" d="M971.67,128.08l1.51,1.5-.35.37-1.55-1.48Z"/><path class="cls-6" d="M1042.21,16.81l-1.49-1.55.35-.35,1.6,1.43Z"/><path class="cls-6" d="M829.4,131.49,827.9,130l.34-.35,1.53,1.49Z"/><path class="cls-6" d="M846.37,129.61l1.58,1.45-.46.47L846,130Z"/><path class="cls-6" d="M918.82,129.61l1.56,1.46-.39.41L918.46,130Z"/><path class="cls-6" d="M974.32,131.42c-.5-.49-1-1-1.49-1.48l.35-.36,1.48,1.5Z"/><path class="cls-6" d="M829.77,131.11l1.56,1.47-.42.44-1.51-1.53Z"/><path class="cls-6" d="M848,131.06l.6,1-1.06-.57Z"/><path class="cls-6" d="M920.38,131.07l.59,1-1-.56Z"/><path class="cls-6" d="M699.49,18.35l-.58-1,1,.56Z"/><path class="cls-6" d="M831.33,132.58l.58,1-1-.54Z"/><path class="cls-6" d="M852.05,134.48c-.23-.29-.47-.58-.7-.88l1,.61Z"/><path class="cls-6" d="M924.38,134.62l-.58-1,1.07.56Z"/><path class="cls-6" d="M916.93,18.3l-1.49-1.53.33-.33,1.54,1.48Z"/><path class="cls-6" d="M835.47,136l-.71-.87.94.63Z"/><path class="cls-6" d="M852.32,134.21l1.52,1.47-.31.32-1.47-1.52Z"/><path class="cls-6" d="M924.87,134.14l.58,1-1.07-.56Z"/><path class="cls-6" d="M933.76,16.55l1.73,1.32-.47.48-1.37-1.69Z"/><path class="cls-6" d="M836.94,137.49c-.49-.51-1-1-1.47-1.52l.23-.24,1.53,1.47Z"/><path class="cls-6" d="M953.16,18.3l-1.5-1.52.36-.36,1.55,1.46Z"/><path class="cls-6" d="M971.28,18.31l-1.5-1.54.35-.35,1.56,1.48Z"/><path class="cls-6" d="M988.32,16.36l.6,1-1-.58Z"/><path class="cls-6" d="M841.51,142l-1.54-1.5.35-.36,1.55,1.48Z"/><path class="cls-6" d="M858.5,140.12l.62,1-1.06-.58Z"/><path class="cls-6" d="M1007.54,18.22,1006,16.74l.28-.28,1.47,1.52Z"/><path class="cls-6" d="M841.87,141.66l.62,1-1-.59Z"/><polygon class="cls-6" points="861.9 142.94 861.77 142.57 862.13 142.62 861.9 142.94"/><path class="cls-6" d="M1024.53,16.37l.6,1-1-.58Z"/><path class="cls-6" d="M846,145.1l-.66-.95,1,.61Z"/><path class="cls-6" d="M846.31,144.76l1.53,1.48-.37.37L846,145.1Z"/><path class="cls-6" d="M865.51,146.64l-.6-1,1,.58Z"/><path class="cls-6" d="M849,148.1c-.51-.5-1-1-1.54-1.49l.37-.37,1.52,1.51Z"/><path class="cls-6" d="M1042.67,16.34l.59,1-1-.55Z"/><path class="cls-6" d="M849.36,147.75l1.53,1.48-.36.36-1.52-1.5Z"/><path class="cls-6" d="M850.89,149.23l1.52,1.5-.36.37-1.52-1.51Z"/><path class="cls-6" d="M852.41,150.73l1.57,1.46-.4.41-1.53-1.5Z"/><path class="cls-6" d="M854,152.19c.19.33.39.65.59,1l-1-.57Z"/><path class="cls-6" d="M912.4,155.61l-1.46-1.53.23-.23,1.53,1.46Z"/><path class="cls-6" d="M859.5,157.18c-.2-.33-.4-.66-.59-1l1,.56Z"/><path class="cls-6" d="M899.16,18l1.6,1.43-.42.44-1.48-1.56Z"/><path class="cls-6" d="M918.45,19.82l-1.51-1.52.37-.38,1.56,1.46Z"/><path class="cls-6" d="M935.49,17.87l.57,1-1-.52Z"/><path class="cls-6" d="M954.71,19.78l-1.55-1.48.41-.42,1.53,1.5Z"/><path class="cls-6" d="M915.8,158.28l1.54,1.48-.41.42-1.5-1.53Z"/><path class="cls-6" d="M934,158.25l.6,1-1-.58Z"/><path class="cls-6" d="M917.34,159.76l1.55,1.47-.45.47-1.51-1.53Z"/><path class="cls-6" d="M938,161.76l-.62-1,1,.6Z"/><path class="cls-6" d="M971.69,17.9l.6,1-1-.56Z"/><path class="cls-6" d="M918.89,161.23l.59,1-1-.54Z"/><path class="cls-6" d="M939.52,163.24,938,161.76l.41-.39,1.52,1.49Z"/><path class="cls-6" d="M922.86,164.76l-.61-1,1,.59Z"/><path class="cls-6" d="M939.91,162.86l1.51,1.5-.36.36-1.54-1.48Z"/><path class="cls-6" d="M992.36,19.85l-.66-1,1,.6Z"/><path class="cls-6" d="M941.42,164.36l1.5,1.51-.32.33-1.54-1.49Z"/><path class="cls-6" d="M942.92,165.87l1.5,1.52-.27.28-1.55-1.48Z"/><path class="cls-6" d="M945.65,169.15l-1.5-1.49.27-.27,1.49,1.5Z"/><path class="cls-6" d="M929,170.77l-1.46-1.57.33-.34c.54.47,1.07.95,1.6,1.43Z"/><path class="cls-6" d="M1028.6,19.83l-.65-.93,1,.59Z"/><path class="cls-6" d="M911.33,170.31l.61,1-1-.57Z"/><path class="cls-6" d="M929.46,170.29l.57,1-1-.54Z"/><path class="cls-6" d="M915.38,173.79c-.21-.33-.43-.65-.65-1l1,.6Z"/><path class="cls-6" d="M933.55,173.73l-.68-.89,1,.61Z"/><path class="cls-6" d="M915.76,173.41l1.52,1.51-.37.37-1.52-1.51Z"/><path class="cls-6" d="M935.05,175.22l-1.5-1.49.29-.28,1.49,1.49Z"/><path class="cls-6" d="M917.28,174.92l1.5,1.51-.35.35-1.52-1.5Z"/><path class="cls-6" d="M1046.76,19.78c-.23-.3-.47-.59-.7-.88l1,.61Z"/><path class="cls-6" d="M919.88,178.36l-1.45-1.59.35-.34,1.63,1.39C920.23,178,920.05,178.17,919.88,178.36Z"/><path class="cls-6" d="M903.36,179.77c-.28-.26-.83-.73-.82-.75.72-.89.89-.08,1.17.4Z"/><path class="cls-6" d="M920.41,177.82c.27.3.82.78.77.86-.64.91-.94.14-1.29-.32A6.63,6.63,0,0,1,920.41,177.82Z"/><path class="cls-6" d="M904.89,181.28c-.51-.5-1-1-1.52-1.51l.34-.35,1.57,1.47Z"/><path class="cls-6" d="M939.92,179.46c.17.26.34.53.52.79l-.78-.53Z"/><path class="cls-6" d="M905.28,180.89l.6,1-1-.59Z"/><path class="cls-6" d="M965.52,122.14l1.53,1.46-.31.31-1.48-1.5Z"/><path class="cls-6" d="M909.72,183.92l1.47,1.57-.31.32-1.62-1.42Z"/><path class="cls-6" d="M1064.82,19.84c-.5-.51-1-1-1.49-1.53l.31-.31,1.55,1.47Z"/><path class="cls-6" d="M914.29,188.47l1.51,1.5-.36.37-1.52-1.5Z"/><path class="cls-6" d="M915.8,190l1.55,1.47-.4.41-1.51-1.51Z"/><path class="cls-6" d="M918.47,193.3,917,191.85l.4-.41,1.46,1.53Z"/><path class="cls-6" d="M829.37,21.35l-1.54-1.49.52-.53,1.54,1.48Z"/><path class="cls-6" d="M921.82,194.54l.6,1-1-.58Z"/><path class="cls-6" d="M900.76,19.38l.59,1-1-.56Z"/><path class="cls-6" d="M918.87,19.38l.62,1-1-.58Z"/><path class="cls-6" d="M939.59,21.3l-.69-.89,1,.61Z"/><path class="cls-6" d="M955.1,19.38l.6,1-1-.58Z"/><path class="cls-6" d="M975.82,21.29l-.67-.87,1,.59Z"/><path class="cls-6" d="M993.94,21.28l-1.58-1.44.35-.34c.5.51,1,1,1.49,1.52Z"/><path class="cls-6" d="M1029,19.49l1.57,1.46-.46.45c-.48-.53-1-1-1.46-1.57Z"/><path class="cls-6" d="M1047,19.51l1.51,1.48-.28.28-1.49-1.5Z"/><path class="cls-6" d="M1066.28,21.4l-1.46-1.56.37-.37c.53.48,1,1,1.57,1.46Z"/><path class="cls-6" d="M829.89,20.81l1.48,1.52-.49.47-1.51-1.45Z"/><path class="cls-6" d="M922.86,22.89c-.19-.33-.39-.66-.59-1l1,.54Z"/><path class="cls-6" d="M939.87,21l1.51,1.47-.31.32c-.5-.5-1-1-1.48-1.51Z"/><path class="cls-6" d="M976.1,21l1.51,1.48-.31.31c-.49-.51-1-1-1.48-1.51Z"/><path class="cls-6" d="M995.44,22.77l-1.5-1.49.26-.26,1.5,1.49Z"/><path class="cls-6" d="M1013.44,22.87l-.59-1,1,.58Z"/><path class="cls-6" d="M1030.52,21a6.74,6.74,0,0,1,.77.8c-.66.88-.9.1-1.23-.35Z"/><path class="cls-6" d="M1066.76,20.93l.59,1.05-1.06-.58Z"/><path class="cls-6" d="M741.88,24.27l-1.51-1.48.31-.31,1.49,1.5Z"/><path class="cls-6" d="M834.23,24l1.54,1.48-.38.38-1.5-1.52Z"/><path class="cls-6" d="M745.18,25.53c.5.51,1,1,1.51,1.51l-.31.31-1.54-1.48Z"/><path class="cls-6" d="M835.77,25.5l1.5,1.52-.33.33-1.55-1.48Z"/><path class="cls-6" d="M963.72,27.36l-1.49-1.53.34-.35L964.12,27Z"/><path class="cls-6" d="M1000,27.38l-1.51-1.53.38-.39c.53.48,1,1,1.57,1.46Z"/><path class="cls-6" d="M1018.09,27.35l-1.54-1.5.39-.4,1.56,1.47Z"/><path class="cls-6" d="M1053.12,25.49c.49.51,1,1,1.48,1.51l-.27.28-1.52-1.47Z"/><path class="cls-6" d="M747.89,28.83l-1.51-1.49.31-.3,1.48,1.5Z"/><path class="cls-6" d="M838.45,28.86l-1.51-1.51.33-.33,1.54,1.47Z"/><path class="cls-6" d="M909.74,27l1.5,1.51-.31.32-1.52-1.5Z"/><path class="cls-6" d="M964.12,27l1.54,1.5-.4.4-1.54-1.5Z"/><path class="cls-6" d="M982.28,26.91l.6,1-1-.57Z"/><path class="cls-6" d="M1000.39,26.92l.6,1-1-.56Z"/><path class="cls-6" d="M1018.5,26.92l.6,1-1-.56Z"/><path class="cls-6" d="M838.81,28.49,840.35,30l-.39.4-1.51-1.51Z"/><path class="cls-6" d="M911.24,28.51l1.61,1.43-.43.44-1.49-1.55Z"/><polygon class="cls-6" points="947.82 29.34 948.24 29.22 948.17 29.59 947.82 29.34"/><path class="cls-6" d="M965.66,28.45l.58,1-1-.57Z"/><path class="cls-6" d="M1058.78,30.4l-1.53-1.49.37-.36,1.53,1.48Z"/><path class="cls-6" d="M823.34,31.91l-1.49-1.54.36-.37,1.59,1.44Z"/><path class="cls-6" d="M841.5,31.87,840,30.37l.38-.4,1.56,1.48Z"/><path class="cls-6" d="M895.84,31.8l-1.51-1.46.33-.34,1.5,1.49Z"/><path class="cls-6" d="M912.85,29.94c.19.33.38.66.58,1l-1-.55Z"/><path class="cls-6" d="M969.71,31.93l-.65-1,1,.6Z"/><path class="cls-6" d="M1006,31.86l-.9-.72c.77-.91.9,0,1.19.43Z"/><path class="cls-6" d="M1060.25,32l-1.47-1.57.37-.37,1.59,1.45Z"/><path class="cls-6" d="M716.19,33.39c-.42-.32-1.32-.49-.38-1.2a8.71,8.71,0,0,1,.78.8Z"/><path class="cls-6" d="M823.8,31.44l.61,1-1.07-.57Z"/><path class="cls-6" d="M841.91,31.45l.58,1-1-.56Z"/><path class="cls-6" d="M916.83,33.45l-.59-1,1,.57Z"/><path class="cls-6" d="M953.19,33.35l-.71-.91,1,.64Z"/><path class="cls-6" d="M970.09,31.56l1.51,1.5-.34.34-1.55-1.47Z"/><path class="cls-6" d="M989.4,33.34l-1.49-1.51.25-.24,1.51,1.48Z"/><path class="cls-6" d="M1007.51,33.34l-1.5-1.49.28-.28,1.49,1.5Z"/><path class="cls-6" d="M1025.71,33.26l-1.6-1.4.3-.3,1.42,1.58Z"/><path class="cls-6" d="M1060.74,31.48l.58,1.06-1.07-.57Z"/><path class="cls-6" d="M717.69,34.93c-.49-.52-1-1-1.49-1.54l.39-.4,1.57,1.46Z"/><path class="cls-6" d="M827.84,34.94l-.65-1,1,.58Z"/><path class="cls-6" d="M899.13,33.07l1.48,1.52-.25.25-1.53-1.46Z"/><path class="cls-6" d="M953.46,33.08c.49.51,1,1,1.48,1.51l-.24.24-1.51-1.48Z"/><path class="cls-6" d="M971.6,33.06l1.51,1.51-.32.31-1.53-1.48Z"/><path class="cls-6" d="M718.16,34.45l.56,1-1-.52Z"/><path class="cls-6" d="M829.3,36.5l-1.46-1.56.38-.38L829.79,36Z"/><path class="cls-6" d="M847.36,36.5l-.55-1.08,1.14.48A6.67,6.67,0,0,1,847.36,36.5Z"/><path class="cls-6" d="M973.11,34.57,974.66,36l-.37.37c-.5-.5-1-1-1.49-1.52Z"/><path class="cls-6" d="M829.79,36l.58,1-1.07-.58Z"/><path class="cls-6" d="M974.66,36l1.57,1.47-.42.43L974.3,36.4Z"/><path class="cls-6" d="M886.73,39.46a7.42,7.42,0,0,1-.78-.79c.65-.88.91-.15,1.23.34Z"/><path class="cls-6" d="M904.89,39.4c-.5-.51-1-1-1.52-1.51l.33-.33,1.52,1.51Z"/><path class="cls-6" d="M921.78,37.59l1.5,1.5-.27.27-1.5-1.5Z"/><path class="cls-6" d="M958.13,37.48c.28.28.84.76.8.82-.66.91-.93.13-1.27-.34Z"/><path class="cls-6" d="M976.23,37.5l.61,1-1-.58Z"/><path class="cls-6" d="M994.34,37.5l.6,1-1-.56Z"/><path class="cls-6" d="M887.18,39l.58,1-1-.54Z"/><path class="cls-6" d="M905.22,39.07l1.49,1.49-.32.31-1.5-1.48Z"/><path class="cls-6" d="M909.26,184.39l-.59-1,1.05.56Z"/><path class="cls-7" d="M563.81,507.07c2.13-8.37,8.94-12.84,15-18L699.78,594c-4.16-.22-6.59-.92-8.7-.38-20.86,5.4-35.28-4.61-49.77-18.19C616.21,551.84,589.72,529.76,563.81,507.07Z"/><path class="cls-7" d="M748.88,638.24c-6.08,4.35-8.3,12.71-16,15.39L716.16,639.9c2.47-8.16,7.85-13.91,15.08-18.11C736.93,627.48,744.52,631.13,748.88,638.24Z"/><path class="cls-8" d="M731.24,621.79c-7.23,4.2-12.61,10-15.08,18.11-5.41-2.72-7.32-6.58-3.95-12.16,6-1.93,9.26-6.68,11.93-12C726.59,617.67,729.61,618.92,731.24,621.79Z"/><path class="cls-7" d="M724.14,615.76c-2.67,5.3-5.88,10-11.93,12,3.32-6.13,3.4-12.59,1.11-19.88C718.52,609.5,721,613,724.14,615.76Z"/><path class="cls-10" d="M898.49,158.42l-6.07-.06c1.53-5.81-3.52-10.52-2.72-16.2,2.49-4.41,8.08-1.71,11.12-4.85C902.3,144.6,897.86,151.23,898.49,158.42Z"/><path class="cls-1" d="M895.82,98.22c-.34-.59-.7-1.17-1-1.77,0,0,.34-.29.52-.44l.82,1.92Z"/><path class="cls-1" d="M880.75,34.9a10,10,0,0,1,.14,1.34l-.73-.94Z"/><path class="cls-6" d="M564.14,472.11c-.88-3.87-3.66-5.74-7.19-6.83l-4.15-5.06c9.65,3.42,17.76,9.54,26.25,15,1.69,1.08.66,2.61-.29,3.86-1.38,1.81-2.81,1.46-4.53.41C570.66,477.3,568.78,472.8,564.14,472.11Z"/><path class="cls-1" d="M814.92,401.84c.37-1.15,1.14-2.54,2.3-1.74,1.57,1.08.35,2.4-.61,3.44Z"/><path class="cls-1" d="M812.26,394.09c.12.18.34.36.33.53s-.27.3-.42.45c-.12-.18-.35-.36-.33-.52S812.11,394.24,812.26,394.09Z"/><path class="cls-1" d="M693.17,311c2.5.71,3.94,1.93,3.11,3.9-1.36,3.27-1.77,7.64-6.43,8.16a2.1,2.1,0,0,1-2-3.13C689.25,316.68,690.21,313,693.17,311Z"/><path class="cls-1" d="M669.6,300c2.42.09,3.57,1.21,3.27,2.83-.65,3.65-1.47,7.48-5.85,8.53a1.84,1.84,0,0,1-2.23-2.21C665.77,305.64,666.76,302.05,669.6,300Z"/><path class="cls-1" d="M903.33,428.52c.63,4.91-1.06,7.78-2.2,10.75a2.38,2.38,0,0,1-3.63,1.34,2.29,2.29,0,0,1-.93-3.71C898.51,434.2,899.78,430.86,903.33,428.52Z"/><path class="cls-5" d="M1047.88,860.94c-35-.12-61.71-27.2-61.63-62.5a62.18,62.18,0,0,1,61.4-61.73c34-.29,62.68,28.12,62.74,62.23C1110.46,833.51,1082.68,861.06,1047.88,860.94Zm44.41-61.7c3.24-22.22-22.15-45.27-43.8-45-25.82.37-44.78,21.14-45.19,43.16a45.42,45.42,0,0,0,45,46.52C1070.8,843.94,1094.37,823.2,1092.29,799.24Z"/><path class="cls-8" d="M444,129c.32,4.34.67,8.68-1.24,12.81-12.82-3-25.24.67-37.89.49l-.14,2,26.83,21.42c-7.23,13.42-19.57,17.9-33.68,18.5-10.68.45-20.89-2.27-30.65-6.65-9.55-4.29-12.6-9.82-12.45-20.05.37-24.53,7.5-24.91,25-25,2.25,0,4.49-.06,6.74-.09,10.79-1,19.19-6.92,30-7.11C424.89,125.17,435.57,126.19,444,129Z"/><path class="cls-8" d="M570.47,169.58c-10.37,10.17-23.74,12.78-37.19,12.38-25.24-.75-47.39-24.59-48-50-.09-3.47,1.46-5.29,4.86-5.1,8.93.5,17.86,1.16,26.79,1.76a44.3,44.3,0,0,0,15.62-2.6c9.31-3.15,26-.37,36.76,4.38,4.37,1.92,4.66,6.71,3.75,12.24l-32.65-2.51c-1-.08-2-.26-2.66.79-.84,1.43.09,2.26,1.1,3.08Q554.66,156.78,570.47,169.58Z"/><path class="cls-8" d="M573,142.65c.91-5.53-2.53-7.89-6.9-9.81-10.76-4.74-22.2-2.84-33.37-3.64-5.27-.38-10.57-.39-15.86-.57-2.35-6.49-8.62-9.1-13.44-12.95-5.23-4.18-4.05-5.65,1.4-7.43,21.23-6.93,42.77-6.68,64.48-3,5.14.86,9,4,10.27,8.88,3.91,14.68,5.44,29.36-2.79,43.33C573.84,153,576.47,147,573,142.65Z"/><path class="cls-8" d="M444,129c-8.42-2.78-16.74.47-25.11.62-10.8.19-21.56,1.83-32.35,2.84-.46-6-6.24-7.17-9.6-10.44-4.61-4.49-9.94-8.24-15.42-12.66,3.24-2.64,6.72-3,10.06-3.33,17.79-2,35.46-1.32,52.87,3.19C436.24,112.25,443,119.2,444,129Z"/><path class="cls-11" d="M449.71,141.33c2.36-1.56,3.26-1,3.44,1.9.51,8.39-2.55,16.06-6,23.14-12.11,25.1-23.47,31.4-50.58,28.82-8.23-.79-16.23-2.51-23-7.68l0,0c2.44.71,4.72,2.39,7.47,1.23,19.08,3,37.15,2,51.89-12.75,7.12-7.13,11-15.92,13.69-25.4C447.48,147.44,448.66,144.41,449.71,141.33Z"/><path class="cls-11" d="M573,142.65c3.43,4.37.8,10.3,3.79,14.78-.44,4.92-2.1,9.21-6.36,12.14Q554.65,156.79,538.83,144c-1-.82-1.94-1.65-1.1-3.08.63-1.05,1.66-.87,2.66-.79Z"/><path class="cls-11" d="M431.55,165.74l-26.83-21.42.14-2c12.65.18,25.07-3.46,37.89-.49C440.32,150.37,437.58,158.82,431.55,165.74Z"/><path class="cls-11" d="M579.61,175.76c1,1.77,3.5,2.68.34,5.57-7,6.34-15,9.67-24,11.26-13,2.31-25.76,2.51-37.24-5.56,19.79,1.77,39.19,1.41,55.93-11.48C576.76,173.94,578,173.88,579.61,175.76Z"/><path class="cls-4" d="M365.76,123.38c-7.23,3-12.6,7.47-17.73,13.71-1.08-5.44-3-11.93.6-14.22C352.94,120.12,359.63,119.53,365.76,123.38Z"/><path class="cls-9" d="M381,188.71c-2.75,1.16-5-.52-7.47-1.23C376.34,186,378.59,187.87,381,188.71Z"/><path class="cls-7" d="M772.11,45.26l1.63,1.64Z"/><path class="cls-7" d="M1092.29,799.24c2.08,24-21.49,44.7-44,44.71a45.42,45.42,0,0,1-45-46.52c.41-22,19.37-42.79,45.19-43.16C1070.14,754,1095.53,777,1092.29,799.24Z"/></g></svg>