<svg xmlns="http://www.w3.org/2000/svg" viewBox="0 0 1400 947"><defs><style>.cls-1{fill:#e8e9eb;}.cls-2{fill:#fdfdfd;}.cls-3{fill:#313638;}.cls-4{fill:#e4b363;}.cls-5{fill:#216696;}.cls-6{fill:#e0dfd5;}.cls-7{fill:#07c39b;}.cls-8{fill:#d1d1d1;}.cls-9{fill:#044e91;}.cls-10{fill:#06325d;}.cls-11{fill:#f4efd5;}.cls-12{fill:#fa4d3b;}</style></defs><title>myskills</title><g id="skills_3" data-name="skills 3"><path class="cls-1" d="M1164.64,194.45v81.26a8,8,0,0,0-2.22.29c-37.82,16.37-75.57,32.92-113.47,49.09-17.65,7.53-34.87,16.11-53.11,22.32-3.63.38-3.48-2.87-4.76-4.79-3.71-5.58-12.45-6-14.76-.05-2.17,5.64-5.65,5.24-9.82,5.05s-8,.62-10.1,4.83-.81,7.74,2.28,10.88c-12.59,7.18-26.28,11.91-39.48,17.73-4,1.75-5.36,3.61-3.49,7.95a140.61,140.61,0,0,1,8.48,26.33c1,4.49,3.32,5.61,7.47,4.65,16.5-3.79,32.89-8.11,49.72-10.31-1,4.45-5.24,5.27-8.3,7.32-5,3.33-6.74,7.7-3.64,12.8,2.94,4.83,7.54,5,12.52,2.64,2.84-1.34,5.13-3.94,9.48-4.13v21.77a3.9,3.9,0,0,0-1.21.79c-18.18,1.7-36.35,3.5-54.54,5.05-3.89.33-4.33,2.28-4.08,5.47.6,7.73,1.19,15.46.41,23.25-1.07,10.7-1,10.89,10,11.93q82.21,7.81,164.45,15.49c19.42,1.85,38.81,3.94,58.21,5.92v66.21c-5.84-1.4-11.65-2.89-17.51-4.2q-71.76-16-143.53-32-35.52-8-71-16.11c-4.65-1.07-7.56-.41-8.6,5a124.87,124.87,0,0,1-8.23,25.69c-1.79,4.15-1,6.43,3.29,8.06,6.3,2.41,12.46,5.2,18.66,7.87q78.21,33.62,156.4,67.26c-11.25,1.29-22.68-1.68-33.91,2.84-15,6-29.49,11.89-34.84,29.17-.17.55-1.69.67-2.58,1,2.45-3.78-.23-5.11-3-6.74q-58.73-34.68-117.33-69.54c-3.63-2.17-5.54-1.84-7.87,1.61-5.32,7.85-10.69,15.7-16.64,23.07-2.93,3.61-2.82,5.5.66,8.37,7.14,5.88,13.93,12.17,20.89,18.25q32.46,28.34,64.94,56.65c-7.09,1.67-13.87,4.39-21.33,4.83-15.74.91-31.1-2.83-46.7-3.32-.3-.92-.34-2.07-.93-2.74-14.46-16.55-29-33-43.44-49.62-2.37-2.74-3.94-1.88-6.18-.11-5.48,4.34-11,8.67-16.7,12.69-11.45,8.06-11.75,8.12-4.51,19.83,8.5,13.76,15.37,28.52,25.48,41.28-8,14.41-19.16,25.45-34.8,31.47-9.13-21.39-18.31-42.77-27.36-64.2-1.52-3.61-3.57-4.08-7.07-2.77-7.73,2.88-15.52,5.65-23.43,8-9.33,2.75-9.2,2.48-7,12.12,5.91,26.37,11.64,52.77,17.43,79.17-15.11,3.76-30.38,6.06-46,5.18q-.3-2.91-.61-5.81a87.25,87.25,0,0,0,9,.12c14.68-1.29,24.75-17.92,18.47-31.09-6.18-12.94-12-26.3-19.93-38.11-5.85-8.64-8.23-17.91-11-27.37-3.59-12.17-5.89-24.7-10.43-36.6L692,602.53c0-7.09,3.61-2.33,5.93-1.76,4.35,6.26,8.57,12.62,13.1,18.74,2.21,3,2.38,5.3.47,8.69-4.54,8.07-4.26,16.54.93,24.16,8.31,12.2,16.86,24.25,25.83,36a23.47,23.47,0,0,0,31,5.88c10.41-6.29,14.65-18.55,9.59-30-1.77-4-1.36-5.67,1.92-8.48,12.69-10.9,15.2-25.69,7.64-41.16-3.86-8.75-9.81-16.22-15-24.16-18-27.72-36.18-55.31-54.3-82.94-4.19-11-4.08-11.38,5.54-18.09l58.21-40.6c5.87,1.5,11.06-1.74,16.63-2.38,3.26,3.46,4.6,8.79,10,10.21-2.5,6.74-9.86,8-14.29,12.65-8.22,8.65-10.11,20.53-1.74,28.13,11.19,10.15,23.09,19.75,36.64,26.86.26.79.33,2.26,1.46,1.61s.15-1.59-.65-2.17c-1-3.75-3.9-6.29-5.83-9.45-4.26-7-10.87-12.55-13.06-20.76-1.39-5.23.14-10.59,4.27-13.45s6.31,2.57,8.69,4.9c19.25,18.87,38.3,37.94,57.42,56.95,1.91.33,3.13,3.08,5.56,1.58l-1,1.56c-1.55,3.57,2.06,3.42,3.49,4.85l1.53,1.55,1.12,1.72c1.09-1,.28-1.73-.43-2.44l-1.57-1.5a2.27,2.27,0,0,0-.95-2.61c-.77-1-1.53-2-2.3-3.08,0-2.92-1.73-5.16-2.92-7.6-11.92-24.44-23.69-49-36-73.23-3.22-6.38-.69-7.91,4.85-8.56,7.24-.86,12.51,2.15,16.57,8,5.37,7.72,10.92,15.31,16.38,22.95-3.13-13.65-7.06-26.77-11.41-39.74C870.55,431.11,856.67,426.69,844,435c-4.33,2.85-8.08,6.64-14,8.87,1.08-6.37-3.85-9.68-6-14.38,5.92-5.58,6.37-12.14,3.46-19.3-4.56-7.39-9.93-14.41-13.52-22.24-6.85-14.94-17.75-22-34.14-20.5-6-7.69-6-7.68,2.76-10.51,7.55-2.44,15-5.14,22.65-7.28,9.23-2.59,15.82-8,19.62-16.77,4.08-1.45,2.63-5,2.66-7.71.16-15.5.08-31,.09-46.5,5.66,4.1,11.6,7.87,16.88,12.41,3.73,3.22,6,3.13,9.1-.62,7.06-8.43,14.51-16.53,21.78-24.79q86.71-98.53,173.41-197.1,27.95-31.78,55.69-63.76c18.81,0,37.62.1,56.43-.1,3.23,0,3.89.63,3.86,3.86-.2,18.81-.1,37.62-.1,56.43a18.39,18.39,0,0,0-2.52,1.57q-90.39,79.55-180.75,159.11C947.59,255.48,913.9,285.34,880,315c-4.19,3.67-5.24,6.14-1.24,10.81a182.46,182.46,0,0,1,15,20.59c3,4.67,5.15,5,10,2.14q85-50.72,170.39-100.92Q1119.33,220.91,1164.64,194.45Z"/><path class="cls-2" d="M569.29,859.84c-8.15-2.4-16.19-5.28-24.08-8.44-18.68-7.48-32.14-19.65-36.66-40.34-3.44-15.72-14.7-23.72-29.7-27.32-10.2-2.44-20,0-29.37,3.32-4.88,1.71-6.81,1.48-8.82-3.66C430.3,756.83,408.8,742.72,380.44,742a69.16,69.16,0,0,0-37.33,9.13c-10.93,6.27-22.36,8.86-35.28,6.48-12.11-2.23-20.78-7.57-26.1-18.78-3.86-8.11-7.5-16.31-12.81-23.75C257.5,699,242,691,222.64,689.53V560.11c2.54,1,5.11,1.94,7.61,3,8.05,3.59,14,10.15,21.08,15.07,7.94,9,15.81,18.18,19.66,29.75,2,6,4.31,6.62,9.95,4.12,25.48-11.29,50.38-10.1,74.27,4.84,8.6,5.59,17,11.42,23.12,19.87,3.34,4.62,7.36,6.49,13.26,6.19,7.91-.39,16-1.09,23.8,1.35,14.14,3.72,24.61,12.08,32,24.65,2.23,3.79,5.57,6.93,8.4,10.36a98.22,98.22,0,0,0,42.89,23.31c3.45.07,7,.72,10.34.05,4.33-.87,9-2.4,8.68-8.3-.34-5.48,1.72-10.37,3-15.46a2.87,2.87,0,0,0,2.7-2.14c2.61-8.34,10.13-13.55,16.71-15.67,13.31-4.29,27.61-2.7,38.21,7.71,5.77,5.67,11.32,7.1,18.93,7.35,23.35.75,40.78,24.27,38.14,47.42-.74,6.52-1.85,13.12,2.06,19.59a54.15,54.15,0,0,0,30.91,24.36h0c-4.08,2.85-8.44,2.06-12.69.7-9.54-3-19-6.26-28.52-9.41l-15.5-5c4.28,6.56,8.47,10.92,13.76,14.24.35.92.42,2.25,1.08,2.7,13.21,9,25.78,19,40.68,25.24,17.7,6.62,35.77,9.95,54.64,6.11,15.63.88,30.9-1.42,46-5.18l0,.18c2.59,4.33,4.8,1.81,7-.39a149.51,149.51,0,0,0,46.66-15.5c10-4.58,16.79-11.09,18.28-18.07-2.61,1.89-5.68,2.19-7.7,3.52C825.6,771.05,817.54,771,811,775c-6.68.75-13.3,2.9-21.55,1.84l25.88-12.11c15.64-6,26.75-17.06,34.8-31.47,12.06-14.42,26.73-23.15,46.28-21.33,15.6.49,31,4.23,46.7,3.32,7.46-.44,14.24-3.16,21.33-4.83,9.74-4.25,17.67-11,25.46-18,9.36-8.41,19.79-14.22,32.88-13.63.89-.32,2.41-.44,2.58-1,5.35-17.28,19.89-23.15,34.84-29.17,11.23-4.52,22.66-1.55,33.91-2.84,9,.12,18,.43,27,.3,15.15-.21,27.34-6.85,37.58-17.71,2-2.13,2.65-5.51,5.88-6.5v73.73c-4.28-.91-7.93-3.38-11.07-6-17.63-14.82-47.49-.18-51.86,18.23-1.53,6.47-4.26,7.48-10.26,5.94-10.56-2.71-20.82.11-30.64,3.88-7.17,2.74-10.3,9.13-11.93,16.27-2.33,10.21-3.81,20.62-7.69,30.46-5.66,14.39-20.35,24.93-34.49,24.6a24.88,24.88,0,0,1-18-8.2c-20.16-21.58-51.92-11.05-62.29,11.63-5.16,11.27-8.85,23.41-18.14,32.58C892.61,840.4,873.19,848.4,852.46,854"/><path class="cls-2" d="M821.57,849.08c16-8,28.58-20,40.67-32.76.8-.84,1-2.21,1.52-3.34l.54-.71-.7.55c-5.85.76-10.57,4.33-15.72,6.68-27.33,12.47-56.06,19.55-85.7,23.61-23.52,3.22-47,6.28-70.83,6-45-.58-87.05-11.35-125-36.23-2.93-1.92-5.82-3.88-8.78-5.74s-5.42-4.47-10.79-5.78c10.11,19.91,24.49,33.73,42.25,44.24"/><path class="cls-1" d="M251.33,578.23c-7.1-4.92-13-11.48-21.08-15.07-2.5-1.11-5.07-2-7.61-3V516.48a63.85,63.85,0,0,0,7.44.15q76.56-7.1,153.12-14.33c22.41-2.11,44.8-4.34,67.21-6.41,3.4-.31,5.76-.85,5.29-5.18a135.28,135.28,0,0,1,0-30c.34-3.1-.76-4.48-4-4.82-16.16-1.67-32.28-3.74-48.55-4.07-3.75-1.81-7.68-1.79-11.66-1.1l-5-.86c3.31-9.59,2.28-12.08-6.81-16.31-5.42-2.52-10.91-4.87-16.29-7.47-5.69-2.75-10.58-2.41-14.44,3.08-4.69-.36-2-6.55-5.9-7.5-2.66-4.46-6.19-7.32-11.64-5.24s-6.27,6.62-5.7,11.65c.61,5.4,1.44,10.77,2.18,16.15l-5.65-.4c-.06-4.76-1-8.93-6.25-10.73-5-1.71-7.93,1.37-11.12,4.26-2,1.8-3.51,4.38-6.64,4.51-8.13-1-16.24-2.46-24.4-2.89-17.12-.88-34-4.66-51.25-3.78V367.5c9.49,2.15,19,4.35,28.46,6.44q39.81,8.79,79.62,17.49c.53,4.25,1,8.6,5.7,10.47s8.64-.22,12.09-3.51a29.11,29.11,0,0,1,3.61-2.53c3.95,1.9,8,3.45,12.5,2.85,3.13,2,6.15,4.21,10.12,4.12,5.54-.45,10.76,1,15.92,2.74-7.43,5.52-8.11,9.66-2.57,16.74a121.51,121.51,0,0,0,23.17,22.42c5.81,4.36,11.46,4.23,14.48-.46,3.57-5.56,1.36-9.83-3.49-13.49-8.64-6.52-16.46-13.89-22.67-22.84,3.44.53,6.92.87,10.31,1.63,14.86,3.32,29.67,6.8,44.53,10.14,3.68.83,7.4,1.8,8.58-3.83a150.88,150.88,0,0,1,8.87-27.77c1.34-3.14.58-5.19-2.62-6.53q-31.39-13.14-62.75-26.38-.28-8.56-.55-17.13c-.25-8.43-3-11.24-11.2-11.4-3-.06-6,.08-9,0-15.92-.54-31.87,1.17-47.76-.92-18-9.34-36.92-16.48-55.44-24.57-19.89-8.7-39.95-17-59.94-25.45V194.45c1.34.63,2.74,1.15,4,1.9Q352.82,271,479,345.68c12.14,7.18,12.3,7.08,18.11-6.57,3,0,4,2.69,5.67,4.36,14.74,14.88,32,23.4,53.45,21.56,6.68-.58,13.35-1.33,20-2-3.89,7.89-9.52,14.64-14.5,21.8-7,10.05-14.64,19.72-15.16,32.74-3.95,9.45-2.66,18.62,4.37,25.57,5.67,5.6,8,12.17,10.81,19.1,2.09,5.19.92,8.68-2.12,12.83-18.39,25.21-36.58,50.57-54.83,75.87-2.34,3.24-4.82,6.39-5.76,10.4-7,5.82-11.64,13.44-15.91,21.28-2.15,3.93-2.54,8.92-.43,12.28,4.34,6.88,0,8.88-4.67,11.72-20.84,12.63-42.4,24.07-62.62,37.73-7.81-2.44-15.89-1.74-23.8-1.35-5.9.3-9.92-1.57-13.26-6.19-6.1-8.45-14.52-14.28-23.12-19.87,2.83.9,5.41,0,8-1.13q52.63-22.71,105.31-45.36c3.77-1.61,4.82-3.6,3.2-7.51a151.84,151.84,0,0,1-5.43-15.53c-4.76-16.33-4.68-16.36-21.27-13.08-2.21.44-4.4.91-6.6,1.39-43.4,9.69-86.85,19.22-130.2,29.16C289.21,569.23,270,572.57,251.33,578.23Z"/><path class="cls-1" d="M734.27,4.85H802c-10.56,46.95-21.23,93.88-31.57,140.88-1.9,8.64-5.57,17-4.55,26.21l0-.14c-1.28-.23-1.33.85-1.68,1.6-3,5.06-5.33,10.68-9.1,15.06-6.83,8-9.26,16.06-4.08,25.66-.92,2.2-5,4.34-1.9,6.68,8.77,6.55,17.13,13.83,27.44,18.08,2,4.88,6.79,6.9,10.75,9.3,6,3.65,6.72,6.9,1.33,11.39-1.21-.77,1.77-6-3.11-2.89-2.22,1.42-4,.78-6.1-.75-11.74-8.8-23.65-17.36-35.36-26.2-5.64-4.26-5.15-6.8,1.85-10.37-4.13-3.41-8.24-6.6-12.09-10.06-5.38-4.84-8.51-1.41-11.27,2.94-2.5,3.93-7.8,7.52-.66,12.51,4.7,3.28,11,5.16,13,11.56q-4.23,5.76-8.45,11.55c-.77.9-1.54,1.8-2.32,2.69-5.43,6.29-8.22,14.85-16.21,19-2.16.78-2.43,3.15-3.83,4.57-4.15.76-3.94-3.06-5.05-5.12-6.78-12.61-16.3-22-29.59-27.84-10.73-4.72-21.71-4.24-32.86-3.63a72.36,72.36,0,0,0-.89-7.39Q623.11,173,610.39,116,597.94,60.39,585.3,4.85H653a68.74,68.74,0,0,0-.13,7.45q4.44,48.24,9,96.47c3.91,41.37,7.91,82.74,11.76,124.11.33,3.61,1.16,5.5,5.36,5a118.22,118.22,0,0,1,29.24,0c4.06.52,5.08-1.3,5.42-5,1.69-18.44,3.73-36.86,5.48-55.31,3.89-41.12,7.93-82.24,11.38-123.4C731.9,37.74,735.22,21.45,734.27,4.85Z"/><path class="cls-1" d="M282.83,4.85q39.48,45.15,79,90.27,67.11,76.29,134.36,152.46a12.68,12.68,0,0,1,1.38,2.51c-9.87,1.46-19.46,3.76-28.46,8.31-3.83,1.93-5.14,3.77-2.82,8,3.36,6.07,6.07,12.51,9.05,18.79-5.3-1-8.19-5.45-11.85-8.67Q343.94,171.43,224.53,66.24a13.47,13.47,0,0,0-1.89-1.2c0-18.81.1-37.62-.1-56.43,0-3.23.63-3.89,3.86-3.86C245.21,5,264,4.85,282.83,4.85Z"/><path class="cls-1" d="M560.59,278.36c8.92-7.07,8.89-7.05,2.91-17.15Q488.82,135,414.15,8.86c-.75-1.27-1.28-2.67-1.91-4H493.5a15.28,15.28,0,0,0,.65,2.9c34.31,79.43,68.77,158.78,102.74,238.35,3,7,6.38,9.35,13.27,7.58-12,13-17.27,28.34-16.07,45.93.5,7.21,1.11,14.42,1.66,21.63-10.6-1.09-16.47-8.14-21.1-16.75Z"/><path class="cls-1" d="M975,4.85c-17.43,29.76-34.77,59.57-52.31,89.26Q876.94,171.63,830.9,249c-1.46,2.44-1.48,6.59-5.88,6.54-.26-17-.57-34-.72-51,0-3.3-.3-6-4.28-6.45,2.14-2.54-.11-4.74-.91-6.71a18.81,18.81,0,0,1-.73-12.79,3.39,3.39,0,0,1,.6-1l.34-.11-.05-.35c5.11-10.14,13.3-18.2,18.85-28,1.52-1.94,3-4,4.58-5.81,4.1-4.66,5.45-8.82-1.84-11.6-2.7-1-4.55-3.08-6.37-5.12a3.14,3.14,0,0,1-.26-4.17c1.11-1.35,2.61-2.85,4.45-1.37,4.38,3.54,5.47,0,6.78-3,8.06-18.6,16.15-37.19,24.11-55.83,8.14-19.07,16.14-38.2,24.21-57.31Z"/><path class="cls-1" d="M1056.74,391.34q40.48-8.85,81-17.72c9-2,18-4.07,27-6.12v67.72c-16.85-1-33.37,2.61-50.07,3.66-19,1.18-37.86,3.58-56.78,5.45-.17-9.42-.24-18.85-.56-28.26-.28-8.45-3-11.05-11.4-11.13-8.7-.08-17.4-.06-26.1,0-5.94,0-4.29-2.16-1.45-4.76l15.11-3.51c2.93-.17,5.87-.54,8.79-.46C1047.67,396.34,1053.07,396.51,1056.74,391.34Z"/><path class="cls-3" d="M499,561.34c.94-4,3.42-7.16,5.76-10.4,18.25-25.3,36.44-50.66,54.83-75.87,3-4.15,4.21-7.64,2.12-12.83-2.77-6.93-5.14-13.5-10.81-19.1-7-6.95-8.32-16.12-4.37-25.57,1.12,5.87,5.69,9.24,9.72,12.81,27.82,24.7,55.82,49.19,83.62,73.91,9.65,8.59,26.92,8.4,34.81,2,3.48-2.83,7.17-5.4,10.86-8q41.81-29,83.68-57.95c3.5-2.4,3.36-4.13,1.11-7.56-4.72-7.22-10.75-13.58-14.36-21.53,7.53-5.31,14.9-10.89,22.65-15.88,8.27-5.33,13.71-3.81,18.88,4.24,3.62,5.62,7.36,11.18,11.26,16.61,6.68,9.34,5.9,12.16-3.59,18.3-7.41,4.79-16.24,7.4-22.32,14.26l-58.21,40.6c-9.62,6.71-9.73,7.06-5.54,18.09-10.51,5.34-17.89,15-28.12,20.69-7.34,4.11-13.8,10-22,12.3-9.09,2.57-18.43,4.22-27.7,6.1a6.33,6.33,0,0,0-4.06,2.88c-7.93,10.47-7.68,38.42,1.52,47.47,3.52,3.46,4.42,7.24,3.89,12.16-.95,8.86.59,17.39,5.59,25.1,8,12.35,8.14,12.39,7.7,27.29-.35,11.67,6.9,19.93,12.39,29,2,3.33,2.72,8.53,8.61,8s11.29-1.32,16.24-4.81c10.58-7.47,14.86-17.72,14.15-30.36,4.54,11.9,6.84,24.43,10.43,36.6,2.8,9.46,5.18,18.73,11,27.37,8,11.81,13.75,25.17,19.93,38.11,6.28,13.17-3.79,29.8-18.47,31.09a87.25,87.25,0,0,1-9-.12c-11.2-3.93-15.06-14.1-20-23.38-8.87-16.48-15.76-34.11-27.93-48.69-1.53-2.85-2.89-5.81-4.62-8.53-29.45-46.39-54.43-94.89-70.95-147.53-5.67-18.07-12.31-35.84-18.75-54.45-2,2.64-3.46,4.63-5,6.56-16.67,21-29.59,45-48.93,64-4.59-.92-9.34.74-13.94-1.21C501.34,579,498.63,571.07,499,561.34Z"/><path class="cls-4" d="M707.35,663.33c.71,12.64-3.57,22.89-14.15,30.36-5,3.49-10.46,4.35-16.24,4.81s-6.59-4.72-8.61-8c-5.49-9-12.74-17.29-12.39-29,.44-14.9.32-14.94-7.7-27.29-5-7.71-6.54-16.24-5.59-25.1.53-4.92-.37-8.7-3.89-12.16-9.2-9.05-9.45-37-1.52-47.47a6.33,6.33,0,0,1,4.06-2.88c9.27-1.88,18.61-3.53,27.7-6.1,8.18-2.31,14.64-8.19,22-12.3,10.23-5.74,17.61-15.35,28.12-20.69,18.12,27.63,36.31,55.22,54.3,82.94,5.15,7.94,11.1,15.41,15,24.16-.24,4.67.82,9.36-1.47,14-9.79,19.67-34.27,23.68-50.55,8-11.63-11.22-17.88-26.24-27.08-39.18-5.5-7.73-10.76-16.05-22.41-14.16a67,67,0,0,0,5.1,19.33Z"/><path class="cls-5" d="M1018.28,400.16c-2.84,2.6-4.49,4.79,1.45,4.76,8.7,0,17.4-.06,26.1,0,8.37.08,11.12,2.68,11.4,11.13.32,9.41.39,18.84.56,28.26-2.52,8.36-.34,16.94-1.13,25.4-.57,6-3.82,8.18-9.48,7.9-3.36-.17-5.62-1.22-6.48-4.9-.55-2.36-2-4.52-3-6.76-7-1.64-14.13-.53-21.2-.63-2.63,0-6-1.64-7.84,2-.22,4.28-.5,8.89-5.64,9.93-3.52.71-8.07,2.27-9.81-3.3-.77-7.68,1.48-15.54-1.3-23.11-.14-.26-.28-.52-.43-.78V428.31c-4.35.19-6.64,2.79-9.48,4.13-5,2.37-9.58,2.19-12.52-2.64-3.1-5.1-1.31-9.47,3.64-12.8,3.06-2.05,7.32-2.87,8.3-7.32l4.3-.2c5.42-2.75,9.2-7.1,12.74-12.09-3-1.55-6.64-2.2-7.34-.09-2.41,7.29-8.05,4-12.47,4.7-3.73-7.12-10.4-5.93-16.66-5.9-2.76,0-5.53-.16-8.27.06-6.47.53-9.91-3.16-11-8.74-.88-4.36,5.45-9.12,11.39-9.23,4.51-.08,9-.11,13.54,0s7.59,0,7.55-6.12c0-5.64-2.3-7-7.14-6.47-3.4.4-6.36-.93-9.32-2.31-3.09-3.14-4.31-6.72-2.28-10.88s5.84-5,10.1-4.83,7.65.59,9.82-5.05c2.31-6,11-5.53,14.76.05,1.28,1.92,1.13,5.17,4.76,4.79,3,.12,6,.34,9,.34,4.92,0,8.63,2.37,8.83,7.12.2,5-1.8,9.62-8,10.31a44.33,44.33,0,0,1-6.7.42c-5.31-.23-6,3.32-6.23,7.3-.2,4.45,2.59,5.2,6.34,5.34,10,.35,14.43-3.59,17.94-15.53,1.27-4.32,1.54-9.87,6.89-11.56,2.92-.92,6.23-1.09,9,1.71,3.7,3.69,2.66,8,1.77,11.95-3,13.19-3.16,13.14,10.35,13.39,9.46.18,11,1.94,11.6,13.14-3.67,5.17-9.07,5-14.56,4.85-2.92-.08-5.86.29-8.77.46C1028.32,397.57,1021.91,392.87,1018.28,400.16Zm19.65,27.68c1.48-1.44,2.86-2.88.31-4.6-8.36-.18-16.72-.4-25.09-.51-2.2,0-4.84-.17-3.63,3.5l.18,1.56A60.66,60.66,0,0,0,1037.93,427.84Zm0,19.63c0-1-.06-1.9-.1-2.85-8.83,0-17.65,0-26.48,0a2.4,2.4,0,0,0-2.66,2.06c-.18,1.59,1.09,2.17,2.38,2.11C1020.06,448.4,1029,447.92,1038,447.47Z"/><path class="cls-3" d="M820,198.08c4,.44,4.28,3.15,4.3,6.45.15,17,.46,34,.72,51q.15,10.85.31,21.65c0,18.58,2.13,37.18-.49,55.74-3.8,8.8-10.39,14.18-19.62,16.77-7.63,2.14-15.1,4.84-22.65,7.28-8.79,2.83-8.79,2.82-2.76,10.51,1.16,2.25,2,4.56.75,7.06-2.41,5-18.19,13.27-23.71,12.44-3.15-4.71-6.46-9.33-9.4-14.17-2-3.22-4.28-3.25-7.44-2.2-6.78,2.25-13.65,4.24-20.48,6.34a27.36,27.36,0,0,0-1.64-5.7c-3.72-9.13-2.11-13,7.11-16.05,7.78-2.59,15.63-4.64,22-10.3,2.57-2.27,6.27-3.76,9.85-2.37,4.23,1.64,8-.09,11.65-1.22,7.63-2.34,15.07-5.32,22.64-7.86,13.44-4.51,19.78-13.16,20-27.28.17-13-2-25.92-1.51-39,.43-12,.12-24.06,0-36.1,0-2.43,1.38-5.88-3-6.5,2.85-5.83,8.45-11.67-.09-17.44C807.37,198.7,813.78,198.52,820,198.08Z"/><path class="cls-6" d="M821.53,781.3a149.51,149.51,0,0,1-46.66,15.5l-7,.39,0-.18c-5.79-26.4-11.52-52.8-17.43-79.17-2.16-9.64-2.29-9.37,7-12.12,7.91-2.34,15.7-5.11,23.43-8,3.5-1.31,5.55-.84,7.07,2.77,9,21.43,18.23,42.81,27.36,64.2l-25.88,12.11c8.25,1.06,14.87-1.09,21.55-1.84C816.18,774.35,822.24,772.2,821.53,781.3Z"/><path class="cls-3" d="M686.87,583.2c11.65-1.89,16.91,6.43,22.41,14.16,9.2,12.94,15.45,28,27.08,39.18,16.28,15.7,40.76,11.69,50.55-8,2.29-4.6,1.23-9.29,1.47-14,7.56,15.47,5,30.26-7.64,41.16-3.28,2.81-3.69,4.51-1.92,8.48,5.06,11.42.82,23.68-9.59,30a23.47,23.47,0,0,1-31-5.88c-9-11.72-17.52-23.77-25.83-36-5.19-7.62-5.47-16.09-.93-24.16,1.91-3.39,1.74-5.7-.47-8.69-4.53-6.12-8.75-12.48-13.1-18.74C695.27,594.26,690.4,589.15,686.87,583.2Z"/><path class="cls-3" d="M824,429.52c2.12,4.7,7,8,6,14.38,5.95-2.23,9.7-6,14-8.87,12.66-8.34,26.54-3.92,31.31,10.32,4.35,13,8.28,26.09,11.41,39.74-5.46-7.64-11-15.23-16.38-22.95-4.06-5.84-9.33-8.85-16.57-8-5.54.65-8.07,2.18-4.85,8.56,12.27,24.27,24,48.79,36,73.23,1.19,2.44,3,4.68,2.92,7.6l.12,0c-2.44,1.5-3.66-1.25-5.57-1.58,2-3.95-1.58-6-3.24-8.41-17.53-24.9-35.31-49.64-52.93-74.49-2.93-4.13-5.11-9.07-11-3.17-1.09,1.09-3.78.58-5.72.8-5.35-1.42-6.69-6.75-10-10.2C806.06,438.47,816.18,435.65,824,429.52Z"/><path class="cls-6" d="M809.45,456.64c1.94-.22,4.63.29,5.72-.8,5.91-5.9,8.09-1,11,3.17,17.62,24.85,35.4,49.59,52.93,74.49,1.66,2.37,5.23,4.46,3.24,8.41-19.12-19-38.17-38.08-57.42-56.95-2.38-2.33-4.46-7.82-8.69-4.9s-5.66,8.22-4.27,13.45c2.19,8.21,8.8,13.77,13.06,20.76,1.93,3.16,4.85,5.7,5.83,9.45a3.54,3.54,0,0,1-.81.56c-13.55-7.11-25.45-16.71-36.64-26.86-8.37-7.6-6.48-19.48,1.74-28.13C799.59,464.63,807,463.38,809.45,456.64Z"/><path class="cls-6" d="M673.3,724.31c12.17,14.58,19.06,32.21,27.93,48.69,5,9.28,8.84,19.45,20,23.38q.32,2.89.61,5.81c-18.87,3.84-36.94.51-54.64-6.11.2-8.72-1.94-17.74,4-25.69.85-1.16-1.81-1.83-2.76-2.81h0Q670.86,745.95,673.3,724.31Z"/><path class="cls-7" d="M985.68,409.48l-4.3.2c-16.83,2.2-33.22,6.52-49.72,10.31-4.15,1-6.51-.16-7.47-4.65A140.61,140.61,0,0,0,915.71,389c-1.87-4.34-.49-6.2,3.49-7.95,13.2-5.82,26.89-10.55,39.48-17.73,3,1.38,5.92,2.71,9.32,2.31,4.84-.57,7.1.83,7.14,6.47,0,6.14-3.19,6.26-7.55,6.12s-9-.12-13.54,0c-5.94.11-12.27,4.87-11.39,9.23,1.11,5.58,4.55,9.27,11,8.74,2.74-.22,5.51-.05,8.27-.06,6.26,0,12.93-1.22,16.66,5.9C979.56,405.82,987,403.47,985.68,409.48Z"/><path class="cls-7" d="M824,429.52c-7.83,6.13-18,9-24.51,16.92-5.57.63-10.76,3.87-16.63,2.37,6.08-6.86,14.91-9.47,22.32-14.26,9.49-6.14,10.27-9,3.59-18.3-3.9-5.43-7.64-11-11.26-16.61-5.17-8.05-10.61-9.57-18.88-4.24-7.75,5-15.12,10.57-22.65,15.88L751.53,406l-.1-.21c1-1.34,1.84-3,3.16-4,8.36-6,16.5-12.42,25.36-17.59,9.14-5.33,12.46-4.44,19.42,3.25,3.26,3.6,5.76,7.91,8.53,11.95,9.34,13.59,9.33,13.6,19.57,10.8C830.38,417.38,829.93,423.94,824,429.52Z"/><path class="cls-6" d="M827.47,410.22c-10.24,2.8-10.23,2.79-19.57-10.8-2.77-4-5.27-8.35-8.53-11.95-7-7.69-10.28-8.58-19.42-3.25-8.86,5.17-17,11.59-25.36,17.59-1.32.95-2.12,2.63-3.17,4-.24-6.86-3.17-14.49,5.43-18.8,5.52.83,21.3-7.44,23.71-12.44,1.21-2.5.41-4.81-.75-7.06C796.2,366,807.1,373,814,388,817.54,395.81,822.91,402.83,827.47,410.22Z"/><path class="cls-8" d="M824.84,332.92c2.62-18.56.45-37.16.49-55.74l2.26,1.53c0,15.5.07,31-.09,46.5C827.47,327.9,828.92,331.47,824.84,332.92Z"/><path class="cls-8" d="M686.87,583.2c3.53,5.95,8.4,11.06,11,17.57-2.32-.57-5.88-5.33-5.93,1.76A67,67,0,0,1,686.87,583.2Z"/><path class="cls-9" d="M991.54,470.59c-2.3-6.45-.15-13.2-1.31-19.72a3.9,3.9,0,0,1,1.21-.79l.43.77Z"/><path class="cls-8" d="M890.11,546.62a2.27,2.27,0,0,1,.95,2.61,5.87,5.87,0,0,1-.65.67c-1.43-1.43-5-1.28-3.49-4.85Z"/><path class="cls-8" d="M830.87,523.72c.8.58,1.65,1.61.65,2.17s-1.2-.82-1.46-1.61A3.54,3.54,0,0,0,830.87,523.72Z"/><path class="cls-10" d="M890.11,546.62l-3.19-1.57,1-1.56-.11,0C888.58,544.57,889.34,545.6,890.11,546.62Z"/><path class="cls-8" d="M892.63,550.73c.71.71,1.52,1.41.43,2.44l-1.12-1.72Q892.27,551.08,892.63,550.73Z"/><path class="cls-8" d="M891.94,551.45l-1.53-1.55a5.87,5.87,0,0,0,.65-.67l1.57,1.5Q892.27,551.08,891.94,551.45Z"/><path class="cls-1" d="M673.3,724.31q-2.44,21.63-4.87,43.27a54.15,54.15,0,0,1-30.91-24.36c-3.91-6.47-2.8-13.07-2.06-19.59,2.64-23.15-14.79-46.67-38.14-47.42-7.61-.25-13.16-1.68-18.93-7.35-10.6-10.41-24.9-12-38.21-7.71-6.58,2.12-14.1,7.33-16.71,15.67a2.87,2.87,0,0,1-2.7,2.14c-10.17,5.28-15.66,14.92-22.06,23.71a98.22,98.22,0,0,1-42.89-23.31,7.41,7.41,0,0,0,5.33-2.19c16-14.21,32.07-28.43,48.29-42.42,3.33-2.87,2.15-4.49.07-7.27-4.34-5.79-9.76-10.94-12.76-18.71,16.77-.44,22.91-12,28.31-24.42,19.34-19,32.26-42.94,48.93-64,1.53-1.93,3-3.92,5-6.56,6.44,18.61,13.08,36.38,18.75,54.45,16.52,52.64,41.5,101.14,70.95,147.53C670.41,718.5,671.77,721.46,673.3,724.31Z"/><path class="cls-1" d="M668.43,767.58c1,1,3.61,1.65,2.76,2.81-5.89,8-3.75,17-4,25.69-14.9-6.24-27.47-16.26-40.68-25.24-.66-.45-.73-1.78-1.08-2.7l1.74-9.27c9.5,3.15,19,6.38,28.52,9.41C660,769.64,664.35,770.43,668.43,767.58Z"/><path class="cls-1" d="M498.71,702.67c6.4-8.79,11.89-18.43,22.06-23.71-1.32,5.09-3.38,10-3,15.46.36,5.9-4.35,7.43-8.68,8.3C505.74,703.39,502.16,702.74,498.71,702.67Z"/><path class="cls-11" d="M821.53,781.3c.71-9.1-5.35-6.95-10.5-6.33,6.51-4,14.57-3.92,21.08-8.22,2-1.33,5.09-1.63,7.7-3.52C838.32,770.21,831.52,776.72,821.53,781.3Z"/><path class="cls-1" d="M627.22,758.87l-1.74,9.27c-5.29-3.32-9.48-7.68-13.76-14.24Z"/><path class="cls-11" d="M767.85,797.19l7-.39C772.65,799,770.44,801.52,767.85,797.19Z"/><path class="cls-8" d="M863.6,812.82l.7-.55-.54.71Z"/><path class="cls-4" d="M751.53,406l4.46,5.29c3.61,8,9.64,14.31,14.36,21.53,2.25,3.43,2.39,5.16-1.11,7.56q-41.93,28.85-83.68,57.95c-3.69,2.56-7.38,5.13-10.86,8-7.89,6.41-25.16,6.6-34.81-2-27.8-24.72-55.8-49.21-83.62-73.91-4-3.57-8.6-6.94-9.72-12.81.52-13,8.17-22.69,15.16-32.74,5-7.16,10.61-13.91,14.5-21.8,3.59.42,3.64,3.43,4.63,6,9.19,23.48,23.94,42.21,45.81,55.46,16.14,9.77,33.52,16.29,51.22,22.24,4.47,1.5,9.22,2.9,13.64-.25,8.14-5.81,16.19-11.75,24.27-17.62,2.87.3,4.43-2,6.47-3.32C732.16,419.23,741,411.38,751.53,406Z"/><path class="cls-3" d="M715.78,428.83c-8.08,5.88-16.13,11.82-24.27,17.63-4.42,3.15-9.17,1.75-13.64.25-17.7-5.95-35.08-12.47-51.22-22.24-21.87-13.25-36.62-32-45.81-55.46-1-2.55-1-5.56-4.63-6-6.67.67-13.34,1.42-20,2-21.45,1.84-38.71-6.68-53.45-21.56-1.66-1.67-2.66-4.38-5.67-4.36-1-4.55-4.66-7.56-7.4-10.8-4.45-5.23-2-7.53,2.51-9.72,3.68-1.79,7.78-2.8,10.62-6,7.78-4.06,10.78.07,14.53,6.67,13.94,24.48,33.42,33.25,61.77,29.09,4.38-.64,8.88-.38,11.79-5.1,2.08-3.39,1.7-4.74-2.07-5.47-16.88-3.28-27.8-13.59-34.69-29-2.94-6.57-6.08-13.19-12.15-17.69-4.22-6.45-9.79-10.94-17.63-12.14-5.41-3.12-11.27-2.89-17.24-2.52-11.27.69-21.08,6.2-31.65,9.2l-.16-.44c-3-6.27-5.69-12.71-9.05-18.78-2.32-4.21-1-6.05,2.82-8,9-4.55,18.59-6.85,28.46-8.31,11.16.94,22.45.21,33.29,4.45,12.52,4.9,21.84,13.4,29.78,23.83l14,26.12c4.63,8.61,10.5,15.66,21.1,16.75a35.78,35.78,0,0,1,1.43,5,85.32,85.32,0,0,0,13,35.42c6.4,9.84,16,16.12,24,24.17,12,12.13,36.88,9.34,46.94-2.59,7.63-9.05,15.59-18.26,20.13-29.61,1.69-4.23,3.58-8.39,6-13.94,4.12,31-10,53.93-26.48,76.17,12.26,4.12,23,9.48,35.14,10.63Z"/><path class="cls-5" d="M330.72,391.43c3.47-4.18,6.86-8.56,10.56-12.38,4.78-4.93,2.06-6.44-1.95-8.43-2.21-1.1-4.7-1.77-6.68-3.17-3.77-2.68-6-6.33-3.54-11,2.54-4.84,6.72-7.09,11.86-4.47,5.35,2.72,9.61,4.44,13.32-2.47,2-3.7,6.07-4.12,9.89-2.08s6.43,5.62,4.83,9.64c-2.28,5.73.63,7.32,4.88,9.33,5.33,2.51,6.53,6.95,4.41,12.43-.62,1.6-4,2.75-1.51,4.85,1.75,1.5,4.41.9,6.52.26,3.55-1.07,4.87-3.84,4.84-7.46-.07-8.52-.17-17,0-25.54.11-4.93-1.94-6.49-6.75-6.41-14.75.22-29.5.06-44.26.06-5.54,0-9.67-2.47-11.56-7.64-1.4-3.83.93-7.09,3.87-9,2.37-1.5,5.64-1.59,8.52-2.31,15.9,2.1,31.85.39,47.77.93,3,.1,6,0,9,0,8.22.16,10.95,3,11.2,11.4q.26,8.56.55,17.13c-.15,5.23-.85,10.51-.35,15.68,1.7,17.52-9.83,34.25-31.41,31.95-4,.09-7-2.15-10.11-4.12-1.07-5.59.56-10.15,6.68-13.93-5.12-.94-8.25-7.37-12.53-1.06-2.59,3.8-4.47,8.08-6.66,12.14a29.11,29.11,0,0,0-3.61,2.53c-3.45,3.29-7.24,5.43-12.09,3.51S331.25,395.68,330.72,391.43Z"/><path class="cls-7" d="M374.74,402.83c21.58,2.3,33.11-14.43,31.41-31.95-.5-5.17.2-10.45.35-15.68q31.37,13.2,62.75,26.38c3.2,1.34,4,3.39,2.62,6.53A150.88,150.88,0,0,0,463,415.88c-1.18,5.63-4.9,4.66-8.58,3.83-14.86-3.34-29.67-6.82-44.53-10.14-3.39-.76-6.87-1.1-10.31-1.63-2.86-1.2-5.39-3.67-8.92-2.37C385.5,403.83,380.28,402.38,374.74,402.83Z"/><path class="cls-5" d="M403.18,451.85c5.49,10.68,2.8,21.91,1.79,32.9-.22,2.42-3.2,4.45-6.73,4.86-29.13,3.39-56.32-12.68-67.54-40.16a58.73,58.73,0,0,0-2.75-5.2c-.74-5.38-1.57-10.75-2.18-16.15-.57-5,.36-9.61,5.7-11.65s9,.78,11.64,5.24c-.07,8.9.77,17.58,6.39,25,6.1,13.3,17.13,20.54,30.66,24.39,5,1.42,9.09.59,8-6.39a19.36,19.36,0,0,1,3.35-14C395.5,450.06,399.43,450,403.18,451.85Z"/><path class="cls-5" d="M390.66,405.57c3.53-1.3,6.06,1.17,8.92,2.37,6.21,8.95,14,16.32,22.67,22.84,4.85,3.66,7.06,7.93,3.49,13.49-3,4.69-8.67,4.82-14.48.46a121.51,121.51,0,0,1-23.17-22.42C382.55,415.23,383.23,411.09,390.66,405.57Z"/><path class="cls-5" d="M322.3,443.85c-6.24,9.25-15,16.09-23,23.64-3.38,3.21-8.94,4.36-12.65-.19-3.54-4.34-2.81-9.08,1-13.42,3.52-4,8.62-6.66,10.66-12,3.13-.13,4.66-2.71,6.64-4.51,3.19-2.89,6.13-6,11.12-4.26C321.31,434.92,322.24,439.09,322.3,443.85Z"/><path class="cls-5" d="M349,429.19c3.86-5.49,8.75-5.83,14.44-3.08,5.38,2.6,10.87,4.95,16.29,7.47,9.09,4.23,10.12,6.72,6.81,16.31-7.4,3.55-13.87,0-20.44-2.71-3.09-1.59-6.05-3.51-9.29-4.68C350.36,440.17,347.78,435.88,349,429.19Z"/><path class="cls-7" d="M366.11,447.18c6.57,2.72,13,6.26,20.44,2.71l5,.86a19.32,19.32,0,0,0-3.36,14c1.09,7-3,7.81-8,6.39-13.53-3.85-24.56-11.09-30.66-24.39Z"/><path class="cls-7" d="M352.12,395.86c2.19-4.06,4.07-8.34,6.66-12.14,4.28-6.31,7.41.12,12.53,1.06-6.12,3.78-7.75,8.34-6.68,13.93C360.1,399.31,356.07,397.76,352.12,395.86Z"/><path class="cls-8" d="M366.11,447.18l-16.61-.45c-5.62-7.46-6.46-16.14-6.39-25,3.94.95,1.21,7.14,5.9,7.5-1.23,6.69,1.35,11,7.81,13.31C360.06,443.67,363,445.59,366.11,447.18Z"/><path class="cls-4" d="M715.86,426.48c-12.09-1.15-22.88-6.51-35.14-10.63,16.47-22.24,30.6-45.18,26.48-76.17-2.39,5.55-4.28,9.71-6,13.94-4.54,11.35-12.5,20.56-20.13,29.61C671,395.16,646.16,398,634.16,385.82c-8-8.05-17.56-14.33-24-24.17a85.32,85.32,0,0,1-13-35.42,35.78,35.78,0,0,0-1.43-5c-.55-7.21-1.16-14.42-1.66-21.63-1.2-17.59,4.08-32.93,16.07-45.93,7-8.44,16.93-11.94,26.45-16.19,11.14-.61,22.12-1.09,32.85,3.63,13.29,5.85,22.81,15.23,29.59,27.84,1.11,2.06.9,5.88,5.05,5.12-.68,14.27,2.53,28.16,4.79,42.05,1.38,8.47,2.67,8.26,10.34,3,19-2.36,36.48-9.92,54.23-16.46,2.77-1.71,1.45-4.53,1.59-6.78.48-8,.51-15.94.91-23.91.1-2.18-.88-5.43,3.24-5.35,2.49,3,4.84,1.42,5.6-1s3-3.78,3.86-6c5.39-4.49,4.7-7.74-1.33-11.39-4-2.4-8.74-4.42-10.75-9.3,0-2,0-4,0-6.08a20.73,20.73,0,0,1,2.68,1.18c10.65,6.62,15.54,5.68,23.08-4.4,1.31-1.74,2-4,4.27-5,4.34.62,2.93,4.07,3,6.5.15,12,.46,24.08,0,36.1-.47,13.05,1.68,26,1.51,39-.19,14.12-6.53,22.77-20,27.28-7.57,2.54-15,5.52-22.64,7.86-3.69,1.13-7.42,2.86-11.65,1.22-3.58-1.39-7.28.1-9.85,2.37-6.42,5.66-14.27,7.71-22,10.3-9.22,3.07-10.83,6.92-7.11,16.05a27.36,27.36,0,0,1,1.64,5.7C718.85,393.5,719.85,410.18,715.86,426.48Zm-45.8-124.31-16.82.6c-6.24,0-12.48-.1-18.72,0-2,0-4.79-.87-5.25,2.58a51.5,51.5,0,0,1-7.41.53c-6.1-.38-8.75,2-7.68,8.29,1,6.09,2.64,12.25,2.52,18.35-.13,6.87,2.62,7.68,8.45,6.95,10.58-1.35,21.26-2,31.89-3l5.55-.79c4.54-.32,9.17.37,13.61-1.15,14-.6,14-.6,12.77-10l-1.54-5.93c0-4.75,0-9.5-.18-14.25-.07-2-.52-4.82-3.2-3.8C679.42,302.32,674.55,300.37,670.06,302.17Zm-6.65,49.44c-.12-1.21.83-6.26-4.07-4.72-4.37,1.37-12.74-2.73-12.46,7.31.16,5.79,2.23,8.85,8.38,8.83C662,363,664,359.37,663.41,351.61Z"/><path class="cls-8" d="M765.86,171.94c1.8-2,3.74-3.92,5.37-6.06,6.69-8.78,10.23-10,21.22-7.2l11.09,7.62,1.58.95,2.25,3.37c.39,1.2.6,2.52,2.13,2.87l-.09-.11c.46,7.35-.15,14.32-5.06,20.47a193.09,193.09,0,0,0-13.64,18.71c-4.86,7.86-11.43,12.2-20.62,12.64-7.71-1.36-12-8.54-19.05-11.08-5.18-9.6-2.75-17.7,4.08-25.66,3.77-4.38,6.12-10,9.1-15.06a1.5,1.5,0,0,0,1.68-1.6Z"/><path class="cls-3" d="M719.23,319.14c-7.67,5.25-9,5.46-10.34-3-2.26-13.89-5.47-27.78-4.79-42.05,1.4-1.42,1.67-3.79,3.82-4.57,7,1.42,11.12,7.19,16.75,10.68l12.14,7.95c3.11,2.34,1.65,4.44-.12,6.84C730.79,303,725,311.08,719.23,319.14Z"/><path class="cls-7" d="M788.66,259.57c-.86,2.26-3.08,3.49-3.86,6s-3.11,4-5.6,1c.5-3.61-2.11-2.9-4.15-3a47.36,47.36,0,0,0-13.34-9.49c-4-3.94-7.71-8.41-14-8.55-3.33-4.38-7.38-7.76-12.76-9.33-2-6.4-8.29-8.28-13-11.56-7.14-5-1.84-8.58.66-12.51,2.76-4.35,5.89-7.78,11.27-2.94,3.85,3.46,8,6.65,12.09,10.06-7,3.57-7.49,6.11-1.85,10.37,11.71,8.84,23.62,17.4,35.36,26.2,2,1.53,3.88,2.17,6.1.75C790.43,253.54,787.45,258.8,788.66,259.57Z"/><path class="cls-9" d="M724.67,280.19c-5.63-3.49-9.8-9.26-16.75-10.68,8-4.11,10.79-12.67,16.22-19,.78-.89,1.55-1.79,2.32-2.69,1.15,5.85,5.06,10.08,8.56,14.55C732.52,268.89,725.35,272.65,724.67,280.19Z"/><path class="cls-10" d="M735,262.41c-3.5-4.47-7.41-8.7-8.56-14.55q4.23-5.78,8.45-11.55c5.38,1.57,9.43,4.95,12.76,9.32Z"/><path class="cls-10" d="M751,214.12c7,2.54,11.34,9.72,19,11.08a12.39,12.39,0,0,0,5.53,5.28l1,2.32c0,2,0,4,0,6.08-10.31-4.25-18.67-11.53-27.44-18.08C746,218.46,750.12,216.32,751,214.12Z"/><path class="cls-12" d="M765.9,171.8a1.5,1.5,0,0,1-1.68,1.6C764.57,172.65,764.62,171.57,765.9,171.8Z"/><path class="cls-1" d="M542,291.06c6.07,4.5,9.21,11.12,12.15,17.69,6.89,15.39,17.81,25.7,34.69,29,3.77.73,4.15,2.08,2.07,5.47-2.91,4.72-7.41,4.46-11.79,5.1-28.35,4.16-47.83-4.61-61.77-29.09-3.75-6.6-6.75-10.73-14.53-6.67-5.93-8.16-14.73-13.27-21.66-20.37-2-2.06-5.21-3.16-5.68-6.57,10.57-3,20.38-8.51,31.65-9.2,6-.37,11.83-.6,17.24,2.52,3.46,4.19,7,8.29,10.34,12.58C537.5,295.15,539.78,294.93,542,291.06Z"/><path class="cls-3" d="M803.54,166.3l-11.09-7.62c4.45-9.94,12.29-17.59,18.08-26.63,1.3-2,3.42-1.4,5.22,0q11.16,8.55,22.37,17c-5.55,9.84-13.74,17.9-18.84,28l-.43.06.13.41a3.46,3.46,0,0,0-.6,1c-4.48.85-5-5.16-9-5.19l.09.11c0-1.45-.5-2.59-2.13-2.87l-2.25-3.37c6.21.22,11.28-3.27,16.82-5.22,2.17-.76,2.84-2.56,2.81-4.77-.06-4.24,0-8.48,0-12.71,0-3.89-1.74-4.86-5.25-3.06a31.33,31.33,0,0,1-5.53,2c-6.28,1.87-9.62,5.6-9.12,12.56C805.06,159.48,805.65,163.12,803.54,166.3Z"/><path class="cls-7" d="M809.41,173.38c4,0,4.49,6,9,5.19a18.83,18.83,0,0,0,.73,12.8c.8,2,3,4.17.91,6.71-6.24.44-12.65.62-13.45,9.08-3.23,4.38-6.78,8.56-9.6,13.18-5,8.19-12.2,11.08-21.36,10.14a12.39,12.39,0,0,1-5.53-5.28c9.2-.44,15.77-4.78,20.63-12.64a193.09,193.09,0,0,1,13.64-18.71C809.26,187.7,809.87,180.73,809.41,173.38Z"/><path class="cls-12" d="M819,177.56l-.13-.41.43-.06s0,.36,0,.36Z"/><path class="cls-10" d="M1008.62,467.34c1.82-3.64,5.21-2,7.84-2,7.07.1,14.19-1,21.2.63C1028,467.77,1018.22,465.31,1008.62,467.34Z"/><path class="cls-10" d="M991.54,470.59l.33-19.74c2.78,7.58.53,15.44,1.3,23.12C992.63,472.84,992.09,471.72,991.54,470.59Z"/><path class="cls-6" d="M1018.28,400.16c3.63-7.29,10-2.59,15.13-3.51Z"/><path class="cls-10" d="M985.68,409.48c1.36-6-6.12-3.66-7.07-7.48,4.42-.7,10.06,2.59,12.47-4.7.7-2.11,4.36-1.46,7.34.09C994.88,402.38,991.1,406.73,985.68,409.48Z"/><path class="cls-8" d="M1038,447.47c-9,.45-17.9.93-26.86,1.33-1.29.06-2.56-.52-2.38-2.11a2.4,2.4,0,0,1,2.66-2.06c8.83,0,17.65,0,26.48,0C1037.9,445.57,1037.93,446.52,1038,447.47Z"/><path class="cls-11" d="M1009.52,426.23c-1.21-3.67,1.43-3.53,3.63-3.5,8.37.11,16.73.33,25.09.51-.74,3.48-3.54,2.79-5.88,2.82C1024.74,426.16,1017.13,426.18,1009.52,426.23Z"/><path class="cls-8" d="M1009.52,426.23c7.61-.05,15.22-.07,22.84-.17,2.34,0,5.14.66,5.88-2.82,2.55,1.72,1.17,3.16-.31,4.6l-28.23,0Z"/><path class="cls-10" d="M1009.7,427.79l28.23,0A60.66,60.66,0,0,1,1009.7,427.79Z"/><path class="cls-1" d="M715.86,426.48c4-16.3,3-33,3.67-49.53,6.83-2.1,13.7-4.09,20.48-6.34,3.16-1.05,5.49-1,7.44,2.2,2.94,4.84,6.25,9.46,9.4,14.17-8.6,4.31-5.67,11.94-5.43,18.8l.11.21c-10.51,5.39-19.37,13.24-29.28,19.53-2,1.29-3.6,3.62-6.47,3.32C715.81,428.05,715.83,427.27,715.86,426.48Z"/><path class="cls-8" d="M775.61,230.48c9.16.94,16.37-1.95,21.36-10.14,2.82-4.62,6.37-8.8,9.6-13.18,8.54,5.77,2.94,11.61.09,17.44-2.25,1-3,3.24-4.27,5-7.54,10.08-12.43,11-23.08,4.4a20.73,20.73,0,0,0-2.68-1.18Z"/><path class="cls-6" d="M542,291.06c-2.2,3.87-4.48,4.09-7.29.44-3.31-4.29-6.88-8.39-10.34-12.58C532.19,280.12,537.76,284.61,542,291.06Z"/><path class="cls-7" d="M657,336.49c-10.63,1-21.31,1.65-31.89,3-5.83.73-8.58-.08-8.45-6.95.12-6.1-1.48-12.26-2.52-18.35-1.07-6.25,1.58-8.67,7.68-8.29a51.5,51.5,0,0,0,7.41-.53c8.13.51,16.24.73,24-2.6l16.82-.6c4.88.29,10.86-1.06,14.36,1.29,4.23,2.83.5,9.74,2.66,14.5.11.22.24.43.35.65q.77,3,1.54,5.93c-4.1,8.38-12.91,6.48-20.13,8.72,2.49,2.43,5,1.13,7.36,1.29-4.44,1.52-9.07.83-13.62,1.15-1.24-5.79-.65-11,5.54-14.11-11.23-1.87-21.25,1.11-32.22,3.37,4.45,2,8.58,3.3,8.25,8.83-.17,2.8,2.25,3.55,4.74,3.38C651.61,337,654.33,336.72,657,336.49Z"/><path class="cls-1" d="M761.71,254.19a47.36,47.36,0,0,1,13.34,9.49c-3.18,12.89-1.1,26-1.59,39-17.75,6.54-35.2,14.1-54.23,16.46C725,311.08,730.79,303,736.69,295c1.77-2.4,3.23-4.5.12-6.84C745.91,277.41,754.75,266.49,761.71,254.19Z"/><path class="cls-8" d="M657,336.49c-2.71.23-5.43.5-8.15.68-2.49.17-4.91-.58-4.74-3.38.33-5.53-3.8-6.86-8.25-8.83,11-2.26,21-5.24,32.22-3.37-6.19,3.14-6.78,8.32-5.54,14.11Z"/><path class="cls-10" d="M663.41,351.61C664,359.37,662,363,655.26,363c-6.15,0-8.22-3-8.38-8.83-.28-10,8.09-5.94,12.46-7.31C664.24,345.35,663.29,350.4,663.41,351.61Z"/><path class="cls-8" d="M773.46,302.68c.49-13-1.59-26.11,1.59-39,2,.07,4.65-.64,4.15,3-4.12-.09-3.14,3.16-3.24,5.34-.4,8-.43,15.95-.91,23.91C774.91,298.15,776.23,301,773.46,302.68Z"/><path class="cls-8" d="M676.2,334.55c-2.33-.16-4.87,1.14-7.36-1.29,7.22-2.24,16-.34,20.13-8.72C690.19,334,690.19,334,676.2,334.55Z"/><path class="cls-10" d="M653.24,302.77c-7.73,3.33-15.84,3.11-24,2.6.46-3.45,3.23-2.55,5.25-2.58C640.76,302.67,647,302.76,653.24,302.77Z"/><path class="cls-8" d="M687.43,318.61c-.11-.22-.24-.43-.35-.65-2.16-4.76,1.57-11.67-2.66-14.5-3.5-2.35-9.48-1-14.36-1.29,4.49-1.8,9.36.15,14-1.61,2.68-1,3.13,1.81,3.2,3.8C687.42,309.11,687.38,313.86,687.43,318.61Z"/><path class="cls-9" d="M803.54,166.3c2.11-3.18,1.52-6.82,1.28-10.2-.5-7,2.84-10.69,9.12-12.56a31.33,31.33,0,0,0,5.53-2c3.51-1.8,5.21-.83,5.25,3.06,0,4.23,0,8.47,0,12.71,0,2.21-.64,4-2.81,4.77-5.54,1.95-10.61,5.44-16.82,5.22Z"/><path class="cls-12" d="M807.37,170.62c1.63.28,2.09,1.42,2.13,2.87C808,173.14,807.76,171.82,807.37,170.62Z"/><path class="cls-2" d="M761.71,254.19c-7,12.3-15.8,23.22-24.9,33.95l-12.14-7.95c.68-7.54,7.85-11.3,10.35-17.78l12.65-16.78C754,245.78,757.69,250.25,761.71,254.19Z"/><path class="cls-6" d="M1164.64,695.54q0,122.58.12,245.16c0,4.87-.59,6.3-6,6.3q-465.1-.27-930.23,0c-5.42,0-6-1.44-6-6.31q.25-125.58.12-251.16C242,691,257.5,699,268.92,715.05c5.31,7.44,8.95,15.64,12.81,23.75,5.32,11.21,14,16.55,26.1,18.78,12.92,2.38,24.35-.21,35.28-6.48A69.16,69.16,0,0,1,380.44,742c28.36.75,49.86,14.86,60.22,41.43,2,5.14,3.94,5.37,8.82,3.66,9.41-3.28,19.17-5.76,29.37-3.32,15,3.6,26.26,11.6,29.7,27.32,4.52,20.69,18,32.86,36.66,40.34,7.89,3.16,15.93,6,24.08,8.44,25.44,7.51,51.31,9.48,77.72,4.75-20.37-3.36-40.14-8.45-58-19s-32.14-24.33-42.25-44.24c5.37,1.31,7.86,3.93,10.79,5.78s5.85,3.82,8.78,5.74c37.95,24.88,80,35.65,125,36.23,23.81.31,47.31-2.75,70.83-6,29.64-4.06,58.37-11.14,85.7-23.61,5.15-2.35,9.87-5.92,15.72-6.68l.16.16c-.49,1.13-.72,2.5-1.52,3.34-12.09,12.73-24.68,24.8-40.67,32.76-11,5.48-22.54,9.45-34.3,13,22.26,1,43.89-2.28,65.19-8.07,20.73-5.63,40.15-13.63,55.84-29.12,9.29-9.17,13-21.31,18.14-32.58,10.37-22.68,42.13-33.21,62.29-11.63a24.88,24.88,0,0,0,18,8.2c14.14.33,28.83-10.21,34.49-24.6,3.88-9.84,5.36-20.25,7.69-30.46,1.63-7.14,4.76-13.53,11.93-16.27,9.82-3.77,20.08-6.59,30.64-3.88,6,1.54,8.73.53,10.26-5.94,4.37-18.41,34.23-33,51.86-18.23C1156.71,692.16,1160.36,694.63,1164.64,695.54Z"/></g></svg>