<svg xmlns="http://www.w3.org/2000/svg" viewBox="0 0 1398 957"><defs><style>.cls-1{fill:#e4b363;}.cls-2{fill:#313638;}.cls-3{fill:#bea078;}.cls-4{fill:#38302f;}.cls-5{fill:#ef6461;}.cls-6{fill:#e8e9eb;}.cls-7{fill:#d0805d;}.cls-8{fill:#fcbc94;}.cls-9{fill:#d4f7fb;}.cls-10{fill:#9b7b66;}.cls-11{fill:#63a6a8;}.cls-12{fill:#fbde7b;}</style></defs><title>work exp</title><g id="exp-1-b"><path class="cls-1" d="M173.58,902.87V864.46c1.85.51,3.07-.46,4.2-1.74,3.19-3.62,6.27-7.72,9.79-10.55,7-5.66,12.31-13,19.34-18.49,8.3-6.5,15.45-14.25,23.4-21.12,7.37-6.37,14.93-12.52,21.8-19.44,11.89-9.87,23.7-19.82,35.69-29.56,6.39-5.19,12.32-11,19.4-15.31,2.41,3,3.33,6.83,5.32,10.07,3,4.84,6.61,7.93,12.89,7.42,6.07-.49,12.21-.09,18.32-.1q68-.12,136-.23,80.79,0,161.59.05H785.74c18.39,0,36.77.07,55.15,0,32.12-.17,64.24.26,96.36-.26,17.54-.29,35.1.3,52.65.44,1.55,0,3.3.57,4.65-.81,4.22,1.24,7.79,3.81,11.62,5.82,21,11,41.22,23.14,61,36.12,10.55,6.92,20.68,14.44,31.14,21.5q13.89,11.36,27.78,22.71c5.57,4.58,11.09,9.22,16.64,13.83,2.87,2.45,4.9,3.18,5.19,4.77-1.56,1.19-10.18-.22-11.91-.22-17.71,0-35.41,0-53.11,0-1.14,0-2.72-.61-3.32.75-.5,1.14.89,1.81,1.53,2.64q12.81,16.5,25.62,33c.74,1,1.76,2.09,1.33,3.28-.6,1.68-2.36.94-3.6.95-9,.06-18.1,0-27.15,0H921q-72.88,0-145.78,0-67.2,0-134.41,0c-2.76,0-12.31.08-13.79.07q-76.69-.18-153.39-.11H323.12q-28,0-56,0c-1.36,0-2.93.56-4.27-.85,1.3-1.72,2.52-3.34,3.74-4.94q11.88-15.53,23.74-31.06c.71-.93,1.83-2,1-3.24-.64-1-2-.55-3.07-.55q-22.66,0-45.34,0-31.87,0-63.74,0c-2.45,0-4.14.17-4.12,3.4.07,10.06.34,20.13-.57,30.17Z"/><path class="cls-2" d="M174.56,902.94c.91-10,.64-20.11.57-30.17,0-3.23,1.67-3.41,4.12-3.4q31.88,0,63.74,0,22.67,0,45.34,0c1.06,0,2.43-.43,3.07.55.79,1.23-.33,2.31-1,3.24q-11.83,15.55-23.74,31.06c-1.22,1.6-2.44,3.22-3.74,4.94,1.34,1.41,2.91.85,4.27.85q28,.08,56,0H473.67q76.69,0,153.39.11c1.48,0,11-.07,13.79-.07q67.21-.06,134.41,0,72.9,0,145.78,0h156.28c9,0,18.1,0,27.15,0,1.24,0,3,.73,3.6-.95.43-1.19-.59-2.32-1.33-3.28q-12.79-16.51-25.62-33c-.64-.83-2-1.5-1.53-2.64.6-1.36,2.18-.75,3.32-.75,17.7,0,35.4,0,53.11,0,1.73,0,9.45-.36,11.59,0,29.09,27.47,56.84,56.16,80.91,88.24H1194.2c-2.24,1.16-23.1,1.16-34.32,0H174.39Z"/><path class="cls-1" d="M322.54,488.39c3.31,1.82,7.14.6,10.65,2.12a19.62,19.62,0,0,1,11.61,18.85c-.85,11.51-1.33,23.06-2.14,34.58-.23,3.22.75,4.37,4,4.22a148.92,148.92,0,0,1,15.09,0c3.54.2,4.7-.84,4.63-4.53-.24-12.24-.1-24.49-.08-36.74,0-1.49.19-3,.29-4.46.11,1.74.33,3.48.33,5.22,0,20.36,0,40.72-.25,61.08-.08,6,.94,11.23,5.6,15.32-.28.6-.4,1.39-.86,1.79-6.34,5.51-12.49,11.3-19.18,16.36s-14.45,8.95-21.45,13.64c-7.52,5-15,10.18-22.56,15.24-5.49,3.69-24.44,18-30.6,20.63,0-1-15.14,8.67-15.76,9.93A20.76,20.76,0,0,0,259,663c-14.82,9.82-29.69,19.58-44.4,29.57-7.71,5.24-15.79,10-22.78,16.24a13.62,13.62,0,0,0-5,2.41c-4.32,3.25-8.81,6.27-13.23,9.38V587.39c1.81-5.51,3.2-11.16,6.32-16.2,9.23-14.89,22.33-23,40-23.09,9.15-.06,8.94,0,8-9.22-.91-9-1.14-18.16-2-27.22-1.08-11.49,6-24.14,22.59-22.44a7.6,7.6,0,0,1,4.07,3.5,16.43,16.43,0,0,0,5.88,6.07c-4.34.13-8.69.17-13,.41-7,.38-11.16,6.31-8.63,12.33a36.44,36.44,0,0,0,2.19,3.89c-.13,2.85,2,2.45,3.67,2.45q42,0,84.1,0c1.39,0,3.16.51,3.58-1.68,3.36-3.2,5.48-6.86,3.52-11.57-2.08-5-6.48-5.55-11.19-5.49-3.1,0-6.21-.19-9.31-.3Z"/><path class="cls-2" d="M1228.52,957.63c-24.07-32.08-51.82-60.77-80.91-88.24-1.19-2-3.16-2.15-4.87-4.6-5.55-4.61-11.07-9.25-16.64-13.83q-13.86-11.38-27.78-22.71a3.54,3.54,0,0,0,0-1.21c-4.63-13.89-6.07-27.95-3-42.44A73.75,73.75,0,0,1,1109.64,754c8.28-10.51,20-16,33.08-18.59,4.68,1.88,8.33,5.59,13.1,7.3,6,4-.94-.61,6.47,4,2.7,1.06,4.26,3.58,6.77,5a237.82,237.82,0,0,1,25,16.49c6.9,5.15,14.3,9.59,21.06,14.88,6,4.65,13.58,7.62,18.47,13.52,1,1.18,2.36.93,3.51,1.11,0,1.9,0,108.95,0,159.91Z"/><path class="cls-2" d="M173.58,720.61c4.42-3.11,8.91-6.13,13.23-9.38a13.66,13.66,0,0,1,5-2.41c18.45-3.4,35.36,0,50,12.09A49.74,49.74,0,0,1,257.45,744c4.05,12.36,2.42,24.39-1.27,36.41-1.3,4.24-2.71,8.45-4.07,12.68-6.87,6.92-14.43,13.07-21.8,19.44-7.95,6.87-15.1,14.62-23.4,21.12-7,5.51-12.31,12.83-19.34,18.49-3.52,2.83-6.6,6.93-9.79,10.55-1.13,1.28-2.35,2.25-4.2,1.74Z"/><path class="cls-3" d="M174.56,902.94l-.17,54.69c-1.69-.73-.76-2.21-.76-3.27-.07-17.16,0-34.33,0-51.49Z"/><path class="cls-1" d="M1236.88,587.16c0,2,.13,4.08.13,6.12,0,65.61.2,201.85.14,204.44-1.15-.18-2.53.07-3.51-1.11-4.89-5.9-12.51-8.87-18.47-13.52-6.76-5.29-14.16-9.73-21.06-14.88a237.82,237.82,0,0,0-25-16.49c-2.51-1.42-4.07-3.94-6.77-5-3.93-2.32.7,1.16-6.47-4-4.77-1.71-8.42-5.42-13.1-7.3-13.32-8.06-27.14-15.2-40.89-22.48-11.14-5.89-23-10.37-33.78-16.9-3.62-11.56-8.74-22.54-13.14-33.8-7.42-19-14.85-38-22.83-56.7-3.14-7.38-3.78-16.72-13-20.31,7-3.68,8.56-9.76,8-17.1-.38-4.94-.06-9.93-.08-14.9,0-15.19-.15-30.37-.15-45.56q0-124.8,0-249.62c0-1.63.07-3.26.11-4.89,1.17,2,.58,4.26.58,6.39q.06,141,0,281.9c0,7.41-.87,6.62,6.43,6.66,10.77,0,10.76,0,10.79-10.57q.16-44.72.34-89.41c-.4-.05-.47-.24-.24-.57.07-.11.1-.28.2-.35,1.29-.85,1.2.39,1.47,1,4.37,10,12.39,13.76,22.88,13.72,26.8-.1,53.59-.24,80.39,0,12,.09,21-3.59,25-15.8.08-.23.37-.39.55-.59.1,3.4.27,6.79.29,10.18,0,7.17,0,7.1,7,7.3,9.79.28,18,4,25.08,10.88,8.78,8.49,11.65,18.92,11.66,30.57,0,8.69.44,17.41-.55,26.07a36.23,36.23,0,0,1-8.31,19.56c-1.07,1.27-1.77,2,.13,3.06C1224.78,560.75,1234,571.57,1236.88,587.16ZM1175.65,513c0,9.12,0,18.23,0,27.35,0,1.49-.58,3.22,2,3.66,10.15,1.74,20.07-5.17,21.37-15.36,1.1-8.66.11-17.4.47-26.09.49-11.54-8.29-20.77-20.17-19.81-2.79.22-3.8.84-3.75,3.72C1175.75,495.31,1175.65,504.16,1175.65,513Z"/><path class="cls-4" d="M1026.92,253.14c0,1.63-.11,3.26-.11,4.89q0,124.82,0,249.62c0,15.19.11,30.37.15,45.56,0,5-.3,10,.08,14.9.57,7.34-1,13.42-8,17.1l-8.56-.23a31,31,0,0,0-6.37-11.45c2.85,0,5.7-.2,8.54,0,2.21.12,2.75-.78,2.7-2.83-.15-6.64-.15-13.28-.21-19.92a8.27,8.27,0,0,0,.51-2.37c-.91-9.46-.28-18.94-.28-28.41q-.14-161.9,0-323.81c0-3.9-1.29-4.76-4.91-4.73-17,.17-34,.08-50.93.08H383.94c-5.42,0-5.45,0-5.45,5.28q0,33,0,66,0,126.4,0,252.8c0,11.71.11,23.42.17,35.13-.07,5.14-.1,10.28-.22,15.41-.16,7.16-.19,7.16,6.63,7.45-4.07,3.73-7.88,7.78-12.78,10.5-4.66-4.09-5.68-9.33-5.6-15.32.26-20.36.21-40.72.25-61.08,0-1.74-.22-3.48-.33-5.22,0-.57,0-1.14,0-1.71,1.71-2.07.3-4.36.3-6.5q.15-114.87.07-229.75,0-31.44,0-62.88c0-1.34-.24-2.68-.37-4,0-.56,0-1.11,0-1.67.38,0,.82,0,.76-.59a5.06,5.06,0,0,0-.7,0c.18-3.05-.46-6.23,1.08-9.09,2.63-4.86,6.94-6.43,12.25-6.41,22.6.07,45.2,0,67.8,0H635.63q62.05,0,124.1,0l187.42,0q33.24,0,66.48,0c9.21,0,13.36,3.93,13.41,13,.11,18.22,0,36.43.15,54.64C1027.2,249.39,1026.12,251.22,1026.92,253.14Z"/><path class="cls-3" d="M322.54,488.39l-9.14,10.44c-1.88,1.34-3.81,2.62-5.62,4.05-16.17,12.81-35.42,9.79-49.29-4.09a16.43,16.43,0,0,1-5.88-6.07,7.6,7.6,0,0,0-4.07-3.5c-2.79-5.09-5.78-10.08-8.32-15.28a121.17,121.17,0,0,1-9.42-27.61,15.73,15.73,0,0,1,0-3.22c0-1.82.45-3.57,0-5.48-1.06-4.94-2.56-9.86-1.75-15,.2-1.3-.09-2.63,1.29-3.62.86-.62,3.55-.46,2-2.45-1.14-1.51-2-4.67-5.19-2.9.13-3.95-1.86-6.29-5.25-8.19-2.5-1.4-4.44-3.79-6.3-6.13,3.8-.78,6.48,1.14,9.38,2.37-.34,1.81,1.08,2.66,2.08,3.69,2.53,2.62,5.28,5.05,7.66,7.8,1.6,1.86,3,2.26,4.65.44s.77-3.51-1-4.72a50.23,50.23,0,0,0-11.55-6.2c2.15-.8,1.79-2.78,2.09-4.45,2.53-14.3,7.12-27.75,16.46-39.19a19.17,19.17,0,0,1,4.53-4.59,11.37,11.37,0,0,1,4.61,1.36,66,66,0,0,0,15.38,5c1.48.33,3.07.17,3.75-1.6.94-2.42-.28-4.53-1.25-6.57-.57-1.19-1.94-1-2.9-.43-5.41,3.05-10.12-.52-15.1-1.51,2.78-2.58,5.41-5.4,9.42-6.1a14.13,14.13,0,0,1,1.52,1.87c.8,1.41,1.77,1.86,3.29,1.07,1.7-.88,1.69-2.3,1.15-3.77a12.36,12.36,0,0,0-1.44-2.32c3.88-.67,7.74-1.54,11.65-2,17.2-1.92,31.46,3.93,43,16.63a8.73,8.73,0,0,0,3.52,2.7c-1.35,2-2.76,3.94-4,6-2.3,3.66-1.14,5.94,3.1,6.06,2.94.09,5.89.05,8.83.07,1.47,7.2,4.82,13.8,6.42,21,3.74,16.9,3.17,33.74.13,50.62a6.57,6.57,0,0,1-.92,1.78c-.91.3-1.72,0-2.05,1.74-1.39,7.32-1.56,7.29-9,8.21-.27,0-.54,0-.81.09-3.47.64-4.72,3.45-2.42,6,3.45,3.88,6.31,7.82,4.66,13.41S325.26,483.58,322.54,488.39ZM295.6,342.83c-.14,1.33-.27,1.64-.17,1.84a27.43,27.43,0,0,0,1.4,2.47c6.28,9.66,10.25,20.35,13.47,31.29,2.49,8.48,3.46,17.3,4.84,26,.68,4.28.11,6.81-4.22,8.47-2.44.94-3.19.9-3.13-1.77a49.92,49.92,0,0,0-1.52-12.11c-.22-1,.13-2.63-1.39-2.48-1.08.1-1.27,1.6-1.54,2.65a66.43,66.43,0,0,0-1.54,19.83c.22,4,2,4.94,5.59,3,2.56-1.38,5.1-2.78,8.23-4.49,0,5.07.1,9.53,0,14s-1,9.25-.55,13.79c.39,4.22-1.62,7.89-1.46,12.07.18,4.53-1.25,9.12-1.94,13.68s-1.24,8.89-1.95,13.31-1.52,8.66-2.28,13c1.37-.5,1.91-1.15,2.12-1.89,2.75-9.81,6.73-19.33,7.86-29.5.55-4.92,4.13-9.32,2.22-14.82-.29-.84,1.71-3.89,1.93-6.17a246.69,246.69,0,0,0,.95-26.91c0-3.55-.95-7.4,3.25-10-2.29-.18-3.87-.08-4-2.72-1.14-17.71-7-33.95-16-49.11A82.93,82.93,0,0,0,295.6,342.83Zm-10.53,156c.88-1.36,1.21-1.65,1.26-2a371.65,371.65,0,0,0,4-41.27c.52-17.35,1.83-34.74.32-52.12-.17-2,.87-5.06-.73-5.66-1.83-.68-3.59,2-4.78,3.59-1.7,2.23-5.38,3.42-5.17,6.42.22,3.3-.48,6.46-.33,9.71.89,19.53.4,39.11,2.48,58.59C282.92,483.33,284,490.54,285.07,498.82Zm-41.74-59c-.12,1.84,1.06,2.37,2,3.09,6.89,5.18,7.41,11.11,1.53,17.16-.67.68-1.36,1.34-2,2-.38.38-.87.75-.59,1.37s1.08.77,1.74.6a8.72,8.72,0,0,0,2.27-.89c3-1.81,4.08-.91,4.86,2.43,2,8.73,4.49,17.36,6.84,26,.32,1.19.3,3.24,2.07,2.86,1.36-.29.79-2.15.56-3.24-1.94-8.9-3-17.93-4.37-26.92-.57-3.84.48-5.91,3.49-7.6.94-.53,1.93-1,2.82-1.6,4.27-2.86,4.25-5-.37-7.08-5.82-2.6-9.87-6.09-8.8-13.23.32-2.1-.19-3.69-3-3.56s-3.86,1-3.8,3.89C248.66,440.74,248.51,440.74,243.33,439.78ZM289,369.13c1.08-3.48-1.13-5.42-3.19-7.4-.75-.73-1.48-1.83-2.72-1.31s-.88,1.84-1,2.87q-.76,9.49-1.48,19c-.24,3.22-.08,6.07,4.53,4.34a5.76,5.76,0,0,1,2.42-.1c2,.18,2.37-.64,2.41-2.58A129.23,129.23,0,0,0,289,369.13ZM256.41,401.3c.7-2.75-1.79-2.33-3.51-2.71-2.1-.46-3.36.12-3.5,2.58-.42,7.59-1,15.16-1.46,22.75-.14,2.25,1.17,3.21,3.18,3.4,2.36.23,3.63-.88,3.6-3.28A150.6,150.6,0,0,1,256.41,401.3ZM286.07,342l-1.48.21c.94,5-4.2,11,3.6,15.57C287.42,352.08,286.75,347.06,286.07,342ZM265.3,363.72c-.12-1.23-.29-2.91-1.42-3.13-1.87-.36-2,1.87-2.6,3-.93,1.57-3.07,3.08-1.53,5.37a2.25,2.25,0,0,0,2.52.91c2.59-.83,2-3.51,3-5.32A2.1,2.1,0,0,0,265.3,363.72Z"/><path class="cls-5" d="M1175.35,445.52c-.18.2-.47.36-.55.59-4,12.21-13,15.89-25,15.8-26.8-.23-53.59-.09-80.39,0-10.49,0-18.51-3.72-22.88-13.72-.27-.62-.18-1.86-1.47-1-.1.07-.13.24-.2.35-.23.33-.16.52.24.57.59-2.29-.07-4.54-.32-6.75-1.33-12,11.39-21.62,20.75-21.55,29.68.26,59.37.44,89-.13,10.49-.2,22.38,10.38,20.85,20.95A34.64,34.64,0,0,0,1175.35,445.52Zm-53.24-14.26-12.1-.17a3.2,3.2,0,0,0-2.62.13q-20.82,0-41.64-.07a8.85,8.85,0,0,0-6.57,2.74c-3.13,3.17-3.88,6.88-2.16,10.87,1.79,4.16,5.36,6.05,9.75,6.09,8.7.09,17.39,0,26.09,0,20.42,0,40.84.05,61.26,0a10.33,10.33,0,0,0,10.51-9.83c.12-5.48-4.27-9.83-10.28-9.88-8.16-.07-16.33.06-24.49.11A23.44,23.44,0,0,0,1122.11,431.26Z"/><path class="cls-4" d="M330.49,473.83c1.65-5.59-1.21-9.53-4.66-13.41-2.3-2.58-1.05-5.39,2.42-6,.27-.05.54-.06.81-.09,7.45-.92,7.62-.89,9-8.21.33-1.71,1.14-1.44,2.05-1.74-.23,2.92-2.95,6.25-1.16,8.44,1.57,1.91,5.37.35,8.17.63,1.21.12,2.43.14,4.58.27-4,2.81-7.84,3.55-11.61,4.56-5.27,1.42-5.79,2.62-2.93,7.17A77.67,77.67,0,0,1,343,476.2a26.16,26.16,0,0,1-6.63-4.87c-3.5-3.15-3.51-3.15-5.41,1.38C330.81,473.08,330.65,473.45,330.49,473.83Z"/><path class="cls-5" d="M848.56,542.2c-3.72.95-6.42,3.54-9.29,5.83-1.21,1-1.95,2.58-3.74,2.77-1.5,0-3-.11-4.49-.11q-111.18,0-222.37,0-40.2,0-80.39.14c-6.42-2.07-13-2.12-19.65-1.69-3.28-.51-7,1.3-9.79-1.79-6.89-9.14-15.72-14.72-27.48-14.78-3.38,0-6.75.18-10.13.27A21,21,0,0,1,449,530.76c-2.47-1.35-4.84-1.34-7.39-1.22-11.6-.07-20.89,5-29.15,12.73-2.91,2.73-4.58,6.64-8.33,8.49l-25.48-.07c-.06-11.71-.17-23.42-.17-35.13q0-126.39,0-252.8,0-33,0-66c0-5.27,0-5.28,5.45-5.28H959.58c17,0,34,.09,50.93-.08,3.62,0,4.91.83,4.91,4.73q-.17,161.91,0,323.81c0,9.47-.63,18.95.28,28.41a8.27,8.27,0,0,1-.51,2.37l-27.49-.09c-1.51-5.86-4.19-11.46-8.6-15.27-7.71-6.67-16.9-10.5-27.53-9.26-3.62,0-7.24,0-10.86.07a13.29,13.29,0,0,0-8.76,3.08c-3-.7-4.67-4.49-8.34-3.86-4.86-3.39-10.31-4.25-16.1-4s-11.35,2.14-17,3.26c-5,1.71-9.81,3.56-10.67,9.77-.14,9.06,4.51,13.43,13.58,13,4.19-.22,8.4-.2,12.6-.18,2.32,0,4.34.61,4.65,3.43l-26.07-.33c-3.42-.46-4.5-3.83-6.89-5.51A31.42,31.42,0,0,0,854,539.26,7.69,7.69,0,0,0,848.56,542.2Z"/><rect class="cls-6" x="387.6" y="202.59" width="619.96" height="337.21"/><path class="cls-7" d="M366.6,197.57c.13,1.34.37,2.68.37,4q0,31.44,0,62.88,0,114.87-.07,229.75c0,2.14,1.41,4.43-.3,6.5-.08-2.59-.25-5.16-.25-7.74q0-109.11,0-218.21,0-36.16,0-72.32C366.35,200.82,366.51,199.2,366.6,197.57Z"/><path class="cls-4" d="M334.49,371c-2.94,0-5.89,0-8.83-.07-4.24-.12-5.4-2.4-3.1-6.06,1.28-2,2.69-4,4-6,3.38-3.68,6.23-7.87,11.24-11.66a63.32,63.32,0,0,1-6,13.85c-1.52,2.74-1.91,4.11,2.05,4.52a52.39,52.39,0,0,1,14.69,3.2A68.74,68.74,0,0,1,334.49,371Z"/><path class="cls-4" d="M254.45,350.74c5,1,9.69,4.56,15.1,1.51,1-.55,2.33-.76,2.9.43,1,2,2.19,4.15,1.25,6.57-.68,1.77-2.27,1.93-3.75,1.6a66,66,0,0,1-15.38-5,11.37,11.37,0,0,0-4.61-1.36c.35-.46,0-.71-.31-.93l.15-2.06C251.38,351.43,253,351.55,254.45,350.74Z"/><path class="cls-4" d="M227.22,413.62c3.21-1.77,4.05,1.39,5.19,2.9,1.5,2-1.19,1.83-2,2.45-1.38,1-1.09,2.32-1.29,3.62-.81,5.18.69,10.1,1.75,15,.41,1.91-.07,3.66,0,5.48a97.51,97.51,0,0,1-2.6-20.49c-.08-2.43-.73-3.1-3.18-2.18-2.86,1.09-5.89,1.76-9.67,2.85C219.12,418.91,223.41,416.55,227.22,413.62Z"/><path class="cls-4" d="M226.88,402.68a50.23,50.23,0,0,1,11.55,6.2c1.78,1.21,2.72,2.82,1,4.72s-3.05,1.42-4.65-.44c-2.38-2.75-5.13-5.18-7.66-7.8-1-1-2.42-1.88-2.08-3.69Z"/><path class="cls-4" d="M268.39,341.49a12.36,12.36,0,0,1,1.44,2.32c.54,1.47.55,2.89-1.15,3.77-1.52.79-2.49.34-3.29-1.07a14.13,14.13,0,0,0-1.52-1.87c1.58-2.95-.27-6.1.56-9.26C266.49,337,267,339.54,268.39,341.49Z"/><path class="cls-3" d="M249.8,351.46l-.15,2.06c-1.36.18-2.08-.6-1.81-1.75C248.05,350.87,249.08,351.25,249.8,351.46Z"/><path class="cls-7" d="M366.67,195.28a5.06,5.06,0,0,1,.7,0c.06.57-.38.55-.76.59A.37.37,0,0,1,366.67,195.28Z"/><path class="cls-8" d="M372.32,584.05c4.9-2.72,8.71-6.77,12.78-10.5,2-.57,3-2.5,4.71-3.63a37.66,37.66,0,0,0,14.36-19.16c3.75-1.85,5.42-5.76,8.33-8.49,8.26-7.77,17.55-12.8,29.15-12.73l2.36,1.1c-7.92,5-15.6,10.11-19.29,19.87a11.29,11.29,0,0,0,1.86-.85c7.08-5.29,14.93-9.21,22.71-13.33,3.9-2.06,8.42-.89,11.94-3.49,3.38-.09,6.75-.29,10.13-.27,11.76.06,20.59,5.64,27.48,14.78-4.06-1.24-8.24-1.07-12.35-.74a34.13,34.13,0,0,0-16.75,5.52c-5.67,3.79-10.37,8.68-15.75,12.78a9.3,9.3,0,0,0-3.65,5.58c2.11-.8,3.66-1.28,5.11-2,11.8-5.42,23.91-10.07,35.94-14.91,5.62-2.26,11.69-2.29,17.24-4.49,6.64-.43,13.23-.38,19.65,1.69.09,1.1,1.27,1.27,1.75,2-8.21,2.43-16.19,5.35-23.56,9.83-10.94,6.64-20.6,14.6-27,25.94a18.6,18.6,0,0,0-2.72,10.53c.1,1.3.57,3,1.86,2.63,3.47-1.06,8.14.88,10.23-3.81,3.89-1.68,8.38-1.91,11.72-4.9l8.9-2.2c5.48-1.51,11.28-1.47,16.64-3.52l18.69-.16a4.37,4.37,0,0,0,4,2.62c1.37,0,2.94-.38,4.06.91l4,2.39,1.08,1.65c-2,.6-3.51-1.21-5.43-1.11a99.49,99.49,0,0,0-48.26,15.51c-13.22,8.33-25.34,18.22-37.06,28.49-7.32,6.41-14.61,13-20.87,20.54-1,1.16-2.14,2.12-.34,3.69,8.13,7.05,17.62,11,28.14,12.77l3.24.25c4.92.71,9.81,1.82,14.84,1.42l3.24.21c14.15.86,28.37,1.15,42.09,5.38l1,0,2.46.23c1.7,1.72,3.49,3.37,5.08,5.18,2.69,3.07,4.8,8.34,1.6,13.36-2.83,4.43-7.15,5.29-11.94,5.07-3.27-2-6.89-1.57-10.46-1.49h-3.54c-2,.09-4.19-.22-6.08.34-12.17,3.55-24.8,3.8-37.24,4.39-11,.52-22.16,1.7-33.16-1.25-4-1.07-8-.44-12.2-2.74-5.88-3.24-12.77-4.86-19.26-7-9.05-3-18.09-6-26.95-9.48a6.14,6.14,0,0,0-6.46.66c-4.28,3.07-8.13,6.62-12.21,9.89-4.69,3.75-9.33,7.59-14.08,11.27-6.11,4.73-12.29,9.39-18.11,14.46-4,3.45-9.71,4.19-12.78,8.86-2.81,4.26-7.12,6.86-11.11,9.79-1.2.89-2.52,1.6-3.07,3.11-1.07.08-1.5.87-1.9,1.71-7.08,4.32-13,10.12-19.4,15.31-12,9.74-23.8,19.69-35.69,29.56,1.36-4.23,2.77-8.44,4.07-12.68,3.69-12,5.32-24.05,1.27-36.41a49.74,49.74,0,0,0-15.71-23.12c-14.6-12.13-31.51-15.49-50-12.09,7-6.26,15.08-11,22.79-16.24,14.71-10,29.58-19.75,44.4-29.57.89-.59,64.34-42.13,71.86-47.17,7-4.69,14.7-8.53,21.45-13.64s12.84-10.85,19.18-16.36C371.92,585.44,372,584.65,372.32,584.05Z"/><path class="cls-8" d="M1068.05,696c10.81,6.53,22.64,11,33.78,16.9,13.75,7.28,27.57,14.42,40.89,22.48-13.06,2.59-24.8,8.08-33.08,18.59a73.75,73.75,0,0,0-14.29,30.61c-3.07,14.49-1.63,28.55,3,42.44a3.54,3.54,0,0,1,0,1.21c-10.46-7.06-20.59-14.58-31.14-21.5-19.79-13-40-25.15-61-36.12-3.83-2-7.4-4.58-11.62-5.82-5.22-2.61-10.34-5.45-15.67-7.79-6.8-3-13-7.47-20.59-8.56-.25-.46-.4-1.19-.78-1.34-7.67-3-15-6.66-22.54-9.94-3-1.3-5.36-3.55-9.06-3.93-5.74-.59-11.26-3.19-17-3.85-7.55-.87-14.64-4.09-22.37-3.89a78.38,78.38,0,0,1-17.37-1.33,77.23,77.23,0,0,1-28-12,210.89,210.89,0,0,1-27.94-22.67c-3-2.88-6.45-5.74-10.55-7.35-.07-.6-.43-.74-1-.62-3.81-3.88-9.17-3.64-13.85-5.22a22.38,22.38,0,0,1-4.49-11.13l2.43-5.42c5.67-5.74,12.61-5.28,19.56-3.67,4.65,1.08,9.14,2.88,13.69,4.36l10.3,4.73c4,2.42,7.37,6,12.42,6.3a27.75,27.75,0,0,0,8.49,4.55l2.45,1c3.77,2.57,8.3,3.12,12.47,4.62,1.76.63,3,.13,2.27-2.19a21.68,21.68,0,0,1-.48-2.79,17.35,17.35,0,0,0,.22-12.25c0-1.22,0-2.43,0-3.65l1.06-4.7c1.5,0,2.42-1.17,3.46-1.95,4.93-3.65,10.25-2.57,11.54,3.42.88,4.07,3.3,5.09,6.08,6.57,1.4.75,3,1.21,3.57,3,.39,1.25,1.43.84,1.77.1.86-1.9,3.2-2.55,3.76-4.64,3.11-.14,2.72-2.45,1.33-3.45-5.11-3.72-3.94-7.35-.52-11.26,1.84-.29,2.76-1.43,2.17-3.16-.69-2-2.39-2.54-5-2.32,2.69,1.39,3,3.34,2.82,5.48-5.77,1.63-7,5.53-3.16,9.51,1.33,1.38,4,2.38,2.34,5.2-1.56.45-3,.94-4.43-.61-3.53-3.75-7.27-7.29-10.87-11-1.58-1.63-2.83-3.79-1.57-5.87a34.43,34.43,0,0,1,8-9.06,2,2,0,0,1,2.93.24c.91,1,.57,2-.33,2.83a4.92,4.92,0,0,0-1.91,3,4.75,4.75,0,0,0-3.85,4.54,2.45,2.45,0,0,0,2.21,2.52c2.1.23,3.56-.83,4.39-3.65.08-.29-.12,0-.26.31s-.05.49.29.2c.18-.16.43-.3.52-.51s-.13-.36-.55,0c-1.72.72-3.35,2.37-4.45,1-1.29-1.56,1.42-2.23,1.52-3.67a7.43,7.43,0,0,1,.17-.79c4.59-.89,4.67-7.49,9.8-7.75.19,0,.39-.67.52-1,1.08-3-.22-6.12-3-7-2.2-.73-6,1.78-6,4.54,0,2.11-1.28,2.41-2.35,3.54-4.11,4.33-11.35,6.93-9.21,15.11.22.86-.29,1.46-1.06,1.19-4.76-1.69-7.87,1-10.87,4l0-5.68q-.15-22.93-.29-45.87c-.25-1.4-.05-2.92-1.06-4.13-.39-2.09.35-4.49-1.67-6.15-.1-.79-.21-1.58-.32-2.37.39-2.12-1.14-3.71-1.6-5.6-.38-3.68-2.59-6.75-3.44-10.28.24-2.31-.5-4-3-4.2-2-.18-3.45.41-3.34,2.79a31.45,31.45,0,0,0-9.84,11.69,4.06,4.06,0,0,0-2.92,2.94c-.37,1.81-1.78,2.1-3.13,2.59-3.36,1.4-6.72,1.91-10.1.05-3.31-.44-3.54-4.07-5.81-5.59-1.17-3.92-.31-7.64,1.1-11.31,2.7-4.72,5.58-9.35,8-14.2,1.49-3,4.73-4.9,5-8.56,1.79-.19,2.53-1.79,3.74-2.77,2.87-2.29,5.57-4.88,9.29-5.83,3.37.12,6.79-.1,10.1.43s6.94,1.31,9.8,3.57c9.47,7.47,15.92,17.25,21.21,27.89,6.53,13.13,10.49,27.29,16.31,40.69,3.53,8.12,7.32,16.22,15.66,21.16a209.93,209.93,0,0,0,30.22,14.84c16.48,6.5,33.06,12.77,49.58,19.18a9.36,9.36,0,0,0,4.36.75,18,18,0,0,0,6.82,3.56c11,3.7,21.77,8.05,32.48,12.53C1052.7,690,1060.08,693.75,1068.05,696Z"/><path class="cls-4" d="M958.29,748.46c7.59,1.09,13.79,5.57,20.59,8.56,5.33,2.34,10.45,5.18,15.67,7.79-1.35,1.38-3.1.82-4.65.81-17.55-.14-35.11-.73-52.65-.44-32.12.52-64.24.09-96.36.26-18.38.09-36.76,0-55.15,0H641.27q-80.79,0-161.59-.05-68,0-135.95.23c-6.11,0-12.25-.39-18.32.1-6.28.51-9.91-2.58-12.89-7.42-2-3.24-2.91-7.05-5.32-10.07.4-.84.83-1.63,1.9-1.71,2,.65,4.07,1.75,6.14,1.86,10.7.56,21.41.39,32.12.05,23.82.06,47.64.18,71.46.18q248.51,0,497,0C930,748.64,944.14,748.52,958.29,748.46Z"/><path class="cls-4" d="M258.49,498.79c13.87,13.88,33.12,16.9,49.29,4.09,1.81-1.43,3.74-2.71,5.62-4.05,3.1.11,6.21.34,9.31.3,4.71-.06,9.11.5,11.19,5.49,2,4.71-.16,8.37-3.52,11.56a25.77,25.77,0,0,1-7.63,1q-37.32-.06-74.64,0c-3.17,0-6.23-.19-9.08-1.71a36.44,36.44,0,0,1-2.19-3.89c-2.53-6,1.61-11.95,8.63-12.33C249.8,499,254.15,498.92,258.49,498.79Z"/><path class="cls-3" d="M239,515.42c2.85,1.52,5.91,1.72,9.08,1.71q37.32-.07,74.64,0a25.77,25.77,0,0,0,7.63-1c-.42,2.2-2.19,1.69-3.58,1.69q-42,0-84.1,0C241,517.87,238.9,518.27,239,515.42Z"/><path class="cls-9" d="M1068.05,696c-8-2.27-15.35-6-23-9.22-10.71-4.48-21.47-8.83-32.48-12.53a18,18,0,0,1-6.82-3.56c-2-14.49-3.81-29-6.23-43.46a13.94,13.94,0,0,1,2.26-11c6.38-9.44,10.79-19.46,8.66-31.27l8.56.23c9.25,3.59,9.89,12.93,13,20.31,8,18.74,15.41,37.72,22.83,56.7C1059.31,673.48,1064.43,684.46,1068.05,696Z"/><path class="cls-6" d="M1175.65,513c0-8.84.1-17.69-.06-26.53,0-2.88,1-3.5,3.75-3.72,11.88-1,20.66,8.27,20.17,19.81-.36,8.69.63,17.43-.47,26.09-1.3,10.19-11.22,17.1-21.37,15.36-2.58-.44-2-2.17-2-3.66C1175.63,531.23,1175.65,522.12,1175.65,513Z"/><path class="cls-10" d="M951.53,526.11c10.63-1.24,19.82,2.59,27.53,9.26,4.41,3.81,7.09,9.41,8.59,15.28-.5,2.29.68,4.42.7,6.66s-.53,4.36.55,6.42l.24,1.37c-1.07,9.7-2.26,19.39-2.57,29.17-.12,3.71,1.4,4.81,4.84,4.59,3-.2,4.29-2,5.06-4.48,2.84-9.22,2.57-18.16-2.47-26.65,4.12.63,6.9,3.6,10.13,5.79a31.25,31.25,0,0,1,6.36,11.46c2.13,11.81-2.28,21.83-8.66,31.27a13.94,13.94,0,0,0-2.26,11c2.42,14.43,4.2,29,6.23,43.46a9.36,9.36,0,0,1-4.36-.75c-16.52-6.41-33.1-12.68-49.58-19.18a209.93,209.93,0,0,1-30.22-14.84c-8.34-4.94-12.13-13-15.66-21.16-5.82-13.4-9.78-27.56-16.31-40.69-5.29-10.64-11.74-20.42-21.21-27.89-2.86-2.26-6.37-3-9.8-3.57s-6.73-.31-10.1-.43a7.69,7.69,0,0,1,5.41-2.94,31.42,31.42,0,0,1,23.69,5.57c2.39,1.68,3.47,5,6.89,5.51l15,23.19c2,3.88,2.81,8.46,6.44,11.44-.85,2.35.07,4.14,1.8,5.67.87,3.71,3.57,1.9,5.67,1.88a27.8,27.8,0,0,1,.54,3.59c0,1.86.82,2.76,2.71,2.7,7.46-.26,14.92.43,22.38-.4,2.17-.24,2.85-1.16,3.63-3,2.38-5.63,1.17-11.25.26-16.82-1-5.86-2.64-11.6-3.59-17.46-2-12.13-6-23.27-14.49-32.42a5.38,5.38,0,0,1-1.28-3.3c3.67-.63,5.29,3.16,8.34,3.86,4.17,5.89,9,11.37,11.5,18.29.31.85.83,1,1.54.59,2.79-1.58,3.81.53,5,2.36-5.73.42-5.79.53-3.84,5.86.32.87.48,1.81.81,2.69,1.74,4.58,1.76,9.66,4.05,14.08a29.64,29.64,0,0,0,.84,8.18c.65,3.14,2,6.29-.31,9.33l-.81.81-.13.32.17-.28.81-.81c3.44,0,2.77,3,3.08,4.79.44,2.63,1.68,3.41,4.1,3.36,4.35-.08,8.71-.14,13,0,3.19.12,4.22-1.18,4.34-4.32.24-5.81,1.4-11.6,1.34-17.4-.08-7.44,3.11-14.5,1.2-22.25-3-11.94-8.62-21.2-20.39-25.95C956,528,953.77,527.06,951.53,526.11Z"/><path class="cls-9" d="M988.35,557.31c0-2.24-1.2-4.37-.7-6.66l27.5.08c.06,6.64.06,13.28.21,19.92,0,2.05-.49,3-2.7,2.83-2.84-.15-5.69,0-8.54,0-3.22-2.2-6-5.17-10.12-5.8l0,0c-.31-.77-1-.95-1.71-1.12a3.85,3.85,0,0,0-3.19-1.55c-.08-.46-.16-.92-.23-1.37C988.94,561.57,989.49,559.37,988.35,557.31Z"/><path class="cls-9" d="M378.69,550.69l25.48.07a37.66,37.66,0,0,1-14.36,19.16c-1.67,1.13-2.67,3.06-4.71,3.63-6.82-.29-6.79-.29-6.63-7.45C378.59,561,378.62,555.83,378.69,550.69Z"/><path class="cls-4" d="M295.6,342.83a82.93,82.93,0,0,1,10.11,13.42c9,15.16,14.86,31.4,16,49.11.17,2.64,1.75,2.54,4,2.72-4.2,2.61-3.29,6.46-3.25,10a246.69,246.69,0,0,1-.95,26.91c-.22,2.28-2.22,5.33-1.93,6.17,1.91,5.5-1.67,9.9-2.22,14.82-1.13,10.17-5.11,19.69-7.86,29.5-.21.74-.75,1.39-2.12,1.89.76-4.33,1.58-8.65,2.28-13s1.28-8.87,1.95-13.31,2.12-9.15,1.94-13.68c-.16-4.18,1.85-7.85,1.46-12.07-.42-4.54.42-9.19.55-13.79s0-8.92,0-14c-3.13,1.71-5.67,3.11-8.23,4.49-3.61,1.95-5.37,1-5.59-3a66.43,66.43,0,0,1,1.54-19.83c.27-1.05.46-2.55,1.54-2.65,1.52-.15,1.17,1.51,1.39,2.48a49.92,49.92,0,0,1,1.52,12.11c-.06,2.67.69,2.71,3.13,1.77,4.33-1.66,4.9-4.19,4.22-8.47-1.38-8.73-2.35-17.55-4.84-26-3.22-10.94-7.19-21.63-13.47-31.29a27.43,27.43,0,0,1-1.4-2.47C295.33,344.47,295.46,344.16,295.6,342.83Z"/><path class="cls-4" d="M285.07,498.82c-1.08-8.28-2.15-15.49-2.92-22.72-2.08-19.48-1.59-39.06-2.48-58.59-.15-3.25.55-6.41.33-9.71-.21-3,3.47-4.19,5.17-6.42,1.19-1.57,2.95-4.27,4.78-3.59,1.6.6.56,3.69.73,5.66,1.51,17.38.2,34.77-.32,52.12a371.65,371.65,0,0,1-4,41.27C286.28,497.17,286,497.46,285.07,498.82Z"/><path class="cls-4" d="M243.33,439.78c5.18,1,5.33,1,5.22-4.68-.06-2.89,1.08-3.77,3.8-3.89s3.35,1.46,3,3.56c-1.07,7.14,3,10.63,8.8,13.23,4.62,2.06,4.64,4.22.37,7.08-.89.6-1.88,1.07-2.82,1.6-3,1.69-4.06,3.76-3.49,7.6,1.35,9,2.43,18,4.37,26.92.23,1.09.8,2.95-.56,3.24-1.77.38-1.75-1.67-2.07-2.86-2.35-8.67-4.8-17.3-6.84-26-.78-3.34-1.9-4.24-4.86-2.43A8.72,8.72,0,0,1,246,464c-.66.17-1.39.17-1.74-.6s.21-1,.59-1.37c.67-.67,1.36-1.33,2-2,5.88-6,5.36-12-1.53-17.16C244.39,442.15,243.21,441.62,243.33,439.78Z"/><path class="cls-4" d="M289,369.13a129.23,129.23,0,0,1,1,14.82c0,1.94-.43,2.76-2.41,2.58a5.76,5.76,0,0,0-2.42.1c-4.61,1.73-4.77-1.12-4.53-4.34q.71-9.5,1.48-19c.08-1-.31-2.35,1-2.87s2,.58,2.72,1.31C287.91,363.71,290.12,365.65,289,369.13Z"/><path class="cls-4" d="M256.41,401.3A150.6,150.6,0,0,0,254.72,424c0,2.4-1.24,3.51-3.6,3.28-2-.19-3.32-1.15-3.18-3.4.5-7.59,1-15.16,1.46-22.75.14-2.46,1.4-3,3.5-2.58C254.62,399,257.11,398.55,256.41,401.3Z"/><path class="cls-4" d="M286.07,342c.68,5,1.35,10,2.12,15.78-7.8-4.61-2.66-10.58-3.6-15.57Z"/><path class="cls-4" d="M265.3,363.72a2.1,2.1,0,0,1-.08.8c-.91,1.81-.36,4.49-3,5.32a2.25,2.25,0,0,1-2.52-.91c-1.54-2.29.6-3.8,1.53-5.37.64-1.1.73-3.33,2.6-3C265,360.81,265.18,362.49,265.3,363.72Z"/><path class="cls-4" d="M1129.86,431.23c8.16-.05,16.33-.18,24.49-.11,6,.05,10.4,4.4,10.28,9.88a10.33,10.33,0,0,1-10.51,9.83c-20.42.06-40.84,0-61.26,0-8.7,0-17.39.1-26.09,0-4.39,0-8-1.93-9.75-6.09-1.72-4-1-7.7,2.16-10.87a8.85,8.85,0,0,1,6.57-2.74q20.82,0,41.65.07C1121.27,430.38,1113.16,431.54,1129.86,431.23Z"/><path class="cls-6" d="M958.29,748.46c-14.15.06-28.3.18-42.46.18q-248.51,0-497,0c-23.82,0-47.64-.12-71.46-.18,5.05-7.3,12.32-11.57,20.24-15,12-5.22,24.78-5.71,37.52-6.4s25.51-1,38.26-1.63a280.4,280.4,0,0,0,75.06-13.71c2-.67,4.92-.37,6-2.17,1.31-2.23-2.5-3.08-2.6-5.29h3.54c3.93,4.65,3.93,4.65,10.46,1.49,4.79.22,9.11-.64,11.94-5.07,3.2-5,1.09-10.29-1.6-13.36-1.59-1.81-3.38-3.46-5.08-5.18a.88.88,0,0,1,.44-.29c1.76.1,3.52.27,5.28.28,19.6.06,39.2.15,58.8.15q88.65,0,177.31,0c1.48,0,3-.19,4.46-.3h6.32a37.4,37.4,0,0,0,9,.18c4.1,1.61,7.51,4.47,10.55,7.35a210.89,210.89,0,0,0,27.94,22.67,77.23,77.23,0,0,0,28,12,78.38,78.38,0,0,0,17.37,1.33c7.73-.2,14.82,3,22.37,3.89,5.74.66,11.26,3.26,17,3.85,3.7.38,6.07,2.63,9.06,3.93,7.53,3.28,14.87,7,22.54,9.94C957.89,747.27,958,748,958.29,748.46Zm-323-4.31v0c22.73,0,45.46,0,68.19,0a37.26,37.26,0,0,0,8.09-.87c5.17-1.19,7.19-4,7.06-9.27-.33-13.47-.77-26.94-1-40.41-.07-3.65-1.64-5.87-5-7.05a20.4,20.4,0,0,0-6.79-1.2q-66.34,0-132.69,0a21,21,0,0,0-9.39,2.39A6.08,6.08,0,0,0,560.3,692c-.74,3.44-1.3,6.92-1.92,10.38-1.8,10-2.7,20.14-4.79,30.09-1.29,6.17-.51,8,3.51,10,3.26,1.59,6.83,1.69,10.38,1.69Z"/><path class="cls-4" d="M793.68,681.94h-6.32c-2-.82-4-.4-6.05-.4q-87,0-174,0c-2.77,0-5.74.35-6.24-4.2-1,2-.32,4.2-2.86,4.18-8.44,0-16.88,0-25.32,0-2.18,0-2.67-1.88-2.83-3.41-.26-2.35,1.81-1.5,2.92-1.52,5.45-.1,10.89-.07,16.34-.06,2.58,0,4.11-1,4.28-3.78a18.3,18.3,0,0,1,.77-3.55c.79-3-.2-4.44-3.37-4.4-11.16.11-22.32.18-33.47.28-1.53,0-3.31.1-3.89,1.67-1.68,4.59-7,4.51-9.29,8.59-.84-2.09-.27-3.24,0-4.43,1-5.08.46-5.83-4.6-5.85-9.25,0-18.49,0-27.74,0-7.82,0-7.71,0-9.51,7.78-.63,2.69.5,3.69,2.76,3.7,11.55,0,23.12.24,34.66-.21,3.16-.12,3.52.28,2.57,2.9l-1,2.65a.88.88,0,0,0-.44.29l-2.44-.23-1,0c-13.72-4.23-27.94-4.52-42.09-5.38l-3.24-.21c2-1.94,1.66-4.76,2.69-7.06,1.41-3.15-.07-4.18-3-4.26-3.22-.09-6.44-.21-9.66-.32,3.4-3.4,6.06-7.51,9.92-10.48-1,5.83-1,5.88,5,5.89,9.81,0,19.61,0,29.41,0,5,0,6.83-2.22,6.65-8.08-.14-4.47-3.76-3-6.14-3.08-10-.38-20.12.41-30.17-.42a16.25,16.25,0,0,1,3.77-4.28c2.43,0,4.85.16,7.27.12,5.5-.08,6.07-1,7.37-7.34.93-4.55-3.21-2.84-4.67-4.38,2.25-1.21,4.13-3.06,6.64-3.81l29.11.09c.22,1.08.45,2.17.67,3.25-.79,2-2.57,1.12-3.87,1.15-5,.12-10,0-15,.07-3.87.1-5.88,3-5.68,8.17.15,3.62,3.24,2.74,5.24,2.74,6.64,0,13.28.46,19.91-.25,1.43.75,2,2.11,2.63,3.48-1.48,1.6-3.53,1.1-5.34,1.48-2.52.52-5.87,7.86-4.6,10a2.22,2.22,0,0,0,2.06,1.06c11.71,0,23.43.1,35.13,0,3.55,0,4.26-3.08,4.49-5.83.2-2.48-.42-4.36-3.67-5.06a31.91,31.91,0,0,0-12.51.09l-1.19-.47c2.64-1.09,3.25-4,5.23-5.74,1.52,1.13,3.29,1.14,5.07,1.14,9.53,0,19.06,0,28.59,0,6.41,0,6.78-.52,7.23-7,.17-2.48-.83-3.71-3.12-3.7-12,0-23.94-.8-35.88.59-1.63-1.78.23-3.42.2-5.14.68,0,1.36-.06,2-.06,7.07-.07,14.14-.05,21.21-.23,4.81-.12,3.78-4.1,4.18-7,.42-3-1.76-3.21-3.94-3.19l-23.25.14a11.24,11.24,0,0,1-1.14-4.55c3.36-.76,6.76-.36,10.14-.34,4.61,0,4.69-3.29,5-6.39.32-3.51-2.47-3.48-4.71-3.55-4.62-.12-9.24,0-13.87,0a10.54,10.54,0,0,1-2.85-4.23l17.88-.06a11,11,0,0,0,4.39-.61,3.54,3.54,0,0,0,2.15-3.95c-.13-1.7-1.61-2.1-3-2.1-9.75,0-19.5-.47-29.24.27l-4-2.39c1.22,0,2.44-.16,3.66-.16q106.35,0,212.69,0c19.33,0,38.67-.09,58-.13,3.38,1.86,6.74,1.35,10.1-.05l27.31.07c.11.79.22,1.58.32,2.37-4.19-.09-8.38-.33-12.56-.2-1.69.06-4.21-.29-4.36,2.51s1.78,4,4.09,4.14c4.82.22,9.69.79,14.5-.3,1,1.21.81,2.73,1.06,4.13-6.59,1.25-13.25.36-19.87.53s-13.34,0-20,.11c-1.93,0-4.36-.06-4.6,2.84-.42,4.94,1.53,7,6.54,7.06,10.74,0,21.49-.09,32.23.1,1.85,0,5.2-1.86,5.34,2.19s-3.28,2.3-5.12,2.38c-5.57.25-11.15.08-16.73.1-1.67,0-3.36,0-3.76,2.22-.86,4.73,1.93,8.16,6.85,8.24s10.06,0,15.09.06c1.59,0,3.83-.75,3.74,2.25s-2.38,2.06-3.91,2.07c-15,.06-29.93,0-44.89,0a64.46,64.46,0,0,0-6.52.22c-1.33.15-2.66.64-2.71,2.46-.16,5.84,2,8.1,7.81,8.1,15.51,0,31,0,46.53,0,1.64,0,3.65-.6,3.75,2.32.1,3.19-2.07,2.56-3.87,2.58-4.49.06-9,0-13.46.09-1.31,0-2.76,0-3.23,1.8a7.37,7.37,0,0,0,6.83,9.19c4.46.2,9-.62,13.39.63,0,1.22,0,2.43,0,3.65-4.36,1.32-8.82.39-13.23.6-4.19.2-4.66.78-4,4.83.33,2,1.91,4,.28,6.18a27.75,27.75,0,0,1-8.49-4.55c-.71-6.34-.84-6.46-7.15-6.42-1.76,0-3.52.08-5.27.12L819,660.42c5.57-.11,11.13-.19,16.69-.35,1.58,0,3.39.15,3.9-2.05,1.16-5.08-1.93-9-7.22-9-13.59,0-27.18.16-40.76-.06-9.15-.15-8,.71-6.78,8.94a6.53,6.53,0,0,0,.92,1.8q-1.21,2.7-2.44,5.42c-1.36,0-2.71-.15-4.07-.15L631,665l-20.41,0c-1.94,0-3.89,0-4.87,2.14-2.76,6-.72,9.32,5.7,9.32H775.6c4.08,0,8.16-.15,12.24-.22,4.68,1.58,10,1.34,13.85,5.22C799,681.75,796.31,681.05,793.68,681.94ZM609.41,660.11h13.44c7.6,0,6.79-.59,7.53-7.81.19-1.81-.68-3-2.46-3.06a345.46,345.46,0,0,0-35,.13c-4.58.3-3.19,5-3.45,8s2.45,2.71,4.42,2.74C599.09,660.15,604.25,660.1,609.41,660.11Zm146.84,0v0c5.44,0,10.88,0,16.32,0,1.56,0,3.06-.19,3.82-1.75,1.76-3.57-1.6-9.27-5.52-9.29-10.19,0-20.39,0-30.58,0-2.67,0-4.73.24-4.62,3.92.17,6.1.45,7,4.68,7.06C745.65,660.16,751,660.07,756.25,660.07Zm-97.65,0h15.9c1.82,0,3.57-.11,4.15-2.37,1.69-6.53.09-8.64-6.63-8.67l-2.44,0c-9,0-18-.07-26.92.1-3.8.07-4.38,1.56-4.32,7.52,0,3.24,2.08,3.41,4.35,3.42C648,660.11,653.3,660.09,658.6,660.09Zm48.61,0c5.31,0,10.61,0,15.92,0,2.8,0,4.81-.78,4.46-4.24-.31-3.12.73-6.88-4.52-6.83q-15.72.15-31.43,0c-5-.06-4.18,3.32-4.39,6.42-.24,3.38,1.17,4.74,4.45,4.69C696.87,660.06,702,660.11,707.21,660.11Zm-21.15-16c5,0,10.07-.09,15.1,0,3.46.09,5.36-.9,5.16-4.86-.24-4.93-.68-5.84-5.1-5.91-7.48-.12-15-.05-22.45,0-2.85,0-5.72-.09-8.56.12-4.86.35-3.57,4.18-3.83,7.11-.29,3.16,1.78,3.54,4.16,3.54Zm96.29,0c4.9,0,9.81.09,14.7,0,2.12,0,5,.79,5-3,.09-5.43-1-7.27-5-7.45-10.34-.46-20.68-.42-31,0-2.34.09-4.58.2-4.07,3.49.47,3-.8,7.06,4.47,7S777.05,644.07,782.35,644.08ZM734.2,644v.05c5.31,0,10.61,0,15.91,0,1.45,0,3.07.16,3.77-1.7,1.79-4.75-.71-9-5.66-9-9.92-.07-19.85.15-29.77.12-3.3,0-4.28,1.55-4.08,4.57.19,2.79-.64,6,3.93,6C723.6,644,728.9,644,734.2,644Zm-96.08.05c5.29,0,10.58,0,15.87,0,1.74,0,3.53,0,4.14-2.34,1.53-5.93.16-7.91-5.86-8.19-.54,0-1.08-.11-1.62-.11-9.09,0-18.18-.1-27.26.14-4.38.11-5,1.54-4.87,7.4.1,3.72,2.78,3,5,3.09C628.35,644.14,633.23,644.08,638.12,644.08Zm-12-15.23v-.23c5.57,0,11.14.14,16.7,0,4.24-.14,3-3.71,3.4-6.17.33-2.25-.56-3.88-3-3.89-10.72-.08-21.43-.17-32.14,0-4.56.08-3.47,4-3.83,6.78-.44,3.28,2,3.47,4.17,3.51C616.34,628.91,621.24,628.85,626.13,628.85Zm188.16-10.39v0c-4.75,0-9.51-.09-14.26.05-2.1.06-5-.73-5.22,2.82-.25,5.07,1,7.2,4.87,7.38,10.58.5,21.18.44,31.76,0,1.19,0,2.5-.24,3-1.64,1.39-3.69-1.87-8.45-5.92-8.52C823.8,618.4,819.05,618.46,814.29,618.46Zm-93.74,0h0c-5,0-10.07,0-15.1,0-2.74,0-4.45.88-4.25,4,.18,2.76-.76,6.12,3.74,6.16q15.51.15,31,.17c2.76,0,4.63-.93,4.35-4.39-.26-3.2-.28-6.07-4.64-6C730.63,618.5,725.59,618.44,720.55,618.44Zm46.63,0c-5,0-10.07,0-15.1,0-1.47,0-3.1-.1-3.89,1.58a6.15,6.15,0,0,0,5.42,8.84c9.65.07,19.3.06,28.95-.09,2.07,0,4.89.52,4.89-3.24,0-5-1.29-7-5.18-7.07C777.24,618.36,772.21,618.44,767.18,618.43Zm-155.11-4.77v0H627.9c1.73,0,3.16-.39,3.82-2.31,1.95-5.66.74-7.55-5.22-7.6-8.82-.08-17.63,0-26.45,0a10.52,10.52,0,0,0-3.57.58c-3.32,1.24-2.87,4.31-2.89,6.92,0,2.9,2.47,2.37,4.25,2.4C602.58,613.72,607.33,613.66,612.07,613.66Zm185.95,0v0c4.62,0,9.24,0,13.86,0,4.94,0,5.71-1.11,4.75-5.88-.7-3.53-3.29-4-6.12-4-9.24-.07-18.48-.09-27.72,0-2.18,0-4.94-.28-4.57,3.44.3,3.13,0,6.54,4.74,6.49C788,613.62,793,613.66,798,613.66Zm-92.48,0v0c4.75,0,9.5,0,14.24,0,2.38,0,4.69,0,4.72-3.47,0-3.25-.16-6.29-4.31-6.34-10-.13-20.08-.16-30.11,0-3.84.06-4.15,3-4.19,6.14,0,3.42,2.22,3.64,4.6,3.68C695.5,613.74,700.52,613.68,705.54,613.68Zm-46.89,0c4.62,0,9.23-.09,13.85,0,3.36.08,5.9-.26,5.66-4.71s-.75-5.18-5.68-5.26c-6.25-.11-12.5,0-18.74,0-3.26,0-6.52-.07-9.77.11-4.4.24-4,3.66-4.05,6.61-.1,3.19,2.18,3.26,4.47,3.26Zm93,0c4.61,0,9.22.06,13.83,0,2.19,0,4.86.61,5-3,.24-4.8-.8-6.69-4.85-6.78-9.76-.21-19.53-.13-29.29-.07-2.9,0-4.34,1.44-4.19,4.65s.64,5.33,4.41,5.27C741.6,613.6,746.62,613.67,751.64,613.67Zm29-21.1v.06c-4.34,0-8.67.12-13,0-1.82-.08-3,.57-3.31,2.15-.37,1.79-.12,3.62,2.13,4.19a15.53,15.53,0,0,0,3.57.56q10.53.07,21.05,0a36.72,36.72,0,0,0,5.25-.29c1.44-.22,3.08-.52,2.83-2.68-.2-1.74-.7-3.24-2.71-3.51a41.64,41.64,0,0,0-4.84-.44C788,592.53,784.29,592.57,780.64,592.57Zm-40.52.26v-.06c-4.34,0-8.69-.06-13,0-2.1,0-4.68-.37-4.91,2.84s2.25,3.76,4.61,3.79c8.81.1,17.63.08,26.44,0,2,0,3.78-.55,3.85-3.17.07-2.82-1.69-3.42-4-3.43C748.8,592.82,744.46,592.83,740.12,592.83Zm-42.13,0v-.05c-4.62,0-9.25-.07-13.88,0-2,0-3.8.46-3.91,3.13s1.83,3.36,3.68,3.39c9.25.12,18.5.07,27.76,0,2.14,0,3.62-1.12,3.5-3.58s-1.77-2.87-3.67-2.89C707,592.81,702.48,592.85,698,592.85Zm-42.6,6.43v.23c4.35,0,8.7.06,13.05,0,2.26,0,4.49-.41,4.59-3.42.11-3.23-2.23-3.26-4.48-3.27-5.57,0-11.15,0-16.72,0-3.36,0-6.72,0-10.08.09-2.26.07-3.34,1.27-3.39,3.66s1.55,2.68,3.18,2.71C646.15,599.34,650.77,599.28,655.39,599.28Zm167.82-6.48v.06c-4.75,0-9.49,0-14.24,0-1.2,0-2.54.25-2.79,1.8a3.35,3.35,0,0,0,1.63,3.85,8.45,8.45,0,0,0,3.51.9c8.54.07,17.08.11,25.63,0,1.86,0,4.41,0,4.21-3.11-.18-2.82-2.11-3.51-4.53-3.51ZM614.1,599.5c3.85-.22,8.87.43,13.86-.33,2.19-.34,3.38-1.49,3.21-3.86s-1.91-2.45-3.51-2.46c-9.08-.07-18.16,0-27.23,0-2.39,0-3.93,1-3.95,3.56s1.87,3.07,3.86,3.11C604.54,599.55,608.74,599.5,614.1,599.5Z"/><path class="cls-6" d="M521.81,704.24c.1,2.21,3.91,3.06,2.6,5.29-1,1.8-3.92,1.5-6,2.17a280.4,280.4,0,0,1-75.06,13.71c-12.75.58-25.52.93-38.26,1.63s-25.53,1.18-37.52,6.4c-7.92,3.44-15.19,7.71-20.24,15-10.71.34-21.42.51-32.12-.05-2.07-.11-4.1-1.21-6.14-1.86.55-1.51,1.87-2.22,3.07-3.11,4-2.93,8.3-5.53,11.11-9.79,3.07-4.67,8.82-5.41,12.78-8.86,5.82-5.07,12-9.73,18.11-14.46,4.75-3.68,9.39-7.52,14.08-11.27,4.08-3.27,7.93-6.82,12.21-9.89a6.14,6.14,0,0,1,6.46-.66c8.86,3.51,17.9,6.5,26.95,9.48,6.49,2.14,13.38,3.76,19.26,7,4.19,2.3,8.22,1.67,12.2,2.74,11,2.95,22.18,1.77,33.16,1.25,12.44-.59,25.07-.84,37.24-4.39C517.62,704,519.77,704.33,521.81,704.24Z"/><path class="cls-6" d="M528.28,550.83q40.2-.08,80.39-.14,111.18,0,222.37,0c1.5,0,3,.07,4.49.11-.23,3.66-3.47,5.59-5,8.56-2.44,4.85-5.32,9.48-8,14.2q-39.19-.07-78.39-.13-99.21,0-198.43,0c-1.5-1.69-1.64-4-2.59-5.92-3-6.12-6.19-12-13.11-14.65C529.55,552.1,528.37,551.93,528.28,550.83Zm180,1.54c-5.76,0-9.4,3.66-9.39,9.43s3.87,10,9,10c6,0,10.24-4,10.32-9.75A9.64,9.64,0,0,0,708.32,552.37Zm-93,19.43a9.73,9.73,0,1,0-9.68-9.64A10,10,0,0,0,615.37,571.8Zm126.2-9.73A9.78,9.78,0,0,0,722,562a9.78,9.78,0,0,0,19.56.05Zm-70.25.18c.07-5.89-3.76-10-9.34-9.9a9.71,9.71,0,0,0-.4,19.41C667.24,571.93,671.25,568,671.32,562.25Zm93.34.15a9.58,9.58,0,1,0-19.15-.68,9.37,9.37,0,0,0,9.39,10A9.47,9.47,0,0,0,764.66,562.4Zm23.47,0a9.79,9.79,0,1,0-10.25,9.42A9.9,9.9,0,0,0,788.13,562.35Zm-139.74-.24a9.59,9.59,0,0,0-9.84-9.76,9.42,9.42,0,0,0-9.38,9.7c.14,5.78,4.2,9.82,9.79,9.76A9.57,9.57,0,0,0,648.39,562.11Zm46.55-.29c0-5-4.58-9.42-9.74-9.38-5.35,0-9.84,4.23-9.58,9.51.28,5.62,3.73,9.74,9.48,9.91C690.12,572,694.7,567.13,694.94,561.82Z"/><path class="cls-10" d="M517.34,628.8c-2.52.75-4.4,2.6-6.65,3.81-3.59,3.63-7.4,7.08-10,11.6a16.36,16.36,0,0,0-3.77,4.27c-1.87,1.67-4.09,3-4.73,5.74-3.86,3-6.52,7.08-9.92,10.48a22.28,22.28,0,0,0-4.75,5.13,4.39,4.39,0,0,0-3.36,4.84c-10.52-1.76-20-5.72-28.14-12.77-1.8-1.57-.62-2.53.34-3.69,6.26-7.55,13.55-14.13,20.87-20.54,11.72-10.27,23.84-20.16,37.06-28.49a99.49,99.49,0,0,1,48.26-15.51c1.92-.1,3.43,1.71,5.43,1.11,2.86.74,3.65,4.4,6.75,4.8a10.54,10.54,0,0,0,2.85,4.23c-.44,4,2.89,6.62,3.46,10.23a11.24,11.24,0,0,0,1.14,4.55c-.08,3.44-.16,6.87-.23,10.31,0,1.72-1.83,3.36-.21,5.14-.63,3-1.25,6-1.88,9-2,1.7-2.59,4.65-5.23,5.74a18.67,18.67,0,0,1-5.4-1.19c-2.69-.83-5.51-2.45-8.34-.24a4.21,4.21,0,0,0-.63.2c-.6-1.37-1.2-2.73-2.63-3.47,0-4,.52-8-.55-11.89-.22-1.08-.45-2.17-.66-3.25.82-1.58-.78-3-.3-4.56.14-4.42-1.32-6-5.41-6.75-2.66-.46-4.67,1.09-6.93,1.72-5.72,1.6-11.35,3.53-15.45,8.23C517.87,627.83,517.05,627.87,517.34,628.8Z"/><path class="cls-9" d="M827.26,590.46c-19.33,0-38.67.13-58,.13q-106.35,0-212.69,0c-1.22,0-2.44.11-3.66.16-1.12-1.29-2.69-.9-4.06-.91a4.37,4.37,0,0,1-4-2.62l1.58-2.29q53.87-.06,107.73-.11,83.65,0,167.31.06C823.72,586.39,824,590,827.26,590.46Z"/><path class="cls-10" d="M546.41,584.92l-1.58,2.29-18.69.16a3.44,3.44,0,0,0-1.56-2.6c-.25-1.79-1.32-3.2-2.16-4.72-1.64-3-3.66-3.87-6.85-2-3.79,2.24-8,3.85-11.35,6.75-2.46,1.73-6.23,1.87-6.92,5.74-1.66.33-3.62.07-4.33,2.24-1.39.72-2.83,1.37-4.19,2.16-1.73,1-2,2.08.1,3-2.09,4.69-6.76,2.75-10.23,3.81-1.29.4-1.76-1.33-1.86-2.63a18.6,18.6,0,0,1,2.72-10.53c6.36-11.34,16-19.3,27-25.94,7.37-4.48,15.35-7.4,23.56-9.83,6.92,2.61,10.11,8.53,13.11,14.65,1,1.94,1.09,4.23,2.59,5.92A58.07,58.07,0,0,1,546.41,584.92Z"/><path class="cls-10" d="M498.84,547.35c2.81,3.09,6.51,1.28,9.79,1.79-5.55,2.2-11.62,2.23-17.24,4.49-12,4.84-24.14,9.49-35.94,14.91-1.45.67-3,1.15-5.11,2a9.3,9.3,0,0,1,3.65-5.58c5.38-4.1,10.08-9,15.75-12.78a34.13,34.13,0,0,1,16.75-5.52C490.6,546.28,494.78,546.11,498.84,547.35Z"/><path class="cls-10" d="M441.65,529.54c2.55-.12,4.92-.13,7.39,1.22a21,21,0,0,0,12.19,2.08c-3.52,2.6-8,1.43-11.94,3.49-7.78,4.12-15.63,8-22.71,13.33a11.29,11.29,0,0,1-1.86.85c3.69-9.76,11.37-14.88,19.29-19.87Z"/><path class="cls-11" d="M564.76,599.58c-3.1-.4-3.89-4.06-6.75-4.8l-1.08-1.65c9.74-.74,19.49-.26,29.24-.27,1.4,0,2.88.4,3,2.1a3.54,3.54,0,0,1-2.15,3.95,11,11,0,0,1-4.39.61Z"/><path class="cls-11" d="M477.55,669.83a22.28,22.28,0,0,1,4.75-5.13c3.22.11,6.44.23,9.66.32,2.93.08,4.41,1.11,3,4.26-1,2.3-.71,5.12-2.69,7.06-5,.4-9.92-.71-14.84-1.42Z"/><path class="cls-9" d="M497.3,590.57c.69-3.87,4.46-4,6.92-5.74l20.36-.06a3.44,3.44,0,0,1,1.56,2.6c-5.36,2-11.16,2-16.63,3.52Z"/><path class="cls-11" d="M488.88,598c-2.07-.94-1.83-2-.1-3,1.36-.79,2.8-1.44,4.19-2.16,2.54.15,5.11-.44,7.63.28C497.26,596.08,492.77,596.31,488.88,598Z"/><path class="cls-4" d="M500.6,593.09c-2.52-.72-5.09-.13-7.63-.28.71-2.17,2.67-1.91,4.33-2.24l12.21.32Z"/><path class="cls-3" d="M535.81,705.74c-6.53,3.16-6.53,3.16-10.46-1.49C528.92,704.17,532.54,703.69,535.81,705.74Z"/><path class="cls-3" d="M477.55,669.83l-.12,5.09-3.24-.25A4.39,4.39,0,0,1,477.55,669.83Z"/><path class="cls-3" d="M296.15,643h0"/><path class="cls-11" d="M537.6,681.93l1,0Z"/><path class="cls-3" d="M299.4,643l0,0"/><path class="cls-3" d="M261,700.17c-.27.28-.55.55-.82.82h0l.81-.82Z"/><path class="cls-3" d="M258.56,702.63l-.82.82h0l.82-.82Z"/><path class="cls-4" d="M546.41,584.92a58.07,58.07,0,0,0-.68-11.48q99.22,0,198.43,0,39.2,0,78.39.13c-1.41,3.67-2.27,7.39-1.1,11.31q-83.66,0-167.31-.06Q600.28,584.81,546.41,584.92Z"/><path class="cls-11" d="M787.84,676.28c-4.08.07-8.16.22-12.24.22H611.45c-6.42,0-8.46-3.32-5.7-9.32,1-2.13,2.93-2.14,4.87-2.14L631,665l148.24,0c1.36,0,2.71.1,4.07.15A22.48,22.48,0,0,0,787.84,676.28Z"/><path class="cls-11" d="M867.15,660.74c-4.41-1.25-8.93-.43-13.39-.63a7.37,7.37,0,0,1-6.83-9.19c.47-1.8,1.92-1.77,3.23-1.8,4.48-.08,9,0,13.46-.09,1.8,0,4,.61,3.87-2.58-.1-2.92-2.11-2.32-3.75-2.32-15.51,0-31,0-46.53,0-5.83,0-8-2.26-7.81-8.1.05-1.82,1.38-2.31,2.71-2.46a64.46,64.46,0,0,1,6.52-.22c15,0,29.93,0,44.89,0,1.53,0,3.81.93,3.91-2.07s-2.15-2.23-3.74-2.25c-5-.08-10.06,0-15.09-.06s-7.71-3.51-6.85-8.24c.4-2.2,2.09-2.21,3.76-2.22,5.58,0,11.16.15,16.73-.1,1.84-.08,5.26,1.8,5.12-2.38s-3.49-2.16-5.34-2.19c-10.74-.19-21.49-.07-32.23-.1-5,0-7-2.12-6.54-7.06.24-2.9,2.67-2.8,4.6-2.84,6.66-.13,13.33.06,20-.11s13.28.72,19.87-.53q.15,22.93.29,45.87l0,5.68c.06.45.11.91.17,1.36Z"/><path class="cls-11" d="M785.78,659.73a6.53,6.53,0,0,1-.92-1.8c-1.27-8.23-2.37-9.09,6.78-8.94,13.58.22,27.17,0,40.76.06,5.29,0,8.38,3.89,7.22,9-.51,2.2-2.32,2-3.9,2.05-5.56.16-11.12.24-16.69.35-4.55-1.48-9-3.28-13.69-4.36C798.39,654.45,791.45,654,785.78,659.73Z"/><path class="cls-8" d="M868.21,656c-.06-.45-.11-.91-.17-1.36,3-3,6.11-5.68,10.87-4,.77.27,1.28-.33,1.06-1.19-2.14-8.18,5.1-10.78,9.21-15.11,1.07-1.13,2.34-1.43,2.35-3.54,0-2.76,3.83-5.27,6-4.54,2.75.91,4.05,4,3,7-.13.38-.33,1-.52,1-5.13.26-5.21,6.86-9.8,7.75h0a4.92,4.92,0,0,1,1.91-3c.9-.87,1.24-1.79.33-2.83a2,2,0,0,0-2.93-.24,34.43,34.43,0,0,0-8,9.06c-1.26,2.08,0,4.24,1.57,5.87,3.6,3.69,7.34,7.23,10.87,11,1.46,1.55,2.87,1.06,4.43.61h0c-.56,2.09-2.9,2.74-3.76,4.64-.34.74-1.38,1.15-1.77-.1-.57-1.83-2.17-2.29-3.57-3-2.78-1.48-5.2-2.5-6.08-6.57-1.29-6-6.61-7.07-11.54-3.42C870.63,654.87,869.71,656,868.21,656Z"/><path class="cls-11" d="M850.24,676c1.63-2.13,0-4.15-.28-6.18-.68-4.05-.21-4.63,4-4.83,4.41-.21,8.87.72,13.23-.6a17.35,17.35,0,0,1-.22,12.25c-4.74.64-9.54-1-14.26.36Z"/><path class="cls-4" d="M843.41,584.88a31.52,31.52,0,0,1,9.83-11.69c2,1,4.71-1.11,6.39,1.41.85,3.53,3.06,6.6,3.45,10.28Z"/><path class="cls-9" d="M843.41,584.88h19.67c.45,1.89,2,3.48,1.59,5.6l-27.31-.07c1.35-.49,2.76-.78,3.13-2.59A4.06,4.06,0,0,1,843.41,584.88Z"/><path class="cls-11" d="M866.66,599c-4.81,1.09-9.68.52-14.5.3-2.31-.1-4.24-1.44-4.09-4.14s2.67-2.45,4.36-2.51c4.18-.13,8.37.11,12.56.2C867,594.51,866.27,596.91,866.66,599Z"/><path class="cls-4" d="M852.69,677c4.72-1.37,9.52.28,14.26-.36a21.68,21.68,0,0,0,.48,2.79c.72,2.32-.51,2.82-2.27,2.19C861,680.12,856.46,679.57,852.69,677Z"/><path class="cls-11" d="M829.33,665.15c1.75,0,3.51-.11,5.27-.12,6.31,0,6.44.08,7.15,6.42C836.7,671.15,833.31,667.57,829.33,665.15Z"/><path class="cls-3" d="M899.2,647.87c-3.42,3.91-4.59,7.54.52,11.26,1.39,1,1.78,3.31-1.33,3.45h0c1.67-2.82-1-3.82-2.34-5.2-3.85-4-2.61-7.88,3.16-9.51Z"/><path class="cls-9" d="M859.63,574.6c-1.68-2.52-4.38-.41-6.39-1.41-.1-2.38,1.37-3,3.35-2.79C859.13,570.64,859.87,572.29,859.63,574.6Z"/><path class="cls-3" d="M890.21,642.14a7.43,7.43,0,0,0-.17.79c-.1,1.44-2.81,2.11-1.52,3.67,1.1,1.33,2.73-.32,4.15-.37a3.53,3.53,0,0,1-4.09,3,2.45,2.45,0,0,1-2.21-2.52,4.75,4.75,0,0,1,3.85-4.54Z"/><path class="cls-3" d="M899.21,647.87c.17-2.14-.13-4.09-2.82-5.48,2.59-.22,4.29.31,5,2.32.59,1.73-.33,2.87-2.17,3.16Z"/><path class="cls-11" d="M793.68,681.94c2.63-.89,5.35-.19,8-.44.53-.12.89,0,1,.62A37.4,37.4,0,0,1,793.68,681.94Z"/><path class="cls-3" d="M893.27,644.89c.12.31.3.54.25.67s-.34.35-.52.51c-.34.29-.47.21-.29-.2A10.67,10.67,0,0,1,893.27,644.89Z"/><path class="cls-12" d="M247.12,687.92l-.81.81Z"/><path class="cls-8" d="M923.57,525.4a5.38,5.38,0,0,0,1.28,3.3c8.49,9.15,12.53,20.29,14.49,32.42.95,5.86,2.63,11.6,3.59,17.46.91,5.57,2.12,11.19-.26,16.82-.78,1.85-1.46,2.77-3.63,3-7.46.83-14.92.14-22.38.4-1.89.06-2.67-.84-2.71-2.7a27.8,27.8,0,0,0-.54-3.59c.06-.59.11-1.19.17-1.78l0-5.87.1-11.38c.85-7-1.38-13.68-1.62-20.56a2.56,2.56,0,0,0-1.47-2.26c-.31-2.82-2.33-3.43-4.65-3.43-4.2,0-8.41,0-12.6.18-9.07.47-13.72-3.9-13.58-13,1-.3,2.67-.07,2.71-1.31.12-3.69,3.08-4.28,5.48-5.48a4.45,4.45,0,0,0,2.48-3c5.66-1.12,11.17-3,17-3.26S918.71,522,923.57,525.4Z"/><path class="cls-8" d="M949.93,550.5c-1.17-1.83-2.19-3.94-5-2.36-.71.4-1.23.26-1.54-.59-2.53-6.92-7.33-12.4-11.5-18.29a13.29,13.29,0,0,1,8.76-3.08c3.62-.07,7.24,0,10.86-.07,2.24.95,4.46,1.92,6.71,2.83,11.77,4.75,17.43,14,20.39,25.95,1.91,7.75-1.28,14.81-1.2,22.25.06,5.8-1.1,11.59-1.34,17.4-.12,3.14-1.15,4.44-4.34,4.32-4.34-.17-8.7-.11-13,0-2.42,0-3.66-.73-4.1-3.36-.31-1.8.36-4.79-3.08-4.79l0,0c2.32-3,1-6.19.31-9.33a30,30,0,0,1-.85-8.17c.64-.33,1.64.23,1.93-1,1-4.3,2.29-8.56,3.27-12.87C957.22,554.51,957.59,551.24,949.93,550.5Z"/><path class="cls-9" d="M910.62,550.67a2.56,2.56,0,0,1,1.47,2.26c.24,6.88,2.47,13.6,1.62,20.56l-14.21,0-15-23.19Z"/><path class="cls-3" d="M890.46,524.69a4.45,4.45,0,0,1-2.48,3c-2.4,1.2-5.36,1.79-5.48,5.48,0,1.24-1.71,1-2.71,1.31C880.65,528.25,885.49,526.4,890.46,524.69Z"/><path class="cls-8" d="M989.14,565.1a3.85,3.85,0,0,1,3.19,1.55,1.74,1.74,0,0,0,1.71,1.12l0,0c5,8.49,5.31,17.43,2.47,26.65-.77,2.5-2.08,4.28-5.06,4.48-3.44.22-5-.88-4.84-4.59C986.88,584.49,988.07,574.8,989.14,565.1Z"/><path class="cls-9" d="M949.93,550.5c7.66.74,7.29,4,6.21,8.79-1,4.31-2.22,8.57-3.27,12.87-.29,1.21-1.29.65-1.93,1-2.28-4.43-2.3-9.51-4-14.09-.33-.88-.49-1.82-.81-2.69C944.14,551,944.2,550.92,949.93,550.5Z"/><path class="cls-4" d="M899.5,573.53l14.21,0c0,3.79-.07,7.59-.1,11.38l-7.67.1C902.31,582,901.53,577.41,899.5,573.53Z"/><path class="cls-9" d="M905.94,585l7.67-.1,0,5.87-5.84-.1C906,589.11,905.09,587.32,905.94,585Z"/><path class="cls-4" d="M907.74,590.64l5.84.1c-.06.59-.11,1.19-.17,1.78C911.31,592.54,908.61,594.35,907.74,590.64Z"/><path class="cls-12" d="M988.35,557.31c1.14,2.06.59,4.26.56,6.42C987.82,561.67,988.38,559.46,988.35,557.31Z"/><path class="cls-12" d="M950.71,591.49l-.17.28.13-.32Z"/><path class="cls-12" d="M950.67,591.45l.81-.81,0,0-.81.81Z"/><path class="cls-3" d="M994,567.77a1.74,1.74,0,0,1-1.71-1.12C993,566.82,993.73,567,994,567.77Z"/><path class="cls-4" d="M635.27,744.15H567.48c-3.55,0-7.12-.1-10.38-1.69-4-2-4.8-3.81-3.51-10,2.09-10,3-20.09,4.79-30.09.62-3.46,1.18-6.94,1.92-10.38a6.08,6.08,0,0,1,3.43-4.28,21,21,0,0,1,9.39-2.39q66.35,0,132.69,0a20.4,20.4,0,0,1,6.79,1.2c3.35,1.18,4.92,3.4,5,7.05.25,13.47.69,26.94,1,40.41.13,5.3-1.89,8.08-7.06,9.27a37.26,37.26,0,0,1-8.09.87c-22.73.06-45.46,0-68.19,0ZM676,724.86H647.82c-9.87,0-9.71,0-10.3,9.95-.2,3.47,1.07,4.08,4.12,4.07,20.8-.1,41.6,0,62.4-.08,8.55,0,9.42-1.14,9.52-9.72.05-3.57-1.36-4.32-4.56-4.28C698,725,687,724.86,676,724.86Zm-78.55,13.95h27.33c8.69,0,8.69,0,9.54-8.51.51-5.13.42-5.19-4.8-5.25-22.69-.25-45.38.53-68.07-.4a2,2,0,0,0-2.32,2.19c-.06,1.09,0,2.19-.1,3.25-1.07,7.35,0,8.65,7.42,8.7C576.74,738.86,587.08,738.81,597.41,738.81Z"/><path class="cls-11" d="M541.51,681.84l1-2.65c.95-2.62.59-3-2.57-2.9-11.54.45-23.11.26-34.66.21-2.26,0-3.39-1-2.76-3.7,1.8-7.76,1.69-7.78,9.51-7.78,9.25,0,18.49-.06,27.74,0,5.06,0,5.59.77,4.6,5.85-.23,1.19-.8,2.34,0,4.43,2.33-4.08,7.61-4,9.29-8.59.58-1.57,2.36-1.66,3.89-1.67,11.15-.1,22.31-.17,33.47-.28,3.17,0,4.16,1.44,3.37,4.4a18.3,18.3,0,0,0-.77,3.55c-.17,2.76-1.7,3.79-4.28,3.78-5.45,0-10.89,0-16.34.06-1.11,0-3.18-.83-2.92,1.52.16,1.53.65,3.4,2.83,3.41,8.44,0,16.88,0,25.32,0,2.54,0,1.89-2.13,2.86-4.18.5,4.55,3.47,4.2,6.24,4.2q87,0,174,0c2,0,4.08-.42,6.05.4-1.49.11-3,.3-4.46.3q-88.67,0-177.31,0c-19.6,0-39.2-.09-58.8-.15C545,682.11,543.27,681.94,541.51,681.84Z"/><path class="cls-11" d="M492.22,654.22c.64-2.69,2.86-4.07,4.73-5.74,10.05.84,20.12,0,30.17.43,2.38.08,6-1.39,6.14,3.08.18,5.86-1.64,8-6.65,8.08-9.8.08-19.6,0-29.41,0C491.26,660.1,491.24,660.05,492.22,654.22Z"/><path class="cls-11" d="M550.29,647.5a4.21,4.21,0,0,1,.63-.2c3,3.49,10.31,4.42,14.93,1.9a31.91,31.91,0,0,1,12.51-.09c3.25.7,3.87,2.58,3.67,5.06-.23,2.75-.94,5.79-4.49,5.83-11.7.15-23.42.06-35.13,0a2.22,2.22,0,0,1-2.06-1.06c-1.27-2.15,2.08-9.49,4.6-10C546.76,648.6,548.81,649.1,550.29,647.5Z"/><path class="cls-11" d="M609.41,660.1c-5.16,0-10.32,0-15.48,0-2,0-4.69.25-4.42-2.74s-1.13-7.67,3.45-8a345.46,345.46,0,0,1,35-.13c1.78.07,2.65,1.25,2.46,3.06-.74,7.22.07,7.81-7.53,7.81H609.41Z"/><path class="cls-11" d="M756.25,660.07c-5.3,0-10.6.09-15.9,0-4.23-.09-4.51-1-4.68-7.06-.11-3.68,2-3.92,4.62-3.92,10.19,0,20.39,0,30.58,0,3.92,0,7.28,5.72,5.52,9.29-.76,1.56-2.26,1.76-3.82,1.75-5.44,0-10.88,0-16.32,0Z"/><path class="cls-11" d="M658.6,660.09c-5.3,0-10.6,0-15.91,0-2.27,0-4.32-.18-4.35-3.42-.06-6,.52-7.45,4.32-7.52,9-.17,17.94-.08,26.92-.1l2.44,0c6.72,0,8.32,2.14,6.63,8.67-.58,2.26-2.33,2.36-4.15,2.37H658.6Z"/><path class="cls-11" d="M707.21,660.11c-5.17,0-10.34-.05-15.51,0-3.28,0-4.69-1.31-4.45-4.69.21-3.1-.59-6.48,4.39-6.42q15.72.18,31.43,0c5.25,0,4.21,3.71,4.52,6.83.35,3.46-1.66,4.23-4.46,4.24C717.82,660.12,712.52,660.11,707.21,660.11Z"/><path class="cls-11" d="M686.06,644.1H670.54c-2.38,0-4.45-.38-4.16-3.54.26-2.93-1-6.76,3.83-7.11,2.84-.21,5.71-.12,8.56-.12,7.49,0,15-.08,22.45,0,4.42.07,4.86,1,5.1,5.91.2,4-1.7,5-5.16,4.86C696.13,644,691.09,644.1,686.06,644.1Z"/><path class="cls-11" d="M569.89,643c.63-3,1.25-6,1.88-9,12-1.39,23.93-.54,35.89-.59,2.29,0,3.29,1.22,3.12,3.7-.45,6.43-.82,6.92-7.23,7-9.53,0-19.06,0-28.59,0C573.18,644.13,571.41,644.12,569.89,643Z"/><path class="cls-11" d="M782.35,644.08c-5.3,0-10.61,0-15.92,0s-4-4.07-4.47-7c-.51-3.29,1.73-3.4,4.07-3.49,10.33-.39,20.67-.43,31,0,4,.18,5.11,2,5,7.45-.06,3.79-2.89,3-5,3C792.16,644.17,787.25,644.08,782.35,644.08Z"/><path class="cls-11" d="M734.2,644c-5.3,0-10.6,0-15.9,0-4.57.06-3.74-3.19-3.93-6-.2-3,.78-4.58,4.08-4.57,9.92,0,19.85-.19,29.77-.12,4.95,0,7.45,4.23,5.66,9-.7,1.86-2.32,1.68-3.77,1.7-5.3.05-10.6,0-15.91,0Z"/><path class="cls-11" d="M638.12,644.08c-4.89,0-9.77.06-14.65,0-2.17,0-4.85.63-5-3.09-.14-5.86.49-7.29,4.87-7.4,9.08-.24,18.17-.12,27.26-.14.54,0,1.08.08,1.62.11,6,.28,7.39,2.26,5.86,8.19-.61,2.36-2.4,2.33-4.14,2.34C648.7,644.12,643.41,644.08,638.12,644.08Z"/><path class="cls-11" d="M626.13,628.85c-4.89,0-9.79.06-14.68,0-2.22,0-4.61-.23-4.17-3.51.36-2.77-.73-6.7,3.83-6.78,10.71-.18,21.42-.09,32.14,0,2.42,0,3.31,1.64,3,3.89-.36,2.46.84,6-3.4,6.17-5.56.18-11.13,0-16.7,0Z"/><path class="cls-11" d="M814.29,618.46c4.76,0,9.51-.06,14.26,0,4.05.07,7.31,4.83,5.92,8.52-.53,1.4-1.84,1.59-3,1.64-10.58.48-21.18.54-31.76,0-3.85-.18-5.12-2.31-4.87-7.38.17-3.55,3.12-2.76,5.22-2.82,4.75-.14,9.51-.05,14.26-.05Z"/><path class="cls-11" d="M720.55,618.44c5,0,10.08.06,15.11,0,4.36-.07,4.38,2.8,4.64,6,.28,3.46-1.59,4.38-4.35,4.39q-15.5,0-31-.17c-4.5,0-3.56-3.4-3.74-6.16-.2-3.15,1.51-4,4.25-4,5,0,10.07,0,15.1,0Z"/><path class="cls-11" d="M767.18,618.44c5,0,10.06-.08,15.09,0,3.89.08,5.17,2.09,5.18,7.07,0,3.76-2.82,3.21-4.89,3.24-9.65.15-19.3.16-28.95.09a6.15,6.15,0,0,1-5.42-8.84c.79-1.68,2.42-1.57,3.89-1.58C757.11,618.41,762.15,618.43,767.18,618.44Z"/><path class="cls-11" d="M612.07,613.66c-4.74,0-9.49.06-14.23,0-1.78,0-4.27.5-4.25-2.4,0-2.61-.43-5.68,2.89-6.92a10.52,10.52,0,0,1,3.57-.58c8.82-.05,17.63-.09,26.45,0,6,0,7.17,1.94,5.22,7.6-.66,1.92-2.09,2.31-3.82,2.31H612.07Z"/><path class="cls-11" d="M798,613.66c-5,0-10,0-15.06,0-4.69.05-4.44-3.36-4.74-6.49-.37-3.72,2.39-3.42,4.57-3.44,9.24-.09,18.48-.07,27.72,0,2.83,0,5.42.51,6.12,4,1,4.77.19,5.84-4.75,5.88-4.62,0-9.24,0-13.86,0Z"/><path class="cls-11" d="M705.54,613.68c-5,0-10,.06-15,0-2.38,0-4.64-.26-4.6-3.68,0-3.12.35-6.08,4.19-6.14,10-.17,20.07-.14,30.11,0,4.15,0,4.33,3.09,4.31,6.34,0,3.48-2.34,3.46-4.72,3.47-4.74,0-9.49,0-14.24,0Z"/><path class="cls-11" d="M658.65,613.67H644.39c-2.29,0-4.57-.07-4.47-3.26.08-2.95-.35-6.37,4.05-6.61,3.25-.18,6.51-.1,9.77-.11,6.24,0,12.49-.08,18.74,0,4.93.08,5.44.91,5.68,5.26s-2.3,4.79-5.66,4.71C667.88,613.58,663.27,613.67,658.65,613.67Z"/><path class="cls-11" d="M751.64,613.67c-5,0-10-.07-15.06,0-3.77.06-4.26-2.19-4.41-5.27s1.29-4.63,4.19-4.65c9.76-.06,19.53-.14,29.29.07,4.05.09,5.09,2,4.85,6.78-.17,3.64-2.84,3-5,3C760.86,613.73,756.25,613.67,751.64,613.67Z"/><path class="cls-11" d="M547.11,632.14c1.07,3.92.5,7.92.55,11.89-6.63.7-13.27.27-19.91.24-2,0-5.09.88-5.24-2.74-.2-5.21,1.81-8.07,5.68-8.17,5-.12,10,0,15-.07C544.54,633.26,546.32,634.17,547.11,632.14Z"/><path class="cls-11" d="M572,628.9c.07-3.44.15-6.87.23-10.31l23.25-.14c2.18,0,4.36.14,3.94,3.19-.4,2.87.63,6.85-4.18,7-7.07.18-14.14.16-21.21.23C573.34,628.84,572.66,628.88,572,628.9Z"/><path class="cls-11" d="M780.64,592.57c3.65,0,7.31,0,11,0a41.64,41.64,0,0,1,4.84.44c2,.27,2.51,1.77,2.71,3.51.25,2.16-1.39,2.46-2.83,2.68a36.72,36.72,0,0,1-5.25.29q-10.53,0-21.05,0a15.53,15.53,0,0,1-3.57-.56c-2.25-.57-2.5-2.4-2.13-4.19.33-1.58,1.49-2.23,3.31-2.15,4.33.17,8.66,0,13,0Z"/><path class="cls-11" d="M740.12,592.83c4.34,0,8.68,0,13,0,2.26,0,4,.61,4,3.43-.07,2.62-1.84,3.15-3.85,3.17-8.81.06-17.63.08-26.44,0-2.36,0-4.85-.51-4.61-3.79s2.81-2.8,4.91-2.84c4.33-.08,8.68,0,13,0Z"/><path class="cls-11" d="M698,592.85c4.49,0,9,0,13.47,0,1.9,0,3.56.5,3.67,2.89s-1.36,3.55-3.5,3.58c-9.26.09-18.51.14-27.76,0-1.85,0-3.79-.67-3.68-3.39s1.94-3.09,3.91-3.13c4.63-.1,9.26,0,13.88,0Z"/><path class="cls-11" d="M655.39,599.28c-4.62,0-9.24.06-13.85,0-1.63,0-3.23-.31-3.18-2.71s1.13-3.59,3.39-3.66c3.36-.11,6.72-.09,10.08-.09,5.57,0,11.15,0,16.72,0,2.25,0,4.59,0,4.48,3.27-.1,3-2.33,3.38-4.59,3.42-4.35.09-8.7,0-13.05,0Z"/><path class="cls-11" d="M823.21,592.8h13.42c2.42,0,4.35.69,4.53,3.51.2,3.14-2.35,3.07-4.21,3.11-8.55.14-17.09.1-25.63,0a8.45,8.45,0,0,1-3.51-.9,3.35,3.35,0,0,1-1.63-3.85c.25-1.55,1.59-1.78,2.79-1.8,4.75-.07,9.49,0,14.24,0Z"/><path class="cls-11" d="M614.1,599.5c-5.36,0-9.56,0-13.76,0-2,0-3.88-.48-3.86-3.11s1.56-3.56,3.95-3.56c9.07,0,18.15,0,27.23,0,1.6,0,3.35.14,3.51,2.46s-1,3.52-3.21,3.86C623,599.93,618,599.28,614.1,599.5Z"/><path class="cls-11" d="M546.15,624.33c-.48,1.56,1.12,3,.3,4.56l-29.12-.09c-.28-.93.54-1,1-1.27.93-.11,2.09.09,2.77-.38,5-3.46,10.91-4.47,16.32-6.78,3.41-1.45,5.3,0,7.07,2.32C545,623.34,545.32,624.05,546.15,624.33Z"/><path class="cls-11" d="M571.07,614c-.57-3.61-3.9-6.28-3.46-10.23,4.63,0,9.25-.17,13.87,0,2.24.07,5,0,4.71,3.55-.29,3.1-.37,6.41-5,6.39C577.83,613.68,574.43,613.28,571.07,614Z"/><path class="cls-11" d="M500.72,644.21c2.57-4.52,6.38-8,10-11.6,1.46,1.54,5.6-.17,4.67,4.38-1.3,6.36-1.87,7.26-7.37,7.34C505.57,644.37,503.15,644.25,500.72,644.21Z"/><path class="cls-3" d="M565.85,649.2c-4.62,2.52-11.91,1.59-14.93-1.9,2.83-2.21,5.65-.59,8.34.24a18.67,18.67,0,0,0,5.4,1.19Z"/><path class="cls-7" d="M708.32,552.37a9.64,9.64,0,0,1,9.88,9.71c-.08,5.72-4.33,9.73-10.32,9.75-5.08,0-8.93-4.3-9-10S702.56,552.37,708.32,552.37Z"/><path class="cls-7" d="M615.37,571.8a9.73,9.73,0,1,1,.25-19.45,9.73,9.73,0,1,1-.25,19.45Z"/><path class="cls-7" d="M741.57,562.07A9.78,9.78,0,0,1,722,562a9.78,9.78,0,0,1,19.56.05Z"/><path class="cls-7" d="M671.32,562.25c-.07,5.78-4.08,9.68-9.74,9.51a9.71,9.71,0,0,1,.4-19.41C667.56,552.3,671.39,556.36,671.32,562.25Z"/><path class="cls-7" d="M764.66,562.4a9.47,9.47,0,0,1-9.76,9.34,9.7,9.7,0,0,1,.32-19.4A9.49,9.49,0,0,1,764.66,562.4Z"/><path class="cls-7" d="M788.13,562.35a9.82,9.82,0,0,1-10.25,9.42,9.92,9.92,0,0,1-9.33-10,9.79,9.79,0,0,1,19.58.56Z"/><path class="cls-7" d="M648.39,562.11a9.57,9.57,0,0,1-9.43,9.7c-5.59.06-9.65-4-9.79-9.76a9.42,9.42,0,0,1,9.38-9.7A9.59,9.59,0,0,1,648.39,562.11Z"/><path class="cls-7" d="M694.94,561.82c-.24,5.31-4.82,10.19-9.84,10-5.75-.17-9.2-4.29-9.48-9.91-.26-5.28,4.23-9.47,9.58-9.51C690.36,552.4,695,556.85,694.94,561.82Z"/><path class="cls-3" d="M546.15,624.33c-.83-.28-1.14-1-1.63-1.64-1.77-2.34-3.66-3.77-7.07-2.32-5.41,2.31-11.35,3.32-16.32,6.78-.68.47-1.84.27-2.77.38,4.1-4.7,9.73-6.63,15.45-8.23,2.26-.63,4.27-2.18,6.93-1.72C544.83,618.29,546.29,619.91,546.15,624.33Z"/><path class="cls-4" d="M524.58,584.77l-20.36.06c3.4-2.9,7.56-4.51,11.35-6.75,3.19-1.9,5.21-1,6.85,2C523.26,581.57,524.33,583,524.58,584.77Z"/><path class="cls-11" d="M438.67,217.59c-.18,2.33-1.76,4.25-5,4.46a5.33,5.33,0,0,1-5.63-5.57c.24-3.19,2.12-4.9,5.27-5S438.7,213.68,438.67,217.59Z"/><path class="cls-7" d="M404.8,222.13a5.23,5.23,0,0,1-5.45-5.35c.07-3.19,1.82-5.05,5-5.36,2.76-.28,5.63,2.35,5.79,5.13A5.51,5.51,0,0,1,404.8,222.13Z"/><path class="cls-3" d="M413.94,216.16c0-2.65,1.87-4.51,4.95-4.58s5,1.64,5.1,5-1.88,4.94-4.87,5.29C416.49,222.19,414,219.58,413.94,216.16Z"/><path class="cls-11" d="M676,724.86c11,0,22,.09,33-.06,3.2,0,4.61.71,4.56,4.28-.1,8.58-1,9.7-9.52,9.72-20.8,0-41.6,0-62.4.08-3,0-4.32-.6-4.12-4.07.59-9.94.43-9.95,10.3-9.95Z"/><path class="cls-11" d="M597.41,738.81c-10.33,0-20.67.05-31,0-7.46,0-8.49-1.35-7.42-8.7.15-1.06,0-2.16.1-3.25a2,2,0,0,1,2.32-2.19c22.69.93,45.38.15,68.07.4,5.22.06,5.31.12,4.8,5.25-.85,8.51-.85,8.51-9.54,8.51Z"/></g></svg>