<svg xmlns="http://www.w3.org/2000/svg" viewBox="0 0 1921.7 419.74"><defs><style>.cls-1{fill:#607d8b;}.cls-2{fill:#ffc400;}.cls-3{fill:#30cfba;}.cls-4{fill:#f99437;}.cls-5{fill:#34ceb9;}.cls-6{fill:#fff;}.cls-10,.cls-11,.cls-7,.cls-8{fill:none;stroke:#fff;stroke-miterlimit:10;}.cls-7{stroke-width:2px;}.cls-8{stroke-width:4px;}.cls-9{fill:#fe9137;}.cls-11{stroke-width:3px;}.cls-12{fill:#fec53d;}</style></defs><g id="Layer_2" data-name="Layer 2"><g id="Layer_1-2" data-name="Layer 1"><rect class="cls-1" y="1.05" width="1920" height="417"/><path class="cls-2" d="M672.17,161.31a64.15,64.15,0,0,0-8.12-6.66L562.38,215.06a64.74,64.74,0,0,0,2,10.32Z"/><path class="cls-2" d="M562.46,200.39l88.66-52.68A64.88,64.88,0,0,0,638,144l-72.53,43.1A65.69,65.69,0,0,0,562.46,200.39Z"/><path class="cls-2" d="M612.14,144.76a65.21,65.21,0,0,0-33.63,20Z"/><path class="cls-2" d="M582.43,255.36a64.58,64.58,0,0,0,8.24,6.6l101.05-60a64.36,64.36,0,0,0-1.86-10.39Z"/><path class="cls-2" d="M638.83,272a65.2,65.2,0,0,0,38.67-23Z"/><path class="cls-2" d="M685.4,179.55c-.78-1.58-1.6-3.16-2.52-4.7-.78-1.32-1.62-2.58-2.47-3.82L569,237.26c.68,1.35,1.39,2.68,2.17,4,.92,1.54,1.91,3,2.93,4.46Z"/><path class="cls-2" d="M603.82,268.76a66.19,66.19,0,0,0,10.66,3.07L689,227.55a64.87,64.87,0,0,0,2.4-10.83Z"/><path class="cls-3" d="M343,396.72l91.52-47.54a65.4,65.4,0,0,0-12.88-4.44l-74.87,38.89A65.34,65.34,0,0,0,343,396.72Z"/><path class="cls-3" d="M399.32,418.05l67.61-35.12c-.68-1.62-1.42-3.24-2.25-4.84-.7-1.36-1.46-2.66-2.24-3.95L377.9,418.05"/><path class="cls-3" d="M395.78,344a65.17,65.17,0,0,0-34.71,18Z"/><path class="cls-3" d="M350.63,418.05,454.76,364a63.91,63.91,0,0,0-7.72-7.11l-105,54.51a65.91,65.91,0,0,0,.68,6.69"/><path class="cls-3" d="M448,418.05,472,405.62a64.34,64.34,0,0,0-1.26-10.48l-44.11,22.91"/><polygon class="cls-2" points="872 124.49 875.5 128 987.38 128 990.88 124.49 987 120.61 875.88 120.61 872 124.49"/><polygon class="cls-2" points="939.22 72.83 931.44 65.05 923.66 72.83 939.22 72.83"/><polygon class="cls-2" points="886.51 139 893.89 146.38 968.99 146.38 976.37 139 886.51 139"/><polygon class="cls-2" points="894.27 102.22 886.89 109.61 976 109.61 968.61 102.22 894.27 102.22"/><polygon class="cls-2" points="923.29 175.78 931.44 183.93 939.6 175.78 923.29 175.78"/><polygon class="cls-2" points="950.6 164.77 957.99 157.39 904.9 157.39 912.28 164.77 950.6 164.77"/><polygon class="cls-2" points="912.66 83.83 905.27 91.22 957.61 91.22 950.23 83.83 912.66 83.83"/><polyline class="cls-2" points="375.91 1.05 407.65 54.45 464.39 20.74 452.69 1.05"/><polyline class="cls-4" points="414.65 1.05 396.86 70.95 398.82 74.24 402.47 72.08 420.54 1.05"/><polygon class="cls-4" points="450.35 33.73 447.39 45.38 454.7 41.04 450.35 33.73"/><polyline class="cls-4" points="399.98 1.05 386.59 53.66 390.71 60.6 405.87 1.05"/><polyline class="cls-4" points="429.32 1.05 412.81 65.93 419.75 61.8 433.93 6.09 430.94 1.05"/><polygon class="cls-4" points="365.61 18.36 370.17 26.03 373.28 13.81 365.61 18.36"/><polygon class="cls-4" points="383.63 7.66 376.32 36.38 380.44 43.32 390.57 3.54 383.63 7.66"/><polygon class="cls-4" points="440.08 16.44 430.1 55.65 437.04 51.53 444.2 23.38 440.08 16.44"/><rect class="cls-5" x="437.16" y="225.23" width="66" height="66" transform="translate(451.97 -277.87) rotate(59.28)"/><polygon class="cls-6" points="491.11 174.09 487 176.53 460.38 281.13 462.82 285.24 467.37 282.54 493.81 178.64 491.11 174.09"/><polygon class="cls-6" points="527.12 234.69 523.42 249.23 532.54 243.81 527.12 234.69"/><polygon class="cls-6" points="465.43 189.35 447.56 259.56 452.71 268.22 474.09 184.2 465.43 189.35"/><polygon class="cls-6" points="501.49 191.55 480.28 274.87 488.94 269.72 506.63 200.21 501.49 191.55"/><polygon class="cls-6" points="421.39 215.52 427.07 225.09 430.95 209.84 421.39 215.52"/><polygon class="cls-6" points="443.86 202.16 434.74 238 439.89 246.66 452.52 197.02 443.86 202.16"/><polygon class="cls-6" points="514.3 213.12 501.85 262.05 510.51 256.9 519.45 221.78 514.3 213.12"/><path class="cls-5" d="M812.25,22.11l28,35a28.22,28.22,0,0,0,.8-5.86L818.14,22.62A28.42,28.42,0,0,0,812.25,22.11Z"/><path class="cls-5" d="M828.58,73.72c.64-.43,1.26-.88,1.87-1.37s1-.84,1.5-1.29L796.78,27.12c-.54.37-1.07.75-1.59,1.17s-1.18,1-1.74,1.53Z"/><path class="cls-5" d="M839.14,40.14a28.18,28.18,0,0,0-10.6-13.26Z"/><path class="cls-5" d="M835.63,66.94A28,28,0,0,0,838,63.05L805.93,23a27.05,27.05,0,0,0-4.31,1.47Z"/><path class="cls-5" d="M786.05,59.24a28.27,28.27,0,0,0,12.2,15.25Z"/><path class="cls-5" d="M789.81,34a27.61,27.61,0,0,0-2.34,3.94l31.88,39.84a28.69,28.69,0,0,0,4.35-1.42Z"/><path class="cls-5" d="M785.33,44a28.4,28.4,0,0,0-.68,4.77l23.51,29.38a28.6,28.6,0,0,0,4.8.38Z"/><polyline class="cls-7" points="766.31 1.01 798.61 46.26 860.47 2.1 859.72 1.05"/><rect class="cls-8" x="956.45" y="286.74" width="83.71" height="83.71" transform="translate(321.73 -475.67) rotate(31.71)"/><polygon class="cls-5" points="978.12 242.82 975.31 247.38 1003.1 365.04 1007.65 367.85 1010.77 362.81 983.16 245.94 978.12 242.82"/><polygon class="cls-5" points="1045.29 284.32 1049.15 300.68 1055.4 290.57 1045.29 284.32"/><polygon class="cls-5" points="960.54 271.28 979.19 350.27 988.79 356.2 966.47 261.69 960.54 271.28"/><polygon class="cls-5" points="997.48 254.78 1019.61 348.5 1025.54 338.9 1007.07 260.71 997.48 254.78"/><polygon class="cls-5" points="930.37 320.1 940.98 326.65 936.92 309.5 930.37 320.1"/><polygon class="cls-5" points="945.76 295.19 955.28 335.5 964.88 341.43 951.69 285.59 945.76 295.19"/><polygon class="cls-5" points="1021.38 269.55 1034.38 324.59 1040.31 314.99 1030.98 275.48 1021.38 269.55"/><circle class="cls-3" cx="586.18" cy="121.09" r="4"/><circle class="cls-3" cx="605.95" cy="109.34" r="4"/><circle class="cls-3" cx="625.73" cy="97.59" r="4"/><circle class="cls-3" cx="645.5" cy="85.84" r="4"/><circle class="cls-3" cx="665.27" cy="74.09" r="4"/><circle class="cls-3" cx="685.04" cy="62.34" r="4"/><circle class="cls-3" cx="704.82" cy="50.59" r="4"/><circle class="cls-3" cx="724.59" cy="38.84" r="4"/><circle class="cls-3" cx="744.36" cy="27.09" r="4"/><circle class="cls-3" cx="575.96" cy="103.89" r="4"/><circle class="cls-3" cx="595.74" cy="92.14" r="4"/><circle class="cls-3" cx="615.51" cy="80.39" r="4"/><circle class="cls-3" cx="635.28" cy="68.64" r="4"/><circle class="cls-3" cx="655.05" cy="56.89" r="4"/><circle class="cls-3" cx="674.83" cy="45.14" r="4"/><circle class="cls-3" cx="694.6" cy="33.39" r="4"/><circle class="cls-3" cx="714.37" cy="21.65" r="4"/><circle class="cls-3" cx="734.14" cy="9.9" r="4"/><circle class="cls-3" cx="565.75" cy="86.7" r="4"/><circle class="cls-3" cx="585.52" cy="74.95" r="4"/><circle class="cls-3" cx="605.29" cy="63.2" r="4"/><circle class="cls-3" cx="625.06" cy="51.45" r="4"/><circle class="cls-3" cx="644.84" cy="39.7" r="4"/><circle class="cls-3" cx="664.61" cy="27.95" r="4"/><circle class="cls-3" cx="684.38" cy="16.2" r="4"/><path class="cls-3" d="M706.26,1.05a4,4,0,1,1-4.15,0"/><circle class="cls-3" cx="555.53" cy="69.51" r="4"/><circle class="cls-3" cx="575.3" cy="57.76" r="4"/><circle class="cls-3" cx="595.07" cy="46.01" r="4"/><circle class="cls-3" cx="614.85" cy="34.26" r="4"/><circle class="cls-3" cx="634.62" cy="22.51" r="4"/><circle class="cls-3" cx="654.39" cy="10.76" r="4"/><path class="cls-3" d="M677.6,1.05a4,4,0,0,1-1.39,1.4,4,4,0,0,1-5.48-1.4"/><circle class="cls-3" cx="544.29" cy="50.59" r="4"/><circle class="cls-3" cx="564.06" cy="38.84" r="4"/><circle class="cls-3" cx="583.84" cy="27.09" r="4"/><circle class="cls-3" cx="603.61" cy="15.34" r="4"/><path class="cls-3" d="M626.47,1.05a4.46,4.46,0,0,1,.35.5,4,4,0,1,1-6.53-.5"/><circle class="cls-3" cx="534.07" cy="33.4" r="4"/><circle class="cls-3" cx="553.85" cy="21.65" r="4"/><circle class="cls-3" cx="573.62" cy="9.9" r="4"/><path class="cls-3" d="M596.15,1.05a4.37,4.37,0,0,1-.72.54,4,4,0,0,1-4.79-.54"/><circle class="cls-3" cx="523.86" cy="16.21" r="4"/><path class="cls-3" d="M545.68,1a4,4,0,1,1-4.09,0"/><path class="cls-3" d="M517.08,1.05a3.91,3.91,0,0,1-1.4,1.4,4,4,0,0,1-5.48-1.39"/><circle class="cls-9" cx="986.6" cy="221.42" r="3.27"/><circle class="cls-9" cx="1004.19" cy="228.07" r="3.27"/><circle class="cls-9" cx="1021.78" cy="234.72" r="3.27"/><circle class="cls-9" cx="1039.37" cy="241.37" r="3.27"/><circle class="cls-9" cx="1056.96" cy="248.03" r="3.27"/><circle class="cls-9" cx="1074.56" cy="254.68" r="3.27"/><circle class="cls-9" cx="1092.15" cy="261.33" r="3.27"/><circle class="cls-9" cx="1109.74" cy="267.98" r="3.27"/><circle class="cls-9" cx="1127.33" cy="274.64" r="3.27"/><circle class="cls-9" cx="992.38" cy="206.12" r="3.27"/><circle class="cls-9" cx="1009.97" cy="212.77" r="3.27"/><circle class="cls-9" cx="1027.57" cy="219.43" r="3.27"/><circle class="cls-9" cx="1045.16" cy="226.08" r="3.27"/><circle class="cls-9" cx="1062.75" cy="232.73" r="3.27"/><circle class="cls-9" cx="1080.34" cy="239.38" r="3.27"/><circle class="cls-9" cx="1097.93" cy="246.04" r="3.27"/><circle class="cls-9" cx="1115.52" cy="252.69" r="3.27"/><circle class="cls-9" cx="1133.11" cy="259.34" r="3.27"/><circle class="cls-9" cx="998.17" cy="190.82" r="3.27"/><circle class="cls-9" cx="1015.76" cy="197.48" r="3.27"/><circle class="cls-9" cx="1033.35" cy="204.13" r="3.27"/><circle class="cls-9" cx="1050.94" cy="210.78" r="3.27"/><circle class="cls-9" cx="1068.53" cy="217.43" r="3.27"/><circle class="cls-9" cx="1086.13" cy="224.09" r="3.27"/><circle class="cls-9" cx="1103.72" cy="230.74" r="3.27"/><circle class="cls-9" cx="1121.31" cy="237.39" r="3.27"/><circle class="cls-9" cx="1138.9" cy="244.04" r="3.27"/><circle class="cls-9" cx="1003.95" cy="175.53" r="3.27"/><circle class="cls-9" cx="1021.54" cy="182.18" r="3.27"/><circle class="cls-9" cx="1039.14" cy="188.83" r="3.27"/><circle class="cls-9" cx="1056.73" cy="195.48" r="3.27"/><circle class="cls-9" cx="1074.32" cy="202.14" r="3.27"/><circle class="cls-9" cx="1091.91" cy="208.79" r="3.27"/><circle class="cls-9" cx="1109.5" cy="215.44" r="3.27"/><circle class="cls-9" cx="1127.09" cy="222.09" r="3.27"/><circle class="cls-9" cx="1144.68" cy="228.75" r="3.27"/><circle class="cls-9" cx="1010.32" cy="158.7" r="3.27"/><circle class="cls-9" cx="1027.91" cy="165.35" r="3.27"/><circle class="cls-9" cx="1045.5" cy="172" r="3.27"/><circle class="cls-9" cx="1063.09" cy="178.66" r="3.27"/><circle class="cls-9" cx="1080.68" cy="185.31" r="3.27"/><circle class="cls-9" cx="1098.27" cy="191.96" r="3.27"/><circle class="cls-9" cx="1115.86" cy="198.61" r="3.27"/><circle class="cls-9" cx="1133.46" cy="205.27" r="3.27"/><circle class="cls-9" cx="1151.05" cy="211.92" r="3.27"/><circle class="cls-9" cx="1016.1" cy="143.4" r="3.27"/><circle class="cls-9" cx="1033.69" cy="150.06" r="3.27"/><circle class="cls-9" cx="1051.28" cy="156.71" r="3.27"/><circle class="cls-9" cx="1068.87" cy="163.36" r="3.27"/><circle class="cls-9" cx="1086.47" cy="170.01" r="3.27"/><circle class="cls-9" cx="1104.06" cy="176.67" r="3.27"/><circle class="cls-9" cx="1121.65" cy="183.32" r="3.27"/><circle class="cls-9" cx="1139.24" cy="189.97" r="3.27"/><circle class="cls-9" cx="1156.83" cy="196.62" r="3.27"/><circle class="cls-9" cx="1021.89" cy="128.11" r="3.27"/><circle class="cls-9" cx="1039.48" cy="134.76" r="3.27"/><circle class="cls-9" cx="1057.07" cy="141.41" r="3.27"/><circle class="cls-9" cx="1074.66" cy="148.06" r="3.27"/><circle class="cls-9" cx="1092.25" cy="154.72" r="3.27"/><circle class="cls-9" cx="1109.84" cy="161.37" r="3.27"/><circle class="cls-9" cx="1127.43" cy="168.02" r="3.27"/><circle class="cls-9" cx="1145.03" cy="174.67" r="3.27"/><circle class="cls-9" cx="1162.62" cy="181.33" r="3.27"/><circle class="cls-9" cx="1027.67" cy="112.81" r="3.27"/><circle class="cls-9" cx="1045.26" cy="119.46" r="3.27"/><circle class="cls-9" cx="1062.85" cy="126.11" r="3.27"/><circle class="cls-9" cx="1080.44" cy="132.77" r="3.27"/><circle class="cls-9" cx="1098.04" cy="139.42" r="3.27"/><circle class="cls-9" cx="1115.63" cy="146.07" r="3.27"/><circle class="cls-9" cx="1133.22" cy="152.72" r="3.27"/><circle class="cls-9" cx="1150.81" cy="159.38" r="3.27"/><circle class="cls-9" cx="1168.4" cy="166.03" r="3.27"/><circle class="cls-9" cx="234.86" cy="157.63" r="2.58"/><circle class="cls-9" cx="248.74" cy="162.88" r="2.58"/><circle class="cls-9" cx="262.62" cy="168.13" r="2.58"/><circle class="cls-9" cx="276.5" cy="173.38" r="2.58"/><circle class="cls-9" cx="290.39" cy="178.63" r="2.58"/><circle class="cls-9" cx="304.27" cy="183.88" r="2.58"/><circle class="cls-9" cx="318.15" cy="189.13" r="2.58"/><circle class="cls-9" cx="332.03" cy="194.37" r="2.58"/><circle class="cls-9" cx="345.91" cy="199.62" r="2.58"/><circle class="cls-9" cx="239.42" cy="145.56" r="2.58"/><circle class="cls-9" cx="253.3" cy="150.81" r="2.58"/><circle class="cls-9" cx="267.19" cy="156.06" r="2.58"/><circle class="cls-9" cx="281.07" cy="161.3" r="2.58"/><circle class="cls-9" cx="294.95" cy="166.55" r="2.58"/><circle class="cls-9" cx="308.83" cy="171.8" r="2.58"/><circle class="cls-9" cx="322.72" cy="177.05" r="2.58"/><circle class="cls-9" cx="336.6" cy="182.3" r="2.58"/><circle class="cls-9" cx="350.48" cy="187.55" r="2.58"/><circle class="cls-9" cx="243.99" cy="133.48" r="2.58"/><circle class="cls-9" cx="257.87" cy="138.73" r="2.58"/><circle class="cls-9" cx="271.75" cy="143.98" r="2.58"/><circle class="cls-9" cx="285.63" cy="149.23" r="2.58"/><circle class="cls-9" cx="299.52" cy="154.48" r="2.58"/><circle class="cls-9" cx="313.4" cy="159.73" r="2.58"/><circle class="cls-9" cx="327.28" cy="164.98" r="2.58"/><circle class="cls-9" cx="341.16" cy="170.23" r="2.58"/><circle class="cls-9" cx="355.04" cy="175.48" r="2.58"/><circle class="cls-9" cx="248.55" cy="121.41" r="2.58"/><circle class="cls-9" cx="262.43" cy="126.66" r="2.58"/><circle class="cls-9" cx="276.32" cy="131.91" r="2.58"/><circle class="cls-9" cx="290.2" cy="137.16" r="2.58"/><circle class="cls-9" cx="304.08" cy="142.41" r="2.58"/><circle class="cls-9" cx="317.96" cy="147.66" r="2.58"/><circle class="cls-9" cx="331.85" cy="152.91" r="2.58"/><circle class="cls-9" cx="345.73" cy="158.16" r="2.58"/><circle class="cls-9" cx="359.61" cy="163.41" r="2.58"/><circle class="cls-9" cx="253.57" cy="108.13" r="2.58"/><circle class="cls-9" cx="267.46" cy="113.38" r="2.58"/><circle class="cls-9" cx="281.34" cy="118.63" r="2.58"/><circle class="cls-9" cx="295.22" cy="123.88" r="2.58"/><circle class="cls-9" cx="309.1" cy="129.13" r="2.58"/><circle class="cls-9" cx="322.98" cy="134.38" r="2.58"/><circle class="cls-9" cx="336.87" cy="139.63" r="2.58"/><circle class="cls-9" cx="350.75" cy="144.88" r="2.58"/><circle class="cls-9" cx="364.63" cy="150.13" r="2.58"/><circle class="cls-9" cx="258.14" cy="96.06" r="2.58"/><circle class="cls-9" cx="272.02" cy="101.31" r="2.58"/><circle class="cls-9" cx="285.9" cy="106.56" r="2.58"/><circle class="cls-9" cx="299.79" cy="111.81" r="2.58"/><circle class="cls-9" cx="313.67" cy="117.06" r="2.58"/><circle class="cls-9" cx="327.55" cy="122.31" r="2.58"/><circle class="cls-9" cx="341.43" cy="127.56" r="2.58"/><circle class="cls-9" cx="355.31" cy="132.81" r="2.58"/><circle class="cls-9" cx="369.2" cy="138.06" r="2.58"/><circle class="cls-9" cx="262.7" cy="83.99" r="2.58"/><circle class="cls-9" cx="276.59" cy="89.24" r="2.58"/><circle class="cls-9" cx="290.47" cy="94.49" r="2.58"/><circle class="cls-9" cx="304.35" cy="99.74" r="2.58"/><circle class="cls-9" cx="318.23" cy="104.99" r="2.58"/><circle class="cls-9" cx="332.11" cy="110.24" r="2.58"/><circle class="cls-9" cx="346" cy="115.49" r="2.58"/><circle class="cls-9" cx="359.88" cy="120.74" r="2.58"/><circle class="cls-9" cx="373.76" cy="125.99" r="2.58"/><circle class="cls-9" cx="267.27" cy="71.92" r="2.58"/><circle class="cls-9" cx="281.15" cy="77.17" r="2.58"/><circle class="cls-9" cx="295.03" cy="82.42" r="2.58"/><circle class="cls-9" cx="308.92" cy="87.67" r="2.58"/><circle class="cls-9" cx="322.8" cy="92.92" r="2.58"/><circle class="cls-9" cx="336.68" cy="98.17" r="2.58"/><circle class="cls-9" cx="350.56" cy="103.42" r="2.58"/><circle class="cls-9" cx="364.44" cy="108.67" r="2.58"/><circle class="cls-9" cx="378.33" cy="113.92" r="2.58"/><polyline class="cls-10" points="737.75 418.05 700.32 353.23 630.18 393.73 644.22 418.05"/><rect class="cls-11" x="769" y="278.05" width="81" height="81" transform="translate(-50.82 447.43) rotate(-30)"/><rect class="cls-10" x="765.45" y="329.6" width="54.33" height="54.33" transform="translate(-72.19 444.11) rotate(-30)"/><path class="cls-9" d="M871.32,253.72a2.75,2.75,0,0,0,.26-.22,32.13,32.13,0,0,0-42.38-48.31l-.26.24Z"/><path class="cls-2" d="M604,328.05c0,.12,0,.23,0,.35a32.65,32.65,0,1,0,65.3,0c0-.12,0-.23,0-.35Z"/><path class="cls-2" d="M520.26,103.68l-.32.14a32.73,32.73,0,1,0,28.25,59.05l.32-.16Z"/><rect class="cls-9" x="403.49" y="158.05" width="31.71" height="8.05" transform="translate(64.9 -114.48) rotate(16.83)"/><rect class="cls-9" x="403.65" y="158.37" width="31.71" height="8.05" transform="translate(696.42 -192.12) rotate(106.83)"/><rect class="cls-2" x="890.49" y="341.05" width="31.71" height="8.05" transform="translate(138.75 -247.66) rotate(16.83)"/><rect class="cls-2" x="890.65" y="341.37" width="31.71" height="8.05" transform="translate(1499.6 -422.27) rotate(106.83)"/><rect class="cls-6" x="710.32" y="97.22" width="8.05" height="31.71" transform="translate(399.26 764.08) rotate(-73.17)"/><rect class="cls-6" x="698.65" y="109.37" width="31.71" height="8.05" transform="translate(1029.94 -537.67) rotate(106.83)"/><polygon class="cls-5" points="884.14 69.53 864 63.34 865.55 58.16 885.69 64.34 884.14 69.53"/><polygon class="cls-5" points="869.35 73.48 875.45 53.05 880.56 54.62 874.47 75.05 869.35 73.48"/><rect class="cls-9" x="979.45" y="80.06" width="31.71" height="8.05" transform="translate(31.64 -178.69) rotate(10.42)"/><rect class="cls-9" x="979.65" y="80.35" width="31.71" height="8.05" transform="matrix(-0.18, 0.98, -0.98, -0.18, 1258.61, -879.44)"/><polyline class="cls-2" points="984.57 418.05 993.72 403.24 988.62 400.08 977.51 418.05"/><polyline class="cls-2" points="969.29 418.05 982.66 396.4 977.56 393.25 962.23 418.05"/><polyline class="cls-2" points="954 418.05 971.6 389.57 966.5 386.42 946.95 418.05"/><polyline class="cls-2" points="938.72 418.05 960.54 382.74 955.44 379.58 931.67 418.05"/><polyline class="cls-2" points="923.44 418.05 949.48 375.9 944.38 372.75 916.39 418.05"/><polyline class="cls-2" points="991.98 1.05 1011.83 31.65 1016.86 28.39 999.13 1.05"/><polyline class="cls-2" points="976.49 1.05 1000.92 38.73 1005.96 35.46 983.64 1.05"/><polyline class="cls-2" points="960.99 1.05 990.02 45.8 995.05 42.54 968.14 1.05"/><polyline class="cls-2" points="945.5 1.05 979.11 52.88 984.14 49.61 952.65 1.05"/><polyline class="cls-2" points="930 1.05 968.2 59.95 973.24 56.69 937.15 1.05"/><rect class="cls-6" x="318.48" y="224.71" width="31.71" height="8.05" transform="translate(80.56 -87.01) rotate(16.83)"/><rect class="cls-6" x="318.64" y="225.02" width="31.71" height="8.05" transform="translate(650.6 -24.8) rotate(106.83)"/><rect class="cls-6" x="552.48" y="275.71" width="31.71" height="8.05" transform="translate(105.35 -152.58) rotate(16.83)"/><rect class="cls-6" x="552.64" y="276.02" width="31.71" height="8.05" transform="translate(1001.17 -183) rotate(106.83)"/><polyline class="cls-6" points="554.6 418.05 555.68 414.47 544.6 411.12 547.95 400.04 540.24 397.71 536.89 408.79 525.32 405.29 522.99 413 534.55 416.5 534.08 418.05"/><rect class="cls-2" x="251.77" y="333.4" width="160" height="6" transform="translate(-114.15 180.22) rotate(-26.09)"/><rect class="cls-2" x="246.05" y="321.73" width="160" height="6" transform="translate(-109.6 176.52) rotate(-26.09)"/><rect class="cls-2" x="240.33" y="310.05" width="160" height="6" transform="translate(-105.05 172.81) rotate(-26.09)"/><rect class="cls-2" x="234.62" y="298.38" width="160" height="6" transform="translate(-100.49 169.11) rotate(-26.09)"/><rect class="cls-2" x="228.9" y="286.7" width="160" height="6" transform="translate(-95.94 165.4) rotate(-26.09)"/><circle class="cls-9" cx="812.5" cy="94.79" r="3.74"/><circle class="cls-9" cx="849.26" cy="131.55" r="3.74"/><circle class="cls-9" cx="847.39" cy="120.34" r="3.74"/><circle class="cls-9" cx="841.78" cy="109.74" r="3.74"/><circle class="cls-9" cx="833.68" cy="101.64" r="3.74"/><circle class="cls-9" cx="823.72" cy="96.66" r="3.74"/><circle class="cls-9" cx="812.5" cy="168.31" r="3.74"/><circle class="cls-9" cx="775.74" cy="131.55" r="3.74"/><circle class="cls-9" cx="777.61" cy="142.77" r="3.74"/><circle class="cls-9" cx="783.22" cy="153.36" r="3.74"/><circle class="cls-9" cx="791.32" cy="161.46" r="3.74"/><circle class="cls-9" cx="801.28" cy="166.44" r="3.74"/><circle class="cls-9" cx="849.26" cy="131.55" r="3.74"/><circle class="cls-9" cx="812.5" cy="168.31" r="3.74"/><circle class="cls-9" cx="823.72" cy="166.44" r="3.74"/><circle class="cls-9" cx="834.31" cy="160.84" r="3.74"/><circle class="cls-9" cx="842.41" cy="152.74" r="3.74"/><circle class="cls-9" cx="847.39" cy="142.77" r="3.74"/><circle class="cls-9" cx="775.74" cy="131.55" r="3.74"/><circle class="cls-9" cx="812.5" cy="94.79" r="3.74"/><circle class="cls-9" cx="801.28" cy="96.66" r="3.74"/><circle class="cls-9" cx="790.69" cy="102.27" r="3.74"/><circle class="cls-9" cx="782.59" cy="110.37" r="3.74"/><circle class="cls-9" cx="777.61" cy="120.34" r="3.74"/><circle class="cls-6" cx="468" cy="63.91" r="2.86"/><circle class="cls-6" cx="496.14" cy="92.05" r="2.86"/><circle class="cls-6" cx="494.71" cy="83.47" r="2.86"/><circle class="cls-6" cx="490.42" cy="75.36" r="2.86"/><circle class="cls-6" cx="484.22" cy="69.16" r="2.86"/><circle class="cls-6" cx="476.58" cy="65.34" r="2.86"/><circle class="cls-6" cx="468" cy="120.19" r="2.86"/><circle class="cls-6" cx="439.86" cy="92.05" r="2.86"/><circle class="cls-6" cx="441.29" cy="100.64" r="2.86"/><circle class="cls-6" cx="445.58" cy="108.74" r="2.86"/><circle class="cls-6" cx="451.78" cy="114.94" r="2.86"/><circle class="cls-6" cx="459.42" cy="118.76" r="2.86"/><circle class="cls-6" cx="496.14" cy="92.05" r="2.86"/><circle class="cls-6" cx="468" cy="120.19" r="2.86"/><circle class="cls-6" cx="476.58" cy="118.76" r="2.86"/><circle class="cls-6" cx="484.69" cy="114.47" r="2.86"/><circle class="cls-6" cx="490.89" cy="108.27" r="2.86"/><circle class="cls-6" cx="494.71" cy="100.64" r="2.86"/><circle class="cls-6" cx="439.86" cy="92.05" r="2.86"/><circle class="cls-6" cx="468" cy="63.91" r="2.86"/><circle class="cls-6" cx="459.42" cy="65.34" r="2.86"/><circle class="cls-6" cx="451.31" cy="69.64" r="2.86"/><circle class="cls-6" cx="445.11" cy="75.84" r="2.86"/><circle class="cls-6" cx="441.29" cy="83.47" r="2.86"/><circle class="cls-6" cx="927.05" cy="228.66" r="1.94"/><circle class="cls-6" cx="946.15" cy="247.76" r="1.94"/><circle class="cls-6" cx="945.18" cy="241.94" r="1.94"/><circle class="cls-6" cx="942.26" cy="236.43" r="1.94"/><circle class="cls-6" cx="938.06" cy="232.22" r="1.94"/><circle class="cls-6" cx="932.87" cy="229.63" r="1.94"/><circle class="cls-6" cx="927.05" cy="266.87" r="1.94"/><circle class="cls-6" cx="907.94" cy="247.76" r="1.94"/><circle class="cls-6" cx="908.91" cy="253.59" r="1.94"/><circle class="cls-6" cx="911.83" cy="259.1" r="1.94"/><circle class="cls-6" cx="916.04" cy="263.31" r="1.94"/><circle class="cls-6" cx="921.22" cy="265.9" r="1.94"/><circle class="cls-6" cx="946.15" cy="247.76" r="1.94"/><circle class="cls-6" cx="927.05" cy="266.87" r="1.94"/><circle class="cls-6" cx="932.87" cy="265.9" r="1.94"/><circle class="cls-6" cx="938.38" cy="262.98" r="1.94"/><circle class="cls-6" cx="942.59" cy="258.77" r="1.94"/><circle class="cls-6" cx="945.18" cy="253.59" r="1.94"/><circle class="cls-6" cx="907.94" cy="247.76" r="1.94"/><circle class="cls-6" cx="927.05" cy="228.66" r="1.94"/><circle class="cls-6" cx="921.22" cy="229.63" r="1.94"/><circle class="cls-6" cx="915.71" cy="232.55" r="1.94"/><circle class="cls-6" cx="911.5" cy="236.76" r="1.94"/><circle class="cls-6" cx="908.91" cy="241.94" r="1.94"/><circle class="cls-6" cx="538.5" cy="385.65" r="4.6"/><path class="cls-6" d="M585.93,418.05a4.37,4.37,0,0,0,.1-1,4.6,4.6,0,0,0-9.2,0,4.73,4.73,0,0,0,.1.93"/><circle class="cls-6" cx="574.53" cy="404.05" r="4.6"/><circle class="cls-6" cx="564.57" cy="394.08" r="4.6"/><circle class="cls-6" cx="552.3" cy="387.95" r="4.6"/><circle class="cls-6" cx="538.5" cy="385.65" r="4.6"/><circle class="cls-6" cx="524.7" cy="387.95" r="4.6"/><circle class="cls-6" cx="511.67" cy="394.85" r="4.6"/><circle class="cls-6" cx="501.7" cy="404.82" r="4.6"/><path class="cls-6" d="M500.06,418.05a4.37,4.37,0,0,0,.11-1,4.6,4.6,0,0,0-9.2,0,4.73,4.73,0,0,0,.09.93"/><polygon class="cls-9" points="506.12 322.14 496.93 297.31 501.73 296.05 510.93 320.89 506.12 322.14"/><polygon class="cls-9" points="537.08 314.04 507.19 321.87 505.71 317.87 535.61 310.05 537.08 314.04"/><polygon class="cls-9" points="540 336.14 530.8 311.31 535.61 310.05 544.8 334.89 540 336.14"/><polygon class="cls-9" points="570.96 328.04 541.06 335.87 539.59 331.87 569.48 324.05 570.96 328.04"/><polygon class="cls-9" points="575.2 354.03 566 329.2 569.81 324.94 579 349.78 575.2 354.03"/><polygon class="cls-9" points="497.43 337.35 488.24 312.51 493.04 311.26 502.24 336.09 497.43 337.35"/><polygon class="cls-9" points="528.39 329.25 498.5 337.07 497.02 333.08 526.91 325.26 528.39 329.25"/><polygon class="cls-9" points="531.3 351.35 522.11 326.51 526.91 325.26 536.11 350.09 531.3 351.35"/><polygon class="cls-9" points="562.26 343.25 532.37 351.07 530.89 347.08 560.79 339.26 562.26 343.25"/><polygon class="cls-9" points="565.51 366.24 556.31 341.4 561.12 340.14 570.31 364.98 565.51 366.24"/><polygon class="cls-6" points="754.53 259.51 731.66 263.5 731.34 259.16 754.21 255.17 754.53 259.51"/><polygon class="cls-6" points="752.46 231.53 754.46 258.55 750.78 259.19 748.78 232.17 752.46 231.53"/><polygon class="cls-6" points="771.98 232.52 749.11 236.51 748.78 232.17 771.66 228.18 771.98 232.52"/><polygon class="cls-6" points="769.91 204.54 771.91 231.56 768.23 232.2 766.23 205.18 769.91 204.54"/><polygon class="cls-6" points="792.99 205.01 770.11 209 767.05 205.04 789.92 201.05 792.99 205.01"/><polygon class="cls-6" points="766.26 269.42 743.39 273.4 743.07 269.06 765.94 265.07 766.26 269.42"/><polygon class="cls-6" points="764.19 241.43 766.19 268.45 762.52 269.09 760.51 242.07 764.19 241.43"/><polygon class="cls-6" points="783.71 242.43 760.84 246.42 760.51 242.07 783.39 238.09 783.71 242.43"/><polygon class="cls-6" points="781.64 214.45 783.64 241.46 779.96 242.1 777.96 215.09 781.64 214.45"/><polygon class="cls-6" points="801.98 215.3 779.1 219.29 778.78 214.94 801.65 210.96 801.98 215.3"/><polygon class="cls-6" points="305.42 1.05 300.45 1.05 303.17 25.66 308.13 25.61 305.42 1.05"/><polygon class="cls-6" points="335.17 25.3 304.27 25.65 303.8 21.42 334.7 21.07 335.17 25.3"/><polygon class="cls-6" points="332.64 47.45 329.73 21.12 334.7 21.07 337.61 47.39 332.64 47.45"/><polygon class="cls-6" points="364.64 47.08 333.75 47.43 333.28 43.2 364.18 42.85 364.64 47.08"/><polygon class="cls-6" points="362.47 73.32 359.56 47 364.28 43.79 367.19 70.11 362.47 73.32"/><polygon class="cls-6" points="291.06 38.31 288.14 11.99 293.11 11.93 296.02 38.26 291.06 38.31"/><polygon class="cls-6" points="323.06 37.95 292.16 38.3 291.69 34.07 322.59 33.72 323.06 37.95"/><polygon class="cls-6" points="320.53 60.09 317.62 33.77 322.59 33.72 325.5 60.04 320.53 60.09"/><polygon class="cls-6" points="352.53 59.73 321.63 60.08 321.17 55.85 352.06 55.5 352.53 59.73"/><polygon class="cls-6" points="350.11 82.82 347.2 56.5 352.17 56.44 355.08 82.76 350.11 82.82"/><polygon class="cls-6" points="1042.46 74.99 1023.06 62.23 1025.8 58.84 1045.2 71.6 1042.46 74.99"/><polygon class="cls-6" points="1060.11 53.18 1043.07 74.23 1039.95 72.18 1057 51.13 1060.11 53.18"/><polygon class="cls-6" points="1073.66 67.27 1054.26 54.51 1057 51.13 1076.4 63.88 1073.66 67.27"/><polygon class="cls-6" points="1091.31 45.46 1074.27 66.52 1071.15 64.47 1088.19 43.41 1091.31 45.46"/><polygon class="cls-6" points="1107.81 61.61 1088.41 48.85 1088.88 43.86 1108.28 56.62 1107.81 61.61"/><polygon class="cls-6" points="1044.23 90.24 1024.83 77.48 1027.57 74.09 1046.97 86.85 1044.23 90.24"/><polygon class="cls-6" points="1061.88 68.43 1044.84 89.49 1041.72 87.44 1058.76 66.38 1061.88 68.43"/><polygon class="cls-6" points="1075.42 82.52 1056.02 69.76 1058.76 66.38 1078.16 79.14 1075.42 82.52"/><polygon class="cls-6" points="1093.08 60.71 1076.03 81.77 1072.91 79.72 1089.96 58.66 1093.08 60.71"/><polygon class="cls-6" points="1107.31 75.26 1087.91 62.5 1090.65 59.12 1110.05 71.88 1107.31 75.26"/><circle class="cls-6" cx="413.5" cy="117.55" r="3.5"/><circle class="cls-5" cx="484.5" cy="44.55" r="3.5"/><circle class="cls-6" cx="672.5" cy="125.55" r="3.5"/><circle class="cls-12" cx="389.44" cy="232.38" r="6"/><circle class="cls-12" cx="472.5" cy="81.55" r="3.5"/><circle class="cls-12" cx="439.44" cy="322.38" r="6"/><circle class="cls-12" cx="632.44" cy="302.38" r="6"/><circle class="cls-6" cx="714" cy="248.05" r="3"/><circle class="cls-12" cx="727" cy="332.05" r="6"/><circle class="cls-12" cx="879.5" cy="374.55" r="4.5"/><circle class="cls-6" cx="949" cy="207.05" r="6"/><circle class="cls-6" cx="687.5" cy="297.55" r="4.5"/><circle class="cls-12" cx="733" cy="194.05" r="6"/><circle class="cls-5" cx="750" cy="151.05" r="6"/><circle class="cls-12" cx="761" cy="72.05" r="6"/><circle class="cls-12" cx="875" cy="25.05" r="6"/><polyline class="cls-9" points="828.4 418.05 826.46 405.72 823.48 406.5 825.31 418.05"/><polygon class="cls-9" points="842.54 405.22 824.04 410.04 823.48 406.5 841.98 401.68 842.54 405.22"/><polygon class="cls-9" points="838.94 382.4 842.41 404.43 839.44 405.2 835.97 383.18 838.94 382.4"/><polygon class="cls-9" points="857.91 381.22 839.41 386.04 836.63 383 855.12 378.18 857.91 381.22"/><polyline class="cls-9" points="837.54 418.05 836.75 413.05 833.78 413.83 834.45 418.05"/><polygon class="cls-9" points="852.83 412.55 834.34 417.37 833.78 413.83 852.27 409.01 852.83 412.55"/><polygon class="cls-9" points="849.24 389.73 852.71 411.76 849.74 412.54 846.26 390.51 849.24 389.73"/><polygon class="cls-9" points="865.98 389.05 847.48 393.88 846.92 390.33 865.42 385.51 865.98 389.05"/><circle class="cls-6" cx="901.11" cy="289.16" r="3"/><path class="cls-2" d="M1512.58,418.05l48.76-29a64.86,64.86,0,0,0-8.12-6.66l-60,35.63"/><path class="cls-2" d="M1468.65,418.05l71.64-42.57a64.88,64.88,0,0,0-13.11-3.7l-72.53,43.1c-.35,1.05-.68,2.11-1,3.17"/><path class="cls-2" d="M1501.31,372.53a65.32,65.32,0,0,0-33.63,20Z"/><path class="cls-2" d="M1556.52,418.05l18-10.72c-.78-1.59-1.6-3.17-2.52-4.71-.78-1.32-1.62-2.58-2.47-3.82l-31.94,19-.45.27"/><polygon class="cls-2" points="1761.17 352.26 1764.67 355.77 1876.55 355.77 1880.05 352.26 1876.17 348.38 1765.05 348.38 1761.17 352.26"/><polygon class="cls-2" points="1828.39 300.6 1820.61 292.82 1812.83 300.6 1828.39 300.6"/><polygon class="cls-2" points="1775.68 366.77 1783.06 374.16 1858.16 374.16 1865.54 366.77 1775.68 366.77"/><polygon class="cls-2" points="1783.44 330 1776.06 337.38 1865.16 337.38 1857.78 330 1783.44 330"/><polygon class="cls-2" points="1812.45 403.55 1820.61 411.71 1828.77 403.55 1812.45 403.55"/><polygon class="cls-2" points="1839.77 392.55 1847.15 385.16 1794.07 385.16 1801.45 392.55 1839.77 392.55"/><polygon class="cls-2" points="1801.83 311.61 1794.44 318.99 1846.78 318.99 1839.39 311.61 1801.83 311.61"/><rect class="cls-2" x="1275.33" y="204" width="66" height="66" transform="translate(843.7 -1008.8) rotate(59.28)"/><polygon class="cls-4" points="1310.66 212.93 1307.37 214.89 1286.03 298.72 1287.99 302.01 1291.64 299.85 1312.83 216.58 1310.66 212.93"/><polygon class="cls-4" points="1339.52 261.5 1336.56 273.15 1343.87 268.81 1339.52 261.5"/><polygon class="cls-4" points="1290.08 225.16 1275.76 281.44 1279.88 288.38 1297.02 221.04 1290.08 225.16"/><polygon class="cls-4" points="1318.98 226.92 1301.98 293.7 1308.92 289.57 1323.1 233.86 1318.98 226.92"/><polygon class="cls-4" points="1254.78 246.14 1259.34 253.8 1262.45 241.58 1254.78 246.14"/><polygon class="cls-4" points="1272.8 235.43 1265.49 264.15 1269.61 271.09 1279.74 231.31 1272.8 235.43"/><polygon class="cls-4" points="1329.25 244.21 1319.27 283.43 1326.21 279.3 1333.37 251.15 1329.25 244.21"/><polyline class="cls-6" points="1374.93 418.05 1382.98 386.41 1380.28 381.86 1376.17 384.3 1367.58 418.05"/><polyline class="cls-6" points="1356.62 418.05 1363.26 391.97 1354.6 397.12 1349.27 418.05"/><polyline class="cls-6" points="1393.24 418.05 1395.8 407.98 1390.65 399.32 1385.89 418.05"/><polyline class="cls-6" points="1320.01 418.05 1320.12 417.61 1319.38 418.05"/><polyline class="cls-6" points="1338.32 418.05 1341.69 404.79 1333.03 409.94 1330.97 418.05"/><path class="cls-5" d="M1701.42,249.89l28,34.95a28.22,28.22,0,0,0,.8-5.85l-22.88-28.6A28.41,28.41,0,0,0,1701.42,249.89Z"/><path class="cls-5" d="M1717.75,301.49c.64-.43,1.26-.88,1.87-1.36s1-.85,1.49-1.29L1686,254.89q-.81.56-1.59,1.17c-.61.49-1.18,1-1.74,1.53Z"/><path class="cls-5" d="M1728.31,267.91a28.47,28.47,0,0,0-4.28-7.45,28,28,0,0,0-6.33-5.81Z"/><path class="cls-5" d="M1724.8,294.71a27.38,27.38,0,0,0,2.38-3.89l-32.08-40.09a28.09,28.09,0,0,0-4.31,1.47Z"/><path class="cls-5" d="M1675.22,287a28.27,28.27,0,0,0,12.2,15.25Z"/><path class="cls-5" d="M1679,261.77a27.61,27.61,0,0,0-2.34,3.94l31.88,39.84a28.69,28.69,0,0,0,4.35-1.42Z"/><path class="cls-5" d="M1674.5,271.77a28.4,28.4,0,0,0-.68,4.77l23.51,29.38a27.58,27.58,0,0,0,4.8.38Z"/><rect class="cls-7" x="1658.63" y="183.03" width="76" height="76" transform="translate(187.34 1026.91) rotate(-35.52)"/><circle class="cls-3" cx="1475.35" cy="348.86" r="4"/><circle class="cls-3" cx="1495.12" cy="337.11" r="4"/><circle class="cls-3" cx="1514.9" cy="325.36" r="4"/><circle class="cls-3" cx="1534.67" cy="313.61" r="4"/><circle class="cls-3" cx="1554.44" cy="301.86" r="4"/><circle class="cls-3" cx="1574.21" cy="290.11" r="4"/><circle class="cls-3" cx="1593.98" cy="278.36" r="4"/><circle class="cls-3" cx="1613.76" cy="266.61" r="4"/><circle class="cls-3" cx="1633.53" cy="254.86" r="4"/><circle class="cls-3" cx="1465.13" cy="331.67" r="4"/><circle class="cls-3" cx="1484.91" cy="319.92" r="4"/><circle class="cls-3" cx="1504.68" cy="308.17" r="4"/><circle class="cls-3" cx="1524.45" cy="296.42" r="4"/><circle class="cls-3" cx="1544.22" cy="284.67" r="4"/><circle class="cls-3" cx="1563.99" cy="272.92" r="4"/><circle class="cls-3" cx="1583.77" cy="261.17" r="4"/><circle class="cls-3" cx="1603.54" cy="249.42" r="4"/><circle class="cls-3" cx="1623.31" cy="237.67" r="4"/><circle class="cls-3" cx="1454.92" cy="314.47" r="4"/><circle class="cls-3" cx="1474.69" cy="302.72" r="4"/><circle class="cls-3" cx="1494.46" cy="290.97" r="4"/><circle class="cls-3" cx="1514.23" cy="279.22" r="4"/><circle class="cls-3" cx="1534.01" cy="267.47" r="4"/><circle class="cls-3" cx="1553.78" cy="255.72" r="4"/><circle class="cls-3" cx="1573.55" cy="243.97" r="4"/><circle class="cls-3" cx="1593.32" cy="232.22" r="4"/><circle class="cls-3" cx="1613.09" cy="220.47" r="4"/><circle class="cls-3" cx="1444.7" cy="297.28" r="4"/><circle class="cls-3" cx="1464.47" cy="285.53" r="4"/><circle class="cls-3" cx="1484.24" cy="273.78" r="4"/><circle class="cls-3" cx="1504.02" cy="262.03" r="4"/><circle class="cls-3" cx="1523.79" cy="250.28" r="4"/><circle class="cls-3" cx="1543.56" cy="238.53" r="4"/><circle class="cls-3" cx="1563.33" cy="226.78" r="4"/><circle class="cls-3" cx="1583.11" cy="215.03" r="4"/><circle class="cls-3" cx="1602.88" cy="203.28" r="4"/><circle class="cls-3" cx="1433.46" cy="278.37" r="4"/><circle class="cls-3" cx="1453.23" cy="266.62" r="4"/><circle class="cls-3" cx="1473" cy="254.87" r="4"/><circle class="cls-3" cx="1492.78" cy="243.12" r="4"/><circle class="cls-3" cx="1512.55" cy="231.37" r="4"/><circle class="cls-3" cx="1532.32" cy="219.62" r="4"/><circle class="cls-3" cx="1552.09" cy="207.87" r="4"/><circle class="cls-3" cx="1571.87" cy="196.12" r="4"/><circle class="cls-3" cx="1591.64" cy="184.37" r="4"/><circle class="cls-3" cx="1423.24" cy="261.17" r="4"/><circle class="cls-3" cx="1443.02" cy="249.42" r="4"/><circle class="cls-3" cx="1462.79" cy="237.67" r="4"/><circle class="cls-3" cx="1482.56" cy="225.92" r="4"/><circle class="cls-3" cx="1502.33" cy="214.17" r="4"/><circle class="cls-3" cx="1522.1" cy="202.42" r="4"/><circle class="cls-3" cx="1541.88" cy="190.67" r="4"/><circle class="cls-3" cx="1561.65" cy="178.93" r="4"/><circle class="cls-3" cx="1581.42" cy="167.18" r="4"/><circle class="cls-3" cx="1413.03" cy="243.98" r="4"/><circle class="cls-3" cx="1432.8" cy="232.23" r="4"/><circle class="cls-3" cx="1452.57" cy="220.48" r="4"/><circle class="cls-3" cx="1472.34" cy="208.73" r="4"/><circle class="cls-3" cx="1492.12" cy="196.98" r="4"/><circle class="cls-3" cx="1511.89" cy="185.23" r="4"/><circle class="cls-3" cx="1531.66" cy="173.48" r="4"/><circle class="cls-3" cx="1551.43" cy="161.73" r="4"/><circle class="cls-3" cx="1571.2" cy="149.98" r="4"/><circle class="cls-3" cx="1402.81" cy="226.79" r="4"/><circle class="cls-3" cx="1422.58" cy="215.04" r="4"/><circle class="cls-3" cx="1442.35" cy="203.29" r="4"/><circle class="cls-3" cx="1462.13" cy="191.54" r="4"/><circle class="cls-3" cx="1481.9" cy="179.79" r="4"/><circle class="cls-3" cx="1501.67" cy="168.04" r="4"/><circle class="cls-3" cx="1521.44" cy="156.29" r="4"/><circle class="cls-3" cx="1541.22" cy="144.54" r="4"/><circle class="cls-3" cx="1560.99" cy="132.79" r="4"/><path class="cls-9" d="M1884.11,418.08a2.88,2.88,0,0,1,.17-.64,3.27,3.27,0,0,1,6.28.61"/><circle class="cls-9" cx="1893.12" cy="403.3" r="3.27"/><circle class="cls-9" cx="1910.71" cy="409.95" r="3.27"/><circle class="cls-9" cx="1899.48" cy="386.47" r="3.27"/><path class="cls-9" d="M1920,391.66a3.23,3.23,0,0,0-1.77-1.59,3.27,3.27,0,1,0,1.77,4.52Z"/><circle class="cls-9" cx="1905.27" cy="371.18" r="3.27"/><path class="cls-9" d="M1920,379.41a3.27,3.27,0,0,1-.2-2.74,3.36,3.36,0,0,1,.2-.43"/><circle class="cls-9" cx="1911.05" cy="355.88" r="3.27"/><circle class="cls-9" cx="1916.84" cy="340.58" r="3.27"/><circle class="cls-9" cx="1124.03" cy="385.4" r="2.58"/><circle class="cls-9" cx="1137.91" cy="390.65" r="2.58"/><circle class="cls-9" cx="1151.79" cy="395.9" r="2.58"/><circle class="cls-9" cx="1165.67" cy="401.15" r="2.58"/><circle class="cls-9" cx="1179.56" cy="406.4" r="2.58"/><circle class="cls-9" cx="1193.44" cy="411.65" r="2.58"/><circle class="cls-9" cx="1207.32" cy="416.9" r="2.58"/><circle class="cls-9" cx="1128.59" cy="373.33" r="2.58"/><circle class="cls-9" cx="1142.47" cy="378.58" r="2.58"/><circle class="cls-9" cx="1156.36" cy="383.83" r="2.58"/><circle class="cls-9" cx="1170.24" cy="389.08" r="2.58"/><circle class="cls-9" cx="1184.12" cy="394.33" r="2.58"/><circle class="cls-9" cx="1198" cy="399.58" r="2.58"/><circle class="cls-9" cx="1211.88" cy="404.83" r="2.58"/><circle class="cls-9" cx="1225.77" cy="410.08" r="2.58"/><circle class="cls-9" cx="1239.65" cy="415.33" r="2.58"/><circle class="cls-9" cx="1133.16" cy="361.26" r="2.58"/><circle class="cls-9" cx="1147.04" cy="366.51" r="2.58"/><circle class="cls-9" cx="1160.92" cy="371.76" r="2.58"/><circle class="cls-9" cx="1174.8" cy="377.01" r="2.58"/><circle class="cls-9" cx="1188.68" cy="382.26" r="2.58"/><circle class="cls-9" cx="1202.57" cy="387.51" r="2.58"/><circle class="cls-9" cx="1216.45" cy="392.76" r="2.58"/><circle class="cls-9" cx="1230.33" cy="398" r="2.58"/><circle class="cls-9" cx="1244.21" cy="403.25" r="2.58"/><circle class="cls-9" cx="1137.72" cy="349.19" r="2.58"/><circle class="cls-9" cx="1151.6" cy="354.44" r="2.58"/><circle class="cls-9" cx="1165.49" cy="359.68" r="2.58"/><circle class="cls-9" cx="1179.37" cy="364.93" r="2.58"/><circle class="cls-9" cx="1193.25" cy="370.18" r="2.58"/><circle class="cls-9" cx="1207.13" cy="375.43" r="2.58"/><circle class="cls-9" cx="1221.01" cy="380.68" r="2.58"/><circle class="cls-9" cx="1234.9" cy="385.93" r="2.58"/><circle class="cls-9" cx="1248.78" cy="391.18" r="2.58"/><circle class="cls-9" cx="1142.74" cy="335.91" r="2.58"/><circle class="cls-9" cx="1156.63" cy="341.16" r="2.58"/><circle class="cls-9" cx="1170.51" cy="346.41" r="2.58"/><circle class="cls-9" cx="1184.39" cy="351.66" r="2.58"/><circle class="cls-9" cx="1198.27" cy="356.91" r="2.58"/><circle class="cls-9" cx="1212.15" cy="362.16" r="2.58"/><circle class="cls-9" cx="1226.04" cy="367.41" r="2.58"/><circle class="cls-9" cx="1239.92" cy="372.65" r="2.58"/><circle class="cls-9" cx="1253.8" cy="377.9" r="2.58"/><circle class="cls-9" cx="1147.31" cy="323.84" r="2.58"/><circle class="cls-9" cx="1161.19" cy="329.09" r="2.58"/><circle class="cls-9" cx="1175.07" cy="334.34" r="2.58"/><circle class="cls-9" cx="1188.95" cy="339.58" r="2.58"/><circle class="cls-9" cx="1202.84" cy="344.83" r="2.58"/><circle class="cls-9" cx="1216.72" cy="350.08" r="2.58"/><circle class="cls-9" cx="1230.6" cy="355.33" r="2.58"/><circle class="cls-9" cx="1244.48" cy="360.58" r="2.58"/><circle class="cls-9" cx="1258.36" cy="365.83" r="2.58"/><circle class="cls-9" cx="1151.87" cy="311.76" r="2.58"/><circle class="cls-9" cx="1165.75" cy="317.01" r="2.58"/><circle class="cls-9" cx="1179.64" cy="322.26" r="2.58"/><circle class="cls-9" cx="1193.52" cy="327.51" r="2.58"/><circle class="cls-9" cx="1207.4" cy="332.76" r="2.58"/><circle class="cls-9" cx="1221.28" cy="338.01" r="2.58"/><circle class="cls-9" cx="1235.17" cy="343.26" r="2.58"/><circle class="cls-9" cx="1249.05" cy="348.51" r="2.58"/><circle class="cls-9" cx="1262.93" cy="353.76" r="2.58"/><circle class="cls-9" cx="1156.44" cy="299.69" r="2.58"/><circle class="cls-9" cx="1170.32" cy="304.94" r="2.58"/><circle class="cls-9" cx="1184.2" cy="310.19" r="2.58"/><circle class="cls-9" cx="1198.08" cy="315.44" r="2.58"/><circle class="cls-9" cx="1211.97" cy="320.69" r="2.58"/><circle class="cls-9" cx="1225.85" cy="325.94" r="2.58"/><circle class="cls-9" cx="1239.73" cy="331.19" r="2.58"/><circle class="cls-9" cx="1253.61" cy="336.44" r="2.58"/><circle class="cls-9" cx="1267.49" cy="341.69" r="2.58"/><path class="cls-6" d="M1045,389.05a1.62,1.62,0,0,0,0,.22,20.24,20.24,0,0,0,40.47,0c0-.07,0-.15,0-.22Z"/><path class="cls-2" d="M1429.43,321.45a3.13,3.13,0,0,0-.32.15,32.73,32.73,0,0,0,28.25,59l.32-.16Z"/><rect class="cls-9" x="1292.66" y="385.83" width="31.71" height="8.05" transform="translate(168.94 -362.19) rotate(16.83)"/><rect class="cls-9" x="1292.82" y="386.14" width="31.71" height="8.05" transform="translate(2061.07 -749.47) rotate(106.83)"/><rect class="cls-2" x="1075.66" y="304.83" width="31.71" height="8.05" transform="translate(136.19 -302.83) rotate(16.83)"/><rect class="cls-2" x="1075.82" y="305.14" width="31.71" height="8.05" transform="translate(1703.71 -646.22) rotate(106.83)"/><rect class="cls-6" x="1599.49" y="325" width="8.05" height="31.71" transform="translate(812.95 1776.98) rotate(-73.17)"/><rect class="cls-6" x="1587.82" y="337.14" width="31.71" height="8.05" transform="translate(2394.59 -1095.02) rotate(106.83)"/><polygon class="cls-5" points="1773.31 297.3 1753.17 291.12 1754.72 285.93 1774.86 292.11 1773.31 297.3"/><polygon class="cls-5" points="1758.52 301.25 1764.61 280.82 1769.73 282.39 1763.64 302.82 1758.52 301.25"/><rect class="cls-9" x="1868.62" y="307.83" width="31.71" height="8.05" transform="translate(87.53 -335.81) rotate(10.42)"/><rect class="cls-9" x="1868.82" y="308.12" width="31.71" height="8.05" transform="matrix(-0.18, 0.98, -0.98, -0.18, 2532.67, -1484.95)"/><rect class="cls-2" x="1813.2" y="195.81" width="116.59" height="6" transform="translate(3179.45 1552.06) rotate(-140.09)"/><rect class="cls-2" x="1804.86" y="205.78" width="116.59" height="6" transform="translate(3158.31 1564.33) rotate(-140.09)"/><rect class="cls-2" x="1796.52" y="215.75" width="116.59" height="6" transform="translate(3137.18 1576.59) rotate(-140.09)"/><rect class="cls-2" x="1788.18" y="225.72" width="116.59" height="6" transform="translate(3116.04 1588.86) rotate(-140.09)"/><rect class="cls-2" x="1779.84" y="235.69" width="116.59" height="6" transform="translate(3094.9 1601.13) rotate(-140.09)"/><rect class="cls-6" x="1352.65" y="199.48" width="31.71" height="8.05" transform="translate(117.55 -387.54) rotate(16.83)"/><rect class="cls-6" x="1352.81" y="199.8" width="31.71" height="8.05" transform="translate(1960.07 -1047.19) rotate(106.83)"/><rect class="cls-6" x="1473.65" y="127.48" width="31.71" height="8.05" transform="translate(101.89 -425.66) rotate(16.83)"/><rect class="cls-6" x="1473.81" y="127.8" width="31.71" height="8.05" transform="translate(2047.19 -1255.86) rotate(106.83)"/><circle class="cls-9" cx="1701.67" cy="322.56" r="3.74"/><circle class="cls-9" cx="1738.43" cy="359.32" r="3.74"/><circle class="cls-9" cx="1736.56" cy="348.11" r="3.74"/><circle class="cls-9" cx="1730.95" cy="337.52" r="3.74"/><circle class="cls-9" cx="1722.85" cy="329.42" r="3.74"/><circle class="cls-9" cx="1712.88" cy="324.43" r="3.74"/><circle class="cls-9" cx="1701.67" cy="396.09" r="3.74"/><circle class="cls-9" cx="1664.91" cy="359.32" r="3.74"/><circle class="cls-9" cx="1666.78" cy="370.54" r="3.74"/><circle class="cls-9" cx="1672.38" cy="381.13" r="3.74"/><circle class="cls-9" cx="1680.48" cy="389.23" r="3.74"/><circle class="cls-9" cx="1690.45" cy="394.22" r="3.74"/><circle class="cls-9" cx="1738.43" cy="359.32" r="3.74"/><circle class="cls-9" cx="1701.67" cy="396.09" r="3.74"/><circle class="cls-9" cx="1712.88" cy="394.22" r="3.74"/><circle class="cls-9" cx="1723.48" cy="388.61" r="3.74"/><circle class="cls-9" cx="1731.58" cy="380.51" r="3.74"/><circle class="cls-9" cx="1736.56" cy="370.54" r="3.74"/><circle class="cls-9" cx="1664.91" cy="359.32" r="3.74"/><circle class="cls-9" cx="1701.67" cy="322.56" r="3.74"/><circle class="cls-9" cx="1690.45" cy="324.43" r="3.74"/><circle class="cls-9" cx="1679.86" cy="330.04" r="3.74"/><circle class="cls-9" cx="1671.76" cy="338.14" r="3.74"/><circle class="cls-9" cx="1666.78" cy="348.11" r="3.74"/><circle class="cls-6" cx="1357.17" cy="291.69" r="2.86"/><circle class="cls-6" cx="1385.31" cy="319.82" r="2.86"/><circle class="cls-6" cx="1383.88" cy="311.24" r="2.86"/><circle class="cls-6" cx="1379.58" cy="303.13" r="2.86"/><circle class="cls-6" cx="1373.38" cy="296.93" r="2.86"/><circle class="cls-6" cx="1365.75" cy="293.12" r="2.86"/><circle class="cls-6" cx="1357.17" cy="347.96" r="2.86"/><circle class="cls-6" cx="1329.03" cy="319.82" r="2.86"/><circle class="cls-6" cx="1330.46" cy="328.41" r="2.86"/><circle class="cls-6" cx="1334.75" cy="336.52" r="2.86"/><circle class="cls-6" cx="1340.95" cy="342.72" r="2.86"/><circle class="cls-6" cx="1348.58" cy="346.53" r="2.86"/><circle class="cls-6" cx="1385.31" cy="319.82" r="2.86"/><circle class="cls-6" cx="1357.17" cy="347.96" r="2.86"/><circle class="cls-6" cx="1365.75" cy="346.53" r="2.86"/><circle class="cls-6" cx="1373.86" cy="342.24" r="2.86"/><circle class="cls-6" cx="1380.06" cy="336.04" r="2.86"/><circle class="cls-6" cx="1383.88" cy="328.41" r="2.86"/><circle class="cls-6" cx="1329.03" cy="319.82" r="2.86"/><circle class="cls-6" cx="1357.17" cy="291.69" r="2.86"/><circle class="cls-6" cx="1348.58" cy="293.12" r="2.86"/><circle class="cls-6" cx="1340.48" cy="297.41" r="2.86"/><circle class="cls-6" cx="1334.28" cy="303.61" r="2.86"/><circle class="cls-6" cx="1330.46" cy="311.24" r="2.86"/><circle class="cls-6" cx="1172.22" cy="72.43" r="1.94"/><circle class="cls-6" cx="1191.32" cy="91.54" r="1.94"/><circle class="cls-6" cx="1190.35" cy="85.71" r="1.94"/><circle class="cls-6" cx="1187.43" cy="80.2" r="1.94"/><circle class="cls-6" cx="1183.22" cy="75.99" r="1.94"/><circle class="cls-6" cx="1178.04" cy="73.4" r="1.94"/><circle class="cls-6" cx="1172.22" cy="110.64" r="1.94"/><circle class="cls-6" cx="1153.11" cy="91.54" r="1.94"/><circle class="cls-6" cx="1154.08" cy="97.37" r="1.94"/><circle class="cls-6" cx="1157" cy="102.87" r="1.94"/><circle class="cls-6" cx="1161.21" cy="107.08" r="1.94"/><circle class="cls-6" cx="1166.39" cy="109.67" r="1.94"/><circle class="cls-6" cx="1191.32" cy="91.54" r="1.94"/><circle class="cls-6" cx="1172.22" cy="110.64" r="1.94"/><circle class="cls-6" cx="1178.04" cy="109.67" r="1.94"/><circle class="cls-6" cx="1183.55" cy="106.75" r="1.94"/><circle class="cls-6" cx="1187.76" cy="102.55" r="1.94"/><circle class="cls-6" cx="1190.35" cy="97.37" r="1.94"/><circle class="cls-6" cx="1153.11" cy="91.54" r="1.94"/><circle class="cls-6" cx="1172.22" cy="72.43" r="1.94"/><circle class="cls-6" cx="1166.39" cy="73.4" r="1.94"/><circle class="cls-6" cx="1160.88" cy="76.32" r="1.94"/><circle class="cls-6" cx="1156.67" cy="80.53" r="1.94"/><circle class="cls-6" cx="1154.08" cy="85.71" r="1.94"/><polygon class="cls-9" points="1249.19 178.53 1263.96 188.55 1261.82 191.12 1247.05 181.1 1249.19 178.53"/><polygon class="cls-9" points="1235.38 195.09 1248.71 179.1 1251.09 180.71 1237.76 196.71 1235.38 195.09"/><polygon class="cls-9" points="1225.13 184.11 1239.9 194.13 1237.76 196.71 1222.99 186.68 1225.13 184.11"/><polygon class="cls-9" points="1211.32 200.68 1224.65 184.68 1227.03 186.29 1213.69 202.29 1211.32 200.68"/><polygon class="cls-9" points="1198.82 188.08 1213.59 198.11 1213.16 201.93 1198.4 191.91 1198.82 188.08"/><polygon class="cls-9" points="1248 166.79 1262.77 176.81 1260.63 179.38 1245.86 169.36 1248 166.79"/><polygon class="cls-9" points="1234.19 183.35 1247.53 167.36 1249.9 168.97 1236.57 184.96 1234.19 183.35"/><polygon class="cls-9" points="1223.94 172.37 1238.71 182.39 1236.57 184.96 1221.8 174.94 1223.94 172.37"/><polygon class="cls-9" points="1210.13 188.94 1223.47 172.94 1225.84 174.55 1212.51 190.55 1210.13 188.94"/><polygon class="cls-9" points="1199.35 177.59 1214.12 187.62 1211.98 190.19 1197.21 180.17 1199.35 177.59"/><polygon class="cls-6" points="1192.34 253.44 1189.43 227.11 1194.39 227.06 1197.3 253.38 1192.34 253.44"/><polygon class="cls-6" points="1224.34 253.07 1193.44 253.42 1192.97 249.19 1223.87 248.84 1224.34 253.07"/><polygon class="cls-6" points="1221.81 275.22 1218.9 248.9 1223.87 248.84 1226.78 275.16 1221.81 275.22"/><polygon class="cls-6" points="1253.81 274.85 1222.91 275.21 1222.45 270.98 1253.34 270.62 1253.81 274.85"/><polygon class="cls-6" points="1251.64 301.1 1248.73 274.77 1253.45 271.56 1256.36 297.89 1251.64 301.1"/><polygon class="cls-6" points="1180.22 266.08 1177.31 239.76 1182.28 239.71 1185.19 266.03 1180.22 266.08"/><polygon class="cls-6" points="1212.22 265.72 1181.33 266.07 1180.86 261.84 1211.76 261.49 1212.22 265.72"/><polygon class="cls-6" points="1209.7 287.87 1206.79 261.55 1211.76 261.49 1214.66 287.81 1209.7 287.87"/><polygon class="cls-6" points="1241.7 287.5 1210.8 287.86 1210.34 283.63 1241.23 283.27 1241.7 287.5"/><polygon class="cls-6" points="1239.28 310.59 1236.37 284.27 1241.34 284.21 1244.24 310.54 1239.28 310.59"/><circle class="cls-6" cx="1302.67" cy="345.32" r="3.5"/><circle class="cls-5" cx="1373.67" cy="272.32" r="3.5"/><circle class="cls-6" cx="1561.67" cy="353.32" r="3.5"/><circle class="cls-6" cx="1764.5" cy="393.55" r="3.5"/><circle class="cls-12" cx="1808" cy="255.05" r="6"/><circle class="cls-12" cx="1361.67" cy="309.32" r="3.5"/><circle class="cls-12" cx="1659" cy="111.05" r="6"/><circle class="cls-12" cx="1084" cy="102.05" r="6"/><circle class="cls-6" cx="1042" cy="13.05" r="3"/><circle class="cls-12" cx="1205" cy="150.05" r="6"/><circle class="cls-12" cx="1749.5" cy="188.55" r="4.5"/><circle class="cls-6" cx="1840" cy="276.05" r="6"/><circle class="cls-6" cx="874.5" cy="168.55" r="4.5"/><circle class="cls-12" cx="1608" cy="406.05" r="4"/><circle class="cls-5" cx="1639.17" cy="378.82" r="6"/><circle class="cls-12" cx="1650.17" cy="299.82" r="6"/><circle class="cls-12" cx="1764.17" cy="252.82" r="6"/><polygon class="cls-9" points="1874.22 152.31 1855.73 157.13 1855.17 153.59 1873.66 148.77 1874.22 152.31"/><polygon class="cls-9" points="1870.63 129.5 1874.1 151.52 1871.13 152.3 1867.65 130.27 1870.63 129.5"/><polygon class="cls-9" points="1886.71 128.99 1868.21 133.81 1867.65 130.27 1886.15 125.45 1886.71 128.99"/><polygon class="cls-9" points="1883.11 106.17 1886.58 128.2 1883.61 128.98 1880.14 106.95 1883.11 106.17"/><polygon class="cls-9" points="1902.08 104.99 1883.58 109.81 1880.8 106.78 1899.29 101.95 1902.08 104.99"/><polygon class="cls-9" points="1884.52 159.64 1866.02 164.46 1865.46 160.92 1883.96 156.1 1884.52 159.64"/><polygon class="cls-9" points="1880.92 136.83 1884.39 158.85 1881.42 159.63 1877.95 137.6 1880.92 136.83"/><polygon class="cls-9" points="1897 136.32 1878.51 141.14 1877.95 137.6 1896.44 132.78 1897 136.32"/><polygon class="cls-9" points="1893.4 113.5 1896.88 135.53 1893.9 136.31 1890.43 114.28 1893.4 113.5"/><polygon class="cls-9" points="1910.15 112.83 1891.65 117.65 1891.09 114.11 1909.59 109.29 1910.15 112.83"/><circle class="cls-6" cx="1716" cy="155.05" r="3"/><path class="cls-3" d="M1218.18,84.49,1309.7,37a66.05,66.05,0,0,0-12.88-4.44L1222,71.4A64.69,64.69,0,0,0,1218.18,84.49Z"/><path class="cls-3" d="M1342.1,70.71c-.68-1.63-1.42-3.25-2.25-4.85-.7-1.35-1.46-2.66-2.25-3.94l-115,59.75c.6,1.38,1.23,2.76,1.94,4.11.82,1.6,1.73,3.13,2.66,4.63Z"/><path class="cls-3" d="M1271,31.79a65.25,65.25,0,0,0-34.72,18Z"/><path class="cls-3" d="M1329.93,51.74a64.76,64.76,0,0,0-7.72-7.12l-105,54.51a63.58,63.58,0,0,0,1.37,10.41Z"/><path class="cls-3" d="M1290.33,160.32a65.12,65.12,0,0,0,39.91-20.73Z"/><path class="cls-3" d="M1235,140.51a64.61,64.61,0,0,0,7.85,7.06l104.31-54.18a64.47,64.47,0,0,0-1.26-10.48Z"/><path class="cls-3" d="M1255.56,155.11a64.66,64.66,0,0,0,10.47,3.67L1343,118.83a65,65,0,0,0,3-10.68Z"/><polyline class="cls-8" points="1833.73 1.05 1815.86 29.97 1887.08 73.97 1920 20.68"/><polyline class="cls-5" points="1866.04 1.05 1878.27 52.81 1882.82 55.63 1885.94 50.58 1874.24 1.05"/><polyline class="cls-5" points="1845.62 1.05 1854.36 38.04 1863.96 43.97 1853.82 1.05"/><polyline class="cls-5" points="1886.46 1.05 1894.78 36.27 1900.71 26.67 1894.66 1.05"/><polyline class="cls-5" points="1809.76 1.05 1805.54 7.88 1816.14 14.43 1812.98 1.05"/><polyline class="cls-5" points="1825.21 1.05 1830.45 23.27 1840.05 29.2 1833.4 1.05"/><polyline class="cls-5" points="1906.88 1.05 1909.55 12.36 1915.48 2.76 1915.08 1.05"/><rect class="cls-10" x="1520.17" y="55.82" width="81" height="81" transform="translate(160.93 793.24) rotate(-30)"/><polyline class="cls-11" points="1634.86 1.05 1669.85 61.65 1739.99 21.15 1728.39 1.05"/><rect class="cls-10" x="1640.62" y="17.37" width="54.33" height="54.33" transform="translate(201.17 839.86) rotate(-30)"/><path class="cls-2" d="M1479.18,15.82c0,.12,0,.24,0,.35a32.65,32.65,0,0,0,65.3,0c0-.11,0-.23,0-.35Z"/><rect class="cls-2" x="1765.66" y="28.83" width="31.71" height="8.05" transform="translate(85.83 -514.44) rotate(16.83)"/><rect class="cls-2" x="1765.82" y="29.14" width="31.71" height="8.05" transform="translate(2329.33 -1662.58) rotate(106.83)"/><rect class="cls-6" x="1699.99" y="195.78" width="5.88" height="23.15" transform="matrix(0.29, -0.96, 0.96, 0.29, 1011.36, 1777.29)"/><rect class="cls-6" x="1691.48" y="204.64" width="23.15" height="5.88" transform="matrix(-0.29, 0.96, -0.96, -0.29, 2394.87, -1362.4)"/><polygon class="cls-5" points="1762.31 155.3 1742.17 149.12 1743.72 143.93 1763.86 150.11 1762.31 155.3"/><polygon class="cls-5" points="1747.52 159.25 1753.61 138.82 1758.73 140.39 1752.64 160.82 1747.52 159.25"/><polygon class="cls-5" points="1282.31 321.3 1262.17 315.12 1263.72 309.93 1283.86 316.11 1282.31 321.3"/><polygon class="cls-5" points="1267.52 325.25 1273.61 304.82 1278.73 306.39 1272.64 326.82 1267.52 325.25"/><rect class="cls-2" x="1784.55" y="120.31" width="67.9" height="6" transform="translate(757.76 1605.53) rotate(-58.29)"/><rect class="cls-2" x="1773.49" y="113.48" width="67.9" height="6" transform="translate(758.33 1592.88) rotate(-58.29)"/><rect class="cls-2" x="1762.43" y="106.65" width="67.9" height="6" transform="translate(758.89 1580.23) rotate(-58.29)"/><rect class="cls-2" x="1751.37" y="99.81" width="67.9" height="6" transform="translate(759.46 1567.58) rotate(-58.29)"/><rect class="cls-2" x="1740.31" y="92.98" width="67.9" height="6" transform="translate(760.03 1554.93) rotate(-58.29)"/><rect class="cls-6" x="1398.65" y="97.48" width="31.71" height="8.05" transform="translate(89.99 -405.23) rotate(16.83)"/><rect class="cls-6" x="1398.81" y="97.8" width="31.71" height="8.05" transform="translate(1921.76 -1222.76) rotate(106.83)"/><polyline class="cls-2" points="1247.33 1.05 1133.77 56.67 1136.41 62.06 1260.97 1.05"/><polyline class="cls-2" points="1217.77 1.05 1128.06 44.99 1130.69 50.38 1231.41 1.05"/><polyline class="cls-2" points="1188.22 1.05 1122.34 33.32 1124.98 38.71 1201.86 1.05"/><polyline class="cls-2" points="1158.66 1.05 1116.62 21.64 1119.26 27.03 1172.3 1.05"/><polyline class="cls-2" points="1129.11 1.05 1110.9 9.97 1113.54 15.36 1142.75 1.05"/><circle class="cls-6" cx="1633.58" cy="139.74" r="2.08"/><circle class="cls-6" cx="1654.08" cy="160.24" r="2.08"/><circle class="cls-6" cx="1653.04" cy="153.99" r="2.08"/><circle class="cls-6" cx="1649.91" cy="148.08" r="2.08"/><circle class="cls-6" cx="1645.4" cy="143.56" r="2.08"/><circle class="cls-6" cx="1639.84" cy="140.78" r="2.08"/><circle class="cls-6" cx="1633.58" cy="180.74" r="2.08"/><circle class="cls-6" cx="1613.08" cy="160.24" r="2.08"/><circle class="cls-6" cx="1614.13" cy="166.49" r="2.08"/><circle class="cls-6" cx="1617.25" cy="172.4" r="2.08"/><circle class="cls-6" cx="1621.77" cy="176.92" r="2.08"/><circle class="cls-6" cx="1627.33" cy="179.7" r="2.08"/><circle class="cls-6" cx="1654.08" cy="160.24" r="2.08"/><circle class="cls-6" cx="1633.58" cy="180.74" r="2.08"/><circle class="cls-6" cx="1639.84" cy="179.7" r="2.08"/><circle class="cls-6" cx="1645.75" cy="176.57" r="2.08"/><circle class="cls-6" cx="1650.26" cy="172.05" r="2.08"/><circle class="cls-6" cx="1653.04" cy="166.49" r="2.08"/><circle class="cls-6" cx="1613.08" cy="160.24" r="2.08"/><circle class="cls-6" cx="1633.58" cy="139.74" r="2.08"/><circle class="cls-6" cx="1627.33" cy="140.78" r="2.08"/><circle class="cls-6" cx="1621.42" cy="143.91" r="2.08"/><circle class="cls-6" cx="1616.91" cy="148.43" r="2.08"/><circle class="cls-6" cx="1614.13" cy="153.99" r="2.08"/><circle class="cls-6" cx="1413.67" cy="73.42" r="4.6"/><circle class="cls-6" cx="1458.9" cy="118.66" r="4.6"/><circle class="cls-6" cx="1456.6" cy="104.86" r="4.6"/><circle class="cls-6" cx="1449.7" cy="91.82" r="4.6"/><circle class="cls-6" cx="1439.74" cy="81.86" r="4.6"/><circle class="cls-6" cx="1427.47" cy="75.72" r="4.6"/><circle class="cls-6" cx="1413.67" cy="163.89" r="4.6"/><circle class="cls-6" cx="1368.44" cy="118.66" r="4.6"/><circle class="cls-6" cx="1370.74" cy="132.46" r="4.6"/><circle class="cls-6" cx="1377.64" cy="145.49" r="4.6"/><circle class="cls-6" cx="1387.6" cy="155.46" r="4.6"/><circle class="cls-6" cx="1399.87" cy="161.59" r="4.6"/><circle class="cls-6" cx="1458.9" cy="118.66" r="4.6"/><circle class="cls-6" cx="1413.67" cy="163.89" r="4.6"/><circle class="cls-6" cx="1427.47" cy="161.59" r="4.6"/><circle class="cls-6" cx="1440.5" cy="154.69" r="4.6"/><circle class="cls-6" cx="1450.47" cy="144.72" r="4.6"/><circle class="cls-6" cx="1456.6" cy="132.46" r="4.6"/><circle class="cls-6" cx="1368.44" cy="118.66" r="4.6"/><circle class="cls-6" cx="1413.67" cy="73.42" r="4.6"/><circle class="cls-6" cx="1399.87" cy="75.72" r="4.6"/><circle class="cls-6" cx="1386.84" cy="82.62" r="4.6"/><circle class="cls-6" cx="1376.87" cy="92.59" r="4.6"/><circle class="cls-6" cx="1370.74" cy="104.86" r="4.6"/><polyline class="cls-9" points="1383.28 1.05 1386.1 8.66 1381.29 9.92 1378.01 1.05"/><polyline class="cls-9" points="1398.44 1.05 1380.88 5.65 1382.36 9.64 1407.45 3.07 1415.16 23.92 1419.97 22.66 1411.97 1.05"/><polygon class="cls-9" points="1446.12 15.82 1416.23 23.64 1414.75 19.65 1444.65 11.83 1446.12 15.82"/><polygon class="cls-9" points="1450.37 41.8 1441.17 16.97 1444.97 12.71 1454.17 37.55 1450.37 41.8"/><polyline class="cls-9" points="1368.96 1.05 1377.41 23.86 1372.6 25.12 1363.69 1.05"/><polygon class="cls-9" points="1403.56 17.02 1373.67 24.84 1372.19 20.85 1402.08 13.03 1403.56 17.02"/><polygon class="cls-9" points="1406.47 39.12 1397.28 14.29 1402.08 13.03 1411.28 37.87 1406.47 39.12"/><polygon class="cls-9" points="1437.43 31.02 1407.54 38.84 1406.06 34.85 1435.96 27.03 1437.43 31.02"/><polygon class="cls-9" points="1440.67 54.01 1431.48 29.17 1436.29 27.92 1445.48 52.75 1440.67 54.01"/><circle class="cls-5" cx="1818.5" cy="61.55" r="3.5"/><circle class="cls-12" cx="1314.61" cy="10.16" r="6"/><circle class="cls-12" cx="1602.17" cy="19.82" r="6"/><circle class="cls-12" cx="1754.67" cy="62.32" r="4.5"/><circle class="cls-12" cx="1873" cy="86.05" r="6"/><polygon class="cls-9" points="1705.22 116.31 1686.73 121.13 1686.17 117.59 1704.66 112.77 1705.22 116.31"/><polygon class="cls-9" points="1701.63 93.5 1705.1 115.52 1702.13 116.3 1698.65 94.27 1701.63 93.5"/><polygon class="cls-9" points="1717.71 92.99 1699.21 97.81 1698.65 94.27 1717.15 89.45 1717.71 92.99"/><polygon class="cls-9" points="1714.11 70.17 1717.58 92.2 1714.61 92.98 1711.14 70.95 1714.11 70.17"/><polygon class="cls-9" points="1733.08 68.99 1714.58 73.81 1711.8 70.78 1730.29 65.95 1733.08 68.99"/><polygon class="cls-9" points="1715.52 123.64 1697.02 128.46 1696.46 124.92 1714.96 120.1 1715.52 123.64"/><polygon class="cls-9" points="1711.92 100.83 1715.39 122.85 1712.42 123.63 1708.95 101.6 1711.92 100.83"/><polygon class="cls-9" points="1728 100.32 1709.51 105.14 1708.95 101.6 1727.44 96.78 1728 100.32"/><polygon class="cls-9" points="1724.4 77.5 1727.88 99.53 1724.9 100.31 1721.43 78.28 1724.4 77.5"/><polygon class="cls-9" points="1741.15 76.83 1722.65 81.65 1722.09 78.11 1740.59 73.29 1741.15 76.83"/><polygon class="cls-2" points="87.17 178.38 0.05 178.38 0 186.05 87.55 185.77 91.05 182.26 87.17 178.38"/><polygon class="cls-2" points="39.39 130.6 31.61 122.82 23.83 130.6 39.39 130.6"/><polygon class="cls-2" points="0 196.77 0 204.16 69.16 204.16 76.54 196.77 0 196.77"/><polygon class="cls-2" points="0 160 0 167.38 76.17 167.38 68.78 160 0 160"/><polygon class="cls-2" points="23.45 233.55 31.61 241.71 39.77 233.55 23.45 233.55"/><polygon class="cls-2" points="50.77 222.54 58.15 215.16 5.07 215.16 12.45 222.54 50.77 222.54"/><polygon class="cls-2" points="12.83 141.61 5.44 148.99 57.78 148.99 50.39 141.61 12.83 141.61"/><path class="cls-5" d="M229.42,22.89l28,35a28.22,28.22,0,0,0,.8-5.85l-22.88-28.6A28.41,28.41,0,0,0,229.42,22.89Z"/><path class="cls-5" d="M245.75,74.49c.64-.43,1.26-.88,1.87-1.36s1-.85,1.49-1.29L214,27.89q-.81.55-1.59,1.17c-.61.49-1.18,1-1.74,1.53Z"/><path class="cls-5" d="M256.31,40.91A28.47,28.47,0,0,0,252,33.46a28,28,0,0,0-6.33-5.81Z"/><path class="cls-5" d="M252.8,67.71a27.38,27.38,0,0,0,2.38-3.89L223.1,23.73a28.09,28.09,0,0,0-4.31,1.47Z"/><path class="cls-5" d="M203.22,60a28.27,28.27,0,0,0,12.2,15.25Z"/><path class="cls-5" d="M207,34.77a27.61,27.61,0,0,0-2.34,3.94l31.88,39.84a28.69,28.69,0,0,0,4.35-1.42Z"/><path class="cls-5" d="M202.5,44.77a28.4,28.4,0,0,0-.68,4.77l23.51,29.38a27.58,27.58,0,0,0,4.8.38Z"/><polyline class="cls-7" points="182.95 1.05 215.78 47.03 277.63 2.88 276.33 1.05"/><polyline class="cls-8" points="131.86 418.05 166.07 362.75 94.86 318.76 50.86 389.97 95.26 418.05"/><polygon class="cls-5" points="88.29 290.59 85.48 295.15 113.27 412.81 117.82 415.63 120.94 410.58 93.33 293.71 88.29 290.59"/><polygon class="cls-5" points="155.46 332.1 159.32 348.45 165.57 338.34 155.46 332.1"/><polygon class="cls-5" points="70.7 319.06 89.36 398.04 98.96 403.97 76.64 309.46 70.7 319.06"/><polygon class="cls-5" points="107.64 302.55 129.78 396.27 135.71 386.67 117.24 308.48 107.64 302.55"/><polygon class="cls-5" points="40.54 367.88 51.14 374.43 47.09 357.27 40.54 367.88"/><polygon class="cls-5" points="55.93 342.96 65.45 383.27 75.05 389.2 61.86 333.37 55.93 342.96"/><polygon class="cls-5" points="131.55 317.32 144.55 372.36 150.48 362.76 141.15 323.25 131.55 317.32"/><path class="cls-9" d="M289.59,418.05a2.58,2.58,0,0,1,4.68-2.19,2.55,2.55,0,0,1,0,2.19"/><circle class="cls-9" cx="305.28" cy="410.47" r="2.58"/><path class="cls-9" d="M257.07,418.05a2.57,2.57,0,0,1,4.86-.72,2.33,2.33,0,0,1,.23.72"/><circle class="cls-9" cx="272.94" cy="411.93" r="2.58"/><circle class="cls-9" cx="286.27" cy="405.41" r="2.58"/><circle class="cls-9" cx="299.6" cy="398.88" r="2.58"/><path class="cls-9" d="M225.51,418.05a2.74,2.74,0,0,1,.63-.44A2.58,2.58,0,0,1,229,418"/><circle class="cls-9" cx="240.61" cy="413.4" r="2.58"/><circle class="cls-9" cx="253.94" cy="406.87" r="2.58"/><circle class="cls-9" cx="267.27" cy="400.34" r="2.58"/><circle class="cls-9" cx="280.59" cy="393.82" r="2.58"/><circle class="cls-9" cx="293.92" cy="387.29" r="2.58"/><rect class="cls-11" x="201.17" y="200.82" width="81" height="81" transform="translate(-88.28 153.17) rotate(-30)"/><rect class="cls-10" x="197.62" y="252.37" width="54.33" height="54.33" transform="translate(-109.65 149.85) rotate(-30)"/><path class="cls-2" d="M172.18,374.05c0,.12,0,.23,0,.35a32.65,32.65,0,1,0,65.3,0c0-.12,0-.23,0-.35Z"/><rect class="cls-9" x="82.66" y="12.83" width="31.71" height="8.05" transform="translate(9.1 -27.8) rotate(16.83)"/><rect class="cls-9" x="82.82" y="13.14" width="31.71" height="8.05" transform="translate(143.69 -72.31) rotate(106.83)"/><rect class="cls-2" x="3.66" y="393.83" width="31.71" height="8.05" transform="translate(116.04 11.39) rotate(16.83)"/><rect class="cls-2" x="3.82" y="394.14" width="31.71" height="8.05" transform="translate(406.49 494.62) rotate(106.83)"/><polygon class="cls-5" points="27.31 96.3 7.17 90.12 8.72 84.93 28.86 91.11 27.31 96.3"/><polygon class="cls-5" points="12.52 100.25 18.61 79.82 23.73 81.39 17.64 101.82 12.52 100.25"/><rect class="cls-9" x="79.62" y="137.83" width="31.71" height="8.05" transform="translate(27.24 -14.93) rotate(10.42)"/><rect class="cls-9" x="79.82" y="138.12" width="31.71" height="8.05" transform="matrix(-0.18, 0.98, -0.98, -0.18, 252.79, 73.77)"/><polygon class="cls-2" points="61.83 1.05 54.68 1.05 112 89.43 117.03 86.16 61.83 1.05"/><polygon class="cls-2" points="46.34 1.05 39.18 1.05 101.09 96.5 106.13 93.24 46.34 1.05"/><polygon class="cls-2" points="30.84 1.05 23.69 1.05 90.19 103.58 95.22 100.31 30.84 1.05"/><polygon class="cls-2" points="15.35 1.05 8.19 1.05 79.28 110.65 84.31 107.38 15.35 1.05"/><polygon class="cls-2" points="0 1.28 0 12.31 68.37 117.72 73.41 114.46 0 1.28"/><rect class="cls-6" x="145.65" y="284.48" width="31.71" height="8.05" transform="translate(90.46 -34.4) rotate(16.83)"/><rect class="cls-6" x="145.81" y="284.8" width="31.71" height="8.05" transform="translate(484.93 217.71) rotate(106.83)"/><circle class="cls-9" cx="105.67" cy="207.56" r="3.74"/><circle class="cls-9" cx="142.43" cy="244.32" r="3.74"/><circle class="cls-9" cx="140.56" cy="233.11" r="3.74"/><circle class="cls-9" cx="134.95" cy="222.52" r="3.74"/><circle class="cls-9" cx="126.85" cy="214.42" r="3.74"/><circle class="cls-9" cx="116.88" cy="209.43" r="3.74"/><circle class="cls-9" cx="105.67" cy="281.09" r="3.74"/><circle class="cls-9" cx="68.91" cy="244.32" r="3.74"/><circle class="cls-9" cx="70.78" cy="255.54" r="3.74"/><circle class="cls-9" cx="76.38" cy="266.13" r="3.74"/><circle class="cls-9" cx="84.48" cy="274.23" r="3.74"/><circle class="cls-9" cx="94.45" cy="279.22" r="3.74"/><circle class="cls-9" cx="142.43" cy="244.32" r="3.74"/><circle class="cls-9" cx="105.67" cy="281.09" r="3.74"/><circle class="cls-9" cx="116.88" cy="279.22" r="3.74"/><circle class="cls-9" cx="127.48" cy="273.61" r="3.74"/><circle class="cls-9" cx="135.58" cy="265.51" r="3.74"/><circle class="cls-9" cx="140.56" cy="255.54" r="3.74"/><circle class="cls-9" cx="68.91" cy="244.32" r="3.74"/><circle class="cls-9" cx="105.67" cy="207.56" r="3.74"/><circle class="cls-9" cx="94.45" cy="209.43" r="3.74"/><circle class="cls-9" cx="83.86" cy="215.04" r="3.74"/><circle class="cls-9" cx="75.76" cy="223.14" r="3.74"/><circle class="cls-9" cx="70.78" cy="233.11" r="3.74"/><circle class="cls-6" cx="27.22" cy="286.43" r="1.94"/><circle class="cls-6" cx="46.32" cy="305.54" r="1.94"/><circle class="cls-6" cx="45.35" cy="299.71" r="1.94"/><circle class="cls-6" cx="42.43" cy="294.2" r="1.94"/><circle class="cls-6" cx="38.22" cy="289.99" r="1.94"/><circle class="cls-6" cx="33.04" cy="287.4" r="1.94"/><circle class="cls-6" cx="27.22" cy="324.64" r="1.94"/><circle class="cls-6" cx="8.11" cy="305.54" r="1.94"/><circle class="cls-6" cx="9.08" cy="311.37" r="1.94"/><circle class="cls-6" cx="12" cy="316.87" r="1.94"/><circle class="cls-6" cx="16.21" cy="321.08" r="1.94"/><circle class="cls-6" cx="21.39" cy="323.67" r="1.94"/><circle class="cls-6" cx="46.32" cy="305.54" r="1.94"/><circle class="cls-6" cx="27.22" cy="324.64" r="1.94"/><circle class="cls-6" cx="33.04" cy="323.67" r="1.94"/><circle class="cls-6" cx="38.55" cy="320.75" r="1.94"/><circle class="cls-6" cx="42.76" cy="316.55" r="1.94"/><circle class="cls-6" cx="45.35" cy="311.37" r="1.94"/><circle class="cls-6" cx="8.11" cy="305.54" r="1.94"/><circle class="cls-6" cx="27.22" cy="286.43" r="1.94"/><circle class="cls-6" cx="21.39" cy="287.4" r="1.94"/><circle class="cls-6" cx="15.88" cy="290.32" r="1.94"/><circle class="cls-6" cx="11.67" cy="294.53" r="1.94"/><circle class="cls-6" cx="9.08" cy="299.71" r="1.94"/><polygon class="cls-9" points="147.58 63.72 149.9 42.3 153.91 43.19 151.59 64.61 147.58 63.72"/><polygon class="cls-9" points="173.42 69.45 148.47 63.91 148.84 60.47 173.79 66.01 173.42 69.45"/><polygon class="cls-9" points="167.46 86.54 169.78 65.12 173.79 66.01 171.47 87.43 167.46 86.54"/><polygon class="cls-9" points="193.3 92.27 168.35 86.74 168.72 83.29 193.67 88.83 193.3 92.27"/><polygon class="cls-9" points="186.9 112.67 189.22 91.25 193.59 89.59 191.27 111.01 186.9 112.67"/><polygon class="cls-9" points="135.58 71.47 137.9 50.05 141.91 50.94 139.59 72.36 135.58 71.47"/><polygon class="cls-9" points="161.42 77.2 136.47 71.66 136.84 68.22 161.79 73.76 161.42 77.2"/><polygon class="cls-9" points="155.46 94.29 157.78 72.87 161.79 73.76 159.47 95.18 155.46 94.29"/><polygon class="cls-9" points="181.3 100.02 156.35 94.49 156.72 91.04 181.68 96.58 181.3 100.02"/><polygon class="cls-9" points="175.26 117.87 177.58 96.45 181.59 97.34 179.27 118.76 175.26 117.87"/><polygon class="cls-6" points="156.63 159.76 137.23 147 139.97 143.62 159.37 156.37 156.63 159.76"/><polygon class="cls-6" points="174.28 137.95 157.24 159.01 154.12 156.96 171.16 135.9 174.28 137.95"/><polygon class="cls-6" points="187.83 152.04 168.43 139.28 171.16 135.9 190.56 148.66 187.83 152.04"/><polygon class="cls-6" points="205.48 130.23 188.43 151.29 185.32 149.24 202.36 128.18 205.48 130.23"/><polygon class="cls-6" points="221.98 146.38 202.58 133.62 203.05 128.64 222.45 141.4 221.98 146.38"/><polygon class="cls-6" points="158.4 175.01 139 162.25 141.74 158.87 161.13 171.63 158.4 175.01"/><polygon class="cls-6" points="176.05 153.2 159 174.26 155.89 172.21 172.93 151.15 176.05 153.2"/><polygon class="cls-6" points="189.59 167.29 170.19 154.53 172.93 151.15 192.33 163.91 189.59 167.29"/><polygon class="cls-6" points="207.24 145.48 190.2 166.54 187.08 164.49 204.13 143.43 207.24 145.48"/><polygon class="cls-6" points="221.48 160.03 202.08 147.27 204.82 143.89 224.22 156.65 221.48 160.03"/><circle class="cls-6" cx="248.5" cy="210.55" r="3.5"/><circle class="cls-12" cx="160" cy="211.05" r="6"/><circle class="cls-12" cx="230" cy="360.05" r="6"/><circle class="cls-6" cx="49.17" cy="264.82" r="6"/><circle class="cls-6" cx="191.5" cy="338.55" r="4.5"/><circle class="cls-6" cx="11.28" cy="346.93" r="3"/></g></g></svg>