<svg xmlns="http://www.w3.org/2000/svg" viewBox="0 0 561.62 901.57"><defs><style>.cls-1{fill:#062e42;}.cls-2{fill:#05222d;}.cls-3{fill:#04181e;}.cls-4{fill:#e4b363;}.cls-5{fill:#0c4860;}.cls-6{fill:#ef6461;}</style></defs><title>left-buildings_1</title><g id="Layer_2" data-name="Layer 2"><g id="Layer_10" data-name="Layer 10"><g id="big-buildings"><g id="left"><polygon class="cls-1" points="259.03 901.57 0.27 901.55 127.24 169.55 325.43 310.31 259.03 901.57"/><path class="cls-1" d="M235.41,272l-178-67L68.51,0S140.58,17,180,52.65c48.08,43.43,73.35,96.58,73.35,96.58Z"/><path class="cls-2" d="M0,901.57l122,0S114.06,675.62,114.06,553c0-168.32,13.18-383.49,13.18-383.49l-127,70.2Z"/><polygon class="cls-3" points="0 901.57 47.56 901.57 68.51 0 0.27 92.37 0 901.57"/><path class="cls-4" d="M217,163.71,93.34,78.82V38S131,50.73,162.85,74.22c36.34,26.76,60.46,60.09,60.46,60.09Z"/><polygon class="cls-1" points="92.35 51.8 91.91 71.24 224.25 162.66 92.35 51.8"/><polygon class="cls-1" points="531.46 901.57 399.99 901.57 386.66 785.83 561.62 742.08 531.46 901.57"/><polygon class="cls-2" points="271.39 901.57 399.99 901.57 386.66 785.83 271.39 728.76 271.39 901.57"/><polygon class="cls-5" points="386.66 785.83 271.39 728.76 446.46 706.47 561.62 742.08 386.66 785.83"/><polygon class="cls-1" points="498.03 740.25 394.61 766.26 350.9 735.74 440.19 720.77 498.03 740.25"/><polygon class="cls-2" points="389.16 762.45 351.42 735.61 383.72 730.24 389.16 762.45"/><path class="cls-1" d="M353.44,901.57H209.06V381.86s181.83,43.85,184.68,90.4C401.6,600.43,353.44,901.57,353.44,901.57Z"/><path class="cls-2" d="M150.93,901.56h58.13V381.86l-63.69,31.22s-8.21,29-8.21,151.71C137.16,706.67,150.93,901.56,150.93,901.56Z"/><polygon class="cls-6" points="259.06 464.19 231.36 453.85 231.36 426.16 259.06 436.49 259.06 464.19"/><polygon class="cls-6" points="259.06 508.61 231.36 498.28 231.36 470.58 259.06 480.92 259.06 508.61"/><polygon class="cls-6" points="259.06 553.04 231.36 542.71 231.36 515.01 259.06 525.35 259.06 553.04"/><path class="cls-6" d="M336.43,584.82l-60.94-23.1V534s54.1,10.15,63.79,24.18C343.21,563.91,336.43,584.82,336.43,584.82Z"/><polygon class="cls-6" points="296.31 867.12 246.47 850.52 246.47 822.83 296.31 839.42 296.31 867.12"/><polygon class="cls-6" points="259.06 641.9 231.36 631.56 231.36 603.87 259.06 614.2 259.06 641.9"/><polygon class="cls-6" points="339.28 679.1 311.59 668.76 311.59 641.07 339.28 651.4 339.28 679.1"/><polygon class="cls-6" points="339.28 719.13 311.59 708.79 311.59 681.1 339.28 691.43 339.28 719.13"/><polygon class="cls-6" points="339.28 804.29 311.59 793.95 311.59 766.26 339.28 776.6 339.28 804.29"/><polygon class="cls-6" points="303.19 747.77 275.49 737.44 275.49 709.74 303.19 720.08 303.19 747.77"/></g></g></g></g></svg>