<svg xmlns="http://www.w3.org/2000/svg" viewBox="0 0 538.91 994.08"><defs><style>.cls-1{fill:#062e42;}.cls-2{fill:#05222d;}.cls-3{fill:#04181e;}.cls-4{fill:#e4b363;}.cls-5{fill:#0c4860;}</style></defs><title>right-buildings_1</title><g id="Layer_2" data-name="Layer 2"><g id="Layer_10" data-name="Layer 10"><g id="big-buildings"><g id="right"><polygon class="cls-1" points="487.13 993.89 253.04 993.89 195.69 64.13 321.11 0 327.22 164.81 387.69 146.71 393.81 299.9 478.69 269.81 487.13 993.89"/><path class="cls-2" d="M403.08,140.67l-82,32.36V0S408.9,23.5,408.9,52C408.9,86.47,403.08,140.67,403.08,140.67Z"/><path class="cls-2" d="M448.11,282.14l-60.4,24.44V146.72s68.35-31.22,76.1-.25C468.19,164,448.11,282.14,448.11,282.14Z"/><path class="cls-2" d="M538.91,994.08l-91.18-.1,31-724.08s59.82,9.24,59.82,25.71C538.51,473.37,538.91,994.08,538.91,994.08Z"/><path class="cls-1" d="M284.36,994H117.74L89.87,463.07s46.35-70.24,86.71-79.48c36.28-8.3,107.78,3.73,107.78,3.73Z"/><polygon class="cls-2" points="447.74 993.98 284.36 993.98 284.36 387.32 447.74 472.94 447.74 993.98"/><path class="cls-3" d="M464.64,994l-67.73-.08,4.25-433.24s87.15,10.91,96.2,50.46C525.2,732.81,464.64,994,464.64,994Z"/><polygon class="cls-1" points="345.42 993.89 396.91 993.89 401.16 560.64 345.42 616.21 345.42 993.89"/><polygon class="cls-4" points="335.55 484.85 309.51 474.78 309.51 434.05 335.55 444.12 335.55 484.85"/><polygon class="cls-4" points="364.86 516.27 338.9 485.82 338.82 445.67 364.86 463.63 364.86 516.27"/><polygon class="cls-4" points="394.06 529.05 368.02 517.69 368.02 464.79 394.06 481.56 394.06 529.05"/><polygon class="cls-4" points="422.95 539.76 396.91 529.69 396.91 482.4 422.95 499.03 422.95 539.76"/><polygon class="cls-3" points="243.89 993.97 129.81 993.97 129.81 832.95 243.89 798.55 243.89 993.97"/><polygon class="cls-2" points="17.88 993.97 129.81 993.97 129.81 833.35 0.01 827.17 17.88 993.97"/><path class="cls-5" d="M0,826.69s99.58-38.27,144.52-40.93c96-5.69,99.36,12.71,99.36,12.71L129.81,832.86Z"/><path class="cls-5" d="M46.18,752.75s40.79-30,80.39-35.38c59.33-8.12,80.4,11.68,80.4,11.68l-95,33Z"/><polygon class="cls-3" points="206.97 798.47 111.97 821.79 111.97 762.03 206.97 729.05 206.97 798.47"/><polygon class="cls-2" points="54.94 820.08 111.97 821.79 111.97 762.03 46.18 752.75 54.94 820.08"/></g></g></g></g></svg>