<svg xmlns="http://www.w3.org/2000/svg" viewBox="0 0 1920.27 397.08"><defs><style>.cls-1{fill:#1b1d1e;}.cls-2{fill:#141414;}</style></defs><title>small-buildings_1</title><g id="Layer_2" data-name="Layer 2"><g id="Layer_10" data-name="Layer 10"><g id="small-buildings"><path id="buildings_2" data-name="buildings 2" class="cls-1" d="M1920.27,118.83l-21-.41.12-6-9.67-.19.41-20.89v-.89l.08-3.8-10.37-.2.53-26.89-37.15,3.62-.52,26.34-10.29-.2-.43,21.78-8.89-.18-.12,6-5.31-.1L1815,250.61l-11.64-.22.82-41.71-26.61-.52.33-16.77-6.79-.13.31-16.12-6.67-.13.16-8.28-14.35-.28-.16,8.28-11.41-.22-.31,16.12-10.28-.2-.32,16.76-8-.15-1.8,91.77-12.43-.25,1.53-78.18-57.22-1.12-1.75,89.52-8.07-.16.82-42-1.91,0,.24-12.19-4.48-.09.28-14.41-5.25-.11.17-8.32-20.9-.4-.68,34.92-32-.63,1.88-96-8.94-.18.81-41.32-3.79-.07L1567.3,91l-7.62-.15.24-12.09-14.51-11.69-3.28,11.34-.23,12.09-7.79-.15-.72,36.77-5.17-.1-.81,41.32-8.93-.18-1.87,96-17.82-.35,1.72-87.86-104.37-2-1.76,89.72-9.91-.19-.39-98.77a19.31,19.31,0,0,0-8.76-35.33l-.22-32.53-.69,0-2.13,32.49a19.31,19.31,0,0,0-10,35.08l-6.61,135.51-6.42-.13.73-37v-.51l.91-46.65-4.18-.08.84-43.09-36.74-.72-1.75,89.74-30.51-.59-1.22,62.73-10.27-.2,4.26-217.93-8.65-.17.72-36.58-7.81-.15.18-9-12.87-.25.15-7.59-24.93-.49-.14,7.59-11.84-.23-.17,9-9.88-.19-.72,36.58-7.87-.16-4.26,217.93-5.84-.11,2.23-114v-.14l1.23-62.76-9.09-.18.46-23.24-4.73-.09-2.11-4.42.19-9.76-24.51-.48-2.08,14.1-5.17-.1-.46,23.24-8-.15-1.23,62.75-7.55-.15.76-38.77-15.94-.31-.75,38.77-10.14-.2-4.23-122.87-10.07-.53L1076,62l-13-.59-.87-23-2.58.27-.39-4.65s-4.31-4.07-9.84-4.07L1049,0h-1.55l.06,29.92c-5.65,0-9.5,4.63-9.5,4.63l-.33,5.16-2.4,0L1035,62.12l-12.91.8L1021,82.42l-8,.56-9.91,214.79-22.1,5L983.56,112l-85.16.06L902,304.81,870.93,307,855.84,90.19l-4.48.31-.42-6-9.65.67-4.57-25.61-7.6,0-3.53-22.38-31.38,1.32-1.76,28.19-7.14.5-1.62,21.94-8.87.62.42,6-5.31.37L774.45,230l-6.83.48-2.9-41.61L743.38,190l-1.11-16-12,.47-1.12-16.09-6.66.47-.57-8.26-14.33,1,.58,8.26-11.38.8,1.12,16.08-10.25.72,1.17,16.73-8,.55,6.38,91.57-12.41.86-5.43-78-57.09,4,6.22,89.31-8.05.56-2.92-41.92-1.91.14L604.73,249l-4.46.31-1-14.38-5.24.37-.58-8.3-20.84,1.45L575,263.31l-32,2.23-6.67-95.78-8.91.62-2.87-41.23-3.78.26-2.56-36.69-7.6.53-.84-12.06L494.34,70.84l-2.25,11.58.84,12.07-7.78.54,2.56,36.69-5.16.36,2.87,41.23-8.91.62,6.67,95.78L465.4,271l-6.1-87.67-104.14,7.25,6.23,89.53-9.88.68-9.18-98.33A19.32,19.32,0,0,0,330.46,148l-3.11-32.38-.69,0,.77,32.54A19.32,19.32,0,0,0,320.61,184l5.47,135.55-6.4.44-2.57-36.89,0-.51-3.24-46.55-4.17.29-3-43L270,195.93l6.24,89.54-30.44,2.12,4.36,62.6-10.25.71L224.78,133.46l-8.63.6-2.54-36.5-7.79.54-.62-8.94-12.84.89-.52-7.58L167,84.2l.53,7.58-11.8.82.62,9-9.86.69L149,138.73l-7.85.55,15.14,217.45-5.83.4-7.92-113.76v-.14l-4.36-62.62-9.06.63-1.62-23.19-4.71.33-2.5-4.22-.68-9.73-24.45,1.7-.82,14.23-5.17.36,1.62,23.19-8,.56,4.36,62.61-7.53.53L76.9,208.92,61,210l2.69,38.68L.09,254,.27,397.08h1920Z"/><path id="buildings_1" data-name="buildings 1" class="cls-2" d="M1892.49,264.89,1891,280.63l-26.41-2.47L1854.38,388.1l-11-1,.91-10.41,2.54-27.13-12.36-1.16,1.35-14.43-5-.47,6.06-64.67L1823,267.5l1-10.12-.26,0-20-16.69-14.87-1.39L1787.47,254l-9.51-.89-1,10.12-5.32-.5-6,64.68-19.56-1.84L1744.73,340l-13.6-1.27-2.54,27.13-7.94-.74L1729,276l-10.86-1,2.84-30.25-11.7-18.18-14.56,15.72-2.83,30.25-12.16-1.13-8.34,89-2.24,23.94-9.45-.88,2.51-26.77,5.56-59.39h-.09l-14.54-25.17,1-11.2-29-2.72-1.41,15-16.15-1.52-1.86,19.79L1588.9,290l-5.57,59.39-5.48-.51,8.3-88.7,0-.32,4.26-45.45-8.57-.8,1.93-20.64L1568,191.46l-6.19,66.09-18-1.68-8.33,89L1533,371.65l-5.26-.49,2.79-29.84h0l4.51-48.21-8.71-.81.84-8.91-7.64-.72.52-5.63-48.26-4.52-.53,5.63-7.68-.72-.83,8.91-9.38-.88-4.52,48.21-8.53-.8,1.1-11.73-7.81-.73.7-7.44-13.43-1.26-.7,7.44-5.69-.53-1.1,11.73L1388.77,328l7.51-80.13h0a1.1,1.1,0,0,0,0-.18,17.33,17.33,0,1,0-34.5-3.24,1.15,1.15,0,0,1,0,.19h0l-7.51,80.13-17.42-1.63L1334.06,353l-4.58-.43,5.28-56.36.6-6.45-6.7-.63,1.83-19.47-14.43,1.14,1.92-20.49-1.38-.13-1.94,20.73-14.29,1.13-1.95,20.77-6.36-.6-5.27,56.37-5.16-.49,3.77-40.28-4.37-.41.85-9.05-5.74-.54.45-4.76-8.85-.83-.45,4.77-4.24-.4-.85,9.05-11.88-1.11-3.77,40.28-4-.38,8-84.95,7,.66.88-9.4-22.19-2.08,1.39-14.87-10.39-1,.51-5.43-22-2.06-.51,5.44-9.69-.91-1.39,14.87-23.4-2.19-.88,9.39,7,.65-8,85-5-.46,5.06-54.1-37.86-3.55-3,32.44-6.72-.63,11.33-121-55-5.15L1066.28,307l-6.7-.63-1.94,20.78h-.07l1.45-15.42,4.35-46.48,1.8-19.15,2.23-23.91-13.69-1.28,2.23-23.8L1023.27,194l-2.07,22.09-38.79,14.34-.73,7.8-14.38-1.35-1.79,19.15-29.3-2.74-4.35,46.48-3.83-.36,2.55-117.23-41.38.91.37,112.72-6.93-.65-5.16-174-7.22-.1-1.15-11.82-7-7.76-1.32-25.36-26.9,1,.39,24.2-6.85,9,.29,11.88-7.77.84,3.59,166.71-16.23-1.52-.68,23.35-12.84.39-3-32.44L752.87,283l5.07,54.1-5,.46-8-85L752,252l-.88-9.39-23.39,2.19-1.4-14.87-9.68.91-.51-5.44-22,2.06.51,5.43-10.39,1,1.39,14.87-22.18,2.08.88,9.4,7-.66,7.95,84.95-4,.38-3.77-40.28-11.88,1.11-.84-9.05-4.25.4-.45-4.77-8.84.83.44,4.76-5.74.54.85,9.05-4.37.41,3.77,40.28-5.15.49-5.28-56.37-6.36.6-1.95-20.77-14.29-1.13-1.94-20.73-1.38.13,1.92,20.49-14.42-1.14,1.82,19.47-6.7.63.61,6.45,5.27,56.36-4.57.43L585,323.18l-17.42,1.63L560,244.68h0a1.28,1.28,0,0,0,0-.19,17.33,17.33,0,0,0-34.5,3.24,1.1,1.1,0,0,1,0,.18h0L533,328l-24.66,2.31-1.1-11.73-5.7.53-.7-7.44L487.46,313l.69,7.44-7.81.73,1.1,11.73-8.53.8-4.51-48.21-9.38.88-.84-8.91-7.68.72-.52-5.63L401.71,277l.53,5.63-7.64.72.83,8.91-8.71.81,4.52,48.21h0l2.8,29.84-5.27.49-2.5-26.77-8.34-89-18,1.68-6.19-66.09L338,192.94l1.93,20.64-8.57.8,4.26,45.45,0,.32,8.31,88.7-5.49.51L332.92,290,316,291.56l-1.85-19.79L298,273.29l-1.4-15L267.64,261l1.05,11.2-14.54,25.17h-.1l5.57,59.39,2.5,26.77-9.45.88-2.24-23.94-8.34-89-12.15,1.13L227.1,242.3l-14.56-15.72-11.69,18.18L203.68,275l-10.86,1,8.34,89.05-7.94.74-2.54-27.13L177.08,340l-1.35-14.43-19.55,1.84-6.06-64.68-5.32.5-.94-10.12-9.51.89L133,239.27l-14.87,1.39-20,16.69-.25,0,.94,10.12-13.91,1.3,6,64.67-5,.47,1.35,14.43-12.36,1.16L79,387.34l-11,1L57.2,278.16l-26.4,2.47-1.47-15.74L0,268.9.27,397.08h1920l-.09-112.67V268.68Z"/></g></g></g></svg>