<?xml version="1.0" encoding="utf-8"?>
<!-- Generator: Adobe Illustrator 24.1.1, SVG Export Plug-In . SVG Version: 6.00 Build 0)  -->
<svg version="1.1" id="Capa_1" xmlns="http://www.w3.org/2000/svg" xmlns:xlink="http://www.w3.org/1999/xlink" x="0px" y="0px"
	 viewBox="0 0 294.9 289.5" style="enable-background:new 0 0 294.9 289.5;" xml:space="preserve">
<style type="text/css">
	.st0{fill:#FFFFFF;}
</style>
<g>
	<g>
		<polygon class="st0" points="5,30.6 5,140.2 147.5,272.8 289.9,140.2 289.9,30.6 147.5,144.8 		"/>
		<path d="M140.9,170.2c1.9,1.9,4.1,2.9,6.6,2.9s4.7-0.9,6.6-2.9l133.1-133c1.9-1.9,2.8-4.1,2.8-6.6s-1-4.7-2.8-6.6L272.8,9.7
			c-1.9-1.9-4.1-2.9-6.6-2.9c-2.5,0-4.7,0.9-6.6,2.9L147.5,121.9L35.3,9.7c-1.9-1.9-4.1-2.9-6.6-2.9c-2.5,0-4.7,0.9-6.6,2.9L7.9,24
			C5.9,25.9,5,28.1,5,30.6c0,2.5,1,4.7,2.9,6.6L140.9,170.2z"/>
		<path d="M272.8,119.3c-1.9-1.9-4.1-2.9-6.6-2.9c-2.5,0-4.7,0.9-6.6,2.9L147.5,231.6L35.3,119.3c-1.9-1.9-4.1-2.9-6.6-2.9
			c-2.5,0-4.7,0.9-6.6,2.9L7.9,133.6c-1.9,1.9-2.9,4.1-2.9,6.6c0,2.5,1,4.7,2.9,6.6l133,133c1.9,1.9,4.1,2.9,6.6,2.9s4.7-1,6.6-2.9
			l133.1-133c1.9-1.9,2.8-4.1,2.8-6.6c0-2.5-1-4.7-2.8-6.6L272.8,119.3z"/>
	</g>
</g>
</svg>
