<svg xmlns="http://www.w3.org/2000/svg" viewBox="0 0 28.48 27.57"><defs><style>.cls-1{fill:#fff;}</style></defs><title>arrow-down</title><g id="Layer_2" data-name="Layer 2"><g id="other"><g id="arrow-down"><path id="Path_459" data-name="Path 459" class="cls-1" d="M13.58,16.33a.91.91,0,0,0,1.28,0l0,0L28.2,3a.91.91,0,0,0,0-1.28l0,0L26.77.28a.9.9,0,0,0-1.27,0l0,0L14.24,11.5,3,.28a.9.9,0,0,0-1.27,0s0,0,0,0L.28,1.71A.9.9,0,0,0,.24,3l0,0Z"/><path id="Path_460" data-name="Path 460" class="cls-1" d="M26.77,11.25a.89.89,0,0,0-1.27-.05l0,.05L14.24,22.46,3,11.24a.9.9,0,0,0-1.27,0s0,0,0,0L.28,12.67a.9.9,0,0,0,0,1.27l0,.05,13.3,13.3a.91.91,0,0,0,1.28,0,.08.08,0,0,1,0,0L28.2,14a.91.91,0,0,0,0-1.28l0,0Z"/></g></g></g></svg>