<?xml version="1.0" encoding="iso-8859-1"?>
<!-- Generator: Adobe Illustrator 19.0.0, SVG Export Plug-In . SVG Version: 6.00 Build 0)  -->
<svg version="1.1" id="Capa_1" xmlns="http://www.w3.org/2000/svg" xmlns:xlink="http://www.w3.org/1999/xlink" x="0px" y="0px"
	 viewBox="0 0 496 496" style="enable-background:new 0 0 496 496;" xml:space="preserve">
<g>
	<g>
		<path d="M13.084,496h469.832l-30.376-96.176c-2.912-9.224-7.016-18.016-12.08-26.24l17.584-18.936l-8.104-5.16
			c-2.328-1.48-56.4-35.144-137.944-37.28V304.8c47.336-23.616,80-72.408,80-128.8v-10.528c15.4,15.032,42.584,34.528,80,34.528h8
			v-8c0-51.616-30.6-73.288-51.624-82.136c10.456-7.208,19.376-16.576,26.008-27.624c6.168-10.28,10.168-21.528,11.864-33.416
			L473.22,0h-26.488c-16.328,0-32.36,4.44-46.36,12.84c-14.72,8.832-26.552,21.608-34.232,36.96l-3.624,7.256
			C336.188,22.472,294.716,0,247.996,0c-79.4,0-144,64.6-144,144v32c0,56.392,32.664,105.184,80,128.8v7.4
			C102.452,314.344,48.38,348,46.052,349.488l-8.104,5.152l17.584,18.936c-5.064,8.224-9.168,17.016-12.08,26.248L13.084,496z
			 M121.22,480l4.416-30.92l28.72,30.92H121.22z M341.636,480l28.712-30.92l4.424,30.92H341.636z M461.084,480H390.94l-6.576-46.016
			l44.6-48.032c3.328,5.976,6.256,12.16,8.32,18.688L461.084,480z M329.548,329.16l-67.28,117.744l13.888,7.936l70.624-123.6
			c41.296,6.192,72,19.792,86.056,27.032L319.804,480H261.78l6.872-12.032l-13.888-7.936L243.356,480H221.78l86.84-151.96
			C315.82,328.152,322.788,328.56,329.548,329.16z M247.996,401.88l-48-84v-6.28c15.04,5.344,31.152,8.4,48,8.4s32.96-3.056,48-8.4
			v6.28L247.996,401.88z M463.668,183.6c-40.48-3.872-66.168-34.904-71.816-42.392c-0.096-5.08-0.464-10.096-1.08-15.04
			l15.128-5.048c0.848-0.28,1.656-0.648,2.488-0.952C416.724,121.664,459.468,131.808,463.668,183.6z M380.46,56.96
			c6.312-12.624,16.048-23.136,28.16-30.4C420.132,19.656,433.308,16,446.74,16h8.032l-4.368,30.56
			c-1.4,9.768-4.672,19-9.744,27.448c-9.032,15.048-23.176,26.392-39.824,31.944l-12.992,4.336
			c-3.248-13.472-8.352-26.192-15.096-37.896L380.46,56.96z M119.996,176v-32c0-70.576,57.424-128,128-128s128,57.424,128,128v32
			c0,5.256-0.416,10.408-1.032,15.496l-14.968-3.736V160c0-30.872-25.128-56-56-56h-112c-30.872,0-56,25.128-56,56v27.76
			l-14.968,3.744C120.412,186.408,119.996,181.256,119.996,176z M343.996,160v23.752L312.98,176
			c-42.504-10.624-87.472-10.624-129.968,0l-31.016,7.752V160c0-22.056,17.944-40,40-40h112
			C326.052,120,343.996,137.944,343.996,160z M124.012,207.24l62.872-15.72c39.968-9.968,82.248-9.968,122.216,0l62.872,15.72
			C357.98,262.736,307.78,304,247.996,304S138.012,262.736,124.012,207.24z M187.372,328.04L238.788,418l-35.432,62h-27.168
			L63.148,358.272C81.26,348.952,126.9,329.016,187.372,328.04z M58.708,404.648c2.064-6.536,4.992-12.72,8.32-18.696l44.6,48.032
			L105.052,480H34.908L58.708,404.648z"/>
	</g>
</g>
</svg>
