<svg xmlns="http://www.w3.org/2000/svg" viewBox="0 0 372.17 492.56"><defs><style>.cls-1{fill:#354347;}.cls-2{fill:#bda783;}.cls-3{fill:#43595e;}.cls-4{fill:#313638;}.cls-5{fill:#35494c;}</style></defs><g id="Layer_2" data-name="Layer 2"><g id="Website"><g id="bottom-left"><path class="cls-1" d="M0,492.56H114l48.3-86.3c9.58-17.7,19.66-35.13,29-52.94,5.64-10.68,11.48-21.31,17.56-31.79,8.08-13.92,15.39-28.28,23.16-42.38,3.88-7,8.85-13.52,11.48-21.26,1.32-3.92.16-5.49-3.84-6.2-6.67-1.18-13.25.36-19.9.2-19.08-.47-38.22-.06-57.29-.49-20.9-.47-41.79-1.12-62.67-.37-6.06.22-12.45-1.12-18.29,1.91-10,15.68-20.83,30.76-31.59,45.89v0C36.54,319.58,13.74,351,0,371.56"/><path class="cls-2" d="M165.68,249.52c4,1.47,8.08.42,12.12.09"/><path class="cls-2" d="M193.09,194.76a4.29,4.29,0,0,1-.77,2.61"/><path class="cls-1" d="M191.38,250.22c12.88.75,25.78.73,38.69.8,5.4,0,9.16-1.26,11.68-6.4,3.34-6.86,7.18-13.48,10.95-20.11,9.65-17,19.39-33.89,29.07-50.84,1.72-3,2.24-5.24-2.71-4.85-5.62.44-11.3.2-16.93.66-11.5,1-23.09-.4-34.49.78-14.06,1.46-28.58-1.7-42.22,4a3.34,3.34,0,0,0-.73,3.1c-6.68,7.67-12.2,16.2-18.23,24.36-2.1,2.85-4.68,5.49-4.83,9.36C154.29,223,146.11,234.3,138,245.63c-1.54,2.13-2.71,4.1,1.32,4.29,5.59.26,11.19.32,16.79.46"/><path class="cls-3" d="M177.8,249.61c11-16.4,20.36-33.8,30.58-50.68,2.08-3.44,3.49-7.27,9.39-6.78,5.44.45,5.28,2.09,3.17,5.69-5.19,8.86-10.46,17.67-15.7,26.51-4.1,6.94-8.13,13.91-12.32,20.79a8,8,0,0,0-1.54,5.08C186.81,251,182.27,251.2,177.8,249.61Z"/><path class="cls-3" d="M153,248.58c10.26-16.94,22.33-38,32.83-54.75,2.1-3.37,6.7-2.65,10-1.92,2.53.56.95,2.9,0,4.38-10.88,16.18-20,36.2-31,52.31"/><path class="cls-3" d="M210,249.31c-.42-.07-2.89,1.73-4.08-.45s1.18-3.51,2.2-5.21c9.53-15.91,19.26-31.71,28.25-47.92,2.79-5,6.3-4,10.18-3.7,2.2.17,1.81,1.84,1.26,3.19a55.61,55.61,0,0,1-3.07,6.59c-8.22,14-16.58,28-24.74,42.06C218.05,247.31,215.72,249.71,210,249.31Z"/><path class="cls-4" d="M83,248.56c-9.63,13.91-20.75,30.67-30.3,44.62L0,366.56v6c12.25-17.69,33.6-47.13,45.67-64.95L52.12,298c10.24-14.39,20.67-28.65,30-43.69h0c2-2.29,4.57-2.2,7.25-2.13,5.64.14,11.29.21,16.93.24,13.71.06,27.42-.07,41.13.16,18.14.32,36.26.89,54.42.55,12.49-.23,25,.39,37.49.48,3.79,0,4,1.18,2.31,4.25-6,10.72-11.69,21.57-17.6,32.32q-22.54,41-45.15,82C158.6,409,134.1,455.61,114,492.56H243c14.36-30.91,29.08-62.76,43.35-93.71,5.53-12,23.1-47.65,27.72-60l-8.83-10.4L327,288.74c-2.74-1-8.79-8.25-8.79-8.25l11-19.62L319,251.47c1.32-2,7.32-12.86,8.57-14.93a3.29,3.29,0,0,0,.05-3.88Q315.73,213.52,304,194.33c-.46-2.09.62-3.69,1.53-5.45,2.37-4.53,4.54-9.16,6.79-13.75-5.22-2.4-5.91,2.33-7.67,5-3,4.57-3,4.66-6,.35-1.82-2.68-3.37-5.52-5-8.32-1.42-2.42-2.5-5.44-5.22-6.51-4.09-1.6-3.74-3.64-2-6.91,10.5-19.38,22.13-38.11,32.82-57.38a45.22,45.22,0,0,1,5.6-8.59c2.74,1.61,3.16,5.94,6.94,5.48,2.34-.28.23-3,1.63-4l9.19-17.54h0c4.68-8.83,9.24-17.72,14.08-26.45a10.38,10.38,0,0,0-.19-10.87c-1.21-2.11-.86-3.46.23-5.46,5-9.15,9.65-18.46,14.55-27.65,1.25-2.34,1.31-4.42-1-5.8-2.71-1.63-3.29.94-4.29,2.63-3.07,5.17-5.94,10.48-9.4,15.38-3.35,4.73-4.63,11.9-9.93,14-7.56,3-9.84,9.51-13.64,15.19a241.8,241.8,0,0,0-16,23.82l-8.09,12h0c-1.44,3.06-4.4,2.86-7.06,3.28-5.19-.47-10.19,1.08-15.29,1.49-3.77.3-6.23,2.14-7.38,5.73a366.65,366.65,0,0,0-21,30.32l-29.64,41.94c-6.17,3.24-12.71,2.57-19.26,1.82-6.15.47-12.28,1-18.43,1.35-2.24.12-3.87.77-4.78,2.27-3.77,2.34-7.13,10.57-8.85,13-2.64,3.68-5.27,5.88-10.15,6-8,.15-13.95,4.5-18,11.32-2.48,4.17-5.31,7.49-10.22,9.48a26.8,26.8,0,0,0-13.14,11.75h0l-16.91,25.06a.86.86,0,0,0-.74.51m4-1.17c8.62-5,12.52-13.49,15.66-22.51,0,0,0-.11-.06-.18,3.49-.18,5.11-3.06,7-4.79-1.32,1.82-3.72,3.67-2.49,6.7-2.16.33-3.27,2.09-4.47,3.7a88.92,88.92,0,0,0-6.93,10.53C118.88,244.8,116.18,247.18,112.18,247.61Zm13.72-.39a83.47,83.47,0,0,1,7.14-11.8c1.4-2,2.86-4.07,2.09-6.7,3.29-.39,4.58-3.38,6.2-5.69,4.3-6.11,7.75-12.79,12.16-18.85,3-4.11,6.6-7.13,12-7.88-1.16,5-6.3,7.7-5.56,12.87-4.37.9-5.95,4.79-8,8-5.82,9-11.9,17.74-18.42,26.2C131.77,245.6,129.91,248.06,125.9,247.22ZM240.16,242c-1.54,2.87-3.21,6.18-6.94,6.07-6.88-.21-13.65.89-20.47,1.27-7.27.41-14.33-3.06-21.63-.88-4.52-.28-9.09.35-13.55-.76-4-.71-8,.5-12,.08a32.1,32.1,0,0,0-8.7.31c-5.46,1.76-10.52-1.17-16.49-.83a27,27,0,0,1,4.63-7.71c5.55-6.68,9.69-14.32,14.77-21.32L166.48,205c5.18-8.31,14.23-20.64,19.57-30.32,3.37,1.8,6.64-.63,9.9-.84,24-1.58,48.11-.46,72.12-2.44,3.41-.28,8.45-1.65,10.13,1.33,1.39,2.47-2.41,6-4,9-.29.54-.61,1.06-.89,1.59C262.72,203.12,250.81,222.19,240.16,242Zm54.39-18.09c.75-1.28,1.25-3.61,3.2-3,2.14.66,2.54,2.94,2.39,5.06a10.22,10.22,0,0,1-1.59,3.9c-7.56,14.47-15.55,28.72-23.46,43-1.85,3.35-3.33,7-7.65,2.35a2.15,2.15,0,0,0-2.78-.23,3.77,3.77,0,0,0,.31-1.77c2.95-.41,3.92-3.25,5.21-5.44C278.7,253.35,286.21,238.39,294.55,223.88Zm-9.14-13.57c-1.07,1.95-2.18,3.87-3.3,5.79-8,13.61-14.75,27.84-22.52,41.55a13.59,13.59,0,0,0-1.68,4.39c-2-2.68-3.71-5.57-5.75-8.21,1.51-.29,2.34-1.71,3.11-3,2-3.3,4-6.51,5.83-9.93,5.95-11.47,12.75-22.48,18.92-33.84.83-1.53,1.5-4.48,4.23-3S286.76,207.84,285.41,210.31ZM317.35,90.44C303.89,113.52,291,137,277.3,159.88a7.43,7.43,0,0,1-6.92,4,268,268,0,0,0-28.47,1.51c-1.87.21-3.93.35-5.84-1.23,6.75-9.05,12.69-18.22,19-27.17,2.24-3.19,5.27-6.25,4.64-10.66,3,.17,4.35-2.36,5.87-4.34,5.31-6.91,9.62-14.5,14.64-21.62,1.3-1.83,2.53-4,1-6.26,6.16.14,12.07-1.57,18.06-2.6l18.12-2.4A1.42,1.42,0,0,1,317.35,90.44Zm34.59-42.12c-3,5.68-5.56,11.59-8.32,17.39-1.16,2.45-3,4.91-1.55,7.93a2.74,2.74,0,0,0,.05.28c-2.58-.9-3.3,1.56-4.34,3.08-1.47,2.15-2.42,4.61-3.71,6.87s-2.57,3.71-4.75.8c-2.46-3.3-6-3.65-9.73-3.34-1.82.15-3.61.59-5.42.8,3.72-2.13,5.25-5.14,4.93-9.58a5.14,5.14,0,0,0,4.24-2.28,122,122,0,0,0,10.91-16.74c.68-1.26,1.21-2.64.58-4.06,4.07-.78,5.17-4.8,7.59-7.37,2-2.14,3.71-5.35,7.35-2.68C352.9,41.71,353.93,44.58,351.94,48.32Z"/><path class="cls-5" d="M149,492.56c6.76-11.64,9.46-18.75,15.59-30.71,11.92-23.22,24-46.36,36-69.51,14.34-27.58,29-55,42.86-82.82a180.88,180.88,0,0,0,9.75-21.93l-9.81-5.5-16.17,34q-19.2,35.9-38.47,71.74c-7.8,14.48-15.77,28.86-23.54,43.35-11.5,21.45-21.71,40-33.24,61.42"/><path class="cls-5" d="M311.45,234.85c-2.78-3.29-3.27-2.44-4.73.16-2.56,4.56-5,9.18-7.54,13.73q-10.53,18.67-21.12,37.3c-1.56,2.76,2.3,10.87,5.43,10.81,1.79-.73,2.54-2.75,3.45-4.41,8.35-15.33,16.45-30.78,24.94-46C314.24,242.17,315.19,239.28,311.45,234.85Z"/><path class="cls-5" d="M263,304.56,257.49,315c-10.67,19.76-21,39.71-31.64,59.48-13.64,25.28-26.94,50.75-40.35,76.15-7.18,13.59-15.13,28.4-22.5,41.89h20c7.23-14.13,18.19-35.87,25.42-50q13.44-26.26,26.81-52.58c6.45-12.73,12.38-25.74,19.35-38.18L275,313.56S265.15,305.69,263,304.56Z"/><path class="cls-5" d="M263.76,273.24c.14.7.27,1.41.41,2.11,2.08.17,2.92,1.66,4,3.24,2.8,4.11,4.54,3.82,6.79-.39,8.62-16.09,17.14-32.24,26.17-48.1,2.82-5,1.74-8.16-1.81-11.71-1.94-1.94-3.1-2.13-4.5.42-4,7.41-8.09,14.81-12.33,22.11C276.24,251.69,271.56,263.37,263.76,273.24Z"/><path class="cls-5" d="M273.82,236.1c4.76-8.63,9.56-17.23,14.31-25.86,1.64-3-.44-9.28-4-10.58-3.72-1.36-4,2.74-5.13,4.57-6.56,11.07-13,22.26-19,33.62a129.81,129.81,0,0,1-9.47,15.91c.86,4.8,4.66,7.7,7.31,11.33Q265.87,250.6,273.82,236.1Z"/><path class="cls-5" d="M248.75,397C232.61,427.73,199,492.56,199,492.56h17c7.9-15.54,14.68-28.48,22.46-44.09,9.67-19.4,19.15-38.89,28.71-58.34,3.28-6.67,21.06-45.4,24.9-51.8l-9.72-9C276.83,341.63,255,385.09,248.75,397Z"/><path class="cls-1" d="M281.2,94.1C285,90.5,290,90.71,294.66,90c2.54-.38,5.27-.07,7.49-1.8L322,86.05c-2.74,7.07-6.76,12.6-10.13,18.46C301,123.38,290,142.16,279.35,161.14c-2.19,3.91-4.61,5.46-9.1,5.19-12.48-.75-24.94,2-38.82.75,4.88-7,9.46-13.19,13.57-19.65,4.53-7.13,10.48-13.34,13.86-21.21C267.61,116.42,274.38,105.25,281.2,94.1Z"/><path class="cls-1" d="M311.7,83.31A37.13,37.13,0,0,0,319,71.64c6.53-6.64,10.69-14.91,15.55-22.7,2.36-3.24,4.78-6.44,7.09-9.72s5-4.75,8.77-2.75c4,2.17,6.16,7.68,4.43,11.22-4.23,8.66-8.52,17.3-12.78,26l-9.71,17.83c-.71-.23-1.3-.25-1.4-.48-2.9-6.65-7.55-9.37-14.78-7C314.77,84.48,313,84.89,311.7,83.31Z"/><path class="cls-1" d="M169.73,193.7c-1-1.24-2.65-.65-4-.35-7.06,1.62-12,6-15.87,12-5.13,7.89-9.38,16.38-15.7,23.47-3.69,5.95-7.27,12-11.12,17.81-1.81,2.73.67,2,3.61,2.24,4.67.32,6.17-.16,8.81-4,8.09-11.74,16.36-23.35,24.56-35,2.83-4.15,5.68-8.29,8.46-12.48C169.23,196.25,170.89,195.18,169.73,193.7Z"/><path class="cls-1" d="M140.42,214.24c-6.15,2.06-8.88,7-12.86,10.35-5.22,8.13-9,15.95-15.46,23.2,5.22.35,7.94.44,7.94.44s8.62-14.75,12.6-20.74C134,222.7,138.46,219.66,140.42,214.24Z"/><path class="cls-4" d="M312.27,175.13c-4.77.45-4.73,4.94-6.54,7.85-1.15,1.85-1.87,4.5-4.39,4.47-2.26,0-2.74-2.48-3.72-4.28-2.6-4.77-5.6-9.33-8.36-14-.77-1.29-1.52-2.31-3.2-2.36-6.4-.2-5-3.11-2.72-7,13.06-22.65,25.94-45.41,38.88-68.13.69-1.21,1.18-2.91,2.87-2.72,2.1.23,2.51,2.22,3.35,3.86,1,2,1.37,7.71,5,1.52,1.38,6.65,6.2,11.58,8.86,17.61.68,1.54,1.48,2.72.62,4.38C332.75,135.92,323.43,156,312.27,175.13Z"/><path class="cls-3" d="M1,434.56c11-17.12,13.78-21.74,24.81-38.85q20.33-31.53,40.7-63c8.78-13.54,17.75-26.95,26.49-40.51,3.94-6.1,7.18-12.63,11.7-18.4,1.29-1.64,3.44-4.23.23-6.15-2.85-1.7-11.64,1.31-13.52,4.29-4.84,7.67-9.37,15.56-14.59,23C60.45,318.15,45.48,342.31,29.75,366L1,409.56"/><path class="cls-3" d="M79,492.56l49.81-85.72q21-36,41.72-72.23c10.9-19.07,22.88-37.51,32.9-57.07.72-1.41,2.1-2.67.31-4.23-2.81-2.44-10.53-1.42-12.56,1.83-6.28,10.07-13.06,19.89-18.56,30.38-11.16,21.26-24,41.55-36.39,62-9.68,16-18.79,32.26-28.83,48-8.73,13.69-16.38,28.06-24.79,42-8.12,13.41-11.68,22.1-20.61,35.05"/><path class="cls-3" d="M0,492.56H7s43.89-75.49,61.93-106.69q18.73-32.43,37.63-64.76c9-15.48,18.22-30.87,27.26-46.35,1.31-2.23,4.14-5.78-.64-6.44s-9.66-.82-13,5c-15.55,27.14-31.52,54-47.46,80.95C53.48,386.78,19.6,442.3,0,474.56"/><path class="cls-3" d="M41,492.56l92.61-157.1q17.41-29.82,34.81-59.65c.71-1.22,2.76-2.39.9-4.11-3-2.76-11.54-1.44-13.72,2.2q-16.17,27-32.21,54.13C113.61,344.5,104.3,361.26,94,377.42c-14.92,23.47-28.68,47.61-43,71.44C43.64,461.27,31.51,480.2,24,492.56"/></g></g></g></svg>