<svg xmlns="http://www.w3.org/2000/svg" viewBox="0 0 230 230"><defs><style>.cls-1{fill:#fff;}.cls-2{fill:none;stroke:#707070;}.cls-3{fill:#bdbdbd;}</style></defs><g id="Layer_2" data-name="Layer 2"><g id="wireframe"><g id="avatar"><g id="Ellipse_64" data-name="Ellipse 64"><circle class="cls-1" cx="115" cy="115" r="115"/><circle class="cls-2" cx="115" cy="115" r="114.5"/></g><g id="looking_for" data-name="looking for"><path id="Path_608" data-name="Path 608" class="cls-3" d="M75,87.09a1.7,1.7,0,0,0,1.15-2A80.82,80.82,0,0,1,74,63.91c.51-10.3,3.12-19.73,11.32-26.81,4.48-3.87,9.85-6,15.36-7.76,9-2.92,18.11-4.72,27.53-3.26A31.15,31.15,0,0,1,137,28.83c5.54,2.7,7.5,6.7,6.51,12.57a1.76,1.76,0,0,0,.66,1.7c6.74,5.24,8.63,12.68,8.51,20.89-.14,7.54-.58,15.08-.91,22.9-.22-.2-.12,0,0,0,4.37.36,5.52,1.66,5.34,6.06-.29,7.3-4.13,12.28-11.1,14.57a3.05,3.05,0,0,0-1.45,1.69c-3.05,7.5-7.44,14-14.11,18.74a2.24,2.24,0,0,0-.63,2c1.25,4.7,3.62,8.33,8.36,10.5,7.87,3.6,15.48,7.76,23.26,11.55,8,3.87,12.3,10.08,13,18.92.34,4.06,1,8.12,1.49,12.13a8.38,8.38,0,0,1-2.54,7.5,14.61,14.61,0,0,1-2.38,2c-18.48,11.33-38.38,17.75-60.23,16.95-18.11-.68-34.83-6.36-50.48-15.35-1.21-.7-2.43-1.41-3.6-2.2-2.43-1.65-4-4-3.74-6.9a186.44,186.44,0,0,1,2.58-20c1.24-6.14,5.79-10,11.24-12.73,8.06-4,16.06-8.24,24.26-12.08,4.64-2.18,6.75-6,8-10.54a2.09,2.09,0,0,0-.75-1.73,40.48,40.48,0,0,1-13.93-18.58,3,3,0,0,0-2.5-2.08,11,11,0,0,1-7-4.8,19,19,0,0,1-3.3-9.77C71.5,89.35,72.23,87.94,75,87.09Zm9.15-8.33.62.08-.49,8.87c-.31,5.51-.29,5.51-5.36,3.42A1.43,1.43,0,0,0,78.6,91a10.89,10.89,0,0,0-1.24-.25,1.73,1.73,0,0,0-2,1.55c0,.42-.06.84-.07,1.27a2.16,2.16,0,0,0,0,.35A10.65,10.65,0,0,0,76,96.38c1.37,4.37,3.83,7.44,8.82,7.82.75,0,1.64,1,2.08,1.81,2.5,4.38,4.3,9.19,7.34,13.08,9.37,12,24.4,13.78,35.76,4.74a36.73,36.73,0,0,0,11.58-16.77,4.44,4.44,0,0,1,3.91-3.26c1.63-.29,3.74-1.09,4.51-2.35a45.21,45.21,0,0,0,3.88-9c.49-1.45-.63-2.25-2.1-1.8s-2.57,1.13-3.89,1.61c-2.15.78-3.12.13-3.2-2.1-.17-4.8,0-9.65-.59-14.42a47.69,47.69,0,0,0-2.67-11.78c-1.53-4-5-5.33-9.15-4.16A70,70,0,0,0,124,63c-4.45,1.92-9,3.12-13.81,1.72-3.75-1.11-7.29-2.84-11-4.2C92.3,57.92,88,59.91,86,67,84.9,70.78,84.7,74.83,84.1,78.76Zm19.19,51.93c-2.12,3.39-4.11,6.46-6,9.6a5.38,5.38,0,0,0-1,2.69,1.54,1.54,0,0,0,0,.37,23,23,0,0,0,5.45,12.93c6.71,7.74,17.13,8.2,24.3,1.08a23.26,23.26,0,0,0,6.2-11.82c.53-2.39.57-4.33-1.51-6.36-1.77-1.73-2.61-4.38-3.84-6.66-.08-.16-.15-.32-.22-.48a1.73,1.73,0,0,0-2.22-.88,27.15,27.15,0,0,1-21.15-.47Zm19.89-102h-2.45c-1.3,0-2.54.22-2.58,1.74,0,1.7,1.32,1.81,2.66,1.87a51.23,51.23,0,0,1,8.12.68c5.63,1.18,7,3.22,7,8.9a1.66,1.66,0,0,0,.29.84,1.71,1.71,0,0,0,2.59.35,1.63,1.63,0,0,0,.5-.72,9.64,9.64,0,0,0-4.39-10.89C131.28,29.25,127.29,28.67,123.18,28.66Zm-9.24.32a12.69,12.69,0,0,0-2.33.61,1.38,1.38,0,0,0-.38.2,3.07,3.07,0,0,0-.29.24,1.7,1.7,0,0,0,.24,2.67,2.82,2.82,0,0,0,.88.36,3.64,3.64,0,0,0,2.36-.32,1.74,1.74,0,0,0,.36-.24q.33-.27.63-.57a1.72,1.72,0,0,0-.15-2.57l0,0A1.69,1.69,0,0,0,113.94,29Z"/><path id="Path_609" data-name="Path 609" class="cls-1" d="M84.1,78.76c.62-3.93.8-8,1.87-11.76,2-7.12,6.33-9.11,13.25-6.56,3.67,1.36,7.22,3.12,11,4.2,4.76,1.42,9.37.2,13.81-1.72a69.46,69.46,0,0,1,8.26-3.2c4.12-1.17,7.62.19,9.15,4.16a48.1,48.1,0,0,1,2.66,11.79c.54,4.77.41,9.61.59,14.41.07,2.23,1,2.89,3.2,2.1,1.32-.48,2.55-1.2,3.88-1.6,1.5-.46,2.6.35,2.1,1.8a44.29,44.29,0,0,1-3.87,9c-.77,1.25-2.88,2.07-4.51,2.36a4.4,4.4,0,0,0-3.91,3.26A36.73,36.73,0,0,1,130,123.81c-11.38,9-26.37,7.23-35.77-4.74-3-3.89-4.86-8.75-7.34-13.08-.45-.77-1.33-1.76-2.08-1.81-5-.38-7.45-3.45-8.82-7.82A10.4,10.4,0,0,1,75.32,94a2.19,2.19,0,0,1,0-.36c0-.42,0-.85.07-1.27a1.74,1.74,0,0,1,2-1.55,10.67,10.67,0,0,1,1.25.26l.26.08c5.08,2.1,5.06,2.1,5.37-3.42l.48-8.86Z"/><path id="Path_610" data-name="Path 610" class="cls-1" d="M104.56,131.23a27.13,27.13,0,0,0,19.88-.08,1.72,1.72,0,0,1,2.22.88,4.09,4.09,0,0,0,.23.47c1.25,2.27,2.06,4.94,3.83,6.66,2.08,2,2,4,1.51,6.37a23.12,23.12,0,0,1-6.2,11.81c-7.16,7.13-17.59,6.67-24.31-1.08a23.12,23.12,0,0,1-5.46-12.93,2.29,2.29,0,0,1,0-.37,5.38,5.38,0,0,1,1-2.69c1.67-2.73,3.4-5.43,5.23-8.34A1.72,1.72,0,0,1,104.56,131.23Z"/><path id="Path_611" data-name="Path 611" class="cls-1" d="M123.18,28.67c4.11,0,8.12.58,11.7,2.76a9.68,9.68,0,0,1,4.41,10.9,1.75,1.75,0,0,1-3.09.37,1.5,1.5,0,0,1-.29-.84c0-5.68-1.35-7.72-7-8.9a52.64,52.64,0,0,0-8.12-.68c-1.35-.07-2.7-.18-2.66-1.87,0-1.52,1.25-1.78,2.58-1.74C121.55,28.69,122.33,28.67,123.18,28.67Z"/><path id="Path_612" data-name="Path 612" class="cls-1" d="M115.24,29.34h0a1.73,1.73,0,0,1,.17,2.57c-.2.2-.41.39-.62.57a2,2,0,0,1-.38.26,3.73,3.73,0,0,1-2.35.32,3.26,3.26,0,0,1-.88-.36,1.71,1.71,0,0,1-.24-2.68l.27-.23a1.38,1.38,0,0,1,.42-.21,13.27,13.27,0,0,1,2.31-.59A1.64,1.64,0,0,1,115.24,29.34Z"/></g></g></g></g></svg>