<svg xmlns="http://www.w3.org/2000/svg" viewBox="0 0 547.7 693.34"><defs><style>.cls-1{fill:#4d4d4d;}</style></defs><g id="Layer_2" data-name="Layer 2"><g id="sketch"><g id="sketch-highlight-image"><path class="cls-1" d="M59.13,71.76c-.67.86-.13.52,1.93-1.66l1.24-1.76Z" transform="translate(0 -0.03)"/><path class="cls-1" d="M74.05,58.16c1.28-1.2,2.61-2.57,3.45-3.39s1.09-1.23.1-.63c-2.5,2.46-3.17,3-5.77,5.72-2.22,2-3.89,3.51-3.62,3-.7.81-3.47,3.13-4.41,4.48C65.22,66,66.92,64.62,68.63,63l2.64-2.53c.92-.84,1.86-1.71,2.8-2.6C75,57.18,74.2,58,74.05,58.16Z" transform="translate(0 -0.03)"/><path class="cls-1" d="M352.7,12.68l-1.82-.48C351.37,12.34,352,12.51,352.7,12.68Z" transform="translate(0 -0.03)"/><path class="cls-1" d="M509.25,97.29a9.72,9.72,0,0,0-1.31-1.54C508.79,96.7,509.4,97.56,509.25,97.29Z" transform="translate(0 -0.03)"/><path class="cls-1" d="M523.89,124.16c-.22-.62-.4-1.15-.64-1.7C523.5,123.11,523.72,123.77,523.89,124.16Z" transform="translate(0 -0.03)"/><path class="cls-1" d="M352.7,12.68l4.69,1.22C357.74,13.88,355,13.25,352.7,12.68Z" transform="translate(0 -0.03)"/><path class="cls-1" d="M106.58,34.22c-.88.52-1.6,1-2.25,1.38l2.13-1.26Z" transform="translate(0 -0.03)"/><path class="cls-1" d="M273.72,1.73l-1.47-.06c-.44,0-.84.05-1.23.09C271.92,1.75,272.82,1.72,273.72,1.73Z" transform="translate(0 -0.03)"/><path class="cls-1" d="M212.56,3.49a7.12,7.12,0,0,0,2.35-.63c-.77.2-1.79.33-3,.51C211.9,3.43,212.09,3.47,212.56,3.49Z" transform="translate(0 -0.03)"/><path class="cls-1" d="M119.28,28.79l-1.54.78Z" transform="translate(0 -0.03)"/><path class="cls-1" d="M317.32,6.18a2.18,2.18,0,0,0,.53.19S317.65,6.26,317.32,6.18Z" transform="translate(0 -0.03)"/><path class="cls-1" d="M24.26,133.64c0,.05,0,0,0,0C24.4,133.3,24.42,133.19,24.26,133.64Z" transform="translate(0 -0.03)"/><path class="cls-1" d="M59.67,72.26,59,73c0,.12-.06.23,0,.27Z" transform="translate(0 -0.03)"/><path class="cls-1" d="M537.2,178.9l0-.25C536.89,177.19,537,178,537.2,178.9Z" transform="translate(0 -0.03)"/><path class="cls-1" d="M425.53,659.51c2.74-1.06.59,0-1.24.85s-3.33,1.54.82,0C424.31,660.57,432.31,656.75,425.53,659.51Z" transform="translate(0 -0.03)"/><path class="cls-1" d="M108,33.46c.73-.41,1.45-.85,2.2-1.24C109.17,32.76,108.5,33.16,108,33.46Z" transform="translate(0 -0.03)"/><path class="cls-1" d="M425.11,660.35h0L426,660Z" transform="translate(0 -0.03)"/><path class="cls-1" d="M545,308.86c.06-.26.1-.78.15-1.32A7.51,7.51,0,0,0,545,308.86Z" transform="translate(0 -0.03)"/><path class="cls-1" d="M542,211.79l.19,2.4C542.09,213.24,542,212.46,542,211.79Z" transform="translate(0 -0.03)"/><path class="cls-1" d="M543.24,359.29c-.1,1.31-.17,1.75-.25,3.53,0-.16,0-.32.07-.54C543.06,361.64,543.1,360.78,543.24,359.29Z" transform="translate(0 -0.03)"/><path class="cls-1" d="M538.44,411.6c0-.27.11-.63.17-1,0-.52.12-1.12.17-1.66Z" transform="translate(0 -0.03)"/><path class="cls-1" d="M.45,291.43c.12-1.15.23-1.86.33-2.42C.56,289.82.72,282.08.45,291.43Z" transform="translate(0 -0.03)"/><path class="cls-1" d="M106.68,34.34a8.43,8.43,0,0,1,1.3-.88l-1.52.88C106.35,34.45,106.34,34.51,106.68,34.34Z" transform="translate(0 -0.03)"/><path class="cls-1" d="M545.31,361.58l-.65,8.34C544.86,367.59,545.12,364.56,545.31,361.58Z" transform="translate(0 -0.03)"/><path class="cls-1" d="M82.9,652.69l-1.49-1.24C82,652,82.5,652.39,82.9,652.69Z" transform="translate(0 -0.03)"/><path class="cls-1" d="M542.52,394.65c-.25,1.47-.47,3-.68,4.66,0,.35,0,.74,0,1Z" transform="translate(0 -0.03)"/><path class="cls-1" d="M.78,289v0Z" transform="translate(0 -0.03)"/><path class="cls-1" d="M3.59,234c-.81,7.94,0,3.76,0,5.46C2.91,248.91,3,243.79,2.5,247c-.22,3-.27,5.59-.35,8s-.18,4.68-.3,6.89c-.08.33-.15,1.19-.17.17-.09,6.29-1,18.62-.78,26a6.63,6.63,0,0,1-.12.95c.22-1.18.42-1.35.54-1.11-.11,3.57.06,6.63-.2,8a24.49,24.49,0,0,0-.11-3.4l0,3.74c-.4,3.37,0-5.1-.27-5.11,0,3.65,0,7.6,0,11.34s.08,7.26,0,10.05c-.34,1.17,0-13.07-.38-5.61,0-2.89.13-5.77.23-8.65C0,304.81.79,293,.1,299c-.24,11.4,0,12.75,0,24.11.21,2.56.27-.85.49,1.71.31,8.07.14,11.25,0,13.89a70.2,70.2,0,0,0,.18,10.69,83.5,83.5,0,0,1,1,12.68l-.53-2.85c.53,11,.84,6.25,1.31,17.79-.28-2-.67-8.64-.61-7,.17,7.48.52,5.27.92,11l-.25,1.21C3.52,394,4.9,406.84,6.38,419.75c-.17-.7-.51-2.9-.3.13,1.91,16.29,4.23,34.75,6.6,50.4.42,2,.82,3.94,1.28,5.91.23,1.39.31,2.59,0,1.1.94,6.1.23.29.86,3.18.62,3.46.63,4.6.16,2.42,1.07,5.34,2.64,12.93,4.26,20.58.83,3.82,1.66,7.66,2.44,11.24s1.49,6.92,2.09,9.72l-.6-2.16c1.95,8.72,2.92,9.66,4.72,17.74l-.44-1.52c2.38,9.39,5.2,19.19,8.12,28.36s6,17.71,8.45,24.69a38.41,38.41,0,0,1,1.7,3.85c.72,1.81,1.67,4,2.55,6.1s1.84,4.17,2.59,5.76a13.32,13.32,0,0,0,1.63,2.91l2.56,5.6,1.72,3.52c.56,1.15,1.17,2.43,2.2,4.24l1.79,3.21c.71,1.24,1.62,2.65,2.64,4.32A22.85,22.85,0,0,0,65,633.38l1.55,2c1,1.35,2.27,2.68,3.9,4.7l-.15.29c.74.92,1.63,1.71,2.44,2.56s1.64,1.7,2.52,2.47l2.44,2.88.89.84.94.78,1.87,1.56a18.53,18.53,0,0,1-2.75-2.67l4.65,4c1.66,1.28,3.26,2.62,4.74,3.73s2.8,2,3.73,2.76,1.54,1.1,1.56,1.17l3.85,2.31,4,2.14c1.3.74,2.65,1.38,4,2s2.67,1.35,4,1.93a53,53,0,0,1-5.29-2.35c4.35,2,4.7,2.28,5,2.49s.44.39,4.49,2.09c-1-.56.65.1.86.11,2,.9,5.25,2.41,9,3.75L126,676l2.9,1c1.93.64,3.82,1.29,5.59,1.79l-1.41-.21c6.33,2,13.09,3.84,20.1,5.48s14.29,3,21.63,4.17c-5.24-1-4-1.16.33-.46l1.67.58c2.82.22-4.48-.8,1.27-.18,5.48.86,3.64.92.47.55,2.23.31,4.46.6,6.7.84.38.15-1.2,0-1.62.06,1.39.07,4.26.56,7.3,1a76.94,76.94,0,0,0,8.25.82l.37.13c3.7.35,6.9.63,9.81.82l4.16.28,3.88.2c2.52.14,5,.26,7.53.33s5.25.2,8.27.25c.25-.28,5-.08,8.58-.31,8.88.17,18.76.25,29.46-.26,7.51-.52,2.18-.35,5.55-.69.57.27,11.24-.48,5.72.07,3.2-.2,5.83-.41,8.21-.62s4.54-.38,6.8-.62c4.5-.45,9.43-1,17.48-2.06-1.76.11-3.73.3-2.72.09,2.92-.4,6.67-.71,6.26-.53l-.77.12c9-1.35,19.46-2.74,29.39-4.39a263.16,263.16,0,0,0,26.36-5.52l-.78.22,7.28-2,7.25-2.08c6.68-1.86-4,1.33,1,.07,7.79-2.38,13.9-4.36,19.66-6.27s11.13-3.91,17.28-6.59a136.66,136.66,0,0,0,21.81-10.26c4.2-2.45,8.39-5.14,12.15-7.88a110,110,0,0,0,9.7-7.95l-.72.45c2.54-2.65,3.16-3.13,5-5.11-.37.2-2.8,2.87-1.34,1.11,1.34-1.42,2.46-3,3.67-4.59l3.28-4.83c2.11-3.27,4.22-6.58,6.17-10,3.94-6.82,7.65-13.86,11-21.09a380.94,380.94,0,0,0,17.25-44.4,61,61,0,0,0,2.37-9.08,112.79,112.79,0,0,1,3.09-11.2l-.79,4c5.9-22.41,11.43-46,15-68.39-.17,1.34-.08,1.4-.47,3.57.56-2.33,1.32-6.69,1.89-10.49.29-1.89.56-3.65.7-4.94a12.64,12.64,0,0,0,.19-2.13c.57-3.49.3-.79.74-2.92.9-4.72,1.47-12,2.06-14.46a17.27,17.27,0,0,1-.21,2.22c.32-3.11,2-14.45,1.3-11.51,1.2-8.43,1.85-16.17,2.71-22.9.18-4.43,1.57-14.48,1.27-15.91.21.32.61-3.39,1-7.85s.67-9.68.78-12.36c0,1.8.45-4.66.5-2.54.41-6.13.64-11.75.34-10.69,1.22-11.27.65-22.72,1.53-29.06.29-18.23.18-35.1-.31-51.49.51.58.34,18.12.76,17.41-.29-15.56-.91-24.52-1.5-39.93-.14-4,.32,2.25.43,3.6-.86-15.52-1.73-30-3.42-43.76a8.89,8.89,0,0,1,.16,1c.07.55.17,1.27.26,2-.3-2.72-.59-6.32-.76-6l.33,2.64c.07,2.18-.34-.5-.85-3.77s-1.1-7.15-1.22-7.38c1.2,4.51-1.66-13.56,0-6.37-.27-1.78-.72-4-.79-3.56-.35-2.64-.39-3.49.16-.84-.76-4.83-1.12-6.37-1.43-7.8s-.53-2.75-1.35-7.1c.1,0,.46,1.76.75,2.64-.51-2.19-1-4.38-1.54-7s-1.16-5.49-2-9.15c.16.43,0-.44.53,1.74-.72-3.13-1.37-6-2.14-8.81-.37-1.39-.72-2.76-1.11-4.11s-.8-2.69-1.19-4c-1.66-5.39-3.39-10.92-5.88-17.52.93,1.87.55.73-.07-1a28.53,28.53,0,0,1-1.57-4.36c-.51-1.17-1.1-2.3-1.65-3.45l-.84-1.71-.92-1.68c.43.94.87,1.86,1.23,2.82a76,76,0,0,0-4.68-8.28c-.79-1.3-1.7-2.47-2.51-3.68l-1.23-1.8-1.28-1.74c.51.65,1,1.28,1.55,1.94l1.45,2c-.6-.85-1.16-1.73-1.79-2.56L511,97.32c-1.23-1.68-2.6-3.24-3.94-4.84l2.21,2.76c.73.92,1.39,1.9,2.09,2.84-2.1-2.63-2.1-2.4-2.22-2.41s-.37-.26-3.16-3.69a20.12,20.12,0,0,0-2-2.33l-2.47-2.79c-.86-.91-1.66-1.78-2.22-2.43h0l-1.82-1.72-2-1.78c-1.39-1.25-2.88-2.69-4.72-4.31-.89-.93,1,.36.47-.24s-1.73-1.35-3-2.43l-4.41-3.53a97.16,97.16,0,0,0-8.24-5.93c1.16.73,1.33.61,1,.32l-2.36-1.38c-2.45-1.86-2.82-2.12-2.32-2-7.67-5.18,2.2,2-6.85-4.22.73.45.43.17,1.94,1.13a285.9,285.9,0,0,0-27.26-15.6c-1.26-.82.75.1,2.66,1.1s3.79,2,2.35,1c-3.23-1.72-6.59-3.31-10-4.94s-6.82-3.15-10.29-4.59c-6.88-3-13.82-5.67-20.41-8.21.82.31,1.63.63,2.44,1-2-.23-9.76-3.93-16.63-6,1.67.52,2.27.46,1.8.36-9.15-3.14-18.88-5.94-33.13-9.38l1.79.32c-2.74-.8-6.4-1.63-10.1-2.54s-7.5-1.69-10.52-2.3c-1.82-.22-5.27-.93-3.21-.32C318,3.91,300.7,2.91,284,1c2,.16,4.8.26,3.2.13-4.77-.37-9.56-.58-14.33-.8a47,47,0,0,0,4.87.59c-.91,0-2.38,0-4.06-.06S270.07.81,268.3.74c6.45.09,0-.37-2.82-.6.46.08-.5.13-.26.21-7.49-.54-1.27.39-11.49,0l.54-.12L242.79.6c-1.72-.22,4.07-.23,4.33-.46-2.9.09-5.75.29-8.54.46s-5.5.42-8.13.41L238.9.45c-5.72,0-6.39,0-10.63.28l.42,0c-3.27.21-6.55.32-9.81.63l2.5-.16c-7.16,1.38-14.72,1.54-24.32,3.52,9.34-1.81,1.52-.48,2.2-.88-2.49.25-6.25.81-5.2.54-2.26.52-4.17.8-6.32,1.14s-4.5.85-7.66,1.66c-.32-.07-4.83,1.09-3.87.61-5.86,1.42,1.42-.15.95.08-9,2.31-21.3,4.81-33.73,9.78-10.72,4.17-12.56,5.31-22.15,9.94C118,29,123.79,26,123.79,26c-2.65,1.19-5,2.23-7.21,3.36s-4.39,2.32-6.78,3.65c.93-.61-.1-.12-1.6.61-1.91,1.1-2.5,1.54-3.26,2s-1.69,1.06-4.18,2.55a36,36,0,0,1,3.57-2.6c-4.43,2.71-8.67,5.59-13,8.71-1.27.66,2.54-2,4-3.18-5,3.36-12.73,9.1-13.95,10.55,1-.79,2-1.57,3.11-2.29-1.76,1.31-1.05.49.23-.52,2-1.61,3.53-2.7,4.58-3.39a9.85,9.85,0,0,1,1.81-1l-1.56,1.1-1.52,1.15c1.71-1,4.91-3.07,8.41-5.57L102,37.56c1.84-1.23,3.73-2.26,5.39-3.22l-2.57,1.94c2.23-1.37,4.42-2.85,6.7-4.14,1.54-.68,2.66-1-.67.8,2.49-1.18,3.54-1.78,4.52-2.33a31.52,31.52,0,0,1,4.05-2c.48-.19.28-.07-.15.15l4.79-2.42c-.91.53.93-.12-2.07,1.25l3.13-1.42L128,25l4.82-2.17c2.88-1.22,5.08-2.16,6.82-2.68l-.74.32c6.23-2.39,6.53-2.52,6.4-2.6s-.22,0,.21-.27A35.18,35.18,0,0,1,149.32,16c2.23-.46,4.44-.93,6.66-1.36l1.17-.66c1.33-.37,3.95-1.11,3.5-.85,4.87-1.64-.88.11,1.93-.91,6.47-1.52,17.75-4.56,19.33-4.29,2.29-.7-6.26,1.07.66-.48a28.62,28.62,0,0,0,5.54-.92c2.51-.49,5.5-1.12,8.52-1.5-1.8.56-7.48,1.42-1.46.62A55.34,55.34,0,0,1,203,4.35c3.11-.38,6.42-.61,8.95-1,.19-.42,11-1.33,19.6-1.92-.26.09,3.77-.12,8.87-.24,2.55,0,5.37-.12,8.05-.11l7.21,0-.24.06c1.55-.35,9.79-.19,15.78,0-.24.21-1.33.25-4.57.23l5.63.21c1.33-.08,3.09,0,6.74.15L277.56,2c7.48.4,15.09.73,24.66,2,.57-.19-7.55-1.61,2.62-.58.36.18.71.46-1.95.21.87.08,3.11.25,4.85.52l-4.08-.25c4.36.63,2.32,0,5.8.54-.1.19,2.56.5,2,.59-.9-.1-3-.51-4.38-.6,3.93.57,8.66,1.32,10.2,1.73-.33-.17,0-.26,2.91.16,7.41,1.17,2.5.62,6.79,1.47,1.81.19,6.5,1.15,6.67.91A23.11,23.11,0,0,1,337,9.6c3.86.52,17.72,3.81,13.53,2.52l-1-.24.62.13h0c12.48,2.56,25.59,6.67,37.62,10.47l0,.09c7.2,2.24,15.88,5.4,21,7.22,2.08.81,4.83,2.08,3.9,1.84,5.34,2.16,6,2.24,13.55,5.78-5.37-2.19,1.76.94-5.48-2.28,6.81,3.09,8.29,3.92,15.63,7.19-2.57-1,4.92,2.75,8.06,4.4-1.52-.86-3-1.75-4.56-2.59,1.8.89,3.44,1.78,5,2.62s3.15,1.7,4.69,2.58l-1.83-.64c6.61,3.83,12.57,7.28,18.06,10.63,2.7,1.75,5.36,3.37,7.8,5.16,1.22.88,2.45,1.75,3.61,2.66s2.29,1.85,3.39,2.8c3.36,2.26-6.5-5.15-3.46-3.18a161.94,161.94,0,0,1,12.56,10.77c1.79,1.59,3.08,2.8,4.15,3.77s2,1.68,2.82,2.44a69.12,69.12,0,0,1,6.83,6.86c-.39-.51-.73-1-.33-.77a30.15,30.15,0,0,1,4,4.22A34.13,34.13,0,0,1,511,99.26c.34.66-.2.17-1.57-1.56-1-1.35-1.53-2-1.45-2-1.48-1.72-3.42-4-1.75-1.75l.68.62c.51.7,1.35,1.64,2.14,2.75l2.42,3.3c1.46,2.1,2.43,3.68,1.72,2.79,3.07,4.3,1.44,1.76-.72-1.52,1.2,1.9,2.4,3.52,3.31,5.15.48.81.94,1.59,1.4,2.35l1.25,2.35c.86,1.54,1.61,3.16,2.41,4.89s1.57,3.65,2.45,5.78c-.5-1.38-.9-2.69-.33-1.33,2.47,6.33,2.93,7.76,3.32,8.63a39.17,39.17,0,0,1,2.06,5.6c.68,2.54.44,2.12.39,2.18s0,.17.2.86.58,1.93,1.22,4.16c1.39,5.51,0,1.24-.67-.9a174,174,0,0,1,4.62,20.1c-.33-1.44-.64-2.9-1-4.34.65,2.59,1,4.74,1.49,6.91l-.27-2.54a40.57,40.57,0,0,1,.8,4.72c.64,2.63,0-2.11,1.19,3.13.27,1.73.77,4.34,1.15,6.69a32.11,32.11,0,0,1,.64,5c-1.65-10.87-.1,1.24-1.66-7.92.33,1.76.68,3.92,1.07,6.52,0,.39-.12-.36-.26-1.06a60.21,60.21,0,0,0,1.23,7.62,56.78,56.78,0,0,1,1.35,7.9c-.35-1.35,0,2.55.23,4.31-.51-4.36,0-2.12.66,1.87.67,7,.91,7.55,1.29,11.19l-.36-4.17c.32,1.4.67,4.88,1.15,9.73-.1.43-.5-4.4-.4-2.66.81,5.37.76,12.22,1.44,19.74.11,3.5-.31.36-.19,3.43.71,8.43.27,9.16.84,18,.11-2.57.08-3,.52,3.23-.21-4.87-.49-9.74-.8-14.6.31,3.11.52,6.24.78,9.36-.09-2.21-.23-4.53-.35-6.64s-.28-4-.33-5.31c.44,4.46.35,4,.44,1.88,0,6.05.78,12,.75,19l-.6-.2c0,10.5.77,18.64.58,32.28l.11-4.38c.26,1.82,0,8.41.06,12.83-.19-.41-.31,2.34-.47,4.23.08-.12,0,2.38,0,5.06a47.62,47.62,0,0,0,.12,6.16l-.44,6.08c-.26,5.49-.22,8.64-.23,11.73s0,6.13-.31,11.41c0-3.19-.45,1.6-.21-5.48-.19,3.53-.41,6.69-.28,6.76-.21,2.05-.33,9.79-.73,13a47.71,47.71,0,0,1-.16,6c-.07.43-.1,0-.1,0s-.33,6.21.15,2.76c-.73,5.41-1.37,13-2.06,20.39-.35,3.7-.73,7.35-1.09,10.66s-.8,6.29-1.19,8.63c-.4,3.83-.92,8.05-1.4,12.19s-1,8.17-1.54,11.63a3.79,3.79,0,0,1,.12-1.34c-1.59,9.53-.26,6-2.17,16.79-1.18,5.5.74-5.79.07-2.35-.86,1.4-2,13.11-3.73,20.32l.28-1.77c-.6,2.76-1.16,6.16-1.83,10S527,484.23,526,488.75c0,0,0-.45-.08-.07-1,6.24-3.45,17.95-5.59,26.58.42-2.75.84-3.95.19-2.38-.94,3.87.71-1-1.2,6.7-.79,2.46-2.37,8-2.87,8.63.69-2.4,1.29-4.83,1.94-7.24-1.3,3.63-2.53,9.36-3.66,13.15l0-.53c-1.59,5.51-2.3,8.34-3.12,11.24S510,550.76,508,556.6l.52-1.17c-1.78,6.52-2.06,5.27-4.05,11.7-.35.6-.73,1.18-1.09,1.77-1.45,4.21-5.32,14.66-8.6,21.94.82-2.11,2.08-5.34,3.44-8.69s2.68-6.9,3.6-9.64c-.76,2.07-2.2,5.53-3.48,8.76s-2.59,6.18-2.95,7.27c.68-1.64,1.49-3.73,2.25-5.31A171.18,171.18,0,0,1,489,602.72c0-.44-.64.62-1.74,2.5s-2.56,4.61-4.29,7.48-3.64,5.93-5.35,8.58a68.15,68.15,0,0,1-4.46,6l-1.71,2.29c-.61.74-1.25,1.44-1.88,2.16l-.95,1.08-1,1-2.06,2a89.88,89.88,0,0,1-9.22,7.26,156.67,156.67,0,0,1-22,12.48c1.52-.53,2-.71,1.83-.58a16,16,0,0,1-1.78.9c-1.79.84-4.19,2-3.56,2-3.83,1.74-5.33,2.35-5.68,2.47-2,.77-4,1.49-6,2.24l-6,2.08c-2.89.9,3.71-1.53,3.29-1.52a41.91,41.91,0,0,1-5.82,2,23.12,23.12,0,0,0-3.68,1c1.25-.19-2.93,1.34-8,2.85l7.12-2c-3,1.07-5.22,1.82-7,2.34s-3.13.87-4.49,1.21L390,671.67c-1.8.49-4,1.15-7.15,2,1.3-.42,2.61-.81,3.91-1.25-1.59.48-3.89,1.08-6.51,1.8s-5.61,1.43-8.58,2.19c-6,1.46-11.92,2.83-15.08,3.72-1.17.16-2.73.3.14-.31-7.82,1.56-16.53,3.24-24.85,4.63s-16.25,2.45-22.42,3l1.18-.27c-2.95.35-5.12.84-8.84,1.07.18-.08,1.18-.26-.2-.14-1.56.2-7.84,1-11.79,1.21l3.35-.43-19.35,1.44c-2.82.23-5.57.41-8.42.57s-5.82.31-9.09.4c0-.39-12.22-.43-18.32-.61l.21-.06c-18.09-.41-30.75-.81-47.45-2.53-5.13-.88-13.87-2-23.3-3.84A259.4,259.4,0,0,1,140,677.7c2.44.76-.49.23-3.34-.62-.93-.31-2.05-.64-3.19-1l-3.31-1.05c-2-.65-3.54-1.16-3.17-1.25l1.32.46c-1.35-.63-3.87-1.72-6.83-2.83s-6.25-2.51-9.08-3.86l-1.16,0c-3.66-1.87-7.83-4.12-12.1-6.59-1.08-.6-2.11-1.3-3.18-1.94s-2.16-1.28-3.18-2c-2.07-1.42-4.17-2.79-6.09-4.31a90.19,90.19,0,0,1-10.2-8.87c-1.37-1.45-2.56-2.84-3.62-4s-1.79-2.4-2.41-3.31c-.32-.38-.65-.76-1-1.17l-.94-1.27c-.63-.88-1.28-1.77-1.93-2.66L63,626.14l.35,0c-1.37-2.37-2.58-4.44-3.66-6.43s-2.09-3.88-3.07-5.87c-2-4-4.07-8.25-6.76-14.49l1.27,2.46c-3-7-4.53-8.6-7.08-15.22l-.35-2.14c-4.69-12.56-8.36-25.63-12.23-38.3a10.81,10.81,0,0,1,.92,2.63c-.82-3-2.38-8.95-3.6-13.83s-2.21-8.7-2.24-7.51c.18-.13-.68-3.48-1.68-7.71l-1.64-6.68c-.53-2.24-1-4.4-1.46-6.16l.51,1.05c-1.63-5.91-1.73-6.09-3.5-14.45-.33-2-.11-1.79.33.87-1.1-6.66-1.27-5.12-2.56-13.2l.7,3c-1.17-6.84-1.17-6.28-2-10-.82-4.29-2-13-1.91-14.08a67.4,67.4,0,0,1-1.58-8.69c0-.56.29.91.42,1.64-.7-5.76-1.4-10-1.94-13.85S9.18,432,8.86,428a4.31,4.31,0,0,0,0-1.36c.52,4.59,1,8.72,1.41,11.62s.56,4.57.51,4.22c.25,0-.65-7.42.46-1.59-1-5.9-2.64-16-3.26-23.24,0-.35,0-.7,0-1l.11.74c-.16-1.67-.34-3.16-.53-4.56-.19-2.31-.32-3.77-.51-6,.12-.88-.69-8.51-1-12.22-.25.33-.62-4.52-.47,0a23.52,23.52,0,0,1,.32,3.16c.05.55.12,1.21.16,1.57,0-.07,0-.15,0-.25.23,2.43.54,5.6.88,9.2a96.15,96.15,0,0,1-1-10.06c-.33-1.89-.68-4-.89-5.13,0-5.1-.53-14.89-.36-16.27-.95-11.3-1.54-26.67-2.27-33.78a28.51,28.51,0,0,1,.09-4.92c.1,1.86.16,4.07.27,5.08-.37-6.44-.5-19.1-.86-20.64.12-8.13.37,4.57.24-6.6l.12,1.51c.25-11,.14-19.91.19-29.14s.28-18.77,1.45-30.9c-.17,1.68-.25,2.52-.34,2.86,2.09-27.67,5-57.09,11.18-83.79.43-1.9.74-3.38,1-4.6s.48-2.18.65-3.06c.32-1.75.58-3.12,1-5.46.22-.53.48-1,.71-1.56L19.77,154c.73-2.79,1.48-5.37,2.26-7.89s1.69-4.95,2.57-7.48l6.34-17.27c-.31.55-.61,1.1-.89,1.66.46-1.22,1.15-2.76,1.83-4.42s1.36-3.41,2.09-4.93c1.42-3.07,2.53-5.44,2.45-5A18.78,18.78,0,0,1,38,105.22l.22-.07c1.81-3.88,3.84-7.65,5.93-11.39C46.83,89.56,46.76,90,47,89.9s.29-.2.93-1.12,1.85-2.5,3.91-5.47l2.75-3.73c.49-.67,1-1.36,1.46-2l1.45-1.81c1.82-2.27,3-3.86,2.32-3.13a41.72,41.72,0,0,1-3.95,4.16L59,73c.12-.5.74-1.54.27-1.34a8,8,0,0,0-1.69,1.46c-.48.47-1.07,1.09-1.81,1.86s-1.61,1.72-2.56,2.92l-2.51,3.47c-.83,1.15-1.56,2.38-2.34,3.57l-1.76,2.13c1.38-2,2.69-4,4.13-5.89a43,43,0,0,0-3.08,4.23c-.83,1.27-1.57,2.43-2.25,3.7A27.89,27.89,0,0,0,43.32,92l-1,1.84-.93,1.88L39.53,99.5c-.65.81,1.49-3.46-1.3,1.42-1.59,3.59,2.07-3.15-.75,2.69-2,3.54-1.71,2.38-3.54,6.8-.39.56,0-.39.71-2.14-.81,2-2,4.52-3,6.88s-1.82,4.51-2.13,5.57c-.94,1.91-2.15,5.29-3.24,8.09s-1.82,5.11-2,4.84c-.16.66-.72,2.44-1.32,4.55s-1.28,4.54-1.86,6.4c.85-3.47-.35,0-1.5,4.14-.61,2.07-1.26,4.29-1.72,5.89s-.79,2.55-.8,2.06c-1,5.2-4.35,18.57-5.81,27.81.06-.52.17-1.55.35-2.35-1,5.16-1.48,6.62-2.13,9.94.28.74-1,8.82-1.41,13.22-1.34,6.31.13-3.94-.53-2,.18-.14-.16,2.64-.47,5.19s-.52,4.87-.25,3.8A58.76,58.76,0,0,1,5.52,219c.38.92-.45,4.57-.63,8.66-1,7.06-.65,1.78-1.3,9.58C3.07,240.91,3.59,234,3.59,234ZM6.48,419.77h0c-.17-1.6-.32-2.95-.42-3.82C6.14,416.74,6.26,417.85,6.48,419.77ZM8.3,435.29c-.23-1.89-.51-4.24-.8-6.73,0-.56.2,0,.37,1.59C7.71,429.3,8.07,433,8.3,435.29ZM6.68,402.24A26,26,0,0,1,7,405.87c-.12-1.16-.26-2.52-.45-4.3,0-.07,0-.22-.06-.29A5.64,5.64,0,0,1,6.68,402.24Z" transform="translate(0 -0.03)"/><path class="cls-1" d="M5.93,397.85l-.11-1,.06,1.47c.06.3.11.6.16.86C6,398.73,6,398.26,5.93,397.85Z" transform="translate(0 -0.03)"/><path class="cls-1" d="M350.56,12.12l.32.08-.66-.19Z" transform="translate(0 -0.03)"/><polygon class="cls-1" points="70.27 640.4 70.31 640.34 69.4 639.29 70.27 640.4"/><path class="cls-1" d="M265.48.14A8.54,8.54,0,0,0,264.35,0Z" transform="translate(0 -0.03)"/><path class="cls-1" d="M228.27.73,223,1Z" transform="translate(0 -0.03)"/><path class="cls-1" d="M199.79,3.62a1.93,1.93,0,0,0-.53.2h.05Z" transform="translate(0 -0.03)"/><path class="cls-1" d="M543.63,209.65c0,.38.09.75.13,1.09C544.08,213.31,543.88,211.56,543.63,209.65Z" transform="translate(0 -0.03)"/><path class="cls-1" d="M499.3,84.44c1,1,2.11,1.94,3.13,3A18.54,18.54,0,0,0,499.3,84.44Z" transform="translate(0 -0.03)"/><path class="cls-1" d="M545.38,360.66h0c0,.32,0,.6-.07.93Z" transform="translate(0 -0.03)"/><path class="cls-1" d="M506.63,92.2c-1.5-1.9-2.93-3.34-4.2-4.72C503.73,89,505.34,90.67,506.63,92.2Z" transform="translate(0 -0.03)"/><path class="cls-1" d="M85.14,48.15,84,49s0,.07-.1.14Z" transform="translate(0 -0.03)"/><path class="cls-1" d="M83.92,49.1c-.41.31-.82.62-1.22.94C83.26,49.61,83.76,49.26,83.92,49.1Z" transform="translate(0 -0.03)"/><path class="cls-1" d="M80.23,52.12,82.7,50C81.83,50.74,80.75,51.6,80.23,52.12Z" transform="translate(0 -0.03)"/><path class="cls-1" d="M117.56,28.47l.34-.28C117.7,28.31,117.58,28.41,117.56,28.47Z" transform="translate(0 -0.03)"/><path class="cls-1" d="M128,23.6c-1.26.55-2.88,1.15-4.58,1.91s-3.52,1.6-5.24,2.46l-.29.22C119.47,27.27,125.66,24.73,128,23.6Z" transform="translate(0 -0.03)"/><path class="cls-1" d="M173.94,9.79c-3.14.65-6.23,1.52-9.34,2.27,1.65-.32,3.83-.73-.4.39,5.91-1.36,5.29-1.26,4.72-1.21-.29,0-.56,0,0-.16S170.86,10.46,173.94,9.79Z" transform="translate(0 -0.03)"/><path class="cls-1" d="M203.28,4.51c-5.11.8.08.15-.18.25,1.61-.3,2.62-.44,2.74-.48A14.61,14.61,0,0,0,203.28,4.51Z" transform="translate(0 -0.03)"/><path class="cls-1" d="M414.61,32.56l-.57,0C417.73,34.09,414.11,32.52,414.61,32.56Z" transform="translate(0 -0.03)"/><path class="cls-1" d="M452.33,49.29l-3.32-2c-.58-.22-1.15-.47-1.73-.68Z" transform="translate(0 -0.03)"/><path class="cls-1" d="M472,63.76c-.48-.33-.95-.65-1.45-1,1.84,1.22,3.64,2.5,5.46,3.75Z" transform="translate(0 -0.03)"/><path class="cls-1" d="M539.25,402.29l.44-1.16C539.91,398.44,539.62,397.84,539.25,402.29Z" transform="translate(0 -0.03)"/><path class="cls-1" d="M508.26,555.21c-.35.78-.9,2.21-1.45,3.76s-1.17,3.22-1.55,4.52C506.5,560.2,507.73,556.92,508.26,555.21Z" transform="translate(0 -0.03)"/><path class="cls-1" d="M104.38,663.83l2.83,1.32c-1.76-.87-3.54-1.7-5.24-2.66C102.77,662.94,103.55,663.43,104.38,663.83Z" transform="translate(0 -0.03)"/><path class="cls-1" d="M444.31,553.43c.23.19.3,0-.16-.67l-.58-.27Z" transform="translate(0 -0.03)"/><path class="cls-1" d="M441.93,548.78c-.63-.66-1.45-1.37-1.37-.72.76.57.77.83,1.62,1.42.46.62.66,1.18.49,1.14.22.18.6,1,1,1.26a9.25,9.25,0,0,0-2-3C441.62,548.58,441.85,548.76,441.93,548.78Z" transform="translate(0 -0.03)"/><path class="cls-1" d="M402.14,484.87l.21.44C402.3,485.19,402.23,485,402.14,484.87Z" transform="translate(0 -0.03)"/><path class="cls-1" d="M378.74,444.52c.18.31.28.42.32.42C378.87,444.66,378.72,444.44,378.74,444.52Z" transform="translate(0 -0.03)"/><path class="cls-1" d="M375.09,437.43l.21.42A1.37,1.37,0,0,0,375.09,437.43Z" transform="translate(0 -0.03)"/><path class="cls-1" d="M402.14,484.87l-.56-1.12C401.44,483.74,401.84,484.34,402.14,484.87Z" transform="translate(0 -0.03)"/><path class="cls-1" d="M435.49,540.59a6.51,6.51,0,0,0,.45.52l-.38-.51Z" transform="translate(0 -0.03)"/><path class="cls-1" d="M413,502.31l.2.32a1.79,1.79,0,0,0,.28.2Z" transform="translate(0 -0.03)"/><path class="cls-1" d="M421.41,515.68c-.18-.31-.49-.26-.66-.31a2,2,0,0,1,.58.55S421.4,515.83,421.41,515.68Z" transform="translate(0 -0.03)"/><path class="cls-1" d="M434.5,537l.28.35C434.71,537.27,434.59,537.11,434.5,537Z" transform="translate(0 -0.03)"/><path class="cls-1" d="M407.21,492.64a.34.34,0,0,0,0-.18S407.19,492.55,407.21,492.64Z" transform="translate(0 -0.03)"/><path class="cls-1" d="M159.75,129.21s0,0,0,0S159.67,129.12,159.75,129.21Z" transform="translate(0 -0.03)"/><path class="cls-1" d="M147.41,115.66l.19.16a.31.31,0,0,0,.15-.08Z" transform="translate(0 -0.03)"/><path class="cls-1" d="M368.18,424.59l0,.06C368.43,425,368.31,424.78,368.18,424.59Z" transform="translate(0 -0.03)"/><path class="cls-1" d="M301,308.79c.58,1.42-1.56-1.94-.61.15C300.4,308.71,301.88,310.49,301,308.79Z" transform="translate(0 -0.03)"/><path class="cls-1" d="M435.29,540.23l-.36-.54C435.09,540,435.2,540.11,435.29,540.23Z" transform="translate(0 -0.03)"/><path class="cls-1" d="M300.42,308.94h0l.1.21Z" transform="translate(0 -0.03)"/><path class="cls-1" d="M351.47,395.46a1.11,1.11,0,0,0,.06.36S351.54,395.71,351.47,395.46Z" transform="translate(0 -0.03)"/><path class="cls-1" d="M363.46,417.43l-.27-.56C363.28,417.09,363.38,417.27,363.46,417.43Z" transform="translate(0 -0.03)"/><path class="cls-1" d="M344.72,384.35a4.66,4.66,0,0,0-.43-.81.74.74,0,0,0,0,.14A2.38,2.38,0,0,1,344.72,384.35Z" transform="translate(0 -0.03)"/><path class="cls-1" d="M338,372.59a2.41,2.41,0,0,0,.08.25l.22.36Z" transform="translate(0 -0.03)"/><path class="cls-1" d="M188.4,158.57a2.28,2.28,0,0,1-.23-.64C188.16,158.22,186.77,156.81,188.4,158.57Z" transform="translate(0 -0.03)"/><path class="cls-1" d="M435.62,540.5a.67.67,0,0,1-.33-.27l.27.37C435.61,540.61,435.65,540.59,435.62,540.5Z" transform="translate(0 -0.03)"/><path class="cls-1" d="M342.52,385l-1-1.88C341.76,383.61,342.14,384.3,342.52,385Z" transform="translate(0 -0.03)"/><path class="cls-1" d="M249.18,233.93l-.31-.38A1.81,1.81,0,0,0,249.18,233.93Z" transform="translate(0 -0.03)"/><path class="cls-1" d="M338.3,377.56a6.72,6.72,0,0,0-.43-1.15.79.79,0,0,0-.19-.18Z" transform="translate(0 -0.03)"/><path class="cls-1" d="M188.17,157.93Z" transform="translate(0 -0.03)"/><path class="cls-1" d="M178,148.07c1.4,1.48.92.45,1.37.61,1.77,1.69.59,1,1,1.73,1.12,1,2.18,1.65,2.95,2.48,0,.1.15.27-.08.14,1.3,1,3.23,3.52,4.77,4.66a.75.75,0,0,1,.1.24c-.07-.35,0-.51.18-.56.62.68,1.32,1.1,1.37,1.52a1.79,1.79,0,0,0-.71-.53l.72.64c.33.87-1-.89-1.16-.72a54,54,0,0,1,3.93,3.86c-.05.45-2.35-2.41-1.28-.79l-1.4-1.73c.74,1.62-.89-1-.26.52,1.9,2.22,2.33,2.3,4.22,4.52.59.35.06-.35.65,0,3,2.87,1.51,3,3.86,5a5.34,5.34,0,0,1,2.46,2.17l-.77-.3c1.82,2.16,1.47.86,3.22,3.26-.46-.3-1.55-1.59-1.31-1.24,1,1.64,1.06.88,2,2l-.06.46c2,2.21,4.32,4.62,6.51,7.15-.2-.08-.64-.45-.22.22a122,122,0,0,1,8.1,10.21l1.19,1c.23.28.32.6,0,.33.9,1.31.2-.05.76.47.58.7.61,1,.18.65a69.55,69.55,0,0,1,7,8.38l-.42-.39c1.3,1.88,2,1.68,3.12,3.53l-.29-.29c2.91,4,6.49,8.21,8.39,11.53.77.33,2.77,4.07,3.43,4a56.2,56.2,0,0,0,3.09,5.21c.61.87,1.24,1.06,2.07,2.09l-.23.21c.44.41.88.83,1.31,1.26l.25,1,.78,1c-.27-.42-.49-.94-.38-.93a16,16,0,0,1,2.45,4.1l2.86,3.59c-.16,0-.64-.62-1.06-1.06,1.67,1.81,0,.54,1.52,2.2-.11-.28.25,0,.33,0a41.73,41.73,0,0,0,3.08,4.59l-.38-.17c1.87,2.83,4.13,5.84,6.27,9-.69-1.19-.21-1.13.46-.23l0,.55c.57.48-.56-1,.48.05.77,1.2.23,1-.32.38l1.08,1.37c0,.14-.3-.17-.46-.19.57.47,1.4,2.65,2.25,3.32l0,.13c2.1,3.18,3.15,4.55,4.87,7.13.27-.1.89.94,1.59,1.59,1.19,1.94,2.39,4.18,3.88,6.48,1.17,1.55.51.35,1.12,1-.14.26,1.37,2.55.44,1.45,1.82,2.75,2.32,3.52,4.75,6.91-.15-.44-.39-.89-.17-.71.44.61.84,1.5.68,1.48l-.13-.16c2.81,3.76,5.1,9.55,7.53,12.43l-.13-.16,2.27,3.13c.89,1.54-.72-.81-.16.4,2.54,3.33,3.38,5.65,5.42,8.43.75,2.65,4.93,8,6.36,11.37l0-.27c.63.7.49,1,.81,1.62.07-.15-.38-.94,0-.5,4.24,6.61,8,14.08,12,21.1,1.44,2.57,1.63,1,3.13,4.41l-.81-.75c3.32,5,6.09,10.52,9.27,15.41a2.62,2.62,0,0,1-.61-.72,13.79,13.79,0,0,0,2.43,3.87c.44.8-.05.27.15.8.49,1.14,1.8,2.54,1.92,3.22,0,.12-.24-.26-.37-.45.51.64,1.84,3.27,1.7,2.46,1,2,2.17,3.58,2.89,5.17.83.84,1.72,3.32,2.28,3.42-.47.09,1.58,3.51,2.45,4.61-.35-.34.47,1.11,0,.73.78,1.37,1.56,2.59,1.63,2.23,1,2.8,3.26,4.87,3.46,6.63,2.52,4,4.8,7.65,7,11.26-.47.09-2.33-4-2.66-3.64,2.14,3.39,3.61,5.2,5.47,8.71.45.92-.46-.41-.7-.68,2.13,3.39,3.77,6.74,5.74,9.71a2.87,2.87,0,0,1-.48-.6c.36.61.75,1.45.89,1.28l-.39-.56c-.29-1.12,1.92,2.11,2.11,2.14-1.09-.74,1.61,3.13,0,1.85.26.38.63.84.7.68.3.61.34.84-.14.31,1.34,2.13,1.09,1.25,2.21,3.23-.09,0-.36-.34-.57-.49a18.39,18.39,0,0,1,2.36,3.52c-.11-.07-.07.17-.35-.33,1.66,2.85,3.23,4.63,4.86,7.86-.9-.71.49,1.14.26,1.49l1.06,1.64-.23-.77c.84,1.48,1.83,2.65,2.46,4l-.77-1,1.66,2.73-.78-1.63c1,1.4.32-.4,1.36,1.62-.27-.38.84,1.48,1.1,2.36h0a12.9,12.9,0,0,1,1.62,2.5c.06.35-.49,0-.45.21.68.56,2.06,3.41,2.88,4.16-.25-.27-.42-.18-.4-.06l.57.47c.33.73.35.85.15.81,1.16,2.08,0-.89,1.27,1.65-.12-.18-.1-.07-.37-.45,1.33,2.5,2.89,4.65,4.1,7,.06.85-1.23-1.92-1.06-1,1.95,3.21,4.3,6.49,6.08,9.65L394,473c.72.16,1.15,2.45,2.3,3.91-.26-.37-.55-.36-.44-.29,1.2,2.19,2.7,4.31,4.77,7.47l-.36-.33c.65,1.31,1.94,3.34,2.7,4.72.36.34.81,1.12.69.55,1.87,4.57,5.14,7.77,6.88,11.78-.27-.44-.75-1-.53-.64l2,3.08c0-.37-.13-.49-.39-1.24a11.27,11.27,0,0,1,1.48,1.93c-1-1.33-.31.21,0,.89,0-.14.19,0,.22-.06.66,1.85.56,0,1.71,2.41l-.18,0a28.53,28.53,0,0,1,1.71,2.41c0,.52-.65-.82-.88-.77.8,1.26,2,2.25,2.47,3.53-.41-.5-.88-1.27-1.28-1.77A10.53,10.53,0,0,0,418,513l-.05-.1,1.23,2.21-.27-.59c1.59,1.21,2.14,3.15,3.87,5-1.67-1.84-.43-.21-.79-.21.28.59.72,1.47.5,1.28.84.87.89,1.78,2.09,3,0,.12.67,1.08.32,1,.89,1.26-.05-.4.12-.36,1.54,1.85,2.7,4.92,4.94,7.56,1.77,2.37,2.34,2.65,4,4.86.38.86-.71-.44-.71-.44a21.7,21.7,0,0,0,2.19,3.37c-.23-.19-.13.09,0,.51.65.92.72.43,1.42,1.75a4.88,4.88,0,0,1-.95-.72c.82,1,1.7,2,2.54,3.14.06.4-.68-.55-1-.89a22,22,0,0,0,2.85,3.49l-.48-.87c.33.46,0,.37-.3,0-.91-1-1-1.64-.95-1.76l.6.78c-.08-1.15-2.27-3.22-3.34-4.88l.81.45-1.41-1.49c-.14-.42-.11-.8.47,0-.6-1.3-.8-1-1.27-2.12-.05-.13,0-.09.08,0l-.85-1.09c.22.17.12-.36.53.39-1.15-2.21-2.44-3.19-2.68-4.14l.13.16c-2-2.81-.44-.11-2.14-2.09l-.32-1.86-.44-.12c-.18-.3-.55-.9-.37-.86-.9-1,0,.26-.57-.28-.71-1.57-2.65-3.9-2.45-4.48-.52-.4.72,1.47-.39,0,.17-.72-1.2-1.74-1.83-3.19.48.27,1.15,1.59.52.14-.89-.55-1.54-2.62-2.31-3.69-.34.15-1.66-2.34-2.94-4.14.17.06-2-3.64-3-5.46l.09,0c-.52-.14-1.58-2-2.45-3.26.22-.06.44.13,1,.79l-.76-1.24a6.34,6.34,0,0,1-1.1-1.36l.42.17a58.74,58.74,0,0,1-3.45-5.36c-.29,0,.41,2.06-1.09-.1.06-.15.22-.36.62.2a6.27,6.27,0,0,1-.7-1.05l.74.78c-.49-1-.47-.41-.92-1.19.18-.09-.22-.65,0-.62a7.29,7.29,0,0,0,.58,1,13.07,13.07,0,0,1-1.11-2.44c0,.13-.23.14-.64-.49-1-1.65-.14-.69-.63-1.7-.36-.33-.88-1.46-1.15-1.34a1.7,1.7,0,0,1-.27-.87c-.62-.79-2.44-4-2.13-2.85l.12.23-.1-.14h0c-2-2.64-3.33-5.93-5.11-8.66l.09-.05c-1.08-1.61-2.26-3.68-3.14-4.76-.3-.5-.54-1.26-.31-1.11a18,18,0,0,1-1.94-3.26c.89,1.2-.13-.52.87,1.26a18.36,18.36,0,0,0-2.25-3.82c.57.48-.46-1.41-1-2.17l.52,1.26c-.55-.87-1-1.66-1.43-2.46l.54.26c-1.63-3.61-4.19-5.8-5.1-8.74-.72-.79.93,1.94.23,1.27-.87-1.6-1.4-3.47-1.68-4-1.08-2.24-1.58-1.76-2.77-4.08.07.35-.05.78-1.12-.85-.87-1.6-.68-2.18,0-1.24.23.37.3.58.26.58.33.49.76,1.13.51.44l-.22-.14c-.35-.84-1.6-3-1.14-2.59-.79-1.13-.46-.41,0,.5-1-2.1-1.81-3.16-2.9-5.3.13.37.19.74,0,.41-1.61-3.13-1-1.23-2.19-3.28-.51-1.26.62.21-.7-1.8-.62-1.33.12-.42.49,0a31.69,31.69,0,0,1-2.48-4.72l.66.95c-.39-.57-.67-1.06-1-1.56l.12.69c-.29-.61-.58-1.1-.49-1.14-.48-.53-.07.66-.94-.44-.35-.84-1.47-2.32-1.35-2.75,1.3,2.52.12-.42,1.35,1.64a13.22,13.22,0,0,1-.84-1.49c0-.1.1.05.21.2-1.09-2.49-.92-.9-2.3-3.35.33.22,0-.73-.29-1.11.55,1,0,.61-.62-.22a17.46,17.46,0,0,0-1.51-2.48l.47,1a10,10,0,0,1-1.42-2.09c.06-.16.64.95.47.53-1-1.06-1.27-2.9-2.41-4.49-.34-.84.24-.24-.08-1-1.27-1.78-.95-2.17-2.24-4.07.12.69.22.76-.77-.53l2,3.2L358,408c.55,1,1.31,2,1.61,2.62-.74-.9-.63-.83-.53-.26-.46-1.53-1.7-2.58-2.38-4.26l.54-.25c-1.1-2.48-2.63-4-4.23-7.15l.47,1a21.38,21.38,0,0,1-1.74-2.81c.22,0-.07-.66-.2-1.14-.1.12-1.25-2.25-1.75-2.33l-.55-1.49c-1.31-2.52-2.08-2.54-3.37-4.94.59.61.1-.54,1.14,1-.45-.79-.82-1.52-.95-1.46-.15-.53-1.47-2.07-1.72-2.89a3.34,3.34,0,0,1-1-1.19c0-.12.09,0,.09,0s-.91-1.33-.66-.44c-.85-2.74-3.91-6.79-4.66-9.17-1-1.69-2.28-3.74-3.19-5.3.11.08.09,0,.24.27-1.08-2.25-1.25-1.05-2.48-3.6-.45-1.42.89,1.21.55.37.37-.66-1.78-2.91-2.4-4.75l.27.38c-.54-1.38-2-3-3.13-5,0,0,.11.07.09,0a57.59,57.59,0,0,1-4-5.78c.58.48.64.83.65.32-.55-.87-.21.47-1.3-1.26-.21-.65-.85-2-.71-2.3l1,1.67c-.19-1-1.26-2.16-1.72-3.07l.2,0c-1.53-2.53-1.88-2.37-3.47-5.13l.06.35c-1.21-1.3-.55-1.37-1.68-2.72l.08-.65c-.67-.94-2.37-3.27-3.48-5a50,50,0,0,1,3.1,4.05,28.76,28.76,0,0,0-2.45-3.73,7.92,7.92,0,0,1,.82,1.25,25.53,25.53,0,0,1-3.18-4.51c.87,0-2.86-5.17-3.19-6.88-2.31-3.29-4-6.89-6.44-10.86.35,1.72-.73-1.15-1.1-.59a8.8,8.8,0,0,1-.83-1.37L299,306c-.25-.76.66.81.72.65-1.2-2.05-.3-1-1-2.41,0,.39-.7-.55-1.34-1.75l.76,1.78c-2-2.67-1.07-2.72-3.09-5.42l.72.81c-1-1.42-3.37-5.39-4.67-6.57-.1-.29-.18-.72.26-.1-2.13-3.52-5.28-7.5-6.77-10.34l.3.18a8.87,8.87,0,0,1-1.36-1.86c.08,0,.3.18.11-.13a18,18,0,0,1-1.8-2.47l.61.64c-2-3.49-3.67-5-5.58-7.74.38-.23-1.25-2.94-2.06-4.3h.08c-2.53-3.92-4.69-6.42-7.22-9.93-1.12-2.48-5-7.62-7.19-11.34.3.59-.35.11-.82-.5-.49-.89-1.83-2.14-1.41-2.23l.2.3c-.12-.85-1.41-2.49-2.34-3.83l-.59.09c-1.84-3.91-6.64-9-7.47-11.21-.72-.75-1.47-1.78-2.18-2.52l.26-.13c-1.62-2.33-2.44-3.5-4.57-6.29l.58.46c-1.16-1.61-2.13-1.54-3.23-3v-.69c-2.11-2.75-3.94-5.76-6.32-8.24.08,0,.24,0,.6.45-1-1.31-3.6-5.19-3.7-4.36.29-.28-2.18-2.83-3.48-4.19l.4,0a14.12,14.12,0,0,1-2.81-2.65c-.3-.43-.11-.5.26.09-1-1.45-1.05-.89-2.25-2.64l.63.51a7,7,0,0,0-1.86-1.88,10.23,10.23,0,0,1-2-3.07,5.27,5.27,0,0,1-1.67-1.57c0-.17.27.09.42.22-1.77-2.42-3.09-3.22-4.2-5,.05-.09,0-.23-.09-.38,1.51,1.84,2.72,3.32,2.59,3.19.2-.16-1-1.67.26-.72a35.71,35.71,0,0,1-4.25-4.33,1,1,0,0,1-.09-.25l.15.13a7,7,0,0,0-.79-.88c-.35-.49-.57-.8-.93-1.25a15,15,0,0,0-1.93-2.51c-.16.24-1-.73-.36.31-.08-.13.14.11.56.6.1.1.21.23.28.29l-.06,0,1.54,1.81a7.28,7.28,0,0,1-1.75-1.93c-.45-.26-.93-.56-1.2-.73-.56-1.24-2.06-3.28-2.11-3.71-2-2.1-4.6-5.13-6.2-6.16a2.13,2.13,0,0,1-.66-1.11c.35.32.72.76.95.91-1.19-1.17-3.28-3.68-3.83-3.71-1.29-1.66,1,.64-.94-1.45l.34.22c-3.39-4.58-6.87-6.19-10.59-11.29a2.41,2.41,0,0,1,.42.62c-2.36-2.7-5-5.31-7.55-7.92-1.29-1.31-2.57-2.62-3.81-3.94s-2.51-2.6-3.67-3.94a10.83,10.83,0,0,0-2.67-2.21l-.1-.52-1.73-1.23c-2.3-1.89-3.09-4.2-6.19-6.4l.21.48c-1-1-3.19-2.85-2.87-2.86a1.66,1.66,0,0,1-.78-.59l.08-.14-2.6-2.08c-1.79-1.84.72-.18-2-2.78-1.06-.91-3.21-2.38-2.9-1.94s1,1.06.91,1.2l-1-.81c-.48.18-1.51-.14.54,2.24l1.78,1.29.36.64-1.35-1.24a5.6,5.6,0,0,0,1.85,1.59,2,2,0,0,0,.49.81l1.86,1.14c.07.31-.94-.4,0,.66.87.54-.42-1,.88.08.62.87.28.79,1.29,1.49,0,.21-.2.08-.59-.21a28.17,28.17,0,0,0,2.72,2.14c.62.92,2.72,2.47,2.33,2.72a16.73,16.73,0,0,1,2.32,1.8c-1.66-.91,2.64,2.65,1.9,2.71,1.29.62,3.61,3.29,5.49,4.79a1.71,1.71,0,0,1-.49-.37,22.54,22.54,0,0,1,1.65,2c.42-.16,1.94,1.28,2.89,1.93.87,1.46-1-.4-.92.23.17-.29,2.21,1.85,2,1.26.71,1.07.67.86.89,1.56.5-.18.87.79,1.81,1.33,1.09,1.49,0,.66,1.49,2C179.39,149.24,178,148.07,178,148.07Zm32.42,35h0l-.64-.74ZM213,186.2l-1.11-1.35c0-.17.16-.12.42.2C212.13,184.92,212.7,185.68,213,186.2Zm-4-7.79c.44.46.54.66.55.77l-.74-.84-.07,0A.53.53,0,0,1,209.07,178.41Z" transform="translate(0 -0.03)"/><path class="cls-1" d="M208.06,177.77l-.18-.19.19.33.21.12Z" transform="translate(0 -0.03)"/><path class="cls-1" d="M402.39,485.39l0-.08a1.2,1.2,0,0,1,.06.17A.51.51,0,0,1,402.39,485.39Z" transform="translate(0 -0.03)"/><polygon class="cls-1" points="246.47 230.35 246.53 230.3 246.27 230.05 246.47 230.35"/><path class="cls-1" d="M413.07,504.8a.74.74,0,0,0,.09.28A1.26,1.26,0,0,0,413.07,504.8Z" transform="translate(0 -0.03)"/><path class="cls-1" d="M418,513l.64,1.19C418.42,513.64,418.21,513.26,418,513Z" transform="translate(0 -0.03)"/><path class="cls-1" d="M421.86,519.26a.3.3,0,0,0,.17,0h0Z" transform="translate(0 -0.03)"/><path class="cls-1" d="M362.07,418.79l-.15-.24C361.55,418,361.79,418.38,362.07,418.79Z" transform="translate(0 -0.03)"/><path class="cls-1" d="M379.89,448.67c-.22-.29-.45-.58-.67-.9C379.51,448.32,379.75,448.74,379.89,448.67Z" transform="translate(0 -0.03)"/><path class="cls-1" d="M342.63,385.17h0l-.12-.21Z" transform="translate(0 -0.03)"/><path class="cls-1" d="M378.42,446.37a9.82,9.82,0,0,0,.8,1.4A14.88,14.88,0,0,0,378.42,446.37Z" transform="translate(0 -0.03)"/><path class="cls-1" d="M439.12,546.06l.19.3s0,0,.06,0Z" transform="translate(0 -0.03)"/><path class="cls-1" d="M439.37,546.37l.24.31A1.43,1.43,0,0,0,439.37,546.37Z" transform="translate(0 -0.03)"/><path class="cls-1" d="M440.13,547.33l-.52-.65A2.79,2.79,0,0,0,440.13,547.33Z" transform="translate(0 -0.03)"/><path class="cls-1" d="M433.84,537.88l-.15,0A.17.17,0,0,0,433.84,537.88Z" transform="translate(0 -0.03)"/><path class="cls-1" d="M432.2,535.41a22.93,22.93,0,0,0,1.37,2.4l.12,0C433.31,537.53,432.71,535.88,432.2,535.41Z" transform="translate(0 -0.03)"/><path class="cls-1" d="M426.54,524.37l1.27,2.13c-.14-.43-.33-1,.31,0C426.69,523.65,428.25,527.13,426.54,524.37Z" transform="translate(0 -0.03)"/><path class="cls-1" d="M422.57,517.79c.76,1.1.13-.1.22-.07C422.25,517.06,422.12,516.9,422.57,517.79Z" transform="translate(0 -0.03)"/><path class="cls-1" d="M393.74,470.37l.29,0C393.47,469.49,393.94,470.4,393.74,470.37Z" transform="translate(0 -0.03)"/><polygon class="cls-1" points="387.24 461.85 387.61 462.79 388.05 463.08 387.24 461.85"/><polygon class="cls-1" points="385.66 455.51 385.92 455.88 384.98 454.45 385.66 455.51"/><path class="cls-1" d="M339.43,374.56l-.12.43C339.7,375.56,340.08,375.51,339.43,374.56Z" transform="translate(0 -0.03)"/><path class="cls-1" d="M319,339.84a5.17,5.17,0,0,0-1.06-2C318.42,338.62,318.78,339.46,319,339.84Z" transform="translate(0 -0.03)"/><polygon class="cls-1" points="254.71 237.58 255.27 238.18 254.31 236.99 254.71 237.58"/><path class="cls-1" d="M433.89,133.11c.1-.27-.15-.27-.58.37l-.05.63Z" transform="translate(0 -0.03)"/><path class="cls-1" d="M430.35,136.85c-.41.82-.8,1.82-.21,1.53.27-.9.51-1,.77-2,.43-.64.88-1,.9-.83.1-.27.77-.91.84-1.36a9,9,0,0,0-2.16,2.82C430.26,137.21,430.36,136.94,430.35,136.85Z" transform="translate(0 -0.03)"/><path class="cls-1" d="M388.31,198.32l.28-.38C388.51,198,388.41,198.17,388.31,198.32Z" transform="translate(0 -0.03)"/><path class="cls-1" d="M364.44,237.83c.17-.3.22-.45.2-.48C364.49,237.65,364.37,237.89,364.44,237.83Z" transform="translate(0 -0.03)"/><path class="cls-1" d="M360.15,244.46l.26-.39A1.46,1.46,0,0,0,360.15,244.46Z" transform="translate(0 -0.03)"/><path class="cls-1" d="M388.31,198.32l-.74,1C387.62,199.45,388,198.82,388.31,198.32Z" transform="translate(0 -0.03)"/><path class="cls-1" d="M424.88,145.57c.13-.22.23-.41.32-.59l-.34.53Z" transform="translate(0 -0.03)"/><path class="cls-1" d="M399,181l.21-.32a1.91,1.91,0,0,0,.06-.33Z" transform="translate(0 -0.03)"/><path class="cls-1" d="M407.47,167.88c-.21.28-.05.54,0,.72a1.86,1.86,0,0,1,.27-.74S407.6,167.82,407.47,167.88Z" transform="translate(0 -0.03)"/><path class="cls-1" d="M421.93,147.76l.23-.38Z" transform="translate(0 -0.03)"/><path class="cls-1" d="M392.91,190.38a.28.28,0,0,0-.16.07S392.83,190.44,392.91,190.38Z" transform="translate(0 -0.03)"/><path class="cls-1" d="M161.77,559.77s0,0,0,0S161.68,559.85,161.77,559.77Z" transform="translate(0 -0.03)"/><path class="cls-1" d="M146.82,570.15,147,570a.43.43,0,0,0,0-.16Z" transform="translate(0 -0.03)"/><path class="cls-1" d="M352.66,256.79l0-.05C352.86,256.39,352.76,256.58,352.66,256.79Z" transform="translate(0 -0.03)"/><path class="cls-1" d="M288.22,372.42c.95-1.18-.91,2.29.44.46C288.46,373,289.28,370.87,288.22,372.42Z" transform="translate(0 -0.03)"/><path class="cls-1" d="M424.61,145.88l-.36.52A5.13,5.13,0,0,0,424.61,145.88Z" transform="translate(0 -0.03)"/><path class="cls-1" d="M288.66,372.88h0l.13-.19C288.74,372.77,288.7,372.81,288.66,372.88Z" transform="translate(0 -0.03)"/><path class="cls-1" d="M336.46,285.81a1.72,1.72,0,0,0,.27-.24S336.63,285.62,336.46,285.81Z" transform="translate(0 -0.03)"/><path class="cls-1" d="M349,264.44l-.33.51A5.26,5.26,0,0,0,349,264.44Z" transform="translate(0 -0.03)"/><path class="cls-1" d="M330.53,297.22a4.58,4.58,0,0,0-.46.77l.1-.1A2.36,2.36,0,0,1,330.53,297.22Z" transform="translate(0 -0.03)"/><path class="cls-1" d="M324,308.9c.06,0,.11-.12.17-.18l.19-.38Z" transform="translate(0 -0.03)"/><path class="cls-1" d="M189.72,530.07a2.62,2.62,0,0,1-.59.31C189.42,530.35,188.2,531.9,189.72,530.07Z" transform="translate(0 -0.03)"/><path class="cls-1" d="M424.75,145.48a.66.66,0,0,1-.14.4l.25-.37C424.85,145.45,424.82,145.42,424.75,145.48Z" transform="translate(0 -0.03)"/><path class="cls-1" d="M332.2,298.77l-1.07,1.84C331.45,300.1,331.83,299.44,332.2,298.77Z" transform="translate(0 -0.03)"/><path class="cls-1" d="M244.72,451.32l-.23.43A1.82,1.82,0,0,0,244.72,451.32Z" transform="translate(0 -0.03)"/><path class="cls-1" d="M328.1,306.14a6.54,6.54,0,0,0-.75.95.9.9,0,0,0-.06.25Z" transform="translate(0 -0.03)"/><path class="cls-1" d="M189.12,530.38h0Z" transform="translate(0 -0.03)"/><path class="cls-1" d="M180.43,541.43c1.39-1.49.38-.94.51-1.4,1.57-1.86,1-.65,1.67-1.13.92-1.21,1.41-2.32,2.15-3.17.1,0,.26-.18.15.07.81-1.42,3.06-3.64,4-5.3a.7.7,0,0,1,.22-.12c-.33.11-.51,0-.57-.11.58-.7.91-1.43,1.32-1.54a1.77,1.77,0,0,0-.43.76l.53-.79c.82-.43-.75,1.07-.55,1.23.56-.74,1.14-1.57,1.68-2.35a19.11,19.11,0,0,1,1.54-2.05c.45,0-2,2.68-.57,1.38-.49.55-1,1.1-1.49,1.63,1.51-.95-.89,1,.55.18,1.91-2.19,1.89-2.65,3.77-4.85.26-.63-.35,0-.09-.63,2.28-3.44,2.68-2,4.2-4.67a5.57,5.57,0,0,1,1.64-2.82l-.13.82c1.71-2.22.52-1.61,2.48-3.82-.19.51-1.22,1.85-.93,1.54,1.38-1.35.63-1.21,1.51-2.39l.45,0c1.73-2.43,3.54-5.2,5.42-7.92,0,.21-.27.74.26.17,2.28-3.51,5.18-7.25,7.68-10.43l.64-1.42c.2-.3.48-.48.31-.12,1-1.24-.11-.18.22-.87s.8-.88.55-.36a70,70,0,0,1,5.87-9.07l-.25.52c1.37-1.82,1-2.45,2.33-4.06l-.17.37c2.79-4.06,5.53-8.77,8-11.69,0-.81,2.78-4,2.45-4.59a59.15,59.15,0,0,0,3.68-4.74c.58-.88.52-1.53,1.17-2.67l.27.14.68-1.68.81-.6.59-1.09c-.28.41-.67.81-.71.7a16.31,16.31,0,0,1,2.79-3.82l2.14-4a5.09,5.09,0,0,1-.55,1.38c1-2.23.51-.21,1.42-2.25-.22.22-.08-.23-.1-.31a35.9,35.9,0,0,0,3-4.62v.41c1.82-2.83,3.56-6.13,5.51-9.37-.78,1.12-.94.66-.4-.31l.5-.21c.2-.72-.69.93-.15-.46.75-1.19.8-.62.48.13l.78-1.53c.13,0,0,.33,0,.49.19-.71,1.8-2.38,2-3.43l.14,0c1.94-3.24,2.69-4.78,4.23-7.44-.22-.2.44-1.2.71-2.11,1.21-1.9,2.67-4,4-6.32.84-1.72.07-.6.36-1.43.3,0,1.64-2.35,1.09-1,1.59-2.85,2-3.64,3.91-7.33-.32.34-.61.76-.55.49.33-.68.94-1.43,1-1.28l-.07.19c2-4.21,6-8.91,7.32-12.39l-.08.19,1.64-3.46c.91-1.51-.35,1,.43,0,1.66-3.81,3.27-5.65,4.69-8.75,1.95-1.92,4.52-8.17,6.68-11l-.26.09c.3-.88.64-.92,1-1.49-.17,0-.62.79-.43.25,3.62-6.89,8.05-13.89,12.07-20.77,1.45-2.53,0-1.9,2.15-4.9L311,337c2.51-5.34,5.86-10.51,8.36-15.71a2.56,2.56,0,0,1-.29.89,13.73,13.73,0,0,0,2-4c.45-.78.25-.1.61-.53.72-1,1.22-2.83,1.74-3.28.09-.08-.1.34-.19.54.29-.75,1.83-3.22,1.21-2.69,1.17-1.83,1.9-3.68,2.89-5.1.27-1.13,1.93-3.16,1.72-3.69.32.36,2.16-3.13,2.64-4.42-.1.46.7-1,.61-.41.75-1.37,1.37-2.66,1-2.53,1.87-2.25,2.43-5.26,3.83-6.33,2.06-4.16,4-8,5.95-11.66.32.35-2.21,4-1.71,4.11,1.77-3.54,2.55-5.72,4.58-9.07.55-.85-.12.6-.22.93,1.79-3.52,3.8-6.62,5.32-9.8a3,3,0,0,1-.26.71c.32-.61.85-1.37.63-1.4l-.28.61c-.81.82.81-2.7.74-2.88-.08,1.31,1.84-2.94,1.56-.95.2-.42.4-1,.23-.94.37-.57.54-.71.34,0,1.13-2.21.51-1.55,1.63-3.5.08.06-.11.47-.13.73a17.59,17.59,0,0,1,1.82-3.78c0,.13.17,0-.11.47,1.6-2.84,2.32-5.08,4.26-8.09-.15,1.13.73-1,1.16-1l.87-1.71-.55.57c.86-1.45,1.37-2.87,2.21-4.06l-.5,1.16,1.53-2.77-1,1.48c.69-1.57-.5-.08.72-2-.2.41.85-1.45,1.49-2.1h0a12.84,12.84,0,0,1,1.35-2.61c.27-.22.23.43.4.29.15-.87,1.91-3.45,2.17-4.51-.11.34.05.45.14.37l.13-.72c.47-.63.57-.71.64-.52,1.24-2-.79.4.81-1.89-.1.2,0,.13-.21.54,1.52-2.35,2.63-4.73,4.05-6.87.71-.46-1.07,2-.35,1.39,1.83-3.22,3.53-6.83,5.49-9.84l-.38.55c-.2-.7,1.62-2.15,2.35-3.83-.2.4-.06.65,0,.52,1.35-2,2.5-4.36,4.3-7.62l-.12.46c.84-1.18,2.07-3.2,2.95-4.49.14-.47.63-1.21.17-.86,3.23-3.66,4.53-8,7.39-11.28-.28.43-.57,1.09-.35.75l1.88-3.13c-.35.12-.37.33-.94.87a9.91,9.91,0,0,1,1.1-2.14c-.77,1.46.32.19.81-.33-.12.06-.06-.18-.15-.17,1.38-1.38-.22-.52,1.43-2.55l0,.18a28.57,28.57,0,0,1,1.43-2.55c.46-.22-.46.93-.31,1.11.79-1.24,1.16-2.72,2.11-3.69-.28.57-.77,1.32-1.05,1.89a10.74,10.74,0,0,0,1.71-2.11l-.06.08c.48-.67,1-1.33,1.49-2l-.42.48c.45-1.91,2-3.18,3-5.49-1,2.24,0,.47.13.79.43-.48,1.05-1.22,1-1,.46-1.11,1.26-1.51,1.89-3.09.12,0,.71-1,.76-.68.8-1.3-.34.21-.37,0a22.22,22.22,0,0,1,2.3-3.36,24.81,24.81,0,0,0,2.73-4c1.53-2.49,1.57-3.12,3-5.43.66-.65-.14.82-.14.82a20.34,20.34,0,0,0,2.29-3.24c-.09.28.14.08.47-.2.62-.93.14-.82,1.13-1.92a4.69,4.69,0,0,1-.34,1.13c.71-1.11,1.33-2.26,2.07-3.4.36-.19-.28.81-.47,1.26a22.1,22.1,0,0,0,2.3-3.81l-.66.73c.32-.45.35-.09.15.27-.61,1.18-1.2,1.46-1.33,1.46l.53-.81c-1.05.46-2.26,3.17-3.42,4.73l.13-.91-.88,1.84c-.33.28-.69.38-.18-.44-1,1-.6,1.1-1.48,1.95-.1.08-.08,0,0-.09l-.68,1.19c.08-.27-.37,0,.16-.63-1.61,1.86-2,3.41-2.82,4l.1-.18c-1.85,2.87.06.45-1.12,2.74l-1.61,1,.06.45c-.21.28-.63.84-.66.66-.57,1.19.24-.11,0,.63-1.18,1.24-2.5,3.93-3.12,4-.15.63,1.05-1.24.18.34-.72.14-1.1,1.78-2.16,2.93,0-.55,1-1.68-.08-.53-.15,1-1.77,2.44-2.43,3.57.28.25-1.48,2.41-2.55,4.32,0-.18-2.41,3.35-3.63,5l0-.08c.1.53-1.11,2.25-1.87,3.57-.15-.17-.08-.45.29-1.19l-.78,1.2a6.39,6.39,0,0,1-.75,1.56l0-.45c-1,1.61-1.83,3.41-3.28,5.4.14.25,1.64-1.28.4,1-.17,0-.42,0-.1-.65a6.28,6.28,0,0,1-.62,1.09l.36-1c-.68.89-.15.6-.64,1.35-.16-.12-.48.48-.54.29a6,6,0,0,0,.6-.95,12,12,0,0,1-1.65,2.07c.14,0,.22.14-.15.78-1,1.63-.55.43-1.23,1.32-.13.47-.9,1.42-.67,1.61a1.7,1.7,0,0,1-.65.63c-.41.9-2.42,3.93-1.57,3.15l.16-.2-.08.14h0c-1.46,2.9-3.66,5.66-5.23,8.47l-.08-.06c-.91,1.7-2.17,3.68-2.7,5-.3.49-.86,1-.83.79a21.35,21.35,0,0,1-1.92,3.22c.61-1.36-.39.36.67-1.36a18.11,18.11,0,0,0-2.23,3.78c.14-.73-1,1.07-1.4,1.89l.83-1.06c-.49.9-1,1.65-1.44,2.42l0-.59c-2.34,3.15-3,6.4-5.11,8.61-.32,1,1.22-1.74,1-.81-1,1.52-2.31,2.9-2.59,3.38-1.4,2-.74,2.23-2.15,4.39.27-.22.7-.33-.17,1.39-.94,1.52-1.54,1.65-1.05.62.21-.37.34-.53.37-.5.25-.52.59-1.2.12-.65V237c-.56.71-1.79,2.85-1.67,2.25-.58,1.23-.12.6.44-.24-1.31,1.9-1.82,3.11-3.11,5.1.24-.3.54-.53.35-.2-1.87,2.94-.57,1.44-1.7,3.51-.82,1.07-.14-.63-1.19,1.5-.82,1.2-.42.11-.22-.44a30.31,30.31,0,0,1-2.79,4.48l.48-1c-.29.62-.57,1.1-.85,1.59L355,253c-.37.56-.65,1.06-.73,1-.21.68.6-.26.11,1-.55.71-1.24,2.41-1.67,2.53,1.49-2.38-.43.11.71-2a10.89,10.89,0,0,1-.84,1.46c-.08.07,0-.11.06-.28-1.58,2.19-.31,1.25-1.69,3.66,0-.4-.61.39-.8.81.56-1,.52-.32.13.64a17.81,17.81,0,0,0-1.34,2.54l.59-.9a10.45,10.45,0,0,1-1.05,2.28c-.17,0,.47-1,.2-.67-.41,1.35-1.82,2.55-2.58,4.33-.55.71-.33-.09-.79.55-.86,2-1.36,1.91-2.32,4,.53-.45.54-.58,0,.92l1.69-3.32-.88,2.25c.56-1,1-2.14,1.41-2.71-.4,1.09-.39,1,.05.59-1.07,1.16-1.32,2.75-2.41,4.18l-.49-.33c-1.54,2.2-2.06,4.29-3.89,7.24l.64-.92a21.31,21.31,0,0,1-1.49,2.91c-.12-.18-.53.39-.87.75.16,0-1.25,2.21-1.06,2.68l-1,1.22c-1.46,2.4-1.07,3.07-2.44,5.39.2-.81-.51.19.23-1.46-.44.78-.86,1.47-.75,1.55-.37.4-1,2.31-1.55,2.94a3.52,3.52,0,0,1-.49,1.46c-.09.07-.09-.05-.09-.05s-.65,1.44,0,.78c-1.89,2.12-3.73,6.79-5.37,8.64-.89,1.75-2,3.84-2.84,5.41,0-.13-.08-.05.1-.34-1.36,2.06-.24,1.6-1.78,3.94-1,1.1.57-1.38,0-.66-.75,0-1.56,3-2.8,4.46l.18-.42c-.89,1.15-1.49,3.19-2.67,5.22,0,0,0-.12-.08-.06a54.33,54.33,0,0,1-2.89,6.31c.12-.74.38-1-.05-.72-.46.91.51-.05-.41,1.75-.44.51-1.26,1.73-1.6,1.76l.92-1.68c-.79.69-1.19,2.17-1.73,3l-.08-.19c-1.37,2.58-1.05,2.81-2.6,5.55l.26-.23c-.5,1.69-.89,1.15-1.47,2.79l-.6.26c-.47,1-1.6,3.66-2.53,5.47.31-1.15,1.34-3.3,1.9-4.67a29.56,29.56,0,0,0-1.95,3.95,7.71,7.71,0,0,1,.65-1.32,25.37,25.37,0,0,1-2.24,5c-.48-.72-3,5-4.33,6.13-1.69,3.6-3.95,6.8-6.17,10.85,1.32-1.14-.64,1.18,0,1.23a8.16,8.16,0,0,1-.78,1.38l-1.92,2.65c-.54.59.38-.95.22-.93-1.2,2-.72.73-1.62,2,.34-.17-.14.87-.87,2l1.18-1.5c-1.34,3-1.85,2.22-3.2,5.26l.35-1c-.74,1.53-3.1,5.45-3.49,7.15-.21.23-.55.49-.22-.18-2.08,3.49-4,8.1-5.88,10.7l0-.35a8.26,8.26,0,0,1-1,2c0-.08,0-.34-.16,0a16.65,16.65,0,0,1-1.35,2.71l.28-.83c-2.13,3.34-2.7,5.46-4.28,8.39-.37-.23-2.07,2.39-2.92,3.7l0-.08c-2.37,4-3.64,7-5.69,10.72-1.77,2-4.76,7.63-7.19,11.13.4-.51.23.27-.12.94-.6.81-1.18,2.52-1.45,2.18l.2-.3c-.74.44-1.72,2.24-2.56,3.61l.31.5a38.16,38.16,0,0,0-4,6.16,24.25,24.25,0,0,1-3.3,4.94c-.43.93-1.1,2-1.52,2.91l-.21-.2c-1.56,2.34-2.33,3.51-4.12,6.48l.21-.7c-1,1.65-.65,2.52-1.62,4l-.65.23c-1.85,2.87-4.05,5.56-5.57,8.6,0-.08-.06-.23.22-.71l-2,3c-.71,1.06-1.21,1.94-.81,1.86-.33-.18-2,2.89-2.9,4.52l-.07-.4a13.52,13.52,0,0,1-1.66,3.44c-.31.41-.43.25,0-.28-1.08,1.34-.53,1.26-1.82,2.9l.29-.74a7.14,7.14,0,0,0-1.23,2.31,9.79,9.79,0,0,1-2.35,2.76,4.9,4.9,0,0,1-1.06,2c-.16.06,0-.28.09-.45-1.86,2.3-2.27,3.77-3.66,5.27-.1,0-.22.06-.34.18,1.36-1.91,2.47-3.44,2.38-3.29-.21-.15-1.34,1.37-.76-.06a35.87,35.87,0,0,1-3,5.16,1.28,1.28,0,0,1-.21.14l.08-.17a8.21,8.21,0,0,0-.65,1c-.39.45-.63.73-1,1.18a13.64,13.64,0,0,0-2,2.42c.28.11-.5,1.07.38.28-.11.11.08-.16.44-.67.08-.12.18-.26.22-.34l0,.06,1.39-1.89a7,7,0,0,1-1.45,2.12c-.14.5-.31,1-.42,1.33-1.09.8-2.75,2.67-3.15,2.81l-2.67,3.88a19.49,19.49,0,0,0-2.05,3.34,2.17,2.17,0,0,1-1,.83,11.5,11.5,0,0,0,.7-1.08c-.91,1.36-3,3.84-2.92,4.37-1.42,1.52.45-1.12-1.26,1.14l.15-.37a26.68,26.68,0,0,0-2.49,3c-.73,1-1.4,1.9-2.08,2.87a34.42,34.42,0,0,1-5.06,6,2.43,2.43,0,0,1,.57-.47c-2.36,2.63-4.84,5.28-7.24,8-1.21,1.35-2.41,2.71-3.65,4s-2.59,2.45-3.92,3.58a10.79,10.79,0,0,0-2.2,2.61l-.51.08L164.54,555c-2,2.2-4.28,2.82-6.72,5.65l.5-.16c-1,.85-3.09,2.88-3.07,2.55a1.42,1.42,0,0,1-.69.68l-.13-.1-2.42,2.2c-2.07,1.46-.07-.73-3,1.49-1,.89-2.82,2.76-2.35,2.53s1.18-.78,1.31-.68l-1,.83c.09.52-.41,1.51,2.25-.13l1.55-1.55.69-.25-1.44,1.13a5.64,5.64,0,0,0,1.86-1.57,2.07,2.07,0,0,0,.88-.36l1.41-1.65c.32,0-.53.87.66.07.66-.77-1,.27.21-.85.95-.48.85-.12,1.64-1.07.21,0,.06.2-.27.56a23.08,23.08,0,0,0,2.37-2.5c1-.52,2.7-2.47,2.91-2.07a16.09,16.09,0,0,1,1.94-2.19c-.51.79.2.18,1-.54s1.71-1.63,1.74-1.25c.63-1.29,3.31-3.57,4.82-5.43a1.71,1.71,0,0,1-.37.49,20.38,20.38,0,0,1,2-1.63c-.08-.2.24-.68.65-1.23s.87-1.22,1.17-1.72c1.38-1-.34,1,.27.92-.29-.16,1.7-2.32,1.13-2.09,1-.76.81-.71,1.49-1-.21-.49.73-.92,1.21-1.89,1.41-1.17.66,0,1.9-1.6C181.51,540,180.43,541.43,180.43,541.43Zm28.95-37.55h0l-.55.8Zm2.29-3.25c-.28.4-.63.89-1,1.4-.16.06-.15-.12.09-.44C210.67,501.8,211.26,501.07,211.67,500.63Zm-6.5,5.67c.35-.52.51-.66.61-.7l-.63.9v.08A.58.58,0,0,1,205.17,506.3Z" transform="translate(0 -0.03)"/><path class="cls-1" d="M204.79,507.43l-.13.22.27-.27.06-.23Z" transform="translate(0 -0.03)"/><path class="cls-1" d="M388.64,197.87l-.05.07a.79.79,0,0,1,.13-.13Z" transform="translate(0 -0.03)"/><polygon class="cls-1" points="242.48 455.12 242.41 455.09 242.28 455.42 242.48 455.12"/><path class="cls-1" d="M401.18,179.9a1,1,0,0,0,.22-.2S401.29,179.79,401.18,179.9Z" transform="translate(0 -0.03)"/><path class="cls-1" d="M406.38,172l.82-1.06C406.82,171.39,406.58,171.74,406.38,172Z" transform="translate(0 -0.03)"/><path class="cls-1" d="M410.55,166.06a.29.29,0,0,0,0-.19h0Z" transform="translate(0 -0.03)"/><path class="cls-1" d="M350.85,264.93l-.13.25C350.44,265.78,350.64,265.38,350.85,264.93Z" transform="translate(0 -0.03)"/><path class="cls-1" d="M367.44,234.8c-.14.35-.27.68-.44,1C367.33,235.31,367.57,234.9,367.44,234.8Z" transform="translate(0 -0.03)"/><path class="cls-1" d="M332.32,298.57h0l-.12.2Z" transform="translate(0 -0.03)"/><path class="cls-1" d="M366.19,237.21a9.58,9.58,0,0,0,.81-1.38A13.48,13.48,0,0,0,366.19,237.21Z" transform="translate(0 -0.03)"/><path class="cls-1" d="M428.75,140.39l.22-.28s0,0,0-.06Z" transform="translate(0 -0.03)"/><path class="cls-1" d="M429,140.05l.2-.33A1.07,1.07,0,0,0,429,140.05Z" transform="translate(0 -0.03)"/><path class="cls-1" d="M429.59,139l-.43.7A2.37,2.37,0,0,0,429.59,139Z" transform="translate(0 -0.03)"/><path class="cls-1" d="M423,148.07l0,.15A.13.13,0,0,0,423,148.07Z" transform="translate(0 -0.03)"/><path class="cls-1" d="M421.32,150.48a25.12,25.12,0,0,0,1.7-2.13l0-.13C422.86,148.69,421.56,149.84,421.32,150.48Z" transform="translate(0 -0.03)"/><path class="cls-1" d="M413.3,159.77l1.44-2c-.33.29-.76.68-.16-.26C412.58,159.9,415.14,157.13,413.3,159.77Z" transform="translate(0 -0.03)"/><path class="cls-1" d="M408.92,166c.69-1.12-.14-.07-.15-.17C408.38,166.56,408.29,166.74,408.92,166Z" transform="translate(0 -0.03)"/><path class="cls-1" d="M379.51,212.39l-.15-.25C378.86,213,379.44,212.2,379.51,212.39Z" transform="translate(0 -0.03)"/><polygon class="cls-1" points="375.25 222.05 375.9 221.28 375.94 220.76 375.25 222.05"/><polygon class="cls-1" points="370.51 226.45 370.71 226.05 369.92 227.55 370.51 226.45"/><path class="cls-1" d="M325,306.71l.43-.12C325.67,306,325.43,305.67,325,306.71Z" transform="translate(0 -0.03)"/><path class="cls-1" d="M305.91,341.67a5.17,5.17,0,0,0-1.19,1.91C305.18,342.81,305.72,342.09,305.91,341.67Z" transform="translate(0 -0.03)"/><polygon class="cls-1" points="245.88 444.81 246.21 444.07 245.5 445.4 245.88 444.81"/></g></g></g></svg>