<svg xmlns="http://www.w3.org/2000/svg" viewBox="0 0 329.79 999.81"><defs><style>.cls-1{fill:#4d4d4d;}.cls-2{opacity:0.3;}</style></defs><g id="Layer_2" data-name="Layer 2"><g id="sketch"><g id="sketch-right"><path class="cls-1" d="M83.63,996.11c1.27.19.6-.08-2.87-1.06-.83-.18-1.68-.34-2.52-.55.88.33,1.78.6,2.66.91Z"/><path class="cls-1" d="M63.3,983.62c-1.55-1.4-3.15-3-4.14-4s-1.47-1.3-.7-.16l1.86,1.89,1.5,1.46c.46.47,1,.92,1.58,1.43s1.29,1.11,2.21,1.76c1.34,1.19,2.6,2.12,3.38,2.8s1.22,1,.93.86c.28.16.7.44,1.21.79s1.14.69,1.77,1.08a17.28,17.28,0,0,0,1.93,1,12.33,12.33,0,0,0,1.67.71A63.39,63.39,0,0,1,63,983.6C62.06,982.63,63,983.46,63.3,983.62Z"/><path class="cls-1" d="M7.75,645.58l0,2.24C7.73,647.21,7.74,646.44,7.75,645.58Z"/><path class="cls-1" d="M13.66,430.17a20,20,0,0,0,0,2.41A18.41,18.41,0,0,0,13.66,430.17Z"/><path class="cls-1" d="M15.9,393.44c-.05.79-.09,1.45-.14,2.16C15.84,394.78,15.9,394,15.9,393.44Z"/><path class="cls-1" d="M7.75,645.58l.1-5.76C7.74,639.42,7.78,642.77,7.75,645.58Z"/><path class="cls-1" d="M38.45,942.82c.45,1.13.85,2,1.22,2.9L38.57,943A.82.82,0,0,1,38.45,942.82Z"/><path class="cls-1" d="M10,740.53l.07,1.75c.07.51.13,1,.2,1.45Z"/><path class="cls-1" d="M15,813.24a9.27,9.27,0,0,0-.66-2.81,31.67,31.67,0,0,1,.53,3.57C14.89,814,14.93,813.8,15,813.24Z"/><path class="cls-1" d="M34.31,927,35,928.9C34.78,928.4,34.5,927.54,34.31,927Z"/><path class="cls-1" d="M8.51,688.38a3.47,3.47,0,0,0,.09-.66S8.53,688,8.51,688.38Z"/><path class="cls-1" d="M168.16,999.64c.06,0,0,0,0,0C167.73,999.63,167.6,999.65,168.16,999.64Z"/><path class="cls-1" d="M83.79,995.39l1.16.21c.13,0,.27-.06.28-.11Z"/><path class="cls-1" d="M20.08,326.23c0,.13,0,.17,0,.29C20,328.3,20,327.29,20.08,326.23Z"/><path class="cls-1" d="M314.31,93.32c.15-7,.49,11.39.61.84C314.83,95.15,314.35,84.59,314.31,93.32Z"/><path class="cls-1" d="M37.84,941c-.34-.93-.71-1.87-1-2.82C37.25,939.5,37.59,940.36,37.84,941Z"/><path class="cls-1" d="M314.92,94.16h0V93.07C314.93,93.52,314.93,93.78,314.92,94.16Z"/><path class="cls-1" d="M30.64,171.53c-.09.31-.21.92-.33,1.55A11.43,11.43,0,0,0,30.64,171.53Z"/><path class="cls-1" d="M21.87,286.69l.2-2.86C22,285,21.92,285.88,21.87,286.69Z"/><path class="cls-1" d="M42,112.79c.43-1.49.64-2,1.2-4l-.21.61C42.79,110.12,42.5,111.1,42,112.79Z"/><path class="cls-1" d="M66.53,55.83c-.19.27-.44.63-.65,1l-1,1.68Z"/><path class="cls-1" d="M329.43,962.08c-.06,1.37-.14,2.22-.21,2.88C329.4,964,329.61,973.17,329.43,962.08Z"/><path class="cls-1" d="M38.59,942.74a11.49,11.49,0,0,1-.75-1.71c.25.67.49,1.32.73,2C38.67,943.14,38.72,943.16,38.59,942.74Z"/><path class="cls-1" d="M40.56,109.73c.95-3.18,1.95-6.36,3-9.51C42.66,102.86,41.56,106.31,40.56,109.73Z"/><path class="cls-1" d="M322.8,513.92l.07,2.28C322.86,515.32,322.84,514.51,322.8,513.92Z"/><path class="cls-1" d="M54.6,72.74l2.7-4.95c.17-.38.37-.81.46-1.06C56.7,68.72,55.6,70.7,54.6,72.74Z"/><path class="cls-1" d="M329.22,965v0Z"/><path class="cls-1" d="M289.7,995.11c9.45-.5,4.42-.6,6.41-.92,11.27-.74,5.23,0,9.08-.05,7-.5,12.41-1.16,17.66-1.46.4,0,1.42,0,.23.14l3.09-.27,2.25-.17.77-.06.38,0,.2,0s0-.12,0-.18l0-1.59c-.05-2.66-.1-5.58-.16-8.53-.09-5.68-.2-11.52-.45-15.86a8.6,8.6,0,0,1,.08-1.13c-.17,1.4-.35,1.62-.49,1.34-.07-4.24-.35-7.87-.13-9.47a37.4,37.4,0,0,0,.22,4l-.17-4.44c.29-4,.21,6.06.47,6.06-.24-8.66-.68-18.75-.68-25.39.32-1.39.34,15.52.52,6.66l0,10.27c.42-7.86,0,6.24.52-1-.1-13.52-.4-15.11-.5-28.6-.23-3-.26,1-.49-2-.62-19.16.63-15.1,0-29.18a108,108,0,0,1-.65-15.09l.43,3.42c-.15-13.09-.66-7.47-.6-21.17.19,2.43.28,10.28.29,8.3.18-8.89-.31-6.28-.41-13.1l.32-1.42c-.31-13.93-.66-29.28-1-44.71.12.86.26,3.5.31-.11-.45-19.46-.57-41.54-.64-60.32l-.4-7.17c0-1.66.09-3.09.17-1.29,0-7.31-.19-.37-.36-3.89-.08-4.16.09-5.5.22-2.86-.44-12.91-1.08-36.77-1-50.37l.12,2.65c0-10.6-.78-11.95-.65-21.77l.08,1.88c-.21-23-.85-48.39-.66-65.93-.48-3.33-.15-22.76-.76-24.23.1-13.13.26-9.37.18-27.86,0-4.94-.47-7.35-.62-13.46l.3-.15-.44-8.28.3-4.42-.16-5.72a28.32,28.32,0,0,1-.16,4.5c-.14-4.47-.17-9.92-.14-14.28,0-2.18.06-4.09.07-5.46a20.14,20.14,0,0,1,.12-2.28l-.58-21.16c.13.47.23,4,.35,6.81-.48-11.28.29-2.05-.15-12.4-.05,1.39-.19-.74-.26-1,.11-5.16-.06-16.9-.26-25.59l.23,1.66c-.26-15.69-.55-33.08-.84-50.69,0,6.32-.4,4.87-.51-.29L321,394c-.25-3.33,0,5.4-.39-1.45-.06-6.58.3-4.43.46-.65l-.23-8c.09-.47.17,1.41.3,1.89-.25-3.27.13-13.81-.29-18.54l.09-.45c-.32-17.6-.46-25.59-.71-39.93-.29-.28-.31-5.89-.6-10.16-.07-10.54,0-22.24-.23-34.94-.27-8.92-.27-2.6-.5-6.61.25-.66,0-13.34.32-6.77-.27-15.24-.34-19.46-.83-38.74-.08,2.1-.09,4.45-.19,3.23-.1-3.49,0-8,.12-7.46l0,.93c-.7-21.64,0-49.95-.78-67.17l.05,1-.55-17.86c-.07-8.22.27,4.93.34-1.16-.71-19.27-.39-30.45-.91-46.32.58-12.3-.69-43.59-.45-60.18l-.16,1c-.24-4.29,0-5.19,0-8.35-.14.45-.1,4.65-.23,2-.05-2.33-.09-4.68-.14-7l0-1.47c0-.11,0-.27,0-.34l-.36-.07-.73-.13-2.16-.39-3.4-.61-13.71-2.34q-13.79-2.31-27.8-4.43c-18.66-2.82-37.49-5.31-56.06-7.11a89.4,89.4,0,0,0-11.12-.55c-2.39,0-5.21-.1-13.78-.82,1.63,0,3.26,0,4.89,0-13.75-.69-27.84-1.16-41.88-.59a162.12,162.12,0,0,0-20.9,2.15l-5.13,1.11c-1.68.5-3.36,1-5,1.51l-2.44,1a25.57,25.57,0,0,0-2.38,1c-1.52.8-3.07,1.52-4.53,2.39a31.14,31.14,0,0,1,3.76-2.14,81.76,81.76,0,0,0-11.17,6.25c-1.9,1.29-3.65,2.51-4.86,3.49a17.53,17.53,0,0,0-2,1.64c-3.33,2.61-.87.46-3,2-1.15.87-2.36,2-3.63,3.06s-2.46,2.34-3.64,3.48l-3.15,3.26c-.9,1-1.68,1.79-2.24,2.31a23.77,23.77,0,0,1,1.75-2L78,37c-1.14,1.35-2.46,2.79-3.52,4.15-2.18,2.68-3.64,4.75-2.45,3.4a117.9,117.9,0,0,0-8.28,12c-2.43,3.92-4.52,7.73-6.47,11.28-1.08,2.42-3.07,6.28-4.67,9.83a49.67,49.67,0,0,0-3.05,7.59c-.07-.43-1.86,3.65-3.68,8.67s-3.65,11-4.47,14.08c.48-2.1-1.72,5.3-1.19,2.84-2.05,7-3.5,13.57-3,12.38-3.79,13-5.23,26.54-7.09,33.9C27,178.55,25.3,198.54,24,218c-.2-.37.16-5.74.57-10.92s.85-10.16.58-9.76c-1.47,18.44-1.7,29.11-2.79,47.39-.3,4.74-.06-2.7,0-4.3-.4,9.22-.82,18.13-1.27,26.78s-1,17-1.31,25.23a8.73,8.73,0,0,1,0-1.13c0-.66.05-1.52.08-2.36-.17,3.24-.51,7.51-.28,7.16l.13-3.15c.6-5.14-.14,12.86,0,13.44-.26-5.51-1.12,16.18-1.34,7.43-.09,2.13-.15,4.8,0,4.32-.23,3.15-.37,4.15-.34.94-.57,11.58-.11,7.48-.73,18-.1,0,0-2.16-.07-3.25-.12,5.32-.24,10.66-.83,19.51,0-.53-.17.49,0-2.15-.85,15.21-1,26-2,42.64-.17-4.95-.45,5.67-.86,6.54l-.36,9,.37-3.59c-.42,7.86-.49,14.83-1,21.58l.14-5.85L12,436.16l.55-8.33c-.2,8,.51-.83-.1,9.63.06-2.13-.37,7.87-.78,12v0c-.06,3.9-.11,7.91-.45,13.72-.19,1.51-.36-1.23-.48-.25.14,3.85-.69,18.43-.54,23.3,0-1.62-.21-1.71-.27-1.18l.13,3.23c-.22,3.64-.28,4.17-.42,3.58-.45,11,.6-3.47-.08,9.54,0-1,0-.54,0-2.67C9,511.73,8.87,523.92,8.4,535.93c-.48,3.54.21-10.5-.22-6.45-.46,17.33-.52,35.88-.9,52.65l.1-3.12c.48,2.33-.48,12.48-.33,21,0-2.07-.26-2.72-.21-2.16-.23,11.48-.14,23.48,0,40.88l-.14-2.15c-.13,6.76,0,17.82,0,25.13.15,2.17.17,6.35.35,3.81-.57,22.56,1.08,43,1.17,63-.09-2.39-.32-5.69-.25-3.79l.79,17a57.32,57.32,0,0,0,.08-5.82c.22,2.15.53,7,.73,11.17-.5-7.65-.37.08-.33,3.39,0-.55.17.57.23.29,0,8.91.52,1.47.92,13.61l-.16-.63c.32,4.53.74,8.71,1,13.6-.14,2.05-.45-4.82-.68-5.12C11,779.07,12,785.72,12.17,792c-.31-2.91-.6-7.11-.89-10,.17,6.8.31,7.58.66,12.61l0-.49.83,11.63-.18-3c1.43,8.52,1.7,17.47,3.46,29-1.67-11.17-.47-1.82-.86-2.65.24,3,.67,7.45.44,6.18.89,5.43.89,9.13,2.29,16.77-.06.36.81,5.82.39,4.62,1.1,7.06-.08-1.69.14-1.11,1.86,10.84,3.47,25.66,7.21,41.07,1.53,6.66,2.6,10.56,3.66,14.34s2.13,7.42,4,13.47c1,4.14-1.31-3.27-1.31-3.27a171.94,171.94,0,0,0,5.59,17.73c-.51-1.22-.14.09.45,2A39.74,39.74,0,0,0,39.78,945c.44,1,1,2.17,2.22,5.38-.54-1.06-1.32-2.38-2.33-4.69a158.93,158.93,0,0,0,8.06,16.79c.32.78-.19,0-.93-1.29s-1.64-3-2.16-4c1.59,3.22,3.78,7.33,5.91,10.76a57.49,57.49,0,0,0,5,7c-.89-1.25-1.72-2.55-2.54-3.84,1.47,2.16.56,1.25-.56-.33-3.48-5.09-4.39-7.71-4.49-8,.72,1.33,1.49,2.64,2.27,3.93-.95-2.14-3.15-6.11-5.4-10.7a153,153,0,0,1-6.13-14.06c.56,1.14,1.17,2.27,1.75,3.4-1.24-2.86-2.44-5.74-3.55-8.66-.55-1.92-.77-3.27.76,1-1-3.12-1.46-4.48-1.9-5.74a51.58,51.58,0,0,1-1.55-5.12c-.15-.6-.05-.34.14.2-.67-2-1.28-4.05-1.91-6.08.42,1.18,0-1.1,1,2.68-2.94-11.06-5-17.79-5.64-22.06l.24.93c-.91-3.87-1.39-5.89-1.64-6.94s-.31-1.1-.35-1-.11.76-1.45-5.05c-.28-2.67-.52-5.35-.76-8l-.58-1.49c-.28-1.61-.82-4.81-.59-4.24-1.22-6,0,1.05-.74-2.41-1.08-7.82-3.44-21.5-3.16-23.33-.61-2.78.82,7.5-.45-.83.18-2.45-1.35-9.65-1.93-16.84.5,2.17,1.19,9,.57,1.77-1-4.27-1.44-14-2.1-20-.39-.25-1.39-13.16-2.27-23.32.14.63-1.2-19.17-1.56-28.66l.08.28c-.47-1.82-.94-11.6-1.32-18.72.23.27.38,1.54.66,5.4l-.32-6.7c-.19-1.57-.33-3.66-.56-8L9.89,736c-.38-8.91-1-17.94-1.13-29.42-.27-.64-.47,9.15-1-3,.13-.45.36-.91.49,2.27,0-1-.21-3.71-.2-5.81l.35,4.85c0-5.23-.26-2.73-.34-6.91.2.07.08-3.1.25-2.5,0,1.06,0,3.64.11,5.24-.07-4.71-.07-10.41,0-12.3-.11.42-.27,0-.36-3.44-.15-8.92.19-3.06.22-8.26-.16-2.16-.1-7.86-.39-8a32.33,32.33,0,0,1,.18-4.11C8,660,8,643,7.71,648.21v1.18c0-.22,0-.48,0-.75v0c-.34-15.14.2-31.45.26-46.47l.09,0c0-9,.22-20,.13-26.36.05-2.65.31-6.26.4-5.12.07-6.85,0-7.62.37-17.52,0,6.9.21-2.37,0,7.07.3-8.91.5-10.92.49-20.48.16,3.26.51-6.69.56-10.93l-.36,6.23c.1-4.75.25-8.91.4-13.14l.27,2.3c1-18.2.43-32.87,1.67-46.71,0-4.82-.56,9.88-.66,5.57.37-8.38,1.22-17.09,1.34-19.71.68-11.46,0-10.72.66-22.72-.19,1.53-.58,3-.27-6,.45-8.38,1-10.28.84-5a21.65,21.65,0,0,1-.21,2.89c-.09,2.71-.21,6.26.08,2.95l-.07-1.09c.32-4.15.88-15.68.94-13,.2-6.34-.06-2.72-.36,2,.71-10.73.85-16.78,1.55-27.84-.15,1.76-.38,3.37-.28,1.62,1-16.21.15-7.15.7-18.15.53-6.23.3,2.26.77-8.81.5-6.75.39-1.41.34,1.28.34-10.09,1.22-18.82,1.6-24.58l-.22,5.32c.13-3.18.28-5.78.44-8.43l-.42,3c.23-3.12.38-5.75.48-5.69,0-3.22-.54,2.44-.38-3.95.36-4.15.62-12.66,1-14.08-.88,13.06.4-1.42-.2,9.64.08-2.14.24-4.74.47-7.86.06-.47,0,.44,0,1.3,1-12.49,0-5.77.77-18.73.08,1.66.52-3,.6-5.1-.31,5.22-.44,2.48-.29-2.32.63-8.3.43-9,.71-13.39l-.36,5c-.08-1.69.19-5.85.47-11.64.17-.49-.21,5.26,0,3.2.07-6.45,1.17-14.52,1.39-23.51.32-4.15.35-.39.61-4,.27-10.07.77-10.88,1.17-21.45-.41,3-.39,3.56-.18-3.88l-.78,17.37.24-11.17c-.3,5.25-.44,11.07-.63,14.21.07-5.32.1-4.77-.22-2.27.72-7.16.52-14.24,1.28-22.51l.57.29c1.08-12.43,1.17-22.14,3-38.24l-.63,5.17c0-2.19,1-9.95,1.53-15.17.15.51.6-2.74,1-4.94-.09.13.28-2.81.71-6a73.18,73.18,0,0,0,.79-7.28c.46-2.36.92-4.73,1.42-7.09,1.15-6.43,1.73-10.11,2.32-13.73s1.19-7.18,2.68-13.29c-.66,3.74.76-1.79-1,6.44l1.25-5.42a13.48,13.48,0,0,0,.48-2.42c.66-2.36,2.65-11.32,4-15a53,53,0,0,1,1.82-6.82c.2-.48.09,0,.09,0s2.21-7,.7-3.2c1.17-3,2.57-6.63,4.09-10.51s3.25-8,5.11-12a134.22,134.22,0,0,1,11.1-20.14c2.41-3.88,5.24-8,8.24-12a133.17,133.17,0,0,1,9.07-10.5,5.89,5.89,0,0,1-1,1.2c4-4.05,5.28-5.27,6.6-6.72A56.37,56.37,0,0,1,96.87,22c2.78-1.83,1.4-.77-.23.44s-3.45,2.72-1.8,1.47a21.45,21.45,0,0,0,2.83-1.8L100,20.4l2.79-1.91a79.14,79.14,0,0,1,12.94-7.09c-.64.24-1.25.62-1.88.93,1.5-.77,3.22-1.32,5-2.1.92-.36,1.94-.6,3-.94s2.07-.68,3.2-.9c2.23-.52,4.58-1.1,7.1-1.46,1.26-.19,2.53-.45,3.85-.58l4-.42s-.52.11-.05.11c3.7-.54,9.1-1,14.9-1.19,2.9-.1,5.9-.14,8.84-.18s5.8,0,8.44.06c-3.29.17-4.8.06-2.8.33,4.73.06-1.38-.48,8.07-.25,3.06.24,9.86.73,10.75,1.06l-8.9-.44c2.27.29,5.15.43,8,.54s5.81.26,8.15.44l-.61.11c6.81.48,10.27.65,13.85.88s7.29.46,14.59,1.24l-1.5-.28c8,.48,6.67.92,14.65,1.57l2.36.68c5.26.53,18.44,1.94,27.85,3.25-5.36-.5-16.39-1.85-23.23-2.52,5.21.63,17.68,2.3,20.41,2.51-2.1-.27-4.75-.53-6.81-.88,6.42.56,14.83,1.62,25.16,3.23-1,.23,5.75,1.32,13.63,2.66,4,.66,8.17,1.4,11.87,2.09,1.85.35,3.57.69,5.06,1L313,22l.11,0,.21.06c.05,0,.14,0,.17.07l0,.2c0,.15,0,.18,0,.39s0,.54,0,.77c.55,18.51.41,36.72.78,58.28.48-7.66.11,6.29.7,5,.11,5,.13,6.93.1,7.38l-.15,15.22c-.12,3.61-.2-4.77-.33-4.31.11,11-.19,4.62-.25,11.9.2-1.5.37,3.82.38,10.09l.15-8.83c.55,15.36-.31,13.28.23,28.77l-.26-4.9c.23,7.95.43,29.32,1,37.1-.05,1.41-.19,3.27-.28-.23.2,19,1.14,42.27,1.06,57l-.17-1.44c.09,3.54.37,6.16.28,10.6-.06-.23-.17-1.42-.15.22.08,1.87.4,9.41.38,14.1l-.23-4c.08,18.53.83,28.43,1.16,44-.44,0-.37,14.55-.33,21.82l-.07-.25c.26,21.58.9,36.64,1.37,56.62-.29,12.4.42,42,.44,61.94,0-3.05.35.49.45,4,0,4.68.5,12.92.08,12.19l0-1.67c-.34,3.53-.09,13.14,0,20.65l.54,1.23c-.48,19.64,1,51.43.51,62.15.15,4.74.34,10.6.49,15.3l-.29-.25c.12,13.13.18,19.68.49,35.9l-.25-3.3c.11,9.15,1,11.54,1.12,20l-.38,2.55c.24,16,.11,32.13.72,47.9a15.33,15.33,0,0,1-.25-3.31c.1,7.51.14,29.07.68,26.33-.18.1-.13,4.22,0,9.39s.36,11.39.5,15.7l-.3-1.33c.47,7.27.57,7.5.81,17.66,0,2.41-.19,2.11-.16-1.09,0,8,.35,6.25.35,16l-.23-3.62c.1,8.26.18,7.6.46,12.14.18,5.19.16,15.67-.08,16.89a104.5,104.5,0,0,1,.44,10.5c-.08.66-.17-1.11-.21-2,0,13.81.63,20.53.49,30a6.66,6.66,0,0,0-.14,1.6c-.16-11-.27-19.8-.24-19-.25,0-.17,8.86-.63,1.82.3,7.11.9,19.26.91,27.9,0,.42,0,.83-.08,1.15l0-.9c0,2,.06,3.78.12,5.46,0,2.76,0,4.51,0,7.15-.2,1,0,10.17.09,14.58.28-.37.32,5.42.47,0,0,.7,0-.84-.1-3.78,0-.66-.05-1.44-.06-1.88l0,.3c0-2.9-.11-6.68-.18-11,.19,3.49.37,7.13.28,12,.2,2.27.42,4.76.55,6.16-.31,6-.35,17.71-.56,19.34.35,13.48.57,31.77,1.22,40.25a42.7,42.7,0,0,1-.15,5.84c-.08-2.21-.11-4.84-.21-6,.25,7.66.39,22.72.78,24.54,0,9.67-.41-5.42-.16,7.86l-.14-1.8c-.1,13.07.29,23.69.67,34.66.18,5.48.37,11.06.48,17.07,0,1.5,0,3,.08,4.6,0,.77,0,1.56,0,2.35v.87c0,.06,0,.17,0,.18l-.22,0-.44,0-4.85.23-5.29.2c2-.07,3-.11,3.42-.07-33,1.65-67.93,4.07-100.51,4.8-9.26.24-10.26.52-15.9.88l-2-.23-9.65.65c-13.69.65-23.73-.08-41.07.59l2.24.18c-6.23.07-19.74.2-18.69,0a33.53,33.53,0,0,1-4.48.08l-.19-.16c-5.1,0-10.2,0-15.3,0-5.93-.24-5.45-.43-5.67-.57s-.38-.16-1.7-.28l-8-.57c-3.2-.2-7.75-.52-11.18-.9s-5.74-.83-4.57-.53l4.2.85a12.9,12.9,0,0,1,2.46.52l-2.92-.35L85,995.6c-.58.14-2,.07-1.52.4a11.22,11.22,0,0,0,2.53.81,64.73,64.73,0,0,0,7.6,1.34l5.06.33,5,.18c1.08.16,2.16.29,3.24.41-2.83-.12-5.66-.34-8.49-.51a87.41,87.41,0,0,0,11.29.54,32.33,32.33,0,0,0,4.22.42c3.31-.06,6.61-.09,9.92-.2,1.19.2-4.45.29,2.19.49,4.64-.13-4.44-.48,3.24-.49a66.21,66.21,0,0,0,9.07.25c.8.12-.4.2-2.65.24,5-.12,13.34-.08,15.94-.36,5,.23,17-.31,16.51.14,1.58-.15,8.86-.52,13.49-.67-8.44.76,17.31-.44,15.09.17,6.24-.66,22.57-1,33.63-1.7-.62.06-1.83.19-2.81.2,6.23-.21,8-.16,12.06-.23.78-.42,10.48-1,15.69-1.44,7.65,0-4.61.68-2.2.93-.4-.3,13.25-1,10.64-1.09,5.85-.06,5-.13,8.06,0,1-.54,5.43-.36,10.25-.91,8.46-.21,2.2.34,11.47-.31C297.94,994.49,289.7,995.11,289.7,995.11Zm37.05-185.63h0c0,1.9.06,3.52.08,4.56C326.82,813.09,326.79,811.77,326.75,809.48Zm-.28-18.56c0,2.26.07,5.07.11,8.05-.09.65-.2-.05-.22-1.92C326.44,798.06,326.43,793.69,326.47,790.92Zm-1.37,39.29a37.21,37.21,0,0,1,0-4.33c0,1.39.07,3,.11,5.14l0,.35A9.2,9.2,0,0,1,325.1,830.21Z"/><path class="cls-1" d="M325.55,835.48c0,.43,0,.66,0,1.22,0-.61,0-1.18,0-1.76,0-.36-.07-.72-.1-1C325.53,834.44,325.54,835,325.55,835.48Z"/><path class="cls-1" d="M7.71,648.21v-.39c0,.32,0,.62,0,.82C7.7,648.38,7.7,648.38,7.71,648.21Z"/><polygon class="cls-1" points="323.24 534.59 323.17 534.62 323.26 536.24 323.24 534.59"/><path class="cls-1" d="M9.21,750.44a12.37,12.37,0,0,0,0,1.35C9.22,751.73,9.21,751.15,9.21,750.44Z"/><path class="cls-1" d="M11.94,794.54l.41,6.24C12.17,798.08,12,796.11,11.94,794.54Z"/><path class="cls-1" d="M15,828.38a2.62,2.62,0,0,0,.19.65V829Z"/><path class="cls-1" d="M19.85,288.91c0-.45,0-.9.07-1.3C20,284.53,19.94,286.62,19.85,288.91Z"/><path class="cls-1" d="M11.69,449.39c0-1.71.07-3.39.11-5.17A29.82,29.82,0,0,0,11.69,449.39Z"/><path class="cls-1" d="M40.24,110.78s0,0,0,0l.32-1.07Z"/><path class="cls-1" d="M12.15,436.76c-.19,2.85-.29,5.24-.35,7.46C11.92,441.88,12.08,439.12,12.15,436.76Z"/><path class="cls-1" d="M51.65,970.21c.28.48.58.94.88,1.39,0,0,.07,0,.15.14C52.33,971.24,52,970.73,51.65,970.21Z"/><path class="cls-1" d="M52.68,971.74l1,1.51C53.26,972.55,52.85,971.94,52.68,971.74Z"/><path class="cls-1" d="M56,976.34c-.76-1-1.56-2-2.3-3.09C54.48,974.35,55.46,975.68,56,976.34Z"/><path class="cls-1" d="M33.81,928.85l-.25-.46A1.12,1.12,0,0,0,33.81,928.85Z"/><path class="cls-1" d="M30,915.7c.8,3.16,1.93,8,3.34,12.31l.2.38C32.73,926.4,31,918.65,30,915.7Z"/><path class="cls-1" d="M20.19,859.52q.79,5.67,1.68,11.32c-.22-2-.5-4.61.37.52C20.29,857.07,22.42,874.34,20.19,859.52Z"/><path class="cls-1" d="M15.93,824.31c.7,6.1.15-.09.24.23C15.67,820.67,15.54,819.73,15.93,824.31Z"/><path class="cls-1" d="M8.71,568.14l.25.63C9,564,8.86,568.72,8.71,568.14Z"/><polygon class="cls-1" points="8.71 519.09 8.4 523.7 8.57 525.9 8.71 519.09"/><polygon class="cls-1" points="11.55 490.21 11.51 492.28 11.72 484.38 11.55 490.21"/><path class="cls-1" d="M61.12,65.47l-1,1.1a7,7,0,0,0-1,2.28A24.39,24.39,0,0,0,61.12,65.47Z"/><path class="cls-1" d="M221.59,8.63c2,.39,7.18,1,10.39,1.25C227.84,9.38,223.7,8.83,221.59,8.63Z"/><polygon class="cls-1" points="319.99 485.31 319.83 481.57 320.02 488.62 319.99 485.31"/><g class="cls-2"><path class="cls-1" d="M95.88,989.26c1.27.23.57,0-2.86-.91-.82-.22-1.64-.43-2.45-.67.87.31,1.75.59,2.63.88Z"/><path class="cls-1" d="M75.34,977.49c-3.13-2.75-6.37-6.34-4.68-4.21a58.8,58.8,0,0,0,7.11,6.45c1.35,1.15,2.64,2,3.44,2.67s1.26.9,1,.76a40.56,40.56,0,0,0,6.55,3.53,57.21,57.21,0,0,1-13.67-9.29C74.13,976.49,75.1,977.31,75.34,977.49Z"/><path class="cls-1" d="M4,643.72,4.08,646C4.06,645.34,4,644.58,4,643.72Z"/><path class="cls-1" d="M1,429.1c0,1.64,0,2.32,0,2.4C1,430,1,428.74,1,429.1Z"/><path class="cls-1" d="M1.75,392.46c0,.79,0,1.45-.05,2.16C1.73,393.8,1.76,393,1.75,392.46Z"/><path class="cls-1" d="M4,643.72,3.79,638C3.71,637.59,3.88,640.93,4,643.72Z"/><path class="cls-1" d="M49.22,937.79l1.3,2.84c-.41-.9-.8-1.77-1.2-2.68Z"/><path class="cls-1" d="M10.44,738.12l.16,1.74c.07.51.13,1,.2,1.43Z"/><path class="cls-1" d="M18.76,810.25a18.54,18.54,0,0,0-.6-2.79c.19.91.39,2.11.6,3.53C18.79,811,18.79,810.8,18.76,810.25Z"/><path class="cls-1" d="M43.8,922.42l.71,1.92C44.32,923.84,44,923,43.8,922.42Z"/><path class="cls-1" d="M6.5,686.3a6.55,6.55,0,0,0,0-.67A3.34,3.34,0,0,0,6.5,686.3Z"/><path class="cls-1" d="M179.79,996.25c.06,0,0,0,0,0C179.36,996.22,179.23,996.23,179.79,996.25Z"/><path class="cls-1" d="M96,988.9l1.15.22c.13,0,.26,0,.26,0Z"/><path class="cls-1" d="M3.7,325.41c0,.13,0,.18,0,.3C3.64,327.48,3.67,326.48,3.7,325.41Z"/><path class="cls-1" d="M303.64,91.05c0-7,.45,11.35.33.84C303.94,92.87,303.51,82.36,303.64,91.05Z"/><path class="cls-1" d="M48.5,936.05c-.38-.91-.76-1.83-1.15-2.75Z"/><path class="cls-1" d="M304,91.89h0l0-1.08C304,91.26,304,91.51,304,91.89Z"/><path class="cls-1" d="M14.19,171.37c-.07.3-.19.91-.3,1.54C13.91,172.86,14,172.51,14.19,171.37Z"/><path class="cls-1" d="M4.88,286,5,283.17C5,284.3,4.91,285.22,4.88,286Z"/><path class="cls-1" d="M26.54,113c.46-1.48.63-2,1.22-4-.06.19-.13.37-.2.61C27.35,110.33,27.07,111.3,26.54,113Z"/><path class="cls-1" d="M50.76,56l-.6,1c-.32.53-.68,1.15-1,1.69Z"/><path class="cls-1" d="M326.28,956.21c0,1.36,0,2.21-.06,2.87C326.3,958.12,326.56,967.26,326.28,956.21Z"/><path class="cls-1" d="M49.28,937.73a17,17,0,0,1-.78-1.68c.27.66.54,1.29.82,1.9C49.41,938.11,49.45,938.14,49.28,937.73Z"/><path class="cls-1" d="M26.21,110.24q1.44-4.72,3-9.43C28.34,103.43,27.23,106.86,26.21,110.24Z"/><path class="cls-1" d="M315.19,509.91l.07,2.27C315.24,511.31,315.22,510.5,315.19,509.91Z"/><path class="cls-1" d="M40.14,73.5l2.54-5c.17-.38.36-.8.48-1C42.15,69.48,41.09,71.47,40.14,73.5Z"/><path class="cls-1" d="M326.22,959.1v0Z"/><path class="cls-1" d="M300.87,999c9.43.09,4.43-.14,6.43-.23,11.25,0,5.2.18,9,.3l9.49-.07h1.52v-.29c0-.52,0-1-.05-1.54,0-.7,0-1.38-.08-2.06,0-1.35-.08-2.66-.12-4,0-.39,0-1.41.07-.22-.33-7.42-.55-22-.95-30.67,0-.64,0-1,0-1.13-.06,1.41-.15,1.62-.22,1.34-.11-4.22-.31-7.83-.23-9.43.06,2.59.11,2.81.18,4l-.16-4.43c.07-4,.21,6,.34,6-.27-8.63-.67-18.68-.78-25.29.13-1.38.44,15.46.37,6.63l.19,10.23c.07-7.82.14,6.22.24-1-.35-13.46-.39-15.06-.74-28.48-.17-3-.11,1-.28-2-.65-19.08.05-15-.52-29.06-.21-3.63-.46-5-.59-15l.28,3.4c-.31-13-.46-7.43-.67-21.08.13,2.42.31,10.24.29,8.27-.07-8.85-.27-6.26-.43-13l.13-1.41c-.4-13.88-.84-29.16-1.28-44.52.07.85.19,3.48.15-.12-.57-19.38-1-41.37-1.37-60.06L320.8,737c0-1.66,0-3.09.06-1.29-.12-7.28-.1-.37-.25-3.87-.11-4.15-.05-5.48.06-2.85-.44-12.86-1.18-36.62-1.35-50.17l.11,2.64c-.21-10.55-.6-11.89-.71-21.68l.08,1.88c-.51-22.9-1.27-48.19-1.48-65.66-.3-3.32-.47-22.66-.8-24.13-.18-13.07,0-9.33-.39-27.74-.11-4.92-.37-7.32-.55-13.4l.15-.15-.36-8.25.07-4.4-.18-5.7c.05,2.27.05,4.83,0,4.49-.15-4.46-.26-9.88-.32-14.23,0-2.17,0-4.07-.06-5.44s0-2.21,0-2.27l-.65-21.06c.07.46.18,4,.29,6.78-.44-11.24.11-2.05-.29-12.35,0,1.38-.11-.75-.15-1,0-5.14-.32-16.83-.57-25.48l.14,1.65c-.4-15.62-.85-32.94-1.3-50.48.11,6.29-.11,4.85-.26-.29l.11-2.06c-.18-3.32.08,5.37-.22-1.44-.14-6.55.08-4.41.23-.65l-.26-8a18,18,0,0,1,.19,1.88c-.19-3.27-.18-13.75-.47-18.47l0-.45c-.46-17.53-.67-25.48-1.05-39.76-.14-.28-.25-5.86-.47-10.12-.22-10.49-.39-22.14-.72-34.79-.29-8.89-.18-2.59-.37-6.59.12-.65-.21-13.28.05-6.74-.43-15.17-.55-19.38-1.09-38.57,0,2.08,0,4.42,0,3.21-.11-3.48-.14-7.93-.07-7.43l0,.92c-.73-21.54-.86-49.74-1.56-66.89l0,1-.58-17.79c-.18-8.18.22,4.91.15-1.15-.69-19.19-.72-30.33-1.26-46.13.08-12.24-1.1-43.41-1.27-59.93l-.06,1c-.1-2.15-.12-3.37-.12-4.62,0-.26,0-.52,0-.77v-.2c0-.06-.1,0-.15-.07l-.37-.1-1.08-.31-2-.54c.21.09,1.32.4,2.07.61l.51.15.37.11-.32-.07-.74-.18c-17.54-4.45-35.73-8.7-54.1-12.61S210.61,7.48,192.25,4.73c-6.72-1-8.65-1.11-11-1.33s-5.15-.53-13.65-1.54l4.85.36C158.82.81,144.81-.31,130.84.08a98,98,0,0,0-20.72,2.48,40,40,0,0,0-9.68,3.73c-.76.39-1.52.77-2.27,1.17L96,8.72c-1.49.82-2.9,1.75-4.33,2.64,1.35-.87,1.34-1,3.61-2.3-1.26.66-3,1.75-4.88,2.93s-3.9,2.62-5.71,4S81.21,18.74,80,19.7c-.59.49-1,.93-1.38,1.22a5.41,5.41,0,0,0-.5.49c-3.17,2.75-.82.54-2.75,2.25-2.13,1.91-4.67,4.44-6.85,6.85s-4,4.63-5.08,5.74c-.36.38,1-1.25,1.69-2-.6.71-1.62,1.88-2.7,3.25l-1.7,2.1L59.11,41.7c-2.07,2.72-3.44,4.82-2.38,3.4-3,4.09-5.56,8.16-7.86,12.11S44.52,65,42.68,68.53c-1.11,2.37-3,6.24-4.58,9.78-.8,1.76-1.51,3.44-2.05,4.78a27.47,27.47,0,0,0-1,2.73,85.41,85.41,0,0,0-3.51,8.68c-1.82,5-3.69,10.88-4.58,13.94.55-2.06-1.67,5.28-1,2.86-2.08,7-3.69,13.44-3.26,12.24-3.67,12.89-5.76,26.28-7.41,33.63-3.64,21.27-5.78,41.14-7.35,60.47-.09-.36.36-5.7.84-10.85s1-10.1.87-9.7c-.95,9.16-1.52,16.4-2,23.61s-1,14.42-1.53,23.53c-.3,4.71,0-2.69.11-4.28-1,18.35-1.79,35.49-2.35,51.83,0,0,0-.47,0-1.13s0-1.51.07-2.34c-.13,3.22-.33,7.49-.22,7.13l.1-3.14c.35-5.14-.19,12.8-.13,13.37-.09-5.47-.65,16.14-.71,7.45a38,38,0,0,0,0,4.29c-.12,3.15-.2,4.15-.17.95-.33,11.54-.09,7.45-.42,17.9,0,0,0-.56,0-1.22s0-1.47,0-2c-.06,5.29-.13,10.61-.42,19.45a8,8,0,0,1,0-2.15c-.4,15.18-.42,25.87-.84,42.52-.12-4.92-.18,5.66-.38,6.54l-.1,8.95.15-3.59c-.14,7.84-.1,14.78-.25,21.52v-5.83L.25,435.13l.16-8.31c0,7.93.25-.85.08,9.59,0-2.12-.09,7.84-.23,11.93v0c0,3.88.07,7.88,0,13.67-.06,1.51-.2-1.21-.24-.23.13,3.83,0,18.37.15,23.22,0-1.62-.13-1.7-.15-1.17L.13,487c0,3.64,0,4.17-.13,3.58,0,10.93.22-3.47.16,9.5,0-1,0-.54-.06-2.66,0,13,.23,25.17.31,37.14-.14,3.54-.17-10.46-.28-6.41.22,17.26.75,35.73,1.13,52.43l-.06-3.11c.32,2.31.18,12.44.57,20.88-.08-2.07-.23-2.71-.18-2.15.31,11.43.81,23.37,1.65,40.68l-.16-2.14c.22,6.74.77,17.74,1.13,25,.18,2.15.4,6.31.36,3.78C5.4,686,7.39,706.27,8.72,726.15c-.2-2.37-.52-5.65-.37-3.76q.72,8.45,1.52,16.9c0-1.35-.13-2.23-.35-5.78.25,2.13.73,6.89,1.12,11.08-.77-7.59-.19.09.08,3.37,0-.55.12.57.13.29.67,8.84.36,1.46,1.46,13.51l-.13-.63c.53,4.49,1,8.64,1.57,13.49.1,2-.61-4.78-.74-5.08.76,6.82,1.78,13.42,2.43,19.6-.38-2.89-.91-7-1.29-9.94.65,6.73.79,7.51,1.39,12.5l-.06-.5,1.45,11.53-.35-2.94c1.49,8.46,2.46,17.31,4.54,28.69-2-11.06-.42-1.81-.71-2.64.42,2.93,1.12,7.36.86,6.11,1,5.37,1.44,9,3,16.57,0,.35,1.09,5.75.74,4.56,1.41,7-.25-1.66-.06-1.09,2.23,10.72,4.88,25.31,9.16,40.49,1.78,6.56,3,10.4,4.17,14.12s2.37,7.32,4.47,13.26c.68,2,.34,1.21-.16-.1s-1.13-3.14-1.13-3.14C43.6,923.15,45.4,928,47.9,934c-.54-1.2-.06.07.65,1.91,2.08,4.76,1.49,3.14,4.34,9.37-.57-1-1.27-2.36-2.37-4.62A163.91,163.91,0,0,0,59.15,957c.39.75-.12-.06-.88-1.29s-1.7-2.94-2.27-3.9c1.71,3.13,4,7.12,6.3,10.44a69.14,69.14,0,0,0,5.09,6.8L66,967.24l-1.32-1.86c1.52,2.1.69,1.15-.46-.39-1.8-2.47-3-4.34-3.73-5.62a20,20,0,0,1-1.16-2.12c.75,1.3,1.6,2.55,2.4,3.83-1.14-2-3.53-5.88-5.93-10.36s-4.88-9.56-6.66-13.74l1.72,3.38q-2-4.22-3.79-8.51c-.68-1.86-1.07-3.17.61,1l-2.18-5.61c-.47-1.24-.94-2.36-1.81-5-.19-.58-.09-.32.11.21-.74-2-1.44-4-2.14-6,.44,1.16-.2-1.05,1,2.66C39.12,908.26,37,901.6,36,897.42l.27.91-1.92-6.84c-.29-1-.32-1.09-.33-1s.05.73-1.5-5c-.51-2.61-1-5.23-1.51-7.85l-.5-1.48c-.36-1.6-1.06-4.75-.87-4.18-1.42-5.92.15,1-.7-2.4-1.59-7.7-4.39-21.24-4.45-23-.63-2.75,1.28,7.41-.33-.83-.18-2.4-1.77-9.54-2.81-16.65.49,2.16,1.55,8.88.48,1.77-.94-4.24-2.16-13.82-3.06-19.81-.1-.13-.6-3.38-1.22-7.87s-1.35-10.2-2-15.24c.09.63-2.2-19-3.07-28.43l.06.28c-.38-1.8-1.33-11.52-2-18.59a39.18,39.18,0,0,1,.71,5.37l-.62-6.65c-.21-1.57-.42-3.64-.82-8l.28,1.66c-.78-8.85-1.67-17.82-2.41-29.24-.17-.63.31,9.1-.65-3,0-.46.12-.91.38,2.24-.09-1-.32-3.68-.44-5.76l.46,4.81c-.32-5.2-.29-2.71-.57-6.87.1.08-.14-3.08,0-2.49.08,1.06.2,3.63.36,5.22-.32-4.69-.63-10.36-.67-12.23,0,.41-.13,0-.36-3.43-.55-8.87-.07-3-.33-8.22-.2-2.14-.44-7.81-.6-7.95-.14-2.6-.1-3.08-.11-4.08-.33-4.59-1.1-21.46-1-16.28l0,1.18c0-.22,0-.48,0-.75v0c-.87-15-1.27-31.3-1.8-46.25l.05,0c-.3-8.92-.65-19.86-.86-26.24-.07-2.64-.05-6.23,0-5.11-.18-6.82-.26-7.58-.35-17.45.2,6.87,0-2.36.19,7-.12-8.87-.08-10.88-.35-20.4.17,3.24.07-6.68,0-10.9l0,6.22c0-4.74-.09-8.89-.14-13.1L1,522.87c0-18.15-.54-32.73-.18-46.55-.12-4.8-.1,9.86-.23,5.57,0-8.35.3-17.05.32-19.67.15-11.43-.19-10.67,0-22.64-.07,1.53-.25,3-.21-6,.12-8.36.38-10.27.36-5,0,2-.05,3-.07,2.88,0,2.7,0,6.24.08,2.94L1,433.35c.1-4.14.25-15.64.31-12.94,0-6.31-.06-2.7-.15,2,.19-10.72.31-16.74.51-27.77-.07,1.75-.17,3.37-.13,1.62.39-16.18,0-7.13.23-18.09.24-6.22.16,2.24.35-8.8.22-6.73.19-1.42.17,1.26.13-10.06.56-18.78.75-24.52l-.1,5.3c.08-3.17.14-5.76.21-8.4L3,346c.06-1.56.11-3,.14-4a15.57,15.57,0,0,1,.1-1.65c0-3.21-.27,2.44-.19-3.92.19-4.14.34-12.62.55-14-.48,13,.2-1.44-.13,9.59.05-2.13.13-4.72.26-7.84,0-.47,0,.44,0,1.29.56-12.46,0-5.73.47-18.66,0,1.65.28-3,.34-5.09-.19,5.2-.24,2.48-.12-2.3.39-8.28.3-9,.49-13.34l-.24,5c0-1.68.16-5.83.38-11.6.09-.49-.18,5.24-.06,3.19.12-6.42.78-14.49,1.1-23.43.26-4.14.18-.39.4-4,.41-10,.68-10.84,1.26-21.36-.31,3-.33,3.55.06-3.86q-.57,8.64-1,17.3l.49-11.11c-.34,5.22-.59,11-.77,14.14.19-5.29.2-4.75,0-2.25.58-7.14.72-14.17,1.46-22.41l.27.27c1.08-12.38,1.62-22,3.62-38.05l-.67,5.14c.13-2.16,1.17-9.89,1.85-15.07a46,46,0,0,0,.91-4.94c-.13.26,1.81-11.67,1.91-13.14.45-2.36.93-4.71,1.41-7.06,1.24-6.4,1.95-10.05,2.64-13.64s1.43-7.1,3-13.17c-.8,3.69.6-1.83-1.29,6.34.49-2,1-4,1.31-5.39.18-.71.32-1.3.43-1.71a5.54,5.54,0,0,0,.13-.68c.65-2.36,2.89-11.23,4.15-14.87.47-1.7.54-2.28,2-6.74.18-.48,0,0,0,0s2.3-7,.87-3.13c2.21-6.06,5.4-14.48,9-22.49A170.22,170.22,0,0,1,50.16,56.94c2.33-3.92,5-8.17,7.91-12.15S64,37,66.7,33.94a9.69,9.69,0,0,1-1,1.23c3.78-4.27,5-5.53,6.32-7,.67-.71,1.35-1.49,2.51-2.57.58-.55,1.26-1.2,2.1-2L79.74,21c2.62-2,1.28-.95-.26.38s-3.31,2.87-1.73,1.54a29.11,29.11,0,0,0,2.61-2.08c1.34-1,3-2.47,4.92-3.86a88.51,88.51,0,0,1,12.42-8L95.87,10c1.47-.79,3.06-1.72,4.87-2.61a41.7,41.7,0,0,1,5.85-2.65,63.79,63.79,0,0,1,14.79-3s-.53.08-.06.05A132.68,132.68,0,0,1,136.2.86c5.78,0,12,.2,17.2.52-3.28-.1-4.78-.2-2.79,0,4.7.29-1.36-.34,8,.31,3,.31,9.79,1,10.67,1.28q-4.41-.48-8.83-.85c4.51.56,11.43,1.1,16.07,1.7H176l13.72,1.69c3.55.46,7.22,1,14.43,2.13l-1.48-.3c7.92,1.11,6.6,1.2,14.47,2.44l2.34.62c5.2.88,18.19,3.23,27.46,5.15-5.28-1-16.14-3.06-22.89-4.22l20.12,3.85c-2.07-.41-4.68-.89-6.71-1.33,6.32,1.11,14.6,2.74,24.77,5-.94,0,5.68,1.47,13.43,3.29s16.63,4,20.26,5.07l3.35.83,1.67.42.84.21.29.08.15,0q.09,3.27.17,6.55c.11,4.62.22,9.29.33,14.05.21,9.52.44,19.42.68,30.16.11-7.63.17,6.26.44,4.94.14,5,.19,6.91.18,7.35l.19,15.16c0,3.6-.19-4.75-.24-4.29.25,11,0,4.6.08,11.84.07-1.49.25,3.81.36,10l-.07-8.79c.54,15.29.07,13.23.61,28.65l-.21-4.88c.25,7.91.72,29.2,1.16,36.95,0,1.4,0,3.25-.15-.23.43,18.91,1.3,42.09,1.52,56.8l-.11-1.43c.11,3.52.29,6.13.32,10.55,0-.22-.11-1.42-.07.22.07,1.87.36,9.37.44,14l-.19-4c.36,18.45.91,28.31,1.35,43.78a13.67,13.67,0,0,0-.09,2.36c0,1.47,0,3.51.05,5.78.09,4.53.18,10,.25,13.59l0-.25c.51,21.48,1.09,36.49,1.67,56.38.06,12.35.93,41.83,1.29,61.68,0-3,.19.49.3,4,.07,4.66.47,12.87.25,12.14l0-1.66c-.11,3.51.18,13.08.36,20.56l.29,1.22c.1,19.56,1.42,51.22,1.34,61.9.15,4.71.35,10.56.51,15.23L315,549c.31,13.07.47,19.6.86,35.76l-.18-3.3c.22,9.12.69,11.5.91,19.91l-.15,2.53c.4,15.9.61,32,1.2,47.7a28.23,28.23,0,0,1-.19-3.3c.18,7.49.58,29,.8,26.23a24.23,24.23,0,0,0,0,2.78c0,1.68.1,4,.17,6.57.17,5.15.38,11.35.53,15.64l-.18-1.33c.36,7.24.41,7.47.71,17.59.05,2.4-.05,2.1-.1-1.08.13,8,.29,6.22.45,15.91L319.6,727c.19,8.23.22,7.57.44,12.1.18,5.17.35,15.6.25,16.81.11,1.11.32,5.61.41,10.46,0,.65-.11-1.11-.15-2,.25,13.75.67,20.44.77,29.9a12.2,12.2,0,0,0,0,1.6c-.26-10.87-.43-18.08-.45-18.9-.13,0,.07,8.83-.28,1.81.27,7.09.78,19.19.93,27.79,0,.42,0,.82,0,1.14l0-.89c0,2,.09,3.76.16,5.44.05,2.74.08,4.48.13,7.12-.08,1,.2,10.12.3,14.52.13-.37.25,5.39.23,0,0,.7,0-.83-.11-3.75,0-.67-.05-1.44-.06-1.88l0,.3c-.08-2.89-.17-6.65-.28-10.93.15,3.47.3,7.1.35,12,.14,2.25.29,4.73.38,6.13-.05,6,.13,17.64.05,19.25.41,13.43.84,31.65,1.31,40.09.13,3.82,0,4.39,0,5.82-.08-2.21-.14-4.83-.21-6,.26,7.63.59,22.62.82,24.44.15,9.63-.31-5.4.05,7.82l-.1-1.78c.35,26,1.52,42.29,1.86,71.14,0-2,0-3,0-3.41l.06,3.09,0,1.49v.25c0,.07.06.22-.07.18h-.52l-6.23-.05-12.55-.1-25.31-.24c-16.89-.19-33.73-.46-49.95-1-9.23-.26-10.23-.19-15.86-.23l-2-.21-9.63-.09c-13.65-.29-23.62-1.1-40.89-1.64l2.22.21c-6.2-.29-19.64-.91-18.6-1-.63,0-2,0-4.45-.21l-.19-.09c-5.07-.26-10.15-.55-15.22-.91-5.89-.47-5.41-.57-5.62-.64a8.18,8.18,0,0,0-1.7-.25l-8-.84c-3.18-.33-7.71-.86-11.13-1.37s-5.71-1-4.54-.72l4.2.86c1.33.23,2.37.42,2.46.47l-2.9-.43-2.88-.55c-.55,0-1.94-.16-1.43.06s2.9,1,10,2l5,.55,5,.46,3.21.42c-2.8-.23-5.61-.57-8.41-.85,2.38.31,4.33.51,6.11.68l5.08.37c.8.13,2.2.3,4.19.47,3.28.18,6.56.36,9.84.5,1.19.17-4.42-.12,2.18.37,4.61.2-4.41-.49,3.22-.07,4.79.39,3.38.41,9,.63.79.09-.4.08-2.63,0,5,.21,13.25.66,15.85.64,5,.38,16.92.68,16.41.87,1.58,0,8.84.16,13.44.3-8.42,0,17.24.56,15,.75,6.24,0,22.5.49,33.53.57-.62,0-1.83,0-2.8,0,6.2.15,8,.25,12,.37.8-.18,10.46-.06,15.68-.1,7.6.3-4.63.16-2.24.38-.38-.16,13.22,0,10.64-.13,5.81.19,5,.12,8,.32,1-.23,5.42,0,10.24-.07,8.43.21,2.17.25,11.42.27C309.1,999,300.87,999,300.87,999Zm21.42-194.75h0c0,1.9.09,3.51.12,4.54C322.39,807.84,322.35,806.53,322.29,804.24Zm-.46-18.48c.05,2.25.12,5,.19,8,0,.65-.1,0-.14-1.91C321.94,792.87,321.86,788.51,321.83,785.76Zm0,39.12c-.09-2.92-.08-3.91-.07-4.31,0,1.38.09,3,.15,5.12l0,.34C321.89,825.76,321.86,825.44,321.82,824.88Z"/><path class="cls-1" d="M322.14,830.14c0,.42,0,.65,0,1.2,0-.6,0-1.17,0-1.74,0-.36-.05-.72-.07-1Z"/><path class="cls-1" d="M4.1,646.34l0-.39c0,.33,0,.62,0,.82Z"/><polygon class="cls-1" points="315.77 530.5 315.73 530.52 315.8 532.14 315.77 530.5"/><path class="cls-1" d="M10.72,748c0,.2,0,.58.09,1.34C10.81,749.24,10.77,748.66,10.72,748Z"/><path class="cls-1" d="M15.54,791.7l.75,6.17C16,795.2,15.73,793.25,15.54,791.7Z"/><path class="cls-1" d="M20.25,825.2a6.46,6.46,0,0,0,.16.64v-.06Z"/><path class="cls-1" d="M3.84,288.31c0-.46,0-.91.05-1.31C4,283.94,3.91,286,3.84,288.31Z"/><path class="cls-1" d="M.26,448.31c0-1.7,0-3.37,0-5.14C.21,446,.19,448.23.26,448.31Z"/><path class="cls-1" d="M25.89,111.28v0l.32-1.06Z"/><path class="cls-1" d="M.32,435.73c-.06,2.84-.08,5.23-.08,7.44C.26,440.83.29,438.08.32,435.73Z"/><path class="cls-1" d="M63.57,964.36l.95,1.33.13.15Z"/><path class="cls-1" d="M64.65,965.84l1.08,1.46C65.23,966.63,64.81,966,64.65,965.84Z"/><path class="cls-1" d="M68.12,970.29c-.82-1-1.59-2-2.39-3C66.55,968.34,67.52,969.65,68.12,970.29Z"/><path class="cls-1" d="M43.87,924.16l-.22-.46A2.43,2.43,0,0,0,43.87,924.16Z"/><path class="cls-1" d="M39.48,911.27c1,3.09,2.4,7.79,4,12l.18.39C42.83,921.73,40.48,914.19,39.48,911.27Z"/><path class="cls-1" d="M26.35,856q1.08,5.6,2.26,11.17c-.36-2-.85-4.54.26.53C26.08,853.64,29.31,870.66,26.35,856Z"/><path class="cls-1" d="M20.32,821.21c1,6,.07-.09.15.23C19.83,817.61,19.68,816.68,20.32,821.21Z"/><path class="cls-1" d="M1.51,566.62l.14.62C1.53,562.52,1.6,567.19,1.51,566.62Z"/><polygon class="cls-1" points="0.14 517.8 0.1 522.4 0.23 524.58 0.14 517.8"/><polygon class="cls-1" points="0.91 488.95 0.93 491.01 0.88 483.13 0.91 488.95"/><path class="cls-1" d="M45.44,65.64l-.8,1.19a12.06,12.06,0,0,0-1,2.24C43.7,69,44.23,68,45.44,65.64Z"/><path class="cls-1" d="M202.45,7.5c2,.39,7.11,1.3,10.28,1.78C208.63,8.55,204.55,7.81,202.45,7.5Z"/><polygon class="cls-1" points="313.29 481.42 313.14 477.69 313.36 484.71 313.29 481.42"/></g><path class="cls-1" d="M283.71,38.75c0-.5-.1-.24-.32,1.11v1Z"/><path class="cls-1" d="M281.8,47.72c-.21,1.6-.39,3.44-.06,2.45.12-1.6.26-2,.37-3.68a6.63,6.63,0,0,1,.49-2.1c0-.48.41-2.08.44-2.82a57.16,57.16,0,0,0-1.15,6.27C281.76,48.33,281.81,47.84,281.8,47.72Z"/><path class="cls-1" d="M254.49,178.17l.21-.83C254.65,177.57,254.57,177.85,254.49,178.17Z"/><path class="cls-1" d="M234.34,258.26a7.11,7.11,0,0,0,.2-.9A5.25,5.25,0,0,0,234.34,258.26Z"/><path class="cls-1" d="M230.55,271.84l.23-.8C230.68,271.34,230.59,271.65,230.55,271.84Z"/><path class="cls-1" d="M254.49,178.17l-.55,2.14A17.16,17.16,0,0,0,254.49,178.17Z"/><path class="cls-1" d="M279,65.89c.07-.45.12-.83.17-1.18-.07.37-.12.73-.19,1.11A.64.64,0,0,1,279,65.89Z"/><path class="cls-1" d="M262.46,142.65l.15-.65c0-.2,0-.38.05-.56Z"/><path class="cls-1" d="M268.33,115.34a2.78,2.78,0,0,0,0,1.11,9.58,9.58,0,0,1,.18-1.37S268.41,115.14,268.33,115.34Z"/><path class="cls-1" d="M277.23,71.94l.13-.77C277.33,71.37,277.27,71.71,277.23,71.94Z"/><path class="cls-1" d="M258,162.15a1,1,0,0,0-.1.24S258,162.3,258,162.15Z"/><path class="cls-1" d="M68.79,919.8s0,0,0,0C68.75,920,68.75,920,68.79,919.8Z"/><path class="cls-1" d="M63.61,951.78l.06-.45c0-.05,0-.1-.07-.11Z"/><path class="cls-1" d="M223.66,296.71l0-.11C223.86,295.94,223.76,296.31,223.66,296.71Z"/><path class="cls-1" d="M158.66,524.52c.86-2.55-1,4.24.2.4C158.71,525.26,159.66,521.32,158.66,524.52Z"/><path class="cls-1" d="M278.81,66.6c-.07.37-.13.75-.2,1.13C278.7,67.22,278.76,66.87,278.81,66.6Z"/><path class="cls-1" d="M158.86,524.92h0l.13-.4C158.94,524.68,158.91,524.78,158.86,524.92Z"/><path class="cls-1" d="M207.79,354a5,5,0,0,0,.22-.57A3.42,3.42,0,0,0,207.79,354Z"/><path class="cls-1" d="M219.92,311.4l-.31,1.06Z"/><path class="cls-1" d="M201.68,376.18c-.17.57-.25.76-.45,1.55l.08-.24C201.38,377.21,201.48,376.83,201.68,376.18Z"/><path class="cls-1" d="M195.07,399.19l.15-.42c.06-.23.13-.5.2-.73Z"/><path class="cls-1" d="M80.69,848.05a10.31,10.31,0,0,1-.32,1.07C80.53,848.77,79.93,852.24,80.69,848.05Z"/><path class="cls-1" d="M278.88,65.89a3.34,3.34,0,0,1-.07.71c.05-.27.09-.53.13-.78C278.94,65.74,278.92,65.73,278.88,65.89Z"/><path class="cls-1" d="M202.48,377.42l-1.07,3.65Z"/><path class="cls-1" d="M117.55,680.38l-.2.85C117.44,680.91,117.51,680.61,117.55,680.38Z"/><path class="cls-1" d="M198.31,391.92c-.24.64-.46,1.33-.69,2,0,.15-.07.33-.08.43Z"/><path class="cls-1" d="M80.36,849.13h0Z"/><path class="cls-1" d="M76.32,873.84c.61-3.57.11-1.7.13-2.48.68-4.27.47-2,.81-3.38.41-2.67.59-4.75.93-6.73.06-.14.14-.53.1-.07.36-2.83,1.53-8.33,1.95-11.64a3.6,3.6,0,0,1,.12-.41c-.18.51-.29.57-.34.45a32.27,32.27,0,0,1,.67-3.56,9.12,9.12,0,0,0-.2,1.53l.25-1.68c.45-1.48-.36,2.29-.23,2.32.55-3.28,1.11-7.11,1.62-9.6.26-.49-1,5.86-.26,2.55L81.09,845c.81-2.91-.45,2.35.33-.32,1-5.08,1-5.71,2-10.78.12-1.16-.21.35-.09-.81,1.21-7.24,1.53-5.59,2.35-10.93a30.89,30.89,0,0,1,.92-5.71l-.07,1.32c1-4.91.29-2.86,1.44-8-.11.93-.71,3.88-.54,3.14a49.54,49.54,0,0,0,.87-4.94l.28-.5c1-5.25,2.1-11,3.29-16.81,0,.33-.17,1.33.17,0,1.48-7.31,3.27-15.58,5-22.57l.46-2.71c.14-.63.32-1.15.2-.47.66-2.72-.06-.16.18-1.48.34-1.56.54-2,.36-1,1-4.85,2.82-13.8,4.11-18.85l-.18,1c1-3.95.75-4.53,1.74-8.17l-.14.71c2.08-8.56,4.16-18.07,5.94-24.55.1-1.29,2.17-8.44,2-9.06,1.34-4.85,1-3.44,2.83-10.3.46-1.83.49-2.78,1-5.06l.16,0,.6-3.12.6-1.59.5-2.14a7.68,7.68,0,0,1-.53,1.64c.39-1.66.93-3.68,1.39-5.29.23-.8.44-1.5.59-2a6.94,6.94,0,0,1,.28-.83l1.88-7.88c0,.19-.3,1.51-.53,2.56.92-4.24.35-.72,1.19-4.6-.16.5,0-.3,0-.4.59-1.89,1.68-6.25,2.49-9.48l-.06.64c1.52-5.82,3.19-12.27,4.89-18.8-.66,2.33-.7,1.75-.21-.17l.36-.73c.23-1.26-.59,2,0-.58s.61-1.59.29-.18l.73-3c.09-.16-.07.54,0,.74.22-1.24,1.49-5.08,1.81-6.87l.09-.16c1.73-6.52,2.52-9.47,3.93-14.78a38.84,38.84,0,0,1,.8-3.82c1.1-3.89,2.33-8.2,3.66-12.88.84-3.31.15-1,.48-2.5.19-.21,1.47-4.89.89-2.44,1.54-5.63,2-7.2,3.83-14.34-.27.75-.53,1.62-.44,1.16a15.31,15.31,0,0,1,.87-2.73l-.08.35c2-8,5.53-18.32,7.06-24.75l-.09.36,1.72-6.63c.89-3-.42,1.84.29-.38,1.82-7.16,3.23-11.21,4.77-17.1,1.64-4.42,4.56-16.07,6.56-22.11l-.19.33a27.56,27.56,0,0,1,1-3c-.12.14-.57,1.69-.34.7,3.74-13.41,8.1-27.56,12.14-41.24,1.48-5,.39-3,2.42-9.23l-.36,1.84c2.74-10.16,6-20.67,8.71-30.62a13.87,13.87,0,0,1-.37,1.6c.36-1,.92-3,1.38-4.65l.58-2.19a5.85,5.85,0,0,0,.2-1c.46-1.53.19-.33.51-1.26.68-2.08,1.38-5.31,1.82-6.39a9.26,9.26,0,0,1-.24,1c.34-1.38,1.86-6.36,1.35-5.09,1.13-3.7,2-7.13,2.91-10.07.41-2,1.91-6.35,1.87-7,.14.33,2-6.47,2.63-8.85-.16.81.65-2,.48-1.08.76-2.68,1.42-5.15,1.18-4.72,1.66-4.87,2.62-10,3.74-12.69L213.64,337c.15.32-2.2,7.94-1.89,7.7,1.82-6.84,2.74-10.82,4.68-17.57.53-1.74-.18,1-.31,1.63,1.83-6.83,3.69-13.17,5.24-19.27,0,0-.15.69-.3,1.31a16.41,16.41,0,0,0,.66-2.66l-.29,1.17c-.67,1.87,1-4.83,1-5.07-.28,2.11,1.72-6,1.19-2.65.19-.79.42-1.79.3-1.63.34-1.16.48-1.52.23-.31,1.13-4.3.61-2.81,1.67-6.69.05,0-.15.82-.2,1.24.44-2,.87-4,1.8-7.27,0,.21.11-.17-.15.81,1.5-5.64,2.33-9.68,4.09-15.84-.29,1.88.63-2.08.9-2.36l.84-3.34-.45,1.31c.8-2.91,1.32-5.53,2-8l-.49,2.19,1.39-5.48-.88,3.08c.68-3-.31.26.76-3.62-.19.8.76-2.92,1.27-4.41h0c.32-1.46.65-3,1.26-5.11.2-.54.08.51.21.15.23-1.46,1.75-6.85,2.06-8.69-.12.61,0,.66,0,.47l.18-1.23c.38-1.34.45-1.54.47-1.3,1.05-4.07-.55,1.24.77-3.57-.09.38,0,.2-.21,1,1.28-4.85,2.29-9.41,3.48-13.86.52-1.27-.94,3.91-.4,2.44,1.54-6.45,3.19-13.37,4.69-19.62l-.3,1.16c-.05-.93,1.25-4.62,1.9-7.81-.17.78-.11,1-.09.83,1.08-4.26,2.07-8.75,3.55-15.25l-.13.82c.66-2.51,1.58-6.65,2.25-9.37.12-.83.49-2.39.18-1.46,1.16-4.16,2-8.19,2.88-12.09.43-2,.85-3.88,1.27-5.78s.85-3.78,1.34-5.63c-.19.89-.41,2.14-.25,1.43l1.34-6.39a18.21,18.21,0,0,0-.63,2.14c.11-.82.45-2.63.8-4.21-.56,2.88.18,0,.52-1.21-.08.2,0-.23-.08-.14.93-3.28-.11-.6,1-5.12v.25c.35-1.71.61-3.29,1-5.12.3-.73-.33,1.82-.25,2,.55-2.58.88-5.13,1.5-7.44-.18,1.1-.54,2.68-.74,3.78.71-2.51.74-2.81,1.15-4.7l0,.19,1-4.37-.27,1.11c.33-3.31,1.3-6.6,2-11-.66,4.28,0,.72.06,1.08a15.26,15.26,0,0,1,.61-2.3c.31-2.08.81-3.42,1.23-6.36.08-.12.46-2.2.49-1.71.51-2.69-.22.62-.23.38.72-4.15,2.1-9.68,3.05-15.67.9-5.15.92-6.13,1.76-10.91.39-1.59-.08,1.35-.08,1.35.57-2.58.94-4.54,1.35-7-.05.5.08,0,.27-.74.34-2,.06-1.34.59-3.92,0,.45,0,1-.15,2,.35-2.33.7-4.63,1.07-7,.2-.62-.13,1.47-.23,2.32.44-2.7,1.17-7,1.19-7.85l-.36,1.72c.17-1,.21-.48.1.24a15.35,15.35,0,0,1-.71,3.45l.27-1.71c-.59,1.7-1.18,6.87-1.81,10.3l.05-1.47-.47,3.56c-.19.73-.41,1.22-.11-.47-.58,2.44-.35,2.19-.87,4.28-.06.23-.05.12,0-.1l-.4,2.42c.05-.48-.22.37.09-1.1-.95,4.29-1.19,7-1.66,8.57l.06-.36c-1.09,6,0,.61-.65,5.13l-1,2.94,0,.62a7.22,7.22,0,0,1-.39,1.6c-.34,2.32.14-.38,0,1-.68,3-1.59,8.19-2,8.81-.1,1.09.68-2.81.1.37-.44.85-.71,3.66-1.39,6.34,0-.86.64-3.4,0-.72-.11,1.68-1.14,5.26-1.57,7.55.16.14-1,5-1.69,8.82,0-.25-1.67,7.17-2.51,10.71v-.11c0,.73-.81,4.39-1.36,7.06a5.9,5.9,0,0,1,.25-2.07l-.55,2.51c-.08.6-.22,1.39-.55,3v-.66c-.74,3.34-1.29,6.77-2.38,11,.07.27,1.13-3.33.17,1.23-.11.15-.26.29,0-.9-.08.39-.26,1.4-.47,2.17l.3-1.84c-.5,1.95-.14,1-.51,2.61-.09-.06-.34,1.14-.36.89.08-.4.35-1.35.46-2-.43,1.75-1,3.87-1.22,4.55.09-.14.13,0-.15,1.32a22.67,22.67,0,0,1-.88,3.05,26.35,26.35,0,0,0-.55,3,11,11,0,0,1-.46,1.51c-.34,1.73-1.85,8-1.25,6.15l.11-.44a1.77,1.77,0,0,1-.06.28v0c-1.14,5.69-2.89,11.7-4.17,17.31l-.05,0c-.75,3.35-1.77,7.44-2.24,9.85-.24,1-.66,2.31-.61,1.87-.58,2.56-.59,2.86-1.6,6.52a17.78,17.78,0,0,1,.6-2.64c-.88,3.3-1.15,4-1.91,7.62.18-1.24-.78,2.45-1.14,4l.67-2.3-1.24,4.89.06-.89c-1.92,6.72-2.72,12.3-4.41,17.36-.35,1.81,1-3.65.75-2-.83,3.1-1.91,6.28-2.16,7.25-1.2,4.24-.8,4-2,8.48.21-.56.5-1.06-.31,2.29-.84,3.1-1.24,3.76-.77,1.78a6.23,6.23,0,0,1,.31-1.06c.24-1,.56-2.34.18-1.12l-.05.41c-.46,1.53-1.57,5.81-1.41,4.78-.55,2.37-.16,1,.32-.7L230.78,271c.21-.64.44-1.22.26-.57-1.68,6-.6,2.67-1.67,6.75-.71,2.29,0-.88-1,3.24-.74,2.48-.3.49-.08-.52-.89,3.76-1.95,7-2.54,9.09l.48-2c-.29,1.18-.55,2.14-.81,3.12l.42-1.09a20,20,0,0,1-.64,2.1c-.24,1.21.44-.86-.09,1.53-.48,1.52-1.23,4.7-1.53,5.19,1.38-4.83-.3.49.8-3.61-.19.79-.46,1.76-.8,2.91-.06.17,0-.17.09-.49-1.41,4.59-.41,2.17-1.73,7,.08-.63-.47,1.07-.67,1.85.54-1.93.4-.88,0,.91-.92,3.06-.87,3.36-1.32,5l.53-1.83c-.08.65-.52,2.19-1.08,4.34-.12.16.49-2,.25-1.21-.51,2.43-1.63,5.34-2.45,8.69-.49,1.52-.2.1-.62,1.44-.93,3.74-1.25,4-2.25,7.92.43-1.09.46-1.3-.2,1.48l1.72-6.44-1,4.17c.55-1.94,1.08-4.11,1.42-5.27-.46,2-.43,1.78-.07.88-.92,2.6-1.38,5.28-2.35,8.32l-.26-.18c-1.42,4.57-2.15,8.23-3.9,14.19l.59-1.91c-.11.84-1,3.7-1.53,5.65,0-.21-.42,1-.72,1.8.1-.08-1.25,4.37-1.21,5l-.89,2.63c-1.42,4.81-1.29,5.58-2.65,10.21.3-1.42-.37.67.44-2.46a27.33,27.33,0,0,0-.79,3c-.32.88-1.1,4.33-1.6,5.72a19.78,19.78,0,0,1-.61,2.64c-.08.19,0,0,0,0s-.72,2.74-.17,1.25c-1.67,4.69-3.82,13.33-5.26,17.41-1,3.38-2.1,7.46-3,10.53a1.59,1.59,0,0,1,.14-.6c-1.31,4.2-.48,2.68-2,7.46-.87,2.41.65-2.58.15-1.06-.5.57-1.64,5.81-2.76,9l.21-.79c-.82,2.44-1.63,6.07-2.82,10.1,0,0,0-.2,0,0-.64,2.81-2.11,8.06-3.19,12,.23-1.25.45-1.79.11-1.09-.49,1.75.34-.45-.63,3-.4,1.11-1.18,3.6-1.41,3.9l.94-3.28c-.66,1.63-1.22,4.24-1.75,6l0-.25c-1.43,5-1.26,5.16-2.84,10.57l.22-.55c-.67,3-.83,2.45-1.54,5.44l-.45.83c-.52,2-1.79,6.88-2.77,10.39.43-2,1.55-6.13,2.2-8.69-.57,1.94-1.89,6.57-2.09,7.61.21-.79.44-1.78.7-2.54-.54,2.41-1.37,5.55-2.49,9.4-.17-.79-3,10-4.08,12.73-1.82,6.85-4,13.5-6.2,21.45,1.09-2.74-.66,2.32-.22,1.92-.51,1.85-.72,2.56-.78,2.72l-1.78,5.56c-.46,1.3.44-1.78.32-1.63-1.18,4-.61,1.66-1.45,4.32.26-.52-.25,1.45-1,3.75l1.06-3.21c-1.45,5.71-1.64,4.82-3.11,10.58l.42-1.84c-.78,2.95-3,10.82-3.62,13.76-.18.51-.45,1.17-.11-.13-2,7-4.15,15.67-5.79,21.09l.08-.56c-.34,1.32-.5,2.32-1,3.94,0-.09.07-.55-.1.06s-.84,3.51-1.36,5.23l.33-1.5c-2,6.82-2.71,10.55-4.23,16.31-.21-.07-1.74,5.3-2.5,8v-.1c-2.18,8-3.5,13.61-5.39,21-1.44,4.54-4.19,15.55-6.27,22.9.34-1.12.12.23-.2,1.55-.51,1.72-1.1,4.83-1.22,4.51l.16-.62c-.52,1.26-1.38,4.84-2.1,7.63l.14.53c-2.21,7.2-4.76,19.12-6,23-.39,1.77-.88,4-1.27,5.73l-.11-.13c-1.24,4.87-1.85,7.31-3.3,13.36l.2-1.26c-.84,3.41-.66,4.4-1.42,7.54l-.42.9c-1.4,6-3,11.95-4.2,17.88a4.42,4.42,0,0,1,.19-1.26c-.66,2.8-2.69,10.81-2.16,9.86-.22,0-1.41,6.15-2.05,9.4l0-.54c-.43,2.77-.4,2.86-1.21,6.67-.22.9-.28.77,0-.42-.74,3-.4,2.37-1.28,6l.21-1.37a44.11,44.11,0,0,0-.88,4.57,64.11,64.11,0,0,1-1.56,6.28,31,31,0,0,1-.7,4c-.1.23,0-.44.07-.77-1.19,5.15-1.47,7.73-2.36,11.26a2,2,0,0,0-.21.58c.88-4.09,1.47-6.8,1.53-7.11-.12,0-.85,3.29-.46.61-.47,2.69-1.23,7.3-2,10.52a4.33,4.33,0,0,1-.13.42l.05-.34c-.17.75-.3,1.42-.41,2.05-.23,1-.38,1.69-.61,2.68-.18.36-.87,3.79-1.21,5.45.17-.11-.29,2.06.23,0a10.84,10.84,0,0,1,.27-1.42c0-.25.11-.54.14-.71v.12c.22-1.09.52-2.51.86-4.12-.21,1.32-.44,2.7-.9,4.51-.1.88-.2,1.83-.26,2.37-.64,2.23-1.62,6.59-1.86,7.17-.93,5.09-2.32,12-2.7,15.2a11.75,11.75,0,0,1-.55,2.17c.14-.83.34-1.82.39-2.28-.52,2.89-1.66,8.55-1.58,9.28-.76,3.62.21-2.08-.69,2.93l.07-.69c-2.09,9.8-2.53,16.09-4.85,27a12.51,12.51,0,0,1,.28-1.28c-1.15,6.22-2.2,12.66-3.27,19.07s-2.15,12.8-3.18,19c-.6,3.5-.54,3.9-.79,6l-.26.74-.4,3.69c-.65,5.21-1.82,8.92-2.47,15.55l.22-.84c-.35,2.37-1,7.51-1,7.1a9.41,9.41,0,0,1-.19,1.7l-.08.06-.68,5.83c-.68,4.5-.21-.74-1.14,5.83a57.18,57.18,0,0,0-.56,6.08,17.22,17.22,0,0,1,.49-2.58l-.27,2.24c.17.44.17,2.19,1.09-3.28l.39-3.84.29-1.21L65,946.21a35.32,35.32,0,0,0,.54-4.28,12.3,12.3,0,0,0,.35-1.58l.3-3.79c.15-.44-.06,1.71.34-.8.14-1.77-.43,1.66-.1-1.26a19.67,19.67,0,0,0,.58-3.43c.1-.29.08.17,0,1,.19-1.92.67-5.06.68-6.06.39-1.89.87-6.45,1.08-6.23,0-.61.35-3.38.61-5.13-.23,3.23,1-6.55,1.18-5.67.14-2.4,1.23-8.56,1.75-12.77,0,.23,0,.7-.12,1.07.38-2.36.56-3,.84-4.54a54.21,54.21,0,0,1,.63-6c.67-2.85-.08,1.79.26.92-.18.12.7-5,.4-4.08a24.82,24.82,0,0,1,.73-3c-.17-.43.31-2.07.48-3.92a32.36,32.36,0,0,0,.89-4.3C76.77,870.71,76.32,873.84,76.32,873.84Zm15.47-83.19h0c-.14.71-.27,1.32-.35,1.71C91.51,792,91.61,791.51,91.79,790.65Zm1.47-7c-.18.85-.4,1.9-.64,3-.1.23-.09,0,.06-.74C92.63,786.35,93,784.72,93.26,783.69Zm-4.07,14.52a9.9,9.9,0,0,1,.38-1.61c-.11.52-.23,1.13-.39,1.93,0,0,0,.1,0,.13A1.86,1.86,0,0,1,89.19,798.21Z"/><path class="cls-1" d="M89,800.23c0,.16,0,.25-.08.46,0-.23.11-.44.17-.66s0-.27,0-.39C89,799.84,89,800,89,800.23Z"/><path class="cls-1" d="M254.74,177.2l0,.14c0-.12.07-.23.09-.3Z"/><polygon class="cls-1" points="115.69 688.08 115.65 688.08 115.54 688.69 115.69 688.08"/><path class="cls-1" d="M263.9,139.1c0-.07.07-.21.15-.5A3.78,3.78,0,0,0,263.9,139.1Z"/><path class="cls-1" d="M267.54,122.57l.53-2.33C267.84,121.25,267.67,122,267.54,122.57Z"/><path class="cls-1" d="M270.25,109.84a.78.78,0,0,0,0-.26v0Z"/><path class="cls-1" d="M221.06,310.79l-.13.48C220.65,312.42,220.85,311.64,221.06,310.79Z"/><path class="cls-1" d="M236.72,251.24c-.14.64-.28,1.27-.43,1.93A8.21,8.21,0,0,0,236.72,251.24Z"/><path class="cls-1" d="M202.6,377h0l-.12.41Z"/><path class="cls-1" d="M235.56,255.94c.31-1.05.53-1.94.73-2.77C236.05,254,235.77,255.06,235.56,255.94Z"/><path class="cls-1" d="M281,54.47l.12-.61s0,0,0-.08Z"/><path class="cls-1" d="M281.12,53.78l.1-.69C281.17,53.4,281.12,53.68,281.12,53.78Z"/><path class="cls-1" d="M281.45,51.64l-.23,1.45C281.31,52.59,281.43,52,281.45,51.64Z"/><path class="cls-1" d="M277.86,71.41l0,.2A.34.34,0,0,0,277.86,71.41Z"/><path class="cls-1" d="M276.88,76.55c.25-1.22.7-3,1-4.77v-.17C277.79,72.43,277,75.37,276.88,76.55Z"/><path class="cls-1" d="M272.09,97.88c.32-1.43.61-2.86.9-4.29-.2.74-.46,1.71-.1-.25C271.68,98.74,273.25,92.25,272.09,97.88Z"/><path class="cls-1" d="M269.26,111.18c.45-2.31-.08,0-.09-.12C268.92,112.54,268.86,112.89,269.26,111.18Z"/><path class="cls-1" d="M247.44,207l-.07-.26C247,208.51,247.41,206.77,247.44,207Z"/><polygon class="cls-1" points="243.5 225.38 244.01 223.69 244.1 222.84 243.5 225.38"/><polygon class="cls-1" points="239.9 235.92 240.08 235.15 239.38 238.09 239.9 235.92"/><path class="cls-1" d="M196.13,395.06l.3-.48C196.74,393.39,196.64,393.09,196.13,395.06Z"/><path class="cls-1" d="M176.46,463.56a33,33,0,0,0-1.17,3.84C175.75,465.86,176.25,464.35,176.46,463.56Z"/><polygon class="cls-1" points="119.11 669.45 119.41 668.05 118.78 670.68 119.11 669.45"/><path class="cls-1" d="M56.4,109.6c-.23-.4-.2-.13.33,1l.52.75Z"/><path class="cls-1" d="M59.62,117.51c.69,1.32,1.52,2.84,1.26,1.89-.75-1.28-.83-1.63-1.66-3-.54-1.15-.86-2-.71-1.87-.23-.39-.78-1.81-1.15-2.39a49.6,49.6,0,0,0,2.4,5.42C59.92,118,59.69,117.59,59.62,117.51Z"/><path class="cls-1" d="M104,233.18l-.23-.77Z"/><path class="cls-1" d="M126.39,306.64a3.91,3.91,0,0,0-.27-.82A5.69,5.69,0,0,0,126.39,306.64Z"/><path class="cls-1" d="M129.75,319.31c-.07-.27-.13-.5-.19-.75A6.69,6.69,0,0,0,129.75,319.31Z"/><path class="cls-1" d="M104,233.18l.58,2A14.4,14.4,0,0,0,104,233.18Z"/><path class="cls-1" d="M67,133c-.17-.39-.32-.71-.47-1,.14.33.28.64.42,1Z"/><path class="cls-1" d="M92.93,201.19l-.22-.58-.24-.47Z"/><path class="cls-1" d="M83.9,176.83a2.59,2.59,0,0,0,.55.88,10,10,0,0,1-.55-1.16S83.87,176.64,83.9,176.83Z"/><path class="cls-1" d="M68.7,138.55l-.3-.67Z"/><path class="cls-1" d="M99,218.77a.74.74,0,0,0,0,.24S99,218.91,99,218.77Z"/><path class="cls-1" d="M289.33,919.68s0,0,0,0S289.4,919.87,289.33,919.68Z"/><path class="cls-1" d="M299.28,948.11l-.15-.39s-.08-.06-.11-.05Z"/><path class="cls-1" d="M135.89,342.51l0-.11C135.68,341.8,135.78,342.14,135.89,342.51Z"/><path class="cls-1" d="M187.68,556.62c-.44-2.46,1.07,3.92.36.23C188.07,557.2,187.06,553.57,187.68,556.62Z"/><path class="cls-1" d="M67.21,133.58l.42,1Z"/><path class="cls-1" d="M188,556.85h0l-.07-.38C188,556.63,188,556.72,188,556.85Z"/><path class="cls-1" d="M149.78,396c0-.11,0-.33-.08-.56A2.28,2.28,0,0,0,149.78,396Z"/><path class="cls-1" d="M139.79,356.06l.23,1C139.93,356.66,139.85,356.34,139.79,356.06Z"/><path class="cls-1" d="M155.09,416.74c.12.54.14.73.34,1.46,0-.07,0-.14,0-.23A11,11,0,0,1,155.09,416.74Z"/><path class="cls-1" d="M160.32,438.38c0-.12,0-.27-.07-.41s-.11-.46-.17-.68Z"/><path class="cls-1" d="M267.37,855.71c.11.48.16.78.2,1C267.56,856.37,268.59,859.47,267.37,855.71Z"/><path class="cls-1" d="M66.9,133a2.46,2.46,0,0,1,.31.59c-.1-.23-.19-.46-.29-.68C66.88,132.85,66.85,132.84,66.9,133Z"/><path class="cls-1" d="M156.38,417.36l.82,3.44C157,419.84,156.67,418.59,156.38,417.36Z"/><path class="cls-1" d="M223.7,702.14l.22.79C223.84,702.62,223.77,702.34,223.7,702.14Z"/><path class="cls-1" d="M159.7,431c.1.63.23,1.29.37,2a3.79,3.79,0,0,0,.13.4Z"/><path class="cls-1" d="M267.57,856.74h0Z"/><path class="cls-1" d="M275.17,878.75c-1.08-3.19-.68-1.44-1-2.08-1.34-3.79-.47-1.81-.81-3.13-.85-2.37-1.64-4.13-2.22-5.92,0-.14-.11-.49.06-.1-1-2.48-2.42-7.5-3.54-10.38a2,2,0,0,1-.08-.4c.06.5,0,.6-.1.53a30.65,30.65,0,0,1-1-3.22,8.88,8.88,0,0,0,.52,1.35l-.53-1.49c-.27-1.41.72,2,.84,2-1-2.93-2.24-6.31-2.91-8.57,0-.53,1.74,5.24.92,2.19l1.06,3.51c-.6-2.75.66,2.12.15-.41-1.43-4.6-1.73-5.11-3.15-9.69-.42-1,0,.38-.45-.62-2.18-6.47-1.17-5.27-2.86-10a27.59,27.59,0,0,1-1.78-5.08l.54,1.11c-1.34-4.46-1-2.46-2.34-7.17.32.81,1.13,3.49.95,2.8a43,43,0,0,0-1.47-4.43V819c-1.5-4.73-3.12-10-4.7-15.22.14.27.45,1.16.14-.09-2-6.63-4.17-14.2-5.86-20.67l-.83-2.42c-.16-.57-.23-1.08,0-.47-.65-2.52-.13-.1-.52-1.29-.41-1.43-.45-1.91-.15-1-1.36-4.4-3.79-12.55-4.94-17.26l.3.9c-1-3.65-1.41-4-2.2-7.45l.2.65c-2.06-7.93-4.54-16.64-5.94-22.73-.51-1.1-1.95-7.87-2.37-8.31-1-4.56-.64-3.28-2.2-9.68-.43-1.71-.83-2.49-1.41-4.59l.14-.09-.9-2.82-.22-1.57-.53-2a7.84,7.84,0,0,1,.28,1.58c-.43-1.54-.87-3.43-1.21-5a27,27,0,0,1-.52-2.71l-2-7.28c.1.15.43,1.37.71,2.33-1.13-3.87,0-.75-1.05-4.29.08.49-.16-.24-.21-.31-.36-1.81-1.38-5.87-2.17-8.86l.25.55c-1.35-5.43-2.84-11.44-4.35-17.53.49,2.19.19,1.74-.27-.05v-.75c-.38-1.13.39,1.88-.31-.46-.53-2.28-.19-1.58.18-.28l-.73-2.76c0-.17.19.47.29.63-.37-1.11-1-4.82-1.58-6.42v-.17c-1.49-6.09-2.16-8.85-3.38-13.82a35.62,35.62,0,0,1-1.06-3.47c-.82-3.66-1.69-7.74-2.75-12.14-.79-3.08-.33-.88-.74-2.25.08-.26-1-4.66-.34-2.39-1.27-5.29-1.61-6.75-3.29-13.42.12.74.29,1.56.15,1.15a13.17,13.17,0,0,1-.49-2.61l.08.31c-2-7.46-3.68-17.41-5.33-23.33l.09.33-1.57-6.17c-.64-2.86.49,1.69.08-.44-1.77-6.64-2.42-10.58-3.83-16.06-.61-4.35-3.52-15.13-4.61-20.95v.35a25.72,25.72,0,0,1-.6-2.91c0,.17.3,1.63,0,.72-3-12.59-5.87-26.06-8.8-39-1.07-4.73-1.07-2.58-2.24-8.58l.55,1.65c-2.41-9.49-4.55-19.5-6.9-28.79a11.83,11.83,0,0,1,.43,1.46c-.17-1-.59-2.82-1-4.39-.2-.79-.4-1.51-.54-2a5,5,0,0,0-.28-.87c-.33-1.45,0-.35-.16-1.26-.4-2-1.33-4.92-1.46-6a6.82,6.82,0,0,1,.26.9c-.36-1.27-1.41-6-1.25-4.73-.77-3.52-1.66-6.68-2.24-9.5-.58-1.78-1.38-6-1.73-6.53.28.2-1.32-6.17-2-8.35.25.72-.4-1.94-.09-1.1-.62-2.52-1.23-4.82-1.23-4.35-.87-4.72-2.49-9.29-2.81-12-2-7.46-3.78-14.36-5.55-21.07.28.19,1.89,7.44,2.05,7.09-1.68-6.36-2.8-10-4.4-16.33-.39-1.64.34.91.52,1.45-1.74-6.34-3.17-12.31-4.75-17.94,0,0,.2.61.37,1.18a14.4,14.4,0,0,0-.71-2.45l.31,1.08c.33,1.82-1.46-4.35-1.6-4.52.79,1.81-1.43-5.6-.27-2.7-.21-.72-.51-1.63-.53-1.44-.27-1.1-.32-1.45.05-.37-1.13-4-.85-2.53-1.82-6.14.05,0,.26.72.42,1.08-.58-1.81-1.17-3.62-2-6.68.08.17,0-.19.26.72-.71-2.62-1.37-4.84-2-7.12s-1.39-4.63-2.15-7.51c.69,1.64-.47-2-.38-2.32l-.92-3.07.26,1.26c-.75-2.7-1.55-5.05-2.15-7.39l.64,2-1.45-5.05.73,2.88c-.86-2.7-.14.36-1.1-3.25.22.73-.75-2.7-1.06-4.14h0c-.45-1.31-.91-2.67-1.46-4.67-.09-.53.33.36.26,0-.53-1.27-1.89-6.29-2.54-7.91.2.54.3.55.27.36l-.45-1.07c-.32-1.26-.36-1.45-.22-1.27-1.09-3.75.12,1.26-1.09-3.22.11.35.08.18.31.9-1.26-4.49-2.61-8.62-3.83-12.72-.2-1.27,1.15,3.56.87,2.13-1.86-5.89-4-12.15-5.72-17.87l.31,1.07c-.51-.71-1.16-4.31-2.23-7.14.25.7.44.88.35.7-1.23-3.9-2.66-7.93-4.67-13.8l.31.71c-.69-2.31-1.94-6.05-2.72-8.54-.31-.71-.76-2.13-.57-1.24C100,218.58,97,211.89,95,205c.28.81.72,1.9.5,1.26-.69-1.9-1.34-3.82-2.07-5.71a17.82,17.82,0,0,0,.55,2c-.3-.71-1-2.29-1.48-3.71,1,2.54.17-.08-.18-1.21,0,.2-.14-.17-.14-.06-.9-3.05-.4-.42-1.76-4.53l.13.19c-.59-1.51-1.18-2.88-1.76-4.53-.13-.73.65,1.6.79,1.66-.85-2.3-1.91-4.45-2.55-6.58l1.31,3.33c-.69-2.32-.83-2.57-1.42-4.27l0,.17-1.36-3.92.32,1c-1.36-2.77-2.32-5.81-4-9.58,1.67,3.66.36.57.61.8a12.17,12.17,0,0,1-.68-2.1c-.83-1.77-1.1-3.07-2.28-5.58,0-.13-.76-2-.48-1.58-1-2.36.14.59,0,.41-.79-1.79-1.59-3.95-2.47-6.31s-1.94-4.88-3.12-7.45c-2-4.44-2.46-5.21-4.28-9.34-.52-1.43.64,1.08.64,1.08-.88-2.29-1.61-4-2.56-6.1.22.41.07,0-.15-.72-.74-1.7-.63-1.08-1.57-3.34.22.36.53.82.94,1.61l-2.88-6c-.17-.59.68,1.19,1.06,1.9-1.08-2.31-2.78-6-3.22-6.65l.62,1.51c-.38-.85-.09-.48.22.13a12.71,12.71,0,0,1,1.25,3l-.69-1.46c.4,1.64,2.73,5.88,4,8.88l-.71-1.16,1.45,3c.22.67.3,1.17-.35-.3.81,2.19.87,1.87,1.54,3.76.07.21,0,.12-.07-.06l.94,2.07c-.21-.39,0,.41-.5-.89,1.46,3.81,2.69,6,3.14,7.49l-.15-.31c2.26,5.2.36.44,2.16,4.3l.76,2.78.36.45a6.32,6.32,0,0,1,.5,1.45c.89,2-.08-.37.47.77.9,2.67,2.9,7.19,2.9,7.87.48.9-.9-2.53.28.23.07.9,1.31,3.22,2.13,5.65-.41-.68-1.23-3-.41-.54.78,1.37,1.78,4.68,2.62,6.68.23,0,1.74,4.38,3,7.78-.13-.2,2.27,6.46,3.38,9.65l-.06-.08c.4.55,1.57,3.84,2.48,6.21-.14-.05-.33-.47-.86-1.74l.83,2.24a24.15,24.15,0,0,1,1.07,2.65l-.33-.52c1,3,2.25,6,3.5,9.89.2.18-.73-3.19.77.87,0,.18-.07.37-.47-.69.13.34.49,1.23.7,1.94l-.67-1.59c.56,1.78.41.89.88,2.3-.1,0,.3,1.06.15.89-.13-.36-.38-1.24-.61-1.77.54,1.59,1.15,3.53,1.3,4.19,0-.16.12,0,.54,1.11a20.48,20.48,0,0,1,.8,2.84,22.09,22.09,0,0,0,1.07,2.65,7.71,7.71,0,0,1,.36,1.42c.57,1.54,2.4,7.3,2,5.49l-.12-.41a2,2,0,0,0,.09.26v0c1.81,5.08,3.4,10.67,5.12,15.74h0c1.07,3,2.16,6.77,2.95,8.92.28.9.57,2.15.4,1.79.76,2.32.89,2.56,1.85,6a17.09,17.09,0,0,1-.8-2.39c.9,3,1,3.76,2.17,7-.46-1.07.55,2.33,1,3.76l-.58-2.15c.52,1.62,1,3,1.39,4.48l-.4-.73c1.66,6.28,3.64,11.13,4.71,16,.6,1.61-.91-3.41-.35-2,.82,2.87,1.47,5.92,1.73,6.82,1.06,3.95,1.34,3.59,2.43,7.73-.09-.54-.08-1.09.84,2,.79,2.89.76,3.61.2,1.8a6.41,6.41,0,0,1-.25-1c-.28-.93-.64-2.14-.39-1l.17.36c.34,1.44,1.45,5.4,1.1,4.49.66,2.16.35.91-.07-.71.95,3.71,1.62,5.77,2.63,9.58-.14-.61-.23-1.19-.06-.58,1.49,5.59.8,2.42,1.88,6.19.51,2.17-.41-.72.71,3.07.56,2.35,0,.54-.32-.38,1,3.45,1.67,6.51,2.19,8.5l-.54-1.81c.32,1.08.56,2,.8,2.89l-.16-1.07a17.49,17.49,0,0,1,.46,2c.37,1.08,0-.9.65,1.27.33,1.45,1.24,4.34,1.22,4.88-1.16-4.52,0,.54-1.07-3.27.22.73.46,1.63.73,2.71,0,.17-.07-.14-.16-.43,1,4.34.7,1.93,1.9,6.4-.24-.54.12,1.08.33,1.8-.48-1.8-.09-.9.42.74.69,2.88.86,3.1,1.25,4.61l-.42-1.72c.24.55.6,2,1.15,4,0,.19-.52-1.81-.36-1.09.72,2.19,1.14,5.07,2,8.14.32,1.45-.12.18.16,1.45,1,3.45.86,3.79,1.9,7.42-.16-1.08-.24-1.26.54,1.28l-1.63-6,1.16,3.81c-.46-1.81-1.06-3.8-1.32-4.89.57,1.81.49,1.63.36.74.47,2.52,1.38,4.88,2,7.78l-.31,0c1,4.35,2.07,7.63,3.41,13.26l-.4-1.82c.3.73.88,3.46,1.38,5.26-.14-.14.11,1,.25,1.79.05-.11,1,4.1,1.34,4.56l.5,2.54c1.08,4.54,1.54,5.1,2.57,9.47-.42-1.29,0,.71-.79-2.19a22.08,22.08,0,0,0,.73,2.77c.14.86,1.11,4,1.34,5.36a17.68,17.68,0,0,1,.73,2.42c0,.18-.05,0-.05,0s.69,2.54.45,1.09c.8,4.55,3.07,12.52,3.73,16.49l2.43,9.88a1.4,1.4,0,0,1-.17-.55c.86,4,.86,2.39,1.84,6.94.39,2.35-.66-2.39-.37-.93-.17.7,1.35,5.46,1.87,8.55l-.19-.73c.44,2.36,1.45,5.66,2.32,9.48,0,0-.07-.18,0,0,.77,2.56,2,7.48,2.88,11.14-.39-1.11-.45-1.65-.42-.93.41,1.64.09-.52.9,2.75.18,1.08.67,3.46.61,3.81l-.73-3.1c.2,1.63.94,4,1.28,5.65l-.12-.19c1.12,4.73,1.33,4.76,2.5,9.86l-.07-.54c.84,2.74.44,2.36,1.22,5.11V505c.47,1.83,1.68,6.4,2.47,9.69-.57-1.84-1.54-5.68-2.18-8.05.42,1.83,1.45,6.19,1.77,7.12-.19-.73-.45-1.64-.59-2.38q1,3.31,2.25,8.77c-.52-.56,2.09,9.49,2.41,12.19,1.62,6.39,2.88,12.76,4.63,20.24-.32-2.72.51,2.19.7,1.66.42,1.74.57,2.4.59,2.56l1,5.33c.2,1.27-.45-1.64-.48-1.47.86,3.83.25,1.63.75,4.18,0-.54.46,1.29.92,3.48l-.57-3.1c1.39,5.3.82,4.67,2.22,10l-.49-1.68c.7,2.75,2.36,10.18,3.23,12.83.08.5.15,1.16-.16,0,1.49,6.6,3.68,14.61,4.74,19.77l-.19-.48c.31,1.22.64,2.11.93,3.66,0-.07-.19-.48-.06.1s.89,3.23,1.23,4.87l-.41-1.37c1.42,6.45,2.51,9.82,3.86,15.19-.22,0,.92,5.11,1.49,7.64l-.06-.08c1.77,7.48,3.2,12.66,5,19.55.82,4.35,3.46,14.57,5,21.51-.22-1.07.2.13.53,1.35.37,1.62,1.27,4.43,1,4.22l-.14-.58c.12,1.27,1,4.58,1.65,7.18l.36.36c1.33,6.88,4.59,17.75,5.24,21.52.47,1.63,1,3.64,1.5,5.25l-.16,0c1.14,4.54,1.71,6.8,3.19,12.39l-.39-1.11c.81,3.16,1.41,3.88,2.2,6.79l0,.92c1.48,5.5,2.8,11.11,4.44,16.49a3.9,3.9,0,0,1-.4-1.11c.69,2.59,2.55,10,2.58,9-.18.11,1.56,5.66,2.46,8.6l-.26-.43c.87,2.45.94,2.52,2,6,.22.84.1.76-.17-.35.7,2.78.72,2.11,1.58,5.47l-.43-1.22a38.26,38.26,0,0,0,1.3,4.13,53.08,53.08,0,0,1,1.47,5.84,25.42,25.42,0,0,1,1.19,3.56c0,.23-.19-.36-.29-.67,1.29,4.76,2.2,7,3,10.27a2,2,0,0,0,.08.57l-1.87-6.49c-.13,0,.74,3.07-.14.71.81,2.4,2.22,6.51,3,9.48a3.77,3.77,0,0,1,.07.4l-.1-.3c.18.68.37,1.29.56,1.86l.68,2.46c0,.38,1,3.49,1.39,5,.1-.17.68,1.81.23-.07a11.05,11.05,0,0,1-.4-1.29l-.2-.64,0,.1c-.29-1-.67-2.28-1.11-3.75a39.11,39.11,0,0,1,1.26,4.1c.31.75.64,1.58.83,2,.45,2.12,1.56,6.12,1.61,6.71,1.48,4.58,3.37,10.82,4.5,13.63a11.09,11.09,0,0,1,.5,2c-.26-.75-.53-1.65-.69-2,.86,2.6,2.39,7.74,2.79,8.3,1,3.31-.76-1.79.72,2.71l-.25-.59c2.58,9,5.06,14.27,7.89,24.21-.2-.69-.31-1-.33-1.18,1.81,5.6,3.79,11.34,5.75,17.05s3.89,11.43,5.77,16.93c1.06,3.13,1.29,3.42,2.05,5.29l.1.73,1.32,3.18c.88,2.28,1.51,4.3,2.2,6.47a71.77,71.77,0,0,0,2.67,7.34l-.19-.78c.77,2.09,2.55,6.56,2.31,6.26a9.09,9.09,0,0,1,.61,1.47l-.05.09,2.05,5.06c1.44,4-.52-.51,1.64,5.27a51.24,51.24,0,0,0,2.27,5.21,15.57,15.57,0,0,1-.74-2.33l.78,2c.35.27,1.14,1.7-.52-3.18l-1.4-3.3-.31-1.13,1.08,2.83a30.48,30.48,0,0,0-1.47-3.74,10.84,10.84,0,0,0-.42-1.45l-1.45-3.22c-.06-.43.73,1.42-.06-.81-.68-1.51.37,1.55-.66-1a16.63,16.63,0,0,0-1.05-3.06c0-.29.15.1.45.84-.7-1.66-1.7-4.43-2.14-5.25-.26-.86-.8-2.28-1.25-3.46a6.92,6.92,0,0,1-.62-2.12c-.24-.51-1.23-2.92-1.79-4.46,1.26,2.74-2.06-5.82-1.52-5.16-1-2-2.81-7.54-4.26-11.21a8.11,8.11,0,0,1,.38.92c-.73-2.09-.88-2.72-1.31-4.08-.3-.2-1.44-3.47-2.15-5.19-.7-2.64.74,1.49.64.62-.11.18-1.66-4.43-1.49-3.51a20.71,20.71,0,0,1-.71-2.78c-.35-.27-.66-1.83-1.36-3.41a27,27,0,0,0-1.16-3.92C274.15,876,275.17,878.75,275.17,878.75Zm-24-75h0c.19.65.35,1.2.46,1.56C251.56,805,251.43,804.58,251.19,803.8Zm-1.85-6.35c.22.78.5,1.74.8,2.76,0,.23-.1,0-.29-.63A18.81,18.81,0,0,0,249.34,797.45Zm3,13.71a8.13,8.13,0,0,1-.4-1.49l.53,1.75,0,.12A2.31,2.31,0,0,1,252.33,811.16Z"/><path class="cls-1" d="M253,812.91c.05.15.07.23.13.42,0-.21-.1-.41-.14-.61s-.11-.24-.15-.35C252.92,812.56,253,812.75,253,812.91Z"/><path class="cls-1" d="M103.75,232.28l0,.13-.07-.28Z"/><polygon class="cls-1" points="225.6 709.26 225.57 709.28 225.74 709.83 225.6 709.26"/><path class="cls-1" d="M92.31,197.68a2.7,2.7,0,0,0-.13-.46S92.24,197.44,92.31,197.68Z"/><path class="cls-1" d="M86.91,182.89l-.73-2.1C86.5,181.7,86.73,182.36,86.91,182.89Z"/><path class="cls-1" d="M82.65,171.56a.73.73,0,0,0-.14-.2v0Z"/><path class="cls-1" d="M140.49,355c0,.16.08.32.12.45C140.91,356.52,140.71,355.8,140.49,355Z"/><path class="cls-1" d="M125,299.87c.2.58.38,1.15.57,1.75A7.38,7.38,0,0,0,125,299.87Z"/><path class="cls-1" d="M156.29,417h0l.09.39Z"/><path class="cls-1" d="M126.32,304.19c-.24-1-.48-1.81-.71-2.57C125.82,302.43,126.08,303.38,126.32,304.19Z"/><path class="cls-1" d="M62.58,123.09l-.23-.53-.05-.06Z"/><path class="cls-1" d="M62.3,122.5l-.28-.58C62.14,122.19,62.25,122.42,62.3,122.5Z"/><path class="cls-1" d="M61.43,120.69l.59,1.23A13.25,13.25,0,0,0,61.43,120.69Z"/><path class="cls-1" d="M69,137.8l.12.15Q69,137.82,69,137.8Z"/><path class="cls-1" d="M70.84,142.28c-.43-1.07-1-2.73-1.68-4.21l-.09-.12C69.43,138.62,70.34,141.3,70.84,142.28Z"/><path class="cls-1" d="M78,161.32l-1.45-3.81c.21.68.49,1.58-.2-.14C78,162.22,76,156.34,78,161.32Z"/><path class="cls-1" d="M82.52,173.12c-.82-2-.06,0-.14,0C82.94,174.35,83.07,174.66,82.52,173.12Z"/><path class="cls-1" d="M112.36,259.48l-.19-.17C112.69,260.91,112.23,259.31,112.36,259.48Z"/><polygon class="cls-1" points="118.15 275.98 117.75 274.38 117.4 273.67 118.15 275.98"/><polygon class="cls-1" points="120.19 286.14 119.96 285.44 120.8 288.13 120.19 286.14"/><path class="cls-1" d="M159.28,434.55l0-.53C159,432.92,158.8,432.73,159.28,434.55Z"/><path class="cls-1" d="M174.61,499a28.18,28.18,0,0,0,.79,3.65C175.07,501.23,174.8,499.76,174.61,499Z"/><polygon class="cls-1" points="220.06 692.53 219.68 691.25 220.34 693.68 220.06 692.53"/></g></g></g></svg>