<svg xmlns="http://www.w3.org/2000/svg" viewBox="0 0 247.54 81.29"><defs><style>.cls-1{fill:#4d4d4d;}.cls-2{opacity:0.3;}</style></defs><g id="Layer_2" data-name="Layer 2"><g id="sketch"><g id="button"><path class="cls-1" d="M148.66,1.32c-.29.08-.13.28.66.26l.56-.32Z"/><path class="cls-1" d="M154,2.06c.93-.13,2-.39,1.41-.71-.92.3-1.14.16-2.14.51-.79,0-1.37-.14-1.24-.26-.28.08-1.22-.1-1.65.1a9.61,9.61,0,0,0,3.68.14C154.3,1.92,154,2,154,2.06Z"/><path class="cls-1" d="M229.94,12.06l-.44-.2Z"/><path class="cls-1" d="M231.67,50.42c.22-.29.28-.43.27-.46C231.75,50.24,231.6,50.47,231.67,50.42Z"/><path class="cls-1" d="M226.16,56.3l.34-.33A1.34,1.34,0,0,0,226.16,56.3Z"/><path class="cls-1" d="M229.94,12.06c.39.17.75.4,1.12.6C231.18,12.6,230.51,12.3,229.94,12.06Z"/><path class="cls-1" d="M164.6,1.55a3.54,3.54,0,0,0-.69.06h.65Z"/><path class="cls-1" d="M209.63,7.17l-.38-.07-.34.08Z"/><path class="cls-1" d="M193.66,5.12c.36,0,.52-.22.67-.32a2,2,0,0,1-.81.11S193.55,5,193.66,5.12Z"/><path class="cls-1" d="M168.18,2.86h0Z"/><path class="cls-1" d="M220.88,9.53a.31.31,0,0,0,.12.14S221,9.59,220.88,9.53Z"/><path class="cls-1" d="M129.94.4s0,0,0,0S130.06.41,129.94.4Z"/><path class="cls-1" d="M148.65,2.06h-.26a.32.32,0,0,0-.06.15Z"/><path class="cls-1" d="M214.49,63.77h.07C214.94,63.68,214.72,63.71,214.49,63.77Z"/><path class="cls-1" d="M78.43,72.38c1.53.35-2.54.16-.23.59C78,72.85,80.35,72.67,78.43,72.38Z"/><path class="cls-1" d="M165,1.61l.66,0A5.51,5.51,0,0,0,165,1.61Z"/><path class="cls-1" d="M78.2,73h0l.24,0Z"/><path class="cls-1" d="M180.51,68.87a1.21,1.21,0,0,0,.36.08S180.77,68.9,180.51,68.87Z"/><path class="cls-1" d="M205.9,65.62l-.63,0Z"/><path class="cls-1" d="M167.39,71a4.19,4.19,0,0,0-.93.09l.14,0A2.25,2.25,0,0,1,167.39,71Z"/><path class="cls-1" d="M153.64,72.43l.26,0,.44,0Z"/><path class="cls-1" d="M87.83.61a2.12,2.12,0,0,1,.65.24C88.26.65,90.29.54,87.83.61Z"/><path class="cls-1" d="M164.61,1.71a.6.6,0,0,1,.41-.1h-.46S164.51,1.68,164.61,1.71Z"/><path class="cls-1" d="M167.09,73.24c-.73.08-1.46.15-2.2.21C165.51,73.42,166.31,73.34,167.09,73.24Z"/><path class="cls-1" d="M.37,31.83l-.16-.52A2,2,0,0,0,.37,31.83Z"/><path class="cls-1" d="M158.39,74.2a7.33,7.33,0,0,0-1.25-.06,1.18,1.18,0,0,0-.25.1Z"/><path class="cls-1" d="M88.48.85Z"/><path class="cls-1" d="M103,0c-2.1,0-1,.37-1.43.58-2.5.12-1.16-.26-2-.44C98,.24,96.78.6,95.61.6c-.09-.06-.31-.08,0-.16-1.65.31-4.91.09-6.82.5a.65.65,0,0,1-.26-.09c.32.18.37.37.31.5-.94,0-1.74.27-2.1,0a1.85,1.85,0,0,0,.89-.19l-1,.13c-.9-.32,1.34-.15,1.34-.41-1.92.16-4.15.51-5.63.45C82,1,85.75,1.16,83.78.91L86.06,1C84.3.49,87.44,1,85.83.45c-3,0-3.35.27-6.35.27-.66.21.24.27-.43.48-4.23.5-3.38-.72-6.49-.13a5.7,5.7,0,0,1-3.32.61L70,1.25c-2.91.12-1.63.64-4.68.57.53-.19,2.27-.26,1.83-.28-2-.19-1.38.3-2.89.4l-.34-.32c-3.09.27-6.47.78-9.87,1.18.18-.11.75-.28-.06-.3-4.29.59-9.19,1-13.36,1.45l-1.53.55c-.37.06-.7,0-.32-.14-1.62.16,0,.2-.8.44-.91.18-1.24.06-.67-.14-2.81.74-7.94,2.13-10.95,2.67l.55-.24c-2.32.52-2.41,1.29-4.58,1.7l.39-.18a53.38,53.38,0,0,0-7.34,2.81c-2.34,1.07-4.47,2.25-6.24,3.22a13.6,13.6,0,0,1-2.24,1.92c-1,.8-1.81,1.69-1.71,2-1.12,1-1.51,1.41-2,1.93a13.38,13.38,0,0,0-2.08,3.16,4,4,0,0,0-.36,1.46c-.08.47-.07,1-.19,1.74l-.31,0a9.77,9.77,0,0,0,.11,2A5.52,5.52,0,0,0,0,29.93l.21,1.38c0-.55,0-1.18.12-1.1.08.52.13,1.11.27,1.67S.76,33,.91,33.52a8.2,8.2,0,0,1,.33,1.82,28.43,28.43,0,0,0,2.51,4.2c-.17,0-.65-.67-1-1.21,1.59,2.08,0,.58,1.47,2.44-.11-.3.25,0,.33,0A17.44,17.44,0,0,0,6,43,31.55,31.55,0,0,0,8,45.45l-.41-.15a73.33,73.33,0,0,0,8.22,7.94c-1-1-.52-1.07.38-.34l.13.55c.7.33-.83-.88.49-.07,1.1,1,.52.91-.2.46l1.46,1c0,.14-.34-.09-.5-.06.68.32,2.21,2.19,3.27,2.57l0,.13c3.15,2.38,4.7,3.29,7.39,5.06.21-.21,1.21.54,2.15.85A64.34,64.34,0,0,0,37,67.63c1.83.82.63.06,1.5.33,0,.3,2.58,1.54,1.17,1.06,1.55.72,2.57,1.16,3.71,1.6.58.19,1.17.44,1.92.64a15.41,15.41,0,0,0,2.78.6c-.5-.17-1-.35-.72-.37a10,10,0,0,1,1.22.26c.32.08.54.17.47.22h-.2c4.81.07,11,1.8,14.81,1.61h-.22l4,0c1.81.19-1.11.1.22.37,4.3-.1,6.73.64,10.27.57,2.67.9,9.65.62,13.31,1.22l-.21-.18c1-.14,1.15.15,1.85.22-.09-.14-1-.2-.43-.27,2,0,4.06.12,6.13.23l6.24.29c2.09.09,4.19.25,6.28.32l6.25.17c3,0,1.71-.88,5.53-.54l-1.08.35c3.05-.28,6.17-.29,9.28-.41s6.19-.22,9.16-.58a2.61,2.61,0,0,1-.93.24,14.59,14.59,0,0,0,4.66-.51c.93,0,.23.17.81.23,1.27,0,3.15-.51,3.84-.35.11,0-.35.11-.58.15.81-.19,3.83-.31,3-.52,2.25-.07,4.26-.5,6.06-.5,1.13-.43,3.83-.27,4.15-.74-.11.46,4-.05,5.33-.44-.45.2,1.24,0,.71.25,1.61-.21,3.07-.47,2.76-.67,3,.18,5.88-1.17,7.63-.72,4.73-.87,9.1-1.65,13.36-2.38-.09.47-4.72.73-4.47,1.17,4-.77,6.31-1.47,10.34-2,1.05-.1-.56.28-.9.4,4-.78,7.83-1.11,11.39-1.88a3.34,3.34,0,0,1-.75.23c.71-.12,1.66-.18,1.55-.37l-.68.16c-1.18-.13,2.72-1,2.82-1.21-1.11.76,3.58-.38,1.78.64.46-.11,1-.29.9-.41.7-.06.93,0,.25.24a11.93,11.93,0,0,0,2-.51l.67-.2a10.61,10.61,0,0,0,1.32-.43c0,.09-.44.32-.67.51,1.23-.59,2.22-1.33,4-2.38-.07.12.17.05-.34.38a23.55,23.55,0,0,0,3.58-3.06c1.07-1.06,2.13-2.16,3.49-3.45-.46,1.1,1-.81,1.38-.71.43-.53.86-1.05,1.27-1.59l-.67.49c1.17-1.32,2-2.68,3-3.81-.22.38-.45.76-.69,1.13.68-.88,1.33-1.76,2-2.66-.4.48-.82.94-1.24,1.4.93-1.53-.47-.12,1-1.94-.24.41,1-1.41,1.71-2h0a16.81,16.81,0,0,1,1.51-2.65c.27-.23.21.44.39.29.21-.87,2-3.63,2.14-4.77-.09.36.08.47.17.38,0-.26.07-.51.09-.76.41-.71.49-.8.58-.62,1.05-2.23-.71.54.6-2.07a4.52,4.52,0,0,1-.14.59,35.54,35.54,0,0,0,2.32-8c.25-.37.18.22.1.8s-.22,1.13.05.72a20.54,20.54,0,0,0-1.21-11.85,4.67,4.67,0,0,1,.25.68c-.32-.16-.58-.8-.94-1.64-.22-.38-.47-.81-.76-1.23a5.32,5.32,0,0,0-1.06-1.06c.36.31.65.24.52.19-1.86-1.94-4.32-3.33-7.95-4.69l.49.07A41.32,41.32,0,0,0,227,9.76c-.5,0-1.38-.33-.9,0-4.61-2.18-9.34-2.07-13.57-3.47.52.09,1.27.1.85,0l-3.75-.53c.26.27.47.22,1.22.53a10.42,10.42,0,0,1-2.49-.19c1.7.15,0-.36-.65-.62.11.09-.15.13-.1.21-1.9-.7-.4.41-3-.24l.16-.1a29,29,0,0,1-3-.21c-.41-.33,1.08,0,1.18-.19-1.52-.19-3,.1-4.39-.35.65,0,1.57.13,2.23.15A10.08,10.08,0,0,0,198,4.16l.11,0-2.56-.4.65.15c-2,.5-3.89-.27-6.49-.07,2.53-.18.43-.21.65-.49-.65-.15-1.64-.35-1.34-.4-1.24.12-2-.35-3.76-.12-.07-.11-1.3-.11-1-.33-1.58,0,.37.2.22.31C182,3,178.75,2,175.22,2.26c-3,.05-3.61.35-6.42.38-.94-.2.79-.32.79-.32a22.08,22.08,0,0,0-4.11-.19c.29-.08,0-.16-.44-.29-1.15,0-.78.3-2.3.12a4.75,4.75,0,0,1,1.17-.35c-1.37,0-2.72.2-4.13.25-.37-.18.86-.24,1.36-.34a23.64,23.64,0,0,0-4.61.31l1,.12c-.58,0-.29-.24.13-.28,1.37-.17,2,.15,2,.24l-1,0c1,.61,4,0,6,.12l-.86.38L166,2.2c.44.13.73.37-.27.39,1.44.27,1.29-.09,2.52.2.14,0,.07.06,0,.07l1.41-.06c-.28.07.23.3-.64.2,2.52.36,4.1-.12,5,.24l-.21,0c3.52,0,.35-.29,3-.53l1.72.88.37-.28c.36,0,1.07.11.93.23,1.37-.11-.22-.15.58-.29,1.72.4,4.82.21,5.17.73.65-.19-1.65-.3.22-.33.49.57,2.17,0,3.73.45-.51.22-2-.07-.43.33,1-.36,3.08.41,4.43.46.1-.35,2.93.13,5.18.26-.15.1,4.19.76,6.25,1.17l-.07.06c.46-.32,2.6,0,4.16.26-.1.2-.39.24-1.25.19l1.46.25a7.11,7.11,0,0,1,1.78.09l-.41.21A40,40,0,0,1,217,8.5c.2-.22-1.83-1.14.84-.72.07.16.11.41-.59.32a5.91,5.91,0,0,1,1.27.22h-1.1c1.11.36.63-.05,1.53.17-.06.19.64.29.47.41a9.17,9.17,0,0,0-1.13-.26,11.73,11.73,0,0,1,2.57.9c-.06-.13.07-.26.81-.07,1.89.52.58.41,1.65.82.5,0,1.66.47,1.78.2a1.59,1.59,0,0,1,.8.46c1,.22,4.46,1.56,3.5.88l-.24-.11.16,0h0a26.15,26.15,0,0,1,8.81,4.93l-.07.07,1.11,1c.36.36.64.79,1,1.17s.5.83.75,1.2.39.76.54,1.07c.16.56.2,1.36,0,1.15a8.87,8.87,0,0,1,.51,3.71c-.25-1.47-.11.52-.23-1.5,0,.48,0,.86,0,1.2s0,.64-.06.93c0,.61,0,1.22,0,2.26-.17-.72-.49,1.38-.64,2.28.18-.42.29-.85.43-1.29a18.11,18.11,0,0,1-.6,2.78c-.06-.18-.14-.37-.2-.56-.69,1.84-1.08,3.56-1.62,5.15a11.86,11.86,0,0,1-2.1,4.22c-.28,1,1.13-1.84.94-.88a26.86,26.86,0,0,1-2.55,3.51c-1.47,2-.81,2.25-2.42,4.35.29-.2.74-.28-.33,1.39-1.16,1.46-1.78,1.5-1.14.52.26-.35.42-.5.44-.46.32-.5.73-1.16.2-.65l0,.26c-.63.67-2.19,2.65-2,2.06-.79,1.14-.22.58.47-.17-1.61,1.72-2.35,2.83-4.09,4.51.31-.23.66-.39.4-.11a8.82,8.82,0,0,0-1.65,1.77,3.47,3.47,0,0,1-1,1.23c-1.14.78.09-.63-1.63,1.07-1.2.87-.44,0-.06-.49a14.79,14.79,0,0,1-4.3,3,10.64,10.64,0,0,0,.87-.67,9.46,9.46,0,0,1-1.44,1l.65-.11c-.58.3-1.05.53-1.08.43-.53.41.63.16-.48.88-.21,0-.46.15-.72.21a7.54,7.54,0,0,1-.84.19,2.64,2.64,0,0,1-1.35,0c1.44-.16,1.35-.23,1.2-.3s-.16-.08-.08-.14a4.64,4.64,0,0,1,.82-.25,6.58,6.58,0,0,1-1.61.26c-.11,0,.09-.07.27-.12-2.78.13-1.21.54-4.05.95.33-.23-.71-.23-1.17-.13,1.15-.16.59.22-.44.51a18.09,18.09,0,0,0-2.93.52l1.1-.1a11,11,0,0,1-2.52.59c-.13-.12,1.14-.27.68-.26-1.37.52-3.24.15-5.18.65-.93,0-.14-.32-.95-.28-2.17.55-2.42.11-4.72.64.71.14.82.06-.78.53l3.79-.73-2.4.71c1.15-.17,2.41-.51,3.1-.57-1.14.37-1,.29-.45.4-1.62-.12-3.09.67-4.94.69l0-.59c-2.78.13-4.82,1-8.4,1.36l1.16-.06a22,22,0,0,1-3.33.59c.08-.21-.65-.19-1.16-.24.08.14-2.6.34-2.87.77l-1.63,0c-2.88.29-3.2,1-6,1.26.81-.32-.46-.3,1.37-.68-.93.11-1.76.18-1.76.32-.55-.06-2.52.58-3.4.5a3.39,3.39,0,0,1-1.52.45c-.11,0,0-.09,0-.09s-1.61.3-.68.42c-2.92-.31-8,.94-10.5.6-2,.24-4.44.53-6.27.7.11-.07,0-.09.34-.1-2.54,0-1.51.67-4.41.66-1.5-.22,1.52-.27.59-.33-.44-.62-3.48.33-5.44.07l.47-.06c-1.5-.14-3.61.41-6,.48,0,0,.12-.07,0-.1a28.69,28.69,0,0,1-3.3.5c-1.28.12-2.65.19-3.82.26.72-.27,1.06-.15.61-.4-1,.06.31.41-1.78.52-.68-.12-2.19-.21-2.4-.48l2-.06c-1-.34-2.56.07-3.6,0L121,74c-3,.08-3.07.44-6.32.42l.34.12c-1.78.38-1.49-.23-3.26.06l-.53-.4c-1.18.12-4.11.3-6.22.33,1.2-.26,3.66-.35,5.18-.49a30.72,30.72,0,0,0-4.55.11,7.74,7.74,0,0,1,1.52,0,27,27,0,0,1-5.63.31c.44-.72-6-.41-7.67-1.09a61.67,61.67,0,0,1-6.19-.24c-2.1-.2-4.29-.43-6.67-.56,1.65.7-1.4-.07-1.14.56A7.28,7.28,0,0,1,78.21,73c-1.12-.19-2.23-.38-3.34-.6-.78-.24,1.07-.05,1-.19-2.42-.24-1-.34-2.59-.63.32.24-.86.24-2.24,0l1.93.44c-3.42,0-2.89-.75-6.33-.71l1.09-.1c-1.76,0-6.46-.53-8.22-.22-.3-.1-.7-.31.08-.28-2.09-.24-4.43-.33-6.66-.44-1.11-.05-2.19-.11-3.19-.19a8.09,8.09,0,0,1-2.54-.51l.32-.07A5.6,5.6,0,0,1,45.34,69c.06,0,.33,0,0-.16s-.69-.17-1.25-.34a10.64,10.64,0,0,1-1.63-.67l.87.2c-3.58-1.8-5.76-2.35-8.78-4,.22-.37-2.44-2.13-3.74-3.06l.08,0C27,58.34,24,56.75,20.47,54.18c-.92-1-2.67-2.53-4.51-4.22a52.72,52.72,0,0,1-5.15-5.27c.39.55-.32.16-.86-.39-.63-.81-2.06-2-1.64-2.09l.22.29c-.19-.84-1.55-2.39-2.4-3.75l-.58.06a56.93,56.93,0,0,1-2.84-6.7c-.71-2.32-.57-4.57.08-5.48a12.89,12.89,0,0,1,.9-3l.22.18a18,18,0,0,1,2-2.84,24.62,24.62,0,0,1,2.78-2.84c-.13.2-.27.39-.39.6A7.15,7.15,0,0,0,9.67,17a5,5,0,0,1,1.47-1.55l.69.07c2.92-1.83,6.28-2.9,9.38-4.4,0,.08-.09.23-.61.43C22.12,11,26.7,9.9,26,9.53c.14.34,3.48-.93,5.3-1.49l-.22.34A13.09,13.09,0,0,1,34.74,7c.53-.07.5.13-.2.19,1.76-.2,1.3-.52,3.44-.77l-.76.32A7.86,7.86,0,0,0,39.82,6a9.83,9.83,0,0,1,3.73-.25,5.12,5.12,0,0,1,2.25-.6c.16.07-.22.18-.41.24,3-.22,4.46-.89,6.58-.85.05.09.19.12.37.13-2.41.25-4.35.48-4.17.43,0,.26,2,.07.48.61a32,32,0,0,1,6.06-1.16.91.91,0,0,1,.26.06l-.19,0A8,8,0,0,0,56,4.53c.61,0,1,0,1.58-.07a15.43,15.43,0,0,0,3.22-.14c-.1-.28,1.18-.33,0-.47.16,0-.18,0-.82.11a3.32,3.32,0,0,0-.42.07l.07,0-2.42.22a7.41,7.41,0,0,1,2.64-.33c.48-.22,1-.45,1.32-.56,1.37.28,3.95.32,4.33.54,3-.36,7-.51,8.85-1.12a2.24,2.24,0,0,1,1.3.18c-.48.08-1.07.09-1.33.18,1.69-.21,5-.26,5.42-.64,2.14.1-1.19.38,1.74.22L81,2.82c5.79.41,9.38-1.2,15.8-.52a2.44,2.44,0,0,1-.76-.12c7.32.24,15.08-.4,22.29.17a11.61,11.61,0,0,0,3.53-.28l.44.31,2.15-.33c3-.23,5.24.79,9.09.36l-.49-.21c1.38.06,4.38-.06,4.14.17a1.7,1.7,0,0,1,1-.09l0,.16,3.39-.23c2.63.16-.42.63,3.42.71,1.42,0,4.06-.4,3.53-.51s-1.47-.12-1.51-.28l1.31-.06c.24-.46,1.25-.93-1.95-1.3L144.21,1l-.72-.23h1.88a5.84,5.84,0,0,0-2.5.07,2.19,2.19,0,0,0-.93-.27l-2.2.42c-.26-.19,1-.35-.48-.47-1,.19,1,.42-.72.53-1.07-.22-.75-.39-2-.23-.17-.12.09-.19.59-.24a27.63,27.63,0,0,0-3.53.26c-1.11-.27-3.77,0-3.65-.42a17.84,17.84,0,0,1-3,.34c1.88-.51-3.83-.08-3.33-.63-1.39.46-5,.16-7.47.41a1.93,1.93,0,0,1,.63-.08A22.77,22.77,0,0,1,114.1.2c-.18.39-2.33.48-3.49.72-1.7-.38,1-.46.49-.83.09.32-2.94.32-2.36.58-1.3-.23-1.12-.11-1.79-.43-.22.49-1.2.08-2.28.39-1.87-.24-.48-.46-2.54-.3C101.15.18,103,0,103,0ZM54,2.9h0l1-.11Zm-4.1.44,1.78-.19c.15.08,0,.2-.4.24C51.52,3.3,50.55,3.35,49.93,3.34Zm8.84,1.09c-.64.09-.86.05-1,0l1.12-.12.08,0A.72.72,0,0,1,58.77,4.43Z"/><path class="cls-1" d="M59.91,4l.26,0-.39,0L59.56,4Z"/><path class="cls-1" d="M229.42,11.82l.08,0a.91.91,0,0,1-.16-.1Z"/><polygon class="cls-1" points="0.15 26.83 0.23 26.83 0.25 26.43 0.15 26.83"/><path class="cls-1" d="M207.69,5.53a1,1,0,0,0-.29-.12A1.13,1.13,0,0,0,207.69,5.53Z"/><path class="cls-1" d="M198,4.16l-1.37-.24C197.2,4,197.63,4.11,198,4.16Z"/><path class="cls-1" d="M190.49,3.26a.38.38,0,0,0-.16.11h0Z"/><path class="cls-1" d="M206.69,67.4l-.29.06C205.74,67.61,206.19,67.52,206.69,67.4Z"/><path class="cls-1" d="M235,47.57c-.18.35-.35.69-.55,1C234.86,48.09,235.15,47.68,235,47.57Z"/><path class="cls-1" d="M167.33,73.21h0l-.24,0Z"/><path class="cls-1" d="M233.51,50a7.9,7.9,0,0,0,1-1.36C234.18,49,233.78,49.5,233.51,50Z"/><path class="cls-1" d="M157.89,1.34l-.36,0s0,0-.05.05Z"/><path class="cls-1" d="M157.48,1.36l-.4,0A1.07,1.07,0,0,0,157.48,1.36Z"/><path class="cls-1" d="M156.23,1.43l.85-.05A2.84,2.84,0,0,0,156.23,1.43Z"/><path class="cls-1" d="M167.85,1.81l.12-.1A.18.18,0,0,0,167.85,1.81Z"/><path class="cls-1" d="M170.88,1.92a26.63,26.63,0,0,0-2.81-.29l-.1.08C168.45,1.58,170.19,2.06,170.88,1.92Z"/><path class="cls-1" d="M183.42,3.93l-2.52-.26c.43.14,1,.33-.15.27C183.91,4.49,180.11,3.65,183.42,3.93Z"/><path class="cls-1" d="M191.23,4.74c-1.36-.09,0,.15-.08.21C192,4.94,192.23,4.93,191.23,4.74Z"/><path class="cls-1" d="M241.5,22.9l-.27-.07C241.44,23.8,241.33,22.82,241.5,22.9Z"/><path class="cls-1" d="M242.07,33.69c.14-.32.31-.64.43-1l-.12-.54C242.3,32.69,242.2,33.19,242.07,33.69Z"/><path class="cls-1" d="M238.1,39l.16-.42c-.21.53-.42,1.06-.65,1.58C237.78,39.79,238,39.4,238.1,39Z"/><path class="cls-1" d="M156.07,72l.34.28C157.11,72.12,157.23,71.76,156.07,72Z"/><path class="cls-1" d="M115,74.23a5.55,5.55,0,0,0-2.31-.11C113.64,74.15,114.56,74.27,115,74.23Z"/><polygon class="cls-1" points="4.86 36.9 5.33 37.54 4.54 36.28 4.86 36.9"/><g class="cls-2"><path class="cls-1" d="M151.78,4c-.29.09-.12.28.67.22l.55-.34Z"/><path class="cls-1" d="M157.1,4.5c.92-.18,2-.49,1.38-.78-.92.34-1.14.22-2.12.62-.79.06-1.38-.07-1.25-.2-.28.1-1.23,0-1.65.18a9.57,9.57,0,0,0,3.69,0C157.44,4.35,157.16,4.44,157.1,4.5Z"/><path class="cls-1" d="M233.5,10.69l-.46-.18A3.7,3.7,0,0,0,233.5,10.69Z"/><path class="cls-1" d="M237.14,48.92c.2-.3.26-.44.24-.47C237.21,48.73,237.07,49,237.14,48.92Z"/><path class="cls-1" d="M231.93,55.06l.32-.34A1.39,1.39,0,0,0,231.93,55.06Z"/><path class="cls-1" d="M233.5,10.69c.39.16.76.36,1.14.54C234.76,11.17,234.07,10.91,233.5,10.69Z"/><path class="cls-1" d="M167.71,3.46a6.13,6.13,0,0,0-.69.09l.65,0Z"/><path class="cls-1" d="M213,6.82l-.38,0a1.59,1.59,0,0,0-.33.09Z"/><path class="cls-1" d="M196.91,5.58c.37,0,.51-.25.65-.36a2,2,0,0,1-.8.15S196.79,5.49,196.91,5.58Z"/><path class="cls-1" d="M171.35,4.59l-.46,0Z"/><path class="cls-1" d="M224.32,8.62a.47.47,0,0,0,.12.13S224.4,8.67,224.32,8.62Z"/><path class="cls-1" d="M133,4.05s0,0,0,0S133.16,4,133,4.05Z"/><path class="cls-1" d="M151.8,4.76l-.26,0a.43.43,0,0,0,0,.16Z"/><path class="cls-1" d="M220.65,63.11h.07C221.09,63,220.88,63,220.65,63.11Z"/><path class="cls-1" d="M85.19,78.51c1.54.27-2.53.29-.2.6C84.77,79,87.12,78.7,85.19,78.51Z"/><path class="cls-1" d="M168.13,3.5h.67A4.56,4.56,0,0,0,168.13,3.5Z"/><path class="cls-1" d="M85,79.11h0l.24,0Z"/><path class="cls-1" d="M187,69.9a1.14,1.14,0,0,0,.37.06S187.23,69.92,187,69.9Z"/><path class="cls-1" d="M212.16,65.38l-.63.09A5.91,5.91,0,0,0,212.16,65.38Z"/><path class="cls-1" d="M174,72.65a4.69,4.69,0,0,0-.92.14h.15A2.13,2.13,0,0,1,174,72.65Z"/><path class="cls-1" d="M160.31,74.79l.26,0,.43-.08Z"/><path class="cls-1" d="M91,6.36a2.37,2.37,0,0,1,.66.2C91.42,6.38,93.45,6.16,91,6.36Z"/><path class="cls-1" d="M167.72,3.62a.64.64,0,0,1,.41-.12h-.46S167.63,3.59,167.72,3.62Z"/><path class="cls-1" d="M173.78,74.93c-.73.12-1.45.23-2.18.33C172.21,75.19,173,75.07,173.78,74.93Z"/><path class="cls-1" d="M5.19,41.91,5,41.39A2.88,2.88,0,0,0,5.19,41.91Z"/><path class="cls-1" d="M165.14,76.33a7.45,7.45,0,0,0-1.25,0,1.38,1.38,0,0,0-.24.11Z"/><path class="cls-1" d="M91.65,6.56Z"/><path class="cls-1" d="M106.09,5c-2.1.11-1,.42-1.4.65-2.49.25-1.17-.2-2-.34-1.56.19-2.73.6-3.9.66-.09-.06-.32-.07-.06-.16-1.63.39-4.89.33-6.79.84a.6.6,0,0,1-.26-.08c.33.17.39.35.33.49-.93.07-1.72.36-2.09.14A1.78,1.78,0,0,0,90.77,7l-1,.18c-.91-.28,1.33-.22,1.31-.47-1.91.25-4.12.71-5.59.73C85.18,7.08,88.94,7,87,6.86l2.28,0c-1.78-.41,1.38-.07-.26-.52-3,.13-3.33.43-6.32.58-.66.25.25.26-.41.51-4.2.71-3.41-.56-6.49.19a5.68,5.68,0,0,1-3.29.77l.72-.46c-2.9.27-1.59.72-4.64.8.52-.21,2.25-.38,1.81-.37-2-.09-1.36.37-2.87.54l-.35-.3c-3.07.42-6.42,1.11-9.8,1.68.17-.13.74-.32-.07-.31C53,10.74,48.14,11.38,44,12.05l-1.51.63c-.36.07-.7,0-.32-.13-1.62.25,0,.2-.78.49-.9.22-1.23.11-.68-.11-2.76.87-7.82,2.52-10.79,3.21l.53-.27c-2.29.64-2.34,1.41-4.49,1.93l.38-.2a54.12,54.12,0,0,0-7.19,3.17c-2.28,1.2-4.35,2.47-6.07,3.54a14.16,14.16,0,0,1-2.14,2c-.93.85-1.73,1.78-1.61,2.1a27.32,27.32,0,0,0-1.9,2,12.69,12.69,0,0,0-1.92,3.25,4.17,4.17,0,0,0-.29,1.48c0,.47,0,1-.1,1.74H4.81A9.68,9.68,0,0,0,5,39,5.41,5.41,0,0,0,4.73,40L5,41.39c-.08-.54,0-1.17.06-1.1.11.52.18,1.11.35,1.66s.22,1.14.4,1.62a8.33,8.33,0,0,1,.41,1.8A28.84,28.84,0,0,0,9,49.44c-.17,0-.68-.64-1.08-1.16,1.69,2,0,.59,1.59,2.37-.13-.3.25,0,.33,0a18,18,0,0,0,1.54,2.11,29,29,0,0,0,2.2,2.33L13.12,55a74,74,0,0,0,8.61,7.52c-1.06-1-.57-1,.36-.36l.16.54c.71.3-.87-.84.48-.09,1.16.91.57.89-.17.47l1.51,1c0,.14-.34-.07-.51,0,.7.29,2.33,2.08,3.4,2.4l0,.13c3.27,2.23,4.86,3,7.63,4.68.2-.22,1.24.49,2.19.75a65.18,65.18,0,0,0,6.8,3.85c1.87.73.63,0,1.52.25,0,.31,2.65,1.42,1.22,1,1.59.65,2.62,1,3.78,1.42.59.16,1.19.38,1.95.54a15,15,0,0,0,2.81.46c-.51-.14-1-.3-.74-.33a10.2,10.2,0,0,1,1.23.2c.33.06.55.14.49.2l-.21,0c4.81-.18,11,1.25,14.88.86l-.22,0,4-.16c1.82.1-1.1.16.25.36,4.28-.31,6.75.3,10.28.06,2.71.77,9.67.14,13.35.56L98,81.11c1-.18,1.15.09,1.85.13-.1-.14-1-.15-.44-.25,2-.06,4.06-.08,6.13-.08l6.25,0c2.09,0,4.19,0,6.29,0l6.25-.14c3-.1,1.67-1,5.5-.82l-1.06.4c3-.42,6.15-.6,9.24-.87s6.18-.53,9.12-1a2.54,2.54,0,0,1-.92.29,14.61,14.61,0,0,0,4.64-.74c.92-.09.23.15.81.18,1.28,0,3.12-.66,3.82-.53.12,0-.34.13-.57.18.8-.23,3.81-.51,3-.67,2.24-.18,4.23-.72,6-.81,1.1-.49,3.81-.46,4.11-1-.09.47,3.94-.24,5.3-.7-.45.22,1.24-.07.72.21,1.59-.28,3-.62,2.72-.8,3,0,5.82-1.46,7.59-1.1,4.68-1.11,9-2.1,13.22-3-.07.47-4.68,1-4.4,1.38,4-1,6.23-1.79,10.22-2.47,1-.15-.54.3-.88.45,4-1,7.77-1.5,11.28-2.46a2.48,2.48,0,0,1-.73.28c.7-.16,1.65-.27,1.53-.45l-.68.19c-1.18-.07,2.67-1.17,2.77-1.35-1.08.82,3.55-.55,1.8.55.45-.13,1-.34.88-.45.7-.1.93-.07.26.23a13.47,13.47,0,0,0,2-.61l.66-.24a9.65,9.65,0,0,0,1.3-.5c0,.09-.42.34-.65.54,1.21-.65,2.16-1.43,3.83-2.57-.06.12.18,0-.32.4a23.31,23.31,0,0,0,3.43-3.24c1-1.11,2-2.26,3.31-3.61-.41,1.11,1-.86,1.35-.79.39-.54.8-1.08,1.18-1.64l-.64.52c1.1-1.38,1.82-2.78,2.78-4-.21.39-.42.78-.64,1.15.63-.9,1.24-1.82,1.82-2.75-.37.5-.77,1-1.16,1.46.84-1.57-.47-.09.89-2-.22.42,1-1.46,1.61-2.14h0a15.87,15.87,0,0,1,1.38-2.73c.26-.25.23.43.41.27.15-.88,1.79-3.72,1.89-4.87-.07.36.1.46.18.37,0-.26,0-.51.06-.76.37-.73.46-.83.55-.65.93-2.28-.68.57.49-2.09a3.74,3.74,0,0,1-.1.59,36.05,36.05,0,0,0,1.91-8.14c.23-.38.19.22.14.8s-.17,1.14.08.71a20.43,20.43,0,0,0-1.79-11.77,5.58,5.58,0,0,1,.28.67c-.33-.15-.62-.78-1-1.59-.24-.37-.51-.79-.82-1.2a5.32,5.32,0,0,0-1.12-1c.38.29.67.2.53.16-2-1.85-4.47-3.11-8.17-4.29l.5,0a41.49,41.49,0,0,0-5.31-1.89c-.49,0-1.39-.27-.89.06-4.72-1.95-9.44-1.6-13.73-2.79.53.06,1.27,0,.85,0l-3.77-.34c.27.27.47.2,1.24.48a11.47,11.47,0,0,1-2.49-.07c1.7.06,0-.37-.69-.59.12.09-.14.14-.09.21-1.92-.6-.37.43-3-.08L208,5.3c-1,0-1.95.06-3-.06-.42-.31,1.08,0,1.17-.25-1.52-.11-3,.25-4.4-.13.65,0,1.58.06,2.23,0a10.38,10.38,0,0,0-2.77-.5h.11l-2.57-.27.65.12c-2,.59-3.9-.07-6.49.25,2.52-.3.42-.23.63-.52-.66-.12-1.65-.26-1.36-.33-1.23.18-2-.25-3.76.06-.07-.09-1.3,0-1-.27-1.59,0,.37.18.23.3-2.44.29-5.73-.57-9.24-.11-3,.2-3.59.53-6.39.7-1-.15.77-.36.77-.36a21.68,21.68,0,0,0-4.11,0c.29-.09,0-.16-.45-.26-1.16,0-.77.34-2.3.23A5,5,0,0,1,167,3.55c-1.36.11-2.7.34-4.11.46-.37-.17.85-.28,1.34-.41a24,24,0,0,0-4.58.54l1,.07c-.58,0-.3-.22.12-.28,1.35-.25,2,0,2,.14l-1,.09c1,.55,4-.22,6-.19l-.83.42L169.13,4c.44.1.74.34-.26.4,1.45.2,1.28-.15,2.53.07.14,0,.08.06-.05.08l1.41-.13c-.28.09.24.29-.63.23,2.54.23,4.09-.32,5.05,0l-.22,0c3.52-.16.34-.31,3-.68l1.77.79.35-.29c.36,0,1.08,0,1,.17,1.35-.18-.23-.13.55-.31,1.75.31,4.83,0,5.21.46.63-.21-1.67-.21.2-.33.52.55,2.17-.08,3.75.26-.5.25-2,0-.42.35,1-.41,3.1.26,4.45.24.08-.36,2.93,0,5.19,0-.15.11,4.22.55,6.3.86l-.07.06c.44-.34,2.6-.1,4.17,0-.09.21-.38.26-1.24.26l1.47.18a6.56,6.56,0,0,1,1.79,0L214,7a39.33,39.33,0,0,1,6.45.78c.19-.22-1.88-1,.81-.75.07.15.13.4-.57.34a5.87,5.87,0,0,1,1.27.16l-1.1,0c1.12.29.63-.09,1.54.08-.05.2.65.26.49.39a7.4,7.4,0,0,0-1.14-.2,11.84,11.84,0,0,1,2.61.77c-.07-.13.05-.26.8-.12,1.92.43.6.39,1.7.74.49,0,1.67.39,1.78.11a1.67,1.67,0,0,1,.82.42c1,.17,4.53,1.34,3.54.71l-.24-.1.16,0h0a26.32,26.32,0,0,1,9,4.48l-.06.08,1.16.94c.37.35.68.76,1,1.12s.55.8.82,1.16l.59,1c.19.56.27,1.35.07,1.15a8.79,8.79,0,0,1,.69,3.69c-.31-1.46-.07.51-.29-1.49,0,.47.06.85.08,1.19s0,.64,0,.94c0,.6,0,1.21.12,2.25-.2-.71-.42,1.4-.52,2.31.16-.43.24-.87.36-1.31a19.42,19.42,0,0,1-.45,2.81c-.07-.18-.16-.37-.24-.55-.59,1.87-.9,3.6-1.35,5.22a11.68,11.68,0,0,1-1.9,4.32c-.22,1.06,1.05-1.89.9-.93a26.69,26.69,0,0,1-2.37,3.64c-1.36,2.1-.7,2.29-2.2,4.47.28-.22.73-.33-.26,1.4-1.08,1.51-1.7,1.58-1.11.58.24-.37.39-.52.41-.48.3-.52.68-1.21.17-.67l0,.27c-.59.7-2.05,2.75-1.87,2.15-.73,1.19-.19.6.47-.2-1.53,1.81-2.21,3-3.87,4.72.31-.25.65-.42.39-.14a9.22,9.22,0,0,0-1.55,1.85,3.25,3.25,0,0,1-.92,1.28c-1.1.84.05-.63-1.57,1.16-1.15.92-.44,0-.09-.49a14.88,14.88,0,0,1-4.15,3.17c.29-.21.57-.47.85-.71a10.13,10.13,0,0,1-1.4,1l.65-.14c-.57.33-1,.58-1.07.48-.5.44.65.13-.43.9-.2,0-.45.18-.71.25s-.5.17-.83.23a2.64,2.64,0,0,1-1.34.1c1.43-.23,1.33-.3,1.18-.37s-.17-.07-.09-.13a7,7,0,0,1,.8-.29,6.74,6.74,0,0,1-1.59.35c-.1,0,.09-.09.27-.14-2.78.27-1.18.6-4,1.15.32-.24-.72-.2-1.18-.07,1.14-.22.61.18-.41.53a18.88,18.88,0,0,0-2.9.66l1.1-.15a10.4,10.4,0,0,1-2.49.71c-.14-.11,1.12-.32.66-.29-1.34.59-3.23.31-5.14.91-.92.06-.15-.31-1-.23-2.14.66-2.42.23-4.68.87.71.1.82,0-.76.57l3.75-.91-2.36.82c1.14-.22,2.38-.62,3.07-.72-1.12.42-1,.34-.43.42-1.63,0-3,.83-4.9.94l-.06-.59c-2.77.27-4.77,1.24-8.32,1.78l1.15-.12c-.42.32-2.17.45-3.29.75.07-.21-.66-.15-1.17-.18.09.13-2.58.47-2.83.92l-1.63,0c-2.86.43-3.15,1.13-5.91,1.55.79-.35-.48-.27,1.33-.75-.91.16-1.74.27-1.73.41-.56,0-2.5.71-3.37.67a3.36,3.36,0,0,1-1.5.53c-.12,0,0-.1,0-.1s-1.59.39-.66.46c-2.93-.16-7.9,1.34-10.45,1.13-2,.34-4.41.75-6.23,1,.11-.07,0-.1.34-.12-2.55.12-1.48.75-4.38.88-1.51-.14,1.5-.35.58-.36-.48-.6-3.46.5-5.43.35l.46-.09c-1.5-.07-3.58.59-6,.78,0,0,.11-.07,0-.1a28,28,0,0,1-3.27.67c-1.28.18-2.64.32-3.81.45.71-.31,1-.21.59-.44-1,.11.34.4-1.74.62-.69-.09-2.21-.11-2.42-.37l2-.15c-1-.29-2.54.19-3.58.2l.12-.16c-3,.23-3,.6-6.28.73l.34.1c-1.76.48-1.5-.14-3.26.23l-.55-.37c-1.16.17-4.09.5-6.19.64,1.19-.33,3.64-.54,5.15-.75a31,31,0,0,0-4.54.34A7.84,7.84,0,0,1,114,78.8a27.41,27.41,0,0,1-5.6.59c.39-.74-6-.1-7.72-.71a58.08,58.08,0,0,1-6.2.07c-2.11-.09-4.31-.21-6.69-.22,1.68.62-1.39,0-1.11.61a8,8,0,0,1-1.64,0c-1.12-.14-2.24-.27-3.36-.43-.79-.2,1.06-.1,1-.24-2.43-.12-1-.29-2.61-.51.32.23-.86.29-2.24.17l1.94.34c-3.41.22-2.92-.6-6.35-.39l1.09-.16c-1.77.07-6.48-.2-8.23.19-.31-.08-.71-.27.07-.28-2.1-.13-4.44-.1-6.67-.1-1.11,0-2.2,0-3.2,0a7.63,7.63,0,0,1-2.56-.38l.32-.08A5.91,5.91,0,0,1,52,76.76c.07,0,.34-.05,0-.17s-.7-.13-1.27-.27A11.5,11.5,0,0,1,49,75.73l.88.15c-3.66-1.62-5.87-2.06-9-3.52.2-.38-2.55-2-3.89-2.87l.08,0c-4.06-2.42-7.07-3.85-10.76-6.25-1-1-2.79-2.39-4.72-4a51.91,51.91,0,0,1-5.4-5c.41.53-.31.18-.88-.35-.67-.77-2.16-1.85-1.75-2l.24.28c-.23-.83-1.66-2.31-2.58-3.63l-.58.1a57.85,57.85,0,0,1-3.17-6.55c-.82-2.29-.8-4.55-.2-5.49a13.33,13.33,0,0,1,.75-3.05l.24.16a17.6,17.6,0,0,1,1.8-2.93,25,25,0,0,1,2.63-3c-.12.21-.25.41-.36.62a7.54,7.54,0,0,0,1.34-1.74A4.92,4.92,0,0,1,15.14,25l.69,0c2.83-2,6.13-3.2,9.15-4.86,0,.08-.08.23-.59.46,1.49-.68,6-2,5.27-2.31.15.33,3.43-1.11,5.22-1.76l-.2.35a13.1,13.1,0,0,1,3.61-1.54c.52-.09.5.1-.2.21,1.75-.3,1.28-.6,3.4-.95l-.74.36a7.83,7.83,0,0,0,2.56-.87A10,10,0,0,1,47,13.72,5.22,5.22,0,0,1,49.24,13c.16.07-.21.19-.4.26,3-.37,4.41-1.11,6.53-1.18.06.09.2.11.38.11-2.4.37-4.32.7-4.15.65,0,.25,2,0,.51.58a32.34,32.34,0,0,1,6-1.46.92.92,0,0,1,.26,0l-.19.05a6.67,6.67,0,0,0,1.19-.21c.61,0,1-.07,1.57-.15a14.55,14.55,0,0,0,3.21-.3c-.12-.27,1.16-.38-.06-.46.16,0-.18.05-.82.15-.15,0-.32.06-.41.09l.06,0-2.4.35A7.22,7.22,0,0,1,63.14,11c.47-.24,1-.49,1.29-.62,1.38.21,4,.12,4.35.32,2.94-.5,7-.85,8.79-1.56a2.23,2.23,0,0,1,1.31.12c-.49.1-1.07.14-1.33.24,1.68-.3,5-.51,5.38-.91,2.14,0-1.17.44,1.75.14l-.38.14c5.8.12,9.3-1.66,15.76-1.31a2.36,2.36,0,0,1-.77-.08c7.32-.12,15-1.15,22.27-.94a11.64,11.64,0,0,0,3.51-.45l.46.28L127.65,6c3-.37,5.28.54,9.11-.09l-.51-.18c1.38,0,4.37-.28,4.15,0a1.68,1.68,0,0,1,1-.14l0,.15,3.38-.39c2.63,0-.39.64,3.45.54,1.42-.11,4-.6,3.5-.69s-1.47,0-1.52-.21l1.3-.12c.22-.48,1.21-1-2-1.2L147.32,4l-.73-.2,1.88-.08a6.12,6.12,0,0,0-2.5.19,2.2,2.2,0,0,0-.94-.21l-2.17.52c-.27-.17,1-.4-.51-.44-1,.24,1,.37-.69.57-1.08-.18-.77-.36-2-.13-.18-.12.09-.2.58-.27a26.37,26.37,0,0,0-3.51.43c-1.13-.22-3.77.21-3.67-.23a17.69,17.69,0,0,1-3,.48c1.85-.6-3.83.12-3.36-.46-1.36.52-5,.41-7.43.79a1.55,1.55,0,0,1,.62-.12,24.46,24.46,0,0,1-2.69-.15c-.16.4-2.3.59-3.45.89-1.71-.3,1-.51.46-.85.1.31-2.93.46-2.34.7-1.3-.17-1.12-.06-1.8-.35-.2.5-1.2.15-2.26.5-1.88-.14-.51-.43-2.55-.17C104.27,5.27,106.09,5,106.09,5ZM57.35,10.33h0l1-.17ZM53.27,11,55,10.7c.16.08,0,.2-.39.26C54.86,10.86,53.89,11,53.27,11Zm8.89.64a1.89,1.89,0,0,1-1,.06l1.12-.19.08,0A.67.67,0,0,1,62.16,11.62Z"/><path class="cls-1" d="M63.27,11.1a1.5,1.5,0,0,1,.26,0l-.39,0-.22.12Z"/><path class="cls-1" d="M233,10.48l.08,0-.16-.09Z"/><polygon class="cls-1" points="4.73 36.92 4.81 36.93 4.81 36.52 4.73 36.92"/><path class="cls-1" d="M210.94,5.28a.87.87,0,0,0-.29-.1A1.6,1.6,0,0,0,210.94,5.28Z"/><path class="cls-1" d="M201.17,4.4l-1.38-.17Z"/><path class="cls-1" d="M193.65,3.88a.28.28,0,0,0-.15.11h0Z"/><path class="cls-1" d="M213,67.13l-.28.06C212.1,67.38,212.55,67.27,213,67.13Z"/><path class="cls-1" d="M240.35,45.91c-.16.35-.31.69-.49,1.05C240.21,46.43,240.48,46,240.35,45.91Z"/><path class="cls-1" d="M174,74.9h0l-.24,0Z"/><path class="cls-1" d="M239,48.36a8,8,0,0,0,.9-1.4C239.58,47.4,239.21,47.89,239,48.36Z"/><path class="cls-1" d="M161,3.58h-.36s0,0,0,0Z"/><path class="cls-1" d="M160.59,3.62l-.4,0A1.09,1.09,0,0,0,160.59,3.62Z"/><path class="cls-1" d="M159.35,3.76l.84-.09A2.38,2.38,0,0,0,159.35,3.76Z"/><path class="cls-1" d="M171,3.55l.11-.1C171,3.47,171,3.5,171,3.55Z"/><path class="cls-1" d="M174,3.51a25.36,25.36,0,0,0-2.82-.14l-.1.08C171.56,3.3,173.32,3.69,174,3.51Z"/><path class="cls-1" d="M186.62,4.9l-2.53-.14c.44.12,1,.28-.13.28C187.14,5.43,183.31,4.78,186.62,4.9Z"/><path class="cls-1" d="M194.46,5.31c-1.36,0,0,.16-.06.22C195.26,5.47,195.47,5.46,194.46,5.31Z"/><path class="cls-1" d="M245.58,20.94l-.27-.06C245.56,21.84,245.41,20.87,245.58,20.94Z"/><path class="cls-1" d="M246.69,31.68c.12-.32.27-.65.38-1l-.14-.54C246.87,30.67,246.79,31.18,246.69,31.68Z"/><path class="cls-1" d="M243,37.2l.13-.43c-.18.54-.36,1.08-.57,1.62C242.71,38,242.86,37.6,243,37.2Z"/><path class="cls-1" d="M162.71,74.21l.36.26C163.76,74.32,163.85,74,162.71,74.21Z"/><path class="cls-1" d="M121.84,78.53a5.47,5.47,0,0,0-2.32,0C120.44,78.51,121.37,78.59,121.84,78.53Z"/><polygon class="cls-1" points="9.94 46.75 10.44 47.36 9.58 46.14 9.94 46.75"/></g><path class="cls-1" d="M197.05,46.27c.12.07.27-.08.1-.35l-.4-.06Z"/><path class="cls-1" d="M196.63,44.07c-.31-.26-.76-.51-.92-.16.45.18.38.33.9.51.18.26.16.54,0,.55.12.06.15.48.41.54a1.62,1.62,0,0,0-.62-1.36C196.44,44,196.57,44.07,196.63,44.07Z"/><path class="cls-1" d="M171.78,31.91l.2-.07A1,1,0,0,0,171.78,31.91Z"/><path class="cls-1" d="M157.2,45c.09-.11.11-.18.1-.21C157.22,44.88,157.15,45,157.2,45Z"/><path class="cls-1" d="M154.61,47.06l.16-.12A.26.26,0,0,0,154.61,47.06Z"/><path class="cls-1" d="M171.78,31.91c-.18.06-.35.12-.51.19C171.3,32.21,171.54,32,171.78,31.91Z"/><path class="cls-1" d="M193.82,40.73a1,1,0,0,0,.22.19l-.17-.2Z"/><path class="cls-1" d="M180.15,29.13a.49.49,0,0,1,.17,0,.86.86,0,0,0,.14-.13C180.36,29.05,180.25,29.08,180.15,29.13Z"/><path class="cls-1" d="M186.79,31c-.13-.09-.32.13-.43.21a.48.48,0,0,1,.39,0A.39.39,0,0,0,186.79,31Z"/><path class="cls-1" d="M194,38.88l.14.13A.89.89,0,0,0,194,38.88Z"/><path class="cls-1" d="M175.25,29.9a.23.23,0,0,0-.1-.07A.15.15,0,0,0,175.25,29.9Z"/><path class="cls-1" d="M50.12,41.52l0,0S50.08,41.56,50.12,41.52Z"/><path class="cls-1" d="M44.59,46.94l0-.09-.11-.11Z"/><path class="cls-1" d="M149.92,50.7h0C150.05,50.57,150,50.63,149.92,50.7Z"/><path class="cls-1" d="M111.36,26.5c.7-.11-.78.82.23.56C111.45,27,112.18,26.24,111.36,26.5Z"/><path class="cls-1" d="M193.76,40.57l-.15-.22A1.17,1.17,0,0,0,193.76,40.57Z"/><path class="cls-1" d="M111.59,27.06h0l.1,0Z"/><path class="cls-1" d="M138.43,52.79a.33.33,0,0,0,0,.16S138.48,52.88,138.43,52.79Z"/><path class="cls-1" d="M147.36,53l-.23.08A.87.87,0,0,0,147.36,53Z"/><path class="cls-1" d="M134.71,49.49a.81.81,0,0,0-.19-.31v.06A.4.4,0,0,1,134.71,49.49Z"/><path class="cls-1" d="M132.12,44.63s0,.08,0,.12l.09.15Z"/><path class="cls-1" d="M61.18,28.81a1,1,0,0,1-.36,0C61,28.88,60.46,29.46,61.18,28.81Z"/><path class="cls-1" d="M194,40.64a.19.19,0,0,1-.19-.07l.11.15S194,40.69,194,40.64Z"/><path class="cls-1" d="M132.72,50.52c-.16-.27-.31-.55-.46-.83A9.05,9.05,0,0,0,132.72,50.52Z"/><path class="cls-1" d="M82.53,50.25l-.22-.12A.48.48,0,0,0,82.53,50.25Z"/><path class="cls-1" d="M130.9,47.26a1.69,1.69,0,0,0-.05-.55.34.34,0,0,0-.11-.07C130.79,46.85,130.84,47.06,130.9,47.26Z"/><path class="cls-1" d="M60.82,28.78Z"/><path class="cls-1" d="M57.17,33.29c.57-.61,0-.53,0-.81.61-.8.51-.15.88-.26.37-.52.46-1.1.8-1.41.07,0,.15,0,.13.1.27-.68,1.39-1.37,1.74-2.13a.19.19,0,0,1,.13,0,.71.71,0,0,1-.42-.31c.28-.25.39-.63.65-.54-.18.15-.14.23-.17.36l.24-.33c.49,0-.34.43-.17.63A7,7,0,0,1,62.52,27c.29.2-1,.92-.22.69-.27.14-.53.29-.79.45.87,0-.44.32.4.37,1-.65.93-.95,1.94-1.52.11-.29-.23-.18-.11-.48,1.26-1.16,1.52.08,2.35-.82.18-.31.15-.8,1-.82l-.15.45a1.25,1.25,0,0,0,.73-.43c.13-.15.29-.26.84-.2-.18.18-.78.23-.62.26.71.22.45-.31,1-.31l.1.34a4.54,4.54,0,0,1,3.14.87c-.12,0-.34,0-.2.23a7.45,7.45,0,0,1,2.29,4.26l.49.48c0,.13,0,.29-.14.16.1.64.19,0,.4.23s0,.51-.17.31a10.11,10.11,0,0,1,1.42,4.25l-.15-.21c.12.95.85.9.79,1.83l-.09-.16c.37,2.06,1.19,4.23,1.28,5.92.48.15.53,2.08,1.16,2,.09.63.12.87.17,1.16a4.88,4.88,0,0,0,.53,1.51c.27.43.71.42,1.16.84l-.23.21a6.27,6.27,0,0,0,.82.41l.09.59.55.31c-.19-.16-.34-.42-.25-.47A10.83,10.83,0,0,1,84,51.15a6.61,6.61,0,0,0,2.34.07c0,.13-.43.17-.75.24,1.25-.32.25.37,1.38,0-.15-.05.06-.2.08-.26a4.35,4.35,0,0,0,2.56-.69l-.07.26a15.81,15.81,0,0,0,4.06-2.86c-.51.32-.64-.06-.31-.4l.36.11c.1-.35-.45.25-.14-.36.48-.38.56,0,.36.31l.48-.59c.1.05,0,.21.06.33.08-.36,1.16-.67,1.22-1.23l.1,0c1.15-1.18,1.56-1.8,2.42-2.79-.19-.21.2-.55.28-1a23.32,23.32,0,0,0,2.29-2.21c.42-.71,0-.34.08-.72.23.12,1-.77.72-.2a32.76,32.76,0,0,0,2.08-2.81c-.2.07-.38.2-.37.06.18-.26.56-.46.62-.35l0,.08c1-1.73,3.55-2.77,4.28-4.18l0,.08,1-1.27c.58-.42-.21.42.3.2,1-1.42,2.1-1.58,3.07-2.53a2.19,2.19,0,0,0,1-.22c.38-.12.78-.33,1.2-.51a6.25,6.25,0,0,1,1.27-.41c.21,0,.41-.06.6-.07a2.53,2.53,0,0,1,.52.1l-.08-.17c.33-.18.4.06.63.13,0-.16-.35-.16-.14-.27a5.45,5.45,0,0,1,3.93,1.46A13,13,0,0,1,124,32.21c.55,1,1.14.11,1.47,1.63l-.49-.23c1.46,1.94,2,4.5,3.23,6.63-.12-.1-.22-.07-.3-.29,0,.56.69,1.77.87,1.71.12.36-.13.14-.14.4.07.54.77,1.1.66,1.44,0,.06-.13-.1-.18-.19.23.28.58,1.48.71,1.07.24.91.82,1.58,1,2.33.49.3.58,1.51,1.05,1.44-.45.16.49,1.65,1,2-.23-.1.18.52-.11.42.39.58.84,1.06,1,.81a2.86,2.86,0,0,0,1.17,1.5c.46.38.92.64,1,1.17A11.18,11.18,0,0,0,141.7,56c0,.22-.59.16-1.12.1s-1-.24-1,0a15.24,15.24,0,0,0,4.79-.19c.48,0-.23.23-.38.33a12.67,12.67,0,0,0,4.71-1.9s-.1.17-.23.26c.27-.15.65-.3.52-.46l-.23.21c-.55,0,.72-1.16.67-1.32-.1.79,1.31-.73,1.07.35.14-.15.29-.37.17-.46.27-.13.39-.12.24.18.81-.73.36-.69,1.14-1.28.06.08-.08.23-.08.39a3.89,3.89,0,0,1,1.2-1.39c0,.08.12.08-.07.24,1.06-.95,1.43-2,2.66-2.89,0,.62.47-.27.78-.06l.51-.66-.37.11c.52-.5.76-1.15,1.28-1.5l-.26.48.88-1-.63.45c.37-.65-.39-.27.34-.88-.1.16.5-.52.92-.63h0a2.25,2.25,0,0,1,.75-1c.18,0,.23.36.34.35,0-.47,1.09-1.26,1.16-1.81,0,.16.09.3.15.29l0-.38c.29-.18.35-.19.42,0,.72-.68-.56-.11.41-.81,0,.08,0,.08-.1.24.9-.77,1.48-1.74,2.34-2.41.49,0-.61.72-.13.7a28.85,28.85,0,0,1,3.21-3.48l-.24.16c-.19-.55,1-.54,1.45-1.2-.12.15,0,.38,0,.31a15.34,15.34,0,0,0,1.24-1c.43-.41.92-.85,1.52-1.34l-.08.22c.55-.24,1.38-.75,2-1,.11-.2.46-.34.17-.42a8.47,8.47,0,0,0,2.71-.88,3.78,3.78,0,0,1,2.6-.4c-.2,0-.47.15-.31.13.48-.06,1-.13,1.45-.18-.11-.24-.19-.13-.51-.3a1.48,1.48,0,0,1,1-.22c-.7.1,0,.37.25.53,0-.08.07-.15.05-.22.72.49.2-.5,1.22,0l-.08.1a3.22,3.22,0,0,1,1.23.11c.09.32-.45,0-.53.2.56.17,1.32-.15,1.73.34a6.66,6.66,0,0,0-.89-.17,2.73,2.73,0,0,0,.93.66l0,0c.28.19.58.33.85.55-.06-.06-.12-.14-.19-.2a1.48,1.48,0,0,1,1.21.25,3.91,3.91,0,0,0,1.28.61c-1.08-.22-.28.11-.52.31.17.21.42.52.28.52.52.12.5.63,1.24.81-.05.09.36.36.12.46.5.37,0-.22.13-.28,1,.41,1.31,1.87,2.54,2.64.89.84,1.3.82,2.09,1.67.09.4-.47-.06-.47-.06a4.32,4.32,0,0,0,.92,1.39c-.13,0-.13.09-.13.29.27.38.48.07.67.68a1.64,1.64,0,0,1-.57-.19c.36.41.79.79,1.16,1.24-.07.21-.4-.17-.6-.29.4.51.94,1.37,1.28,1.41l-.11-.41c.12.2-.15.22-.27.09-.45-.37-.3-.73-.24-.81l.26.32c.3-.65-.9-1.37-1.31-2.07l.54.06-.75-.52c0-.21.12-.44.4-.13-.16-.61-.4-.37-.51-.91,0-.07,0-.06.07,0l-.43-.41c.14,0,.18-.25.34.08-.39-1-1.25-1.17-1.23-1.68l.07.05c-1-1.05-.32.07-1.29-.52l.1-1.06-.33.1c-.09-.11-.28-.34-.15-.39-.54-.26,0,.16-.4.06-.27-.73-1.5-1.27-1.29-1.75-.34,0,.39.6-.28.2.16-.53-.74-.5-1.12-1.08.33-.11.73.42.36-.2-.61.16-1-.85-1.56-1-.21.29-1.14-.5-2.08-.74a8.38,8.38,0,0,0-2.49-1.06l0-.06c-.23.3-1.13.14-1.8.17,0-.22.16-.29.54-.36l-.64-.05a1.89,1.89,0,0,1-.77.23l.16-.28c-.87,0-1.68.43-2.77.47,0,.26.95.49-.06.93-.08-.12-.18-.34.09-.47a1.11,1.11,0,0,1-.5.19l.38-.34c-.5,0-.2.25-.58.33,0-.19-.31-.06-.3-.22s.35,0,.47-.13a3.58,3.58,0,0,1-1.19,0c.07.09.08.25-.21.39-.77.31-.35-.12-.85,0-.13.21-.68.31-.56.58-.22.11-.33,0-.45,0-.35.27-1.74,1-1.17,1l.11,0-.06,0h0c-1.05.94-2.52,1.42-3.53,2.38l-.06-.08a11.49,11.49,0,0,0-1.66,1.76c-.18.16-.55.24-.55.08a3.64,3.64,0,0,1-1.16,1.1c.34-.55-.27,0,.38-.53-.65.49-.9.5-1.33,1.31,0-.39-.67.19-.89.52l.54-.27a9.62,9.62,0,0,1-.86.84l-.09-.38c-1.47.89-1.6,2.61-3,3-.13.48.74-.54.67-.06a11.7,11.7,0,0,1-1.61.93c-.85.62-.32,1-1.16,1.73.18,0,.5.11,0,.77s-1,.32-.74-.09c.12-.13.2-.17.23-.14.14-.2.32-.47,0-.34l0,.15c-.35.19-1.07.94-1,.63-.32.48,0,.31.3,0-.79.57-1.06,1.07-1.84,1.69.15-.06.36-.07.24,0-1.14.91-.3.61-1,1.33-.53.26-.14-.44-.77.34-.53.31-.3-.15-.19-.38a4.64,4.64,0,0,1-1.76,1.29l.3-.37a3.58,3.58,0,0,1-.53.51h.36c-.24.15-.42.3-.48.22-.12.3.43.17.12.69-.37.13-.81.79-1.1.61,1-.62-.29-.17.44-.81a1.75,1.75,0,0,1-.54.42s0-.08,0-.14c-1,.41-.19.58-1.12,1.22,0-.22-.4-.14-.53,0,.38-.22.34.14.06.47-.69.25-.62.5-1,.65.14-.05.28-.08.42-.14,0,.23-.38.37-.81.65-.1-.11.37-.3.18-.27-.37.56-1.27.22-1.9.67-.37,0-.13-.31-.44-.31-.74.45-.89,0-1.68.27.25.18.31.17-.28.42a10.69,10.69,0,0,0,1.38-.34c-.27.17-.56.32-.86.48.44-.07.9-.26,1.16-.31-.39.3-.37.23-.11.37-.67-.25-1.19.44-1.93.17l0-.59A5.61,5.61,0,0,0,141.1,54a2.56,2.56,0,0,1-.77-.06,2.26,2.26,0,0,1-.85-.29l.36.26c-.24.13-.79-.26-1.2-.41.13-.16-.07-.35-.16-.55-.08.17-.78-.54-1.12-.31a4.6,4.6,0,0,1-.29-.59,2.57,2.57,0,0,0-1-.67,1.76,1.76,0,0,1-.95-.73c.37.12.18-.35.74.12-.22-.28-.39-.56-.5-.48,0-.22-.8-.67-.84-1-.15-.08-.35,0-.56-.38,0-.06.09,0,.09,0s-.46-.49-.46-.07c-.06-1.28-1.55-2.84-1.48-4-.39-.72-.83-1.62-1.13-2.3.07,0,.09,0,.13.1-.22-1-.77-.38-1-1.55.07-.68.39.52.36.12.55-.39-.6-1.29-.54-2.17l.1.17c0-.65-.77-1.3-1.11-2.24,0,0,.07,0,.09,0a12.67,12.67,0,0,1-1.66-2.49c.36.17.31.34.46.07-.21-.38-.32.28-.75-.46,0-.31-.16-.93,0-1.13l.38.73c.13-.53-.48-1-.64-1.36l.17,0a3.56,3.56,0,0,0-.85-1,5.5,5.5,0,0,1-.89-1.06l0,.19c-.73-.39-.17-.65-.86-1.06l.16-.43c-.18-.17-.57-.42-1-.72s-.87-.57-1.25-.8a5.86,5.86,0,0,1,2,1.08,7.16,7.16,0,0,0-.78-.76,2.38,2.38,0,0,0-.8-.47c.17.11.43.21.54.39a9.17,9.17,0,0,1-1-.42,4.41,4.41,0,0,1-.56-.3l-.63-.32c.13-.14.06-.31-.14-.49a4.48,4.48,0,0,0-.91-.46c-.37-.15-.79-.23-1.15-.36a2.31,2.31,0,0,1-.86-.37,13.8,13.8,0,0,0-5.7,1.13c.48.12.34.19.13.28s-.45.27-.26.51c-.39.26-.55.34-.61.32-.47.13-.92.31-1.4.47s.31-.36.19-.46c-.91.55-.51,0-1.18.32.25.09-.1.46-.63.76l.84-.28a2.16,2.16,0,0,1-1.12.76,1.79,1.79,0,0,0-1.1.81l.22-.45c-.49.57-2,1.86-2.17,2.73-.14,0-.38.05-.19-.22-1.3,1.21-2.26,3.2-3.37,4l0-.19c-.18.27-.15.61-.53.81,0,0,0-.19-.14-.09a3.15,3.15,0,0,1-.7,1.09l.11-.39C99.15,37.88,99,39,98.19,40.09c-.33-.29-1.29.6-1.78,1l0-.06c-1.32,1.41-1.91,2.67-3.06,4-1.09.43-2.86,2.36-4.43,2.87.25-.06.14.34-.11.49a2,2,0,0,0-.58.34c-.18.11-.32.14-.36-.05l.13,0a.91.91,0,0,0-.73-.07c-.27,0-.56.1-.82.14l0,.52c-.77-.32-1.6-.43-2.4-.79s-1.43-1-1.41-1.5a8.14,8.14,0,0,1-.9-.87l.26-.13c-.47-1-.66-1.47-1.21-2.75l.29.19c-.26-.72-1.1-.67-1.35-1.38l.34-.34c-.42-1.34-.41-2.83-1.12-4.12.06,0,.19,0,.26.24-.15-.65-.34-2.62-.85-2.24.37-.11-.32-1.47-.69-2.19l.3,0a3.14,3.14,0,0,1-1-1.41c0-.22.16-.25.17,0-.07-.75-.41-.47-.55-1.37l.28.26a1.45,1.45,0,0,0-.63-1c-.26-.41-.47-1.37-.28-1.58a1.14,1.14,0,0,1-.69-.77c.06-.1.19,0,.25.09-.45-1.27-1.24-1.53-1.61-2.4a.21.21,0,0,0,0-.23A7.86,7.86,0,0,1,75,26.68c.22-.13-.23-.9.46-.5-.54-.53-1.64-1.23-2.24-1.88a.37.37,0,0,1,0-.14l.09,0a1.44,1.44,0,0,0-.48-.32,2.82,2.82,0,0,0-.62-.47c0-.26-1-.6-1.45-.7,0,.28-.61.09-.11.45-.07,0,.09,0,.39.06a.81.81,0,0,0,.19,0h0a5.36,5.36,0,0,1,1.05.47A2.38,2.38,0,0,1,71,23.31c-.27.08-.56.23-.71.27a2.8,2.8,0,0,0-1-.62,3,3,0,0,1-.84-.35c-1.42.24-3.14.87-3.61,1.72-.29.21-.44,0-.6,0,.16-.15.39-.24.46-.36-.61.42-1.85,1.11-1.79,1.51-.83.37.23-.57-.76.18l.08-.19a5.52,5.52,0,0,0-2.44,2.1,7.45,7.45,0,0,1-2.45,2.33c.16-.1.24-.15.32-.13-2.4,1.9-4,4.75-6.24,6.73-.61.59-.48.81-.65,1.33l-.35,0-.26.9c-.55,1.14-1.9,1.28-2.44,2.84l.29,0C47.57,42,47,43,46.86,42.83c0,.07.06.27-.15.39l-.14-.08L46,44.44c-.71.81-.42-.5-1.34.78-.28.51-.56,1.63-.35,1.51s.43-.44.57-.37l-.24.49c.33.34.5.94,1.5,0l.28-.91.35-.11-.42.63c.42-.23.42-.56.49-.89a.59.59,0,0,0,.42-.17l.15-1c.21,0,.06.53.49.1.07-.46-.57.09-.28-.55.43-.23.49,0,.64-.55.14,0,.14.15.06.34.15-.45.65-1,.59-1.34.47-.22.85-1.27,1.18-1a3,3,0,0,1,.43-1.19c0,.93,1-1.22,1.29-.71,0-.74,1.07-1.73,1.49-2.66,0,.07,0,.2-.09.25a3.89,3.89,0,0,1,.9-.66c-.26-.3.22-1,.34-1.54.74-.28.09.61.5.68-.26-.18.53-1.11.18-1.1.52-.24.38-.27.8-.25-.3-.39.26-.43.32-.94.69-.4.47.16.92-.55C57.54,32.64,57.17,33.29,57.17,33.29Zm15-7.55h0l-.29-.21Zm1,1.13-.41-.53c0-.1.16-.12.25,0C73,26.32,73.14,26.64,73.21,26.87Zm-1.6-3.8c.32.08.39.19.4.27a2.58,2.58,0,0,0-.53-.2l0,0A.31.31,0,0,1,71.61,23.07Z"/><path class="cls-1" d="M71,23.21l-.13,0,.15.12.13,0Z"/><path class="cls-1" d="M172,31.83h0s.06,0,.08,0Z"/><polygon class="cls-1" points="80.8 48.87 80.85 48.82 80.7 48.73 80.8 48.87"/><path class="cls-1" d="M181,30.48a.38.38,0,0,0,.11.08S181,30.51,181,30.48Z"/><path class="cls-1" d="M184.63,31.49l.45.31Z"/><path class="cls-1" d="M187.1,33.06a.42.42,0,0,0,.12-.07h0Z"/><path class="cls-1" d="M148.44,54.58l-.11.07C148.09,54.83,148.26,54.72,148.44,54.58Z"/><path class="cls-1" d="M159.17,44.45a3.48,3.48,0,0,1-.22.43C159.14,44.71,159.29,44.57,159.17,44.45Z"/><polygon class="cls-1" points="132.78 50.61 132.79 50.61 132.72 50.52 132.78 50.61"/><path class="cls-1" d="M158.48,45.37a1.8,1.8,0,0,0,.47-.49A2.19,2.19,0,0,0,158.48,45.37Z"/><path class="cls-1" d="M195.16,43.06l.06.13h.05Z"/><path class="cls-1" d="M195.27,43.19l.1.12C195.34,43.25,195.31,43.19,195.27,43.19Z"/><path class="cls-1" d="M195.6,43.58l-.23-.27C195.43,43.41,195.49,43.55,195.6,43.58Z"/><path class="cls-1" d="M193.19,39.58l-.11,0A.15.15,0,0,0,193.19,39.58Z"/><path class="cls-1" d="M192.48,38.61a4.16,4.16,0,0,0,.51,1l.09,0C192.85,39.53,192.77,38.73,192.48,38.61Z"/><path class="cls-1" d="M190.07,33.9q.36.39.69.81c0-.21-.11-.49.24-.16C190.3,33.36,191,34.9,190.07,33.9Z"/><path class="cls-1" d="M187.6,31.71c.5.28.08-.14.14-.17C187.38,31.41,187.3,31.39,187.6,31.71Z"/><path class="cls-1" d="M166,36.07l-.13-.23C165.59,36.16,166,35.91,166,36.07Z"/><polygon class="cls-1" points="163.73 40.09 164.14 39.91 164.11 39.61 163.73 40.09"/><polygon class="cls-1" points="160.59 40.7 160.7 40.54 160.27 41.12 160.59 40.7"/><path class="cls-1" d="M132.76,45.43l-.23.24C132.7,45.91,133,45.81,132.76,45.43Z"/><path class="cls-1" d="M125.5,30.15a1,1,0,0,0-.5-.86C125.25,29.61,125.34,30,125.5,30.15Z"/><path class="cls-1" d="M85.69,48.92l.27-.11a1.38,1.38,0,0,1-.49,0Z"/></g></g></g></svg>