<svg xmlns="http://www.w3.org/2000/svg" viewBox="0 0 1922.51 1083"><defs><style>.cls-1{fill:#f5f0d2;}.cls-2{fill:#4d4d4d;}.cls-3{opacity:0.5;}.cls-4{fill:#3f51b5;}</style></defs><g id="Layer_2" data-name="Layer 2"><g id="sketch"><rect class="cls-1" x="1.62" y="1.49" width="1920" height="1080"/><path class="cls-2" d="M1921,1081.49c.09,3.15.28,1.37.24-7.33l-.33-6.18Z"/><path class="cls-2" d="M1921.57,1022.93c-.16-10.23-.45-22-.75-15.4.32,10.13.18,12.58.56,23.5,0,8.71-.1,15.2-.22,13.73.08,3.08-.08,13.53.13,18.21.26-11.33.27-25.69,0-40.68C1921.42,1019.08,1921.5,1022.2,1921.57,1022.93Z"/><path class="cls-2" d="M1922.08,172.05l0,5.49C1922.05,176,1922.07,174.16,1922.08,172.05Z"/><path class="cls-2" d="M1565,.84c4,0,5.69,0,5.89-.07C1567.16.79,1564.1.81,1565,.84Z"/><path class="cls-2" d="M1475,.48l5.31,0C1478.26.47,1476.23.45,1475,.48Z"/><path class="cls-2" d="M1922.08,172.05l.11-14.08C1922.08,157,1922.11,165.19,1922.08,172.05Z"/><path class="cls-2" d="M1920.77,905.6c0,2.95.06,5.4.08,7.65,0-2.42,0-4.77,0-7.19C1920.8,905.93,1920.79,905.82,1920.77,905.6Z"/><path class="cls-2" d="M1922.35,404.46v4.28c.05,1.26.09,2.44.13,3.56Z"/><path class="cls-2" d="M1922.4,582.81a56.55,56.55,0,0,0-.39-7c.11,2.28.17,5.26.19,8.8C1922.26,584.69,1922.32,584.16,1922.4,582.81Z"/><path class="cls-2" d="M1921.91,865.63l0,5C1921.93,869.34,1921.92,867.14,1921.91,865.63Z"/><path class="cls-2" d="M1922.41,276.8c0-.3.08-.94.1-1.63A11.66,11.66,0,0,0,1922.41,276.8Z"/><path class="cls-2" d="M1714.87,1080.17c-.14,0,.06,0,0,0C1715.92,1080.19,1716.24,1080.17,1714.87,1080.17Z"/><path class="cls-2" d="M1921.62,1081.56h-2.87c-.3.06-.62.11-.62.16Z"/><path class="cls-2" d="M1310.25.12h.73C1315.32.09,1312.86.1,1310.25.12Z"/><path class="cls-2" d="M.45,205.1c.26-17.13.33,27.88.61,2.09C1,209.59.62,183.74.45,205.1Z"/><path class="cls-2" d="M1920.8,901v0Z"/><path class="cls-2" d="M1.06,207.19h0l0-2.67C1.07,205.63,1.07,206.25,1.06,207.19Z"/><path class="cls-2" d="M930.7.29c.77.05,2.29.08,3.87.12C934.43.38,933.56.34,930.7.29Z"/><path class="cls-2" d="M1213.46.69l-7,0Z"/><path class="cls-2" d="M783.88.68c-3.8,0-5.1-.06-10.29,0l1.58,0C777.05.66,779.55.64,783.88.68Z"/><path class="cls-2" d="M631.07.68l2.82.06h4.84Z"/><path class="cls-2" d="M1250.47,1080.3c3.35.08,5.43.17,7,.26C1255.17,1080.36,1277.62,1080.28,1250.47,1080.3Z"/><path class="cls-2" d="M1920.92,905.52c-.07-.89-.1-2.2-.12-4.54,0,1.75,0,3.44,0,5.08C1920.86,906.51,1920.9,906.6,1920.92,905.52Z"/><path class="cls-2" d="M777.67,2.9l-24.28,0Z"/><path class="cls-2" d="M154.19,1080.34l5.57,0C157.62,1080.3,155.64,1080.31,154.19,1080.34Z"/><path class="cls-2" d="M681.34,2.9c-4.33-.1-8.93-.16-13.67-.19-1,0-2.15,0-2.82.07Z"/><path class="cls-2" d="M1257.58,1080.56h0Z"/><path class="cls-2" d="M1417.49,1079.89c-23.13,0-10.86.36-15.77.57-27.61.11-12.78-.27-22.18-.46-17.24.1-30.46.44-43.32.43-1-.07-3.46-.09-.53-.16-18.22.29-54.1,0-75.34.38-1.58,0-2.38-.06-2.77-.09,3.44.18,4,.37,3.26.51-10.37,0-19.25.23-23.15,0,6.36,0,6.89-.09,9.86-.17l-10.86.11c-4.9-.18-1.19-.21,3.74-.23l7.4,0,2.65,0a4.67,4.67,0,0,0,1-.08c-21.19.11-45.89.4-62.12.3-3.4-.34,38-.11,16.3-.41l25.13.12c-19.2-.53,15.26,0-2.38-.53l-70,.07c-7.43.19,2.45.28-5,.47-46.88.34-36.9-.85-71.37-.4-8.92.23-12.38.66-36.92.43l8.37-.39c-32,0-18.27.56-51.8.3,6-.15,25.16-.13,20.32-.18-21.72-.3-15.37.22-32.06.22l-3.46-.34-109.36.36c2.08-.1,8.55-.2-.28-.31-47.6.17-101.62,0-147.54-.24l-17.54.29c-4.08,0-7.57-.13-3.15-.19-17.9-.11-.93.19-9.53.3-10.18,0-13.45-.16-7-.25-31.58.25-90,.53-123.22.22l6.48-.09c-25.91-.12-29.23.6-53.26.33l4.6,0c-56.23-.13-118.37.14-161.27-.3-8.16.42-55.66-.19-59.27.4-32.11-.29-22.92-.4-68.14-.6-12.07,0-18,.37-32.93.43l-.36-.3-20.27.32-10.79-.37-14,.08c5.58,0,11.86.14,11,.23-10.94.07-24.27,0-34.93-.08l-13.37-.15c-3.36-.06-5.43-.11-5.56-.15l-51.76.26c1.15-.12,9.82-.16,16.67-.24-27.62.31-5-.33-30.33,0,3.39.07-1.84.19-2.41.25-4.9-.07-12.24-.12-20.61-.14H2.87c0-4.85,0-9.54,0-13.89l.21,4.08c0-38.39-.07-80.93-.1-124-.1,15.45-.47,11.9-.5-.73l.32-5.06c-.2-8.15-.12,13.2-.37-3.55,0-16.09.37-10.82.48-1.58l-.11-19.56c.09-1.15.15,3.44.27,4.63-.2-8,.33-33.77,0-45.35l.09-1.11C3.05,831.05,3,811.51,3,776.43c-.28-.69-.22-14.4-.45-24.86.09-25.78.31-54.4.29-85.46-.14-21.83-.24-6.38-.41-16.19.26-1.61.23-32.63.42-16.54,0-37.28-.05-47.62-.26-94.77-.11,5.11-.15,10.87-.24,7.89,0-8.56.11-19.47.23-18.24l0,2.25c-.39-52.92.74-122.15.21-164.3l0,2.36-.28-43.7c0-20.11.19,12.06.35-2.82-.43-47.15.06-74.49-.22-113.32.75-30-.06-106.64.43-147.21l-.18,2.34c-.18-10.48.1-12.68.14-20.4-.14,1.09-.16,11.37-.26,4.86,0-15,0-30.21-.05-45.69l226.39.47c33.31,0,18.9-.92,60.89-.49l-11.92.33c67.21-.4,137.42,0,203.21-.32-3.92.07-4,.17-10.45.17,6.95.12,19.79.12,30.93.07l14.48-.11,4.49-.07c1.08,0,1.69-.05,1.72-.07,10.25,0,2.38.17,8.69.27,13.94.14,35-.3,42.39-.06,1.26,0-3.91.07-6.47.09,9.09-.11,42.33,0,33.63-.25,24.69.14,47.23-.12,66.93,0,12.84-.31,42.27.14,46.35-.29-1.77.45,43.29.36,58.9.15-5.22.14,13.58.14,7.46.33,17.81,0,34.14-.09,31-.32,32.82.54,66-.44,84.46.26l149.51-.52c-1.71.45-52.62.05-50.58.52,45.17-.19,71.22-.57,116-.46,11.6.06-6.59.19-10.5.27,45.12-.19,87.25,0,127.4-.21-.06,0-1.17.05-2.78.07l-5.76.06c7.92,0,18.4.06,17.51-.14l-7.71,0c-12.64-.29,31.42-.62,32.84-.78-13.44.59,39.66.15,18.32.89,5.21,0,11.74-.13,10.55-.27,7.72,0,10.18.12,2.34.28,28.34-.11,18.27-.33,44-.33,0,0-1.36.09-3,.12s-3.6.08-4.92.14c13-.2,26.06-.39,47.76-.31-1.3.06,1.21.14-5.26.14,37.27,0,63.53-.52,104.41-.33-12.06.43,13.91.14,16.08.52l22-.11-8.82-.19c19.26,0,36.28-.26,52.84-.14l-14.32.15,36.09-.07-20.42-.14c19.48-.19-2.09-.47,23.54-.37-5.2,0,19.27,0,29.31.23h-.07c9.53-.12,19.33-.24,33.57-.15,3.7.12-3,.41-.57.49,9.4-.31,45.11-.09,57-.42-4,.08-4.18.28-2.87.32l7.89-.26c8.92.08,10.23.12,8.78.28,26.83.05-8.53-.47,23.32-.27-2.5,0-1.3.06-6.51.1L1824,2c8.67.38-25.68.09-15.76.41L1921.11,2c0,5.12,0,10,0,14.89l0-7.64c.53,5.68-.26,30.54,0,51.28,0-5.08-.3-6.66-.24-5.29-.08,28.09.13,57.43.3,100l-.14-5.28c-.12,16.55-.07,43.59-.13,61.47.14,5.31.11,15.54.31,9.32-.77,55.13.42,105.16-.23,154.07,0-5.84-.12-13.94-.12-9.28l.13,41.66c.23-3.3.14-5.46.32-14.21.13,5.27.24,17,.24,27.35-.15-18.73-.37.17-.5,8.26.07-1.36.15,1.42.22.73-.41,21.76.47,3.65.19,33.36l-.12-1.57c.06,11.12.22,21.37.19,33.36-.27,5-.13-11.84-.35-12.6,0,16.84.51,33.24.24,48.48,0-7.15-.1-17.44-.15-24.6-.31,16.61-.23,18.53-.28,30.87v-1.22l-.15,28.52.09-7.26c.7,21.08.13,42.92.58,71.32-.43-27.6-.25-4.56-.55-6.68-.08,7.25-.18,18.27-.26,15.14.24,13.41-.2,22.4.16,41.34-.1.85,0,14.36-.25,11.33.07,17.45.17-4.13.29-2.66.33,26.9-.41,63.22,0,101.91.19,33.36.52,39.53.68,70.49-.15,10.45-.35-8.56-.35-8.56-.15,16.86-.12,29.54,0,45.43-.08-3.22-.16.09-.27,4.94,0,12.74.36,8.52.22,25.33-.11-2.88-.29-6.58-.4-12.73.12,15,.24,29.86.36,45.41-.17,4.12-.25-9.39-.37-14.87.08,17.48.16,45.29.43,50.68l.09-11.21c0,6.37-.23,3.28-.28-1.42-.21-15,.1-21.6.2-22.45l.06,11.07c.57-11.37-.09-44.48-.06-66.77l.41,9.29-.34-22.87c.11-4.86.34-8.19.4,2.82.21-16-.15-14.15.08-27.88,0-1.51.06-.83.08.58l-.13-15.62c.09,3.06.3-2.6.24,7,.24-28-.32-45.2,0-55.75l0,2.34c-.14-38.89-.3-3.75-.66-32.93l.75-19.63-.3-3.82c0-4,0-12,.15-10.48-.2-14.94-.13,2.54-.33-6.12.28-19.32-.13-53.25.36-57.6-.23-6.94-.18,18.46-.34-2.15.52-5.88-.09-23.84.15-41.48.27,5.42.13,22.13.37,4.48-.46-10.64.1-34.35,0-49.23-.18-.35-.22-8.44-.23-19.56s0-25.28,0-37.77c.12,1.58.2-47,.33-70.21l.06.68c-.37-4.5-.3-28.46-.37-45.9.22.68.3,3.82.4,13.27v-16.4c-.12-3.87-.18-9-.22-19.63l.27,4.13c0-21.83-.32-44-.14-72.05-.25-1.58-.71,22.34-.88-7.36.14-1.1.37-2.2.43,5.57,0-2.54-.11-9.08,0-14.21l.23,11.87c.1-12.79-.2-6.69-.18-16.92.2.21.15-7.57.3-6.1,0,2.61-.08,8.92,0,12.84,0-11.53.15-25.47.3-30.08-.11,1-.27,0-.29-8.45,0-21.83.24-7.47.34-20.2-.14-5.29,0-19.21-.29-19.58,0-6.39.14-7.57.22-10-.13-11.29,0-52.77-.35-40l0,2.9c0-.54,0-1.18,0-1.84v0c-.29-37,.17-76.93,0-113.67l.1.06c0-11-.07-23.16-.1-34.58,0-5.7,0-11.21-.06-16.28s-.08-9.85-.12-13.84h0l-5.33,0-4.65-.07c-2.67-.06-4.18-.14-2.8-.2-16.76.08-18.64.19-42.86,0,16.86-.18-5.82-.16,17.27-.13-21.78-.09-26.72-.24-50.11,0,8-.26-16.4-.32-26.75-.25l15.26.18h-32.17l5.6-.34c-44.58-.4-80.4.69-114.34,0-11.79.23,24.22.16,13.67.43-20.5,0-41.87-.52-48.29-.52-28.09-.19-26.21.48-55.61.36,3.76.12,7.31.43-14.65.55-20.53-.05-25.23-.5-12.27-.6,4.92,0,7.29,0,7.08.07,6.63,0,15.33-.09,7.21-.22l-2.66.12C1565.25.55,1537,.56,1543.64.36c-15.5.12-6.63.2,4.86.26-26.32-.17-41.12,0-68.21-.12,4.3.06,8.27.2,4,.2-39.73-.14-17.49.23-44.42.28-15.3-.18,5.48-.43-21.62-.28-16.55-.12-3.51-.32,3.07-.41-24.69.23-46.14-.15-60.24-.19l13-.1-20.64.05,7.43.24-9.9,0c-2.55,0-4.13,0-4.06-.09-7.87.16,6,.4-9.6.61-10.18-.12-31,.13-34.52-.19,32,.11-3.54-.31,23.57-.36-5.23,0-11.61,0-19.27,0-1.15,0,1.08-.07,3.17-.08-30.64-.28-14.08.35-45.84.35,4-.18-7.36-.34-12.54-.3,12.8,0,6.12.29-5.62.43-20.36-.14-22.13.1-32.79.09l12.17.06c-4.13.18-14.31.15-28.5.21C1195.91.82,1210,.87,1205,.8c-15.76.32-35.61-.32-57.58-.11-10.19-.12-1-.33-9.93-.41-24.63.23-26.67-.25-52.56-.06,7.46.24,8.76.18-9.47.42L1118,.47l-27.31.35,34.8-.11c-13,.19-11.68.13-5.53.33-17.58-.36-34.84.21-55.16,0l.62-.59c-30.54-.27-54.27.3-93.93.15l12.75.1c-5.32.24-24.49,0-37.33.13,1.19-.2-6.83-.27-12.31-.39.66.15-29,0-32.64.38L884.23.53c-32-.11-36.55.56-67.33.49,9.27-.21-4.72-.35,15.9-.5H819.17l-4.35,0a11.51,11.51,0,0,0-1.7.08c-6-.13-28.5.26-38,.07-4.33.09-5.75.3-17.29.28-1.26,0,0-.1,0-.1a.58.58,0,0,1-.21,0l-.56,0-1.92,0-5.1.06c-3.25.05-5.24.12-.19.22-31.66-.61-88.49.05-116.06-.48L564.07.88A34,34,0,0,1,568,.81c-28.09-.19-17.27.56-49.24.36-16.32-.32,17-.17,6.8-.29C521.12.23,487,1,465.46.58l5.21,0c-16.44-.22-40.12.24-67,.2,0,0,1.31-.06.16-.1-18.37.33-53.15.44-79,.53,8-.25,11.74-.13,6.84-.39-11.59,0,3.39.41-19.73.49-7.52-.14-24.2-.27-26.41-.54l21.81,0c-11.18-.35-28.23,0-39.73,0L269.1.52c-33.43,0-33.89.44-69.82.41l3.72.12c-19.63.39-16.46-.22-36.05.07L161,.73l-68.61.45C105.58.89,132.76.74,149.59.57,136.74.56,106,.6,99.26.79c5.17,0,11.69-.13,16.8-.07C100.31,1,79.58,1.18,54,1.17,55.47.92,48.85.82,38.63.76L.82.69c0,7.15-.06,14-.09,20,0,5.7-.11,10.49-.21,13.7C.8,79.64.4,124.17.44,176.91c.6-18.7,0,15.4.63,12.16,0,12.28,0,17,0,18.06L.69,244.36c-.17,8.82-.13-11.68-.27-10.55,0,26.89-.26,11.28-.42,29.08.22-3.65.31,9.35.23,24.68L.51,266C.84,303.57,0,298.47.32,336.35l-.19-12c.11,19.44,0,71.72.49,90.77-.08,3.44-.24,8-.29-.57C.26,461,.86,518,.55,554.1L.4,550.58c0,8.66.29,15.08.13,25.94C.47,576,.39,573,.38,577c0,4.59.26,23,.17,34.51l-.17-9.82C.19,647.05.79,671.28.9,709.29a5.17,5.17,0,0,0-.16,1.53c0,1-.08,2.46-.12,4.26-.08,3.61-.14,8.61-.19,14.18C.37,740.38.29,753.75.24,762.65L.18,762c-.06,52.77.36,89.63.54,138.5C.24,930.86.52,1003.29.25,1052c.08-7.46.34,1.21.39,9.88v9.57c0,3.73,0,7.53.06,10.91l5.35,0H9.49c1.87,0,2.83.07,2.37.18H7.78c8.62.4,32.14.29,50.49.3l3-.53c48,.77,125.82-.28,152,.41l37.43-.26-.62.28c32.11.07,48.14.11,87.82,0l-8.09.2c22.38,0,28.26-.81,48.91-.83l6.22.42c39.05,0,78.58.37,117.17,0-.64.06-1.78.19-8.11.2,18.39,0,71.11.29,64.44-.29.11.09,2.68.14,6.81.16l16.14,0,38.43-.27-3.28.28c17.8-.36,18.37-.45,43.23-.55,5.89,0,5.16.22-2.66.15,19.63.15,15.29-.26,39.09-.12l-8.87.18c20.2,0,18.6-.07,29.72-.28,12.7-.11,38.31.07,41.3.32,2.72-.15,13.78-.36,25.68-.28,1.61.09-2.72.15-4.9.18,33.77.19,50.21-.33,73.44,0a36.9,36.9,0,0,0,3.92.16l-46.41,0c0,.26,21.67.3,4.43.66,17.4-.19,47.15-.62,68.27-.49l2.79.08-2.18,0c4.87,0,9.24,0,13.35,0l17.5.08c2.5.21,24.85.11,35.66.12-.9-.28,13.25-.23,0-.46,1.71,0-2.05,0-9.23,0l-4.61,0,.74,0H910c8.53-.14,17.45-.26,29.4-.1l15.09-.46c14.79.4,43.3.61,47.27.85,33-.16,77.73-.1,98.48-.63,9.38-.07,10.78.15,14.29.23-5.42.06-11.86,0-14.79.12,18.76-.13,55.58,0,60-.42,23.65.17-13.28.34,19.2.28l-4.38.11c63.91.59,103.9-.94,174.76-.18-4.91-.05-7.36-.07-8.37-.13,80.78.33,166.47-.31,246.18.22,22.66.1,25.11-.13,38.94-.31l4.91.3,23.65-.35c33.52-.25,58,.74,100.5.26l-5.48-.2c15.25,0,48.29-.12,45.75.11,1.56,0,5-.21,11-.11l.47.16,37.44-.27c29,.12-4.54.63,37.82.66,15.75-.06,44.85-.46,38.93-.57-6.35,0-16.23-.09-16.71-.25l14.4-.09c2.61-.46,13.69-.94-21.66-1.26l-24.64.28-7.94-.22,20.74,0c-11.76-.21-19.22,0-27.57.11-2-.12-5.44-.21-10.32-.25l-24.19.44c-2.93-.18,10.85-.36-5.38-.46-11.33.21,10.86.41-7.89.54-11.79-.21-8.35-.38-22.18-.2-2-.12,1-.2,6.47-.25-12.32.15-32.59.06-38.94.31-12.29-.26-41.58.07-40.36-.37-3.87.1-21.69.34-33,.36,20.66-.53-42.33,0-36.87-.59-15.29.47-55.24.21-82.32.47,1.51,0,4.49-.12,6.87-.09-15.24,0-19.67-.18-29.47-.27-2,.39-25.7.48-38.5.72-18.68-.38,11.35-.46,5.49-.82.94.31-32.47.31-26.12.58-14.29-.24-12.31-.11-19.67-.44-2.51.49-13.31.08-25.16.38-20.68-.24-5.33-.45-28-.31C1397.29,1080.06,1417.49,1079.89,1417.49,1079.89Zm-540.32.85h11.15Zm-45.41,0h19.7c1.59.1-.13.2-4.7.2C849.24,1080.88,838.53,1080.82,831.76,1080.74Zm96,2c-7.19,0-9.6,0-10.58-.07l12.57,0,.85,0C930,1082.6,929.18,1082.65,927.81,1082.69Z"/><path class="cls-2" d="M940.73,1082.32l3,0-4.29-.06-2.54.09Z"/><path class="cls-2" d="M1922,178.49v-1c0,.79,0,1.52,0,2C1922,178.91,1922,178.91,1922,178.49Z"/><polygon class="cls-2" points="204.76 1080.2 204.83 1080.28 208.79 1080.21 204.76 1080.2"/><path class="cls-2" d="M1921.07,428.58c0,.48,0,1.42-.07,3.28C1921,431.72,1921,430.3,1921.07,428.58Z"/><path class="cls-2" d="M1921,536.61l-.1,15.28C1921,545.27,1921,540.46,1921,536.61Z"/><path class="cls-2" d="M1920.87,619.67a16.09,16.09,0,0,0,.12,1.62v-.16Z"/><path class="cls-2" d="M1219.18,2.57H1216C1208.46,2.63,1213.57,2.61,1219.18,2.57Z"/><path class="cls-2" d="M1612.18,1.91,1599.55,2C1606.54,2.06,1612,2.07,1612.18,1.91Z"/><path class="cls-2" d="M780.33,2.9h0Z"/><path class="cls-2" d="M1581.27,2c7,0,12.85,0,18.28,0C1593.81,2,1587.06,2,1581.27,2Z"/><path class="cls-2" d="M1920.74,979.66v4c0-.07,0,.17,0,.48Z"/><path class="cls-2" d="M1920.77,984.14l0,4.44C1920.81,986.54,1920.81,984.77,1920.77,984.14Z"/><path class="cls-2" d="M1920.88,997.93l-.07-9.35C1920.81,991.82,1920.8,995.81,1920.88,997.93Z"/><path class="cls-2" d="M1920.87,869.7l-.1-1.25A6.37,6.37,0,0,0,1920.87,869.7Z"/><path class="cls-2" d="M1920.84,836.29c0,8-.22,20-.15,31.12l.08,1C1920.62,863.22,1921,843.86,1920.84,836.29Z"/><path class="cls-2" d="M1922.1,696.83l-.08,28c.11-4.89.25-11.33.28,1.41C1922.62,690.93,1922.06,733.51,1922.1,696.83Z"/><path class="cls-2" d="M1922.26,610c0,15,.16-.18.22.62C1922.38,601.09,1922.35,598.78,1922.26,610Z"/><path class="cls-2" d="M1902.74.84l1.52-.25C1892.66.63,1904.14.69,1902.74.84Z"/><polygon class="cls-2" points="1782.81 2.17 1794.09 2.33 1799.46 2.09 1782.81 2.17"/><polygon class="cls-2" points="1711.96 0.34 1717.03 0.31 1697.68 0.4 1711.96 0.34"/><path class="cls-2" d="M658.25.44l3.51.31C669.59.69,671.24.34,658.25.44Z"/><path class="cls-2" d="M203.36.76c-5-.16-17.75-.26-25.63-.11C188,.67,198.15.8,203.36.76Z"/><polygon class="cls-2" points="84.12 1082.73 74.97 1082.84 92.21 1082.75 84.12 1082.73"/><g id="lines" class="cls-3"><polygon class="cls-4" points="58.12 52.92 961.62 52.42 1865.12 52.92 961.62 53.41 58.12 52.92"/><polygon class="cls-4" points="58.12 104.34 961.62 103.84 1865.12 104.34 961.62 104.84 58.12 104.34"/><polygon class="cls-4" points="58.12 155.77 961.62 155.27 1865.12 155.77 961.62 156.27 58.12 155.77"/><polygon class="cls-4" points="58.12 207.2 961.62 206.7 1865.12 207.2 961.62 207.7 58.12 207.2"/><polygon class="cls-4" points="58.12 258.63 961.62 258.13 1865.12 258.63 961.62 259.13 58.12 258.63"/><polygon class="cls-4" points="58.12 310.06 961.62 309.56 1865.12 310.06 961.62 310.56 58.12 310.06"/><polygon class="cls-4" points="58.12 361.49 961.62 360.99 1865.12 361.49 961.62 361.99 58.12 361.49"/><polygon class="cls-4" points="58.12 412.92 961.62 412.42 1865.12 412.92 961.62 413.41 58.12 412.92"/><polygon class="cls-4" points="58.12 464.34 961.62 463.85 1865.12 464.34 961.62 464.84 58.12 464.34"/><polygon class="cls-4" points="58.12 515.77 961.62 515.27 1865.12 515.77 961.62 516.27 58.12 515.77"/><polygon class="cls-4" points="58.12 567.2 961.62 566.7 1865.12 567.2 961.62 567.7 58.12 567.2"/><polygon class="cls-4" points="58.12 618.63 961.62 618.13 1865.12 618.63 961.62 619.13 58.12 618.63"/><polygon class="cls-4" points="58.12 670.06 961.62 669.56 1865.12 670.06 961.62 670.56 58.12 670.06"/><polygon class="cls-4" points="58.12 721.49 961.62 720.99 1865.12 721.49 961.62 721.99 58.12 721.49"/><polygon class="cls-4" points="58.12 772.92 961.62 772.42 1865.12 772.92 961.62 773.41 58.12 772.92"/><polygon class="cls-4" points="58.12 824.34 961.62 823.85 1865.12 824.34 961.62 824.84 58.12 824.34"/><polygon class="cls-4" points="58.12 875.77 961.62 875.27 1865.12 875.77 961.62 876.27 58.12 875.77"/><polygon class="cls-4" points="58.12 927.2 961.62 926.7 1865.12 927.2 961.62 927.7 58.12 927.2"/><polygon class="cls-4" points="58.12 978.63 961.62 978.13 1865.12 978.63 961.62 979.13 58.12 978.63"/><polygon class="cls-4" points="58.12 1030.06 961.62 1029.56 1865.12 1030.06 961.62 1030.56 58.12 1030.06"/><polygon class="cls-4" points="58.12 1.49 961.62 0.99 1865.12 1.49 961.62 1.99 58.12 1.49"/><polygon class="cls-4" points="58.12 1081.49 961.62 1080.99 1865.12 1081.49 961.62 1081.99 58.12 1081.49"/></g></g></g></svg>