<svg xmlns="http://www.w3.org/2000/svg" viewBox="0 0 1902.72 340.63"><defs><style>.cls-1{fill:#4d4d4d;}.cls-2{opacity:0.3;}</style></defs><g id="Layer_2" data-name="Layer 2"><g id="sketch"><g id="sketch-road"><path class="cls-1" d="M7.54,85.18c-.4,1-.43,1.29-.06.57.17-.36.49-1,.93-1.8.23-.42.46-.92.77-1.46s.71-1.12,1.13-1.77a15,15,0,0,1,1.15-1.88c.42-.61.81-1.24,1.26-1.83A34.46,34.46,0,0,0,7.54,85.18Z"/><path class="cls-1" d="M39.32,59.87c3.23-1.58,6.77-3.16,9-4.14s3-1.47.75-.76L44.89,56.8l-3.24,1.49c-1,.46-2.08,1-3.29,1.6s-2.59,1.31-4.25,2.3c-2.73,1.38-5,2.73-6.61,3.58s-2.32,1.33-1.91,1c-.92.58-2.9,1.93-4.95,3.41-1,.8-2,1.6-2.93,2.37s-1.65,1.58-2.22,2.17C21.42,69.3,30.11,64,39.63,59.48,41.71,58.59,39.76,59.59,39.32,59.87Z"/><path class="cls-1" d="M632.46,6.74l-3.85,0Z"/><path class="cls-1" d="M1002.91,10.78c-2.82-.06-4,0-4.15,0C1001.38,10.79,1003.53,10.82,1002.91,10.78Z"/><path class="cls-1" d="M1066.13,12.67l-3.73-.11C1063.83,12.62,1065.26,12.68,1066.13,12.67Z"/><path class="cls-1" d="M632.46,6.74l9.9.06C643.05,6.68,637.29,6.74,632.46,6.74Z"/><path class="cls-1" d="M118.3,36.53c-2,.39-3.72.77-5.26,1.12,1.66-.35,3.28-.69,4.95-1Z"/><path class="cls-1" d="M469.18,9.56l-3,.08-2.49.2Z"/><path class="cls-1" d="M344,14.63a28.52,28.52,0,0,0,4.88-.66c-1.6.2-3.69.37-6.17.53C342.64,14.55,343,14.6,344,14.63Z"/><path class="cls-1" d="M146.19,32.87l-3.48.59Z"/><path class="cls-1" d="M558.87,7.77a10.27,10.27,0,0,0,1.14.09A5.42,5.42,0,0,0,558.87,7.77Z"/><path class="cls-1" d="M4.59,230.15c0,.1,0,0,0,0C4.56,229.41,4.52,229.19,4.59,230.15Z"/><path class="cls-1" d="M8.22,85.47l-.71,1.88c0,.22,0,.45,0,.47C7.72,87,8,86.26,8.22,85.47Z"/><path class="cls-1" d="M1181.83,16.28l-.51,0C1178.28,16.2,1180,16.25,1181.83,16.28Z"/><path class="cls-1" d="M1726.21,324.46c12,.16-19.59.48-1.46.62C1723.06,325,1741.22,324.51,1726.21,324.46Z"/><path class="cls-1" d="M121.5,36c1.67-.32,3.36-.63,5.06-.93C124.25,35.44,122.7,35.73,121.5,36Z"/><path class="cls-1" d="M1724.75,325.08Z"/><path class="cls-1" d="M1448.45,24.34c-.54-.07-1.61-.14-2.71-.21C1445.83,24.16,1446.44,24.22,1448.45,24.34Z"/><path class="cls-1" d="M1249.84,17.83l4.92.19Z"/><path class="cls-1" d="M1551.51,28.42c2.67.18,3.57.28,7.22.47l-1.11-.1C1556.3,28.74,1554.55,28.65,1551.51,28.42Z"/><path class="cls-1" d="M1658.38,38.23l-2-.31-3.38-.41Z"/><path class="cls-1" d="M232.75,338.79c-2.36-.06-3.82-.14-5-.21C229.44,338.76,213.67,339,232.75,338.79Z"/><path class="cls-1" d="M118.39,36.68c.6-.19,1.5-.39,3.11-.71l-3.51.67C117.69,36.74,117.63,36.79,118.39,36.68Z"/><path class="cls-1" d="M1556,26.48l17,1.19C1568.28,27.3,1562.09,26.86,1556,26.48Z"/><path class="cls-1" d="M1003.14,332.57l-3.91.07C1000.73,332.63,1002.12,332.61,1003.14,332.57Z"/><path class="cls-1" d="M1623.53,32c3,.42,6.23.81,9.54,1.2.71.06,1.51.13,2,.15Z"/><path class="cls-1" d="M227.75,338.57h0Z"/><path class="cls-1" d="M115.37,340.14c16.26-.12,7.64-.42,11.08-.66,19.41-.26,9,.2,15.59.34,12.12-.2,21.41-.61,30.44-.67.68.05,2.43.06.37.16,12.81-.4,38-.32,53-.81,1.11,0,1.67.05,1.95.07-2.42-.16-2.79-.35-2.3-.49,7.29-.06,13.52-.34,16.27-.12-4.47,0-4.84.13-6.93.22l7.64-.16c6.87.29-10.43.2-10.43.46,14.9-.23,32.25-.66,43.66-.65,2.39.32-26.68.32-11.45.5l-17.66,0c13.49.42-10.73,0,1.67.52,23.24-.09,26-.38,49.16-.47,5.22-.23-1.72-.27,3.5-.5,32.94-.6,25.93.65,50.15,0,6.27-.27,8.69-.72,25.94-.63l-5.88.43c22.5-.14,12.84-.66,36.4-.59-4.18.19-17.68.27-14.27.29,15.26.18,10.79-.3,22.52-.4l2.44.32,76.85-1c-1.47.12-6,.26.19.31,33.45-.43,71.42-.53,103.69-.58l12.32-.4c2.87,0,5.32.09,2.22.18,12.57,0,.65-.2,6.69-.36,7.16-.08,9.45.09,4.92.22,22.19-.43,63.21-1,86.59-.92l-4.55.12c18.2,0,20.54-.76,37.43-.62l-3.24.07c39.52-.18,83.18-.8,113.34-.6,5.73-.47,39.11-.13,41.64-.74,22.57.11,16.11.27,47.89.21,8.48,0,12.65-.47,23.14-.61l.26.3,14.24-.43,7.58.3,9.85-.15c-3.93,0-8.34-.08-7.74-.17,7.68-.13,17-.15,24.55-.12l9.39.08c2.37,0,3.82.07,3.91.11l36.37-.55c-.81.13-6.9.22-11.71.34,19.41-.47,3.53.29,21.32-.14-2.39-.05,1.28-.19,1.69-.26,8.87.12,29,0,44-.24l-2.87.23,87.15-.79c-10.86,0-8.37-.4.51-.51l3.55.3c5.73-.25-9.27-.05,2.49-.39,11.31,0,7.61.31,1.12.47l13.75-.23c.8.09-2.42.17-3.26.3,5.64-.25,23.74.14,31.88-.28l.77.09,68.65-.67c.48-.29,10.12-.3,17.46-.59,18.12-.06,38.23,0,60.06-.2,15.34-.26,4.48-.27,11.38-.49,1.13.25,22.93.05,11.62.32,26.2-.25,33.47-.32,66.6-.79-3.6-.08-7.64-.09-5.55-.2,6-.09,13.69,0,12.82.13l-1.58,0c37.19-.68,85.85.06,115.46-.71l-1.66,0,30.71-.53c14.13-.07-8.47.26,2,.34,33.12-.69,52.34-.36,79.63-.86,21.12.58,74.94-.66,103.45-.4l-1.65-.17c7.37-.23,8.91,0,14.34,0-.77-.13-8-.1-3.41-.23l11.74-.13,5.91-.05,3,0,1.83,0H1860s0-.09.06-.14l.41-1.2q1-2.92,1.94-5.87c.6-1.9,1.21-3.79,1.82-5.69,1.19-3.8,2.37-7.63,3.52-11.46,4.59-15.35,8.86-31,12.63-46.75s7-31.76,9.41-47.84,3.89-32.3,3.22-48.46a100.43,100.43,0,0,0-1.28-12.49c-.5-2.8-1-4.63-1.48-6.64s-1.14-4.18-2.31-7.62a58.54,58.54,0,0,0-2.51-6.12,38.42,38.42,0,0,0-5.07-8.13,38.15,38.15,0,0,1,5,7,40.2,40.2,0,0,0-5.14-7.63c-2-2.19-4-4.45-6.25-6.5s-4.43-4.09-6.69-6.1-4.66-3.84-7.12-5.6a198.26,198.26,0,0,0-31-18.67c-21.72-10.57-44.58-18.19-67-24,2.7.63,2.79.58,7.15,1.79-4.67-1.48-13.43-3.78-21.06-5.58-3.83-.86-7.36-1.67-10-2.19l-3.11-.61a9.41,9.41,0,0,0-1.19-.18c-7-1.55-1.6-.53-5.93-1.54-9.58-2.18-24.24-4.38-29.34-5.45-.87-.19,2.73.39,4.5.68l-16.31-2.64c-5.82-.88-10.09-1.5-7.08-.9-17.17-2.68-33-4.35-46.7-6-4.51-.33-11.89-1.14-18.52-1.8s-12.5-1.18-14-1.08c.64-.17-6.93-.93-16-1.65s-19.76-1.38-25.24-1.63c3.67.09-9.52-.75-5.21-.66-12.51-.79-24-1.29-21.81-.95-23-1.78-46.35-1.69-59.31-2.83-37.19-1.06-71.61-1.58-105-2.57,1.22-.38,37,1.06,35.54.52-31.72-.67-50-1-81.49-2.06-8.14-.33,4.63,0,7.38,0-31.7-.85-61.28-2-89.49-2.69,0,0,.82,0,1.95,0l4.05.07c-5.56-.16-12.92-.48-12.3-.25l5.42.11c8.86.58-22.09-.07-23.09.06,9.45-.3-27.86-1-12.85-1.29-3.66-.08-8.25-.12-7.41,0-5.43-.2-7.15-.33-1.64-.32-19.92-.49-12.85-.06-30.89-.6.07-.1,3.71,0,5.58-.09-9.14-.08-18.32-.16-33.56-.68.92,0-.85-.16,3.7,0-26.19-.72-44.65-.74-73.37-1.67,8.49-.21-9.76-.39-11.28-.8L1038.74,10l6.2.33c-13.53-.34-25.5-.35-37.13-.74l10.06.08-25.36-.51,14.35.47c-13.69-.12,1.46.5-16.55,0,3.66,0-13.53-.3-20.58-.66h0c-6.69,0-13.58,0-23.59-.33-2.59-.17,2.1-.37.41-.48-6.61.17-31.69-.52-40.06-.32,2.79,0,2.94-.23,2-.28L903,7.74c-6.27-.19-7.18-.24-6.16-.38-18.86-.36,6,.56-16.4,0,1.76,0,.92,0,4.58,0-22.48-.47-43.43-.49-64.08-.85C814.85,6,839,6.62,832,6.22c-29.78-.31-61.67-.21-90.5-.44l5.38.07c-4,.5-21.47-.38-36-.17,3.57,0,4.68-.28,3.72-.22-19.74-.14-40.36,0-70.27.33L648,5.64c-11.63-.08-30.64.08-43.2.13-3.73.16-10.92.21-6.55.37C559.5,5.72,524.36,7.49,490,7.67c4.11-.1,9.79-.35,6.52-.27l-29.27.87c2.32.17,3.84,0,10,.05-3.7.24-12,.55-19.22.78,13.16-.54-.12-.37-5.81-.33,1,0-1,.18-.51.24-15.3.08-2.54.52-23.42,1l1.1-.16c-7.81.33-15,.75-23.43,1.06-3.5-.13,8.31-.46,8.84-.69-11.83.47-23.32,1.43-34,1.65l17.26-.9c-11.67.18-13,.32-21.68.67l.85,0-20,.83,5.1-.18c-14.76,1.44-30.12,1.69-50,3.42,19.33-1.64,3.19-.45,4.65-.85-5.09.23-12.83.66-10.63.42-9.4.87-15.73.87-29,2.22-.6-.05-10.06.77-8,.36-12.22,1.08,2.9-.07,1.88.15-18.81,1.81-44.33,3.29-71.31,6.82-11.64,1.42-18.51,2.43-25.18,3.43s-13.11,2-23.85,3.71c-7.28.94,5.9-1.24,5.9-1.24-11.75,1.58-20.55,3-31.52,5.13,2.21-.47-.1-.17-3.46.36-4.41.84-5.86,1.2-7.67,1.64s-4,.87-9.77,2c2-.53,4.47-1.24,8.7-2.18C102.69,39.79,92.53,42.22,82,45c-2.85.56,6.33-1.9,10.07-2.87-6,1.43-13.69,3.47-20.31,5.44s-12.14,3.91-13.89,4.65l3.75-1.21,3.78-1.14c-4.27,1.36-2.27.47.87-.57,5-1.64,8.68-2.64,11.17-3.24a39.64,39.64,0,0,1,4.08-.87c-2.51.65-5,1.4-7.5,2.09,3.93-.79,11.46-2.86,20-4.93s18-4.17,25.75-5.6c-2.12.53-4.23,1.07-6.34,1.64q7.86-1.73,15.74-3.28c3.38-.49,5.73-.67-1.88.74,5.54-.89,8-1.32,10.24-1.73s4.31-.79,9.09-1.42c1.06-.13.59,0-.38.13,3.6-.62,7.21-1.18,10.83-1.77-2.12.41,1.84,0-4.83,1,19.5-2.68,31.42-4.64,38.82-5.22l-1.63.22,12.16-1.53c1.83-.25,1.94-.31,1.84-.35s-1.26-.12,8.91-1.38l13.8-.67,2.65-.56c2.81-.26,8.36-.77,7.34-.55,10.43-1.17-1.79,0,4.26-.72,13.53-1,37.27-3.27,40.36-3,4.84-.6-12.95.8,1.48-.45,4.16.22,16.7-1.32,29.09-1.86-3.78.51-15.51,1.13-3.12.57,7.43-1,24.1-1.41,34.53-2.06.24-.19,5.91-.56,13.72-1l26.5-1.32c-1.1.14,33-1.22,49.32-1.61l-.48.08c3.14-.49,20-1,32.23-1.39-.48.23-2.68.38-9.32.68l11.52-.34c2.72-.19,6.31-.36,13.78-.59l-2.89.35C492.4,9,507.94,8.32,527.67,8.13c1.11-.27-15.71-.42,5.16-1,.78.12,1.55.34-3.91.5,1.79-.06,6.38-.23,10-.23l-8.33.37c9,0,4.7-.27,11.88-.37-.13.2,5.33.05,4.3.23-1.84,0-6.27,0-9,.14,8.1-.11,17.9-.13,21.14,0-.71-.1,0-.26,5.93-.37,15.33-.21,5.25.17,14.2.16,3.71-.18,13.5-.14,13.75-.43,4.49,0,5.32.08,7.06.15,7.93-.21,37.08-.31,28.13-.56h-2l1.3,0h0c26-.45,54.06,0,79.88-.1l0,.1c15.41-.08,34.3,0,45.31-.09,4.56,0,10.76.25,8.81.36,11.78,0,13.1-.1,30.12.22-11.85.07,4.08.19-12.14,0,15.3.22,18.77.41,35.21.31-5.6.19,11.52.45,18.8.47l-10.73-.31c8.18.06,15.34.16,22.61.28l-3.94.28c31.32.82,56.5.14,80.33,1.25,8.29-.09-17-.47-9.59-.61,14.41.29,29.41,1.06,33.92,1.15,19.73.58,18.43-.12,39.08.45-2.64-.17-5.13-.55,10.31-.32,14.42.37,17.71.9,8.6.79-3.45-.07-5.12-.15-5-.18-4.65-.06-10.77-.15-5.06.11l1.87-.08c7.15.27,27,.73,22.32.81,10.9.15,4.67-.08-3.4-.33,18.48.6,28.89.69,47.91,1.29-3-.15-5.8-.36-2.79-.28,27.91.87,12.3.09,31.21.54,10.75.47-3.86.33,15.18.69,11.63.45,2.46.38-2.17.35,17.36.25,32.41,1.06,42.32,1.39l-9.14-.17c5.46.1,9.94.23,14.49.36l-5.21-.38,7,.25a23.28,23.28,0,0,1,2.85.17c5.53,0-4.22-.52,6.75-.41,7.15.33,21.79.52,24.25.91-22.49-.78,2.47.39-16.57-.13,3.68.08,8.16.21,13.54.42.8.05-.77,0-2.24,0,21.52.94,9.91-.06,32.21.64-2.83.09,5.16.5,8.81.57-9-.28-4.3-.43,4-.31,14.29.59,15.54.39,23,.65l-8.54-.34c2.9-.09,10,.16,20,.43.85.16-9.06-.2-5.5,0,11.08,0,25,1.13,40.44,1.42,7.15.35.69.35,7,.64,17.31.33,18.73.85,36.92,1.25-5.23-.4-6.15-.37,6.66-.19l-29.9-.81,19.2.28c-9-.29-19-.47-24.45-.68,9.15.1,8.21.13,3.9-.21,12.33.76,24.48.59,38.74,1.29l-.46.57c21.45,1,38.14.9,66,1.78l-9-.34c3.74-.13,17.2.43,26.23.59-.85.17,4.79.4,8.64.64-.47-.17,20.38.64,22.93.35l12.42.7c22.48,1,25.68.43,47.28,1.58-6.52-.11,3.29.51-11.18-.05l9.56.48a38.74,38.74,0,0,0,4.25.11c4.21.34,20,.86,26.62,1.49,3,.11,4.05,0,12.14.54.88.1,0,.09,0,.09a3.19,3.19,0,0,1,.54,0l1.34.06,3.59.19c2.28.12,3.67.16.15-.21,11.07,1.12,26.56,2.35,41.67,3.82s29.84,3.13,39.41,4.63c15.64,1.89,34.42,4.69,48.5,7.18a15.05,15.05,0,0,1-2.72-.39c9.69,1.8,12.69,2.25,16,2.76s7,1,18,3.55c11.13,2.76-11.68-2.39-4.72-.74,1.45.65,8.07,2,16.13,3.91s17.51,4.3,24.71,6.58c-1.17-.34-2.35-.64-3.53-1,5.52,1.66,12.27,3.63,19.84,6s15.94,5.36,24.62,9c0,0-.87-.29-.14,0a227.69,227.69,0,0,1,23.38,10.7,179.77,179.77,0,0,1,25,15.88c-4.67-3.19-6.69-4.8-4.07-2.55,3.25,2.41,2.84,2,3.24,2.13a9.55,9.55,0,0,1,1.74,1.16l2.32,1.82,1.71,1.36,2,1.81c2,1.78,5,4.76,7.49,7.57s4.55,5.38,4.77,6.15l-.52-.78-.59-.73c-.39-.49-.76-1-1.18-1.46l-2.57-2.8c-.43-.47-.85-.94-1.29-1.4l-1.36-1.33-2.72-2.67c1.32,1.44,2.89,3,4.5,4.68s3.33,3.5,4.79,5.42a42.22,42.22,0,0,1,6.31,12.17l-.48-.91a78.17,78.17,0,0,1,3.45,13.4c.61,3.64,1,6.63,1.27,9.69a158.05,158.05,0,0,1,.23,25.08l.26-2.59a118.3,118.3,0,0,1-.84,12.63c-.36,2.86-.68,5.72-1.43,12.56l-.95,4.06c-.58,4.51-1.72,12.39-3.28,21.12s-3.51,18.31-5.34,26.26c.92-4.53,2.36-11.47,3.74-18.74s2.67-14.89,3.52-20.73c-.72,4.45-2,12-3.4,19s-2.7,13.43-3.16,15.73c.77-3.55,1.63-8,2.43-11.54-1.94,10.89-5,25.13-9.74,42.48,0-1.64-3,9.67-7,22.81-2,6.57-4.2,13.61-6.29,19.73l-.39,1.14c-.06.17-.12.36-.19.51h-1.69l-4.2,0c-2.61,0-4.82-.06-6.45-.12-31.81.54-63.11.39-100.17.73,13.15.49-10.82.1-8.54.7-8.63.11-11.92.12-12.69.09l-26.17-.16c-6.2-.12,8.21-.2,7.42-.33-18.9.11-7.93-.19-20.44-.26,2.56.2-6.57.37-17.35.37l15.18.16c-26.41.54-22.84-.33-49.46.21l8.42-.26c-13.66.22-50.4.4-63.78,1-2.42-.05-5.61-.19.4-.29-32.65.19-72.68,1.11-98,1l2.47-.17c-6.09.09-10.6.37-18.23.28.4-.07,2.45-.17-.37-.16-3.22.08-16.17.39-24.25.37l6.9-.22c-31.85.06-48.87.8-75.58,1.12a21,21,0,0,0-4.07-.25c-2.54-.06-6-.09-10-.11H1334.4l.44-.06c-37.09.24-63,.87-97.33,1.31-21.32-.3-72.21.38-106.47.39,5.23,0-.85.35-7,.44-8,0-22.22.49-20.95.07H1106c-6.06-.35-22.58-.11-35.49,0l-2.12.55c-33.75-.5-88.41,1-106.84.45l-26.3.47.44-.29c-22.57.11-33.83.17-61.72.46l5.68-.25c-15.73.11-19.85,1-34.36,1.11l-4.37-.39c-27.45.23-55.23.08-82.34.68a44.59,44.59,0,0,1,5.69-.25c-12.92.1-50,.12-45.28.66a36.19,36.19,0,0,0-4.79-.12c-2.9,0-6.89.05-11.34.11l-27,.49,2.3-.3c-12.51.46-12.9.56-30.37.8-4.14,0-3.63-.2,1.87-.17-13.8,0-10.75.35-27.48.33l6.23-.22c-14.19.09-13.06.18-20.88.45-8.92.18-26.92.14-29-.09-1.91.16-9.68.43-18,.43-1.13-.09,1.92-.17,3.45-.21-23.74,0-35.29.6-51.61.46a18,18,0,0,0-2.76-.14l32.62-.22c0-.26-15.24-.18-3.12-.63-12.23.29-33.13.88-48,.87-.72,0-1.42,0-2-.07l1.54,0c-3.43,0-6.5.05-9.39.12l-12.29,0c-1.76-.2-17.47,0-25.06.07.63.28-9.32.31,0,.47-1.21,0,1.44,0,6.49-.1l3.23,0-.52,0,18.88-.17c-6,.19-12.26.36-20.66.27l-10.6.54c-10.4-.31-30.43-.36-33.22-.58-23.19.34-54.63.54-69.2,1.19-6.6.12-7.59-.09-10.05-.16,3.81-.08,8.33-.11,10.39-.2-13.18.24-39,.37-42.2.76-16.61,0,9.34-.42-13.49-.17l3.08-.14c-44.92-.23-73,1.53-122.81,1.17,3.45,0,5.17,0,5.88.08-28.38.06-57.63.38-86.78.66l-43.54.38-21.38.11h-.63s-.08,0-.1,0v-.1l-.09-.86-.29-2.65c-.19-1.76-.37-3.52-.56-5.28q-.52-5.26-1.05-10.49c-1.55-15.85-1.93-17.54-3.06-27.19l0-3.46L9.71,272.19c-1.17-11.72-1.83-21.9-2.52-32.87s-1.39-22.7-2.48-37.57l0,3.86c-.3-5.35-.79-13.82-1.1-20.73s-.48-12.27-.33-11.38c-.08-1.09-.34-3.5-.36-7.69l.15-.33c-.33-8.76-.56-17.52-.58-26.29.16-10.19.38-9.39.51-9.76a14.29,14.29,0,0,0,.29-2.94c.14-2.29.28-6.39.83-13.78a157.18,157.18,0,0,1,2.3-19.12,49.52,49.52,0,0,1,1.74-6.68c.48-1.4.63-1.88.22-.94-1.77,4.06-3,10.9-3.24,11.2a61.29,61.29,0,0,1,2.35-9.82c0-.46.24-1.28.36-1.89s.17-1-.12-.6c-.46.76-2.9,4.75-4.7,17.17-.67,5.78-1,11.56-1.24,17.35-.15,1.86-.33,3.72-.46,5.58.17-4.87.43-9.74.85-14.6a167,167,0,0,0-.91,19.41c-.16,1.39-.3,3.82-.38,7.27q.13,8.52.5,17c-.15,2.07-.49-7.63-.4,3.8.38,8,.23-7.65.67,5.53,0,8.3-.23,5.89.32,15.6-.07,1.37-.24-.69-.43-4.54.44,8.66,1.09,22.9,1.6,27.34.19,8.65,1.94,29.17,1.47,28.35.29,2.71,1.47,15.18,2.15,23.1-.85-7.22-.27.2.47,8.95S8.91,281,8.45,279.12c1.43,10.66,3.91,38.64,6.36,57.53-.16-1.06-.47-3.13-.63-4.8.3,2.83.55,5.16.76,7.17.05.41.09.81.13,1.2l0,.3h5.18l8.92.09c1.37-.41,18.06-.63,27.05-.94,13.13.27-8,.52-3.85.85-.66-.31,22.82-.5,18.35-.73,10,.16,8.65.05,13.83.33,1.76-.5,9.35-.16,17.68-.53,14.53.13,3.74.43,19.71.16C129.57,339.86,115.37,340.14,115.37,340.14Zm379.7-3.89h0l-7.83.07ZM527,336l-13.84.1c-1.12-.09.09-.2,3.3-.22C514.7,336,522.22,336,527,336Zm-67.51-1.41c5-.08,6.74,0,7.44,0l-8.83.1-.6,0C458,334.68,458.51,334.63,459.47,334.58Z"/><path class="cls-1" d="M450.4,335l-2.09,0,3,0,1.78-.1Z"/><path class="cls-1" d="M627.94,6.72h.67l-1.41,0Z"/><polygon class="cls-1" points="967.6 332.99 967.56 332.92 964.77 333.01 967.6 332.99"/><path class="cls-1" d="M452.2,8.77c-.34,0-1,0-2.31,0Z"/><path class="cls-1" d="M376.33,11.6,365.6,12Z"/><path class="cls-1" d="M318,14.6c-.73.1-.94.15-1.13.19H317Z"/><path class="cls-1" d="M1245.88,15.82l2.25.06C1253.42,16,1249.83,15.9,1245.88,15.82Z"/><path class="cls-1" d="M969.77,9l8.88,0A83.79,83.79,0,0,0,969.77,9Z"/><path class="cls-1" d="M1554.14,26.35h0l1.9.12Z"/><path class="cls-1" d="M991.49,9.33c-4.91-.17-9-.24-12.84-.29C982.68,9.15,987.43,9.28,991.49,9.33Z"/><path class="cls-1" d="M67.6,48.56c-.91.26-1.8.55-2.7.83,0,0-.1.07-.31.14C65.59,49.21,66.59,48.87,67.6,48.56Z"/><path class="cls-1" d="M64.59,49.53l-3,1C63,50.07,64.18,49.7,64.59,49.53Z"/><path class="cls-1" d="M55.39,52.68l6.23-2.18C59.45,51.22,56.78,52.12,55.39,52.68Z"/><path class="cls-1" d="M143.19,32.3l.86-.24A3.6,3.6,0,0,0,143.19,32.3Z"/><path class="cls-1" d="M166.43,28.81c-5.55.76-14,1.75-21.67,3.06l-.71.19C147.65,31.29,161.18,29.7,166.43,28.81Z"/><path class="cls-1" d="M264,19.7l-19.6,1.59c3.43-.2,8-.46-1,.37C268.19,19.83,238.34,21.82,264,19.7Z"/><path class="cls-1" d="M324.88,15.58c-10.54.69.14.15-.42.24C331.15,15.32,332.77,15.21,324.88,15.58Z"/><path class="cls-1" d="M765.59,7.09l-1.07.25C772.67,7.36,764.6,7.24,765.59,7.09Z"/><polygon class="cls-1" points="849.88 6.65 841.96 6.38 838.18 6.57 849.88 6.65"/><polygon class="cls-1" points="899.64 9.23 896.08 9.2 909.67 9.34 899.64 9.23"/><path class="cls-1" d="M1639.4,36.18l-2.41-.59C1631.51,35,1630.33,35.25,1639.4,36.18Z"/><path class="cls-1" d="M1890.57,176.45c-.27,3.46-1.06,12.39-1.55,17.9C1889.85,187.23,1890.45,180.1,1890.57,176.45Z"/><polygon class="cls-1" points="1052.36 329.79 1058.79 329.63 1046.68 329.81 1052.36 329.79"/><g class="cls-2"><path class="cls-1" d="M20.54,93c-.4,1-.43,1.29-.06.57.17-.36.49-1,.93-1.81.23-.42.46-.92.77-1.47l1.12-1.78a18.41,18.41,0,0,1,1.16-1.89c.42-.61.8-1.25,1.25-1.84A35.05,35.05,0,0,0,20.54,93Z"/><path class="cls-1" d="M52.18,67.25C55.4,65.62,58.93,64,61.11,63s3-1.51.74-.77l-4.12,1.9-3.22,1.55c-1,.48-2.08,1-3.28,1.66S48.65,68.65,47,69.66c-2.73,1.43-5,2.82-6.59,3.69s-2.3,1.36-1.9,1c-.91.6-2.88,2-4.92,3.49-1,.81-2,1.63-2.91,2.41s-1.64,1.59-2.21,2.2C34.36,77,43,71.57,52.5,66.85,54.57,65.94,52.62,67,52.18,67.25Z"/><path class="cls-1" d="M646.43,3.63l-3.87,0Z"/><path class="cls-1" d="M1018.21,2.19c-2.83,0-4,0-4.16,0C1016.68,2.22,1018.84,2.22,1018.21,2.19Z"/><path class="cls-1" d="M1081.68,3.3l-3.74-.07C1079.36,3.28,1080.8,3.31,1081.68,3.3Z"/><path class="cls-1" d="M646.43,3.63l9.93-.11C657.05,3.4,651.27,3.54,646.43,3.63Z"/><path class="cls-1" d="M131,42.47c-2,.43-3.73.82-5.27,1.21,1.67-.39,3.29-.74,5-1.1Z"/><path class="cls-1" d="M482.63,9.17l-3,.14-2.5.25Z"/><path class="cls-1" d="M357.08,16.43a28.68,28.68,0,0,0,4.88-.74c-1.59.22-3.69.43-6.17.64C355.75,16.38,356.12,16.42,357.08,16.43Z"/><path class="cls-1" d="M159,38.28l-3.48.66Z"/><path class="cls-1" d="M572.6,5.87a9.07,9.07,0,0,0,1.14.07A4.82,4.82,0,0,0,572.6,5.87Z"/><path class="cls-1" d="M2.9,237.64c0,.11,0,0,.05,0C3,236.9,3,236.68,2.9,237.64Z"/><path class="cls-1" d="M21.22,93.3l-.69,1.9c0,.22-.06.44,0,.46Z"/><path class="cls-1" d="M1197.83,5.65l-.52,0C1194.25,5.6,1196,5.63,1197.83,5.65Z"/><path class="cls-1" d="M1732.81,328c12.09.23-19.66.36-1.47.61C1729.65,328.49,1747.87,328.13,1732.81,328Z"/><path class="cls-1" d="M134.24,41.84c1.66-.36,3.36-.68,5.06-1C137,41.27,135.44,41.57,134.24,41.84Z"/><path class="cls-1" d="M1731.34,328.6h0l1.88,0Z"/><path class="cls-1" d="M1465.37,13.33c-.55-.08-1.61-.16-2.72-.25C1462.74,13.11,1463.35,13.18,1465.37,13.33Z"/><path class="cls-1" d="M1266.08,6.62l4.94.16Z"/><path class="cls-1" d="M1568.68,19.57c2.67.25,3.57.37,7.22.66l-1.1-.13C1573.47,20,1571.72,19.87,1568.68,19.57Z"/><path class="cls-1" d="M1675.62,32.26l-1.95-.36-3.38-.5Z"/><path class="cls-1" d="M234,333.14c-2.36-.08-3.83-.16-5-.25C230.64,333.09,214.8,333.19,234,333.14Z"/><path class="cls-1" d="M131.12,42.61c.61-.2,1.5-.42,3.12-.77l-3.51.74C130.43,42.69,130.37,42.74,131.12,42.61Z"/><path class="cls-1" d="M1573.24,17.74q8.52.78,17,1.63C1585.53,18.88,1579.33,18.28,1573.24,17.74Z"/><path class="cls-1" d="M1007.12,331.65l-3.93,0C1004.71,331.7,1006.1,331.69,1007.12,331.65Z"/><path class="cls-1" d="M1640.83,25c3,.5,6.23,1,9.55,1.47.7.07,1.51.17,2,.2Z"/><path class="cls-1" d="M228.94,332.89h0Z"/><path class="cls-1" d="M116.15,333.77c16.32,0,7.67-.38,11.13-.6,19.47-.14,9,.26,15.64.44,12.16-.13,21.48-.48,30.55-.48.68.06,2.44.07.37.15C186.7,333,212,333.2,227,332.8c1.12,0,1.68.06,2,.09-2.43-.18-2.8-.37-2.3-.5,7.31,0,13.57-.26,16.32,0-4.48,0-4.85.1-7,.18l7.66-.12c6.9.34-10.46.14-10.46.4,14.94-.14,32.36-.46,43.81-.38,2.4.33-26.78.16-11.49.43l-17.72-.09c13.54.51-10.77,0,1.67.53,23.32.06,26.08-.22,49.34-.17,5.24-.19-1.73-.27,3.51-.47,33.06-.4,26,.81,50.33.31,6.29-.24,8.73-.67,26-.48l-5.9.4c22.57,0,12.88-.58,36.53-.37-4.2.16-17.74.16-14.33.2,15.32.28,10.84-.23,22.61-.26l2.44.34,77.13-.51c-1.47.11-6,.22.2.32,33.57-.24,71.66-.1,104,0l12.37-.31c2.88,0,5.34.12,2.22.18,12.63.09.66-.18,6.72-.31,7.18,0,9.49.15,4.94.25,22.27-.29,63.44-.66,86.91-.39l-4.58.1c18.28.08,20.62-.64,37.57-.4l-3.25.06c39.66.05,83.48-.3,113.74.09,5.76-.44,39.26.11,41.8-.48,22.65.25,16.17.37,48.06.5,8.51,0,12.69-.39,23.22-.47l.26.31,14.3-.35,7.61.35,9.87-.1c-3.93,0-8.36-.12-7.76-.21,7.71-.08,17.11-.05,24.64,0l9.42.14c2.38.05,3.83.09,3.93.13l36.5-.32c-.81.12-6.92.17-11.76.26,19.49-.35,3.54.32,21.4,0-2.4-.07,1.29-.19,1.7-.25,8.9.17,29.15.13,44.14,0l-2.87.22,87.46-.27c-10.9-.07-8.4-.45.51-.5l3.57.32c5.75-.21-9.31-.11,2.5-.37,11.35,0,7.63.35,1.12.47l13.79-.14c.81.1-2.42.15-3.26.28,5.66-.21,23.82.28,32-.08l.77.09,68.9-.25c.48-.29,10.16-.24,17.53-.48,18.18,0,38.36.24,60.27.17,15.4-.17,4.5-.24,11.42-.42,1.13.25,23,.19,11.66.39,26.3-.09,33.59-.11,66.84-.38-3.6-.1-7.66-.14-5.56-.23,6-.05,13.73.08,12.86.21l-1.59,0c37.33-.46,86.16.58,115.88,0l-1.67,0,30.83-.33c14.18,0-8.51.2,2,.34,33.25-.49,52.53,0,79.91-.37,21.2.72,75.22-.19,103.83.24l-1.65-.18c7.39-.19,8.94.09,14.39.12-.77-.14-8-.15-3.43-.25l11.79-.06,5.93,0h5.81c.1,0,.09-.17.14-.25l.41-1.2c.65-2,1.29-3.9,1.94-5.85s1.23-3.8,1.84-5.7c1.22-3.82,2.41-7.64,3.58-11.49,4.69-15.38,9.06-31,13-46.82s7.42-31.78,10.12-47.86,4.64-32.29,4.77-48.48a122,122,0,0,0-.52-12.56c-.31-2.83-.6-4.69-1-6.74s-.77-4.27-1.52-7.81a63.93,63.93,0,0,0-5.24-15.27,50.3,50.3,0,0,1,3.65,7.8,49,49,0,0,0-3.67-8.38c-.4-.67-.75-1.35-1.18-2l-1.31-1.92a41.3,41.3,0,0,0-3-3.53,122.85,122.85,0,0,0-13.18-12.52,186.91,186.91,0,0,0-30.31-20.08,297.24,297.24,0,0,0-32.85-15C1801.53,60,1790.3,56.29,1779.14,53c2.68.71,2.78.67,7.12,2-4.65-1.61-13.35-4.23-21-6.25-3.81-1-7.33-1.89-9.92-2.51l-3.1-.7a9.66,9.66,0,0,0-1.19-.23c-7-1.77-1.59-.59-5.9-1.72-9.54-2.47-24.18-5.13-29.27-6.34-.86-.22,2.73.47,4.5.8L1704.13,35c-5.81-1-10.08-1.78-7.08-1.1-17.14-3.21-32.93-5.3-46.67-7.36-4.52-.47-11.91-1.48-18.54-2.32s-12.5-1.52-14-1.46c.65-.15-6.93-1.12-16.05-2.08s-19.79-1.91-25.29-2.28c3.69.19-9.53-1-5.21-.8-12.52-1.09-24-1.86-21.85-1.46C1526.42,13.77,1503,13.38,1490,12c-37.3-1.76-71.84-2.76-105.41-3.7,1.23-.43,37.1,1.15,35.68.65-31.85-.9-50.22-1.06-81.8-2.1-8.17-.3,4.65-.06,7.41-.06-31.82-.74-61.51-1.74-89.83-2.17,0,0,.83,0,2,0l4.06,0c-5.58-.12-13-.38-12.35-.16l5.45.08c8.9.5-22.18.09-23.18.24,9.49-.38-28-.77-12.9-1.18-3.67,0-8.28,0-7.44.11-5.45-.15-7.18-.27-1.65-.31-20-.3-12.89.06-31-.3.07-.1,3.72-.07,5.6-.15-9.18,0-18.39,0-33.69-.33.92,0-.86-.15,3.71-.07-26.29-.43-44.81-.25-73.64-.84,8.51-.31-9.81-.27-11.33-.66L1054.16,1l6.22.25c-13.58-.17-25.59,0-37.26-.27l10.09,0L1007.76.74l14.41.28c-13.75.06,1.46.48-16.61.21,3.67,0-13.59-.13-20.67-.4h.05c-6.72.07-13.64.15-23.68,0-2.61-.13,2.1-.4.4-.49C955,.6,929.85.26,921.46.57c2.79-.07,2.94-.27,2-.31L917.92.5c-6.3-.1-7.22-.14-6.19-.3-18.93-.08,6,.48-16.46.24,1.77,0,.93-.06,4.6-.09C877.31.21,856.28.5,835.55.44,829.43.08,853.66.3,846.66,0c-29.89.14-61.9.72-90.82.93h5.39c-4,.56-21.54-.05-36.17.4,3.58-.09,4.69-.36,3.73-.29-19.81.18-40.5.69-70.51,1.46L662,2.27c-11.67.11-30.74.58-43.35.84-3.74.23-10.95.39-6.56.47C573.2,3.8,538,6.17,503.47,6.93c4.12-.17,9.82-.52,6.54-.38L480.66,7.92c2.33.13,3.85,0,10-.12-3.71.29-12,.77-19.27,1.1,13.19-.75-.13-.37-5.84-.22,1,0-1,.2-.5.25-15.36.33-2.55.57-23.5,1.36l1.11-.18c-7.83.47-15,1-23.49,1.47-3.52-.07,8.33-.6,8.86-.84-11.87.66-23.38,1.84-34.13,2.25l17.31-1.21c-11.71.39-13.06.55-21.74,1.05l.85,0L370.27,14l5.12-.26c-14.79,1.7-30.2,2.23-50.13,4.3,19.37-2,3.19-.5,4.65-.92-5.1.31-12.86.88-10.66.61-9.41,1-15.77,1.15-29,2.73-.6,0-10.08,1-8,.52-12.24,1.27,2.91-.12,1.9.11-18.85,2.14-44.43,4.09-71.44,8.12C201,30.81,194.16,32,187.49,33.07l-23.87,4.16c-7.29,1.07,5.9-1.36,5.9-1.36C157.76,37.68,149,39.3,138,41.59c2.21-.51-.1-.15-3.47.43-8.8,1.87-5.83,1.53-17.43,4,2-.57,4.47-1.32,8.68-2.34-10.34,2.34-20.49,5-31,8-2.86.61,6.31-2,10-3.06-6,1.55-13.67,3.72-20.28,5.81s-12.11,4.14-13.86,4.92c2.49-.88,5-1.7,7.52-2.5-4.26,1.44-2.27.52.86-.58,2.5-.87,4.68-1.55,6.52-2.13s3.39-1,4.63-1.31a37.77,37.77,0,0,1,4.09-.95c-2.52.69-5,1.49-7.5,2.23,3.93-.87,11.46-3.07,20-5.3s18-4.51,25.73-6.09c-2.11.59-4.22,1.15-6.32,1.77q7.85-1.87,15.73-3.58c3.38-.55,5.73-.78-1.88.78,11.11-1.94,9.77-2,19.35-3.52,1-.15.58,0-.39.14l10.83-2c-2.11.45,1.86,0-4.82,1,19.52-3,31.44-5.22,38.85-5.94l-1.63.26,12.18-1.76c1.83-.29,1.94-.35,1.84-.39s-1.26-.08,8.92-1.55L239,27.07l2.65-.61c2.81-.32,8.37-.93,7.36-.69,10.44-1.36-1.8.07,4.25-.8,13.57-1.25,37.35-4,40.45-3.73,4.85-.68-13,1,1.48-.48,4.18.14,16.73-1.61,29.15-2.39-3.78.59-15.54,1.43-3.11.63,7.44-1.08,24.15-1.85,34.61-2.67.23-.21,5.92-.66,13.74-1.21l26.57-1.78c-1.1.16,33.09-1.81,49.46-2.48l-.48.09c3.15-.54,20-1.32,32.32-1.94-.48.24-2.68.42-9.34.84l11.56-.54c2.72-.24,6.32-.47,13.81-.83l-2.89.4c15.38-.68,31-1.61,50.76-2.13,1.11-.29-15.77-.15,5.16-1.06.78.11,1.56.32-3.91.57,1.79-.08,6.39-.34,10-.4l-8.36.52c9-.21,4.71-.37,11.92-.58-.13.2,5.34,0,4.31.16-1.84.08-6.29.12-9,.29,8.13-.24,18-.43,21.22-.38-.72-.09,0-.26,5.94-.47,15.39-.46,5.27.08,14.25-.08,3.72-.23,13.55-.36,13.8-.66,4.5-.11,5.34,0,7.08,0,8-.36,37.2-.91,28.22-1l-2,0,1.31,0h0c26.1-.87,54.24-.9,80.15-1.38l0,.1c15.46-.32,34.42-.48,45.46-.79,4.58-.05,10.8.08,8.85.22,11.82-.17,13.14-.3,30.23-.24-11.89.24,4.1.12-12.19.2,15.37,0,18.85.13,35.34-.21-5.61.27,11.57.27,18.87.18l-10.76-.15c8.21-.06,15.39-.05,22.68,0l-3.94.33c31.44.36,56.7-.68,80.63.1,8.32-.2-17.08-.23-9.64-.48,14.46.1,29.53.66,34.06.69,19.8.31,18.48-.37,39.21-.07-2.65-.14-5.15-.49,10.34-.46,14.48.18,17.79.68,8.65.67-3.47,0-5.14-.07-5-.11-4.67,0-10.81,0-5.08.17l1.88-.1c7.18.19,27.09.38,22.41.53,10.93,0,4.68-.15-3.42-.29l48.1.7c-3-.11-5.84-.29-2.81-.25,28,.54,12.34-.06,31.33.17,10.78.35-3.87.37,15.24.52,11.67.32,2.47.36-2.17.38,17.41,0,32.53.7,42.47.92l-9.17-.07c5.49,0,10,.13,14.55.21l-5.23-.33,7,.18a21.64,21.64,0,0,1,2.86.15c5.55-.05-4.24-.48,6.77-.48,7.18.26,21.87.31,24.34.67-22.57-.57,2.49.37-16.62,0,3.69,0,8.18.13,13.58.28.81.06-.76,0-2.23,0,21.59.73,9.93-.15,32.32.35-2.84.11,5.19.45,8.84.49-9-.2-4.31-.39,4-.34,14.35.48,15.61.27,23.12.47l-8.58-.28c2.92-.1,10.09.09,20.1.29.86.16-9.09-.13-5.52,0,11.12,0,25.1.95,40.6,1.16,7.17.32.68.35,7,.61,17.36.25,18.79.77,37,1.12-5.26-.4-6.18-.37,6.68-.21l-30-.72,19.27.21-24.54-.59c9.18.06,8.24.09,3.91-.23,12.38.71,24.57.5,38.88,1.19l-.45.57c21.52,1,38.26.86,66.2,2.07l-9-.44c3.76-.1,17.26.62,26.31.92-.85.15,4.8.48,8.66.77-.46-.18,20.44,1,23,.74l12.45.93c22.53,1.44,25.76,1,47.4,2.61-6.53-.27,3.29.59-11.22-.31l9.59.7c2.54.18,4.2.28,4.26.22,4.21.42,20,1.33,26.67,2.13,3,.19,4.06,0,12.16.85.88.12,0,.09,0,.09s12.69,1.12,5.63.19l41.71,4.94c15.12,1.86,29.85,3.95,39.41,5.73,15.63,2.35,34.39,5.68,48.44,8.61a15.42,15.42,0,0,1-2.72-.47c9.67,2.09,12.67,2.64,16,3.25,1.67.3,3.42.61,6.11,1.22s6.35,1.44,11.8,2.88c11.08,3.12-11.64-2.75-4.72-.88,1.44.69,8,2.29,16.06,4.42s17.44,4.86,24.58,7.38c-1.16-.38-2.33-.74-3.5-1.09l9.09,3,5.13,1.76c1.78.6,3.61,1.23,5.48,1.92,7.51,2.68,15.81,5.89,24.38,9.88,0,0-.86-.33-.14,0a220.13,220.13,0,0,1,23,11.62A163.24,163.24,0,0,1,1877,102.56c-4.49-3.45-6.46-5.14-3.94-2.77,3.16,2.56,2.77,2.1,3.16,2.28a13,13,0,0,1,1.66,1.28c1.09.93,2.95,2.44,5.82,5.33.46.48,1,1,1.56,1.63l1.76,2,1.9,2.16c.57.78,1.19,1.52,1.71,2.3s1,1.54,1.43,2.29l1.08,2.06a26.52,26.52,0,0,1,1,2.58,41.35,41.35,0,0,0-3.69-6.56,18.5,18.5,0,0,0-1.14-1.5c-.39-.48-.76-1-1.21-1.44l-2.58-2.82c1.23,1.52,2.81,3.13,4.15,5,.37.44.67,1,1,1.43s.68,1,1,1.5c.58,1,1.23,2.09,1.74,3.21a55.37,55.37,0,0,1,4.45,13.11l-.39-1a105.15,105.15,0,0,1,2.18,13.77c.21,1.84.28,3.53.42,5.13s.18,3.13.23,4.67a192.14,192.14,0,0,1-.85,25.19l.34-2.6c-.4,6.9-.81,9.78-1.22,12.65s-.84,5.72-1.73,12.57l-1,4.06c-.67,4.51-1.95,12.4-3.65,21.14s-3.76,18.32-5.67,26.29c1-4.55,2.49-11.49,4-18.77s2.89-14.9,3.85-20.75c-.8,4.45-2.23,12-3.7,19s-2.87,13.44-3.36,15.75c.81-3.56,1.73-8.06,2.57-11.56-2.09,10.9-5.34,25.16-10.17,42.54,0-1.64-3.09,9.69-7.15,22.86-2,6.59-4.27,13.64-6.38,19.78l-.59,1.7a2.33,2.33,0,0,1-.53,0h-1.11l-4.21-.05c-2.62,0-4.84-.09-6.48-.16-31.92.34-63.33,0-100.53.11,13.2.57-10.85,0-8.57.65-8.66.05-12,.05-12.74,0l-26.26-.32c-6.22-.16,8.24-.15,7.45-.28-19,0-8-.25-20.51-.39,2.57.22-6.6.33-17.41.27l15.23.25c-26.51.38-22.92-.47-49.64-.1l8.45-.21c-13.71.14-50.58.09-64,.61-2.43-.07-5.63-.23.4-.28-32.77,0-72.94.66-98.41.4l2.49-.15c-6.11.05-10.64.3-18.3.16.4-.06,2.47-.15-.36-.16-3.24.06-16.24.3-24.34.23l6.92-.19c-32-.13-49,.51-75.85.66a21.17,21.17,0,0,0-4.09-.27c-2.54-.07-6.07-.13-10-.17l-23.55-.15.44-.06c-37.22,0-63.22.48-97.68.72-21.4-.44-72.47-.06-106.86-.27,5.26.07-.85.35-7,.4-8.07-.07-22.31.35-21-.06h2.88c-6.08-.38-22.67-.24-35.61-.23l-2.14.53c-33.87-.7-88.73.45-107.22-.2l-26.4.31.44-.29c-22.65,0-34,0-61.94.08l5.71-.21c-15.79,0-19.94.85-34.5.89l-4.38-.41c-27.54.06-55.42-.26-82.64.17a42.35,42.35,0,0,1,5.72-.21c-13,0-50.15-.19-45.44.38a35.94,35.94,0,0,0-4.81-.16c-2.92,0-6.92,0-11.38.05l-27.11.32L681,330c-12.56.38-13,.47-30.49.6-4.16,0-3.64-.21,1.88-.15-13.85-.12-10.79.28-27.58.17l6.26-.19c-14.25,0-13.12.1-21,.32-9,.13-27,0-29.13-.27-1.91.16-9.72.38-18.11.32-1.13-.09,1.92-.16,3.46-.19-23.82-.15-35.42.39-51.8.15a18.47,18.47,0,0,0-2.77-.16l32.74,0c0-.26-15.29-.28-3.13-.65-12.27.21-33.25.67-48.15.58-.72,0-1.42-.05-2-.09l1.55,0c-3.44,0-6.52,0-9.42.06L471,330.38c-1.76-.21-17.53-.08-25.15-.08.63.28-9.35.25,0,.47-1.21,0,1.44,0,6.51-.06l3.25,0-.52,0,18.94-.05c-6,.15-12.31.28-20.74.14l-10.64.48c-10.43-.38-30.53-.55-33.33-.79-23.27.2-54.83.21-69.46.76-6.62.08-7.61-.13-10.08-.21,3.82-.06,8.37-.06,10.43-.14-13.23.16-39.19.12-42.35.5-16.68-.14,9.37-.36-13.54-.26l3.09-.11c-45.08-.51-73.28,1.07-123.25.41,3.46,0,5.19.06,5.9.12-28.49-.12-57.84,0-87.1.13l-43.69.11-21.57,0-10.68,0-4.86,0c-.11,0-.28,0-.34,0v-.38l0-.92L2,327.72c.42-16,.26-17.7.33-27.45l.4-3.45.18-16.68c.58-23.64,2.24-40.88,3.51-70.78L6,213.2c.33-5.36.83-13.86,1.32-20.79s.93-12.28,1-11.38c.06-1.1,0-3.53.51-7.71L9,173c.62-8.78,1.4-17.54,2.26-26.3,1.23-10.16,1.33-9.34,1.52-9.69a13.8,13.8,0,0,0,.58-2.92c.35-2.27.92-6.34,2.13-13.69.84-5.47,2.27-13.22,3.74-19l1.06-3.9c.38-1.12.71-2.06,1-2.77.47-1.42.62-1.9.22-1s-.85,2.23-1.3,3.42-.77,2.46-1.13,3.57c-.74,2.22-1.14,4-1.28,4.14l.57-2.47L19,100l.69-2.44.87-2.38c0-.48.23-1.3.34-1.91s.17-1-.12-.6c-.43.79-2.81,4.68-5.51,17-.54,2.86-1.07,5.72-1.49,8.6l-.66,4.31-.57,4.31c-.36,1.84-.71,3.68-1,5.52.3-2.42.69-4.83,1-7.25s.75-4.83,1.17-7.24A191.93,191.93,0,0,0,11,137.18c-.31,1.37-.66,3.79-1.11,7.22-.27,2.83-.48,5.67-.7,8.51s-.43,5.68-.62,8.52c-.37,2,.36-7.66-.81,3.74-.51,8,1.07-7.6.06,5.6-.92,8.27-.87,5.84-1.46,15.58-.22,1.36-.14-.7.11-4.57-.55,8.68-1.56,22.95-1.57,27.44C4,217.86,3.34,238.51,3,237.64c0,2.73-.37,15.3-.66,23.27,0-7.29-.28.17-.63,9s-.67,18.94-.89,17c.06,5.4-.18,15.14-.41,25.92-.1,5.39-.2,11-.31,16.54l0,2.53v1.62s.06,0,.09,0H1.82l4.39,0,7.54-.09c-1.07,0-3.17.12-4.85.1,10.75,0,13.87.16,20.78.23,1.38-.39,18.13-.51,27.15-.77,13.18.35-8,.47-3.86.83-.67-.32,22.9-.36,18.41-.62,10.08.22,8.69.1,13.88.42,1.77-.5,9.39-.1,17.74-.42,14.59.21,3.76.45,19.78.27C130.4,333.57,116.15,333.77,116.15,333.77Zm381.08-1.56h0l-7.87,0Zm32-.06H515.36c-1.12-.09.09-.2,3.32-.2C516.93,332,524.48,332.07,529.25,332.15Zm-67.74-1.83c5.07-.05,6.77,0,7.46.06l-8.86.05-.6,0C460,330.41,460.54,330.36,461.51,330.32Z"/><path class="cls-1" d="M452.4,330.71l-2.09,0,3,.06,1.8-.09Z"/><path class="cls-1" d="M641.89,3.68h-.74Z"/><polygon class="cls-1" points="971.46 331.86 971.41 331.79 968.61 331.86 971.46 331.86"/><path class="cls-1" d="M465.58,8.68c-.34,0-1,0-2.32,0C463.37,8.73,464.37,8.71,465.58,8.68Z"/><path class="cls-1" d="M389.5,12.83l-10.76.6Z"/><path class="cls-1" d="M331.05,16.88a7.76,7.76,0,0,0-1.14.21H330Z"/><path class="cls-1" d="M1262.09,4.64l2.26,0C1269.66,4.75,1266.05,4.69,1262.09,4.64Z"/><path class="cls-1" d="M984.94.83l8.91-.06A87.93,87.93,0,0,0,984.94.83Z"/><path class="cls-1" d="M1571.37,17.57h0l1.91.17Z"/><path class="cls-1" d="M1006.74.88c-4.94-.09-9.06-.12-12.89-.11C997.9.82,1002.66.89,1006.74.88Z"/><path class="cls-1" d="M80.37,55.44c-.9.27-1.79.58-2.69.87,0,0-.1.07-.3.15C78.38,56.12,79.37,55.76,80.37,55.44Z"/><path class="cls-1" d="M77.38,56.46l-3,1C75.78,57,77,56.63,77.38,56.46Z"/><path class="cls-1" d="M68.2,59.78c2.07-.76,4.13-1.55,6.21-2.29C72.24,58.23,69.59,59.2,68.2,59.78Z"/><path class="cls-1" d="M155.94,37.77l.85-.26A3.56,3.56,0,0,0,155.94,37.77Z"/><path class="cls-1" d="M179.19,33.85c-5.56.85-14,2-21.69,3.45l-.71.21C160.39,36.67,173.94,34.84,179.19,33.85Z"/><path class="cls-1" d="M277,22.94l-19.64,1.95c3.44-.26,8-.59-1,.39C281.13,23,251.22,25.53,277,22.94Z"/><path class="cls-1" d="M338,17.72c-10.57.89.13.14-.42.25C344.23,17.36,345.85,17.21,338,17.72Z"/><path class="cls-1" d="M780,1.87,779,2.14C787.13,2,779,2,780,1.87Z"/><polygon class="cls-1" points="864.6 0.17 856.64 0.02 852.85 0.26 864.6 0.17"/><polygon class="cls-1" points="914.56 2.03 910.99 2.06 924.63 2.01 914.56 2.03"/><path class="cls-1" d="M1656.64,29.67l-2.4-.65C1648.76,28.31,1647.56,28.5,1656.64,29.67Z"/><path class="cls-1" d="M1899.56,180.5c-.4,3.47-1.43,12.41-2.06,17.92C1898.49,191.29,1899.32,184.16,1899.56,180.5Z"/><polygon class="cls-1" points="1056.54 329.17 1062.99 329.06 1050.83 329.17 1056.54 329.17"/></g><path class="cls-1" d="M1826.06,293.05c.93,0,.44-.23-2.08-.52l-1.83.09Z"/><path class="cls-1" d="M1809.21,290.22c-3-.23-6.43-.4-4.55.15,3,.07,3.66.3,6.87.34,2.52.29,4.38.68,3.94.74.9,0,3.9.59,5.28.56a99.75,99.75,0,0,0-11.75-1.6C1808.08,290.22,1809,290.25,1809.21,290.22Z"/><path class="cls-1" d="M1563.23,257.4l1.58.25C1564.38,257.57,1563.84,257.48,1563.23,257.4Z"/><path class="cls-1" d="M1410.81,237.2a11.28,11.28,0,0,0,1.71.16A11.7,11.7,0,0,0,1410.81,237.2Z"/><path class="cls-1" d="M1384.83,233.42l1.53.23C1385.78,233.54,1385.19,233.45,1384.83,233.42Z"/><path class="cls-1" d="M1563.23,257.4l-4.06-.64A34.26,34.26,0,0,0,1563.23,257.4Z"/><path class="cls-1" d="M1775.18,286.55c.85.1,1.57.16,2.22.21l-2.08-.24Z"/><path class="cls-1" d="M1630.47,266l1.24.16h1Z"/><path class="cls-1" d="M1682.05,272.68a5.06,5.06,0,0,0-2.07.12,18,18,0,0,1,2.57.14C1682.58,272.89,1682.43,272.81,1682.05,272.68Z"/><path class="cls-1" d="M1763.77,283.91l1.45.15Z"/><path class="cls-1" d="M1593.56,261.05a2,2,0,0,0-.45-.16S1593.28,261,1593.56,261.05Z"/><path class="cls-1" d="M150.76,73.74c.05,0,0,0,0,0C150.46,73.67,150.37,73.68,150.76,73.74Z"/><path class="cls-1" d="M91.16,64.51l.83.09c.1,0,.19-.08.2-.13Z"/><path class="cls-1" d="M1337.24,226.81l.21,0C1338.71,227,1338,226.89,1337.24,226.81Z"/><path class="cls-1" d="M899.92,169.6c4.93.9-8.1-.74-.68.52C898.56,169.92,906.08,170.57,899.92,169.6Z"/><path class="cls-1" d="M1773.85,286.34l-2.12-.27C1772.7,286.2,1773.34,286.29,1773.85,286.34Z"/><path class="cls-1" d="M899.24,170.12h0l.77.13Z"/><path class="cls-1" d="M1227.47,212.57a11,11,0,0,0,1.1.27A5.23,5.23,0,0,0,1227.47,212.57Z"/><path class="cls-1" d="M1309.18,223.7l-2-.3C1308,223.53,1308.61,223.62,1309.18,223.7Z"/><path class="cls-1" d="M1185,207.39c-1.1-.17-1.47-.26-3-.42l.45.1A22.75,22.75,0,0,1,1185,207.39Z"/><path class="cls-1" d="M1140.77,201.59l.81.16,1.4.17Z"/><path class="cls-1" d="M285.07,91.23c-1-.2-1.55-.37-2-.51C283.72,91,277.22,90.22,285.07,91.23Z"/><path class="cls-1" d="M1775.18,286.39a5.36,5.36,0,0,1-1.33-.05l1.47.18C1775.45,286.5,1775.49,286.46,1775.18,286.39Z"/><path class="cls-1" d="M1182.88,209.35l-7-1C1177.82,208.67,1180.37,209,1182.88,209.35Z"/><path class="cls-1" d="M602.08,132.82l-1.61-.18C601.09,132.73,601.66,132.8,602.08,132.82Z"/><path class="cls-1" d="M1155,205.69c-1.24-.26-2.56-.49-3.93-.71-.29,0-.63,0-.82,0Z"/><path class="cls-1" d="M283.05,90.71a0,0,0,0,1,0,0A0,0,0,0,0,283.05,90.71Z"/><path class="cls-1" d="M236.72,85.3c6.69.89,3.19.06,4.63,0,8,1,3.66.76,6.36,1.3,5,.56,8.86.72,12.58,1.23.27.09,1,.21.13.17,5.31.41,15.65,2,21.84,2.49a6.42,6.42,0,0,1,.79.19c-1-.31-1.1-.52-.88-.63,3,.39,5.6.5,6.69.89a18.56,18.56,0,0,0-2.87-.21l3.16.31c2.78.72-4.31-.44-4.34-.19,6.14.69,13.32,1.35,18,2.06.94.47-11-1.33-4.77-.21l-7.25-1.08c5.49,1.26-4.41-.62.62.62,9.55,1.36,10.72,1.24,20.24,2.59,2.17.09-.67-.37,1.5-.28,13.6,1.44,10.56,2.25,20.58,3.11a55.15,55.15,0,0,1,10.74,1l-2.47.07c9.25,1.25,5.35.14,15,1.67-1.74-.07-7.29-.83-5.89-.6,6.24,1.13,4.47.37,9.29,1l1,.47c9.86,1.24,20.75,2.43,31.67,3.8-.62,0-2.5-.12,0,.32,13.79,1.64,29.38,3.9,42.63,5.84l5.11.37c1.18.16,2.17.42.89.31,5.16.79.29-.15,2.79.07,2.95.36,3.87.67,2,.52,9.17,1,26.09,2.88,35.67,4.45l-1.89-.16c7.48,1.11,8.53.52,15.44,1.7l-1.33-.12c16.24,2.26,34.24,4.35,46.59,6.42,2.42-.11,16.07,2.3,17.19,1.85,9.25,1.51,6.58,1.27,19.63,3.18,3.49.48,5.25.32,9.58.82l.06.32,5.91.45,3.07.78,4.06.45a14.67,14.67,0,0,1-3.16-.64c6.35.69,15.4,2.24,15.53,2.41l15,1.71c-.35.08-2.86-.21-4.85-.39,8,.74,1.41.51,8.77,1.19-1-.2.55-.12.72-.16,3.63.67,11.93,1.76,18.09,2.49l-1.21.06c11.1,1.51,23.42,3,35.88,4.61-4.46-.69-3.39-.92.27-.47l1.42.51c2.39.11-3.8-.62,1.08-.23,4.65.65,3.08.78.39.53l5.67.63c.32.14-1,0-1.37.1,2.35.1,9.72,1.6,13.12,1.7l.3.13c12.46,1.64,18.12,2.27,28.27,3.59.23-.26,4.19.33,7.24.5,7.45,1.07,15.69,2.37,24.68,3.53,6.33.69,1.87,0,4.73.21.43.32,9.41,1.47,4.73,1,10.79,1.38,13.78,1.76,27.44,3.34-1.47-.29-3.12-.56-2.25-.53,2.48.28,5.61.84,5.24.92l-.65-.06c15.35,1.63,35.22,5.38,47.48,6.45l-.69-.06L865,167.13c5.81.81-3.51-.27.77.45,13.69,1.37,21.53,2.89,32.79,4.09,8.6,1.89,30.85,4,42.52,6l-.66-.27a51.72,51.72,0,0,1,5.89.92c-.3-.18-3.27-.59-1.38-.44,25.71,3.16,53,7.22,79.29,10.84,9.62,1.31,5.58-.2,17.67,1.82l-3.49-.13c19.48,2.16,39.73,5.23,58.8,7.4a25.9,25.9,0,0,1-3-.23,146.92,146.92,0,0,0,15,1.78c3,.41.66.27,2.47.6,4,.67,10.16,1,12.27,1.55a13.28,13.28,0,0,1-1.88-.15c2.64.23,12.23,1.63,9.75,1,7.13,1.07,13.68,1.67,19.35,2.58,3.76.18,12.21,1.75,13.44,1.47-.57.39,12.47,2,17,2.39-1.53-.06,3.9.66,2.11.61,5.15.67,9.88,1.21,9,.86,9.42,1.78,19.13,2.07,24.39,3.46,15.33,1.77,29.52,3.47,43.3,5.17-.56.38-15.23-1.95-14.7-1.41,13.09,1.54,20.67,2.14,33.61,3.95,3.34.5-1.93-.06-3.07-.13,13.07,1.53,25.22,3.35,36.86,4.64,0,0-1.29-.09-2.48-.21,2.29.29,5.31.77,5.08.53l-2.24-.24c-3.61-.77,9.17.58,9.6.48-4,.07,11.45,1.65,5.18,1.57,1.51.16,3.42.32,3.09.13,2.23.34,2.93.51.64.37,8.21,1,5.33.36,12.75,1.34,0,.1-1.54-.06-2.32,0,3.78.3,7.58.6,13.85,1.51-.39,0,.33.18-1.54-.07,10.78,1.39,18.44,1.9,30.23,3.64-3.54,0,4,.67,4.59,1.12l6.37.73-2.53-.52c5.57.74,10.53,1.12,15.3,1.87l-4.16-.39,10.44,1.3-5.88-.92c5.66.55-.55-.55,6.85.53-1.51-.16,5.57.74,8.45,1.33h0c2.77.25,5.62.5,9.72,1.13,1.06.26-.91.29-.22.46,2.75.05,13,1.63,16.53,1.75-1.15-.07-1.24.12-.87.21l2.32,0c2.57.42,2.94.51,2.5.61,7.75,1.07-2.4-.79,6.78.62-.73-.08-.38,0-1.9-.15,9.24,1.32,17.9,2.19,26.38,3.43,2.46.7-7.44-.89-4.61-.2,12.27,1.54,25.44,2.89,37.28,4.53l-2.2-.33c1.71-.31,8.8,1.42,14.83,2-1.48-.15-2,0-1.56,0,8.11,1.15,16.62,2.05,29,3.5l-1.54-.06c4.77.75,12.59,1.72,17.75,2.46,1.56.07,4.51.48,2.74,0,15.84,2.86,30.46,3.58,44.52,6.08-1.69-.22-4-.41-2.7-.24l12.06,1.46a30.9,30.9,0,0,0-4.06-.86c1.54.07,5,.41,7.94.8-5.44-.56,0,.38,2.32.81-.38-.12.43-.09.24-.19,6.24,1.23,1.12-.32,9.67,1.08l-.47.06c3.23.36,6.21.59,9.67,1.08,1.41.45-3.44-.32-3.69-.14,4.88.63,9.68.76,14.06,1.61-2.08-.2-5.06-.59-7.14-.79,4.76.94,5.33.94,8.89,1.45l-.35-.05,8.23,1.23-2.09-.36c6.19.1,12.43,1.5,20.7,2.12-8-.62-1.35.08-2,.3,2.08.36,5.26.87,4.34.83,3.91.27,6.45,1.05,12,1.41.24.13,4.16.56,3.25.68,5,.59-1.17-.32-.73-.39,7.82.69,18.23,2.8,29.47,3.82,9.67,1.08,11.5,1,20.47,2,3,.55-2.52,0-2.52,0,4.86.78,8.53,1.24,13.14,1.73-.94,0,0,.16,1.39.45,3.69.46,2.51,0,7.36.75-.85,0-2,0-3.74-.09,4.36.48,8.67.86,13.18,1.37,1.17.32-2.75-.11-4.35-.2,5.07.58,13.12,1.56,14.71,1.5l-3.23-.52c1.85.23.92.35-.44.22-4.36-.36-6.24-.91-6.47-1l3.21.36c-3.21-1-12.87-1.6-19.32-2.48l2.74-.06-6.65-.52c-1.39-.29-2.33-.65.86-.29-4.59-.81-4.11-.39-8.05-1.14-.43-.1-.23-.09.18,0l-4.53-.47c.89,0-.72-.39,2,0-8.07-1.3-13.11-1.41-16.12-2.12l.68.06c-11.26-1.33-1.13.16-9.61-.59l-5.58-1.49-1.14.16c-1.16-.17-3.46-.49-3-.56-4.35-.36.71.23-1.82.1-5.55-1-15.41-1.89-16.61-2.54-2,0,5.32.88-.66.26-1.63-.75-6.91-.82-12-1.73,1.61-.06,6.42.72,1.35-.19-3.14,0-9.92-1.41-14.24-1.89-.25.34-9.37-1.07-16.61-1.9.47-.06-13.56-2-20.26-3l.2,0c-1.34.19-8.26-.79-13.32-1.37.23-.19,1.15-.16,3.89.1l-4.74-.62c-1.13,0-2.62-.16-5.7-.53l1.22-.11c-6.31-.82-12.75-1.35-20.85-2.6-.49.2,6.37,1.56-2.24.6-.3-.18-.59-.46,1.67-.22-.74-.08-2.64-.23-4.12-.48l3.46.22c-3.68-.59-2-.06-4.91-.47.08-.19-2.17-.43-1.73-.53.76.08,2.57.42,3.71.49-3.33-.47-7.34-1.12-8.66-1.44.28.15,0,.26-2.47,0-6.32-.82-2.13-.52-5.8-1.11-1.55-.06-5.56-.73-5.7-.45a16.17,16.17,0,0,1-2.88-.6c-3.28-.3-15.26-2-11.62-1.17l.84.13-.54-.06h0c-10.75-1.11-22.22-3.08-32.86-4.35l0-.1c-6.36-.72-14.13-1.79-18.69-2.17-1.87-.25-4.4-.76-3.58-.77-4.86-.57-5.42-.53-12.4-1.61,4.9.47-1.66-.37,5,.53-6.29-.91-7.69-1.25-14.49-1.87,2.33.05-4.7-.94-7.71-1.26l4.39.76c-3.37-.41-6.31-.82-9.3-1.23l1.66-.12c-12.84-2.09-23.33-2.37-33.06-4.33-3.44-.21,7,1.08,3.9.95-5.93-.82-12-2.1-13.9-2.35-8.1-1.25-7.64-.51-16.13-1.75,1.07.26,2.06.71-4.31,0-5.93-.82-7.23-1.45-3.47-1a9.28,9.28,0,0,1,2,.34c1.93.2,4.45.48,2.12,0l-.79,0c-2.93-.51-11.09-1.57-9.15-1.51-4.5-.48-1.94-.06,1.37.44-7.59-1.17-11.89-1.57-19.71-2.71,1.24.23,2.37.51,1.13.35-11.47-1.65-5.09-.44-12.88-1.41-4.4-.76,1.64-.22-6.22-1.1-4.77-.75-1-.45.94-.29-7.17-.71-13.32-1.9-17.39-2.48l3.77.4c-2.26-.24-4.1-.48-6-.73l2.11.52a34.43,34.43,0,0,1-4-.67c-2.29-.15,1.7.62-2.85.23-2.93-.5-9-1-10-1.49,9.25,1.32-1-.45,6.87.53-1.52-.16-3.37-.4-5.58-.74-.32-.07.33,0,.93,0-8.82-1.44-4.12-.18-13.3-1.39,1.19,0-2.08-.62-3.59-.78,3.7.49,1.74.53-1.68.22-5.87-.91-6.41-.74-9.49-1.16l3.51.53c-1.22,0-4.16-.39-8.27-.88-.33-.18,3.74.4,2.28.15-4.59-.29-10.25-1.68-16.63-2.3-2.93-.51-.25-.37-2.82-.79-7.15-.71-7.68-1.26-15.19-2,2.12.52,2.51.51-2.79,0l12.33,1.45-7.95-.69c3.72.49,7.86.88,10.08,1.21-3.79-.3-3.39-.31-1.64.12-5-1-10.11-1.12-15.95-2.13l.26-.56c-8.8-1.42-15.73-1.76-27.18-3.41l3.67.58c-1.57,0-7.08-.89-10.81-1.29.37-.15-1.94-.52-3.51-.85.17.17-8.39-1.12-9.49-.86l-5.08-.93c-9.25-1.33-10.64-.83-19.54-2.07,2.71.14-1.32-.53,4.67.1a49.81,49.81,0,0,0-5.71-.65c-1.72-.35-8.27-.82-11-1.36a36.12,36.12,0,0,1-5-.38c-.35-.09,0-.1,0-.1s-5.24-.55-2.35,0c-9.08-1.82-25.6-3.32-33.5-4.89-6.49-.79-14.32-1.75-20.21-2.51.39,0,0-.09,1.14.07-8.09-1.25-5.06-.09-14.28-1.51-4.68-.93,4.93.48,2,0-1.19-.81-11.16-1.38-17.33-2.57l1.51.16c-4.73-.84-11.64-1.28-19.4-2.35,0,0,.39,0,.06-.09-5.35-.37-15.42-1.58-22.91-2.47,2.36.06,3.41.32,2-.13-3.36-.4.92.54-5.77-.26-2.16-.43-7-1.18-7.57-1.54l6.31.82c-3.18-.78-8.17-1.06-11.48-1.56l.44-.1c-9.67-1.22-9.85-.85-20.24-2.24l1.06.26c-5.73-.36-4.73-.84-10.43-1.3l-1.66-.62c-3.76-.39-13.18-1.34-19.9-2.15,3.84.21,11.72,1.09,16.61,1.56-3.72-.49-12.62-1.63-14.58-1.69,1.5.16,3.39.31,4.86.56-4.59-.29-10.61-.92-18-1.9,1.41-.59-19.27-2.72-24.56-4-13.12-1.44-25.95-3.53-41.2-5.48,5.33,1.3-4.46-.57-3.6.16-3.56-.43-4.91-.62-5.22-.7l-10.72-1.77c-2.53-.52,3.4.31,3.09.13-7.77-1.07-3.23-.69-8.36-1.53,1,.36-2.74,0-7.16-.71l6.2,1.1c-10.91-1.1-9.33-1.74-20.32-2.86l3.49.27c-5.64-.63-20.74-2.73-26.31-3-1-.2-2.28-.54.2-.25-13.43-1.84-30-3.41-40.38-5.08l1,0c-2.51-.28-4.4-.29-7.52-.85.17,0,1,0-.13-.18-1.33-.12-6.69-.61-10-1.14l2.86.21c-13.08-1.92-20.16-2.24-31.17-3.58.09-.43-10.2-1.93-15.34-2.67l.19,0c-15.26-2.06-26-3-40.13-4.73-8.7-1.62-29.68-4.1-43.75-6.21,2.15.36-.39.29-2.9,0-3.3-.53-9.19-.9-8.61-1.23l1.18.16c-2.44-.72-9.26-1.51-14.56-2.22l-.95.41c-13.78-2.58-36.42-4.49-43.91-6.17-3.36-.31-7.52-.86-10.85-1.16l.21-.26c-9.27-1.29-13.9-1.93-25.39-3.37l2.37.1c-6.47-.87-8.28-.26-14.25-1l-1.75-.65c-11.29-1.48-22.67-3.35-33.88-4.43a7.23,7.23,0,0,1,2.37.1c-5.31-.71-20.53-3-18.67-2.15-.08-.39-11.65-1.57-17.77-2.2l1-.16c-5.2-.32-5.37-.24-12.57-1.09-1.7-.26-1.47-.42.79-.05-5.66-.89-4.46-.32-11.33-1.37l2.59.16a75.9,75.9,0,0,0-8.63-.85,107.92,107.92,0,0,1-11.9-1.88,54.06,54.06,0,0,1-7.46-.7c-.45-.15.81,0,1.44,0-9.74-1.47-14.56-1.59-21.24-2.74a3.39,3.39,0,0,0-1.12-.31c7.76,1,14,1.86,13.42,1.8,0-.25-6.23-1.12-1.2-.82-5-.47-13.71-1.18-19.8-2.1-.3-.07-.58-.13-.8-.2l.64.06c-1.41-.21-2.67-.35-3.87-.47-1.94-.3-3.18-.49-5.05-.74-.69-.3-7.17-1.06-10.29-1.48.22.32-3.87-.27-.06.47a19.05,19.05,0,0,1,2.67.3c.47.06,1,.13,1.34.15H376l7.77,1a79.84,79.84,0,0,1-8.52-1c-1.63,0-3.41-.08-4.42-.13-4.23-1-12.44-2.24-13.56-2.63-9.56-1.1-22.49-2.85-28.56-3.11a20.88,20.88,0,0,1-4.1-.78c1.57.16,3.44.41,4.29.44-5.44-.57-16.07-2-17.42-1.86-6.81-1.06,3.89.17-5.51-1l1.28,0c-18.4-3-30.17-3-50.56-6.45a21.72,21.72,0,0,1,2.4.45c-23.31-3.4-48.17-6-71.16-9.57-6.53-1-7.27-.82-11.3-1.17l-1.38-.48-6.88-.56c-9.73-1-16.69-2.94-29-4.07l1.56.41c-4.4-.62-14-1.71-13.21-1.85a16.67,16.67,0,0,1-3.19-.31l-.11-.18-10.86-1.15c-8.38-1.21,1.39-.45-10.85-2.09-4.56-.53-13-1.24-11.33-.91a29.36,29.36,0,0,1,4.8.89L92,64.6c-.81.36-4.08.41,6.1,2.08l7.16.65,2.27.53-6-.78a60,60,0,0,0,8,1,20.29,20.29,0,0,0,2.95.64l7.05.47c.82.3-3.18,0,1.5.67,3.3.22-3.09-.82,2.35-.24a34.79,34.79,0,0,0,6.39,1c.54.19-.32.16-1.91,0,3.58.33,9.43,1.18,11.3,1.17,3.52.73,12,1.51,11.63,1.91,1.13,0,6.31.48,9.58.89-6-.26,12.24,1.64,10.59,2,4.48.11,16,1.89,23.87,2.65a17,17,0,0,1-2-.17c4.41.62,5.67.93,8.49,1.39.62-.31,7.5.5,11.23.75,5.35,1.08-3.34,0-1.69.6-.23-.35,9.43.92,7.62.42a41.47,41.47,0,0,1,5.63,1.18c.79-.39,3.86.42,7.33.58,6,1,1.48.65,8.07,1.37C242.58,85.9,236.72,85.3,236.72,85.3ZM393.07,105h0l-3.23-.41Zm13.13,1.72c-1.59-.22-3.58-.49-5.69-.76-.45-.16.06-.19,1.38,0C401.17,105.9,404.26,106.36,406.2,106.7Zm-27.52-5.58a18.43,18.43,0,0,1,3.05.47l-3.63-.44h-.25A3.9,3.9,0,0,1,378.68,101.12Z"/><path class="cls-1" d="M374.9,101l-.86-.09,1.23.23H376Z"/><path class="cls-1" d="M1565.09,257.69l-.28,0,.58.11Z"/><polygon class="cls-1" points="587.44 131.04 587.43 130.96 586.28 130.87 587.44 131.04"/><path class="cls-1" d="M1637.28,268.14c.14,0,.4.1.94.2A7.72,7.72,0,0,0,1637.28,268.14Z"/><path class="cls-1" d="M1668.51,272.3l4.41.68Z"/><path class="cls-1" d="M1692.51,275.6a2,2,0,0,0,.49-.06h0Z"/><path class="cls-1" d="M1310.59,225.78l-.93-.11C1307.48,225.44,1309,225.61,1310.59,225.78Z"/><path class="cls-1" d="M1424.32,240.05c-1.22-.1-2.41-.21-3.67-.35A15,15,0,0,0,1424.32,240.05Z"/><path class="cls-1" d="M1183.64,209.46s0,0,0,0l-.78-.1Z"/><path class="cls-1" d="M1415.36,239c2,.32,3.71.53,5.29.69C1419,239.47,1417,239.18,1415.36,239Z"/><path class="cls-1" d="M1796.59,289.39l1.16.16s0,0,.14,0Z"/><path class="cls-1" d="M1797.89,289.53l1.29.13C1798.59,289.59,1798.08,289.52,1797.89,289.53Z"/><path class="cls-1" d="M1801.89,290l-2.71-.29A25.81,25.81,0,0,0,1801.89,290Z"/><path class="cls-1" d="M1764.81,285.09l-.37.05A.61.61,0,0,0,1764.81,285.09Z"/><path class="cls-1" d="M1755.15,283.85c2.3.32,5.75,1,9,1.33l.31,0C1762.9,285.09,1757.36,284,1755.15,283.85Z"/><path class="cls-1" d="M1715,277.3l8.09,1.15c-1.4-.3-3.25-.68.44-.23C1713.35,276.56,1725.58,278.74,1715,277.3Z"/><path class="cls-1" d="M1689.9,273.85c4.35.52,0-.16.21-.19C1687.33,273.39,1686.66,273.33,1689.9,273.85Z"/><path class="cls-1" d="M1508.48,250l.47-.2C1505.59,249.43,1508.9,249.93,1508.48,250Z"/><polygon class="cls-1" points="1473.62 246.79 1476.87 247.37 1478.45 247.34 1473.62 246.79"/><polygon class="cls-1" points="1453.37 242.29 1454.84 242.45 1449.24 241.8 1453.37 242.29"/><path class="cls-1" d="M1148.66,202.37l1,.45C1151.91,203.06,1152.43,202.77,1148.66,202.37Z"/><path class="cls-1" d="M1017.08,185.42a56.75,56.75,0,0,0-7.4-1.08C1012.64,184.75,1015.57,185.26,1017.08,185.42Z"/><polygon class="cls-1" points="622.66 133.11 625.32 133.35 620.32 132.79 622.66 133.11"/><path class="cls-1" d="M1691.31,57.4c.8-.3.29-.36-2,.22l-1.54.71Z"/><path class="cls-1" d="M1675.85,60.49c-2.63.8-5.65,1.81-3.84,1.69,2.57-1,3.24-1,6-2,2.27-.58,4-.85,3.65-.64.79-.27,3.56-.78,4.73-1.27a82.86,82.86,0,0,0-10.65,2.5C1674.88,60.87,1675.68,60.59,1675.85,60.49Z"/><path class="cls-1" d="M1452.25,108.89l1.45-.25C1453.3,108.7,1452.81,108.78,1452.25,108.89Z"/><path class="cls-1" d="M1312.77,134.21a11.94,11.94,0,0,0,1.55-.33A8.12,8.12,0,0,0,1312.77,134.21Z"/><path class="cls-1" d="M1288.84,137.85l1.41-.22A12.88,12.88,0,0,0,1288.84,137.85Z"/><path class="cls-1" d="M1452.25,108.89l-3.74.63A30.22,30.22,0,0,0,1452.25,108.89Z"/><path class="cls-1" d="M1645.36,68.65c.77-.21,1.4-.39,2-.57l-1.87.49Z"/><path class="cls-1" d="M1513.51,96.53l1.13-.23.91-.31Z"/><path class="cls-1" d="M1560.37,86.36a4.22,4.22,0,0,0-1.75.78,14.25,14.25,0,0,1,2.27-.69C1560.9,86.39,1560.74,86.36,1560.37,86.36Z"/><path class="cls-1" d="M1634.65,70.05l1.3-.35Z"/><path class="cls-1" d="M1479.82,103.11a1.58,1.58,0,0,0-.45,0S1479.55,103.13,1479.82,103.11Z"/><path class="cls-1" d="M153.3,301.77s0,0,0,0C153,301.79,152.94,301.83,153.3,301.77Z"/><path class="cls-1" d="M98.14,308.84l.76-.13c.07-.07.15-.13.14-.19Z"/><path class="cls-1" d="M1245.1,144.81l.19,0C1246.44,144.56,1245.79,144.68,1245.1,144.81Z"/><path class="cls-1" d="M842.82,204.14c4.6-.38-7.39,1.33-.48.67C841.69,204.79,848.53,203.52,842.82,204.14Z"/><path class="cls-1" d="M1644.15,68.9l-1.92.46C1643.11,69.16,1643.69,69,1644.15,68.9Z"/><path class="cls-1" d="M842.34,204.81h0l.72-.07Z"/><path class="cls-1" d="M1144.32,160.94a8.64,8.64,0,0,0,1,0A5.14,5.14,0,0,0,1144.32,160.94Z"/><path class="cls-1" d="M1219.5,149.56l-1.87.26Z"/><path class="cls-1" d="M1105.34,167.23c-1,.13-1.36.14-2.74.38l.43,0A19,19,0,0,1,1105.34,167.23Z"/><path class="cls-1" d="M1064.7,173.25l.75-.05,1.29-.21Z"/><path class="cls-1" d="M276.81,283.28a19,19,0,0,1-1.92,0C275.55,283.41,269.58,284.35,276.81,283.28Z"/><path class="cls-1" d="M1645.3,68.5a5.19,5.19,0,0,1-1.15.4l1.32-.33C1645.58,68.5,1645.59,68.45,1645.3,68.5Z"/><path class="cls-1" d="M1104,169.67l-6.46.91Z"/><path class="cls-1" d="M568.85,243.09l-1.48.23C568,243.25,568.47,243.17,568.85,243.09Z"/><path class="cls-1" d="M1078.39,173.46c-1.16.08-2.39.2-3.66.35l-.74.18Z"/><path class="cls-1" d="M274.88,283.3h0Z"/><path class="cls-1" d="M232.42,290.17c6.16-.89,2.84-.78,4.11-1.18,7.34-1.18,3.44-.23,6-.41,4.58-.76,8.05-1.61,11.47-2.1.26,0,.93-.05.16.14,4.81-1,14.4-2.11,20-3.3a5.35,5.35,0,0,1,.75,0c-.94,0-1.11-.21-.94-.37,2.76-.41,5.08-1,6.16-.89a15.82,15.82,0,0,0-2.6.55l2.87-.53c2.66,0-3.93.7-3.89.95,5.62-.93,12.15-2.18,16.49-2.71.95.21-10.09,1.59-4.28,1.05l-6.71.84c5.19-.21-4.06.56.71.44,8.81-1.18,9.82-1.61,18.61-2.78,1.95-.47-.69-.19,1.26-.65,12.43-2.08,9.94-.53,19.06-2.26a46.68,46.68,0,0,1,9.77-1.8l-2.17.69c8.53-1.15,4.79-1.22,13.75-2.22-1.56.37-6.68,1.07-5.39.93,5.83-.51,4.07-.79,8.51-1.41l1,.21,29.08-4.43c-.54.18-2.25.53.11.3,12.66-1.93,27.07-3.77,39.33-5.21l4.64-.92c1.09-.15,2-.14.87.07,4.78-.53.22-.22,2.49-.64,2.71-.39,3.61-.32,1.9,0,8.38-1.39,23.9-3.78,32.81-4.67l-1.72.32c6.92-.82,7.71-1.66,14.15-2.25l-1.22.21c15-1.9,31.52-4.43,43-5.52,2.12-.71,14.86-1.79,15.74-2.51,8.6-.85,6.17-.42,18.25-1.83,3.22-.4,4.74-1,8.72-1.6l.13.3,5.37-1.05h2.92l3.72-.58a12.45,12.45,0,0,1-3,.17c2.9-.46,6.46-.88,9.32-1.17a47.17,47.17,0,0,1,5.09-.38l13.76-2.1c-.29.16-2.6.51-4.41.84,7.32-1.3,1.38.14,8.09-1.05-.92.06.46-.24.61-.33,3.38-.26,11-1.28,16.7-2.11l-1.06.35c10.24-1.3,21.56-3,33-4.49-4.13.45-3.23,0,.13-.52l1.39.14c2.15-.49-3.53.35.9-.49,4.29-.53,2.93,0,.48.42l5.2-.81c.32.06-.89.27-1.2.44,2.12-.49,9-.87,12.09-1.63l.31.05,26-3.58c.15-.3,3.81-.73,6.57-1.32,6.89-.83,14.54-1.62,22.82-2.75,5.8-.92,1.67-.46,4.26-1,.47.2,8.73-.93,4.47-.18,9.93-1.37,12.68-1.75,25.22-3.64-1.37.08-2.91.24-2.13.05,2.27-.35,5.2-.59,4.89-.42l-.6.1c14.06-2.27,32.66-3.62,43.83-5.65l-.63.11,11.61-1.84c5.37-.67-3.19.62.8.25,12.51-2.1,19.86-2.63,30.17-4.33,8.11-.34,28.41-3.94,39.28-4.94l-.65-.09a41.26,41.26,0,0,1,5.46-.6c-.31-.1-3,.25-1.33-.08,11.82-1.73,24-3.33,36.34-4.9l36.8-4.83c8.88-1.21,4.91-1.63,16.15-2.79l-3.13.78c17.84-2.93,36.6-5.17,54.07-8a24.19,24.19,0,0,1-2.76.57c1.86-.15,5.29-.62,8.24-1.11,1.48-.24,2.84-.49,3.84-.68a8,8,0,0,0,1.63-.39c2.73-.38.66.08,2.35-.07,3.73-.4,9.27-1.68,11.27-1.73a10.63,10.63,0,0,1-1.71.35c2.4-.48,11.27-1.64,8.91-1.57,6.59-.84,12.55-2,17.82-2.6,3.37-.81,11.27-1.52,12.29-2.11-.41.52,11.57-1.35,15.69-2.17-1.37.34,3.63-.4,2,0,4.74-.71,9.07-1.43,8.21-1.54,8.81-.77,17.49-3,22.51-3.11,14-2.45,27-4.65,39.64-6.73-.38.51-14,2.23-13.36,2.61,12-2.06,18.84-3.53,30.76-5.28,3.09-.43-1.72.46-2.75.7,12-2.06,23.19-3.59,33.82-5.51a21.49,21.49,0,0,1-2.25.48c2.1-.34,4.9-.7,4.63-.87l-2,.38c-3.41.22,8.25-1.9,8.6-2.16-3.47,1.18,10.54-1.61,5,.07,1.37-.27,3.09-.66,2.75-.74,2.06-.3,2.72-.33.67.17,7.5-1.37,4.79-1.14,11.61-2.28,0,.11-1.38.37-2.07.61,3.42-.77,6.85-1.54,12.62-2.43-.33.12.35.09-1.37.37,9.88-1.68,16.77-3.33,27.64-5-3.13,1,3.71-.48,4.35-.21l5.81-1.09-2.37.22c5.11-.85,9.58-1.88,14-2.49l-3.77.78,9.56-1.67-5.44.77c5.14-1.06-.63-.37,6.19-1.41-1.38.27,5.11-.85,7.81-1.08h0c2.51-.52,5.08-1.13,8.86-1.72,1-.06-.71.55-.06.52,2.43-.76,11.92-2.25,15-3.15-1,.27-1.06.47-.7.45l2-.63c2.38-.35,2.73-.37,2.37-.15,7.11-1.24-2.34,0,6.13-1.38-.66.14-.34.12-1.71.41,8.49-1.43,16.33-3.12,24.13-4.41,2.36,0-6.78,1.32-4.1,1.16,11.21-2.1,23.15-4.65,34-6.52l-2,.32c1.4-.79,8.13-1.2,13.57-2.44-1.34.28-1.71.61-1.36.48,7.44-1.31,15.14-3.1,26.34-5.46l-1.37.41c4.39-.75,11.52-2.2,16.25-3.07,1.37-.41,4.07-.92,2.39-.79,14.7-2.11,27.67-5.89,40.7-7.8-1.54.31-3.65.84-2.42.6l11-2.29a25.48,25.48,0,0,0-3.82.43c1.36-.43,4.45-1.1,7.16-1.7-4.89,1.21.12.36,2.27,0-.37,0,.35-.23.15-.26,5.81-.84.87-.66,8.73-2.08l-.39.2c2.91-.69,5.57-1.43,8.73-2.08,1.36,0-3.08.8-3.24,1,4.43-1,8.63-2.39,12.69-3l-6.43,1.55c4.43-.64,4.92-.82,8.17-1.48l-.32.06,7.53-1.48-1.93.33c5.39-1.89,11.26-2.58,18.62-4.64-7.16,2-1.14.5-1.64.92,1.93-.33,4.85-.87,4-.61,3.47-1,5.93-1.09,10.83-2.51.25,0,3.78-.81,3-.4,4.58-1.07-1.12.07-.76-.14,7-1.9,16.74-3.08,26.73-6.06,8.68-2.29,10.22-3,18.28-5.1,2.77-.51-2.16.88-2.16.88,4.44-.92,7.75-1.74,11.88-2.85-.82.28.06.15,1.35,0,3.33-.83,2.15-.88,6.58-1.8-.73.29-1.66.69-3.24,1.18l11.79-3.21c1.12-.09-2.39.84-3.8,1.3,4.55-1.18,11.81-3,13.15-3.6l-3,.61c1.66-.41.91,0-.31.36a22.25,22.25,0,0,1-5.91,1.23l2.88-.76c-3.11.16-11.61,2.89-17.45,4.26l2.34-1-5.9,1.77c-1.3.2-2.22.19.64-.57-4.23.81-3.67,1-7.31,1.68-.4.06-.23,0,.14-.11l-4.06,1.11c.78-.28-.75-.13,1.78-.67-7.39,1.53-11.75,3.15-14.58,3.5l.61-.17c-10.14,2.58-.92.53-8.46,2.72-1.77.16-3.53.35-5.31.48l-.94.52c-1,.22-3.14.65-2.78.45-3.88,1.05.69,0-1.54.67-5.14.83-14,3.16-15.22,2.93-1.77.63,4.9-.87-.48.46-1.66-.18-6.25,1.44-10.94,2.22,1.37-.58,5.79-1.39,1.1-.62-2.7,1-9,1.86-12.94,2.8-.11.39-8.47,2-15,3.53.39-.21-12.39,2.49-18.52,3.68l.17-.1c-1.11.61-7.41,1.93-12,3,.14-.25,1-.51,3.41-1.15-1.44.31-2.87.64-4.31.91-1,.32-2.34.65-5.14,1.24l1-.48c-5.76,1.15-11.54,2.6-19,3.89-.37.33,6-.47-1.77,1.25-.32-.08-.65-.26,1.39-.72-.67.15-2.38.59-3.74.8l3.08-.85c-3.39.57-1.72.54-4.43,1,0-.2-2,.26-1.66,0,.68-.16,2.36-.39,3.38-.67-3,.57-6.75,1.18-8,1.27.28.06,0,.26-2.17.73-5.76,1.15-2,.15-5.4.72-1.37.41-5.07,1-5.11,1.3a13.84,13.84,0,0,1-2.69.31c-3,.71-13.91,2.78-10.49,2.43l.77-.13-.49.1h0c-9.71,2.22-20.32,3.84-30,5.88v-.1c-5.78,1.18-12.9,2.41-17,3.37-1.71.31-4.08.56-3.37.31-4.42.88-4.9,1.08-11.34,2.08,4.43-1-1.56.12,4.55-1-5.78,1-7.11,1-13.25,2.43,2.06-.63-4.4.47-7.12,1l4.07-.55c-3.08.59-5.77,1.06-8.52,1.53l1.43-.59c-11.87,1.73-21.16,4.53-30.25,5.48-3.08.8,6.43-1,3.69-.22-5.44.94-11.17,1.49-12.87,1.8-7.46,1.17-6.85,1.72-14.67,2.9,1-.05,2,.11-3.79,1.19-5.46.87-6.78.63-3.36,0a8.79,8.79,0,0,1,1.89-.24c1.75-.34,4-.78,1.87-.54l-.68.23c-2.72.33-10.21,1.6-8.48,1.12-4.09.8-1.73.48,1.33,0-7,1-10.91,1.82-18.11,2.91,1.15-.12,2.23-.16,1.09,0-10.56,1.62-4.6,1-11.73,2.25-4.09.5,1.38-.67-5.78.68-4.41.62-1-.15.74-.54-6.51,1.32-12.26,1.9-16,2.49l3.43-.68c-2,.4-3.74.69-5.46,1l2-.09a28.87,28.87,0,0,1-3.72.48c-2.06.5,1.66.12-2.45,1-2.72.33-8.2,1.5-9.18,1.35,8.51-1.32-1-.16,6.19-1.41-1.38.27-3.07.55-5.11.85-.31,0,.28-.12.83-.23-8.17,1.09-3.68,1-12.1,2.39,1-.36-2,0-3.38.25,3.4-.56,1.68,0-1.42.66-5.43.71-5.87,1-8.7,1.45l3.24-.44c-1.06.35-3.77.75-7.54,1.39-.34-.08,3.41-.63,2.06-.48-4.14,1-9.51,1.17-15.32,2.29-2.72.31-.31-.29-2.7,0-6.51,1.26-7.12.87-14,2.14,2-.08,2.36-.19-2.45.8l11.28-1.94-7.2,1.48c3.41-.53,7.17-1.27,9.22-1.55-3.42.73-3.08.62-1.41.56-4.73.37-9.23,1.65-14.66,2.26l.07-.61c-8.15,1-14.37,2.56-24.93,4.06l3.41-.43c-1.38.46-6.5,1.06-9.9,1.68.28-.24-1.86,0-3.33.13.2.12-7.72,1.2-8.61,1.73l-4.75.49c-8.53,1.18-9.63,2-17.83,3.15,2.43-.58-1.31-.16,4.15-1.13a42.53,42.53,0,0,0-5.22.87c-1.61.12-7.54,1.39-10.08,1.58a31.52,31.52,0,0,1-4.56.95c-.34,0,0-.1,0-.1s-4.79.85-2.07.67c-8.51.63-23.54,3.53-31,4.09l-18.55,2.89c.34-.11,0-.1,1-.23-7.49.93-4.51,1.24-13,2.3-4.39.33,4.49-.84,1.76-.56-1.27-.46-10.24,1.61-16,2l1.38-.24c-4.41.4-10.64,1.76-17.8,2.72,0,0,.34-.1,0-.1-4.85,1-14.09,2.44-21,3.5,2.1-.55,3.1-.57,1.76-.64-3.08.47,1,.28-5.18,1.22-2,.15-6.48.66-7.11.47l5.8-.84c-3,.07-7.51,1.08-10.58,1.45l.37-.21c-8.89,1.31-9,1.72-18.53,3l1,0c-5.17,1.12-4.41.4-9.58,1.43l-1.64-.17c-3.43.57-12,2.11-18.21,3,3.47-.75,10.69-1.93,15.14-2.74-3.42.48-11.61,1.68-13.37,2.11,1.38-.23,3.1-.56,4.47-.7-4.15.9-9.66,1.8-16.48,2.73,1.11-.93-17.79,2.24-22.82,2.32-12,1.94-23.94,3.16-38,5.13,5.06-.09-4.1.58-3.16,1.06-3.27.49-4.52.65-4.81.65l-10,1c-2.38.14,3.09-.56,2.77-.66-7.17.94-3,.16-7.8.64,1,.09-2.45.66-6.55,1.13l5.79-.51c-10,1.7-8.72.66-18.78,2.34l3.17-.62c-5.17.81-19.11,2.56-24.13,3.73-.92,0-2.16,0,.12-.3-12.4,1.58-27.5,4.21-37.16,5.2l.92-.28c-2.31.36-4,.82-6.9,1.06.14-.08.91-.27-.16-.14s-6.1,1.08-9.18,1.41l2.6-.52c-12.11,1.42-18.48,2.9-28.6,4.34,0-.44-9.56.68-14.31,1.24l.15-.08c-14.07,1.81-23.84,3.53-36.85,5.43-8.15.6-27.42,3.44-40.45,4.91,2-.19-.28.38-2.58.73-3.06.32-8.39,1.43-8,1l1.09-.14c-2.35-.08-8.61.86-13.5,1.5l-.74.63c-12.9.95-33.5,4.76-40.58,5-3.07.54-6.9,1.05-9.94,1.59l.13-.31c-8.57,1.07-12.85,1.61-23.42,3.09l2.13-.49c-6,.78-7.42,1.81-12.93,2.56l-1.71-.19c-10.4,1.42-21,2.48-31.22,4.26a6.14,6.14,0,0,1,2.13-.5c-4.9.66-19,2.29-17.13,2.62-.17-.35-10.74,1.42-16.34,2.35l.84-.39c-4.7,1-4.84,1.11-11.45,2.11-1.57.18-1.4,0,.69-.25-5.25.57-4,.82-10.4,1.53l2.34-.5a63.21,63.21,0,0,0-7.88,1.36,91,91,0,0,1-11.05,1.17,47.75,47.75,0,0,1-6.81,1.23c-.44,0,.71-.26,1.28-.37-9,1.07-13.33,2.19-19.55,2.79a2.62,2.62,0,0,0-1.07,0c7.15-1,12.91-1.78,12.37-1.69,0-.25-5.81.51-1.27-.48-4.61.83-12.47,2.36-18.12,3-.27,0-.54,0-.75,0l.58-.11c-1.31.16-2.47.34-3.55.54-1.81.21-2.95.34-4.68.57-.69-.11-6.63.82-9.51,1.21.28.24-3.5.73.06.46a21.12,21.12,0,0,1,2.46-.39l1.22-.2-.19.06,7.15-1a66.74,66.74,0,0,1-7.82,1.2c-1.45.38-3.05.79-4,1-4,.16-11.61,1-12.7.92-8.77,1.38-20.69,3-26.14,4.29a18.11,18.11,0,0,1-3.84.3c1.43-.25,3.15-.48,3.92-.67-5,.83-14.8,2.12-15.94,2.65-6.31.76,3.49-.85-5.15.47l1.16-.28c-17.1,1.9-27.52,5-46.49,7a19.35,19.35,0,0,1,2.25-.2c-10.77,1.4-21.84,3.1-32.87,4.76s-22,3.26-32.66,4.66a100.46,100.46,0,0,0-10.31,1.9l-1.35-.1-6.23,1.31c-8.87,1.62-15.55,1.64-26.76,3.85l1.49,0c-4.06.58-12.82,2.09-12.18,1.75a14.37,14.37,0,0,1-2.89.55l-.15-.13-9.91,1.79c-7.74,1.07,1.11-.8-10.16.9-4.18.7-11.85,2.28-10.26,2.14a25.76,25.76,0,0,1,4.48-.42l-3.81.67c-.62.56-3.49,1.49,6,.36l6.5-1.28,2.14-.1-5.5.86a52.71,52.71,0,0,0,7.31-1.23,17.71,17.71,0,0,0,2.78-.18l6.36-1.43c.8.06-2.83.8,1.5.24,3-.67-3,0,2-.86a28.9,28.9,0,0,0,5.93-.7c.53,0-.23.23-1.68.51,3.25-.65,8.65-1.39,10.3-1.9,3.3-.24,11-1.76,10.78-1.28,1-.26,5.71-1.22,8.72-1.7-5.41,1.36,11.26-1.7,9.89-.92,4-1.09,14.65-2.46,21.81-3.83a14.78,14.78,0,0,1-1.82.37c4.06-.58,5.26-.63,7.88-.93.46-.46,6.76-1.47,10.13-2.2,5-.35-3,.89-1.33,1-.3-.27,8.59-1.57,6.86-1.58a34.33,34.33,0,0,1,5.3-.33c.59-.59,3.53-.6,6.64-1.36,5.54-.56,1.48.25,7.5-.78C237.77,289.21,232.42,290.17,232.42,290.17Zm143.72-21.35h0l-3,.43Zm12.09-1.7-5.24.72c-.44,0,0-.2,1.22-.36A39.18,39.18,0,0,0,388.23,267.12Zm-25.84,1.65a15.1,15.1,0,0,1,2.82-.32l-3.34.5-.22.06A4,4,0,0,1,362.39,268.77Z"/><path class="cls-1" d="M359,269.61l-.79.13,1.15-.09.67-.18Z"/><path class="cls-1" d="M1454,108.6l-.26,0,.54-.07Z"/><polygon class="cls-1" points="555.39 245.02 555.36 244.96 554.32 245.16 555.39 245.02"/><path class="cls-1" d="M1520.11,96.45a5.87,5.87,0,0,0,.88-.12S1520.57,96.38,1520.11,96.45Z"/><path class="cls-1" d="M1548.52,90.35l4-.77Z"/><path class="cls-1" d="M1570.38,85.75a1.35,1.35,0,0,0,.4-.21h0Z"/><path class="cls-1" d="M1221.32,151.18l-.85.15C1218.48,151.69,1219.83,151.46,1221.32,151.18Z"/><path class="cls-1" d="M1325.47,133.16l-3.33.69A12.82,12.82,0,0,0,1325.47,133.16Z"/><path class="cls-1" d="M1104.73,169.57h0l-.72.11Z"/><path class="cls-1" d="M1317.29,134.66c1.87-.25,3.42-.53,4.85-.81C1320.62,134.09,1318.82,134.36,1317.29,134.66Z"/><path class="cls-1" d="M1664.74,64l1-.24s0,0,.11-.07Z"/><path class="cls-1" d="M1665.9,63.7l1.15-.32A10.86,10.86,0,0,0,1665.9,63.7Z"/><path class="cls-1" d="M1669.48,62.73l-2.43.65A22.67,22.67,0,0,0,1669.48,62.73Z"/><path class="cls-1" d="M1636,70.8l-.3.18C1635.82,70.92,1635.93,70.86,1636,70.8Z"/><path class="cls-1" d="M1627.22,72.94c2.09-.48,5.28-1,8.17-1.81l.26-.15C1634.31,71.46,1629.16,72.29,1627.22,72.94Z"/><path class="cls-1" d="M1590.4,80.15l7.37-1.52c-1.31.17-3,.4.31-.35C1588.73,80,1600,78.1,1590.4,80.15Z"/><path class="cls-1" d="M1567.55,84.94c3.94-.9-.08-.14.11-.25C1565.18,85.33,1564.58,85.49,1567.55,84.94Z"/><path class="cls-1" d="M1402.17,118.24l.36-.33C1399.47,118.5,1402.52,118,1402.17,118.24Z"/><polygon class="cls-1" points="1370.68 125.28 1373.69 124.9 1375.07 124.41 1370.68 125.28"/><polygon class="cls-1" points="1351.61 126.88 1352.94 126.6 1347.84 127.62 1351.61 126.88"/><path class="cls-1" d="M1071.89,171.94l1,.17C1075,171.75,1075.33,171.33,1071.89,171.94Z"/><path class="cls-1" d="M950.86,189.67a48.72,48.72,0,0,0-6.84.87C946.75,190.17,949.48,189.91,950.86,189.67Z"/><polygon class="cls-1" points="587.22 238.23 589.64 237.8 585.06 238.5 587.22 238.23"/></g></g></g></svg>