<svg xmlns="http://www.w3.org/2000/svg" viewBox="0 0 808.92 89.18"><defs><style>.cls-1{fill:#4d4d4d;}</style></defs><g id="Layer_2" data-name="Layer 2"><g id="sketch"><g id="title"><path class="cls-1" d="M808.72,60.32c.23.75.35.28-.1-1.83L808,57.05Z" transform="translate(0 -0.08)"/><path class="cls-1" d="M806.21,46c-.77-2.43-1.85-5.17-1.7-3.51,1,2.34,1,3,2,5.51.55,2.09.76,3.7.56,3.37.25.73.65,3.29,1.08,4.39a53.28,53.28,0,0,0-2.2-9.86C805.83,45.09,806.11,45.82,806.21,46Z" transform="translate(0 -0.08)"/><path class="cls-1" d="M710.26,23l-.41,1.31C710,23.91,710.11,23.46,710.26,23Z" transform="translate(0 -0.08)"/><path class="cls-1" d="M625.85,66.52a9.08,9.08,0,0,0,1.15-.91A7.1,7.1,0,0,0,625.85,66.52Z" transform="translate(0 -0.08)"/><path class="cls-1" d="M606.19,76.12a10.4,10.4,0,0,0,1.24-.26C607,76,606.48,76,606.19,76.12Z" transform="translate(0 -0.08)"/><path class="cls-1" d="M710.26,23c.35-1.12.68-2.24,1-3.37A28.75,28.75,0,0,0,710.26,23Z" transform="translate(0 -0.08)"/><path class="cls-1" d="M795.31,19.14c.38.61.68,1.14,1,1.6l-.89-1.53A.46.46,0,0,1,795.31,19.14Z" transform="translate(0 -0.08)"/><path class="cls-1" d="M704.07,67.78c.26-.23.5-.48.75-.72s.37-.48.53-.71C704.93,66.84,704.5,67.32,704.07,67.78Z" transform="translate(0 -0.08)"/><path class="cls-1" d="M732.46,33.82a3.7,3.7,0,0,0-.83,1.58,13.72,13.72,0,0,1,1.27-1.8S732.74,33.61,732.46,33.82Z" transform="translate(0 -0.08)"/><path class="cls-1" d="M790.4,10.5a12.6,12.6,0,0,1,.88.91C791.06,11.16,790.68,10.76,790.4,10.5Z" transform="translate(0 -0.08)"/><path class="cls-1" d="M702.68,47.91a1.18,1.18,0,0,0,.22-.35S702.79,47.69,702.68,47.91Z" transform="translate(0 -0.08)"/><path class="cls-1" d="M37.73,39.92s0,0,0,0C37.52,40.08,37.48,40.15,37.73,39.92Z" transform="translate(0 -0.08)"/><path class="cls-1" d="M.32,75.15l.48-.53c0-.1,0-.19,0-.22Z" transform="translate(0 -0.08)"/><path class="cls-1" d="M590.12,47v.18C590.16,48.22,590.15,47.62,590.12,47Z" transform="translate(0 -0.08)"/><path class="cls-1" d="M407.41,25c.64,2.08,0,.44-.68-.91a8.33,8.33,0,0,0-.73-1.32c-.09-.06.1.43.65,2C406.59,24,409.12,30.09,407.41,25Z" transform="translate(0 -0.08)"/><path class="cls-1" d="M794.76,18.15c-.29-.51-.64-1-1-1.51Z" transform="translate(0 -0.08)"/><path class="cls-1" d="M406.65,24.68h0l.23.63C406.78,25.05,406.73,24.9,406.65,24.68Z" transform="translate(0 -0.08)"/><path class="cls-1" d="M552.59,59.16a6.52,6.52,0,0,0,.62-.74A4.83,4.83,0,0,0,552.59,59.16Z" transform="translate(0 -0.08)"/><path class="cls-1" d="M589.83,22.87c0-.59,0-1.18-.05-1.77C589.8,21.8,589.82,22.37,589.83,22.87Z" transform="translate(0 -0.08)"/><path class="cls-1" d="M529.42,62.12c-.28-.89-.35-1.2-.76-2.41,0,.12.05.23.08.38C528.91,60.52,529.12,61.1,529.42,62.12Z" transform="translate(0 -0.08)"/><path class="cls-1" d="M520.89,25.16c0,.2.08.46.12.7s.21.79.31,1.17Z" transform="translate(0 -0.08)"/><path class="cls-1" d="M121.81,34.09c-.08-.82-.11-1.34-.11-1.76C121.63,32.94,120.39,27.55,121.81,34.09Z" transform="translate(0 -0.08)"/><path class="cls-1" d="M795.43,19.05a5.07,5.07,0,0,1-.67-.9l.65,1.06C795.5,19.29,795.55,19.29,795.43,19.05Z" transform="translate(0 -0.08)"/><path class="cls-1" d="M526.82,61.35c-.61-2-1.13-3.94-1.6-5.92C525.6,57.1,526.15,59.25,526.82,61.35Z" transform="translate(0 -0.08)"/><path class="cls-1" d="M259.66,65.62l-.81,1.13A12.86,12.86,0,0,0,259.66,65.62Z" transform="translate(0 -0.08)"/><path class="cls-1" d="M521.47,37.84c-.11-1.07-.29-2.2-.49-3.36a6.6,6.6,0,0,0-.22-.67Z" transform="translate(0 -0.08)"/><path class="cls-1" d="M121.7,32.32s0,0,0,0S121.71,32.33,121.7,32.32Z" transform="translate(0 -0.08)"/><path class="cls-1" d="M99.74,4.77c2.67.25,3.26.45,3.39.34s-.25-.34.33-.3a17.34,17.34,0,0,1,1.91.59c.49.2.85.39,1.13.52a2.37,2.37,0,0,1,.81.54c.13.21-.19.15.68.79a20.64,20.64,0,0,1,7.2,7.06c.06.23.35.76-.07.19a34.82,34.82,0,0,1,3.78,8c1.12,3.22,2,6.62,2.75,9.14a3.7,3.7,0,0,1,0,.69c0-.87.16-1,.32-.9a33.34,33.34,0,0,1,1.14,5.63,12.69,12.69,0,0,0-.63-2.37l.61,2.63c.1,2.45-.79-3.6-1.07-3.54,1.17,5.11,2.37,11.14,2.9,15.15-.2.88-1.58-9.31-1-3.94-.28-2.06-.57-4.12-.89-6.17.29,4.77-.61-3.73-.43.67,1.28,8.09,1.57,9,2.87,17.17.52,1.8.16-.65.68,1.14,1.26,5.77,1.75,8,2.16,9.94a19.42,19.42,0,0,0,.87,3A14.47,14.47,0,0,0,131.83,75a11,11,0,0,0,2.87,2,10.65,10.65,0,0,0,2.45.87,10.07,10.07,0,0,0,4,0,9.17,9.17,0,0,1-2.25.67,9,9,0,0,0,2.79-.43,12.08,12.08,0,0,0,1.74-.71c.44-.24.78-.46,1.09-.65l.79-.58c.49-.39,1-.77,1.77-1.41s1.86-1.52,3.39-3a22.84,22.84,0,0,1-2.57,2.57c-1,.83-1.73,1.38-1.21,1a14.52,14.52,0,0,0,3.47-3c.52-.65.9-1.19,2.29-2.77l.83-.44c5.54-6.63,10.28-14.74,15.18-22.75-.18.49-.94,1.92.3.1,3.05-5.08,6.32-10.49,9.75-15.71a116.32,116.32,0,0,1,10.8-14.37c.88-1.12,1.79-2.2,2.76-3.23.73-.65,1.45-1.08.69-.35,1.66-1.32,1.71-1.31,1.48-1.27s-.68.28.11-.36a7.91,7.91,0,0,1,2-1.11c.28-.08.15.06-.47.45a7.29,7.29,0,0,1,5.72-1.15c2.15.54,4,2.66,5.19,5a35.66,35.66,0,0,1,2.78,7.6,68.43,68.43,0,0,1,1.37,7l-.39-1.55c1,6.3,1.81,7,2.35,13l-.2-1.13c1.74,13.85,3.35,29.31,7,39.68.6.87,1.85,4.26,4.25,6.94a10.8,10.8,0,0,0,4,2.88,6.57,6.57,0,0,0,1.71.42,1.73,1.73,0,0,0,.9,0,11.75,11.75,0,0,0,4.74-.38c.55-.17,1-.31,1.48-.49a13.94,13.94,0,0,0,1.31-.56c1.71-.86,3.86-2,8.1-5.88,2.2-2.13,2.93-3.5,5.32-6.37l.3.12c1-1.35,2-2.74,3-4.13l2-1.89,2.05-2.84A10,10,0,0,1,257,68.81c1.61-2.21,3.63-4.85,5.26-7a43.89,43.89,0,0,1,3-3.66l7.24-10.65c-.06.3-1.28,2.08-2.2,3.52,3.72-5.78,1-.84,4.41-6.12-.55.64.11-.47.15-.63,2-2.44,6.18-8.18,9.44-12.3l-.47.91a117.39,117.39,0,0,1,9.85-11,41.13,41.13,0,0,1,5.91-4.79,16.86,16.86,0,0,1,6.8-2.81c-1.7.22-2.39.43-2.31.27a5,5,0,0,1,2.41-.79,7.6,7.6,0,0,1,1.17.25c.91-.12.18-.15-.33-.16s-.79-.1,1.15-.19c1.85.19,2.38.6,2.25.64a2,2,0,0,1-.64,0c-.35,0-.79-.09-1.3-.1a9.24,9.24,0,0,1,4.08,1.3c.17.21-.73-.28-1-.26a9.6,9.6,0,0,1,3.65,3,53.58,53.58,0,0,1,3.15,4.65l0,.28a69,69,0,0,1,4.36,11.8c1,3.47,1.8,6.75,2.76,11,.31.1,1,3.44,1.76,5.94.65,3.14,1.31,6.47,2.15,9.95a62.16,62.16,0,0,0,3.48,10.76,21.13,21.13,0,0,0,1.3,2.35c.26.38.34.46.38.45s-.09-.35.67.68A9.83,9.83,0,0,0,338,79.21a11.42,11.42,0,0,0,1.34,1c.16.1-.17,0-1.11-.61a8.3,8.3,0,0,0,6.5,1.7,11.66,11.66,0,0,0,5-2.19,24.73,24.73,0,0,0,4.11-3.81,54.86,54.86,0,0,0,4.51-6c-.81,1-1.72,2.13-1.34,1.48a26.91,26.91,0,0,1,2.79-3.64l-.29.49c3.52-5.64,7.34-12.22,11-18.52s7.07-12.28,9.58-16.84l-.29.51a92.13,92.13,0,0,1,5.81-9c1.56-1.9,1.14-1.28.61-.56s-1.1,1.6.09.24A24.89,24.89,0,0,1,391.53,18a7.75,7.75,0,0,1,5.64-1.73,7.38,7.38,0,0,1,4.6,3A26.74,26.74,0,0,1,405,24.94c.53,1.75,1.28,4.17,2,7s1.58,6.13,2.34,9.51c1.53,6.76,3,13.9,4,18.9l0-.61c.78,2.51.65,3.11,1.12,5,.05-.31-.57-2.81-.07-1.25.74,2.69,1.54,5.39,2.51,8.07a41.79,41.79,0,0,0,3.66,7.87,15.46,15.46,0,0,0,6.58,6.29,10.77,10.77,0,0,0,4.72.86,13.15,13.15,0,0,0,4.59-1.1,28.16,28.16,0,0,0,7.48-5,68.66,68.66,0,0,0,6.11-6.32A165.37,165.37,0,0,0,460.55,60.4c4.66-6.89,1.87-4.42,7.91-13l-1.33,2.68c4.37-7.14,8.92-14.37,13.74-21.33,2.42-3.47,4.9-6.87,7.51-10.1a62.87,62.87,0,0,1,8.4-8.81c-.68.67-.66.72-1.8,1.76a35.24,35.24,0,0,1,6-4.14,13.08,13.08,0,0,1,3-1.12,12.51,12.51,0,0,0,1.33-.27c1.12,0,1.23.17,1.25.21s-.08.1.56.27a10.12,10.12,0,0,1,4.32,2.57,11.82,11.82,0,0,1,2.54,3.5,12.81,12.81,0,0,1-.88-1.24,16.66,16.66,0,0,1,1.28,2.06c.47.9,1,1.92,1.35,2.85.79,1.86,1.29,3.28,1.07,2.23A119.33,119.33,0,0,1,521,34.48c1,3.05,1.92,10.33,2.56,11.24-.27-.17.16,2.49.85,5.67a77.29,77.29,0,0,0,2.39,8.72c-.53-1.23.91,3.32.26,1.9a34.88,34.88,0,0,0,2.33,5.54c.75,1.36,1.33,2,1.2,1.63a10.16,10.16,0,0,0,4.76,4.73,7.33,7.33,0,0,0,3.44.56,9.34,9.34,0,0,0,3.11-.85,18.92,18.92,0,0,0,4.46-3.11c1.2-1.08,2.21-2.07,3.11-2.86a73.65,73.65,0,0,0,5.7-8.06c1.7-2.73,3.26-5.46,4.76-8.17,3-5.44,5.72-10.79,8.46-16,.21.59-6.12,11.58-5.49,11.35,2.61-5,4.54-9,6.54-12.92a133.48,133.48,0,0,1,7-12.49c1.61-2.35-.73,1.46-1.13,2.34a55.56,55.56,0,0,1,4.51-6.76,16.12,16.12,0,0,1,2.64-2.7,3.26,3.26,0,0,1,2.7-.94,3.21,3.21,0,0,1,1.74,2.2,17.38,17.38,0,0,1,.78,3.54c.31,2.46.4,5,.47,7.45,0,0-.09-1.1-.14-2.11.06,1.95-.06,4.55.15,4.33l0-1.91c.14-1.56.31.38.42,2.76s.14,5.22.22,5.4c-.51-3.36-.4,9.87-1,4.54,0,1.3.08,2.93.22,2.63-.07,1.93-.15,2.54-.29.58,0,3.54.11,4.69.19,5.75s.12,2,.27,5.24a17.64,17.64,0,0,1-.34-2c.16,1.62.33,3.25.55,5.15s.48,4.07,1,6.77c-.12-.32-.09.33-.38-1.29a32.06,32.06,0,0,0,1.76,6.45A17.66,17.66,0,0,0,594,74.2a11.91,11.91,0,0,0,2.48,2.08l.72.41.76.34a10.81,10.81,0,0,0,1.6.56,16.46,16.46,0,0,0,7.23,0c-1.47.51-.6.38.74.13a26.27,26.27,0,0,1,3.35-.79,47.62,47.62,0,0,0,5.06-2.37c-.7.27-1.38.57-2.09.81,4.43-2.06,7.88-4.6,11.35-6.83-.94.72-1.91,1.42-2.89,2.12,2.53-1.65,5-3.42,7.36-5.24q-2.08,1.47-4.22,2.88c1.94-1.48,1.75-1.51,1.76-1.61s.19-.27,2.78-2.14c-1,.82,3.82-2.9,5.87-4.34h0c1.77-1.59,3.57-3.24,6.31-5.49.78-.51-.29.8.21.47,1.6-1.75,8.38-7.5,10.33-9.76-.68.72-.58.9-.32.71l1.28-1.51c1.69-1.44,2-1.64,1.8-1.28,4.93-4.5-1.87,1.1,4.07-4.14-.44.44-.2.26-1.12,1.17,5.9-5.34,11.1-10.64,16.55-15.52,1.83-1.2-4.61,4.42-2.59,3,3.83-3.62,7.75-7.41,11.74-11.06A131.5,131.5,0,0,1,696.24,6.67c-.52.35-1,.72-1.55,1.09a15.69,15.69,0,0,1,4-2.95,44,44,0,0,1,6.84-3.39c-1.15.41-1.39.84-1.11.65a10.31,10.31,0,0,1,1.18-.41l.6-.18.6-.11a7,7,0,0,1,1.2-.12,4.23,4.23,0,0,1,1.13.17c1.47.36,2.36,2,2.64,3.83a22.74,22.74,0,0,1,0,6.22,67.27,67.27,0,0,1-1.28,7.21l.17-1.31c-1,4-2.87,10.41-4.29,14.62-.27,1.3-1.08,3.71-.41,2.31-2.48,6.39-4.52,12.61-6.26,18.74-.86,3.06-1.66,6.09-2.3,9.14a35.91,35.91,0,0,0-.7,4.63,10.73,10.73,0,0,0,0,2.4,3.49,3.49,0,0,0,1.18,2.38,3,3,0,0,1-.92-1.1,7,7,0,0,1-.39-1.09c-.12-.58-.18-.82-.09-.18a5.16,5.16,0,0,0,.47,1.44,2.66,2.66,0,0,0,2.89,1.42,5.52,5.52,0,0,0,1.42-.48,18.82,18.82,0,0,0,4.23-3.3c-.77.38-1.07.88-3,2.08a61.39,61.39,0,0,0,4.85-4.83c-3.13,3.47.33.27,1.75-1.19-.27.21.13-.36,0-.28,1.95-1.91,2-2.17,2.2-2.61s.57-1.09,3-3.87l-.15.38c1.7-2.18,3.17-4.27,5.06-6.58,1-.8-1.74,2.38-1.69,2.66,2.61-3.28,4.76-6.78,7.35-9.57-1.06,1.44-2.66,3.44-3.71,4.87,2.82-3,3.06-3.45,5-5.8l-.2.23,4.61-5.39-1.22,1.33c2.81-4.48,6.73-8.27,11.21-13.73-4.34,5.33-.59,1-.72,1.59,1.28-1.27,3.23-3.17,2.76-2.55,2.14-2.55,4-3.84,7.21-7.25.21-.08,2.68-2.32,2.28-1.65,3.25-2.81-.9.52-.69.21a51,51,0,0,1,9.2-6.82A38.62,38.62,0,0,1,773.08,4.6a18.79,18.79,0,0,1,8.67.61A19.1,19.1,0,0,1,789,9.48c1.78,1.89-1.77-1.2-1.83-1.11a33.31,33.31,0,0,1,4,4,48.46,48.46,0,0,1,3.34,4.39c-.51-.62-.11.09.42,1.17.82,1.33,1.14,1.76,1.51,2.3a16.55,16.55,0,0,1,1.64,3.1c-.4-.6-1-1.34-1.77-2.62a83.34,83.34,0,0,1,4.89,10.09c.2,1-1.05-2.09-1.69-3.29,1.78,3.93,4,10.48,4.55,11.7l-.73-2.69c.5,1.5,0,.84-.37-.25-1.35-3.46-1.67-5.09-1.63-5.32l1,2.56a30.12,30.12,0,0,0-2.44-6.85c-1.29-2.83-3-5.84-4.35-8.21.52.58,1,1.19,1.5,1.8a56.29,56.29,0,0,0-3.23-4.68c-.61-1-.89-1.87.72.36a18.05,18.05,0,0,0-2.14-3c-.26-.31-.51-.6-.85-1s-.69-.87-1.26-1.52c-.24-.3-.11-.19.15.05-.47-.45-.93-.91-1.44-1.32l-.74-.64L787.43,8c.64.43-.29-.67,1.49,1a18.32,18.32,0,0,0-7.4-4.49,33.67,33.67,0,0,0-5.3-1,5.76,5.76,0,0,1,.59,0,16.81,16.81,0,0,0-4.4.32c-.65.13-.68.2-.64.24s.16.08-.17.22-1.12.34-2.81,1A36,36,0,0,0,764,6.29l-.72.7c-.9.44-2.63,1.42-2.37,1.13-3.08,2.12.61-.21-1.14,1.08a48.36,48.36,0,0,0-7,5,39.86,39.86,0,0,1-4.54,3.6c-1.12,1.33,3.53-3-.16.61-1.45.6-4.25,4.15-7.42,7.18.72-1.17,3.73-4.07.5-1.06-1.52,2.21-5.89,6.22-8.23,9.11.15.36-5.1,6.24-8.88,11.18.13-.4-7.44,9-11.2,13.4l.06-.17c-.43,1.09-4.23,5.69-7.22,8.8,0-.28.46-.87,2-2.67-.9,1-1.83,2-2.79,2.92a12.51,12.51,0,0,1-1.2,1.31,14,14,0,0,1-2.32,1.85c.24-.23.45-.51.66-.75a9,9,0,0,1-1.6.94,2.08,2.08,0,0,1-1.46.21,1.52,1.52,0,0,1-.9-1.07,6.48,6.48,0,0,1-.27-1.93,33.35,33.35,0,0,1,1.63-9.21c-.13-.46-2.1,5.19-.36-2,.21-.23.5-.43,0,1.45a34.44,34.44,0,0,1,.91-3.41l-.58,2.9c1-3,.26-1.66,1-4.09.18.11.69-1.75.73-1.36-.17.63-.73,2.1-.93,3.05.84-2.74,2-6,2.51-7-.18.2-.25-.08.38-2.08,1.68-5.17.8-1.7,1.89-4.67.29-1.29,1.5-4.54,1.25-4.72a12.85,12.85,0,0,1,1-2.31c.4-1.35,1.34-4.5,2.06-6.94s1.12-4.19.54-2.7l-.22.69q0-.21.12-.45v0a131.68,131.68,0,0,0,3-13.88,18.47,18.47,0,0,0-.21-7.25,4.89,4.89,0,0,0-2.27-3,5.51,5.51,0,0,0-3.66-.39V.12a24.46,24.46,0,0,0-7.91,3.74,56.9,56.9,0,0,0-5.95,4.5c-1.28,1-3.09,2.26-2.63,1.72-3.17,2.73-3.46,3.11-8.09,7,3-2.92-1.19.84,3.15-2.94a106.57,106.57,0,0,0-9.26,8.37c1.28-1.54-3.22,2.53-5,4.35l2.9-2.46c-2.1,2-4,3.72-5.85,5.46l.79-1.19C660.31,36,654.57,42.86,647.84,48c-2,2.14,4.57-3.91,2.81-2-3.8,3.4-8.11,6.54-9.32,7.57-2.69,2.21-3.87,3.33-5.07,4.49a47.93,47.93,0,0,1-5.35,4.54c.81-.48,1.73-.74-2.57,2.63-4.15,3-5.4,3.19-2.81,1.3a7.89,7.89,0,0,1,1.47-1c1.3-1,3-2.34,1.3-1.24l-.46.49c-1,.71-3,2.06-4.55,3.07s-2.7,1.68-2.07,1.15c-3.17,2.11-1.26,1.06,1.14-.44-2.76,1.71-4.93,3-7.19,4.17a34.68,34.68,0,0,1-7.74,3c1-.19,2-.36,1,0a22.91,22.91,0,0,1-4.68.85c-.46,0-.8,0-1.06.07h-.61a5,5,0,0,1-1.12,0,8,8,0,0,1-2.88-.8c-1.55-.91-1.15-.92-1.15-1s-.06-.11-.44-.4a12,12,0,0,1-2.05-2.08,7.4,7.4,0,0,1-.86-1.53c-.09-.22,0-.18.13,0a20.2,20.2,0,0,0,1.49,1.82,16.33,16.33,0,0,1-3.4-7.14,49.35,49.35,0,0,1-1-6.25c.15,1,.36,2.08.57,3.1a44.47,44.47,0,0,1-.74-5c0,.61,0,1.22,0,1.82a18,18,0,0,1-.2-3.41c-.28-1.91-.31,1.52-.75-2.31,0-2.52-.31-7.67,0-8.55-.07,7.93.27-.87.42,5.82-.07-1.28-.09-2.86-.05-4.75,0-.29.07.27.08.78.34-7.57-.34-3.48-.15-11.37.15,1,.38-1.82.37-3.12-.08,3.19-.32,1.52-.4-1.41a68.37,68.37,0,0,0-.11-8.2c0,1,0,2,0,3.05-.2-1-.12-3.58-.59-7.14.14-.32.41,3.23.35,1.95q-.21-1.49-.45-3.15a15,15,0,0,0-.9-3.51,5.31,5.31,0,0,0-1.15-1.78,3.49,3.49,0,0,0-2.19-1,4.44,4.44,0,0,0-2.31.54,8,8,0,0,0-1.8,1.3c-1,.86-1.11.87-1.19.83s-.13-.11-.94.74c-2,2.51-2.88,3.91-3.89,5.31a49.33,49.33,0,0,0-3.5,5.74c1.14-1.5,1.23-1.82-.81,2.26,1.68-3.11,3.4-6.22,5.36-9.22-1.2,2-2.27,4-3.32,6a83.85,83.85,0,0,1,4.6-7.42c-1.73,2.8-1.55,2.5-.53,1.33-2.79,3.45-4.42,7.5-7.06,11.82l-.45-.42c-3.89,6.55-6,12.1-11,20.6L559.71,48c-.44,1.28-3,5.32-4.54,8.07,0-.35-1.11,1.3-2,2.36a26,26,0,0,1-1.94,3.07,36.2,36.2,0,0,0-2.41,3.68,38.25,38.25,0,0,1-3.07,3c-2.8,2.64-4.65,3.77-6.6,4.25a5.46,5.46,0,0,1-3.15-.19,6.87,6.87,0,0,1-1.72-1,10.67,10.67,0,0,1-1.69-1.81c.78.8.67.52.77.51s.15,0,.45.32a9.16,9.16,0,0,0,1.77,1.27c-1.93-1.13-3-3.16-3.17-3.07a41.06,41.06,0,0,1-2-3.74,25.45,25.45,0,0,1-1.7-4.66,19,19,0,0,1-1.42-4c0-.31.1,0,.1,0s-1.19-4.32-.82-1.84c-1.26-7.77-4.29-21.57-5.59-28.35-1.44-5.4-3.55-11.95-6.65-16.21.24.24.09-.05.63.78a13.36,13.36,0,0,0-2.44-3,8.38,8.38,0,0,0-1.74-1.21,14.75,14.75,0,0,0-2.11-.91,10.34,10.34,0,0,0-4.35-.56c-1.05,0-1.31.1-1.15,0a5.79,5.79,0,0,1,1.41-.27c1.32-.15,2.84.14,1.51-.08a2.28,2.28,0,0,0-.8-.21,7.64,7.64,0,0,0-1.42,0A12.49,12.49,0,0,0,500,5.46a39.86,39.86,0,0,0-7.53,5.48c.31-.32.61-.63.94-.93-3.28,2.65-6.84,7.48-10.82,12.87,0,0,.15-.3-.05-.09-2.49,3.87-7.22,11.12-10.62,16.59.88-1.82,1.48-2.53.6-1.64-1.54,2.44.8-.49-2.26,4.38-1.13,1.5-3.47,4.93-4,5.24l2.92-4.57c-1.8,2.15-3.78,5.92-5.39,8.28l.07-.39c-2.25,3.49-3.31,5.31-4.45,7.17s-2.31,3.8-4.93,7.41l.64-.68a22.36,22.36,0,0,1-2.6,3.65,38.84,38.84,0,0,0-2.75,3.52l-1.24.88a68.15,68.15,0,0,1-4.92,5.67,27.7,27.7,0,0,1-7.42,5.64A30.58,30.58,0,0,0,441.55,80a51.57,51.57,0,0,0,5-5.35,62.39,62.39,0,0,1-4.72,4.78,38.93,38.93,0,0,1-4.36,3.4c1.08-.63,2.3-1.64,3.3-2.37a18.53,18.53,0,0,1-5.47,3.72,11,11,0,0,1-3.83.89,8.57,8.57,0,0,1-4.23-1c.33-.07-.43-.47-1.55-1.44A19.14,19.14,0,0,1,422,78a40.08,40.08,0,0,1-4.37-11.72,154.08,154.08,0,0,1-4-16.47c-1.16-5.7-2.23-11.67-4-18.06.33,2.34.07,1.41-.32,0s-1-3.24-1.15-2.76c-1-2.92-1.45-4-1.51-4.28a32.44,32.44,0,0,0-1.89-4.33,15.57,15.57,0,0,0-2.88-3.94c-.87-.84-.22-.38.58.33s1.55,1.76,1.52,1.6a14,14,0,0,0-2.5-2.69c-.56-.47-.85-.64-1-.81a3.22,3.22,0,0,0-.7-.49,6.6,6.6,0,0,0-2.39-.79c.28.08.23.12-.06.14a13.1,13.1,0,0,0-1.52,0,12.13,12.13,0,0,0-5.15,1.86,10.72,10.72,0,0,1,5.78-1.6,9.33,9.33,0,0,0-3.35.74,14.78,14.78,0,0,0-2.23,1.14,28.92,28.92,0,0,0-2.9,2.08,28.38,28.38,0,0,0-5.92,6.8c.53-.86,1.09-1.71,1.67-2.55a101.16,101.16,0,0,0-6.37,9.57,101.5,101.5,0,0,0-5.29,10c-.47.72-1.17,1.63-.17-.26-2.84,5.05-5.74,10.79-8.68,16.12a87.18,87.18,0,0,1-8.79,13.64l.41-.77a25.62,25.62,0,0,1-4,4.81c.05-.14.49-.68-.2,0A18.46,18.46,0,0,1,348,77.58a8.06,8.06,0,0,1-4.05,1.6,7.25,7.25,0,0,0,2-.67,6.2,6.2,0,0,1-6-.68,14.11,14.11,0,0,1-3.77-4.5,50.19,50.19,0,0,1-4.54-11.59c.21-.05-.21-2.21-.74-4.91s-1.19-6-1.63-8.13l.1.13a171.21,171.21,0,0,0-4.4-17.13,66.71,66.71,0,0,0-3-7.77,29.32,29.32,0,0,0-4.83-7.52A12.82,12.82,0,0,0,314.54,14a11.48,11.48,0,0,0-4-1.91,12,12,0,0,0-5.12-.13,17.74,17.74,0,0,0-5.1,1.84,40.72,40.72,0,0,0-8.74,6.56c-2.61,2.45-4.92,5-7,7.3,1.28-1.37.05.44-1.29,2.15-1.9,2.15-4.64,6.4-4.68,5.8l.62-.81c-1.64,1.46-5.06,6.25-7.72,10v.92c-3.8,4.64-8.21,11.1-12.36,16.9s-8.12,10.87-10.54,13a69.62,69.62,0,0,1-6.26,6.68l-.08-.32c-3,2.48-5.44,4.06-8.22,4.84a8.29,8.29,0,0,1-4.4.07,9,9,0,0,1-4.52-3.19,11.7,11.7,0,0,0,1.37,1.18,27.51,27.51,0,0,1-3.65-4.44,20,20,0,0,1-2.54-5.2l0-1.58a106,106,0,0,1-2.8-14.19c-.7-4.79-1.3-9.61-2.09-14.35a5.47,5.47,0,0,1,.45,2c-.28-2.27-.75-6.67-1.26-10.29s-1.06-6.46-1.21-5.59c.17-.09-.21-2.58-.91-5.69a57.59,57.59,0,0,0-2.88-9.28l.55.69a29.63,29.63,0,0,0-2.37-4.28,17.91,17.91,0,0,0-1.49-2,10,10,0,0,0-3.05-2.42c-.72-.35-1-.51-.92-.5a1.17,1.17,0,0,1,.51.14,5.46,5.46,0,0,1,1.11.58,6.57,6.57,0,0,0-2.83-1.07,4.48,4.48,0,0,0-1-.06,5.17,5.17,0,0,0-.89.08,11.07,11.07,0,0,0-2,.51,15.34,15.34,0,0,0-3.13,1.52A15.07,15.07,0,0,1,196,8.16a14.47,14.47,0,0,0-2.62,1.52,12.52,12.52,0,0,0-1.33,1.08,22.81,22.81,0,0,0-2,2.11c-1.11,1.15-2.74,2.92-4.1,4.52s-2.52,3-2.84,3.19A56.13,56.13,0,0,1,179.64,26c-.31.28.25-.65.54-1.12-4.88,6.9-6.52,10.7-9.8,15.47a2.41,2.41,0,0,0-.65.74c3.49-5.69,6.39-10.23,6.14-9.79-.22-.15-3.14,4.41-1.15.58-2.17,3.77-5.65,10.32-8.52,14.72-.15.2-.31.4-.44.54l.26-.48c-.66,1-1.21,2-1.72,2.84l-2.39,3.62c-.5.42-3.44,5.1-5,7.26.36,0-1.7,2.81.38.27a19.91,19.91,0,0,1,1.27-1.9c.22-.34.48-.73.62-1l-.09.16c1-1.46,2.24-3.37,3.64-5.58a46,46,0,0,1-3.92,6.16c-.62,1.23-1.34,2.58-1.77,3.32-1.22,1.38-2.95,3.44-4.54,5.15A27,27,0,0,1,149,70.33a27.76,27.76,0,0,1-4.76,4.13,10,10,0,0,1-5.78,1.91A7.08,7.08,0,0,1,133.64,74a20.4,20.4,0,0,1-2.67-3.8,10.15,10.15,0,0,1-1-3.34,23.55,23.55,0,0,0,1.39,3.3A41.56,41.56,0,0,1,128.64,62c-.71-2.9-1.2-5.41-1.49-5.93-.81-5.81.87,3.2-.51-4.75l.29,1.06a161.49,161.49,0,0,0-3.75-20.79c-.83-3.26-1.78-6.54-3-10a46,46,0,0,0-5.38-10.86,10.68,10.68,0,0,1,1.13,1.8,23.32,23.32,0,0,0-5.11-5.81,18.68,18.68,0,0,0-7.06-3.48c-5.17-1.31-10.59-.55-15.56.95A75.66,75.66,0,0,0,74,10.35c-4.49,2.47-8.77,5.2-12.91,8a58.92,58.92,0,0,0-7.6,6.05l-1.16.51c-1.46,1.33-2.93,2.63-4.37,4C41.69,34.39,36.43,37.68,29,45.28l1.13-.79c-2.81,2.56-8.59,8.41-8.3,7.81a13.18,13.18,0,0,1-1.86,2l-.2,0c-2.14,2.25-4.28,4.51-6.38,6.8-5.14,5.09.32-1.27-7,6.31C3.74,70.25-.92,75.81.16,74.8A22.77,22.77,0,0,1,3.2,72L.8,74.62c-.1.79-1.64,3.11,4.62-3.06l4-4.62L11,65.67,7.41,69.4a43.69,43.69,0,0,0,4.67-5,14.54,14.54,0,0,0,2-1.66L18,58.14c.64-.38-1.66,2.15,1.27-.62,1.85-2.13-2.2,1.62,1-1.77A27.27,27.27,0,0,0,24.31,52c.43-.25,0,.31-1,1.29,1-1.11,2.48-2.53,3.78-3.83a42.76,42.76,0,0,0,3-3.09c2.37-1.92,7.52-7.06,7.61-6.52.64-.72,3.77-3.85,5.9-5.68-1.77,1.88.21.15,2.58-1.84,1.19-1,2.48-2,3.42-2.78s1.56-1.11,1.39-.79c.66-.68,1.65-1.58,2.84-2.58S56.45,24.1,58,23c3-2.28,6.39-4.68,9.12-6.61a12.33,12.33,0,0,1-1.36,1C68.87,15.3,69.9,14.88,72,13.7a13.6,13.6,0,0,1,3-2.22c.83-.49,1.71-1.05,2.58-1.54S79.33,9,80,8.59c2.18-.77,1.58-.38.64.17s-2.22,1.32-1.49,1.16c-.18-.1,1.57-1.05,3.21-1.83s3.18-1.41,2.4-1.26c3.37-1,2.88-.91,4.68-1.08.46-.65,3.09-.94,5.88-1.54l1.49,0c.39,0,.67.05.89.07.43,0,.6.09.79.12s.39.06.88.1,1.26,0,2.57.25c.62.13.77.26.68.26s-.43,0-.87-.07-.92-.1-1.32-.12ZM168.41,46.3h0L167,48.68C167.27,48.18,167.69,47.5,168.41,46.3Zm5.92-9.62-2.58,4.16c-.29.29-.15-.13.45-1.09A36.26,36.26,0,0,0,174.33,36.68ZM160,55.89a14.37,14.37,0,0,1,1.49-2.16l-1.68,2.63-.08.19A2.67,2.67,0,0,1,160,55.89Z" transform="translate(0 -0.08)"/><path class="cls-1" d="M158.55,58.75l-.4.61.65-.83c.1-.2.2-.4.28-.58Z" transform="translate(0 -0.08)"/><path class="cls-1" d="M709.78,24.49l.07-.23a4.61,4.61,0,0,1-.17.47A1.58,1.58,0,0,1,709.78,24.49Z" transform="translate(0 -0.08)"/><polygon class="cls-1" points="251.93 75.57 251.87 75.54 251.27 76.33 251.93 75.57"/><path class="cls-1" d="M709.13,64.36a4.67,4.67,0,0,0,.6-.57S709.44,64.06,709.13,64.36Z" transform="translate(0 -0.08)"/><path class="cls-1" d="M726.19,43.56l2.47-2.88C727.58,41.91,726.8,42.82,726.19,43.56Z" transform="translate(0 -0.08)"/><path class="cls-1" d="M739.68,28a2,2,0,0,0,.19-.38l0,0Z" transform="translate(0 -0.08)"/><path class="cls-1" d="M588,24.34c0-.27,0-.54,0-.78C587.84,21.72,587.92,23,588,24.34Z" transform="translate(0 -0.08)"/><path class="cls-1" d="M635.81,60.23c-.77.69-1.54,1.38-2.37,2.08A10.27,10.27,0,0,0,635.81,60.23Z" transform="translate(0 -0.08)"/><path class="cls-1" d="M527,62h0l-.22-.66Z" transform="translate(0 -0.08)"/><path class="cls-1" d="M629.83,65.09c1.42-1,2.57-1.91,3.61-2.78C632.31,63.18,631,64.19,629.83,65.09Z" transform="translate(0 -0.08)"/><path class="cls-1" d="M802.46,35.89l.29,1s0,0,.08.1Z" transform="translate(0 -0.08)"/><path class="cls-1" d="M802.83,36.94l.36,1A10.22,10.22,0,0,0,802.83,36.94Z" transform="translate(0 -0.08)"/><path class="cls-1" d="M803.92,40.17l-.73-2.2A21.72,21.72,0,0,0,803.92,40.17Z" transform="translate(0 -0.08)"/><path class="cls-1" d="M790.33,11.94l-.28-.16C790.17,11.89,790.27,12,790.33,11.94Z" transform="translate(0 -0.08)"/><path class="cls-1" d="M784.12,6.85a28.81,28.81,0,0,1,5.7,4.8c.07,0,.16.08.23.13-.49-.41-1.46-1.53-2.61-2.58A14,14,0,0,0,784.12,6.85Z" transform="translate(0 -0.08)"/><path class="cls-1" d="M752.65,13.79c1.83-1.45,3.72-2.83,5.68-4.11-1.08.6-2.5,1.39.14-.43a35,35,0,0,0-3,2c-.3.23-.11.13.09,0s.38-.16.06.13S754.44,12.35,752.65,13.79Z" transform="translate(0 -0.08)"/><path class="cls-1" d="M737,28.81c2.48-2.81-.15-.08-.06-.26C735.46,30.39,735.1,30.83,737,28.81Z" transform="translate(0 -0.08)"/><path class="cls-1" d="M688.82,11l.12-.44C686.74,12.45,689,10.67,688.82,11Z" transform="translate(0 -0.08)"/><polygon class="cls-1" points="667.57 31.95 669.73 30.14 670.54 29.06 667.57 31.95"/><polygon class="cls-1" points="653.45 42.63 654.35 41.75 650.87 45.07 653.45 42.63"/><path class="cls-1" d="M522.71,31.72l-.12.92C523.05,34.54,523.48,34.87,522.71,31.72Z" transform="translate(0 -0.08)"/><path class="cls-1" d="M455,64.34a53.62,53.62,0,0,0-3.87,5C452.65,67.39,454.23,65.41,455,64.34Z" transform="translate(0 -0.08)"/><polygon class="cls-1" points="267.9 49.98 269.13 48.06 266.72 51.61 267.9 49.98"/></g></g></g></svg>