<svg xmlns="http://www.w3.org/2000/svg" viewBox="0 0 329.77 997.69"><defs><style>.cls-1{fill:#4d4d4d;}.cls-2{opacity:0.3;}</style></defs><g id="Layer_2" data-name="Layer 2"><g id="Layer_1-2" data-name="Layer 1"><g id="sketch-right-rock"><g id="sketch"><g id="sketch-right"><path class="cls-1" d="M83.63,994c1.27.19.6-.08-2.87-1.06-.83-.18-1.68-.34-2.52-.55.88.33,1.78.6,2.66.91Z"/><path class="cls-1" d="M63.3,981.53c-1.55-1.39-3.15-3-4.14-4s-1.47-1.29-.7-.16l1.86,1.89,1.5,1.46c.46.47,1,.91,1.58,1.42a25.8,25.8,0,0,0,2.21,1.76C67,985.1,68.21,986,69,986.7s1.22,1,.93.86c.28.16.7.44,1.21.79s1.14.69,1.77,1.08a19.57,19.57,0,0,0,1.93,1,12.82,12.82,0,0,0,1.67.7A63.16,63.16,0,0,1,63,981.51C62.06,980.55,63,981.37,63.3,981.53Z"/><path class="cls-1" d="M7.75,644.21v2.24C7.73,645.84,7.74,645.07,7.75,644.21Z"/><path class="cls-1" d="M13.66,429.26a19.22,19.22,0,0,0,0,2.4A19.22,19.22,0,0,0,13.66,429.26Z"/><path class="cls-1" d="M15.9,392.6c-.05.79-.09,1.45-.14,2.16C15.84,393.94,15.9,393.16,15.9,392.6Z"/><path class="cls-1" d="M7.75,644.21l.1-5.75C7.74,638.06,7.78,641.41,7.75,644.21Z"/><path class="cls-1" d="M38.45,940.82c.45,1.13.85,2,1.22,2.89L38.57,941A.57.57,0,0,1,38.45,940.82Z"/><path class="cls-1" d="M10,739l.07,1.75c.07.5.13,1,.2,1.44Z"/><path class="cls-1" d="M15,811.52a9.07,9.07,0,0,0-.66-2.81,33.23,33.23,0,0,1,.53,3.56A3.07,3.07,0,0,0,15,811.52Z"/><path class="cls-1" d="M34.31,925l.69,1.9C34.78,926.43,34.5,925.57,34.31,925Z"/><path class="cls-1" d="M8.51,686.92a3.74,3.74,0,0,0,.09-.66A3.84,3.84,0,0,0,8.51,686.92Z"/><path class="cls-1" d="M168.16,997.52h0C167.73,997.51,167.6,997.53,168.16,997.52Z"/><path class="cls-1" d="M83.79,993.28l1.16.21c.13,0,.27-.06.28-.11Z"/><path class="cls-1" d="M20.08,325.54v.29C20,327.6,20,326.59,20.08,325.54Z"/><path class="cls-1" d="M314.31,93.12c.15-7,.49,11.37.61.84C314.83,95,314.35,84.41,314.31,93.12Z"/><path class="cls-1" d="M37.84,939c-.34-.92-.71-1.86-1-2.81C37.25,937.51,37.59,938.37,37.84,939Z"/><path class="cls-1" d="M314.92,94h0V92.87C314.93,93.32,314.93,93.58,314.92,94Z"/><path class="cls-1" d="M30.64,171.16c-.09.31-.21.92-.33,1.55A10.17,10.17,0,0,0,30.64,171.16Z"/><path class="cls-1" d="M21.87,286.08l.2-2.85C22,284.39,21.92,285.27,21.87,286.08Z"/><path class="cls-1" d="M42,112.55c.43-1.49.64-2,1.2-4l-.21.61C42.79,109.89,42.5,110.86,42,112.55Z"/><path class="cls-1" d="M66.53,55.71c-.19.27-.44.63-.65,1l-1,1.67Z"/><path class="cls-1" d="M329.43,960c-.06,1.37-.14,2.22-.21,2.87C329.4,962,329.61,971.11,329.43,960Z"/><path class="cls-1" d="M38.59,940.74a10.82,10.82,0,0,1-.75-1.71c.25.67.49,1.32.73,2C38.67,941.14,38.72,941.16,38.59,940.74Z"/><path class="cls-1" d="M40.56,109.5q1.42-4.77,3-9.49C42.66,102.64,41.56,106.08,40.56,109.5Z"/><path class="cls-1" d="M322.8,512.83l.07,2.27C322.86,514.23,322.84,513.42,322.8,512.83Z"/><path class="cls-1" d="M54.6,72.58l2.7-4.94c.17-.37.37-.8.46-1C56.7,68.57,55.6,70.55,54.6,72.58Z"/><path class="cls-1" d="M289.7,993c9.45-.5,4.42-.6,6.41-.92,11.27-.74,5.23,0,9.08-.05,7-.5,12.41-1.16,17.66-1.45.4,0,1.42,0,.23.13l3.09-.26,2.25-.17.77-.06h.58v-1.77c0-2.65-.1-5.57-.16-8.51-.09-5.67-.2-11.5-.45-15.83a8.59,8.59,0,0,1,.08-1.13c-.17,1.4-.35,1.62-.49,1.34-.07-4.23-.35-7.85-.13-9.45a38,38,0,0,0,.22,4l-.17-4.43c.29-4,.21,6.05.47,6.05-.24-8.64-.68-18.71-.68-25.34.32-1.38.34,15.49.52,6.65V952c.42-7.85,0,6.22.52-1-.1-13.49-.4-15.08-.5-28.54-.23-3-.26,1-.49-2-.62-19.12.63-15.06,0-29.11a106.72,106.72,0,0,1-.65-15.06l.43,3.41c-.15-13.06-.66-7.45-.6-21.12.19,2.42.28,10.25.29,8.28.18-8.87-.31-6.27-.41-13.07l.32-1.42c-.31-13.9-.66-29.22-1-44.62.12.86.26,3.5.31-.11-.45-19.42-.57-41.45-.64-60.19l-.4-7.15c0-1.66.09-3.09.17-1.29,0-7.3-.19-.37-.36-3.88-.08-4.15.09-5.49.22-2.86-.44-12.88-1.08-36.69-1-50.26l.12,2.64c0-10.57-.78-11.92-.65-21.72l.08,1.88c-.21-23-.85-48.29-.66-65.79-.48-3.33-.15-22.72-.76-24.18.1-13.1.26-9.35.18-27.8,0-4.93-.47-7.34-.62-13.43l.3-.15-.44-8.27.3-4.41-.16-5.71a28.18,28.18,0,0,1-.16,4.5c-.14-4.47-.17-9.9-.14-14.25,0-2.18.06-4.09.07-5.45a21.77,21.77,0,0,1,.12-2.28l-.58-21.11c.13.47.23,4,.35,6.79-.48-11.25.29-2-.15-12.37-.05,1.39-.19-.74-.26-1,.11-5.15-.06-16.86-.26-25.54l.23,1.66c-.26-15.66-.55-33-.84-50.58,0,6.31-.4,4.86-.51-.29l.25-2c-.25-3.32,0,5.39-.39-1.44-.06-6.57.3-4.42.46-.65l-.23-8c.09-.46.17,1.41.3,1.89-.25-3.26.13-13.78-.29-18.5l.09-.45c-.32-17.56-.46-25.53-.71-39.84-.29-.28-.31-5.88-.6-10.14-.07-10.52,0-22.2-.23-34.87-.27-8.9-.27-2.59-.5-6.59.25-.66,0-13.32.32-6.76-.27-15.21-.34-19.42-.83-38.66-.08,2.1-.09,4.44-.19,3.22a54.26,54.26,0,0,1,.12-7.44v.93c-.7-21.6,0-49.85-.78-67l0,1L317,142c-.07-8.21.27,4.92.34-1.16-.71-19.23-.39-30.39-.91-46.22.58-12.28-.69-43.5-.45-60.06l-.16,1c-.24-4.28,0-5.18,0-8.33-.14.45-.1,4.64-.23,2-.05-2.33-.09-4.67-.14-7V20.45l-.36-.06-.73-.13-2.16-.39-3.4-.61-13.71-2.34q-13.78-2.3-27.8-4.42c-18.66-2.81-37.49-5.3-56.06-7.09a87.92,87.92,0,0,0-11.12-.55c-2.39,0-5.21-.1-13.78-.82h4.89c-13.75-.69-27.84-1.16-41.88-.59a160.9,160.9,0,0,0-20.9,2.15l-5.13,1.1c-1.68.5-3.36,1-5,1.51l-2.44,1a23.5,23.5,0,0,0-2.38,1c-1.52.8-3.07,1.51-4.53,2.38a30.27,30.27,0,0,1,3.76-2.13,81.84,81.84,0,0,0-11.17,6.23c-1.9,1.29-3.65,2.51-4.86,3.49a17.35,17.35,0,0,0-2,1.63c-3.33,2.61-.87.46-3,2-1.15.87-2.36,2-3.63,3.05s-2.46,2.34-3.64,3.47l-3.15,3.26c-.9,1-1.68,1.78-2.24,2.3a23.71,23.71,0,0,1,1.75-2l-2.82,3c-1.14,1.35-2.46,2.78-3.52,4.14C72.3,43.74,70.84,45.8,72,44.45a118.64,118.64,0,0,0-8.28,12c-2.43,3.91-4.52,7.71-6.47,11.25C56.2,70.1,54.21,74,52.61,77.49a50.22,50.22,0,0,0-3,7.58c-.07-.43-1.86,3.64-3.68,8.65s-3.65,11-4.47,14c.48-2.1-1.72,5.29-1.19,2.83-2,7-3.5,13.54-3,12.36-3.79,13-5.23,26.48-7.09,33.83C27,178.17,25.3,198.12,24,217.54c-.2-.37.16-5.73.57-10.9s.85-10.14.58-9.74c-1.47,18.4-1.7,29-2.79,47.29-.3,4.73-.06-2.69,0-4.29-.4,9.2-.82,18.09-1.27,26.72s-1,17-1.31,25.18a10.65,10.65,0,0,1,0-1.13c0-.66,0-1.52.08-2.35-.17,3.23-.51,7.49-.28,7.14l.13-3.14c.6-5.13-.14,12.83,0,13.41-.26-5.5-1.12,16.14-1.34,7.41-.09,2.13-.15,4.79,0,4.31-.23,3.15-.37,4.15-.34.94-.57,11.56-.11,7.47-.73,18-.1,0,0-2.15-.07-3.24-.12,5.31-.24,10.64-.83,19.47,0-.53-.17.49,0-2.15-.85,15.18-1,25.95-2,42.55-.17-4.94-.45,5.66-.86,6.53l-.36,9,.37-3.58c-.42,7.84-.49,14.8-1,21.53l.14-5.83L12,435.23l.55-8.31c-.2,8,.51-.83-.1,9.61.06-2.12-.37,7.85-.78,12h0c-.06,3.89-.11,7.89-.45,13.69-.19,1.5-.36-1.23-.48-.25.14,3.84-.69,18.39-.54,23.25,0-1.62-.21-1.71-.27-1.18l.13,3.22c-.22,3.64-.28,4.17-.42,3.58-.45,11,.6-3.47-.08,9.52v-2.67c-.56,13-.69,25.14-1.16,37.12-.48,3.54.21-10.47-.22-6.43-.46,17.29-.52,35.8-.9,52.53l.1-3.11c.48,2.33-.48,12.46-.33,21,0-2.07-.26-2.72-.21-2.16-.23,11.46-.14,23.43,0,40.8l-.14-2.15c-.13,6.75,0,17.78,0,25.08.15,2.16.17,6.33.35,3.8C6.48,686.62,8.13,707,8.22,727c-.09-2.38-.32-5.67-.25-3.78l.79,17a56.31,56.31,0,0,0,.08-5.81c.22,2.14.53,7,.73,11.15-.5-7.64-.37.08-.33,3.38,0-.55.17.57.23.29,0,8.89.52,1.46.92,13.58l-.16-.63c.32,4.52.74,8.69,1,13.57-.14,2-.45-4.81-.68-5.11.45,6.84,1.45,13.47,1.62,19.74-.31-2.9-.6-7.09-.89-10,.17,6.79.31,7.57.66,12.58v-.48l.83,11.6-.18-3c1.43,8.5,1.7,17.43,3.46,28.94-1.67-11.15-.47-1.82-.86-2.65.24,3,.67,7.44.44,6.17.89,5.42.89,9.11,2.29,16.73-.06.36.81,5.81.39,4.61,1.1,7-.08-1.68.14-1.1,1.86,10.81,3.47,25.6,7.21,41,1.53,6.64,2.6,10.54,3.66,14.31s2.13,7.4,4,13.44c1,4.13-1.31-3.26-1.31-3.26a171.23,171.23,0,0,0,5.59,17.69c-.51-1.22-.14.09.45,2a39.94,39.94,0,0,0,1.73,4.1c.44,1,1,2.16,2.22,5.36-.54-1.05-1.32-2.37-2.33-4.68a159.27,159.27,0,0,0,8.06,16.76c.32.78-.19,0-.93-1.29s-1.64-3-2.16-4c1.59,3.21,3.78,7.31,5.91,10.74a57.21,57.21,0,0,0,5,7c-.89-1.24-1.72-2.54-2.54-3.83,1.47,2.16.56,1.25-.56-.33-3.48-5.08-4.39-7.69-4.49-8,.72,1.33,1.49,2.63,2.27,3.92-.95-2.14-3.15-6.1-5.4-10.68a151.89,151.89,0,0,1-6.13-14c.56,1.14,1.17,2.27,1.75,3.4-1.24-2.86-2.44-5.73-3.55-8.65-.55-1.91-.77-3.26.76,1-1-3.11-1.46-4.47-1.9-5.73a52.81,52.81,0,0,1-1.55-5.11c-.15-.59-.05-.33.14.2-.67-2-1.28-4-1.91-6.06.42,1.17,0-1.1,1,2.67-2.94-11-5-17.75-5.64-22l.24.93c-.91-3.87-1.39-5.88-1.64-6.93s-.31-1.1-.35-1-.11.76-1.45-5c-.28-2.66-.52-5.33-.76-8l-.58-1.49c-.28-1.6-.82-4.8-.59-4.23-1.22-6,0,1.05-.74-2.4-1.08-7.81-3.44-21.46-3.16-23.28-.61-2.78.82,7.48-.45-.83.18-2.45-1.35-9.63-1.93-16.81.5,2.17,1.19,9,.57,1.77-1-4.26-1.44-14-2.1-20-.39-.25-1.39-13.13-2.27-23.27.14.63-1.2-19.13-1.56-28.6l.08.28c-.47-1.81-.94-11.57-1.32-18.68.23.27.38,1.54.66,5.39l-.32-6.68c-.19-1.57-.33-3.66-.56-8l.32,1.58c-.38-8.89-1-17.9-1.13-29.36-.27-.64-.47,9.13-1-3,.13-.45.36-.91.49,2.26,0-1-.21-3.7-.2-5.79l.35,4.83c0-5.21-.26-2.72-.34-6.89.2.07.08-3.09.25-2.5,0,1.06,0,3.64.11,5.23-.07-4.7-.07-10.38,0-12.27-.11.42-.27,0-.36-3.43-.15-8.9.19-3.06.22-8.25-.16-2.15-.1-7.84-.39-8a31.18,31.18,0,0,1,.18-4.1C8,658.6,8,641.64,7.71,646.83v.43h0c-.34-15.1.2-31.38.26-46.37h.09c0-9,.22-20,.13-26.3.05-2.65.31-6.25.4-5.11.07-6.84,0-7.6.37-17.48,0,6.88.21-2.37,0,7,.3-8.89.5-10.9.49-20.44.16,3.26.51-6.67.56-10.9l-.36,6.21c.1-4.74.25-8.89.4-13.11l.27,2.3c1-18.16.43-32.8,1.67-46.61,0-4.81-.56,9.86-.66,5.55.37-8.36,1.22-17.05,1.34-19.66.68-11.44,0-10.7.66-22.68-.19,1.53-.58,3-.27-6,.45-8.36,1-10.26.84-5a23.11,23.11,0,0,1-.21,2.88c-.09,2.71-.21,6.25.08,2.95l-.07-1.09c.32-4.14.88-15.65.94-13,.2-6.33-.06-2.72-.36,2,.71-10.71.85-16.74,1.55-27.78-.15,1.76-.38,3.36-.28,1.62,1-16.18.15-7.14.7-18.11.53-6.22.3,2.25.77-8.8.5-6.73.39-1.4.34,1.28.34-10.07,1.22-18.78,1.6-24.53l-.22,5.31c.13-3.17.28-5.77.44-8.41l-.42,3c.23-3.11.38-5.73.48-5.67,0-3.22-.54,2.43-.38-3.95.36-4.14.62-12.63,1-14.05-.88,13,.4-1.41-.2,9.62.08-2.13.24-4.73.47-7.84.06-.47,0,.44,0,1.3,1-12.47,0-5.76.77-18.69.08,1.65.52-3,.6-5.09-.31,5.21-.44,2.47-.29-2.32.63-8.28.43-9,.71-13.36l-.36,5c-.08-1.69.19-5.84.47-11.61.17-.49-.21,5.24,0,3.19.07-6.44,1.17-14.49,1.39-23.46.32-4.14.35-.39.61-4,.27-10,.77-10.86,1.17-21.41-.41,3-.39,3.55-.18-3.87l-.78,17.33.24-11.14c-.3,5.24-.44,11-.63,14.18.07-5.31.1-4.76-.22-2.27.72-7.14.52-14.21,1.28-22.46l.57.29c1.08-12.4,1.17-22.09,3-38.16l-.63,5.16c0-2.19,1-9.93,1.53-15.14.15.51.6-2.73,1-4.93-.09.13.28-2.8.71-6,.38-2.4.65-4.83.79-7.26.46-2.36.92-4.72,1.42-7.08,1.15-6.41,1.73-10.08,2.32-13.7s1.19-7.16,2.68-13.26c-.66,3.73.76-1.78-1,6.43l1.25-5.41A14.28,14.28,0,0,0,39,124c.66-2.36,2.65-11.3,4-15a51.8,51.8,0,0,1,1.82-6.81c.2-.48.09,0,.09,0s2.21-7,.7-3.19c1.17-3,2.57-6.62,4.09-10.49s3.25-8,5.11-12a133.78,133.78,0,0,1,11.1-20.1c2.41-3.87,5.24-8,8.24-12a134.72,134.72,0,0,1,9.07-10.47,5.69,5.69,0,0,1-1,1.19c4-4,5.28-5.26,6.6-6.7a56.41,56.41,0,0,1,8-6.6c2.78-1.82,1.4-.77-.23.44s-3.45,2.72-1.8,1.47a21.86,21.86,0,0,0,2.83-1.8l2.33-1.7,2.79-1.91a79.6,79.6,0,0,1,12.94-7.08c-.64.24-1.25.62-1.88.93,1.5-.77,3.22-1.31,5-2.09.92-.36,1.94-.6,3-.94a27.41,27.41,0,0,1,3.2-.9c2.23-.52,4.58-1.1,7.1-1.46,1.26-.19,2.53-.45,3.85-.58l4-.41S139.48,6,140,6a142.86,142.86,0,0,1,14.9-1.19c2.9-.1,5.9-.14,8.84-.18s5.8,0,8.44.06c-3.29.17-4.8.06-2.8.33,4.73.06-1.38-.48,8.07-.25,3.06.24,9.86.73,10.75,1.06l-8.9-.44c2.27.29,5.15.43,8,.54s5.81.26,8.15.43l-.61.11c6.81.48,10.27.65,13.85.88s7.29.46,14.59,1.24l-1.5-.28c8,.48,6.67.92,14.65,1.57l2.36.68c5.26.52,18.44,1.93,27.85,3.24-5.36-.5-16.39-1.85-23.23-2.52,5.21.63,17.68,2.3,20.41,2.51-2.1-.27-4.75-.53-6.81-.88,6.42.56,14.83,1.62,25.16,3.22-1,.23,5.75,1.32,13.63,2.66,4,.66,8.17,1.4,11.87,2.08,1.85.35,3.57.69,5.06,1L313,22h.11l.21.06c.05,0,.14,0,.17.07v1.36c.55,18.47.41,36.64.78,58.16.48-7.65.11,6.27.7,5,.11,5,.13,6.92.1,7.37l-.15,15.19c-.12,3.6-.2-4.76-.33-4.3.11,11-.19,4.61-.25,11.87.2-1.5.37,3.81.38,10.07l.15-8.81c.55,15.33-.31,13.25.23,28.71l-.26-4.89c.23,7.93.43,29.26,1,37,0,1.41-.19,3.26-.28-.23.2,19,1.14,42.18,1.06,56.88l-.17-1.44c.09,3.53.37,6.15.28,10.58-.06-.23-.17-1.42-.15.22.08,1.86.4,9.39.38,14.07l-.23-4c.08,18.49.83,28.37,1.16,43.9-.44,0-.37,14.52-.33,21.78l-.07-.25c.26,21.53.9,36.56,1.37,56.5-.29,12.37.42,41.91.44,61.81,0-3.05.35.49.45,4,0,4.67.5,12.89.08,12.16v-1.66c-.34,3.52-.09,13.11,0,20.6l.54,1.23c-.48,19.6,1,51.32.51,62,.15,4.73.34,10.58.49,15.27l-.29-.25c.12,13.1.18,19.63.49,35.82l-.25-3.29c.11,9.13,1,11.51,1.12,20l-.38,2.55c.24,16,.11,32.06.72,47.8a15.25,15.25,0,0,1-.25-3.3c.1,7.49.14,29,.68,26.27-.18.1-.13,4.21,0,9.37s.36,11.37.5,15.67l-.3-1.33c.47,7.25.57,7.48.81,17.62,0,2.41-.19,2.11-.16-1.09,0,8,.35,6.24.35,16l-.23-3.61c.1,8.24.18,7.58.46,12.11.18,5.18.16,15.64-.08,16.86a104.62,104.62,0,0,1,.44,10.47c-.08.66-.17-1.1-.21-2,0,13.78.63,20.48.49,29.93a6.66,6.66,0,0,0-.14,1.6c-.16-11-.27-19.76-.24-19-.25,0-.17,8.84-.63,1.82.3,7.09.9,19.22.91,27.84a5.1,5.1,0,0,1-.08,1.15v-.9c0,2,.06,3.77.12,5.45v7.13c-.2,1,0,10.15.09,14.55.28-.37.32,5.41.47,0,0,.7,0-.84-.1-3.77,0-.66-.05-1.44-.06-1.88v.3c0-2.89-.11-6.66-.18-11,.19,3.49.37,7.12.28,12,.2,2.26.42,4.75.55,6.15-.31,6-.35,17.67-.56,19.3.35,13.45.57,31.7,1.22,40.16a43.67,43.67,0,0,1-.15,5.83c-.08-2.21-.11-4.83-.21-6,.25,7.64.39,22.67.78,24.49,0,9.65-.41-5.41-.16,7.84l-.14-1.79c-.1,13,.29,23.64.67,34.58.18,5.47.37,11,.48,17,0,1.49,0,3,.08,4.59v3.39h-.66l-4.85.23-5.29.2c2-.07,3-.11,3.42-.07-33,1.64-67.93,4.06-100.51,4.79-9.26.24-10.26.52-15.9.88l-2-.23-9.65.65c-13.69.64-23.73-.08-41.07.58l2.24.18c-6.23.07-19.74.2-18.69,0a31.91,31.91,0,0,1-4.48.08l-.19-.16h-15.3c-5.93-.24-5.45-.43-5.67-.56s-.38-.16-1.7-.28l-8-.57c-3.2-.2-7.75-.52-11.18-.9s-5.74-.83-4.57-.53l4.2.85a12.25,12.25,0,0,1,2.46.52L88,994l-3-.52c-.58.14-2,.07-1.52.4a11.31,11.31,0,0,0,2.53.81,64.93,64.93,0,0,0,7.6,1.33l5.06.33,5,.18c1.08.16,2.16.29,3.24.41-2.83-.12-5.66-.34-8.49-.51a85.2,85.2,0,0,0,11.29.54,33.32,33.32,0,0,0,4.22.42c3.31-.06,6.61-.09,9.92-.2,1.19.2-4.45.29,2.19.49,4.64-.13-4.44-.48,3.24-.49a67,67,0,0,0,9.07.25c.8.12-.4.2-2.65.24,5-.12,13.34-.08,15.94-.36,5,.23,17-.31,16.51.14,1.58-.15,8.86-.52,13.49-.67-8.44.76,17.31-.44,15.09.17,6.24-.66,22.57-1,33.63-1.69-.62.05-1.83.18-2.81.19,6.23-.2,8-.15,12.06-.22.78-.42,10.48-1,15.69-1.44,7.65,0-4.61.68-2.2.93-.4-.3,13.25-1,10.64-1.09,5.85-.06,5-.13,8.06,0,1-.54,5.43-.36,10.25-.91,8.46-.21,2.2.34,11.47-.31C297.94,992.38,289.7,993,289.7,993Zm37.05-185.24h0c0,1.9.06,3.52.08,4.55C326.82,811.37,326.79,810.05,326.75,807.76Zm-.28-18.52c0,2.26.07,5.06.11,8-.09.64-.2,0-.22-1.92C326.44,796.37,326.43,792,326.47,789.24Zm-1.37,39.21a38.91,38.91,0,0,1,0-4.32c0,1.39.07,3,.11,5.13v.35a9.1,9.1,0,0,1-.11-1.16Z"/><path class="cls-1" d="M325.55,833.71v-.54a8.88,8.88,0,0,0-.1-1A11.59,11.59,0,0,1,325.55,833.71Z"/><path class="cls-1" d="M7.71,646.83v.43A3,3,0,0,1,7.71,646.83Z"/><polygon class="cls-1" points="323.24 533.46 323.17 533.49 323.26 535.1 323.24 533.46"/><path class="cls-1" d="M9.21,748.85q0,.67,0,1.35C9.22,750.14,9.21,749.56,9.21,748.85Z"/><path class="cls-1" d="M11.94,792.85l.41,6.23C12.17,796.39,12,794.42,11.94,792.85Z"/><path class="cls-1" d="M15,826.62a2.43,2.43,0,0,0,.19.65v0Z"/><path class="cls-1" d="M19.85,288.3a7.79,7.79,0,0,1,.07-1.3C20,283.93,19.94,286,19.85,288.3Z"/><path class="cls-1" d="M11.69,448.44c0-1.71.07-3.39.11-5.16A29.64,29.64,0,0,0,11.69,448.44Z"/><path class="cls-1" d="M40.24,110.54h0l.32-1.06Z"/><path class="cls-1" d="M12.15,435.83c-.19,2.85-.29,5.23-.35,7.45C11.92,440.94,12.08,438.19,12.15,435.83Z"/><path class="cls-1" d="M51.65,968.15c.28.48.58.94.88,1.39,0,0,.07,0,.15.14C52.33,969.18,52,968.67,51.65,968.15Z"/><path class="cls-1" d="M52.68,969.68l1,1.51A15.33,15.33,0,0,0,52.68,969.68Z"/><path class="cls-1" d="M56,974.27c-.76-1-1.56-2-2.3-3.08C54.48,972.28,55.46,973.61,56,974.27Z"/><path class="cls-1" d="M33.81,926.88l-.25-.46A1.15,1.15,0,0,0,33.81,926.88Z"/><path class="cls-1" d="M30,913.76c.8,3.15,1.93,8,3.34,12.28l.2.38C32.73,924.44,31,916.7,30,913.76Z"/><path class="cls-1" d="M20.19,857.7Q21,863.36,21.87,869c-.22-2-.5-4.6.37.52C20.29,855.25,22.42,872.49,20.19,857.7Z"/><path class="cls-1" d="M15.93,822.56c.7,6.09.15-.09.24.23C15.67,818.93,15.54,818,15.93,822.56Z"/><path class="cls-1" d="M8.71,566.93l.25.63C9,562.8,8.86,567.51,8.71,566.93Z"/><polygon class="cls-1" points="8.71 517.99 8.4 522.59 8.57 524.78 8.71 517.99"/><polygon class="cls-1" points="11.55 489.17 11.51 491.24 11.72 483.35 11.55 489.17"/><path class="cls-1" d="M61.12,65.33l-1,1.1a6.79,6.79,0,0,0-1,2.27A23.36,23.36,0,0,0,61.12,65.33Z"/><path class="cls-1" d="M221.59,8.61c2,.39,7.18,1,10.39,1.25C227.84,9.36,223.7,8.81,221.59,8.61Z"/><polygon class="cls-1" points="319.99 484.28 319.83 480.55 320.02 487.58 319.99 484.28"/><g class="cls-2"><path class="cls-1" d="M95.88,987.16c1.27.23.57,0-2.86-.91-.82-.22-1.64-.42-2.45-.66.87.31,1.75.58,2.63.87Z"/><path class="cls-1" d="M75.34,975.42c-3.13-2.75-6.37-6.33-4.68-4.2a59.39,59.39,0,0,0,7.11,6.43c1.35,1.15,2.64,2,3.44,2.67s1.26.89,1,.76a40.46,40.46,0,0,0,6.55,3.52,57.51,57.51,0,0,1-13.67-9.27C74.13,974.42,75.1,975.24,75.34,975.42Z"/><path class="cls-1" d="M4,642.35l.08,2.28C4.06,644,4,643.21,4,642.35Z"/><path class="cls-1" d="M1,428.19v0Z"/><path class="cls-1" d="M1.75,391.63c0,.79,0,1.44-.05,2.15C1.73,393,1.76,392.17,1.75,391.63Z"/><path class="cls-1" d="M4,642.35l-.21-5.7C3.71,636.24,3.88,639.57,4,642.35Z"/><path class="cls-1" d="M49.22,935.8l1.3,2.84c-.41-.9-.8-1.77-1.2-2.68Z"/><path class="cls-1" d="M10.44,736.55l.16,1.74c.07.51.13,1,.2,1.43Z"/><path class="cls-1" d="M18.76,808.53a18.86,18.86,0,0,0-.6-2.78c.19.91.39,2.1.6,3.52C18.79,809.28,18.79,809.08,18.76,808.53Z"/><path class="cls-1" d="M43.8,920.46l.71,1.92C44.32,921.88,44,921,43.8,920.46Z"/><path class="cls-1" d="M6.5,684.84q0-.33,0-.66A3.64,3.64,0,0,0,6.5,684.84Z"/><path class="cls-1" d="M179.79,994.14h0C179.36,994.11,179.23,994.12,179.79,994.14Z"/><path class="cls-1" d="M96,986.8l1.15.22h.26Z"/><path class="cls-1" d="M3.7,324.72v.3C3.64,326.78,3.67,325.79,3.7,324.72Z"/><path class="cls-1" d="M303.64,90.86c0-7,.45,11.32.33.83C303.94,92.67,303.51,82.18,303.64,90.86Z"/><path class="cls-1" d="M48.5,934.07c-.38-.91-.76-1.83-1.15-2.75Z"/><path class="cls-1" d="M304,91.69h0v0Z"/><path class="cls-1" d="M14.19,171c-.07.29-.19.9-.3,1.53A14.32,14.32,0,0,0,14.19,171Z"/><path class="cls-1" d="M4.88,285.39,5,282.57C5,283.7,4.91,284.61,4.88,285.39Z"/><path class="cls-1" d="M26.54,112.76c.46-1.48.63-2,1.22-4-.06.19-.13.37-.2.61C27.35,110.09,27.07,111.06,26.54,112.76Z"/><path class="cls-1" d="M50.76,55.88l-.6,1-1,1.68Z"/><path class="cls-1" d="M326.28,954.18c0,1.36,0,2.21-.06,2.87C326.3,956.09,326.56,965.21,326.28,954.18Z"/><path class="cls-1" d="M49.28,935.74a16.9,16.9,0,0,1-.78-1.67c.27.65.54,1.28.82,1.89C49.41,936.12,49.45,936.15,49.28,935.74Z"/><path class="cls-1" d="M26.21,110q1.44-4.71,3-9.41C28.34,103.21,27.23,106.63,26.21,110Z"/><path class="cls-1" d="M315.19,508.83l.07,2.26C315.24,510.23,315.22,509.42,315.19,508.83Z"/><path class="cls-1" d="M40.14,73.34l2.54-5a10.47,10.47,0,0,1,.48-1C42.15,69.33,41.09,71.32,40.14,73.34Z"/><path class="cls-1" d="M300.87,996.88c9.43.09,4.43-.14,6.43-.23,11.25,0,5.2.18,9,.3l9.49-.07h1.52v-.29c0-.52,0-1-.05-1.53a17.57,17.57,0,0,0-.08-2.06c0-1.35-.08-2.65-.12-4,0-.39,0-1.41.07-.22-.33-7.41-.55-21.95-.95-30.61v-1.12c-.06,1.4-.15,1.61-.22,1.33-.11-4.21-.31-7.81-.23-9.41.06,2.59.11,2.81.18,4l-.16-4.43c.07-4,.21,6,.34,6-.27-8.61-.67-18.64-.78-25.23.13-1.38.44,15.42.37,6.61l.19,10.21c.07-7.8.14,6.21.24-1-.35-13.43-.39-15-.74-28.42-.17-3-.11,1-.28-2-.65-19,.05-15-.52-29-.21-3.62-.46-5-.59-15l.28,3.39c-.31-13-.46-7.41-.67-21,.13,2.41.31,10.22.29,8.25-.07-8.83-.27-6.25-.43-13l.13-1.41c-.4-13.85-.84-29.1-1.28-44.43.07.85.19,3.48.15-.12-.57-19.33-1-41.28-1.37-59.93l-.28-7.06c0-1.66,0-3.09.06-1.29-.12-7.27-.1-.37-.25-3.86-.11-4.14-.05-5.47.06-2.85-.44-12.83-1.18-36.54-1.35-50.06l.11,2.63c-.21-10.52-.6-11.86-.71-21.63l.08,1.88c-.51-22.85-1.27-48.09-1.48-65.52-.3-3.32-.47-22.62-.8-24.08-.18-13,0-9.31-.39-27.68-.11-4.91-.37-7.31-.55-13.38l.15-.15-.36-8.23.07-4.39-.18-5.69c.05,2.27.05,4.82,0,4.48-.15-4.45-.26-9.86-.32-14.2,0-2.16,0-4.06-.06-5.42s0-2.21,0-2.27l-.65-21c.07.46.18,4,.29,6.77-.44-11.22.11-2.05-.29-12.32,0,1.37-.11-.75-.15-1,0-5.13-.32-16.8-.57-25.43l.14,1.65c-.4-15.59-.85-32.87-1.3-50.37.11,6.27-.11,4.84-.26-.29l.11-2.06c-.18-3.31.08,5.36-.22-1.44-.14-6.53.08-4.4.23-.64l-.26-8a16.86,16.86,0,0,1,.19,1.88c-.19-3.26-.18-13.72-.47-18.43v-.45c-.46-17.49-.67-25.43-1.05-39.68-.14-.28-.25-5.84-.47-10.1-.22-10.46-.39-22.09-.72-34.71-.29-8.87-.18-2.59-.37-6.58.12-.65-.21-13.25.05-6.72-.43-15.14-.55-19.34-1.09-38.49v3.2c-.11-3.47-.14-7.91-.07-7.41V223c-.73-21.49-.86-49.63-1.56-66.74v1l-.58-17.75c-.18-8.16.22,4.9.15-1.15-.69-19.14-.72-30.26-1.26-46,.08-12.21-1.1-43.32-1.27-59.8l-.06,1c-.1-2.15-.12-3.37-.12-4.61V28c0-.06-.1,0-.15-.07l-.37-.1-1.08-.31-2-.54c.21.09,1.32.4,2.07.61l.51.15.37.11-.32-.07-.74-.18C284,23.11,265.81,18.87,247.44,15S210.61,7.46,192.25,4.72c-6.72-1-8.65-1.11-11-1.33s-5.15-.53-13.65-1.54l4.85.36C158.82.81,144.81-.31,130.84.08a97.63,97.63,0,0,0-20.72,2.47,40.08,40.08,0,0,0-9.68,3.73c-.76.38-1.52.76-2.27,1.16L96,8.7c-1.49.82-2.9,1.75-4.33,2.63C93,10.47,93,10.34,95.28,9c-1.26.66-3,1.75-4.88,2.92s-3.9,2.62-5.71,4S81.21,18.7,80,19.66c-.59.49-1,.92-1.38,1.21-.18.16-.34.32-.5.49-3.17,2.75-.82.54-2.75,2.25-2.13,1.9-4.67,4.43-6.85,6.83s-4,4.62-5.08,5.73a24.33,24.33,0,0,1,1.69-2c-.6.7-1.62,1.87-2.7,3.24l-1.7,2.09-1.62,2.1C57,44.32,55.67,46.42,56.73,45a135.77,135.77,0,0,0-7.86,12.09c-2.3,3.94-4.35,7.77-6.19,11.29-1.11,2.37-3,6.23-4.58,9.76-.8,1.76-1.51,3.44-2.05,4.77a26.19,26.19,0,0,0-1,2.73,84.33,84.33,0,0,0-3.51,8.66c-1.82,5-3.69,10.86-4.58,13.91.55-2.06-1.67,5.27-1,2.85-2.08,7-3.69,13.41-3.26,12.22-3.67,12.86-5.76,26.22-7.41,33.56-3.64,21.22-5.78,41-7.35,60.34-.09-.36.36-5.69.84-10.83s1-10.08.87-9.68c-1,9.14-1.52,16.37-2,23.56s-1,14.39-1.53,23.48c-.3,4.7,0-2.68.11-4.27-1,18.31-1.79,35.41-2.35,51.72V290c0-.66,0-1.5.07-2.33-.13,3.21-.33,7.47-.22,7.11l.1-3.13c.35-5.13-.19,12.77-.13,13.34-.09-5.46-.65,16.11-.71,7.43a38.37,38.37,0,0,0,0,4.29c-.12,3.14-.2,4.14-.17.94-.33,11.52-.09,7.44-.42,17.87v-3.22c-.06,5.28-.13,10.59-.42,19.41a7.67,7.67,0,0,1,0-2.14c-.4,15.14-.42,25.81-.84,42.43C1,387.12,1,397.67.76,398.55l-.1,8.93.15-3.58c-.14,7.82-.1,14.75-.25,21.48v-5.82L.25,434.21l.16-8.3c0,7.92.25-.84.08,9.57,0-2.11-.09,7.83-.23,11.91h0c0,3.87.07,7.86,0,13.64-.06,1.51-.2-1.21-.24-.23.13,3.82,0,18.33.15,23.17,0-1.62-.13-1.7-.15-1.17L.13,486c0,3.63,0,4.16-.13,3.57,0,10.91.22-3.46.16,9.48,0-1,0-.54-.06-2.66,0,13,.23,25.12.31,37.07C.27,537,.24,523,.13,527c.22,17.22.75,35.65,1.13,52.32l-.06-3.11c.32,2.31.18,12.42.57,20.84-.08-2.06-.23-2.7-.18-2.14.31,11.4.81,23.32,1.65,40.59l-.16-2.14c.22,6.73.77,17.71,1.13,25,.18,2.15.4,6.3.36,3.77.83,22.43,2.82,42.66,4.15,62.5-.2-2.37-.52-5.64-.37-3.75q.72,8.43,1.52,16.86c0-1.35-.13-2.22-.35-5.77.25,2.13.73,6.88,1.12,11.06-.77-7.57-.19.09.08,3.36,0-.55.12.57.13.29.67,8.82.36,1.46,1.46,13.48l-.13-.62c.53,4.48,1,8.62,1.57,13.46.1,2-.61-4.77-.74-5.07.76,6.8,1.78,13.39,2.43,19.56-.38-2.89-.91-7-1.29-9.92.65,6.71.79,7.49,1.39,12.47l-.06-.5L16.93,801l-.35-2.94c1.49,8.45,2.46,17.28,4.54,28.63-2-11-.42-1.8-.71-2.63.42,2.92,1.12,7.34.86,6.1,1,5.35,1.44,9,3,16.53,0,.35,1.09,5.74.74,4.55,1.41,7-.25-1.66-.06-1.09,2.23,10.7,4.88,25.26,9.16,40.41,1.78,6.54,3,10.38,4.17,14.09s2.37,7.3,4.47,13.23c.68,2,.34,1.21-.16-.1s-1.13-3.13-1.13-3.13C43.6,921.19,45.4,926,47.9,932c-.54-1.2-.06.07.65,1.91,2.08,4.75,1.49,3.13,4.34,9.35-.57-1-1.27-2.36-2.37-4.61A164.74,164.74,0,0,0,59.15,955c.39.75-.12-.06-.88-1.29s-1.7-2.93-2.27-3.89a120,120,0,0,0,6.3,10.42A71.5,71.5,0,0,0,67.39,967L66,965.19l-1.32-1.86c1.52,2.1.69,1.15-.46-.39a63.38,63.38,0,0,1-3.73-5.6,19.85,19.85,0,0,1-1.16-2.12c.75,1.3,1.6,2.54,2.4,3.82-1.14-2-3.53-5.87-5.93-10.34s-4.88-9.54-6.66-13.71l1.72,3.38q-2-4.22-3.79-8.5c-.68-1.85-1.07-3.16.61,1l-2.18-5.6c-.47-1.23-.94-2.35-1.81-5-.19-.57-.09-.31.11.21-.74-2-1.44-4-2.14-6,.44,1.15-.2-1,1,2.65C39.12,906.33,37,899.69,36,895.52l.27.9-1.92-6.82c-.29-1-.32-1.09-.33-1s0,.73-1.5-5c-.51-2.6-1-5.22-1.51-7.83l-.5-1.48c-.36-1.59-1.06-4.74-.87-4.17-1.42-5.91.15,1-.7-2.39-1.59-7.69-4.39-21.2-4.45-23-.63-2.74,1.28,7.4-.33-.82-.18-2.4-1.77-9.52-2.81-16.62.49,2.16,1.55,8.86.48,1.77-.94-4.23-2.16-13.79-3.06-19.77-.1-.13-.6-3.37-1.22-7.85s-1.35-10.18-2-15.21c.09.63-2.2-19-3.07-28.37l.06.28c-.38-1.8-1.33-11.5-2-18.55a38.75,38.75,0,0,1,.71,5.36l-.62-6.64c-.21-1.57-.42-3.63-.82-8l.28,1.65c-.78-8.83-1.67-17.78-2.41-29.17-.17-.63.31,9.08-.65-3,0-.46.12-.91.38,2.24-.09-1-.32-3.67-.44-5.75l.46,4.8c-.32-5.19-.29-2.7-.57-6.86.1.08-.14-3.07,0-2.48.08,1.06.2,3.62.36,5.21-.32-4.68-.63-10.34-.67-12.21,0,.41-.13,0-.36-3.42-.55-8.85-.07-3-.33-8.2-.2-2.14-.44-7.79-.6-7.93-.14-2.6-.1-3.08-.11-4.08-.33-4.58-1.1-21.41-1-16.24v.43h0c-.87-15-1.27-31.24-1.8-46.15h0c-.3-8.91-.65-19.82-.86-26.19a50.32,50.32,0,0,1,0-5.1c-.18-6.8-.26-7.56-.35-17.41.2,6.85,0-2.36.19,7-.12-8.85-.08-10.85-.35-20.35.17,3.23.07-6.67,0-10.88v6.21c0-4.73-.09-8.87-.14-13.07L1,521.76C1,503.65.46,489.1.82,475.31c-.12-4.79-.1,9.84-.23,5.56,0-8.33.3-17,.32-19.63.15-11.41-.19-10.65,0-22.59-.07,1.52-.25,3-.21-6,.12-8.34.38-10.25.36-5A26.61,26.61,0,0,1,1,430.54c0,2.7,0,6.23.08,2.94L1,432.43c.1-4.13.25-15.61.31-12.91,0-6.3-.06-2.7-.15,2,.19-10.69.31-16.7.51-27.71-.07,1.75-.17,3.37-.13,1.62.39-16.15,0-7.12.23-18.05.24-6.21.16,2.23.35-8.78.22-6.72.19-1.42.17,1.25.13-10,.56-18.74.75-24.46l-.1,5.28c.08-3.16.14-5.74.21-8.38l-.15,3c.06-1.56.11-3,.14-4a14.89,14.89,0,0,1,.1-1.64c0-3.21-.27,2.43-.19-3.91.19-4.14.34-12.6.55-14-.48,13,.2-1.44-.13,9.56,0-2.12.13-4.71.26-7.82v1.29c.56-12.43,0-5.72.47-18.62,0,1.64.28-3,.34-5.08-.19,5.19-.24,2.47-.12-2.3.39-8.26.3-9,.49-13.31l-.24,5c0-1.67.16-5.82.38-11.57.09-.49-.18,5.23-.06,3.18.12-6.41.78-14.46,1.1-23.38.26-4.13.18-.39.4-4,.41-10,.68-10.82,1.26-21.32-.31,3-.33,3.55.06-3.85q-.57,8.63-1,17.26l.49-11.08c-.34,5.21-.59,11-.77,14.11.19-5.28.2-4.74,0-2.25.58-7.12.72-14.14,1.46-22.36l.27.27c1.08-12.35,1.62-21.95,3.62-38l-.67,5.13c.13-2.16,1.17-9.87,1.85-15a45.5,45.5,0,0,0,.91-4.93c-.13.26,1.81-11.64,1.91-13.11.45-2.36.93-4.7,1.41-7.05,1.24-6.38,1.95-10,2.64-13.61s1.43-7.08,3-13.14c-.8,3.68.6-1.82-1.29,6.33.49-2,1-4,1.31-5.38.18-.71.32-1.3.43-1.71a5.1,5.1,0,0,0,.13-.68c.65-2.35,2.89-11.2,4.15-14.83.47-1.7.54-2.28,2-6.73h0s2.3-7,.87-3.12c2.21-6,5.4-14.45,9-22.45A169.78,169.78,0,0,1,50.16,56.82c2.33-3.91,5-8.15,7.91-12.13S64,36.92,66.7,33.87a9.68,9.68,0,0,1-1,1.22c3.78-4.26,5-5.51,6.32-7,.67-.71,1.35-1.49,2.51-2.57l2.1-2L79.74,21c2.62-2,1.28-.94-.26.38s-3.31,2.87-1.73,1.54a27.35,27.35,0,0,0,2.61-2.08c1.34-1,3-2.46,4.92-3.85A88.34,88.34,0,0,1,97.7,9l-1.83,1c1.47-.79,3.06-1.72,4.87-2.61a41.54,41.54,0,0,1,5.85-2.64,64.31,64.31,0,0,1,14.79-3s-.53.08-.06.05A134.61,134.61,0,0,1,136.2.86c5.78,0,12,.2,17.2.52-3.28-.1-4.78-.2-2.79,0,4.7.28-1.36-.34,8,.3,3,.31,9.79,1,10.67,1.28q-4.41-.48-8.83-.85c4.51.56,11.43,1.1,16.07,1.7H176L189.72,5.5c3.55.46,7.22,1,14.43,2.12l-1.48-.3c7.92,1.11,6.6,1.2,14.47,2.44l2.34.62c5.2.87,18.19,3.22,27.46,5.14-5.28-1-16.14-3.06-22.89-4.22l20.12,3.85c-2.07-.41-4.68-.89-6.71-1.33,6.32,1.11,14.6,2.73,24.77,5-.94,0,5.68,1.47,13.43,3.28s16.63,4,20.26,5.06l3.35.83,1.67.42.84.21.29.08h.15q.09,3.25.17,6.53c.11,4.61.22,9.27.33,14,.21,9.5.44,19.38.68,30.1.11-7.61.17,6.25.44,4.93.14,5,.19,6.89.18,7.33l.19,15.13c0,3.59-.19-4.74-.24-4.28.25,11,0,4.59.08,11.82.07-1.49.25,3.8.36,10l-.07-8.77c.54,15.26.07,13.21.61,28.59l-.21-4.87c.25,7.9.72,29.14,1.16,36.87,0,1.4,0,3.25-.15-.22.43,18.86,1.3,42,1.52,56.67l-.11-1.42c.11,3.51.29,6.11.32,10.53,0-.22-.11-1.42-.07.21.07,1.87.36,9.36.44,14l-.19-4c.36,18.41.91,28.25,1.35,43.69a13.28,13.28,0,0,0-.09,2.36c0,1.46,0,3.5.05,5.76.09,4.52.18,10,.25,13.56v-.24c.51,21.43,1.09,36.41,1.67,56.26.06,12.32.93,41.74,1.29,61.55,0-3,.19.48.3,4,.07,4.65.47,12.84.25,12.11v-1.66c-.11,3.51.18,13.06.36,20.52l.29,1.22c.1,19.52,1.42,51.11,1.34,61.77.15,4.7.35,10.53.51,15.2l-.23-.06c.31,13,.47,19.55.86,35.68l-.18-3.29c.22,9.1.69,11.47.91,19.86l-.15,2.53c.4,15.87.61,31.93,1.2,47.6a28,28,0,0,1-.19-3.3c.18,7.48.58,28.94.8,26.18a25.6,25.6,0,0,0,0,2.77c0,1.68.1,4,.17,6.56.17,5.14.38,11.33.53,15.61l-.18-1.33c.36,7.22.41,7.45.71,17.55,0,2.4-.05,2.1-.1-1.08.13,8,.29,6.21.45,15.88l-.23-3.6c.19,8.21.22,7.55.44,12.07.18,5.16.35,15.57.25,16.78.11,1.1.32,5.59.41,10.43a11.68,11.68,0,0,1-.15-2c.25,13.72.67,20.4.77,29.84a14.06,14.06,0,0,0,0,1.59c-.26-10.84-.43-18-.45-18.86-.13,0,.07,8.81-.28,1.81.27,7.07.78,19.15.93,27.73v.25c0,2,.09,3.75.16,5.43.05,2.73.08,4.47.13,7.1-.08,1,.2,10.1.3,14.49.13-.37.25,5.38.23,0,0,.7,0-.83-.11-3.74,0-.67-.05-1.44-.06-1.88v.3c-.08-2.88-.17-6.63-.28-10.9.15,3.46.3,7.08.35,12,.14,2.25.29,4.72.38,6.12-.05,6,.13,17.6.05,19.21.41,13.4.84,31.58,1.31,40,.13,3.81,0,4.38,0,5.81-.08-2.21-.14-4.82-.21-6,.26,7.62.59,22.57.82,24.39.15,9.61-.31-5.39.05,7.8l-.1-1.77c.35,25.94,1.52,42.2,1.86,71V991l.06,3.09v1.73c0,.07.06.22-.07.18h-.52l-6.23,0-12.55-.1-25.31-.24c-16.89-.19-33.73-.45-49.95-1-9.23-.26-10.23-.19-15.86-.23l-2-.21-9.63-.09c-13.65-.29-23.62-1.1-40.89-1.64l2.22.21c-6.2-.29-19.64-.91-18.6-1-.63,0-2,0-4.45-.21l-.19-.09c-5.07-.26-10.15-.55-15.22-.9-5.89-.47-5.41-.57-5.62-.64a7.59,7.59,0,0,0-1.7-.25l-8-.84c-3.18-.33-7.71-.86-11.13-1.37s-5.71-1-4.54-.72l4.2.86c1.33.23,2.37.42,2.46.47l-2.9-.43L97.1,987c-.55,0-1.94-.16-1.43.06s2.9,1,10,2l5,.55,5,.46,3.21.42c-2.8-.23-5.61-.57-8.41-.85,2.38.31,4.33.51,6.11.68l5.08.36c.8.13,2.2.3,4.19.47,3.28.18,6.56.36,9.84.5,1.19.17-4.42-.12,2.18.37,4.61.2-4.41-.49,3.22-.07,4.79.39,3.38.41,9,.63.79.09-.4.08-2.63,0,5,.21,13.25.66,15.85.64,5,.38,16.92.68,16.41.87,1.58,0,8.84.16,13.44.3-8.42,0,17.24.56,15,.75,6.24,0,22.5.48,33.53.56h-2.8c6.2.15,8,.25,12,.37.8-.18,10.46-.06,15.68-.1,7.6.3-4.63.16-2.24.38-.38-.16,13.22,0,10.64-.13,5.81.19,5,.12,8,.32,1-.23,5.42,0,10.24-.07,8.43.21,2.17.25,11.42.27C309.1,996.88,300.87,996.88,300.87,996.88Zm21.42-194.34h0c0,1.9.09,3.51.12,4.53,0-.94-.06-2.25-.12-4.54Zm-.46-18.44c.05,2.25.12,5,.19,8,0,.65-.1,0-.14-1.91.06,1,0-3.34-.05-6.09Zm0,39c-.09-2.91-.08-3.9-.07-4.3,0,1.38.09,3,.15,5.11v.34c0-.28-.05-.6-.09-1.16Z"/><path class="cls-1" d="M322.14,828.38v-.54c0-.36-.05-.72-.07-1Z"/><path class="cls-1" d="M4.1,645v0Z"/><polygon class="cls-1" points="315.77 529.37 315.73 529.39 315.8 531.01 315.77 529.37"/><path class="cls-1" d="M10.72,746.41a10.37,10.37,0,0,0,.09,1.34C10.81,747.65,10.77,747.07,10.72,746.41Z"/><path class="cls-1" d="M15.54,790l.75,6.16C16,793.51,15.73,791.57,15.54,790Z"/><path class="cls-1" d="M20.25,823.45c0,.22.1.43.16.64V824Z"/><path class="cls-1" d="M3.84,287.7a11,11,0,0,1,.05-1.31C4,283.34,3.91,285.39,3.84,287.7Z"/><path class="cls-1" d="M.26,447.36v-5.13C.21,445.05.19,447.28.26,447.36Z"/><path class="cls-1" d="M25.89,111h0l.32-1.06Z"/><path class="cls-1" d="M.32,434.81c-.06,2.83-.08,5.21-.08,7.42C.26,439.89.29,437.15.32,434.81Z"/><path class="cls-1" d="M63.57,962.32l.95,1.32.13.15Z"/><path class="cls-1" d="M64.65,963.79l1.08,1.46C65.23,964.58,64.81,964,64.65,963.79Z"/><path class="cls-1" d="M68.12,968.23c-.82-1-1.59-2-2.39-3C66.55,966.29,67.52,967.59,68.12,968.23Z"/><path class="cls-1" d="M43.87,922.2l-.22-.46A2.43,2.43,0,0,0,43.87,922.2Z"/><path class="cls-1" d="M39.48,909.34c1,3.08,2.4,7.77,4,12l.18.39C42.83,919.78,40.48,912.25,39.48,909.34Z"/><path class="cls-1" d="M26.35,854.18q1.08,5.6,2.26,11.15c-.36-2-.85-4.53.26.53C26.08,851.83,29.31,868.81,26.35,854.18Z"/><path class="cls-1" d="M20.32,819.47c1,6,.07-.09.15.23C19.83,815.88,19.68,815,20.32,819.47Z"/><path class="cls-1" d="M1.51,565.42l.14.62C1.53,561.33,1.6,566,1.51,565.42Z"/><polygon class="cls-1" points="0.14 516.7 0.1 521.29 0.23 523.47 0.14 516.7"/><polygon class="cls-1" points="0.91 487.91 0.93 489.97 0.88 482.11 0.91 487.91"/><path class="cls-1" d="M45.44,65.5l-.8,1.19a12.06,12.06,0,0,0-1,2.23C43.7,68.85,44.23,67.85,45.44,65.5Z"/><path class="cls-1" d="M202.45,7.48c2,.39,7.11,1.3,10.28,1.78C208.63,8.53,204.55,7.79,202.45,7.48Z"/><polygon class="cls-1" points="313.29 480.4 313.14 476.68 313.36 483.68 313.29 480.4"/></g><path class="cls-1" d="M283.71,38.67c0-.5-.1-.24-.32,1.1v1Z"/><path class="cls-1" d="M281.8,47.62c-.21,1.59-.39,3.43-.06,2.44.12-1.59.26-2,.37-3.67a6.63,6.63,0,0,1,.49-2.1c0-.47.41-2.07.44-2.81a57.44,57.44,0,0,0-1.15,6.26C281.76,48.23,281.81,47.74,281.8,47.62Z"/><path class="cls-1" d="M254.49,177.79l.21-.83C254.65,177.19,254.57,177.47,254.49,177.79Z"/><path class="cls-1" d="M234.34,257.71a6.54,6.54,0,0,0,.2-.9A5.81,5.81,0,0,0,234.34,257.71Z"/><path class="cls-1" d="M230.55,271.26l.23-.8C230.68,270.76,230.59,271.07,230.55,271.26Z"/><path class="cls-1" d="M254.49,177.79l-.55,2.14A17.68,17.68,0,0,0,254.49,177.79Z"/><path class="cls-1" d="M279,65.75c.07-.45.12-.83.17-1.18-.07.37-.12.73-.19,1.11C279,65.7,279,65.73,279,65.75Z"/><path class="cls-1" d="M262.46,142.35l.15-.65a2.05,2.05,0,0,1,.05-.56Z"/><path class="cls-1" d="M268.33,115.09a3,3,0,0,0,0,1.11,10.71,10.71,0,0,1,.18-1.37A.54.54,0,0,0,268.33,115.09Z"/><path class="cls-1" d="M277.23,71.79l.13-.77C277.33,71.22,277.27,71.56,277.23,71.79Z"/><path class="cls-1" d="M258,161.8a1.22,1.22,0,0,0-.1.24A.34.34,0,0,0,258,161.8Z"/><path class="cls-1" d="M68.79,917.85Z"/><path class="cls-1" d="M63.61,949.76l.06-.45s0-.1-.07-.11Z"/><path class="cls-1" d="M223.66,296.08V296C223.86,295.31,223.76,295.68,223.66,296.08Z"/><path class="cls-1" d="M158.66,523.41c.86-2.55-1,4.23.2.4C158.71,524.15,159.66,520.21,158.66,523.41Z"/><path class="cls-1" d="M278.81,66.46c-.07.37-.13.75-.2,1.12C278.7,67.08,278.76,66.73,278.81,66.46Z"/><path class="cls-1" d="M158.86,523.81h0l.13-.4C158.94,523.57,158.91,523.67,158.86,523.81Z"/><path class="cls-1" d="M207.79,353.25c.08-.19.16-.38.22-.57A3.54,3.54,0,0,0,207.79,353.25Z"/><path class="cls-1" d="M219.92,310.74l-.31,1.06Z"/><path class="cls-1" d="M201.68,375.38c-.17.57-.25.76-.45,1.55l.08-.24C201.38,376.41,201.48,376,201.68,375.38Z"/><path class="cls-1" d="M195.07,398.34l.15-.42c.06-.23.13-.5.2-.72Z"/><path class="cls-1" d="M80.69,846.25a10.1,10.1,0,0,1-.32,1.07C80.53,847,79.93,850.43,80.69,846.25Z"/><path class="cls-1" d="M278.88,65.75a3.42,3.42,0,0,1-.07.71c.05-.27.09-.53.13-.78C278.94,65.6,278.92,65.59,278.88,65.75Z"/><path class="cls-1" d="M202.48,376.62l-1.07,3.64Z"/><path class="cls-1" d="M117.55,678.94l-.2.84A8.21,8.21,0,0,0,117.55,678.94Z"/><path class="cls-1" d="M198.31,391.09c-.24.64-.46,1.33-.69,2a3.34,3.34,0,0,1-.08.43Z"/><path class="cls-1" d="M76.32,872c.61-3.57.11-1.7.13-2.48.68-4.26.47-2,.81-3.37.41-2.66.59-4.74.93-6.72.06-.14.14-.53.1-.07.36-2.82,1.53-8.31,1.95-11.61a2.77,2.77,0,0,1,.12-.41c-.18.51-.29.57-.34.45a32.66,32.66,0,0,1,.67-3.55,8.67,8.67,0,0,0-.2,1.52l.25-1.67c.45-1.48-.36,2.28-.23,2.31.55-3.27,1.11-7.09,1.62-9.58.26-.49-1,5.85-.26,2.55l-.78,3.85c.81-2.91-.45,2.34.33-.32,1-5.07,1-5.7,2-10.76.12-1.16-.21.35-.09-.81,1.21-7.22,1.53-5.57,2.35-10.9a31.22,31.22,0,0,1,.92-5.7L86.53,816c1-4.9.29-2.86,1.44-8-.11.93-.71,3.87-.54,3.14.37-1.63.66-3.28.87-4.93l.28-.5c1-5.24,2.1-11,3.29-16.78,0,.33-.17,1.33.17,0,1.48-7.29,3.27-15.54,5-22.52l.46-2.7c.14-.63.32-1.15.2-.47.66-2.72-.06-.16.18-1.48.34-1.56.54-2,.36-1,1-4.84,2.82-13.77,4.11-18.81l-.18,1c1-3.94.75-4.52,1.74-8.15l-.14.71c2.08-8.55,4.16-18,5.94-24.5.1-1.29,2.17-8.42,2-9,1.34-4.84,1-3.43,2.83-10.28.46-1.83.49-2.77,1-5h.16l.6-3.11.6-1.59.5-2.14a7.15,7.15,0,0,1-.53,1.64c.39-1.66.93-3.67,1.39-5.28.23-.8.44-1.49.59-2a8.09,8.09,0,0,1,.28-.83l1.88-7.86c0,.18-.3,1.5-.53,2.55.92-4.23.35-.72,1.19-4.59-.16.5,0-.3,0-.4.59-1.89,1.68-6.24,2.49-9.46l-.06.64c1.52-5.81,3.19-12.24,4.89-18.76-.66,2.32-.7,1.75-.21-.17l.36-.73c.23-1.26-.59,2,0-.58s.61-1.58.29-.18l.73-3c.09-.16-.07.54,0,.74.22-1.24,1.49-5.07,1.81-6.86l.09-.16L136,609.83a38.49,38.49,0,0,1,.8-3.81c1.1-3.88,2.33-8.18,3.66-12.85.84-3.3.15-1,.48-2.5.19-.21,1.47-4.88.89-2.43,1.54-5.62,2-7.19,3.83-14.31-.27.75-.53,1.62-.44,1.16a15.22,15.22,0,0,1,.87-2.73l-.08.35c2-8,5.53-18.28,7.06-24.7l-.09.36,1.72-6.61c.89-3-.42,1.83.29-.38,1.82-7.15,3.23-11.19,4.77-17.06,1.64-4.42,4.56-16,6.56-22.07l-.19.33a29.13,29.13,0,0,1,1-3c-.12.14-.57,1.68-.34.7,3.74-13.39,8.1-27.51,12.14-41.16,1.48-5,.39-3,2.42-9.21l-.36,1.84c2.74-10.14,6-20.63,8.71-30.56a14.29,14.29,0,0,1-.37,1.6c.36-1,.92-3,1.38-4.64l.58-2.18a5.71,5.71,0,0,0,.2-1c.46-1.53.19-.33.51-1.26.68-2.08,1.38-5.3,1.82-6.38a8.56,8.56,0,0,1-.24,1c.34-1.38,1.86-6.35,1.35-5.08,1.13-3.69,2-7.11,2.91-10.05.41-2,1.91-6.33,1.87-7,.14.33,2-6.46,2.63-8.83-.16.81.65-2,.48-1.08.76-2.67,1.42-5.14,1.18-4.71,1.66-4.86,2.62-10,3.74-12.66l5.91-22.67c.15.32-2.2,7.93-1.89,7.69,1.82-6.83,2.74-10.8,4.68-17.53.53-1.74-.18,1-.31,1.62,1.83-6.81,3.69-13.14,5.24-19.23,0,0-.15.69-.3,1.31a17.11,17.11,0,0,0,.66-2.65l-.29,1.16c-.67,1.87,1-4.82,1-5.06-.28,2.11,1.72-6,1.19-2.64.19-.79.42-1.79.3-1.63.34-1.15.48-1.51.23-.31,1.13-4.29.61-2.8,1.67-6.67.05,0-.15.82-.2,1.24.44-2,.87-4,1.8-7.26,0,.21.11-.17-.15.81,1.5-5.63,2.33-9.66,4.09-15.81-.29,1.88.63-2.07.9-2.35l.84-3.34-.45,1.31c.8-2.9,1.32-5.52,2-8l-.49,2.18,1.39-5.46-.88,3.07c.68-3-.31.26.76-3.61-.19.79.76-2.92,1.27-4.4h0c.32-1.46.65-3,1.26-5.1.2-.54.08.51.21.15.23-1.46,1.75-6.84,2.06-8.68-.12.61,0,.66,0,.47l.18-1.22c.38-1.34.45-1.54.47-1.3,1.05-4.06-.55,1.24.77-3.56a9.52,9.52,0,0,1-.21,1c1.28-4.83,2.29-9.39,3.48-13.83.52-1.26-.94,3.91-.4,2.44,1.54-6.44,3.19-13.34,4.69-19.58l-.3,1.16c0-.93,1.25-4.61,1.9-7.8-.17.78-.11,1-.09.83,1.08-4.25,2.07-8.73,3.55-15.21l-.13.81c.66-2.5,1.58-6.63,2.25-9.35.12-.82.49-2.38.18-1.45,1.16-4.15,2-8.18,2.88-12.07.43-2,.85-3.87,1.27-5.77s.85-3.77,1.34-5.61c-.19.88-.41,2.13-.25,1.42l1.34-6.37a19.31,19.31,0,0,0-.63,2.13c.11-.82.45-2.62.8-4.2-.56,2.87.18,0,.52-1.21-.08.2,0-.23-.08-.14.93-3.27-.11-.59,1-5.11v.25c.35-1.7.61-3.28,1-5.1.3-.73-.33,1.81-.25,2,.55-2.57.88-5.12,1.5-7.42-.18,1.09-.54,2.67-.74,3.77.71-2.51.74-2.81,1.15-4.69v.19l1-4.36-.27,1.11c.33-3.31,1.3-6.59,2-11-.66,4.27,0,.72.06,1.08a15.28,15.28,0,0,1,.61-2.3c.31-2.07.81-3.41,1.23-6.35.08-.12.46-2.19.49-1.7.51-2.69-.22.62-.23.38.72-4.14,2.1-9.66,3.05-15.64.9-5.14.92-6.12,1.76-10.89.39-1.58-.08,1.35-.08,1.35.57-2.57.94-4.53,1.35-7-.05.49.08,0,.27-.74.34-2,.06-1.34.59-3.91a11.81,11.81,0,0,1-.15,2c.35-2.32.7-4.62,1.07-7,.2-.62-.13,1.46-.23,2.31.44-2.69,1.17-7,1.19-7.83l-.36,1.71c.17-1,.21-.47.1.24a15.12,15.12,0,0,1-.71,3.45l.27-1.71c-.59,1.7-1.18,6.86-1.81,10.28l.05-1.47-.47,3.55c-.19.73-.41,1.22-.11-.47-.58,2.44-.35,2.19-.87,4.28-.06.23-.05.12,0-.1l-.4,2.41c.05-.48-.22.37.09-1.1-1,4.28-1.19,7-1.66,8.55l.06-.35c-1.09,6,0,.6-.65,5.11l-1,2.94v.62a7.25,7.25,0,0,1-.39,1.59c-.34,2.32.14-.38,0,1-.68,3-1.59,8.17-2,8.79-.1,1.09.68-2.8.1.37-.44.85-.71,3.65-1.39,6.33,0-.86.64-3.39,0-.72-.11,1.68-1.14,5.25-1.57,7.53.16.14-1,5-1.69,8.81,0-.25-1.67,7.15-2.51,10.68v-.11c0,.73-.81,4.38-1.36,7a5.8,5.8,0,0,1,.25-2.07l-.55,2.51c-.08.6-.22,1.38-.55,3v-.66c-.74,3.34-1.29,6.76-2.38,11,.07.27,1.13-3.32.17,1.23-.11.15-.26.29,0-.9-.08.39-.26,1.4-.47,2.16l.3-1.83c-.5,1.94-.14,1-.51,2.6-.09-.06-.34,1.14-.36.89.08-.4.35-1.35.46-2-.43,1.75-1,3.87-1.22,4.54.09-.13.13,0-.15,1.32a23.1,23.1,0,0,1-.88,3,27.14,27.14,0,0,0-.55,3,11.42,11.42,0,0,1-.46,1.51c-.34,1.72-1.85,8-1.25,6.13l.11-.44a1.27,1.27,0,0,1-.06.28h0c-1.14,5.68-2.89,11.68-4.17,17.28h-.05c-.75,3.34-1.77,7.42-2.24,9.83-.24,1-.66,2.3-.61,1.86-.58,2.56-.59,2.86-1.6,6.51a17.36,17.36,0,0,1,.6-2.64c-.88,3.3-1.15,4-1.91,7.61.18-1.24-.78,2.44-1.14,4l.67-2.3-1.24,4.88.06-.88c-1.92,6.7-2.72,12.27-4.41,17.32-.35,1.8,1-3.64.75-2-.83,3.1-1.91,6.27-2.16,7.24-1.2,4.23-.8,4-2,8.46.21-.56.5-1.06-.31,2.28-.84,3.1-1.24,3.76-.77,1.78a6.74,6.74,0,0,1,.31-1.06c.24-1,.56-2.33.18-1.11l-.05.4c-.46,1.53-1.57,5.8-1.41,4.77-.55,2.37-.16,1,.32-.69l-2.79,10.22c.21-.63.44-1.21.26-.56-1.68,6-.6,2.66-1.67,6.73-.71,2.29,0-.88-1,3.23-.74,2.48-.3.49-.08-.51-.89,3.75-1.95,7-2.54,9.07l.48-2c-.29,1.18-.55,2.14-.81,3.11l.42-1.08a18.69,18.69,0,0,1-.64,2.09c-.24,1.21.44-.86-.09,1.53-.48,1.52-1.23,4.69-1.53,5.18,1.38-4.82-.3.49.8-3.6-.19.78-.46,1.75-.8,2.9-.06.17,0-.17.09-.49-1.41,4.58-.41,2.17-1.73,7,.08-.63-.47,1.06-.67,1.84.54-1.92.4-.88,0,.91-.92,3.05-.87,3.35-1.32,5l.53-1.83c-.08.65-.52,2.19-1.08,4.33-.12.16.49-2,.25-1.2-.51,2.42-1.63,5.32-2.45,8.67-.49,1.51-.2.1-.62,1.43-.93,3.74-1.25,4-2.25,7.91.43-1.09.46-1.3-.2,1.47l1.72-6.42-1,4.16c.55-1.94,1.08-4.1,1.42-5.26-.46,2-.43,1.78-.07.88-.92,2.59-1.38,5.27-2.35,8.3l-.26-.18c-1.42,4.56-2.15,8.21-3.9,14.16l.59-1.9c-.11.83-1,3.69-1.53,5.63a10.86,10.86,0,0,0-.72,1.8c.1-.08-1.25,4.36-1.21,5l-.89,2.62c-1.42,4.8-1.29,5.57-2.65,10.19.3-1.42-.37.67.44-2.45a28,28,0,0,0-.79,3c-.32.88-1.1,4.32-1.6,5.71a19.67,19.67,0,0,1-.61,2.63h0s-.72,2.74-.17,1.25c-1.67,4.68-3.82,13.3-5.26,17.37-1,3.38-2.1,7.45-3,10.51a1.55,1.55,0,0,1,.14-.6c-1.31,4.19-.48,2.68-2,7.45-.87,2.4.65-2.58.15-1.06-.5.57-1.64,5.8-2.76,9l.21-.79c-.82,2.44-1.63,6.06-2.82,10.08h0c-.64,2.8-2.11,8-3.19,12,.23-1.24.45-1.78.11-1.08-.49,1.74.34-.45-.63,3-.4,1.11-1.18,3.59-1.41,3.89l.94-3.27c-.66,1.63-1.22,4.23-1.75,6v-.25c-1.43,5-1.26,5.15-2.84,10.54l.22-.54c-.67,3-.83,2.44-1.54,5.42l-.45.83c-.52,2-1.79,6.87-2.77,10.37.43-2,1.55-6.12,2.2-8.67-.57,1.93-1.89,6.56-2.09,7.59.21-.79.44-1.77.7-2.53-.54,2.4-1.37,5.54-2.49,9.38-.17-.79-3,10-4.08,12.7-1.82,6.84-4,13.47-6.2,21.41,1.09-2.74-.66,2.31-.22,1.91-.51,1.85-.72,2.56-.78,2.72l-1.78,5.54c-.46,1.3.44-1.77.32-1.62-1.18,4-.61,1.65-1.45,4.31.26-.52-.25,1.45-1,3.74l1.06-3.2c-1.45,5.7-1.64,4.81-3.11,10.55l.42-1.83c-.78,2.94-3,10.8-3.62,13.73-.18.51-.45,1.17-.11-.13-2,7-4.15,15.64-5.79,21.05l.08-.56c-.34,1.31-.5,2.31-1,3.93,0-.09.07-.55-.1.06s-.84,3.5-1.36,5.22l.33-1.5c-2,6.81-2.71,10.53-4.23,16.28-.21-.07-1.74,5.28-2.5,8v-.1c-2.18,8-3.5,13.58-5.39,21-1.44,4.53-4.19,15.52-6.27,22.86.34-1.12.12.23-.2,1.54-.51,1.72-1.1,4.82-1.22,4.5l.16-.62c-.52,1.26-1.38,4.83-2.1,7.62l.14.53c-2.21,7.18-4.76,19.08-6,23-.39,1.76-.88,4-1.27,5.72l-.11-.13c-1.24,4.86-1.85,7.29-3.3,13.33l.2-1.26c-.84,3.4-.66,4.39-1.42,7.52l-.42.9c-1.4,6-3,11.93-4.2,17.84a4.46,4.46,0,0,1,.19-1.25c-.66,2.79-2.69,10.78-2.16,9.84-.22,0-1.41,6.13-2,9.38v-.54c-.43,2.76-.4,2.85-1.21,6.65-.22.9-.28.77,0-.42-.74,3-.4,2.37-1.28,6l.21-1.37a44.38,44.38,0,0,0-.88,4.57A61.55,61.55,0,0,1,95,770.75a31.41,31.41,0,0,1-.7,4c-.1.23,0-.44.07-.76-1.19,5.13-1.47,7.71-2.36,11.23a2,2,0,0,0-.21.58c.88-4.08,1.47-6.79,1.53-7.09-.12,0-.85,3.28-.46.6-.47,2.69-1.23,7.29-2,10.5,0,.14-.08.28-.13.42l0-.34c-.17.75-.3,1.42-.41,2-.23,1-.38,1.68-.61,2.67-.18.36-.87,3.78-1.21,5.44.17-.11-.29,2.06.23,0a11.46,11.46,0,0,1,.27-1.42,3.87,3.87,0,0,1,.14-.71V798c.22-1.08.52-2.5.86-4.11-.21,1.32-.44,2.7-.9,4.5-.1.88-.2,1.83-.26,2.37-.64,2.22-1.62,6.57-1.86,7.15-.93,5.08-2.32,12-2.7,15.17a11.7,11.7,0,0,1-.55,2.17c.14-.83.34-1.82.39-2.28-.52,2.88-1.66,8.53-1.58,9.26-.76,3.61.21-2.07-.69,2.93l.07-.69c-2.09,9.78-2.53,16-4.85,26.94a11.23,11.23,0,0,1,.28-1.28c-1.15,6.21-2.2,12.64-3.27,19S72,892,70.92,898.15c-.6,3.49-.54,3.89-.79,6l-.26.74-.4,3.68c-.65,5.2-1.82,8.9-2.47,15.52l.22-.84c-.35,2.36-1,7.49-1,7.08A9.72,9.72,0,0,1,66,932l-.08.06-.68,5.82c-.68,4.49-.21-.74-1.14,5.81a59,59,0,0,0-.56,6.07,17.14,17.14,0,0,1,.49-2.57l-.27,2.23c.17.44.17,2.19,1.09-3.27l.39-3.83.29-1.21L65,944.2a33.9,33.9,0,0,0,.54-4.27,11.88,11.88,0,0,0,.35-1.57l.3-3.79c.15-.44-.06,1.71.34-.79.14-1.77-.43,1.65-.1-1.26A19.87,19.87,0,0,0,67,929.1c.1-.29.08.17,0,1,.19-1.91.67-5.05.68-6,.39-1.89.87-6.44,1.08-6.22,0-.61.35-3.37.61-5.12-.23,3.22,1-6.54,1.18-5.66.14-2.39,1.23-8.54,1.75-12.74a3.71,3.71,0,0,1-.12,1.07c.38-2.36.56-3,.84-4.53a54.53,54.53,0,0,1,.63-6c.67-2.84-.08,1.79.26.92-.18.12.7-5,.4-4.07a23.43,23.43,0,0,1,.73-3c-.17-.43.31-2.06.48-3.91a33,33,0,0,0,.89-4.29C76.77,868.86,76.32,872,76.32,872Zm15.47-83h0c-.14.71-.27,1.32-.35,1.71C91.51,790.32,91.61,789.83,91.79,789Zm1.47-7c-.18.85-.4,1.89-.64,3-.1.23-.09,0,.06-.74a18,18,0,0,0,.58-2.21Zm-4.07,14.49a9.67,9.67,0,0,1,.38-1.61c-.11.52-.23,1.13-.39,1.93v.13a1.86,1.86,0,0,1,0-.41Z"/><path class="cls-1" d="M89,798.53a1,1,0,0,1-.08.46,2.57,2.57,0,0,1,.17-.66.83.83,0,0,0,0-.39A1.29,1.29,0,0,0,89,798.53Z"/><path class="cls-1" d="M254.74,176.82V177a1,1,0,0,1,.09-.3Z"/><polygon class="cls-1" points="115.69 686.62 115.65 686.62 115.54 687.23 115.69 686.62"/><path class="cls-1" d="M263.9,138.8c0-.07.07-.21.15-.5A4.74,4.74,0,0,0,263.9,138.8Z"/><path class="cls-1" d="M267.54,122.31l.53-2.33Z"/><path class="cls-1" d="M270.25,109.61a1.13,1.13,0,0,0,0-.26h0Z"/><path class="cls-1" d="M221.06,310.13l-.13.48C220.65,311.76,220.85,311,221.06,310.13Z"/><path class="cls-1" d="M236.72,250.71l-.43,1.92A8.47,8.47,0,0,0,236.72,250.71Z"/><path class="cls-1" d="M202.6,376.2h0l-.12.41Z"/><path class="cls-1" d="M235.56,255.4c.31-1.05.53-1.94.73-2.77C236.05,253.46,235.77,254.52,235.56,255.4Z"/><path class="cls-1" d="M281,54.35l.12-.61v-.08Z"/><path class="cls-1" d="M281.12,53.66l.1-.68C281.17,53.29,281.12,53.56,281.12,53.66Z"/><path class="cls-1" d="M281.45,51.53,281.22,53C281.31,52.48,281.43,51.89,281.45,51.53Z"/><path class="cls-1" d="M277.86,71.26v.2A.34.34,0,0,0,277.86,71.26Z"/><path class="cls-1" d="M276.88,76.39c.25-1.22.7-3,1-4.76v-.17C277.79,72.27,277,75.21,276.88,76.39Z"/><path class="cls-1" d="M272.09,97.67c.32-1.43.61-2.85.9-4.28-.2.74-.46,1.71-.1-.25C271.68,98.53,273.25,92.05,272.09,97.67Z"/><path class="cls-1" d="M269.26,110.94c.45-2.3-.08,0-.09-.12C268.92,112.3,268.86,112.65,269.26,110.94Z"/><path class="cls-1" d="M247.44,206.56l-.07-.26C247,208.07,247.41,206.33,247.44,206.56Z"/><polygon class="cls-1" points="243.5 224.9 244.01 223.21 244.1 222.37 243.5 224.9"/><polygon class="cls-1" points="239.9 235.42 240.08 234.65 239.38 237.58 239.9 235.42"/><path class="cls-1" d="M196.13,394.22l.3-.48C196.74,392.55,196.64,392.26,196.13,394.22Z"/><path class="cls-1" d="M176.46,462.58a31.92,31.92,0,0,0-1.17,3.83C175.75,464.87,176.25,463.36,176.46,462.58Z"/><polygon class="cls-1" points="119.11 668.03 119.41 666.63 118.78 669.26 119.11 668.03"/><path class="cls-1" d="M56.4,109.37c-.23-.4-.2-.13.33,1l.52.75Z"/><path class="cls-1" d="M59.62,117.26c.69,1.32,1.52,2.83,1.26,1.89-.75-1.28-.83-1.63-1.66-3-.54-1.15-.86-2-.71-1.86-.23-.39-.78-1.81-1.15-2.39a48.36,48.36,0,0,0,2.4,5.41C59.92,117.75,59.69,117.34,59.62,117.26Z"/><path class="cls-1" d="M104,232.68l-.23-.76Z"/><path class="cls-1" d="M126.39,306a3.94,3.94,0,0,0-.27-.82A6,6,0,0,0,126.39,306Z"/><path class="cls-1" d="M129.75,318.63c-.07-.27-.13-.5-.19-.75A5.88,5.88,0,0,0,129.75,318.63Z"/><path class="cls-1" d="M104,232.68l.58,2A13.87,13.87,0,0,0,104,232.68Z"/><path class="cls-1" d="M67,132.72c-.17-.39-.32-.71-.47-1,.14.33.28.64.42,1Z"/><path class="cls-1" d="M92.93,200.76l-.22-.58-.24-.47Z"/><path class="cls-1" d="M83.9,176.45a2.52,2.52,0,0,0,.55.88,9.48,9.48,0,0,1-.55-1.16A.65.65,0,0,0,83.9,176.45Z"/><path class="cls-1" d="M68.7,138.25l-.3-.66Z"/><path class="cls-1" d="M99,218.3a1,1,0,0,0,0,.24Z"/><path class="cls-1" d="M289.33,917.73Z"/><path class="cls-1" d="M299.28,946.1l-.15-.39s-.08-.06-.11-.05Z"/><path class="cls-1" d="M135.89,341.78v-.11C135.68,341.07,135.78,341.41,135.89,341.78Z"/><path class="cls-1" d="M187.68,555.44c-.44-2.46,1.07,3.91.36.23C188.07,556,187.06,552.4,187.68,555.44Z"/><path class="cls-1" d="M67.21,133.3l.42,1Z"/><path class="cls-1" d="M188,555.67h0l-.07-.38A.79.79,0,0,1,188,555.67Z"/><path class="cls-1" d="M149.78,395.16a1.68,1.68,0,0,0-.08-.56A2.1,2.1,0,0,0,149.78,395.16Z"/><path class="cls-1" d="M139.79,355.3l.23,1C139.93,355.9,139.85,355.58,139.79,355.3Z"/><path class="cls-1" d="M155.09,415.86c.12.53.14.72.34,1.45v-.23A10.52,10.52,0,0,1,155.09,415.86Z"/><path class="cls-1" d="M160.32,437.45a.89.89,0,0,0-.07-.41,5.6,5.6,0,0,1-.17-.68Z"/><path class="cls-1" d="M267.37,853.9c.11.47.16.77.2,1C267.56,854.55,268.59,857.65,267.37,853.9Z"/><path class="cls-1" d="M66.9,132.72a2.55,2.55,0,0,1,.31.59c-.1-.23-.19-.46-.29-.68C66.88,132.57,66.85,132.56,66.9,132.72Z"/><path class="cls-1" d="M156.38,416.47l.82,3.44C157,419,156.67,417.7,156.38,416.47Z"/><path class="cls-1" d="M223.7,700.65l.22.79C223.84,701.13,223.77,700.85,223.7,700.65Z"/><path class="cls-1" d="M159.7,430.09c.1.62.23,1.28.37,2,0,.14.08.27.13.4Z"/><path class="cls-1" d="M275.17,876.89c-1.08-3.19-.68-1.44-1-2.08-1.34-3.78-.47-1.81-.81-3.12-.85-2.37-1.64-4.12-2.22-5.91,0-.14-.11-.49.06-.1-1-2.47-2.42-7.48-3.54-10.36a1.77,1.77,0,0,1-.08-.4c.06.5,0,.6-.1.53a29.82,29.82,0,0,1-1-3.21,9.63,9.63,0,0,0,.52,1.35l-.53-1.49c-.27-1.41.72,2,.84,2-1-2.92-2.24-6.29-2.91-8.55,0-.53,1.74,5.23.92,2.19l1.06,3.5c-.6-2.74.66,2.12.15-.41-1.43-4.59-1.73-5.1-3.15-9.67-.42-1,0,.38-.45-.62-2.18-6.45-1.17-5.26-2.86-10a27.38,27.38,0,0,1-1.78-5.06l.54,1.1c-1.34-4.45-1-2.45-2.34-7.15.32.81,1.13,3.48.95,2.79a43.18,43.18,0,0,0-1.47-4.42v-.55c-1.5-4.72-3.12-10-4.7-15.18.14.26.45,1.15.14-.09-2-6.62-4.17-14.17-5.86-20.63l-.83-2.42c-.16-.56-.23-1.07,0-.46-.65-2.52-.13-.1-.52-1.29-.41-1.43-.45-1.91-.15-1-1.36-4.39-3.79-12.52-4.94-17.22l.3.9c-1-3.65-1.41-4-2.2-7.44l.2.65c-2.06-7.91-4.54-16.61-5.94-22.68-.51-1.1-1.95-7.86-2.37-8.29-1-4.56-.64-3.28-2.2-9.66-.43-1.71-.83-2.49-1.41-4.58l.14-.09-.9-2.82-.22-1.57-.53-2a7.58,7.58,0,0,1,.28,1.58c-.43-1.54-.87-3.43-1.21-5-.22-.9-.39-1.8-.52-2.71l-2-7.26c.1.15.43,1.36.71,2.32-1.13-3.86,0-.75-1.05-4.28.08.49-.16-.24-.21-.31-.36-1.8-1.38-5.86-2.17-8.84l.25.55L213.71,660c.49,2.18.19,1.73-.27-.05v-.75c-.38-1.13.39,1.87-.31-.46-.53-2.28-.19-1.58.18-.28l-.73-2.75c0-.17.19.47.29.62-.37-1.1-1-4.8-1.58-6.4v-.17c-1.49-6.08-2.16-8.83-3.38-13.79a35.36,35.36,0,0,1-1.06-3.46c-.82-3.66-1.69-7.73-2.75-12.12-.79-3.07-.33-.88-.74-2.24.08-.26-1-4.65-.34-2.39-1.27-5.28-1.61-6.73-3.29-13.39.12.74.29,1.56.15,1.15a12.79,12.79,0,0,1-.49-2.61l.08.31c-2-7.44-3.68-17.37-5.33-23.28l.09.33-1.57-6.16c-.64-2.85.49,1.69.08-.44-1.77-6.62-2.42-10.55-3.83-16-.61-4.34-3.52-15.1-4.61-20.91v.35a23.68,23.68,0,0,1-.6-2.9c0,.17.3,1.63,0,.72-3-12.57-5.87-26-8.8-38.92-1.07-4.72-1.07-2.57-2.24-8.56l.55,1.64c-2.41-9.47-4.55-19.45-6.9-28.72a12.07,12.07,0,0,1,.43,1.45c-.17-1-.59-2.81-1-4.38-.2-.79-.4-1.51-.54-2a5.19,5.19,0,0,0-.28-.87c-.33-1.45,0-.35-.16-1.26-.4-2-1.33-4.91-1.46-6a7.62,7.62,0,0,1,.26.9c-.36-1.27-1.41-6-1.25-4.72-.77-3.51-1.66-6.66-2.24-9.48-.58-1.78-1.38-6-1.73-6.51.28.19-1.32-6.16-2-8.34.25.72-.4-1.93-.09-1.09-.62-2.52-1.23-4.81-1.23-4.35-.87-4.71-2.49-9.27-2.81-12-2-7.44-3.78-14.33-5.55-21,.28.19,1.89,7.43,2.05,7.08-1.68-6.35-2.8-10-4.4-16.3-.39-1.63.34.91.52,1.45-1.74-6.33-3.17-12.28-4.75-17.9,0,0,.2.61.37,1.18a13.76,13.76,0,0,0-.71-2.45l.31,1.08c.33,1.82-1.46-4.34-1.6-4.51.79,1.8-1.43-5.59-.27-2.7-.21-.71-.51-1.62-.53-1.43-.27-1.1-.32-1.45,0-.37-1.13-4-.85-2.53-1.82-6.13.05,0,.26.72.42,1.08-.58-1.81-1.17-3.61-2-6.67.08.17,0-.19.26.72-.71-2.61-1.37-4.83-2-7.1s-1.39-4.62-2.15-7.5c.69,1.64-.47-2-.38-2.31l-.92-3.07.26,1.26c-.75-2.69-1.55-5-2.15-7.37l.64,2-1.45-5,.73,2.88c-.86-2.7-.14.36-1.1-3.25.22.73-.75-2.69-1.06-4.13h0c-.45-1.3-.91-2.66-1.46-4.66-.09-.53.33.36.26,0-.53-1.26-1.89-6.27-2.54-7.89.2.54.3.55.27.36l-.45-1.07c-.32-1.26-.36-1.45-.22-1.27-1.09-3.74.12,1.26-1.09-3.21.11.35.08.18.31.9-1.26-4.48-2.61-8.6-3.83-12.69-.2-1.27,1.15,3.55.87,2.12-1.86-5.88-4-12.12-5.72-17.83l.31,1.07c-.51-.71-1.16-4.3-2.23-7.13.25.7.44.88.35.7-1.23-3.89-2.66-7.91-4.67-13.77l.31.71c-.69-2.31-1.94-6-2.72-8.52-.31-.71-.76-2.13-.57-1.24C100,218.12,97,211.44,95,204.56c.28.81.72,1.9.5,1.26-.69-1.89-1.34-3.81-2.07-5.7a16.87,16.87,0,0,0,.55,2c-.3-.71-1-2.29-1.48-3.7,1,2.53.17-.08-.18-1.21,0,.2-.14-.17-.14-.06-.9-3-.4-.42-1.76-4.52l.13.19c-.59-1.51-1.18-2.87-1.76-4.52-.13-.73.65,1.6.79,1.66-.85-2.3-1.91-4.45-2.55-6.57l1.31,3.32c-.69-2.31-.83-2.56-1.42-4.26v.17l-1.36-3.91.32,1c-1.36-2.77-2.32-5.8-4-9.56,1.67,3.65.36.57.61.8a12,12,0,0,1-.68-2.1c-.83-1.77-1.1-3.06-2.28-5.57,0-.13-.76-2-.48-1.57-1-2.36.14.58,0,.4-.79-1.78-1.59-3.94-2.47-6.29s-1.94-4.87-3.12-7.44c-2-4.43-2.46-5.2-4.28-9.32-.52-1.42.64,1.08.64,1.08-.88-2.28-1.61-4-2.56-6.09.22.41.07,0-.15-.71-.74-1.7-.63-1.08-1.57-3.34.22.36.53.82.94,1.61l-2.88-6c-.17-.59.68,1.19,1.06,1.9-1.08-2.31-2.78-6-3.22-6.64l.62,1.51c-.38-.85-.09-.48.22.13a12.87,12.87,0,0,1,1.25,3l-.69-1.46c.4,1.64,2.73,5.87,4,8.87l-.71-1.16,1.45,3c.22.67.3,1.17-.35-.3.81,2.19.87,1.87,1.54,3.75.07.21,0,.12-.07,0l.94,2.06c-.21-.39,0,.41-.5-.89,1.46,3.8,2.69,6,3.14,7.48l-.15-.31c2.26,5.19.36.44,2.16,4.29l.76,2.77.36.45a6.72,6.72,0,0,1,.5,1.45c.89,2-.08-.37.47.77.9,2.66,2.9,7.17,2.9,7.85.48.9-.9-2.52.28.23.07.9,1.31,3.21,2.13,5.64-.41-.68-1.23-3-.41-.54.78,1.37,1.78,4.67,2.62,6.66.23,0,1.74,4.38,3,7.77-.13-.2,2.27,6.44,3.38,9.63l-.06-.08c.4.55,1.57,3.83,2.48,6.19-.14,0-.33-.46-.86-1.73l.83,2.23a23.3,23.3,0,0,1,1.07,2.65l-.33-.52c1,3,2.25,6,3.5,9.87.2.18-.73-3.19.77.87,0,.18-.07.37-.47-.69.13.34.49,1.23.7,1.93l-.67-1.58c.56,1.77.41.89.88,2.29-.1,0,.3,1.06.15.89-.13-.36-.38-1.24-.61-1.77.54,1.59,1.15,3.53,1.3,4.19,0-.16.12,0,.54,1.1a21.37,21.37,0,0,1,.8,2.84,23.15,23.15,0,0,0,1.07,2.64,7.78,7.78,0,0,1,.36,1.42c.57,1.53,2.4,7.28,2,5.48l-.12-.41a1.34,1.34,0,0,0,.09.26h0c1.81,5.07,3.4,10.64,5.12,15.7h0c1.07,3,2.16,6.76,3,8.9.28.9.57,2.15.4,1.79.76,2.32.89,2.56,1.85,6a16.76,16.76,0,0,1-.8-2.39c.9,3,1,3.76,2.17,7-.46-1.07.55,2.32,1,3.75l-.58-2.15c.52,1.62,1,3,1.39,4.48l-.4-.73c1.66,6.26,3.64,11.1,4.71,16,.6,1.61-.91-3.4-.35-2,.82,2.86,1.47,5.9,1.73,6.8,1.06,3.94,1.34,3.59,2.43,7.72-.09-.54-.08-1.09.84,2,.79,2.89.76,3.6.2,1.8a7,7,0,0,1-.25-1c-.28-.93-.64-2.14-.39-1l.17.36c.34,1.44,1.45,5.39,1.1,4.48.66,2.16.35.91-.07-.71,1,3.71,1.62,5.76,2.63,9.56-.14-.61-.23-1.18-.06-.58,1.49,5.58.8,2.42,1.88,6.18.51,2.17-.41-.72.71,3.07.56,2.34,0,.53-.32-.38,1,3.44,1.67,6.49,2.19,8.48l-.54-1.81c.32,1.08.56,2,.8,2.89l-.16-1.07a16.88,16.88,0,0,1,.46,2c.37,1.08,0-.89.65,1.27.33,1.45,1.24,4.33,1.22,4.87-1.16-4.51,0,.54-1.07-3.26.22.73.46,1.62.73,2.7,0,.17-.07-.14-.16-.43,1,4.33.7,1.93,1.9,6.39-.24-.54.12,1.08.33,1.8-.48-1.8-.09-.9.42.73.69,2.88.86,3.1,1.25,4.6l-.42-1.71c.24.55.6,2,1.15,4,0,.19-.52-1.81-.36-1.09.72,2.19,1.14,5.06,2,8.12.32,1.45-.12.18.16,1.45,1,3.44.86,3.78,1.9,7.41-.16-1.08-.24-1.26.54,1.27l-1.63-6,1.16,3.8c-.46-1.81-1.06-3.79-1.32-4.88.57,1.8.49,1.62.36.74.47,2.51,1.38,4.87,2,7.76H145c1,4.34,2.07,7.61,3.41,13.23l-.4-1.81c.3.72.88,3.45,1.38,5.24-.14-.14.11,1,.25,1.79,0-.11,1,4.09,1.34,4.55l.5,2.54c1.08,4.53,1.54,5.08,2.57,9.45-.42-1.29,0,.7-.79-2.19a21.54,21.54,0,0,0,.73,2.76c.14.86,1.11,4,1.34,5.35a18.71,18.71,0,0,1,.73,2.42c0,.18,0,0,0,0s.69,2.53.45,1.09c.8,4.54,3.07,12.49,3.73,16.45l2.43,9.86a1.53,1.53,0,0,1-.17-.55c.86,4,.86,2.39,1.84,6.93.39,2.34-.66-2.39-.37-.93-.17.7,1.35,5.45,1.87,8.53l-.19-.73c.44,2.36,1.45,5.65,2.32,9.46h0c.77,2.56,2,7.47,2.88,11.12-.39-1.11-.45-1.65-.42-.93.41,1.64.09-.52.9,2.74.18,1.08.67,3.46.61,3.81l-.73-3.1c.2,1.63.94,4,1.28,5.64l-.12-.19c1.12,4.72,1.33,4.75,2.5,9.84l-.07-.54c.84,2.74.44,2.36,1.22,5.1v.85c.47,1.82,1.68,6.38,2.47,9.67-.57-1.84-1.54-5.67-2.18-8,.42,1.83,1.45,6.18,1.77,7.11-.19-.73-.45-1.64-.59-2.38.67,2.21,1.42,5.12,2.25,8.76-.52-.56,2.09,9.47,2.41,12.16,1.62,6.38,2.88,12.73,4.63,20.2-.32-2.72.51,2.18.7,1.65.42,1.74.57,2.4.59,2.56l1,5.32c.2,1.26-.45-1.64-.48-1.47.86,3.82.25,1.63.75,4.17,0-.54.46,1.29.92,3.47l-.57-3.09c1.39,5.29.82,4.66,2.22,10l-.49-1.68c.7,2.75,2.36,10.16,3.23,12.81.08.49.15,1.15-.16,0,1.49,6.58,3.68,14.58,4.74,19.72l-.19-.47c.31,1.21.64,2.1.93,3.65,0-.07-.19-.48-.06.1s.89,3.22,1.23,4.86l-.41-1.37c1.42,6.44,2.51,9.8,3.86,15.16-.22,0,.92,5.1,1.49,7.62l-.06-.08c1.77,7.47,3.2,12.63,5,19.51.82,4.34,3.46,14.54,5,21.46-.22-1.06.2.13.53,1.35.37,1.62,1.27,4.42,1,4.21l-.14-.58c.12,1.27,1,4.57,1.65,7.17l.36.36c1.33,6.86,4.59,17.71,5.24,21.47.47,1.63,1,3.63,1.5,5.24H226c1.14,4.53,1.71,6.79,3.19,12.37l-.39-1.11c.81,3.15,1.41,3.87,2.2,6.77v.92c1.48,5.49,2.8,11.09,4.44,16.46a4,4,0,0,1-.4-1.11c.69,2.58,2.55,10,2.58,9-.18.11,1.56,5.65,2.46,8.58l-.26-.43c.87,2.45.94,2.52,2,6,.22.84.1.76-.17-.35.7,2.77.72,2.11,1.58,5.46l-.43-1.22a39.38,39.38,0,0,0,1.3,4.12,53.47,53.47,0,0,1,1.47,5.83,26,26,0,0,1,1.19,3.55c0,.23-.19-.36-.29-.67,1.29,4.75,2.2,7,3,10.25a2.18,2.18,0,0,0,.08.57L247.64,793c-.13,0,.74,3.07-.14.71.81,2.4,2.22,6.5,3,9.46,0,.13.05.27.07.4l-.1-.3c.18.68.37,1.29.56,1.86l.68,2.45c0,.38,1,3.49,1.39,5,.1-.17.68,1.81.23-.07a11.83,11.83,0,0,1-.4-1.28l-.2-.64v.1c-.29-1-.67-2.28-1.11-3.74a38,38,0,0,1,1.26,4.09c.31.74.64,1.57.83,2,.45,2.12,1.56,6.11,1.61,6.7,1.48,4.57,3.37,10.8,4.5,13.6a10.74,10.74,0,0,1,.5,2c-.26-.74-.53-1.64-.69-2,.86,2.59,2.39,7.72,2.79,8.28,1,3.3-.76-1.78.72,2.71l-.25-.59c2.58,9,5.06,14.24,7.89,24.16-.2-.69-.31-1-.33-1.18,1.81,5.59,3.79,11.31,5.75,17s3.89,11.41,5.77,16.9c1.06,3.12,1.29,3.41,2,5.28l.1.72,1.32,3.18c.88,2.27,1.51,4.29,2.2,6.45a72.89,72.89,0,0,0,2.67,7.33l-.19-.78c.77,2.08,2.55,6.55,2.31,6.25a8.84,8.84,0,0,1,.61,1.46l-.05.09,2.05,5c1.44,4-.52-.51,1.64,5.26a52.1,52.1,0,0,0,2.27,5.2,15.41,15.41,0,0,1-.74-2.33l.78,2c.35.27,1.14,1.7-.52-3.17l-1.4-3.3-.31-1.12,1.08,2.82a31.39,31.39,0,0,0-1.47-3.73,12,12,0,0,0-.42-1.45l-1.45-3.21c-.06-.43.73,1.42-.06-.81-.68-1.51.37,1.55-.66-1a16.41,16.41,0,0,0-1-3c0-.29.15.1.45.84-.7-1.66-1.7-4.42-2.14-5.24-.26-.86-.8-2.28-1.25-3.45a6.89,6.89,0,0,1-.62-2.12c-.24-.51-1.23-2.91-1.79-4.45,1.26,2.73-2.06-5.81-1.52-5.15-1-2-2.81-7.52-4.26-11.19a8.1,8.1,0,0,1,.38.92c-.73-2.08-.88-2.71-1.31-4.07-.3-.2-1.44-3.46-2.15-5.18-.7-2.63.74,1.49.64.62-.11.18-1.66-4.42-1.49-3.5A20.6,20.6,0,0,1,277,883c-.35-.27-.66-1.82-1.36-3.4a26.59,26.59,0,0,0-1.16-3.91C274.15,874.14,275.17,876.89,275.17,876.89Zm-24-74.84h0c.19.64.35,1.19.46,1.55-.07-.31-.2-.73-.44-1.5Zm-1.85-6.34c.22.78.5,1.74.8,2.75,0,.23-.1,0-.29-.63a18.31,18.31,0,0,0-.49-2.07Zm3,13.68a8.4,8.4,0,0,1-.4-1.49l.53,1.75v.12a2.19,2.19,0,0,1-.12-.33Z"/><path class="cls-1" d="M253,811.19c.05.15.07.23.13.42A3.18,3.18,0,0,0,253,811a1.33,1.33,0,0,0-.15-.35A1.56,1.56,0,0,1,253,811.19Z"/><path class="cls-1" d="M103.75,231.79v.13l-.07-.28Z"/><polygon class="cls-1" points="225.6 707.76 225.57 707.78 225.74 708.32 225.6 707.76"/><path class="cls-1" d="M92.31,197.26a2.42,2.42,0,0,0-.13-.46Z"/><path class="cls-1" d="M86.91,182.5l-.73-2.09C86.5,181.31,86.73,182,86.91,182.5Z"/><path class="cls-1" d="M82.65,171.19a.67.67,0,0,0-.14-.19h0Z"/><path class="cls-1" d="M140.49,354.25a1.57,1.57,0,0,0,.12.45C140.91,355.76,140.71,355,140.49,354.25Z"/><path class="cls-1" d="M125,299.23c.2.58.38,1.15.57,1.75A7.79,7.79,0,0,0,125,299.23Z"/><path class="cls-1" d="M156.29,416.11h0l.09.39Z"/><path class="cls-1" d="M126.32,303.54c-.24-1-.48-1.8-.71-2.56C125.82,301.79,126.08,302.74,126.32,303.54Z"/><path class="cls-1" d="M62.58,122.83l-.23-.53-.05-.06Z"/><path class="cls-1" d="M62.3,122.24l-.28-.58C62.14,121.93,62.25,122.16,62.3,122.24Z"/><path class="cls-1" d="M61.43,120.43l.59,1.23C61.84,121.24,61.65,120.83,61.43,120.43Z"/><path class="cls-1" d="M69,137.51l.12.15A.8.8,0,0,1,69,137.51Z"/><path class="cls-1" d="M70.84,142c-.43-1.07-1-2.73-1.68-4.2l-.09-.12C69.43,138.32,70.34,141,70.84,142Z"/><path class="cls-1" d="M78,161l-1.45-3.81c.21.68.49,1.58-.2-.14C78,161.87,76,156,78,161Z"/><path class="cls-1" d="M82.52,172.75c-.82-2-.06,0-.14,0C82.94,174,83.07,174.29,82.52,172.75Z"/><path class="cls-1" d="M112.36,258.93l-.19-.17C112.69,260.36,112.23,258.76,112.36,258.93Z"/><polygon class="cls-1" points="118.15 275.39 117.75 273.8 117.4 273.09 118.15 275.39"/><polygon class="cls-1" points="120.19 285.53 119.96 284.83 120.8 287.52 120.19 285.53"/><path class="cls-1" d="M159.28,433.63v-.53C159,432,158.8,431.81,159.28,433.63Z"/><path class="cls-1" d="M174.61,497.94a28.09,28.09,0,0,0,.79,3.64C175.07,500.17,174.8,498.7,174.61,497.94Z"/><polygon class="cls-1" points="220.06 691.06 219.68 689.78 220.34 692.21 220.06 691.06"/></g></g></g></g></g></svg>