<svg xmlns="http://www.w3.org/2000/svg" viewBox="0 0 216.15 180.7"><defs><style>.cls-1{fill:#4d4d4d;}</style></defs><g id="Layer_2" data-name="Layer 2"><g id="sketch"><g id="avatar"><path class="cls-1" d="M102.88,1.14c-.31.12-.11.29.78.14l.6-.4Z"/><path class="cls-1" d="M109,1.15c1-.24,2.25-.58,1.54-.85-1,.37-1.29.27-2.38.73-.89.11-1.57,0-1.44-.11a10.68,10.68,0,0,0-1.86.32A13.87,13.87,0,0,0,109,.93C109.35,1,109,1.08,109,1.15Z"/><path class="cls-1" d="M190.53,25.43c-.13-.14-.24-.28-.38-.41Z"/><path class="cls-1" d="M213.87,72.86c-.07-.4-.13-.57-.16-.58C213.79,72.65,213.86,73,213.87,72.86Z"/><path class="cls-1" d="M214.12,82.05c0-.2,0-.36,0-.54A1.65,1.65,0,0,0,214.12,82.05Z"/><path class="cls-1" d="M190.53,25.43l.95,1.09C191.63,26.52,191,26,190.53,25.43Z"/><path class="cls-1" d="M121.06,0c-.3,0-.56,0-.79.07l.74,0Z"/><path class="cls-1" d="M170.81,12.32l-.4-.19-.38,0Z"/><path class="cls-1" d="M153.73,6c.39.12.6-.11.79-.18a2.49,2.49,0,0,1-.92-.06C153.58,5.82,153.61,5.9,153.73,6Z"/><path class="cls-1" d="M125.16,1.25l-.52,0Z"/><path class="cls-1" d="M182,19a.31.31,0,0,0,.08.18S182.07,19,182,19Z"/><path class="cls-1" d="M81.78,5s0,0,0,0S81.92,5,81.78,5Z"/><path class="cls-1" d="M103,1.87l-.29.06a.34.34,0,0,0,0,.16Z"/><path class="cls-1" d="M212.56,98.72s0,0,0-.07C212.61,98.21,212.58,98.45,212.56,98.72Z"/><path class="cls-1" d="M97.76,177.5c1.72.44-2.87,0-.27.57C97.26,177.94,99.91,177.9,97.76,177.5Z"/><path class="cls-1" d="M121.54,0h0Z"/><path class="cls-1" d="M97.49,178.07h0l.27,0Z"/><path class="cls-1" d="M199.06,134.55a1.92,1.92,0,0,0,.32-.26S199.27,134.34,199.06,134.55Z"/><path class="cls-1" d="M211.05,108.48l-.23.68C210.92,108.89,211,108.67,211.05,108.48Z"/><path class="cls-1" d="M190.08,146.49a6.62,6.62,0,0,0-.73.75.55.55,0,0,0,.14-.09A2.75,2.75,0,0,1,190.08,146.49Z"/><path class="cls-1" d="M178.43,156.84l.26-.13.39-.31Z"/><path class="cls-1" d="M39,26.94a2.79,2.79,0,0,1,.73-.28C39.41,26.67,41.21,25.12,39,26.94Z"/><path class="cls-1" d="M121.07.16a.9.9,0,0,1,.47-.12H121S121,.13,121.07.16Z"/><path class="cls-1" d="M191.25,148.49c-.57.62-1.21,1.18-1.82,1.77C190,149.77,190.65,149.17,191.25,148.49Z"/><path class="cls-1" d="M8.46,126.92l-.32-.49A3.21,3.21,0,0,0,8.46,126.92Z"/><path class="cls-1" d="M183.88,155.36a11.58,11.58,0,0,0-1.23.75,1.15,1.15,0,0,0-.18.24Z"/><path class="cls-1" d="M39.74,26.66h0Z"/><path class="cls-1" d="M53.23,16.86c-2.1,1.19-.8.87-1.14,1.31-2.41,1.57-1.28.45-2.21.8-1.5,1-2.45,2.06-3.59,2.77-.11,0-.34.13-.13-.1-1.42,1.29-4.64,3.21-6.14,4.91a.73.73,0,0,1-.28.11c.4-.08.56,0,.58.18-.84.69-1.39,1.45-1.85,1.52a2.33,2.33,0,0,0,.67-.78l-.79.8c-1,.39,1.09-1.08.94-1.27-1.62,1.49-3.36,3.37-4.68,4.42-.5,0,2.88-2.68,1-1.43l2.06-1.6c-1.87.88,1.22-1-.54-.25-2.66,2.17-2.8,2.64-5.38,4.89-.43.67.37,0-.06.7-3.27,3.6-3.36,2-5.55,4.92a7.67,7.67,0,0,1-2.29,3.1l.29-.9c-2.25,2.45-.87,1.76-3.33,4.23.29-.57,1.61-2.06,1.25-1.71-1.71,1.52-.89,1.35-2,2.68l-.49.06a110.32,110.32,0,0,0-6.46,9.37c0-.24.32-.86-.28-.15A153.18,153.18,0,0,0,5.25,68.85c-.17.6-.32,1.2-.45,1.81-.16.39-.41.69-.29.24-.79,1.7.13.15-.09,1-.37,1-.67,1.25-.51.59-.45,1.6-1.08,3.87-1.66,6.17C2,79.84,1.72,81,1.44,82.08S1,84.18.74,85l0-.68A8.89,8.89,0,0,0,.55,87.2a11.28,11.28,0,0,1-.2,2.7v-.48c-.07.73-.15,1.47-.22,2.22S.06,93.14,0,93.89c-.08,1.51,0,3,.05,4.47s.23,2.87.3,4.2.29,2.56.35,3.7c.52.76,1.09,5.75,1.84,5.93.34,1.65.4,2.26.6,3a31,31,0,0,0,1.21,3.92c.5,1.17,1.07,1.6,1.8,3l-.26.17L7.16,124l.19,1.18c.25.42.53.83.79,1.24-.28-.52-.5-1.14-.38-1.11a28.61,28.61,0,0,1,1.76,3.2,7.58,7.58,0,0,1,.82,1.82c1,1.49,2.17,2.9,3.3,4.3-.17,0-.74-.73-1.22-1.26,2,2.15,0,.64,1.86,2.57-.17-.32.26,0,.35.05a25.7,25.7,0,0,0,1.71,2.39c.76.91,1.65,1.88,2.4,2.69l-.43-.18a93.3,93.3,0,0,0,9.32,9c-1.15-1.15-.62-1.18.38-.34l.18.6c.79.39-1-1,.53-.05,1.27,1.09.63,1-.18.47l1.65,1.21c0,.15-.38-.12-.55-.1a11.34,11.34,0,0,1,1.7,1.44,8.78,8.78,0,0,0,2,1.47l0,.14c1.78,1.38,3.16,2.25,4.41,3.12l4,2.56c.21-.2,1.4.6,2.44,1A79.61,79.61,0,0,0,51.91,166c2.08.91.7.09,1.68.4,0,.3,2.94,1.7,1.36,1.13a88.37,88.37,0,0,0,9.11,3.74c-.45-.3-1-.57-.67-.53.83.31,1.84.83,1.67.9l-.22-.05c2.62.81,5.53,2.07,8.38,3.13,1.42.55,2.82,1.06,4.14,1.44a20,20,0,0,0,3.66.83l-.25,0c1.5.29,3,.55,4.49.76,2,.48-1.26-.08.22.4,4.88.56,7.62,1.48,11.68,1.61a13,13,0,0,0,3.08.59,40,40,0,0,0,4.13.25c1.46.05,2.95.05,4.34.06s2.68,0,3.74.13l-.25-.17a6.59,6.59,0,0,1,2.14.09c-.13-.13-1.19-.13-.52-.24,9.21-.54,19.05-1.4,28.29-3.73a6.53,6.53,0,0,0,2.63-1.13,8.87,8.87,0,0,1,3.32-1.12c-.36.23-.72.47-1.08.69,6.56-2.44,13.5-4.88,19.42-8.38a3,3,0,0,1-.89.65,16.6,16.6,0,0,0,4.64-2.74c.93-.51.3,0,.92-.22,1.31-.66,3-2.15,3.72-2.41.13,0-.3.3-.51.46.72-.63,3.68-2.45,2.77-2.17,2.17-1.39,3.92-3,5.6-4.17a16,16,0,0,1,2.07-1.83c.75-.64,1.4-1.22,1.42-1.52.07.21,1-.44,2-1.38a31.72,31.72,0,0,0,2.56-2.76c-.28.5,1.06-.94.76-.34,1.27-1.37,2.37-2.68,2-2.6a20.06,20.06,0,0,0,3.24-3.76,10.87,10.87,0,0,1,2.48-3,99.48,99.48,0,0,0,7.47-13.69,6.47,6.47,0,0,1-1,2.62c-.62,1.17-1.21,2.3-1,2.32.52-1.06,1-2,1.38-2.92s.71-1.79,1.06-2.65.72-1.7,1.07-2.63.73-1.89,1.19-3-.07.71-.16,1.12a88.65,88.65,0,0,0,3.94-12.67,3.12,3.12,0,0,1-.12.89c.23-.79.56-1.84.33-1.8,0,.27-.07.54-.13.8-.58,1.2.12-3.33,0-3.5.28,1.48,1-4,1.28-1.68.09-.54.08-1.23-.07-1.13.17-.79.29-1,.31-.19.36-2.94,0-1.93.4-4.57.1,0,0,.56.13.85a34.41,34.41,0,0,1,.25-5c.05.14.15-.11.08.56a26.52,26.52,0,0,0,.16-2.73c0-.87,0-1.71,0-2.56s0-1.7,0-2.61-.05-1.88,0-2.94c.46,1.24.11-1.45.48-1.68a21.91,21.91,0,0,0-.22-2.29l-.1.93c-.16-2-.58-3.73-.6-5.46l.27,1.47c-.07-.62-.11-1.25-.2-1.87L215,71.17l.18,2.12c-.49-2-.44.27-.73-2.36.12.52-.29-2-.23-3h0a21.56,21.56,0,0,1-.87-3.37c0-.4.47.21.49,0a14.87,14.87,0,0,1-.82-2.74,15.7,15.7,0,0,0-1.08-2.87c.19.37.39.34.39.2l-.48-.72c-.19-.9-.19-1.05,0-1-.37-1.34-.42-1.09-.47-.91s-.05.16-.12,0-.16-.53-.42-1.31c.11.23.1.11.33.6-.54-1.57-1.15-3-1.75-4.5a21.47,21.47,0,0,0-1-2.12c-.33-.69-.65-1.39-1-2.09,0-1,1.22,2.37,1.07,1.31-.49-1-1-2-1.53-3s-1.18-1.93-1.77-2.9l-1.77-2.86c-.62-.92-1.25-1.81-1.83-2.7l.41.68c-.38-.1-.77-.79-1.24-1.66A11.69,11.69,0,0,0,199,33.29c.36.39.66.37.53.29a29.08,29.08,0,0,0-3-3.55l-1.86-1.93c-.67-.68-1.45-1.33-2.26-2.09l.49.29c-.58-.64-1.35-1.48-2.2-2.25s-1.73-1.54-2.42-2.17c-.49-.27-1.3-.95-.92-.4a32.46,32.46,0,0,0-3.16-2.77c-1.11-.82-2.27-1.51-3.39-2.21s-2.3-1.27-3.39-1.95-2.21-1.3-3.25-2c.54.28,1.33.58.91.35-1.3-.64-2.57-1.32-3.91-1.87.21.36.46.36,1.19.92a15.05,15.05,0,0,1-2.66-1c1.82.69.15-.34-.56-.82.1.13-.19.07-.16.17-1.89-1.3-.53.26-3.24-1.18L165.9,9l-1.61-.53A15.33,15.33,0,0,1,162.63,8c-.39-.42,1.19.31,1.34.13a43.89,43.89,0,0,1-4.8-1.45c.73.14,1.73.49,2.45.68A12.25,12.25,0,0,0,158.68,6l.12,0c-.93-.34-1.84-.71-2.78-1l.7.29c-2.29.08-4.31-1.1-7.28-1.3,2.87.24.51-.14.79-.38-.71-.26-1.8-.62-1.46-.62-1.42,0-2.25-.66-4.24-.7-.07-.11-1.47-.26-1.11-.44-1.8-.23.39.23.22.33-2.79-.17-6.42-1.43-10.46-1.38-3.46-.11-4.12.17-7.31.17-.54-.1-.31-.18,0-.23a8.39,8.39,0,0,1,.85-.08,23.9,23.9,0,0,0-4.68-.17c.33-.08,0-.16-.51-.27-1.32,0-.88.32-2.62.19a6.25,6.25,0,0,1,1.32-.4c-1.56.1-3.09.28-4.7.41-.43-.16,1-.28,1.53-.4a26.27,26.27,0,0,0-5.22.59l1.16,0c-.66,0-.35-.22.13-.29a3.39,3.39,0,0,1,2.33.11l-1.14.1c1.19.52,4.58-.21,6.89-.12l-1,.4,2.36-.31c.5.12.84.35-.3.4,1.64.23,1.47-.11,2.87.17.15,0,.08.06-.06.07l1.61-.06c-.32.08.25.3-.73.2,2.86.39,4.66,0,5.71.39h-.24c4,.21.41-.29,3.44-.33l1.92,1,.43-.25c.41.07,1.21.2,1,.3,1.55,0-.24-.17.67-.24,1.93.52,5.43.75,5.79,1.31.74-.1-1.84-.54.28-.29.49.64,2.43.37,4.14,1-.6.13-2.24-.37-.52.26,1.16-.18,3.41.87,4.89,1.23.08-.17.89,0,2,.32s2.47.79,3.71,1.11c-.09,0,1,.44,2.45,1l2.23.89,1.95.91-.09,0a4.5,4.5,0,0,1,1.83.44c.84.31,1.79.79,2.62,1.13-.16.17-.49.11-1.4-.21l1.51.71a7,7,0,0,1,1.91.68l-.5,0a44.4,44.4,0,0,1,6.48,3.49c.28-.14-1.59-1.8,1.12-.36,0,.17,0,.43-.72.07a6,6,0,0,1,1.27.72c-.37-.17-.77-.3-1.16-.45,1.07.77.7.19,1.56.79-.13.16.56.56.35.6a10.46,10.46,0,0,0-1.08-.74A17.3,17.3,0,0,1,182,19c0-.15.15-.22.88.25,1.8,1.32.47.65,1.45,1.52.51.22,1.54,1.2,1.76,1a1.84,1.84,0,0,1,.66.8c1,.66,4.09,3.52,3.32,2.43l-.21-.21.15.11h0a26.1,26.1,0,0,1,2.15,1.95,25.56,25.56,0,0,1,2,2.15c1.25,1.52,2.55,3,3.71,4.47l-.08.06c.72.86,1.54,1.81,2.23,2.75s1.33,1.83,1.87,2.44c.37.55.73,1.4.47,1.23a23.61,23.61,0,0,1,2.22,3.78c-1-1.41.16.59-1-1.47.5,1,.82,1.6,1.14,2.23.16.3.34.61.57,1s.44.78.76,1.29c-.57-.62.43,1.65.95,2.57l-.5-1.48c.54,1.06,1,2,1.4,3l-.55-.38a49.18,49.18,0,0,0,2.38,5.75,18.86,18.86,0,0,1,1.48,5.21c.57,1.09-.55-2.41,0-1.45a28.33,28.33,0,0,1,.72,4.9c.44,2.82,1.1,2.49,1.41,5.49.06-.39.31-.81.76,1.41.29,2.09-.16,2.62-.4,1.32-.08-.5-.08-.74,0-.72-.14-.67-.33-1.54-.33-.7l.16.25c.1,1,.32,3.91.07,3.25.24,1.56.25.66.21-.52,0,2.69.43,4.18.31,7,.06-.44.19-.85.19-.41-.09,4.06.32,1.78.32,4.54-.25,1.56-.41-.57-.38,2.2-.19,1.69-.33.34-.39-.33a16.67,16.67,0,0,1-.18,3.47c-.18,1-.37,1.91-.47,2.62l0-1.32c0,.79-.09,1.43-.16,2.09l.32-.73c-.12.77-.19,1.43-.29,1.4.07.82.46-.56.5,1-.29,1-.38,3.15-.75,3.46.63-3.21-.36.3,0-2.43a15.41,15.41,0,0,1-.31,1.93c-.06.11-.05-.12,0-.33-.8,3,.19,1.49-.51,4.65-.09-.44-.5.66-.57,1.18.28-1.27.42-.54.3.66-.56,2-.44,2.22-.73,3.27l.39-1.18a13.18,13.18,0,0,1-.58,2.86c-.16.08.27-1.3.07-.81a9.86,9.86,0,0,1-.75,2.6,17.2,17.2,0,0,0-1.11,3c-.44.94-.34,0-.71.82a8.8,8.8,0,0,1-.94,2.45,13.86,13.86,0,0,0-1,2.51c.5-.61.5-.76,0,1l1.47-4.09-.73,2.72c.5-1.22.9-2.63,1.23-3.34-.31,1.3-.32,1.16.1.64a10.47,10.47,0,0,0-1.07,2.5,10.63,10.63,0,0,1-1.13,2.71l-.51-.3a33.81,33.81,0,0,0-1.87,4,35.85,35.85,0,0,1-2.39,4.55c.25-.36.53-.7.76-1.07-.06.59-1.27,2.16-1.86,3.33-.12-.22-.58.46-1,.85.16,0-1.67,2.43-1.56,3-.4.46-.85.88-1.28,1.31-2,2.54-1.83,3.29-3.92,5.67.45-.87-.58.13.66-1.58-.68.81-1.31,1.5-1.22,1.61-.5.36-1.78,2.31-2.57,2.89a3.94,3.94,0,0,1-1.06,1.44c-.12.07-.06-.07-.06-.07s-1.23,1.39-.34.82a54.89,54.89,0,0,0-4.68,3.94,26.3,26.3,0,0,1-4.66,3.43c-1.78,1.45-4,3-5.78,4.2.08-.12,0-.08.3-.28-2.54,1.35-1.19,1.44-4.12,2.94-1.62.54,1.43-1,.46-.6-.73-.36-3.37,2.07-5.54,2.68l.45-.27a17.83,17.83,0,0,0-2.68,1.39c-1,.56-2.15,1.2-3.4,1.75,0,0,.09-.11,0-.1A33.78,33.78,0,0,1,155,170.2c-1.33.61-2.78,1.18-4,1.7.68-.53,1.08-.55.52-.62-1.11.44.48.31-1.75,1.13-.78.12-2.44.54-2.74.35l2.12-.72c-1.2,0-2.74.94-3.89,1.19l.1-.19c-3.26,1-3.22,1.38-6.79,2.27l.39,0c-1.88.82-1.69.15-3.59.87l-.68-.25c-1.28.34-4.5,1.25-6.86,1.65a26.27,26.27,0,0,1,2.71-.77l3-.82c-.65.12-1.74.33-2.76.55a15.47,15.47,0,0,0-2.28.54,11,11,0,0,1,1.69-.33,27.57,27.57,0,0,1-6.24,1.33c.38-.75-6.84.48-8.77-.08-4.62.47-9.18.05-14.54-.3,1.86.74-1.57-.1-1.29.53a8.83,8.83,0,0,1-1.85-.18c-1.25-.27-2.5-.5-3.74-.82-.87-.3,1.2,0,1.1-.11-2.7-.44-1.1-.42-2.87-.84.34.27-1,.18-2.51-.19.71.21,1.41.46,2.12.65-3.84-.34-3.17-1-7-1.54l1.24.07c-2-.23-7.1-1.7-9.1-1.79-.32-.16-.72-.44.13-.25-4.52-1.37-10.21-2.81-13.51-4.52h.39a11.38,11.38,0,0,1-2.5-.9c.08,0,.39,0,0-.17A21.37,21.37,0,0,1,58,166.39l1,.26c-4.12-2.1-6.58-2.71-10-4.5.22-.38-2.89-2.28-4.37-3.32l.08,0c-4.53-2.88-7.86-4.68-11.91-7.62-1-1.17-3.07-2.84-5.16-4.78a67.28,67.28,0,0,1-5.89-6c.47.6-.34.15-1-.47-.7-.94-2.36-2.23-1.93-2.35l.27.32a24,24,0,0,0-3-4.17l-.6.07a37.48,37.48,0,0,0-2.15-3.51c-.76-1.25-1.69-2.47-2.42-3.74a22.63,22.63,0,0,1-3.06-6.15c-.58-1-1.19-2.34-1.74-3.38l.29-.05c-1.05-3.06-1.59-4.59-2.59-8.46l.38.75c-.48-2.19-1.48-2.6-1.8-4.69l.32-.68C2.05,100,2.21,96,2.05,92.09c.05.07.17.19.17.83,0-.93.27-2.71.39-4.17s.29-2.63,0-2.34c.34,0,.72-4,1.13-6.13l.19.39a14.47,14.47,0,0,1,.67-4.38c.23-.56.37-.43.06.31.79-1.85.22-1.58,1.21-3.81-.05.31-.11.61-.15.91a9.67,9.67,0,0,0,.84-2.93c.4-1.24,1.63-3.56,2-3.71a6.24,6.24,0,0,1,.91-2.48c.16-.1,0,.31-.07.52,1.77-2.95,2.16-4.67,3.66-6.55.11,0,.23-.1.35-.25-1.48,2.31-2.52,4.25-2.46,4.05.23.12,1.37-1.76.8-.07A31.63,31.63,0,0,1,15,56.11a1,1,0,0,1,.23-.18l-.1.2A10.24,10.24,0,0,0,15.8,55c.43-.53.71-.87,1.09-1.41a21.85,21.85,0,0,0,2.26-2.85c-.28-.1.65-1.21-.37-.29.12-.12-.1.19-.53.79-.09.14-.21.29-.26.39l0-.07c-.42.58-1,1.34-1.59,2.23a8.33,8.33,0,0,1,1.68-2.49c.19-.57.42-1.18.57-1.51,1.24-1,3.25-3.09,3.7-3.24,2-2.7,5.2-6,6.32-7.88a2.9,2.9,0,0,1,1.21-.87c-.36.43-.83.89-1,1.16,1.24-1.47,4-4,4.13-4.6,1.9-1.52-.78,1.17,1.64-1.12l-.26.38A71.14,71.14,0,0,0,40.9,27.8a31.07,31.07,0,0,1,7.47-5.37,2.62,2.62,0,0,1-.79.36c3.55-2.13,7.19-4.37,11-6.36,1.86-1,3.8-1.93,5.69-2.84s3.85-1.67,5.8-2.28a14.74,14.74,0,0,0,3.61-1.75l.58.11,2.17-1.13a17.76,17.76,0,0,1,2.32-.8c.76-.2,1.53-.33,2.32-.49a33.79,33.79,0,0,0,5.3-1.48l-.6-.06c1.53-.35,4.78-1.34,4.58-1a2,2,0,0,1,1.08-.33l.08.14,3.71-1c2.94-.47-.35.64,3.93,0,1.58-.31,4.47-1.17,3.86-1.18s-1.66.16-1.73,0l1.45-.31c.2-.5,1.29-1.16-2.39-.91l-2.48.68L97,1.6l2.13-.34a7.75,7.75,0,0,0-2.81.54,2.9,2.9,0,0,0-1.1,0l-2.37.94c-.34-.11,1-.58-.64-.34-1.11.44,1.19.17-.69.7-1.24,0-.94-.23-2.29.31-.22-.07.06-.22.6-.41a37.57,37.57,0,0,0-3.85,1.3c-1.31,0-4.13,1.24-4.13.78A23.29,23.29,0,0,1,78.62,6.4c1.87-1.19-4.16,1.4-3.81.7a24,24,0,0,1-3.47,1.63A40.5,40.5,0,0,0,67,10.66a2.12,2.12,0,0,1,.62-.37c-1.46.6-1.94.65-2.91,1,0,.22-.58.6-1.27,1s-1.5.93-2.05,1.33c-1.91.5.86-.93.16-1,.22.24-2.91,1.76-2.19,1.7-1.42.48-1.18.5-2,.56,0,.56-1.19.72-2.13,1.57-2,.85-.71-.13-2.69,1.17C51.49,18.05,53.23,16.86,53.23,16.86Zm-40,38.79h0l.62-1Zm-2.49,4c.28-.5.67-1.1,1.07-1.75.17-.09.16.12-.1.52C11.75,58.17,11.1,59.07,10.69,59.65Zm7.07-7.17c-.41.61-.59.79-.7.83l.73-1.05,0-.09A.8.8,0,0,1,17.76,52.48Z"/><path class="cls-1" d="M18.25,51.21c.06-.09.08-.15.16-.26l-.31.32-.09.26Z"/><path class="cls-1" d="M190.08,25l.07.07a1.55,1.55,0,0,1-.13-.17Z"/><polygon class="cls-1" points="5.86 122.3 5.92 122.26 5.67 121.92 5.86 122.3"/><path class="cls-1" d="M169.11,10.1a1.25,1.25,0,0,0-.28-.21A1.81,1.81,0,0,0,169.11,10.1Z"/><path class="cls-1" d="M158.68,6l-1.48-.57C157.84,5.72,158.31,5.9,158.68,6Z"/><path class="cls-1" d="M150.43,3.59a.38.38,0,0,0-.2.08h0Z"/><path class="cls-1" d="M213,108.39c0,.11-.05.23-.07.33C212.79,109.49,212.91,109,213,108.39Z"/><path class="cls-1" d="M214.2,67.9c.12.42.23.83.33,1.27C214.44,68.45,214.36,67.89,214.2,67.9Z"/><path class="cls-1" d="M191.45,148.29h0l-.19.21Z"/><path class="cls-1" d="M214.81,71.05a14,14,0,0,0-.28-1.88A17.41,17.41,0,0,0,214.81,71.05Z"/><path class="cls-1" d="M113.39.08H113s0,0,0,.05Z"/><path class="cls-1" d="M112.92.13l-.46,0A1.8,1.8,0,0,0,112.92.13Z"/><path class="cls-1" d="M111.5.3l1-.12A3.35,3.35,0,0,0,111.5.3Z"/><path class="cls-1" d="M124.78.2l.13-.1C124.84.12,124.79.15,124.78.2Z"/><path class="cls-1" d="M128.24.34A24.46,24.46,0,0,0,125,0l-.11.08C125.46,0,127.44.45,128.24.34Z"/><path class="cls-1" d="M142.38,3.22c-.94-.19-1.88-.39-2.83-.53.49.17,1.12.41-.18.25C142.9,3.8,138.67,2.56,142.38,3.22Z"/><path class="cls-1" d="M151.07,5.17c-1.51-.31,0,.16-.12.2C151.93,5.5,152.16,5.53,151.07,5.17Z"/><path class="cls-1" d="M202.63,40.5h-.29C203,41.51,202.43,40.46,202.63,40.5Z"/><path class="cls-1" d="M209.46,50.88a10.65,10.65,0,0,0-.32-1.14l-.45-.41C209,49.84,209.24,50.34,209.46,50.88Z"/><polygon class="cls-1" points="210.21 58.35 210.03 57.86 210.68 59.72 210.21 58.35"/><path class="cls-1" d="M180.48,155l.47,0C181.54,154.42,181.44,154,180.48,155Z"/><path class="cls-1" d="M139,175a7.3,7.3,0,0,0-2.58.47C137.39,175.3,138.44,175.21,139,175Z"/><polygon class="cls-1" points="14.36 131.71 14.99 132.4 13.89 131.03 14.36 131.71"/><path class="cls-1" d="M43.4,37.29c-.12,0-.21.19,0,.32l.34-.15Z"/><path class="cls-1" d="M44.19,38.79c.31.06.74.06.8-.29-.41.06-.38-.08-.85,0-.2-.13-.24-.35-.13-.42-.11,0-.22-.29-.45-.22a.91.91,0,0,0,.79.76C44.36,38.75,44.24,38.76,44.19,38.79Z"/><path class="cls-1" d="M61.15,54.21l-.08-.12A.28.28,0,0,0,61.15,54.21Z"/><path class="cls-1" d="M71.75,63.66c-.08-.06-.14-.07-.16,0S71.75,63.7,71.75,63.66Z"/><path class="cls-1" d="M73.34,65.53l-.09-.11C73.27,65.48,73.3,65.52,73.34,65.53Z"/><path class="cls-1" d="M61.15,54.21l.22.33C61.46,54.47,61.28,54.35,61.15,54.21Z"/><path class="cls-1" d="M47.1,40.26a.58.58,0,0,0-.21-.07l.16.1Z"/><path class="cls-1" d="M56.25,50.31l-.09-.08-.16,0Z"/><path class="cls-1" d="M52.59,47.2c.07.08.29-.11.4-.18a.34.34,0,0,1-.31,0A.67.67,0,0,0,52.59,47.2Z"/><path class="cls-1" d="M47.16,41.83,47,41.77Z"/><path class="cls-1" d="M58.81,52.61a.19.19,0,0,0,0,.1A.12.12,0,0,0,58.81,52.61Z"/><path class="cls-1" d="M161.63,139.15l0,0S161.65,139.17,161.63,139.15Z"/><path class="cls-1" d="M164.92,143.85l-.07,0-.12.11Z"/><path class="cls-1" d="M76.46,68.71l0,0C76.34,68.64,76.39,68.68,76.46,68.71Z"/><path class="cls-1" d="M107.34,95.27c-.18-.49.78.25.44-.42C107.76,95,107,94.77,107.34,95.27Z"/><path class="cls-1" d="M47.17,40.37l.15.13A.52.52,0,0,0,47.17,40.37Z"/><path class="cls-1" d="M107.78,94.85h0l0-.07Z"/><path class="cls-1" d="M84.28,75.29a.29.29,0,0,0,0-.16S84.27,75.19,84.28,75.29Z"/><path class="cls-1" d="M78.8,70l.12.15A.65.65,0,0,0,78.8,70Z"/><path class="cls-1" d="M87.53,77.58c.06.09.06.14.19.2a.09.09,0,0,0,0,0A.24.24,0,0,1,87.53,77.58Z"/><path class="cls-1" d="M90.64,80.28a.29.29,0,0,0,0-.09l-.11-.08Z"/><path class="cls-1" d="M152.09,131a.67.67,0,0,1,0,.32C152.15,131.17,152.66,131.51,152.09,131Z"/><path class="cls-1" d="M47,40.38a.15.15,0,0,1,.17,0l-.12-.08A.09.09,0,0,0,47,40.38Z"/><path class="cls-1" d="M89.11,76l.47.46A4.13,4.13,0,0,0,89.11,76Z"/><path class="cls-1" d="M129.78,111.71l.13.07A.19.19,0,0,0,129.78,111.71Z"/><path class="cls-1" d="M91.07,77.72a1,1,0,0,0,.15.39.21.21,0,0,0,.11,0Z"/><path class="cls-1" d="M152.07,131.36Z"/><path class="cls-1" d="M155.76,133.68c-.46-.41-.46.08-.7.16-.63-.41-.08-.43-.14-.74-.42-.23-.91-.21-1.16-.45,0-.06,0-.12.09-.13-.56-.1-1.11-.94-1.78-1a.24.24,0,0,1,0-.12.83.83,0,0,1-.27.44c-.21-.18-.54-.16-.46-.41.12.12.2.05.31.05l-.29-.12c0-.43.38.18.55,0-.51-.29-1.2-.51-1.46-.87.15-.31.84.59.6,0l.43.54c0-.75.28.3.3-.45-.61-.66-.87-.52-1.47-1.18-.28,0-.13.26-.41.27-1.17-.58-.19-1.3-1.19-1.57-.33,0-.68.28-1-.33l.42-.14c-.62-.59-.73.1-1.24-.69.22,0,.59.35.52.23-.24-.62-.45-.11-.79-.4l.15-.32c-.73-.56-1.65-1-2.46-1.66.11,0,.31,0,.2-.24a14.17,14.17,0,0,1-2.84-2.79l-.55-.09c-.08-.08-.07-.23.06-.2-.29-.4-.14.12-.39.06s-.16-.37,0-.32a6.59,6.59,0,0,1-2.66-2l.19,0c-.45-.55-1-.06-1.29-.69l.12,0c-1.06-1.09-2.5-2-3.08-3.08-.44.18-1-1.12-1.47-.74a6,6,0,0,0-1-1.65c-.23-.24-.61,0-1-.26l.19-.24-.62-.11,0-.47-.34-.19c.1.11.15.31.08.37-.54-.29-1-1.11-.85-1.24l-1.23-.71c.11-.08.31,0,.5.1-.77-.25.11-.33-.59-.56,0,.11-.16.11-.21.14a3.38,3.38,0,0,0-1.2-1.18l.22-.09c-.74-.72-1.71-1.36-2.58-2.12.24.35-.07.56-.35.37l.11-.34c-.3,0,.19.33-.31.22-.31-.31,0-.47.28-.39l-.47-.26c0-.09.16,0,.27-.12-.3,0-.47-.85-.94-.79l0-.09c-.87-.76-1.34-1-2.07-1.63-.2.2-.43-.09-.8-.1a12.71,12.71,0,0,0-1.55-1.73c-.53-.28-.28.07-.59,0,.14-.22-.51-.75-.06-.61a16.63,16.63,0,0,0-2.1-1.47c0,.17.12.3,0,.31s-.32-.42-.22-.49l.07,0c-1.33-.65-2-2.72-3.2-3.06l.06,0-1.07-.57c-.38-.38.37.07.17-.31-1.24-.51-1.47-1.36-2.45-1.83-.11-1.11-2.2-1.85-2.71-2.93l-.07.18c-.33-.06-.19-.3-.32-.47-.07.12.13.32-.07.28a48.7,48.7,0,0,1-5.3-5.17c-.65-.62-1,.36-1.56-.7l.45,0c-1.62-.88-2.78-2.43-4.34-3.34.13,0,.2-.06.33,0-.13-.43-1-.92-1.17-.77-.2-.2.06-.18,0-.36-.19-.36-.91-.39-.9-.7,0,0,.13,0,.19,0-.26-.07-.84-.77-.85-.41-.41-.53-1-.74-1.33-1.21-.46,0-.76-.86-1.13-.6.33-.31-.64-1-1.1-1.16.2,0-.18-.35.07-.38-.37-.31-.76-.53-.85-.3-.31-1-1.62-.84-1.54-1.69-1.24-.75-2.34-1.49-3.38-2.26.33-.31,1.1.9,1.37.51A11.79,11.79,0,0,1,82,70.53c-.19-.25.27,0,.4,0-1-.66-1.75-1.57-2.73-2.1,0,0,.15,0,.25.06-.17-.13-.33-.38-.44-.2l.19.09c.06.45-1-.09-1.18,0,.66-.21-.71-.81.21-1-.13-.06-.32-.1-.39,0-.13-.17-.13-.27.13-.25-.65-.41-.58-.07-1.1-.53.06-.07.19,0,.32,0a1.84,1.84,0,0,1-1.16-.62c.06,0,.06-.12.19,0-.78-.63-1.63-.73-2.34-1.59.53-.12-.19-.36,0-.68l-.52-.3.06.29c-.38-.34-.91-.44-1.16-.82l.39.13-.78-.58.32.47c-.52-.2-.27.39-.72-.14.13.06-.39-.34-.45-.69h0a1.23,1.23,0,0,1-.78-.48c0-.15.33-.26.34-.36-.4.07-1-.73-1.44-.69a.29.29,0,0,0,.27-.19l-.33.06c-.13-.22-.13-.27,0-.37-.51-.51-.13.51-.65-.21.07,0,.07,0,.2,0-.58-.65-1.36-1-1.88-1.59.07-.43.58.39.59,0a27.41,27.41,0,0,1-2.86-2l.13.17c-.46.3-.45-.74-1-.92.12.06.32-.1.26-.08a11.76,11.76,0,0,0-2.23-1.54h.2a13.1,13.1,0,0,0-1.17-1.19c-.19,0-.39-.19-.39.07-.61-1.56-2.41-1.54-3-2.89.12.1.36.15.26.07l-.93-.64c-.08.23,0,.2.08.49a1.21,1.21,0,0,1-.71-.3c.48.22.24-.28.16-.52,0,.07-.13.08-.16.15-.17-.69-.38.29-.8-.45l.11-.06a2.75,2.75,0,0,1-.8-.45c.07-.29.32.12.48,0-.35-.28-1-.2-1.14-.67.19.07.4.25.59.32a1.22,1.22,0,0,0-.44-.76l0,0L54,46.38l.09.19c-.89.15-1-.66-1.83-.82.84.16.25-.11.49-.3-.09-.19-.25-.46-.13-.47-.43,0-.33-.54-1-.6.05-.09-.29-.26-.06-.39-.41-.25,0,.2-.14.26-.77-.22-1-1.42-2.11-1.76-.8-.44-1.14-.31-1.88-.73-.11-.3.41-.12.41-.12a2,2,0,0,0-.92-.8c.12,0,.1-.12.07-.29-.27-.21-.4.12-.65-.29a1.34,1.34,0,0,1,.52-.07c-.37-.2-.79-.32-1.16-.53,0-.2.36,0,.54,0-.41-.25-1-.68-1.31-.57l.17.27c-.14-.1.08-.23.21-.19.44.11.38.45.33.54l-.26-.15c-.15.64,1,.72,1.39,1.14l-.46.15L47,41c0,.17-.06.41-.32.26.19.44.38.14.51.55,0,.06,0,.06-.06,0l.4.18c-.12,0-.14.27-.29.05.41.68,1.12.56,1.13,1l-.07,0c.89.58.28-.17,1.11.08l-.1.91.28-.16c.08.08.22.24.11.3.44.11,0-.14.34-.14.21.55,1.17.84.94,1.29.29-.05-.26-.46.27-.22-.22.5.54.35.74.85-.28.1-.53-.3-.33.19.52-.15.63.69,1,.88.26-.26.76.46,1.35.81-.11.06.82,1,1.21,1.49l-.05,0c.33-.19.77.28,1.17.53-.15.16-.28.17-.53.07l.33.29a.84.84,0,0,1,.55.18l-.27.14c.46.37,1.11.53,1.56,1.16.2-.16,0-.93.73-.53-.07.12-.2.32-.4.22.07,0,.26.08.33.21l-.4,0c.2.3.27,0,.46.17-.13.14.06.24-.07.33s-.13-.22-.26-.23a1.54,1.54,0,0,1,.42.76.22.22,0,0,1,.36-.07c.45.37,0,.31.19.61.19,0,.38.34.59.13.12.11.06.24.06.34.31.1,1.09.91,1,.44L61,54l0,0h0c1,.43,1.46,1.48,2.29,2l-.07.07a8.88,8.88,0,0,0,1.49.93c.14.12.2.41.06.45a1.89,1.89,0,0,1,.89.74c-.46-.17,0,.22-.43-.21.38.45.38.65,1,.86-.33.05.13.53.39.66l-.19-.41a4,4,0,0,1,.64.58l-.33.15c.64,1.09,2.09.9,2.33,2,.4,0-.38-.55,0-.57.39.4.51,1.13.64,1.25.45.63.85.09,1.37.71,0-.16.13-.46.65-.16s.19.83-.13.67c-.11-.08-.13-.15-.1-.18-.17-.08-.38-.2-.3,0l.14,0c.12.27.71.76.44.79.39.19.27,0,.07-.28.42.6.84.73,1.31,1.3,0-.13,0-.3,0-.23.71.82.51.14,1.09.58.19.41-.4.23.25.59.26.39-.13.3-.33.26.65.26.84.93,1.1,1.21l-.33-.16a2.17,2.17,0,0,1,.46.32v-.31c.13.17.26.28.19.36.27,0,.14-.41.6-.29.13.27.71.45.58.75-.58-.65-.14.3-.72-.14a1.19,1.19,0,0,1,.39.34s-.07,0-.12,0c.43.75.52,0,1.16.55-.2.06-.07.38.06.44-.26-.23.07-.33.39-.22.33.46.52.31.73.51l-.21-.26c.2-.06.4.13.72.34-.07.13-.32-.15-.26,0,.52,0,.51.87,1.1,1.1.12.27-.2.27-.07.49.65.26.38.66,1,1,0-.31-.06-.29.46-.14l-1-.63.78.22c-.26-.23-.65-.36-.78-.53.39.08.33.1.33-.15.12.58.85.45,1.1,1l-.4.43c.45.74,1.3.73,2,1.54l-.19-.3c.26-.08.52.41.84.56-.15.13,0,.33,0,.52.08-.13.58.52.91.29l.19.5c.58.65,1.11.23,1.69.82-.33,0-.13.35-.65.1.2.19.37.38.46.28,0,.2.76.3.82.61.15,0,.31-.12.54.09,0,.06-.07.08-.07.08s.46.22.4-.13c.24,1,1.82,1.53,2,2.42.5.34,1.09.77,1.51,1.12-.06,0-.06.08-.13,0,.45.64.72-.12,1.24.6.12.53-.46-.17-.33.1-.34.57.84.62,1,1.28l-.13-.06c.19.46,1,.52,1.49,1,0,0-.06,0-.06.07a5.75,5.75,0,0,1,2,1c-.33.05-.33-.11-.4.17.26.18.21-.37.72,0,.07.24.33.63.19.87L97.25,86c0,.47.58.49.77.74l-.13.09c.71.55,1,.26,1.69.92v-.15c.66.05.2.45.78.58l-.14.4a14.59,14.59,0,0,1,1.7.87,6.5,6.5,0,0,1-1.57-.54c.26.22.91.74,1.17.72-.13-.07-.32-.11-.39-.25a2.72,2.72,0,0,1,1.56.76c-.59.49,1.23,1.32,1.22,2.1,1.11.58,1.75,1.67,2.85,2.57,0-.78.32.26.66-.26.27.19.36.28.36.33l.52.93c.06.29-.33-.1-.4,0,.52.51.06.4.32.83.07-.23.39-.07.65.27l-.25-.6c1,.42.32,1,1.3,1.39l-.37-.07c.47.26,1.46,1.27,2.17,1.24,0,.11,0,.32-.2.2.9.88,2.45,1.43,3,2.3l-.17,0c.21.12.49.06.62.36-.06,0-.17,0-.1.13a1.74,1.74,0,0,1,.82.48l-.31,0c.79,1,1.68.92,2.52,1.51-.29.34.34,1.07.66,1.44l-.06,0a20.26,20.26,0,0,0,3.17,2c.31.89,2,2,2.78,3-.1-.19.25-.24.45-.12.18.27.85.33.54.6l-.07-.08c-.09.45.46.79.82,1.12l.41-.34c.48,1.43,2.75,2,2.83,3,.32.11.61.36.93.46l-.2.21a13.48,13.48,0,0,0,1.76,1.58h-.3c.45.41,1.11-.12,1.55.23l-.16.43c.8.69,1.36,1.67,2.4,2.06a.24.24,0,0,1-.3,0c.37.33,1.26,1.47,1.51.91-.24.3.79.74,1.33,1l-.25.15a1.81,1.81,0,0,1,1.24.35c.1.13,0,.26-.15.07.3.45.48.07.87.6l-.3,0c.4.37.43.27.79.31s.73.73.63,1a.69.69,0,0,1,.71.24c0,.1-.16.07-.22,0,.56.74,1.23.64,1.52,1.26a.22.22,0,0,0,0,.2,8.4,8.4,0,0,1-.91-.86c-.17.2.24.62-.34.58a3.75,3.75,0,0,1,1.71.83.48.48,0,0,1,0,.12l-.06,0a.59.59,0,0,0,.29.21,1.83,1.83,0,0,0,.31.36c-.09.21.43.53.64.73.17-.23.43,0,.31-.36,0,0-.06,0-.22-.12a.24.24,0,0,0-.11-.06h0l-.56-.46a.74.74,0,0,1,.67.44l.6-.08c.05.56.49,1.22.41,1.48.77.46,1.65,1.29,2.42,1.26.23.11.12.3.13.43-.14-.06-.27-.18-.38-.17.47.23,1.17.94,1.5.74.37.54-.49,0,.21.55h-.16c.91,1.57,2.73,1.12,3.67,3-.07-.12-.1-.18-.08-.25,1.42,1.68,3.59,2.71,4.86,4.51.39.48.6.35,1,.46l-.09.31.7.16c.85.4.7,1.58,1.88,2l0-.25c.29.3,1.06.76.86.89.05,0,.24-.07.29.12l-.1.12.94.46c.52.6-.5.4.34,1.17.36.23,1.21.44,1.16.26s-.26-.36-.17-.49l.35.19c.36-.3.89-.47.39-1.34l-.69-.22v-.31l.43.36c-.1-.37-.38-.36-.63-.41a.44.44,0,0,0-.05-.37l-.78-.09c.06-.19.46-.09.19-.45-.36,0,0,.5-.51.27-.1-.36.08-.43-.32-.54,0-.13.15-.13.29-.08-.34-.1-.7-.53-1-.45-.08-.42-.89-.68-.58-1a1.9,1.9,0,0,1-.91-.3c.77,0-.84-.77-.36-1.11-.62.09-1.26-.81-2-1.09.06,0,.17,0,.2,0a2.32,2.32,0,0,1-.42-.72c-.3.26-.84-.09-1.26-.14-.13-.61.53-.15.65-.52-.19.25-.87-.34-.91,0-.14-.42-.18-.3-.11-.67-.37.32-.33-.18-.77-.16-.26-.55.2-.44-.36-.73C155.24,133.46,155.76,133.68,155.76,133.68Zm-11.54-8.9h0l.24.19Zm-.93-.8c.11.1.25.23.4.35,0,.11-.14.15-.23.07C143.56,124.39,143.38,124.16,143.29,124Zm.68,3.17c-.17-.1-.19-.19-.17-.25l.28.2h0A.47.47,0,0,1,144,127.15Z"/><path class="cls-1" d="M144.47,127.1l.08,0-.05-.12-.11,0Z"/><path class="cls-1" d="M61.05,54.06l0,0a.25.25,0,0,1,0-.07S61.05,54.05,61.05,54.06Z"/><polygon class="cls-1" points="130.9 112.5 130.85 112.55 130.97 112.57 130.9 112.5"/><path class="cls-1" d="M56.6,48.92a.19.19,0,0,0,0-.12A.2.2,0,0,0,56.6,48.92Z"/><path class="cls-1" d="M54.44,47l-.24-.34C54.3,46.78,54.38,46.88,54.44,47Z"/><path class="cls-1" d="M52.85,45.39a.44.44,0,0,0-.12.06h0Z"/><path class="cls-1" d="M79.91,68.47l.08,0C80.18,68.61,80.06,68.53,79.91,68.47Z"/><path class="cls-1" d="M71.49,62a2.09,2.09,0,0,1,.35.13C71.71,62,71.6,61.91,71.49,62Z"/><path class="cls-1" d="M89.06,76h0l0,0Z"/><path class="cls-1" d="M72.21,62.47a.91.91,0,0,0-.37-.32A1.28,1.28,0,0,0,72.21,62.47Z"/><path class="cls-1" d="M45.61,38.93l-.07-.08a.05.05,0,0,1,0,0Z"/><path class="cls-1" d="M45.5,38.88l-.12-.06S45.46,38.89,45.5,38.88Z"/><path class="cls-1" d="M45.15,38.71l.23.11C45.32,38.77,45.24,38.69,45.15,38.71Z"/><path class="cls-1" d="M47.76,41l.09,0A.14.14,0,0,0,47.76,41Z"/><path class="cls-1" d="M48.46,41.54c-.15-.16-.27-.52-.53-.66l-.08,0C48.06,40.9,48.19,41.54,48.46,41.54Z"/><path class="cls-1" d="M50.47,45,50,44.4c0,.17.07.39-.21.19C50.24,45.45,49.75,44.27,50.47,45Z"/><path class="cls-1" d="M52.13,46.61c-.34-.23-.1.12-.16.15C52.23,46.86,52.3,46.88,52.13,46.61Z"/><path class="cls-1" d="M64.89,57.69l-.2.17C65,58,64.76,57.79,64.89,57.69Z"/><polygon class="cls-1" points="68.19 58.81 68.07 58.49 67.8 58.58 68.19 58.81"/><polygon class="cls-1" points="68.44 61.44 68.31 61.38 68.77 61.65 68.44 61.44"/><path class="cls-1" d="M89.92,80l.14-.3C89.86,79.59,89.6,79.83,89.92,80Z"/><path class="cls-1" d="M99.38,87.78a.56.56,0,0,0,.46.53C99.64,88.12,99.52,87.84,99.38,87.78Z"/><polygon class="cls-1" points="126.79 112.27 126.53 112.19 126.94 112.43 126.79 112.27"/><path class="cls-1" d="M178.36,51.33c0-.12-.14-.25-.3-.08l.06.36Z"/><path class="cls-1" d="M176.76,51.74c-.13.29-.21.7.11.85,0-.42.16-.35.16-.82.17-.17.39-.15.43,0,0-.12.33-.15.31-.39a.89.89,0,0,0-.9.58C176.76,51.92,176.78,51.81,176.76,51.74Z"/><path class="cls-1" d="M158.44,64.52l.14-.06Z"/><path class="cls-1" d="M147.17,72.54c.08-.07.1-.12.09-.15S147.14,72.53,147.17,72.54Z"/><path class="cls-1" d="M145.05,73.64l.13-.06C145.12,73.59,145.07,73.6,145.05,73.64Z"/><path class="cls-1" d="M158.44,64.52l-.36.13C158.12,64.75,158.28,64.6,158.44,64.52Z"/><path class="cls-1" d="M174.74,54.21a.41.41,0,0,0,.11-.19l-.13.14A.08.08,0,0,1,174.74,54.21Z"/><path class="cls-1" d="M163.2,60.7l.09-.07a.85.85,0,0,0,0-.16Z"/><path class="cls-1" d="M167,57.89c-.1.06,0,.3.08.43a.34.34,0,0,1,.07-.29A.51.51,0,0,0,167,57.89Z"/><path class="cls-1" d="M173.22,53.91l.09-.11Z"/><path class="cls-1" d="M160.46,62.63a.24.24,0,0,0-.09-.06A.15.15,0,0,0,160.46,62.63Z"/><path class="cls-1" d="M56.12,141.65l0,0S56.09,141.67,56.12,141.65Z"/><path class="cls-1" d="M50.92,143.74l0-.06a1,1,0,0,0-.08-.14Z"/><path class="cls-1" d="M141.35,75.91h0C141.45,75.81,141.4,75.85,141.35,75.91Z"/><path class="cls-1" d="M109.47,99.51c.51-.06-.4.69.31.52C109.66,100,110,99.31,109.47,99.51Z"/><path class="cls-1" d="M174.62,54.25l-.15.11A.39.39,0,0,0,174.62,54.25Z"/><path class="cls-1" d="M109.78,100h0l.07,0Z"/><path class="cls-1" d="M133.42,81.93a.4.4,0,0,0,.15,0S133.52,81.93,133.42,81.93Z"/><path class="cls-1" d="M139.64,77.86l-.17.08A.54.54,0,0,0,139.64,77.86Z"/><path class="cls-1" d="M130.55,84.52c-.1,0-.15,0-.23.14h.05A.22.22,0,0,1,130.55,84.52Z"/><path class="cls-1" d="M127.31,86.89a.34.34,0,0,0,.1,0,.34.34,0,0,1,.09-.08Z"/><path class="cls-1" d="M65.87,134.35a.71.71,0,0,1-.3-.1C65.74,134.38,65.31,134.78,65.87,134.35Z"/><path class="cls-1" d="M174.65,54.08a.17.17,0,0,1,0,.17l.1-.09S174.69,54.08,174.65,54.08Z"/><path class="cls-1" d="M131.73,86.41l-.54.34A5.14,5.14,0,0,0,131.73,86.41Z"/><path class="cls-1" d="M89.05,117.32l-.1.12A.19.19,0,0,0,89.05,117.32Z"/><path class="cls-1" d="M129.69,87.9a1.08,1.08,0,0,0-.41,0,.21.21,0,0,0,0,.11Z"/><path class="cls-1" d="M65.57,134.25Z"/><path class="cls-1" d="M62.58,137.27c.49-.35,0-.46,0-.71.53-.51.43,0,.74,0,.31-.35.39-.82.67-1,.06,0,.12,0,.11.12.21-.52,1.13-.85,1.37-1.48a.29.29,0,0,1,.11,0,.86.86,0,0,1-.37-.36c.22-.16.27-.48.49-.35-.13.09-.09.18-.11.29l.17-.26c.41.13-.24.33-.09.54.38-.42.74-1,1.14-1.21.27.22-.74.68-.1.59l-.61.29c.72.13-.35.2.37.39.75-.43.68-.71,1.43-1.14,0-.27-.21-.19-.17-.46.79-1,1.29.12,1.75-.78.06-.32-.13-.72.53-.92l0,.44c.7-.46.06-.73.92-1,0,.22-.46.49-.33.46.64-.1.2-.42.55-.68l.28.22c.69-.57,1.34-1.35,2.1-2,0,.11-.06.3.19.24A13.71,13.71,0,0,1,77,126.44l.2-.5c.09-.07.24,0,.18.1.45-.19-.09-.17,0-.39s.39-.07.3.1a6.36,6.36,0,0,1,2.48-2.09l-.08.17c.62-.31.26-.94.93-1.09l-.07.11c1.27-.77,2.42-1.95,3.59-2.25-.07-.47,1.29-.72,1-1.25a6,6,0,0,0,1.8-.57c.27-.17.16-.58.44-.86l.19.24.24-.57.44.13.25-.28c-.13.07-.33.07-.36,0,.38-.45,1.25-.65,1.36-.53l.94-1c0,.11-.11.28-.21.45.4-.68.3.19.66-.44-.11,0-.07-.17-.09-.23a3.35,3.35,0,0,0,1.39-.88l0,.23c.84-.55,1.65-1.34,2.56-2-.38.16-.52-.19-.28-.42l.3.19c.06-.29-.35.1-.14-.36.36-.22.45.13.31.36l.35-.39c.08.06,0,.17.06.29,0-.29.91-.26,1-.72l.08.06c.91-.67,1.26-1.06,2-1.62-.15-.23.18-.4.27-.74a12.85,12.85,0,0,0,2-1.1c.37-.45,0-.29.1-.57.18.18.83-.32.59.08a15.54,15.54,0,0,0,1.86-1.68c-.17,0-.32,0-.31-.07.16-.17.48-.22.52-.1l0,.06c.89-1.13,3-1.29,3.6-2.38l0,.06.76-.9c.45-.28-.14.34.27.24.74-1.08,1.61-1.11,2.26-1.94,1.09.15,2.23-1.69,3.37-1.93l-.15-.11c.12-.3.33-.11.51-.2-.1-.1-.33,0-.25-.13a46.94,46.94,0,0,1,6.06-3.92c.73-.47-.15-1,1-1.34l-.06.45c1.19-1.36,2.92-2.12,4.12-3.41,0,.12,0,.2-.12.3.43,0,1.09-.78,1-.95.23-.14.16.11.35.09.38-.1.56-.79.86-.71,0,0,0,.13-.08.18.12-.23.91-.63.56-.72.6-.28.93-.83,1.44-1,.09-.44,1-.53.81-1,.23.4,1.13-.37,1.34-.79,0,.19.37-.09.35.15.38-.28.67-.6.47-.74,1-.07,1.14-1.37,1.94-1.1,1-1,1.92-1.91,2.86-2.73.23.39-1.09.85-.76,1.2a10.93,10.93,0,0,1,2.18-2.17c.28-.13,0,.26-.06.38.84-.85,1.87-1.32,2.57-2.14,0,0,0,.14-.11.23.16-.13.43-.23.29-.38l-.13.16c-.44,0,.3-1,.24-1.13.06.68.92-.5.91.43.09-.11.17-.29.06-.38.19-.09.29-.06.22.18.53-.53.19-.54.73-.94.06.08,0,.19,0,.33a1.75,1.75,0,0,1,.83-1c0,.07.1.1,0,.2.77-.61,1-1.41,2-1.89,0,.54.38-.1.65.17l.4-.43h-.3c.41-.29.61-.78,1-.94l-.21.35.72-.62-.52.21c.3-.46-.32-.35.28-.67-.09.12.41-.29.75-.27h0a1.27,1.27,0,0,1,.62-.64c.15,0,.19.38.28.41,0-.4.91-.77,1-1.23a.31.31,0,0,0,.13.3l0-.32c.23-.08.28-.07.34.08.6-.38-.46-.25.34-.58,0,.06,0,.07-.08.18.74-.41,1.21-1.09,1.91-1.44.4.17-.49.47-.09.57a24.27,24.27,0,0,1,2.51-2.28l-.19.08c-.19-.51.8-.26,1.09-.78-.08.11,0,.34,0,.27a11.12,11.12,0,0,0,1.94-1.79l0,.19a14.7,14.7,0,0,0,1.38-.85c0-.19.26-.33,0-.39,1.63-.23,2-2,3.4-2.2-.12.09-.23.31-.13.24l.81-.75c-.21-.14-.2,0-.49,0a1.14,1.14,0,0,1,.44-.62c-.31.41.22.3.47.28-.07,0-.06-.15-.12-.19.71,0-.2-.44.6-.67l0,.12a2.68,2.68,0,0,1,.59-.67c.26.14-.18.29-.06.47.35-.27.4-.92.88-.94-.11.17-.32.33-.43.5a1.14,1.14,0,0,0,.82-.25l0,0,.69-.33-.21,0c0-.89.84-.77,1.17-1.57-.33.77.05.27.18.55.21,0,.5-.14.48,0,.14-.4.59-.19.78-.77.07.07.31-.22.39,0,.32-.33-.19-.07-.23-.2.37-.68,1.58-.65,2.13-1.62.59-.67.53-1,1.09-1.64.31,0,0,.42,0,.42a1.89,1.89,0,0,0,1-.7c0,.12.09.13.26.14.26-.22,0-.42.41-.56a1.16,1.16,0,0,1,0,.51c.27-.31.48-.68.75-1,.19.08,0,.36-.09.53.32-.33.86-.82.82-1.12l-.3.09c.13-.11.21.14.14.25a.37.37,0,0,1-.59.19l.2-.22c-.58-.28-.89.77-1.38,1.08l-.05-.48-.28.64c-.17,0-.37-.15-.18-.37-.46.08-.21.34-.63.37-.06,0-.06,0,0-.07l-.25.34c0-.12-.23-.2,0-.3-.74.24-.78,1-1.18.86l0-.05c-.74.71.1.3-.3,1l-.87-.3.1.31c-.09,0-.27.15-.31,0-.19.4.13.07.07.36-.58.08-1.06.93-1.43.61,0,.29.49-.14.15.31-.43-.33-.45.44-1,.52,0-.3.4-.45-.12-.37,0,.54-.78.45-1.05.76.2.3-.59.62-1,1.1,0-.12-1.11.57-1.68.83l0-.06c.12.36-.43.68-.75,1-.12-.19-.1-.31,0-.53l-.35.25a.7.7,0,0,1-.28.48l-.08-.28c-.45.35-.74.94-1.44,1.23.12.23.89.23.37.83-.11-.1-.27-.27-.14-.44,0,.06-.13.23-.27.27l.12-.38c-.34.12,0,.27-.26.41-.11-.17-.24,0-.31-.15s.24-.07.28-.19a1.41,1.41,0,0,1-.82.22.22.22,0,0,1,0,.36c-.46.35-.3-.07-.63,0,0,.2-.41.3-.24.54-.14.1-.25,0-.35,0-.16.28-1.09.85-.64.9l.08,0,0,0h0c-.61.82-1.73,1.06-2.43,1.73l-.06-.08c-.4.43-1,.81-1.2,1.23-.14.1-.43.09-.44,0a1.75,1.75,0,0,1-.9.68c.26-.4-.21,0,.29-.37-.51.27-.71.22-1,.8,0-.32-.54,0-.71.22l.43-.09a3.81,3.81,0,0,1-.69.49l-.07-.35c-1.19.36-1.3,1.8-2.42,1.78-.11.37.61-.24.55.14-.46.28-1.2.23-1.33.33-.71.28-.27.79-1,1.15.15,0,.42.24,0,.67s-.83,0-.61-.29c.1-.09.17-.09.19-.06.11-.13.27-.31,0-.29v.14c-.29.06-.88.51-.85.25-.26.33,0,.26.25.13-.65.27-.87.63-1.51,1,.13,0,.3,0,.2.1-.92.5-.23.45-.77.91-.43.09-.14-.43-.63.11-.42.16-.26-.2-.17-.38-.39.57-1.07.6-1.39.78l.22-.28a2,2,0,0,1-.41.37l.3.07c-.19.09-.32.19-.38.11-.08.24.36.22.16.63-.29.06-.58.59-.85.39.75-.41-.26-.2.29-.66a1.11,1.11,0,0,1-.41.29c-.05,0,0-.07,0-.11-.81.24-.08.5-.76,1,0-.21-.35-.16-.44-.05.27-.19.3.14.13.44-.51.2-.4.42-.64.57l.3-.13c0,.21-.21.34-.48.61-.11-.09.21-.28.07-.25-.15.5-.94.29-1.28.8-.29.07-.22-.25-.46-.18-.38.57-.71.22-1.14.78.3.07.29,0,0,.48l.8-.8-.37.7c.27-.19.48-.54.67-.62-.16.35-.17.29.08.35-.58,0-.61.71-1.19.83l-.33-.49c-.8.26-1,1.09-1.9,1.58l.33-.11c0,.27-.5.4-.71.68-.09-.18-.31-.11-.5-.13.1.11-.62.44-.46.82l-.53.06c-.74.41-.44,1-1.13,1.45.07-.32-.31-.22,0-.66-.21.16-.43.27-.35.38-.2,0-.45.66-.76.66,0,.13,0,.32-.2.49a.11.11,0,0,1-.06-.08c.06.08-.3.38,0,.4-1,0-1.85,1.41-2.74,1.41-.44.4-1,.87-1.4,1.2,0-.07-.05-.08,0-.12-.7.28,0,.72-.83,1-.53,0,.26-.4,0-.34-.48-.45-.76.67-1.44.7l.09-.11c-.48.07-.71.82-1.3,1.2,0,0,0-.07-.06-.09A5.43,5.43,0,0,1,121.13,92c0-.33.16-.29-.09-.42-.23.2.31.28-.13.69-.24,0-.67.17-.88,0l.45-.35c-.44-.11-.59.45-.87.58l-.06-.15c-.67.56-.45.88-1.23,1.41l.15,0c-.19.62-.48.08-.72.62l-.36-.23a14.09,14.09,0,0,1-1.18,1.43,5.87,5.87,0,0,1,.84-1.38c-.27.2-.9.7-.93,1,.09-.11.17-.29.31-.32a2.63,2.63,0,0,1-1,1.33c-.36-.69-1.53.88-2.27.69-.79.93-2,1.29-3.06,2.14.74.2-.32.26.11.7-.24.22-.34.29-.39.27l-1,.28c-.29,0,.16-.29.06-.38-.6.38-.39,0-.86.11.2.12,0,.4-.39.57l.62-.11c-.6.85-1,.09-1.6.94l.14-.34c-.34.39-1.52,1.11-1.63,1.8-.12,0-.31-.07-.16-.24-1,.66-1.88,2-2.82,2.34l0-.17c-.15.17-.15.46-.47.5,0,0,0-.17-.1-.12s-.33.57-.63.68l.11-.29c-1.08.55-1.23,1.41-2,2.08-.26-.35-1.1.08-1.52.3l0-.06a19.4,19.4,0,0,0-2.62,2.58c-.92.09-2.29,1.43-3.48,2,.2,0,.18.3,0,.47s-.49.74-.69.38l.09,0c-.42-.19-.85.26-1.25.53l.25.48c-1.47.12-2.5,2.18-3.46,2-.16.28-.47.5-.63.79l-.16-.24a12.46,12.46,0,0,0-1.88,1.33l.05-.29c-.48.33-.12,1.1-.54,1.43l-.38-.24c-.83.61-1.88.92-2.47,1.83a.23.23,0,0,1,0-.29c-.4.28-1.67.87-1.19,1.24-.23-.3-.87.59-1.22,1l-.1-.27a1.7,1.7,0,0,1-.59,1.11c-.14.06-.24-.1,0-.16-.5.18-.17.45-.76.7l.08-.28c-.44.29-.35.34-.46.68s-.85.54-1.06.38a.63.63,0,0,1-.38.63c-.09,0,0-.16,0-.22-.83.37-.87,1-1.53,1.18a.21.21,0,0,0-.18-.08,8.35,8.35,0,0,1,1-.68c-.15-.21-.64.09-.48-.46-.26.42-.64,1.22-1.16,1.45a.23.23,0,0,1-.11,0l0-.06a.55.55,0,0,0-.26.24,1.76,1.76,0,0,0-.41.21c-.18-.13-.6.29-.83.45.18.21-.14.4.27.38,0,0,0-.06.17-.18a.35.35,0,0,0,.08-.1v0l.56-.43c-.1.25-.21.49-.56.54a5.93,5.93,0,0,1,0,.6c-.55-.08-1.27.19-1.5.05-.61.64-1.58,1.29-1.71,2-.16.2-.32,0-.44,0,.08-.12.22-.22.24-.32-.32.4-1.15.9-1,1.27-.6.23.08-.48-.57.07l0-.16c-1.7.52-1.64,2.37-3.59,2.86.13,0,.2-.06.26,0-1.91,1-3.34,2.84-5.34,3.65-.55.26-.46.49-.65.85l-.28-.17-.29.65c-.56.72-1.67.3-2.28,1.35l.23.08c-.34.2-1,.84-1,.61,0,.06,0,.25-.17.26l-.1-.12-.64.8c-.68.35-.27-.58-1.19,0-.29.3-.67,1.07-.49,1.06s.41-.17.51-.05l-.26.29c.22.42.27,1,1.21.69l.35-.61.31.05-.44.34c.38,0,.43-.28.53-.51a.45.45,0,0,0,.36,0l.25-.74c.17.1,0,.46.39.29.12-.34-.47-.16-.16-.56.38,0,.41.18.59-.18.11.07.1.17,0,.3.18-.3.66-.55.65-.85.41,0,.84-.7,1.07-.33a1.88,1.88,0,0,1,.48-.8c-.12.75.92-.63,1.14-.09,0-.62,1-1,1.46-1.66,0,.05,0,.16-.09.18a2.43,2.43,0,0,1,.78-.24c-.19-.34.26-.78.39-1.18.62,0,0,.55.37.75-.21-.24.5-.76.21-.87.44,0,.33-.1.67.05-.23-.44.24-.28.31-.7.58-.13.38.28.78-.19C62.9,136.82,62.58,137.27,62.58,137.27Zm10.93-9.06h0l-.23.19Zm1-.71-.42.3a.13.13,0,0,1,0-.23C74,127.66,74.28,127.54,74.47,127.5Zm-3.18-.08c.13-.14.21-.14.27-.1a2.06,2.06,0,0,0-.25.22v0A.47.47,0,0,1,71.29,127.42Z"/><path class="cls-1" d="M71.23,127.92s0,0,0,.06l.13,0v-.11A.27.27,0,0,1,71.23,127.92Z"/><path class="cls-1" d="M158.6,64.45h0Z"/><polygon class="cls-1" points="88.06 118.22 88.02 118.16 87.97 118.27 88.06 118.22"/><path class="cls-1" d="M164.47,61.36h0Z"/><path class="cls-1" d="M166.79,59.73l.38-.15A2.72,2.72,0,0,0,166.79,59.73Z"/><path class="cls-1" d="M168.63,58.56a.28.28,0,0,0,0-.12h0Z"/><path class="cls-1" d="M140.87,79.29l-.06.06C140.69,79.51,140.78,79.42,140.87,79.29Z"/><path class="cls-1" d="M148.8,72.67a1.44,1.44,0,0,1-.19.31C148.78,72.88,148.89,72.8,148.8,72.67Z"/><path class="cls-1" d="M131.78,86.37h0l-.05,0Z"/><path class="cls-1" d="M148.23,73.25a.79.79,0,0,0,.38-.27A1.15,1.15,0,0,0,148.23,73.25Z"/><path class="cls-1" d="M176.33,53.08l.09,0s0,0,0-.05Z"/><path class="cls-1" d="M176.4,53l.08-.09S176.4,53,176.4,53Z"/><path class="cls-1" d="M176.63,52.69l-.15.2C176.55,52.84,176.63,52.78,176.63,52.69Z"/><path class="cls-1" d="M173.92,54.68l0,.1A.16.16,0,0,0,173.92,54.68Z"/><path class="cls-1" d="M173.23,55.22c.19-.1.55-.13.75-.36l0-.08C173.94,55,173.29,55,173.23,55.22Z"/><path class="cls-1" d="M169.54,56.37l.64-.37c-.17,0-.39,0-.14-.25C169.1,56,170.34,55.83,169.54,56.37Z"/><path class="cls-1" d="M167.61,57.59c.28-.28-.1-.13-.12-.19C167.35,57.63,167.31,57.68,167.61,57.59Z"/><path class="cls-1" d="M154.32,67.31l-.11-.23C154,67.29,154.26,67.16,154.32,67.31Z"/><polygon class="cls-1" points="152.57 70.23 152.9 70.19 152.88 69.92 152.57 70.23"/><polygon class="cls-1" points="149.99 69.86 150.08 69.75 149.72 70.13 149.99 69.86"/><path class="cls-1" d="M127.74,86.27l.26.2C128.13,86.3,128,86,127.74,86.27Z"/><path class="cls-1" d="M118.3,93.58a.53.53,0,0,0-.6.31C117.93,93.75,118.22,93.69,118.3,93.58Z"/><polygon class="cls-1" points="89.12 114.31 89.25 114.08 88.94 114.42 89.12 114.31"/></g></g></g></svg>