<svg xmlns="http://www.w3.org/2000/svg" viewBox="0 0 864.99 185.78"><defs><style>.cls-1{fill:#4d4d4d;}</style></defs><g id="Layer_2" data-name="Layer 2"><g id="sketch"><g id="highligjt-sentence"><path class="cls-1" d="M324.72,85.36c.15.33.31.1.1-.85l-.44-.63Z" transform="translate(-0.01)"/><path class="cls-1" d="M324.18,78.8c-.36-1.1-.88-2.35-1-1.56.52,1.06.43,1.35,1,2.48.21,1,.19,1.7,0,1.56a14.18,14.18,0,0,0,.49,2,14.42,14.42,0,0,0-.75-4.49C324,78.4,324.11,78.73,324.18,78.8Z" transform="translate(-0.01)"/><path class="cls-1" d="M289.52,52.45l.21-.58A4.62,4.62,0,0,0,289.52,52.45Z" transform="translate(-0.01)"/><path class="cls-1" d="M265.78,66.59a1.83,1.83,0,0,0,.23.62C265.89,66.81,265.78,66.49,265.78,66.59Z" transform="translate(-0.01)"/><path class="cls-1" d="M263.77,56.73c0,.21.07.39.11.58A2.49,2.49,0,0,0,263.77,56.73Z" transform="translate(-0.01)"/><path class="cls-1" d="M289.52,52.45,289,53.94C289.07,54.07,289.29,53.18,289.52,52.45Z" transform="translate(-0.01)"/><path class="cls-1" d="M320.91,66.07a7.29,7.29,0,0,0,.26.82c-.07-.27-.13-.52-.2-.78Z" transform="translate(-0.01)"/><path class="cls-1" d="M297.86,27.69l.24-.43a3.15,3.15,0,0,0,.09-.42C298.08,27.12,298,27.4,297.86,27.69Z" transform="translate(-0.01)"/><path class="cls-1" d="M312.6,30.87c-.19-.42-.51-.45-.7-.55a2.76,2.76,0,0,1,.6.82C312.55,31.12,312.59,31,312.6,30.87Z" transform="translate(-0.01)"/><path class="cls-1" d="M321.1,61.46l.15.54C321.21,61.86,321.14,61.62,321.1,61.46Z" transform="translate(-0.01)"/><path class="cls-1" d="M292.52,41.09a.39.39,0,0,0-.15.14S292.46,41.18,292.52,41.09Z" transform="translate(-0.01)"/><path class="cls-1" d="M15.09,65.49s0,0,0,0S15,65.61,15.09,65.49Z" transform="translate(-0.01)"/><path class="cls-1" d="M.35,83.37l.17-.27A.26.26,0,0,0,.43,83Z" transform="translate(-0.01)"/><path class="cls-1" d="M259.71,38.69l0,.08C259.89,39.23,259.81,39,259.71,38.69Z" transform="translate(-0.01)"/><path class="cls-1" d="M164,63.82c.36,1.9-1.3-2.85-.65,0C163.41,63.5,164.64,66.13,164,63.82Z" transform="translate(-0.01)"/><path class="cls-1" d="M320.84,65.55c-.06-.26-.11-.53-.17-.8C320.74,65.12,320.79,65.37,320.84,65.55Z" transform="translate(-0.01)"/><path class="cls-1" d="M163.39,63.79h0l.07.29C163.43,64,163.41,63.89,163.39,63.79Z" transform="translate(-0.01)"/><path class="cls-1" d="M232.2,19.74a2.9,2.9,0,0,0,.38-.26S232.46,19.52,232.2,19.74Z" transform="translate(-0.01)"/><path class="cls-1" d="M255.86,28.44l-.24-.75C255.7,28,255.79,28.23,255.86,28.44Z" transform="translate(-0.01)"/><path class="cls-1" d="M223.38,33.84a7.44,7.44,0,0,0-.58,1,.87.87,0,0,0,.12-.14A3.71,3.71,0,0,1,223.38,33.84Z" transform="translate(-0.01)"/><path class="cls-1" d="M215.51,49.06l.19-.26c.07-.15.15-.33.23-.49Z" transform="translate(-0.01)"/><path class="cls-1" d="M47.54,25.05a3.15,3.15,0,0,1-.72.41C47.15,25.4,45.51,27.3,47.54,25.05Z" transform="translate(-0.01)"/><path class="cls-1" d="M321.06,66a1,1,0,0,1-.22-.48c0,.19.09.38.13.56S321.06,66.15,321.06,66Z" transform="translate(-0.01)"/><path class="cls-1" d="M225,35.52l-1.33,2.35Z" transform="translate(-0.01)"/><path class="cls-1" d="M96,69.22c-.15.16-.29.32-.45.48A2.73,2.73,0,0,0,96,69.22Z" transform="translate(-0.01)"/><path class="cls-1" d="M220,45a11,11,0,0,0-.86,1.28,1.58,1.58,0,0,0-.08.31Z" transform="translate(-0.01)"/><path class="cls-1" d="M46.82,25.46Z" transform="translate(-0.01)"/><path class="cls-1" d="M35.71,39.44c1.64-2,.49-1.17.67-1.72,1.89-2.45,1.12-.93,1.94-1.61,1.17-1.53,1.85-2.89,2.8-4,.12,0,.32-.23.16.06,1.1-1.74,3.95-4.56,5.26-6.57a1.1,1.1,0,0,1,.28-.17c-.4.16-.58.08-.63-.07.78-.86,1.28-1.74,1.75-1.9a3,3,0,0,0-.62.92l.75-1c1-.58-1,1.3-.84,1.47a62.85,62.85,0,0,1,4.51-5.27c.49,0-2.83,3.16-1,1.6l-2,2c1.85-1.21-1.18,1.22.57.17,2.59-2.62,2.7-3.13,5.34-5.67.46-.71-.39,0,.06-.72a12.24,12.24,0,0,1,3.4-2.94,8.79,8.79,0,0,0,2.65-2.2,7.5,7.5,0,0,1,2.84-3c-.16.29-.32.58-.47.88C65.94,7.61,64.37,8,67.53,6.1c-.48.46-2.17,1.72-1.72,1.43,2.1-1.17,1.25-1.15,2.76-2.19l.51.09a27.41,27.41,0,0,1,5-2.7c.44-.19.91-.3,1.37-.45A9.66,9.66,0,0,1,76.86,2a5.52,5.52,0,0,1,2.72.31c-.23,0-.8-.1-.1.3a5.23,5.23,0,0,1,2.59,2.17,12.7,12.7,0,0,1,1.49,3.58,35,35,0,0,1,.93,7.85c.14.64.27,1.27.39,1.92,0,.45-.1.83-.18.35-.06,2,.19.1.33,1,0,1.13-.15,1.5-.24.78A70.85,70.85,0,0,1,84.56,34l0-.73c-.29,2.88.4,3.3,0,6l0-.51C83.89,45,83.69,52,83.25,56.84a17.52,17.52,0,0,1,.2,3.55c0,1.52.17,3,.49,3.16a30.37,30.37,0,0,0,.25,3.39,9.33,9.33,0,0,0,.36,1.63,7.79,7.79,0,0,0,1.6,2.94c1.31,1.21,2.61,1.33,4.53.9l.12.29a7.53,7.53,0,0,0,2.26-1.37,11.52,11.52,0,0,0,1.28-.47c.42-.37.82-.76,1.2-1.16-.48.44-1.14.83-1.12.7,1.91-1.75,4.38-4.33,4.55-4.29,1.17-1.59,2.25-3.22,3.3-4.86a8.26,8.26,0,0,1-.89,1.68c1.55-2.73.6-.28,2-2.78-.27.27,0-.28,0-.37a51.69,51.69,0,0,0,4-5.77l-.08.5C109.7,51,112.17,46.9,115,43c-1.07,1.34-1.15.81-.36-.36l.59-.27c.36-.86-1,1.13-.07-.54,1.08-1.43,1-.75.49.14l1.19-1.82c.15,0-.11.4-.09.58.36-.85,2.51-2.79,3-4l.16,0c1.49-1.84,2.61-3.14,3.69-4.32a38.23,38.23,0,0,1,3.56-3.48c-.13-.27,1-1.18,1.84-2A16.91,16.91,0,0,1,137.31,24c1.1-.1,1.27-.08,1.28-.16s-.13-.14.39-.18c.07.15.89.31,1.46.53s.89.39.11.22a11.81,11.81,0,0,1,3.91,2,20.6,20.6,0,0,1,3.83,3.84c-.25-.5-.59-1-.33-.83.61.71,1.15,1.79,1,1.75l-.16-.19a31.69,31.69,0,0,1,4.29,8.41c1.13,3,2.05,6,3.08,8.1l-.11-.24q.94,2.24,1.84,4.52c.67,2.14-.61-1.22-.23.41,2.06,4.86,2.51,7.94,4.16,12a35.2,35.2,0,0,0,2.31,7.51c1.15,2.94,2.53,6,3.34,8.15l0-.32a9.37,9.37,0,0,1,.94,2.15c.06-.17-.47-1.23,0-.61a45.47,45.47,0,0,0,4.23,6.54,19,19,0,0,0,6.25,5.27A12.51,12.51,0,0,0,183,94.07a10.64,10.64,0,0,0,4.39-.52,19.06,19.06,0,0,0,7-4.48,7.11,7.11,0,0,0,1.88-2.57,12.33,12.33,0,0,1,2.32-3.08c-.17.43-.37.86-.56,1.28a138.64,138.64,0,0,0,11.65-19.79A3.59,3.59,0,0,1,209.3,66a21.09,21.09,0,0,0,2.49-5.24c.54-1,.28-.16.69-.75.83-1.33,1.49-3.64,2.07-4.28.1-.11-.13.43-.24.7.35-1,2.14-4.24,1.46-3.49,1.35-2.41,2.24-4.79,3.38-6.68.36-1.43,2.26-4.14,2.08-4.75.31.38,2.55-4.11,3.21-5.73-.16.57.86-1.26.69-.57,1-1.74,1.79-3.34,1.42-3.16,2.27-2.88,3.47-6.47,5.24-7.72a32.73,32.73,0,0,1,5.3-6.36c1.94-1.73,4.3-3,6.65-2.59-.12.19-1.36,0-2.56.37s-2.26,1-2,1.17a6.8,6.8,0,0,1,5.28-1.21,8.38,8.38,0,0,1,4.7,3.39c.71,1-.58-.44-.92-.66a21.55,21.55,0,0,1,3.85,5.83c1,2.07,1.84,4.19,2.71,6.24a4.47,4.47,0,0,1-.43-.85c.31.82.61,1.94.77,1.78l-.33-.79c-.17-1.43,1.72,3.1,1.89,3.22-1-1.26,1.15,4.28-.25,2.22.2.54.49,1.21.59,1,.2.84.19,1.13-.2.33,1,3,.88,1.87,1.61,4.64-.1,0-.29-.53-.47-.79a26.42,26.42,0,0,1,1.6,5.09c-.09-.13-.1.17-.27-.54,1,4,2.15,6.79,3,11.29-.73-1.21.21,1.55-.1,1.87l.68,2.38-.05-1c.49,2.11,1.21,3.89,1.55,5.72l-.54-1.52c.34,1.31.7,2.61,1.07,3.91l-.44-2.25c.74,2.07.39-.35,1,2.46-.19-.55.56,2.08.67,3.22h0a24.63,24.63,0,0,1,1.29,3.55c0,.43-.5-.19-.49.1a24,24,0,0,1,1.29,2.85,12.06,12.06,0,0,0,1.64,2.93c-.29-.36-.47-.29-.44-.14.23.22.44.45.67.66.46.92.56,1,.32,1,.94,1.29.91,1,.86.8s0-.19.1-.06.4.48,1.12,1.11a3.91,3.91,0,0,1-.66-.43,4.45,4.45,0,0,0,2.57,1.38,4.06,4.06,0,0,0,2.77-.7,8.64,8.64,0,0,0,1.93-1.83,23.69,23.69,0,0,0,1.47-2.07c.41-.34.08.32-.32.93s-.82,1.19-.35.82a29.42,29.42,0,0,0,3.27-6.69c.85-2.31,1.59-4.62,2.35-6.8l-.31.8c-.29-.76,1.32-3.17,1.75-5.48-.12.56.07.8.06.64,1-3,1.7-6.22,2.83-10.85l0,.61c.62-1.75,1.39-4.68,2-6.58,0-.61.37-1.7,0-1.09,2.48-5.67,3-11.42,5.76-16.17-.27.59-.5,1.47-.3,1a40.34,40.34,0,0,1,1.88-4.18c-.37.21-.43.44-1,1.23a10.31,10.31,0,0,1,1.29-2.76c-1,1.85.3.14.93-.46-.14.07,0-.22-.13-.2.88-.81.89-.91.93-1.17a.9.9,0,0,1,.27-.5,3.31,3.31,0,0,1,1.33-.89,1,1,0,0,0-.09.18,3.76,3.76,0,0,1,1.63-.55,3.25,3.25,0,0,1,1.78.44c.16.27-.12.08-.49,0a4.57,4.57,0,0,0-.55-.15.37.37,0,0,0-.31.06,5.84,5.84,0,0,1,4.12,2.9A11.82,11.82,0,0,0,307,24.3a9.47,9.47,0,0,1,.67.87c.17.23.31.42.43.61A13,13,0,0,1,308.9,27l-.07-.12a13.82,13.82,0,0,1,.77,1.35c.25.46.48.92.69,1.4l-.29-.75c1.73,1.73,2.2,4.21,3.73,7-1.5-2.73-.41-.39-.78-.5.2.78.53,2,.33,1.66.73,1.33.64,2.41,1.62,4.31-.07.12.45,1.53.12,1.28.64,1.84,0-.49.19-.37,1.21,2.78,1.57,6.88,3,11,1.06,3.58,1.53,4.18,2.45,7.52.1,1.18-.56-.85-.56-.85a35.94,35.94,0,0,0,1.07,5c-.16-.33-.16,0-.15.6.31,1.39.54.86.77,2.73a7,7,0,0,1-.66-1.31c.42,1.62.92,3.21,1.34,4.91-.08.48-.45-1-.68-1.56a38.92,38.92,0,0,0,1.48,5.48l-.13-1.25c.14.7-.16.4-.31-.1a4,4,0,0,1-.28-2.51l.29,1.21c.33-1.36-1-4.87-1.51-7.32l.61.94-.85-2.44c0-.55.14-1,.45.23-.16-1.8-.47-1.52-.57-3.07,0-.18,0-.1.09.05l-.5-1.69c.16.32.22-.34.4.72-.45-3.12-1.43-4.87-1.4-6.09l.09.25c-1.17-4.21-.39-.34-1.53-3.43l.18-2.31-.4-.34c-.1-.44-.32-1.3-.16-1.17-.64-1.56,0,.3-.5-.58-.29-2.17-1.78-5.69-1.48-6.29-.46-.67.46,2-.4-.13.3-.79-.89-2.52-1.36-4.45.47.48,1,2.3.52.35-.82-1-1.27-3.65-2.06-5.16-.38.09-1.59-3.31-3.45-5.51a7.21,7.21,0,0,0-2-2.26,5,5,0,0,0-2.68-1.09,4.49,4.49,0,0,0-2.57.69l0-.09c-.15.3-.81.86-1.45,1.64a15.93,15.93,0,0,0-1.79,2.64c-.15-.18-.06-.54.48-1.51-.36.53-.7,1.06-1,1.61a15.46,15.46,0,0,1-.85,2.08l0-.54c-1.1,2.25-1.74,4.68-3,7.59.18.25,1.5-2.11.56,1.07-.17.08-.44.11-.2-.73a10.56,10.56,0,0,1-.47,1.53l.21-1.34c-.56,1.33-.06.78-.44,1.86-.18-.09-.4.76-.5.55a13.33,13.33,0,0,0,.46-1.36,23.08,23.08,0,0,1-1.34,3.12c.15-.08.26.08,0,1-.7,2.34-.47.73-1,2.07,0,.61-.61,2.06-.34,2.19a2.7,2.7,0,0,1-.53,1c-.23,1.25-1.59,5.69-.89,4.41l.1-.31a1.77,1.77,0,0,1,0,.2h0c-.85,4.07-2.49,8.25-3.55,12.21l-.09,0c-.6,2.38-1.55,5.23-1.92,7-.24.68-.74,1.55-.75,1.22a21.61,21.61,0,0,1-1.71,4.45c.56-1.8-.37.54.61-1.82-1,2.2-1.32,2.64-2.26,5,.19-.88-1.12,1.43-1.74,2.31.37-.4.72-.82,1.06-1.26a10.2,10.2,0,0,1-2.1,2.68,6,6,0,0,0,.17-.64,4.85,4.85,0,0,1-2.39,1.36,2.92,2.92,0,0,1-2.24-.73,8.77,8.77,0,0,1-2.87-4.71c-.37-.54-.14.08.1.71s.52,1.27.14.82a27,27,0,0,1-1.53-5.09c-.8-3-1.37-2.61-2.15-5.79,0,.43-.21.91-1-1.44-.54-2.23-.22-2.85.23-1.47.15.53.18.79.13.78.23.71.54,1.63.42.72l-.19-.26c-.18-1.12-.95-4.17-.58-3.5-.53-1.66-.37-.68-.12.58-.54-2.89-1.08-4.46-1.66-7.44,0,.49,0,.95-.1.49-.87-4.37-.66-1.86-1.4-4.78-.21-1.71.56.5-.28-2.43-.3-1.83.22-.45.48.24a57.31,57.31,0,0,1-1.4-6.61l.45,1.39c-.27-.83-.44-1.53-.62-2.24l0,.87a5.15,5.15,0,0,1-.25-1.55c-.37-.82-.21.75-.86-.9-.16-1.14-1-3.33-.83-3.79.85,3.5.21-.47,1.05,2.46a20.89,20.89,0,0,1-.56-2.1c0-.13.09.11.17.33-.67-3.41-.75-1.44-1.78-4.87.3.38.08-.89-.14-1.44.44,1.38-.07.75-.61-.47a22.24,22.24,0,0,0-1.32-3.47l.42,1.32a21.28,21.28,0,0,1-1.35-2.93c.08-.18.63,1.31.48.76-.94-1.53-1.24-3.86-2.65-6-.48-1.07.24-.26-.21-1.2-.86-1.16-1.26-1.83-1.72-2.51a8.56,8.56,0,0,0-2.22-2.36c.28.38.45.59.32.54s-.51-.39-1.5-.92a15.08,15.08,0,0,1,3.7,3.46,18.21,18.21,0,0,0-2.38-2.18,17.52,17.52,0,0,1,2.68,3c-1-1.11-.89-1-.64-.33a7.15,7.15,0,0,0-1.93-2.36,23.21,23.21,0,0,0-2.72-1.94l.33-.5a7.22,7.22,0,0,0-2.67-.9,7.57,7.57,0,0,0-2.76.23,15.52,15.52,0,0,0-5.3,2.92c.42-.27.81-.57,1.25-.82-.39.52-2.23,1.78-3.17,2.94,0-.24-.73.39-1.24.78.14,0-2.15,2.55-2,3.14-.47.48-.92,1-1.38,1.48-2.13,2.95-1.82,3.75-3.64,6.68.34-1-.59.28.47-1.8a7,7,0,0,0-1,2c-.46.52-1.36,2.92-2,3.76a5.9,5.9,0,0,1-.68,1.84c-.1.1-.09,0-.09,0s-.83,1.85-.11.95c-2.22,2.84-4.5,8.83-6.34,11.36-1.06,2.28-2.35,5-3.35,7.06,0-.15-.09,0,.12-.42-1.57,2.73-.35,2-2.15,5.08-1.11,1.48.71-1.77.08-.81-.8.15-1.87,3.89-3.33,5.83l.23-.53c-1.05,1.52-1.87,4.07-3.39,6.66,0,0,0-.16-.08-.07a52.34,52.34,0,0,1-4.14,7.79c.29-.88.61-1.17.1-.85-.69,1.09.56-.08-.83,2.09-.58.62-1.78,2-2.15,2.07.47-.65.95-1.29,1.41-2-1,.81-1.83,2.53-2.69,3.47V84l-2.3,2.94a13.77,13.77,0,0,1-2.81,2.72l.39-.15a4.13,4.13,0,0,1-1.58,1.19,9.72,9.72,0,0,0-1.74.89,5.88,5.88,0,0,1-.73-.14,8.69,8.69,0,0,1-3.08.77,9.32,9.32,0,0,1-4-.75,17.75,17.75,0,0,0,2.88.52,7.36,7.36,0,0,0,3-.37,8.49,8.49,0,0,1-2.74.18c-.5,0-1-.16-1.42-.22a6.14,6.14,0,0,0-.92-.18l.86.21a4.33,4.33,0,0,1,.86.21,9.6,9.6,0,0,1-6.05-2.65c.44-.13-.91-1.32-2.2-3a16.51,16.51,0,0,1-2.8-4.85c-2.66-4.22-4.11-9-6.09-14.51.12,2.16-.59-1.61-1-1.08a11.87,11.87,0,0,1-.64-1.91l-1-4.07c-.13-1,.54,1.2.63,1-.89-2.87-.15-1.28-.61-3.22-.08.45-.62-.9-1.07-2.56l.48,2.38c-1.61-3.9-.63-3.62-2.28-7.55l.61,1.21c-.78-2-2.63-7.64-3.91-9.46-.08-.39-.12-.93.29,0A54.7,54.7,0,0,0,153,34a66.77,66.77,0,0,0-4.14-6.36l.38.23c-.68-.77-1.34-1.17-2.16-2.17.09,0,.4.18.07-.16a35.19,35.19,0,0,0-3.45-2.31,11.81,11.81,0,0,1,1.11.46A11.42,11.42,0,0,0,141.37,22a11.2,11.2,0,0,0-3.18-.37,15.73,15.73,0,0,0-5.88,1.5c-.08-.21-1.12,0-2.31.61a21.27,21.27,0,0,0-3.37,2l0-.1a34.75,34.75,0,0,0-5.82,5.71c-1.6,1.92-3,3.9-4.63,6.14a51,51,0,0,0-4.8,6.09c-1.82,2.58-3.7,5.41-5.32,7.61.53-.65.21.31-.28,1.14-.79,1-1.71,3.11-1.93,2.72l.26-.37c-.87.58-2.24,2.82-3.41,4.48l.24.58c-1.86,2-3.83,4.84-5.89,7.17A15.1,15.1,0,0,1,92,69.78a3,3,0,0,1-2.39.61,2,2,0,0,1-1.32-.3,4.3,4.3,0,0,1-1.14-1.15l.27-.09a9,9,0,0,1-.74-2c-.18-.65-.3-1.3-.42-2a50,50,0,0,1-.49-5l.25.88c-.09-2.44-.91-3.09-.9-5.39l.43-.68c.1-4.34.76-8.72.66-13,.06.07.17.21.15.92.15-2.05.81-7.93.18-7.23.38,0,.32-4.51.24-6.88l.26.38a27,27,0,0,1-.4-4.88c0-.66.24-.58.15.3.18-2.2-.23-1.72-.1-4.4l.19,1a10.2,10.2,0,0,0-.37-3.34,22.41,22.41,0,0,1,0-4.69A10.66,10.66,0,0,1,85.69,10c0-.2.22.28.28.52A14.74,14.74,0,0,0,84.66,6a20.41,20.41,0,0,0-2-3.33c0-.11-.06-.28-.22-.47a10.55,10.55,0,0,1,2.26,3.45A8.17,8.17,0,0,1,85.17,7c.28-.08-.65-2.54.45-.72a14.64,14.64,0,0,0-2.23-3.4A9,9,0,0,0,79.58.4a1.46,1.46,0,0,1-.33-.17l.29,0a8.55,8.55,0,0,0-.89-.2l-.82,0a7.94,7.94,0,0,0-2.19.07,1.73,1.73,0,0,0-.65,0c-.31.06-.71.16-1.14.27a19.88,19.88,0,0,0-2.33.92c.21.21-1.31.85.19.42-.18.07.19-.15,1-.46.18-.08.39-.16.5-.22l-.07.06A9,9,0,0,1,74.47.66,12.66,12.66,0,0,1,76.19.3c-.49.16-1,.28-1.54.47-.26.09-.55.17-.85.25a9.65,9.65,0,0,1-.94.27c-.56.38-1.09.88-1.41,1.1-1.71.34-4.58,1.93-5.07,2-3.07,2.22-6.91,5.53-8.27,7.49a3.45,3.45,0,0,1-1.33.93c.41-.46.93-1,1.13-1.23-1.47,1.52-4.49,4.36-4.58,5-2,1.78.8-1.3-1.7,1.35l.26-.43c-5.44,4.76-7.3,9.13-13,14.66a3.56,3.56,0,0,1,.71-.63c-6.14,6.67-11.63,14.59-17.49,21.33a17.31,17.31,0,0,0-2.41,3.65l-.57.26-1.33,2.32c-2,3.15-4.51,4.75-6.94,8.87l.53-.38c-1,1.35-3.11,4.43-3.13,4.06a2.55,2.55,0,0,1-.63,1.06l-.16,0L5.19,76.19c-2,2.57-.21-.79-3,3C1.2,80.71-.38,83.59.1,83.11s1.14-1.42,1.3-1.37L.52,83.1C.73,83.61.4,84.89,3,81.87l1.37-2.41.71-.59L3.7,80.76A9,9,0,0,0,5.42,78.2a3.32,3.32,0,0,0,.88-.79L7.53,75c.34-.16-.42,1.19.73-.21.57-1.15-1,.74.08-1,.94-.94.86-.53,1.62-1.88.22-.11.09.2-.22.73.68-1.2,2.11-3,2.33-3.69,1-1,2.7-3.79,3-3.41A26,26,0,0,1,17,62.29c-1,2.16,2.86-3.77,3-2.93.65-1.65,3.57-5,5.22-7.59a2.9,2.9,0,0,1-.4.66C25.83,51.11,26.24,50.8,27,50c-.17-.41,1.4-2.55,2.1-3.82,1.59-1.41-.42,1.28.27,1-.32-.12,2-3,1.36-2.65,1.18-1.09.95-1,1.72-1.43-.21-.53.86-1.22,1.46-2.43,1.66-1.63.74-.17,2.23-2.23C37,37.59,35.71,39.44,35.71,39.44ZM79.62,2.25h0A5,5,0,0,0,78.57,2,5.4,5.4,0,0,1,79.62,2.25ZM82.8,5.39a7.5,7.5,0,0,0-1.13-1.68c0-.18.16-.12.46.25C81.93,3.79,82.56,4.71,82.8,5.39ZM74,.42A2.73,2.73,0,0,1,75.28.17c-.41.08-.87.24-1.47.41l-.09.06A.94.94,0,0,1,74,.42Z" transform="translate(-0.01)"/><path class="cls-1" d="M72.68,1.27l-.32.14.5-.12.25-.18Z" transform="translate(-0.01)"/><path class="cls-1" d="M289.77,51.77l0,.1a2.17,2.17,0,0,1,.1-.21C289.8,51.73,289.79,51.72,289.77,51.77Z" transform="translate(-0.01)"/><path class="cls-1" d="M90.83,72.77l0-.07-.55.17Z" transform="translate(-0.01)"/><path class="cls-1" d="M300.38,26.09a2.5,2.5,0,0,0,.27-.24A1,1,0,0,0,300.38,26.09Z" transform="translate(-0.01)"/><path class="cls-1" d="M308.9,27a15.78,15.78,0,0,1,.79,1.46A10.5,10.5,0,0,0,308.9,27Z" transform="translate(-0.01)"/><path class="cls-1" d="M312.78,35.27a.46.46,0,0,0,.17.13v0Z" transform="translate(-0.01)"/><path class="cls-1" d="M254.33,29.7c-.05-.12-.09-.23-.14-.33C253.84,28.62,254.07,29.13,254.33,29.7Z" transform="translate(-0.01)"/><path class="cls-1" d="M266.15,72c-.18-.44-.36-.87-.52-1.33C265.82,71.4,266,72,266.15,72Z" transform="translate(-0.01)"/><path class="cls-1" d="M225.14,35.26h0l-.14.27Z" transform="translate(-0.01)"/><path class="cls-1" d="M265.09,68.66a13,13,0,0,0,.54,2C265.47,70,265.29,69.28,265.09,68.66Z" transform="translate(-0.01)"/><path class="cls-1" d="M322.49,74.19l.07.44s0,0,.06.05Z" transform="translate(-0.01)"/><path class="cls-1" d="M322.62,74.68l.12.48A1.86,1.86,0,0,0,322.62,74.68Z" transform="translate(-0.01)"/><path class="cls-1" d="M323,76.17l-.26-1A4.33,4.33,0,0,0,323,76.17Z" transform="translate(-0.01)"/><path class="cls-1" d="M320.18,62.12l-.13-.11C320.09,62.08,320.13,62.12,320.18,62.12Z" transform="translate(-0.01)"/><path class="cls-1" d="M319.35,58.48c.17.88.28,2.23.6,3.43l.1.1C319.79,61.47,319.7,59.27,319.35,58.48Z" transform="translate(-0.01)"/><path class="cls-1" d="M316.68,43.06l.78,3c0-.56-.09-1.3.32.07C317,42.27,317.78,47,316.68,43.06Z" transform="translate(-0.01)"/><path class="cls-1" d="M313.67,33.76c.67,1.56.14-.08.23,0C313.41,32.78,313.29,32.54,313.67,33.76Z" transform="translate(-0.01)"/><path class="cls-1" d="M283.19,72.63l-.18-.24C282.6,73.61,283.09,72.44,283.19,72.63Z" transform="translate(-0.01)"/><path class="cls-1" d="M277.65,85a6.68,6.68,0,0,0,1.15-.79c.09-.22.19-.42.26-.64A7.94,7.94,0,0,1,277.65,85Z" transform="translate(-0.01)"/><path class="cls-1" d="M271.7,81.55c.1.14.21.27.32.4a15.19,15.19,0,0,1-1.12-1.67C271.15,80.72,271.42,81.14,271.7,81.55Z" transform="translate(-0.01)"/><path class="cls-1" d="M216.64,46.22l.46-.21C217.45,45.2,217.21,44.88,216.64,46.22Z" transform="translate(-0.01)"/><path class="cls-1" d="M190.65,89.24a14.63,14.63,0,0,0-2.34,1.42A12.82,12.82,0,0,0,190.65,89.24Z" transform="translate(-0.01)"/><polygon class="cls-1" points="99.15 61.63 99.66 60.75 98.61 62.34 99.15 61.63"/><path class="cls-1" d="M527.72,66.67c.12.21.29.06.16-.55l-.39-.39Z" transform="translate(-0.01)"/><path class="cls-1" d="M527.7,62.45c-.27-.69-.68-1.48-.9-1,.42.67.32.86.81,1.57.13.61.06,1.09-.08,1,.12.21.07,1,.33,1.27a5.92,5.92,0,0,0-.38-2.88C527.51,62.2,527.63,62.41,527.7,62.45Z" transform="translate(-0.01)"/><path class="cls-1" d="M505.53,28.62l.18-.35A2.25,2.25,0,0,0,505.53,28.62Z" transform="translate(-0.01)"/><path class="cls-1" d="M494.57,64.58c.09-.27.09-.39.07-.42C494.57,64.42,494.52,64.63,494.57,64.58Z" transform="translate(-0.01)"/><path class="cls-1" d="M491.91,70.33l.17-.33A.94.94,0,0,0,491.91,70.33Z" transform="translate(-0.01)"/><path class="cls-1" d="M505.53,28.62l-.44.91C505.16,29.64,505.34,29.07,505.53,28.62Z" transform="translate(-0.01)"/><path class="cls-1" d="M525.56,54.33a2.73,2.73,0,0,0,.18.53l-.12-.5Z" transform="translate(-0.01)"/><path class="cls-1" d="M516.78,19.72,517,20l.27.13Z" transform="translate(-0.01)"/><path class="cls-1" d="M522.17,31.5c-.07-.28-.36-.3-.51-.37a1.32,1.32,0,0,1,.36.55C522.07,31.67,522.12,31.62,522.17,31.5Z" transform="translate(-0.01)"/><path class="cls-1" d="M526.18,51.33l.1.35C526.26,51.59,526.21,51.43,526.18,51.33Z" transform="translate(-0.01)"/><path class="cls-1" d="M508.42,21.59a.33.33,0,0,0-.15.05S508.36,21.64,508.42,21.59Z" transform="translate(-0.01)"/><path class="cls-1" d="M396.47,59.69s0,0,0,0S396.45,59.78,396.47,59.69Z" transform="translate(-0.01)"/><path class="cls-1" d="M391.31,73.56l0-.2a.46.46,0,0,0-.15-.09Z" transform="translate(-0.01)"/><path class="cls-1" d="M485.7,74l0,0C485.91,74.17,485.81,74.06,485.7,74Z" transform="translate(-0.01)"/><path class="cls-1" d="M449.64,40c.54-1.13-.17,2,.55.29C450,40.43,450.16,38.56,449.64,40Z" transform="translate(-0.01)"/><path class="cls-1" d="M525.54,54c0-.16-.06-.34-.09-.51A4.17,4.17,0,0,0,525.54,54Z" transform="translate(-0.01)"/><path class="cls-1" d="M450.19,40.29h0l.07-.18Z" transform="translate(-0.01)"/><path class="cls-1" d="M478.17,48.76a1.23,1.23,0,0,0-.07.29S478.15,49,478.17,48.76Z" transform="translate(-0.01)"/><path class="cls-1" d="M482.42,68.33l-.13-.48A3.24,3.24,0,0,0,482.42,68.33Z" transform="translate(-0.01)"/><path class="cls-1" d="M475.87,38.54a2.69,2.69,0,0,0-.12-.72s0,.07,0,.11A1.64,1.64,0,0,1,475.87,38.54Z" transform="translate(-0.01)"/><path class="cls-1" d="M473.79,27.83c0,.06,0,.14,0,.21s.06.22.09.33Z" transform="translate(-0.01)"/><path class="cls-1" d="M406.35,28.21a1.72,1.72,0,0,1-.42.38C406.18,28.5,405.68,30,406.35,28.21Z" transform="translate(-0.01)"/><path class="cls-1" d="M525.71,54.3a.43.43,0,0,1-.17-.3c0,.13.05.24.08.36S525.7,54.38,525.71,54.3Z" transform="translate(-0.01)"/><path class="cls-1" d="M473.61,38.51l-.28-1.7C473.39,37.29,473.49,37.91,473.61,38.51Z" transform="translate(-0.01)"/><path class="cls-1" d="M427.71,62.7l-.08-.39A1,1,0,0,0,427.71,62.7Z" transform="translate(-0.01)"/><path class="cls-1" d="M472.32,31.78a5.44,5.44,0,0,0,0-1,.63.63,0,0,0-.12-.18Z" transform="translate(-0.01)"/><path class="cls-1" d="M405.93,28.59Z" transform="translate(-0.01)"/><path class="cls-1" d="M402.8,39.51c.53-1.55-.1-.84-.19-1.24.52-1.89.55-.77.93-1.35.31-1.18.29-2.19.6-3,.08-.05.16-.21.17,0,.15-1.32,1.27-3.63,1.46-5.16.08-.09.12-.14.16-.15-.26.16-.45.13-.56,0,.26-.69.27-1.36.6-1.53a1.27,1.27,0,0,0-.1.71l.18-.75c.58-.53-.27,1,0,1.12A26.47,26.47,0,0,1,407.38,24c.4-.09-.92,2.53-.06,1.23l-.78,1.6c1-1.07-.43,1,.56,0,1-2.13.81-2.49,1.84-4.58,0-.56-.33.05-.29-.51a5.09,5.09,0,0,1,1.43-2.47,3.53,3.53,0,0,0,1.13-1.86,3.16,3.16,0,0,1,.91-2.43l0,.69a5,5,0,0,0,.76-1.59,3,3,0,0,1,1-1.47,3.79,3.79,0,0,1-.49.83c-.18.28-.32.49-.2.36,1.12-1,.43-1,1.18-1.8l.4.08.57-.56c.2-.17.4-.31.6-.48a2.46,2.46,0,0,1,1.2-.44c.77-.06,1.74.73,2.39,1.78-.16-.07-.46-.35-.25.18a15.49,15.49,0,0,1,1.93,4.61,44.37,44.37,0,0,1,1,5l.54,1.15c0,.29,0,.55-.14.26.12,1.26.19,0,.42.6s0,1-.16.53a36.32,36.32,0,0,1,1.57,8.59l-.15-.44c.13,1.84.88,2,.82,3.71l-.09-.32c.37,4,1.12,8.36,1,11.45.49.53.24,4,.85,4.16a38.63,38.63,0,0,0-.07,4.9c.07.86.51,1.23.69,2.29l-.31.06.49,1.4-.28.81.2,1c0-.4,0-.86.13-.81a10.61,10.61,0,0,1,.09,3.87L428.6,69a3.85,3.85,0,0,1-.4-1.15c.58,1.91-.28.4.27,2.16,0-.26.2.1.26.13a21.11,21.11,0,0,0,.62,4.46l-.26-.25c.22,1.37.53,2.81.92,4.28a33.24,33.24,0,0,0,1.49,4.53c-.35-1.14.09-1,.49-.15a4.5,4.5,0,0,0-.14.49c.45.48-.33-1,.45.09.55,1.11.08.94-.37.32a8.16,8.16,0,0,0,.95,1.33c0,.14-.29-.15-.46-.17A9.92,9.92,0,0,0,434,86.62a2.77,2.77,0,0,0,1.67.45,2.11,2.11,0,0,0,1.29-.46l.15,0A5.94,5.94,0,0,0,439,84.81a13.55,13.55,0,0,0,.95-1.59c.52-1,.92-1.93,1.41-3.13-.25-.15.2-1.06.24-1.85a48.64,48.64,0,0,0,2.22-5.76c.31-1.54-.1-.5-.06-1.23.28,0,.87-2.18.73-1,.68-2.58.87-3.3,1.52-6.62-.19.33-.34.72-.37.49.11-.6.46-1.32.55-1.2v.16c.57-3.76,2.84-8.29,3-11.34v.17l.46-3.1c.38-1.38,0,.89.39-.11.37-3.37,1.31-5.14,1.7-7.9,1.24-1.89,1.79-7.38,3-10l-.22.11c0-.76.34-.84.52-1.35-.15,0-.36.73-.33.26a75.77,75.77,0,0,1,2.85-9.22,51.37,51.37,0,0,1,4-8.62,3.64,3.64,0,0,0,.66-1.67,1.57,1.57,0,0,1,.3-.66,2.16,2.16,0,0,1,1-.7,5.43,5.43,0,0,0-.3.59,2.08,2.08,0,0,1,.86-.56,1,1,0,0,1,.84.18,6.39,6.39,0,0,1,1.84,2.36,62.94,62.94,0,0,1,2.57,6.46,1.66,1.66,0,0,1-.37-.65,9.55,9.55,0,0,0,1.15,3.44c.16.71-.13.21-.12.66.1,1,.88,2.34.76,2.9,0,.1-.13-.25-.19-.42.26.6.62,2.93.76,2.27.24,1.74.81,3.25.93,4.66.48.83.43,3,.91,3.18-.46,0,.22,3.09.63,4.15-.2-.34,0,1-.23.58.24,1.25.53,2.38.72,2.12-.11,2.4,1.28,4.55.85,6,.91,3.68,1.76,7.08,2.59,10.39-.48,0-.82-3.68-1.25-3.44.83,3.13,1.59,4.87,2.24,8,.14.83-.3-.41-.44-.67.93,3.11,1.52,6.11,2.75,8.79a2,2,0,0,1-.33-.55c.21.54.4,1.29.57,1.15l-.25-.5c0-1,1.4,1.91,1.62,1.91-.47-.32-.22.35,0,1s.48,1.17-.23.64c.22.34.55.72.62.57.27.52.31.73-.14.29a5,5,0,0,0,1.21,1.35l.46.37a7.89,7.89,0,0,0,.91.7c-.07.09-.44-.15-.7-.2a5.74,5.74,0,0,0,1.74.67,4.14,4.14,0,0,0,2.41-.31c-.08.1.17.08-.38.31a4.5,4.5,0,0,0,1.8-1.31,9.63,9.63,0,0,0,1.08-1.55c.6-1.06,1.12-2.16,1.83-3.46,0,1,.56-.85,1-.85.18-.51.35-1,.51-1.52l-.4.53c.53-1.29.7-2.54,1.21-3.61l-.2,1c.27-.83.53-1.65.78-2.48l-.61,1.34c.28-1.38-.48,0,.2-1.71-.08.37.44-1.3.86-1.92h0a8.61,8.61,0,0,1,.56-2.33c.19-.22.33.32.46.18-.1-.74.83-3.12.74-4,0,.29.19.36.25.28l-.09-.61c.25-.59.32-.67.44-.53.56-1.83-.62.46.19-1.67a3.76,3.76,0,0,1,0,.47c.72-2.17,1-4.29,1.7-6.28.52-.5-.4,1.79.09,1.19.74-2.93,1.23-6.15,2.13-8.93l-.19.51c-.4-.54.85-2,1-3.5-.07.36.15.54.12.43.66-1.88,1.06-3.94,1.91-6.85v.4c.5-1.06,1.13-2.87,1.68-4,0-.4.34-1.05,0-.73,1.15-1.61,1.87-3.29,2.86-4.73a5,5,0,0,1,1.76-1.72,1.85,1.85,0,0,1,2.08.17c-.32-.15-.77-.12-.52-.07a4.28,4.28,0,0,1,2.09,1.38c0-.33-.13-.37-.43-.92a4,4,0,0,1,1.43,1.29c-.91-1-.28.23-.09.75,0-.11.18,0,.21-.07.42,1.52.57,0,1.3,2l-.15,0a12.51,12.51,0,0,1,1.14,2.08c-.11.43-.44-.73-.67-.69.49,1.07,1.36,2,1.48,3.11-.25-.45-.49-1.14-.75-1.58a8.11,8.11,0,0,0,.48,2.15l0-.09c.17.65.35,1.3.5,2l-.08-.52c1.13,1.22,1,2.88,2,4.7-.94-1.78-.33-.24-.66-.31,0,.52.16,1.3,0,1.1.48.86.21,1.59.87,2.81-.08.08.23,1-.06.84.36,1.19.1-.33.24-.25.77,1.78.61,4.46,1.6,7.06.64,2.3,1,2.67,1.61,4.81,0,.76-.46-.54-.46-.54a14.88,14.88,0,0,0,.57,3.19c-.12-.21-.15,0-.2.39.18.89.46.54.52,1.74a3.38,3.38,0,0,1-.54-.82c.27,1,.63,2,.89,3.13-.12.31-.36-.62-.54-1a15.35,15.35,0,0,0,1,3.5l0-.81c.09.45-.19.27-.29,0-.38-1-.16-1.54-.07-1.61l.19.77c.43-.9-.61-3.12-.85-4.69l.52.58-.62-1.54c0-.36.24-.64.43.13,0-1.16-.32-1-.27-2,0-.11,0-.07.08,0l-.32-1.07c.12.2.25-.24.32.45-.13-2-.91-3.12-.75-3.92l.06.16c-.68-2.69-.35-.2-1.11-2.17l.45-1.52-.36-.21c-.05-.28-.14-.84,0-.76-.43-1-.1.2-.42-.36,0-1.41-1-3.67-.58-4.09-.34-.42.14,1.33-.36-.07.4-.53-.49-1.63-.59-2.9.36.3.53,1.5.44.21-.63-.61-.54-2.4-.94-3.4-.36.06-.81-2.18-1.53-3.82a28.17,28.17,0,0,0-1.65-4.81l.07,0c-.48-.12-1.21-1.71-2.09-2.66.21-.1.43,0,.91.56a11.72,11.72,0,0,0-.74-1,14,14,0,0,1-1.23-.92c.14,0,.3,0,.44,0A4.23,4.23,0,0,0,513.6,18a4.73,4.73,0,0,0-3,1.1c0,.14.49,0,.71.05s.18.21-.5,1c-.15,0-.39-.15,0-.58a8.61,8.61,0,0,1-.68.78,6,6,0,0,1,.43-.79c-.74.61-.21.48-.71,1-.14-.13-.45.36-.51.18A9.66,9.66,0,0,0,510,20a22.65,22.65,0,0,1-1.57,1.64c.14,0,.22.14-.07.69-.76,1.39-.47.36-1,1.14-.05.4-.62,1.26-.35,1.41a1.2,1.2,0,0,1-.5.57c-.23.79-1.39,3.55-.76,2.8l.09-.18,0,.13h0c-.67,2.57-2,5.14-2.64,7.69l-.09,0a45.65,45.65,0,0,0-1,4.49c-.13.45-.47,1-.53.78a13.56,13.56,0,0,1-.81,3c.16-1.21-.26.35.21-1.23a12.24,12.24,0,0,0-.93,3.46c-.09-.62-.62,1-.74,1.77l.46-1c-.18.81-.39,1.51-.61,2.21l-.22-.47c-1.23,2.95-.86,5.71-2.19,7.84,0,.87.64-1.61.69-.82A29.7,29.7,0,0,1,495.9,59c-.76,1.85-.07,1.92-.84,3.87.2-.22.59-.36.19,1.16-.51,1.37-1.05,1.53-.84.63.11-.33.2-.47.23-.45.11-.46.26-1.06-.05-.55l.05.21c-.33.65-1,2.53-1,2-.27,1.06,0,.51.35-.23-.79,1.68-1,2.72-1.89,4.39.18-.24.42-.44.3-.17a5.72,5.72,0,0,0-.76,1.73c0,.21.05.33-.4,1.16-.71.79-.14-.51-1,1.08-.76.8-.38,0-.21-.4a3.7,3.7,0,0,1-1.38,1.52,1.77,1.77,0,0,1-1.06.25.39.39,0,0,0,.19-.08.66.66,0,0,0,.2-.11.76.76,0,0,1-.62.14.78.78,0,0,0,.23.25c-.14,0-.26-.07-.35-.07s-.14-.1-.12-.14c-.16,0-.16.13-.17.24s-.07.23-.5.1c-.43-.33-1.47-1.27-1.33-1.66.56.88.62.73.62.61s0-.26.57.25a2.8,2.8,0,0,1-.73-.85c0-.08.09,0,.18.11-.44-.84-.6-1-.84-1.15s-.49-.28-.95-1.27c.27.18.1-.59-.07-.9.35.79-.11.51-.55-.19a16.27,16.27,0,0,0-.87-2.12l.22.83a5.74,5.74,0,0,1-.85-1.84c.11-.12.37.84.32.48-.64-1-.44-2.49-1-3.93-.07-.73.3-.16.22-.79-.65-1.62-.23-1.88-.83-3.62-.12.57,0,.65-.56-.56l.86,2.9L480,60c.21.89.6,1.83.69,2.37-.41-.85-.33-.77-.41-.3,0-1.29-.79-2.36-.87-3.82l.58-.09c-.21-2.17-1.11-3.7-1.51-6.5l.07.91a13.61,13.61,0,0,1-.63-2.58c.21,0,.17-.53.21-.94-.13.08-.37-2-.8-2.21l0-1.29c-.31-2.26-1-2.46-1.36-4.63.33.61.29-.39.7,1-.13-.72-.21-1.37-.35-1.36.05-.44-.63-1.95-.57-2.65a2.37,2.37,0,0,1-.5-1.16c0-.09.1,0,.1,0s-.37-1.24-.45-.5c.19-2.33-1.23-6.19-1.12-8.22l-1.21-4.85c.08.08.1,0,.14.25-.28-2-.83-1.07-1.19-3.33,0-1.22.47,1.13.41.39.55-.47-.78-2.65-.89-4.24l.15.35c-.14-1.21-1.1-2.7-1.82-4.52,0,0,.09.07.09,0-.42-.55-.92-1.39-1.54-2.25a6.89,6.89,0,0,0-2.31-2.19c.69.09.83.45.68,0-.41-.27-.42-.12-.51-.06s-.27,0-1.15-.13a1.44,1.44,0,0,0-.55-.12,2.57,2.57,0,0,0-.68,0,3.39,3.39,0,0,1-1,.12,3.58,3.58,0,0,1,1.85-.61,2.14,2.14,0,0,0-1.77.39,11.2,11.2,0,0,0-1.24,1.11,1.11,1.11,0,0,1,0-.19,7.17,7.17,0,0,0-1.4,2.22c-.25.61-.52,1.22-1.1,2.39l.22-.19c-.26,1.44-.71,1-1,2.39l-.53.24c-.28.9-.83,3.18-1.28,4.78a24.53,24.53,0,0,1,.83-4.07,15.39,15.39,0,0,0-1.05,3.48,5.22,5.22,0,0,1,.33-1.17,19.62,19.62,0,0,1-1,4.37c-.65-.54-1.58,4.51-2.48,5.63-.6,3.19-1.79,6.17-2.67,9.84.91-1.15-.25,1.07.4,1a4.76,4.76,0,0,1-.32,1.25l-1,2.5c-.32.57.07-.85-.08-.8-.5,1.85-.45.72-.9,1.92.27-.2.14.72-.2,1.76l.64-1.43c-.32,2.69-1.05,2.14-1.37,4.84l0-.88c-.22,1.38-1.21,5-1.05,6.41-.13.22-.37.49-.27-.11-.85,3.2-1.26,7.28-2.2,9.68l-.09-.28a5.52,5.52,0,0,1-.34,1.82c-.05-.06-.08-.28-.16,0a11.56,11.56,0,0,1-.48,2.41l0-.71c-1.05,3-.95,4.85-1.68,7.45-.42-.14-1.35,2.19-1.88,3.31l0-.06c-.69,1.69-1.24,3.13-1.88,4.41s-1.51,2.48-2.21,2a12.26,12.26,0,0,1-1.75-3.79,30.84,30.84,0,0,1-1.22-5.6c0,.53-.36,0-.52-.61-.06-.81-.68-2.15-.26-2.09l0,.28c.28-.66-.08-2.29-.26-3.58l-.55-.13c.27-3.47-1.41-8.84-.93-10.78-.22-.81-.33-1.82-.55-2.62h.29c-.18-2.28-.26-3.42-.63-6.23L429,50c-.16-1.59-1-1.91-1.2-3.38l.37-.48c-.31-2.77-.25-5.62-1-8.32.07,0,.2.11.27.55-.14-1.3-.35-5.08-.86-4.53.37-.09-.35-2.87-.75-4.34l.31.19a10.27,10.27,0,0,1-1-3c0-.42.16-.4.18.16-.09-1.41-.44-1-.6-2.74l.29.6a4.62,4.62,0,0,0-.68-2,7.31,7.31,0,0,1-.33-3,3.68,3.68,0,0,1-.73-1.73c.06-.13.2.15.26.3-.46-2.42-1.35-3.38-1.78-5.05a.36.36,0,0,0,0-.33,19.25,19.25,0,0,1,1.18,3.2c.26-.07-.22-1.61.53-.51-.59-1.18-1.76-3.08-2.6-4.51a1.06,1.06,0,0,1-.05-.23L421,11a3,3,0,0,0-.7-.84A4,4,0,0,0,419.12,9c0-.08-.14-.21-.39-.33a2.52,2.52,0,0,0-.93-.34,3.9,3.9,0,0,0-1.18,0,9.14,9.14,0,0,0-1,.23c.15.23-1,.7.16.44-.15,0,.16-.09.8-.24l.43,0-.07,0a3.42,3.42,0,0,1,2.31.75,6.11,6.11,0,0,0-2.54-.66,4.24,4.24,0,0,0-1.08.78,3.54,3.54,0,0,0-.49.08l-.51.2a6.51,6.51,0,0,0-1,.55,8.62,8.62,0,0,1-1.3.84c-1.51,2-3.1,4.88-3.31,6.45-.23.63-.47.63-.66.82a9.32,9.32,0,0,0,.36-1c-.49,1.26-1.68,3.63-1.46,4.08-.83,1.49.07-1-.81,1.15l0-.33c-2.33,4-1.9,7.24-4.28,11.76.16-.32.23-.48.32-.52C400.32,39,399.12,45.07,397,50.37a7.08,7.08,0,0,0-.48,2.76l-.39.25L396,55.1c-.41,2.37-1.84,3.78-2.18,6.84l.3-.33c-.33,1-.79,3.36-1,3.12a1.07,1.07,0,0,1-.1.78h-.16l-.43,2.65c-.64,2-.53-.48-1.33,2.44-.22,1.1-.36,3.21-.15,2.83s.38-1.1.55-1.09l-.18,1c.4.29.66,1.17,1.61-1.18l.17-1.77.37-.49-.37,1.43a3.67,3.67,0,0,0,.4-1.92,1.45,1.45,0,0,0,.43-.65L394,67c.22-.15.14.84.54-.25,0-.83-.6.64-.38-.68.42-.76.53-.48.61-1.48.15-.1.17.12.12.51a17.18,17.18,0,0,0,.43-2.75c.48-.78.72-2.88,1.13-2.67a10.71,10.71,0,0,1,.28-2.36c.1,1.55.85-2.9,1.29-2.37-.16-1.17.89-3.83,1.19-5.75a1.08,1.08,0,0,1-.05.49,15.3,15.3,0,0,1,.86-1.93c-.34-.24.07-1.88.11-2.83.75-1.16.2.91.67.62-.33,0,.38-2.3,0-1.95.52-.9.37-.8.83-1.2-.41-.32.21-.93.18-1.82.69-1.32.55-.22.92-1.8C403.09,38.1,402.8,39.51,402.8,39.51Zm16.85-27.18h0c-.16-.27-.33-.46-.42-.6C419.31,11.87,419.46,12,419.65,12.33Zm1.33,2.8c-.14-.36-.3-.81-.51-1.26,0-.14.18-.08.31.22C420.65,14,420.89,14.66,421,15.13Zm-3.07-6.67c.74.14.9.37,1,.44a3.78,3.78,0,0,0-1.19-.38l-.09,0A.58.58,0,0,1,417.91,8.46Z" transform="translate(-0.01)"/><path class="cls-1" d="M416.62,8.76l-.26.08a2.54,2.54,0,0,1,.39,0l.23-.09Z" transform="translate(-0.01)"/><path class="cls-1" d="M505.74,28.2l0,.07a.41.41,0,0,1,.09-.12Z" transform="translate(-0.01)"/><polygon class="cls-1" points="427.14 59.13 427.21 59.12 427.12 58.84 427.14 59.13"/><path class="cls-1" d="M516.8,21.87a.62.62,0,0,0,.06.24A.75.75,0,0,0,516.8,21.87Z" transform="translate(-0.01)"/><path class="cls-1" d="M519.84,28.79l.25,1.05C520,29.38,519.91,29.05,519.84,28.79Z" transform="translate(-0.01)"/><path class="cls-1" d="M521.42,34.45a.31.31,0,0,0,.15.08h0Z" transform="translate(-0.01)"/><path class="cls-1" d="M480.77,69.33l-.09-.22C480.45,68.61,480.59,69,480.77,69.33Z" transform="translate(-0.01)"/><path class="cls-1" d="M496.64,61.72c0,.3-.08.6-.15.9C496.67,62.15,496.79,61.78,496.64,61.72Z" transform="translate(-0.01)"/><path class="cls-1" d="M473.64,38.7h0l0-.19Z" transform="translate(-0.01)"/><path class="cls-1" d="M496.08,63.87a5.67,5.67,0,0,0,.41-1.25A9.13,9.13,0,0,0,496.08,63.87Z" transform="translate(-0.01)"/><path class="cls-1" d="M526.41,59.54l0,.28s0,0,0,0Z" transform="translate(-0.01)"/><path class="cls-1" d="M526.49,59.85l.08.3A.69.69,0,0,0,526.49,59.85Z" transform="translate(-0.01)"/><path class="cls-1" d="M526.75,60.8l-.18-.65A1.67,1.67,0,0,0,526.75,60.8Z" transform="translate(-0.01)"/><path class="cls-1" d="M525.21,51.8l-.11-.07A.13.13,0,0,0,525.21,51.8Z" transform="translate(-0.01)"/><path class="cls-1" d="M524.75,49.47a18.77,18.77,0,0,0,.25,2.2l.1.06C524.88,51.39,525,50,524.75,49.47Z" transform="translate(-0.01)"/><path class="cls-1" d="M524,39.48l.36,2c0-.37.07-.85.3,0C524.37,39,524.5,42.05,524,39.48Z" transform="translate(-0.01)"/><path class="cls-1" d="M522.58,33.42c.34,1,.15-.06.22,0C522.52,32.77,522.45,32.61,522.58,33.42Z" transform="translate(-0.01)"/><path class="cls-1" d="M501.29,41.49l-.22-.17C500.88,42.12,501.16,41.35,501.29,41.49Z" transform="translate(-0.01)"/><polygon class="cls-1" points="500.27 50.09 500.64 49.35 500.51 48.92 500.27 50.09"/><polygon class="cls-1" points="497.16 54.46 497.22 54.11 496.93 55.45 497.16 54.46"/><path class="cls-1" d="M474.42,29.68l-.26.31C474.32,30.53,474.7,30.58,474.42,29.68Z" transform="translate(-0.01)"/><path class="cls-1" d="M458.69,12.39a3.34,3.34,0,0,0-.88,1.65C458.12,13.36,458.56,12.75,458.69,12.39Z" transform="translate(-0.01)"/><polygon class="cls-1" points="430.69 67.36 430.89 67.99 430.63 66.79 430.69 67.36"/><path class="cls-1" d="M865,28.83c0-.33-.2-.24-.52.61l0,.72Z" transform="translate(-0.01)"/><path class="cls-1" d="M862,34.19c-.28,1-.52,2.27,0,1.77.13-1.1.35-1.28.46-2.47.33-.85.72-1.41.78-1.22a11.7,11.7,0,0,0,.62-1.8,13,13,0,0,0-1.73,3.87C862,34.61,862.05,34.28,862,34.19Z" transform="translate(-0.01)"/><path class="cls-1" d="M826.92,36.33l0,.57C827,36.74,826.94,36.55,826.92,36.33Z" transform="translate(-0.01)"/><path class="cls-1" d="M794.59,48.2c.21-.36.28-.53.26-.56C794.67,48,794.52,48.26,794.59,48.2Z" transform="translate(-0.01)"/><path class="cls-1" d="M789.43,56l.3-.46A1.7,1.7,0,0,0,789.43,56Z" transform="translate(-0.01)"/><path class="cls-1" d="M826.92,36.33l-.15-1.47C826.65,34.78,826.83,35.62,826.92,36.33Z" transform="translate(-0.01)"/><path class="cls-1" d="M857.71,45.63c.11-.28.19-.53.26-.75l-.29.69A.33.33,0,0,1,857.71,45.63Z" transform="translate(-0.01)"/><path class="cls-1" d="M830.08,60.27l.06.43a2.77,2.77,0,0,0,.2.34Z" transform="translate(-0.01)"/><path class="cls-1" d="M838.22,72.25c-.33.18-.34.45-.43.64a3.37,3.37,0,0,1,.68-.55S838.37,72.26,838.22,72.25Z" transform="translate(-0.01)"/><path class="cls-1" d="M854.87,48.88l.19-.49Z" transform="translate(-0.01)"/><path class="cls-1" d="M828.58,47.12a.28.28,0,0,0,.08-.18S828.6,47,828.58,47.12Z" transform="translate(-0.01)"/><path class="cls-1" d="M593.87,48.85s0,0,0,0S593.82,49,593.87,48.85Z" transform="translate(-0.01)"/><path class="cls-1" d="M585.31,68.55l.08-.28a.37.37,0,0,0-.13-.12Z" transform="translate(-0.01)"/><path class="cls-1" d="M779.18,68.26h.05C779.45,68.14,779.32,68.19,779.18,68.26Z" transform="translate(-0.01)"/><path class="cls-1" d="M723.23,16.72c.53,1.4,0,.28-.54-.26a1.15,1.15,0,0,0-.62-.4c-.06.05.21.16.62.92-.05-.19.41.38.71.85.14.22.26.39.28.27A3.43,3.43,0,0,0,723.23,16.72Z" transform="translate(-0.01)"/><path class="cls-1" d="M857.47,46.05l-.33.69C857.3,46.43,857.4,46.22,857.47,46.05Z" transform="translate(-0.01)"/><path class="cls-1" d="M722.69,17h0l.15.33Z" transform="translate(-0.01)"/><path class="cls-1" d="M777.9,31.63a4,4,0,0,0,.06.49S778,32,777.9,31.63Z" transform="translate(-0.01)"/><path class="cls-1" d="M777.09,61.37l0-.72C777.11,60.93,777.1,61.16,777.09,61.37Z" transform="translate(-0.01)"/><path class="cls-1" d="M765.45,38.56a6.2,6.2,0,0,0-.62.88l.12-.12A3.23,3.23,0,0,1,765.45,38.56Z" transform="translate(-0.01)"/><path class="cls-1" d="M756.84,51.93l.2-.22.26-.43Z" transform="translate(-0.01)"/><path class="cls-1" d="M620.25,21.53a4.28,4.28,0,0,1-.19-.71C620,21.13,618.71,19.42,620.25,21.53Z" transform="translate(-0.01)"/><path class="cls-1" d="M857.56,45.57a.87.87,0,0,1-.09.48l.21-.48C857.66,45.51,857.63,45.48,857.56,45.57Z" transform="translate(-0.01)"/><path class="cls-1" d="M766.92,40.34,765.5,42.4C765.9,41.83,766.42,41.08,766.92,40.34Z" transform="translate(-0.01)"/><path class="cls-1" d="M700.93,31.27a2.52,2.52,0,0,0-.48-.05C700.63,31.26,700.81,31.24,700.93,31.27Z" transform="translate(-0.01)"/><path class="cls-1" d="M761.52,48.72a10,10,0,0,0-.93,1.09,1.43,1.43,0,0,0-.1.29Z" transform="translate(-0.01)"/><path class="cls-1" d="M620.06,20.82Z" transform="translate(-0.01)"/><path class="cls-1" d="M608.28,22.24c1.57-1.6.48-1,.66-1.51a5.47,5.47,0,0,1,1-.91c.21-.14.32-.17.39-.16s.12.22.52,0,.6-.47.87-.71a4.34,4.34,0,0,1,.81-.6c.27-.15.53-.33.8-.46s.55-.16.82-.22c.09,0,.3,0,.07.15a4,4,0,0,1,3,.41A12.74,12.74,0,0,1,620,20.55a.66.66,0,0,1,.09.27c0-.38.07-.54.22-.56.32.41.64.78.88,1.12a1.57,1.57,0,0,1,.4.85,2.26,2.26,0,0,0-.66-.77c.21.29.46.57.66.89.08.52-.12.2-.38-.22s-.62-.93-.72-.86a24,24,0,0,1,3.12,5.48c-.14.43-1.69-3.5-1-1.37-.33-.78-.64-1.58-1-2.34.45,1.94-.69-1.35-.35.47l1.53,3.16A29.6,29.6,0,0,1,624.05,30c.45.65.18-.33.62.32,2,4.45.49,3.88,2.13,7.11a7.71,7.71,0,0,1,1.74,3.47l-.67-.69c1.18,3.15,1.18,1.59,2.3,4.94-.38-.52-1.14-2.39-1-1.9.61,2.22.82,1.41,1.54,3l-.16.48a37.8,37.8,0,0,0,6.56,9.62c-.23-.1-.78-.55-.21.23a20,20,0,0,0,6.74,4.63,17.61,17.61,0,0,0,8.05,1.16c.64-.21,1.26-.4,1.87-.62.43-.12.83-.09.37.09,1.93-.41.06-.21.93-.57,1.07-.29,1.43-.31.81,0a46.93,46.93,0,0,0,5.83-3c2-1.27,4-2.62,5.54-3.55l-.5.48a9.43,9.43,0,0,0,2.16-1.91,9.75,9.75,0,0,1,2-1.79l-.34.35c4.65-3.63,9.17-8.29,12.79-10.9.34-.9,4.46-3.61,4.39-4.27,1.39-.9,1.9-1.2,2.57-1.56s1.43-.88,3.41-1.92a8.89,8.89,0,0,0,1.26-.87,5.24,5.24,0,0,1,1.48-.88l.13.28c.29-.15.58-.33.87-.46l.9-.34a4.7,4.7,0,0,1,1,.28,5,5,0,0,1,1.22,0,4,4,0,0,1-.68-.18c-.18-.06-.31-.09-.27-.14a2.5,2.5,0,0,1,.77,0,2.77,2.77,0,0,1,.8.16,5.53,5.53,0,0,1,1.38.67A3.09,3.09,0,0,1,703.58,33a11.94,11.94,0,0,1,2.72,4,9.75,9.75,0,0,1-.88-1.38c.72,1.13.65,1.31.62,1.42s-.09.19.44,1.32c0-.33.23.12.3.16.22,1.24.83,4,1.15,6.2l-.27-.39a93.83,93.83,0,0,1,.7,12.66c.12-1.59.48-1.23.5.08l-.33.52c.19.84.14-1.36.36.37-.07,1.66-.39,1.11-.48.15l.06,2c-.1.11-.14-.36-.26-.49.19.83-.45,3.47-.16,4.68l-.11.11c-.11,2.23-.17,3.86-.21,5.4,0,.77,0,1.51,0,2.35,0,.21,0,.42,0,.67a4,4,0,0,0,.19,1,1.34,1.34,0,0,0,.11.25,2,2,0,0,0,.28.37,1.53,1.53,0,0,0,.88.43,1.58,1.58,0,0,0,.87-.17,1.43,1.43,0,0,0,.38-.29l.21-.25c.09-.14.11-.19.17-.3a5.13,5.13,0,0,0,.32-.84c-.22-.18.22-1.62.19-2.74.61-2.65,1.28-5.56,1.74-8.76.2-2.27-.14-.69-.15-1.73.28-.12.72-3.32.66-1.64.52-3.84.66-4.9,1.17-9.78-.18.51-.31,1.1-.35.78.08-.89.4-2,.5-1.84v.23c.43-5.5,2.67-12.41,3-16.77l0,.24c.19-1.49.39-3,.61-4.48.49-2-.08,1.26.41-.21A28.86,28.86,0,0,1,720.06,21c.12-.39.25-.75.39-1.11l.21-.53.18-.42c.11-.19.18-.44.44-.56a.36.36,0,0,1,.33.16,3.07,3.07,0,0,1,0,.5c.08.48.18,1,.29,1.56.21,1.18.46,2.55.68,4a58.13,58.13,0,0,1,.89,8l.15-.26a6.58,6.58,0,0,1,.1,2.12c.12-.13,0-1.19.19-.53.64,4.57,1.13,9.32,1.77,14.11a89.5,89.5,0,0,0,2.82,14.3,6.29,6.29,0,0,0,1.39,2.61,15,15,0,0,1,1.74,3.24c-.32-.32-.63-.65-.94-1a14.62,14.62,0,0,0,3.79,4.47,6.92,6.92,0,0,0,3,1.24,7.25,7.25,0,0,0,3.19-.26,14.15,14.15,0,0,0,5-2.95,28.85,28.85,0,0,0,3.68-3.93,3.22,3.22,0,0,1-.6,1c1.21-.92,3.49-4.2,3.32-4.34.67-.85.29-.1.77-.57,1-1.09,1.9-3.16,2.53-3.67.11-.08-.17.38-.3.62.45-.85,2.5-3.66,1.77-3.06,1.53-2.08,2.58-4.2,3.82-5.84.45-1.29,2.48-3.63,2.34-4.22.28.39,2.71-3.58,3.44-5-.18.52.9-1.08.71-.45,1-1.52,1.94-2.91,1.56-2.79,1.21-1.19,2.15-2.57,3.09-3.67s1.94-1.93,2.63-1.77c.39-.13.53-.14.76,0a2.26,2.26,0,0,1,.73,1.06,13.32,13.32,0,0,1,.73,3.52,57.79,57.79,0,0,1,.07,7.44c-.22-.1-.14-1.46-.11-2.76s0-2.54-.21-2.44a78.42,78.42,0,0,1-.26,12c-.16,1.19-.13-.7-.18-1.11-.19,4.68-.85,9-.56,13.32a3.72,3.72,0,0,1-.12-.9c0,.84,0,2,.17,1.86L775.3,63c.14-.68.29.16.48,1.17a10.32,10.32,0,0,0,.59,2.24c-.39-.65-.33.39-.07,1.37.11.49.3,1,.36,1.19s-.11.23-.58-.32c.28.62,1,1.29,1,1a5.69,5.69,0,0,0,.82.69c.09.06-.17.09-.74-.24a2.7,2.7,0,0,0,2.37.48,3.07,3.07,0,0,0,1-.44,14.47,14.47,0,0,0,1.9-1.52c.07.09-.34.5-.51.78,1-1.1,1.82-2.25,3.29-4,0,.15.19,0-.23.53,2.38-3.16,3.43-5.73,5.85-9.24-.3,1.3.88-1.16,1.32-1.15l1.1-2-.64.69c1-1.7,1.73-3.36,2.73-4.77l-.64,1.35,1.88-3.24-1.22,1.74c.88-1.83-.52-.06.95-2.28-.25.48,1-1.71,1.78-2.49h0a17,17,0,0,1,1.71-3c.31-.27.19.48.39.31.24-1,2.43-4,2.84-5.2-.16.39,0,.51.1.42l.24-.82c.58-.72.69-.81.74-.6,1.61-2.26-.9.46,1.15-2.13a5.94,5.94,0,0,1-.31.6c2-2.64,3.64-5.27,5.8-7.39.87-.41-1.69,2-.77,1.47a28.9,28.9,0,0,1,4.61-4.64,7.78,7.78,0,0,1,2.79-1.42,3.88,3.88,0,0,1,2.83.29,4.06,4.06,0,0,0-.64-.29c.32-.2,1.06.14,1.67.85A21.61,21.61,0,0,1,823,25.5c-.27-.43-.58-.42-.46-.34a38.11,38.11,0,0,1,3.25,9.59l-.23-.51c.2,1.7.66,4.45.83,6.3.2.53.31,1.58.43.92-.09,5.76,1.52,10.81,1.54,15.95-.08-.61-.3-1.43-.24-.95.22,1.43.45,2.86.72,4.29.18-.37.05-.58.1-1.51a17.16,17.16,0,0,1,.68,2.77c-.47-1.89-.37.08-.33.94,0-.15.17.12.23,0,0,1.16.15,1.23.32,1.4s.37.43.62,2l-.16-.13c.36,1.12.82,2.09,1.27,3.26-.06.59-.58-1.11-.8-1.12a17.19,17.19,0,0,0,2.72,4.34,8,8,0,0,1-1.65-2,5.11,5.11,0,0,0,1.92,2.83l-.11-.09a4.31,4.31,0,0,0,3.27,1,8.72,8.72,0,0,1-.89,0,10.82,10.82,0,0,0,3.37-1.49,10.12,10.12,0,0,0,2.9-2.81c-1.73,2.36-.15.53-.08.9.6-.5,1.45-1.31,1.29-1,.74-1.23,1.68-1.72,2.57-3.55.13,0,.87-1.23.89-.83,1-1.57-.38.27-.4.06,1.33-2.49,3.93-5.36,5.47-9.14,1.49-3.15,1.49-3.87,2.78-6.82.63-.9-.08,1-.08,1a26,26,0,0,0,2.09-4.24c-.07.34.14.06.46-.35.55-1.2.06-.95.94-2.47a6.8,6.8,0,0,1-.21,1.37c.59-1.46,1.07-2.94,1.66-4.44.33-.33-.17,1-.31,1.56a28.71,28.71,0,0,0,1.79-5l-.56,1c.25-.61.35-.22.19.25-.44,1.51-1,2-1.14,2.05l.43-1.07c-1,.84-1.84,4.24-2.87,6.32l0-1.05-.72,2.3c-.31.4-.67.61-.23-.44-.91,1.4-.51,1.38-1.34,2.56-.11.13-.09.06,0-.08l-.62,1.5c.07-.32-.38.11.12-.75-1.51,2.49-1.86,4.32-2.65,5.14l.09-.23c-1.81,3.61.1.49-1.06,3.32-.55.47-1.11.94-1.67,1.39l.06.5c-.21.36-.66,1-.69.85-.62,1.44.25-.15,0,.72-1.25,1.58-2.9,4.71-3.58,4.78-.24.72,1.26-1.44.14.38-.77.18-1.4,2-2.82,3.24.19-.58,1.38-1.81,0-.59a4.8,4.8,0,0,1-1.55,1.77c-.74.55-1.56,1.07-2.17,1.44.06.15-.61.68-1.66.89a3.54,3.54,0,0,1-1.7-.1,4.14,4.14,0,0,1-1.54-1,15.74,15.74,0,0,1-1.26-2.23A21.15,21.15,0,0,1,831,65.59l.08,0c-.49-.35-1-2.78-1.3-4.55.23,0,.36.34.63,1.28l-.29-1.67a8.53,8.53,0,0,1-.52-2l.34.38a60.55,60.55,0,0,1-1-7.39c-.27-.13-.46,2.39-1-.66.12-.13.35-.27.49.53a7.3,7.3,0,0,1-.21-1.46l.36,1.2c0-1.34-.27-.67-.36-1.73.2,0,.06-.8.23-.66a10.46,10.46,0,0,0,.14,1.32,17.46,17.46,0,0,1,0-3.14c-.1.12-.26,0-.38-.84-.26-2.26.15-.8.11-2.13-.19-.53-.22-2-.52-2a2.54,2.54,0,0,1,.09-1.07c-.25-1.15-.79-5.45-.91-4.09l0,.3s0-.12,0-.18h0c-.89-3.75-1.17-8-2.94-11.53l.09,0a11.38,11.38,0,0,0-2.2-3,4.53,4.53,0,0,0-3-1.27c-.69-.09-1.69-.1-1.41-.26a8.49,8.49,0,0,0-1.94.72,25.44,25.44,0,0,0-2.27,1.3c.69-.6.55-.54.48-.51s-.08,0,1-.62a15.53,15.53,0,0,0-2.26,1.41,11.54,11.54,0,0,0-1.92,2c.42-.79-1.46,1-2.09,1.91.39-.37.8-.72,1.2-1.08l-2.21,2.56.11-.66c-3.31,3.42-4.46,7.17-7,9.76-.48,1.15,1.51-2,1.14-1-1.21,1.76-2.8,3.39-3.16,4-1.7,2.39-1,2.57-2.73,5.12.31-.27.77-.42-.32,1.59-1.14,1.8-1.78,2-1.17.78.26-.44.42-.63.44-.59.32-.62.75-1.42.2-.76l0,.3c-.66.84-2.16,3.36-2,2.67-.74,1.44-.19.69.48-.3-1.56,2.25-2.21,3.65-3.79,6,.3-.34.63-.62.39-.24-2.3,3.41-.76,1.66-2.21,4-1,1.23,0-.7-1.47,1.71-1.06,1.34-.46.12-.16-.49a24.07,24.07,0,0,1-3.77,4.82c.25-.35.49-.71.74-1.07A14.37,14.37,0,0,1,782,65.91c.23-.13.45-.26.66-.4-.52.56-.95,1-1,.93-.43.66.71-.14-.24,1.09a13.41,13.41,0,0,1-1.49,1.1c-.54.31-1,.29-1,.12a1.29,1.29,0,0,0,.85-.22c.1-.08,0-.1,0-.12s-.15,0-.11-.11a8.61,8.61,0,0,1,.68-.53,2.15,2.15,0,0,1-1.19.6s0-.07.12-.11c-.19,0-.26,0-.29,0l-.09,0-.27-.09c-.19-.11-.58-.2-.9-1.67.25.33.2-.73.12-1.23.16,1.21-.24.65-.48-.51,0-2-.19-2.23-.18-3.32L777,62.61a10.75,10.75,0,0,1-.17-2.93c.14-.12,0,1.33.13.81-.27-1.64.49-3.65.45-5.93.21-1,.34-.08.5-1,0-2.57.47-2.74.5-5.44-.3.75-.25.89-.33-1l-.2,4.43-.11-2.86c-.11,1.33-.08,2.82-.19,3.61-.08-1.36,0-1.22-.28-.6.5-1.79.1-3.62.5-5.71l.58.11a25,25,0,0,0,.24-4.56c0-1.56-.08-3.23-.13-5.33,0,.45,0,.91,0,1.36-.25-.55-.12-2.6-.52-4,.22.1.13-.79,0-1.46a10.52,10.52,0,0,0-1-1.61,2.77,2.77,0,0,0-1.44-.84,1.81,1.81,0,0,0-.65,0,.54.54,0,0,0-.34.13,4.66,4.66,0,0,0-2.17.56,8.12,8.12,0,0,0-2.62,2.71,34.16,34.16,0,0,1-2,2.89c.42-.9-.6.18.62-1.64-.69.86-1.28,1.62-1.19,1.72-.48.43-1.51,2.59-2.21,3.3a4.81,4.81,0,0,1-.77,1.66c-.1.09-.08-.06-.08-.06s-.92,1.65-.16.89c-2.32,2.42-4.9,7.79-6.9,9.9-1.2,2-2.69,4.36-3.89,6.1,0-.15-.08-.06.17-.38-1.82,2.27-.55,1.81-2.7,4.34-1.28,1.14.93-1.5.19-.74-.78,0-2.34,3.23-4.14,4.57l.33-.42c-1.29,1.06-2.61,3.19-4.91,4.56,0,0,.08-.12,0-.09a6.33,6.33,0,0,1-3.16,1.52,5,5,0,0,1-3.83-1.09c.78.29,1,.54.76.08-.46-.28-.45-.18-.56-.12s-.37,0-1.2-.79c-.44-.64-1.24-2.14-1.09-2.47a14.54,14.54,0,0,0,1.21,1.77c-.4-1-1.55-2.29-2-3.39l.2.06c-.73-1.52-1.11-2.29-1.5-3.09a17.42,17.42,0,0,1-1.24-3.47v.4c-.9-1.86-.23-1.69-1-3.6l.25-.68c-.38-1.28-1.29-4.53-1.72-6.9.49,1.3,1.12,4,1.64,5.71-.27-1.29-.85-4.42-1.14-5.08a11.57,11.57,0,0,1,.36,1.71,29,29,0,0,1-1.43-6.29c.8.37-.7-6.89-.32-8.88-.41-2.31-.64-4.64-.88-7.06a69.63,69.63,0,0,0-1.05-7.73c-.17,2.08-.35-1.61-.9-1.12a14.79,14.79,0,0,0-.54-1.55,6.11,6.11,0,0,1-.27-.6,1.8,1.8,0,0,0-1.33-1.11c-1,0-1.7.92-2.32,2-.36.59-.23.19.05-.44a9.52,9.52,0,0,1,.47-.86c.14-.23.26-.36.21-.37a9.13,9.13,0,0,0-1.2,1.91,1.86,1.86,0,0,1-.29.44,2.47,2.47,0,0,0-.65,1.08c.33-.31,0,1.06-.52,2.61.29-.71.58-1.43.9-2.14a17.83,17.83,0,0,1-1.07,3.57,12.46,12.46,0,0,0-.9,3.6l.08-1.27c-.35,2-1.45,7.38-1.28,9.42-.13.34-.38.78-.27-.11-.89,4.77-1.17,10.72-2,14.39l-.09-.38A12.1,12.1,0,0,1,712.2,52c-.06-.06-.1-.38-.17,0a25.78,25.78,0,0,1-.34,3.58l0-1c-.88,4.63-.64,7.21-1.16,11.12-.43-.08-1.16,3.55-1.62,5.27l0-.07a13.3,13.3,0,0,1-.46,1.66l0,.06c.51.34.78.41,1,.71a.1.1,0,0,1,0,.06s0,.09,0,0l0,0a.44.44,0,0,1,.15-.12c.08,0,.31-.15.5-.21a2,2,0,0,1,.31-.07l.2-.05h0a3.13,3.13,0,0,1-.07-.63c-.06-1.1,0-2.27-.06-3.4,0-2.28,0-4.52,0-7.06.63-3.14.52-10.74.21-15.9,0,.79-.35-.1-.5-1,0-1.22-.79-3.27-.37-3.15l.07.43c.24-1-.35-3.44-1-5.35l-.61-.14a11.05,11.05,0,0,0-1.76-4.09,8.38,8.38,0,0,0-4-3.19,8.68,8.68,0,0,0-4.63-.39c-1.33.21-2.35.56-3.1.66a25.14,25.14,0,0,0-3.48,2.15l-.09-.28a48.24,48.24,0,0,0-7.43,5.62l.52-.71c-1.81,1.52-1.71,2.56-3.3,4l-.77.12c-3,2.73-6.27,5.23-9.05,8.1,0-.09,0-.26.51-.69-.72.61-2.17,1.74-3.33,2.68s-2.06,1.71-1.62,1.74c-.25-.26-3.31,2.44-5.1,3.66l.14-.41a17.63,17.63,0,0,1-1.47,1.3,13.39,13.39,0,0,1-2.12,1.28c-.56.22-.57,0,.18-.25-1.86.7-1.3.92-3.64,1.57a6.3,6.3,0,0,0,.8-.45c-1,.35-1.42.42-1.74.58a10,10,0,0,1-1.07.48c-1.24.42-3.86.34-4.12,0a3,3,0,0,1-1,.17,6.15,6.15,0,0,1-1.6-.24c-.14-.13.3-.1.51-.09a23.93,23.93,0,0,1-3.8-1.27A8.33,8.33,0,0,1,640,57c0-.11-.07-.23-.2-.37.52.4,1,.81,1.48,1.13l1.26.8a11.14,11.14,0,0,1,1.09.55c.09-.25-1.75-1.17-.11-.78a8.79,8.79,0,0,1-1.34-.53A9.32,9.32,0,0,1,640.7,57l-.76-.49-.69-.58a8,8,0,0,1-1.18-1.23,1.19,1.19,0,0,1-.12-.26l.17.14c-.31-.37-.61-.68-.89-1-.37-.56-.63-.9-1-1.45a4.51,4.51,0,0,0-.7-1.3c-.36-.63-.83-1.32-1.08-1.81-.2.22-.85-1.07-.41.23,0-.17.12.17.51.79.09.14.2.3.27.39l-.06,0c.36.62.88,1.4,1.49,2.27a7.48,7.48,0,0,1-1.7-2.45A14.27,14.27,0,0,1,633.41,49a45.08,45.08,0,0,1-1.36-4.73c-1.5-3-3-7.41-4.23-9.27a2.94,2.94,0,0,1-.28-1.47c.24.51.46,1.14.63,1.4-.77-1.79-2-5.43-2.52-5.73-.73-2.37.82,1.17-.47-2l.28.38a22.76,22.76,0,0,0-1.77-4.33,18.84,18.84,0,0,0-2.44-3.6,11.2,11.2,0,0,0-3.51-2.9,7.42,7.42,0,0,0-5.27-.47,2.19,2.19,0,0,1,.94-.13,11.41,11.41,0,0,0-5.67,3.39L606.6,20.8l-1,1.29c-.71.84-1.29,1.76-1.91,2.66-2.38,3.65-4.38,7.48-6.42,11.11a13.56,13.56,0,0,0-1.42,3.82l-.48.35c-.23.8-.48,1.58-.68,2.39a27.3,27.3,0,0,1-2.07,4.43A24.35,24.35,0,0,0,590.54,52l.39-.46c-.63,1.46-1.64,4.75-1.77,4.42a2.17,2.17,0,0,1-.28,1.11h-.17l-1.06,3.76c-1.08,2.82-.44-.66-1.89,3.51-.47,1.57-1.07,4.57-.77,4s.64-1.57.8-1.57l-.4,1.45c.36.4.44,1.63,1.93-1.73l.55-2.51.48-.71-.68,2a7.88,7.88,0,0,0,.82-2.74,2.81,2.81,0,0,0,.58-.93c.12-.84.28-1.67.42-2.51.28-.22,0,1.18.63-.37.2-1.17-.77.92-.24-1,.62-1.08.66-.69,1-2.1.18-.14.15.17,0,.72.29-1.25,1.09-3.19,1.11-3.89.71-1.09,1.49-4,1.86-3.76a18.37,18.37,0,0,1,.95-3.3c-.33,2.18,1.7-4,2-3.28.22-1.63,2.12-5.29,3.17-7.89a2.48,2.48,0,0,1-.23.68,18.63,18.63,0,0,1,1.61-2.57c-.23-.35.81-2.57,1.3-3.81,1.32-1.44-.21,1.23.42.9-.33-.08,1.45-3,.89-2.58,1-1.11.8-1,1.48-1.42-.24-.47.65-1.19,1.19-2.28a3.57,3.57,0,0,1,1.07-.85c.15-.07.26-.23,1-1.07C609.52,20.71,608.28,22.24,608.28,22.24Zm28.91,34h0l-.81-.88ZM641,59.39a14.61,14.61,0,0,1-1.73-1.25c-.07-.18.14-.14.52.16C639.5,58.19,640.35,59,641,59.39Zm-5.39-8.45c.42.58.52.8.53.92-.19-.28-.44-.59-.72-1l-.08,0A.7.7,0,0,1,635.56,50.94Z" transform="translate(-0.01)"/><path class="cls-1" d="M634.57,50c-.06-.09-.1-.13-.17-.25.05.14.11.27.17.41l.21.18Z" transform="translate(-0.01)"/><path class="cls-1" d="M827,37v-.1a.8.8,0,0,1,0,.22C827,37.05,827,37.05,827,37Z" transform="translate(-0.01)"/><polygon class="cls-1" points="696.47 31.8 696.44 31.73 696.11 31.91 696.47 31.8"/><path class="cls-1" d="M829.24,63a.86.86,0,0,0,0,.35A2.48,2.48,0,0,0,829.24,63Z" transform="translate(-0.01)"/><path class="cls-1" d="M833.71,73.48a4.38,4.38,0,0,0,1.68.81A4.76,4.76,0,0,1,833.71,73.48Z" transform="translate(-0.01)"/><path class="cls-1" d="M842.13,71.12a.57.57,0,0,0,0-.21h0Z" transform="translate(-0.01)"/><path class="cls-1" d="M775.21,62c0-.12,0-.24,0-.34C775.15,60.81,775.16,61.35,775.21,62Z" transform="translate(-0.01)"/><path class="cls-1" d="M798.05,44.56c-.18.4-.36.79-.57,1.19C797.88,45.14,798.18,44.66,798.05,44.56Z" transform="translate(-0.01)"/><path class="cls-1" d="M767.08,40.12h0l-.16.23Z" transform="translate(-0.01)"/><path class="cls-1" d="M796.49,47.37a12.89,12.89,0,0,0,1-1.62C797.16,46.25,796.77,46.83,796.49,47.37Z" transform="translate(-0.01)"/><path class="cls-1" d="M861,38.64l.18-.38s0,0,0-.06Z" transform="translate(-0.01)"/><path class="cls-1" d="M861.12,38.2l.16-.44A1.72,1.72,0,0,0,861.12,38.2Z" transform="translate(-0.01)"/><path class="cls-1" d="M861.61,36.84l-.33.92A3.43,3.43,0,0,0,861.61,36.84Z" transform="translate(-0.01)"/><path class="cls-1" d="M856,49l0,.16A.16.16,0,0,0,856,49Z" transform="translate(-0.01)"/><path class="cls-1" d="M854.45,52.08A28.43,28.43,0,0,0,856,49.25l0-.13C855.92,49.68,854.65,51.3,854.45,52.08Z" transform="translate(-0.01)"/><path class="cls-1" d="M846.15,64c.56-.78,1.1-1.59,1.64-2.39-.37.37-.84.86-.17-.27C845.4,64.27,848.25,60.88,846.15,64Z" transform="translate(-0.01)"/><path class="cls-1" d="M840.45,70.81c1-1.09-.13-.11-.11-.21C839.7,71.28,839.53,71.46,840.45,70.81Z" transform="translate(-0.01)"/><path class="cls-1" d="M816.77,21l.11-.28C815.58,21.18,816.89,20.85,816.77,21Z" transform="translate(-0.01)"/><polygon class="cls-1" points="808.11 30.06 808.96 29.25 809.13 28.68 808.11 30.06"/><polygon class="cls-1" points="802.31 34.96 802.58 34.5 801.53 36.23 802.31 34.96"/><path class="cls-1" d="M758.15,49.42l.46-.14C759,48.57,758.79,48.23,758.15,49.42Z" transform="translate(-0.01)"/><path class="cls-1" d="M729.94,59a7.83,7.83,0,0,0-.55-2.58C729.62,57.47,729.76,58.51,729.94,59Z" transform="translate(-0.01)"/><path class="cls-1" d="M707.58,34.3c.2.28.37.58.55.88a15.11,15.11,0,0,0-1-1.69C707.3,33.76,707.45,34,707.58,34.3Z" transform="translate(-0.01)"/><path class="cls-1" d="M344,121.9c.05-.27-.19-.24-.5.4l0,.6Z" transform="translate(-0.01)"/><path class="cls-1" d="M341.1,125.74c-.27.8-.5,1.77,0,1.45.13-.87.34-1,.45-1.93.31-.64.7-1,.75-.86.05-.26.6-.92.6-1.36a7.83,7.83,0,0,0-1.66,2.85C341.07,126.08,341.12,125.82,341.1,125.74Z" transform="translate(-0.01)"/><path class="cls-1" d="M300.16,161.18l0,.44C300.2,161.5,300.19,161.35,300.16,161.18Z" transform="translate(-0.01)"/><path class="cls-1" d="M285.44,129.32c.26-.22.36-.33.35-.36C285.55,129.16,285.36,129.34,285.44,129.32Z" transform="translate(-0.01)"/><path class="cls-1" d="M280,134.35l.3-.32A1.24,1.24,0,0,0,280,134.35Z" transform="translate(-0.01)"/><path class="cls-1" d="M300.16,161.18c0-.38-.07-.75-.09-1.13C300,160,300.07,160.64,300.16,161.18Z" transform="translate(-0.01)"/><path class="cls-1" d="M337,134.37a4.16,4.16,0,0,0,.24-.57l-.27.52Z" transform="translate(-0.01)"/><path class="cls-1" d="M311.9,166l.26-.22a1.69,1.69,0,0,0,.12-.28Z" transform="translate(-0.01)"/><path class="cls-1" d="M321.36,155.37c-.2.25,0,.51,0,.68a1.64,1.64,0,0,1,.27-.68S321.49,155.33,321.36,155.37Z" transform="translate(-0.01)"/><path class="cls-1" d="M334.38,136.57l.17-.37C334.51,136.3,334.43,136.46,334.38,136.57Z" transform="translate(-0.01)"/><path class="cls-1" d="M303.6,168.23a.23.23,0,0,0,0-.14S303.57,168.17,303.6,168.23Z" transform="translate(-0.01)"/><path class="cls-1" d="M95,160.5l0,0C94.93,160.41,94.9,160.4,95,160.5Z" transform="translate(-0.01)"/><path class="cls-1" d="M89.45,144.55l.1.21a.43.43,0,0,0,.16,0Z" transform="translate(-0.01)"/><path class="cls-1" d="M271.63,144.94l0-.05C271.85,144.58,271.74,144.75,271.63,144.94Z" transform="translate(-0.01)"/><path class="cls-1" d="M223.44,153.74c.85-1.13-.72,2.15.47.42C223.72,154.28,224.37,152.27,223.44,153.74Z" transform="translate(-0.01)"/><path class="cls-1" d="M336.8,134.68l-.31.51C336.64,135,336.73,134.8,336.8,134.68Z" transform="translate(-0.01)"/><path class="cls-1" d="M223.91,154.16h0L224,154Z" transform="translate(-0.01)"/><path class="cls-1" d="M254.26,170.16a1.24,1.24,0,0,0,.29-.16S254.45,170,254.26,170.16Z" transform="translate(-0.01)"/><path class="cls-1" d="M267.72,151.78l-.34.46C267.52,152.06,267.63,151.92,267.72,151.78Z" transform="translate(-0.01)"/><path class="cls-1" d="M246,175.48c-.17-.16-.2-.24-.45-.46a.26.26,0,0,0,0,.1A1.87,1.87,0,0,1,246,175.48Z" transform="translate(-0.01)"/><path class="cls-1" d="M243.29,164.39c0,.07,0,.15,0,.23s0,.26,0,.39Z" transform="translate(-0.01)"/><path class="cls-1" d="M122.18,185.75a2.11,2.11,0,0,1-.62-.25c.1.11-.34.18-.51.19S121,185.79,122.18,185.75Z" transform="translate(-0.01)"/><path class="cls-1" d="M336.88,134.3a.6.6,0,0,1-.08.38c.06-.13.13-.25.19-.36S337,134.24,336.88,134.3Z" transform="translate(-0.01)"/><path class="cls-1" d="M244.17,176.78a6.86,6.86,0,0,1-1.31-2.06A6.42,6.42,0,0,0,244.17,176.78Z" transform="translate(-0.01)"/><path class="cls-1" d="M182.36,131.09l-.33-.25A1.37,1.37,0,0,0,182.36,131.09Z" transform="translate(-0.01)"/><path class="cls-1" d="M241.38,168.64a8.53,8.53,0,0,0,.08-1.15,1.22,1.22,0,0,0-.1-.23Z" transform="translate(-0.01)"/><path class="cls-1" d="M121.55,185.5h0Z" transform="translate(-0.01)"/><path class="cls-1" d="M108.9,180.68c1.49,1.3.94.31,1.39.42,1.9,1.33.71.86,1.24,1.49a30.9,30.9,0,0,0,3.44,1.49c0,.09.24.19,0,.16.78.19,1.86.64,3,.9a8.77,8.77,0,0,0,3.34.27.69.69,0,0,1,.23.09c-.29-.18-.32-.38-.26-.51.87,0,1.58-.26,1.93-.06a1.78,1.78,0,0,0-.81.23c.3,0,.6-.12.9-.18.86.27-1.24.24-1.23.45a13.89,13.89,0,0,0,2.76-.54c.88-.27,1.68-.56,2.33-.75.2.12-.55.4-1.13.61s-1,.29-.05.21l-1.07.2-1.07.12c1.72.26-1.33.17.28.5a10.77,10.77,0,0,0,3-.79c.75-.31,1.48-.64,2.76-1.25.47-.47-.31-.15.15-.62a11.28,11.28,0,0,1,3-1.64,4,4,0,0,0,2.13-1.51,5.44,5.44,0,0,1,1.94-2.41l-.22.76a5,5,0,0,0,1.3-1.66,5.94,5.94,0,0,1,1.42-1.66c-.21.47-1.29,1.63-1,1.36,1.43-1.13.69-1.08,1.58-2.12h.45c1.76-2.19,3.41-4.8,5.1-7.37,0,.2-.22.69.27.16,2.08-3.29,4.6-6.89,6.74-10l.5-1.37c.17-.28.43-.45.29-.11.86-1.18-.12-.17.15-.82.42-.71.71-.84.52-.35a53.31,53.31,0,0,1,5.07-8.59l-.21.49c1.22-1.69.76-2.31,2.06-3.78l-.16.34c2.58-3.7,5.39-7.91,8.13-9.95.07-.37.89-1.11,1.71-1.73s1.63-1.15,1.59-1.47a7.88,7.88,0,0,1,2.1-.68,8.82,8.82,0,0,1,2.69-.24,5.79,5.79,0,0,0,1.05-.09,4.45,4.45,0,0,1,1.25.09l-.08.3a8.45,8.45,0,0,1,1.41.38l.43.74a7.8,7.8,0,0,1,.81.61c-.28-.29-.54-.7-.44-.73a11.1,11.1,0,0,1,1,.88c.29.35.56.72.79,1a3.53,3.53,0,0,1,.6,1.34c.42.51.77,1.08,1.16,1.63s.7,1.15,1,1.74a5.06,5.06,0,0,1-.81-1.05c1.26,1.78-.09.47,1,2.15,0-.27.23.05.3.07.25,1,1.08,3.1,1.71,4.68l-.31-.24c1,2.9,2.08,6.14,3,9.49-.25-1.23.18-1,.5-.08l-.21.49c.38.58-.17-1.07.44.17.31,1.27-.12.95-.43.25l.54,1.5c-.07.12-.22-.23-.36-.29.37.57.42,2.73,1,3.54l-.07.11c1,3.37,1.54,4.88,2.49,7.6.28,0,.61,1.05,1.13,1.77a25.6,25.6,0,0,0,2.94,6.55c1.24,1.45.52.3,1.17.87-.21.32,1.89,2.21.7,1.35a7.09,7.09,0,0,0,3.66,1.9,6.71,6.71,0,0,0,4.65-.85c-.45.11-1,.23-.74.06.7-.3,1.57-.67,1.55-.51l-.16.13a34.69,34.69,0,0,0,5.51-4.83,20.41,20.41,0,0,0,3.77-5.26l-.08.18c.56-1.07,1.1-2.14,1.61-3.21.86-1.41-.33,1,.42,0,1.54-3.56,3-5.31,4.17-8.26,1.79-1.84,3.78-7.8,5.65-10.53l-.24.09c.21-.84.54-.87.85-1.41-.16,0-.55.75-.4.23a70.76,70.76,0,0,1,5.21-9.59,23.28,23.28,0,0,1,1.59-2.14,6.7,6.7,0,0,1,1.68-1.52.89.89,0,0,1,.29-.1s0,0,.06,0,0,0,.14.17a6.15,6.15,0,0,1,.62,2,4.77,4.77,0,0,0,.69,2,4.39,4.39,0,0,1,.27,2.64l-.37-.92c.65,5.3-.08,11,.1,16.34a2.15,2.15,0,0,1-.15-.85,11.47,11.47,0,0,0,.07,4.2c-.05.83-.19.19-.3.7-.16,1.13.26,2.86,0,3.46,0,.1-.08-.32-.1-.53.1.74,0,3.47.26,2.75-.11,2,.23,3.87.21,5.51.37,1,.28,3.54.81,3.8-.24,0-.16.89.17,2a6.89,6.89,0,0,0,1.64,2.91c-.21-.17-.05.13.17.41s.47.54.13.39a4,4,0,0,0,2.52,1c.71,0,1-.17.86-.25a4.61,4.61,0,0,0,2.35-.59,8.92,8.92,0,0,0,1.68-1.24,9.88,9.88,0,0,1,2.46-2,102.65,102.65,0,0,0,7.22-10c.3.38-2.46,3.51-2,3.65,2-3.09,2.91-5.06,5-8,.58-.75-.13.55-.25.86,1.9-3.14,4-5.87,5.56-8.72a2.54,2.54,0,0,1-.28.65c.34-.54.88-1.21.67-1.26l-.3.55c-.82.69.89-2.46.83-2.64-.12,1.22,1.91-2.59,1.56-.74.2-.37.42-.86.25-.86.39-.49.56-.61.34,0,1.19-2,.55-1.41,1.74-3.11.08.06-.13.43-.16.67a13.92,13.92,0,0,1,2-3.32c0,.12.17,0-.14.42,1.74-2.45,2.61-4.45,4.87-6.86-.3,1,.83-.76,1.23-.63.36-.47.72-.92,1.1-1.37l-.61.39a20.51,20.51,0,0,1,2.9-3c-.26.27-.5.57-.74.86a21.88,21.88,0,0,1,2.14-1.84c-.46.27-.91.55-1.35.86,1.09-1.1-.45-.29,1.27-1.42a8.28,8.28,0,0,1,2.13-.89h0a3.41,3.41,0,0,1,2.47-.52c.25.15-.26.39-.1.49a2.28,2.28,0,0,1,1.77.55,2.32,2.32,0,0,1,.48.41c.14.15.3.27.42.42a4.87,4.87,0,0,0,.67.72c-.22-.23-.4-.13-.38,0a4.82,4.82,0,0,1,.51.41c.25.65.24.76.05.72.7,2,.24-.82.87,1.62-.07-.18-.08-.08-.24-.46a36.11,36.11,0,0,1,1.45,7.13c-.29.73-.36-2-.57-1.21a96.21,96.21,0,0,1,1.26,10.32v-.62c.56.42-.11,2.48.27,4.15-.08-.41-.34-.52-.27-.41a50.39,50.39,0,0,0,1.14,8.07l-.2-.41a26.2,26.2,0,0,0,.95,5c.23.39.55,1.19.54.64a7.35,7.35,0,0,0,1.36,3.17,4.75,4.75,0,0,0,3,1.82,6.6,6.6,0,0,0,3.27-.4c1-.39,1.91-.81,2.85-1.26-.41.27-.93.73-.6.52a21.53,21.53,0,0,0,2.74-2.16c-.36,0-.43.2-1.11.49a13.54,13.54,0,0,1,1.55-1.62c-1,1.14.26.28.83-.09-.13,0,0-.18-.1-.2,1.55-.95-.09-.52,1.78-2.06v.18c.58-.7,1-1.43,1.69-2.13.47-.13-.55.8-.43,1,.91-1,1.39-2.36,2.38-3.16-.31.51-.85,1.15-1.17,1.64a8.31,8.31,0,0,0,1.82-1.76l-.06.07c.52-.57,1-1.16,1.54-1.74l-.43.42c.51-1.78,2-2.86,3-5-1,2.07,0,.45.13.77.42-.43,1-1.12.93-.86.43-1,1.21-1.38,1.78-2.86.12,0,.66-1,.73-.62.72-1.22-.33.19-.36,0,.94-2,3.17-4.07,4.46-7,1.28-2.39,1.26-3,2.42-5.22.57-.65-.05.78-.05.78a17,17,0,0,0,1.9-3.16c-.06.27.14.08.43-.21.51-.9.05-.77.87-1.87a4.57,4.57,0,0,1-.19,1.09c.54-1.1,1-2.23,1.55-3.37.32-.2-.16.79-.29,1.23a18.17,18.17,0,0,0,1.69-3.77l-.53.74c.24-.45.33-.12.18.24-.42,1.16-.95,1.47-1.07,1.48l.39-.81c-.95.52-1.73,3.17-2.68,4.71l0-.86-.65,1.77c-.29.28-.63.39-.22-.41-.85,1-.46,1.07-1.24,1.9-.09.09-.08,0,0-.08l-.55,1.15c.05-.26-.36,0,.09-.61-1.38,1.82-1.64,3.29-2.36,3.85l.08-.18c-1.56,2.74.1.42-.86,2.61l-1.49.94.09.42c-.19.27-.56.8-.6.63-.48,1.13.23-.1,0,.6-1.08,1.16-2.28,3.67-2.88,3.68-.13.6,1-1.13.18.34-.7.1-1,1.64-2,2.67,0-.52.92-1.54-.09-.51-.13,1-1.7,2.2-2.35,3.21.26.26-1.44,2.19-2.63,3.82,0-.16-2.57,2.8-4,4v-.08c0,.53-1.39,1.84-2.39,2.82-.1-.2,0-.43.51-1-.32.3-.63.6-1,.87a4.24,4.24,0,0,1-1.08,1.14l.1-.41c-.68.52-1.33,1.09-2.1,1.57a5.46,5.46,0,0,1-2.68,1c0,.13.4.28.6.38s.15.37-1.1.56c-.1-.17-.17-.33.42-.47a2.52,2.52,0,0,1-1.11.07,8.25,8.25,0,0,0,.92-.22c-.48,0-.6,0-.71,0s-.2.14-.58,0c.05-.19-.52-.27-.36-.4a2.5,2.5,0,0,0,.9.19,2.52,2.52,0,0,1-1.78-1c0,.11-.19.26-.64-.18s-.55-.78-.52-.85.12-.12-.09-.53-.65-1.28-.91-1.21a1.24,1.24,0,0,1-.07-.8c-.47-.77-1.07-4-1.16-3l0,.24c0-.05,0-.09,0-.15h0c-.89-2.87-.73-6.15-1.08-9.09h.1c-.25-1.76-.34-3.94-.63-5.19,0-.53.09-1.25.23-1a17.3,17.3,0,0,1-.28-3.47c.28,1.36.11-.48.23,1.39a13.64,13.64,0,0,0-.39-4.06c.33.62.18-1.37,0-2.2l0,1.26c-.15-.94-.24-1.77-.36-2.61l.4.4a13.81,13.81,0,0,0-1.23-5,32.46,32.46,0,0,0-2.2-4.16c-.47-.33-.09.12.26.57s.56,1,.19.67a8.71,8.71,0,0,0-1.73-2.08c-.35-.24-.7-.44-1-.61a6.57,6.57,0,0,0-.72-.24,3.5,3.5,0,0,0-2.62.4c-.56.3-1.07.64-2.19,1.23.36,0,.7,0-.71,1.13s-1.94.93-1.17.15c.31-.27.5-.35.51-.31.41-.38,1-.83.36-.54l-.12.22c-.8.39-2.54,2-2.26,1.48-.86,1-.28.52.48-.08a34.25,34.25,0,0,0-4,4c.28-.22.6-.38.37-.11-2.21,2.39-.75,1.23-2.09,3-.91.87-.07-.63-1.3,1.22-.91,1-.43,0-.18-.45a30.9,30.9,0,0,1-3.07,3.86l.54-.92c-.32.55-.63,1-.93,1.4l.54-.35c-.39.48-.69.91-.77.84-.24.62.61-.17.05,1-.57.61-1.32,2.15-1.74,2.21,1.56-2.09-.43.06.78-1.79a11.32,11.32,0,0,1-.89,1.29c-.09.06,0-.11.07-.26-1.63,1.9-.35,1.15-1.8,3.28,0-.37-.61.31-.81.68.58-.86.52-.25.1.62a16.06,16.06,0,0,0-1.4,2.26l.6-.78a8.43,8.43,0,0,1-1.1,2c-.17,0,.5-.92.22-.62-.44,1.24-1.86,2.23-2.67,3.83-.56.62-.32-.12-.79.44-.92,1.78-1.4,1.66-2.42,3.49.54-.36.55-.48-.09.87l1.79-3-.95,2c.59-.86,1.11-1.9,1.49-2.4-.43,1-.42.86,0,.56-1.09,1-1.4,2.46-2.53,3.67l-.46-.37c-1.62,1.87-2.25,3.77-4.31,6.21l.71-.75c-.07.49-1.17,1.58-1.75,2.44-.09-.2-.56.25-.93.51.15.06-1.51,1.74-1.44,2.19-.38.29-.77.55-1.16.81a20.12,20.12,0,0,0-1.87,1.87,3.75,3.75,0,0,1-2.09,1.3c.29-.18.18-.24.18-.32s.08-.17.69-.54c-.65.33-1.21.39-1.2.51a9.11,9.11,0,0,1-1,0,1.46,1.46,0,0,1-1-.69,1.54,1.54,0,0,1-.91-.88c0-.1.09,0,.09,0s-.67-1.21-.57-.41c-.2-1.25-.6-2.93-.84-4.65a15.46,15.46,0,0,1-.16-4.52c-.14-1.8-.22-4-.22-5.62.06.1.1,0,.08.32.2-2.27-.56-1.41-.3-4,.35-1.31.14,1.38.28.56.66-.35,0-3.13.43-4.86l0,.43c.26-1.33-.13-3.26,0-5.44,0,0,0,.11.1,0a60.05,60.05,0,0,1-.43-6.43c.26.65.14,1,.4.56,0-.95-.41.27-.5-1.61.14-.61.21-2,.48-2.17l.07,1.79c.34-.92-.08-2.31-.09-3.26l.16.11a12,12,0,0,0-.56-2.79l-.39-1.18a9.37,9.37,0,0,0-.72-1.74,2.23,2.23,0,0,1,.05.36,10.8,10.8,0,0,0-1.12-1.24,1.46,1.46,0,0,0-.61-.32,1.66,1.66,0,0,0-1.1.18,3.58,3.58,0,0,0-.68-.11c-1.17.71-2.57,3-3.48,4.68a13.14,13.14,0,0,1,2.5-4.17,10.84,10.84,0,0,0-2.53,3.48,5.35,5.35,0,0,1,.73-1.19,48.76,48.76,0,0,1-2.3,4.57c-.53-.71-2.73,4.7-3.9,5.79-1.38,3.42-3.3,6.5-5.15,10.34,1.2-1.09-.54,1.13.12,1.16a6.82,6.82,0,0,1-.66,1.31l-1.7,2.51c-.48.55.32-.9.15-.88-1,1.9-.65.68-1.45,1.87.32-.15-.08.82-.74,1.86l1.07-1.4c-1.15,2.82-1.68,2.06-2.92,4.84l.32-.92c-.67,1.42-3,4.88-3.49,6.36-.21.18-.56.37-.2-.21a50.3,50.3,0,0,1-3.56,4.51,7.9,7.9,0,0,1-4,2.61l.18-.21a2.58,2.58,0,0,1-1.66.41c0-.06.22-.14,0-.16a3.35,3.35,0,0,1-2.17-.42l.66.11a11.48,11.48,0,0,1-3.06-2.4,14.31,14.31,0,0,1-2.31-3.22c.38-.18-.65-2.78-1-4.15l.07,0c-1.37-3.94-2.55-6.71-3.81-10.46-.21-2.49-2-8.09-3.05-12,.12.6-.36,0-.63-.65-.2-.92-1.17-2.33-.73-2.34l.11.32c.13-.8-.67-2.59-1.32-4H188a15,15,0,0,0-3.57-6.12,14.32,14.32,0,0,0-2.7-2.24c-.9-.54-1.69-1-2.25-1.27a8.08,8.08,0,0,0-3.46,0l0-.28a10,10,0,0,0-3.61,1,15.44,15.44,0,0,0-3.38,2.31c.13-.2.26-.41.41-.6-1.53,1.22-1.29,2.19-2.46,3.41l-.66.09a38.09,38.09,0,0,0-5.9,7.64c0-.08-.07-.23.21-.66-.88,1.22-3.46,4.68-2.67,4.54-.34-.18-1.8,2.75-2.55,4.29l-.1-.37a12.21,12.21,0,0,1-1.37,3.27c-.28.39-.41.24,0-.26-1,1.28-.43,1.19-1.56,2.76l.22-.71a6.13,6.13,0,0,0-1,2.2,8.38,8.38,0,0,1-2,2.67,4.31,4.31,0,0,1-.86,1.91c-.15.06,0-.27,0-.43-1.62,2.2-1.92,3.59-3.19,5-.1,0-.2.06-.31.17,1.21-1.79,2.17-3.25,2.09-3.1-.21-.14-1.2,1.29-.74-.06a26.18,26.18,0,0,1-2.65,4.84,1.13,1.13,0,0,1-.2.13l.07-.16a6.77,6.77,0,0,0-.58.9c-.35.41-.57.68-.88,1.09-.29,0-1.27,1.54-1.82,2.21.27.12-.47,1,.37.29-.1.1.08-.15.42-.62.07-.11.16-.23.2-.31l0,.06,1.27-1.74a5.73,5.73,0,0,1-1.32,2c-.12.47-.28,1-.38,1.24-1,.71-2.68,2.31-3.06,2.39-.81,1-1.84,2.19-2.81,3.23a27,27,0,0,0-2.36,2.69,1.62,1.62,0,0,1-1,.5,6.92,6.92,0,0,0,.85-.8,23.4,23.4,0,0,1-2.18,1.73c-.78.54-1.46,1-1.53,1.23-1.75.67.79-.73-1.48.4.09-.07.17-.16.26-.24a30.38,30.38,0,0,1-6.3,1.5,9.82,9.82,0,0,1-6.68-1.83c.32.22.49.33.53.42a35.82,35.82,0,0,1-13.45-14A10.17,10.17,0,0,0,99.93,166l.06-.49L98.74,164c-1.54-2.25-1.57-4.46-3.47-7.33v.48c-.5-1.12-1.75-3.49-1.45-3.4a1.33,1.33,0,0,1-.45-.76l.13-.1L92,150.25c-.79-2.21.71.1-.56-3.08-.54-1.15-1.76-3.19-1.69-2.71s.39,1.26.26,1.35l-.5-1.05c-.51,0-1.29-.7-.54,2.1l1,1.76,0,.68-.65-1.56a4.67,4.67,0,0,0,1,2,1.8,1.8,0,0,0,.09.87l1.18,1.64c-.07.29-.68-.67-.24.58.56.77,0-1,.76.37.19,1-.08.78.55,1.74,0,.19-.21,0-.45-.38a19.06,19.06,0,0,0,1.62,2.75c.19,1,1.54,3,1.11,3.13a16.31,16.31,0,0,1,1.57,2.23c-1.27-1.24,1.62,3.06.93,2.93,1,.86,2.48,3.82,4,5.51a1.46,1.46,0,0,1-.39-.42c.67,1.06.76,1.44,1.16,2.15.41-.09,1.65,1.43,2.5,2.09.69,1.43-1-.44-.92.16.18-.24,2,1.88,1.83,1.3.62,1,.59.83.77,1.51.51-.2.82.76,1.76,1.22,1.09,1.36,0,.65,1.54,1.8.31.34.1.29-.18.13S108.9,180.68,108.9,180.68Zm36.74-13.87h0l-.5.75Zm2.06-3.06-.89,1.33c-.15,0-.16-.12.05-.43C146.8,164.85,147.33,164.16,147.7,163.75Zm-6,5.25c.31-.48.47-.61.56-.63l-.57.83v.07A.53.53,0,0,1,141.67,169Z" transform="translate(-0.01)"/><path class="cls-1" d="M141.34,170.05c-.05.07-.07.12-.13.21l.26-.24a2.25,2.25,0,0,0,.05-.22Z" transform="translate(-0.01)"/><path class="cls-1" d="M300.21,161.69v-.07a.76.76,0,0,1,0,.16C300.2,161.73,300.21,161.73,300.21,161.69Z" transform="translate(-0.01)"/><path class="cls-1" d="M179.35,129.18l0-.07a.88.88,0,0,0-.28,0A1.06,1.06,0,0,1,179.35,129.18Z" transform="translate(-0.01)"/><path class="cls-1" d="M314.2,165.68c.05,0,.12,0,.25-.13A2.05,2.05,0,0,0,314.2,165.68Z" transform="translate(-0.01)"/><path class="cls-1" d="M320.17,159.18l.86-.92Z" transform="translate(-0.01)"/><path class="cls-1" d="M324.37,153.86a.24.24,0,0,0,0-.17h0Z" transform="translate(-0.01)"/><path class="cls-1" d="M269.55,152.44l-.14.22C269.12,153.2,269.33,152.84,269.55,152.44Z" transform="translate(-0.01)"/><path class="cls-1" d="M289.25,128.23c-.28.16-.54.34-.82.53C288.91,128.52,289.29,128.39,289.25,128.23Z" transform="translate(-0.01)"/><path class="cls-1" d="M244.38,177h0l-.21-.21A2.08,2.08,0,0,0,244.38,177Z" transform="translate(-0.01)"/><path class="cls-1" d="M287.22,129.49c.48-.27.86-.5,1.21-.73A5.34,5.34,0,0,0,287.22,129.49Z" transform="translate(-0.01)"/><path class="cls-1" d="M340.07,129.19l.18-.27a0,0,0,0,1,0-.06Z" transform="translate(-0.01)"/><path class="cls-1" d="M340.23,128.86l.15-.33A.77.77,0,0,0,340.23,128.86Z" transform="translate(-0.01)"/><path class="cls-1" d="M340.69,127.84l-.31.69A2,2,0,0,0,340.69,127.84Z" transform="translate(-0.01)"/><path class="cls-1" d="M335.43,136.82l0,.14A.15.15,0,0,0,335.43,136.82Z" transform="translate(-0.01)"/><path class="cls-1" d="M334.05,139.16a21.45,21.45,0,0,0,1.45-2.08l0-.12C335.38,137.4,334.23,138.55,334.05,139.16Z" transform="translate(-0.01)"/><path class="cls-1" d="M326.91,148l1.32-1.84c-.31.27-.72.63-.18-.25C326.22,148.13,328.59,145.57,326.91,148Z" transform="translate(-0.01)"/><path class="cls-1" d="M322.78,153.69c.67-1-.14-.09-.15-.17C322.26,154.2,322.17,154.36,322.78,153.69Z" transform="translate(-0.01)"/><path class="cls-1" d="M298.88,146l.26.1C299,145.11,299,146.05,298.88,146Z" transform="translate(-0.01)"/><polygon class="cls-1" points="296.54 136.45 296.52 137.36 296.82 137.75 296.54 136.45"/><path class="cls-1" d="M296.65,130.34a4,4,0,0,1,.23.39,12.15,12.15,0,0,0-.9-1.5A8,8,0,0,1,296.65,130.34Z" transform="translate(-0.01)"/><path class="cls-1" d="M243.66,166.55l-.29.3C243.47,167.47,243.83,167.57,243.66,166.55Z" transform="translate(-0.01)"/><path class="cls-1" d="M242.37,129.58a2.16,2.16,0,0,0-.5-1.08,2,2,0,0,0-1.49-.77,2.41,2.41,0,0,1,1.44.92A6.35,6.35,0,0,1,242.37,129.58Z" transform="translate(-0.01)"/><path class="cls-1" d="M187.52,134.33l.45.64c-.26-.42-.49-.84-.76-1.25C187.33,133.92,187.42,134.13,187.52,134.33Z" transform="translate(-0.01)"/><path class="cls-1" d="M546.94,121.94c0-.19-.2-.22-.42.19l.1.45Z" transform="translate(-0.01)"/><path class="cls-1" d="M544.74,124.2c-.16.54-.26,1.21.18,1.09,0-.63.21-.66.21-1.35.21-.41.52-.62.58-.49,0-.18.45-.56.41-.88a3.33,3.33,0,0,0-1.21,1.77C544.75,124.45,544.77,124.26,544.74,124.2Z" transform="translate(-0.01)"/><path class="cls-1" d="M517.63,159.85l.22-.18A1.59,1.59,0,0,0,517.63,159.85Z" transform="translate(-0.01)"/><path class="cls-1" d="M499.79,159.66c0,.21.08.29.11.3C499.85,159.77,499.81,159.61,499.79,159.66Z" transform="translate(-0.01)"/><path class="cls-1" d="M499.77,155a2.53,2.53,0,0,0,0,.27A.5.5,0,0,0,499.77,155Z" transform="translate(-0.01)"/><path class="cls-1" d="M517.63,159.85l-.59.46C517.08,160.43,517.36,160.1,517.63,159.85Z" transform="translate(-0.01)"/><path class="cls-1" d="M542,129.81a2,2,0,0,0,.16-.38l-.19.33Z" transform="translate(-0.01)"/><path class="cls-1" d="M525.35,150.4l.14-.18a1.69,1.69,0,0,0,0-.23Z" transform="translate(-0.01)"/><path class="cls-1" d="M531,142.88c-.14.16,0,.39.1.53a.74.74,0,0,1,.12-.49A.28.28,0,0,0,531,142.88Z" transform="translate(-0.01)"/><path class="cls-1" d="M539.88,130.93l.12-.24Z" transform="translate(-0.01)"/><path class="cls-1" d="M521.05,155.55a.15.15,0,0,0-.13,0A.15.15,0,0,0,521.05,155.55Z" transform="translate(-0.01)"/><path class="cls-1" d="M412.51,163.87s0,0-.05,0S412.48,163.93,412.51,163.87Z" transform="translate(-0.01)"/><path class="cls-1" d="M407.31,173.55l0-.15a.46.46,0,0,0-.13-.08Z" transform="translate(-0.01)"/><path class="cls-1" d="M500,146.33v0C500,146.59,500,146.46,500,146.33Z" transform="translate(-0.01)"/><path class="cls-1" d="M459.83,172.46c.3.16.06.21-.2.27s-.48.08.05.32c0-.07.23-.13.37-.26S460.21,172.56,459.83,172.46Z" transform="translate(-0.01)"/><path class="cls-1" d="M541.84,130l-.22.33A1.68,1.68,0,0,0,541.84,130Z" transform="translate(-0.01)"/><path class="cls-1" d="M459.68,173.05h0l.12,0Z" transform="translate(-0.01)"/><path class="cls-1" d="M495.27,126.34a1.37,1.37,0,0,0,.28.17S495.49,126.43,495.27,126.34Z" transform="translate(-0.01)"/><path class="cls-1" d="M499.42,141.21l0-.37A2.62,2.62,0,0,0,499.42,141.21Z" transform="translate(-0.01)"/><path class="cls-1" d="M488.52,131.55a1.62,1.62,0,0,0-.35.43l.08,0A.89.89,0,0,1,488.52,131.55Z" transform="translate(-0.01)"/><path class="cls-1" d="M484.11,138.4l.12-.1.12-.23Z" transform="translate(-0.01)"/><path class="cls-1" d="M421.71,141.21a1.22,1.22,0,0,1-.38.24C421.56,141.42,421.15,142.53,421.71,141.21Z" transform="translate(-0.01)"/><path class="cls-1" d="M541.87,129.73a.31.31,0,0,1,0,.26l.13-.23S541.92,129.69,541.87,129.73Z" transform="translate(-0.01)"/><path class="cls-1" d="M490.11,133.13l-.75,1C489.58,133.85,489.85,133.48,490.11,133.13Z" transform="translate(-0.01)"/><path class="cls-1" d="M448.25,122.14l-.08-.29A.59.59,0,0,0,448.25,122.14Z" transform="translate(-0.01)"/><path class="cls-1" d="M487.37,137.27a2.33,2.33,0,0,0-.54.5.5.5,0,0,0,0,.17Z" transform="translate(-0.01)"/><path class="cls-1" d="M421.32,141.45h0Z" transform="translate(-0.01)"/><path class="cls-1" d="M418.62,149.45c.48-1.12-.11-.67-.21-1,.47-1.38.52-.51.88-.89.27-.88.23-1.65.51-2.27.07,0,.14-.13.15,0,.11-1,1.12-2.62,1.23-3.79a.3.3,0,0,1,.14-.1.52.52,0,0,1-.53,0c.21-.5.2-1,.5-1.11a.78.78,0,0,0-.06.54l.14-.56c.53-.33-.21.76,0,.86a19.1,19.1,0,0,1,1.05-3.11c.39,0-.71,1.88,0,1l-.65,1.15c.9-.7-.37.72.54.11.79-1.55.63-1.85,1.44-3.39,0-.43-.31,0-.32-.43.72-2.39,1.6-1.4,1.95-3.23a2.09,2.09,0,0,1,.46-1.93l.15.56c.77-1.5-.08-1.11.93-2.58,0,.35-.47,1.25-.32,1,.77-.89.17-.82.56-1.61h.38c.75-1.62,1.44-3.48,2.34-5.25,0,.14,0,.49.28.14a34.68,34.68,0,0,1,4.11-6.49l.26-.92c.11-.18.33-.25.24,0,.62-.7-.12-.15,0-.58s.53-.47.42-.15c.7-1.47,2.36-4.08,3.83-4.93l-.17.28a3.36,3.36,0,0,0,.87-1,1.56,1.56,0,0,1,1-.8s-.1.11-.16.16a5.38,5.38,0,0,1,1.77-.65,2.29,2.29,0,0,1,1.58.36,4.71,4.71,0,0,1,1.8,2.88c.61.17.79,2.65,1.37,2.67.14,1.68-.05,1.23.22,3.56.09.61.54.84.73,1.6l-.3.07.48,1-.28.61.18.71c0-.29.05-.63.15-.6a5.43,5.43,0,0,1,0,2.84l.56,2.67c-.13-.05-.22-.5-.33-.85.46,1.41-.3.3.12,1.59,0-.19.19.08.26.1a13.58,13.58,0,0,0,.19,3.29l-.23-.2c.11,2,.44,4.23.6,6.5,0-.82.42-.66.5,0l-.3.29c.23.41.07-.7.38.16,0,.85-.33.6-.47.12l.19,1c-.1.07-.17-.17-.29-.23.23.41-.2,1.81.19,2.39l-.09.07c.16,2.26.34,3.29.5,5.14.29,0,.28.74.55,1.27a44.75,44.75,0,0,0,.11,4.54c.25,1.13.27.31.49.81-.25.11-.05,1.75-.32.92a42.06,42.06,0,0,0,.86,5c.07-.29.07-.6.18-.45.11.44,0,1-.09,1l-.05-.11a26.49,26.49,0,0,1,.64,4.57,10.65,10.65,0,0,0,1,4.12l-.06-.12a23.35,23.35,0,0,0,1.11,2.17c.44,1-.47-.54-.26.29a29.43,29.43,0,0,0,2,2.88,4.29,4.29,0,0,0,3.07,1.64,3.13,3.13,0,0,0,2.07.19,6.44,6.44,0,0,0,2.29-1.05c1.4-1,2.47-2.2,3.41-2.87l-.22,0c.26-.55.54-.46.86-.75-.15,0-.54.36-.38,0a144.06,144.06,0,0,0,8.51-12c.91-1.51-.31-1.32,1.15-3.05l0,.71c1.39-3.3,3.51-6.37,4.88-9.58,0,.22.05.27-.12.57a5.15,5.15,0,0,0,1.15-2.47c.28-.46.21,0,.46-.27.48-.57.63-1.75,1-2,.07,0,0,.21-.08.34.13-.47,1.12-1.92.65-1.66.76-1.05,1.14-2.2,1.81-3,.08-.74,1.28-1.79,1-2.2.33.31,1.53-1.68,1.84-2.44-.05.29.53-.48.49-.11.53-.74,1-1.42.71-1.44a7.46,7.46,0,0,0,1.65-1.68c.45-.53.93-.94,1.41-.8.86-.54,1.35-.58,2,.23a8.53,8.53,0,0,1,1.25,3.19c-.23,0-.36-.66-.52-1.25s-.39-1.11-.59-1a15.23,15.23,0,0,1,1,2.63,11.75,11.75,0,0,1,.44,2.94c0,.61-.22-.32-.32-.52.37,2.31.17,4.53.43,6.63,0,0-.09-.23-.13-.44,0,.41-.06,1,.15.92l-.06-.41c.29-.67.63,1.65.78,1.73-.58-.71-.15,2.09-.89,1,0,.28.14.62.27.56,0,.41-.12.54-.27.12.11,1.5.32,1,.32,2.32-.1,0-.14-.27-.26-.41a6.53,6.53,0,0,1,.32,2.52c-.06-.07-.14.07-.14-.28,0,2,.55,3.36.46,5.53-.46-.62-.11.75-.47.89l.19,1.16.14-.48c.07,1,.42,1.91.4,2.8l-.23-.75c.09.64.19,1.28.31,1.92v-1.11c.33,1,.45-.17.54,1.2-.08-.27.15,1,.06,1.57h0a6.5,6.5,0,0,1,.59,1.71c-.06.22-.44,0-.48.11a6,6,0,0,1,.7,1.37,3.21,3.21,0,0,0,1,1.34c-.18-.14-.36,0-.35,0a3.88,3.88,0,0,0,.45.24c.23.45.26.53.08.57.5.62.54.41.53.29s0-.19.64.46c-.12-.08-.09,0-.36-.16a4,4,0,0,0,2.49,1.08,8.6,8.6,0,0,0,2.51-.27c.29.12,0,.24-.4.35s-.71.15-.39.26a9.55,9.55,0,0,0,3.35-1.52c1-.66,1.91-1.37,2.81-2l-.35.22c-.08-.6,1.46-.79,2.13-1.72-.17.21-.07.46,0,.37a26.27,26.27,0,0,0,3.65-3.89l-.09.3c.7-.54,1.65-1.63,2.33-2.29.09-.3.47-.69.1-.57,2.55-1.67,3.32-4.48,5.44-6.09-.19.24-.37.65-.21.46l1.27-1.8c-.29,0-.28.14-.71.39a3.87,3.87,0,0,1,.7-1.29c-.49.88.29.22.66,0-.1,0-.07-.15-.15-.16,1-.66-.25-.44.93-1.51l0,.14a10.43,10.43,0,0,1,.92-1.52c.37,0-.28.57-.13.74.53-.72.65-1.71,1.34-2.2-.16.35-.48.79-.65,1.14a4.14,4.14,0,0,0,1.2-1.14l0,0,1-1.13-.3.26c.1-1.3,1.23-1.91,1.74-3.39-.5,1.43.06.34.24.61.3-.26.71-.68.68-.5.21-.72.84-.85,1.13-1.88.11,0,.45-.61.56-.34.47-.8-.27.08-.32-.05.54-1.36,2.24-2.51,3-4.46.83-1.57.75-2,1.53-3.46.43-.38,0,.57,0,.57a7.82,7.82,0,0,0,1.34-2c0,.19.13.08.37-.07.35-.57,0-.57.56-1.23a2.17,2.17,0,0,1,0,.78c.36-.71.64-1.47,1-2.2.26-.09-.06.55-.13.86a8.21,8.21,0,0,0,1.12-2.47l-.4.44c.17-.29.28,0,.19.22-.26.77-.71.9-.81.88l.27-.52c-.81.18-1.21,2-1.9,3l-.07-.64-.39,1.2c-.23.15-.52.17-.25-.35-.64.59-.29.7-.88,1.18-.08,0-.08,0,0-.07l-.35.76c0-.19-.32-.05,0-.44-1,1.09-1.08,2.15-1.65,2.43l0-.12c-1,1.78.15.34-.43,1.81l-1.21.43.14.34c-.13.17-.39.5-.44.36-.28.77.18,0,.08.46-.8.68-1.5,2.38-2,2.28,0,.43.71-.69.21.29-.6-.05-.65,1.08-1.38,1.7-.06-.39.57-1-.17-.41,0,.72-1.14,1.41-1.52,2.1.27.24-.89,1.46-1.57,2.59-.05-.13-1.65,1.86-2.49,2.76l0-.07c.15.41-.68,1.37-1.18,2.14-.16-.16-.12-.35.11-.8l-.53.68a2.22,2.22,0,0,1-.47.95l-.08-.34a20.54,20.54,0,0,1-2.27,3c.14.23,1.3-.46.43.86-.14,0-.36-.15-.14-.5a2.38,2.38,0,0,1-.44.61l.22-.63c-.51.45-.07.4-.44.8-.14-.14-.36.21-.43.05s.37-.3.44-.51a4.77,4.77,0,0,1-1.26,1c.12,0,.21.17-.06.52-.74.88-.44.15-1,.58-.08.3-.67.75-.46,1a.69.69,0,0,1-.51.25c-.3.53-1.85,2.06-1.17,1.78l.12-.09,0,.07h0c-1.13,1.63-2.94,2.78-4.3,4.14l-.06-.08c-.78.85-1.91,1.68-2.44,2.33-.28.2-.76.31-.71.13-.33.28-.51.44-.75.61a4.13,4.13,0,0,1-1.11.55c.67-.56-.33,0,.7-.54a11.51,11.51,0,0,0-2.25,1.12c.27-.37-.84,0-1.29.08a4.51,4.51,0,0,0,.74,0,3.84,3.84,0,0,1-1.49.21c.08-.1.16-.23.24-.34a11.07,11.07,0,0,1-1.26-.23,3.66,3.66,0,0,1-1.1-.41,2.47,2.47,0,0,1-1.31-2c-.47-.4.38,1.11-.09.79a7.09,7.09,0,0,1-.42-2.39c-.2-1.37-.83-1.14-1-2.65-.08.2-.38.45-.66-.67-.1-1.08.32-1.37.5-.72,0,.26,0,.38,0,.38.09.33.21.77.27.33l-.13-.11c0-.54-.14-2,.1-1.67-.19-.78-.23-.32-.23.28,0-1.37-.19-2.13-.15-3.55-.06.23-.18.45-.19.22.05-2.08-.27-.9-.37-2.31.16-.81.43.27.25-1.14.11-.88.31-.19.41.15A10.41,10.41,0,0,1,500,149l.1.68a7,7,0,0,1-.06-1.08l-.24.39c0-.4,0-.74.14-.74-.15-.41-.39.32-.61-.5.12-.54-.12-1.63.19-1.82-.11,1.69.32-.18.37,1.24a4.23,4.23,0,0,1,0-1c0-.06.07.06.09.17.28-1.62-.36-.75-.35-2.43.18.22.34-.38.3-.66,0,.68-.3.33-.43-.3a6.42,6.42,0,0,0-.1-1.73l-.06.64c-.18-.21-.16-.75-.22-1.5.13-.07.1.68.16.41-.33-.83.29-1.9,0-3.06.09-.55.33-.07.39-.55-.3-1.31.17-1.45-.14-2.83-.21.42-.13.48-.47-.47.14.75.26,1.51.36,2.27l-.45-1.44c.06.69.26,1.44.24,1.85-.24-.68-.17-.61-.35-.27.3-1-.33-1.84-.23-2.94l.59,0a6.41,6.41,0,0,0-.46-2.37,20.44,20.44,0,0,0-1.24-2.72,5.7,5.7,0,0,1,.31.73,2.63,2.63,0,0,1-.6-.77,2.77,2.77,0,0,0-1-.94c.18-.13-.29-.49-.7-.7,0,.08-.55-.06-1.12,0s-1.06.36-1.08.58a7.7,7.7,0,0,0-1.07.3,3.6,3.6,0,0,0-1.36,1.43,6.43,6.43,0,0,1-1,1.51c.16-.52-.45,0,.19-1-.38.43-.73.79-.63.89-.32.17-.75,1.37-1.2,1.67a1.5,1.5,0,0,1-.31.92c-.07,0-.08-.06-.08-.06s-.43.87.05.55c-1.48,1-2.5,4-3.68,5-.54,1.06-1.2,2.33-1.71,3.28,0-.09-.08-.05,0-.22-.88,1.21.05,1.07-.95,2.45-.69.6.29-.87-.08-.46-.68-.11-.9,1.83-1.78,2.65l.1-.26c-.61.65-.8,2-1.52,3.2,0,0,0-.09-.08-.06a19.46,19.46,0,0,1-1.53,3.91c0-.49.18-.6-.17-.5-.26.55.45,0-.07,1.15-.32.28-.85,1-1.15.95l.55-1c-.6.34-.71,1.31-1.07,1.8l-.09-.14c-.82,1.56-.49,1.77-1.46,3.39l.2-.11c-.19,1.09-.63.64-.91,1.68l-.5.06a34.4,34.4,0,0,1-1.51,3.3,24,24,0,0,1,1.07-2.87,11.52,11.52,0,0,0-1.21,2.36,3.12,3.12,0,0,1,.41-.79,8.31,8.31,0,0,1-1.39,3c-.48-.62-2.17,2.76-3.28,3.09a10.58,10.58,0,0,1-2.32,2.54,9.27,9.27,0,0,1-2.93,1.66c.92.37-.6.18-.38.72-.56.11-.77,0-.81,0a3.12,3.12,0,0,1-1.32-.92c-.18-.35.47.16.5,0-.42-.28-.45-.44-.45-.54s0-.16-.13-.48c-.06.26-.51,0-.82-.68a6.86,6.86,0,0,0,.35.93A2,2,0,0,1,457,170a3.78,3.78,0,0,0-.64-1.58l.4.46c-.52-.79-1.19-3.33-1.87-4.18,0-.19.14-.45.28,0-.49-2.31-1.54-5.16-1.49-7.08l.17.16c-.1-.44-.38-.74-.3-1.32.06,0,.17.16.15,0a6.09,6.09,0,0,1-.39-1.77l.23.49c-.07-2.38-.79-3.59-1.07-5.57.44,0,.42-1.91.42-2.85l.06,0c-.16-2.77-.71-4.68-1.07-7.24.36-1.63-.19-5.42-.13-8-.05.4-.35,0-.43-.49,0-.61-.45-1.64,0-1.58v.22c.36-.49.14-1.72.05-2.7l-.54-.1c.53-2.63-1.07-6.6-.65-8.08-.24-.59-.37-1.35-.63-1.93l.28,0a21.58,21.58,0,0,0-1.2-4.65l.33.36c-.4-1.21-1.29-1.21-1.81-2.22.07-.16.15-.34.21-.51a7.71,7.71,0,0,0-2.37-2.83,4.27,4.27,0,0,0-2-.62,4,4,0,0,0-1.93.48c0-.06,0-.22.45-.35a7.31,7.31,0,0,0-2.41,1.08c-.72.5-1.17,1-.83,1.09-.13-.13-.58.24-1,.78a15.86,15.86,0,0,0-1.24,1.73l-.09-.31a7.17,7.17,0,0,1-1,2.17c-.21.23-.34.08,0-.21-.75.76-.29.81-1.14,1.76l.13-.49a2.63,2.63,0,0,0-.67,1.47c-.28.62-1.17,1.67-1.46,1.68a2,2,0,0,1-.47,1.31c-.12,0-.06-.21,0-.32-1.09,1.45-1.07,2.46-1.91,3.4a.27.27,0,0,0-.25.1c.7-1.24,1.29-2.23,1.26-2.12-.22-.13-.85.85-.69-.13a14.63,14.63,0,0,1-1.35,3.42.42.42,0,0,1-.14.09l0-.12a2.4,2.4,0,0,0-.31.65,7.33,7.33,0,0,0-.5.78c-.25,0-.71,1.12-1,1.62.27.09-.11.73.42.22-.06.07,0-.11.18-.46a1,1,0,0,0,.09-.23v.05c.16-.34.39-.78.64-1.27a2.76,2.76,0,0,1-.63,1.43c0,.34,0,.71,0,.91-.71.52-1.57,1.78-1.89,1.86-.63,1.64-1.71,3.75-1.69,5-.15.48-.38.45-.54.58a4.58,4.58,0,0,0,.23-.75c-.31,1-1.19,2.69-1,3.05-.67,1.07,0-.78-.67.81v-.26c-1.93,2.85-1.38,5.4-3.55,8.54.14-.22.22-.34.29-.36-2,3.79-3.11,8.23-5.16,11.94a4,4,0,0,0-.48,2l-.38.13-.13,1.29c-.41,1.74-1.82,2.58-2.18,4.85l.3-.2c-.33.74-.81,2.42-1,2.21a.62.62,0,0,1-.11.58l-.15,0-.46,1.94c-.65,1.39-.5-.45-1.32,1.64-.24.79-.41,2.37-.2,2.12s.4-.77.55-.74l-.19.74c.39.3.63,1,1.59-.62l.2-1.31.36-.31-.38,1a2.07,2.07,0,0,0,.42-1.39.93.93,0,0,0,.42-.42l0-1.35c.23-.08.13.66.54-.1,0-.64-.59.38-.36-.59.42-.5.51-.27.61-1,.15-.06.16.11.11.4.1-.65.56-1.62.45-2,.47-.51.73-2.07,1.11-1.85a6.4,6.4,0,0,1,.3-1.75c.09,1.2.84-2.07,1.27-1.59-.15-.93.88-2.78,1.16-4.2a.63.63,0,0,1-.05.37,7.56,7.56,0,0,1,.84-1.34c-.33-.24.06-1.44.09-2.15.72-.77.2.73.66.58-.32-.08.35-1.71,0-1.5.5-.61.35-.55.8-.79-.4-.31.19-.68.15-1.37.64-.91.53-.08.86-1.24C418.87,148.4,418.62,149.45,418.62,149.45Zm11.23-26.09h0l-.26.53Zm1.16-2.08-.52.89c-.12,0-.17-.1,0-.31C430.44,122,430.76,121.55,431,121.28Zm-4.14,3.52c.14-.35.25-.44.33-.46-.08.16-.16.35-.28.61v0A.36.36,0,0,1,426.87,124.8Z" transform="translate(-0.01)"/><path class="cls-1" d="M426.88,125.58a1.31,1.31,0,0,1-.05.15l.16-.17v-.16A1.62,1.62,0,0,0,426.88,125.58Z" transform="translate(-0.01)"/><path class="cls-1" d="M517.89,159.64l0,0,.11,0Z" transform="translate(-0.01)"/><polygon class="cls-1" points="447.71 119.56 447.78 119.54 447.68 119.35 447.71 119.56"/><path class="cls-1" d="M527.14,150.18a.37.37,0,0,0,.16-.09S527.22,150.13,527.14,150.18Z" transform="translate(-0.01)"/><path class="cls-1" d="M530.64,145.67l.56-.59A6.79,6.79,0,0,0,530.64,145.67Z" transform="translate(-0.01)"/><path class="cls-1" d="M533.34,142.2a.27.27,0,0,0-.05-.14h0Z" transform="translate(-0.01)"/><path class="cls-1" d="M497.54,141.53a.91.91,0,0,0,0-.17C497.47,141,497.49,141.23,497.54,141.53Z" transform="translate(-0.01)"/><path class="cls-1" d="M499.15,162.29c-.1-.21-.19-.42-.27-.64C498.93,162,499,162.31,499.15,162.29Z" transform="translate(-0.01)"/><polygon class="cls-1" points="490.19 133.02 490.18 133.02 490.1 133.13 490.19 133.02"/><path class="cls-1" d="M498.73,160.68a3.09,3.09,0,0,0,.15,1A6.31,6.31,0,0,0,498.73,160.68Z" transform="translate(-0.01)"/><path class="cls-1" d="M544.18,126.56l.13-.17s0,0,0,0Z" transform="translate(-0.01)"/><path class="cls-1" d="M544.28,126.34l.11-.21A.6.6,0,0,0,544.28,126.34Z" transform="translate(-0.01)"/><path class="cls-1" d="M544.6,125.68l-.21.45A1,1,0,0,0,544.6,125.68Z" transform="translate(-0.01)"/><path class="cls-1" d="M540.86,131.33l0,.11A.13.13,0,0,0,540.86,131.33Z" transform="translate(-0.01)"/><path class="cls-1" d="M539.9,132.81a8.18,8.18,0,0,0,1.05-1.28l0-.09C540.88,131.76,540,132.39,539.9,132.81Z" transform="translate(-0.01)"/><path class="cls-1" d="M534.69,138.16l.91-1.16c-.24.15-.55.34-.19-.22C534.09,138.12,535.83,136.6,534.69,138.16Z" transform="translate(-0.01)"/><path class="cls-1" d="M531.91,141.8c.42-.67-.13-.08-.16-.15C531.54,142.11,531.49,142.22,531.91,141.8Z" transform="translate(-0.01)"/><path class="cls-1" d="M510.13,166.24l-.08-.25C509.58,166.34,510.1,166.08,510.13,166.24Z" transform="translate(-0.01)"/><path class="cls-1" d="M504.57,169.54a5.2,5.2,0,0,0,.68.17l.31-.25A5.37,5.37,0,0,1,504.57,169.54Z" transform="translate(-0.01)"/><path class="cls-1" d="M502.4,166.36a1.1,1.1,0,0,0,.16.15,6,6,0,0,1-.56-.64A5,5,0,0,0,502.4,166.36Z" transform="translate(-0.01)"/><path class="cls-1" d="M484.63,137H485C485.16,136.64,484.9,136.39,484.63,137Z" transform="translate(-0.01)"/><path class="cls-1" d="M473.2,158.16a1.94,1.94,0,0,0-.77,1.11A12.46,12.46,0,0,0,473.2,158.16Z" transform="translate(-0.01)"/><polygon class="cls-1" points="451.05 125.52 451.21 125.99 451.02 125.09 451.05 125.52"/><path class="cls-1" d="M756.76,147.81c.14.14.29,0,.08-.46l-.44-.2Z" transform="translate(-0.01)"/><path class="cls-1" d="M756.13,144.57c-.36-.46-.87-1-1-.5.5.4.43.57,1,1,.22.43.22.82.07.79.14.13.21.72.5.89a3.6,3.6,0,0,0-.79-2.12C755.91,144.43,756.06,144.56,756.13,144.57Z" transform="translate(-0.01)"/><path class="cls-1" d="M726.32,130.55l.18-.25A1.8,1.8,0,0,0,726.32,130.55Z" transform="translate(-0.01)"/><path class="cls-1" d="M712.79,156c.15-.13.19-.2.18-.23C712.84,155.94,712.73,156.05,712.79,156Z" transform="translate(-0.01)"/><path class="cls-1" d="M709.23,156l.17.15A.37.37,0,0,0,709.23,156Z" transform="translate(-0.01)"/><path class="cls-1" d="M726.32,130.55c-.16.22-.32.43-.46.65C725.93,131.3,726.11,130.88,726.32,130.55Z" transform="translate(-0.01)"/><path class="cls-1" d="M752.82,138.94a1.58,1.58,0,0,0,.25.34l-.2-.34Z" transform="translate(-0.01)"/><path class="cls-1" d="M734.71,120.48l.24-.1a1.46,1.46,0,0,0,.16-.19A2.27,2.27,0,0,0,734.71,120.48Z" transform="translate(-0.01)"/><path class="cls-1" d="M744.5,123c-.16-.16-.41,0-.55,0a.89.89,0,0,1,.5.2A.26.26,0,0,0,744.5,123Z" transform="translate(-0.01)"/><path class="cls-1" d="M752.89,136.45l.16.23Z" transform="translate(-0.01)"/><path class="cls-1" d="M729.15,125.36a.24.24,0,0,0-.14,0S729.09,125.39,729.15,125.36Z" transform="translate(-0.01)"/><path class="cls-1" d="M608.61,136.93s0,0,0,0S608.58,136.86,608.61,136.93Z" transform="translate(-0.01)"/><path class="cls-1" d="M606.45,125.55l.06.15h.16Z" transform="translate(-0.01)"/><path class="cls-1" d="M705.6,148.5v0C705.71,148.75,705.67,148.62,705.6,148.5Z" transform="translate(-0.01)"/><path class="cls-1" d="M672.31,147c-.19,1-.42-1.52-.61-.08C671.8,146.74,672.22,148.14,672.31,147Z" transform="translate(-0.01)"/><path class="cls-1" d="M752.74,138.69l-.17-.36A2.53,2.53,0,0,0,752.74,138.69Z" transform="translate(-0.01)"/><path class="cls-1" d="M671.7,146.87h0l0,.15Z" transform="translate(-0.01)"/><path class="cls-1" d="M699.42,128.24a.53.53,0,0,0,0,.26S699.43,128.42,699.42,128.24Z" transform="translate(-0.01)"/><path class="cls-1" d="M703.57,143.56l-.07-.38A2.9,2.9,0,0,0,703.57,143.56Z" transform="translate(-0.01)"/><path class="cls-1" d="M691.91,124.57a1.7,1.7,0,0,0-.53.39l.1,0A1,1,0,0,1,691.91,124.57Z" transform="translate(-0.01)"/><path class="cls-1" d="M686.88,131.81l.12-.12c0-.08.07-.17.11-.25Z" transform="translate(-0.01)"/><path class="cls-1" d="M618.78,160.83a1.33,1.33,0,0,1,0-.47C618.7,160.57,618,159.5,618.78,160.83Z" transform="translate(-0.01)"/><path class="cls-1" d="M753,138.87a.34.34,0,0,1-.22-.18l.13.25S753,138.93,753,138.87Z" transform="translate(-0.01)"/><path class="cls-1" d="M693,126.54a7.89,7.89,0,0,0-.83.74C692.39,127.07,692.69,126.76,693,126.54Z" transform="translate(-0.01)"/><path class="cls-1" d="M656.09,139.16l-.07.3A.62.62,0,0,0,656.09,139.16Z" transform="translate(-0.01)"/><path class="cls-1" d="M690.12,130.36a2.71,2.71,0,0,0-.52.55.5.5,0,0,0,0,.17Z" transform="translate(-0.01)"/><path class="cls-1" d="M618.81,160.36Z" transform="translate(-0.01)"/><path class="cls-1" d="M614.27,152.57c.52,1.2.58.41.88.58.74,1.37.05.76.1,1.32.49.84,1.12,1.37,1.41,2,0,.08,0,.21-.13.1.71.79,1.38,2.72,2.28,3.59a.35.35,0,0,1,0,.18.51.51,0,0,1,.36-.41c.28.51.72.83.62,1.14-.17-.32-.27-.3-.42-.4l.39.48c0,.64-.51-.67-.73-.55.67,1,1.63,2,2,2.85-.2.35-1.22-1.76-.85-.56l-.6-1.28c.08,1.2-.41-.76-.4.38.87,1.67,1.22,1.72,2.19,3.33.39.25.15-.27.54,0,1.83,1.94.56,2.23,2.2,3.47A2.73,2.73,0,0,1,626,170l-.61-.07a2.54,2.54,0,0,0,1.25.84,3.33,3.33,0,0,1,1.28.89c-.37-.08-1.28-.78-1.07-.57.87,1,.84.4,1.69.91v.4a8.65,8.65,0,0,0,6.64.74c-.1.13-.48.32.1.29a18.45,18.45,0,0,0,7.23-5.07c.14-.32.27-.65.39-1s.37-.27.27,0c.7-.76-.12-.15.08-.62s.58-.53.44-.18a60.15,60.15,0,0,1,3.41-6.1l-.09.36c.78-1.24.22-1.73,1-2.81l-.06.25c1.5-2.78,2.61-6.07,3.92-8.12-.21-.58,1.33-2.82.85-3.22a20.72,20.72,0,0,0,1.91-3.33c.27-.62,0-1.07.24-1.87l.3.09.09-1.17.55-.43.2-.76c-.13.28-.36.57-.43.5a6.36,6.36,0,0,1,1.39-2.68l.74-2.79c.1.1,0,.57-.09.95.24-1.54.4-.15.62-1.56-.13.15-.14-.16-.19-.21a14.28,14.28,0,0,0,1.32-3.21l.12.29c.8-2,1.51-4.21,2.45-6.36-.42.73-.68.41-.44-.24l.41-.12c0-.49-.41.61-.26-.33.4-.79.58-.38.47.12l.34-1c.12,0,.06.23.14.34,0-.49,1.08-1.49,1.07-2.18h.11a17.32,17.32,0,0,1,1.38-2.19,3.94,3.94,0,0,1,.6-.66A1.64,1.64,0,0,1,666,118a.09.09,0,0,1,.1,0c0-.14.06-.21.16-.23a.92.92,0,0,1,.42.08,5.18,5.18,0,0,1,.71,1.73c.18.69.33,1.46.52,2.27.37,1.12.3.28.56.77-.22.13.07,1.79-.25,1,.34,2,.43,2.56.87,5.11.08-.29.09-.61.2-.45.08.46,0,1.08-.15,1l0-.12c.63,2.88-.29,6.77.36,9.08l0-.13.4,2.41c0,1.11-.23-.66-.34.17.56,2.59.15,4.14.57,6.28-.66,1.73.47,5.93.38,8.3l.16-.16c.26.56,0,.73,0,1.18.12-.09,0-.68.2-.32a29.54,29.54,0,0,0,.76,2.89,7.26,7.26,0,0,0,.71,1.58,2.9,2.9,0,0,0,1.87,1.4,2.73,2.73,0,0,0,1.9-.51,5.65,5.65,0,0,0,1.21-1.14,16.6,16.6,0,0,0,1.47-2.17,44.14,44.14,0,0,0,2.21-4.4c.73-1.73-.46-1.32.77-3.36l.07.74c1-3.65,2.64-7.18,3.62-10.69,0,.22.08.27,0,.6a5.61,5.61,0,0,0,.85-2.73c.23-.51.21,0,.44-.34.41-.66.44-1.89.82-2.17.06-.05,0,.22,0,.36.08-.51.94-2.11.5-1.79.67-1.17,1-2.39,1.62-3.25,0-.77,1.24-1.88,1-2.28.16.16.54-.27.95-.79s.85-1.1,1.05-1.42c-.09.25.56-.27.47,0,.59-.46,1-.56.88-.78.29.07.47.19.7.23a1.92,1.92,0,0,0,.36.14c.12.08.25.15.38.22a1.72,1.72,0,0,1,.89,1.45A27.8,27.8,0,0,1,699.6,135c-.45,0-.87-2.76-1.3-2.49a31.85,31.85,0,0,1,2.2,6c.1.64-.29-.31-.42-.49.82,2.36,1.17,4.69,2,6.79-.05,0-.15-.21-.25-.43.13.43.21,1,.4.91l-.17-.4c.1-.76,1.06,1.52,1.24,1.55-.78-.55.49,2.17-.56,1.24.12.27.32.59.43.49.09.42.06.58-.22.2.6,1.49.61.89,1.09,2.25-.09,0-.23-.23-.39-.33a9.17,9.17,0,0,1,1.27,2.42c-.09-.05-.1.12-.25-.22a12.28,12.28,0,0,0,1.54,2.5,14.84,14.84,0,0,0,2.14,2.35c-.43-.05-.28.1,0,.33s.71.43.7.65a2.8,2.8,0,0,0,.77.19,2.39,2.39,0,0,0,.8,0,1.91,1.91,0,0,1-.6-.23,3.41,3.41,0,0,0,1.82-.24l.4-.16.34-.21c.22-.14.48-.24.69-.37a6,6,0,0,1-.71.59,6.78,6.78,0,0,0,1.76-1.38,7.93,7.93,0,0,1-1,.69c.4-.44.29-.51.25-.58s0-.11.53-.6c-.09.12.1-.08.39-.34a5.15,5.15,0,0,1,.87-.78h0a6.91,6.91,0,0,1,1-1.65c.21-.11.26.37.4.29,0-.61,1.23-2.24,1.22-3,0,.23.13.33.2.28l0-.51c.3-.4.37-.45.47-.31.71-1.32-.62.22.34-1.29a1.76,1.76,0,0,1-.07.37c.88-1.56,1.32-3.18,2.1-4.62.54-.29-.5,1.34,0,1,.91-2.18,1.55-4.64,2.56-6.68l-.21.37c-.36-.51.93-1.44,1.18-2.59-.08.27.11.46.09.36.73-1.37,1.2-2.93,2.14-5.09v.32c.52-.76,1.18-2.09,1.74-2.89,0-.32.34-.8,0-.61a21,21,0,0,0,2.62-3.46,11,11,0,0,1,1.27-1.6,4.68,4.68,0,0,1,1.64-1.08c-.25.18-.52.51-.32.37s.56-.45.85-.66l.92-.54c-.24-.14-.3,0-.8,0a2.49,2.49,0,0,1,.49-.44,3.12,3.12,0,0,1,.79-.35c-.93.46.13.34.54.35-.08-.06,0-.15,0-.22.6.13.62,0,.71-.14s.24-.35,1-.17l-.09.11a4.33,4.33,0,0,1,1.8.18c.17.34-.65-.08-.75.15.84.17,1.88.12,2.48.78a10,10,0,0,0-1.25-.47,7.61,7.61,0,0,0,1.3,1l0,0a10.77,10.77,0,0,1,1.13,1l-.24-.31c1.33.16,1.83,1.42,3.17,2.29-1.33-.85-.35,0-.65.09.19.35.5.87.32.79.66.41.61,1.05,1.5,1.67,0,.09.44.65.15.65.6.74,0-.28.15-.28,1.13,1,1.56,3.09,3,4.72,1,1.52,1.48,1.68,2.41,3.14.11.59-.53-.27-.53-.27a8.66,8.66,0,0,0,1.09,2.27c-.16-.13-.14.07-.13.36.32.62.52.28.78,1.18a2.26,2.26,0,0,1-.65-.48c.43.72.93,1.39,1.35,2.15-.06.27-.44-.38-.67-.61a9.87,9.87,0,0,0,1.5,2.41l-.15-.61c.15.32-.14.26-.29,0-.52-.68-.39-1.14-.31-1.22l.3.54c.28-.81-1.08-2.23-1.56-3.35l.59.29-.85-1c0-.29.11-.56.43,0-.19-.9-.47-.65-.6-1.44,0-.09,0-.06.08,0l-.5-.72c.16.11.2-.26.39.24-.49-1.51-1.43-2.1-1.43-2.76l.08.1c-1.16-1.83-.36,0-1.47-1.28l.1-1.32-.37,0c-.1-.19-.32-.58-.17-.58-.62-.59,0,.19-.46-.11-.33-1.07-1.73-2.4-1.5-2.87-.41-.17.47.94-.34.11.22-.58-.86-1-1.32-1.91.41.06.9.87.45,0-.72-.18-1.21-1.53-1.9-2.06-.27.24-1.45-1.16-2.77-1.78a3.94,3.94,0,0,0-1.27-.8,8.64,8.64,0,0,0-2.55-.7l0-.06c-.14.18-.57.23-1.07.36-.25.06-.54.08-.8.17l-.76.29c0-.22.11-.36.64-.63l-1,.31a4.08,4.08,0,0,1-1,.72l.09-.35a20.27,20.27,0,0,0-3.2,2.74c.13.23,1.37-.4.37.9-.15,0-.37-.16-.11-.52a3.4,3.4,0,0,1-.48.64,5.32,5.32,0,0,1,.26-.66c-.57.47-.1.41-.49.84-.14-.14-.38.24-.45.08s.39-.34.47-.56a7.2,7.2,0,0,1-1.3,1.15c.12,0,.21.16,0,.56-.71,1-.45.21-.93.76,0,.32-.6.91-.36,1.08-.19.31-.34.29-.48.37-.23.61-1.43,2.6-.81,2.13l.1-.13,0,.09h0c-.73,1.95-2.12,3.74-2.86,5.66l-.09,0a30.68,30.68,0,0,0-1.22,3.39c-.14.33-.5.7-.55.51a7.73,7.73,0,0,1-.94,2.19c.22-.92-.27.24.27-.93a7.65,7.65,0,0,0-1.09,2.56c-.06-.51-.66.7-.83,1.25l.51-.69a17.48,17.48,0,0,1-.73,1.62l-.18-.42c-1.38,2.06-1.26,4.32-2.75,5.62-.1.68.78-1.07.74-.44a13,13,0,0,1-1.76,2c-1,1.13-.34,1.46-1.44,2.57.22,0,.61,0-.15.94-.88.7-1.31.43-.87,0,.19-.16.3-.2.32-.16.23-.25.48-.63.11-.41v.18c-.23.12-.61.4-.91.56s-.53.2-.45,0c-.26.23-.32.22-.23.27s.29,0,.53-.14l-.39.16-.34.07a2,2,0,0,1-.62.08,1.83,1.83,0,0,1-1.26-.44c.11.17.21.34,0,.27-.71-.55-.86-.73-1-.76s-.29,0-.73-.55c-.32-.75.49,0-.39-1.1-.31-.83.17-.3.44-.08a7,7,0,0,1-1.19-2.9l.35.6a5.45,5.45,0,0,1-.46-1l-.08.46c-.11-.4-.24-.72-.14-.75-.29-.34-.26.45-.75-.28-.08-.55-.67-1.56-.43-1.84.45,1.69.24-.28.75,1.1a4.26,4.26,0,0,1-.32-1c0-.07.08,0,.13.14-.24-1.67-.57-.62-1.07-2.29.23.16.21-.49.1-.75.19.68-.19.41-.5-.18a7.87,7.87,0,0,0-.56-1.72l.11.66c-.23-.17-.36-.72-.61-1.46.12-.1.27.66.26.37-.53-.76-.19-2-.7-3.11,0-.58.31-.14.27-.64-.57-1.27-.14-1.5-.69-2.85-.13.47-.05.52-.54-.4l.77,2.25-.72-1.38c.18.69.53,1.42.6,1.84-.38-.65-.3-.59-.4-.21.1-1-.69-1.82-.76-3l.57-.13c-.21-1.72-1.09-2.84-1.7-5,.05.23.09.47.14.71-.32-.21-.49-1.29-.86-1.94.21,0,.1-.46.09-.8-.1.09-.72-1.55-1.2-1.53a7,7,0,0,0-.34-1,3.3,3.3,0,0,0-1.66-1.41c-.27-.13-.61-.17-.92-.28s-.37,0-.57-.08a2.93,2.93,0,0,0-.68,0c.3-.12.23-.2.25-.28s.13-.19.93-.08c-.77-.23-1.5-.17-1.48,0a2.22,2.22,0,0,0-1.17.44,10.15,10.15,0,0,1-1.08.74,2.33,2.33,0,0,1-.56.92c-.08,0-.07-.07-.07-.07s-.59.88-.05.58a6.88,6.88,0,0,0-2.13,2.62,14.09,14.09,0,0,1-1.67,2.72l-1.46,3.63c0-.09-.09,0,0-.23-.77,1.38.15,1.1-.7,2.68-.63.73.18-.94-.14-.46-.69,0-.7,2-1.47,3l.06-.29c-.53.78-.55,2.18-1.11,3.57,0,0,0-.09-.08,0a23.22,23.22,0,0,1-1,4.3c-.09-.51.1-.66-.24-.5-.19.62.46,0,.08,1.2-.28.34-.72,1.17-1,1.18l.41-1.13c-.55.45-.53,1.46-.82,2l-.12-.13c-.62,1.74-.25,1.91-1,3.73l.19-.14c-.07,1.15-.55.74-.74,1.84l-.5.12a11.91,11.91,0,0,1-1.5,3.38c.25-.69.84-2,1.09-2.9-.3.64-1.1,2-1.17,2.38a3.73,3.73,0,0,1,.43-.75,3.67,3.67,0,0,1-.53,1.28,2.26,2.26,0,0,1-.47.54,1,1,0,0,1-.72.23l-.13,0c.09-.19,0-.33-.16-.52a4.48,4.48,0,0,1-.43-.83,4.68,4.68,0,0,1-.44-2.62c-.74-2.33-.57-4.84-.84-7.72-.52,1.07-.08-.84-.67-.62a2.84,2.84,0,0,1-.06-1l.24-2.08c.15-.5.17.64.3.57,0-1.49.23-.64.33-1.63-.2.21-.34-.5-.3-1.36l-.22,1.21c-.43-2.06.42-1.82,0-3.9l.23.65c-.17-1.07-.2-4-.75-5,.06-.2.21-.46.28,0-.06-2.59-.87-5.71-.78-7.75l.17.18a3.69,3.69,0,0,1-.28-1.44c.07,0,.17.18.16,0a7.71,7.71,0,0,1-.41-1.91l.24.52c-.17-2.57-1-3.85-1.75-5.91.2-.07.18-.62,0-1.31a4,4,0,0,0-1.53-2.1l.09,0a2.86,2.86,0,0,0-1.91-.41c-.16,0-.32,0-.47.09l-.43.18a4,4,0,0,0-.65.4,6.13,6.13,0,0,0-1.49,1.74,25.69,25.69,0,0,0-1.7,3.59c-1.23,1.33-2.55,5.21-3.75,7.65.22-.36.29.19.16.65-.31.57-.34,1.76-.68,1.52l.09-.21c-.54.31-.9,1.57-1.26,2.53l.43.34c-1.64,2.24-2.14,6.65-3.29,7.77-.1.65-.39,1.39-.49,2l-.25-.13c-.7,1.64-1.05,2.45-1.79,4.51l0-.49c-.47,1.14.18,1.75-.23,2.82l-.53.15c-.82,2-2,3.84-2.58,5.92,0-.06-.12-.17,0-.49-.43.92-2,3.37-1.29,3.3-.34-.15-1,1.94-1.49,3l-.15-.3a5.31,5.31,0,0,1-.75,2.3c-.21.25-.34.12,0-.2-.71.81-.23.85-1.1,1.83l.13-.5a3.08,3.08,0,0,0-.72,1.48c-.33.62-1.39,1.56-1.69,1.49a1.8,1.8,0,0,1-.77,1.17c-.12,0,0-.21.07-.31-1.42,1.06-1.87,2-3.09,2.25a.28.28,0,0,0-.25-.08,11.89,11.89,0,0,0,2.06-1.17c-.17-.19-1.06.41-.58-.39a4.75,4.75,0,0,1-2.74,1.84.47.47,0,0,1-.15-.06l.1,0a3.42,3.42,0,0,0-.61.14,7.18,7.18,0,0,1-.82-.06c-.1-.19-1.12-.19-1.6-.41,0,.28-.69,0-.14.45-.08-.05.11,0,.45.09a.92.92,0,0,0,.23,0l0,0,.59.1c.21,0,.45,0,.71,0a3.45,3.45,0,0,1-.67.14,2.28,2.28,0,0,1-.78-.21,4.29,4.29,0,0,1-.87.21l-1.13-1c-.35-.37-.65-.66-.65-.83-1.5-.8-3.1-2.59-4.21-3.13-.37-.36-.25-.55-.31-.75a5.06,5.06,0,0,0,.6.54c-.77-.67-1.86-2.36-2.29-2.36-.59-1.17.68.41-.36-1l.22.14a17.88,17.88,0,0,0-2.51-3.91,11.84,11.84,0,0,1-2.28-4.4c.08.27.12.4.08.47-1.62-4.15-4-8.3-5.06-12.62a4.51,4.51,0,0,0-1-1.92l.2-.36-.77-1.12c-.86-1.67-.36-3.28-1.55-5.35l-.1.35c-.23-.81-.94-2.51-.68-2.45a.64.64,0,0,1-.28-.54l.14-.07-.89-1.9c-.36-1.57.68,0,0-2.2-.31-.81-1.16-2.24-1.16-1.9s.16.89,0,1l-.31-.74c-.49,0-1.12-.46-.86,1.52l.67,1.23-.09.49-.35-1.1a2.25,2.25,0,0,0,.55,1.43,1.09,1.09,0,0,0-.07.63l.83,1.15c-.12.21-.52-.47-.35.42.39.54.21-.7.65.26,0,.69-.22.56.19,1.24-.08.14-.21,0-.35-.27.35.61.62,1.71,1,2,0,.73.8,2.17.36,2.25a6.84,6.84,0,0,1,.94,1.62c-.88-.91.75,2.24.12,2.14.73.64,1.24,2.83,2,4.15a.62.62,0,0,1-.22-.33,9.6,9.6,0,0,1,.33,1.64c.41,0,1,1.16,1.46,1.73,0,1.11-.66-.41-.88,0,.28-.16,1,1.57,1.09,1.14.09.83.16.68,0,1.18.5-.06.35.66.9,1.15.24,1.16-.31.46.34,1.57C614.89,153.54,614.27,152.57,614.27,152.57Zm20.85,20.49h0c-.27.08-.51.12-.67.16C634.59,173.19,634.79,173.16,635.12,173.06Zm2.49-1.09c-.27.17-.65.35-1,.55-.13-.05-.07-.18.16-.3C636.64,172.34,637.24,172.12,637.61,172Zm-5.29-.67c.33,0,.43,0,.48.12a2.52,2.52,0,0,1-.59,0l-.05,0A.46.46,0,0,1,632.32,171.3Z" transform="translate(-0.01)"/><path class="cls-1" d="M631.64,171.55a.44.44,0,0,1-.15,0,.77.77,0,0,0,.19.11l.15-.06Z" transform="translate(-0.01)"/><path class="cls-1" d="M726.53,130.26l0,0,.09-.08Z" transform="translate(-0.01)"/><polygon class="cls-1" points="655.24 141.84 655.17 141.82 655.15 142.05 655.24 141.84"/><path class="cls-1" d="M736.39,121.26a.39.39,0,0,0,.18,0S736.48,121.28,736.39,121.26Z" transform="translate(-0.01)"/><path class="cls-1" d="M741.63,122.5c.21.17.41.36.6.54A4.3,4.3,0,0,0,741.63,122.5Z" transform="translate(-0.01)"/><path class="cls-1" d="M744.84,125.54a.34.34,0,0,0,.15,0h0Z" transform="translate(-0.01)"/><path class="cls-1" d="M701.83,144.35l-.06-.17C701.61,143.79,701.71,144.06,701.83,144.35Z" transform="translate(-0.01)"/><path class="cls-1" d="M715.31,154.9a5.75,5.75,0,0,1-.34.65C715.23,155.25,715.44,155,715.31,154.9Z" transform="translate(-0.01)"/><polygon class="cls-1" points="693.06 126.48 693.06 126.47 692.97 126.54 693.06 126.48"/><path class="cls-1" d="M714.25,156.33a2.74,2.74,0,0,0,.72-.78C714.76,155.81,714.45,156.06,714.25,156.33Z" transform="translate(-0.01)"/><path class="cls-1" d="M754.45,142.68l.07.21h.06Z" transform="translate(-0.01)"/><path class="cls-1" d="M754.58,142.89l.12.22A.47.47,0,0,0,754.58,142.89Z" transform="translate(-0.01)"/><path class="cls-1" d="M755,143.56l-.27-.45A1.1,1.1,0,0,0,755,143.56Z" transform="translate(-0.01)"/><path class="cls-1" d="M752.06,137.11l-.12,0A.16.16,0,0,0,752.06,137.11Z" transform="translate(-0.01)"/><path class="cls-1" d="M751.21,135.47a10.92,10.92,0,0,0,.63,1.6l.1,0C751.68,136.9,751.56,135.77,751.21,135.47Z" transform="translate(-0.01)"/><path class="cls-1" d="M748.41,128.16l.79,1.36c-.05-.29-.13-.67.28-.08C748.67,127.59,749.5,129.91,748.41,128.16Z" transform="translate(-0.01)"/><path class="cls-1" d="M745.51,124.21c.61.6.11-.11.18-.12C745.25,123.75,745.14,123.68,745.51,124.21Z" transform="translate(-0.01)"/><path class="cls-1" d="M721.64,140l-.2-.18C721.21,140.44,721.53,139.88,721.64,140Z" transform="translate(-0.01)"/><polygon class="cls-1" points="720.14 146.64 720.54 146.14 720.45 145.77 720.14 146.64"/><polygon class="cls-1" points="716.8 149.38 716.89 149.12 716.49 150.1 716.8 149.38"/><path class="cls-1" d="M687.34,130.32l.37,0C687.87,129.87,687.6,129.62,687.34,130.32Z" transform="translate(-0.01)"/><path class="cls-1" d="M678.28,154a2.18,2.18,0,0,0-.66,1.25A13.7,13.7,0,0,0,678.28,154Z" transform="translate(-0.01)"/><polygon class="cls-1" points="655.18 134.68 655.26 134.17 655.01 135.1 655.18 134.68"/></g></g></g></svg>