<svg xmlns="http://www.w3.org/2000/svg" viewBox="0 0 1878.91 276.2"><defs><style>.cls-1{fill:#4d4d4d;}.cls-2{fill:#646464;}</style></defs><g id="Layer_2" data-name="Layer 2"><g id="Layer_1-2" data-name="Layer 1"><g id="sketch-ground"><path class="cls-1" d="M808.64,3.75Q554.65,1,300.73,10.19c-42.31,1.59-84.6,3.3-126.89,5.39-21.14,1-42.27,2.16-63.41,3.24l-31.7,1.79-15.85.9a79.44,79.44,0,0,0-15.59,2,30.3,30.3,0,0,0-7.23,2.84,22.71,22.71,0,0,0-6,4.84c-3.41,3.91-5.4,8.87-6.88,13.88-.74,2.52-1.36,5.08-2,7.66L23.39,60.5,19.71,75.94C14.81,96.53,9.82,117.11,5,137.7,3.86,142.86,2.84,148,2.18,153.25A81.82,81.82,0,0,0,1.52,169a53.85,53.85,0,0,0,3.14,15.29,50.44,50.44,0,0,0,7.73,13.54,63.14,63.14,0,0,0,5.21,5.87c1.85,1.87,3.79,3.63,5.81,5.31s4.11,3.28,6.25,4.8c1.07.77,2.16,1.5,3.25,2.24s2.24,1.39,3.35,2.09l3.37,2.07c1.12.69,2.22,1.41,3.4,2l7,3.72c2.35,1.19,4.78,2.23,7.16,3.35,1.21.53,2.38,1.14,3.61,1.6l3.68,1.45c4.87,2,9.91,3.61,14.91,5.28l7.6,2.17c1.27.38,2.55.7,3.83,1l3.85.93a306.58,306.58,0,0,0,31.15,5.64c21,2.79,42.09,3.9,63.23,4.82l63.44,2.54c21.15.84,42.3,1.73,63.46,2.41l63.46,2.2,15.86.55,15.87.47,31.74.94,63.47,1.85,63.48,1.59c169.28,4.18,338.61,6.32,507.94,7.56s338.66,1.23,508,1l127-.18,63.5-.12,31.75-.06,15.88,0c5.29,0,10.54-.06,15.73-.53,2.59-.24,5.15-.62,7.69-1.11a50.27,50.27,0,0,0,7.38-2.12,36,36,0,0,0,6.72-3.5,30.68,30.68,0,0,0,5.57-5,32.63,32.63,0,0,0,4.06-6.35,41.11,41.11,0,0,0,2.6-7.19,74.31,74.31,0,0,0,2.12-15.38c.24-5.22.18-10.51.15-15.79s-.18-10.56-.35-15.83c-.38-10.55-1-21.1-1.93-31.62s-2.1-21-3.56-31.46-2.94-20.94-6.12-30.85a76.45,76.45,0,0,0-2.77-7.26,54.89,54.89,0,0,0-3.65-6.81,46.66,46.66,0,0,0-10.19-11.43,66.58,66.58,0,0,0-13.17-8.15,129.59,129.59,0,0,0-14.57-5.8c-20.07-6.44-40.5-12-61.11-16.58s-41.44-8.32-62.34-11.46c-41.82-6.24-84-10-126.19-13.12q-31.67-2.32-63.34-4.38c-21.12-1.44-42.25-2.74-63.37-4.08l-31.69-1.88q-15.84-.94-31.7-1.81l-31.7-1.74L1316.44,10c-42.28-2.06-84.58-3.88-126.88-5.24-21.16-.76-42.31-1.25-63.47-1.84l-31.74-.66-15.87-.31-15.87-.22C1020.28,1,978,1,935.62,1.21l-31.75.33c-10.58.1-21.16.38-31.74.56l-15.88.31c-5.29.1-10.58.29-15.86.43l-31.74.91v-.3l31.73-1c5.29-.16,10.58-.38,15.87-.5l15.87-.37c10.58-.23,21.17-.55,31.75-.7L935.61.37c42.33-.42,84.68-.56,127,0L1078.5.5l15.87.28,31.75.57c21.17.52,42.33,1,63.49,1.66,42.32,1.24,84.63,2.94,126.93,4.88,84.59,3.87,169.11,9.09,253.59,15,42.23,3,84.47,6.75,126.41,12.94,21,3.11,41.86,6.76,62.56,11.4s41.19,10.09,61.44,16.56a130.36,130.36,0,0,1,14.91,5.94,69.73,69.73,0,0,1,13.76,8.52,49.69,49.69,0,0,1,10.84,12.16,60.37,60.37,0,0,1,3.84,7.18,77.82,77.82,0,0,1,2.89,7.56c3.29,10.28,4.73,20.89,6.24,31.36s2.66,21,3.57,31.63,1.56,21.16,1.94,31.76c.17,5.3.31,10.61.35,15.91s.09,10.6-.15,16a77.44,77.44,0,0,1-2.22,16,44.17,44.17,0,0,1-2.79,7.71,35.91,35.91,0,0,1-4.47,7,34,34,0,0,1-6.17,5.58,39.87,39.87,0,0,1-7.33,3.81,55,55,0,0,1-7.86,2.27c-2.66.51-5.34.91-8,1.15-5.35.49-10.7.54-16,.54l-15.88,0-31.75.06-63.5.12-127,.17c-169.34.06-338.68-.15-508-1.55s-338.68-3.68-508-8L506.27,265l-63.48-1.9-31.74-1-15.86-.49-15.87-.56-63.47-2.25c-21.15-.7-42.3-1.61-63.45-2.47l-63.46-2.6c-21.14-.94-42.33-2.07-63.36-4.89a305,305,0,0,1-31.29-5.7l-3.87-.93c-1.3-.31-2.58-.62-3.85-1L78.91,239c-5-1.68-10.11-3.27-15-5.32l-3.71-1.47c-1.24-.46-2.42-1.09-3.63-1.62-2.41-1.14-4.85-2.18-7.22-3.39l-7-3.76c-1.19-.59-2.3-1.33-3.44-2l-3.39-2.1c-1.12-.7-2.26-1.38-3.38-2.11s-2.2-1.49-3.28-2.27c-2.17-1.54-4.29-3.16-6.33-4.88a79.26,79.26,0,0,1-5.91-5.4,64.49,64.49,0,0,1-5.31-6,51.81,51.81,0,0,1-7.92-13.93A54.79,54.79,0,0,1,.14,169.05a83.56,83.56,0,0,1,.68-16c.68-5.28,1.71-10.5,2.87-15.67,4.85-20.62,9.85-41.18,14.78-61.77l3.7-15.44L24,52.48c.62-2.57,1.25-5.15,2-7.71,1.5-5.08,3.55-10.21,7.14-14.33a23.86,23.86,0,0,1,6.3-5.1A31.59,31.59,0,0,1,47,22.4a80.24,80.24,0,0,1,15.83-2.07l15.85-.88,31.71-1.75c21.14-1.06,42.28-2.22,63.42-3.16,42.29-2,84.6-3.71,126.9-5.25q253.88-9,508-5.84Z"/><path class="cls-2" d="M1156.91,170.05c-8.52-.69-14-1.39-20.66-1.67l-27.37-2.18c-1.89-.16,1.13.09,2.1.12-.69,0-10.42-.76,18.58,1.56-2.44-.11,5.2.52,13.16,1.14C1148.82,169.5,1153.93,169.88,1156.91,170.05Z"/><path class="cls-2" d="M762,134l-33.22-3.55-24.65-2.73-32.55-3.51-35-3.8-9.76-1.09,17.48,1.94c-16.7-1.8-11.41-1.22-2.76-.22l22.79,2.62,26.29,3L712.37,129c-.19-.07,3.58.31,8.77.85l17.23,1.8C751.43,133,765.64,134.49,762,134Z"/><path class="cls-2" d="M636.49,120.49l-33.2-3.81-24.62-2.92c-10.49-1.15-22.28-2.52-32.52-3.74l-35-4.11,7.71.92c-16.67-2-11.39-1.32-2.75-.26l22.76,2.81,26.27,3.16,21.74,2.52c-.19-.06,3.59.35,8.77.94l17.2,2C625.94,119.44,640.15,121,636.49,120.49Z"/><path class="cls-2" d="M1123.32,167.45l-33.3-2.81-24.69-2.19-16.41-1.34-16.21-1.42-35.08-3c-12.51-1.1-16.16-1.43,7.74.68-16.73-1.42-11.43-1-2.76-.15l22.83,2.14,26.36,2.38,21.81,1.85c-.19-.06,3.59.24,8.79.66l17.26,1.42C1112.74,166.72,1127,167.85,1123.32,167.45Z"/><path class="cls-2" d="M832.78,141.37c3.77.4-2.52-.33-5.79-.66l-23.1-2.22.47,0,1.43.14,5.46.57,19.69,2.06C831.86,141.36,836.57,141.8,832.78,141.37Z"/><path class="cls-2" d="M850.86,142.72c22.38,1.93-12.83-1.45-8.53-1-13.36-1.39-22.77-2.33-26.13-2.62-3.9-.35,1.12.23,14.59,1.56-10-1-13.47-1.3-4.61-.32,4.27.45,11.06,1.22,20.41,2.14C856.58,143.54,872.8,144.85,850.86,142.72Z"/><path class="cls-2" d="M966.55,153.77c2.71.13-1-.2-14.46-1.48l-28.71-2.74c-4.63-.45,3.94.43,3.4.55-9.5-.87,8.17.85,22.13,2C959.3,153.26,950.23,152.23,966.55,153.77Z"/><path class="cls-2" d="M122.74,54.59l-20.54-3L77.09,48l18.47,2.67,13.1,1.91Z"/><path class="cls-2" d="M356.47,86.79c3.71.48-2.54-.37-5.81-.8l-23-3,27,3.6C355.53,86.72,360.22,87.29,356.47,86.79Z"/><path class="cls-2" d="M201.26,65.73l27.83,3.89,26.4,3.66,23.23,3.25,7.5,1.06c1.19.17,1.38.21,1.42.22l-5.6-.76-15.92-2.23c4.13.62.11.11-16.87-2.24L215.92,68,190,64.25l-21.91-3.13c-2-.29-.52-.09,1.45.18l4.44.6s4.35.59-3.93-.59L189.33,64C206.35,66.46,218.65,68.22,201.26,65.73Z"/><path class="cls-2" d="M274.64,75.76l28.15,3.82c4.68.65-1.39-.12,7.34,1.08l-24.56-3.33c-12.87-1.77-19.14-2.63-.18,0L255.3,73.15,228.93,69.5,261.72,74C273.7,75.6,279.83,76.48,274.64,75.76Z"/><path class="cls-2" d="M331.18,81.52c10.63,1.34,17.37,2.08,20.39,2.54,4.61.68,2.66.68,10.63,1.82-7.48-.89-13.13-1.69-18.57-2.37-9.19-1.15-13-1.56,0,0-13.51-1.63-18.35-2.22-21.18-2.61-3.57-.49-5.81-.78-19.77-2.55.13-.08,2.79.15,6.37.51s8.1.85,12,1.31C329.09,81.13,335.07,82,331.18,81.52Z"/><path class="cls-2" d="M1095.3,157.73c-9.15-.26-14.06-.19-17.32-.43-5-.35-5.41-.84-13.61-1.35,6.27.13,11.88.45,16.43.55,7.7.16,10.34.09-.1,0,10.84.13,14.73.18,17.44.32,3.44.18,5.4.25,17.36.59,1.71.47-4.79.8-10.85.75C1098.29,158.08,1091.89,157.62,1095.3,157.73Z"/><path class="cls-2" d="M555.82,116.44c10.64,1.3,17.39,1.92,20.42,2.4,4.61.7,2.64.82,10.62,2-7.5-.86-.83.15-6.27-.48-15.76-1.11-25.38-3.22-12.33-1.78-13.53-1.48-13.17-.26-16-.65-3.58-.51-11-2.61-25-4.33.26-.26,10.64.64,18.36,1.5C553.73,116,559.71,116.93,555.82,116.44Z"/><path class="cls-2" d="M1473.62,192.87c-10.67-1-17.43-1.53-20.47-1.87-4.62-.55-2.67-.66-10.68-1.56,7.51.65.82-.12,6.28.35,7.89.39,14.25,1,17,1.44s1.91.52-4.63,0c13.56,1.19,13.15.19,16,.5,3.58.42,11.09,2,25.1,3.43a62.32,62.32,0,0,1-6.38-.29c-3.59-.23-8.13-.57-12-.9C1475.72,193.23,1469.71,192.5,1473.62,192.87Z"/><path class="cls-1" d="M1309.42,181.47l33,2.48,34.07,2.63c17.56,1.36,6.3.3,26.11,1.91,24.32,2,26.82,2.31,49.2,4.26,10.43.91,13.87,1.29,19.37,1.8v0l18.95,1.74c9.14.85,11.87,1.18,26.94,2.69,8.57.87,12.07,1.13,21.47,2.13l20.51,2.29c11.35,1.25-11.5-1.26-27.54-2.88l-28.75-2.82c-9-.91-16.22-1.51-17.62-1.65-2.73-.24,3.41.33,12.44,1.18l29.74,3c11.2,1.12,3.61.43,15.66,1.71,17.93,1.93,18.15,1.87,36.06,3.87,17,2,19,2.11,35.91,4.13l23.4,2.91c6.67.83,12.71,1.57,19.64,2.56,5,.69.71.12-6.56-.87l-24.42-3-15.84-2-15.85-1.83L1580,206l-6.39-.74-8.93-.94-25.94-2.64-32.53-3.24c-12.94-1.28-12-1.17-24.12-2.3l-26.82-2.49-30.07-2.6-36.67-3c-7.66-.64-5.32-.51-9.45-.87-6.7-.6,5.68.34-6.18-.63l-18.14-1.42c-15.89-1.26-21.17-1.75-35.29-2.79-16.21-1.19,4.82.57-12.27-.69-15.92-1.16-16-1.33-32.37-2.59l-2.52-.19,21.14,1.52Z"/><path class="cls-1" d="M1272.29,178.87l-7.22-.54-1.59-.12Z"/><path class="cls-1" d="M1202.15,173.44c15.52,1.13,16.55,1.36,37.32,3l24,1.85-33-2.38c-15.18-1.17-4.88-.48-16.64-1.43C1205.73,173.8,1192.58,172.74,1202.15,173.44Z"/><path class="cls-1" d="M1747.18,228.55l-15-2.46,18.61,3,9.3,1.52,4.65.76,4.64.83C1764.92,231.4,1756,230,1747.18,228.55Z"/><path class="cls-1" d="M1734.42,226.46l7.35,1.21Z"/><path class="cls-1" d="M1800.57,237.82l-11.32-2-11.76-2.08L1765,231.51l-7.71-1.26-15.51-2.53,13.09,2.12c4.48.73,9.83,1.56,18.18,3.08Z"/><path class="cls-1" d="M874.77,144.87l-15.18-1.5L897.13,147Z"/><path class="cls-1" d="M861.9,143.61l7.41.72Z"/><path class="cls-1" d="M928.7,150.19c4.86.47,1.39.18-11.46-.94-2.61-.23,6.48.68-11.89-1.1-10.76-1-16.19-1.52-20.44-2l-15.63-1.59,31.57,3Z"/><path class="cls-1" d="M1676.51,217.83l9.34,1.29c4,.54,7,1,9.5,1.4-6.27-1-12.56-1.81-18.84-2.67Z"/><path class="cls-1" d="M350.32,85.91s.22,0,.63.06l1.8.22,6.47.8,19.9,2.5,21.82,2.67,36.51,4.61,31.48,3.88,24.79,3c15.58,1.9,21.51,2.63,19.27,2.45-1.74-.14-15.06-1.75-29.19-3.46l-23.11-2.79c-9.39-1.17,6.78.77-2.33-.37-19.81-2.48-27.61-3.44-40.21-5-5.19-.63-1.41-.14,4.34.6l16.13,2c1.93.26.86.15-2-.18-12.48-1.52-25-3.12-37.42-4.72l-19.85-2.61-20-2.57-6.55-.84L351,86l-.49-.08Z"/><path class="cls-2" d="M1119.83,98.48c-7.42.63-12.22.84-18,1.61-32.53,3-23.68,2.26-22,2-.59.13-9.06.91,16.19-1.43-2.11.28,4.55-.32,11.47-1Z"/><path class="cls-2" d="M776.08,134.52,747.17,138c-4.83.54-6.4.71-21.46,2.61l-28.29,3.72-30.42,4c-10.85,1.4-14,1.81,6.72-.88-14.51,1.93-9.91,1.33-2.38.39l19.84-2.45,22.87-2.91L733,140c-.18,0,3.1-.47,7.6-1.06l15-1.83C766.93,135.74,779.29,134.22,776.08,134.52Z"/><path class="cls-2" d="M667,148.37,646.53,151l-8.45,1.15-21.42,2.88-28.25,4L558,163.32l-8.47,1.21c.44-.08,4.82-.72,15.18-2.15-14.49,2.06-9.89,1.42-2.37.41l19.81-2.66L605,157l18.89-2.61c-.17,0,3.1-.49,7.6-1.13l15-2.1C657.81,149.67,670.15,148,667,148.37Z"/><path class="cls-2" d="M1090.59,101.23l-29,2.62-21.53,1.85-14.28,1.35c-4.84.45-9.65,1-14.12,1.42l-30.52,3.15,6.74-.68c-14.56,1.52-9.94,1-2.39.33l19.9-1.89c6.93-.66,14.77-1.51,22.95-2.22l19-1.71c-.17,0,3.12-.36,7.64-.79l15-1.4C1081.41,102.19,1093.8,101,1090.59,101.23Z"/><path class="cls-2" d="M837.7,127.29c3.29-.35-2.22.14-5.05.5l-20.07,2.54a3.91,3.91,0,0,1,.41-.06l1.24-.16,4.75-.55,17.14-2C836.91,127.45,841,127,837.7,127.29Z"/><path class="cls-2" d="M853.35,125.11c19.43-2.39-11.21,1-7.45.7-11.64,1.19-19.82,2.26-22.74,2.64-3.38.46,1,0,12.71-1.44-8.68,1-11.7,1.47-4,.62l17.79-1.9C858.38,124.82,872.44,123,853.35,125.11Z"/><path class="cls-2" d="M954.06,114.27c2.34-.35-.87,0-12.61,1.15l-10.73,1L916.44,118c-4,.43,3.44-.32,3-.09-4.13.46-2.35.28,2-.19l17.28-1.89C947.78,115.07,939.85,115.69,954.06,114.27Z"/><path class="cls-2" d="M220.86,217.69l-17.8,3.18-21.77,3.89,16-2.86c-2.07.38,4.48-.79,11.36-2Z"/><path class="cls-2" d="M423.7,183.78c3.22-.51-2.22.3-5.06.75l-20,3.23,23.41-3.66C422.89,184,427,183.28,423.7,183.78Z"/><path class="cls-2" d="M289,205.72l24.16-4,22.92-3.8,20.17-3.31,6.52-1.05,1.24-.18-18.68,3.07c3.59-.54.11.08-14.62,2.53l-28.94,4.79-22.52,3.73c-9,1.44-17.37,3-19,3.27s-.45.07,1.26-.25l3.84-.7s3.76-.71-3.42.56l-2.36.42c4.07-.71,11.7-2.12,19.09-3.32C293.37,205,304.06,203.22,289,205.72Z"/><path class="cls-2" d="M352.6,195c12.57-2.12,21.78-3.53,24.45-3.93,4.08-.62-1.19.24,6.41-.91-9.09,1.43-14.75,2.24-21.35,3.33-11.17,1.85-16.61,2.76-.16,0l-26.12,4.33-22.89,3.8,28.44-4.8C351.78,195.08,357.11,194.22,352.6,195Z"/><path class="cls-2" d="M401.22,185.38c9.21-1.52,15-2.59,17.67-2.95,4-.56,2.39,0,9.35-1L412.12,184c-8,1.33-11.27,1.95,0,0-11.7,2-15.89,2.73-18.35,3.1-3.11.47-5,.79-17.15,2.78a53.83,53.83,0,0,1,5.44-1.19c3.08-.61,7-1.33,10.31-1.91C399.37,185.56,404.59,184.83,401.22,185.38Z"/><path class="cls-2" d="M1065,96.18c-7.9,1.23-12.1,2.09-14.93,2.39-4.32.46-4.79.06-11.91.88,5.4-.89,10.27-1.49,14.19-2.13,6.63-1.09,8.89-1.59-.09,0,9.32-1.64,12.67-2.22,15-2.52,3-.38,4.68-.64,15-2.25,1.54.19-4,1.57-9.2,2.51C1067.61,96,1062,96.62,1065,96.18Z"/><path class="cls-2" d="M598.06,163c9.26-1.25,15.09-2.18,17.74-2.43,4.05-.39,2.42.19,9.41-.53-6.51.9-.67.33-5.39,1-13.52,2.58-22.1,2.77-10.78,1.13-11.74,1.7-11.14,2.84-13.6,3.12-3.13.35-9.88.08-22,1.71.16-.32,9.09-1.9,15.78-2.89C596.21,163,601.45,162.53,598.06,163Z"/><path class="cls-2" d="M1395.7,76.12c-9.32.56-15.21,1-17.88,1.11-4,.11-2.39-.28-9.41,0,6.56-.41.69-.24,5.45-.54,13.7-1.41,22.27-1.14,10.85-.38,11.84-.8,11.34-1.73,13.83-1.84,3.14-.14,9.84.49,22.09-.13a42,42,0,0,1-5.53.63c-3.13.27-7.08.56-10.45.77C1397.56,76.13,1392.29,76.33,1395.7,76.12Z"/><path class="cls-1" d="M1252.7,87.71l28.75-2.13c12.93-1,16.59-1.25,29.71-2.16,15.31-1,5.46-.55,22.75-1.64l43-2.62,16.93-1v0c5.52-.37,11-.67,16.57-1L1434,76l18.77-1c13.14-.69,8-.36,18-.86s-10.07.54-24.11,1.32L1406,77.68l36.89-1.92c9.8-.52,3.17-.07,13.72-.64l31.57-1.72c7.45-.43,11.6-.61,15.74-.8l15.73-.73,37.78-1.72c8.84-.39-15.14.74-27.18,1.3l-27.8,1.25c-6.43.28-9.92.48-13.4.67l-13.42.73L1453,75.45,1424.53,77l-21.1,1.12L1380,79.51l-26.26,1.67-32,2c-6.68.4-4.65.22-8.26.41-5.86.3,5-.41-5.41.2-6.68.42-6.79.49-15.82,1.14-13.86,1-18.48,1.23-30.78,2.16-14.12,1.08,4.23-.1-10.66,1-13.88,1-14,.88-28.25,1.89l-2.2.16,18.43-1.4Z"/><path class="cls-1" d="M1220.36,90.25l-6.3.46-1.39.1Z"/><path class="cls-1" d="M1159.22,95.08c13.52-1.16,14.44-1.11,32.54-2.55l20.92-1.66-28.76,2.46c-13.23,1.07-4.26.24-14.52,1C1162.36,94.9,1150.9,95.79,1159.22,95.08Z"/><path class="cls-1" d="M1636,66.92l-13.28.47,32.84-1.17Z"/><path class="cls-1" d="M1624.76,67.32l6.49-.23Z"/><path class="cls-1" d="M1683.23,65.23l-10,.37-10.41.39-17.88.66-13.68.49,27.62-1Z"/><path class="cls-1" d="M874.13,122.65l-13.22,1.43,32.67-3.63Z"/><path class="cls-1" d="M862.92,123.87l6.45-.71Z"/><path class="cls-1" d="M921.09,117.62c4.23-.45,1.22-.08-9.94,1.22-2.27.27,5.65-.56-10.35,1.16-9.35,1.09-14.07,1.61-17.78,2l-13.62,1.43,27.46-3.14Z"/><path class="cls-1" d="M1573.76,69.28l8.21-.36,8.37-.36-16.58.75Z"/><path class="cls-1" d="M418.34,184.54s.18,0,.54-.11l1.55-.26,5.61-.91,17.26-2.79c10-1.62,5.88-1.05,18.92-3.08l31.72-4.71,27.35-4.07,21.53-3.24c13.52-2,18.7-2.61,16.77-2.27l-25.34,3.75c-11.24,1.7-8.64,1.37-20.06,3.05-8.16,1.2,5.87-.94-2.05.22-17.22,2.53-24,3.52-34.92,5.23-9,1.4,13.15-1.94,17.81-2.56,1.68-.22.76-.06-1.69.31l-32.51,4.84-17.25,2.65-17.37,2.74-5.69.89-1.6.25Z"/></g></g></g></svg>