<svg xmlns="http://www.w3.org/2000/svg" viewBox="0 0 470.02 768.12"><defs><style>.cls-1{fill:#4d4d4d;}</style></defs><g id="Layer_2" data-name="Layer 2"><g id="sketch"><g id="cv"><path class="cls-1" d="M45.44,53.73c-.53,1-.07.55,1.71-2l1-2Z"/><path class="cls-1" d="M59.51,38.17c.65-.65,1.31-1.33,1.93-2l1.66-1.58c.87-.86,1.14-1.27.11-.64-.66.64-1.2,1.14-1.69,1.58s-.87.87-1.29,1.28c-.82.83-1.67,1.69-3,3.15-2.14,2.27-3.84,3.87-3.57,3.4-.17.22-.47.54-.84.93l-1.15,1.39a34.19,34.19,0,0,0-2.12,2.77c2.74-3,6.06-6.93,10-10.64C60.43,37.13,59.66,38,59.51,38.17Z"/><path class="cls-1" d="M351.45,32.82c-.6-.28-1.2-.51-1.8-.77Z"/><path class="cls-1" d="M458.69,169.21a18.93,18.93,0,0,0-.17-2.1A15.32,15.32,0,0,0,458.69,169.21Z"/><path class="cls-1" d="M460,201.38c0-.69-.05-1.27-.07-1.9C459.88,200.2,459.91,200.93,460,201.38Z"/><path class="cls-1" d="M351.45,32.82,356,34.88C356.4,34.92,353.69,33.8,351.45,32.82Z"/><path class="cls-1" d="M94.89,15.75c-1,.43-1.77.81-2.5,1.16l2.37-1.05Z"/><path class="cls-1" d="M271.89,9.69l-1.5-.29c-.45-.05-.87-.08-1.27-.1Z"/><path class="cls-1" d="M208.74,2.12a7.65,7.65,0,0,0,2.51-.27,28.33,28.33,0,0,1-3.15,0C208.07,1.94,208.26,2,208.74,2.12Z"/><path class="cls-1" d="M108.76,12l-1.69.6Z"/><path class="cls-1" d="M316.1,20.65a2.59,2.59,0,0,0,.53.26S316.43,20.78,316.1,20.65Z"/><path class="cls-1" d="M19.35,122.88c0,.05,0,0,0,0C19.45,122.51,19.45,122.4,19.35,122.88Z"/><path class="cls-1" d="M46.06,54.13l-.51.89c0,.12,0,.24,0,.27Z"/><path class="cls-1" d="M462.58,260.22V260C462.46,258.41,462.51,259.29,462.58,260.22Z"/><path class="cls-1" d="M346.7,748.21c3-.77.61,0-1.38.72s-3.62,1.22.84.07C345.31,749.14,354,746.16,346.7,748.21Z"/><path class="cls-1" d="M96.45,15.19l2.46-.93Z"/><path class="cls-1" d="M346.16,749h0l.92-.25Z"/><path class="cls-1" d="M467.32,395.8c0-.27.07-.82.1-1.38A7.71,7.71,0,0,0,467.32,395.8Z"/><path class="cls-1" d="M464.72,294.76l.07,2.5C464.77,296.27,464.74,295.47,464.72,294.76Z"/><path class="cls-1" d="M467.79,448.27c0,1.36-.09,1.82-.07,3.68,0-.17,0-.34,0-.56C467.73,450.72,467.72,449.82,467.79,448.27Z"/><path class="cls-1" d="M466.23,502.86c0-.29.07-.67.11-1,0-.54,0-1.17.06-1.73Z"/><path class="cls-1" d="M1.47,288c.12-1.2.23-1.94.34-2.52C1.58,286.31,1.81,278.28,1.47,288Z"/><path class="cls-1" d="M95,15.89a7.73,7.73,0,0,1,1.48-.7c-.58.23-1.16.43-1.69.67C94.62,16,94.61,16,95,15.89Z"/><path class="cls-1" d="M470,450.52l-.18,8.69C469.88,456.78,469.94,453.62,470,450.52Z"/><path class="cls-1" d="M18.4,679.45l-.31-2C18.19,678.24,18.3,678.94,18.4,679.45Z"/><path class="cls-1" d="M469.18,485c-.14,1.54-.27,3.19-.37,4.88,0,.36,0,.77,0,1Z"/><path class="cls-1" d="M1.81,285.46h0Z"/><path class="cls-1" d="M4.48,228.28c-.67,8.26,0,3.91.12,5.68-.58,9.86-.59,4.54-1,7.88-.35,6.17-.25,10.91-.56,15.5-.08.34-.16,1.23-.17.18,0,3.27-.28,8.1-.53,13.07s-.42,10.08-.39,13.88a6.94,6.94,0,0,1-.13,1c.23-1.23.43-1.41.55-1.15-.13,3.71,0,6.89-.31,8.27a29.86,29.86,0,0,0,0-3.53l0,3.89c-.48,3.48.07-5.31-.18-5.32-.2,7.58-.16,16.42-.42,22.22-.38,1.21.28-13.58-.25-5.84l.41-9c-.78,6.85.23-5.45-.57.83-.46,11.83-.24,13.24-.59,25,.12,2.66.29-.87.42,1.79.06,16.77-1.06,13.19-.74,25.52A84.35,84.35,0,0,1,.42,361.4l-.37-3c-.06,11.45.54,6.53.3,18.53-.16-2.13-.14-9-.18-7.27-.3,7.77.22,5.49.26,11.47L.1,382.37C.22,394.57.65,408,1,421.49c-.12-.75-.27-3.06-.31.1.53,17,.92,36.34,1.37,52.76l.55,6.26c0,1.46,0,2.71-.15,1.14.17,6.4.2.32.45,3.39.18,3.64,0,4.81-.15,2.51.73,11.28,2.08,32.11,2.48,44L5,529.35c.43,9.26,1.22,10.4,1.49,19l-.16-1.65c1.13,20.09,3.08,42.23,3.94,57.56.66,2.87,1.56,19.85,2.3,21.08.38,5.73.52,7.78.69,10.41s.42,5.85,1.2,13.9c.45,4.3,1.08,6.37,1.77,11.66l-.29.17,1.22,7.16.14,3.88.77,5a19.7,19.7,0,0,1-.32-3.94c.6,3.87,1.22,8.61,1.76,12.4.27,1.89.5,3.55.67,4.75a15,15,0,0,1,.22,2c.35,1.52.66,3,1.08,4.57l.29,1.14.38,1.13.76,2.25c.14.37.24.75.4,1.11l.48,1.08,1,2.17a20.73,20.73,0,0,0,1.09,2.09L27,710.29a19.12,19.12,0,0,1-1.21-1.92c-.28-.5-.63-1-.92-1.64L24.07,705c1,2.33,1.8,3.48,2.15,4.19a4.91,4.91,0,0,1,.48,1.08,3.94,3.94,0,0,0,.4.94c.37.58,1.06,1.59,2.4,3.48-.63-1.08.5.47.71.57.68.93,1.58,2.15,2.65,3.53l1.86,2.07c.65.72,1.31,1.5,2.08,2.2,1.5,1.43,3.05,3,4.73,4.28.83.67,1.62,1.37,2.45,2l2.42,1.77-1.32-.71c11.13,8.45,25.23,15,39.85,20-5.2-2-3.87-1.89.41-.39.53.31,1.08.59,1.62.88,2.84.72-4.47-1.58,1.33,0,5.47,1.83,3.58,1.56.39.63l3.36,1,3.38,1c.37.21-1.22-.21-1.67-.22,2.8.68,11.59,3.66,15.74,4.22l.36.19c7.53,1.77,13.06,2.82,18.24,3.73s10,1.65,16.26,2.49c.28-.24,5.15.5,8.9.68,9.16,1.15,19.37,2.27,30.49,2.83,7.82.25,2.29-.1,5.81-.12.56.28,11.67.63,5.91.63,6.67.16,10.94.2,15.65.18s9.86-.12,18.3-.45c-1.84-.06-3.9-.06-2.84-.17,3.07-.09,7-.12,6.54,0l-.81.05c9.47-.52,20.39-1,30.83-1.78a273.07,273.07,0,0,0,27.8-3.23l-.84.15,3.87-.63,3.86-.69,3.85-.69,3.84-.75c7.11-1.22-4.22.94,1.06.17,8.28-1.72,14.81-3.08,21-4.5s11.9-2.86,18.56-4.91a168.29,168.29,0,0,0,23.77-7.8A216.75,216.75,0,0,0,395,730.8l-.81.28c1.57-1.05,2.57-1.61,3.46-2.11s1.67-1,2.85-1.71c-.41.11-3.51,2.15-1.61.76,1.67-1.12,3.35-2.22,4.95-3.47l2.43-1.82,2.35-2c1.61-1.26,3.05-2.73,4.57-4.11.76-.7,1.43-1.49,2.15-2.23s1.44-1.48,2.08-2.29a119.62,119.62,0,0,0,13.95-20.52c8-14.6,13.69-30.41,18.1-46.14a61.94,61.94,0,0,0,2.09-9.54c.34-2.07.78-4.5,2.61-11.8-.17,1.42-.39,2.83-.6,4.24a613.57,613.57,0,0,0,10.76-72c-.07,1.41,0,1.46-.22,3.74.39-2.46.84-7,1.15-11,.16-2,.28-3.82.34-5.17a13.84,13.84,0,0,0,0-2.23c.32-3.65.25-.83.53-3.08.54-5,.63-12.51,1-15.14a18,18,0,0,1,0,2.32c0-1.63.29-5.41.47-8.4s.24-5.18,0-3.63c.64-8.82.73-16.89,1.16-23.93-.12-4.6.66-15.11.24-16.59.45.65.74-15.47.57-21.06.12,1.87.21-4.86.37-2.67.09-6.37,0-12.22-.22-11.1.61-11.75-.4-23.61.23-30.22-.39-18.94-.92-36.45-1.49-53.47.48.6.52,18.82,1,18.08-.55-16.15-1.21-25.46-1.64-41.47-.07-4.15.28,2.35.4,3.74-.72-16.12-1.1-31.18-2-45.52a8.87,8.87,0,0,1,.11,1c0,.57.09,1.33.15,2.06-.14-2.83-.22-6.58-.42-6.25l.18,2.75c-.09,4.53-1.12-11.2-1.3-11.7.81,4.77-.51-14.17.58-6.59-.12-1.85-.33-4.18-.45-3.75-.09-2.76-.05-3.64.24-.85-.6-10.12-.64-6.51-1.09-15.68.1,0,.23,1.87.4,2.82-.42-4.64-.85-9.3-1.16-17,.09.46.12-.44.23,1.87-.7-13.31-1.67-22.66-2.24-37.27.65,4.29-.12-5,.22-5.76l-.52-7.85,0,3.16c-.34-6.88-.92-12.94-1.09-18.86l.41,5.1-.71-12.88.22,7.3c-.53-7-.44.77-.78-8.39.13,1.86-.33-6.88-.26-10.48v0c-.28-3.4-.56-6.9-.68-12,.05-1.33.47,1.05.5.18s-.3-2.27-.47-4c-.1-.87-.14-1.83-.3-2.81s-.34-2-.52-3-.3-2.07-.59-3.06-.51-2-.74-2.85-.45-1.74-.7-2.47-.51-1.34-.72-1.84c.52,1.33.74,1.35.63.89l-1.14-2.61c-.23-.77-.42-1.38-.56-1.84s-.28-.78-.35-1c-.14-.43-.09-.44.08-.23-1.84-4.47-1.65-3.71-1.53-3.17.06.27.1.48-.14,0-.13-.25-.28-.71-.62-1.39l-1.42-2.93c.42.8.27.4,1.14,2l-1.9-3.83c-.65-1.26-1.41-2.44-2.11-3.65-1.35-2.44-3-4.63-4.53-6.89-.77-1.12-1.64-2.15-2.45-3.22s-1.6-2.16-2.5-3.15c-1.76-2-3.4-4.08-5.24-6-.94-1.24.7.38,2.21,2s2.91,3.36,1.87,1.9a138.81,138.81,0,0,0-16.73-16.21c-6.05-5-12.34-9.48-18.41-13.61l2.23,1.58c-1.92-.78-9-6.25-15.56-9.76,1.6.87,2.2,1,1.75.75-4.33-2.56-8.86-5-14-7.59-2.58-1.31-5.38-2.56-8.35-4s-6.2-2.78-9.72-4.23l1.79.61c-5.4-2.45-14.36-6.13-20.39-8.31-1.82-.55-5.26-1.8-3.23-.87-18.38-7.33-36-10.93-53-15.29,2.05.41,4.9,1,3.28.6-4.87-1-9.74-2-14.64-2.9,1.12.45,1.9.49,4.93,1.28-1.87-.24-6-.92-9.65-1.61,6.61,1.11,0-.41-2.83-1,.47.15-.52.06-.29.18-7.62-1.7-1.35.16-11.82-1.7l.58,0c-3.94-.57-7.61-.81-11.85-1.42-1.73-.49,4.21.43,4.51.24-1.49-.19-3-.35-4.46-.5l-4.39-.34c-1.45-.11-2.87-.23-4.28-.38s-2.78-.26-4.14-.46c2.56.13,6.22.53,8.77.74-5.87-1-6.57-.92-11-1.37l.43.05c-3.38-.38-6.78-.62-10.17-.91l2.59.26c-7.57.15-15.36-.76-25.53-.39,4.94-.21,5.35-.2,4.62-.28S194.65.44,195,.29c-2.6-.1-6.55-.21-5.42-.29-2.41.09-4.41.12-6.67.12-1.13,0-2.31,0-3.65.05s-2.8.17-4.49.33c-.31-.09-5.14.21-4.07-.08-6.24.49,1.49,0,1,.25-9.58.84-22.67,1.16-36.27,4.08-5.88,1.1-9.29,2.08-12.62,2.91S116.3,9.46,111,11.13c-3.64.89,2.84-1.19,2.84-1.19-2.92.77-5.48,1.45-7.94,2.31l-3.7,1.25c-1.24.45-2.49,1-3.82,1.49,1-.49-.08-.14-1.75.37A26.73,26.73,0,0,0,93,17c-.84.44-1.87.89-4.65,2.06a43.82,43.82,0,0,1,4-2.18l-3.68,1.67-3.59,1.85c-2.44,1.19-4.76,2.63-7.19,4-1.38.57,2.83-1.84,4.51-2.89L77.88,24.1c-.81.44-1.6.94-2.38,1.45L73.21,27c-.74.49-1.47.92-2.1,1.4l-1.75,1.3c-1,.79-1.82,1.41-2.17,1.74l3.34-2.24c-1.86,1.33-1.09.49.26-.52a48.7,48.7,0,0,1,5-3.19,8.69,8.69,0,0,1,1.93-.91c-1.15.65-2.24,1.42-3.36,2.12.95-.4,2.22-1.21,3.83-2l5.38-3c2-1,4.07-2.13,6.15-3.11s4.13-1.88,6-2.61c-1,.52-1.94,1.11-2.91,1.67,2.44-1.23,5-2.24,7.48-3.32,1.67-.51,2.86-.71-.8.73,2.7-.93,3.9-1.33,5-1.73s2.09-.76,4.46-1.42c.53-.11.29,0-.18.13l5.33-1.67c-1,.39,1,0-2.34.92C116.57,10,120.49,9,123.63,8.15a74,74,0,0,1,7.45-1.56l-.82.19c6.81-1.33,7.14-1.45,7-1.54s-.67-.18,4.47-1.12c2.35-.1,4.69-.22,7.05-.22l1.32-.47c1.42-.16,4.24-.48,3.73-.29,5.29-.73-.92-.06,2.14-.55,6.89-.52,19-1.5,20.56-1,2.47-.33-6.6.11.75-.37a35.42,35.42,0,0,0,5.84,0L187.45,1c1.52,0,3.1,0,4.68.07-1.94.26-7.91.09-1.6.36,3.8-.48,12.26.22,17.57.42.26-.36,11.56.35,20.44,1.15a23.43,23.43,0,0,0,2.5.31l6.65.8c5.27.66,11.62,1.55,15.7,2.27l-.25,0c1.65-.15,10.1,1.25,16.23,2.36-.28.18-1.39,0-4.74-.46,1.93.31,3.84.7,5.76,1.06,1.38.16,3.2.39,6.92,1.14l-1.49,0c7.62,1.57,15.42,3,25.08,5.68.61-.09-7.55-2.69,2.77-.16.34.23.66.57-2-.12.88.23,3.16.75,4.91,1.3l-4.15-.9c4.38,1.31,2.36.44,5.88,1.43-.12.17,2.57.86,2,.87-.9-.23-3.05-.92-4.42-1.22,4,1.09,8.7,2.66,10.23,3.27-.31-.21.08-.27,3,.59,7.42,2.37,2.46,1,6.76,2.52,1.84.45,6.48,2.23,6.71,2a20,20,0,0,1,3.3,1.39c1,.32,2.54.89,4.31,1.53l2.75,1,2.68,1c3.39,1.31,5.79,2.2,3.74,1.22l-.95-.4.61.23h0c12.41,4.62,25.12,11.18,36.59,17.5l-.06.08c6.87,3.74,15,8.88,19.63,12,1.94,1.28,4.32,3.36,3.46,2.85C411,66,412.42,66.85,414,68.12l2.68,2.16c.53.44,1.12.92,1.77,1.48l2.14,1.94c-2.32-1.92-1.95-1.55-1.78-1.38s.19.09-3-2.49c5.93,5,7.12,6.3,13.24,11.94-1.06-.94-.11.18,1.42,1.85.76.85,1.7,1.8,2.55,2.76L435.24,89c-1.15-1.4-2.22-2.86-3.46-4.19.36.38.72.74,1.06,1.11l1,1.12,1.87,2.18c1.25,1.41,2.34,2.88,3.45,4.35l-1.47-1.37c1.14,1.61,2.34,3.11,3.4,4.66l3.1,4.56c.94,1.53,1.85,3,2.75,4.51s1.62,3,2.41,4.46a60.85,60.85,0,0,1,6.1,17.71c1.23,4-1.92-8.34-.75-4.79.43,1.77.84,3.56,1.21,5.28s.44,3.44.64,5a18.71,18.71,0,0,1,.15,2.17c0,.68.06,1.31.08,1.88.05,1.14.1,2,.14,2.59.25,10.05.89,9.35,1.25,19.85.06-1.34.31-2.63.8,5.21.31,7.34-.06,9-.38,4.42a14.67,14.67,0,0,1-.05-2.54c-.16-2.37-.36-5.47-.35-2.56l.16.94c.06,3.65.57,13.73.26,11.37.39,5.53.31,2.36.17-1.75.3,9.41.74,14.69,1.12,24.37,0-1.54.05-3,.13-1.43.58,14.19.55,6.23,1.1,15.85.1,5.47-.54-1.94.11,7.73.19,5.92-.25,1.27-.46-1.08.68,8.81.69,16.49.9,21.53l-.33-4.64c.2,2.77.31,5.05.43,7.36l.1-2.66a49.44,49.44,0,0,1,.11,5c.29,2.8.29-2.17.78,3.4.06,3.64.67,11.06.41,12.33-.44-11.44-.25,1.28-.77-8.39.13,1.86.23,4.14.32,6.88,0,.41-.08-.39-.13-1.13.24,10.95.59,5,1.12,16.35-.24-1.43-.22,2.65-.1,4.49-.2-4.57.2-2.2.52,2,.2,7.28.45,7.9.6,11.71l-.12-4.35c.24,1.47.38,5.1.65,10.17-.12.44-.29-4.6-.28-2.79.55,5.62.2,12.74.71,20.58,0,3.64-.32.37-.28,3.56.55,8.79.1,9.54.59,18.78.15-2.67.09-3.14.52,3.37l-.67-15.2.68,9.75c-.16-4.59-.47-9.68-.54-12.43.37,4.64.29,4.16.41,2-.14,6.29.63,12.44.6,19.71l-.59-.2c0,10.92.85,19.38,1,33.56v-4.56c.28,1.9.21,8.75.37,13.34-.21-.42-.22,2.45-.33,4.41.14-.24.12,10.37.51,11.66l-.21,6.33c-.05,11.44.62,13.06.51,24.07-.2-3.32-.35,1.68-.49-5.69,0,3.67-.06,7,.07,7-.13,2.15.19,10.19-.05,13.57a50.34,50.34,0,0,1,.19,6.18c-.05.45-.1,0-.1,0s0,6.46.3,2.86c-.79,11.3-.78,31.63-1.81,41.45-.29,8-.81,17.65-1.27,24.92a3.84,3.84,0,0,1,0-1.41,71.66,71.66,0,0,0-.4,8.27,74.16,74.16,0,0,1-.56,9.31c-.8,5.79.32-6.06-.1-2.45-.77,1.53-1,13.75-2.28,21.35l.15-1.85c-.79,5.81-1.32,14.27-2.63,23.77,0,0,0-.47-.09-.07-.54,6.55-2.31,18.86-3.94,27.95.29-2.87.63-4.15.07-2.47-.74,4.07.63-1.12-.84,7-.64,2.62-2,8.42-2.43,9.13l1.58-7.62a67.68,67.68,0,0,0-1.57,6.87c-.5,2.48-1,5-1.5,7l0-.54c-.63,2.91-1.2,5.08-1.6,6.93s-.74,3.36-1.12,4.88-.75,3.07-1.24,5-1.21,4.25-2.14,7.32l.5-1.24a45,45,0,0,1-1.91,6.15c-.26.69-.52,1.37-.85,2.31s-.75,2.09-1.27,3.76L439.79,668c-.35,1.1-.94,2.58-1.58,4.33-.32.87-.67,1.81-1,2.79l-1.23,3-1.32,3.19-1.45,3.17c-.49,1.06-1,2.11-1.45,3.11s-1,2-1.49,2.88c.47-1.07,1.15-2.4,1.82-3.92l2.19-4.91c1.44-3.47,2.94-7.09,3.92-9.93-.43,1.06-1,2.51-1.63,4.08s-1.41,3.29-2.13,5l-3.38,7.4c.85-1.64,1.71-3.8,2.57-5.4-.54,1.29-1.13,2.69-1.78,4.18s-1.48,3-2.31,4.66a105.63,105.63,0,0,1-6.34,10.63c.07-.44-.7.59-2.1,2.35-.7.88-1.49,2-2.45,3.18l-3.15,3.78a65.72,65.72,0,0,1-13.73,11.78,115.93,115.93,0,0,1-21,12.22,241,241,0,0,1-24.51,9.64c6.51-1.54-5.2,1.74-3.92,2-4.17,1.35-5.79,1.79-6.17,1.88-4.29,1.12-8.59,2.19-12.91,3.14-3.09.61,4-1.16,3.58-1.2-9.3,2.33-4,.77-10.16,2.08,1.32-.09-3.16,1.1-8.53,2.13,2.52-.46,5.06-.86,7.57-1.38a106.26,106.26,0,0,1-12.24,2.52c-1.44.22-2.89.44-4.8.78s-4.29.74-7.6,1.41l4.17-.94c-1.7.33-4.12.8-6.91,1.24s-5.94,1-9.1,1.43c-6.3,1-12.6,1.8-16,2.41-1.23.07-2.85.09.17-.3-8.23.88-17.41,1.85-26.15,2.47s-17.05,1-23.49,1l1.25-.18c-3.09.13-5.38.39-9.25.27.2-.07,1.24-.16-.19-.16-1.64.09-8.22.27-12.32.12,1.17,0,2.34-.07,3.51-.13l-20.16-.42c-5.88-.15-11.44-.29-18.2-.82.06-.39-12.59-1.71-18.87-2.61l.23,0c-9.33-1.21-17.22-2.4-24.92-3.72s-15.19-2.87-23.62-5.06c-5.15-1.65-13.93-4.25-23.17-7.92l-3.5-1.4-3.48-1.52c-2.34-1-4.6-2.16-6.86-3.24-1.13-.54-2.2-1.17-3.28-1.74s-2.16-1.13-3.16-1.76c-2-1.24-4-2.38-5.76-3.64,2.16,1.52-.55.07-3.12-1.62-3.27-2.37-9-6.7-8.17-6.64.34.34.7.65,1.07,1-.54-.54-1.26-1.36-2.17-2.29l-1.49-1.48c-.53-.52-1-1.14-1.57-1.73l-1.68-1.85c-.56-.64-1.06-1.33-1.6-2s-1.09-1.34-1.57-2-.92-1.39-1.36-2.06l-1-.6a59.36,59.36,0,0,1-5.35-13c-1.22-4.92-2.12-10.23-2.95-15.27-1.63-10.12-2.81-19.34-3-24-.62-4.09-1.18-9.19-1.75-13.26l.31.19c-1.11-11.42-1.65-17.12-3-31.23l.47,2.86c-.7-8-1.72-10-2.34-17.35l.23-2.24c-1.14-13.92-1.81-28-3.11-41.77a10.73,10.73,0,0,1,.4,2.88c-.46-6.56-1.33-25.38-1.76-23,.19-.09,0-3.69-.34-8.2s-.73-9.94-1-13.7l.34,1.16c-.68-6.34-.81-6.54-1.33-15.41-.06-2.1.14-1.85.2.95-.18-7-.54-5.45-.75-14l.31,3.16c-.29-7.22-.36-6.64-.74-10.6-.29-4.54-.47-13.69-.24-14.77a79.74,79.74,0,0,1-.61-9.17c.08-.57.19,1,.25,1.75-.21-12.07-.88-17.93-.82-26.24a4.94,4.94,0,0,0,.13-1.41c.24,9.55.39,15.87.41,16.59.26,0,.07-7.75.61-1.6-.38-6.21-1.07-16.83-1.1-24.39,0-.36,0-.72.07-1l0,.79c0-1.75-.07-3.31-.14-4.78,0-2.41,0-3.94,0-6.25.2-.9,0-8.88,0-12.75-.28.33-.29-4.73-.47,0,0-.61,0,.73.08,3.3,0,.58,0,1.26,0,1.64,0-.07,0-.16,0-.26,0,2.54.11,5.84.17,9.6-.18-3.05-.38-6.23-.26-10.51-.19-2-.4-4.16-.52-5.39.31-5.29.48-15.48.71-16.9-.21-11.79-.11-27.78-.53-35.2a31.87,31.87,0,0,1,.29-5.11c0,1.94,0,4.24.07,5.29-.1-6.7.23-19.86-.1-21.47.36-8.45.23,4.76.44-6.86l.08,1.57c.55-11.41.64-20.69.79-30.29s.43-19.5,1.58-32.12c-.16,1.75-.23,2.62-.31,3,2-28.79,4.05-59.4,8.6-87.53.6-4,.92-6.22,1.15-8.06s.36-3.28.63-5.74l.58-1.68,1.1-8.38c.44-3,1-5.7,1.59-8.39s1.19-5.3,1.86-8,1.31-5.53,2.08-8.57,1.5-6.35,2.36-10L24,111.17c1.32-5.29,4.54-16.64,4.53-15.69a24.12,24.12,0,0,1,1.11-3.75l.2-.11,1-3.2c.33-1.06.71-2.11,1.06-3.17.74-2.1,1.39-4.23,2.21-6.3,2-4.78,2-4.34,2.21-4.46s.26-.26.75-1.31,1.44-2.9,3-6.32l2.12-4.32,1.12-2.32c.41-.73.8-1.45,1.16-2.11,1.44-2.65,2.4-4.49,1.81-3.62a45.85,45.85,0,0,1-3.27,5L45.55,55c0-.53.48-1.7.05-1.41a7.87,7.87,0,0,0-1.45,1.8c-.41.58-.9,1.32-1.51,2.25l-1,1.54-1.08,1.92-1.93,4c-.63,1.34-1.16,2.72-1.75,4.08l-1.4,2.5c1.05-2.26,2-4.54,3.15-6.77a50.62,50.62,0,0,0-2.38,4.88c-.62,1.44-1.16,2.76-1.65,4.19A33.09,33.09,0,0,0,33,77.34c-1,2.72-1.77,5.53-2.64,8.29-.54.93,1-3.78-1.1,1.67-1.07,3.93,1.59-3.58-.36,2.86-.76,2-1.08,2.66-1.39,3.45a29.54,29.54,0,0,0-1.21,4.07c-.31.64-.09-.39.42-2.29-.56,2.14-1.36,5-2.08,7.5s-1.23,4.89-1.42,6c-.34,1-.75,2.48-1.17,4s-.77,3.22-1.14,4.73c-.72,3-1.33,5.48-1.48,5.22-.17,1.39-1.34,7.67-2.07,11.65.44-3.69-.29,0-1.15,4.43-.44,2.19-.88,4.56-1.2,6.25s-.59,2.71-.65,2.2c-.56,5.47-3,19.57-4,29.23,0-.55.09-1.61.23-2.46-.73,5.41-1.07,7-1.6,10.44.29.74-.59,9.19-.84,13.77-1.06,6.61-.05-4.09-.61-2,.33-.3-.87,11.6-.38,9.36-.76,5.07-.54,4.38-1.11,7,.41.94-.35,4.75-.42,9-.83,7.36-.61,1.87-1.11,10C4.07,235.51,4.48,228.28,4.48,228.28ZM1.1,421.51h0c0-1.67-.08-3.08-.1-4C1,418.35,1.05,419.5,1.1,421.51Zm.4,16.24c-.05-2-.11-4.44-.17-7.05.08-.57.2,0,.23,1.68C1.48,431.49,1.52,435.32,1.5,437.75Zm1.22-34.38a24.67,24.67,0,0,1,0,3.78c0-1.21-.06-2.63-.11-4.49l0-.3A7.22,7.22,0,0,1,2.72,403.37Z"/><path class="cls-1" d="M2.29,398.76c0-.37,0-.58,0-1.06,0,.52,0,1,0,1.53,0,.31.06.63.09.91C2.31,399.67,2.3,399.19,2.29,398.76Z"/><path class="cls-1" d="M349.33,31.92l.32.13-.66-.3Z"/><polygon class="cls-1" points="15.89 661.51 15.96 661.48 15.73 660.08 15.89 661.51"/><path class="cls-1" d="M263.64,6.87c-.16,0-.49-.13-1.14-.27C262.54,6.63,263,6.74,263.64,6.87Z"/><path class="cls-1" d="M225.31,1.82c-1.81-.2-3.63-.39-5.45-.53C222.22,1.49,223.94,1.68,225.31,1.82Z"/><path class="cls-1" d="M195.61.17a2.32,2.32,0,0,0-.58.12h.06Z"/><path class="cls-1" d="M466.52,292.64c0,.39,0,.79.06,1.14C466.75,296.46,466.65,294.64,466.52,292.64Z"/><path class="cls-1" d="M459,152.31c.11,1.48.22,2.95.34,4.5A23.39,23.39,0,0,0,459,152.31Z"/><path class="cls-1" d="M470,449.57v0c0,.34,0,.64,0,1Z"/><path class="cls-1" d="M459.6,163.34c-.06-2.5-.17-4.59-.3-6.53C459.38,158.86,459.46,161.28,459.6,163.34Z"/><path class="cls-1" d="M71.24,28l-1.18.82s0,.06-.12.14Z"/><path class="cls-1" d="M69.94,28.92l-1.29.95C69.25,29.44,69.77,29.07,69.94,28.92Z"/><path class="cls-1" d="M66,31.88c.88-.7,1.8-1.34,2.7-2A29.62,29.62,0,0,0,66,31.88Z"/><path class="cls-1" d="M107.07,11.51l.39-.24A1,1,0,0,0,107.07,11.51Z"/><path class="cls-1" d="M118.59,8.21c-2.79.62-7,1.66-10.8,2.87l-.33.19a50.71,50.71,0,0,1,5.25-1.51L116,8.9C117,8.65,117.94,8.41,118.59,8.21Z"/><path class="cls-1" d="M168.06,2.06l-5,.3c-1.66.1-3.32.27-5,.41,1.75-.06,4-.13-.48.32,6.29-.44,5.64-.39,5-.46S161.52,2.48,168.06,2.06Z"/><path class="cls-1" d="M199,1.64c-5.37-.09.06.16-.23.21C202.22,1.84,203.05,1.84,199,1.64Z"/><path class="cls-1" d="M410.36,65.6l-.59-.12C413.1,67.92,409.86,65.43,410.36,65.6Z"/><path class="cls-1" d="M441.73,94.67l-2.34-3.32c-.46-.46-.9-.93-1.37-1.38Z"/><path class="cls-1" d="M452.24,117.62c-.21-.55-.48-1.09-.71-1.63.22.52.46,1,.67,1.56l.56,1.61,1.12,3.22Z"/><path class="cls-1" d="M466.41,493.15l.36-1.24C466.83,489.11,466.5,488.51,466.41,493.15Z"/><path class="cls-1" d="M444.66,653.7c-.62,1.66-2.19,5.94-2.92,8.66C442.89,658.9,444.2,655.5,444.66,653.7Z"/><path class="cls-1" d="M26.1,703.21c.46.95.88,1.93,1.38,2.87-.46-.89-.83-1.82-1.25-2.73L25.61,702c-.18-.46-.32-.94-.49-1.41l.43,1.34Z"/><path class="cls-1" d="M329.42,659.9c.21.19.3,0-.09-.65l-.55-.27Z"/><path class="cls-1" d="M327.49,655.38c-.56-.65-1.3-1.36-1.29-.73.7.57.69.81,1.48,1.41.39.6.54,1.14.38,1.1.2.18.5,1,.88,1.24a8.27,8.27,0,0,0-1.66-2.95C327.2,655.18,327.41,655.36,327.49,655.38Z"/><path class="cls-1" d="M293.74,593.14l.17.42A3.08,3.08,0,0,0,293.74,593.14Z"/><path class="cls-1" d="M273.94,554c.16.3.25.41.29.41C274.07,554.12,273.93,553.91,273.94,554Z"/><path class="cls-1" d="M270.91,547.12l.18.41A1.32,1.32,0,0,0,270.91,547.12Z"/><path class="cls-1" d="M293.74,593.14l-.46-1.09C293.15,592,293.49,592.62,293.74,593.14Z"/><path class="cls-1" d="M321.88,647.35a3.63,3.63,0,0,0,.39.5l-.33-.49Z"/><path class="cls-1" d="M303,610.1l.17.31a1.64,1.64,0,0,0,.26.2Z"/><path class="cls-1" d="M310.15,623.12c-.15-.3-.46-.27-.63-.32a1.56,1.56,0,0,1,.53.55C310.1,623.33,310.13,623.26,310.15,623.12Z"/><path class="cls-1" d="M321.21,643.89l.24.35Z"/><path class="cls-1" d="M298.09,600.7a.31.31,0,0,0,0-.17S298.08,600.61,298.09,600.7Z"/><path class="cls-1" d="M86.69,245.11s0,0,0,0S86.62,245,86.69,245.11Z"/><path class="cls-1" d="M76.05,231.54l.17.16a.26.26,0,0,0,.15-.07Z"/><path class="cls-1" d="M265.13,534.69l0,.06C265.34,535.06,265.24,534.88,265.13,534.69Z"/><path class="cls-1" d="M208.32,422.34c.45,1.37-1.38-1.9-.62.12C207.71,422.24,209,424,208.32,422.34Z"/><path class="cls-1" d="M321.71,647l-.31-.53A5.44,5.44,0,0,0,321.71,647Z"/><path class="cls-1" d="M207.7,422.46h0l.08.2Z"/><path class="cls-1" d="M251,506.45a1.51,1.51,0,0,0,0,.34S251,506.69,251,506.45Z"/><path class="cls-1" d="M261,527.72l-.22-.53C260.9,527.4,261,527.58,261,527.72Z"/><path class="cls-1" d="M245.2,495.67a4.26,4.26,0,0,0-.36-.78.35.35,0,0,0,0,.14A2,2,0,0,1,245.2,495.67Z"/><path class="cls-1" d="M239.54,484.28c0,.07,0,.15.05.23l.2.36Z"/><path class="cls-1" d="M111.67,274.51a2.34,2.34,0,0,1-.17-.62C111.47,274.17,110.25,272.75,111.67,274.51Z"/><path class="cls-1" d="M322,647.26a.57.57,0,0,1-.3-.26c.08.12.16.24.23.36S322,647.35,322,647.26Z"/><path class="cls-1" d="M243,496.19l-.86-1.83C242.35,494.88,242.66,495.55,243,496.19Z"/><path class="cls-1" d="M163.9,349.1l-.27-.38A2.08,2.08,0,0,0,163.9,349.1Z"/><path class="cls-1" d="M239.42,489a5.79,5.79,0,0,0-.34-1.1.73.73,0,0,0-.16-.18Z"/><path class="cls-1" d="M111.5,273.89Z"/><path class="cls-1" d="M102.6,264c1.23,1.48.86.46,1.29.64,1.55,1.69.47,1,.82,1.7,1,1,2,1.66,2.62,2.51,0,.1.11.28-.1.14,1.17,1,2.81,3.51,4.2,4.66a.52.52,0,0,1,.07.24c0-.34.09-.5.23-.53.54.67,1.18,1.1,1.19,1.51a1.59,1.59,0,0,0-.64-.54l.65.64c.23.85-.87-.89-1.07-.73a49.82,49.82,0,0,1,3.46,3.85c-.09.43-2.06-2.39-1.17-.8l-1.2-1.71c.57,1.58-.76-1-.3.48,1.63,2.21,2,2.3,3.68,4.51.52.37.09-.34.62,0,2.62,2.9,1.17,3,3.26,5a4.74,4.74,0,0,1,2.2,2.18l-.73-.32c1.58,2.14,1.36.88,2.84,3.25-.42-.3-1.36-1.59-1.16-1.24.85,1.62,1,.89,1.79,2l-.1.43c1.75,2.23,3.75,4.63,5.65,7.13-.18-.08-.58-.45-.24.2a101.45,101.45,0,0,1,6.93,10.12l1.07,1c.2.28.25.59,0,.32.76,1.29.2,0,.7.48.5.68.5,1,.12.62a56.73,56.73,0,0,1,6,8.31l-.37-.4c1.1,1.86,1.85,1.69,2.73,3.51l-.26-.29c2.48,4,5.61,8.09,7.13,11.35.73.34,2.34,4,3,3.94a51.15,51.15,0,0,0,2.56,5.08c.52.86,1.12,1.06,1.82,2.09l-.24.19,1.15,1.26.16,1,.68,1c-.23-.4-.4-.91-.29-.9a13.87,13.87,0,0,1,2,4l2.49,3.52c-.16,0-.58-.61-.94-1.05,1.47,1.79-.06.52,1.29,2.16-.09-.27.24,0,.32.05a34.5,34.5,0,0,0,2.59,4.51l-.36-.18c1.59,2.77,3.54,5.72,5.37,8.8-.57-1.15-.11-1.08.46-.2l-.06.53c.52.48-.46-1,.47.06.65,1.17.14,1-.35.36l.92,1.34c0,.13-.27-.17-.42-.19.5.47,1.12,2.59,1.9,3.25l0,.13c1.79,3.1,2.7,4.45,4.17,7,.27-.1.79.92,1.42,1.56,1,1.91,1.95,4.1,3.24,6.34,1,1.51.47.34,1,1-.15.24,1.13,2.48.31,1.41,1.55,2.68,2,3.42,4.08,6.75-.12-.42-.3-.87-.11-.69.38.6.68,1.47.53,1.44l-.12-.15c2.45,3.68,4.22,9.27,6.37,12.09l-.12-.16,2,3.08c.75,1.49-.64-.8-.2.37,2.23,3.26,2.87,5.49,4.64,8.21.53,2.55,4.17,7.83,5.31,11l.07-.25c.56.69.4,1,.66,1.57.08-.15-.3-.92,0-.48,3.62,6.44,6.77,13.67,10.07,20.48,1.21,2.5,1.53,1,2.73,4.3l-.74-.74c2.89,4.81,5.15,10.21,7.89,15a2.31,2.31,0,0,1-.54-.7,12.17,12.17,0,0,0,2.09,3.76c.36.77-.07.25.07.77.4,1.1,1.58,2.46,1.64,3.12,0,.11-.21-.25-.32-.44.44.63,1.54,3.17,1.46,2.4.8,1.9,1.86,3.47,2.44,5,.76.82,1.44,3.21,2,3.32-.47.07,1.28,3.39,2,4.46-.31-.33.38,1.08,0,.7.66,1.33,1.34,2.51,1.44,2.18.72,2.69,2.82,4.73,2.88,6.41,2.17,3.84,4.12,7.43,6,10.93-.46.07-2-3.91-2.32-3.54,1.83,3.28,3.13,5.06,4.69,8.45.37.89-.42-.41-.63-.67,1.83,3.29,3.18,6.53,4.88,9.42a2.43,2.43,0,0,1-.42-.58c.3.58.62,1.4.77,1.24l-.33-.55c-.2-1.07,1.71,2.07,1.91,2.1-1-.74,1.33,3-.12,1.77.22.37.55.81.63.66.25.6.27.81-.16.3,1.15,2.06,1,1.22,1.92,3.13-.1,0-.32-.33-.53-.48a15.68,15.68,0,0,1,2,3.43c-.1-.07-.08.15-.32-.33,1.41,2.76,2.82,4.5,4.17,7.63-.83-.7.39,1.1.14,1.43l.91,1.59-.16-.74c.71,1.44,1.59,2.58,2.1,3.87l-.67-1,1.41,2.65-.64-1.58c.9,1.36.35-.37,1.21,1.59a23.8,23.8,0,0,1,.89,2.28h0a11.43,11.43,0,0,1,1.39,2.43c0,.33-.48,0-.46.18.63.56,1.76,3.32,2.51,4-.22-.26-.4-.18-.39-.07l.52.47c.27.7.28.82.09.78,1,2,.1-.85,1.12,1.61a5.08,5.08,0,0,1-.33-.44c1.11,2.42,2.47,4.51,3.47,6.75,0,.81-1.05-1.87-1-1,1.66,3.11,3.72,6.3,5.21,9.37l-.25-.58c.68.18.93,2.38,1.95,3.8-.23-.36-.52-.36-.42-.29,1,2.12,2.31,4.19,4.09,7.26L292,592c.53,1.27,1.63,3.24,2.26,4.59.33.32.71,1.09.64.54,1.46,4.42,4.43,7.56,5.8,11.44-.23-.43-.65-1-.47-.62l1.75,3c.08-.35-.09-.46-.28-1.19a9.43,9.43,0,0,1,1.3,1.89c-.88-1.3-.32.19-.12.84,0-.13.19,0,.23-.05.49,1.79.55.05,1.48,2.36l-.17-.06a25.67,25.67,0,0,1,1.48,2.36c0,.49-.58-.81-.8-.76.68,1.22,1.75,2.2,2.13,3.43-.36-.48-.76-1.23-1.11-1.72a9.53,9.53,0,0,0,1,2.39l0-.09,1,2.14-.22-.57c1.46,1.21,1.84,3.07,3.38,4.92-1.49-1.8-.4-.21-.75-.22.22.57.58,1.42.38,1.23.75.86.73,1.73,1.8,2.94-.05.11.57,1.05.24,1,.76,1.24,0-.38.14-.34,1.36,1.81,2.24,4.79,4.22,7.37,1.53,2.33,2.07,2.61,3.48,4.77.29.84-.66-.44-.66-.44a18.71,18.71,0,0,0,1.86,3.29c-.21-.19-.13.09,0,.49.56.9.66.43,1.25,1.71a4.07,4.07,0,0,1-.88-.72c.71,1,1.49,2,2.22,3.09,0,.38-.62-.55-.94-.88a20.17,20.17,0,0,0,2.49,3.43l-.39-.86c.28.45-.06.36-.3,0-.81-1-.82-1.6-.78-1.71l.52.77c0-1.11-1.94-3.15-2.85-4.77l.75.46-1.26-1.48c-.1-.4,0-.76.47,0-.48-1.25-.71-1-1.07-2.05,0-.13,0-.09.08,0l-.75-1.07c.21.18.15-.33.49.39-.94-2.15-2.12-3.12-2.28-4l.12.16c-1.72-2.74-.42-.12-1.93-2.06l-.15-1.79-.42-.12c-.16-.3-.46-.89-.3-.84-.79-1,0,.25-.54-.28-.56-1.53-2.27-3.81-2-4.36-.48-.39.59,1.43-.38,0,.22-.69-1-1.7-1.54-3.1.46.27,1,1.55.5.15-.82-.56-1.29-2.55-2-3.59-.35.12-1.44-2.29-2.55-4.05.16.06-1.68-3.54-2.48-5.3l.08,0c-.5-.16-1.38-1.94-2.13-3.19.22-.05.42.14.87.78l-.64-1.2a5.18,5.18,0,0,1-1-1.33l.4.17a52.33,52.33,0,0,1-2.95-5.22c-.29,0,.23,2-1.07-.12.08-.15.25-.34.6.21a5.37,5.37,0,0,1-.6-1l.66.76c-.4-1-.43-.4-.8-1.17.18-.07-.17-.62,0-.58a6.79,6.79,0,0,0,.5.94,10.62,10.62,0,0,1-.9-2.35c-.06.12-.24.12-.59-.49-.86-1.6-.08-.66-.48-1.64-.33-.33-.74-1.42-1-1.31a1.48,1.48,0,0,1-.19-.84c-.55-.77-2.08-3.87-1.86-2.79l.09.23-.08-.13h0c-1.71-2.59-2.81-5.76-4.33-8.42l.09,0c-.93-1.57-1.92-3.58-2.71-4.64-.24-.48-.42-1.21-.21-1.06a16.56,16.56,0,0,1-1.65-3.16c.79,1.17-.09-.5.76,1.22a16.7,16.7,0,0,0-1.91-3.7c.52.47-.34-1.37-.79-2.1l.41,1.22c-.47-.85-.84-1.62-1.21-2.39l.51.26c-1.32-3.49-3.65-5.65-4.32-8.48-.65-.77.76,1.88.12,1.22-.72-1.55-1.09-3.35-1.33-3.83-.89-2.17-1.42-1.73-2.4-4,0,.33-.12.74-1-.85-.73-1.54-.5-2.1.07-1.18.19.37.25.56.21.56.28.47.65,1.1.46.44l-.2-.15c-.27-.81-1.34-2.9-.92-2.5-.68-1.1-.42-.4-.05.48-.82-2-1.53-3.06-2.43-5.13.1.35.12.71,0,.39-1.35-3-.85-1.21-1.9-3.19-.4-1.22.59.22-.55-1.73-.5-1.29.15-.41.48,0a27.6,27.6,0,0,1-2.06-4.57l.57.92c-.34-.55-.58-1-.82-1.51l.07.66c-.25-.59-.49-1.07-.39-1.1-.44-.52-.14.62-.9-.45-.28-.81-1.27-2.25-1.12-2.65,1.09,2.43.15-.41,1.2,1.59a10.84,10.84,0,0,1-.7-1.44c0-.1.09,0,.19.2-.88-2.41-.84-.89-2-3.26.31.22,0-.7-.19-1.07.47,1,0,.59-.6-.23a16.62,16.62,0,0,0-1.29-2.41l.39.94a9.47,9.47,0,0,1-1.24-2c.08-.15.56.92.43.51-.86-1-1-2.8-2-4.34-.27-.81.26-.22,0-.93-1.11-1.73-.76-2.09-1.89-3.94.06.66.16.73-.72-.53l1.72,3.11-1.32-1.89c.47,1,1.14,2,1.39,2.55-.66-.88-.56-.81-.51-.26-.32-1.48-1.47-2.51-2-4.14l.55-.21c-.89-2.4-2.27-3.92-3.6-6.94l.38,1c-.41-.29-.93-1.81-1.49-2.72.22,0,0-.63-.11-1.1-.1.12-1.06-2.17-1.54-2.26l-.42-1.44c-1.09-2.44-1.86-2.48-2.93-4.8.53.59.14-.51,1,1-.38-.77-.68-1.48-.81-1.43-.11-.5-1.29-2-1.47-2.79a3.11,3.11,0,0,1-.89-1.17c0-.11.09,0,.09,0s-.79-1.29-.61-.44c-.62-2.63-3.32-6.58-3.87-8.87-.89-1.64-1.94-3.63-2.71-5.14.1.07.09,0,.21.26-.88-2.17-1.15-1-2.16-3.5-.32-1.36.79,1.18.52.37.42-.62-1.52-2.83-2-4.6l.23.37c-.42-1.32-1.72-2.88-2.68-4.9,0,0,.1.07.1,0a50.84,50.84,0,0,1-3.44-5.63c.52.48.56.81.6.33-.47-.84-.24.44-1.17-1.25-.16-.62-.68-1.91-.52-2.2l.84,1.61c-.11-1-1.08-2.09-1.45-3l.19,0c-1.3-2.46-1.67-2.32-3-5l0,.33c-1.09-1.28-.43-1.32-1.43-2.64l.12-.62c-.58-.91-2.06-3.18-3-4.87.76.84,1.92,2.79,2.72,3.95a27.49,27.49,0,0,0-2.11-3.62,6.35,6.35,0,0,1,.7,1.21,23.42,23.42,0,0,1-2.77-4.39c.86,0-2.36-5-2.56-6.66-2-3.21-3.36-6.69-5.44-10.56.2,1.66-.61-1.13-1-.6a7.51,7.51,0,0,1-.7-1.33l-1.13-2.91c-.19-.73.57.8.65.65-1-2-.21-.95-.77-2.33,0,.37-.64-.54-1.17-1.71l.6,1.72c-1.76-2.61-.82-2.63-2.59-5.26l.64.79c-.86-1.38-2.83-5.27-4-6.42-.08-.29-.11-.7.27-.09-1.79-3.44-4.59-7.31-5.77-10.1l.27.19a7.91,7.91,0,0,1-1.17-1.83c.08,0,.28.19.12-.11a16,16,0,0,1-1.56-2.42l.55.63c-1.68-3.39-3.2-4.85-4.83-7.56.38-.21-.94-2.88-1.63-4.19h.08c-2.16-3.83-4.06-6.28-6.24-9.72-.83-2.44-4.2-7.46-6-11.09.25.57-.35.09-.76-.51-.41-.86-1.61-2.1-1.19-2.18l.17.29c0-.82-1.12-2.45-1.92-3.75l-.59.06c-1.45-3.81-5.75-8.77-6.31-11-.62-.76-1.27-1.76-1.9-2.49l.27-.11c-1.38-2.29-2.07-3.44-3.92-6.19l.54.46c-1-1.58-2-1.54-2.9-3l.07-.66a74.56,74.56,0,0,0-5.4-8.14c.08,0,.24,0,.54.45-.84-1.28-3.05-5.09-3.22-4.3.29-.24-1.82-2.83-3-4.16l.39.06a12.65,12.65,0,0,1-2.51-2.64c-.25-.43-.06-.48.25.09-.81-1.42-1-.89-2-2.6l.56.5a6.32,6.32,0,0,0-1.64-1.87,9,9,0,0,1-1.7-3,4.57,4.57,0,0,1-1.46-1.59c0-.17.26.09.39.23-1.49-2.4-2.72-3.2-3.63-4.93a.42.42,0,0,0-.06-.36c1.31,1.81,2.35,3.28,2.24,3.15.21-.15-.82-1.64.32-.68a32,32,0,0,1-3.75-4.32.71.71,0,0,1-.06-.24l.13.13a5.75,5.75,0,0,0-.69-.87c-.29-.48-.48-.79-.79-1.23a12.78,12.78,0,0,0-1.65-2.48c-.18.23-.84-.75-.37.28-.07-.13.12.12.48.59l.25.3,0,0,1.33,1.8a6.33,6.33,0,0,1-1.53-1.92c-.42-.26-.86-.57-1.1-.75-.39-1.24-1.68-3.24-1.68-3.65-1.79-2.1-4-5.1-5.47-6.16a2,2,0,0,1-.53-1.09,10.37,10.37,0,0,0,.84.91c-1.05-1.16-2.84-3.66-3.36-3.73-1.1-1.64,1,.66-.78-1.42l.32.21c-2.86-4.53-6.13-6.18-9.22-11.27a1.93,1.93,0,0,1,.34.62c-2-2.7-4.31-5.3-6.56-7.92s-4.48-5.25-6.5-7.89a10.05,10.05,0,0,0-2.37-2.24l0-.5-1.56-1.25c-2-1.91-2.6-4.17-5.38-6.42l.16.47c-.83-1-2.82-2.87-2.51-2.87a1.51,1.51,0,0,1-.69-.6l.09-.14-2.32-2.1c-1.56-1.85.71-.15-1.67-2.76-.93-.92-2.87-2.42-2.61-2s.84,1.06.76,1.2l-.88-.83c-.48.17-1.45-.18.31,2.2l1.6,1.3.28.64-1.18-1.25a5.05,5.05,0,0,0,1.63,1.61,2,2,0,0,0,.4.8l1.7,1.17c0,.3-.88-.42,0,.64.79.55-.31-.94.85.11.51.86.19.77,1.1,1.49,0,.2-.2.07-.55-.23a22.57,22.57,0,0,0,2.43,2.17c.51.91,2.38,2.5,2,2.73a14.62,14.62,0,0,1,2.08,1.81c-1.53-.93,2.3,2.67,1.58,2.7,1.19.64,3.19,3.3,4.87,4.82a1.44,1.44,0,0,1-.44-.37,21.34,21.34,0,0,1,1.41,2c.4-.14,1.73,1.32,2.6,2,.71,1.44-1-.43-.92.18.19-.26,2,1.87,1.84,1.29.58,1.06.57.86.71,1.54.51-.16.77.79,1.64,1.36.91,1.47-.07.63,1.25,2C103.81,265.18,102.6,264,102.6,264ZM130.78,299h0l-.56-.74ZM133,302l-.95-1.33c0-.16.17-.1.39.21C132.26,300.75,132.74,301.5,133,302Zm-3.12-7.61c.39.46.46.65.46.75l-.64-.82-.07,0A.49.49,0,0,1,129.88,294.39Z"/><path class="cls-1" d="M129,293.73c0-.06-.09-.09-.16-.18.06.11.11.21.16.32l.2.12Z"/><path class="cls-1" d="M294,593.63l0-.07a.64.64,0,0,1,0,.17A.19.19,0,0,1,294,593.63Z"/><polygon class="cls-1" points="161.58 345.59 161.63 345.55 161.41 345.3 161.58 345.59"/><path class="cls-1" d="M302.85,612.47a.76.76,0,0,0,.07.28A.85.85,0,0,0,302.85,612.47Z"/><path class="cls-1" d="M307.07,620.42l.53,1.16C307.38,621.07,307.21,620.71,307.07,620.42Z"/><path class="cls-1" d="M310.29,626.54a.25.25,0,0,0,.17.06h0Z"/><path class="cls-1" d="M259.57,529l-.13-.24C259.11,528.22,259.32,528.59,259.57,529Z"/><path class="cls-1" d="M274.75,558c-.2-.28-.4-.57-.59-.88C274.4,557.62,274.6,558,274.75,558Z"/><path class="cls-1" d="M243.08,496.39h0a1.86,1.86,0,0,0-.1-.2Z"/><path class="cls-1" d="M273.48,555.73a7.48,7.48,0,0,0,.68,1.36A12.32,12.32,0,0,0,273.48,555.73Z"/><path class="cls-1" d="M325,652.69l.16.29a.07.07,0,0,1,.06,0Z"/><path class="cls-1" d="M325.18,653l.22.31A1.24,1.24,0,0,0,325.18,653Z"/><path class="cls-1" d="M325.85,653.93l-.45-.63A2.13,2.13,0,0,0,325.85,653.93Z"/><path class="cls-1" d="M320.48,644.7l-.14,0C320.39,644.7,320.43,644.72,320.48,644.7Z"/><path class="cls-1" d="M319.08,642.29a23.57,23.57,0,0,0,1.15,2.34l.11,0C320,644.36,319.54,642.76,319.08,642.29Z"/><path class="cls-1" d="M314.47,631.57l1.06,2.07c-.1-.41-.24-.94.31,0C314.68,630.89,315.91,634.26,314.47,631.57Z"/><path class="cls-1" d="M311.12,625.17c.64,1.07.13-.09.21-.06C310.86,624.46,310.75,624.3,311.12,625.17Z"/><path class="cls-1" d="M286.65,579.06h.28C286.46,578.21,286.84,579.09,286.65,579.06Z"/><polygon class="cls-1" points="280.93 570.77 281.22 571.68 281.63 571.97 280.93 570.77"/><polygon class="cls-1" points="279.88 564.69 280.11 565.04 279.3 563.65 279.88 564.69"/><path class="cls-1" d="M240.77,486.19l-.15.41C241,487.15,241.34,487.12,240.77,486.19Z"/><path class="cls-1" d="M223.48,452.49a4.54,4.54,0,0,0-.88-1.94C223,451.31,223.25,452.13,223.48,452.49Z"/><polygon class="cls-1" points="169 352.8 169.49 353.4 168.66 352.22 169 352.8"/><path class="cls-1" d="M359.56,291.07c.06-.25-.18-.24-.51.35l0,.58Z"/><path class="cls-1" d="M356.6,294.55c-.3.75-.55,1.66,0,1.4.16-.83.37-.92.51-1.83.33-.59.72-.93.76-.77.06-.25.63-.84.65-1.26a6.94,6.94,0,0,0-1.74,2.62C356.56,294.88,356.62,294.63,356.6,294.55Z"/><path class="cls-1" d="M319.7,348.85l.28-.32A2.36,2.36,0,0,0,319.7,348.85Z"/><path class="cls-1" d="M296,381.9c.17-.26.22-.38.2-.41C296,381.73,295.92,381.94,296,381.9Z"/><path class="cls-1" d="M291.62,387.31l.26-.32A1,1,0,0,0,291.62,387.31Z"/><path class="cls-1" d="M319.7,348.85l-.7.83C319,349.81,319.38,349.27,319.7,348.85Z"/><path class="cls-1" d="M352.37,302.59a3.47,3.47,0,0,0,.24-.54l-.27.48Z"/><path class="cls-1" d="M329.69,334l.19-.27c0-.1,0-.21,0-.31Z"/><path class="cls-1" d="M337.34,322.53c-.18.25,0,.5,0,.66a1.36,1.36,0,0,1,.22-.67S337.47,322.49,337.34,322.53Z"/><path class="cls-1" d="M349.74,304.57l.18-.35Z"/><path class="cls-1" d="M324.07,342a.33.33,0,0,0-.16,0S324,342.09,324.07,342Z"/><path class="cls-1" d="M121.26,667.82h-.05C121.21,667.89,121.22,667.92,121.26,667.82Z"/><path class="cls-1" d="M113.93,682.06l.07-.21a.41.41,0,0,0-.13-.1Z"/><path class="cls-1" d="M283.84,397.37l0,0C284.05,397,284,397.2,283.84,397.37Z"/><path class="cls-1" d="M215.93,492.32c1-.95-1,1.95.41.47C216.14,492.88,217,491.05,215.93,492.32Z"/><path class="cls-1" d="M352.14,302.87l-.3.48A3.64,3.64,0,0,0,352.14,302.87Z"/><path class="cls-1" d="M216.34,492.79h0l.14-.15Z"/><path class="cls-1" d="M266.71,421.13A.87.87,0,0,0,267,421S266.89,421,266.71,421.13Z"/><path class="cls-1" d="M279.91,403.74l-.35.42A5.16,5.16,0,0,0,279.91,403.74Z"/><path class="cls-1" d="M260.35,430.51a4.08,4.08,0,0,0-.49.63.25.25,0,0,0,.1-.08A2,2,0,0,1,260.35,430.51Z"/><path class="cls-1" d="M253.42,440.06l.18-.14.2-.31Z"/><path class="cls-1" d="M135.45,635a1.7,1.7,0,0,1-.45.38C135.26,635.29,134.6,636.9,135.45,635Z"/><path class="cls-1" d="M352.23,302.51a.5.5,0,0,1-.09.36l.2-.34S352.3,302.46,352.23,302.51Z"/><path class="cls-1" d="M261.86,432.21l-1.13,1.49C261.05,433.29,261.47,432.75,261.86,432.21Z"/><path class="cls-1" d="M175,560.37l-.19.38A1.49,1.49,0,0,0,175,560.37Z"/><path class="cls-1" d="M257.49,438.22a6,6,0,0,0-.77.74.79.79,0,0,0-.07.22Z"/><path class="cls-1" d="M135,635.38h0Z"/><path class="cls-1" d="M130.47,646.85c.75-1.61,0-.9,0-1.33.79-2,.66-.79,1.13-1.37.47-1.25.58-2.31,1-3.21.09,0,.19-.2.16,0,.32-1.4,1.73-3.79,2.07-5.44a.59.59,0,0,1,.17-.15c-.27.16-.46.12-.56,0,.33-.73.41-1.45.75-1.62a1.48,1.48,0,0,0-.17.76l.26-.8c.63-.54-.37,1.09-.14,1.2a41.44,41.44,0,0,1,1.72-4.49c.42-.09-1.11,2.71-.14,1.32l-.93,1.71c1.11-1.12-.52,1,.57.06,1.14-2.27,1-2.66,2.17-4.93.07-.6-.33,0-.26-.55,1.19-3.44,2-2.21,2.74-4.78a4.21,4.21,0,0,1,.9-2.73l.06.74c1.15-2.18.14-1.5,1.54-3.69-.08.48-.77,1.79-.56,1.48,1-1.36.34-1.16.92-2.31l.43-.08c1.14-2.37,2.22-5.06,3.48-7.69,0,.19-.11.69.29.13,1.5-3.35,3.57-7,5.35-10,.11-.44.25-.88.38-1.32.16-.27.4-.45.29-.12.76-1.16-.13-.15.08-.79.37-.7.65-.83.49-.35a53.61,53.61,0,0,1,4.39-8.42l-.16.48c1.07-1.69.56-2.27,1.69-3.76l-.12.34c2.2-3.74,4.28-8.06,6.26-10.74-.09-.78,2.3-3.63,1.94-4.16a43.22,43.22,0,0,0,3.19-4.22c.5-.78.39-1.37.93-2.4l.28.14.52-1.51.74-.53.48-1c-.23.36-.58.72-.63.62A12.13,12.13,0,0,1,176.6,558l1.82-3.57a4.38,4.38,0,0,1-.45,1.23c.82-2,.48-.16,1.22-2-.19.19-.08-.21-.11-.28a28.71,28.71,0,0,0,2.56-4.1l0,.38c1.53-2.52,3.22-5.34,5-8.16-.72,1-.88.53-.39-.31l.48-.16c.17-.63-.65.8-.17-.42.7-1,.76-.51.47.15l.71-1.34c.13,0,0,.3,0,.45.16-.63,1.67-2,1.85-3l.13,0c1.77-2.81,2.48-4.14,3.91-6.43-.21-.2.41-1.06.65-1.86,1.14-1.63,2.49-3.39,3.77-5.41.82-1.48.07-.54.35-1.26.29,0,1.59-2,1.06-.84,1.55-2.42,2-3.08,3.83-6.23-.31.27-.59.62-.54.38.33-.57.92-1.19,1-1.05l-.07.16c1.94-3.61,5.84-7.42,7.19-10.43l-.08.17,1.64-3c.89-1.27-.36.88.41,0,1.67-3.26,3.31-4.69,4.76-7.32,2-1.48,4.64-6.8,6.82-9.09l-.25,0c.32-.76.64-.74,1-1.21-.16,0-.63.63-.42.16,1.87-2.87,3.9-5.76,6.06-8.59s4.36-5.65,6.46-8.47c1.53-2.06.1-1.72,2.33-4.11l-.27.94c2.7-4.44,6.14-8.64,8.86-12.93a1.89,1.89,0,0,1-.33.75,10.69,10.69,0,0,0,2.19-3.33c.48-.63.25-.05.62-.38.74-.79,1.33-2.37,1.86-2.69.09,0-.11.29-.21.46.32-.63,1.94-2.62,1.32-2.24,1.23-1.47,2-3,3.07-4.16.33-1,2-2.55,1.86-3.06.29.37,2.26-2.49,2.8-3.59-.13.41.73-.77.6-.27.8-1.12,1.48-2.18,1.15-2.13,1.93-1.72,2.65-4.37,4.05-5.11,2.22-3.44,4.32-6.59,6.4-9.62.29.38-2.36,3.31-1.89,3.46,1.91-2.92,2.79-4.77,4.91-7.5.58-.69-.14.53-.26.82,1.91-2.92,4-5.42,5.64-8.07a2.94,2.94,0,0,1-.29.61c.34-.51.89-1.11.68-1.18l-.31.52c-.81.61.93-2.33.87-2.51-.14,1.18,1.92-2.39,1.55-.62.2-.35.42-.81.26-.82.38-.46.56-.56.33,0,1.19-1.84.56-1.34,1.73-2.94.08.07-.13.41-.15.65a13.33,13.33,0,0,1,1.92-3.16c0,.12.17,0-.13.41,1.67-2.35,2.47-4.27,4.48-6.71-.2,1,.75-.78,1.15-.7L295,386l-.55.45c.88-1.2,1.43-2.43,2.27-3.39l-.52,1,1.57-2.31-1,1.2c.72-1.34-.48-.15.76-1.69a20.56,20.56,0,0,1,1.5-1.71h0a9.66,9.66,0,0,1,1.38-2.2c.27-.16.21.43.38.32.17-.77,2-2.87,2.22-3.81-.11.29,0,.42.13.36l.15-.64c.47-.52.56-.57.62-.39,1.24-1.66-.77.26.83-1.62a4.77,4.77,0,0,1-.21.46c1.52-1.94,2.65-4,4.07-5.74.7-.32-1.08,1.67-.38,1.23,1.85-2.7,3.6-5.76,5.47-8.31l-.37.46c-.18-.67,1.57-1.78,2.28-3.24-.19.35-.05.59,0,.47,1.31-1.72,2.43-3.7,4.18-6.49l-.12.41c.83-1,2-2.72,2.83-3.81.12-.42.59-1,.15-.77,3.06-3.06,4.35-6.86,7-9.64-.25.38-.5,1-.3.66l1.7-2.74c-.34.09-.35.28-.88.73a8,8,0,0,1,1-1.88c-.68,1.28.31.2.77-.25-.12.05-.06-.17-.15-.17,1.28-1.16-.23-.5,1.28-2.24l0,.17a19.67,19.67,0,0,1,1.28-2.24c.44-.17-.41.82-.26,1,.72-1.09,1-2.41,1.9-3.24-.25.5-.69,1.16-.94,1.66a8.77,8.77,0,0,0,1.57-1.82l-.06.08,1.35-1.75-.39.42c.33-1.74,1.75-2.82,2.6-4.89-.83,2,0,.43.17.73.38-.42.94-1.07.87-.82.38-1,1.13-1.33,1.65-2.74.12,0,.63-.91.7-.58.69-1.16-.32.17-.36,0,.91-1.89,3-3.87,4.25-6.63,1.24-2.27,1.22-2.85,2.37-4.95.57-.59-.06.75-.06.75a15.16,15.16,0,0,0,1.9-2.94c-.06.25.14.08.44-.18.51-.84.05-.75.88-1.76a3.83,3.83,0,0,1-.21,1c.56-1,1-2.09,1.6-3.14.31-.18-.18.74-.31,1.16a17.56,17.56,0,0,0,1.76-3.52l-.55.68c.25-.42.33-.09.18.24-.45,1.09-1,1.35-1.1,1.36l.41-.76c-1,.44-1.78,2.94-2.74,4.37l0-.83-.66,1.67c-.29.26-.63.35-.22-.4-.84.93-.47,1-1.23,1.77-.1.08-.08,0,0-.08l-.55,1.08c.06-.24-.35,0,.1-.58-1.37,1.69-1.63,3.1-2.33,3.62l.07-.17c-1.5,2.6.1.41-.81,2.5l-1.45.86.09.42c-.18.25-.53.75-.57.59-.45,1.09.22-.09,0,.58-1,1.11-2.16,3.49-2.75,3.51-.11.57.95-1.08.19.32-.69.09-.95,1.58-1.91,2.57,0-.49.85-1.48-.12-.49-.08.94-1.56,2.14-2.13,3.14.27.25-1.27,2.16-2.25,3.82,0-.17-2.19,2.9-3.3,4.31l0-.08c.11.49-1,2-1.68,3.15-.15-.17-.08-.42.24-1.08l-.7,1.05a5,5,0,0,1-.67,1.38l0-.42a39.07,39.07,0,0,1-3,4.67c.14.25,1.58-1,.4,1-.16,0-.4-.08-.11-.6a4,4,0,0,1-.58.93l.33-.88c-.65.75-.13.53-.6,1.17-.16-.13-.45.39-.52.21a4.36,4.36,0,0,0,.57-.81,9.48,9.48,0,0,1-1.57,1.73c.13,0,.21.15-.14.7-.95,1.39-.52.34-1.17,1.09-.12.41-.85,1.21-.63,1.4a1.34,1.34,0,0,1-.62.51c-.39.79-2.3,3.36-1.48,2.73l.14-.17a.75.75,0,0,1-.07.12h0c-1.4,2.51-3.54,4.77-5.06,7.17l-.08-.06c-.88,1.45-2.1,3.12-2.62,4.23-.29.41-.83.87-.8.62a13.65,13.65,0,0,1-1.9,2.71c.62-1.16-.39.28.67-1.15a13.9,13.9,0,0,0-2.23,3.15c.15-.64-1,.84-1.4,1.54l.83-.85c-.49.75-1,1.37-1.45,2l0-.55c-2.33,2.56-3.06,5.44-5.13,7.18-.34.87,1.22-1.43,1-.61-1,1.26-2.31,2.32-2.6,2.73-1.41,1.65-.79,1.92-2.21,3.69.26-.17.68-.2-.22,1.24-1,1.26-1.54,1.29-1,.42.21-.31.35-.44.37-.4.27-.44.62-1,.15-.58l0,.23c-.55.57-1.81,2.35-1.67,1.82-.61,1-.14.53.42-.16-1.31,1.55-1.86,2.57-3.18,4.19.25-.23.54-.39.34-.13-1.92,2.4-.61,1.23-1.79,2.94-.84.84-.1-.6-1.21,1.18-.85,1-.41,0-.19-.43a23.14,23.14,0,0,1-2.9,3.64l.52-.87c-.31.52-.6.92-.89,1.32l.52-.32c-.38.45-.67.85-.74.79-.24.58.59-.15,0,.95-.56.57-1.3,2-1.72,2.05,1.54-1.94-.41,0,.78-1.69a9.4,9.4,0,0,1-.88,1.2c-.08.05,0-.11.07-.25-1.62,1.75-.35,1.09-1.8,3.07,0-.36-.6.26-.81.6.59-.79.52-.2.1.61a13.38,13.38,0,0,0-1.42,2.09l.6-.72a7.5,7.5,0,0,1-1.12,1.91c-.17,0,.51-.86.23-.58-.47,1.16-1.88,2-2.71,3.52-.56.56-.32-.14-.79.37-.94,1.67-1.41,1.52-2.44,3.25.54-.33.55-.44-.09.83l1.8-2.75-1,1.91c.59-.8,1.12-1.78,1.5-2.24-.43.93-.42.81,0,.54-1.09.89-1.42,2.3-2.54,3.42l-.45-.39c-1.6,1.75-2.23,3.56-4.15,5.95l.66-.74c0,.47-1.09,1.55-1.6,2.4-.1-.19-.52.27-.87.54.15.05-1.34,1.8-1.18,2.26l-1,.95c-1.54,1.93-1.21,2.61-2.66,4.49.24-.71-.51.08.31-1.3-.47.64-.92,1.2-.82,1.29-.37.3-1.08,1.93-1.66,2.41a2.57,2.57,0,0,1-.56,1.25c-.09.05-.07-.06-.07-.06s-.71,1.2-.08.7c-1.93,1.62-4,5.56-5.65,7-1,1.44-2.14,3.16-3,4.44,0-.11-.08-.06.11-.29-1.42,1.65-.32,1.41-1.94,3.29-1,.83.63-1.16.07-.6-.72-.1-1.67,2.47-3,3.59L246,450c-.93.9-1.62,2.65-2.86,4.31,0,0,0-.11-.07-.06a43.85,43.85,0,0,1-3.11,5.27c.16-.65.42-.81,0-.66-.49.75.49,0-.49,1.53-.45.39-1.29,1.37-1.62,1.35l1-1.38c-.79.49-1.26,1.78-1.82,2.46l-.06-.18c-1.46,2.13-1.16,2.39-2.79,4.63l.26-.16c-.56,1.46-.92.9-1.56,2.3l-.59.15c-.5.87-1.72,3.07-2.7,4.57a43.48,43.48,0,0,1,2.06-3.95,21.93,21.93,0,0,0-2.07,3.3,5.37,5.37,0,0,1,.69-1.1,21.33,21.33,0,0,1-2.39,4.17c-.43-.73-3.09,4.12-4.39,5-1.76,3-4.05,5.64-6.33,9,1.31-.85-.66,1,0,1.13a6.46,6.46,0,0,1-.8,1.14L214.4,495c-.53.46.4-.82.24-.83-1.22,1.68-.71.57-1.62,1.61.34-.11-.16.77-.9,1.7l1.18-1.21c-1.38,2.56-1.86,1.76-3.21,4.38l.35-.87c-.73,1.31-3.07,4.61-3.47,6.11-.21.18-.54.38-.21-.2-2,2.95-4,6.94-5.79,9.1l0-.31a6.67,6.67,0,0,1-1,1.74c0-.07,0-.31-.16,0a13,13,0,0,1-1.33,2.31l.28-.72c-2.09,2.81-2.65,4.68-4.11,7.23-.37-.24-2,2-2.75,3.13l0-.07c-2.22,3.42-3.39,6-5.26,9.33-1.65,1.73-4.42,6.6-6.64,9.66.36-.46.25.26-.06.86-.53.71-1,2.26-1.26,1.93l.17-.27c-.68.37-1.52,2-2.25,3.2l.33.47c-2.55,2.8-4.72,8.5-6.34,9.89-.34.84-.91,1.79-1.25,2.62l-.22-.18c-1.33,2.1-2,3.14-3.5,5.81l.14-.63c-.91,1.47-.36,2.31-1.13,3.7l-.6.21c-1.45,2.65-3.25,5.14-4.35,7.94,0-.07-.09-.21.13-.64-.7,1.23-2.91,4.67-2.15,4.5-.35-.15-1.54,2.71-2.18,4.21l-.12-.35a11,11,0,0,1-1.12,3.19c-.26.38-.39.24,0-.26-.86,1.26-.34,1.16-1.35,2.7l.17-.68a5.44,5.44,0,0,0-.86,2.14,8.25,8.25,0,0,1-1.75,2.68,4,4,0,0,1-.64,1.91c-.14.06,0-.26,0-.43-1.35,2.25-1.46,3.61-2.52,5.09-.1,0-.19.07-.28.19.94-1.84,1.71-3.32,1.65-3.18-.22-.11-1,1.36-.73,0a27.52,27.52,0,0,1-2,4.93.59.59,0,0,1-.17.15l.05-.16a4.32,4.32,0,0,0-.43.94c-.27.45-.45.73-.68,1.17a10.77,10.77,0,0,0-1.36,2.4c.29.07-.25,1,.42.21-.08.11,0-.15.28-.65a3.54,3.54,0,0,0,.14-.33v.06c.25-.49.56-1.13.92-1.86a5.48,5.48,0,0,1-.93,2.07c0,.47-.07,1-.12,1.25-.86.84-2.05,2.71-2.4,2.88-1,2.34-2.62,5.4-2.87,7.06-.26.68-.51.68-.71.89a8.4,8.4,0,0,0,.41-1.07c-.57,1.33-1.76,3.91-1.6,4.37-.91,1.59.13-1.08-.87,1.23l0-.35c-2.59,4.24-2.49,7.69-5.45,12.35.2-.33.3-.49.39-.54-1.46,2.77-2.72,5.72-4,8.66-.63,1.47-1.32,2.91-1.93,4.38s-1.26,2.88-2,4.25a8.52,8.52,0,0,0-.85,2.91l-.43.23-.37,1.83c-.74,2.49-2.38,3.86-3.17,7.08l.34-.31c-.48,1.07-1.3,3.49-1.44,3.22a1.27,1.27,0,0,1-.22.83l-.16,0-.85,2.78c-1,2-.45-.56-1.71,2.46-.41,1.15-.89,3.37-.62,3s.57-1.13.73-1.1l-.34,1.05c.36.36.48,1.32,1.81-1.09l.46-1.86.44-.48-.59,1.48a4.23,4.23,0,0,0,.7-2,1.7,1.7,0,0,0,.54-.65l.29-1.88c.25-.15,0,.9.59-.22.13-.88-.7.63-.28-.76.54-.76.6-.45.84-1.51.17-.09.15.15,0,.56a20.15,20.15,0,0,0,.85-2.9c.6-.77,1.15-3,1.52-2.73a13.6,13.6,0,0,1,.63-2.5c-.12,1.68,1.26-3,1.63-2.4,0-1.27,1.41-4,2-6a1.38,1.38,0,0,1-.12.52,16.41,16.41,0,0,1,1.11-2c-.29-.29.28-2,.5-3,1-1.16.06,1,.58.72-.32-.07.75-2.41.3-2.07.68-.9.5-.81,1-1.2-.37-.37.35-1,.45-1.92.89-1.35.59-.18,1.19-1.83C131,645.37,130.47,646.85,130.47,646.85ZM147.69,609h0c-.16.32-.29.6-.38.77Zm1.58-3.13-.7,1.35c-.14.07-.17-.1,0-.41C148.54,607,149,606.25,149.27,605.82Zm-5.09,5.73c.22-.51.35-.65.44-.7l-.41.89v.07A.66.66,0,0,1,144.18,611.55Z"/><path class="cls-1" d="M144.06,612.61c0,.07,0,.12-.08.21l.2-.27a1.48,1.48,0,0,0,0-.21Z"/><path class="cls-1" d="M320,348.47l0,.06a.4.4,0,0,1,.12-.11S320.05,348.45,320,348.47Z"/><polygon class="cls-1" points="173.11 563.79 173.05 563.76 172.95 564.05 173.11 563.79"/><path class="cls-1" d="M331.79,333.14a.71.71,0,0,0,.2-.17A1.22,1.22,0,0,0,331.79,333.14Z"/><path class="cls-1" d="M336.51,326.26l.74-.92C336.92,325.73,336.69,326,336.51,326.26Z"/><path class="cls-1" d="M340.21,321a.34.34,0,0,0,0-.17h0Z"/><path class="cls-1" d="M281.69,404.5l-.14.2C281.25,405.21,281.47,404.87,281.69,404.5Z"/><path class="cls-1" d="M299,379.57c-.15.29-.29.57-.46.86C298.85,380,299.1,379.67,299,379.57Z"/><path class="cls-1" d="M262,432h0l-.12.17Z"/><path class="cls-1" d="M297.69,381.58a7.43,7.43,0,0,0,.83-1.15A9.32,9.32,0,0,0,297.69,381.58Z"/><path class="cls-1" d="M355.48,297.8l.18-.26s0,0,0-.05Z"/><path class="cls-1" d="M355.64,297.49l.16-.31A1,1,0,0,0,355.64,297.49Z"/><path class="cls-1" d="M356.13,296.54l-.33.64A1.86,1.86,0,0,0,356.13,296.54Z"/><path class="cls-1" d="M350.78,304.87l0,.13A.12.12,0,0,0,350.78,304.87Z"/><path class="cls-1" d="M349.41,307.05a19,19,0,0,0,1.43-1.93l0-.12C350.72,305.43,349.58,306.47,349.41,307.05Z"/><path class="cls-1" d="M342.51,315.4c.43-.57.85-1.16,1.26-1.76-.3.26-.69.6-.18-.24C341.84,315.5,344.12,313.07,342.51,315.4Z"/><path class="cls-1" d="M338.64,320.87c.6-1-.14-.08-.16-.16C338.15,321.37,338.07,321.53,338.64,320.87Z"/><path class="cls-1" d="M311.18,360.72l-.14-.24C310.55,361.24,311.11,360.55,311.18,360.72Z"/><polygon class="cls-1" points="306.87 369.02 307.5 368.4 307.55 367.93 306.87 369.02"/><polygon class="cls-1" points="302.19 372.4 302.39 372.06 301.6 373.32 302.19 372.4"/><path class="cls-1" d="M254.45,438.22l.42,0C255.18,437.66,255,437.35,254.45,438.22Z"/><path class="cls-1" d="M234.21,466.91a4.14,4.14,0,0,0-1.23,1.55C233.46,467.83,234,467.26,234.21,466.91Z"/><polygon class="cls-1" points="175.69 554.49 175.96 553.83 175.36 555.02 175.69 554.49"/><g id="title"><path class="cls-1" d="M240.52,134.51c0-.14-.19-.21-.36,0l.11.37Z"/><path class="cls-1" d="M238.68,135.66c-.12.37-.18.88.2.9,0-.48.16-.46.13-1,.17-.26.43-.33.49-.22,0-.13.37-.31.32-.57a1.56,1.56,0,0,0-1,1C238.7,135.86,238.71,135.72,238.68,135.66Z"/><path class="cls-1" d="M213.68,150.75h.19A.62.62,0,0,0,213.68,150.75Z"/><path class="cls-1" d="M195.6,151.57c.14,0,.2,0,.21,0S195.57,151.53,195.6,151.57Z"/><path class="cls-1" d="M192.63,150.66l.17.07A.22.22,0,0,0,192.63,150.66Z"/><path class="cls-1" d="M213.68,150.75a4.18,4.18,0,0,1-.5,0C213.17,150.88,213.45,150.81,213.68,150.75Z"/><path class="cls-1" d="M236.43,139.23a.79.79,0,0,0,.14-.25l-.16.2Z"/><path class="cls-1" d="M221.15,147.82l.14,0a.85.85,0,0,0,.06-.17Z"/><path class="cls-1" d="M226.55,144.89c-.13.06,0,.33,0,.46a.45.45,0,0,1,.15-.33A.33.33,0,0,0,226.55,144.89Z"/><path class="cls-1" d="M234.62,139.37l.1-.15Z"/><path class="cls-1" d="M217,149.38a.18.18,0,0,0-.08-.07S217,149.36,217,149.38Z"/><path class="cls-1" d="M229.21,60.11s0,0,0,0S229.26,60.12,229.21,60.11Z"/><path class="cls-1" d="M236,63.16h-.11a.84.84,0,0,0-.06.14Z"/><path class="cls-1" d="M187.4,148.65l0,0C187.57,148.69,187.49,148.66,187.4,148.65Z"/><path class="cls-1" d="M164.37,107.11c-.32.56-.22-1-.59-.13C163.89,106.91,164.13,107.82,164.37,107.11Z"/><path class="cls-1" d="M236.29,139.31l-.19.18A1.13,1.13,0,0,0,236.29,139.31Z"/><path class="cls-1" d="M163.78,107h0l0,.09A.25.25,0,0,1,163.78,107Z"/><path class="cls-1" d="M176.4,142.22a.38.38,0,0,0,0,.18S176.43,142.33,176.4,142.22Z"/><path class="cls-1" d="M184.16,147.86l-.2-.14A1.5,1.5,0,0,0,184.16,147.86Z"/><path class="cls-1" d="M172.64,138.92a.84.84,0,0,0-.21-.29.2.2,0,0,0,0,.07C172.51,138.72,172.57,138.78,172.64,138.92Z"/><path class="cls-1" d="M169.61,134.66a.48.48,0,0,0,0,.12l.1.13Z"/><path class="cls-1" d="M212.71,59.27a1.05,1.05,0,0,1,.27.23C212.88,59.31,213.67,59.18,212.71,59.27Z"/><path class="cls-1" d="M236.32,139.12a.17.17,0,0,1,0,.19l.12-.13S236.36,139.11,236.32,139.12Z"/><path class="cls-1" d="M170.79,140.17l-.51-.73A6.56,6.56,0,0,0,170.79,140.17Z"/><path class="cls-1" d="M177.39,74.29l.12-.16A.36.36,0,0,0,177.39,74.29Z"/><path class="cls-1" d="M168.7,137.35a1.46,1.46,0,0,0-.12-.51.31.31,0,0,0-.12-.05Z"/><path class="cls-1" d="M213,59.5Z"/><path class="cls-1" d="M218.67,58.72c-.83,0-.4.35-.58.56-1,.09-.45-.28-.78-.47a12.76,12.76,0,0,1-1.55.4c0-.06-.12-.08,0-.16-.64.29-1.93.13-2.66.54a.3.3,0,0,1-.1-.09.77.77,0,0,1,.15.5c-.37,0-.66.28-.82,0,.23,0,.24-.11.34-.19l-.38.13c-.37-.32.52-.15.5-.41a9,9,0,0,1-2.17.45c-.16-.33,1.33-.2.54-.45l.9.07c-.73-.49.54,0-.13-.53a20.49,20.49,0,0,0-2.48.31c-.24.23.12.27-.12.49-1.59.59-1.42-.65-2.57,0-.28.27-.32.71-1.22.62l.22-.42c-1.13.17-.53.67-1.74.68.17-.2.84-.33.66-.34-.81-.12-.49.34-1.06.48l-.2-.31c-.58.17-1.19.39-1.81.61l-.93.33-.93.38c0-.12.23-.29-.1-.3a16.9,16.9,0,0,1-2.52.83l-1.31.32-1.23.35-.47.52c-.14.05-.3,0-.18-.14-.63.15,0,.19-.2.41s-.51,0-.33-.14a17.53,17.53,0,0,1-1.87,1.14,7.45,7.45,0,0,1-2,.94l.16-.19c-.88.32-.64,1-1.53,1.16l.12-.12a19.12,19.12,0,0,0-2.62,1.54,11.52,11.52,0,0,1-2.42,1.23c0,.52-1.7,1.06-1.44,1.61a10,10,0,0,0-2.3,1c-.34.27-.24.72-.59,1.12l-.21-.22-.32.73h-.53l-.32.4c.16-.12.41-.18.45-.1a2.88,2.88,0,0,1-1.68,1c-.39.49-.71,1-1.07,1.54-.06-.11.11-.37.22-.61-.43,1-.36-.09-.76.79.14-.05.1.17.13.23a5.85,5.85,0,0,0-1.58,1.6l-.07-.25c-.92,1-1.67,2.4-2.6,3.63.41-.39.63-.07.4.31l-.38,0c0,.35.38-.31.23.31-.35.45-.53.11-.43-.22-.11.2-.18.44-.28.65-.1,0-.06-.18-.14-.29,0,.36-.9.88-.82,1.42H169a29.87,29.87,0,0,0-1.63,3.12c.24.15,0,.56,0,1a16.82,16.82,0,0,0-1.5,2.68c-.17.78.14.3.16.69-.27,0-.63,1-.6.4a18.3,18.3,0,0,0-.87,3.28c.16-.14.27-.32.32-.2-.06.3-.31.63-.41.55v-.08c-.19,1.89-1.85,4-1.63,5.63v1.49c-.17.7-.12-.45-.37,0,.15,1.73-.45,2.63-.31,4a4.18,4.18,0,0,0-.51,2.46,10.07,10.07,0,0,1-.18,2.78l.18-.09c.17.38-.1.46-.15.74.14,0,.16-.41.26-.18.22,3.16.06,6.57.57,9.85.2,1.2,1,.48,1,2l-.42-.33c.94,2.25,1.34,4.79,2.6,6.85-.12-.1-.21-.07-.3-.28-.05.56.75,1.7.93,1.62.14.34-.12.15-.12.4.08.53.85,1,.76,1.34,0,.06-.13-.09-.19-.16.26.23.7,1.37.79.95.34.84,1,1.4,1.23,2.09.52.21.75,1.34,1.19,1.21-.43.22.66,1.46,1.17,1.77-.23-.06.2.47-.09.42.43.49.89.88,1,.64.36,1.29,1.95,1.41,1.92,2.39,1.59,1.12,3,2.16,4.51,3-.16.17-.56-.08-1-.33s-.72-.53-.84-.32a11.94,11.94,0,0,0,1.91.94,8.53,8.53,0,0,1,1.8,1.05c.32.28-.3,0-.46,0,.37.19.71.39,1,.6l1,.54a12.57,12.57,0,0,0,2,.9s-.18,0-.33,0c.26.12.56.36.62.16l-.27-.07c-.27-.48,1.25,0,1.38-.21-.68.36,1.25.64.26,1,.19,0,.44,0,.45-.11.25.13.3.24,0,.28,1,.27.73-.07,1.58.27,0,.09-.22.06-.35.13a3.74,3.74,0,0,1,1.71.3c-.07.05,0,.14-.23.08,1.3.33,2.33.1,3.68.67-.51.3.44.27.44.62l.8,0-.27-.23a10.85,10.85,0,0,1,1.88.17l-.53.07,1.28.14-.7-.26c.71-.07,0-.48.88-.23-.19,0,.66.15,1,.37h0a2,2,0,0,1,1.19-.07c.12.13-.14.41-.06.49.36-.29,1.61,0,2-.27-.14.07-.16.26-.11.3l.29-.23c.31.1.35.15.3.3.95.06-.29-.46.83-.27-.09,0,0,.06-.23.1,1.13.08,2.18-.21,3.22-.11.33.37-.9.12-.54.42.38,0,.76-.07,1.15-.12l1.14-.27a13,13,0,0,1,2.23-.38h-.27c.12-.56,1.12.18,1.79-.25-.17.08-.18.34-.14.27a19.81,19.81,0,0,0,3.41-1l-.15.17a12,12,0,0,0,2.13-.46c.14-.19.49-.27.22-.4a4.8,4.8,0,0,0,2.73-.69,5.41,5.41,0,0,1,2.47-.93c-.19.08-.41.3-.25.23l1.31-.67c-.2-.17-.23,0-.59-.1a2,2,0,0,1,.78-.6c-.53.42.17.35.47.32-.07,0,0-.15-.07-.21.86,0-.08-.48,1-.71v.14a4.8,4.8,0,0,1,1-.71c.28.16-.31.3-.23.51.52-.29.8-1,1.4-1-.19.18-.51.35-.7.53a2,2,0,0,0,1.11-.26l0,0a7.8,7.8,0,0,0,.94-.4l-.26.07c.27-1,1.21-.93,1.81-1.85-.58.88,0,.29.1.59.26-.07.65-.2.6-.07.26-.47.79-.27,1.14-.94.08.06.41-.3.47,0,.44-.44-.22-.05-.25-.18.55-.85,2-1.06,2.82-2.26a3.55,3.55,0,0,0,.75-1.09,5.09,5.09,0,0,1,.65-1.07c.38-.14,0,.47,0,.47a3.41,3.41,0,0,0,1.17-1.09c0,.13.11.11.32.07.31-.33,0-.46.5-.77a1.6,1.6,0,0,1-.05.59,15.71,15.71,0,0,0,.88-1.39c.21,0,0,.43-.09.65.36-.52.95-1.31.88-1.63l-.33.23c.14-.18.25.07.17.23-.19.54-.57.51-.66.46l.21-.34c-.34,0-.58.27-.81.65a5.63,5.63,0,0,1-.8,1.07l-.05-.52-.34.8c-.2,0-.45-.06-.21-.36-.55.23-.26.44-.77.6-.06,0-.05,0,0-.06l-.31.46c0-.14-.27-.16,0-.34-.88.48-.93,1.33-1.43,1.31l0-.07c-1,.94.09.31-.48,1.22l-1-.17.09.32c-.12.08-.35.23-.39.1-.28.49.16.05,0,.39-.7.19-1.39,1.26-1.8.94-.06.33.62-.23.13.32-.47-.32-.65.52-1.3.66,0-.33.57-.52-.08-.39-.06.58-1,.55-1.44.9.16.3-.84.78-1.56,1.26a18.59,18.59,0,0,0-2.32.83V147c0,.39-.74.73-1.26,1.05-.07-.2,0-.32.24-.56a4,4,0,0,1-.51.24c-.07.16-.21.28-.54.46l0-.31a9.74,9.74,0,0,1-2.24,1.07c0,.26,1,.37.07.92-.08-.12-.2-.32,0-.48-.08,0-.25.23-.44.24l.3-.37c-.45.07-.15.27-.48.38-.07-.19-.3,0-.3-.2s.31,0,.41-.16a1.71,1.71,0,0,1-1.08.06c.07.1.09.26-.18.37-.72.23-.32-.16-.77-.12-.14.18-.64.18-.56.47-.22.06-.29-.06-.4-.11-.33.24-1.73.57-1.23.74h.1l-.05,0h0c-1.17.64-2.65.41-3.86.81l0-.1c-.72.3-1.66.33-2.17.61-.22,0-.55-.12-.47-.25A3,3,0,0,1,206,152c.57-.24-.21-.13.58-.19a3.11,3.11,0,0,0-1.71.2c.25-.26-.59-.31-.94-.23l.54.17a7,7,0,0,1-1.11,0l.18-.34c-1.52-.37-2.77.78-3.91,0-.41.2.82.22.45.47a10.05,10.05,0,0,1-1.62-.64c-.94-.27-.95.46-1.93.18.11.14.19.48-.58.46s-.78-.64-.33-.66c.17,0,.24.07.23.11.23,0,.53,0,.27-.18l-.1.1c-.33-.17-1.28-.32-1-.48-.54,0-.25.16.12.28-.85-.32-1.39-.22-2.27-.52.12.11.23.26.09.24-1.29-.51-.63.06-1.54-.14-.47-.31.29-.37-.65-.47-.51-.26,0-.33.21-.36a4.11,4.11,0,0,1-1.9-.75,2.12,2.12,0,0,0,.44.05,1.94,1.94,0,0,1-.67-.18l.16.32c-.23-.14-.43-.22-.4-.31-.3.05.07.45-.5.46-.29-.24-1-.27-1-.6,1,.49,0-.34.88-.06a1.91,1.91,0,0,1-.61-.24c0-.05.06-.05.13,0-.86-.63-.57.16-1.58-.24.2-.11-.1-.39-.28-.42.41.15.07.36-.35.31-.56-.45-.71-.26-1-.44l.34.25c-.2.09-.5-.09-1-.26,0-.14.43.12.31,0-.63,0-.94-.84-1.71-1-.25-.26.14-.3-.09-.51-.82-.26-.63-.71-1.46-1,.08.34.15.32-.49.17l1.3.66-1-.22c.37.25.86.39,1.06.57-.47-.08-.41-.11-.33.18-.32-.64-1.12-.49-1.57-1.08l.35-.48a3.53,3.53,0,0,0-1.26-.79,5.55,5.55,0,0,1-1.42-1l.28.35c-.29.06-.69-.48-1.07-.72.16-.12,0-.36-.06-.57-.08.12-.72-.67-1.08-.47a6.5,6.5,0,0,1-.25-.61c-.68-.85-1.31-.47-2-1.33.37.1.16-.35.73.07-.23-.26-.41-.52-.51-.44,0-.23-.85-.55-.91-.92-.16-.07-.35,0-.58-.3,0-.06.07-.06.07-.06s-.48-.41-.44,0a5,5,0,0,0-1-1.82,3.55,3.55,0,0,1-.88-1.74,18.65,18.65,0,0,1-1.31-2c.08,0,.09,0,.13.08-.29-.93-.78-.26-1.08-1.36.05-.64.41.46.37.09.52-.41-.66-1.16-.58-2l.11.15c0-.6-.76-1.17-1-2.07a.08.08,0,0,0,.09,0,7.58,7.58,0,0,1-1.34-2.43c.33.19.25.35.45.12-.15-.38-.38.23-.66-.53.07-.29.05-.88.3-1l.2.72c.25-.46-.25-.94-.29-1.33h.17c-.3-1.11-.68-1-.89-2.27l-.1.15c-.49-.61.13-.6-.27-1.23l.36-.26a16.37,16.37,0,0,1-.75-2.3,10.21,10.21,0,0,1,.85,1.89,4.8,4.8,0,0,0-.43-1.69,1.15,1.15,0,0,1,.14.57,3.9,3.9,0,0,1-.66-2.1c.76.11.06-2.32.66-3-.29-1.56.13-3.08.23-4.88-.64.59,0-.53-.59-.47,0-.43,0-.59.06-.62l.51-1.24c.21-.28.09.41.23.39.15-.91.29-.35.53-.93-.23.09-.26-.36-.1-.87l-.39.69c-.13-1.32.64-1,.56-2.35l.12.44c0-.34.11-.94.18-1.55a3.29,3.29,0,0,0,0-1.59c.09-.1.29-.22.27.08.42-1.52.37-3.58,1.05-4.67l.11.16c.05-.29-.11-.57.15-.88.06,0,.11.16.16,0a2.35,2.35,0,0,1,.23-1.17l0,.37c.71-1.38.46-2.37.89-3.61.41.18,1-.88,1.37-1.38l0,0a10.41,10.41,0,0,0,.54-1.13c.16-.36.31-.71.45-1.06.27-.7.52-1.4.88-2.17a3.38,3.38,0,0,0,.71-.74c.28-.3.57-.66.86-1a22.76,22.76,0,0,1,1.79-2.17c-.21.16-.25-.25-.09-.51.33-.23.49-1,.75-.69l-.1.09c.5,0,1-.62,1.38-1.08l-.32-.43a3.74,3.74,0,0,0,1.14-.83c.34-.35.72-.7,1-1.07.67-.73,1.27-1.4,1.82-1.45.21-.36.56-.71.8-1l.16.23a19.78,19.78,0,0,0,2.4-1.79l-.1.33c.62-.43.27-1.27.86-1.67l.42.23c1.14-.72,2.46-1.13,3.39-2.16a.3.3,0,0,1-.14.32c.55-.32,2.29-.88,1.81-1.3.19.33,1.24-.6,1.81-1.09l0,.31a2.18,2.18,0,0,1,1.12-1.12c.21,0,.26.13,0,.17.69-.13.38-.44,1.2-.62l-.21.28c.65-.25.56-.32.84-.66s1.25-.44,1.43-.25a.91.91,0,0,1,.74-.57c.09.08,0,.18-.1.23,1.17-.18,1.55-.84,2.4-.83a.22.22,0,0,0,.18.12,15.49,15.49,0,0,1-1.54.45c.09.24.81.06.36.57a5.67,5.67,0,0,1,2.08-1.18.22.22,0,0,1,.11.05l-.06,0a.84.84,0,0,0,.42-.18c.23,0,.38,0,.6-.08.14.18.86-.09,1.23-.16-.1-.27.38-.33-.12-.46.06,0-.06,0-.3.12a.46.46,0,0,0-.14.07v0l-.89.22a1.17,1.17,0,0,1,1-.33,5,5,0,0,1,.4-.56c.59.27,1.6.25,1.78.45.54-.19,1.17-.41,1.77-.56a3.21,3.21,0,0,0,1.45-.68c.31-.11.4.1.53.16a2.14,2.14,0,0,0-.49.2c.62-.23,1.89-.34,2-.73.83,0-.42.41.69.18l-.14.14a6.14,6.14,0,0,0,2.91-.38,8.8,8.8,0,0,1,1.43-.34,3.58,3.58,0,0,1,1.68.16c-.17,0-.26-.07-.3-.13a29.18,29.18,0,0,0,4.29.09,17.44,17.44,0,0,1,4.22.56c.76.19.88-.07,1.38-.16l.12.33.86-.2c1.2-.05,1.85,1.08,3.39.86l-.14-.23c.52.1,1.66.26,1.52.46.06,0,.22-.16.39,0l0,.16,1.32.07c1,.36-.31.57,1.1,1,.54.07,1.63-.05,1.46-.21s-.51-.23-.49-.39l.51,0c.23-.42.75-.78-.37-1.41l-.93,0-.21-.29.72.18a1,1,0,0,0-1-.15.59.59,0,0,0-.29-.34l-.94.22c-.06-.21.46-.25-.08-.5-.44.1.28.5-.4.46-.35-.31-.2-.45-.71-.4,0-.13.07-.18.28-.18-.46,0-1.14-.23-1.42,0-.38-.34-1.46-.2-1.34-.62a3,3,0,0,1-1.22.15c.81-.39-1.48-.29-1.2-.81-.6.33-2-.06-3,.11a.35.35,0,0,1,.25-.06,4,4,0,0,1-1-.37c-.11.38-1,.39-1.42.59-.64-.44.43-.42.25-.8,0,.32-1.18.21-1,.49-.49-.28-.42-.14-.67-.47-.11.48-.48.07-.91.37-.73-.25-.18-.46-1-.33C217.94,58.88,218.67,58.72,218.67,58.72ZM199.75,62h0l.37-.13Zm-1.53.5.67-.21c.08.08.05.19-.1.24C198.85,62.46,198.47,62.52,198.22,62.52Zm3.75.9c-.23.09-.32.06-.37,0l.41-.13,0,0A.31.31,0,0,1,202,63.42Z"/><path class="cls-1" d="M202.31,63l.1,0-.16,0-.07.11Z"/><path class="cls-1" d="M213.9,150.73h0S213.92,150.74,213.9,150.73Z"/><polygon class="cls-1" points="178.63 72.96 178.68 73.01 178.74 72.87 178.63 72.96"/><path class="cls-1" d="M222.45,148.63a.19.19,0,0,0,.14,0S222.52,148.63,222.45,148.63Z"/><path class="cls-1" d="M225.88,146.93a4.56,4.56,0,0,0,.52-.18Z"/><path class="cls-1" d="M228.45,145.49a.39.39,0,0,0,0-.13h0Z"/><path class="cls-1" d="M183.51,149.64l-.11,0C183.14,149.53,183.31,149.59,183.51,149.64Z"/><path class="cls-1" d="M197.09,152.87a2.49,2.49,0,0,1-.46.09C196.87,153,197.06,153,197.09,152.87Z"/><path class="cls-1" d="M170.85,140.24h0l-.06-.07Z"/><path class="cls-1" d="M196,152.85a1.72,1.72,0,0,0,.64.11A2.32,2.32,0,0,0,196,152.85Z"/><path class="cls-1" d="M238.28,137.36l.11-.1a.05.05,0,0,1,0,0Z"/><path class="cls-1" d="M238.36,137.21l.08-.14A.42.42,0,0,0,238.36,137.21Z"/><path class="cls-1" d="M238.61,136.78l-.17.29C238.52,137,238.62,136.89,238.61,136.78Z"/><path class="cls-1" d="M235.43,140l0,.1A.14.14,0,0,0,235.43,140Z"/><path class="cls-1" d="M234.58,140.86c.23-.18.67-.32.91-.64l0-.09C235.43,140.37,234.66,140.55,234.58,140.86Z"/><path class="cls-1" d="M230,143l.82-.53c-.2,0-.47,0-.14-.26C229.52,142.66,231,142.21,230,143Z"/><path class="cls-1" d="M227.41,144.5c.41-.32-.09-.13-.1-.19C227.09,144.57,227,144.63,227.41,144.5Z"/><path class="cls-1" d="M207.21,151.74l0-.26C206.84,151.57,207.23,151.58,207.21,151.74Z"/><polygon class="cls-1" points="203.11 153.35 203.52 153.5 203.7 153.26 203.11 153.35"/><polygon class="cls-1" points="200.65 151.56 200.83 151.53 200.17 151.58 200.65 151.56"/><path class="cls-1" d="M170.3,135.32l-.2.28C170.3,135.79,170.62,135.64,170.3,135.32Z"/><path class="cls-1" d="M164.46,121a.89.89,0,0,0,0-.89A5.62,5.62,0,0,0,164.46,121Z"/><polygon class="cls-1" points="177.33 77.7 177.2 78 177.53 77.51 177.33 77.7"/><path class="cls-1" d="M285.66,89.17c-.08-.07-.28-.06-.26.13l.31.17Z"/><path class="cls-1" d="M284.89,90.31c.13.23.37.51.69.42-.28-.25-.15-.29-.49-.56,0-.19.15-.31.26-.26-.07-.07.11-.27-.08-.39a.61.61,0,0,0-.17.83C285,90.41,285,90.33,284.89,90.31Z"/><path class="cls-1" d="M281.54,107.74l.06-.11A.24.24,0,0,0,281.54,107.74Z"/><path class="cls-1" d="M279.16,118.45c0-.08,0-.12-.05-.13S279.12,118.46,279.16,118.45Z"/><path class="cls-1" d="M278.38,120.19l.05-.1S278.36,120.16,278.38,120.19Z"/><path class="cls-1" d="M281.54,107.74l-.16.27C281.49,108.05,281.49,107.87,281.54,107.74Z"/><path class="cls-1" d="M285.34,92.85a.44.44,0,0,0-.07-.17s0,.1,0,.15Z"/><path class="cls-1" d="M282.13,102.93l0-.09-.12-.1Z"/><path class="cls-1" d="M282.69,99.25c0,.09.25.16.37.21a.27.27,0,0,1-.16-.21A.73.73,0,0,0,282.69,99.25Z"/><path class="cls-1" d="M284.09,93.51l0-.11Z"/><path class="cls-1" d="M281.61,105.53l-.11,0A.22.22,0,0,0,281.61,105.53Z"/><path class="cls-1" d="M247.29,91.55h.05S247.29,91.52,247.29,91.55Z"/><path class="cls-1" d="M248.07,87.08l0,.06h.16Z"/><path class="cls-1" d="M277.22,123.43v0C277.22,123.32,277.21,123.37,277.22,123.43Z"/><path class="cls-1" d="M263.61,142.46c0,.42-.59-.25-.51.33C263.16,142.69,263.73,142.89,263.61,142.46Z"/><path class="cls-1" d="M285.28,92.94a.76.76,0,0,1,0,.15A.42.42,0,0,0,285.28,92.94Z"/><path class="cls-1" d="M263.1,142.79h0v0Z"/><path class="cls-1" d="M275.25,131a.33.33,0,0,0,.14,0S275.32,131,275.25,131Z"/><path class="cls-1" d="M277.26,125.51l-.07.13A.33.33,0,0,0,277.26,125.51Z"/><path class="cls-1" d="M274.66,134c0,.06-.09.08-.09.19l0,0C274.59,134.14,274.59,134.09,274.66,134Z"/><path class="cls-1" d="M273.54,137l.08,0a.36.36,0,0,1,0-.1Z"/><path class="cls-1" d="M248.93,101.13a1,1,0,0,1,.22-.19C249,101,248.82,100.57,248.93,101.13Z"/><path class="cls-1" d="M285.18,92.83c.07,0,.1.06.1.11v-.11A.11.11,0,0,0,285.18,92.83Z"/><path class="cls-1" d="M276.71,134.88l-.22.48A2.38,2.38,0,0,0,276.71,134.88Z"/><path class="cls-1" d="M253.7,123.6l-.06-.11A.11.11,0,0,0,253.7,123.6Z"/><path class="cls-1" d="M276,136.81a.79.79,0,0,0-.29.2s0,.05.05.08Z"/><path class="cls-1" d="M249.16,100.94h0Z"/><path class="cls-1" d="M248,97.75c.07.48.4.16.62.23.2.56-.22.31-.38.53.15.35.53.56.56.83-.05,0-.07.09-.15,0,.35.33.2,1.11.64,1.49a.23.23,0,0,1-.08.07,1.14,1.14,0,0,1,.48-.15c.05.21.3.36.08.48,0-.13-.12-.13-.2-.18l.14.21c-.31.26-.17-.29-.42-.24.18.41.55.87.51,1.23-.32.12-.24-.77-.46-.27l0-.54c-.47.49,0-.32-.52.14,0,.7.29.73.32,1.43.21.12.26-.1.48,0,.5.91-.71.91-.14,1.54.26.15.69.14.56.69l-.41-.11c.08.67.61.28.49,1-.17-.1-.22-.5-.25-.39-.21.5.27.28.34.62l-.32.13c.18.69.56,1.42.78,2.18-.11,0-.24-.13-.31.07a8.72,8.72,0,0,1,.37,3.08l.36.3c0,.08-.09.18-.17.1,0,.39.19,0,.34.14s-.11.31-.22.19a4.17,4.17,0,0,1,.75,2.48l-.11-.11c0,.55.72.47.56,1l-.07-.09c.13,1.18.68,2.39.46,3.36.45.07.1,1.18.69,1.12a3.71,3.71,0,0,0-.23,1.53c0,.25.45.27.58.56l-.29.09.42.33-.31.31.16.26c0-.11.07-.27.16-.28a1.16,1.16,0,0,1-.07,1.19l.54,1c-.13,0-.22-.15-.33-.27.45.48-.29.19.13.63.05-.09.19,0,.25,0a2.07,2.07,0,0,0,.26,1.29l-.23,0c.16.79.58,1.61.84,2.48a.26.26,0,0,1,.49-.14l-.29.2c.25.11,0-.3.38,0,.06.34-.29.33-.45.18l.24.36c-.09.05-.17,0-.29,0,.24.09-.09.77.32.9l-.09.05c.27.87.52,1.23.78,1.92.27-.08.3.22.59.35a8.35,8.35,0,0,0,.36,1.79c.29.39.26.05.49.18-.22.12,0,.73-.25.48a8.88,8.88,0,0,0,1,1.76c0-.14,0-.27.15-.25s.07.42-.05.45l-.05,0c.78.87.42,2.7,1.33,3.27l0,0c.22.24.46.47.7.7.18.39-.3-.14-.27.22a3.09,3.09,0,0,1,.82,1,2.23,2.23,0,0,0,.72.94,1.05,1.05,0,0,0,.16.74,4.25,4.25,0,0,0,.61.69,7.56,7.56,0,0,1,1.36,1.35l.06-.18c.32,0,.19.28.35.42,0-.13-.16-.3,0-.29l.79.37c.28.11.59.2.88.3s.64.1,1,.15a5.54,5.54,0,0,0,1-.05,6.57,6.57,0,0,0,3.27-1.62c.6-.57-.38-.94.55-1.41l.1.42c.63-1.45,1.75-2.57,2.1-4,0,.11.11.15.05.28.35-.16.5-1,.33-1.08.11-.19.18,0,.32-.06s0-.81.32-.86c.05,0,0,.11,0,.17,0-.22.39-.82.06-.76.34-.43.27-1,.58-1.3-.18-.37.47-.79.09-1,.41.2.66-.73.57-1.11.09.15.23-.23.37,0,.12-.36.15-.71-.09-.73.74-.48,0-1.46.82-1.61.11-1.14.26-2.17.43-3.16.43.16-.27,1.07.2,1.17a7.51,7.51,0,0,1,.24-2.48c.12-.21.15.19.2.29.08-1,.53-1.76.51-2.63,0,0,.06.11.07.2,0-.16.16-.36,0-.39v.17c-.35.18-.43-.8-.57-.86.49.42.34-.77.95-.15,0-.12-.07-.27-.21-.28.08-.15.17-.18.28,0,0-.61-.22-.46-.09-1,.1,0,.11.14.21.23a1.22,1.22,0,0,1,0-1s.14,0,.11.14c.15-.76-.19-1.41.19-2.2.36.34.2-.25.58-.21v-.47l-.22.13c.1-.39-.09-.79.11-1.1l.08.32.1-.75-.23.38c-.1-.44-.47-.06-.25-.56,0,.12.09-.39.35-.54h0a.79.79,0,0,1,0-.72c.13-.05.39.15.48.12-.27-.26.11-.94-.16-1.26a.34.34,0,0,0,.29.13l-.21-.22c.12-.16.16-.18.31-.12.16-.54-.5.08-.16-.53,0,.05,0,0,.06.15.25-.63.11-1.3.36-1.87.4-.1,0,.54.33.4a16.1,16.1,0,0,1,.18-2.71l-.07.15c-.5-.22.38-.57.21-1,0,.11.27.19.21.15a6.77,6.77,0,0,0,.1-2.1l.12.13a9.4,9.4,0,0,0,.36-1.24c-.11-.13-.05-.34-.27-.25,1-1,0-2.23.79-3.12,0,.12.07.3.09.21l0-.88c-.24,0-.15.09-.36.24a.84.84,0,0,1-.15-.61c.09.41.37.06.53-.08-.08,0-.15-.06-.22-.06.48-.37-.44-.15-.07-.71l.12.05a1.61,1.61,0,0,1-.07-.72c.28-.06.08.26.29.32.05-.35-.38-.77-.07-1,.05.16,0,.37.07.53.36-.29.29-.34.38-.59v0l.24-.56L284,100c-.62-.55,0-.91-.34-1.57.34.64.23.14.53.23.1-.14.23-.35.31-.27-.2-.32.26-.44,0-.88.1,0,.06-.3.29-.2,0-.37-.18.06-.3,0-.24-.6.6-1.24.27-2.11-.08-.72-.38-.89-.45-1.56.18-.19.32.23.32.23a1.2,1.2,0,0,0,.15-.94c.07.08.15,0,.28-.06,0-.27-.33-.23-.14-.55a1.15,1.15,0,0,1,.35.32c0-.33-.18-.66-.22-1,.18-.07.23.23.32.36,0-.38,0-1-.27-1.11l-.13.22c0-.14.24,0,.28.06a.29.29,0,0,1-.26.44l0-.24c-.6.16,0,.94-.14,1.39l-.38-.25.27.52c-.12.09-.36.12-.39-.11-.25.3.11.31-.16.56,0,0-.06,0-.07,0l.07.34c-.07-.08-.3,0-.21-.18-.32.54.17,1-.17,1.15l0,0c0,.82.29.12.55.77l-.8.3.29.12c0,.08-.08.24-.19.19.16.34.14,0,.3.18-.33.35,0,1.12-.53,1.13.2.18.23-.35.33.1-.54,0,0,.5-.29.83-.25-.16-.05-.48-.35-.15.42.29-.21.69-.17,1,.35.07,0,.69.07,1.22-.11,0-.35.94-.57,1.39l0,0c.34.15.19.63.2,1a.41.41,0,0,1-.35-.34l-.05.34a.54.54,0,0,1,.14.44l-.25-.13c-.06.45.16.95-.12,1.5.24.08.78-.34.84.3-.14,0-.38,0-.4-.19,0,.06.08.21,0,.31l-.19-.29c-.14.25.17.17.11.38-.19,0-.17.13-.31.07s.11-.17,0-.26a1,1,0,0,1-.41.56.23.23,0,0,1,.26.23c-.07.45-.27.11-.41.35.11.13-.08.39.21.45,0,.13-.17.13-.25.17.08.25-.17,1.09.19.88l0,0v0h0c.14.81-.46,1.54-.49,2.32l-.09,0a5.18,5.18,0,0,0,0,1.37c0,.13-.23.28-.34.2a1.1,1.1,0,0,1-.15.88c-.1-.38-.18.09,0-.38-.18.43-.35.5-.19,1-.21-.21-.38.27-.35.49l.25-.27a2.58,2.58,0,0,1-.15.65l-.3-.18c-.58.83.33,1.78-.48,2.33.18.29.27-.46.49-.19-.14.41-.7.74-.73.87-.3.53.36.64.1,1.21.14,0,.46,0,.47.42s-.6.4-.63.12c0-.11.06-.15.09-.13,0-.15,0-.33-.18-.2l.1.08c-.16.18-.28.76-.44.58,0,.34.16.18.27,0-.29.49-.19.83-.43,1.35.08-.07.23-.12.21,0-.33.77.14.4.06,1-.25.27-.39-.21-.38.37-.2.31-.32,0-.38-.16.1.56-.37.9-.49,1.17l0-.28a1.34,1.34,0,0,1-.05.42l.26-.09c-.08.15-.11.28-.2.25.11.19.41,0,.54.34-.17.17,0,.66-.36.65.27-.62-.32,0-.23-.57a.69.69,0,0,1-.11.39s0,0-.06-.08c-.43.54.27.37.1,1-.15-.12-.36.07-.35.18.07-.26.32,0,.38.22-.24.37,0,.47-.09.68l.13-.23c.15.13.07.33.05.63-.14,0,0-.28-.11-.2.22.4-.5.63-.42,1.13-.17.17-.33-.07-.45.08.08.56-.39.47-.35,1,.27-.08.22-.12.34.31l.08-.9.18.64c.08-.25,0-.58.09-.72.12.31.07.27.29.2-.44.25,0,.75-.34,1.09l-.57-.17c-.43.53,0,1.16-.41,1.9l.18-.22c.19.17-.12.49-.11.78-.18-.09-.3,0-.45.12.14,0-.19.57.16.76l-.36.27c-.31.59.3.89,0,1.48-.14-.26-.37,0-.37-.48-.07.2-.17.37,0,.42-.16.07.06.64-.19.76.06.11.24.21.14.43a.13.13,0,0,1-.09,0c.09,0,0,.39.27.27-.79.41-.61,1.74-1.31,2.07a12.23,12.23,0,0,1-.44,1.37s-.09,0,0-.1c-.41.45.37.56-.1,1.07-.43.17,0-.39-.2-.25-.63-.2-.26.75-.81,1l0-.11c-.35.19-.16.84-.47,1.29,0,0,0-.06-.09-.06a2.91,2.91,0,0,1-.4,1.64c-.12-.28,0-.27-.25-.33-.1.21.39.17.18.6-.21,0-.51.24-.75.11l.24-.35c-.42-.05-.31.45-.51.58l-.1-.12c-.38.51-.1.79-.63,1.25l.13,0c0,.55-.37.05-.5.5l-.32-.26a2.37,2.37,0,0,1-.94.92c.18-.32.54-.66.69-.95-.19.12-.61.34-.67.55.07,0,.14-.2.24-.17a1,1,0,0,1-1,.65c0-.39-.23-.44-.53-.53A3,3,0,0,1,266,145a.54.54,0,0,1-.2-.4c-.8-.14-1.17-1-1.82-1.74-.23.65-.21-.22-.64.2-.18-.17-.23-.26-.21-.3A7.19,7.19,0,0,1,263,142c0-.25.23.12.33,0-.25-.47.1-.33,0-.71-.14.18-.36,0-.45-.28v.51c-.69-.45.1-.82-.56-1.3l.29.11c-.3-.26-.67-1.25-1.29-1.37,0-.09.14-.24.26-.11-.35-.87-1.37-1.68-1.38-2.49h.16c-.11-.15-.38-.17-.32-.44.06,0,.16,0,.14-.07s-.42-.34-.43-.59l.23.12c-.16-.92-.9-1.17-1.27-1.88.42-.15.29-.88.24-1.25H259a14.28,14.28,0,0,0-1.42-2.54c.26-.73-.44-2.08-.47-3.13,0,.17-.33.07-.42-.09s-.48-.54-.08-.62l0,.09c.33-.28.09-.72,0-1.09l-.52.08c.48-1.16-1-2.45-.42-3.15-.19-.2-.26-.49-.45-.69l.28,0a8.54,8.54,0,0,0-.4-1.78l.24.11c-.09-.45-.93-.37-1-.79l.38-.22c-.19-.79,0-1.67-.56-2.37a.22.22,0,0,1,.23.12c-.08-.37,0-1.5-.58-1.24.37-.09-.14-.82-.4-1.22h.29c-.42-.29-.53-.28-.73-.76,0-.13.2-.15.16,0,.06-.43-.32-.26-.27-.77l.21.14c-.07-.41-.15-.36-.4-.55s-.1-.79.14-.9a.49.49,0,0,1-.39-.47c.09,0,.16,0,.2.06,0-.72-.52-1-.35-1.49a.18.18,0,0,0,.15-.11,6.61,6.61,0,0,1,.15,1c.25,0,.21-.5.62-.22-.26-.32-.79-.84-.76-1.3l.08-.07,0,0a.43.43,0,0,0-.1-.27,1.15,1.15,0,0,0,0-.37c.2-.09,0-.53,0-.75-.28.07-.29-.23-.46.09,0,0,0,0,.08.18a.25.25,0,0,0,0,.09h0c0,.14.07.33.12.54-.18-.15-.33-.31-.22-.58l-.5-.22c.32-.38.42-1,.65-1.13-.29-.64-.4-1.57-1-1.9-.1-.18.11-.25.18-.33.07.1.08.23.17.28-.2-.36-.26-1.13-.64-1.16.08-.51.39.21.21-.44l.13.07c.35-1.41-1.3-2-.79-3.56,0,.11,0,.16-.1.2.06-1.72-.86-3.38-.59-5.1,0-.49-.2-.5-.42-.76l.28-.15-.41-.43c-.36-.66.55-1.31,0-2.11l-.19.14c0-.32-.25-1,0-1,0,0-.22-.07-.13-.21l.15,0-.37-.74c0-.61.63,0,.54-.87-.1-.31-.58-.86-.67-.73s0,.35-.21.38l-.12-.28c-.47,0-1-.16-1.19.62l.35.47-.2.19L247,88c-.18.27,0,.4.18.55a.39.39,0,0,0-.22.25l.51.44c-.17.09-.39-.18-.44.18.24.2.37-.29.56.08-.18.28-.36.23-.14.49-.11.06-.19,0-.26-.1.17.24.15.67.42.76-.23.3.19.86-.25.89a1.36,1.36,0,0,1,.46.63c-.59-.35.1.88-.48.85.51.25.38,1.12.73,1.64-.05,0-.13-.08-.12-.13a1.62,1.62,0,0,1-.17.65c.39,0,.56.46.84.68-.32.45-.49-.16-.83,0,.31-.07.41.62.65.45-.18.33-.07.27-.37.47.5,0,.13.26.47.46-.17.47-.44.18-.22.63C248.19,98.14,248,97.75,248,97.75Zm2.8,11h0c0-.09-.05-.18-.07-.23A2.35,2.35,0,0,1,250.75,108.74Zm.19.93a3.92,3.92,0,0,0-.07-.41c.09-.05.19,0,.21.06S251,109.51,250.94,109.67Zm1.53-2.34c.07.14,0,.2,0,.23a2.3,2.3,0,0,0-.08-.25h0A.66.66,0,0,1,252.47,107.33Z"/><path class="cls-1" d="M252.06,107.14s0,0,0-.06l-.05.1.1,0Z"/><path class="cls-1" d="M281.61,107.61v0a.09.09,0,0,1,0,0Z"/><polygon class="cls-1" points="253.3 122.61 253.37 122.59 253.29 122.52 253.3 122.61"/><path class="cls-1" d="M283.48,102.65a.18.18,0,0,0,.08-.06S283.51,102.62,283.48,102.65Z"/><path class="cls-1" d="M283.91,100.43l.15-.3A2.74,2.74,0,0,0,283.91,100.43Z"/><path class="cls-1" d="M284.33,98.74l-.11,0h0Z"/><path class="cls-1" d="M279.11,125.88s0,.05,0,.07S279.12,126,279.11,125.88Z"/><path class="cls-1" d="M280.41,117.73c0,.09.06.19.08.28C280.54,117.88,280.57,117.77,280.41,117.73Z"/><polygon class="cls-1" points="276.73 134.83 276.73 134.83 276.71 134.88 276.73 134.83"/><path class="cls-1" d="M280.4,118.39a.62.62,0,0,0,.09-.38A.73.73,0,0,0,280.4,118.39Z"/><path class="cls-1" d="M285.58,91.32l0-.08,0,0Z"/><path class="cls-1" d="M285.56,91.22l0-.1S285.53,91.2,285.56,91.22Z"/><path class="cls-1" d="M285.5,90.92l0,.2C285.55,91.06,285.57,91,285.5,90.92Z"/><path class="cls-1" d="M285.12,93.57l.1.05A.19.19,0,0,0,285.12,93.57Z"/><path class="cls-1" d="M285.05,94.27c.05-.16.28-.38.25-.62l-.08,0C285.36,93.75,284.9,94.09,285.05,94.27Z"/><path class="cls-1" d="M283.37,97l.17-.57c-.13.09-.29.2-.28-.07C282.83,97,283.53,96.21,283.37,97Z"/><path class="cls-1" d="M282.93,98.72c0-.32-.16,0-.22,0C282.78,98.88,282.79,98.93,282.93,98.72Z"/><path class="cls-1" d="M280.62,111.58l-.25-.08C280.36,111.74,280.47,111.52,280.62,111.58Z"/><polygon class="cls-1" points="281.41 114.29 281.62 114.09 281.41 113.94 281.41 114.29"/><polygon class="cls-1" points="279.33 115.36 279.31 115.25 279.32 115.66 279.33 115.36"/><path class="cls-1" d="M273.52,136.35l.32.05C273.85,136.23,273.53,136.07,273.52,136.35Z"/><path class="cls-1" d="M269.22,144.31a.31.31,0,0,0-.43.22C269,144.44,269.17,144.4,269.22,144.31Z"/><polygon class="cls-1" points="256.39 124.39 256.54 124.54 256.36 124.22 256.39 124.39"/></g></g></g></g></svg>