<svg xmlns="http://www.w3.org/2000/svg" viewBox="0 0 1693.7 330.05"><defs><style>.cls-1{fill:#4d4d4d;}.cls-2{opacity:0.3;}</style></defs><g id="Layer_2" data-name="Layer 2"><g id="sketch"><g id="road"><path class="cls-1" d="M6,83.57c-.33.94-.34,1.17,0,.52l.81-1.65c.18-.39.39-.84.63-1.34l1-1.63.44-.9c.15-.29.34-.57.51-.86l1-1.71A33.49,33.49,0,0,0,6,83.57Z"/><path class="cls-1" d="M33.6,59.53c5.71-3.07,12.58-6.11,8.57-4.78a117.79,117.79,0,0,0-13.18,7c-4.81,2.74-8.2,5.09-7.52,4.44-.4.28-1,.74-1.78,1.33s-1.67,1.2-2.52,2S15.39,71,14.65,71.79s-1.44,1.47-1.92,2c5.14-5.11,12.69-10.31,21.13-14.69C35.72,58.3,34,59.27,33.6,59.53Z"/><path class="cls-1" d="M567.27,7.89l-3.47,0Z"/><path class="cls-1" d="M901,12c-2.55-.06-3.61-.05-3.74,0C899.65,12,901.59,12,901,12Z"/><path class="cls-1" d="M958,13.87l-3.36-.12C955.91,13.82,957.2,13.87,958,13.87Z"/><path class="cls-1" d="M567.27,7.89l8.91.07C576.81,7.85,571.61,7.89,567.27,7.89Z"/><path class="cls-1" d="M104.2,36.73c-1.83.38-3.34.76-4.72,1.09,1.49-.33,2.94-.67,4.44-1Z"/><path class="cls-1" d="M420.15,10.57l-2.71.08-2.24.2Z"/><path class="cls-1" d="M307.35,15.46a22.61,22.61,0,0,0,4.39-.65c-1.43.2-3.31.37-5.54.52C306.16,15.38,306.5,15.43,307.35,15.46Z"/><path class="cls-1" d="M129.3,33.19l-3.13.57Z"/><path class="cls-1" d="M501,8.88A8.77,8.77,0,0,0,502,9,4.92,4.92,0,0,0,501,8.88Z"/><path class="cls-1" d="M2.67,214.26c0,.09,0,0,.05,0C2.65,213.59,2.62,213.39,2.67,214.26Z"/><path class="cls-1" d="M6.65,83.84,6.1,85.57c0,.2,0,.4,0,.42Z"/><path class="cls-1" d="M1062.22,17.43l-.46,0C1059,17.35,1060.57,17.4,1062.22,17.43Z"/><path class="cls-1" d="M1538.43,314.32c10.85.16-17.65.48-1.32.62C1535.59,314.84,1552,314.37,1538.43,314.32Z"/><path class="cls-1" d="M107.08,36.18c1.5-.31,3-.62,4.54-.9C109.55,35.66,108.16,36,107.08,36.18Z"/><path class="cls-1" d="M1537.11,314.94Z"/><path class="cls-1" d="M1302.42,25.28c-.49-.07-1.44-.14-2.44-.21C1300.06,25.1,1300.61,25.16,1302.42,25.28Z"/><path class="cls-1" d="M1123.5,18.94l4.42.19Z"/><path class="cls-1" d="M1395.24,29.66c2.4.19,3.21.3,6.49.51l-1-.11C1399.55,30,1398,29.9,1395.24,29.66Z"/><path class="cls-1" d="M1491.34,40.15l-1.76-.33-3-.44Z"/><path class="cls-1" d="M192.82,328.34c-2.12-.06-3.43-.14-4.46-.22C189.85,328.31,175.64,328.51,192.82,328.34Z"/><path class="cls-1" d="M104.28,36.88a25.15,25.15,0,0,1,2.8-.7l-3.16.66C103.66,36.94,103.6,37,104.28,36.88Z"/><path class="cls-1" d="M1399.33,27.74,1414.66,29C1410.38,28.63,1404.8,28.15,1399.33,27.74Z"/><path class="cls-1" d="M887,322.28l-3.53.06C884.78,322.34,886,322.32,887,322.28Z"/><path class="cls-1" d="M1460.09,33.63l8.58,1.27c.63.06,1.36.14,1.78.16C1467,34.57,1463.55,34.08,1460.09,33.63Z"/><path class="cls-1" d="M188.32,328.12h0Z"/><path class="cls-1" d="M87.07,329.67c14.65-.12,6.88-.42,10-.66,17.48-.26,8.09.2,14,.34,10.92-.2,19.29-.61,27.43-.66.61.05,2.19.06.33.15,11.54-.39,34.26-.31,47.71-.79,1,0,1.5.05,1.75.07-2.18-.16-2.51-.35-2.07-.49,6.57-.06,12.19-.34,14.66-.12-4,0-4.36.13-6.24.22l6.88-.16c6.19.29-9.4.2-9.39.46,13.41-.23,29.05-.65,39.33-.65,2.15.32-24,.33-10.32.51H205.26c12.16.43-9.67,0,1.51.52,20.93-.08,23.41-.38,44.29-.46,4.71-.23-1.55-.26,3.15-.49,29.68-.6,23.37.65,45.19,0,5.64-.28,7.83-.73,23.37-.63l-5.29.43c20.26-.14,11.56-.66,32.79-.58-3.77.18-15.93.26-12.86.28,13.75.19,9.72-.3,20.29-.39l2.2.32,69.24-1c-1.32.11-5.42.25.18.31,30.13-.43,64.34-.52,93.41-.57l11.11-.39c2.58,0,4.79.09,2,.17,11.33,0,.58-.19,6-.35,6.44-.08,8.51.09,4.43.22,20-.42,57-1,78-.9l-4.11.12c16.41,0,18.51-.76,33.73-.62L651,324c35.6-.18,75-.79,102.12-.58,5.16-.47,35.24-.12,37.52-.73,20.33.11,14.51.27,43.15.22,7.64,0,11.39-.47,20.84-.61l.24.3,12.83-.43,6.83.31,8.87-.16a64.48,64.48,0,0,1-7-.16c6.92-.13,15.36-.15,22.12-.12l8.46.08c2.13,0,3.44.07,3.53.11l32.76-.54c-.72.13-6.21.22-10.55.34,17.49-.47,3.18.29,19.21-.13-2.15-.06,1.16-.2,1.52-.26,8,.11,26.18,0,39.64-.24l-2.58.24,78.51-.78c-9.78,0-7.54-.4.46-.51l3.2.3c5.17-.25-8.35-.05,2.25-.39,10.19,0,6.85.31,1,.47l12.39-.22c.73.09-2.18.16-2.93.3,5.08-.25,21.38.14,28.72-.28l.69.09,61.85-.66c.44-.28,9.12-.3,15.74-.58,16.32,0,34.44,0,54.11-.18,13.82-.26,4-.28,10.25-.5,1,.25,20.66,0,10.48.33,23.6-.25,30.15-.32,60-.78-3.24-.08-6.88-.09-5-.2,5.42-.09,12.33,0,11.55.13l-1.43,0c33.51-.67,77.36.08,104-.69l-1.5,0,27.67-.52c12.73-.06-7.63.26,1.79.34,29.85-.69,47.17-.35,71.75-.85,19,.6,67.52-.63,93.21-.37l-1.49-.17c6.64-.23,8,0,12.93,0-.7-.13-7.21-.1-3.09-.23l10.59-.12,5.32-.06,2.67,0,2,0h.43l0-.13.17-.55.34-1.09,1.59-5.19q.75-2.58,1.52-5.16,1.49-5.19,3-10.39c3.88-13.91,7.49-28,10.73-42.29s6.09-28.66,8.3-43.13a323.11,323.11,0,0,0,4-43.56c.06-5.31-.13-8.73-.33-11.27s-.44-4.22-.72-6-.55-3.86-1.08-7.06a87.19,87.19,0,0,0-3.4-14.05,65.13,65.13,0,0,1,2.5,7.28c-.29-1.32-.71-2.62-1.07-3.93s-.83-2.61-1.35-3.88a44.43,44.43,0,0,0-3.62-7.44c-.38-.59-.73-1.19-1.13-1.76l-1.26-1.68c-.86-1.07-1.76-2.09-2.64-3.13s-1.81-2-2.75-3-1.85-2-2.85-2.94a137.42,137.42,0,0,0-12.35-10.77c-4.35-3.3-8.83-6.42-13.47-9.29-18.56-11.47-38.75-19.67-58.65-25.95,2.39.69,2.5.61,6.35,1.94-4.12-1.6-11.9-4.06-18.71-6-3.41-.94-6.56-1.8-8.88-2.36l-2.78-.67a7.23,7.23,0,0,0-1.07-.21c-6.3-1.62-1.42-.54-5.28-1.62-8.54-2.32-21.7-4.69-26.26-5.84-.77-.2,2.45.41,4,.74l-6.42-1.26c-2.65-.53-5.6-1.1-8.21-1.57-5.21-1-9-1.57-6.36-1-15.4-2.87-29.58-4.67-41.94-6.43-4.06-.37-10.7-1.23-16.66-1.92s-11.25-1.25-12.55-1.18c.58-.16-6.23-1-14.43-1.74s-17.79-1.5-22.73-1.76c3.31.12-8.57-.8-4.69-.69-11.26-.84-21.59-1.38-19.64-1-20.72-1.88-41.75-1.85-53.42-3C1291,22.43,1260,21.88,1229.9,21c1.1-.39,33.31,1,32,.45-28.59-.62-45.09-.83-73.43-1.93-7.33-.32,4.18-.05,6.66,0-28.56-.82-55.21-2-80.63-2.62,0,0,.74,0,1.76,0l3.65.07c-5-.16-11.65-.47-11.09-.24l4.89.11c8,.57-19.91-.06-20.81.07,8.52-.3-25.09-1-11.57-1.28-3.3-.08-7.43-.12-6.68.05-4.89-.21-6.44-.34-1.48-.33-17.94-.48-11.57-.05-27.82-.59.06-.09,3.34,0,5-.09-8.23-.07-16.51-.15-30.24-.66.83,0-.76-.16,3.34,0-23.59-.71-40.23-.72-66.1-1.64,7.65-.22-8.8-.39-10.16-.8l-13.92-.27,5.58.33c-12.19-.34-23-.34-33.45-.73l9.07.08-22.85-.51,12.93.47c-12.34-.12,1.31.5-14.92,0,3.3,0-12.19-.3-18.54-.67h0c-6,0-12.24,0-21.26-.32-2.34-.17,1.9-.37.37-.48-5.95.17-28.55-.52-36.09-.32,2.51,0,2.65-.22,1.82-.28L811,9c-5.65-.19-6.47-.24-5.55-.38-17-.36,5.38.56-14.77,0,1.58,0,.82,0,4.12,0-20.25-.46-39.13-.48-57.74-.85-5.49-.45,16.26.12,10-.28-26.84-.3-55.57-.21-81.54-.45l4.84.07c-3.6.5-19.34-.39-32.47-.17,3.21,0,4.21-.28,3.35-.23-17.79-.14-36.37,0-63.32.3l3.34-.15c-10.48-.09-27.6.07-38.92.1-3.36.17-9.84.21-5.9.37-34.92-.45-66.58,1.29-97.55,1.44,3.7-.1,8.82-.34,5.87-.27l-26.37.84c2.09.17,3.46,0,9,.06-3.34.23-10.78.55-17.31.76,11.85-.52-.11-.37-5.24-.33.86,0-.89.17-.46.23-13.78.06-2.29.52-21.1.93l1-.16c-7,.32-13.51.74-21.1,1-3.16-.14,7.48-.44,8-.68-10.66.45-21,1.4-30.66,1.61,4.52-.31,11-.59,15.55-.88-10.52.17-11.73.3-19.54.64l.77,0-18,.8,4.59-.17c-13.29,1.42-27.13,1.64-45,3.33,17.41-1.6,2.87-.45,4.18-.84-4.59.21-11.56.63-9.58.4-8.46.85-14.17.83-26.1,2.15-.54-.05-9.06.75-7.17.35-11,1,2.62-.06,1.7.15-16.94,1.76-39.93,3.18-64.21,6.63-10.47,1.39-16.66,2.37-22.65,3.35s-11.79,1.95-21.44,3.62c-3.28.47-2,.15.18-.27l5.11-.95c-10.57,1.55-18.48,3-28.34,5,2-.46-.09-.16-3.12.36-4,.81-5.26,1.17-6.88,1.6s-3.56.85-8.77,2c1.76-.51,4-1.22,7.8-2.14-9.3,2.1-18.4,4.47-27.87,7.23-2.56.54,5.66-1.87,9-2.81-5.37,1.39-12.27,3.39-18.19,5.32S51.59,51.38,50,52.1c2.24-.79,4.47-1.58,6.73-2.29-3.81,1.31-2,.45.77-.55,4.47-1.61,7.76-2.59,10-3.17a33.83,33.83,0,0,1,3.66-.86l-6.71,2.05c3.53-.76,10.27-2.81,17.92-4.81s16.18-4.08,23.1-5.48q-2.83.78-5.67,1.62c2.34-.58,4.7-1.12,7.05-1.65s4.71-1.06,7.07-1.57c3-.47,5.16-.64-1.67.73,5-.86,7.18-1.29,9.2-1.69s3.87-.77,8.18-1.38c.95-.12.52,0-.35.14,3.24-.61,6.49-1.16,9.73-1.73-1.9.39,1.67,0-4.33.93,17.54-2.6,28.25-4.52,34.92-5.08l-1.47.22L179.09,26c1.65-.24,1.75-.3,1.66-.34s-1.14-.12,8-1.36l12.44-.63,2.38-.55c2.52-.25,7.52-.75,6.61-.53,9.39-1.14-1.62,0,3.83-.71,12.18-1,33.56-3.18,36.35-2.9,4.35-.59-11.67.77,1.33-.45,3.75.23,15-1.28,26.19-1.8-3.4.51-14,1.11-2.8.56,6.69-.94,21.71-1.36,31.11-2,.21-.19,5.32-.54,12.35-.93l23.87-1.28c-1,.14,29.73-1.18,44.43-1.54l-.43.08c2.83-.49,18-.94,29-1.35-.42.23-2.41.37-8.38.67l10.37-.33c2.45-.18,5.69-.35,12.42-.57l-2.61.34c13.82-.4,27.82-1.05,45.6-1.21,1-.28-14.15-.44,4.65-1,.7.12,1.4.35-3.52.49,1.61-.05,5.74-.22,9-.22l-7.51.37c8.1,0,4.23-.27,10.71-.37-.13.2,4.79.07,3.87.24-1.66,0-5.65,0-8.13.13,7.3-.09,16.13-.12,19,0-.64-.11,0-.27,5.34-.37,13.82-.2,4.73.17,12.79.17,3.35-.18,12.17-.13,12.4-.43,4,0,4.79.1,6.35.16,7.15-.22,33.41-.28,25.35-.54h-1.84l1.17,0h0c23.45-.44,48.71,0,72-.06l0,.1c13.89-.08,30.91.07,40.83-.07,4.11,0,9.69.25,7.94.35,10.61,0,11.8-.09,27.13.23-10.67.06,3.68.19-10.93,0,13.79.22,16.91.41,31.72.32-5,.19,10.38.45,16.94.46l-9.66-.31c7.37.06,13.81.18,20.36.29l-3.54.28c28.21.82,50.9.14,72.37,1.25,7.47-.09-15.32-.47-8.64-.61,13,.3,26.5,1.06,30.56,1.15,17.78.58,16.6-.12,35.2.44-2.37-.17-4.61-.54,9.3-.32,13,.37,16,.9,7.75.79-3.12-.07-4.62-.15-4.49-.18-4.19-.07-9.7-.15-4.56.11l1.69-.08c6.44.28,24.31.72,20.1.81,9.82.14,4.21-.09-3.06-.34,16.65.6,26,.69,43.17,1.28-2.73-.14-5.23-.35-2.52-.27,25.15.86,11.08.08,28.12.53,9.68.46-3.48.32,13.68.68,10.47.44,2.21.38-2,.36,15.64.23,29.2,1,38.12,1.36l-8.23-.16c4.92.1,8.95.22,13.06.36l-4.69-.39,6.26.25a18.67,18.67,0,0,1,2.56.17c5,0-3.79-.52,6.1-.41,6.43.33,19.62.51,21.84.9-20.26-.77,2.22.39-14.93-.12,3.31.07,7.35.2,12.19.4.73.06-.68,0-2,0,19.38.92,8.93-.06,29,.62-2.56.09,4.65.49,7.93.57-8.1-.28-3.86-.43,3.57-.31,12.88.58,14,.38,20.76.63l-7.7-.34c2.61-.08,9,.16,18,.42.76.17-8.16-.19-5,0,10,0,22.53,1.11,36.44,1.39,6.44.35.61.36,6.26.64,15.6.32,16.87.84,33.26,1.22-4.71-.4-5.54-.37,6-.2l-26.94-.78,17.3.26c-8.13-.28-17.16-.45-22-.66,8.24.09,7.39.12,3.51-.21,11.11.75,22.06.57,34.91,1.25l-.42.58c19.32,1,34.36.78,59.46,1.67l-8.07-.34c3.38-.14,15.5.43,23.63.6-.76.17,4.31.41,7.78.65-.42-.17,18.36.67,20.66.38l11.18.73c20.25,1,23.14.51,42.59,1.73-5.87-.14,3,.52-10.08-.09l8.62.51a36.39,36.39,0,0,0,3.82.14c3.79.33,18,.93,24,1.59,2.74.13,3.65,0,10.93.6.79.1,0,.09,0,.09s11.4.86,5.06.08c10,1.17,23.9,2.5,37.49,4.06s26.82,3.36,35.4,4.93c7,1,14.75,2.27,22.29,3.59s14.9,2.74,21.2,4.1a13.44,13.44,0,0,1-2.44-.44l9.3,2c2.13.44,3.56.68,5,1,3,.57,6.29,1.14,16,3.82,5,1.48,2.34.83-.73,0s-6.61-1.67-3.5-.84a41.33,41.33,0,0,0,5,1.58l9.39,2.59c7.16,2,15.57,4.62,21.91,7.06l-3.12-1c4.88,1.76,10.84,3.9,17.5,6.51a217.63,217.63,0,0,1,21.5,9.73s-.76-.32-.14,0a166.73,166.73,0,0,1,20,11.59c3.74,2.48,7.42,5.31,10.94,8.16,1.72,1.48,3.43,2.93,5,4.41.78.76,1.56,1.5,2.33,2.23l1.14,1.09,1.06,1.12c-.9-.89-1.71-1.63-2.37-2.22l-1.46-1.32c-.62-.55-.51-.39.51.77,2.65,2.51,2.3,2.1,2.65,2.29a10.34,10.34,0,0,1,1.4,1.26l1.86,1.89c.77.86,1.71,2,2.9,3.35.38.46.8,1,1.21,1.61a22.68,22.68,0,0,1,1.32,2,35.19,35.19,0,0,1,2.38,4.56,44.28,44.28,0,0,1,1.6,4.23A19.47,19.47,0,0,1,1682,129a43.2,43.2,0,0,0-5.8-12.2c.5.7.9,1.54,1.41,2.35s.91,1.75,1.4,2.67a58.21,58.21,0,0,1,2.44,6,68.72,68.72,0,0,1,3,12.14l-.3-.89c.86,5.17,1.22,9.12,1.47,12.45s.37,6.05.44,8.82.11,5.59,0,9.14-.28,7.82-.76,13.47l.3-2.33c-.29,6.21-.66,8.79-1,11.37s-.71,5.14-1.42,11.3l-.92,3.65c-.54,4.06-1.57,11.16-2.93,19s-3,16.52-4.6,23.7c.76-4.1,2-10.36,3.18-16.92s2.33-13.43,3.09-18.69c-.64,4-1.82,10.8-3,17.1s-2.37,12.11-2.72,14.2c.66-3.21,1.4-7.26,2.09-10.42-1.65,9.83-4.28,22.69-8.26,38.39,0-1.49-2.61,8.75-6,20.65-1.68,6-3.54,12.34-5.29,17.9-.18.54-.35,1.08-.52,1.61,0,.22-.25.11-.39.14h-.77l-3.78,0c-2.35,0-4.35-.06-5.81-.12-28.66.53-56.86.37-90.26.7,11.85.5-9.74.11-7.69.7-7.77.11-10.74.12-11.44.09l-23.57-.16c-5.59-.13,7.4-.2,6.68-.33-17,.1-7.15-.2-18.42-.27,2.32.2-5.92.37-15.62.37l13.67.16c-23.8.53-20.58-.33-44.56.2l7.59-.26c-12.31.22-45.41.39-57.47,1-2.18-.06-5.06-.2.36-.29-29.42.18-65.48,1.09-88.35,1l2.23-.17c-5.48.09-9.55.36-16.42.27.35-.06,2.21-.17-.33-.15-2.91.07-14.58.38-21.85.36l6.21-.22c-28.69.05-44,.79-68.09,1.1a16.94,16.94,0,0,0-3.67-.24c-2.29-.06-5.46-.1-9-.11h-21.14l.39-.07c-33.41.24-56.75.86-87.69,1.3-19.21-.31-65.07.37-95.93.37,4.72,0-.77.35-6.26.44-7.24,0-20,.48-18.87.06h2.58c-5.46-.35-20.35-.12-32,0l-1.92.55c-30.41-.51-79.66,1-96.26.43l-23.69.47.39-.29c-20.34.1-30.48.16-55.61.44l5.12-.25c-14.17.11-17.89,1-31,1.11l-3.94-.39c-24.73.22-49.76.06-74.19.66a34.45,34.45,0,0,1,5.13-.25c-11.64.09-45,.11-40.79.65a29.59,29.59,0,0,0-4.32-.12c-2.61,0-6.21,0-10.22.11l-24.33.48,2.08-.3c-11.27.45-11.63.56-27.37.79-3.73,0-3.27-.19,1.69-.17-12.43,0-9.69.35-24.76.33l5.62-.22c-12.79.09-11.78.17-18.82.44-8,.18-24.26.14-26.15-.09-1.72.17-8.72.43-16.26.42-1-.08,1.73-.17,3.11-.21-21.39,0-31.8.6-46.51.46a15.18,15.18,0,0,0-2.48-.15l29.39-.21c0-.26-13.73-.18-2.81-.63-11,.29-29.85.87-43.23.87-.64,0-1.28,0-1.76-.08l1.38,0c-3.09,0-5.85,0-8.46.12l-11.07,0c-1.59-.2-15.74,0-22.58.07.57.27-8.39.31,0,.46-1.09,0,1.29,0,5.84-.09l2.92-.06-.47,0,17-.16c-5.4.19-11.05.36-18.62.27l-9.55.53c-9.36-.31-27.41-.36-29.93-.58-20.89.33-49.22.53-62.35,1.17-5.94.12-6.83-.09-9.05-.16,3.43-.08,7.51-.11,9.36-.2-11.87.24-35.19.36-38,.75-15,0,8.41-.41-12.16-.17l2.78-.14c-40.47-.24-65.78,1.51-110.65,1.15,3.11,0,4.66,0,5.3.08-25.58.05-51.93.36-78.19.64l-39.23.37-2.43,0H14.27c-.1,0-.08-.07-.09-.14l0-.2c-.15-1.5-.31-3-.46-4.5-.31-3.21-.62-6.42-.93-9.61q-.91-9.57-1.69-19c-1.21-14.29-1.56-15.82-2.5-24.53l.05-3.12L7.06,252.17c-1.87-21.15-2-36.7-3.85-63.5l0,3.47c-.11-2.41-.26-5.53-.41-8.81s-.31-6.76-.42-9.87c-.25-6.23-.33-11.06-.2-10.26-.06-1-.31-3.15-.28-6.93L2,156c-.1-3.95-.25-7.9-.29-11.85l-.1-5.92v-5.92c.2-9.19.42-8.46.55-8.79s.15-1.74,1.08-15.06C3.38,106,3.7,103,4,99.93c.11-1.53.39-3,.58-4.52.1-.73.2-1.46.29-2.17s.27-1.38.4-2c.27-1.3.46-2.52.74-3.54s.54-1.87.72-2.51c.36-1.29.48-1.73.15-.86l-1,3.11c-.38,1.08-.56,2.23-.84,3.24s-.5,1.92-.64,2.59a6.94,6.94,0,0,1-.29,1.18c.18-1.51.55-3,.85-4.46.17-.74.3-1.49.5-2.23l.68-2.16c0-.43.14-1.19.2-1.75s.11-.89-.15-.55a22.52,22.52,0,0,0-1.59,3.82c-.43,1.19-.74,2.74-1.24,4.65-.27,1-.42,2-.64,3.2S2.26,97.39,2,98.79c-.22,2.61-.53,5.21-.68,7.82S1,111.82,1,114.43l-.47,5,.31-6.58.48-6.58c-.39,3.73-.65,6.78-.71,9.56s-.15,5.29-.14,7.94c-.14,1.25-.31,3.44-.4,6.54L.17,138l.26,7.67C.26,147.54,0,138.8,0,149.09c.33,7.18.29-6.89.63,5a137.6,137.6,0,0,0,.15,14c-.08,1.24-.22-.62-.37-4.09.17,3.9.39,9.06.59,13.75s.46,8.89.67,10.9c.1,7.79,1.51,26.29,1.05,25.55.25,2.44,1.22,13.69,1.77,20.83-.74-6.51-.27.18.3,8.07s1.3,17,.88,15.27C6.9,268,8.83,293.27,10.8,310.31c-.13-.95-.39-2.82-.51-4.33.9,9.62,1,12.43,1.59,18.61a5.91,5.91,0,0,1,.25,1.05c0,.27.09.58.15.94,0,.17.06.36.09.55l.12.87c0,.36.09.73.14,1.12,0,.19,0,.38.08.57s0,.12,0,.13h.47l2.35-.07,3.49-.11,14.76-.43c11.83.27-7.18.52-3.46.85-.6-.31,20.55-.49,16.53-.72,9,.15,7.79,0,12.46.33,1.58-.51,8.42-.16,15.92-.52,13.1.12,3.38.43,17.76.15C99.87,329.38,87.07,329.67,87.07,329.67Zm342.11-3.82h0l-7.06.08Zm28.75-.25-12.47.1c-1-.09.08-.2,3-.22C446.86,325.56,453.64,325.55,457.93,325.6Zm-60.83-1.42c4.55-.08,6.08,0,6.7,0l-8,.11-.53,0A17.63,17.63,0,0,1,397.1,324.18Z"/><path class="cls-1" d="M388.92,324.62l-1.87,0,2.71,0,1.61-.11Z"/><path class="cls-1" d="M563.19,7.87h.61l-1.28,0Z"/><polygon class="cls-1" points="854.93 322.69 854.89 322.62 852.38 322.71 854.93 322.69"/><path class="cls-1" d="M404.85,9.77c-.3,0-.9,0-2.08,0C402.86,9.78,403.76,9.77,404.85,9.77Z"/><path class="cls-1" d="M336.49,12.49l-9.67.39Z"/><path class="cls-1" d="M284,15.39a6.24,6.24,0,0,0-1,.19h.1Z"/><path class="cls-1" d="M1119.94,16.93l2,.06C1126.73,17.1,1123.49,17,1119.94,16.93Z"/><path class="cls-1" d="M871.18,10.2l8,.06A72.17,72.17,0,0,0,871.18,10.2Z"/><path class="cls-1" d="M1397.64,27.61h0l1.72.13Z"/><path class="cls-1" d="M890.75,10.54c-4.43-.16-8.13-.24-11.57-.28C882.81,10.36,887.09,10.49,890.75,10.54Z"/><path class="cls-1" d="M58.73,48.48l-2.41.81s-.09.07-.27.14Z"/><path class="cls-1" d="M56.05,49.43c-.89.32-1.78.62-2.66,1C54.61,50,55.68,49.6,56.05,49.43Z"/><path class="cls-1" d="M47.84,52.52c1.84-.75,3.7-1.42,5.55-2.14C51.46,51.1,49.06,51.93,47.84,52.52Z"/><path class="cls-1" d="M126.58,32.6l.77-.23A2.6,2.6,0,0,0,126.58,32.6Z"/><path class="cls-1" d="M147.48,29.2c-5,.74-12.56,1.7-19.5,3l-.63.19C130.58,31.62,142.76,30.07,147.48,29.2Z"/><path class="cls-1" d="M235.35,20.36l-17.66,1.55c3.1-.19,7.17-.43-.85.37C239.11,20.51,212.22,22.43,235.35,20.36Z"/><path class="cls-1" d="M290.16,16.37c-9.5.69.12.15-.37.25C295.81,16.14,297.27,16,290.16,16.37Z"/><path class="cls-1" d="M687.21,8.29l-1,.25C693.59,8.57,686.32,8.44,687.21,8.29Z"/><polygon class="cls-1" points="763.16 7.87 756.02 7.6 752.61 7.79 763.16 7.87"/><polygon class="cls-1" points="807.98 10.45 804.78 10.43 817.02 10.56 807.98 10.45"/><path class="cls-1" d="M1474.28,37.94l-2.15-.62C1467.2,36.75,1466.13,36.94,1474.28,37.94Z"/><path class="cls-1" d="M1685.28,180.33c-.35,3.11-1.23,11.14-1.71,16.1C1684.39,190,1685.09,183.62,1685.28,180.33Z"/><polygon class="cls-1" points="931.29 319.51 937.09 319.35 926.17 319.53 931.29 319.51"/><g class="cls-2"><path class="cls-1" d="M17.33,95.87c-.34.94-.39,1.15-.1.49.13-.33.39-.87.75-1.65.17-.39.38-.83.61-1.34l.93-1.62a35.2,35.2,0,0,1,2.05-3.37A34.17,34.17,0,0,0,17.33,95.87Z"/><path class="cls-1" d="M44.14,71.23C49.78,68.08,56.6,65,52.7,66.58a120.73,120.73,0,0,0-13.06,7.09c-4.72,2.83-8,5.31-7.31,4.69-.4.28-1,.76-1.74,1.35S29,81,28.13,81.74a43.47,43.47,0,0,0-4.36,4.33c4.91-5.25,12.32-10.64,20.67-15.13C46.25,70,44.53,71,44.14,71.23Z"/><path class="cls-1" d="M574.78,4.85l-3.46.09Z"/><path class="cls-1" d="M907.7.74c-2.54,0-3.6,0-3.73,0C906.33.76,908.26.75,907.7.74Z"/><path class="cls-1" d="M964.54,1.19l-3.35,0C962.47,1.18,963.75,1.2,964.54,1.19Z"/><path class="cls-1" d="M574.78,4.85l8.9-.22C584.3,4.56,579.12,4.73,574.78,4.85Z"/><path class="cls-1" d="M114,46.91c-1.82.42-3.31.83-4.69,1.18,1.49-.37,2.92-.74,4.41-1.09Z"/><path class="cls-1" d="M428.15,11.28l-2.69.15-2.24.19Z"/><path class="cls-1" d="M315.8,19.2c2.54-.22,3.41-.44,4.38-.58-1.43.18-3.3.37-5.53.58A5,5,0,0,0,315.8,19.2Z"/><path class="cls-1" d="M138.78,42.11l-3.11.64Z"/><path class="cls-1" d="M508.68,7.4c.19,0,.6,0,1,0h-1Z"/><path class="cls-1" d="M3.36,225.52c0,.1,0,0,0,0C3.4,224.86,3.4,224.66,3.36,225.52Z"/><path class="cls-1" d="M17.67,96l-.57,1.72a1.29,1.29,0,0,0-.05.4Z"/><path class="cls-1" d="M1068.57,2.48h-.47C1065.37,2.45,1066.92,2.47,1068.57,2.48Z"/><path class="cls-1" d="M1535.78,303.74c10.82,0-17.61.41-1.32.32C1533,304,1549.26,303.62,1535.78,303.74Z"/><path class="cls-1" d="M116.83,46.27l4.5-1C119.27,45.68,117.9,46,116.83,46.27Z"/><path class="cls-1" d="M1534.46,304.06Z"/><path class="cls-1" d="M1308.2,8.15,1305.76,8C1305.84,8,1306.39,8.05,1308.2,8.15Z"/><path class="cls-1" d="M1129.69,3.2l4.42.11Z"/><path class="cls-1" d="M1400.72,13.77l6.47.59-1-.11C1405,14.17,1403.44,14,1400.72,13.77Z"/><path class="cls-1" d="M1496.45,25.54l-1.75-.32-3-.48Z"/><path class="cls-1" d="M193.69,324.55c-2.12,0-3.43,0-4.46-.07C190.72,324.56,176.54,324.81,193.69,324.55Z"/><path class="cls-1" d="M114.05,47c.54-.17,1.34-.37,2.78-.71L113.7,47C113.43,47.09,113.38,47.12,114.05,47Z"/><path class="cls-1" d="M1404.73,13q7.63.69,15.27,1.47C1415.73,14,1410.18,13.49,1404.73,13Z"/><path class="cls-1" d="M886,314.4l-3.52.06Z"/><path class="cls-1" d="M1465.22,19.73l8.54,1.28,1.77.22Z"/><path class="cls-1" d="M189.2,324.48h0Z"/><path class="cls-1" d="M88.21,326.29c14.61-.2,6.86-.28,10-.43,17.44-.31,8.07,0,14,0,10.89-.21,19.23-.5,27.35-.61.61,0,2.19,0,.34.07,11.51-.31,34.17-.51,47.58-.89l1.75,0c-2.17-.06-2.51-.15-2.07-.22,6.55-.1,12.16-.29,14.62-.21-4,.06-4.34.11-6.22.17l6.86-.15c3.09,0,.75.09-2.37.15l-4.67.08-1.67.05a3.71,3.71,0,0,0-.66,0c13.38-.26,29-.63,39.23-.73,2.15.14-24,.41-10.29.36l-15.87.17c12.13.09-9.64.12,1.51.24l44.18-.68c4.69-.16-1.55-.12,3.13-.28,29.6-.6,23.31.09,45.07-.46,5.64-.19,7.82-.44,23.31-.55l-5.28.27c20.22-.28,11.54-.45,32.71-.63-3.76.13-15.88.3-12.83.27,13.72,0,9.7-.25,20.25-.4l2.18.14,69.07-1.19c-1.32.07-5.4.18.17.15,30.06-.53,64.18-.92,93.18-1.24l11.07-.31c2.58,0,4.78,0,2,.06,11.3-.1.59-.1,6-.23,6.43-.11,8.49,0,4.42.06,19.94-.42,56.8-1.1,77.82-1.25l-4.1.1c16.36-.18,18.46-.57,33.64-.65l-2.91.07c35.51-.46,74.75-1.17,101.85-1.34,5.15-.29,35.14-.42,37.42-.75,20.28-.15,14.48,0,43-.33,7.63-.1,11.37-.35,20.8-.52l.23.15,12.8-.35,6.81.08,8.85-.17c-3.53.05-7.49.05-7,0,6.91-.13,15.33-.23,22.07-.28l8.44-.05c2.12,0,3.43,0,3.51,0l32.69-.61c-.73.08-6.2.18-10.53.28,17.44-.41,3.17.12,19.16-.26-2.15,0,1.15-.11,1.52-.15,8,0,26.11-.29,39.53-.52l-2.58.14,78.32-1.19c-9.76.09-7.52-.13.46-.26l3.19.12c5.15-.18-8.34.06,2.24-.22,10.16-.13,6.83.08,1,.22l12.35-.24c.73,0-2.17.11-2.92.18,5.07-.17,21.33-.14,28.64-.43l.7,0,61.69-1c.43-.15,9.09-.25,15.69-.46l54-.64c13.79-.28,4-.18,10.23-.36,1,.12,20.6-.18,10.44.06l59.85-1c-3.23,0-6.87,0-5,0,5.4-.1,12.29-.13,11.52-.06l-1.43,0c33.42-.68,77.15-.76,103.76-1.41l-1.49,0,27.6-.54c12.7-.16-7.62.21,1.78.15,29.77-.65,47-.66,71.56-1.16,19,.1,67.35-1,93-1.15l-1.48-.06c6.61-.19,8-.07,12.89-.12-.7-.06-7.19,0-3.08-.08l10.58-.17h.57c.09,0,.21,0,.27,0l.12-.26.37-.83.53-1.22,1.06-2.44c.69-1.63,1.39-3.26,2.08-4.9q4.15-9.84,8.09-19.9c5.25-13.39,10.27-27,14.88-40.86s8.84-27.83,12.35-42c1.76-7.08,3.34-14.19,4.63-21.34s2.33-14.33,2.94-21.53c.42-5.27.44-8.67.43-11.2s-.14-4.21-.29-6.05c-.06-.92-.15-1.88-.27-3s-.26-2.43-.48-4c-.09-.8-.27-1.67-.42-2.63s-.39-2-.64-3.15-.62-2.38-1-3.75-.91-2.8-1.59-4.34a47.91,47.91,0,0,1,2.59,7.17,49.12,49.12,0,0,0-2.65-7.65,33.74,33.74,0,0,0-4.26-7,126.35,126.35,0,0,0-11.19-11.72,160.26,160.26,0,0,0-26.27-19.08,239.91,239.91,0,0,0-28.87-14.43c-9.84-4.17-19.79-7.79-29.7-11,2.37.75,2.46.69,6.3,2-2.06-.76-5-1.72-8.32-2.82s-6.92-2.18-10.31-3.14-6.52-1.84-8.82-2.45l-2.75-.72a9.1,9.1,0,0,0-1.06-.24c-6.26-1.65-1.43-.47-5.28-1.53-8.51-2.3-21.55-5-26.1-6.07-.78-.18,2.43.47,4,.82L1530,30.7c-2.63-.55-5.56-1.15-8.16-1.65-5.18-1-9-1.69-6.31-1.13-15.32-3-29.42-5.07-41.73-6.91-8-1.05-26.47-3.58-29.06-3.63.57-.05-6.21-.91-14.38-1.78s-17.71-1.76-22.62-2.15c3.29.22-8.54-.84-4.68-.59-11.21-1-21.5-1.72-19.56-1.46-20.66-1.86-41.6-2.56-53.24-3.49-33.4-1.59-64.33-2.42-94.39-3.14,1.09-.22,33.23.88,32,.63l-73.26-1.69c-7.32-.2,4.16,0,6.64,0-28.5-.58-55.1-1.24-80.45-1.57,0,0,.73,0,1.75,0l3.64,0c-5-.09-11.62-.24-11.06-.13l4.87.06c8,.28-19.85,0-20.74,0,8.48-.16-25.05-.47-11.57-.63-3.29,0-7.41-.05-6.66,0-4.88-.09-6.43-.15-1.48-.16-17.9-.21-11.54,0-27.76-.23,0,0,.86,0,1.9,0l3.11,0c-8.21,0-16.46,0-30.17-.22a17.12,17.12,0,0,1,3.32,0L963.92.41c7.62-.16-8.78-.13-10.15-.32l-13.89,0,5.57.12L912.08.11l9,0L898.33,0l12.9.1c-12.31.06,1.32.24-14.87.15,3.29,0-12.17,0-18.51-.13h0c-6,.06-12.21.12-21.2.09-2.34-.06,1.88-.21.36-.25-5.94.16-28.49.11-36,.31,2.51,0,2.64-.14,1.82-.16l-5,.15c-5.63,0-6.45,0-5.54-.11-17,.07,5.38.2-14.73.22l4.11-.07c-20.2.06-39,.37-57.59.52-5.48-.13,16.21-.23,9.94-.31-26.76.31-55.42.92-81.32,1.37l4.83-.07c-3.58.33-19.29.23-32.38.65,3.2-.09,4.2-.24,3.33-.19-17.73.35-36.26.9-63.12,1.77l3.33-.17c-10.45.25-27.52.82-38.81,1.18-3.35.19-9.8.4-5.88.36-34.81.86-66.35,2.84-97.22,4.14,3.69-.2,8.79-.52,5.85-.37L426.4,10.7c2.09,0,3.45-.13,9-.34-3.32.25-10.73.72-17.24,1.1,11.81-.76-.11-.19-5.22.06.86,0-.89.13-.45.14-13.74.63-2.29.35-21,1.4l1-.12-21,1.5c-3.14.08,7.45-.58,7.93-.72-10.62.73-20.92,1.72-30.54,2.32l15.49-1.22c-10.47.6-11.68.73-19.45,1.3l.77-.05-18,1.36,4.58-.33c-13.24,1.43-27,2.32-44.84,4.27,17.33-1.87,2.85-.4,4.17-.68-4.57.38-11.5,1-9.53.79-8.42,1-14.09,1.33-26,2.8-.53,0-9,1-7.12.67-10.95,1.3,2.6-.22,1.68,0-16.86,2.06-39.69,4.48-63.82,8.38-10.41,1.63-16.56,2.73-22.51,3.81S152.55,39.26,143,41.16c-3.25.59-1.93.28.2-.16l5.07-1c-10.47,1.91-18.32,3.52-28.1,5.79,2-.48-.08-.08-3.07.57-3.92.91-5.22,1.27-6.83,1.71s-3.54.9-8.69,2.21c1.75-.5,4-1.2,7.75-2.16-9.21,2.31-18.24,4.85-27.6,7.82-2.52.69,5.62-1.9,8.94-2.88-5.31,1.52-12.14,3.68-18,5.74s-10.71,4-12.27,4.74c2.2-.85,4.4-1.72,6.63-2.51-3.77,1.41-2,.61.79-.44,4.43-1.68,7.67-2.76,9.87-3.43s3.33-1,3.59-1.06l-6.64,2.21c3.46-1,10.12-3.22,17.7-5.39s16-4.41,22.91-6c-1.9.51-3.78,1-5.66,1.58,2.32-.62,4.66-1.2,7-1.76s4.68-1.14,7-1.68c3-.61,5.09-1-1.69.58l9.13-2c2-.45,3.84-.85,8.11-1.64.94-.17.51-.07-.35.11,3.21-.68,6.44-1.3,9.67-1.94-1.89.4,1.63-.16-4.32.94,17.4-3.21,28.07-5.16,34.68-6.06l-1.46.25,10.88-1.75c1.64-.27,1.74-.3,1.65-.32s-1.12,0,8-1.38l12.33-1.34,2.37-.47c2.52-.33,7.49-1,6.58-.8,9.34-1.29-1.61.14,3.81-.65,12.11-1.44,33.38-4.05,36.15-4.08,4.34-.59-11.61,1.18,1.33-.32,3.72-.14,15-1.65,26.06-2.6-3.39.47-13.9,1.44-2.8.46,6.67-.9,21.61-2,31-2.85.11-.06,1.44-.2,3.61-.41L327,18l23.78-1.91c-1,.11,29.6-2.08,44.25-2.91l-.43.06c2.82-.37,17.93-1.28,28.92-1.94-.42.14-2.4.28-8.35.69l10.34-.6c2.43-.2,5.66-.42,12.36-.8l-2.59.28C449,10.15,463,9.27,480.67,8.55c1-.18-14.11.29,4.62-.65.7,0,1.4.12-3.5.37,1.6-.08,5.72-.32,9-.43l-7.48.45c8.07-.31,4.22-.29,10.67-.56-.12.1,4.78-.14,3.86,0-1.65.08-5.64.2-8.1.35,7.27-.3,16.07-.62,19-.66-.64,0,0-.13,5.32-.36,13.78-.55,4.72-.07,12.76-.34,3.34-.19,12.13-.45,12.35-.6,4-.15,4.78-.1,6.34-.12,7.13-.34,33.31-1.13,25.27-1l-1.83,0,1.16,0h0c23.37-.89,48.57-1.34,71.76-1.92l0,0,40.71-1c4.1-.08,9.67-.08,7.92,0,10.59-.21,11.77-.29,27.07-.43-10.65.24,3.67,0-10.91.23,13.76-.17,16.87-.13,31.64-.45-5,.18,10.36,0,16.9-.07h-9.64l20.31-.21-3.53.2C790.41,1.35,813,.68,834.46.94c7.45-.14-15.29,0-8.63-.19,12.95,0,26.44.19,30.5.18C874.07,1,872.88.67,891.44.75c-2.37-.06-4.61-.23,9.26-.26,13,.05,15.93.3,7.75.32-3.11,0-4.61,0-4.48-.05-4.18,0-9.68,0-4.55.1l1.69,0c6.43.07,24.26.13,20.07.21,9.79,0,4.19-.08-3.07-.14l43.08.28c-2.72,0-5.23-.14-2.52-.12,25.1.25,11.05,0,28.06.07,9.66.18-3.46.18,13.65.27,10.45.16,2.21.18-1.94.18,15.6,0,29.14.38,38,.51l-8.21,0,13,.13L1036.61,2l6.25.1c1.61,0,2.61.06,2.57.08,5,0-3.81-.24,6.06-.22,6.43.14,19.58.2,21.8.39-20.22-.34,2.23.19-14.89,0l12.17.17a11.06,11.06,0,0,1-2,0c19.34.43,8.89,0,29,.27-2.55,0,4.64.25,7.91.28-8.08-.13-3.86-.21,3.56-.15,12.85.29,14,.19,20.7.32L1122,3c2.61,0,9,.09,18,.23.76.08-8.14-.1-4.94,0,10,0,22.48.59,36.36.79,6.42.2.62.18,6.26.34,15.55.24,16.84.5,33.19.8-4.71-.23-5.54-.23,6-.06L1190,4.56l17.25.24-22-.46c8.22.09,7.37.1,3.49-.09,11.1.43,22,.41,34.83.86l-.4.28c19.28.64,34.27.71,59.3,1.63l-8-.32c3.36,0,15.46.5,23.56.78-.75.07,4.31.29,7.77.51-.42-.11,18.31.81,20.59.74l11.16.71c20.18,1.2,23.06,1,42.44,2.48-5.85-.32,3,.38-10-.47l8.58.62,2.74.19a8.61,8.61,0,0,0,1.08,0c3.77.34,18,1.29,23.88,1.95,2.73.2,3.63.19,10.88.88.79.1,0,0,0,0s.18,0,.48,0l1.21.1,3.21.29c2,.19,3.29.28.13-.09,9.93,1.15,23.82,2.68,37.35,4.43s26.71,3.73,35.27,5.28c7,1.13,14.68,2.48,22.19,3.9S1531.73,32,1538,33.45a23.43,23.43,0,0,1-2.42-.5c8.65,1.94,11.3,2.56,14.27,3.17s6.23,1.34,16,4c4.94,1.45,2.36.76-.7-.08s-6.59-1.72-3.49-.88c1.32.51,7.21,2,14.34,4.12s15.53,4.69,21.88,7.07l-3.11-1.07c9.76,3.49,23.89,8.45,39,16.08,0,0-.74-.34-.11,0a191.09,191.09,0,0,1,20.18,11.31,143.49,143.49,0,0,1,21,16.36c-.94-.85-1.73-1.61-2.4-2.18L1671,89.59c-.64-.53-.5-.39.62.67,1.39,1.18,1.93,1.74,2.22,2a2.27,2.27,0,0,0,.43.3c.15.11.47.38,1.41,1.24s2.45,2.4,5,5c1.49,1.85,4.15,4.62,5.8,7.58a23.58,23.58,0,0,1,1.13,2.15,16.57,16.57,0,0,1,.84,1.92c.23.58.44,1.08.58,1.48s.21.72.25.89c-.34-1.09-.84-2.12-1.26-3.17-.23-.52-.51-1-.76-1.52a14.54,14.54,0,0,0-.82-1.5,33,33,0,0,0-4.07-5.45c.55.68,1.18,1.39,1.76,2.16a27.93,27.93,0,0,1,1.72,2.49l.83,1.34.74,1.45c.53.95.9,2,1.35,3a53.06,53.06,0,0,1,3,12.11c-.07-.3-.12-.6-.21-.9a90.09,90.09,0,0,1,1,12.49c0,1.67,0,3.18,0,4.63s-.07,2.81-.15,4.19c-.14,2.76-.32,5.58-.7,9.1s-.91,7.76-1.86,13.35l.43-2.31c-.89,6.13-1.47,8.67-2,11.21s-1.11,5.06-2.44,11.1l-1.06,3.59c-.94,4-2.68,10.93-4.84,18.6s-4.74,16.08-7,23c1.23-4,3.14-10,5-16.43s3.71-13.08,5-18.23c-1,3.92-2.85,10.56-4.67,16.7s-3.59,11.78-4.2,13.8c1-3.12,2.2-7,3.15-10.13-2.75,9.55-6.74,22-12.29,37.21.31-1.42-3.28,8.48-7.83,20-2.26,5.75-4.76,11.89-7,17.24-1.14,2.68-2.22,5.17-3.17,7.31l-1.28,2.83a.3.3,0,0,1-.07.11h-1.9c-28.58.56-56.71.77-90,1.28,11.81.12-9.72.15-7.67.42-7.76.14-10.72.18-11.41.17l-23.51.16c-5.58,0,7.37-.18,6.66-.24-17,.23-7.13,0-18.37.06,2.31.08-5.9.25-15.58.35l13.63-.06c-23.73.51-20.52,0-44.44.55l7.56-.21c-12.27.24-45.29.67-57.32,1.09-2.17,0-5-.05.36-.15-29.34.39-65.3,1.22-88.11,1.4l2.23-.11c-5.48.1-9.53.28-16.39.31.36,0,2.21-.11-.33-.08-2.89.07-14.53.35-21.79.41l6.2-.18c-28.62.33-43.92.85-67.92,1.25a6,6,0,0,0-1-.06l-2.69,0-9,0-21.09.21.39,0c-33.32.46-56.6,1-87.46,1.55-19.16,0-64.89.85-95.68,1.17,4.71,0-.77.18-6.24.28-7.22.06-20,.45-18.83.23l2.58,0c-5.45-.12-20.3.15-31.89.31l-1.91.29c-30.33.06-79.45,1.31-96,1.2l-23.63.48.39-.15-55.46.8,5.11-.18c-14.14.2-17.85.67-30.89.87l-3.92-.16c-24.67.37-49.63.55-74,1.1.4,0,1.12-.11,5.12-.18-11.61.17-44.91.52-40.69.74-.07,0-1.7,0-4.31,0l-10.19.16-24.26.49,2.07-.17c-11.24.34-11.6.39-27.3.67-3.72,0-3.26-.06,1.68-.1-12.4.11-9.66.27-24.69.42l5.6-.17c-12.75.17-11.74.21-18.76.41-8,.18-24.2.32-26.08.22-1.72.11-8.71.31-16.22.38a21.13,21.13,0,0,1,3.09-.13c-21.32.22-31.71.62-46.38.7-.3,0-1.26-.05-2.47-.05l29.31-.4c0-.13-13.69,0-2.81-.29-11,.26-29.76.74-43.11.88l-1.76,0,1.38,0-8.43.15-11,.12c-1.58-.08-15.7.17-22.52.27.56.13-8.37.24,0,.23-1.08,0,1.29,0,5.83-.11l2.91-.05-.47,0,17-.26c-5.39.15-11,.29-18.57.32l-9.53.37c-9.34-.06-27.35.1-29.85,0-20.84.39-49.09.77-62.19,1.23-5.93.12-6.81,0-9,0l9.34-.19c-11.84.24-35.1.54-37.92.76-14.93.14,8.39-.29-12.13,0l2.77-.1c-40.36.3-65.61,1.44-110.36,1.71,3.1,0,4.65,0,5.29,0l-78,1.12-39.13.59-9.68.13-4.82.06-2.41,0H2.09s-.16,0-.16,0v-1.22q.1-9.6.3-19c.27-14.3.2-15.85.29-24.59l.22-3.09.19-14.94c.49-21.16,1.46-36.63,2.57-63.41l-.28,3.45C5.68,194,6.94,173.14,7,174.75c0-1,.11-3.15.43-6.9l.1-.29c.55-7.86,1.14-15.72,1.9-23.57.95-9.11,1-8.38,1.11-8.71s.2-1.71,2.11-14.93c.69-4.92,1.9-11.89,3.17-17.09.34-1.29.6-2.5.91-3.51s.59-1.87.8-2.51c.4-1.29.54-1.71.22-.84s-.69,2-1.06,3.11-.63,2.23-.92,3.23c-.59,2-.94,3.61-1,3.75.28-1.49.69-2.95,1.07-4.42.19-.73.36-1.47.58-2.19l.71-2.16c.08-.41.26-1.14.38-1.67s.21-.85,0-.48c-.3.75-2.13,4.29-4.35,15.28-.89,5.12-1.67,10.26-2.3,15.42l-.76,5,.85-6.5c.29-2.17.64-4.33,1-6.49-.62,3.67-1.07,6.68-1.39,9.43s-.61,5.23-.87,7.86c-.19,1.23-.51,3.4-.83,6.47-.45,5.08-.82,10.16-1.19,15.24-.24,1.84.39-6.84-.5,3.37-.46,7.15.74-6.82-.12,5-.64,7.41-.6,5.24-1.08,14-.13,1.23-.06-.62.14-4.08C5.6,183.26,4.8,196,4.75,200.06c-.58,7.74-1.18,26.23-1.36,25.46C3.32,228,3,239.21,2.81,246.35c.09-6.52-.14.16-.39,8s-.48,17-.58,15.24c0,9.66-.67,34.89-.68,52,0-1,0-2.84,0-4.35,0,2.41-.06,4.39-.08,6.1,0,.86,0,1.65,0,2.39,0,.29,0,.56,0,.84v.47c0,.15-.06.37.16.3l1.58,0,8,0c1.23-.21,16.22-.47,24.3-.71,11.8,0-7.16.33-3.45.46-.6-.15,20.5-.46,16.48-.53,9,0,7.78-.06,12.43,0,1.58-.26,8.4-.16,15.89-.42,13.06-.07,3.36.18,17.71-.1C101,326,88.21,326.29,88.21,326.29Zm341.22-5.41h0l-7.05.11Zm28.67-.42-12.43.17c-1,0,.08-.1,3-.14C447.07,320.55,453.83,320.48,458.1,320.46Zm-60.66-.09c4.53-.09,6.05-.08,6.68-.06l-7.94.13-.54,0C396.08,320.43,396.57,320.4,397.44,320.37Z"/><path class="cls-1" d="M389.28,320.67l-1.87,0h2.71l1.6-.06Z"/><path class="cls-1" d="M570.72,5l.6,0-1.27,0Z"/><polygon class="cls-1" points="854.06 314.93 854.02 314.9 851.52 314.97 854.06 314.93"/><path class="cls-1" d="M412.91,11.52l-2.07.09Z"/><path class="cls-1" d="M344.83,16.12l-9.62.71Z"/><path class="cls-1" d="M292.55,20.53c-.65.09-.84.13-1,.16h.1Z"/><path class="cls-1" d="M1126.1,2.2l2,0C1132.87,2.29,1129.64,2.24,1126.1,2.2Z"/><path class="cls-1" d="M877.89.16l8-.06h-5.6A22.25,22.25,0,0,0,877.89.16Z"/><path class="cls-1" d="M1403.05,12.86h0l1.71.15Z"/><path class="cls-1" d="M897.41.12c-4.41,0-8.11,0-11.54,0Z"/><path class="cls-1" d="M69,59.92l-2.38.87s-.09.05-.27.13Z"/><path class="cls-1" d="M66.38,60.92c-.88.34-1.76.65-2.63,1Z"/><path class="cls-1" d="M58.28,64.17c1.8-.8,3.65-1.49,5.47-2.24C61.85,62.69,59.49,63.58,58.28,64.17Z"/><path class="cls-1" d="M136.15,42.11l.77-.21A5.53,5.53,0,0,0,136.15,42.11Z"/><path class="cls-1" d="M156.88,38.14c-4.95.89-12.45,2.16-19.33,3.59l-.63.17C140.14,41.14,152.19,39.05,156.88,38.14Z"/><path class="cls-1" d="M244.15,26.24,226.6,28.31c3.07-.33,7.11-.76-.87.25C247.88,26,221.15,29,244.15,26.24Z"/><path class="cls-1" d="M298.69,20.65c-9.45.92.12.07-.38.15C304.31,20.2,305.76,20.06,298.69,20.65Z"/><path class="cls-1" d="M694.4,2.12l-1,.14C700.76,2.12,693.51,2.21,694.4,2.12Z"/><polygon class="cls-1" points="770.13 0.49 763 0.48 759.61 0.63 770.13 0.49"/><polygon class="cls-1" points="814.88 1.09 811.68 1.12 823.9 1.02 814.88 1.09"/><path class="cls-1" d="M1479.48,23l-2.16-.48C1472.42,21.84,1471.37,21.85,1479.48,23Z"/><path class="cls-1" d="M1690.11,164c-.52,3.08-2,11-3,15.88C1688.44,173.62,1689.64,167.29,1690.11,164Z"/><polygon class="cls-1" points="930.23 312.56 936.01 312.42 925.12 312.62 930.23 312.56"/></g><path class="cls-1" d="M1628.39,283.75c.82,0,.37-.1-1.89-.33h-1.62Z"/><path class="cls-1" d="M1613.25,281.78c-2.66-.21-5.73-.41-4-.07,2.64.13,3.27.27,6.12.39a19.29,19.29,0,0,1,3.54.5c.8,0,3.5.43,4.73.45-2.92-.44-6.64-.86-10.54-1.18C1612.24,281.74,1613.05,281.79,1613.25,281.78Z"/><path class="cls-1" d="M1393.17,254.56l1.41.22Z"/><path class="cls-1" d="M1257.24,234.51c1,.15,1.47.2,1.53.19C1257.81,234.57,1257,234.46,1257.24,234.51Z"/><path class="cls-1" d="M1234.09,230.72l1.37.23C1234.94,230.85,1234.42,230.76,1234.09,230.72Z"/><path class="cls-1" d="M1393.17,254.56l-3.63-.56C1389.28,254,1391.4,254.3,1393.17,254.56Z"/><path class="cls-1" d="M1582.81,278.84l2,.18-1.86-.19Z"/><path class="cls-1" d="M1453.21,262.57l1.11.13.93.05Z"/><path class="cls-1" d="M1499.33,268.35a7,7,0,0,0-1.83,0c.6,0,1.37.08,2.29.19C1499.81,268.48,1499.68,268.43,1499.33,268.35Z"/><path class="cls-1" d="M1572.51,277.14l1.3.12Z"/><path class="cls-1" d="M1420.23,258.18a3.59,3.59,0,0,0-.41-.11A1.36,1.36,0,0,0,1420.23,258.18Z"/><path class="cls-1" d="M134.25,69s0,0,0,0C134,69,133.89,69,134.25,69Z"/><path class="cls-1" d="M80.63,63.65l.74.05c.08,0,.17,0,.17-.06Z"/><path class="cls-1" d="M1191.73,223.75l.19,0C1193,223.94,1192.4,223.84,1191.73,223.75Z"/><path class="cls-1" d="M803,158.43c4.38.87-7.19-1.06-.59.2C801.85,158.47,808.52,159.44,803,158.43Z"/><path class="cls-1" d="M1581.61,278.69l-1.89-.2Z"/><path class="cls-1" d="M802.45,158.63h0l.69.13Z"/><path class="cls-1" d="M1094.1,207.82c.19.06.58.14,1,.23A7.29,7.29,0,0,0,1094.1,207.82Z"/><path class="cls-1" d="M1166.78,220l-1.8-.31Z"/><path class="cls-1" d="M1056.32,201.73c-1-.18-1.3-.26-2.64-.46l.4.08C1054.57,201.41,1055.21,201.52,1056.32,201.73Z"/><path class="cls-1" d="M1017.06,195l.72.16,1.24.2Z"/><path class="cls-1" d="M254.71,80.66c-.86-.13-1.4-.23-1.82-.31C253.49,80.51,247.67,79.93,254.71,80.66Z"/><path class="cls-1" d="M1582.79,278.76a9.26,9.26,0,0,1-1.18-.07l1.32.14C1583.05,278.82,1583.07,278.8,1582.79,278.76Z"/><path class="cls-1" d="M1054.54,202.55l-6.23-1.08Z"/><path class="cls-1" d="M538,117.3l-1.43-.2C537.15,117.19,537.66,117.26,538,117.3Z"/><path class="cls-1" d="M1029.79,198.34c-1.1-.24-2.28-.47-3.5-.7l-.73-.09Z"/><path class="cls-1" d="M252.88,80.34h0Z"/><path class="cls-1" d="M211.4,76.33c6,.63,2.83.11,4.11.14,7.17.7,3.3.48,5.73.83,4.47.42,7.92.61,11.25,1,.24.06.89.14.13.09,4.74.35,14,1.47,19.55,1.86l.71.12c-.88-.18-1-.29-.82-.34,2.69.28,5,.41,6,.64-1.65-.18-1.79-.15-2.56-.19l2.82.24c2.52.44-3.85-.34-3.87-.21,5.5.52,11.92,1,16.12,1.54.86.26-9.85-1-4.25-.24l-6.5-.75c4.95.79-4-.43.58.33l18.14,1.87c1.94.11-.62-.21,1.32-.1,6.08.53,8.46,1,10.43,1.29s3.55.63,8,1a89.43,89.43,0,0,1,9.57,1l-2.18-.07c8.28,1,4.76.3,13.42,1.47-1.55-.11-6.52-.72-5.27-.55,5.6.84,4,.38,8.31.9l.87.28,28.32,3.25c-.55,0-2.23-.17,0,.16,12.32,1.43,26.3,3.15,38.15,4.8l4.55.47c1,.14,1.94.33.8.2,4.61.69.25-.06,2.48.19,2.63.34,3.46.55,1.79.37,8.17,1,23.27,2.88,31.84,4.2l-1.68-.18c6.68,1,7.59.72,13.78,1.7l-1.2-.14c14.52,2,30.59,4.07,41.63,5.79,2.14.09,14.34,2.21,15.32,2,8.25,1.37,5.88,1.07,17.52,2.89,3.11.47,4.67.5,8.52,1l.07.16,5.25.62,2.76.59,3.62.49a22.62,22.62,0,0,1-2.83-.53c2.83.38,6.26.92,9,1.37l3.44.58c.86.15,1.39.26,1.42.28L561,120.64c-.31,0-2.55-.29-4.32-.51,7.15.9,1.27.35,7.82,1.17-.87-.16.49,0,.64,0,3.24.57,10.64,1.67,16.13,2.44l-1.07,0,31.94,5c-4-.67-3-.71.23-.22l1.27.37c2.12.23-3.39-.6.94,0,4.14.67,2.76.62.37.3l5,.73c.29.1-.9-.06-1.21,0,2.08.23,8.67,1.53,11.68,1.82l.27.1,25.16,3.89c.2-.11,3.73.47,6.44.79l22,3.65c5.62.85,1.66.15,4.19.48.4.2,8.38,1.5,4.22.91,9.6,1.55,12.26,2,24.4,3.88-1.31-.27-2.79-.54-2-.45a43.8,43.8,0,0,1,4.67.88l-.58-.08c13.64,2,31.35,5.53,42.24,7l-.61-.08,11.26,1.71c5.16.88-3.12-.42.69.29,12.16,1.84,19.14,3.27,29.14,4.82,7.66,1.67,27.41,4.6,37.8,6.6l-.59-.19c2.71.37,3.25.61,5.23,1-.27-.11-2.91-.57-1.23-.34,22.85,3.74,47.08,8.14,70.46,12.22,8.56,1.49,4.94.38,15.69,2.43l-3.09-.36c17.3,2.76,35.3,6.05,52.23,8.76-1-.14-1-.09-2.7-.37,1.78.36,5.08.92,7.94,1.38l3.73.58,1.16.16a2.09,2.09,0,0,0,.45,0,14.24,14.24,0,0,1,2.21.52c3.57.68,9,1.38,10.9,1.82.32.07-1-.13-1.67-.23,2.34.34,10.87,1.86,8.66,1.34,6.33,1.15,12.15,2,17.19,2.95,3.33.41,10.85,1.92,11.94,1.89-.5.14,11.09,2.07,15.12,2.65-1.36-.16,3.48.66,1.89.49,4.58.76,8.78,1.42,8,1.17,8.4,1.67,17,2.61,21.7,3.75l38.48,6.15c-.48.15-13.53-2.23-13.05-1.91,11.63,1.84,18.36,2.77,29.87,4.74,3,.53-1.71-.19-2.73-.32,11.61,1.87,22.44,3.7,32.79,5.24,0,0-.3,0-.72-.09l-1.48-.2a44.63,44.63,0,0,0,4.51.65l-2-.29c-3.23-.67,8.13,1,8.51,1-3.5-.26,10.19,1.71,4.64,1.2a17,17,0,0,0,2.74.3c2,.33,2.61.48.58.23,7.3,1.11,4.73.59,11.34,1.65,0,.05-1.37-.15-2.06-.2,3.36.44,6.74.89,12.31,1.82-.34,0,.31.12-1.36-.15,9.59,1.53,16.39,2.37,26.9,4.15-3.14-.28,3.56.64,4.09.92l5.67.85-2.26-.45c5,.8,9.37,1.29,13.63,2l-3.7-.48,9.3,1.37-5.25-.86c5,.66-.5-.32,6.1.73-1.35-.18,5,.76,7.53,1.26h0c2.47.32,5,.64,8.67,1.24.94.2-.8.09-.19.22,2.45.21,11.63,1.72,14.73,2-1-.12-1.1,0-.77,0l2,.18c2.3.39,2.63.46,2.25.48,6.91,1.07-2.17-.56,6,.78-.65-.09-.34,0-1.69-.21l23.51,3.54c2.2.53-6.63-.95-4.09-.41l16.74,2.42,16.49,2.27-2-.29c1.5-.06,7.86,1.23,13.24,1.85-1.32-.16-1.74-.09-1.38-.07,7.24,1.06,14.83,2,25.82,3.46l-1.37-.12,15.86,2.29c1.38.12,4,.5,2.43.18,7.09,1.19,13.88,2.08,20.47,2.94l9.76,1.29c3.22.4,6.39.82,9.54,1.3-1.51-.19-3.61-.4-2.41-.25l10.79,1.3c-.84-.22-1.41-.25-3.66-.62,1.37.1,4.42.43,7.09.77-4.85-.54,0,.19,2.11.52-.35-.08.37,0,.2-.09,5.6.91,1-.11,8.64,1h-.42c2.88.33,5.54.59,8.64,1,1.27.29-3.07-.33-3.28-.24,4.36.54,8.63.83,12.55,1.46l-6.37-.73c4.28.7,4.78.72,8,1.14l-.32,0,7.37,1-1.87-.28c5.49.34,11.11,1.34,18.48,2-7.17-.69-1.2,0-1.76.05,1.87.28,4.71.69,3.89.63,3.49.31,5.79.82,10.71,1.26.21.08,3.71.47,2.91.5,4.52.53-1.06-.22-.67-.24,1.75.18,3.64.42,5.65.66l6.4.76c4.47.53,9.32,1.1,14.35,1.53l18.3,1.67c2.7.37-2.24-.07-2.24-.07,4.36.55,7.65.9,11.77,1.3-.84-.05,0,.08,1.27.27,3.3.35,2.22.06,6.57.61-.75,0-1.72,0-3.32-.16l11.79,1.11c1.06.2-2.45-.14-3.87-.24,4.53.46,11.74,1.21,13.15,1.23l-2.9-.37c1.65.18.84.21-.38.1a41.92,41.92,0,0,1-5.81-.73l2.87.28c-2.91-.61-11.53-1.22-17.3-1.87l2.43.06-5.94-.48c-1.26-.19-2.11-.4.75-.12-4.13-.55-3.68-.33-7.22-.83-.39-.06-.21-.05.15,0l-4-.38c.8,0-.66-.22,1.82.08-7.24-.91-11.72-1.13-14.44-1.59l.61.06c-10.08-1-1,0-8.57-.61l-5-.93-1,0a22.38,22.38,0,0,1-2.71-.37c-3.88-.32.65.14-1.6,0-5-.64-13.79-1.57-14.89-1.95-1.81-.11,4.77.69-.57.1-1.49-.45-6.17-.73-10.72-1.43,1.42.05,5.73.66,1.18,0-2.78-.12-8.88-1.17-12.73-1.61a48.1,48.1,0,0,1-5.07-.53l-9.77-1.21c.41,0-12.14-1.62-18.14-2.45h.18c-1.18,0-7.37-.78-11.89-1.31a15.29,15.29,0,0,1,3.46.23l-4.24-.54c-1-.06-2.34-.2-5.09-.52h1.08c-5.64-.72-11.39-1.22-18.63-2.32-.43.07,5.72,1.16-2,.18-.28-.11-.54-.27,1.47,0-.66-.08-2.35-.27-3.67-.48l3.07.31c-3.29-.51-1.74-.14-4.37-.52.06-.09-2-.35-1.56-.37.68.08,2.3.36,3.31.46-3-.43-6.56-1-7.74-1.23.25.09,0,.13-2.2-.16-5.63-.78-1.91-.39-5.19-.9-1.37-.12-5-.7-5.07-.56-1.65-.23-2-.35-2.58-.47-2.92-.35-13.62-1.89-10.36-1.28l.75.12-.48-.06h0c-9.58-1.19-19.84-2.86-29.34-4.13l0,0c-5.67-.74-12.61-1.73-16.67-2.19-1.67-.24-3.94-.64-3.21-.6-4.33-.58-4.83-.55-11.06-1.59,4.36.57-1.49-.3,4.46.61-5.61-.89-6.87-1.16-12.91-1.94,2.07.18-4.21-.8-6.88-1.16l3.92.68-8.29-1.26,1.47.06c-11.46-1.94-20.77-2.8-29.47-4.46-3.05-.35,6.23,1,3.49.75-5.28-.82-10.75-1.89-12.4-2.14-7.23-1.19-6.79-.79-14.36-2,1,.21,1.85.5-3.82-.3-5.28-.82-6.46-1.23-3.11-.77a17.43,17.43,0,0,1,1.82.31c1.71.24,4,.55,1.87.17l-.69,0c-2.62-.46-9.89-1.56-8.17-1.39-4-.55-1.72-.17,1.23.31-3.38-.55-6-.95-8.71-1.36l-8.84-1.44c1.1.21,2.11.44,1,.27-10.22-1.72-4.52-.61-11.46-1.7-3.92-.72,1.45,0-5.54-1-4.25-.74-.88-.3.82-.08-6.37-.9-11.86-2-15.48-2.58l3.35.49-5.31-.82,1.89.42-2.54-.43a5.5,5.5,0,0,1-1-.22c-2-.24,1.52.45-2.52-.09-2.61-.48-8-1.22-8.87-1.52,8.23,1.38-.88-.3,6.09.79-1.34-.19-3-.46-4.95-.79-.3-.07.28,0,.82.09-7.86-1.41-3.65-.41-11.82-1.72,1,.07-1.87-.47-3.21-.67,3.3.53,1.55.4-1.48,0-5.23-.91-5.7-.86-8.44-1.31l3.12.54c-1.07-.09-3.69-.52-7.35-1.08-.3-.12,3.33.49,2,.25-4.08-.5-9.14-1.63-14.81-2.44-2.61-.49-.23-.2-2.52-.63-6.35-.94-6.84-1.26-13.51-2.27,1.9.43,2.24.46-2.47-.21l11,1.74-7-1,9,1.43c-3.36-.46-3-.43-1.44-.07-4.49-.93-9-1.39-14.18-2.38l.21-.26c-7.84-1.44-14-2.18-24.16-3.95l3.26.59c-1.38-.11-6.29-1-9.6-1.53a19.3,19.3,0,0,0-3.14-.72c.16.1-7.46-1.25-8.42-1.21l-4.53-.89c-8.22-1.42-9.44-1.29-17.35-2.64,2.4.29-1.18-.38,4.13.43l-3.5-.59a10.47,10.47,0,0,0-1.57-.2c-1.53-.33-7.35-1.09-9.76-1.6-1.12-.15-1.5-.11-4.46-.62-.32-.07,0,0,0,0s-4.66-.73-2.08-.18c-8.09-1.69-22.74-3.85-29.78-5.31l-17.95-3a4.46,4.46,0,0,1,1,.14c-7.2-1.32-4.48-.48-12.68-2-4.17-.87,4.38.66,1.77.15-1.08-.51-9.92-1.64-15.41-2.77l1.34.21c-4.21-.83-10.33-1.63-17.23-2.83,0,0,.34,0,0,0-4.75-.65-13.69-2.12-20.34-3.21,2.09.23,3,.45,1.79.1-3-.49.84.36-5.11-.62-1.92-.4-6.19-1.19-6.74-1.43l5.6.95c-2.84-.66-7.25-1.23-10.2-1.77h.39c-8.59-1.44-8.74-1.27-18-2.86l.95.22c-5.08-.67-4.21-.83-9.27-1.55l-1.49-.45-17.66-2.79c3.4.43,10.4,1.55,14.74,2.2-3.3-.56-11.22-1.9-13-2.1,1.33.21,3,.45,4.32.7-4.07-.53-9.41-1.37-16-2.5,1.23-.18-17.13-3-21.85-4.09-11.66-1.83-23.07-4-36.62-6.23,4.75,1.1-4-.67-3.18-.22-3.16-.52-4.36-.73-4.64-.79l-9.54-1.8c-2.25-.47,3,.44,2.74.32-6.91-1.19-2.88-.62-7.44-1.47.92.27-2.43-.25-6.36-1l5.52,1.08c-9.69-1.47-8.3-1.68-18.07-3.14l3.1.42c-5-.77-18.45-3-23.39-3.6-.88-.18-2-.46.17-.12-11.94-2-26.64-4.12-35.9-5.79l.92.07c-2.24-.34-3.91-.5-6.69-1,.15,0,.91.07-.12-.1s-5.94-.85-8.89-1.37l2.54.33c-11.64-2-17.92-2.77-27.71-4.27a38.61,38.61,0,0,0-5.1-1l-8.58-1.44h.16c-13.58-2.16-23.11-3.45-35.7-5.34-7.78-1.47-26.45-4.26-39-6.37,1.91.34-.34.12-2.57-.21-2.94-.5-8.18-1-7.68-1.19l1.05.16c-2.19-.52-8.26-1.37-13-2.07l-.82.15c-12.32-2.21-32.46-4.65-39.17-6l-9.67-1.29.18-.12c-8.27-1.26-12.41-1.88-22.64-3.36l2.1.21c-5.78-.85-7.34-.71-12.68-1.4l-1.58-.43c-10.08-1.36-20.27-2.93-30.26-4.09a11.51,11.51,0,0,1,2.11.18c-4.75-.64-18.35-2.63-16.67-2.1a8.49,8.49,0,0,0-1.75-.32l-4.17-.56L418,99.37l.86,0c-4.62-.45-4.77-.42-11.2-1.24-1.52-.22-1.32-.29.7,0-5.06-.76-4-.41-10.11-1.31l2.31.22c-5.22-.72-4.81-.61-7.7-.9-3.28-.4-9.89-1.36-10.65-1.56-.71,0-3.59-.25-6.66-.66-.41-.1.71,0,1.28.06-8.73-1.15-13-1.41-19-2.27a5.69,5.69,0,0,0-1-.21l12,1.48c0-.13-5.59-.83-1.1-.47-4.52-.45-12.24-1.17-17.7-1.89l-.72-.13.57.05c-1.26-.17-2.39-.29-3.46-.4l-4.52-.59c-.63-.18-6.42-.83-9.22-1.18.21.17-3.44-.29,0,.24a23.26,23.26,0,0,1,2.39.26l1.2.13H336l7,.84c-2.22-.2-4.54-.42-7.62-.87l-3.93-.25c-3.8-.66-11.17-1.66-12.18-1.9-8.55-1-20.12-2.39-25.52-2.78a35.32,35.32,0,0,1-3.69-.56c1.41.14,3.08.35,3.84.4l-9.17-1c-3.14-.31-5.82-.55-6.41-.52-6.12-.73,3.46.19-5-.66l1.14.06c-16.53-2-27-2.36-45.31-4.66,1.27.16,1.91.24,2.16.29-10.46-1.18-21.25-2.27-32-3.37l-16.06-1.65c-5.33-.48-10.59-1-15.76-1.48-5.88-.56-6.53-.5-10.13-.72l-1.26-.26L150,69.51c-8.71-.63-15-1.68-26.08-2.4l1.41.23c-4-.36-12.54-1-11.87-1.09-.41,0-1.31,0-2.85-.19l-.12-.09-9.73-.71c-7.53-.71,1.2-.21-9.8-1.18-4.09-.33-11.66-.78-10.13-.6s4.22.42,4.33.51l-3.74-.29c-.7.18-3.59.17,5.58,1.12l6.4.42,2.06.29L90,65.07c3,.37,5,.44,7.16.57.51.1,1.41.22,2.67.35l6.3.33c.76.15-2.83-.07,1.38.35,3,.15-2.8-.45,2.07-.09a53.79,53.79,0,0,0,5.75.6c.5.1-.26.07-1.69,0,3.21.2,8.46.7,10.13.72,3.17.41,10.79.9,10.46,1.09,1,0,5.64.32,8.58.57-5.39-.21,11,1,9.55,1.12,4,.11,14.35,1.14,21.39,1.62-.39,0-1.17,0-1.79-.11,4,.37,5.1.54,7.64.8a33.76,33.76,0,0,1,4,.14l6.06.47c4.83.7-3-.08-1.46.26-.23-.18,8.43.73,6.8.42,3.69.51,3.18.39,5.08.75.67-.17,3.45.32,6.54.5,5.34.68,1.35.37,7.25.91C216.64,76.79,211.4,76.33,211.4,76.33Zm140,15.32h0l-2.89-.34Zm11.75,1.42L358,92.45c-.41-.1,0-.09,1.22,0C358.61,92.46,361.37,92.82,363.12,93.07Zm-24.73-4c1.86.2,2.48.3,2.73.36l-3.25-.37h-.22A5,5,0,0,1,338.39,89.1Z"/><path class="cls-1" d="M335,88.87l-.77-.08,1.11.17.66,0Z"/><path class="cls-1" d="M1394.83,254.81l-.25,0,.52.09Z"/><polygon class="cls-1" points="524.99 115.44 524.97 115.4 523.95 115.28 524.99 115.44"/><path class="cls-1" d="M1459.37,264l.84.14S1459.81,264.06,1459.37,264Z"/><path class="cls-1" d="M1487.3,267.53l3.94.55Z"/><path class="cls-1" d="M1508.77,270.31a2.26,2.26,0,0,0,.43,0h-.43Z"/><path class="cls-1" d="M1168.1,221.2l-.83-.13C1165.33,220.79,1166.65,221,1168.1,221.2Z"/><path class="cls-1" d="M1269.32,236.87l-3.26-.42A22.4,22.4,0,0,0,1269.32,236.87Z"/><path class="cls-1" d="M1055.22,202.67h0l-.7-.12Z"/><path class="cls-1" d="M1261.35,235.73c1.8.3,3.31.52,4.71.72C1264.58,236.21,1262.84,235.94,1261.35,235.73Z"/><path class="cls-1" d="M1602,281l1,.12s0,0,.13,0Z"/><path class="cls-1" d="M1603.16,281.07l1.15.11C1603.78,281.12,1603.32,281.07,1603.16,281.07Z"/><path class="cls-1" d="M1606.74,281.41l-2.43-.23C1605.15,281.27,1606.18,281.39,1606.74,281.41Z"/><path class="cls-1" d="M1573.51,277.77l-.33,0A1.12,1.12,0,0,0,1573.51,277.77Z"/><path class="cls-1" d="M1564.85,276.84c2.07.23,5.17.67,8.06,1h.27C1571.82,277.71,1566.82,277,1564.85,276.84Z"/><path class="cls-1" d="M1528.8,272.21c2.41.34,4.82.59,7.24.87-1.26-.19-2.92-.45.38-.1C1527.3,271.8,1538.29,273.35,1528.8,272.21Z"/><path class="cls-1" d="M1506.36,269.3c3.89.47,0-.08.17-.08C1504.06,269,1503.46,268.89,1506.36,269.3Z"/><path class="cls-1" d="M1344.29,247.63l.41-.07C1341.7,247.16,1344.66,247.6,1344.29,247.63Z"/><polygon class="cls-1" points="1313.28 243.66 1316.17 244.18 1317.57 244.27 1313.28 243.66"/><polygon class="cls-1" points="1295.15 239.99 1296.46 240.17 1291.47 239.47 1295.15 239.99"/><path class="cls-1" d="M1024.06,196.11l.88.31C1027,196.73,1027.41,196.63,1024.06,196.11Z"/><path class="cls-1" d="M907.17,176.33c-1.26-.3-4.54-.91-6.58-1.18C903.21,175.61,905.82,176.12,907.17,176.33Z"/><polygon class="cls-1" points="556.28 118.78 558.65 119.08 554.19 118.46 556.28 118.78"/><path class="cls-1" d="M1508.08,56.46c.71-.25.28-.22-1.74.33l-1.39.54Z"/><path class="cls-1" d="M1494.39,59.77c-2.36.71-5.07,1.57-3.49,1.31,2.32-.78,2.9-.87,5.39-1.72a15.24,15.24,0,0,1,3.22-.74c.71-.23,3.16-.8,4.22-1.19-2.67.58-6,1.46-9.46,2.49C1493.51,60.08,1494.22,59.84,1494.39,59.77Z"/><path class="cls-1" d="M1294.88,104.8l1.3-.23Z"/><path class="cls-1" d="M1170.12,127.11a11.69,11.69,0,0,0,1.39-.27A13.19,13.19,0,0,0,1170.12,127.11Z"/><path class="cls-1" d="M1148.74,130.46l1.26-.19C1149.52,130.33,1149,130.4,1148.74,130.46Z"/><path class="cls-1" d="M1294.88,104.8l-3.33.59C1291.32,105.49,1293.26,105.1,1294.88,104.8Z"/><path class="cls-1" d="M1467.2,67.34l1.78-.49-1.67.43Z"/><path class="cls-1" d="M1349.63,93.67l1-.21.82-.23Z"/><path class="cls-1" d="M1391.53,84.58a6.59,6.59,0,0,0-1.6.54c.53-.17,1.22-.35,2-.54C1392,84.55,1391.86,84.55,1391.53,84.58Z"/><path class="cls-1" d="M1457.73,69.09l1.17-.31Z"/><path class="cls-1" d="M1319.56,99.78l-.4,0A1.34,1.34,0,0,0,1319.56,99.78Z"/><path class="cls-1" d="M135.53,289.23s0,0,0,0C135.29,289.28,135.21,289.3,135.53,289.23Z"/><path class="cls-1" d="M86.86,299.32l.67-.16c.07,0,.13-.08.13-.11Z"/><path class="cls-1" d="M1109.6,136.54l.18,0C1110.81,136.34,1110.22,136.43,1109.6,136.54Z"/><path class="cls-1" d="M749.67,187.83c4.1-.43-6.62,1.06-.45.37C748.64,188.22,754.77,187.22,749.67,187.83Z"/><path class="cls-1" d="M1466.12,67.59l-1.7.42Z"/><path class="cls-1" d="M749.22,188.2h0l.63-.08Z"/><path class="cls-1" d="M1019.4,150.31c.19,0,.55,0,.93-.07A6.86,6.86,0,0,0,1019.4,150.31Z"/><path class="cls-1" d="M1086.66,140.41l-1.67.23Z"/><path class="cls-1" d="M984.5,155.57c-.91.12-1.22.15-2.45.34l.37,0C982.87,155.79,983.46,155.7,984.5,155.57Z"/><path class="cls-1" d="M948.12,160.75l.68-.06,1.15-.17Z"/><path class="cls-1" d="M245,267.11c-.8.11-1.3.16-1.69.19C243.84,267.29,238.55,268.33,245,267.11Z"/><path class="cls-1" d="M1467.17,67.26a8,8,0,0,1-1.05.33l1.19-.31C1467.4,67.24,1467.42,67.21,1467.17,67.26Z"/><path class="cls-1" d="M983.18,156.88l-5.78.81Z"/><path class="cls-1" d="M504.87,223.56l-1.32.22C504.06,223.7,504.53,223.63,504.87,223.56Z"/><path class="cls-1" d="M960.25,160.17c-1,.09-2.14.22-3.27.36l-.67.13Z"/><path class="cls-1" d="M243.26,267.3h0Z"/><path class="cls-1" d="M205.58,274.94c5.45-1.08,2.52-.68,3.66-1,6.5-1.35,3-.47,5.27-.82,4.06-.85,7.14-1.66,10.18-2.22.23,0,.83-.11.14.06,4.28-1,12.78-2.43,17.76-3.56a5.18,5.18,0,0,1,.67-.08c-.83.06-1,0-.82-.1,2.45-.47,4.52-1,5.47-1-1.51.28-1.62.36-2.32.53l2.56-.54c2.34-.27-3.49.72-3.47.85,5-1,10.8-2.25,14.65-2.93.83,0-9,1.75-3.82.93l-5.94,1.06c4.58-.59-3.61.67.61.16,7.82-1.43,8.72-1.74,16.52-3.17,1.73-.42-.61,0,1.13-.45,11.06-2.17,8.8-1.15,16.92-2.85a74.42,74.42,0,0,1,8.69-1.78l-1.94.54c7.58-1.34,4.27-1.05,12.23-2.35-1.4.33-5.94,1.13-4.79.95,5.16-.78,3.61-.76,7.56-1.47h.85c8-1.51,16.94-3.09,25.87-4.69-.49.14-2,.46.09.15,11.27-2,24.07-4.19,35-5.84l4.13-.83c1-.16,1.81-.24.77,0,4.25-.65.2-.13,2.23-.53,2.42-.4,3.21-.44,1.68-.14,7.47-1.36,21.3-3.79,29.22-4.93l-1.54.29c6.16-.93,6.9-1.4,12.63-2.17l-1.09.2c13.36-2,28.09-4.54,38.32-5.91,1.9-.51,13.24-1.93,14.05-2.36,7.65-1,5.48-.63,16.24-2.18,2.87-.42,4.25-.83,7.79-1.41l.11.14,4.8-.89,2.59-.21,3.32-.53a18.39,18.39,0,0,1-2.63.27c2.59-.42,5.77-.86,8.31-1.19l3.19-.4a11.94,11.94,0,0,1,1.33-.12l12.29-2c-.26.1-2.32.43-3.94.71,6.54-1.13,1.21,0,7.21-1.06-.81.09.43-.15.56-.2,3-.35,9.85-1.36,14.89-2.15l-1,.25,29.5-4.32c-3.68.49-2.87.18.14-.27h1.22c1.93-.38-3.14.39.82-.31,3.84-.53,2.6-.18.41.19l4.65-.73c.28,0-.81.19-1.08.29,1.89-.37,8.06-1,10.79-1.57h.27l23.24-3.34c.15-.17,3.42-.6,5.89-1.06,6.14-.82,13-1.67,20.37-2.72,5.18-.79,1.5-.33,3.82-.74.4.08,7.79-1,4-.34,8.88-1.25,11.34-1.59,22.55-3.25-1.22.11-2.6.28-1.89.14a38.67,38.67,0,0,1,4.36-.49l-.54.09c12.58-1.95,29.15-3.64,39.15-5.28l-.56.09,10.39-1.56c4.79-.63-2.86.49.7.08,11.2-1.75,17.75-2.39,27-3.79,7.21-.6,25.4-3.48,35.1-4.56h-.57c2.48-.43,3-.36,4.87-.59-.27,0-2.72.29-1.18,0,21.15-3,43.69-5.81,65.39-8.7,7.94-1.06,4.44-1.07,14.47-2.23l-2.81.56c16-2.39,32.73-4.51,48.38-6.84-.93.17-1,.22-2.48.43,1.66-.17,4.72-.59,7.37-1l3.44-.54,1.07-.19.4-.09a14.69,14.69,0,0,1,2.09-.16c3.32-.39,8.31-1.32,10.09-1.45.3,0-.93.17-1.54.27,2.16-.37,10.08-1.41,8-1.25,5.89-.76,11.24-1.64,15.94-2.22,3-.58,10.07-1.35,11-1.71-.39.28,10.33-1.3,14-1.94-1.23.25,3.24-.39,1.8-.09,4.24-.61,8.12-1.21,7.36-1.22,7.86-.86,15.68-2.46,20.12-2.77l35.53-5.51c-.38.28-12.52,1.87-12,2,10.72-1.68,16.9-2.76,27.55-4.35,2.76-.39-1.55.33-2.48.51,10.71-1.73,20.74-3.14,30.27-4.72l-.66.13-1.36.24a40.81,40.81,0,0,0,4.15-.7l-1.83.3c-3,.31,7.42-1.44,7.75-1.58-3.15.8,9.43-1.42,4.42-.25a14,14,0,0,0,2.48-.53c1.84-.27,2.43-.33.58,0,6.72-1.13,4.31-.86,10.41-1.82,0,.05-1.24.27-1.86.42,3.07-.58,6.16-1.17,11.32-1.94-.31.07.3,0-1.24.26,8.85-1.43,15.05-2.61,24.76-4.15-2.83.69,3.31-.47,3.85-.37l5.21-.92-2.11.25c4.57-.75,8.59-1.55,12.52-2.14l-3.38.64,8.56-1.45-4.86.73c4.61-.86-.53-.15,5.56-1.11-1.24.23,4.57-.75,7-1h0c2.25-.43,4.56-.89,7.94-1.44.89-.09-.67.33-.09.27,2.2-.54,10.68-1.9,13.47-2.55-.93.2-1,.31-.65.27l1.84-.44c2.12-.33,2.44-.37,2.11-.23,6.36-1.08-2.06.12,5.5-1.09-.59.11-.3.08-1.53.32,7.58-1.28,14.63-2.58,21.59-3.81,2.09-.19-6.07,1.16-3.69.88,10-1.86,20.72-4,30.43-5.73l-1.81.31c1.29-.51,7.24-1.19,12.13-2.21-1.2.24-1.55.43-1.23.34,6.65-1.19,13.55-2.66,23.58-4.67l-1.23.31c3.92-.7,10.3-1.95,14.52-2.74,1.24-.3,3.66-.76,2.17-.57,13.09-2.18,24.74-5.24,36.33-7.25-1.37.28-3.27.73-2.17.5l9.8-2.06c-.8,0-1.3.19-3.38.52,1.23-.33,4-.92,6.41-1.45-4.38,1,.08.18,2-.18-.33,0,.31-.14.15-.14,5.15-.91.8-.42,7.81-1.8l-.35.14c2.6-.59,5-1.2,7.82-1.79,1.19-.12-2.77.66-2.93.81,4-.87,7.76-1.94,11.37-2.59l-5.77,1.33c3.94-.7,4.38-.83,7.29-1.44l-.29.06,6.72-1.38-1.72.32c2.44-.71,5-1.25,7.69-1.88s5.67-1.3,9-2.18c-6.42,1.71-1,.37-1.51.63a36.33,36.33,0,0,1,3.58-.69c3.11-.84,5.27-1.12,9.66-2.32.21,0,3.37-.77,2.69-.49,4.08-1-1,.14-.66,0,6.26-1.64,14.88-3.16,23.84-5.67,7.76-2,9.16-2.54,16.37-4.41,2.46-.52-2,.67-2,.67,4-.9,6.91-1.65,10.6-2.62-.74.23,0,.07,1.18-.16,3-.76,2-.63,5.89-1.59-.66.23-1.5.55-2.92.95,3.49-.92,6.91-2,10.51-2.95,1-.17-2.15.7-3.41,1.1,4.06-1.12,10.51-2.87,11.73-3.33l-2.62.64c1.48-.4.79-.09-.29.23a37.07,37.07,0,0,1-5.24,1.29l2.56-.72c-2.72.4-10.31,2.85-15.53,4.09l2.12-.74L1463.52,68c-1.15.23-2,.31.61-.36-3.76.82-3.29.89-6.52,1.57-.36.07-.2,0,.12-.07l-3.63,1c.71-.22-.64,0,1.61-.52-6.57,1.5-10.51,2.76-13,3.22l.54-.15c-9.06,2.31-.84.36-7.61,2.22l-4.67.76-.86.36a18.64,18.64,0,0,1-2.47.49c-3.47.91.61-.07-1.4.49-4.55.91-12.45,2.95-13.53,2.95-1.6.49,4.35-.91-.46.28-1.44.07-5.58,1.34-9.73,2.18,1.23-.43,5.16-1.26,1-.42-2.44.8-8,1.81-11.53,2.66a39.55,39.55,0,0,1-4.57,1.11l-8.87,2c.36-.14-11.06,2.3-16.53,3.42l.16-.07c-1,.41-6.66,1.6-10.75,2.52a13.88,13.88,0,0,1,3.08-.87l-3.86.82c-.9.25-2.1.52-4.6,1.06l.94-.34c-5.14,1.06-10.32,2.28-17,3.54-.35.2,5.33-.73-1.65.79-.27,0-.55-.08,1.27-.48-.6.13-2.13.49-3.34.71l2.77-.69c-3,.57-1.55.42-4,.9,0-.11-1.79.3-1.46.15.61-.14,2.11-.39,3-.62-2.72.54-6,1.15-7.11,1.3.24,0,0,.13-2,.55-5.14,1.06-1.79.24-4.8.81-1.23.33-4.53.89-4.59,1a20.78,20.78,0,0,1-2.39.35c-2.65.58-12.45,2.42-9.41,2l.68-.12-.43.09h0c-8.72,1.83-18.18,3.42-26.84,5.15v-.05c-5.17,1-11.54,2.14-15.22,2.93-1.53.28-3.64.57-3,.39-4,.76-4.4.9-10.14,1.86,4-.81-1.39.18,4.08-.81-5.16.9-6.34,1-11.85,2.18,1.86-.47-3.91.55-6.35,1l3.62-.57c-2.74.52-5.16.94-7.61,1.35l1.3-.4c-10.6,1.64-19,3.65-27.09,4.71-2.77.6,5.75-.92,3.28-.35-4.86.82-10,1.46-11.49,1.73-6.66,1.07-6.17,1.3-13.15,2.4.9-.09,1.77-.08-3.43.84-4.87.78-6,.75-3,.19,1.17-.2,1.74-.27,1.69-.25,1.57-.28,3.63-.64,1.69-.39l-.62.17c-2.43.34-9.12,1.45-7.57,1.09-3.66.67-1.55.36,1.18-.06-6.26.95-9.76,1.61-16.19,2.62,1-.14,2-.23,1-.06-9.44,1.49-4.13.8-10.51,1.88-3.65.48,1.26-.42-5.16.67-3.94.57-.86,0,.7-.32-5.85,1.05-11,1.67-14.32,2.18l3.08-.54-4.9.81,1.78-.17-2.35.35a4.94,4.94,0,0,1-1,.11c-1.86.37,1.46,0-2.23.66-2.43.32-7.35,1.23-8.21,1.21,7.61-1.15-.87,0,5.56-1.07-1.24.22-2.75.45-4.57.72-.28,0,.25-.07.74-.16-7.29,1-3.31.71-10.85,1.9.94-.24-1.78.12-3,.32,3-.47,1.47-.08-1.31.42-4.85.67-5.25.85-7.78,1.23l2.89-.41c-1,.24-3.38.59-6.75,1.14-.3,0,3-.52,1.84-.36-3.72.72-8.48,1.13-13.69,2-2.43.31-.26-.13-2.39.15-5.84,1-6.36.85-12.5,1.89,1.79-.16,2.1-.23-2.22.54l10.11-1.62-6.47,1.16,8.26-1.32c-3.08.57-2.76.49-1.29.37-4.2.45-8.26,1.37-13.11,2l.1-.32c-7.28.94-12.88,2.06-22.32,3.38l3-.4c-1.25.3-5.83.88-8.87,1.38a16.3,16.3,0,0,0-3,.24c.17,0-6.91,1-7.73,1.33l-4.23.49c-7.63,1.05-8.66,1.53-16,2.55,2.19-.42-1.15,0,3.75-.79l-3.25.46a9,9,0,0,0-1.43.26c-1.44.14-6.76,1.11-9,1.34-1,.19-1.34.34-4.09.72-.3,0,0,0,0,0s-4.29.69-1.87.45c-7.58.79-21.06,3-27.66,3.69l-16.61,2.4a3.62,3.62,0,0,1,.92-.17c-6.7.85-4.07.86-11.69,1.83-3.91.39,4-.65,1.59-.37-1.09-.17-9.17,1.33-14.32,1.84l1.23-.19c-3.93.44-9.53,1.45-15.93,2.31,0,0,.3-.07,0-.06-4.36.77-12.63,2-18.78,2.87,1.9-.39,2.79-.46,1.6-.42-2.76.4.84.09-4.67.89-1.8.18-5.78.66-6.32.59l5.19-.71c-2.69.18-6.72.92-9.47,1.26l.34-.12c-8,1.11-8,1.32-16.6,2.48l.89-.06c-4.65.83-3.93.42-8.58,1.2h-1.44c-3.08.47-10.78,1.67-16.31,2.46,3.12-.57,9.58-1.53,13.58-2.17-3.06.42-10.4,1.44-12,1.75,1.23-.19,2.78-.44,4-.58-3.73.66-8.66,1.41-14.76,2.24,1-.53-15.9,2.06-20.36,2.37-10.77,1.6-21.4,2.85-34,4.58,4.49-.31-3.67.51-2.86.71-2.92.41-4,.56-4.3.58l-8.9,1c-2.11.2,2.78-.44,2.5-.48-6.41.85-2.7.24-7,.74.89,0-2.2.45-5.86.91l5.16-.56c-8.93,1.39-7.77.81-16.77,2.2l2.84-.49c-4.63.69-17.09,2.34-21.59,3.21-.83.07-1.92.14.11-.16-11.07,1.47-24.59,3.65-33.22,4.69l.83-.19c-2.06.31-3.57.64-6.16.92.12,0,.82-.19-.14-.06s-5.47.89-8.21,1.22l2.33-.4c-10.81,1.39-16.54,2.49-25.58,3.82a34.24,34.24,0,0,0-4.78.44l-8,1L617,206c-12.57,1.75-21.32,3.16-32.94,4.94-7.25.8-24.47,3.43-36.09,5,1.78-.22-.26.21-2.32.53-2.73.36-7.5,1.26-7.1,1l1-.14c-2.08.11-7.66,1-12,1.63l-.68.37c-11.48,1.31-29.91,4.55-36.18,5.19L481.76,226l.13-.16c-7.64,1.13-11.45,1.7-20.88,3.17l1.91-.39c-5.32.81-6.66,1.42-11.56,2.2l-1.51,0c-9.28,1.47-18.69,2.78-27.83,4.42a10.19,10.19,0,0,1,1.91-.4c-4.36.68-16.91,2.53-15.28,2.57a8,8,0,0,0-1.63.17c-1,.14-2.33.38-3.83.64l-9.09,1.64.75-.27c-4.19.87-4.32.94-10.21,2-1.4.22-1.24.1.62-.18-4.67.7-3.6.73-9.26,1.59l2.09-.43c-4.8.78-4.41.76-7,1.3-3,.55-9.1,1.46-9.82,1.45-.64.18-3.24.73-6.07,1.18-.39,0,.64-.18,1.15-.29-8,1.29-11.87,2.21-17.4,3a5.4,5.4,0,0,0-.94.08l11-1.87c0-.13-5.16.74-1.11-.14-4.1.8-11.12,2.22-16.13,3l-.67.07.51-.11c-1.15.19-2.19.38-3.16.57l-4.15.67c-.61,0-5.9,1-8.46,1.4.24.1-3.12.65,0,.23-.41.06.48-.1,2.18-.4l1.09-.2-.17,0,6.36-1.11c-2,.42-4.11.85-7,1.26l-3.53.83c-3.54.42-10.3,1.55-11.26,1.6-7.8,1.48-18.39,3.37-23.25,4.51a30.45,30.45,0,0,1-3.4.5c1.28-.26,2.8-.53,3.49-.7-4.43.88-13.15,2.39-14.17,2.79-5.6,1,3.1-.76-4.56.72l1-.25c-15.15,2.57-24.46,5.11-41.27,7.92,1.17-.21,1.75-.3,2-.32-9.54,1.79-19.35,3.81-29.12,5.78l-28.93,5.8c-5.34,1.07-5.89,1.31-9.13,2.08l-1.18.1-5.53,1.34c-3.93.89-7.37,1.52-11.06,2.22s-7.65,1.45-12.6,2.7l1.31-.19c-3.59.78-11.32,2.58-10.75,2.34a23,23,0,0,1-2.56.62l-.13-.05L105,295.15c-6.82,1.46,1-.55-9,1.65-3.69.86-10.47,2.57-9.07,2.32s3.82-.8,4-.75l-3.37.79c-.56.36-3.11,1.18,5.23-.51l5.75-1.43,1.88-.31L95.53,298c2.78-.52,4.51-1,6.46-1.5a24.4,24.4,0,0,0,2.45-.42l5.62-1.48c.71-.06-2.5.75,1.32-.05,2.63-.7-2.6.37,1.79-.68a45.21,45.21,0,0,0,5.22-1.06c.47,0-.21.15-1.49.46,2.88-.71,7.64-1.73,9.11-2.19,1.45-.25,3.89-.81,5.93-1.25a18.79,18.79,0,0,1,3.59-.63c.9-.24,5.06-1.24,7.72-1.81-4.81,1.28,10-2.08,8.74-1.54,3.54-1,13-2.84,19.31-4.31-.35.1-1,.28-1.61.39,3.59-.74,4.65-.89,7-1.33.43-.28,6-1.44,9-2.17,4.44-.69-2.63.76-1.21.67-.26-.12,7.62-1.69,6.09-1.52,3.4-.56,2.92-.52,4.69-.71.54-.36,3.13-.67,5.89-1.37,4.9-.85,1.3,0,6.64-1.17C210.32,273.91,205.58,274.94,205.58,274.94Zm127.65-24h0l-2.64.46ZM344,249.06l-4.67.8c-.39,0,0-.1,1.1-.29C339.83,249.71,342.38,249.3,344,249.06Zm-22.93,3c1.7-.31,2.28-.38,2.52-.4l-3,.53-.2.06A4.41,4.41,0,0,1,321.06,252Z"/><path class="cls-1" d="M318,252.73l-.7.13,1-.14.6-.15Z"/><path class="cls-1" d="M1296.41,104.53l-.23,0,.48-.07Z"/><polygon class="cls-1" points="492.86 225.44 492.84 225.41 491.9 225.59 492.86 225.44"/><path class="cls-1" d="M1355.44,93.09c.11,0,.33,0,.78-.13Z"/><path class="cls-1" d="M1380.83,87.61l3.6-.73Z"/><path class="cls-1" d="M1400.33,83.33a1.36,1.36,0,0,0,.37-.15h0Z"/><path class="cls-1" d="M1088.16,141.13l-.76.12C1085.62,141.55,1086.83,141.36,1088.16,141.13Z"/><path class="cls-1" d="M1181.4,125.79l-3,.56A23.25,23.25,0,0,0,1181.4,125.79Z"/><path class="cls-1" d="M983.81,156.79h0l-.64.09Z"/><path class="cls-1" d="M1174.08,127.06c1.66-.25,3.05-.48,4.33-.71C1177.05,126.56,1175.45,126.81,1174.08,127.06Z"/><path class="cls-1" d="M1484.44,62.84l.93-.25.1-.05Z"/><path class="cls-1" d="M1485.47,62.54l1-.29C1486,62.38,1485.61,62.49,1485.47,62.54Z"/><path class="cls-1" d="M1488.66,61.64l-2.16.61C1487.25,62.05,1488.18,61.81,1488.66,61.64Z"/><path class="cls-1" d="M1458.81,69.36l-.28.12A.75.75,0,0,0,1458.81,69.36Z"/><path class="cls-1" d="M1451,71.3c1.86-.44,4.69-1,7.28-1.72l.23-.1C1457.33,69.86,1452.76,70.78,1451,71.3Z"/><path class="cls-1" d="M1418.27,78.55l6.57-1.48c-1.16.21-2.69.49.29-.21C1416.83,78.61,1426.87,76.58,1418.27,78.55Z"/><path class="cls-1" d="M1397.92,83.18c3.52-.84-.06-.07.12-.14C1395.82,83.6,1395.28,83.74,1397.92,83.18Z"/><path class="cls-1" d="M1250.11,113.15l.33-.2C1247.7,113.47,1250.42,113,1250.11,113.15Z"/><polygon class="cls-1" points="1221.85 118.92 1224.54 118.54 1225.79 118.2 1221.85 118.92"/><polygon class="cls-1" points="1204.91 120.94 1206.1 120.71 1201.53 121.55 1204.91 120.94"/><path class="cls-1" d="M954.58,159.72l.86,0C957.3,159.47,957.66,159.24,954.58,159.72Z"/><path class="cls-1" d="M846.27,174.9c-1.19.08-4.25.45-6.11.78C842.59,175.36,845,175.09,846.27,174.9Z"/><polygon class="cls-1" points="521.36 219.91 523.53 219.54 519.44 220.19 521.36 219.91"/></g></g></g></svg>