<svg xmlns="http://www.w3.org/2000/svg" viewBox="0 0 329.48 990.06"><defs><style>.cls-1{fill:#4d4d4d;}.cls-2{opacity:0.3;}</style></defs><g id="Layer_2" data-name="Layer 2"><g id="sketch"><g id="sketch-left"><path class="cls-1" d="M277.36,960.45c1.17-.56.42-.46-2.92.85l-2.29,1.16C273.9,961.83,275.63,961.14,277.36,960.45Z"/><path class="cls-1" d="M254.2,967.17c-4,1.25-8.68,2.67-5.95,2.31,4-1.33,5-1.45,9.21-3,3.44-1,6-1.64,5.49-1.35,1.19-.42,5.35-1.56,7.11-2.39-4.5,1.25-10.15,2.93-16.06,4.72C252.7,967.73,253.92,967.31,254.2,967.17Z"/><path class="cls-1" d="M14.12,869.34l0,2.25C14.12,871,14.12,870.2,14.12,869.34Z"/><path class="cls-1" d="M10.61,652.63a19.26,19.26,0,0,0,.12,2.42A23.67,23.67,0,0,0,10.61,652.63Z"/><path class="cls-1" d="M10.25,615.63c0,.79,0,1.46,0,2.18C10.28,617,10.28,616.14,10.25,615.63Z"/><path class="cls-1" d="M14.12,869.34l0-5.79C14,863.14,14.1,866.51,14.12,869.34Z"/><path class="cls-1" d="M207.19,978.11c1.19-.23,2.18-.43,3.08-.63l-2.9.55A1.78,1.78,0,0,1,207.19,978.11Z"/><path class="cls-1" d="M14.79,964.89v1.76c0,.52.08,1,.13,1.47Z"/><path class="cls-1" d="M75.09,988.55a9.57,9.57,0,0,0-2.88.33,34.12,34.12,0,0,1,3.62-.12S75.64,988.64,75.09,988.55Z"/><path class="cls-1" d="M190.79,979.67l2-.36Z"/><path class="cls-1" d="M14.85,912.4a3.56,3.56,0,0,0,.1-.67S14.88,912,14.85,912.4Z"/><path class="cls-1" d="M314.32,893.85c0-.06,0,0,0,0C314.41,894.27,314.47,894.4,314.32,893.85Z"/><path class="cls-1" d="M277.08,959.76l1.09-.46c.09-.1.19-.2.17-.25Z"/><path class="cls-1" d="M9.27,547.91v.3C9.34,550,9.32,549,9.27,547.91Z"/><path class="cls-1" d="M87.74,2.45c-7-.12,11.44-.53.85-.62C89.57,1.91,79,2.49,87.74,2.45Z"/><path class="cls-1" d="M205.31,978.41l-3,.5Z"/><path class="cls-1" d="M88.59,1.83Z"/><path class="cls-1" d="M6.14,391.91c0,.32-.07.94-.1,1.59A10,10,0,0,0,6.14,391.91Z"/><path class="cls-1" d="M7.93,508.14l0-2.88C7.92,506.4,7.92,507.33,7.93,508.14Z"/><path class="cls-1" d="M4.7,331.57c0-1.56,0-2.1,0-4.23,0,.2,0,.39,0,.65C4.68,328.76,4.71,329.79,4.7,331.57Z"/><path class="cls-1" d="M3.74,268.76c0,.33,0,.77,0,1.16,0,.62,0,1.35,0,2Z"/><path class="cls-1" d="M249.89,714.53c.22,1.36.32,2.21.38,2.88C250.26,716.43,252.3,725.4,249.89,714.53Z"/><path class="cls-1" d="M207.13,978a10.54,10.54,0,0,1-1.82.45l2.06-.38C207.54,978,207.57,977.91,207.13,978Z"/><path class="cls-1" d="M2.44,329.05l-.12-10C2.35,321.86,2.4,325.49,2.44,329.05Z"/><path class="cls-1" d="M285.52,272.54l-.46,2.25C285.26,273.93,285.43,273.13,285.52,272.54Z"/><path class="cls-1" d="M1.84,289.45c.07-1.78.1-3.67.11-5.62,0-.41-.06-.88-.09-1.16Z"/><path class="cls-1" d="M250.27,717.43v0Z"/><path class="cls-1" d="M269.26,780.17c-3.16-8.94-1.82-4.09-2.69-5.91-1.9-5.34-2.23-6.61-2.25-7s.29.1-.22-1.76c-2.31-6.68-4.19-11.78-5.68-16.84-.05-.4-.31-1.39.09-.25-.58-1.78-1.25-4-2-6.47s-1.44-5.18-2.16-7.94c-1.44-5.52-2.83-11.21-4-15.42-.1-.64-.14-1-.15-1.14.12,1.42,0,1.68-.21,1.42-.46-2.08-.94-4-1.32-5.59a26.33,26.33,0,0,1-.66-3.71,32.46,32.46,0,0,0,1,3.94l-1-4.35c-.46-4,1.32,6,1.62,5.88-2-8.47-4.08-18.4-5-25,0-.71.73,3.13,1.24,6s.92,4.89.28.49c.57,3.39,1.13,6.78,1.76,10.16-1-7.83,1.2,6.15.34-1.06-.62-3.33-1.1-5.93-1.51-8.16s-.73-4.09-1.06-6-.65-3.73-1-6-.75-4.84-1.14-8.19c-.59-3-.15,1-.73-2-2.59-19.06-.93-15.15-3-29.19a114.78,114.78,0,0,1-2.55-15l.86,3.35c-.89-6.53-1.36-8.36-1.77-10.28s-.81-3.91-1.76-10.74c.53,2.4,1.74,10.2,1.48,8.23-1.1-8.88-1.2-6.21-2.29-13l.11-1.45c-1.18-6.91-2.31-14.17-3.45-21.62q-.7-5.6-1.42-11.32c-.42-3.81-.63-7.67-1-11.52.17.84.46,3.48.31-.13-.09-1.22-.21-2.44-.27-3.68s-.05-2.48-.08-3.73c-.05-2.51-.09-5-.14-7.6s0-5.12.16-7.7.23-5.16.34-7.73c.07-1.29.1-2.58.2-3.86s.25-2.56.38-3.83c.26-2.55.51-5.08.77-7.58s.44-5,.81-7.39.72-4.8,1.07-7.12l.7-7.17c.24-1.66.56-3.06.37-1.25,1.13-7.25-.15-.41.26-3.92.71-4.11,1.13-5.4.76-2.78.51-3.2,1.14-7.08,1.83-11.31s1.4-8.81,2.39-13.36,1.91-9.15,2.8-13.43,1.74-8.25,2.65-11.55l-.53,2.61c2.57-10.33,2.18-11.82,4.72-21.37l-.38,1.86c2.62-11.25,5.76-23,8.59-34.13s5.76-21.51,8.29-30c.48-3.34,6.23-22,6-23.6,1.89-6.33,2.57-8.59,3.43-11.5.43-1.45.9-3.07,1.6-5.44s1.6-5.49,2.72-10c1.21-4.82,1.4-7.28,2.8-13.27l.34-.07c.55-2.73,1.14-5.45,1.6-8.19l1.31-4.26,1.15-5.65a26.69,26.69,0,0,1-1.19,4.38c.89-4.41,2.14-9.76,3.14-14l1.18-5.38c.31-1.35.53-2.17.57-2.22l1.88-10.49c.64-3.49,1.08-7,1.63-10.53.05.49-.48,4-.85,6.82,1.51-11.29.65-2,2-12.33-.29,1.37-.06-.78-.08-1,.24-1.28.58-3,.88-4.91s.58-4.18.9-6.51.63-4.77.94-7.17c.15-1.21.3-2.4.45-3.56s.21-2.3.32-3.39l.05,1.69a434.22,434.22,0,0,0,2.68-51c0,3.19-.09,4.41-.21,4.19a34.87,34.87,0,0,1-.29-4.49l.28-2.09c-.27-3.35,0,5.45-.4-1.45-.1-6.63.28-4.48.46-.66l-.14-4-.07-2-.16-2c.06-.48.24,1.41.39,1.9-.46-3.29-.45-14-1.54-18.68l0-.46-.73-6.22-.94-5.45c-.3-1.72-.58-3.35-.86-4.93s-.68-3.07-1-4.55-.69-2.93-1-4.39c-.17-.73-.35-1.46-.52-2.19s-.42-1.46-.63-2.2l-1.36-4.57c-.49-1.58-.9-3.25-1.58-4.94a17.92,17.92,0,0,1-1.47-3.33,56,56,0,0,0-2.63-6.13A108.27,108.27,0,0,0,267,46.16l-1.81-2L264,43c-.54-.51-.68-.61-.72-.6s.29.48-1.2-.91c-.1-.85-9.88-9.26-4.72-5l-2.1-1.83c-.69-.56-1.38-1.06-2-1.57-1.31-1-2.5-1.93-3.67-2.76l-3.48-2.31c-.57-.37-1.12-.75-1.69-1.1l-1.76-1c-1.19-.67-2.39-1.39-3.69-2.1l-4.24-2.12c-3.06-1.47-6.67-3-11.25-4.72,1.93.87,4.13,1.79,3,1.42-3.28-1.33-7.51-2.88-7-2.85l.89.29a294.67,294.67,0,0,0-34.42-8.92A263.35,263.35,0,0,0,154,2.46l1,.07q-9-.76-18-1.19c-8.26-.55,5,.12-1.14-.42C126.15.55,118.48.3,111.24.13s-14-.22-22,.07C83-.07,72,.26,60.51,1.06S37,3.11,28.68,4l1,0c-4.27.75-5.2.62-8.37,1.08.47.06,4.67-.56,2-.06-3.48.56-7,1.18-10.49,2-1.76.39-3.52.82-5.28,1.37a24.46,24.46,0,0,0-2.66,1,8.6,8.6,0,0,0-1.37.76,2.44,2.44,0,0,0-1.2,1.8c-.34,7.56-.69,15.19-1,22.85L1,40.52.9,46.25C.82,50.07.74,53.91.66,57.74c-.17,7.66-.33,15.34-.5,23S.06,96,0,103.54c-.06,13.7.91,7.78.47,25l-.33-4.9c.17,13.82.35,27.94.41,42s.14,28,.5,41.56c-.1-1.61-.2-1.66-.23-4.3-.08,2.86,0,8.14.08,12.72,0,2.29.12,4.4.18,5.95a19,19,0,0,0,.17,2.55c0,4.22-.16,1-.23,3.58-.08,5.73.47,14.38.27,17.42a24.53,24.53,0,0,1-.13-2.65c.16,3.73.18,17.4.41,13.82,0,10.15.42,19.41.38,27.51.38,5.28.11,17.38.57,19.05-.46-.72-.1,17.8.21,24.22-.17-2.15,0,5.58-.27,3.07.13,7.32.33,14,.54,12.75-.31,13.5.9,27.11.34,34.72C3.92,399.4,4.45,419.52,5,439.09c-.46-.7-.45-21.63-.91-20.78C4.6,436.87,5.19,447.57,5.42,466c0,4.77-.24-2.7-.35-4.31.53,18.55.65,35.87,1.21,52.36a10.31,10.31,0,0,1-.08-1.14c0-.66-.07-1.52-.11-2.36.08,3.25.08,7.56.28,7.19l-.11-3.17c.19-5.2.87,12.91,1,13.48-.7-5.5.17,16.31-.75,7.55.08,2.14.23,4.83.36,4.33,0,3.18,0,4.19-.25,1,.33,11.65.47,7.51.67,18.06-.1,0-.18-2.16-.31-3.25.29,5.34.59,10.7.69,19.62-.07-.53-.13.51-.18-2.15.33,15.31,1,26.1,1.17,42.9-.53-4.94,0,5.72-.38,6.62l.29,9,.11-3.63c.15,7.91.55,14.9.56,21.71L9,643.92l.35,14.83,0-8.4c.35,8,.46-.86.56,9.68-.08-2.14.15,7.91,0,12v0c.2,3.91.4,7.94.42,13.79-.09,1.53-.43-1.21-.49-.22.38,3.86.45,18.54.86,23.42-.1-1.63-.3-1.71-.33-1.17l.31,3.24c0,3.66,0,4.2-.21,3.61.15,11,.41-3.51.44,9.58,0-1-.06-.53-.14-2.67.13,13.15.62,25.4.72,37.48-.31,3.57-.29-10.55-.53-6.47.4,17.42,1.08,36.07,1.26,52.92v-3.14c.57,2.33-.06,12.56.33,21.08-.07-2.08-.34-2.73-.27-2.17.12,11.55.48,23.6.87,41.1L13,860.26c0,6.8.16,17.92.19,25.27.16,2.18.19,6.38.36,3.83-.31,11.33-.14,22.13.05,32.62.09,5.24.22,10.41.21,15.52s-.09,10.16-.28,15.19c0-2.41-.09-5.73-.1-3.82l0,17.12c.24-1.35.15-2.24.35-5.84.06,1.09.12,2.84.15,4.85,0,1,0,2.08,0,3.16l0,1.63c0,.54.07,1.08.11,1.62-.21-1.93-.18-2.89-.23-3.2s-.09,0-.14.75a10.15,10.15,0,0,0,0,1.28,9,9,0,0,0,.11,1.61,10.78,10.78,0,0,0,.4,1.63c.2.5.4,1,.56,1.38-.09-.29,0-.16.12,0s.29.3.24.16c.3.5.57.93.81,1.32s.54.65.77.91a7.08,7.08,0,0,0,1.13,1.11,5.17,5.17,0,0,0,1.22.81,19.34,19.34,0,0,1,1.81,1l2,1.11c.9.41,2,1,3.4,1.55l-.65-.12a81.32,81.32,0,0,0,13.27,3.54c1,.34-.22.12-1.71-.16s-3.25-.71-3.44-.63c6.78,1.68,13.55,2,19.75,2.92-2.94-.2-7.15-.7-10.07-1.08A98.37,98.37,0,0,0,56.05,989l-.5,0c3.9.4,7.81.64,11.73.87l-3-.23c8.7-.27,17.67.42,29.35-.32-11.34.65-1.88.29-2.74.62,3,0,7.53,0,6.24.1,5.51-.43,9.23-.15,17-.95.36.08,5.9-.36,4.67,0,7.16-.57-1.7-.06-1.11-.22,11-1.05,26-1.59,41.74-3.93,6.81-.9,10.82-1.57,14.71-2.22l13.93-2.33c4.27-.49-3.43.87-3.43.87,6.88-.87,12-1.73,18.45-2.93-1.29.31.06.15,2-.08,5.16-.94,3.39-.94,10.22-2.06-1.15.32-2.62.78-5.09,1.34,6.07-1.19,12-2.52,18.28-3.92,1.69-.17-3.73,1.05-5.92,1.59,7-1.45,18.2-4,20.29-4.83l-4.52.95c2.56-.59,1.37-.08-.51.4-6,1.56-8.7,1.8-9.06,1.77l4.44-1c-2.34.23-6.81,1.19-11.83,2.28s-10.59,2.26-15.11,3l3.69-1.08q-4.61,1-9.21,2c-2,.22-3.37.22,1.08-.59-6.51.87-5.71,1.1-11.33,1.75-.62.06-.34,0,.23-.11l-6.33,1.09c1.23-.27-1.1-.13,2.81-.66-11.42,1.48-18.35,2.9-22.7,3.12l1-.14c-15.85,2-1.49.52-13.36,2.24l-8.11.09-1.53.46c-1.64.16-4.89.44-4.3.26-6.09.76,1.05,0-2.48.55-7.92.49-21.81,1.8-23.63,1.4-2.83.4,7.59-.28-.86.38-2.44-.39-9.78.61-17,.56,2.22-.31,9.08-.44,1.83-.42-4.36.61-14.11.2-20.21.16-.15.17-3.47.18-8,0s-10.36-.53-15.47-1c.34,0-4.47-.48-10.46-1.55-3-.5-6.28-1.24-9.35-2.08a50.66,50.66,0,0,1-8-2.91l.27.06a18.64,18.64,0,0,1-6.34-3.53,15.16,15.16,0,0,1-1.91-1.93l-.79-1.16a9.94,9.94,0,0,1-.62-1.27,13.3,13.3,0,0,1-.75-5.47,3.39,3.39,0,0,1,.24,1.38,12.34,12.34,0,0,0,.75,3.74,12.82,12.82,0,0,1-.42-1.5,9.93,9.93,0,0,1-.15-1.55c0-1.08,0-2.23,0-3.35-.11-1.59-.16-3.7-.18-8.07l.27,1.7c0-9-.18-18.08,0-29.63-.26-.65-.65,9.18-.9-3,.14-.45.37-.9.45,2.29,0-1-.14-3.73-.1-5.84l.27,4.88c.07-5.26-.22-2.75-.22-7,.2.08.12-3.12.28-2.51,0,1.07-.06,3.66,0,5.27,0-4.74.09-10.47.22-12.36-.11.41-.26,0-.31-3.47-.07-9,.22-3.08.28-8.31-.15-2.18,0-7.9-.34-8a37.26,37.26,0,0,1,.18-4.13c-.19-4.64-.31-21.69-.56-16.46v1.2c0-.23,0-.49,0-.76v0c-.51-15.22-.2-31.63-.59-46.73l.1,0c-.26-9-.39-20.06-.71-26.5,0-2.66.08-6.29.22-5.16-.19-6.89-.31-7.66-.31-17.61.29,6.92.12-2.4.24,7.09-.06-8.95.07-11-.38-20.59.31,3.27.2-6.75,0-11l-.06,6.28c-.13-4.78-.18-9-.24-13.22l.38,2.29c.07-18.33-1.29-33-.87-47-.33-4.85,0,10-.33,5.62-.12-8.43.19-17.22.14-19.86,0-11.55-.7-10.76-.8-22.84-.09,1.54-.38,3-.67-6-.12-8.44.3-10.38.5-5.05a20.48,20.48,0,0,1,0,2.91c.09,2.73.21,6.3.28,3l-.14-1.09c0-4.19-.2-15.8.05-13.07-.24-6.37-.25-2.73-.22,2,0-10.82-.32-16.91-.43-28,0,1.77-.14,3.4-.17,1.64-.18-16.34-.37-7.19-.64-18.25.06-6.29.48,2.24.11-8.9,0-6.8.28-1.44.43,1.26-.43-10.15-.22-19-.29-24.77l.2,5.35c-.12-3.2-.17-5.82-.23-8.48l-.17,3.06c0-3.14-.07-5.8,0-5.75-.22-3.23-.35,2.49-.69-3.93,0-4.18-.38-12.74-.09-14.19.15,13.16.29-1.46.55,9.68-.08-2.15-.12-4.77-.14-7.92,0-.47.07.44.1,1.3,0-12.6-.47-5.78-.71-18.83.21,1.65.27-3,.19-5.16.1,5.26-.24,2.52-.47-2.3,0-8.38-.28-9.1-.35-13.48l0,5c-.21-1.69-.27-5.88-.44-11.71.13-.5.2,5.3.22,3.21-.44-6.47,0-14.64-.35-23.67,0-4.18.32-.41.34-4.08-.42-10.12,0-11-.36-21.61-.18,3.07-.11,3.61-.48-3.88l.49,17.49-.55-11.22c.09,5.28.36,11.14.37,14.3-.29-5.35-.22-4.8-.37-2.27.22-7.23-.48-14.31-.39-22.67l.59.24c0-12.55-.72-22.3-.88-38.6v5.24c-.27-2.18-.23-10.06-.41-15.34.2.49.22-2.81.3-5.07-.14.28-.19-11.93-.61-13.4l.13-7.29c-.12-13.16-.82-15-1-27.66.28,3.8.32-1.95.62,6.53,0-2.12-.07-4.12-.09-5.61A14.21,14.21,0,0,0,5,343.59c.08-2.47-.47-11.71-.35-15.6a69.82,69.82,0,0,1-.38-7.1c0-.52.1,0,.1,0s-.25-7.42-.41-3.27c.42-13-.59-36.37-.23-47.71-.22-9.22-.42-20.33-.53-28.7a5,5,0,0,1,.1,1.61c0-11.55-.65-7.09-.6-20.23.24-6.72.26,7,.33,2.79.63-1.83-.27-15.86,0-24.71l.06,2.14c.13-6.76-.43-16.48-.44-27.53,0,0,.06.54.1.07-.38-7.55-.59-21.85-.75-32.47.27,3.3.17,4.82.41,2.81-.07-4.77-.41,1.39-.54-8.11.11-3.09.21-10,.5-10.86,0,3,0,6,0,9,.3-4.59,0-11.6,0-16.32l.16.6c0-13.74-.43-13.93-.38-28.7L2.07,92.8c-.36-8.08.19-6.77,0-14.82l.43-2.43c0-5.33-.11-18.65,0-28.21.21,5.42.2,16.59.27,23.51.08-5.28.24-17.93.08-20.69,0,2.13.06,4.81,0,6.91q-.15-4.86-.18-11.24c0-2.13,0-4.39.06-6.76s.19-4.88.29-7.51c.21.58.42-1.75.63-5.48.1-1.86.21-4.08.33-6.45s.22-4.87.34-7.35a.6.6,0,0,1,.31-.5,5.27,5.27,0,0,1,.87-.5,18,18,0,0,1,2.09-.8c1.42-.45,2.84-.81,4.16-1.1a63.11,63.11,0,0,1,6.38-1.09,266.67,266.67,0,0,1,27.8-3.65c9.56-.82,19.52-1.39,30.33-1.83-7.69-.3,6.32-.27,5-.8,5-.2,7-.21,7.42-.18q7.65,0,15.28.26c3.62.19-4.79.11-4.33.26,11,.09,4.63.27,11.93.52-1.5-.24,3.84-.27,10.12,0-2.95-.2-5.89-.37-8.84-.53,7.71,0,11,.29,14.37.56s6.69.56,14.45,1l-4.91-.14c4,.19,11.31.71,18.6,1.42s14.55,1.57,18.45,1.91c1.39.28,3.2.72-.27.24,9.41,1.43,19.85,3.23,29.63,5.58,4.89,1.16,9.6,2.49,13.94,3.87,2.15.73,4.23,1.43,6.17,2.19s3.78,1.48,5.44,2.29c-.46-.15-.91-.32-1.38-.44a74.21,74.21,0,0,1,9.6,4.4c-.23-.05-1.33-.51.11.24.87.35,2.9,1.52,5.26,2.82,1.19.63,2.37,1.45,3.53,2.21s2.3,1.49,3.22,2.21c-1.1-.75-2.27-1.4-3.4-2.11l2.78,1.89,2.51,1.93,2.4,1.83c.77.6,1.47,1.26,2.18,1.86l2.09,1.8,1,.87,1,.92,3.66,3.58c1.17,1.2,2.23,2.47,3.34,3.69.55.62,1.11,1.24,1.66,1.87s1,1.32,1.55,2c1,1.35,2.08,2.72,3.16,4.15l3,4.7a7.16,7.16,0,0,0,1,2.14c.63,1.33,1.52,3.17,2.54,5.19.25.5.52,1,.78,1.55a14.92,14.92,0,0,1,.75,1.62c.48,1.11.95,2.23,1.42,3.32.94,2.19,1.87,4.25,2.42,6l-.14-.21Q286,85,287.3,88.55l2.09,7c.75,2.26,1.22,4.53,1.76,6.75s1.11,4.4,1.56,6.59a229,229,0,0,1,3.89,27.45c0,1.55.11,3.37.21,5.41q.07,1.53.15,3.21c0,1.12,0,2.29,0,3.5,0,4.84.25,10.33,0,16.07-.07,2.87-.13,5.79-.2,8.72s-.36,5.87-.53,8.75-.35,5.74-.58,8.47-.57,5.37-.84,7.86c.38-3,.29.53,0,4.07-.14,1.17-.27,2.56-.39,4s-.31,2.86-.45,4.13c-.29,2.55-.54,4.42-.69,4l.22-1.66c-.87,3.45-1.9,13-3.23,20.46l.32,1.31c-1,4.83-1.9,10.45-3.11,16.26-.56,2.92-1.12,5.89-1.69,8.86s-1.08,5.94-1.73,8.82c-1.23,5.77-2.41,11.26-3.42,16-.5,2.36-1.06,4.49-1.56,6.37s-.95,3.49-1.36,4.78c-1,4.64-2.36,10.39-3.41,15l-.2-.32c-3.52,12.72-5.2,19.06-9.46,34.82l.68-3.26c-2.45,8.88-2.28,11.43-4.51,19.62l-1.08,2.36q-1.6,5.81-3.22,11.63l-3.09,11.69c-2,7.8-4.07,15.57-5.83,23.31a12.92,12.92,0,0,1,.62-3.28c-1.84,7.34-7.05,28.4-5.87,25.86a66.14,66.14,0,0,0-2.26,9.17c-1,5.11-2.17,11.26-3,15.53v-1.38c-.58,3.62-.86,5.49-1.25,7.71s-.82,4.8-1.67,9.84c-.46,2.38-.59,2.06.05-1.1-1.57,7.93-.85,6.24-2.72,15.86l.47-3.63c-.37,2.05-.63,3.55-.84,4.71s-.26,2-.34,2.72c-.14,1.44-.22,2.42-.43,4.7-.6,5.19-2.31,15.6-2.51,16.82.05,1.13-.17,5.69-.69,10.56-.16.65-.06-1.13,0-2-.37,3.46-.7,6.48-.73,9.22s-.14,5.2-.2,7.51c0,1.16-.06,2.28-.09,3.39s-.09,2.2,0,3.3c0,2.2.06,4.42,0,6.81a6.3,6.3,0,0,0-.14,1.62c0-2.76-.08-5.4-.12-7.77,0-.6,0-1.18,0-1.74s0-1.1.05-1.63c0-1,.09-2,.13-2.89.14-3.5.23-5.52.22-5.1-.25,0-.65,8.93-.72,1.8,0,1.8-.05,3.91-.08,6.21,0,1.15,0,2.35.08,3.57s.1,2.48.15,3.74c.08,2.53.17,5.1.25,7.59,0,1.25.13,2.46.21,3.65s.15,2.32.22,3.41c0,.42,0,.83,0,1.15l-.09-.9c.11,2,.26,3.81.42,5.5.11,2.78.38,4.53.66,7.18-.05.53.22,3.08.56,6s.9,6.34,1.2,8.55c.22-.41,1,5.36.46-.07.08.7-.16-.83-.6-3.75-.11-.66-.23-1.44-.3-1.87,0,.08,0,.18.06.29-.39-2.89-.8-6.68-1.31-11,.57,3.48,1,7.13,1.55,12l1.36,6.08c.12,1.52.31,3.38.52,5.35s.5,4,.74,6c.49,3.86.91,7.18.92,8,1.11,6.69,2.48,14.56,3.53,21.83.57,3.63,1.12,7.11,1.61,10.2s.85,5.82,1.23,7.92a40.72,40.72,0,0,1,.45,5.86c-.31-2.21-.61-4.84-.83-6,1.06,7.61,2.65,22.7,3.34,24.47.56,4.83.3,3.49.12,2.59s-.31-1.34.72,5.27l-.38-1.77a292.3,292.3,0,0,0,6.51,34.29c2.62,10.74,5.61,21.74,9.47,35.8-.54-1.95-.81-2.92-.87-3.33,4.54,16,10.3,32.15,16.58,48s13.09,31.45,19.41,46.57c3.61,8.58,4.23,9.41,6.62,14.57l.5,2q2,4.41,4,8.85a159.46,159.46,0,0,1,6.35,18.16c.89,3.08,1.73,6.28,2.51,9.79a99.26,99.26,0,0,1,2,11.59l0-2.24a54,54,0,0,1,.15,12c-.42,4-1.46,6.94-1.41,6.41-.07.31-.16.81-.33,1.53s-.56,1.59-1,2.7l-.22.11a39.21,39.21,0,0,1-8.54,12.47c-1.11,1-1.89,1.73-2.53,2.2s-1,.77-1.32.95c-.55.35-.55.26-.68.27s-.36.15-1.48.86l-2.39,1.6-1.91,1.18-1.14.71-1.33.75c-2.73,1.68-6.82,3.72-9.94,5.26s-5.32,2.47-4.18,2.05,2.76-1.1,4-1.58a16.68,16.68,0,0,1,2.38-.88c-1.77.88-3.59,1.64-5.4,2.42-.41.42-1.63,1.17-1,1.17a12.32,12.32,0,0,0,2.56-.72,77.09,77.09,0,0,0,7.17-2.92c1.49-.83,3-1.59,4.47-2.5l2.2-1.32,2.13-1.43c.48-.26,1-.51,1.45-.79l1.42-.87c-1.16.86-2.38,1.64-3.6,2.4s-2.48,1.48-3.73,2.19a44.73,44.73,0,0,0,9.57-6.36,23.3,23.3,0,0,0,3.47-2.61c1.23-1.17,2.32-2.49,3.43-3.78l1.52-2c.52-.67.93-1.42,1.4-2.12.43-.46-.15.53-.34.94-.09.2-.09.26.19-.08.14-.17.35-.44.65-.84a16.37,16.37,0,0,0,1.11-1.7c1.12-2.13.45-1.18,0-.57-.23.3-.41.52-.29.23s.61-1,1.39-2.85c.29-.55.55-1,.74-1.41s.34-.74.48-1c.27-.6.47-1,.67-1.47s.32-1,.54-1.7c.09-.37.23-.79.34-1.31s.21-1.12.34-1.84.16.45-.38,2.72a46.15,46.15,0,0,0,1.3-9.06,41,41,0,0,0-.32-7.21A64.31,64.31,0,0,0,315.53,900c-.76-3.54-1.55-6.33-1.25-6.16-.27-.76-.95-2.9-1.82-5.38s-1.89-5.31-2.69-7.5c1.67,3.93.26-.21-1.56-5s-4.06-10.31-3.37-9.37c-2.78-5.68-9.1-20.85-13.79-30.94.28.55.83,1.64,1.21,2.55-2.47-5.76-3.06-7.49-4.57-11.22-.67-.58-4.6-9.51-6.81-14.28-2.58-7.24,2.2,4.13,1.62,1.76-.17.49-5.35-12.21-4.6-9.7a75,75,0,0,1-2.57-7.67c-.84-.78-2.05-5.06-4-9.51-2.69-8.06-.36-2.2-3.62-10.93C266.32,772.42,269.26,780.17,269.26,780.17ZM228,562.86h0c.14,1.91.26,3.53.34,4.56C228.25,566.47,228.15,565.16,228,562.86Zm-.46-18.6c0,2.26,0,5.09.09,8.07-.09.66-.2-.05-.23-1.92C227.48,551.42,227.42,547,227.52,544.26Zm.45,39.52a36.93,36.93,0,0,1-.43-4.34l.63,5.14c0,.09.05.26.07.34A9.34,9.34,0,0,1,228,583.78Z"/><path class="cls-1" d="M229,589l.2,1.2c-.07-.6-.13-1.17-.2-1.75-.08-.35-.16-.71-.24-1C228.86,588,229,588.52,229,589Z"/><path class="cls-1" d="M14.1,872v-.39c0,.33,0,.63,0,.83C14.09,872.15,14.09,872.15,14.1,872Z"/><polygon class="cls-1" points="281.08 292.88 281 292.89 280.67 294.49 281.08 292.88"/><path class="cls-1" d="M14.77,974.86a13.78,13.78,0,0,0,.72,1.22C15.47,976,15.15,975.5,14.77,974.86Z"/><path class="cls-1" d="M56.05,989c2.09.22,4.18.38,6.28.54C59.61,989.36,57.63,989.2,56.05,989Z"/><path class="cls-1" d="M90.24,990.06a4.07,4.07,0,0,0,.66-.13h-.06Z"/><path class="cls-1" d="M6.09,510.53c0-.46,0-.91,0-1.32C5.94,506.12,6,508.22,6.09,510.53Z"/><path class="cls-1" d="M9.91,672.05c-.07-1.72-.15-3.41-.23-5.19A31.06,31.06,0,0,0,9.91,672.05Z"/><path class="cls-1" d="M2.45,330.15s0,0,0,0c0-.39,0-.73,0-1.12Z"/><path class="cls-1" d="M9.54,659.35c0,2.87.06,5.28.14,7.51C9.66,664.5,9.63,661.72,9.54,659.35Z"/><path class="cls-1" d="M237.09,972.2l1.61-.35s.07-.05.19-.09Z"/><path class="cls-1" d="M238.89,971.76l1.77-.44C239.84,971.52,239.13,971.67,238.89,971.76Z"/><path class="cls-1" d="M244.39,970.37l-3.73,1C242,971,243.56,970.65,244.39,970.37Z"/><path class="cls-1" d="M192.6,980.44l-.49.18A1.36,1.36,0,0,0,192.6,980.44Z"/><path class="cls-1" d="M179,982.5c3.25-.44,8.18-1,12.69-1.74l.41-.14C190,981.12,182.07,981.89,179,982.5Z"/><path class="cls-1" d="M121.87,987.36q5.75-.37,11.47-.83c-2,.06-4.66.14.55-.33C119.42,987.06,136.9,986.25,121.87,987.36Z"/><path class="cls-1" d="M86.25,988.73c6.17-.15-.08-.16.25-.22C82.58,988.63,81.63,988.65,86.25,988.73Z"/><path class="cls-1" d="M13.16,791.46l.26.62C13.31,787.31,13.32,792,13.16,791.46Z"/><polygon class="cls-1" points="10.97 742.18 10.9 746.83 11.17 749.03 10.97 742.18"/><polygon class="cls-1" points="12.26 713.03 12.34 715.11 12.1 707.16 12.26 713.03"/><path class="cls-1" d="M4.16,279.93l-.3,1.44C4,284.59,4.33,285.26,4.16,279.93Z"/><path class="cls-1" d="M2.37,93c.16-2,.26-7.3.11-10.54C2.46,86.61,2.33,90.81,2.37,93Z"/><path class="cls-1" d="M288.75,243.83l.5-3.73c-.36,2.34-.67,4.67-1.12,7C288.34,246,288.58,244.92,288.75,243.83Z"/><g class="cls-2"><path class="cls-1" d="M289.9,957.4c1.18-.51.47-.32-2.85.94l-2.33,1C286.46,958.73,288.18,958.07,289.9,957.4Z"/><path class="cls-1" d="M267,964.3c-4,1.16-8.67,2.43-6,1.93,4-1.17,5-1.35,9.22-2.7a53.52,53.52,0,0,1,5.42-1.44c1.2-.38,5.3-1.58,7.08-2.29-4.43,1.35-10,3-15.94,4.67C265.49,964.78,266.71,964.41,267,964.3Z"/><path class="cls-1" d="M25.75,869l0,2.23C25.78,870.58,25.76,869.82,25.75,869Z"/><path class="cls-1" d="M19.46,653.83c.06,1.63.1,2.32.11,2.4C19.51,654.71,19.46,653.46,19.46,653.83Z"/><path class="cls-1" d="M18.47,617.09c0,.79,0,1.45.06,2.17C18.52,618.43,18.5,617.6,18.47,617.09Z"/><path class="cls-1" d="M25.75,869l-.09-5.75C25.6,862.81,25.7,866.15,25.75,869Z"/><path class="cls-1" d="M220.24,974.71l3.06-.58-2.88.52Z"/><path class="cls-1" d="M27.1,963.83l0,1.75c0,.51,0,1,.06,1.45C27.11,966,27.12,964.9,27.1,963.83Z"/><path class="cls-1" d="M89.11,986a18.23,18.23,0,0,0-2.85.14c.93-.05,2.15,0,3.59,0C89.88,986,89.66,986,89.11,986Z"/><path class="cls-1" d="M204,976.8l2-.34Z"/><path class="cls-1" d="M26.8,911.71c0-.13,0-.39,0-.67A3.57,3.57,0,0,0,26.8,911.71Z"/><path class="cls-1" d="M326.37,892c0-.05,0,0,0,0C326.47,892.39,326.51,892.52,326.37,892Z"/><path class="cls-1" d="M289.76,957.06l1.08-.45c.11-.08.22-.15.21-.17Z"/><path class="cls-1" d="M16.53,549.87c0,.13,0,.18,0,.3C16.61,551.94,16.58,550.94,16.53,549.87Z"/><path class="cls-1" d="M99.85,8.65c-7,0,11.37-.45.85-.33C101.68,8.34,91.15,8.84,99.85,8.65Z"/><path class="cls-1" d="M218.37,975l-2.94.5Z"/><path class="cls-1" d="M100.7,8.32h0l-1.09,0Z"/><path class="cls-1" d="M11.94,395c0,.32,0,.94,0,1.58C11.93,396.52,11.94,396.16,11.94,395Z"/><path class="cls-1" d="M15,510.38,15,507.53C15,508.66,15,509.58,15,510.38Z"/><path class="cls-1" d="M10.25,335.08c0-1.55,0-2.08-.09-4.2v.65C10.2,332.29,10.23,333.31,10.25,335.08Z"/><path class="cls-1" d="M9,272.71c0,.33,0,.77,0,1.16,0,.61,0,1.33.05,2Z"/><path class="cls-1" d="M261.93,714.05c.26,1.34.4,2.18.5,2.84C262.32,715.93,264.34,724.86,261.93,714.05Z"/><path class="cls-1" d="M220.19,974.64c-.35.1-.88.21-1.82.38l2-.37C220.59,974.6,220.63,974.57,220.19,974.64Z"/><path class="cls-1" d="M9.08,332.57l-.2-9.91C8.94,325.43,9,329,9.08,332.57Z"/><path class="cls-1" d="M297.89,275.06l-.48,2.22C297.61,276.43,297.78,275.64,297.89,275.06Z"/><path class="cls-1" d="M8.24,293.25c0-1.77,0-3.64,0-5.58,0-.41,0-.88-.06-1.15Z"/><path class="cls-1" d="M262.43,716.91v0Z"/><path class="cls-1" d="M281.14,779.33c-3.18-8.88-1.65-4.12-2.43-6-1.87-5.31-2.24-6.56-2.31-6.93s.18.13-.38-1.7c-2.27-6.65-4-11.76-5.49-16.79-.08-.39-.35-1.37,0-.23-.55-1.78-1.21-4-1.92-6.44s-1.43-5.15-2.15-7.9c-1.43-5.48-2.81-11.14-3.85-15.35-.12-.63-.18-.95-.2-1.11.22,1.39.17,1.62,0,1.36-.47-2.07-.91-4-1.28-5.57s-.6-2.88-.7-3.67c.52,2.54.6,2.75.89,3.92l-.95-4.33c-.62-3.94,1.26,5.92,1.44,5.89C260,706.08,258,696.19,257,689.64c0-.69.63,3.12,1.13,6s.9,4.86.18.5c.59,3.37,1.19,6.73,1.83,10.09-.63-3.87-.33-2.34,0-.74s.67,3.29.09-.27c-.62-3.31-1.1-5.89-1.52-8.11s-.71-4.07-1-5.93-.62-3.71-1-5.93-.74-4.82-1.15-8.16c-.5-3,0,1-.5-2-2.41-19-1.35-15-3.24-29-.61-3.6-1-5-2.35-14.9l.68,3.35c-.9-6.48-1.31-8.3-1.66-10.21s-.72-3.9-1.74-10.67c.46,2.39,1.68,10.14,1.39,8.18-1.25-8.78-1.09-6.18-2.18-12.9l-.06-1.42c-2.21-13.73-4.85-28.84-5.6-44.22.11.84.35,3.47.14-.12-.23-2.42-.24-4.88-.29-7.38s-.09-5-.13-7.56.11-5.09.19-7.66.21-5.13.32-7.69.35-5.12.6-7.65.49-5.05.73-7.54c.39-5,1.19-9.81,1.86-14.44l.85-7.1c.23-1.65.49-3.05.27-1.26.52-3.61.58-3.7.46-3.33s-.31,1.2,0-.54c.72-4.08,1.05-5.38.63-2.78.55-3.18,1.21-7,1.93-11.22.36-2.09.75-4.28,1.13-6.51s.91-4.48,1.37-6.75c1-4.53,1.92-9.08,2.82-13.33s1.74-8.2,2.61-11.48l-.58,2.58c2.52-10.27,2.49-11.67,4.9-21.18l-.41,1.84,2-8.46c.69-2.84,1.47-5.68,2.2-8.53,1.47-5.69,2.95-11.37,4.38-16.88,2.8-11.05,5.77-21.36,8.19-29.77.68-3.27,6.15-21.87,6.24-23.38,1.81-6.3,2.45-8.55,3.28-11.44l1.54-5.42c.33-1.18.71-2.54,1.16-4.17s.9-3.54,1.47-5.78c1.2-4.79,1.59-7.18,3-13.11l.19-.11.91-4,.82-4.06,1.13-4.26,1.19-5.6c-.5,2.23-1.11,4.72-1.08,4.37.91-4.37,2.18-9.67,3.07-13.93.44-2.14.83-4,1.11-5.35s.48-2.17.51-2.22L303,249.76l1.66-10.44c0,.47-.56,4-1,6.74,1.67-11.17.49-2,2-12.23-.25,1.36,0-.76,0-1,.52-2.53,1.05-6.72,1.67-11.35s1.35-9.67,1.68-14l-.05,1.67q.57-5.85,1.18-12c.23-2,.34-4.11.46-6.21s.25-4.2.38-6.32.27-4.27.36-6.42.09-4.32.13-6.5.09-4.36.13-6.55c.05-1.1,0-2.2,0-3.3l-.07-3.3c.08,6.32-.14,4.87-.26-.29l.12-2.07c-.17-3.33.05,5.39-.22-1.45-.12-6.57.1-4.43.23-.65l-.11-4c-.07-1.33-.19-2.66-.28-4a17,17,0,0,1,.26,1.88c-.16-1.63-.35-5.08-.56-8.72-.06-.9-.11-1.82-.17-2.73s-.2-1.79-.3-2.64c-.2-1.69-.4-3.23-.58-4.4V129c-.42-4.4-1.16-8.14-1.74-11.54-.31-1.7-.54-3.33-.88-4.87s-.71-3-1.05-4.49-.68-2.9-1-4.35c-.15-.72-.36-1.43-.58-2.15s-.43-1.44-.65-2.17c-.91-2.91-1.68-6-3-9.36-.11-.11-.65-1.49-1.36-3.33-.37-.92-.7-2-1.2-3l-1.43-3a109,109,0,0,0-18.68-29.47,26.24,26.24,0,0,0-1.87-1.94l-1.12-1.09a4.69,4.69,0,0,0-.68-.62c-.05,0,.33.43-1.11-1-.25-.7-10-8.86-4.92-4.68L267.32,41c-.37-.27-.72-.54-1.07-.81l-2-1.52-1.87-1.42c-.61-.44-1.23-.82-1.83-1.22l-3.44-2.26c-1.14-.7-2.29-1.34-3.46-2a112.49,112.49,0,0,0-19.06-8.61c2,.73,4.13,1.67,3,1.25-1.62-.66-3.5-1.31-4.91-1.82a13.75,13.75,0,0,1-2.08-.82l.88.29a281.64,281.64,0,0,0-34.2-8.48A310.15,310.15,0,0,0,165.6,9.37l1,.07q-8.9-.76-17.82-1.21c-8.2-.48,4.93.18-1.14-.24-9.63-.41-17.23-.6-24.42-.7s-13.94-.06-21.87.21c-6.14,0-17,.37-28.44,1.23S49.56,10.87,41.33,11.9l1,0c-4.23.67-5.14.68-8.27,1.15.45,0,4.61-.64,2-.18-4.49.71-9,1.5-13.5,2.58-1.13.28-2.25.57-3.37.93a11.78,11.78,0,0,0-3.35,1.47,8.2,8.2,0,0,0-2,3.18,31.47,31.47,0,0,0-1.06,3.38,112.59,112.59,0,0,0-2.32,13.88c-.55,4.67-1,9.36-1.31,14.06-1.36,18.8-1.92,37.74-2.29,56.33-.21,13.6.33,7.72,0,24.86l-.13-4.87c0,27.45-.07,56.12.39,83C7,210,7,210,7,207.34c0,2.83,0,8.08.1,12.63,0,2.27.1,4.37.13,5.91,0,.76.05,1.39.06,1.83a6.28,6.28,0,0,0,0,.7c0,4.18-.08,1-.09,3.55,0,5.69.36,14.28.29,17.31,0,.51-.07-1.6-.09-2.64.11,3.7.26,17.27.34,13.72.18,10.08.34,19.28.48,27.32.26,5.24.28,17.26.53,18.92-.24-.72.2,17.67.45,24-.11-2.13.06,5.54-.09,3.05.17,7.27.37,13.93.46,12.66,0,13.41.87,26.92.72,34.48.68,21.59,1.3,41.58,1.91,61-.25-.7-.62-21.48-.83-20.64.6,18.43,1.1,29.06,1.57,47.34.11,4.73-.17-2.69-.26-4.28.63,18.41,1,35.6,1.65,52,0,0,0-.48-.06-1.13s-.07-1.52-.1-2.35c.1,3.23.19,7.51.28,7.14l-.12-3.15c0-5.16.7,12.82.8,13.39-.46-5.47.42,16.19-.22,7.49a39.49,39.49,0,0,0,.27,4.3c.08,3.16.07,4.16-.11,1,.42,11.57.4,7.45.73,17.93a9.53,9.53,0,0,1-.1-1.22c0-.67-.1-1.47-.13-2,.26,5.3.52,10.63.76,19.49,0-.53,0,.49-.14-2.15.5,15.21,1.08,25.92,1.52,42.6-.37-4.91.11,5.68-.05,6.57l.34,9,0-3.6c.24,7.85.6,14.79.76,21.55l-.27-5.84L19,659.9l-.2-8.34c.35,8,.21-.86.49,9.6-.08-2.12.25,7.87.27,12v0c.18,3.88.37,7.88.51,13.69,0,1.51-.24-1.2-.25-.22.28,3.83.63,18.4.95,23.25-.09-1.61-.2-1.7-.2-1.16l.23,3.21c.07,3.64.07,4.18,0,3.59.33,10.95.13-3.49.44,9.51-.05-1,0-.53-.13-2.65.41,13,.79,25.21,1.17,37.21-.08,3.54-.37-10.48-.4-6.43.56,17.3,1.31,35.81,1.74,52.54l-.07-3.12c.34,2.32.23,12.47.59,20.93-.08-2.07-.22-2.71-.18-2.15.28,11.46.72,23.43,1.23,40.8L25,860c.14,6.75.37,17.79.52,25.08.11,2.17.19,6.34.23,3.8.08,22.51,1,42.92.72,62.89,0-2.39-.07-5.69-.06-3.79,0,5.67,0,11.34,0,17,.13-1.34.09-2.22.21-5.8,0,1.08.05,2.82.05,4.82s-.23,4.29.54,6.3a12.73,12.73,0,0,1-.59-3.11c0-.3,0,.05,0,.75a4.74,4.74,0,0,0,.16,1.27,7.68,7.68,0,0,0,.43,1.51,9.79,9.79,0,0,0,.69,1.46l.78,1.21c-.14-.24-.05-.13.08,0s.29.27.21.15l1,1.13c.32.31.62.56.87.78l.67.59.55.37c.62.42.88.55,1.22.75s.8.37,1.82.93a53.64,53.64,0,0,0,5.51,2.36l-.63-.15a87.93,87.93,0,0,0,13.23,3.26c1,.23-.21.06-1.69-.21s-3.24-.64-3.4-.64a173,173,0,0,0,19.61,2.75c-2.92-.21-7.1-.65-10-1,3.35.55,5.23.78,6.89,1s3.12.32,5.63.53l-.49-.05c3.87.33,7.75.56,11.63.72l-3-.16c8.61,0,17.53.4,29.12-.14-11.26.46-1.86.18-2.72.35,3,0,7.47-.13,6.19-.05,5.47-.31,9.15-.25,16.86-.88.35,0,5.86-.37,4.63-.17,7.11-.53-1.69,0-1.09-.07,10.94-.88,25.76-1.8,41.43-3.89,6.76-.85,10.75-1.44,14.62-2l13.86-2.15c4.23-.56-3.43.69-3.43.69,6.82-.93,11.93-1.76,18.32-2.9-1.29.26,0,.07,2-.2,5.12-.92,3.4-.76,10.16-1.93-1.14.26-2.61.62-5.08,1.13,6-1.13,12-2.36,18.18-3.69,1.67-.26-3.73.91-5.91,1.38,7-1.38,18.08-3.88,20.19-4.56l-4.48,1c2.54-.57,1.34-.18-.53.27a88.7,88.7,0,0,1-9,1.84l4.41-1c-2.3.35-6.73,1.3-11.73,2.32s-10.54,2.13-15,2.89l3.7-.86L214,975.49c-2,.27-3.32.38,1.1-.39-6.45,1-5.68,1-11.24,1.77-.61.08-.34,0,.23-.07l-6.3,1c1.23-.23-1.07,0,2.81-.54-11.33,1.58-18.25,2.71-22.54,3.09l.94-.13c-15.75,2-1.5.37-13.31,1.9l-8,.47-1.53.3c-1.64.15-4.86.46-4.27.33-6.06.66,1,0-2.47.39l-14,1.09c-4.66.34-8.56.55-9.45.49-2.82.28,7.53-.37-.87.22-2.41-.13-9.71.58-16.91.65,2.2-.2,9-.37,1.82-.24-4.34.38-14,.28-20.09.22-.14.09-3.44.08-8-.07s-10.3-.46-15.38-.91c.33,0-4.45-.41-10.43-1.35s-13.12-2.62-17.46-4.48l.27.07a16.18,16.18,0,0,1-2.5-1l-.93-.42-1-.54c-.34-.19-.71-.37-1.06-.59l-1.07-.73-.56-.37-.52-.44c-.34-.3-.71-.59-1.05-.91l-1-1.05a12.4,12.4,0,0,1-.84-1.17,9.94,9.94,0,0,1-1.54-5.27,6.57,6.57,0,0,1,.22,1.33,9.92,9.92,0,0,0,1.34,3.64,11.31,11.31,0,0,1-.71-1.44,10.43,10.43,0,0,1-.45-1.54,15.9,15.9,0,0,1-.18-3.26c0-1.58,0-3.67,0-8l.13,1.68c0-8.92-.15-18-.19-29.42-.13-.64-.25,9.12-.47-3,.06-.45.17-.9.24,2.27,0-1-.1-3.7-.1-5.8l.18,4.85c0-5.23-.14-2.73-.18-6.91.1.08,0-3.09.11-2.49,0,1.06,0,3.64.07,5.24,0-4.71-.07-10.4,0-12.28-.05.41-.13,0-.21-3.45-.16-8.91.07-3,0-8.25-.1-2.15-.15-7.84-.3-8,0-2.6,0-3.09,0-4.1-.15-4.61-.5-21.53-.54-16.33l0,1.18c0-.22,0-.48,0-.75v0c-.5-15.11-.69-31.4-1.17-46.39l.05,0c-.3-8.95-.59-19.92-.89-26.31-.07-2.65-.09-6.25,0-5.12-.23-6.84-.31-7.61-.53-17.49.3,6.87,0-2.38.28,7-.22-8.89-.21-10.91-.63-20.45.22,3.24,0-6.7-.21-10.92l.1,6.23c-.15-4.75-.27-8.91-.4-13.13l.23,2.28c-.35-18.2-1.36-32.8-1.46-46.65-.27-4.81.23,9.88,0,5.58-.24-8.37-.28-17.09-.37-19.71-.27-11.47-.58-10.69-.9-22.69,0,1.54-.12,3-.46-6-.25-8.37-.08-10.3.13-5,.07,2,.09,3,.06,2.89.11,2.7.25,6.25.21,2.93l-.1-1.08c-.07-4.16-.44-15.68-.26-13-.26-6.33-.18-2.71-.06,2-.32-10.74-.5-16.78-.83-27.83,0,1.76,0,3.38-.05,1.63-.44-16.22-.34-7.14-.72-18.12-.1-6.25.29,2.23-.13-8.83-.16-6.76.11-1.44.24,1.25-.43-10.08-.52-18.83-.68-24.59l.22,5.31c-.11-3.18-.2-5.77-.3-8.42l0,3c0-1.56-.08-3-.1-4a16.24,16.24,0,0,1,0-1.66c-.18-3.2-.12,2.47-.42-3.9-.07-4.16-.46-12.65-.35-14.09.35,13.07.11-1.45.48,9.61-.08-2.13-.16-4.73-.24-7.86,0-.47.05.44.08,1.29-.24-12.51-.35-5.74-.75-18.7.14,1.65.08-3,0-5.12.16,5.22-.07,2.5-.28-2.29-.19-8.31-.33-9-.45-13.38l.11,5c-.14-1.68-.25-5.83-.45-11.63.05-.49.2,5.26.17,3.2-.35-6.43-.28-14.54-.65-23.51-.06-4.15.16-.4.09-4.05-.41-10.05-.2-10.89-.6-21.45,0,3,0,3.58-.32-3.86L14,471.42l-.5-11.14c.18,5.24.37,11.06.47,14.2-.25-5.31-.21-4.77-.23-2.26,0-7.17-.52-14.21-.64-22.5l.31.24c-.23-12.47-.78-22.14-1.15-38.33l.09,5.21c-.18-2.17-.29-10-.48-15.24a47.61,47.61,0,0,0,.07-5c-.07.28-.31-11.84-.54-13.31L11.32,376c-.27-13.07-.66-14.91-.92-27.47.19,3.78.13-1.93.4,6.49,0-2.1-.09-4.09-.13-5.57,0-.74,0-1.35-.05-1.77a3.82,3.82,0,0,0-.06-.7c0-2.45-.41-11.62-.4-15.48-.08-1.77-.2-2.35-.3-7.06,0-.51.05,0,.05,0s0-.12,0-.31,0-.47,0-.78c0-.63-.06-1.42-.08-2.09-.06-1.32-.11-2.13-.12-.07,0-12.93-.78-36.12-.72-47.37-.17-9.16-.39-20.19-.55-28.5a9.87,9.87,0,0,1,.07,1.6c-.08-11.47-.4-7.05-.47-20.1.07-6.66.18,6.93.18,2.77.3-1.81-.25-15.74-.14-24.52l0,2.12c0-6.71-.28-16.37-.32-27.34,0,0,0,.53,0,.07-.21-7.5-.31-21.7-.32-32.25.12,3.28.06,4.79.19,2.79,0-4.73-.22,1.38-.22-8,.07-3.07.17-9.88.32-10.78l0,8.9c.2-4.56,0-11.53.13-16.22l.08.6c.13-13.64-.08-13.83.24-28.49L8.09,98c0-8,.26-6.71.35-14.71l.28-2.41c.12-5.28.51-18.51,1.17-28C9.63,58.25,9.13,69.33,9,76.2c.18-5.24.8-17.79.92-20.52-.12,2.11-.23,4.77-.37,6.85.22-6.42.6-14.88,1.8-25.26,0,.47.26-1,.64-3.53a88.33,88.33,0,0,1,2-10,22.45,22.45,0,0,1,1-2.83,6.41,6.41,0,0,1,1.56-2.37,10.7,10.7,0,0,1,2.64-1.15c.93-.31,1.87-.55,2.77-.78,3.64-.89,6.83-1.43,8.7-1.69,9.06-1.68,18.16-2.78,27.65-3.7s19.4-1.59,30.14-2.11c-7.64.06,6.27-.3,4.94-.53,5-.21,6.92-.24,7.37-.24q7.59-.11,15.18,0c3.6.08-4.76.09-4.3.16,11,0,4.6.11,11.86.22-1.49-.12,3.81-.14,10.06.08q-4.39-.2-8.8-.32c7.67,0,11,.23,14.3.41l14.37.81-4.88-.21c4,.19,11.25.68,18.51,1.36s14.47,1.55,18.33,2c1.38.23,3.2.58-.25.1,9.37,1.34,19.76,3.17,29.49,5.48a160.22,160.22,0,0,1,25.56,8l-1.36-.46c1.65.61,3.05,1.23,4.57,1.87l2.37,1,2.68,1.38c-.22-.08-1.3-.58.15.16l2.09,1c.92.46,2,1.11,3.17,1.76,2.38,1.26,4.89,3,6.83,4.29l-3.37-2.13a114.34,114.34,0,0,1,10,7.28l4.1,3.53c1.28,1.19,2.46,2.41,3.66,3.57.59.59,1.2,1.15,1.76,1.76l1.64,1.86c1.08,1.26,2.23,2.47,3.28,3.79a101.86,101.86,0,0,1,6.23,8.76A13.63,13.63,0,0,0,289.08,68c.8,1.23,1.7,3.06,2.75,5.06l1.63,3.12c.58,1.05,1,2.19,1.5,3.27.94,2.18,1.89,4.23,2.57,5.9l-.12-.22c.93,2.51,1.82,4.93,2.68,7.28.47,1.16.8,2.35,1.15,3.51l1,3.44c.34,1.13.68,2.25,1,3.36s.55,2.24.83,3.34c.52,2.22,1,4.4,1.56,6.57s.81,4.37,1.23,6.56.85,4.38,1.13,6.64.56,4.54.85,6.88c.15,1.17.29,2.35.44,3.55s.19,2.43.29,3.67c.08,1.54.18,3.35.29,5.38s.31,4.26.3,6.67.09,5,.13,7.66c0,1.34.05,2.71.08,4.1s-.06,2.8-.1,4.23c-.06,2.85-.13,5.76-.19,8.67l-.06,2.19-.14,2.18-.27,4.34c-.18,2.87-.36,5.7-.53,8.42s-.53,5.35-.78,7.82c.34-3,.12.51-.2,4-.11,1.16-.25,2.54-.38,4-.07.71-.13,1.42-.2,2.11s-.16,1.37-.24,2c-.32,2.53-.56,4.39-.62,4l.23-1.65c-.33,1.73-.8,5-1.3,8.71-.27,1.87-.49,3.87-.81,5.85s-.65,4-.95,5.8l.06,1.26c-1.65,9.66-4.08,22.26-6.36,33.75-1.25,5.73-2.45,11.18-3.47,15.86s-2.08,8.52-2.78,11.1c-1.09,4.6-2.45,10.3-3.53,14.86l-.08-.28-9.43,34.57.78-3.21c-2.44,8.81-2.68,11.24-4.92,19.36l-.88,2.39-3.21,11.55L267,389.17c-2,7.74-4,15.46-5.93,23.11a25.48,25.48,0,0,1,.74-3.23l-.86,3.29c-.31,1.26-.65,2.67-1,4.14-.71,2.95-1.48,6.17-2.19,9.07-1.38,5.82-2.44,10.4-2,9.11a22.3,22.3,0,0,0-.73,2.69c-.39,1.64-1,3.89-1.49,6.42-1,5.06-2.28,11.16-3.14,15.38l.15-1.34c-.68,3.57-1,5.42-1.44,7.62-.21,1.09-.45,2.28-.75,3.81s-.6,3.43-1,5.93-.48,2.06.12-1.08c-1.5,7.88-1,6.17-2.78,15.72l.56-3.58a110.83,110.83,0,0,0-1.78,12c-.34,2.57-.89,6.44-1.4,9.82-.26,1.69-.5,3.26-.68,4.48s-.25,2.1-.31,2.4c0,1.12-.35,5.63-.84,10.46-.11.65,0-1.11.1-2-.82,6.86-.83,12-1,16.59-.06,2.3-.18,4.45-.2,6.63s.07,4.38.07,6.76a12.85,12.85,0,0,0-.06,1.6c0-2.74-.08-5.35-.12-7.71,0-1.17,0-2.29.07-3.33s.08-2,.12-2.86c.14-3.41.2-4.66.21-5.06-.13,0-.5,8.85-.4,1.79-.07,3.56-.32,8.38-.06,13.39.06,2.51.12,5.06.18,7.53,0,.62,0,1.23,0,1.83s.09,1.2.13,1.78c.08,1.17.16,2.31.23,3.38,0,.42,0,.83,0,1.15l-.08-.9c.13,2,.26,3.78.4,5.45.14,2.76.37,4.49.67,7.12,0,1,1.06,10.12,1.81,14.47.08-.38.91,5.34.23,0,.09.69-.14-.83-.58-3.73-.1-.66-.22-1.43-.29-1.86,0,.08,0,.19.06.3-.35-2.88-.79-6.64-1.3-10.91.5,3.46.92,7.08,1.49,11.93.42,2.23.88,4.68,1.13,6.06.64,6,2.49,17.51,2.6,19.13.55,3.32,1.14,6.94,1.75,10.63.3,1.84.6,3.7.9,5.56s.55,3.7.81,5.5c.55,3.61,1.07,7.07,1.54,10.15s.78,5.79,1.09,7.88c.49,3.8.45,4.38.58,5.8-.29-2.19-.6-4.8-.78-6,1,7.58,2.63,22.54,3.14,24.32.59,4.79.37,3.45.22,2.56s-.27-1.34.75,5.22l-.33-1.76c1.79,12.94,3.93,23.35,6.43,34s5.41,21.61,9.45,35.51c-.56-1.92-.84-2.89-.93-3.29,4.62,15.84,10.35,31.87,16.6,47.61s13.07,31.2,19.51,46.14c3.67,8.49,4.18,9.36,6.49,14.51l.65,1.9q2,4.41,3.85,8.85C320,875.36,322,881,323.9,887c.48,1.52.88,3.09,1.35,4.69s.88,3.27,1.25,5a86.65,86.65,0,0,1,1.95,11.57l-.12-2.22a52.63,52.63,0,0,1,.12,12,25.4,25.4,0,0,1-1.38,6.42c-.08.3-.21.79-.39,1.5s-.58,1.58-1.05,2.69l-.16.14a38.6,38.6,0,0,1-8.73,12.31,37.9,37.9,0,0,1-3.81,3.17c-.53.38-.51.31-.61.35a15.41,15.41,0,0,0-1.44.93c-.55.36-1.3.91-2.38,1.61s-2.49,1.62-4.38,2.63c-2.75,1.65-6.86,3.62-10,5.08s-5.34,2.33-4.21,1.9l4-1.6c1.26-.52,2.22-.94,2.33-.94-1.77.84-3.58,1.58-5.39,2.34-.45.31-1.7.94-1.16.84a20.4,20.4,0,0,0,2.48-.85c1.5-.54,3.76-1.45,7-3,1.49-.8,3-1.51,4.46-2.39l2.19-1.27c.72-.43,1.42-.91,2.13-1.36l1.41-.82,1.37-.89c-1.15.84-2.36,1.59-3.56,2.34s-2.45,1.43-3.69,2.14a54.35,54.35,0,0,0,9.5-6.18l1.36-1a22.3,22.3,0,0,0,2-1.65,47.15,47.15,0,0,0,3.47-3.6,44.73,44.73,0,0,0,3-4c.39-.47-.22.47-.44.85-.11.19-.12.24.14-.1l.62-.84.5-.69c.18-.28.37-.6.59-1,1.15-2.06.53-1.11.11-.49-.21.3-.36.53-.23.25s.22-.39.46-.83c.12-.22.28-.47.44-.79s.33-.7.54-1.14l.71-1.39c.17-.4.31-.74.44-1l.62-1.46c.17-.46.31-1,.52-1.66.11-.36.22-.78.37-1.28l.36-1.8c.2-.78.07.43-.5,2.63a42.35,42.35,0,0,0,1.36-8.86c.07-.76,0-1.51,0-2.21s0-1.38,0-2c-.08-1.22-.13-2.24-.22-2.88A70.8,70.8,0,0,0,327.71,898c-.75-3.5-1.56-6.26-1.37-6-.23-.76-.88-2.89-1.71-5.36s-1.82-5.27-2.61-7.45c1.54,3.94.14-.16-1.69-4.93s-4.08-10.2-3.52-9.22c-2.55-5.71-9-20.69-13.58-30.75.26.55.79,1.65,1.17,2.55-2.49-5.71-3.14-7.39-4.7-11.08-.49-.65-4.39-9.53-6.49-14.31-2.76-7.11,2,4.19,1.25,1.91,0,.42-5.22-12.18-4.34-9.74-2.08-5.45-1.83-4.68-2.78-7.53-.61-.86-2-5-3.87-9.51-2.81-8-.57-2.1-3.78-10.79C278.28,771.6,281.14,779.33,281.14,779.33Zm-40.91-216h0c.14,1.89.25,3.51.33,4.54C240.49,567,240.39,565.64,240.23,563.36Zm-.39-18.5c-.08,1.13,0,2.39,0,3.75s0,2.79.07,4.28c0,.65-.1,0-.13-1.92,0,.51,0-.33,0-1.64S239.72,546.24,239.84,544.86ZM241.17,584c-.36-2.92-.45-3.9-.47-4.31.17,1.38.36,3,.61,5.11,0,.08.05.26.06.34C241.31,584.9,241.25,584.59,241.17,584Z"/><path class="cls-1" d="M242,589.25c.07.42.1.65.19,1.2-.08-.6-.15-1.16-.23-1.74-.06-.35-.13-.71-.19-1C241.86,588.21,242,588.76,242,589.25Z"/><path class="cls-1" d="M25.79,871.59V872C25.79,871.75,25.79,871.75,25.79,871.59Z"/><polygon class="cls-1" points="293.4 295.22 293.36 295.24 293 296.82 293.4 295.22"/><path class="cls-1" d="M28.67,973.34c.12.16.38.46.89,1Z"/><path class="cls-1" d="M70.24,985.85c2.08.17,4.15.32,6.23.44C73.78,986.12,71.81,986,70.24,985.85Z"/><path class="cls-1" d="M104.16,986.64a5.37,5.37,0,0,0,.66-.07h-.06Z"/><path class="cls-1" d="M14.17,512.75c0-.46,0-.91-.05-1.31C14,508.37,14.07,510.46,14.17,512.75Z"/><path class="cls-1" d="M19.54,673.1c-.07-1.7-.15-3.38-.23-5.16C19.39,670.8,19.46,673,19.54,673.1Z"/><path class="cls-1" d="M9.1,333.66v0c0-.39,0-.72,0-1.11Z"/><path class="cls-1" d="M19.08,660.49c.06,2.85.14,5.24.23,7.45C19.24,665.6,19.15,662.85,19.08,660.49Z"/><path class="cls-1" d="M249.92,968.87l1.59-.35s.07,0,.19-.07Z"/><path class="cls-1" d="M251.7,968.45l1.77-.42C252.65,968.22,252,968.38,251.7,968.45Z"/><path class="cls-1" d="M257.18,967.13l-3.71.9C254.75,967.73,256.34,967.37,257.18,967.13Z"/><path class="cls-1" d="M205.76,977.05l-.5.13A1.66,1.66,0,0,0,205.76,977.05Z"/><path class="cls-1" d="M192.27,979.07c3.22-.44,8.1-1.05,12.58-1.78l.41-.11C203.17,977.6,195.32,978.56,192.27,979.07Z"/><path class="cls-1" d="M135.6,984.52q5.7-.39,11.39-.87c-2,.12-4.62.27.56-.19C133.18,984.49,150.52,983.38,135.6,984.52Z"/><path class="cls-1" d="M100.21,986c6.13-.12-.08-.08.25-.11C96.57,986,95.62,986,100.21,986Z"/><path class="cls-1" d="M23.75,791.64l.14.62C23.74,787.53,23.84,792.21,23.75,791.64Z"/><polygon class="cls-1" points="21.61 742.72 21.67 747.33 21.85 749.52 21.61 742.72"/><polygon class="cls-1" points="21.61 713.79 21.7 715.85 21.4 707.96 21.61 713.79"/><path class="cls-1" d="M9.28,283.81l-.13,1.43C9.24,288.44,9.43,289.11,9.28,283.81Z"/><path class="cls-1" d="M8.23,98.13c.12-2,.3-7.24.32-10.45C8.41,91.85,8.25,96,8.23,98.13Z"/><path class="cls-1" d="M302.23,246.76l.55-3.69c-.37,2.32-.69,4.64-1.12,6.94C301.89,248.94,302.05,247.85,302.23,246.76Z"/></g><path class="cls-1" d="M235.14,66.16c.12-.46-.06-.24-.46,1l-.14.94Z"/><path class="cls-1" d="M232,74.42c-.42,1.49-.85,3.22-.39,2.32.34-1.5.52-1.83.86-3.45.4-1.25.78-2.15.77-1.92.11-.45.69-1.92.81-2.62a53.08,53.08,0,0,0-2,5.8C231.92,75,232,74.54,232,74.42Z"/><path class="cls-1" d="M196,197.48l.22-.8C196.13,196.9,196.06,197.17,196,197.48Z"/><path class="cls-1" d="M178.38,275a5.77,5.77,0,0,0,.15-.88A5.41,5.41,0,0,0,178.38,275Z"/><path class="cls-1" d="M175.45,288.23c.06-.28.12-.52.17-.78C175.55,287.75,175.48,288.05,175.45,288.23Z"/><path class="cls-1" d="M196,197.48l-.57,2A15.25,15.25,0,0,0,196,197.48Z"/><path class="cls-1" d="M226.77,91.31c.14-.43.24-.78.33-1.11l-.33,1Z"/><path class="cls-1" d="M204.61,163.52l.16-.63c0-.18.06-.36.08-.53Z"/><path class="cls-1" d="M211.79,137.6a2.72,2.72,0,0,0-.11,1.07,9.12,9.12,0,0,1,.28-1.3S211.88,137.42,211.79,137.6Z"/><path class="cls-1" d="M224.39,96.87l.21-.73C224.54,96.33,224.45,96.65,224.39,96.87Z"/><path class="cls-1" d="M199.67,182.12a1.25,1.25,0,0,0-.11.23S199.62,182.26,199.67,182.12Z"/><path class="cls-1" d="M57.31,920s0,0,0,0C57.25,920.18,57.25,920.23,57.31,920Z"/><path class="cls-1" d="M46.88,949.42,47,949c0-.06,0-.11,0-.12Z"/><path class="cls-1" d="M170.51,312.57s0-.06,0-.1C170.64,311.82,170.57,312.19,170.51,312.57Z"/><path class="cls-1" d="M133.48,537.52c.51-2.53-.47,4.18.25.36C133.62,538.23,134,534.35,133.48,537.52Z"/><path class="cls-1" d="M226.53,92c-.11.35-.23.69-.35,1.05Z"/><path class="cls-1" d="M133.73,537.88h0l.07-.4C133.77,537.65,133.75,537.74,133.73,537.88Z"/><path class="cls-1" d="M160.32,368.89a4.17,4.17,0,0,0,.17-.57A3.09,3.09,0,0,0,160.32,368.89Z"/><path class="cls-1" d="M168.09,327l-.21,1C168,327.59,168,327.26,168.09,327Z"/><path class="cls-1" d="M156.79,390.74c-.1.56-.15.75-.27,1.53,0-.07,0-.14.06-.23A12.91,12.91,0,0,1,156.79,390.74Z"/><path class="cls-1" d="M153,413.46c0-.12.06-.27.09-.41s.08-.49.11-.72Z"/><path class="cls-1" d="M76.37,852.65c-.17.47-.29.77-.39,1C76.16,853.32,75.34,856.61,76.37,852.65Z"/><path class="cls-1" d="M226.69,91.29a3,3,0,0,1-.16.67l.24-.73C226.77,91.16,226.76,91.14,226.69,91.29Z"/><path class="cls-1" d="M157.73,391.85l-.63,3.6C157.28,394.44,157.51,393.13,157.73,391.85Z"/><path class="cls-1" d="M110.14,690.87l-.13.83C110.07,691.38,110.11,691.09,110.14,690.87Z"/><path class="cls-1" d="M155.33,406.17c-.16.63-.3,1.31-.43,2,0,.15,0,.33,0,.43Z"/><path class="cls-1" d="M76,853.65h0Z"/><path class="cls-1" d="M70.13,877.05c1-3.36.26-1.63.36-2.37,1-4,.62-1.82,1.07-3.17.62-2.53,1-4.5,1.46-6.37.07-.14.17-.5.1-.06.56-2.7,2.07-7.89,2.7-11a3.65,3.65,0,0,1,.15-.39c-.22.48-.33.53-.37.41a34.5,34.5,0,0,1,.89-3.37,9.23,9.23,0,0,0-.29,1.46l.36-1.6c.55-1.38-.51,2.18-.38,2.21.78-3.1,1.48-6.76,2.12-9.12.29-.46-1.3,5.57-.38,2.43l-1,3.67c1-2.75-.58,2.23.34-.28,1.23-4.84,1.24-5.44,2.47-10.26.17-1.11-.22.32,0-.79,1.51-6.9,1.73-5.3,2.75-10.4a31,31,0,0,1,1.08-5.47l-.09,1.28c1.09-4.71.34-2.75,1.59-7.65-.13.89-.78,3.71-.6,3a44.89,44.89,0,0,0,1-4.73l.28-.48c1.08-5,2.28-10.55,3.47-16.12,0,.32-.18,1.28.17,0,1.41-7,3.2-15,4.73-21.74l.41-2.62c.13-.6.3-1.1.19-.44.62-2.63-.06-.16.15-1.44.31-1.5.49-2,.34-1,.81-4.69,2.39-13.35,3.52-18.24l-.15,1c.83-3.82.57-4.38,1.41-7.91l-.11.68c1.68-8.31,3.24-17.55,4.66-23.86,0-1.25,1.64-8.23,1.43-8.82,1-4.74.8-3.37,2.09-10.07.33-1.79.29-2.7.66-4.92l.16,0,.38-3,.46-1.56.34-2.09a7.18,7.18,0,0,1-.41,1.61c.26-1.63.64-3.6,1-5.18.16-.78.31-1.47.41-2a5.67,5.67,0,0,1,.21-.81l1.18-7.72c0,.18-.16,1.47-.3,2.5.55-4.13.29-.72.79-4.51-.12.5,0-.28-.06-.37.41-1.86,1.14-6.13,1.64-9.3v.62c1-5.69,1.95-12,3-18.45-.42,2.29-.52,1.73-.23-.15l.29-.72c.1-1.23-.38,2-.1-.56s.45-1.58.28-.2l.42-2.92c.07-.16,0,.53,0,.71.09-1.21,1-5,1.09-6.75l.07-.15c1.06-6.41,1.44-9.33,2.27-14.56-.12-.12.24-2.16.37-3.73.65-3.83,1.44-8.08,2.16-12.7.45-3.26,0-1,.18-2.45.16-.22.87-4.84.59-2.43.84-5.55,1.07-7.1,2.06-14.14-.17.76-.32,1.61-.3,1.16a14.1,14.1,0,0,1,.54-2.7l0,.34c1-7.91,3.18-18.14,3.87-24.46l0,.35.86-6.53c.48-3-.18,1.81.24-.4.86-7,1.72-11.09,2.46-16.9,1.06-4.42,2.4-15.9,3.56-21.91l-.14.34a27.52,27.52,0,0,1,.53-3c-.09.15-.33,1.68-.23.7,1.91-13.25,4.3-27.29,6.49-40.84.79-5,0-2.89,1.16-9.11l-.11,1.8c1.35-10,3.23-20.46,4.61-30.28a15.46,15.46,0,0,1-.16,1.57c.22-1,.52-2.94.76-4.6.11-.83.22-1.6.3-2.16a4.92,4.92,0,0,0,.07-.94c.26-1.52.15-.34.35-1.27.41-2.06.7-5.23,1-6.31a6.12,6.12,0,0,1-.1,1c.16-1.36,1-6.29.69-5,.66-3.67,1.08-7,1.64-10,.15-1.93,1.1-6.27,1-6.91.18.3,1.27-6.41,1.56-8.75-.07.79.41-2,.35-1.08.44-2.64.81-5.08.62-4.64,1.09-4.83,1.44-9.84,2.25-12.53,1.3-7.87,2.49-15.15,3.66-22.23.18.29-1.36,7.81-1.07,7.55,1.11-6.72,1.55-10.63,2.84-17.25.35-1.72-.08,1-.15,1.58,1.14-6.71,2.41-12.93,3.39-18.9,0,0-.08.66-.17,1.27a15.87,15.87,0,0,0,.41-2.6l-.18,1.14c-.5,1.85.55-4.71.51-4.93-.08,2,1.18-5.87.94-2.64.14-.77.28-1.75.17-1.58.25-1.14.36-1.5.21-.32.76-4.21.36-2.74,1.11-6.54,0,0-.09.8-.11,1.2.29-1.94.57-3.89,1.24-7.09,0,.19.1-.17-.09.79,1.07-5.52,1.58-9.45,2.86-15.48-.15,1.82.5-2,.75-2.32l.61-3.26-.35,1.29c.59-2.84,1-5.38,1.54-7.81l-.36,2.12,1.07-5.33-.7,3c.51-2.9-.29.26.54-3.51-.14.77.6-2.85,1-4.31h0c.23-1.41.47-2.87,1-5,.17-.53.11.49.22.14.12-1.42,1.38-6.66,1.61-8.44-.09.59,0,.64.06.45l.13-1.19c.33-1.3.39-1.49.42-1.26.89-3.94-.51,1.2.63-3.46-.07.37,0,.2-.17,1,1.09-4.7,1.93-9.12,2.94-13.43.47-1.24-.78,3.79-.31,2.36,1.31-6.25,2.7-12.95,4.17-18.95l-.29,1.11c-.06-.89,1.18-4.45,1.78-7.52-.16.75-.09,1-.07.8,1-4.1,1.87-8.45,3.36-14.69l-.12.79c.66-2.4,1.64-6.36,2.32-9,.13-.79.52-2.28.2-1.4,2.41-8,3.62-15.43,5.91-22.45-.23.85-.49,2-.31,1.36l1.58-6.07a16.33,16.33,0,0,0-.71,2c.14-.78.55-2.51,1-4-.67,2.75.18,0,.56-1.14-.09.19,0-.22-.08-.13,1.06-3.11-.08-.59,1.23-4.88v.24c.41-1.62.74-3.13,1.22-4.88.33-.68-.4,1.74-.33,1.88.66-2.45,1.05-4.9,1.84-7.07-.26,1-.7,2.53-.94,3.59.81-2.38.88-2.66,1.41-4.44l0,.18,1.27-4.11-.35,1c.55-3.15,1.74-6.23,2.72-10.41-1,4.06-.07.7,0,1a16.09,16.09,0,0,1,.76-2.15c.45-2,1-3.22,1.66-6,.09-.11.61-2.08.6-1.6.7-2.54-.25.57-.25.34,1-4,3-9,4.51-14.68,1.41-4.83,1.53-5.77,2.84-10.25.55-1.48-.21,1.29-.21,1.29.83-2.4,1.37-4.24,2-6.53-.11.47.08,0,.37-.67.6-1.82.24-1.27,1.11-3.65-.08.43-.18,1-.42,1.88.66-2.16,1.32-4.3,2-6.54.28-.56-.33,1.38-.54,2.18.81-2.51,2.11-6.49,2.24-7.31l-.59,1.59c.3-.91.27-.43.07.25a14.13,14.13,0,0,1-1.17,3.17l.5-1.59c-.82,1.54-2.1,6.37-3.18,9.55l.24-1.39-.92,3.32c-.27.68-.53,1.13-.07-.47-.81,2.27-.56,2.06-1.29,4-.08.22-.06.11,0-.09l-.64,2.27c.09-.46-.26.32.2-1-1.37,4-1.88,6.55-2.51,8l.09-.35c-1.68,5.62,0,.59-1.16,4.84l-1.24,2.72,0,.59a7.6,7.6,0,0,1-.54,1.49c-.58,2.17.17-.35-.12.92-1,2.73-2.26,7.71-2.67,8.27-.18,1,.86-2.65.07.36-.5.77-1,3.46-1.82,6,.1-.82.87-3.22,0-.7-.22,1.61-1.49,5-2.07,7.13.14.15-1.29,4.7-2.28,8.33,0-.25-2,6.8-3,10.17v-.11c0,.7-1,4.18-1.63,6.73-.08-.13,0-.59.33-2l-.65,2.38c-.09.58-.26,1.34-.66,2.89l0-.64c-.85,3.18-1.58,6.44-2.76,10.51.06.26,1.19-3.17.15,1.19-.1.14-.26.27,0-.87-.09.37-.28,1.34-.5,2.08l.33-1.76c-.52,1.86-.15,1-.54,2.49-.09-.05-.35,1.09-.37.86.09-.39.37-1.3.47-1.88-.44,1.68-1,3.71-1.25,4.36.09-.13.13,0-.17,1.27a19.8,19.8,0,0,1-.91,2.91,23.93,23.93,0,0,0-.58,2.9,8.55,8.55,0,0,1-.48,1.44c-.35,1.67-1.92,7.72-1.3,5.9l.12-.42-.06.27h0c-.61,2.73-1.36,5.53-2.06,8.33s-1.4,5.62-2,8.32l0,0c-.7,3.23-1.65,7.17-2.09,9.49-.22,1-.62,2.23-.58,1.81-.54,2.47-.55,2.76-1.47,6.29a18,18,0,0,1,.54-2.55c-.8,3.19-1,3.9-1.66,7.37.13-1.2-.69,2.38-1,3.92l.58-2.23c-.38,1.71-.71,3.21-1,4.73l0-.86c-1.64,6.52-2.27,11.91-3.7,16.84-.27,1.76.86-3.55.65-2-.7,3-1.59,6.12-1.78,7.07-1,4.13-.57,3.92-1.53,8.24.18-.54.44-1-.18,2.22-.65,3-1,3.68-.66,1.75a4.69,4.69,0,0,1,.25-1c.18-1,.42-2.27.11-1.08l0,.4c-.38,1.49-1.23,5.66-1.12,4.66-.42,2.31-.11,1,.27-.69-.89,3.87-1.26,6.07-2.15,10.06.17-.63.36-1.2.23-.57-1.26,5.86-.41,2.61-1.17,6.6-.53,2.25-.05-.85-.76,3.17-.54,2.44-.26.49-.12-.49-.6,3.67-1.4,6.81-1.83,8.89l.33-1.93c-.2,1.16-.39,2.1-.57,3.06l.33-1.08a15.79,15.79,0,0,1-.48,2.06c-.15,1.17.37-.86,0,1.47-.35,1.5-.83,4.6-1.08,5.09,1-4.73-.26.5.5-3.52-.14.78-.32,1.72-.56,2.85-.05.17,0-.16,0-.48-1,4.51-.26,2.12-1.13,6.82,0-.61-.37,1.07-.49,1.84.35-1.9.31-.88.05.87-.62,3-.55,3.29-.85,4.87l.36-1.8c0,.63-.32,2.14-.68,4.25-.1.16.31-1.92.14-1.18-.28,2.37-1.14,5.25-1.64,8.53-.33,1.5-.19.11-.47,1.43-.56,3.67-.86,3.93-1.47,7.79.33-1.08.32-1.29,0,1.44l1.07-6.32-.58,4.08c.35-1.91.67-4,.9-5.17-.26,1.94-.25,1.74,0,.85-.66,2.57-.86,5.18-1.5,8.17l-.27-.14c-.93,4.51-1.28,8.08-2.39,14l.39-1.88c0,.81-.63,3.63-.92,5.55-.06-.2-.31,1-.51,1.79.09-.08-.77,4.31-.67,4.88l-.58,2.61c-.86,4.75-.64,5.48-1.45,10.05.13-1.4-.29.67.15-2.41a27.69,27.69,0,0,0-.45,2.94c-.21.88-.58,4.26-.91,5.65a19.42,19.42,0,0,1-.3,2.59c-.05.18,0,0,0,0s-.39,2.7,0,1.22c-1.12,4.65-2.18,13.16-3.1,17.22-.52,3.34-1.15,7.37-1.62,10.4,0-.2-.05,0,.06-.59-.77,4.17-.14,2.62-1,7.36-.55,2.4.33-2.54,0-1-.43.61-.88,5.75-1.57,8.92l.1-.78c-.49,2.43-.82,6-1.48,10,0,0,0-.2,0,0-.27,2.76-1,8-1.6,11.81.07-1.22.21-1.76,0-1-.26,1.73.28-.48-.23,3-.24,1.11-.68,3.59-.87,3.9l.5-3.25c-.44,1.63-.65,4.2-1,5.91l0-.23c-.75,5-.56,5.08-1.4,10.43l.14-.54c-.26,2.95-.49,2.43-.8,5.37l-.33.86c-.25,1.93-.89,6.78-1.35,10.25.15-2,.7-6,1-8.56-.3,1.91-1,6.5-1.05,7.51.1-.77.2-1.75.35-2.51-.21,2.37-.6,5.47-1.19,9.29-.28-.74-1.62,9.92-2.33,12.64-.9,6.77-2.1,13.38-3.28,21.24.72-2.74-.34,2.29,0,1.86-.26,1.83-.37,2.53-.42,2.69l-1,5.52c-.29,1.3.19-1.75.1-1.59-.63,4-.38,1.66-.87,4.3.19-.53-.06,1.42-.45,3.69l.63-3.19c-.69,5.62-1,4.8-1.69,10.47l.17-1.8c-.38,2.9-1.63,10.69-1.82,13.56-.12.51-.3,1.17-.13-.11-1.09,6.92-2.12,15.45-3.1,20.81V589c-.18,1.3-.21,2.27-.54,3.88,0-.09,0-.54-.09.06s-.4,3.45-.71,5.16l.14-1.48c-1.14,6.74-1.41,10.39-2.26,16.06-.21,0-1.13,5.24-1.58,7.89l0-.1c-1.27,7.85-1.93,13.37-3,20.66-1,4.47-2.58,15.27-3.93,22.49.22-1.1.13.21-.06,1.5-.34,1.69-.65,4.73-.8,4.42l.1-.6c-.41,1.24-1,4.75-1.42,7.47l.18.5c-.8,3.53-1.55,8.21-2.25,12.49s-1.36,8.13-1.88,10.05c-.26,1.73-.59,3.86-.86,5.58l-.12-.12c-.89,4.76-1.31,7.13-2.36,13l.13-1.21c-.63,3.31-.39,4.26-1,7.32l-.38.88c-1.09,5.78-2.37,11.6-3.25,17.36a3.79,3.79,0,0,1,.12-1.22c-.49,2.72-2.21,10.48-1.72,9.55-.2,0-1.2,6-1.74,9.09l0-.51c-.35,2.66-.32,2.76-1,6.44-.2.87-.27.74,0-.41-.65,2.89-.32,2.29-1.1,5.79l.18-1.32a43.94,43.94,0,0,0-.78,4.41,55.39,55.39,0,0,1-1.45,6,27.78,27.78,0,0,1-.66,3.82c-.1.23,0-.42.06-.74-1.15,5-1.41,7.44-2.27,10.83a1.71,1.71,0,0,0-.2.56c.84-3.93,1.4-6.54,1.47-6.84-.13,0-.83,3.17-.46.59-.46,2.58-1.16,7-1.91,10.11,0,.15-.09.29-.14.4l.06-.32c-.18.71-.31,1.36-.43,2-.23,1-.39,1.61-.62,2.56-.18.34-.88,3.64-1.25,5.22.17-.1-.32,2,.23.06a9.68,9.68,0,0,1,.29-1.36c.05-.24.1-.53.14-.69l0,.12c.24-1,.54-2.41.89-3.95a39.28,39.28,0,0,1-.93,4.33c-.1.84-.22,1.75-.28,2.27-.68,2.13-1.74,6.29-2,6.85-.52,2.43-1.14,5.29-1.71,7.93s-1.13,5-1.38,6.59a11.33,11.33,0,0,1-.62,2.07c.17-.8.4-1.75.47-2.18-.61,2.76-2,8.14-1.94,8.84-.93,3.44.31-2-.82,2.78l.1-.66c-2.51,9.3-3.4,15.29-6.46,25.53a12,12,0,0,1,.38-1.2c-.81,2.93-1.61,5.92-2.4,8.93l-2.51,9c-1.7,6-3.36,12-5.17,17.75-1.05,3.25-1.05,3.64-1.58,5.66l-.36.66-.88,3.46c-1.37,4.86-2.92,8.25-4.6,14.43l.35-.75c-.73,2.17-2.24,6.92-2.23,6.52a9.44,9.44,0,0,1-.47,1.58l-.1,0-1.66,5.4c-1.45,4.13-.08-.75-2.12,5.3a52.69,52.69,0,0,0-1.6,5.65,16.8,16.8,0,0,1,.92-2.35L47,949c.1.45-.21,2.11,1.64-2.89l1-3.57.49-1.1-1,3a31.8,31.8,0,0,0,1.27-4,10.9,10.9,0,0,0,.61-1.44l1-3.53c.23-.39-.35,1.61.48-.7.44-1.65-.72,1.49.12-1.21a19.32,19.32,0,0,0,1.16-3.14c.15-.26,0,.17-.2,1,.53-1.78,1.54-4.67,1.72-5.62.69-1.72,1.82-6,2-5.75.12-.58.8-3.18,1.29-4.81-.66,3,1.9-6.1,1.93-5.23.42-2.28,2.41-8,3.37-12a8.83,8.83,0,0,1-.24,1c.65-2.21.9-2.83,1.35-4.24a57.57,57.57,0,0,1,1.24-5.68c1-2.66-.25,1.71.17.91-.2.09,1.18-4.76.79-3.87a22.45,22.45,0,0,1,1-2.8c-.14-.43.5-1.94.85-3.7a28.4,28.4,0,0,0,1.3-4c.25-.78.2-.43.08.12Zm19-79.23h0c-.15.69-.28,1.27-.36,1.65C88.84,799.12,89,798.65,89.13,797.82Zm1.42-6.69c-.17.81-.39,1.83-.62,2.9-.09.23-.09,0,.06-.71C89.94,793.69,90.3,792.12,90.55,791.13Zm-4.06,13.93a10,10,0,0,1,.39-1.55l-.41,1.85v.13A2.56,2.56,0,0,1,86.49,805.06Z"/><path class="cls-1" d="M86.24,807l-.09.43.17-.62c0-.13,0-.27,0-.38C86.32,806.62,86.28,806.82,86.24,807Z"/><path class="cls-1" d="M196.23,196.54l0,.14c0-.11.07-.22.1-.29Z"/><polygon class="cls-1" points="108.87 698.39 108.83 698.39 108.76 698.99 108.87 698.39"/><path class="cls-1" d="M206.17,160.17c0-.06.08-.2.17-.46A3,3,0,0,0,206.17,160.17Z"/><path class="cls-1" d="M210.51,144.48l.69-2.2C210.9,143.24,210.69,143.93,210.51,144.48Z"/><path class="cls-1" d="M214.07,132.48a.73.73,0,0,0,0-.25v.25Z"/><path class="cls-1" d="M169.17,326.29c0,.17-.06.33-.08.48C168.91,327.89,169,327.13,169.17,326.29Z"/><path class="cls-1" d="M180.35,268.12c-.11.63-.21,1.24-.32,1.88A8.42,8.42,0,0,0,180.35,268.12Z"/><path class="cls-1" d="M157.8,391.45h0c0,.14-.05.27-.07.41Z"/><path class="cls-1" d="M179.47,272.7c.24-1,.41-1.89.56-2.7C179.84,270.85,179.62,271.84,179.47,272.7Z"/><path class="cls-1" d="M230.35,80.73l.19-.56s0,0,0-.08Z"/><path class="cls-1" d="M230.55,80.09l.19-.64A4.37,4.37,0,0,0,230.55,80.09Z"/><path class="cls-1" d="M231.16,78.1l-.42,1.35A12.28,12.28,0,0,0,231.16,78.1Z"/><path class="cls-1" d="M225.07,96.44v.2A.47.47,0,0,0,225.07,96.44Z"/><path class="cls-1" d="M223.58,101.25c.37-1.14,1-2.84,1.47-4.45v-.16C224.9,97.41,223.84,100.14,223.58,101.25Z"/><path class="cls-1" d="M216.72,121.14c.4-1.35.86-2.68,1.28-4-.27.69-.63,1.6-.07-.24C216.2,121.91,218.36,115.85,216.72,121.14Z"/><path class="cls-1" d="M213,133.68c.61-2.18-.09,0-.08-.12C212.57,135,212.48,135.3,213,133.68Z"/><path class="cls-1" d="M189.25,225.23l-.08-.25C188.79,226.69,189.22,225,189.25,225.23Z"/><polygon class="cls-1" points="185.91 243.01 186.35 241.37 186.41 240.56 185.91 243.01"/><polygon class="cls-1" points="182.72 253.25 182.87 252.5 182.28 255.36 182.72 253.25"/><path class="cls-1" d="M153.55,409.4l.24-.5C154,407.73,153.82,407.46,153.55,409.4Z"/><path class="cls-1" d="M142.94,477.15a30.29,30.29,0,0,0-.64,3.81C142.55,479.44,142.84,477.93,142.94,477.15Z"/><polygon class="cls-1" points="110.75 680.25 110.93 678.89 110.53 681.46 110.75 680.25"/><path class="cls-1" d="M205.14,920.9c.14.44.18.17-.09-1.07l-.35-.84Z"/><path class="cls-1" d="M203.71,912.51c-.38-1.44-.87-3.09-.82-2.11.46,1.41.46,1.77,1,3.28a5.82,5.82,0,0,1,.3,2c.13.43.36,1.93.6,2.57a50.73,50.73,0,0,0-1.17-5.79C203.53,912,203.66,912.41,203.71,912.51Z"/><path class="cls-1" d="M178.82,791.46l.14.78C178.92,792,178.87,791.76,178.82,791.46Z"/><path class="cls-1" d="M163.32,716.47a4.91,4.91,0,0,0,.21.83A4.87,4.87,0,0,0,163.32,716.47Z"/><path class="cls-1" d="M160.84,703.64c0,.27.1.5.15.75C160.94,704.1,160.89,703.81,160.84,703.64Z"/><path class="cls-1" d="M178.82,791.46l-.37-2A15.44,15.44,0,0,0,178.82,791.46Z"/><path class="cls-1" d="M199.85,895.91c.1.42.19.76.27,1.08-.08-.35-.15-.68-.23-1Z"/><path class="cls-1" d="M185.82,824.48l.12.61.17.49Z"/><path class="cls-1" d="M191.11,849.84a2.35,2.35,0,0,0-.4-1,8.61,8.61,0,0,1,.36,1.23S191.11,850,191.11,849.84Z"/><path class="cls-1" d="M199.23,890.11l.17.71C199.35,890.63,199.28,890.32,199.23,890.11Z"/><path class="cls-1" d="M182.07,806.32a.93.93,0,0,0,0-.24A.78.78,0,0,0,182.07,806.32Z"/><path class="cls-1" d="M33.59,97.14s0,0,0,0C33.57,97,33.55,97,33.59,97.14Z"/><path class="cls-1" d="M28.16,67.6l.09.41s.07.07.1.07Z"/><path class="cls-1" d="M156.15,680.17c0,.05,0,.07,0,.11C156.31,680.89,156.23,680.54,156.15,680.17Z"/><path class="cls-1" d="M111.35,465.15c.38,2.46-1-3.93-.36-.24C111,464.56,111.9,468.2,111.35,465.15Z"/><path class="cls-1" d="M199.74,895.25c-.08-.35-.15-.69-.22-1C199.61,894.68,199.68,895,199.74,895.25Z"/><path class="cls-1" d="M111,464.91h0l.07.38C111,465.14,111,465.05,111,464.91Z"/><path class="cls-1" d="M144.85,626.22a3.52,3.52,0,0,0,.05.56A3.05,3.05,0,0,0,144.85,626.22Z"/><path class="cls-1" d="M153,666.47l-.19-1C152.89,665.87,153,666.19,153,666.47Z"/><path class="cls-1" d="M140.31,605.38c-.1-.54-.12-.73-.29-1.47,0,.07,0,.14,0,.23A12.07,12.07,0,0,1,140.31,605.38Z"/><path class="cls-1" d="M135.79,583.65c0,.12,0,.27.06.41s.1.46.15.68Z"/><path class="cls-1" d="M47.38,163.17a8.5,8.5,0,0,1-.08-1C47.27,162.5,46.57,159.31,47.38,163.17Z"/><path class="cls-1" d="M199.93,895.88a2.68,2.68,0,0,1-.19-.63l.15.72C199.93,896,200,896,199.93,895.88Z"/><path class="cls-1" d="M139,604.72l-.69-3.45C138.53,602.23,138.79,603.49,139,604.72Z"/><path class="cls-1" d="M79.8,319.06l-.18-.79C79.68,318.58,79.75,318.86,79.8,319.06Z"/><path class="cls-1" d="M136.2,591c-.08-.62-.19-1.28-.31-2l-.12-.39Z"/><path class="cls-1" d="M47.3,162.13h0Z"/><path class="cls-1" d="M42.24,139.46c.68,3.29.5,1.51.75,2.18.87,3.92.25,1.85.43,3.2.56,2.45,1.11,4.29,1.49,6.12,0,.14.06.5-.06.09.68,2.56,1.6,7.7,2.41,10.68a3.74,3.74,0,0,1,0,.4c0-.51.06-.6.15-.51a29.18,29.18,0,0,1,.68,3.29,9.49,9.49,0,0,0-.37-1.39l.37,1.54c.12,1.42-.5-2.1-.62-2.07.68,3,1.55,6.48,2,8.8-.07.52-1.18-5.39-.69-2.28l-.67-3.58c.3,2.78-.44-2.18-.2.39.93,4.71,1.18,5.24,2.11,9.94.31,1,.06-.38.37.66,1.56,6.63.68,5.34,1.92,10.19a28.25,28.25,0,0,1,1.3,5.21l-.44-1.15c.93,4.55.81,2.54,1.68,7.33-.25-.83-.81-3.56-.69-2.87a42.51,42.51,0,0,0,1.06,4.54l-.07.52c1,4.84,2.26,10.16,3.41,15.52-.11-.29-.35-1.2-.14.07,1.49,6.75,3,14.45,4.24,21l.66,2.46c.12.58.16,1.09,0,.47.48,2.55.12.11.43,1.32.31,1.45.32,1.93.08,1,1.06,4.47,2.92,12.74,3.75,17.5l-.23-.91c.71,3.7,1.16,4.1,1.73,7.54l-.16-.65c1.6,8,3.57,16.82,4.62,23,.45,1.11,1.55,7.93,2,8.38.8,4.6.48,3.3,1.72,9.75.35,1.72.71,2.53,1.19,4.64l-.14.09.75,2.85.14,1.57.45,2a7,7,0,0,1-.21-1.59c.71,3.1,1.47,7.61,1.41,7.7l1.66,7.33c-.1-.15-.37-1.38-.62-2.34,1,3.89,0,.74.88,4.32-.06-.49.15.24.19.31.29,1.82,1.13,5.9,1.8,8.92l-.22-.56c1.1,5.46,2.44,11.49,3.71,17.62-.41-2.21-.12-1.74.27,0v.76c.34,1.14-.33-1.89.28.46.46,2.3.14,1.58-.18.28l.63,2.77c0,.17-.17-.48-.27-.63.34,1.12.84,4.83,1.35,6.44v.17c1.27,6.13,1.9,8.89,3,13.88.15.07.53,2,1,3.49.72,3.67,1.45,7.77,2.38,12.18.72,3.09.31.88.68,2.26-.08.26.85,4.67.29,2.4,1.12,5.29,1.43,6.76,2.92,13.45-.09-.74-.24-1.56-.11-1.15a13.33,13.33,0,0,1,.42,2.62l-.08-.32c1.76,7.49,3.25,17.45,4.76,23.39l-.09-.34,1.43,6.19c.58,2.86-.45-1.7-.09.44,1.61,6.66,2.18,10.6,3.46,16.09.52,4.35,3.18,15.16,4.14,21l0-.35a22.55,22.55,0,0,1,.53,2.92c0-.17-.25-1.63,0-.72,2.73,12.61,5.29,26.1,7.9,39.06,1,4.74,1,2.6,2,8.61l-.51-1.66c2.18,9.52,4,19.54,6.16,28.86a13.27,13.27,0,0,1-.39-1.47c.29,2,1.51,7.31,1.61,7.33.3,1.46,0,.35.13,1.26.34,2,1.18,4.94,1.28,6a7.62,7.62,0,0,1-.24-.91c.33,1.28,1.24,6,1.12,4.76.66,3.52,1.45,6.7,2,9.52.53,1.79,1.17,6,1.51,6.56-.28-.2,1.1,6.19,1.66,8.39-.22-.73.34,2,.06,1.1.53,2.53,1.06,4.84,1.08,4.38.7,4.72,2.16,9.34,2.37,12,1.68,7.5,3.21,14.45,4.67,21.2-.27-.19-1.58-7.47-1.75-7.14,1.43,6.41,2.39,10.07,3.66,16.45.31,1.66-.29-.91-.45-1.46,1.43,6.4,2.56,12.41,3.87,18.09a9.84,9.84,0,0,1-.31-1.2,14.74,14.74,0,0,0,.58,2.48l-.25-1.09c-.23-1.83,1.23,4.4,1.35,4.59-.69-1.85,1.1,5.65.1,2.69.18.74.42,1.66.45,1.48.21,1.1.24,1.46-.07.36.9,4,.71,2.56,1.46,6.22,0,0-.22-.74-.36-1.11.48,1.83,1,3.67,1.56,6.77-.06-.18,0,.18-.22-.74,1.12,5.3,2.13,9,3.25,14.82-.57-1.68.34,2,.22,2.33l.71,3.12-.18-1.27c.57,2.74,1.21,5.13,1.63,7.49l-.49-2,1.1,5.12-.54-2.92c.67,2.75.17-.34.88,3.31-.17-.73.57,2.74.76,4.19h0c.34,1.35.69,2.73,1.07,4.76.05.54-.29-.38-.26,0,.43,1.31,1.38,6.41,1.89,8.06-.15-.55-.26-.56-.24-.37l.36,1.09c.23,1.28.24,1.47.12,1.28.78,3.82,0-1.26.83,3.29-.09-.35-.07-.18-.24-.92.89,4.56,1.9,8.78,2.71,13,.07,1.27-.8-3.64-.67-2.2,1.29,6,2.82,12.43,4,18.27l-.21-1.09c.43.76.78,4.37,1.51,7.3-.17-.72-.34-.92-.27-.73.79,4,1.76,8.15,3.1,14.19l-.22-.74c.43,2.37,1.25,6.21,1.75,8.76.22.74.52,2.19.43,1.29,1.25,7.92,3.31,14.91,4.44,21.93-.17-.83-.47-2-.33-1.31l1.29,5.92A14.2,14.2,0,0,0,185,823c.22.74.62,2.4.92,3.87-.63-2.65-.17.06,0,1.22,0-.2.12.19.13.08.44,3.14.34.48,1.08,4.73l-.11-.21c.36,1.57.75,3,1.08,4.72,0,.74-.41-1.67-.54-1.75.51,2.39,1.23,4.67,1.55,6.87-.25-1-.55-2.48-.8-3.49.34,2.4.43,2.66.78,4.42l0-.17.78,4.07-.18-1c1,2.92,1.33,6.09,2.4,10.08-1-3.88-.26-.62-.47-.89a14.58,14.58,0,0,1,.32,2.17c.51,1.89.57,3.21,1.3,5.87,0,.13.42,2,.21,1.63.55,2.48,0-.6.06-.4,1,3.79,1.68,9,3,14.48,1.08,4.73,1.42,5.57,2.42,10,.23,1.5-.43-1.18-.43-1.18.43,2.41.82,4.21,1.34,6.46-.13-.45-.07,0,0,.73.39,1.81.42,1.17.85,3.58-.14-.4-.33-.91-.57-1.77.49,2.12,1,4.21,1.52,6.42,0,.6-.4-1.31-.62-2.08.55,2.48,1.41,6.43,1.71,7.17l-.29-1.61c.2.91,0,.49-.18-.17a13.5,13.5,0,0,1-.57-3.21l.36,1.56c-.06-1.67-1.36-6.31-2-9.49l.48,1.28-.85-3.21c-.09-.71-.07-1.2.28.36-.37-2.3-.49-2-.78-4,0-.22,0-.12,0,.08l-.52-2.21c.13.43.06-.4.32,1-.71-4-1.49-6.4-1.65-7.93l.08.33c-1.21-5.51-.26-.5-1.29-4.61l-.22-2.87-.26-.51a7.31,7.31,0,0,1-.23-1.51c-.55-2.1,0,.38-.34-.84-.44-2.77-1.64-7.56-1.53-8.22-.32-1,.46,2.64-.23-.28.08-.88-.75-3.38-1.15-5.91.29.74.71,3.14.31.6-.54-1.47-1-4.89-1.45-7-.2-.06-1-4.59-1.83-8.13.11.22-1.29-6.7-1.91-10l0,.09c-.31-.61-1-4-1.54-6.49.13.07.26.51.59,1.84l-.49-2.33c-.17-.54-.35-1.26-.69-2.77l.26.56c-.65-3.1-1.46-6.22-2.2-10.23-.17-.2.31,3.25-.65-1,0-.17.12-.35.38.75-.09-.36-.33-1.28-.45-2l.47,1.66c-.33-1.83-.3-.93-.59-2.39.1,0-.15-1.09,0-.9.08.37.22,1.28.37,1.83-.32-1.64-.67-3.64-.74-4.31,0,.16-.13,0-.39-1.17a19.81,19.81,0,0,1-.43-2.91,23.22,23.22,0,0,0-.72-2.75,7.51,7.51,0,0,1-.19-1.45c-.4-1.59-1.58-7.5-1.36-5.66l.08.42q0-.12-.06-.27v0c-1.24-5.23-2.19-10.95-3.34-16.16h.05c-.71-3.1-1.48-6.93-2-9.14-.2-.92-.37-2.19-.23-1.81-.53-2.38-.64-2.63-1.28-6.09a15,15,0,0,1,.58,2.44c-.61-3.11-.67-3.82-1.5-7.12.36,1.1-.33-2.37-.67-3.83l.36,2.19c-.36-1.65-.65-3.1-.94-4.58l.32.76c-1.12-6.38-2.71-11.36-3.38-16.25-.46-1.66.63,3.46.19,2-.59-2.92-1-6-1.17-6.92-.74-4-1-3.67-1.82-7.87.05.55,0,1.09-.7-2-.59-2.92-.5-3.63-.08-1.8a5,5,0,0,1,.18,1c.22.94.5,2.17.32,1l-.13-.37c-.25-1.46-1.09-5.47-.8-4.55-.51-2.19-.29-.92,0,.72-.69-3.76-1.21-5.85-1.95-9.72.09.62.14,1.2,0,.59-1.1-5.66-.62-2.46-1.44-6.29-.37-2.19.37.74-.51-3.1-.43-2.37,0-.53.3.39-.85-3.48-1.29-6.57-1.69-8.58l.43,1.84c-.26-1.1-.44-2-.64-2.93l.11,1.08a17.09,17.09,0,0,1-.35-2c-.3-1.1,0,.9-.58-1.3-.24-1.46-1-4.4-.93-4.93.9,4.56.05-.54.88,3.31-.17-.74-.36-1.64-.57-2.74,0-.16.07.15.14.44-.77-4.38-.59-2-1.53-6.48.21.56-.05-1.08-.22-1.81.37,1.82,0,.9-.38-.76-.53-2.91-.7-3.13-1-4.65l.33,1.74c-.21-.57-.5-2-1-4,0-.18.43,1.83.31,1.1-.62-2.21-.9-5.1-1.65-8.2-.24-1.46.14-.17-.09-1.45-.84-3.48-.67-3.82-1.53-7.48.11,1.08.17,1.26-.48-1.31l1.34,6-1-3.85c.38,1.83.88,3.84,1.09,4.94-.48-1.83-.41-1.65-.33-.76-.34-2.53-1.13-4.93-1.61-7.84l.3,0C148,641,147,637.7,145.91,632l.33,1.83c-.27-.74-.74-3.48-1.17-5.3.13.15-.07-1-.17-1.79-.05.11-.85-4.13-1.15-4.6l-.4-2.55c-.89-4.56-1.35-5.14-2.23-9.52.38,1.3,0-.71.72,2.21a24.49,24.49,0,0,0-.63-2.79c-.12-.87-1-4-1.16-5.39a18.73,18.73,0,0,1-.65-2.43c0-.18,0,0,0,0s-.6-2.56-.41-1.1c-.63-4.57-2.63-12.58-3.19-16.55-.69-3.19-1.53-7-2.13-9.92a1.43,1.43,0,0,1,.15.55c-.74-4-.79-2.4-1.63-7-.33-2.36.58,2.39.34.93.19-.69-1.18-5.47-1.63-8.57l.17.74c-.38-2.36-1.31-5.68-2.08-9.51,0,0,.07.18.06,0-.71-2.57-1.79-7.51-2.6-11.17.36,1.11.41,1.65.39.93-.36-1.65-.1.52-.82-2.76-.15-1.08-.58-3.47-.52-3.81l.66,3.1c-.16-1.62-.84-4-1.15-5.65l.12.19c-1-4.75-1.22-4.77-2.27-9.89l0,.54c-.77-2.75-.38-2.36-1.1-5.12l0-.88c-.43-1.83-1.53-6.41-2.25-9.71.53,1.84,1.41,5.69,2,8.07-.38-1.83-1.3-6.2-1.6-7.14.18.74.42,1.65.54,2.39q-.93-3.32-2.06-8.78c.51.56-1.88-9.51-2.14-12.21-1.47-6.41-2.59-12.78-4.17-20.28.26,2.73-.47-2.18-.67-1.66-.38-1.74-.52-2.41-.53-2.57l-.92-5.33c-.17-1.27.41,1.65.45,1.47-.78-3.83-.21-1.63-.66-4.18,0,.54-.43-1.29-.84-3.48l.5,3.1c-1.27-5.32-.71-4.68-2-10l.45,1.68c-.63-2.75-2.12-10.2-2.92-12.86-.07-.49-.12-1.15.16.06-1.34-6.62-3.32-14.66-4.24-19.82l.18.48c-.28-1.22-.58-2.11-.83-3.67,0,.07.18.48.06-.09s-.81-3.25-1.1-4.89l.37,1.38c-1.24-6.47-2.26-9.85-3.43-15.24.22,0-.77-5.12-1.26-7.66l0,.08c-1.53-7.51-2.83-12.71-4.36-19.64-.66-4.36-2.93-14.63-4.24-21.59.18,1.07-.21-.14-.49-1.37-.29-1.63-1.08-4.46-.83-4.25l.12.58c-.06-1.26-.81-4.59-1.35-7.21l-.35-.37c-1-6.91-3.85-17.87-4.29-21.66-.41-1.64-.83-3.68-1.23-5.3l.15.06c-.91-4.57-1.37-6.86-2.57-12.49l.33,1.13c-.65-3.19-1.23-3.94-1.85-6.87l0-.93c-1.15-5.55-2.14-11.21-3.47-16.66a3.65,3.65,0,0,1,.34,1.13c-.54-2.61-2-10.14-2-9.13.17-.1-1.17-5.73-1.88-8.72l.24.44c-.7-2.49-.77-2.57-1.55-6.09-.16-.84,0-.76.15.36-.51-2.8-.58-2.15-1.21-5.55L65,243a37.84,37.84,0,0,0-1-4.2,51.5,51.5,0,0,1-1.06-5.9,26.74,26.74,0,0,1-.9-3.63c0-.24.16.37.24.68-.91-4.82-1.65-7.11-2.2-10.44a1.71,1.71,0,0,0,0-.57c.78,3.81,1.42,6.89,1.35,6.6.12,0-.5-3.11.19-.7-.61-2.45-1.7-6.64-2.26-9.65a3.51,3.51,0,0,1,0-.41l.08.31c-.13-.7-.28-1.32-.42-1.9-.18-1-.29-1.57-.48-2.49,0-.38-.68-3.55-1-5.09-.11.16-.51-1.86-.23,0a10.5,10.5,0,0,1,.3,1.31c0,.23.11.5.15.65a1,1,0,0,1,0-.1c.22,1,.49,2.32.81,3.82a37.83,37.83,0,0,1-.93-4.17c-.25-.77-.52-1.62-.66-2.1-.25-2.15-1-6.22-1-6.81-1-4.68-2.35-11-3.22-13.94a11.41,11.41,0,0,1-.31-2.06c.19.77.38,1.69.5,2.09-.62-2.65-1.67-7.89-2-8.49-.62-3.38.56,1.85-.43-2.76l.18.61c-1.6-9.15-3.53-14.68-5.25-24.83a11.65,11.65,0,0,1,.18,1.2c-2.22-11.52-5.07-23.64-7.17-35-.62-3.23-.8-3.56-1.3-5.51v-.72l-.87-3.33c-1.11-4.74-1.35-8.33-2.84-14.32l.06.8c-.43-2.17-1.49-6.85-1.3-6.52A8.36,8.36,0,0,1,31.75,84l.06-.09-1.24-5.29c-.8-4.14.44.58-.79-5.45a49.81,49.81,0,0,0-1.43-5.48,16.4,16.4,0,0,1,.37,2.41l-.47-2c-.3-.33-.86-1.85,0,3.21l.87,3.47.12,1.15-.62-2.94a30.75,30.75,0,0,0,.87,3.9,10.21,10.21,0,0,0,.18,1.5l.94,3.39c0,.44-.5-1.5-.07.82.43,1.59-.12-1.59.5,1.06a17,17,0,0,0,.55,3.18c0,.28-.12-.12-.31-.9.44,1.74,1,4.63,1.3,5.51.24,1.77,1.26,5.9,1,5.78.17.53.81,3,1.16,4.65-.87-2.88,1.23,6,.8,5.3.68,2.13,1.73,7.84,2.66,11.66a9.48,9.48,0,0,1-.25-1c.43,2.18.5,2.82.74,4.22a55.34,55.34,0,0,1,1.49,5.4c.37,2.7-.56-1.56-.56-.69.13-.17,1.11,4.58,1.05,3.65a21,21,0,0,1,.37,2.84c.31.31.44,1.89.93,3.54a28.15,28.15,0,0,0,.68,4C42.93,142.31,42.24,139.46,42.24,139.46Zm16.39,76.75h0c-.14-.66-.26-1.23-.34-1.58C58.36,215,58.46,215.41,58.63,216.21ZM60,222.67c-.15-.79-.36-1.77-.57-2.81,0-.23.1,0,.23.65A20.42,20.42,0,0,0,60,222.67Zm-1.88-13.86a8.83,8.83,0,0,1,.27,1.51c-.1-.48-.22-1-.38-1.78l0-.12A3.27,3.27,0,0,1,58.09,208.81Z"/><path class="cls-1" d="M57.53,207c0-.15-.06-.23-.1-.42l.09.62c0,.12.09.24.12.35C57.6,207.37,57.56,207.18,57.53,207Z"/><path class="cls-1" d="M179,792.38l0-.14c0,.12,0,.22,0,.29C179,792.44,179,792.44,179,792.38Z"/><polygon class="cls-1" points="78.24 311.88 78.28 311.87 78.13 311.31 78.24 311.88"/><path class="cls-1" d="M185.9,828c0,.07,0,.21.06.48A3.08,3.08,0,0,0,185.9,828Z"/><path class="cls-1" d="M189.07,843.41l.4,2.18C189.3,844.65,189.17,844,189.07,843.41Z"/><path class="cls-1" d="M191.45,855.24a1,1,0,0,0,.11.22v0Z"/><path class="cls-1" d="M152.26,667.47c0-.16-.07-.31-.1-.45C151.91,666,152.07,666.68,152.26,667.47Z"/><path class="cls-1" d="M164.19,723.29c-.14-.59-.29-1.16-.43-1.78A7.48,7.48,0,0,0,164.19,723.29Z"/><path class="cls-1" d="M139.12,605.1h0l-.08-.39Z"/><path class="cls-1" d="M163.22,718.91c.18,1,.36,1.83.54,2.6C163.59,720.69,163.41,719.73,163.22,718.91Z"/><path class="cls-1" d="M202,906.44l.11.57s0,0,0,.07Z"/><path class="cls-1" d="M202.18,907.08l.15.62A6.3,6.3,0,0,0,202.18,907.08Z"/><path class="cls-1" d="M202.64,909l-.31-1.33A13.41,13.41,0,0,0,202.64,909Z"/><path class="cls-1" d="M198.84,890.79l-.08-.17A.36.36,0,0,0,198.84,890.79Z"/><path class="cls-1" d="M197.84,886c.23,1.14.49,2.87.85,4.44l.07.14C198.53,889.9,198.15,887.1,197.84,886Z"/><path class="cls-1" d="M194.34,866.08l.78,4c-.09-.7-.21-1.63.18.17C194.42,865.19,195.4,871.3,194.34,866.08Z"/><path class="cls-1" d="M191.85,853.72c.47,2.14.07,0,.12.07C191.64,852.44,191.56,852.11,191.85,853.72Z"/><path class="cls-1" d="M173.3,764.5l.17.19C173.11,763.05,173.42,764.69,173.3,764.5Z"/><polygon class="cls-1" points="169.11 747.58 169.37 749.2 169.64 749.94 169.11 747.58"/><polygon class="cls-1" points="167.91 737.32 168.08 738.04 167.46 735.3 167.91 737.32"/><path class="cls-1" d="M136.72,587.49l-.05.53C136.93,589.13,137.15,589.33,136.72,587.49Z"/><path class="cls-1" d="M123.12,522.84a27.9,27.9,0,0,0-.71-3.66C122.7,520.64,122.94,522.1,123.12,522.84Z"/><polygon class="cls-1" points="83.05 328.78 83.37 330.07 82.81 327.63 83.05 328.78"/><g class="cls-2"><path class="cls-1" d="M219.66,918c.19.43.32.13,0-1.1l-.54-.8Z"/><path class="cls-1" d="M218.24,909.57c-.51-1.41-1.19-3-1.26-2,.66,1.36.62,1.74,1.36,3.2.34,1.23.42,2.19.25,2a22.23,22.23,0,0,0,.76,2.55,24.45,24.45,0,0,0-1.35-5.79C218,909.06,218.16,909.48,218.24,909.57Z"/><path class="cls-1" d="M189.42,788.64l.15.78C189.54,789.21,189.49,788.94,189.42,788.64Z"/><path class="cls-1" d="M171.43,713.74a2.5,2.5,0,0,0,.27.82C171.55,714,171.43,713.6,171.43,713.74Z"/><path class="cls-1" d="M168.68,700.87c.06.28.11.51.16.76A3.69,3.69,0,0,0,168.68,700.87Z"/><path class="cls-1" d="M189.42,788.64l-.38-2A8.34,8.34,0,0,0,189.42,788.64Z"/><path class="cls-1" d="M213.42,893.1c.12.41.23.76.35,1.07-.1-.35-.19-.67-.28-1Z"/><path class="cls-1" d="M197.69,821.57l.15.61a4.12,4.12,0,0,0,.25.47Z"/><path class="cls-1" d="M203.88,846.88a1.5,1.5,0,0,0-.62-.9,4.66,4.66,0,0,1,.49,1.21C203.81,847.18,203.85,847.09,203.88,846.88Z"/><path class="cls-1" d="M213.15,887.16l.21.7C213.3,887.68,213.22,887.37,213.15,887.16Z"/><path class="cls-1" d="M193.35,803.43a.57.57,0,0,0,0-.25S193.35,803.28,193.35,803.43Z"/><path class="cls-1" d="M19.39,95.61s0,0,.05,0S19.34,95.42,19.39,95.61Z"/><path class="cls-1" d="M13.62,65.93l.11.4c.06,0,.12.07.17,0Z"/><path class="cls-1" d="M163.36,677.4s0,.06,0,.1C163.56,678.11,163.47,677.76,163.36,677.4Z"/><path class="cls-1" d="M111,462.73c.35,2.49-1.27-3.89-.66-.16C110.41,462.2,111.62,465.8,111,462.73Z"/><path class="cls-1" d="M213.3,892.44c-.09-.35-.18-.69-.26-1C213.15,891.87,213.23,892.19,213.3,892.44Z"/><path class="cls-1" d="M110.38,462.57h0l.07.39C110.42,462.8,110.41,462.71,110.38,462.57Z"/><path class="cls-1" d="M150.11,623.54a3.91,3.91,0,0,0,0,.58S150.15,624,150.11,623.54Z"/><path class="cls-1" d="M159.47,663.79l-.21-1C159.33,663.18,159.4,663.51,159.47,663.79Z"/><path class="cls-1" d="M144.67,602.79a11.2,11.2,0,0,0-.34-1.46c0,.07,0,.14,0,.23A5.71,5.71,0,0,1,144.67,602.79Z"/><path class="cls-1" d="M139.4,581.1c0,.11,0,.27,0,.41s.12.46.18.68Z"/><path class="cls-1" d="M35.52,161.52a5,5,0,0,1,0-1.06C35.41,160.84,34.57,157.67,35.52,161.52Z"/><path class="cls-1" d="M213.57,893.05a1.52,1.52,0,0,1-.27-.61c.06.24.12.48.19.71C213.54,893.21,213.59,893.21,213.57,893.05Z"/><path class="cls-1" d="M142.3,602.43l-.8-3.45C141.71,600,142,601.2,142.3,602.43Z"/><path class="cls-1" d="M73.34,317.17l-.22-.78A4.69,4.69,0,0,0,73.34,317.17Z"/><path class="cls-1" d="M139,588.76c-.06-.64-.16-1.31-.28-2a3.72,3.72,0,0,0-.17-.38Z"/><path class="cls-1" d="M35.53,160.45h0Z"/><path class="cls-1" d="M29.37,137.9c.79,3.29.72,1.46,1.1,2.11,1.05,3.89.17,1.88.31,3.25.69,2.43,1.48,4.23,1.91,6.06,0,.15,0,.51-.14.11.91,2.52,1.88,7.68,3,10.61a2,2,0,0,1,0,.41c.06-.53.22-.65.38-.58a14.85,14.85,0,0,1,.79,3.29,5.09,5.09,0,0,0-.5-1.36l.47,1.51c0,1.48-.63-2.07-.88-2,.84,3,2,6.42,2.44,8.75-.21.56-1.42-5.37-1-2.22l-.74-3.6c.14,2.85-.49-2.17-.44.47,1.05,4.71,1.45,5.21,2.49,9.91.44,1,.18-.41.62.6,2,6.57.44,5.44,2.07,10.22A14,14,0,0,1,43,190.58l-.66-1.1c1.07,4.55,1.17,2.46,2.07,7.28-.35-.81-1-3.54-.87-2.84.46,3.16.74,2.13,1.32,4.5l-.21.57c1.22,4.83,2.76,10.1,4.12,15.44-.17-.27-.5-1.16-.3.12,1.81,6.72,3.46,14.44,4.85,21l.89,2.42c.14.58.13,1.11-.07.5.5,2.56.21.08.62,1.28.37,1.44.3,1.95,0,1.05,1.33,4.43,3.62,12.65,4.46,17.45l-.31-.9c.78,3.7,1.59,4,2.16,7.48l-.21-.64c1.81,8,4.21,16.77,5.26,23,.69,1.06,1.74,7.95,2.43,8.32.83,4.63.41,3.35,1.77,9.82.39,1.72,1,2.47,1.56,4.57l-.29.13,1,2.8,0,1.62.56,2c-.18-.8-.28-1.72-.16-1.62a41.79,41.79,0,0,1,1.49,7.74l2,7.28a14.78,14.78,0,0,1-.82-2.31c1.26,3.85-.14.79,1,4.32,0-.5.25.22.33.28.25,1.84,1.24,5.92,2,8.92l-.35-.53c1.27,5.46,2.89,11.46,4.37,17.58-.44-2.21,0-1.8.51,0l-.14.79c.48,1.11-.34-1.9.48.42.52,2.29,0,1.62-.41.34l.79,2.75c-.06.18-.27-.46-.43-.6.48,1.1.85,4.88,1.59,6.44l-.06.18c1.48,6.11,2.27,8.86,3.49,13.84.3,0,.71,2,1.29,3.42.8,3.68,1.57,7.8,2.67,12.2.89,3.07.45.85,1,2.21-.19.29.9,4.69.17,2.44,1.32,5.29,1.69,6.75,3.51,13.4-.07-.75-.23-1.58,0-1.18a7.11,7.11,0,0,1,.41,2.65l-.11-.32c2.2,7.43,3.49,17.52,5.46,23.38l-.11-.33,1.78,6.14c.65,2.87-.6-1.66-.25.49,2,6.59,2.51,10.59,4.13,16,.3,4.45,3.72,15.13,4.65,21l.09-.38a13,13,0,0,1,.57,2.93c.09-.18-.24-1.65.08-.75,3.27,12.56,6.06,26.09,9,39.06,1.1,4.74,1.54,2.47,2.58,8.53l-.74-1.62c2.71,9.45,4.73,19.52,7.32,28.78a6.46,6.46,0,0,1-.53-1.44,37.65,37.65,0,0,0,2,7.28c.33,1.46-.09.38,0,1.3.34,2,1.5,4.9,1.53,6,0,.19-.21-.53-.32-.89.43,1.26,1.43,6,1.4,4.72.72,3.53,1.75,6.67,2.27,9.51.74,1.75,1.31,6,1.87,6.51-.5-.14,1.14,6.23,1.89,8.4-.32-.71.33,2-.07,1.14.62,2.53,1.27,4.82,1.38,4.33.61,4.79,2.7,9.26,2.66,12.05,2.06,7.46,3.91,14.38,5.65,21.11-.49-.14-1.85-7.46-2.24-7.06,1.73,6.37,3,10,4.45,16.36.34,1.66-.42-.89-.63-1.42,1.74,6.36,3,12.39,4.59,18a6.46,6.46,0,0,1-.41-1.19c.28,1.12.57,2.63.73,2.46l-.32-1.09c-.14-1.86,1.69,4.32,1.89,4.48-1-1.76,1.23,5.67-.23,2.82.22.73.54,1.63.63,1.43.23,1.11.23,1.47-.19.4,1.09,4,1,2.51,1.83,6.16-.1,0-.31-.72-.52-1.07a47,47,0,0,1,1.94,6.72c-.1-.18-.09.2-.31-.72,1.31,5.29,2.69,8.9,3.91,14.75-.83-1.61.35,2,.06,2.4l.86,3.1-.12-1.3c.65,2.74,1.5,5.09,2,7.47l-.65-2,1.32,5.11-.57-2.93c.86,2.72.39-.41,1.17,3.26-.22-.74.66,2.73.79,4.21h0a34.63,34.63,0,0,1,1.3,4.73c0,.55-.5-.32-.5,0,.63,1.26,1.64,6.38,2.38,8-.22-.54-.42-.53-.41-.33l.52,1.06c.23,1.28.23,1.48,0,1.31.88,3.82.17-1.32,1.07,3.25-.11-.35-.1-.17-.32-.9,1,4.56,2.29,8.73,3.18,12.94-.07,1.32-1-3.63-.94-2.14,1.52,6,3.46,12.35,4.79,18.19l-.23-1.09c.71.68.8,4.4,1.76,7.28-.21-.71-.52-.87-.41-.69.88,4,2.1,8.12,3.73,14.13l-.31-.72c.45,2.38,1.43,6.2,2,8.76.31.72.64,2.18.62,1.25,1.15,8,4,14.83,5.09,21.93-.2-.83-.6-1.95-.44-1.29l1.56,5.88a7.82,7.82,0,0,0-.18-2.09,30.39,30.39,0,0,1,1.18,3.83c-.8-2.63-.36.11-.2,1.29,0-.21.19.16.24.05.35,3.19.58.41,1.33,4.69l-.17-.19c.44,1.56.95,3,1.33,4.69-.09.77-.53-1.65-.77-1.71.6,2.39,1.64,4.6,1.9,6.83-.31-1-.67-2.46-1-3.46a29.91,29.91,0,0,0,.79,4.45l0-.17.85,4.08-.17-1c1.41,2.83,1.6,6.06,3,10-1.37-3.82-.4-.59-.77-.82.17,1.05.46,2.64.26,2.21.7,1.85.59,3.23,1.59,5.83-.07.15.49,2,.14,1.67.68,2.46,0-.63.2-.45,1.25,3.74,1.78,9.08,3.56,14.46,1.33,4.69,1.86,5.49,3.09,9.85.21,1.52-.64-1.13-.64-1.13a56.31,56.31,0,0,0,1.56,6.45c-.19-.44-.15,0-.09.76.46,1.81.64,1.13,1.08,3.55a11.64,11.64,0,0,1-.82-1.71c.6,2.11,1.29,4.17,1.91,6.36,0,.62-.57-1.27-.87-2a60.3,60.3,0,0,0,2.16,7.1l-.29-1.61c.23.9-.11.52-.32-.14-.73-2.08-.66-3.09-.59-3.23l.44,1.56c.16-1.75-1.62-6.3-2.36-9.47l.73,1.22-1.13-3.17c-.06-.71.05-1.24.49.31-.35-2.32-.63-2-.88-4,0-.22,0-.13.09.07l-.66-2.19c.19.41.2-.44.47.94-.73-4-1.86-6.35-1.92-7.92l.11.33c-1.48-5.49-.43-.47-1.78-4.52l0-3-.43-.47c-.12-.57-.37-1.7-.21-1.53-.71-2.07,0,.4-.53-.79-.39-2.8-2-7.53-1.64-8.26-.46-.93.47,2.67-.4-.22.31-1-.91-3.37-1.28-5.93.45.71.88,3.11.51.55-.81-1.4-1.09-4.9-1.69-7-.37,0-1.26-4.56-2.24-8.08.18.2-1.42-6.72-2.09-10.05l.08.09c-.51-.55-1.27-4-1.95-6.43.24,0,.43.47.85,1.79l-.56-2.33a16.19,16.19,0,0,1-.89-2.74l.4.53c-.76-3.1-1.82-6.17-2.61-10.2-.31-.17.07,3.34-1.12-.84.1-.19.29-.4.61.69a17.63,17.63,0,0,1-.54-2l.64,1.63c-.35-1.84-.42-.91-.76-2.36.2,0-.12-1.11.08-.94.11.36.23,1.28.44,1.82a33.89,33.89,0,0,1-.74-4.34c-.08.17-.26.06-.57-1.13-.77-3.1,0-1.12-.37-2.95-.32-.72-.66-2.73-1-2.71a4.22,4.22,0,0,1-.13-1.48c-.52-1.57-1.86-7.48-1.72-5.6l.08.42c0-.08-.05-.17-.08-.26h0c-1.56-5.19-2.49-11-3.88-16.15l.1,0c-.86-3.08-1.75-6.91-2.49-9.09-.22-.92-.35-2.21-.14-1.85a51.68,51.68,0,0,1-1.5-6.08c.75,2.36-.06-.86.72,2.43a50.46,50.46,0,0,0-1.76-7.11c.52,1.07-.25-2.41-.68-3.86l.35,2.21c-.44-1.64-.77-3.09-1.1-4.57l.51.72c-1.14-6.43-3.44-11.26-3.95-16.23-.63-1.62.68,3.47.05,2-.67-2.92-.94-6.07-1.16-7-.79-4-1.37-3.61-2.26-7.81,0,.56-.18,1.14-1-2-.67-2.93-.39-3.7.15-1.88.18.69.23,1,.18,1,.27.93.62,2.15.47,1l-.21-.35c-.23-1.48-1.22-5.48-.8-4.59-.65-2.17-.42-.89-.08.75-.74-3.77-1.42-5.84-2.24-9.71.09.63.09,1.22-.06.61-1.22-5.67-.82-2.43-1.8-6.24-.35-2.21.61.68-.47-3.13-.45-2.38.18-.58.51.33a80.35,80.35,0,0,1-1.89-8.59l.54,1.82c-.33-1.09-.54-2-.77-2.92l0,1.11a9,9,0,0,1-.35-2c-.42-1.08-.17.95-.92-1.22-.23-1.47-1.19-4.37-1-4.95,1,4.58.19-.57,1.17,3.26q-.31-1.1-.66-2.73c0-.18.11.13.2.43-.79-4.42-.84-1.92-1.92-6.43.31.53.07-1.12-.15-1.85.44,1.82-.07.94-.61-.7-.57-2.92-.86-3.12-1.21-4.63l.35,1.74a27.63,27.63,0,0,1-1.18-4c.09-.2.53,1.81.42,1.08-.85-2.17-.92-5.14-1.88-8.21-.23-1.47.29-.21.06-1.5-1.07-3.45-.68-3.85-1.76-7.48,0,1.12.13,1.29-.72-1.24l1.63,6-1.28-3.8c.44,1.83,1.08,3.81,1.3,4.92-.63-1.8-.53-1.63-.51-.71-.26-2.58-1.4-4.9-1.87-7.84l.6,0c-.8-4.4-2.17-7.63-3.39-13.3l.34,1.83c-.41-.7-.88-3.47-1.41-5.27.23.13,0-1,0-1.84-.11.13-1-4.12-1.49-4.54l-.36-2.58c-1-4.57-1.8-5-2.8-9.44.53,1.27.18-.75,1,2.14a12.32,12.32,0,0,0-.77-2.77c-.09-.88-1.24-4-1.39-5.37a9.3,9.3,0,0,1-.86-2.39c0-.19.1,0,.1,0s-.76-2.53-.62-1c-.49-4.64-3.09-12.55-3.53-16.59-.84-3.17-1.83-7-2.55-9.88.11.17.1,0,.22.54-.79-4-1.15-2.32-2.05-6.91-.26-2.39.75,2.37.52.9.47-.79-1.42-5.46-1.79-8.6l.22.73c-.36-2.39-1.63-5.64-2.51-9.47,0,0,.1.18.1,0-.95-2.53-2.26-7.44-3.24-11.09.53,1.08.54,1.64.62.88-.43-1.64-.29.58-1.15-2.69-.13-1.1-.58-3.49-.39-3.87l.76,3.09c0-1.67-1-4-1.32-5.65l.21.17c-1.21-4.73-1.6-4.71-2.81-9.81v.55c-1.05-2.7-.35-2.39-1.31-5.1l.18-.94c-.54-1.81-1.94-6.35-2.81-9.63.74,1.8,1.82,5.62,2.57,8-.44-1.82-1.53-6.19-2-7.09a21.88,21.88,0,0,1,.65,2.37,69.86,69.86,0,0,1-2.58-8.71c.9.47-2.11-9.51-2.18-12.29-1.83-6.36-3-12.78-4.83-20.26.06,2.8-.55-2.18-1-1.57a21.12,21.12,0,0,1-.62-2.57l-.92-5.37c-.14-1.3.53,1.62.62,1.43-.88-3.83-.13-1.66-.59-4.23-.09.57-.63-1.25-1.07-3.45l.47,3.13c-1.61-5.26-.62-4.73-2.24-10l.6,1.65c-.78-2.73-2.47-10.18-3.6-12.77-.05-.51-.05-1.19.29,0-1.53-6.61-4.07-14.56-5-19.76l.26.47a23.87,23.87,0,0,1-1-3.65c.08.06.27.46.14-.11A47.24,47.24,0,0,1,96.94,405l.5,1.35c-1.37-6.48-2.79-9.78-4.2-15.15.43-.09-.66-5.19-1.21-7.73l.09.07c-1.77-7.5-3.45-12.64-5.3-19.54-.58-4.42-3.35-14.63-4.76-21.62.17,1.08-.38-.09-.72-1.31-.31-1.65-1.39-4.42-.93-4.26l.13.58c.09-1.31-.83-4.63-1.45-7.24l-.61-.3c-.91-7-4.62-17.8-4.85-21.68-.53-1.62-1-3.66-1.54-5.26l.29,0c-1-4.58-1.55-6.86-3-12.48l.47,1.1c-.75-3.18-1.77-3.82-2.49-6.75l.19-1c-1.35-5.55-2.35-11.25-4-16.64.08.08.24.21.47,1.11-.62-2.61-2.17-10.17-2.51-9.08.36-.16-1.35-5.73-2.24-8.69l.39.4a37.83,37.83,0,0,1-2-6c-.17-.85,0-.79.24.34-.53-2.82-.78-2.11-1.46-5.53l.48,1.22a19.08,19.08,0,0,0-1.3-4.15,27.56,27.56,0,0,1-1.11-5.94,13.62,13.62,0,0,1-1.16-3.58c0-.25.24.35.35.65-1-4.84-2-7-2.58-10.41a1,1,0,0,0,0-.6c.92,3.81,1.65,6.88,1.56,6.6.25-.06-.45-3.15.49-.78a96.91,96.91,0,0,1-2.84-9.58,3,3,0,0,1,0-.42l.11.31c-.15-.7-.32-1.32-.5-1.89-.19-1-.31-1.58-.53-2.5a38.56,38.56,0,0,0-1.11-5.1c-.24.2-.68-1.82-.45.11a6.7,6.7,0,0,1,.36,1.3,6.77,6.77,0,0,0,.19.65.31.31,0,0,1-.05-.1l.94,3.81a19.78,19.78,0,0,1-1.12-4.15c-.36-.74-.75-1.57-1-2-.13-2.2-.9-6.29-.8-6.91-1.3-4.65-2.78-11-4-13.84a5.52,5.52,0,0,1-.27-2.08c.24.75.45,1.67.63,2.07-.78-2.63-2-7.88-2.48-8.43-.65-3.4.79,1.81-.39-2.79l.26.6c-1.63-9.22-4.49-14.54-6.2-24.77a5.72,5.72,0,0,1,.16,1.21c-2.46-11.54-6-23.56-8.27-35a30.07,30.07,0,0,0-1.64-5.46l.12-.77-1.15-3.27c-1.41-4.7-1.28-8.42-3.21-14.33v.82c-.49-2.17-1.78-6.83-1.47-6.52A4.2,4.2,0,0,1,18,82.2l.14-.1-1.56-5.26c-.88-4.15.77.5-.66-5.52-.6-2.22-2-6.26-1.89-5.4a8.27,8.27,0,0,1,.33,2.44l-.58-2c-.54-.26-1.39-1.72-.49,3.38l1.13,3.43.05,1.18-.72-2.94a14.66,14.66,0,0,0,1.05,3.89,5.29,5.29,0,0,0,.11,1.52l1.27,3.33c-.08.46-.73-1.45-.27.88.59,1.56,0-1.64.8,1a8.63,8.63,0,0,0,.57,3.19c-.05.31-.22-.09-.46-.86.56,1.72,1.18,4.62,1.64,5.46.17,1.81,1.5,5.89,1,5.82a46.91,46.91,0,0,1,1.49,4.6c-1.23-2.81,1.43,6,.69,5.37,1,2.06,2.11,7.8,3.3,11.58a4.52,4.52,0,0,1-.33-1c.49,2.17.5,2.83.75,4.24.45.19,1.36,3.54,2,5.3.28,2.74-.84-1.5-1-.58.28-.21,1.43,4.53,1.47,3.57a11.16,11.16,0,0,1,.25,2.89c.56.24.54,1.87,1.24,3.49.48,3-.26.86.66,4C30.23,140.73,29.37,137.9,29.37,137.9Zm19.44,76.52h0c-.16-.66-.3-1.22-.4-1.58C48.49,213.17,48.6,213.63,48.81,214.42Zm1.57,6.45c-.18-.79-.42-1.77-.67-2.8,0-.25.2,0,.35.62A12.18,12.18,0,0,0,50.38,220.87ZM49,206.77a4.74,4.74,0,0,1,.3,1.52c-.13-.48-.27-1-.47-1.78a1.09,1.09,0,0,1-.06-.11A1.6,1.6,0,0,1,49,206.77Z"/><path class="cls-1" d="M48.16,205c0-.14-.07-.22-.12-.41,0,.21.05.42.08.62s.12.24.18.34C48.25,205.39,48.2,205.2,48.16,205Z"/><path class="cls-1" d="M189.6,789.56l0-.14a1.89,1.89,0,0,1,0,.3A.83.83,0,0,1,189.6,789.56Z"/><polygon class="cls-1" points="71.46 310.02 71.53 310 71.33 309.45 71.46 310.02"/><path class="cls-1" d="M197.28,825.3a2.1,2.1,0,0,0,0,.48A3.24,3.24,0,0,0,197.28,825.3Z"/><path class="cls-1" d="M200.94,840.65l.43,2.19C201.2,841.89,201.06,841.2,200.94,840.65Z"/><path class="cls-1" d="M203.67,852.48a.62.62,0,0,0,.17.2v0Z"/><path class="cls-1" d="M157.84,665c0-.15-.09-.31-.13-.45C157.4,663.54,157.6,664.26,157.84,665Z"/><path class="cls-1" d="M172,720.69c-.2-.58-.39-1.15-.57-1.76C171.67,719.93,171.85,720.7,172,720.69Z"/><path class="cls-1" d="M142.38,602.81s0,0,0,0c0-.14-.06-.25-.09-.39Z"/><path class="cls-1" d="M170.83,716.33a24.49,24.49,0,0,0,.62,2.6C171.27,718.11,171.07,717.14,170.83,716.33Z"/><path class="cls-1" d="M216,903.62l.12.57s0,0,.06.06Z"/><path class="cls-1" d="M216.13,904.25l.19.62A2.56,2.56,0,0,0,216.13,904.25Z"/><path class="cls-1" d="M216.71,906.18l-.39-1.31A6.91,6.91,0,0,0,216.71,906.18Z"/><path class="cls-1" d="M212.28,888l-.14-.16C212.19,887.92,212.23,888,212.28,888Z"/><path class="cls-1" d="M211.1,883.24c.26,1.14.48,2.89.93,4.46l.11.12C211.82,887.12,211.53,884.28,211.1,883.24Z"/><path class="cls-1" d="M207.52,863.14l.89,4c-.06-.72-.14-1.67.32.13C207.83,862.18,208.74,868.36,207.52,863.14Z"/><path class="cls-1" d="M204.68,850.78c.57,2.12.15-.06.24,0C204.49,849.48,204.39,849.16,204.68,850.78Z"/><path class="cls-1" d="M183.07,761.69l.3.16C182.93,760.21,183.27,761.86,183.07,761.69Z"/><polygon class="cls-1" points="177.65 744.98 177.88 746.62 178.29 747.32 177.65 744.98"/><polygon class="cls-1" points="176.98 734.49 177.19 735.2 176.43 732.47 176.98 734.49"/><path class="cls-1" d="M140.58,584.9l-.19.57C140.72,586.57,141.12,586.72,140.58,584.9Z"/><path class="cls-1" d="M124.59,520.38a14.53,14.53,0,0,0-.78-3.66C124.14,518.18,124.37,519.65,124.59,520.38Z"/><polygon class="cls-1" points="78.08 326.56 78.49 327.83 77.81 325.4 78.08 326.56"/></g></g></g></g></svg>