<svg xmlns="http://www.w3.org/2000/svg" viewBox="0 0 470.22 566.9"><defs><style>.cls-1{fill:#4d4d4d;}</style></defs><g id="Layer_2" data-name="Layer 2"><g id="sketch"><g id="sketch-cv"><path class="cls-1" d="M45.58,39.54c-.54.77-.08.47,1.7-1.44l1-1.59Z"/><path class="cls-1" d="M59.19,28.5c2.39-1.91,5.34-3.88,3.46-3.14-1.24.89-2,1.49-2.76,2.07s-1.58,1.2-2.8,2.28c-2,1.63-3.66,2.71-3.39,2.35-.17.16-.46.38-.8.66l-1.13,1a21.5,21.5,0,0,0-2.08,2c2.66-2.12,5.9-4.91,9.53-7.55C60.06,27.73,59.34,28.33,59.19,28.5Z"/><path class="cls-1" d="M307.34,13.28l-1.59-.37C306.18,13,306.73,13.15,307.34,13.28Z"/><path class="cls-1" d="M447.19,78a11.64,11.64,0,0,0-1.14-1.32A13.65,13.65,0,0,0,447.19,78Z"/><path class="cls-1" d="M456.92,102.09c-.05-.56-.1-1-.15-1.53C456.81,101.14,456.86,101.73,456.92,102.09Z"/><path class="cls-1" d="M307.34,13.28c1.36.31,2.73.61,4.09,1A30,30,0,0,0,307.34,13.28Z"/><path class="cls-1" d="M90.5,12.9c-.83.28-1.53.51-2.15.79.68-.27,1.35-.47,2-.7Z"/><path class="cls-1" d="M238.83,3.61l-1.27-.1-1.07.05Z"/><path class="cls-1" d="M185.79,1.54a5.38,5.38,0,0,0,2.07-.41,20.45,20.45,0,0,1-2.62.22S185.38,1.47,185.79,1.54Z"/><path class="cls-1" d="M102.28,10.64l-1.44.43Z"/><path class="cls-1" d="M276.57,8.14a1.66,1.66,0,0,0,.46.17S276.86,8.22,276.57,8.14Z"/><path class="cls-1" d="M18.25,94.72s0,0,.05,0C18.35,94.42,18.36,94.33,18.25,94.72Z"/><path class="cls-1" d="M46.14,40l-.53.67c0,.11,0,.21,0,.25Z"/><path class="cls-1" d="M459.85,151.1v-.22C459.72,149.59,459.78,150.32,459.85,151.1Z"/><path class="cls-1" d="M357.15,549.16c5-1-8,2.27-.46.73C356,550,363.34,547.74,357.15,549.16Z"/><path class="cls-1" d="M91.83,12.52l2.09-.66C93,12.15,92.33,12.35,91.83,12.52Z"/><path class="cls-1" d="M356.69,549.89h0l.78-.17Z"/><path class="cls-1" d="M466.64,264c0-.24.06-.69.08-1.16A5.78,5.78,0,0,0,466.64,264Z"/><path class="cls-1" d="M462.42,179.85l.11,2.08C462.49,181.11,462.45,180.44,462.42,179.85Z"/><path class="cls-1" d="M468,307.74c0,1.14-.06,1.52,0,3.07,0-.15,0-.29,0-.47A25.17,25.17,0,0,1,468,307.74Z"/><path class="cls-1" d="M467.25,353.26c0-.24.06-.56.09-.84,0-.45,0-1,0-1.44Z"/><path class="cls-1" d="M.74,232.06c.11-1,.21-1.61.31-2.09C.83,230.66,1,224,.74,232.06Z"/><path class="cls-1" d="M90.57,13a6.17,6.17,0,0,1,1.26-.52L90.39,13C90.27,13.07,90.26,13.12,90.57,13Z"/><path class="cls-1" d="M470.21,309.58l0,7.25C470.21,314.81,470.23,312.17,470.21,309.58Z"/><path class="cls-1" d="M54.06,543.15c-.52-.22-1-.42-1.55-.65C53.09,542.78,53.65,543,54.06,543.15Z"/><path class="cls-1" d="M469.94,338.34c-.13,1.29-.22,2.66-.3,4.08,0,.3,0,.64.05.84Z"/><path class="cls-1" d="M1.06,230s0,0,0,0S1.06,230,1.06,230Z"/><path class="cls-1" d="M3.21,182.25c-.58,6.89.09,3.26.18,4.74-.55,8.23-.56,3.79-1,6.57-.29,5.14-.19,9.11-.43,12.94-.08.28-.14,1-.17.14,0,5.45-.8,16.14-.65,22.49a6.68,6.68,0,0,1-.12.82c.21-1,.41-1.17.54-.95a59.83,59.83,0,0,1-.23,6.9,18.88,18.88,0,0,0-.07-3v3.24c-.43,2.91,0-4.42-.24-4.43-.1,6.32,0,13.69-.14,18.54-.38,1,.11-11.33-.33-4.88l.3-7.49c-.68,5.72.15-4.55-.55.7-.33,9.86-.08,11-.28,20.88.17,2.22.28-.73.46,1.49a106.35,106.35,0,0,1-.27,12,52.79,52.79,0,0,0-.11,9.26,60.9,60.9,0,0,1,.57,11l-.42-2.49c.11,9.55.65,5.44.61,15.45-.2-1.77-.3-7.5-.31-6.06-.16,6.49.31,4.58.45,9.56l-.31,1c.35,10.16,1,21.35,1.64,32.59-.13-.62-.32-2.54-.3.1.81,14.18,1.74,30.27,2.52,43.95l.7,5.2c.1,1.21,0,2.26-.11.95.31,5.33.21.26.53,2.81.26,3,.16,4-.09,2.1,1,9.37,2.92,26.68,3.69,36.58L9,433.17c.7,7.7,1.53,8.6,2.09,15.76l-.21-1.36c1.8,16.68,4.62,35,6.48,47.7.42,1.17,1.11,5.27,1.92,9.18s1.8,7.65,2.25,8.09c.14.59.3,1.13.45,1.63s.26,1,.44,1.37c.33.83.61,1.54.85,2.16.13.31.23.61.36.88l.41.77.78,1.47c1.15,1.92,2.53,4.46,7.57,9.22a35.59,35.59,0,0,0,3.73,2.84c1.26.77,2.6,1.61,4.5,2.82l-.08.32c1.8,1,3.57,2,5.43,2.83.9.62,1.77,1.29,2.69,1.86l3.83,1.79a15.69,15.69,0,0,1-2.88-1.66c3,1.41,6.61,3.09,9.55,4.35,1.46.65,2.75,1.21,3.68,1.61a10.57,10.57,0,0,1,1.52.7l3.68,1.24,3.72,1.14c2.46.78,5,1.4,7.46,2.1-.36,0-2.87-.66-4.86-1.17,4,1,4.35,1.2,4.61,1.36s.42.32,4.13,1.15c-1-.33.58,0,.76-.06,1.79.61,4.8,1.34,8.12,2.16s7,1.55,10.12,2.1l-1.24,0c11.26,2.32,23.87,4.11,36.66,5.55-4.57-.62-3.47-.86.28-.47l1.46.49c2.44.08-3.9-.57,1.09-.25,4.78.55,3.18.71.42.53l5.83.48c.33.13-1,0-1.4.13,2.4.06,10,1.27,13.5,1.17l.32.12c12.84.93,18.68,1.1,29.15,1.45.22-.26,4.31-.1,7.43-.24,7.7.25,16.24.55,25.52.42,6.52-.25,1.9-.27,4.83-.48.48.27,9.74,0,4.94.31,5.57-.16,9.12-.3,13-.5,2-.08,4-.21,6.45-.36s5.26-.34,8.77-.61c-1.53,0-3.25,0-2.36-.1a29.11,29.11,0,0,1,5.45-.1l-.68.07c7.87-.71,17-1.26,25.67-2s17-1.62,23.17-2.74l-.7.13c4.3-.7,8.59-1.43,12.87-2.22,5.94-.91-3.52.76.89.22L341,555.13c2.58-.51,5.08-1,7.63-1.59s5.17-1.2,8-2a147.82,147.82,0,0,0,20.16-5.36c8-2.62,16.12-6,21.73-8.39l-.71.15a24.66,24.66,0,0,1,3-1.5,21.41,21.41,0,0,0,2.52-1.15,12.54,12.54,0,0,0-1.47.64c-.53.22-.79.32.06-.16a80.64,80.64,0,0,0,16.85-11.46,95.58,95.58,0,0,0,13.76-15.52c8.09-11.34,14-24.13,18.61-37a43.24,43.24,0,0,0,2.16-7.88,95.32,95.32,0,0,1,2.66-9.73c-.18,1.18-.4,2.35-.62,3.53A385.62,385.62,0,0,0,466,397.93a27,27,0,0,1-.18,3.13c.35-2.05.79-5.87,1.05-9.19.13-1.66.25-3.19.3-4.32a9.87,9.87,0,0,0,0-1.86c.29-3,.24-.69.5-2.56.49-4.14.49-10.44.85-12.64a11.51,11.51,0,0,1,0,1.94c.08-2.72.77-12.62.34-10,.53-7.36.51-14.1.84-20-.19-3.84.43-12.62,0-13.84.46.54.49-12.92.24-17.58.14,1.56.12-4.05.32-2.22,0-5.32-.19-10.19-.4-9.26.43-9.81-.81-19.68-.28-25.21-.72-15.78-1.54-30.37-2.4-44.54.49.48.85,15.67,1.27,15-.82-13.45-1.63-21.19-2.32-34.53-.15-3.46.32,1.95.46,3.11-1-13.42-1.59-26-2.65-37.9,0,0,.18,1.31.29,2.53-.17-2.36-.31-5.48-.49-5.2l.21,2.29c0,3.78-1.26-9.31-1.45-9.72.86,4-.68-11.8.5-5.51-.14-1.55-.38-3.48-.49-3.12-.12-2.3-.09-3,.23-.71-.7-8.43-.71-5.42-1.24-13.05.1,0,.25,1.56.42,2.34-.46-3.86-.93-7.73-1.29-14.19.09.39.12-.37.25,1.56-.4-5.55-.84-10.26-1.25-15.11-.21-2.43-.4-4.89-.59-7.5-.08-1.31-.16-2.66-.25-4.06s-.12-2.85-.3-4.39c.82,3.6-.25-4.22-.28-4.9a46,46,0,0,0-2-6.39l.69,2.6a29.7,29.7,0,0,0-1.52-4c-.3-.62-.59-1.24-.88-1.85a15.65,15.65,0,0,0-.93-1.77c-.66-1.14-1.32-2.25-2-3.35s-1.42-2.09-2.1-3.14c.83,1.17,1.74,2.3,2.52,3.51-.95-1.54-2-3-3.06-4.5s-2.26-2.84-3.44-4.21c.66.78,1.26,1.62,1.89,2.43s1.28,1.59,1.81,2.47c-1.82-2.29-1.87-2-2-2.07s-.14-.06-.5-.49l-.79-1c-.18-.22-.38-.48-.61-.78l-.85-1a21.9,21.9,0,0,0-1.78-2c-.65-.76-1.47-1.57-2.23-2.34s-1.47-1.51-2-2.07v0c-1.07-.94-2.24-1.8-3.48-2.85s-2.67-2.13-4.32-3.47c-.8-.78.95.22.43-.29-1.17-.78-3.95-2.71-6.8-4.69a76.84,76.84,0,0,0-7.55-4.52c1.06.54,1.22.4.9.17l-2.16-1c-2.24-1.44-2.57-1.66-2.11-1.58-7-3.9,2,1.63-6.25-3.12.67.33.37.14,1.76.85a258.48,258.48,0,0,0-24.69-11.5c-2.24-1.35,7.13,2.85,4.51,1.42-11.69-4.92-24.61-9-36.29-12.71l2.16.72c-1.76,0-8.63-2.93-14.69-4.3,1.48.36,2,.24,1.59.19-8.06-2.34-16.61-4.28-29.05-6.83l1.56.21c-4.79-1.21-12.72-2.73-18-3.75-1.58-.16-4.58-.72-2.79-.2C277.17,6.07,262.2,5.2,247.76,3.1c1.74.15,4.15.33,2.77.17-4.13-.39-8.26-.76-12.39-1.06a35.72,35.72,0,0,0,4.19.69c-1.57,0-5.08-.19-8.15-.45,5.59.3,0-.37-2.41-.69.39.1-.44.11-.24.2-6.45-.84-1.11.38-9.94-.46l.48-.1c-3.32-.09-6.38-.12-9.95-.29-1.47-.33,3.53,0,3.77-.18-2.51-.14-5-.07-7.42-.07s-4.77,0-7-.18c2.13-.05,5.2,0,7.33.06a91.29,91.29,0,0,0-9.2-.53l.37,0c-2.84-.12-5.68-.18-8.52-.23l2.17.09c-3.15.34-6.34.35-9.82.42s-7.22.11-11.44.48c8.21-.69,1.35-.29,2-.61-2.17,0-5.46,0-4.53-.11-4,.46-6.7.1-12.32.87-.26-.07-4.28.29-3.4,0-5.18.54,1.25,0,.82.23-8,1-18.87,1.32-30.21,3.66-2.46.42-4.39.89-6.07,1.24s-3.1.69-4.48,1.07l-4.33,1.1c-1.58.39-3.36.92-5.59,1.49-3.07.59,2.4-.95,2.4-.95-2.46.54-4.62,1-6.71,1.61s-4.15,1.14-6.38,1.94c.89-.37-.08-.14-1.49.19-3.63,1.16-2.33,1.08-7.1,2.63.77-.39,1.75-.93,3.45-1.65-2.1.82-4.2,1.58-6.27,2.47L79,17.53c-1,.45-2.11.9-3.15,1.43-.59.18,0-.17,1-.67s2.26-1,3-1.4c-2.44,1-5.49,2.46-8.14,3.73a57.05,57.05,0,0,0-5.39,3.14c1-.52,2-1,3-1.48-1.68.89-1,.25.25-.44A28.44,28.44,0,0,1,74,19.65a8.93,8.93,0,0,1,1.7-.55l-3,1.44c1.67-.44,4.64-1.91,8.08-3.33.86-.36,1.73-.77,2.63-1.13l2.69-1c1.79-.7,3.54-1.36,5.14-1.83-.84.42-1.69.8-2.51,1.25,2.12-.83,4.26-1.6,6.39-2.4,1.43-.29,2.44-.37-.68.64,4.62-1.15,4-1.3,8-2.17.45-.08.26,0-.14.11l4.49-1.22c-.87.3.81.1-2,.72C112.94,8.37,117.88,7,121,6.7l-.68.15,5.1-1c.77-.16.81-.21.76-.26s-.56-.14,3.71-1c2,0,3.94,0,5.9,0l1.09-.45c1.19-.17,3.54-.39,3.12-.22,4.4-.7-.77-.05,1.78-.53,5.74-.44,15.8-1.59,17.13-1.17,2-.38-5.51.2.61-.39,1.78.38,7.09-.52,12.35-.5-1.6.31-6.58.45-1.31.42,3.15-.57,10.23-.24,14.65-.35.1-.18,2.51-.27,5.83-.25l5.47,0,5.78.07c-.47,0,14,.61,20.89,1.19l-.21,0c1.36-.26,8.48.23,13.67.61-.23.21-1.17.22-4,.09l4.87.39a56.93,56.93,0,0,1,5.84.3L242.15,4c3.24.31,6.51.51,10,.86l5.43.55q2.82.35,5.92.8c.5-.19-6.52-1.54,2.29-.6.31.18.6.45-1.71.22.76.08,2.7.21,4.21.49-1.18-.09-2.36-.16-3.54-.23,3.77.58,2,.07,5,.5-.09.19,2.22.46,1.76.55-.77-.09-2.62-.45-3.79-.53,3.4.52,7.5,1.19,8.83,1.56-.28-.16,0-.26,2.53.1,6.43,1,2.16.57,5.89,1.27,1.57.13,5.64,1,5.8.7a16.41,16.41,0,0,1,2.9.73c1.67.25,5.53,1,8.52,1.5s5.09.94,3.26.41l-.84-.19.54.1h0c10.88,1.88,22.36,5,32.95,7.77l0,.09L343,21.9l5,1.42c3.29.9,6.31,1.84,8.57,2.43,1.85.56,4.29,1.57,3.47,1.42,4.75,1.52,5.34,1.55,12.07,4.15-4.79-1.52,1.57.73-4.89-1.61l6.81,2.58c1.9.75,3.88,1.46,7.17,2.6-2.28-.65,4.41,2.13,7.27,3.27-1.36-.68-2.75-1.27-4.13-1.91,3.24,1.25,6,2.52,8.8,3.77l-1.66-.36c3,1.39,5.81,2.8,8.56,4s5.33,2.53,7.81,3.8S412.75,50,415,51.36c1.12.68,2.23,1.35,3.31,2s2.08,1.46,3.09,2.21c3.08,1.7-5.95-4-3.17-2.56a118.8,118.8,0,0,1,11.49,8.54c3.26,2.58,4.74,3.8,6.34,5,.4.31.8.6,1.22.94l1.32,1.17,1.62,1.5,1,.93,1,1.13c-.68-.88-1.11-1.94,3.31,2.87.94,1.2,1.68,2.19,2.22,2.94a9.28,9.28,0,0,1,.94,1.62c.23.61-.17.14-1.36-1.35a10.41,10.41,0,0,1-1.25-1.68c-1.21-1.53-3-3.38-1.49-1.51l.58.53c.88,1.22,2.68,3.4,3.82,5.29s2,3.24,1.39,2.45c1.16,1.94,1.45,2.34,1.24,1.88-.11-.23-.34-.67-.64-1.24a19.84,19.84,0,0,0-1.14-2c.55.79.94,1.62,1.37,2.38l1.22,2.2c.66,1.47,1.29,2.84,1.91,4.22s1,2.86,1.47,4.43c.18.8.36,1.63.55,2.49.1.44.19.88.29,1.34s.1.94.15,1.43c0-1.26-.16-2.42.07-1.19.15,1.44.27,2.61.37,3.55s.11,1.7.17,2.28c.08,1.17.15,1.7.21,2.11a40.35,40.35,0,0,1,.53,5.17c.1,4.56-.54-1.61.13,6.45.19,4.94-.25,1.07-.47-.89.7,7.34.75,13.75,1,18l-.36-3.87c.21,2.31.34,4.21.48,6.14L459,136a35,35,0,0,1,.15,4.16c.31,2.34.27-1.81.8,2.82.09,3,.78,9.21.54,10.28-.57-9.53-.25,1.07-.86-7,.14,1.56.28,3.45.39,5.74,0,.34-.08-.32-.15-.94.36,9.13.66,4.16,1.31,13.61-.26-1.19-.18,2.21,0,3.75-.26-3.81.17-1.84.55,1.64.28,6.07.55,6.58.75,9.75l-.18-3.63c.26,1.22.45,4.25.78,8.47-.11.37-.35-3.83-.31-2.32.63,4.67.39,10.61,1,17.14.08,3-.31.31-.22,3,.68,7.31.25,7.95.89,15.64.1-2.23,0-2.62.57,2.79l-.91-12.65.83,8.1c-.22-3.82-.63-8.05-.73-10.34.43,3.86.35,3.46.43,1.62,0,5.25.84,10.36.93,16.42l-.6-.15c.23,9.1,1.17,16.13,1.54,28l-.07-3.8c.31,1.57.35,7.29.6,11.11-.21-.35-.2,2-.26,3.68.15-.2.29,8.65.71,9.71l-.1,5.28c.14,9.54.83,10.87.91,20-.25-2.76-.33,1.41-.58-4.73a56.68,56.68,0,0,0,.18,5.86c-.1,1.79.36,8.49.17,11.31a33.91,33.91,0,0,1,.28,5.15c0,.37-.1,0-.1,0s.12,5.38.35,2.38c-.31,4.71-.38,11.3-.48,17.74s-.29,12.73-.72,16.82c-.19,6.68-.57,14.72-1,20.78,0-.39-.1,0,0-1.17a51.52,51.52,0,0,0-.3,6.89,50.35,50.35,0,0,1-.47,7.76c-.73,4.82.27-5.05-.11-2-.74,1.26-.95,11.45-2.09,17.77l.14-1.55c-.78,4.84-1.18,11.89-2.49,19.78,0,0,0-.39-.09-.06a233.73,233.73,0,0,1-3.87,23.2c.28-2.39.6-3.45.05-2.07-.7,3.37.65-.89-.84,5.83a69.1,69.1,0,0,1-2.44,7.49l1.59-6.28a52.34,52.34,0,0,0-1.58,5.65c-.5,2.05-1,4.1-1.52,5.74l0-.46c-1.38,4.76-2,7.2-2.79,9.7a101.35,101.35,0,0,1-3.5,10.06l.53-1a37.46,37.46,0,0,1-2,5,43.07,43.07,0,0,0-2.19,4.89l-1.12,1.41-1.6,3.49-2.35,4.65c-.91,1.63-1.86,3.36-2.84,5s-2,3.27-3,4.68c.53-.82,1.12-1.92,1.83-3.1l1.12-1.86c.36-.66.74-1.34,1.12-2,1.55-2.72,3-5.65,4.07-7.89-.42.85-1,2-1.71,3.22-.34.63-.69,1.29-1,2l-1.14,2c-1.46,2.63-3,4.94-3.44,5.83.79-1.31,1.82-2.95,2.62-4.23a77.14,77.14,0,0,1-10.5,15.1c.08-.38-.71.35-2,1.7s-3.22,3.23-5.42,5.09c-.55.47-1.08,1-1.66,1.44l-1.75,1.36c-1.13.94-2.37,1.71-3.49,2.47a35,35,0,0,1-3.19,1.92,22.59,22.59,0,0,1-2.41,1.24,113.8,113.8,0,0,1-18.34,8.53c-6.5,2.43-13.4,4.56-20.94,6.68,2.75-.48,1.66-.16,0,.32s-3.88,1-3.33,1.23c-3.53,1-4.88,1.3-5.21,1.33L351.28,551l-5.44,1c-2.6.4,3.36-.89,3-.95a35.81,35.81,0,0,1-5.25,1,16.6,16.6,0,0,0-3.29.42c1.11,0-2.66.88-7.16,1.62,2.12-.32,4.25-.59,6.36-.94A86,86,0,0,1,329.23,555c-2.41.28-4.83.6-10.37,1.63l3.49-.75-5.78,1L309,558c-2.64.37-5.27.75-7.59,1.12s-4.33.66-5.72.94c-1,.05-2.39.05.13-.3-13.73,1.56-30.6,3.46-41.36,3.73l1-.21c-2.57.2-4.47.51-7.7.53.16-.07,1-.2-.17-.15-1.36.14-6.84.54-10.26.58l2.92-.27c-13.49.27-20.69.94-32,1,0-.43-10.59-.65-15.88-.91l.19-.05c-15.7-.49-26.67-.73-41.19-1.81-4.47-.63-12.07-1.42-20.33-2.51s-17.16-2.43-24.26-3.91c2.17.46-.42.31-3-.17-1.66-.38-4-.73-5.81-1.1s-3.16-.65-2.85-.79l1.18.27c-2.42-.92-9.25-2.36-14.49-3.83l-1,.28c-6.77-2.27-15.7-5-23.54-8.3-2-.84-3.87-1.62-5.64-2.51l-2.59-1.25-2.37-1.3c-1.53-.8-2.86-1.67-4-2.43-.57-.39-1.12-.74-1.6-1.09s-.89-.71-1.26-1a55.8,55.8,0,0,1-8.54-6.8l.32-.06c-.76-.87-1.48-1.69-2.17-2.46l-1.75-2.4a7.88,7.88,0,0,1-.76-1.18l-.69-1.2c-.22-.4-.48-.78-.67-1.19L25,516c-1.52-3.33-2.42-7.39-3.69-13.13.23.77.45,1.54.7,2.31-1.37-6.48-2.46-8.07-3.55-14.12l.11-1.89c-1.91-11.47-3.13-23.18-4.92-34.54a7.57,7.57,0,0,1,.5,2.37c-.71-5.43-2.18-21.07-2.53-19,.36-.17-1.24-11.94-2-18.18l.37.95c-.86-5.25-1-5.41-1.75-12.78-.12-1.75.08-1.55.22.78-.37-5.84-.66-4.52-1.11-11.6l.4,2.62a81.35,81.35,0,0,0-1-8.81,103.73,103.73,0,0,1-.59-12.3A54.29,54.29,0,0,1,5.38,371c.07-.49.21.8.28,1.44-.47-10.05-1.27-14.91-1.37-21.84a3.47,3.47,0,0,0,.1-1.18c.43,8,.72,13.21.75,13.81.25,0-.08-6.46.58-1.35-.51-5.17-1.43-14-1.61-20.29,0-.3,0-.6,0-.83l.06.65c0-1.46-.13-2.76-.23-4-.06-2-.09-3.28-.15-5.21.18-.75-.2-7.4-.29-10.62-.27.28-.38-3.94-.47,0a26.3,26.3,0,0,1,.14,2.74c0,.49,0,1.06.08,1.37l0-.21c.09,2.11.21,4.86.35,8a80.58,80.58,0,0,1-.47-8.75c-.24-1.64-.49-3.45-.61-4.48.22-4.42.21-12.91.41-14.1-.43-9.83-.54-23.15-1.1-29.33a22.51,22.51,0,0,1,.23-4.26c.06,1.61,0,3.53.13,4.4-.07-2.79-.1-6.93-.14-10.54a63.45,63.45,0,0,0-.25-7.36c.24-7,.28,4,.35-5.71l.09,1.3c.88-19-.32-31,1.69-52-.14,1.45-.2,2.18-.28,2.48,1.75-24,3.63-49.52,8.24-72.83.6-3.32.94-5.16,1.16-6.68s.37-2.74.65-4.78l.6-1.37,1.13-7c.51-2.45,1.06-4.71,1.64-6.93s1.27-4.35,1.93-6.58,1.4-4.52,2.18-7,1.63-5.19,2.47-8.23L23,85.29c.69-2.16,1.92-5.53,2.9-8.29s1.93-4.83,1.9-4.44a13.1,13.1,0,0,1,1.15-3l.21-.06c.72-1.71,1.38-3.45,2.15-5.14l2.34-5c2.14-3.75,2.11-3.37,2.32-3.44s.55-.62,3.91-5.9c.6-1,1.43-2.13,2.2-3.34l1.17-1.79,1.19-1.62c1.49-2,2.48-3.45,1.88-2.8A32.1,32.1,0,0,1,43,44.08l2.63-3.39c.06-.45.55-1.39.13-1.23a5.87,5.87,0,0,0-1.46,1.29c-.4.42-.91,1-1.53,1.66l-1,1.16L40.62,45l-2,3.11-1.85,3.22-1.45,1.91c1.09-1.77,2.18-3.55,3.3-5.3a44.26,44.26,0,0,0-2.48,3.8,35.56,35.56,0,0,0-1.74,3.34,22.11,22.11,0,0,0-1.73,2.6c-1,2.21-1.9,4.47-2.85,6.7-.27.36,0-.42.07-.73s-.13-.21-1.15,2c-1.18,3.2,1.69-2.81-.46,2.39a26.41,26.41,0,0,0-2.72,6.06c-.33.5-.08-.35.48-1.9-.59,1.76-1.55,4-2.24,6.12s-1.34,4-1.55,4.93C21.53,85,20.59,88,19.8,90.45S18.46,95,18.3,94.73c-.27,1.13-1.39,6.35-2.22,9.63.54-3-.33,0-1.17,3.63-.44,1.82-.92,3.77-1.26,5.17S13.06,115.4,13,115c-.57,4.56-3.06,16.24-4,24.28,0-.45.1-1.34.23-2-.73,4.49-1.09,5.78-1.61,8.66.33.64-.62,7.67-.8,11.5-1.06,5.49,0-3.42-.62-1.73.35-.24-.87,9.67-.37,7.81a43.65,43.65,0,0,1-1.07,5.8c.4.79-.34,4-.36,7.51-.82,6.13-.64,1.54-1.06,8.31C2.89,188.28,3.21,182.25,3.21,182.25ZM2.47,343.41h0c-.07-1.39-.13-2.57-.17-3.33C2.33,340.78,2.38,341.73,2.47,343.41Zm.73,13.52c-.09-1.65-.2-3.7-.32-5.87.08-.48.2,0,.27,1.39A44.22,44.22,0,0,0,3.2,356.93Zm.54-28.69a18.5,18.5,0,0,1,.06,3.15c0-1-.11-2.19-.19-3.74l0-.25A4.62,4.62,0,0,1,3.74,328.24Z"/><path class="cls-1" d="M3.22,324.4c0-.31,0-.48-.05-.88,0,.44,0,.86,0,1.28,0,.26.08.53.12.76C3.25,325.17,3.24,324.77,3.22,324.4Z"/><path class="cls-1" d="M305.47,12.85l.28.06-.58-.15Z"/><path class="cls-1" d="M40.54,536.09l0-.07c-.35-.19-.71-.38-1-.6C39.85,535.66,40.2,535.87,40.54,536.09Z"/><path class="cls-1" d="M231.77,1.76a6.75,6.75,0,0,0-1-.15C230.84,1.64,231.26,1.68,231.77,1.76Z"/><path class="cls-1" d="M199.56.21c-1.51,0-3-.14-4.55-.16Z"/><path class="cls-1" d="M174.77.24a1.64,1.64,0,0,0-.48.14h.05Z"/><path class="cls-1" d="M464.18,178c0,.33.06.66.08.95C464.47,181.2,464.34,179.69,464.18,178Z"/><path class="cls-1" d="M438.48,66.93l2.82,2.53A15.94,15.94,0,0,0,438.48,66.93Z"/><path class="cls-1" d="M470.21,308.79h0v0Z"/><path class="cls-1" d="M445.05,73.46c-.69-.79-1.33-1.51-1.95-2.18a20.7,20.7,0,0,0-1.8-1.82c.63.58,1.25,1.29,1.88,2S444.45,72.83,445.05,73.46Z"/><path class="cls-1" d="M69.93,21.23l-1.07.54s0,.06-.1.11Z"/><path class="cls-1" d="M68.76,21.88l-1.17.64C68.13,22.24,68.6,22,68.76,21.88Z"/><path class="cls-1" d="M65.17,24l1.19-.75,1.23-.68c-.43.23-.92.47-1.36.72A12,12,0,0,0,65.17,24Z"/><path class="cls-1" d="M100.84,10l.34-.2C101,9.83,100.86,9.9,100.84,10Z"/><path class="cls-1" d="M110.55,7.58c-1.17.22-2.64.51-4.22.86s-3.27.71-4.88,1.16l-.27.16A41.23,41.23,0,0,1,105.6,8.7C107.48,8.29,109.45,7.88,110.55,7.58Z"/><path class="cls-1" d="M151.87,2.79c-2.77.23-5.55.42-8.31.72,1.46,0,3.38-.12-.38.33,5.23-.43,4.69-.37,4.19-.44S146.43,3.26,151.87,2.79Z"/><path class="cls-1" d="M177.69,1.54c-4.48.19.05.16-.18.22C180.34,1.58,181,1.55,177.69,1.54Z"/><path class="cls-1" d="M361.81,27.87l-.51.1C364.58,29,361.36,27.88,361.81,27.87Z"/><path class="cls-1" d="M395.59,39.62c-1-.53-2-1-3-1.52L391,37.67C392.54,38.32,394.08,38.94,395.59,39.62Z"/><path class="cls-1" d="M413.51,50.9c-.44-.24-.87-.5-1.32-.72l5,2.84Z"/><path class="cls-1" d="M467.29,345.16l.35-1C467.65,341.79,467.32,341.29,467.29,345.16Z"/><path class="cls-1" d="M446.32,478.25c-.72,1.3-2.17,4.8-3,7l.95-2,.83-1.94C445.6,480,446.05,479,446.32,478.25Z"/><path class="cls-1" d="M74.46,548.18l2.64.66c-1.65-.44-3.29-.9-4.91-1.41Z"/><path class="cls-1" d="M341.57,491.49c.2.12.27-.1-.12-.54l-.52-.12Z"/><path class="cls-1" d="M339.58,488c-.56-.45-1.28-.9-1.24-.36.68.34.68.56,1.44.9.39.44.55.88.4.88.19.11.51.76.87.88a5.49,5.49,0,0,0-1.67-2.2C339.3,487.88,339.5,488,339.58,488Z"/><path class="cls-1" d="M305.45,441.39l.19.32A2.4,2.4,0,0,0,305.45,441.39Z"/><path class="cls-1" d="M285.27,411.83c.16.22.25.3.29.29C285.4,411.93,285.26,411.77,285.27,411.83Z"/><path class="cls-1" d="M282.15,406.57c.07.11.12.21.18.31A.75.75,0,0,0,282.15,406.57Z"/><path class="cls-1" d="M305.45,441.39l-.47-.84C304.86,440.56,305.2,441,305.45,441.39Z"/><path class="cls-1" d="M334,482.23a2.41,2.41,0,0,0,.39.35l-.33-.36Z"/><path class="cls-1" d="M314.86,454.05l.17.24a1.92,1.92,0,0,0,.25.12Z"/><path class="cls-1" d="M322.06,463.78c-.16-.22-.44-.13-.6-.14a1.12,1.12,0,0,1,.51.36A.35.35,0,0,0,322.06,463.78Z"/><path class="cls-1" d="M333.25,479.38l.24.25Z"/><path class="cls-1" d="M309.84,447a.19.19,0,0,0,0-.15S309.83,446.92,309.84,447Z"/><path class="cls-1" d="M98.22,184.5s0,0,0,0S98.15,184.44,98.22,184.5Z"/><path class="cls-1" d="M88.13,174.67l.16.11a.45.45,0,0,0,.13-.1Z"/><path class="cls-1" d="M276.21,397.09l0,0C276.42,397.36,276.32,397.22,276.21,397.09Z"/><path class="cls-1" d="M218.11,312.38c.47,1.09-1.37-1.35-.57.24C217.53,312.42,218.82,313.65,218.11,312.38Z"/><path class="cls-1" d="M333.84,482l-.31-.39A3.49,3.49,0,0,0,333.84,482Z"/><path class="cls-1" d="M217.54,312.62h0l.09.16Z"/><path class="cls-1" d="M261.74,375.76a.8.8,0,0,0,0,.29S261.8,376,261.74,375.76Z"/><path class="cls-1" d="M272.08,392l-.23-.42C271.93,391.7,272,391.83,272.08,392Z"/><path class="cls-1" d="M255.86,367.7a2.24,2.24,0,0,0-.37-.59l0,.1A1.23,1.23,0,0,1,255.86,367.7Z"/><path class="cls-1" d="M250.07,359.09c0,.05,0,.12.06.19s.13.18.2.26Z"/><path class="cls-1" d="M122,205.06a1.85,1.85,0,0,1-.18-.51C121.84,204.8,120.67,203.82,122,205.06Z"/><path class="cls-1" d="M334.13,482.13a.5.5,0,0,1-.29-.17l.23.26C334.12,482.22,334.16,482.2,334.13,482.13Z"/><path class="cls-1" d="M253.79,368.58l-.89-1.39C253.13,367.59,253.46,368.1,253.79,368.58Z"/><path class="cls-1" d="M173.41,258.67l-.27-.27A1.37,1.37,0,0,0,173.41,258.67Z"/><path class="cls-1" d="M250.14,363.16a4.41,4.41,0,0,0-.36-.88.59.59,0,0,0-.17-.12Z"/><path class="cls-1" d="M121.85,204.54h0Z"/><path class="cls-1" d="M113.35,197.79c1.17,1,.8.22,1.19.28,1.47,1.16.46.78.81,1.34.94.7,1.84,1,2.48,1.63,0,.09.12.21-.07.14,1.13.58,2.71,2.46,4,3.17a.44.44,0,0,1,.07.19c0-.29.06-.46.18-.52.52.47,1.12.72,1.15,1.07a1.09,1.09,0,0,0-.6-.33l.61.42c.25.71-.82-.59-1-.4a32.29,32.29,0,0,1,3.29,2.64c-.06.41-2-1.67-1.1-.45l-1.16-1.25c.59,1.28-.73-.73-.24.5,1.57,1.6,2,1.58,3.52,3.17.5.21.07-.31.57-.11,2.57,1.91,1.24,2.33,3.23,3.63a3.25,3.25,0,0,1,2.09,1.43l-.68-.12c1.53,1.54,1.28.47,2.72,2.24-.39-.17-1.31-1.1-1.1-.84.84,1.25.9.57,1.71,1.36l-.07.41c1.69,1.57,3.69,3.17,5.51,5-.17,0-.55-.27-.21.23a88.07,88.07,0,0,1,6.83,7.3l1,.67c.19.2.25.46,0,.28.75,1,.18-.08.66.27s.5.78.14.52a41.75,41.75,0,0,1,5.88,5.93l-.37-.26c1.11,1.37,1.82,1,2.7,2.43l-.25-.2c2.46,2.92,5.49,5.87,7.1,8.32.7.12,2.35,3,3,2.76a35.87,35.87,0,0,0,2.58,3.88c.52.63,1.08.68,1.79,1.4l-.22.22,1.15.83.2.79.68.67c-.23-.3-.42-.7-.32-.71a9.19,9.19,0,0,1,2.07,3l2.45,2.52c-.14,0-.55-.4-.91-.7,1.44,1.23,0,.46,1.29,1.6-.1-.22.22,0,.29,0a21.29,21.29,0,0,0,2.64,3.33l-.34-.08c1.62,2,3.53,4.2,5.37,6.47-.58-.88-.14-.92.42-.28l0,.47c.5.31-.47-.77.43,0,.66.87.18.8-.3.38l.92,1c0,.12-.26-.09-.41-.07.5.29,1.18,2,1.95,2.37l0,.12c1.82,2.29,2.71,3.27,4.19,5.13.25-.13.77.64,1.39,1.06,1,1.43,2,3.09,3.33,4.75,1,1.09.45.19,1,.62-.14.25,1.15,1.91.35,1.15,1.56,2,2,2.54,4.09,5-.12-.34-.32-.68-.13-.57.38.44.71,1.12.56,1.13l-.11-.11c2.49,2.62,4.34,7.1,6.48,9.07l-.12-.11,2,2.22c.78,1.12-.64-.55-.17.36,2.23,2.32,2.91,4.13,4.69,6.09.58,2.09,4.28,5.83,5.46,8.37l.06-.23c.55.48.41.76.68,1.21.07-.14-.32-.72,0-.42,3.67,4.79,6.94,10.33,10.33,15.49,1.25,1.88,1.48.54,2.75,3.12l-.73-.48c2.89,3.55,5.27,7.7,8,11.21-.21-.18-.3-.13-.54-.49a8.31,8.31,0,0,0,2.12,2.8c.37.59-.06.23.1.64.41.86,1.59,1.8,1.67,2.35,0,.09-.21-.18-.33-.31.45.44,1.59,2.39,1.49,1.75.83,1.46,1.89,2.59,2.5,3.79.74.55,1.48,2.46,2,2.45-.45.15,1.33,2.64,2.1,3.4-.31-.22.4.85,0,.61.68,1,1.36,1.87,1.44,1.57.79,2.15,2.85,3.48,3,4.91,2.2,2.85,4.19,5.52,6.07,8.15-.44.15-2-2.95-2.34-2.57a71.25,71.25,0,0,1,4.77,6.29c.38.69-.41-.26-.63-.44,1.86,2.45,3.26,5,5,7.08,0,0-.25-.2-.43-.41.31.43.64,1.07.78.91l-.34-.41c-.23-.88,1.71,1.43,1.89,1.42-1-.43,1.38,2.32-.05,1.53.23.27.56.59.63.44.26.46.28.64-.14.29,1.16,1.54,1,.85,1.93,2.3-.09.05-.32-.22-.51-.31A10.75,10.75,0,0,1,277,402c-.1,0-.07.14-.31-.22,1.44,2.08,2.83,3.29,4.23,5.69-.81-.44.41.87.18,1.2l.93,1.17-.18-.6c.72,1.09,1.6,1.9,2.13,2.9l-.68-.72,1.44,2-.66-1.23c.9,1,.31-.38,1.2,1.11a18,18,0,0,1,.93,1.78h0a7.66,7.66,0,0,1,1.41,1.8c0,.28-.46.07-.43.25.62.35,1.79,2.48,2.52,3-.21-.17-.38-.08-.37,0l.51.3c.28.55.3.64.11.65,1,1.53.06-.75,1.12,1.15-.11-.13-.1,0-.33-.31,1.15,1.85,2.51,3.37,3.54,5.08,0,.7-1.06-1.38-.94-.65,1.69,2.34,3.74,4.66,5.27,7l-.26-.45c.66,0,1,1.85,2,2.86-.23-.26-.5-.2-.4-.16,1,1.62,2.34,3.13,4.13,5.4l-.32-.21c.55,1,1.66,2.45,2.32,3.48.32.21.7.79.62.33,1.55,3.5,4.46,5.59,5.9,8.65-.24-.32-.65-.7-.47-.44l1.77,2.21c.05-.32-.11-.38-.31-1a6.6,6.6,0,0,1,1.29,1.36c-.87-.94-.29.23-.07.75,0-.12.17,0,.2-.09.54,1.44.52-.07,1.49,1.72h-.16a16.83,16.83,0,0,1,1.48,1.72c0,.43-.57-.58-.78-.49.69.91,1.73,1.53,2.13,2.52-.35-.35-.76-.91-1.1-1.26a6.32,6.32,0,0,0,1,1.86l0-.07,1,1.63-.23-.44c1.42.73,1.85,2.26,3.37,3.53-1.47-1.24-.39-.1-.71,0,.22.44.59,1.1.4,1,.74.59.76,1.34,1.81,2.15,0,.11.58.79.26.77.77.91,0-.32.12-.32,1.35,1.28,2.28,3.67,4.24,5.48,1.53,1.69,2.05,1.82,3.45,3.39.31.65-.63-.25-.63-.25a12.19,12.19,0,0,0,1.87,2.45c-.2-.12-.12.1,0,.43.56.66.64.24,1.23,1.22a3.43,3.43,0,0,1-.84-.44c.7.75,1.47,1.43,2.2,2.2,0,.33-.6-.34-.92-.56a13.62,13.62,0,0,0,2.47,2.44l-.4-.66c.28.33,0,.32-.28.1-.8-.67-.84-1.21-.8-1.32l.52.55c0-1-1.94-2.31-2.86-3.52l.72.24-1.23-1c-.12-.33-.07-.65.43-.09-.49-1-.7-.68-1.08-1.56,0-.1,0-.07.08,0l-.74-.76c.19.11.12-.32.47.23-1-1.66-2.12-2.24-2.3-3l.12.12c-1.72-2-.4,0-1.89-1.38l-.21-1.51-.4,0c-.16-.22-.47-.67-.31-.66-.79-.68,0,.22-.52-.13-.58-1.2-2.28-2.81-2.07-3.34-.46-.24.61,1.11-.36.09.18-.63-1-1.24-1.56-2.35.44.14,1,1.13.48,0-.8-.31-1.32-1.93-2-2.69-.32.18-1.44-1.67-2.55-3,.16,0-1.71-2.69-2.54-4.05H317c-.47,0-1.38-1.39-2.13-2.3.2-.09.4,0,.85.49l-.65-.9a3.8,3.8,0,0,1-1-1l.39.07a34.48,34.48,0,0,1-3-3.88c-.27.06.3,1.65-1,.11.07-.15.22-.34.57.05a3.47,3.47,0,0,1-.6-.75l.66.52c-.42-.77-.43-.26-.81-.83.17-.11-.18-.51,0-.52a4.5,4.5,0,0,0,.5.72,8,8,0,0,1-.94-1.84c0,.12-.21.15-.57-.3-.87-1.2-.1-.55-.51-1.31-.32-.22-.76-1.07-1-.92a1.05,1.05,0,0,1-.22-.68c-.55-.55-2.11-2.89-1.86-2l.1.17-.09-.09h0c-1.7-1.88-2.86-4.37-4.4-6.34l.09-.06c-.95-1.15-2-2.67-2.74-3.42-.25-.36-.45-1-.24-.87a10.85,10.85,0,0,1-1.68-2.38c.79.84-.09-.41.77.89a11.05,11.05,0,0,0-2-2.78c.52.3-.37-1.1-.83-1.64l.44,1c-.48-.63-.85-1.21-1.23-1.8l.49.12c-1.38-2.72-3.67-4.1-4.4-6.39-.64-.53.79,1.45.16,1-.74-1.18-1.16-2.64-1.41-3-.92-1.68-1.4-1.19-2.42-2.91.05.27-.08.65-1-.52-.75-1.18-.55-1.7,0-1,.2.27.26.42.22.43.28.35.66.81.46.28l-.2-.08c-.29-.64-1.38-2.22-1-1.95-.68-.81-.41-.27,0,.41-.87-1.57-1.56-2.31-2.5-3.9.11.28.15.58,0,.34-1.39-2.32-.85-.86-1.92-2.35-.43-1,.57.07-.59-1.37-.52-1,.13-.38.46-.06a18.22,18.22,0,0,1-2.12-3.5l.57.68c-.34-.41-.58-.77-.83-1.13l.09.55c-.26-.45-.5-.82-.42-.87-.42-.35-.1.56-.86-.2-.29-.64-1.28-1.67-1.15-2.05,1.12,1.87.13-.37,1.19,1.13A7.34,7.34,0,0,1,276,397c0-.09.09,0,.19.13-.93-1.89-.83-.6-2-2.39.3.13,0-.61-.23-.88.48.73,0,.51-.57-.07a10.75,10.75,0,0,0-1.31-1.8l.4.72a6.48,6.48,0,0,1-1.25-1.49c.07-.15.57.67.43.35-.86-.71-1.08-2.19-2.08-3.31-.29-.64.24-.24,0-.79-1.12-1.26-.81-1.64-1.94-3,.08.56.18.6-.7-.3l1.74,2.31-1.32-1.35c.49.73,1.15,1.45,1.41,1.9-.65-.62-.56-.58-.49-.12-.36-1.2-1.49-1.86-2.05-3.14l.51-.29c-.93-1.87-2.3-2.9-3.67-5.22l.4.78c-.4-.17-1-1.36-1.52-2,.21,0,0-.53-.14-.91-.1.12-1.08-1.65-1.55-1.63l-.45-1.14c-1.12-1.87-1.85-1.75-2.95-3.53.52.41.11-.46,1,.62-.39-.58-.71-1.13-.83-1.06-.12-.41-1.29-1.46-1.5-2.1a2.11,2.11,0,0,1-.88-.82c0-.09.08-.05.08-.05s-.79-.94-.59-.25c-.69-2.13-3.39-5-4-6.81-.9-1.23-2-2.71-2.77-3.85.1,0,.08-.05.21.18-.92-1.69-1.13-.66-2.17-2.57-.36-1.1.78.86.5.22.37-.62-1.55-2.12-2.05-3.54l.23.27c-.45-1.05-1.73-2.12-2.73-3.65,0,0,.1,0,.09,0a33.78,33.78,0,0,1-3.47-4.12c.52.3.56.58.59.16-.48-.63-.22.42-1.16-.83-.18-.5-.72-1.51-.58-1.79l.85,1.22c-.13-.83-1.09-1.58-1.48-2.26h.18c-1.32-1.85-1.67-1.65-3-3.67l0,.28c-1.08-.88-.46-1-1.45-2l.09-.56c-.58-.67-2.07-2.31-3-3.57a34.18,34.18,0,0,1,2.72,2.84,17.37,17.37,0,0,0-2.14-2.68,4.38,4.38,0,0,1,.72.9,15.89,15.89,0,0,1-2.79-3.2c.81-.19-2.46-3.81-2.7-5.18-2-2.35-3.41-5.06-5.56-7.94.26,1.38-.63-.83-1-.3a4.6,4.6,0,0,1-.71-1l-1.19-2.26c-.21-.59.58.56.64.42-1-1.51-.24-.78-.81-1.85,0,.33-.63-.33-1.17-1.23l.63,1.36c-1.76-1.88-.87-2.1-2.67-4l.64.54c-.87-1-2.89-3.92-4.06-4.67-.08-.23-.13-.58.25-.14-1.81-2.59-4.6-5.33-5.86-7.46l.27.1c-.39-.44-.85-.65-1.17-1.33.07,0,.26.1.1-.12a11.05,11.05,0,0,1-1.56-1.76l.54.43c-1.71-2.57-3.17-3.53-4.85-5.49.35-.27-1-2.27-1.72-3.26h.08c-2.18-2.85-4-4.6-6.26-7.06-.92-1.9-4.23-5.56-6.11-8.31.26.44-.31.15-.73-.27-.43-.65-1.61-1.46-1.22-1.62l.17.22c-.07-.7-1.18-1.86-2-2.83l-.54.18a23.09,23.09,0,0,0-3.49-4.54c-1.31-1.45-2.56-2.71-2.88-3.61-.61-.51-1.25-1.25-1.86-1.75l.24-.16c-1.38-1.69-2.07-2.54-3.89-4.54l.52.29c-1-1.17-1.89-.9-2.84-1.94l0-.59c-1.79-2-3.31-4.22-5.36-5.91.08,0,.22,0,.52.28-.82-.95-3-3.78-3.17-3,.26-.28-1.85-2-3-3l.35,0a8.62,8.62,0,0,1-2.41-1.77c-.25-.31-.08-.41.23,0-.81-1.07-.9-.58-1.9-1.86l.54.32a4.31,4.31,0,0,0-1.59-1.28,6.32,6.32,0,0,1-1.72-2.24,3.12,3.12,0,0,1-1.43-1c0-.15.24,0,.37.11-1.48-1.78-2.63-2.21-3.54-3.53.05-.09,0-.2-.07-.31,1.28,1.31,2.3,2.37,2.19,2.28.18-.18-.82-1.26.25-.67a21.77,21.77,0,0,1-3.6-3,.8.8,0,0,1-.07-.2l.12.09a3.78,3.78,0,0,0-.66-.62c-.29-.36-.48-.59-.78-.91,0-.27-1.12-1.27-1.64-1.79-.16.25-.81-.46-.33.34-.07-.1.12.07.48.4.08.07.18.16.24.2l0,0c.35.33.81.77,1.31,1.28a4.7,4.7,0,0,1-1.5-1.34c-.39-.13-.82-.29-1-.39-.44-1-1.68-2.48-1.71-2.84-1.72-1.46-3.86-3.62-5.24-4.22a1.34,1.34,0,0,1-.53-.85,9.51,9.51,0,0,0,.8.62c-1-.81-2.79-2.55-3.26-2.5-1.06-1.21.9.37-.76-1.09l.29.12c-2.8-3.37-5.77-4.15-8.87-7.91.22.26.33.39.34.48-3.91-3.87-8.63-7.32-12.48-11.16A6.51,6.51,0,0,0,104,187l-.06-.45-1.46-.77c-1.91-1.26-2.53-3.13-5.1-4.54l.16.39c-.79-.67-2.64-1.95-2.36-2a1,1,0,0,1-.65-.39l.08-.14-2.16-1.37c-1.48-1.32.63-.3-1.61-2.12-.87-.62-2.66-1.54-2.41-1.21s.8.77.73.91l-.82-.54c-.42.26-1.3.16.37,1.91l1.48.82.28.51-1.1-.86a3.34,3.34,0,0,0,1.52,1.08,1.32,1.32,0,0,0,.39.63l1.56.68c0,.26-.8-.18,0,.58.73.32-.32-.77.76-.09.49.67.2.66,1,1.1,0,.17-.18.11-.5-.08a14.79,14.79,0,0,0,2.25,1.4c.49.73,2.25,1.71,1.9,2a10.08,10.08,0,0,1,2,1.16c-1.41-.5,2.17,1.87,1.53,2.06,1.1.31,3,2.25,4.57,3.23a1.14,1.14,0,0,1-.41-.23,13,13,0,0,1,1.35,1.49c.35-.21,1.66.74,2.46,1.15.7,1.12-.88-.17-.82.37.16-.28,1.85,1.22,1.71.74.57.81.55.63.71,1.21.45-.26.73.53,1.53.84.89,1.11,0,.58,1.22,1.49C114.49,198.57,113.35,197.79,113.35,197.79Zm27.21,24.5h0l-.54-.53Zm2.16,2.2c-.26-.27-.58-.61-.93-1,0-.15.15-.14.36.09C142,223.54,142.46,224.1,142.72,224.49Zm-3.19-6c.38.31.45.48.46.56l-.63-.58h-.07A.42.42,0,0,1,139.53,218.46Z"/><path class="cls-1" d="M138.64,218.11l-.16-.12c.06.08.11.16.16.24l.19.06Z"/><path class="cls-1" d="M305.67,441.77l0-.06a.43.43,0,0,1,0,.14C305.67,441.8,305.68,441.8,305.67,441.77Z"/><polygon class="cls-1" points="171.06 256.16 171.11 256.11 170.89 255.95 171.06 256.16"/><path class="cls-1" d="M314.79,456.13a.37.37,0,0,0,.07.22A.78.78,0,0,0,314.79,456.13Z"/><path class="cls-1" d="M319.06,462.1l.54.89C319.38,462.59,319.2,462.32,319.06,462.1Z"/><path class="cls-1" d="M322.32,466.7a.38.38,0,0,0,.17,0h-.17Z"/><path class="cls-1" d="M270.73,393.32a1.4,1.4,0,0,0-.13-.18C270.27,392.75,270.48,393,270.73,393.32Z"/><path class="cls-1" d="M286.19,415.08c-.2-.2-.4-.41-.59-.63C285.85,414.85,286.05,415.16,286.19,415.08Z"/><path class="cls-1" d="M253.88,368.74h0l-.1-.16Z"/><path class="cls-1" d="M284.9,413.42a6.35,6.35,0,0,0,.7,1A8.89,8.89,0,0,0,284.9,413.42Z"/><path class="cls-1" d="M337.11,486.19l.16.22a0,0,0,0,1,.05,0Z"/><path class="cls-1" d="M337.32,486.41l.22.22C337.45,486.52,337.38,486.43,337.32,486.41Z"/><path class="cls-1" d="M338,487.08l-.45-.45A1.38,1.38,0,0,0,338,487.08Z"/><path class="cls-1" d="M332.6,480.23h-.13A.12.12,0,0,0,332.6,480.23Z"/><path class="cls-1" d="M331.19,478.45a14.84,14.84,0,0,0,1.17,1.77h.11C332.13,480,331.64,478.75,331.19,478.45Z"/><path class="cls-1" d="M326.44,470.16l1.08,1.57c-.11-.33-.26-.77.29-.1C326.61,469.53,327.9,472.18,326.44,470.16Z"/><path class="cls-1" d="M323.05,465.35c.65.78.11-.11.2-.1C322.78,464.79,322.67,464.68,323.05,465.35Z"/><path class="cls-1" d="M298.22,430.75l.27-.06C298,430.07,298.41,430.74,298.22,430.75Z"/><polygon class="cls-1" points="292.52 424.8 292.82 425.52 293.22 425.69 292.52 424.8"/><polygon class="cls-1" points="291.29 419.8 291.52 420.07 290.7 419.03 291.29 419.8"/><path class="cls-1" d="M251.31,360.48l-.13.37C251.52,361.26,251.88,361.16,251.31,360.48Z"/><path class="cls-1" d="M233.64,335.13a3.16,3.16,0,0,0-.91-1.49C233.11,334.22,233.4,334.86,233.64,335.13Z"/><polygon class="cls-1" points="178.28 260.78 178.76 261.19 177.94 260.34 178.28 260.78"/><path class="cls-1" d="M371.59,218.86c.07-.21-.16-.25-.49.2v.51Z"/><path class="cls-1" d="M368.7,221.28c-.3.6-.57,1.35-.06,1.23.17-.7.38-.73.54-1.5.33-.44.71-.66.74-.51.06-.2.61-.61.65-1a4.75,4.75,0,0,0-1.72,1.93C368.66,221.56,368.72,221.36,368.7,221.28Z"/><path class="cls-1" d="M332.18,261l.27-.22A2.19,2.19,0,0,0,332.18,261Z"/><path class="cls-1" d="M308.87,284.92c.17-.19.22-.29.21-.32C308.93,284.78,308.81,284.94,308.87,284.92Z"/><path class="cls-1" d="M304.62,288.74l.25-.23A.71.71,0,0,0,304.62,288.74Z"/><path class="cls-1" d="M332.18,261l-.68.58C331.53,261.67,331.87,261.27,332.18,261Z"/><path class="cls-1" d="M364.46,227.45a2.16,2.16,0,0,0,.25-.43l-.27.37S364.45,227.43,364.46,227.45Z"/><path class="cls-1" d="M342,250l.18-.2a1.22,1.22,0,0,0,.06-.26Z"/><path class="cls-1" d="M349.64,241.66c-.18.18,0,.43,0,.59a1,1,0,0,1,.23-.54A.27.27,0,0,0,349.64,241.66Z"/><path class="cls-1" d="M361.93,228.61l.18-.27Z"/><path class="cls-1" d="M336.49,255.91a.26.26,0,0,0-.15,0S336.42,255.93,336.49,255.91Z"/><path class="cls-1" d="M133.46,496.83l-.05,0C133.4,496.88,133.41,496.9,133.46,496.83Z"/><path class="cls-1" d="M126,507.69l.07-.16a.31.31,0,0,0-.12-.11Z"/><path class="cls-1" d="M297,295.93l0,0C297.25,295.68,297.14,295.8,297,295.93Z"/><path class="cls-1" d="M230.27,364.79c.93-.62-1,1.52.35.51C230.44,365.33,231.32,363.91,230.27,364.79Z"/><path class="cls-1" d="M364.24,227.65l-.3.35A2.36,2.36,0,0,0,364.24,227.65Z"/><path class="cls-1" d="M230.62,365.3h0l.13-.11Z"/><path class="cls-1" d="M280.24,313.16a.62.62,0,0,0,.26-.09S280.41,313.07,280.24,313.16Z"/><path class="cls-1" d="M293.13,300.7l-.34.28A2.82,2.82,0,0,0,293.13,300.7Z"/><path class="cls-1" d="M274,320.06a2.41,2.41,0,0,0-.47.45l.09-.05A1.31,1.31,0,0,1,274,320.06Z"/><path class="cls-1" d="M267.18,327l.17-.09.2-.23Z"/><path class="cls-1" d="M148.39,471.54a1.33,1.33,0,0,1-.45.24C148.19,471.76,147.48,473,148.39,471.54Z"/><path class="cls-1" d="M364.34,227.35a.4.4,0,0,1-.1.3c.07-.09.14-.17.2-.26S364.4,227.31,364.34,227.35Z"/><path class="cls-1" d="M275.28,321.9,274.17,323C274.49,322.68,274.9,322.29,275.28,321.9Z"/><path class="cls-1" d="M189,415.37l-.2.29A1,1,0,0,0,189,415.37Z"/><path class="cls-1" d="M271,326.25a4,4,0,0,0-.75.48.51.51,0,0,0-.07.18Z"/><path class="cls-1" d="M147.93,471.78h0Z"/><path class="cls-1" d="M143.17,480.73c.76-1.25,0-.78,0-1.15.82-1.55.65-.55,1.12-1,.48-1,.62-1.89,1.06-2.57.09,0,.19-.14.16.06.37-1.13,1.82-2.9,2.23-4.23a.68.68,0,0,1,.17-.1.47.47,0,0,1-.54-.09c.35-.56.46-1.16.8-1.24a1.08,1.08,0,0,0-.2.62l.28-.64c.63-.33-.4.86-.18,1A26.31,26.31,0,0,1,150,468c.4,0-1.2,2.09-.21,1.09l-1,1.27c1.1-.73-.55.8.53.17,1.21-1.71,1.11-2.07,2.31-3.78.1-.5-.31,0-.22-.52,1.36-2.66,2-1.47,2.84-3.53a2.9,2.9,0,0,1,.95-2.18l0,.65c1.16-1.66.18-1.27,1.58-2.89-.09.4-.78,1.4-.57,1.17,1-1,.36-.93.94-1.81h.41c1.13-1.84,2.33-3.89,3.64-5.9,0,.17-.14.57.27.17a64.7,64.7,0,0,1,5.59-7.48l.42-1.06c.16-.21.39-.31.27-.05.76-.85-.11-.16.11-.67.37-.53.64-.59.47-.2a34.56,34.56,0,0,1,4.44-6.42l-.18.38c1.09-1.24.64-1.84,1.78-2.88l-.13.26c2.27-2.75,4.4-6.07,6.44-7.92,0-.67,2.34-2.65,2-3.19a30.11,30.11,0,0,0,3.14-3c.5-.58.42-1.13,1-1.9l.26.17.56-1.2.71-.29.5-.74c-.23.26-.58.5-.61.4a8.29,8.29,0,0,1,2.44-2.41l1.87-2.7c.05.13-.26.59-.47,1,.86-1.55.45,0,1.24-1.46-.19.12-.07-.21-.09-.28a20.79,20.79,0,0,0,2.61-3v.33c1.61-1.82,3.22-4,5-6.07-.7.69-.84.28-.35-.36l.45,0c.18-.53-.63.56-.13-.41.68-.76.72-.29.42.23l.72-1c.12,0,0,.26,0,.4.17-.52,1.65-1.4,1.86-2.19h.12c1.79-2.06,2.51-3.06,4-4.75-.19-.22.43-.84.69-1.49,1.13-1.18,2.51-2.38,3.8-3.86.81-1.13.09-.46.38-1,.26.09,1.54-1.39,1-.51,1.53-1.79,2-2.28,3.79-4.65-.29.17-.57.41-.51.21.33-.43.91-.84.95-.7l-.08.12c2-2.74,5.76-5.22,7.16-7.55L225,374l1.67-2.22c.9-.9-.37.69.38.11,1.72-2.48,3.26-3.42,4.72-5.41,1.84-.89,4.59-5,6.7-6.51h-.23c.33-.6.63-.51,1-.84-.14-.05-.61.41-.39.05,3.69-4.25,8.2-8.23,12.31-12.28,1.5-1.48.17-1.5,2.33-3.11l-.29.77c2.68-3.34,6.07-6.24,8.75-9.45-.12.23-.05.3-.34.59a7.26,7.26,0,0,0,2.16-2.46c.47-.45.23,0,.58-.2.72-.54,1.34-1.8,1.83-2,.09,0-.11.23-.21.36.31-.5,1.9-1.89,1.31-1.7,1.2-1,2-2.21,3-3,.35-.8,2-1.8,1.86-2.3.24.4,2.18-1.69,2.72-2.55-.13.33.71-.51.57-.1.79-.81,1.46-1.6,1.16-1.63,1.84-1.1,2.63-3.28,3.94-3.63,2.19-2.55,4.26-4.88,6.31-7.1.24.4-2.32,2.41-1.89,2.65a63,63,0,0,1,4.84-5.56c.56-.48-.15.44-.27.67,1.88-2.17,3.91-3.91,5.53-5.89a1.82,1.82,0,0,1-.29.47c.34-.37.86-.78.68-.89l-.31.39c-.77.36,1-1.86.91-2-.18,1,1.87-1.69,1.45-.2.21-.26.43-.63.28-.67.37-.32.54-.37.3.09,1.18-1.36.58-1.06,1.73-2.21.06.07-.14.33-.18.53a9.38,9.38,0,0,1,1.91-2.37c0,.1.15,0-.14.33,1.64-1.7,2.46-3.23,4.41-5-.23.85.72-.53,1.08-.36l.9-1.08-.52.28c.86-.87,1.42-1.84,2.24-2.5l-.52.76,1.54-1.69-1,.83c.72-1-.43-.24.78-1.33a13,13,0,0,1,1.46-1.17h0a6.64,6.64,0,0,1,1.38-1.63c.25-.08.17.42.33.37.19-.64,1.94-2.11,2.22-2.88-.12.24,0,.38.1.35l.17-.54c.45-.35.53-.38.58-.2,1.22-1.2-.71.05.84-1.26-.1.13,0,.1-.22.37,1.49-1.39,2.61-2.93,4-4.19.66-.13-1.06,1.24-.4,1,1.82-2,3.55-4.32,5.4-6.14l-.36.32c-.14-.63,1.52-1.22,2.25-2.35-.19.26-.08.51-.06.41a61.36,61.36,0,0,0,4.16-4.8l-.13.34c.81-.68,1.94-2,2.77-2.75.13-.34.59-.8.17-.64,3-2,4.28-5.14,6.85-7-.26.28-.52.74-.32.52l1.7-2c-.31,0-.33.16-.84.45a5.31,5.31,0,0,1,1-1.44c-.7,1,.27.24.72,0-.11,0,0-.17-.13-.18,1.23-.74-.19-.49,1.29-1.69l0,.16a15.45,15.45,0,0,1,1.3-1.68c.41,0-.42.63-.29.82.71-.8,1.06-1.89,1.91-2.43-.25.39-.69.87-.95,1.25a5.42,5.42,0,0,0,1.53-1.25l-.05,0,1.31-1.25-.37.29c.38-1.46,1.73-2.11,2.6-3.75-.85,1.59,0,.38.13.68.37-.28.91-.74.84-.53.39-.8,1.09-.93,1.63-2.06.11,0,.62-.67.67-.36.69-.88-.3.08-.33-.07.91-1.48,3-2.74,4.25-4.88,1.26-1.71,1.27-2.22,2.45-3.8.56-.39-.09.64-.09.64a10.72,10.72,0,0,0,1.91-2.15c-.07.21.12.09.4-.07.51-.63.09-.64.89-1.35a3,3,0,0,1-.23.86c.55-.78,1-1.61,1.61-2.42.29-.08-.2.62-.34,1a11.64,11.64,0,0,0,1.77-2.71l-.53.47c.25-.31.31,0,.15.25-.46.86-1,1-1.07,1l.41-.58c-.9.18-1.77,2.2-2.72,3.26l.07-.72-.68,1.32c-.29.16-.6.17-.19-.4-.82.63-.48.77-1.23,1.27-.09,0-.08,0,0-.07l-.56.82c.06-.2-.33-.07.12-.48-1.36,1.17-1.66,2.35-2.34,2.64l.08-.12c-1.53,1.94.07.38-.89,2l-1.38.43.06.39c-.17.18-.52.54-.55.39-.47.85.2,0,0,.51-1,.74-2.16,2.61-2.7,2.49-.13.48.91-.75.16.33-.64-.08-.95,1.18-1.88,1.85,0-.44.85-1.13-.08-.46-.11.81-1.53,1.55-2.1,2.31.24.27-1.26,1.62-2.23,2.88,0-.15-2.17,2-3.26,3l0-.08c.08.46-1,1.53-1.69,2.39-.14-.18-.07-.38.27-.89l-.71.77a3.26,3.26,0,0,1-.68,1.06l0-.38a30.88,30.88,0,0,1-3,3.45c.12.25,1.49-.55.33.94-.15,0-.37-.15-.08-.55a2.85,2.85,0,0,1-.57.69l.34-.7c-.63.52-.14.44-.6.9-.14-.15-.44.25-.49.08.1-.14.45-.36.56-.59a6.75,6.75,0,0,1-1.52,1.18c.12,0,.19.18-.16.59-.93,1-.49.18-1.12.7-.13.34-.84.88-.64,1.1a1,1,0,0,1-.59.32c-.4.61-2.27,2.46-1.49,2.09l.15-.12-.08.09h0c-1.38,1.92-3.48,3.42-5,5.2l-.07-.07c-.87,1.08-2.08,2.28-2.62,3.15-.28.29-.8.57-.76.36a9.8,9.8,0,0,1-1.86,2c.61-.89-.37.16.67-.87a9.45,9.45,0,0,0-2.19,2.3c.17-.54-.95.53-1.36,1l.81-.57c-.49.56-.95,1-1.42,1.46v-.49c-2.25,1.75-3,4.15-5,5.22-.35.7,1.19-1,.92-.32a29.49,29.49,0,0,1-2.51,1.83c-1.38,1.14-.82,1.53-2.21,2.77.25-.08.64,0-.25,1.05-.95.9-1.48.8-1,.14.21-.23.34-.31.36-.27.26-.33.61-.76.16-.48l0,.2c-.54.38-1.78,1.67-1.63,1.23-.6.78-.15.44.4,0-1.29,1.07-1.82,1.86-3.11,3,.24-.15.51-.23.32,0-1.87,1.69-.61.94-1.77,2.2-.81.56-.07-.55-1.16.78-.83.66-.39-.06-.16-.43a15.86,15.86,0,0,1-2.82,2.59l.51-.66a11.11,11.11,0,0,1-.87,1l.5-.17c-.37.31-.66.6-.73.53-.23.46.55,0,0,.86-.54.37-1.29,1.49-1.67,1.43,1.5-1.37-.38-.07.79-1.32a6.92,6.92,0,0,1-.86.86c-.08,0,0-.09.08-.2-1.57,1.18-.37.89-1.79,2.31.05-.3-.57.1-.77.36.57-.58.48-.07,0,.56-1,.82-.91,1.07-1.4,1.54l.59-.51c-.06.31-.53.76-1.12,1.44-.15-.05.51-.65.24-.47-.48.93-1.82,1.38-2.65,2.52-.54.38-.28-.19-.73.16-.94,1.27-1.37,1-2.39,2.33.51-.17.52-.27-.12.72l1.77-2-1,1.47c.58-.57,1.11-1.32,1.48-1.64-.44.72-.43.62,0,.48-1,.54-1.41,1.72-2.49,2.47l-.39-.45c-1.55,1.19-2.2,2.66-4.08,4.34l.64-.5c-.07.41-1.06,1.13-1.57,1.77-.09-.19-.5.12-.83.28.14.08-1.3,1.3-1.18,1.74l-1,.62c-1.51,1.37-1.23,2-2.65,3.38.26-.57-.47,0,.34-1.07-.46.46-.89.85-.8,1-.36.18-1.08,1.47-1.64,1.76a1.92,1.92,0,0,1-.57,1c-.09,0-.07-.07-.07-.07s-.71.91-.1.6c-1.85,1-3.91,4-5.51,4.91-1,1.06-2.11,2.32-3,3.26,0-.1-.07-.08.11-.24-1.37,1.15-.36,1.18-1.92,2.49-1,.52.63-.89.09-.51-.66-.26-1.65,1.81-2.87,2.52l.2-.27c-.89.59-1.6,2-2.83,3.18,0,0,0-.1-.06-.08a29.29,29.29,0,0,1-3.11,4c.17-.54.42-.63,0-.59-.48.56.45.14-.52,1.24-.43.25-1.26.92-1.55.83l1-1c-.75.26-1.24,1.29-1.79,1.77l0-.17c-1.44,1.55-1.18,1.85-2.78,3.47l.25-.09c-.58,1.17-.88.6-1.53,1.7h-.55c-.5.66-1.71,2.35-2.68,3.46a28.88,28.88,0,0,1,2.07-3,14.6,14.6,0,0,0-2.05,2.46,3.62,3.62,0,0,1,.68-.82,13.11,13.11,0,0,1-2.39,3.15c-.36-.74-3.06,2.93-4.3,3.38-1.76,2.29-4,4.06-6.26,6.53,1.24-.46-.65.73-.06,1a5,5,0,0,1-.79.84l-1.88,1.48c-.51.29.41-.64.26-.68-1.19,1.22-.68.35-1.56,1.07.31,0-.18.65-.9,1.3l1.14-.81c-1.39,2-1.78,1.16-3.18,3.14l.38-.68c-.77,1-3.09,3.35-3.54,4.58-.2.11-.51.21-.18-.22-2,2.13-4,5.2-5.79,6.7l0-.26c-.34.44-.43.9-1,1.31,0-.06,0-.26-.14-.08a9.57,9.57,0,0,1-1.33,1.76l.29-.58c-2.06,2-2.62,3.57-4.15,5.44-.33-.3-1.93,1.31-2.72,2.12l0-.07c-2.24,2.49-3.46,4.54-5.36,7-1.62,1.15-4.36,4.86-6.56,7.05.37-.31.21.28-.11.73-.53.5-1.06,1.73-1.29,1.38l.17-.19c-.66.16-1.52,1.39-2.27,2.28l.29.49c-2.53,1.87-4.84,6.36-6.42,7.22-.35.66-.92,1.37-1.27,2l-.2-.21c-1.32,1.56-2,2.34-3.48,4.36l.15-.53c-.89,1.1-.47,1.91-1.26,2.95l-.58.05c-1.52,2-3.32,3.75-4.5,5.93,0-.07-.08-.21.15-.54-.72.93-3,3.43-2.24,3.44-.33-.21-1.58,2-2.22,3.2l-.11-.33a7.58,7.58,0,0,1-1.17,2.54c-.25.28-.37.14,0-.22-.86.92-.36.94-1.38,2.07l.19-.56a3.81,3.81,0,0,0-.88,1.69c-.39.71-1.49,1.92-1.81,1.93a2.86,2.86,0,0,1-.72,1.49c-.13,0,0-.23,0-.36-1.38,1.64-1.56,2.8-2.63,3.85a.3.3,0,0,0-.28.1c1-1.39,1.78-2.5,1.73-2.39-.21-.14-1,1-.7-.15a18.91,18.91,0,0,1-2.09,3.84.59.59,0,0,1-.17.1l0-.13a4.38,4.38,0,0,0-.45.71c-.28.33-.46.54-.7.87-.26,0-1,1.23-1.4,1.79.26.11-.29.82.39.26-.08.08,0-.12.29-.5a2.71,2.71,0,0,0,.15-.26v0c.26-.37.59-.86,1-1.41a3.73,3.73,0,0,1-1,1.59c0,.4-.12.82-.17,1.05-.86.54-2,1.94-2.38,2-1,1.83-2.66,4.16-3,5.55-.27.53-.51.48-.7.62a6.48,6.48,0,0,0,.42-.84c-.54,1.06-1.93,2.95-1.75,3.4-1,1.18.16-.89-.89.88l.05-.3c-2.67,3.12-2.75,6.07-5.79,9.47.2-.24.3-.37.39-.39-1.47,2.11-2.77,4.41-4.08,6.7-.66,1.14-1.32,2.27-2,3.38s-1.36,2.2-2.1,3.23a5.74,5.74,0,0,0-1,2.31l-.42.12-.44,1.47c-.81,2-2.51,2.82-3.35,5.44l.35-.21c-.49.84-1.35,2.76-1.48,2.5a.86.86,0,0,1-.23.67L129,501l-.88,2.22c-1,1.57-.42-.55-1.72,1.81-.42.91-.94,2.72-.67,2.44s.58-.86.73-.82l-.36.85c.34.36.43,1.19,1.78-.63l.48-1.5.44-.34-.61,1.16a2.86,2.86,0,0,0,.73-1.58,1.2,1.2,0,0,0,.53-.46l.33-1.56c.25-.08,0,.78.57-.08.16-.73-.68.41-.24-.7.54-.55.59-.28.84-1.14.16-.05.14.15,0,.48a13.13,13.13,0,0,0,.89-2.32c.59-.56,1.19-2.34,1.55-2.06a8.81,8.81,0,0,1,.72-2c-.19,1.4,1.35-2.31,1.67-1.73.07-1.07,1.55-3.14,2.17-4.76a.87.87,0,0,1-.14.43,13.57,13.57,0,0,1,1.16-1.49c-.28-.31.42-1.64.63-2.45.94-.82,0,.85.53.71-.3-.11.79-1.92.35-1.71.67-.65.5-.61,1-.84-.34-.39.37-.76.5-1.56.88-1,.56-.05,1.18-1.36C143.68,479.55,143.17,480.73,143.17,480.73Zm18-29.08h0l-.39.59C160.83,452.11,160.94,451.94,161.14,451.65Zm1.64-2.36-.72,1c-.14,0-.16-.12,0-.35C162,450.12,162.47,449.59,162.78,449.29Zm-5.09,3.87c.23-.39.36-.49.45-.51-.12.19-.26.4-.43.68v.06A.43.43,0,0,1,157.69,453.16Z"/><path class="cls-1" d="M157.52,454.05a1.46,1.46,0,0,1-.09.16l.21-.19c0-.06,0-.12,0-.18Z"/><path class="cls-1" d="M332.49,260.71l0,0,.11-.07Z"/><polygon class="cls-1" points="187.11 417.93 187.06 417.89 186.95 418.13 187.11 417.93"/><path class="cls-1" d="M344,249.77a.49.49,0,0,0,.19-.1S344.11,249.71,344,249.77Z"/><path class="cls-1" d="M348.7,244.77l.73-.65C349.1,244.39,348.88,244.6,348.7,244.77Z"/><path class="cls-1" d="M352.34,241a.34.34,0,0,0,0-.16h0Z"/><path class="cls-1" d="M294.73,301.76l-.14.15C294.3,302.29,294.51,302,294.73,301.76Z"/><path class="cls-1" d="M311.72,283.52a7.25,7.25,0,0,1-.46.67C311.58,283.88,311.83,283.64,311.72,283.52Z"/><path class="cls-1" d="M275.4,321.78h0l-.12.12Z"/><path class="cls-1" d="M310.45,285a4.78,4.78,0,0,0,.81-.82A6.28,6.28,0,0,0,310.45,285Z"/><path class="cls-1" d="M367.54,223.9l.18-.18s0,0,0-.06Z"/><path class="cls-1" d="M367.7,223.66l.16-.23C367.78,223.53,367.7,223.61,367.7,223.66Z"/><path class="cls-1" d="M368.19,222.93l-.33.5C368,223.27,368.17,223.09,368.19,222.93Z"/><path class="cls-1" d="M362.88,229.1l0,.12A.13.13,0,0,0,362.88,229.1Z"/><path class="cls-1" d="M361.5,230.71a13.76,13.76,0,0,0,1.42-1.38v-.11C362.8,229.57,361.69,230.23,361.5,230.71Z"/><path class="cls-1" d="M354.7,236.5l1.24-1.27c-.28.16-.66.37-.15-.26C354.07,236.43,356.28,234.79,354.7,236.5Z"/><path class="cls-1" d="M350.9,240.47c.6-.74-.13-.09-.14-.17C350.43,240.81,350.35,240.94,350.9,240.47Z"/><path class="cls-1" d="M323.77,269.55l-.12-.25C323.17,269.86,323.72,269.37,323.77,269.55Z"/><polygon class="cls-1" points="319.45 275.94 320.06 275.53 320.13 275.12 319.45 275.94"/><polygon class="cls-1" points="315.02 277.9 315.21 277.64 314.43 278.59 315.02 277.9"/><path class="cls-1" d="M268.21,325.56l.38.07C268.9,325.23,268.72,324.91,268.21,325.56Z"/><path class="cls-1" d="M248.29,346.44a2.75,2.75,0,0,0-1.2,1.1C247.56,347.08,248.09,346.7,248.29,346.44Z"/><polygon class="cls-1" points="189.99 410.42 190.28 409.9 189.65 410.8 189.99 410.42"/><g id="title"><path class="cls-1" d="M240.6,120.64c0-.14-.18-.21-.36,0l.11.38Z"/><path class="cls-1" d="M238.77,121.8c-.12.37-.18.87.2.9,0-.48.16-.46.12-1,.18-.25.44-.33.5-.21,0-.14.37-.31.32-.57a1.54,1.54,0,0,0-1,1C238.79,122,238.8,121.86,238.77,121.8Z"/><path class="cls-1" d="M213.77,136.89l.19,0A.65.65,0,0,0,213.77,136.89Z"/><path class="cls-1" d="M195.69,137.7c.13,0,.2,0,.21,0S195.66,137.67,195.69,137.7Z"/><path class="cls-1" d="M192.72,136.8l.17.07C192.83,136.82,192.76,136.78,192.72,136.8Z"/><path class="cls-1" d="M213.77,136.89a4.18,4.18,0,0,1-.5,0C213.26,137,213.53,137,213.77,136.89Z"/><path class="cls-1" d="M236.52,125.36a1,1,0,0,0,.14-.24l-.17.2Z"/><path class="cls-1" d="M221.24,134l.14-.06.06-.16Z"/><path class="cls-1" d="M226.63,131c-.12.07,0,.33,0,.47a.47.47,0,0,1,.16-.33A.38.38,0,0,0,226.63,131Z"/><path class="cls-1" d="M234.71,125.5l.1-.15Z"/><path class="cls-1" d="M217.13,135.52a.2.2,0,0,0-.08-.08A.15.15,0,0,0,217.13,135.52Z"/><path class="cls-1" d="M229.3,46.25a.09.09,0,0,0,0,0S229.34,46.26,229.3,46.25Z"/><path class="cls-1" d="M236.06,49.3l-.1,0a.94.94,0,0,0-.06.15Z"/><path class="cls-1" d="M187.49,134.79h0C187.66,134.83,187.58,134.8,187.49,134.79Z"/><path class="cls-1" d="M164.46,93.24c-.32.56-.22-1-.59-.13C164,93,164.22,94,164.46,93.24Z"/><path class="cls-1" d="M236.37,125.45l-.18.18A.75.75,0,0,0,236.37,125.45Z"/><path class="cls-1" d="M163.87,93.11h0l0,.09A.25.25,0,0,1,163.87,93.11Z"/><path class="cls-1" d="M176.49,128.35a.28.28,0,0,0,0,.18S176.52,128.46,176.49,128.35Z"/><path class="cls-1" d="M184.25,134l-.2-.15A1.15,1.15,0,0,0,184.25,134Z"/><path class="cls-1" d="M172.73,125.05c-.08-.11-.07-.17-.21-.28a.13.13,0,0,0,0,.06A.48.48,0,0,1,172.73,125.05Z"/><path class="cls-1" d="M169.7,120.8a.4.4,0,0,0,0,.11l.1.14Z"/><path class="cls-1" d="M212.8,45.4a.87.87,0,0,1,.26.24C213,45.44,213.76,45.32,212.8,45.4Z"/><path class="cls-1" d="M236.41,125.25a.21.21,0,0,1,0,.2l.12-.13S236.45,125.24,236.41,125.25Z"/><path class="cls-1" d="M170.88,126.3l-.51-.72A7.61,7.61,0,0,0,170.88,126.3Z"/><path class="cls-1" d="M177.48,60.43l.12-.16A.3.3,0,0,0,177.48,60.43Z"/><path class="cls-1" d="M168.79,123.49a1.79,1.79,0,0,0-.12-.52.56.56,0,0,0-.12,0Z"/><path class="cls-1" d="M213.07,45.64h0Z"/><path class="cls-1" d="M218.76,44.85c-.83,0-.4.36-.58.57-1,.09-.45-.28-.79-.47a12.2,12.2,0,0,1-1.54.4c0-.06-.12-.09,0-.16-.64.28-1.93.13-2.66.54a.18.18,0,0,1-.1-.09.76.76,0,0,1,.15.5c-.37,0-.66.28-.82,0,.22,0,.24-.11.34-.19l-.38.13c-.37-.33.51-.16.5-.41a9.55,9.55,0,0,1-2.17.45c-.16-.33,1.33-.21.53-.46l.9.07c-.72-.49.55,0-.12-.53a22.72,22.72,0,0,0-2.48.32c-.24.23.12.26-.12.49-1.6.58-1.42-.65-2.57,0-.28.27-.33.71-1.23.62l.23-.43c-1.14.17-.53.68-1.75.68.18-.19.85-.32.67-.33-.82-.12-.49.34-1.06.47l-.2-.3c-.59.16-1.19.38-1.81.6l-.93.34c-.31.13-.62.26-.94.37,0-.11.23-.29-.09-.29a16.66,16.66,0,0,1-2.53.83l-1.3.31-1.24.36-.47.51c-.13.06-.3,0-.17-.13-.64.14,0,.19-.2.41s-.51,0-.33-.14a21.57,21.57,0,0,1-1.87,1.14,7,7,0,0,1-2,.93l.17-.18c-.88.32-.64,1-1.53,1.16l.12-.12a17.14,17.14,0,0,0-2.62,1.54,11.52,11.52,0,0,1-2.42,1.23c0,.52-1.7,1.06-1.44,1.61a9.57,9.57,0,0,0-2.3,1c-.34.27-.24.71-.59,1.12l-.21-.22-.32.73h-.53l-.32.4c.16-.12.41-.19.45-.1a2.93,2.93,0,0,1-1.68,1c-.39.48-.72,1-1.07,1.54-.07-.12.11-.38.22-.61-.44,1-.36-.09-.76.78.13,0,.09.18.13.23a6,6,0,0,0-1.59,1.6l-.06-.24c-.93,1-1.67,2.39-2.6,3.63.41-.39.63-.08.4.3l-.38,0c0,.34.38-.32.23.3-.36.45-.53.12-.43-.22a5.44,5.44,0,0,0-.28.66c-.1,0-.06-.19-.14-.29,0,.35-.9.87-.82,1.42l-.1,0a32.19,32.19,0,0,0-1.64,3.12c.24.15,0,.57,0,1A16.71,16.71,0,0,0,166,77.06c-.17.77.13.3.16.68-.27,0-.63,1-.6.4a18.53,18.53,0,0,0-.87,3.28c.16-.14.27-.32.32-.19-.06.3-.31.63-.42.55v-.09c-.19,1.89-1.85,4-1.63,5.63v1.5c-.17.7-.11-.46-.36,0,.15,1.73-.45,2.63-.31,4a4.14,4.14,0,0,0-.51,2.46,10.44,10.44,0,0,1-.18,2.78l.18-.08c.17.38-.11.45-.15.73.14,0,.16-.41.26-.17.22,3.16.06,6.57.56,9.85.21,1.19,1,.47,1,2l-.42-.34c.94,2.25,1.33,4.8,2.6,6.85-.12-.1-.22-.06-.3-.28-.05.57.75,1.7.93,1.63.13.34-.13.15-.12.4.08.53.85,1,.76,1.34,0,.05-.13-.09-.19-.17.25.24.7,1.37.79,1,.34.83,1,1.4,1.23,2.08.52.21.74,1.35,1.18,1.21-.42.23.67,1.47,1.18,1.78-.23-.06.19.47-.09.42.43.48.89.87,1,.64.36,1.28,1.95,1.41,1.92,2.39,1.59,1.12,3,2.15,4.51,3-.16.16-.56-.09-1-.33s-.72-.54-.84-.33a11.26,11.26,0,0,0,1.91.95,8.79,8.79,0,0,1,1.8,1.05c.32.28-.3,0-.46,0a10.46,10.46,0,0,1,1,.6l1,.53a13.13,13.13,0,0,0,2,.91s-.18,0-.33,0c.26.11.56.36.62.16l-.27-.08c-.27-.47,1.25,0,1.38-.21-.68.37,1.25.65.25,1.06.19,0,.45,0,.46-.12.24.14.3.25,0,.29,1,.26.73-.07,1.58.26,0,.1-.22.07-.35.14a3.44,3.44,0,0,1,1.7.3c-.06,0,0,.14-.22.08,1.3.32,2.32.1,3.67.66-.51.31.45.28.45.63l.8,0-.28-.23a10.71,10.71,0,0,1,1.88.18l-.52.06,1.27.15-.69-.26c.71-.08,0-.48.87-.23-.18,0,.67.15,1,.36h0a2.11,2.11,0,0,1,1.19-.06c.12.13-.14.4-.06.49.36-.29,1.61,0,2-.28-.14.07-.16.27-.11.31l.29-.23c.31.1.35.14.3.3.95.05-.29-.46.83-.28-.09,0,0,.06-.23.11,1.13.08,2.18-.21,3.22-.11.33.37-.91.11-.54.42.38,0,.76-.07,1.14-.12l1.15-.27a12.85,12.85,0,0,1,2.23-.38h-.27c.12-.57,1.11.18,1.79-.25-.17.07-.18.33-.14.27a19.91,19.91,0,0,0,3.4-1l-.15.17a11,11,0,0,0,2.14-.45c.14-.19.49-.27.22-.4a4.88,4.88,0,0,0,2.73-.69,5.22,5.22,0,0,1,2.47-.93c-.19.07-.41.29-.26.23l1.32-.67c-.2-.17-.24-.06-.59-.11a2,2,0,0,1,.78-.59c-.53.41.17.35.47.32-.07,0,0-.16-.07-.21.86,0-.09-.48,1-.71V134a5.14,5.14,0,0,1,1-.7c.28.16-.31.3-.23.51.52-.29.79-1,1.4-1-.19.18-.51.35-.7.53a1.94,1.94,0,0,0,1.11-.25h0c.33-.1.62-.26.94-.39l-.27.06c.28-1,1.22-.92,1.82-1.85-.59.89,0,.3.1.59.26-.06.64-.2.6-.07.26-.46.79-.26,1.14-.93.08.06.41-.31.46,0,.45-.45-.21,0-.24-.18.55-.85,2-1.06,2.82-2.26a3.61,3.61,0,0,0,.74-1.09,6,6,0,0,1,.66-1.08c.37-.13,0,.47,0,.47a3.41,3.41,0,0,0,1.17-1.09c0,.14.11.11.31.07.32-.32,0-.46.51-.76a1.6,1.6,0,0,1-.05.59,16.27,16.27,0,0,0,.87-1.39c.22,0,0,.42-.08.65.36-.52,1-1.31.88-1.64L238,123c.14-.18.24.06.17.22-.2.54-.57.51-.66.47l.21-.34c-.35,0-.58.26-.81.65a6,6,0,0,1-.8,1.06l-.05-.52-.35.8c-.2,0-.44,0-.2-.36-.55.24-.26.45-.77.61-.06,0-.06,0,0-.07l-.31.47c0-.14-.27-.16,0-.34-.88.48-.93,1.32-1.43,1.31l0-.07c-1,.93.09.31-.49,1.21l-1-.17.09.33c-.12.07-.35.22-.39.1-.28.48.15,0,0,.39-.7.19-1.39,1.25-1.79.94-.07.33.62-.23.13.32-.47-.32-.65.52-1.31.65,0-.32.58-.52-.07-.39-.06.58-1.06.56-1.44.91.16.3-.84.78-1.56,1.26a17.45,17.45,0,0,0-2.32.82v-.06c0,.39-.74.73-1.25,1-.07-.21,0-.32.24-.56a2.94,2.94,0,0,1-.51.23,1.17,1.17,0,0,1-.54.46l0-.3a9.83,9.83,0,0,1-2.25,1.06c0,.26,1,.37.08.93-.09-.12-.2-.33,0-.48a1.13,1.13,0,0,1-.44.24l.3-.38c-.45.07-.15.27-.49.39-.06-.19-.29,0-.29-.2s.31,0,.41-.17a1.8,1.8,0,0,1-1.08.07c.07.1.09.25-.18.36-.72.23-.33-.15-.78-.12-.13.19-.63.19-.56.48-.21.06-.29-.06-.39-.11-.34.23-1.73.56-1.23.74h.1l-.06,0h0c-1.16.63-2.64.4-3.86.81v-.1c-.72.3-1.66.32-2.17.6-.22,0-.55-.12-.47-.25a3.11,3.11,0,0,1-1.47.2c.56-.24-.21-.13.58-.2a3.24,3.24,0,0,0-1.72.2c.26-.26-.58-.31-.93-.22l.53.17a6.89,6.89,0,0,1-1.11,0l.19-.33c-1.52-.37-2.77.78-3.91,0-.42.2.82.22.45.47a8.69,8.69,0,0,1-1.62-.65c-.94-.26-.95.46-1.94.19.11.14.2.47-.57.46-.7-.17-.79-.64-.33-.66.17,0,.24.07.23.11.23,0,.53,0,.27-.18l-.1.1c-.33-.18-1.28-.33-1-.48-.54,0-.26.15.12.28-.85-.33-1.39-.23-2.27-.52.12.1.23.26.08.23-1.28-.5-.63.06-1.54-.13-.46-.32.3-.37-.64-.47-.52-.27,0-.33.21-.37a4,4,0,0,1-1.9-.74,3.12,3.12,0,0,0,.44.05,2.12,2.12,0,0,1-.67-.18l.16.31c-.23-.13-.44-.21-.4-.3-.3,0,.06.45-.51.45-.28-.24-1-.26-1-.6,1,.5,0-.34.87-.05a2,2,0,0,1-.6-.24c0-.05.06-.05.13,0-.86-.64-.58.16-1.58-.24.19-.11-.1-.4-.28-.43.41.15.07.37-.35.31-.56-.44-.71-.25-1-.43l.34.25c-.2.09-.5-.09-1-.27,0-.14.44.12.31,0-.62,0-.93-.85-1.7-1-.25-.27.14-.31-.09-.52-.82-.25-.63-.7-1.46-1,.08.34.15.32-.49.17l1.3.66-1-.22c.37.24.86.38,1.06.56-.48-.08-.41-.1-.33.18-.32-.64-1.12-.49-1.58-1.08l.35-.47a3.17,3.17,0,0,0-1.25-.79,5.21,5.21,0,0,1-1.42-1l.27.35c-.28.06-.69-.48-1.06-.71.16-.12,0-.36-.06-.58-.08.13-.72-.66-1.09-.46-.09-.19-.16-.41-.25-.61-.67-.86-1.3-.47-1.95-1.33.37.1.16-.36.74.07-.23-.27-.41-.53-.52-.44,0-.24-.85-.55-.9-.93-.16-.06-.35,0-.59-.29,0-.06.08-.06.08-.06s-.49-.41-.44,0a5.12,5.12,0,0,0-1-1.83,3.43,3.43,0,0,1-.88-1.74,16.37,16.37,0,0,1-1.31-2c.07,0,.09-.05.13.08-.29-.93-.79-.27-1.08-1.36.05-.65.41.46.37.09.52-.42-.67-1.16-.58-2l.1.15c0-.61-.76-1.18-1-2.07,0,0,.07,0,.1,0a7.45,7.45,0,0,1-1.34-2.44c.33.2.25.35.45.12-.15-.37-.38.23-.66-.53.07-.29,0-.88.3-1l.2.73c.25-.46-.25-.94-.29-1.34h.16c-.29-1.1-.68-1-.89-2.26l-.09.14c-.49-.6.12-.6-.27-1.22l.36-.26a15.55,15.55,0,0,1-.75-2.3,9.91,9.91,0,0,1,.84,1.89,4.66,4.66,0,0,0-.42-1.7,1.2,1.2,0,0,1,.14.57,3.86,3.86,0,0,1-.66-2.09c.76.1.06-2.33.66-3-.29-1.55.13-3.08.23-4.88-.64.6,0-.52-.59-.46,0-.43,0-.59.06-.63l.51-1.23c.21-.29.09.41.23.39.15-.91.29-.36.53-.94-.23.1-.26-.35-.11-.86l-.38.69c-.13-1.32.64-1,.56-2.35l.12.43c0-.33.11-.93.17-1.54a3.23,3.23,0,0,0,0-1.6c.09-.1.29-.21.27.08.42-1.52.37-3.57,1.05-4.66l.11.16c.05-.29-.11-.58.15-.88.05,0,.1.16.16,0a2.42,2.42,0,0,1,.22-1.17l.05.37c.71-1.38.46-2.37.89-3.62.41.18,1-.87,1.37-1.38l0,0a8.22,8.22,0,0,0,.53-1.14c.17-.36.32-.7.46-1,.27-.7.52-1.41.87-2.18a3.18,3.18,0,0,0,.72-.74c.28-.3.56-.66.86-1A20.3,20.3,0,0,1,175,66.77c-.21.15-.25-.26-.1-.51.33-.24.5-1,.76-.7l-.1.1c.5,0,.95-.62,1.38-1.08l-.32-.44a3.41,3.41,0,0,0,1.13-.82c.35-.36.72-.71,1-1.08.67-.72,1.26-1.4,1.82-1.44a10.51,10.51,0,0,1,.79-1l.17.23A20.59,20.59,0,0,0,184,58.2l-.1.33c.62-.44.27-1.27.86-1.68l.42.24c1.14-.73,2.46-1.13,3.38-2.17a.29.29,0,0,1-.13.32c.54-.31,2.28-.87,1.81-1.29.19.33,1.24-.6,1.81-1.09l0,.3A2.22,2.22,0,0,1,193.16,52c.21,0,.26.14,0,.18.68-.13.38-.45,1.2-.63l-.21.28c.65-.24.56-.31.84-.65s1.25-.45,1.43-.25a.89.89,0,0,1,.74-.57c.08.07,0,.17-.1.22,1.17-.17,1.55-.84,2.4-.82a.19.19,0,0,0,.18.11c-.88.28-1.6.5-1.54.46.08.24.8.05.36.57a5.88,5.88,0,0,1,2.07-1.19.67.67,0,0,1,.12.06l-.06,0a1.14,1.14,0,0,0,.42-.18l.6-.09c.14.19.86-.08,1.22-.16-.1-.26.39-.33-.11-.45.06,0-.06.05-.3.12l-.15.06,0,0-.9.23a1.18,1.18,0,0,1,1-.33c.14-.22.3-.45.39-.56.6.26,1.6.24,1.79.45a16.71,16.71,0,0,1,1.77-.56,3.5,3.5,0,0,0,1.45-.68c.31-.12.39.09.53.16-.18.08-.4.1-.49.19.62-.23,1.89-.33,2-.72.83,0-.42.4.69.18l-.14.13a6,6,0,0,0,2.91-.38,7.86,7.86,0,0,1,1.43-.33,3.4,3.4,0,0,1,1.67.16c-.17,0-.25-.07-.29-.14a27.83,27.83,0,0,0,4.29.1,16.82,16.82,0,0,1,4.21.56c.77.18.89-.07,1.38-.16l.13.33.86-.2c1.2-.05,1.85,1.08,3.39.86l-.15-.24c.52.1,1.66.27,1.53.47a.29.29,0,0,1,.39,0l0,.16,1.32.06c1,.37-.31.57,1.1,1,.54.08,1.63,0,1.46-.2s-.52-.24-.49-.39l.51,0c.22-.42.75-.77-.38-1.4l-.92,0-.21-.29.71.17c-.34-.31-.65-.2-1-.15a.61.61,0,0,0-.29-.33l-1,.21c0-.2.46-.25-.07-.49-.44.1.27.49-.4.45-.36-.31-.2-.44-.72-.39,0-.14.08-.18.28-.19-.45,0-1.13-.23-1.41,0-.38-.33-1.47-.19-1.34-.61a3.39,3.39,0,0,1-1.22.15c.81-.39-1.48-.29-1.2-.82-.6.34-2-.06-3,.12.06,0,.17-.1.26-.07a3.68,3.68,0,0,1-1-.37c-.11.39-1,.4-1.43.6-.63-.44.44-.42.26-.81,0,.32-1.18.21-1,.5-.49-.29-.43-.14-.67-.48-.12.49-.48.08-.92.37-.72-.25-.17-.46-1-.32C218,45,218.76,44.85,218.76,44.85Zm-18.92,3.31h0l.37-.14Zm-1.53.49.66-.2c.09.07.06.19-.1.23C198.94,48.59,198.56,48.66,198.31,48.65Zm3.75.91c-.23.09-.32,0-.37,0l.41-.13,0,0A.35.35,0,0,1,202.06,49.56Z"/><path class="cls-1" d="M202.4,49.1l.1-.05-.16,0-.07.1Z"/><path class="cls-1" d="M214,136.87h0l.07,0Z"/><polygon class="cls-1" points="178.72 59.1 178.77 59.15 178.83 59 178.72 59.1"/><path class="cls-1" d="M222.54,134.77a.28.28,0,0,0,.14,0Z"/><path class="cls-1" d="M226,133.07a4.56,4.56,0,0,0,.52-.18Z"/><path class="cls-1" d="M228.54,131.63a.46.46,0,0,0,0-.14h0Z"/><path class="cls-1" d="M183.6,135.78l-.11,0C183.23,135.66,183.4,135.73,183.6,135.78Z"/><path class="cls-1" d="M197.18,139a2,2,0,0,1-.46.09C197,139.15,197.15,139.16,197.18,139Z"/><path class="cls-1" d="M170.93,126.38h0l-.06-.08Z"/><path class="cls-1" d="M196.08,139a1.38,1.38,0,0,0,.64.11A2.39,2.39,0,0,0,196.08,139Z"/><path class="cls-1" d="M238.37,123.49l.1-.1a.05.05,0,0,1,0,0Z"/><path class="cls-1" d="M238.45,123.35l.08-.14C238.48,123.26,238.44,123.31,238.45,123.35Z"/><path class="cls-1" d="M238.7,122.91l-.17.3C238.61,123.12,238.71,123,238.7,122.91Z"/><path class="cls-1" d="M235.52,126.16l0,.11A.13.13,0,0,0,235.52,126.16Z"/><path class="cls-1" d="M234.67,127c.22-.18.67-.33.91-.65l0-.08C235.52,126.51,234.75,126.69,234.67,127Z"/><path class="cls-1" d="M230.08,129.09l.81-.53c-.2,0-.46,0-.13-.25C229.61,128.8,231.11,128.35,230.08,129.09Z"/><path class="cls-1" d="M227.5,130.64c.41-.32-.09-.13-.1-.2C227.18,130.7,227.12,130.77,227.5,130.64Z"/><path class="cls-1" d="M207.29,137.88l0-.26C206.92,137.7,207.32,137.72,207.29,137.88Z"/><polygon class="cls-1" points="203.2 139.49 203.6 139.64 203.79 139.4 203.2 139.49"/><polygon class="cls-1" points="200.74 137.69 200.91 137.67 200.25 137.71 200.74 137.69"/><path class="cls-1" d="M170.39,121.46l-.2.27C170.39,121.92,170.71,121.78,170.39,121.46Z"/><path class="cls-1" d="M164.55,107.13a.87.87,0,0,0,0-.89A6.8,6.8,0,0,0,164.55,107.13Z"/><polygon class="cls-1" points="177.42 63.84 177.29 64.14 177.62 63.64 177.42 63.84"/><path class="cls-1" d="M285.74,75.31a.15.15,0,0,0-.26.12l.32.17Z"/><path class="cls-1" d="M285,76.44c.13.24.38.52.7.42-.29-.25-.15-.28-.49-.56,0-.18.15-.3.26-.25-.07-.08.11-.27-.08-.4a.6.6,0,0,0-.17.84C285.11,76.54,285,76.47,285,76.44Z"/><path class="cls-1" d="M281.63,93.87l.06-.1A.17.17,0,0,0,281.63,93.87Z"/><path class="cls-1" d="M279.24,104.59c0-.08,0-.13,0-.14S279.21,104.6,279.24,104.59Z"/><path class="cls-1" d="M278.47,106.33l0-.1S278.45,106.3,278.47,106.33Z"/><path class="cls-1" d="M281.63,93.87l-.16.27C281.57,94.18,281.58,94,281.63,93.87Z"/><path class="cls-1" d="M285.42,79a.35.35,0,0,0-.06-.17.81.81,0,0,1,0,.16Z"/><path class="cls-1" d="M282.22,89.06V89l-.12-.09Z"/><path class="cls-1" d="M282.78,85.39c0,.08.25.16.37.21a.3.3,0,0,1-.16-.21A.73.73,0,0,0,282.78,85.39Z"/><path class="cls-1" d="M284.18,79.64l0-.11Z"/><path class="cls-1" d="M281.7,91.67h-.11A.21.21,0,0,0,281.7,91.67Z"/><path class="cls-1" d="M247.38,77.69h.05S247.37,77.66,247.38,77.69Z"/><path class="cls-1" d="M248.16,73.22l0,0h.16Z"/><path class="cls-1" d="M277.31,109.56h0C277.31,109.45,277.3,109.5,277.31,109.56Z"/><path class="cls-1" d="M263.7,128.6c0,.42-.59-.25-.51.33C263.25,128.83,263.81,129,263.7,128.6Z"/><path class="cls-1" d="M285.37,79.07a.77.77,0,0,1,0,.15A.28.28,0,0,0,285.37,79.07Z"/><path class="cls-1" d="M263.19,128.93h0v0Z"/><path class="cls-1" d="M275.34,117.16a.37.37,0,0,0,.14,0S275.41,117.12,275.34,117.16Z"/><path class="cls-1" d="M277.35,111.65l-.07.13A.33.33,0,0,0,277.35,111.65Z"/><path class="cls-1" d="M274.75,120.15c-.05.07-.09.08-.09.2l0,0A.15.15,0,0,1,274.75,120.15Z"/><path class="cls-1" d="M273.63,123.09a.15.15,0,0,0,.07,0l0-.1Z"/><path class="cls-1" d="M249,87.27a.66.66,0,0,1,.22-.19C249.05,87.16,248.9,86.71,249,87.27Z"/><path class="cls-1" d="M285.27,79a.15.15,0,0,1,.1.11V79S285.29,78.94,285.27,79Z"/><path class="cls-1" d="M276.8,121l-.22.47A3.45,3.45,0,0,0,276.8,121Z"/><path class="cls-1" d="M253.79,109.73l-.07-.1A.13.13,0,0,0,253.79,109.73Z"/><path class="cls-1" d="M276.08,122.94a.79.79,0,0,0-.29.2.14.14,0,0,0,0,.08Z"/><path class="cls-1" d="M249.24,87.08Z"/><path class="cls-1" d="M248,83.88c.07.48.39.17.62.24.2.55-.23.31-.38.53.15.34.53.56.56.83-.06,0-.07.08-.16,0,.35.33.21,1.12.64,1.5a.27.27,0,0,1-.08.07,1,1,0,0,1,.49-.15c0,.21.3.35.08.47,0-.13-.12-.12-.2-.17l.14.2c-.31.26-.17-.28-.42-.24.18.42.55.88.51,1.23-.32.13-.25-.76-.47-.26l0-.54c-.46.48,0-.32-.52.14,0,.7.3.73.32,1.43.22.12.27-.1.48,0,.51.9-.7.91-.13,1.54.26.14.69.14.56.68l-.41-.1c.08.67.61.28.49,1-.17-.09-.23-.49-.25-.38-.22.5.27.27.34.62l-.33.13c.19.69.57,1.42.79,2.18-.11,0-.24-.14-.31.07a8.9,8.9,0,0,1,.37,3.08l.36.3c0,.08-.1.18-.17.1,0,.39.19,0,.34.13s-.11.31-.23.2a4.11,4.11,0,0,1,.76,2.48l-.11-.12c0,.56.71.47.55,1l-.07-.08c.14,1.18.69,2.38.47,3.36.45.07.09,1.18.68,1.11a4.14,4.14,0,0,0-.23,1.53c0,.26.45.28.59.57l-.3.08.42.33-.3.32.15.26c0-.12.07-.28.16-.28a1.15,1.15,0,0,1-.06,1.19l.53,1c-.12,0-.21-.16-.33-.27.46.47-.28.18.14.62.05-.09.19,0,.25,0a2.1,2.1,0,0,0,.26,1.3l-.23,0c.16.79.58,1.6.84,2.47a.25.25,0,0,1,.48-.13l-.28.2c.25.1,0-.3.38,0,.06.33-.29.33-.45.17l.23.36c-.08,0-.16,0-.29,0,.25.1-.09.78.32.91l-.08,0c.27.87.52,1.22.78,1.92.27-.08.3.21.59.35a7.74,7.74,0,0,0,.35,1.79c.3.38.27,0,.5.18-.22.12,0,.72-.26.47a8,8,0,0,0,1,1.76c.05-.14.05-.27.15-.24s.07.42-.06.44l0,0c.78.87.42,2.69,1.33,3.26l-.05,0c.22.24.47.47.71.69.18.4-.3-.13-.28.23a3,3,0,0,1,.83,1,2.29,2.29,0,0,0,.72.94,1,1,0,0,0,.16.73,3.87,3.87,0,0,0,.61.7,7.25,7.25,0,0,1,1.36,1.35l.06-.18c.31,0,.18.28.35.41,0-.13-.16-.29,0-.28l.8.37c.28.11.59.19.88.29a9.81,9.81,0,0,0,1,.16,5.54,5.54,0,0,0,1-.06,6.42,6.42,0,0,0,3.26-1.62c.6-.57-.37-.94.56-1.41l.1.42c.63-1.45,1.75-2.56,2.09-4,0,.11.12.16.06.28.35-.16.5-1,.32-1.08.11-.19.18,0,.33,0s0-.81.32-.86c0,0,0,.11,0,.17,0-.23.39-.83.06-.76.33-.44.27-1,.58-1.31-.19-.36.46-.78.09-1,.41.2.66-.73.57-1.12.09.15.23-.22.37,0,.11-.36.15-.72-.09-.73.74-.48,0-1.46.81-1.61.11-1.14.26-2.17.44-3.16.42.16-.27,1.07.19,1.16a7.72,7.72,0,0,1,.24-2.47c.13-.22.15.19.21.29.08-1,.53-1.76.51-2.64,0,0,.06.11.07.21,0-.17.16-.36,0-.4v.18c-.35.17-.43-.8-.58-.87.5.42.35-.76,1-.15,0-.11-.07-.27-.21-.28.08-.14.17-.17.28,0,0-.6-.22-.45-.09-1,.1,0,.11.14.21.22a1.2,1.2,0,0,1-.05-1c.05,0,.14,0,.1.14.16-.77-.18-1.42.19-2.2.37.34.21-.26.58-.21V106l-.22.14c.1-.39-.09-.8.11-1.11l.08.33.1-.75-.23.38c-.1-.44-.47-.06-.25-.56,0,.11.09-.39.35-.55h0a.8.8,0,0,1,0-.71c.14-.05.39.14.48.11-.26-.26.12-.94-.15-1.25a.33.33,0,0,0,.29.12l-.21-.21c.12-.17.16-.19.31-.12.16-.54-.5.07-.17-.54,0,.06.06,0,.07.16.24-.63.11-1.3.35-1.88.41-.1,0,.55.34.41a17.15,17.15,0,0,1,.17-2.71l-.07.15c-.49-.22.38-.58.22-1,0,.11.26.19.21.15a6.82,6.82,0,0,0,.1-2.11l.11.14a8.46,8.46,0,0,0,.37-1.24c-.11-.14-.05-.34-.27-.25,1-1,0-2.24.79-3.13,0,.12.07.31.09.21l0-.88c-.24,0-.16.09-.37.24a.85.85,0,0,1-.14-.6c.09.41.37.06.52-.09-.07,0-.14,0-.21,0,.48-.38-.45-.15-.07-.72l.11,0c0-.23-.14-.47-.06-.71.28-.06.08.26.29.31.05-.35-.38-.76-.07-1,.05.15,0,.37.07.53.36-.29.29-.35.38-.59v0l.24-.56-.11.13c-.62-.55,0-.9-.34-1.56.34.64.23.13.52.22.11-.13.24-.35.31-.27-.19-.31.27-.43,0-.88.1,0,.05-.29.29-.19,0-.37-.19.06-.3,0-.24-.61.6-1.25.27-2.11-.08-.72-.39-.9-.45-1.56.18-.19.32.23.32.23a1.17,1.17,0,0,0,.14-.94c.08.08.16,0,.28-.06,0-.27-.32-.23-.13-.56a1.47,1.47,0,0,1,.35.32c0-.32-.18-.65-.22-1,.18-.06.23.23.32.36,0-.37,0-1-.27-1.11l-.13.22c0-.13.24,0,.27.07.17.34-.15.43-.25.44l0-.24c-.6.16,0,.93-.14,1.39l-.38-.25.27.52c-.12.08-.36.12-.39-.12-.25.3.1.32-.17.57,0,0-.05,0-.06,0l.07.34c-.08-.07-.3,0-.21-.17-.32.54.17,1-.17,1.14l0,0c0,.82.29.13.55.78l-.81.29.29.13c0,.08-.07.24-.18.19.15.34.14,0,.3.18-.33.35,0,1.11-.53,1.13.2.18.23-.36.32.09-.53,0,0,.51-.28.83-.25-.15-.05-.47-.35-.15.42.3-.21.7-.17,1,.35.07,0,.69.07,1.22-.11,0-.36.93-.57,1.39l-.06,0c.35.16.2.64.21,1a.4.4,0,0,1-.35-.34l-.06.33a.52.52,0,0,1,.15.44l-.25-.13c-.07.45.16,1-.13,1.5.25.08.79-.33.85.31-.14,0-.38,0-.41-.19,0,.06.08.21,0,.3l-.19-.28c-.15.24.17.17.11.37-.19,0-.17.14-.32.08s.12-.17.05-.27a1,1,0,0,1-.4.57c.11,0,.26,0,.25.22-.06.45-.26.11-.41.36.12.13-.07.39.22.45,0,.13-.17.13-.26.17.09.25-.16,1.08.2.88l0-.06v0h0c.15.82-.46,1.55-.48,2.32l-.09,0a5.27,5.27,0,0,0,0,1.38c0,.13-.24.27-.34.19a1.18,1.18,0,0,1-.15.88c-.1-.37-.18.09-.06-.37-.17.42-.35.49-.18,1-.21-.21-.38.27-.35.5l.24-.27a2.28,2.28,0,0,1-.14.65l-.3-.18c-.58.82.33,1.78-.48,2.33.17.28.26-.46.48-.19-.13.41-.69.74-.72.87-.31.53.36.64.1,1.21.13,0,.46-.06.47.41s-.6.41-.64.12c0-.1.06-.14.1-.13,0-.14,0-.33-.18-.19l.1.08c-.16.18-.28.75-.44.58,0,.33.16.17.27,0-.29.5-.19.84-.44,1.36.09-.07.24-.12.22,0-.33.77.14.41.06,1-.25.26-.39-.21-.38.37-.2.3-.32,0-.38-.16.1.55-.38.89-.49,1.17l0-.29a1,1,0,0,1-.05.43l.27-.09c-.08.14-.11.27-.21.24.12.2.42,0,.55.34-.17.18,0,.66-.36.65.27-.61-.32,0-.24-.56a.69.69,0,0,1-.1.39s-.06,0-.06-.09c-.43.55.27.37.1,1-.15-.13-.37.06-.36.17.07-.25.32,0,.39.23-.24.37,0,.47-.09.68l.13-.23c.15.13.07.33,0,.63-.14,0,0-.29-.11-.2.22.4-.51.63-.42,1.12-.17.17-.33-.07-.46.09.09.55-.38.46-.34,1,.27-.08.22-.12.34.3l.08-.89.18.64c.07-.26,0-.58.09-.73.11.32.06.27.29.2-.45.26,0,.76-.35,1.1l-.56-.18c-.43.53,0,1.16-.41,1.91l.18-.23c.19.18-.12.5-.11.78-.18-.08-.3.06-.45.13.14,0-.2.56.16.76l-.36.26c-.32.59.29.9,0,1.48-.14-.25-.37,0-.37-.47-.07.2-.17.36,0,.41-.16.08.06.65-.19.77.05.11.24.21.14.43a.11.11,0,0,1-.09,0c.09,0,0,.4.27.28-.79.4-.61,1.73-1.32,2.06a10.16,10.16,0,0,1-.43,1.38s-.09,0,0-.11c-.4.45.37.56-.09,1.08-.44.16,0-.39-.21-.25-.62-.2-.26.75-.8,1l0-.11c-.35.19-.16.83-.48,1.28a.11.11,0,0,0-.08,0,2.93,2.93,0,0,1-.4,1.64c-.12-.28,0-.27-.25-.34-.1.21.39.18.18.61-.21,0-.51.24-.75.1l.24-.35c-.42,0-.31.46-.51.59l-.11-.13c-.37.52-.09.8-.62,1.26l.13,0c0,.55-.37.05-.5.49l-.32-.26a2.32,2.32,0,0,1-.94.93c.18-.32.54-.66.69-1-.19.12-.62.35-.67.55.07,0,.13-.19.24-.16a1,1,0,0,1-1,.65c0-.39-.22-.45-.52-.53a3,3,0,0,1-.44-.21.54.54,0,0,1-.2-.41c-.8-.14-1.18-1-1.83-1.74-.23.65-.2-.21-.63.21-.18-.18-.23-.26-.21-.3-.05-.28-.11-.54-.14-.82s.24.12.34,0c-.25-.46.09-.33,0-.71-.14.18-.36,0-.45-.27v.5c-.69-.45.1-.81-.56-1.29l.29.11c-.31-.27-.67-1.25-1.29-1.37,0-.09.14-.25.25-.12-.34-.86-1.37-1.68-1.38-2.48h.17c-.11-.14-.38-.17-.33-.43.06,0,.17,0,.15-.07s-.42-.34-.43-.59l.23.12c-.17-.93-.9-1.18-1.27-1.88.41-.15.29-.88.24-1.26h.06a13.33,13.33,0,0,0-1.41-2.54c.26-.74-.44-2.09-.47-3.13,0,.17-.33.07-.43-.09s-.47-.55-.07-.62l0,.08c.33-.28.09-.72,0-1.08l-.53.08c.48-1.16-.95-2.45-.41-3.15-.19-.2-.26-.49-.45-.69l.28-.06a8.46,8.46,0,0,0-.4-1.77l.24.11c-.09-.45-.93-.38-1.05-.79l.38-.22c-.19-.79,0-1.67-.57-2.37a.23.23,0,0,1,.24.12c-.08-.37,0-1.5-.58-1.24.37-.09-.14-.83-.4-1.22h.29c-.43-.29-.53-.28-.73-.77,0-.12.2-.15.16,0,.06-.43-.32-.26-.28-.78l.21.15c-.06-.42-.15-.37-.4-.55s-.09-.8.15-.91a.46.46,0,0,1-.39-.46c.08-.06.16,0,.2.06.05-.73-.52-1-.35-1.49a.23.23,0,0,0,.15-.11,5.63,5.63,0,0,1,.14,1c.26,0,.21-.5.63-.21-.26-.32-.79-.85-.76-1.3a.19.19,0,0,1,.08-.07l0,0a.42.42,0,0,0-.1-.26,1.16,1.16,0,0,0,0-.37c.2-.09,0-.53,0-.75-.27.07-.28-.23-.46.08,0,0,.05,0,.08.18a.36.36,0,0,0,.05.09h0c0,.15.08.33.13.55-.18-.15-.33-.31-.22-.58a4.48,4.48,0,0,1-.51-.23c.33-.37.43-1,.65-1.12-.28-.65-.39-1.57-1-1.9-.11-.18.1-.25.17-.34.08.1.09.24.18.28-.21-.36-.26-1.13-.64-1.15.08-.52.39.21.21-.45l.12.08c.36-1.41-1.29-2-.78-3.56,0,.11-.05.16-.1.19.05-1.71-.86-3.37-.59-5.1,0-.48-.21-.49-.42-.75l.28-.15-.42-.44c-.35-.65.56-1.3,0-2.11l-.19.15c0-.32-.26-1,0-1,0,0-.22-.08-.13-.22l.15,0-.37-.73c0-.62.63,0,.54-.87-.1-.32-.58-.87-.67-.73s0,.35-.21.38l-.12-.29c-.47,0-1-.15-1.19.62l.35.47-.2.2-.08-.43c-.17.27,0,.4.19.56a.39.39,0,0,0-.22.25l.51.44c-.17.08-.39-.18-.44.17.23.21.37-.28.56.09-.18.27-.36.23-.14.49a.19.19,0,0,1-.26-.1c.17.23.15.66.41.76-.22.29.2.85-.24.89a1.45,1.45,0,0,1,.46.63c-.59-.35.09.88-.48.85.51.25.38,1.11.72,1.63,0,0-.12-.07-.11-.13a1.7,1.7,0,0,1-.17.65c.39,0,.55.46.83.69-.31.44-.49-.16-.83,0,.31-.06.42.63.66.45-.19.34-.07.28-.37.48.49,0,.13.26.46.46-.17.46-.43.18-.21.63C248.28,84.27,248,83.88,248,83.88Zm2.8,11h0a1.46,1.46,0,0,0-.06-.23A2,2,0,0,1,250.84,94.87Zm.19.94a3.92,3.92,0,0,0-.07-.41c.09-.05.19,0,.21.06S251.08,95.65,251,95.81Zm1.53-2.34c.06.14,0,.2,0,.23s-.05-.15-.09-.25h0A.37.37,0,0,1,252.56,93.47Z"/><path class="cls-1" d="M252.14,93.27l0,0a.3.3,0,0,0,0,.1l.09,0Z"/><path class="cls-1" d="M281.7,93.75v0a.08.08,0,0,1,0,0Z"/><polygon class="cls-1" points="253.39 108.74 253.46 108.72 253.37 108.66 253.39 108.74"/><path class="cls-1" d="M283.56,88.78a.14.14,0,0,0,.09,0A.21.21,0,0,0,283.56,88.78Z"/><path class="cls-1" d="M284,86.57l.15-.3A1.64,1.64,0,0,0,284,86.57Z"/><path class="cls-1" d="M284.42,84.88l-.12-.06h0Z"/><path class="cls-1" d="M279.2,112a.13.13,0,0,0,0,.06C279.21,112.25,279.21,112.14,279.2,112Z"/><path class="cls-1" d="M280.5,103.86a1.53,1.53,0,0,1,.07.29C280.63,104,280.66,103.9,280.5,103.86Z"/><polygon class="cls-1" points="276.82 120.97 276.82 120.97 276.8 121.02 276.82 120.97"/><path class="cls-1" d="M280.49,104.52a.52.52,0,0,0,.08-.37A.77.77,0,0,0,280.49,104.52Z"/><path class="cls-1" d="M285.67,77.45l0-.08h0Z"/><path class="cls-1" d="M285.65,77.36l0-.1S285.62,77.34,285.65,77.36Z"/><path class="cls-1" d="M285.58,77.06l.05.2C285.64,77.19,285.66,77.11,285.58,77.06Z"/><path class="cls-1" d="M285.21,79.71l.1,0A.19.19,0,0,0,285.21,79.71Z"/><path class="cls-1" d="M285.14,80.41c.05-.17.28-.39.25-.63l-.08,0C285.44,79.88,285,80.22,285.14,80.41Z"/><path class="cls-1" d="M283.45,83.09l.17-.56c-.12.08-.28.19-.27-.07C282.92,83.13,283.61,82.34,283.45,83.09Z"/><path class="cls-1" d="M283,84.85c0-.31-.15,0-.21,0C282.87,85,282.88,85.07,283,84.85Z"/><path class="cls-1" d="M280.71,97.71l-.25-.08C280.45,97.88,280.56,97.65,280.71,97.71Z"/><polygon class="cls-1" points="281.5 100.43 281.7 100.23 281.5 100.07 281.5 100.43"/><polygon class="cls-1" points="279.42 101.5 279.4 101.39 279.41 101.8 279.42 101.5"/><path class="cls-1" d="M273.61,122.48l.32,0C273.94,122.36,273.62,122.2,273.61,122.48Z"/><path class="cls-1" d="M269.31,130.44a.32.32,0,0,0-.43.23C269,130.58,269.26,130.53,269.31,130.44Z"/><polygon class="cls-1" points="256.47 110.53 256.63 110.68 256.45 110.36 256.47 110.53"/></g></g></g></g></svg>