<svg xmlns="http://www.w3.org/2000/svg" viewBox="0 0 1902.58 281.47"><defs><style>.cls-1{fill:#4d4d4d;}.cls-2{opacity:0.3;}</style></defs><g id="Layer_2" data-name="Layer 2"><g id="sketch"><g id="sky"><path class="cls-1" d="M56.88,236.63c1.53,1.55.77.59-3.08-4-1-1-1.93-2.11-2.88-3.19C52.79,231.89,54.8,234.29,56.88,236.63Z"/><path class="cls-1" d="M35.4,202.4c-3.37-6.21-6.94-13.56-5.33-9.26,3.27,6.22,3.9,7.8,7.75,14.3,2.89,5.28,5.1,9.18,4.47,8.37.6.89,1.76,2.92,3.11,5,.66,1.05,1.36,2.11,2,3.07s1.28,1.82,1.8,2.45c-4.3-6.56-9.39-15.07-14.23-24.22C34.05,200.09,35.11,202,35.4,202.4Z"/><path class="cls-1" d="M409.57,11.16h0Z"/><path class="cls-1" d="M773.42,8.29c-2.77,0-3.93.07-4.07.1C771.92,8.35,774,8.31,773.42,8.29Z"/><path class="cls-1" d="M835.54,8.11h-3.66C833.28,8.13,834.68,8.14,835.54,8.11Z"/><path class="cls-1" d="M409.57,11.16l9.73,0C420,11.08,414.31,11.15,409.57,11.16Z"/><path class="cls-1" d="M7.15,126.58c.48,2,.93,3.62,1.35,5.12-.43-1.62-.84-3.19-1.22-4.82C7.24,126.8,7.21,126.73,7.15,126.58Z"/><path class="cls-1" d="M249.18,12.5l-3,0-2.46.15Z"/><path class="cls-1" d="M126.08,13.06a26.74,26.74,0,0,0,4.82-.4c-1.57.12-3.63.18-6.07.21C124.79,12.92,125.15,13,126.08,13.06Z"/><path class="cls-1" d="M3.07,99.26c.16,1.14.37,2.28.55,3.42C3.48,101.79,3.22,100.29,3.07,99.26Z"/><path class="cls-1" d="M337.29,12a9.81,9.81,0,0,0,1.12.09A4.52,4.52,0,0,0,337.29,12Z"/><path class="cls-1" d="M190.7,267.22c.1,0,0,0,0-.05C190,267.29,189.76,267.34,190.7,267.22Z"/><path class="cls-1" d="M57.43,236.14l1.36,1.44c.18.12.37.24.41.2Z"/><path class="cls-1" d="M949.23,7.48h-.5C945.74,7.54,947.43,7.52,949.23,7.48Z"/><path class="cls-1" d="M1898.65,110.61c.73-5.84.36-1.07-.06,3-.23,2-.43,3.84-.42,4.07a41.15,41.15,0,0,0,.91-5.54c-.15.82.22-3.2.32-5.6.06-1.2,0-2,0-1.58S1899.09,107,1898.65,110.61Z"/><path class="cls-1" d="M6.46,123.46c-.36-1.63-.74-3.28-1.08-4.94C5.84,120.78,6.19,122.29,6.46,123.46Z"/><path class="cls-1" d="M1899.08,112.1h0l.24-1.82C1899.22,111,1899.17,111.46,1899.08,112.1Z"/><path class="cls-1" d="M1211.18,5.18c-.54,0-1.58-.08-2.67-.1C1208.6,5.1,1209.2,5.14,1211.18,5.18Z"/><path class="cls-1" d="M1016,6.35h0Z"/><path class="cls-1" d="M1312.5,4c2.63,0,3.52,0,7.1,0l-1.09,0C1317.21,4,1315.49,4.07,1312.5,4Z"/><path class="cls-1" d="M1418,3.35,1416,3.3l-3.35,0Z"/><path class="cls-1" d="M506.88,215.43c-2.31.16-3.74.22-4.87.26C503.65,215.72,488.27,217.48,506.88,215.43Z"/><path class="cls-1" d="M7.29,126.49a30.94,30.94,0,0,1-.83-3c.28,1.18.55,2.32.82,3.42C7.39,127.17,7.44,127.23,7.29,126.49Z"/><path class="cls-1" d="M1316.77,1.8l16.76-.07Z"/><path class="cls-1" d="M1260.71,230.5l-3.82-.42C1258.36,230.26,1259.71,230.42,1260.71,230.5Z"/><path class="cls-1" d="M1383.25,1.36c3,.07,6.17.11,9.44.13.69,0,1.49-.05,2-.09Z"/><path class="cls-1" d="M502,215.69h0Z"/><path class="cls-1" d="M392.79,231.31c15.76-2.54,7.35-1.54,10.66-2.29,18.8-3.05,8.75-1.08,15.18-1.88,11.75-1.88,20.73-3.48,29.52-4.69.66,0,2.37-.24.38.11,12.42-2,37-4.82,51.53-6.74,1.09-.09,1.64-.12,1.92-.13-2.38.08-2.76-.06-2.3-.25,7.11-.81,13.19-1.63,15.89-1.68-4.37.45-4.72.58-6.75.87l7.44-.89c6.75-.36-10.16,1.19-10.14,1.45,14.52-1.71,31.47-3.54,42.64-4.41,2.36.1-26.08,2.45-11.17,1.41-5.76.45-11.51,1-17.27,1.51,13.24-.75-10.48,1,1.69.37,22.7-2.08,25.38-2.58,48.06-4.23,5.1-.56-1.71-.15,3.39-.72,16.12-1.31,22.49-1.46,27.78-1.56,2.65-.06,5-.1,8.23-.24s7.22-.33,13.15-.74c6.14-.54,8.5-1.1,25.43-1.75l-5.75.68c22.08-1.13,12.58-1.13,35.69-2.33-4.1.41-17.33,1.22-14,1.06,15-.64,10.57-.89,22.07-1.61l2.41.19c11.74-.78,24.06-1.77,36.7-2.72s25.58-2,38.58-2.85c-1.44.2-5.88.59.2.3l12.48-.85,12.78-.67c4.29-.21,8.62-.46,13-.63l13-.37,13-.33,12.81,0,12.52,0c4.11,0,8.15.17,12.11.24l12.1-.08c2.81.05,5.21.23,2.16.23,12.34.33.65-.18,6.58-.19,7,.27,9.26.55,4.81.46,21.77.47,62,2.38,84.87,4.68l-4.47-.27c17.8,1.56,20.16.95,36.66,2.63l-3.17-.25,29.46,2.79,14.8,1.38,7.32.69,7.24.76c19.17,2,37.19,3.93,51.88,5.71,5.64.22,38.14,4.54,40.69,4.24l46.63,6.06c8.26,1,12.37,1.13,22.61,2.3l.21.34,13.93,1.36,7.34,1.26,9.61,1.09a75.74,75.74,0,0,1-7.52-1.14c7.5.84,16.64,2,23.94,2.94l9.14,1.25c2.3.32,3.71.54,3.8.6l17.75,2,17.78,1.82c-.81,0-6.76-.57-11.47-1,19,1.74,3.41.7,20.81,2.29-2.32-.32,1.28,0,1.68-.06,4.33.55,11.41,1.39,19.25,2.22l23.74,2.26-2.83-.06,20.29,2,21.14,1.76c7.17.57,14.43,1.24,21.76,1.75l22.15,1.56c-10.64-.86-8.17-1.05.54-.46l3.45.57c5.63.21-9.08-.77,2.47-.19,5.54.43,7.4.6,7.08.69a49.46,49.46,0,0,1-6-.14c4.49.32,9,.49,13.49.72.78.15-2.38,0-3.21.09,5.54.1,23.26,1.71,31.27,1.75l.76.13c29.71,1.35,43.2,1.65,67.43,2,.48-.28,10-.12,17.17-.28,4.45.1,9,.07,13.72.06l14.43,0c4.92,0,10-.17,15.11-.27s10.4-.25,15.76-.48c15.06-.91,4.39-.46,11.16-1,.56.09,6.19-.14,10.29-.3s6.68-.4,1.14.12c12.84-1,21.06-1.51,30.08-2.56s18.91-2,35-4.58l-4.78.65c-1.17.12-1.65.15-.64,0,5.84-1,13.3-2,12.49-1.77l-1.54.28c18-3.16,38.75-7.39,58-13.64l3.61-1.13,3.52-1.29,7-2.57c2.26-.92,4.47-1.9,6.66-2.84l3.26-1.4c1.06-.5,2.09-1,3.12-1.55,2.06-1,4.09-2,6-3.05l5.59-3.26c1.84-1,3.5-2.22,5.14-3.31s3.25-2.13,4.66-3.31l-1.29,1a104,104,0,0,0,21.87-21.06c.55-.68,1-1.25,1.38-1.73l.86-1.19.48-.65a1.82,1.82,0,0,1,.17-.21s-.14.23-.39.61l-.94,1.41c-1.53,2-3.35,4.46-.06.43a132.06,132.06,0,0,0,11.46-19.21,157.61,157.61,0,0,0,7.36-17.74,169.73,169.73,0,0,0,8.14-36.21,169.48,169.48,0,0,0,1.89-20.71,227.39,227.39,0,0,0-.81-27.52c-1.71-19.35-6.06-39.35-11.71-52.5l.5,1.58a70.14,70.14,0,0,0-3.64-7.09A21.93,21.93,0,0,0,1885,4.59a10.58,10.58,0,0,0-1.24-1.31,6.49,6.49,0,0,0-2-1.24,7.67,7.67,0,0,1,1.59,1,10.43,10.43,0,0,1,1.71,1.76,7.49,7.49,0,0,1,.75,1c0,.06-.21-.3-1-1.2a9,9,0,0,0-2.53-2.11,7,7,0,0,0-.88-.36,7.72,7.72,0,0,0-1-.17L1879,2l-5.78-.1-11.62-.2-23.46-.44L1826.3,1,1814.44.89,1790.61.66,1742.83.19,1695.35,0c-23-.06-13,.92-42,.47l8.22-.32c-23.19.19-46.9.31-70.49.35S1544,.57,1521.3.88c2.7-.09,2.78-.19,7.21-.21-4.8-.09-13.66-.05-21.35,0l-10,.16-3.1.09a9.62,9.62,0,0,0-1.19.08c-7.07,0-1.64-.17-6-.25-9.63-.09-24.15.44-29.26.22-.87,0,2.7-.09,4.46-.12-6.27.15-29.21.13-23.2.37-17.05-.05-32.6.29-46.2.23-8.86.37-29.17,0-32,.5,1.22-.46-29.87-.17-40.65.12,3.61-.16-9.37-.08-5.15-.3-12.29.09-23.56.25-21.42.47-22.66-.41-45.53.77-58.29.17L1132,3.75c1.19-.46,36.32-.32,34.91-.79-31.17.42-49.15,1-80.06,1.11-8,0,4.54-.23,7.25-.33-31.14.44-60.22.46-87.93.93,0,0,.81,0,1.92-.08l4-.09c-5.46.06-12.7,0-12.08.24l5.32-.1c8.73.22-21.68.8-22.65,1,9.26-.67-27.38.09-12.66-.78-3.59.07-8.1.2-7.28.33-5.33,0-7-.06-1.61-.26-19.56.28-12.61.44-30.34.59.07-.1,3.64-.17,5.47-.3-9,.27-18,.54-33,.58.9-.06-.84-.13,3.63-.16-25.72.25-43.84.89-72.06.95,8.32-.51-9.6-.06-11.1-.42l-15.17.24,6.09.13c-13.29.11-25,.49-36.46.46l9.88-.24L763.17,7l14.1,0c-13.45.31,1.44.46-16.25.51,3.59-.07-13.3.11-20.22,0h0c-6.57.18-13.34.36-23.17.36-2.55-.1,2.05-.43.39-.5-6.48.37-31.13.36-39.34.76,2.74-.1,2.88-.3,2-.33l-5.44.3c-6.16,0-7.06-.06-6.06-.22-18.52.11,5.88.42-16.1.4,1.73,0,.9-.06,4.5-.13-22.08.08-42.66.52-62.94.57-6-.32,17.72-.24,10.87-.5-29.25.32-60.57,1-88.87,1.11h5.27c-3.91.56-21.08-.09-35.39.27,3.51-.07,4.59-.33,3.65-.26-19.39.07-39.63.45-69,.85l3.64-.16-42.43.17c-3.66.17-10.72.19-6.43.36-38.05-.52-72.57,1-106.33.49,4,0,9.62-.17,6.41-.16l-28.76.29c2.28.22,3.77.12,9.82.27-3.64.15-11.76.3-18.88.34,12.93-.22-.12-.37-5.7-.46.93.06-1,.15-.51.22-15-.33-2.51.48-23,.32l1.08-.13c-7.67.1-14.74.32-23,.3-3.43-.25,8.17-.15,8.69-.38-11.62.07-22.93.58-33.46.35l17-.2c-11.46-.28-12.79-.2-21.3-.22h.84l-19.69-.08,5,.07c-14.55.72-29.63.26-49.22.68,19-.39,3.15-.25,4.6-.55-5-.09-12.61-.2-10.44-.28-9.26.22-15.46-.23-28.53.1-.59-.1-9.91,0-7.82-.28-12,0,2.85.18,1.83.3-4.64.07-9.68.08-15.06.05a37.28,37.28,0,0,0-16.89,3.18A32.32,32.32,0,0,0,8.86,27.49a50.85,50.85,0,0,0-4.19,8.92,73.36,73.36,0,0,0-2.59,9.68A96.58,96.58,0,0,0,.36,60.36C.17,64.35.15,67.72.24,71a223.14,223.14,0,0,0,2,23.62c.39,3.59.09,2.14-.27-.22-.17-1.17-.38-2.57-.51-3.68s-.23-1.93-.23-1.93a225.49,225.49,0,0,0,5,31c-.56-2.15-.15.1.47,3.39,1,4.29,1.44,5.71,2,7.46s1.07,3.85,2.56,9.46c-.65-1.88-1.5-4.31-2.65-8.4,2.63,10.05,5.77,19.83,9.35,30,.76,2.75-2.35-6-3.58-9.64,1.85,5.75,4.43,13.15,6.91,19.46s4.78,11.57,5.64,13.24c-1-2.4-2-4.79-2.87-7.2,1.64,4.08.62,2.19-.63-.81-4-9.55-5.11-14-5.24-14.6.87,2.4,1.74,4.8,2.65,7.18-1.11-3.78-3.73-11-6.36-19.2s-5.3-17.41-7-24.91c.62,2,1.25,4.1,1.92,6.13Q7.16,123.7,5.42,116a17.05,17.05,0,0,1-.4-3.12s.13.28.31,1.06.48,2,.87,3.89c-1-5.42-1.47-7.82-1.89-10s-.81-4.23-1.37-8.93c-.1-1,0-.58.13.38-.54-3.55-1-7.1-1.41-10.68.31,2.09.07-1.8.75,4.77C.41,74.16.58,62.24,1.72,55.06l-.15,1.6c.17-1.66.31-3.13.51-4.41s.32-2.39.5-3.35.31-1.75.42-2.43.26-1.22.35-1.66c.36-1.78.35-1.9.28-1.82s-.21.36,0-.6A46.36,46.36,0,0,1,6,34.46a40.7,40.7,0,0,1,7.53-11.15,24.45,24.45,0,0,1,1.55-2.12c.52-.46,1.12-1.07,1.8-1.63s1.41-1.1,2.05-1.55c1.34-.83,2.29-1.39,1.9-1.07A32.47,32.47,0,0,1,24.45,15c.37-.17,0-.05-.42.11s-1,.44-1.14.47,0,0,.21-.16a9.05,9.05,0,0,1,1.32-.64A36.12,36.12,0,0,1,35.5,12.42l3.1-.08h9.23c7.89,0,14.5.05,16,.29,4.79-.22-12.74-.2,1.49-.33,4.05.53,16.45-.05,28.62.21-3.74.26-15.27.1-3.09.36,3.67-.22,9.6-.16,15.89-.1s13,.15,18.09.09c.24-.18,5.82-.24,13.5-.27l26.07-.12c-1.09.13,32.43.12,48.46.14l-.47.06c3.1-.39,19.64-.41,31.68-.55-.48.22-2.64.32-9.16.45l11.32-.06c2.67-.13,6.2-.22,13.54-.3l-2.85.29c15.07-.1,30.34-.48,49.73-.43,1.09-.27-15.42-.6,5.07-.92.77.13,1.52.36-3.84.46,1.76,0,6.26-.16,9.8-.13l-8.18.29c8.83,0,4.61-.22,11.67-.25-.14.2,5.23.1,4.21.26-1.8,0-6.15,0-8.86.06,8,0,17.59,0,20.77.16-.7-.11,0-.27,5.82-.34,15.07-.12,5.16.2,13.95.24,3.65-.16,13.26-.09,13.51-.38,4.41,0,5.23.1,6.93.17,7.79-.19,36.42-.3,27.63-.55h-2l1.27,0h0c25.56-.48,53.09-.26,78.45-.58l0,.1c15.14-.24,33.69-.34,44.5-.64,4.48,0,10.57.09,8.65.23,11.57-.17,12.87-.29,29.59-.27-11.64.27,4,.11-11.92.22,15,0,18.44.09,34.58-.32-5.5.3,11.32.22,18.47.09l-10.54-.09,22.2-.19-3.86.37c30.77.14,55.48-1.16,78.91-.69,8.14-.3-16.71,0-9.44-.35,14.16-.08,28.91.27,33.34.23,19.39,0,18.08-.65,38.37-.7-2.6-.09-5-.39,10.11-.63,14.17-.08,17.41.34,8.47.52-3.39,0-5,0-4.89,0-4.57.08-10.58.19-5,.27l1.84-.14c7,.06,26.51-.12,21.94.11,10.7-.2,4.57-.23-3.36-.22,18.17,0,28.38-.25,47.08-.29-3,0-5.71-.16-2.75-.18,27.42-.09,12.07-.33,30.65-.55,10.56.09-3.78.47,14.93.16,11.42,0,2.42.29-2.12.43,17-.38,31.84-.13,41.58-.17l-9,.17c5.37-.1,9.77-.14,14.24-.18l-5.13-.19h6.84a21.05,21.05,0,0,1,2.8.07c5.43-.2-4.16-.36,6.62-.67,7,.06,21.39-.31,23.82,0-22.1.09,2.45.3-16.26.51,3.61-.07,8-.11,13.3-.11.79,0-.75.07-2.19.1,21.15.1,9.72-.44,31.63-.62-2.78.2,5.09.29,8.66.23-8.83.07-4.22-.26,3.88-.47,14.05,0,15.27-.23,22.63-.27h-8.4c2.84-.2,9.87-.23,19.67-.37.83.13-8.9.17-5.4.2,10.87-.4,24.58.12,39.74-.22,7,.06.68.33,6.86.36,17-.37,18.41.09,36.27-.25-5.15-.19-6-.13,6.53-.46L1081.93,6l18.85-.51c-8.87.07-18.71.31-24,.31,9-.27,8.06-.2,3.81-.36,12.14.25,24-.41,38.07-.29l-.42.6c21.08.08,37.45-.6,64.82-.66l-8.8,0c3.67-.26,16.9-.16,25.76-.32-.82.2,4.72.23,8.51.33-.46-.15,20-.14,22.51-.56l12.23.17c22.1-.06,25.21-.77,46.46-.84-6.4.26,3.26.34-11,.58l9.41-.06c2.49,0,4.12-.06,4.17-.12,4.15.09,19.67-.4,26.19-.26,3-.1,4-.32,11.93-.35.87,0,0,.09,0,.09l.53,0,1.32,0,3.53-.09c2.24-.07,3.61-.14.13-.22,21.85.47,61.07-.46,80.1-.05l48.18-.39a14.46,14.46,0,0,1-2.7.09c19.38.09,11.91-.63,34-.54,11.27.27-11.72.24-4.69.32,3.06.64,26.62-.22,41.47.08l-3.6.06c11.35.14,27.69-.34,46.23-.36,0,0-.9.06-.11.1,12.68-.37,36.68-.55,54.52-.69-5.55.27-8.11.15-4.72.4,8-.06-2.34-.41,13.62-.52,5.19.12,16.7.21,18.23.5l-15.06,0c7.72.32,19.49,0,27.42,0l-1,.15c23.07,0,23.39-.43,48.18-.38l-2.56-.12c13.55-.38,11.36.22,24.87-.06l4.09.4c8.94-.11,31.32-.2,47.36-.18-9.09.23-27.85.26-39.46.35,8.86.07,30.11.17,34.73,0-3.57,0-8.07.08-11.6,0q16.32-.36,42.84-.18c-3.13.57,46,.95,58.81,1.78l2.93,0,1.46,0h.91l.11,0,.22,0a4.5,4.5,0,0,1,2,1.27,13.82,13.82,0,0,1,1.73,2.1,49.12,49.12,0,0,1,5.08,10.27,143.63,143.63,0,0,1,6.29,22.77,237.71,237.71,0,0,1,4.21,50.6c.4-6.42.36-3.78.31.2s-.4,9.27,0,8.18c-.51,8.44-1,11.63-1.12,12.38a188.65,188.65,0,0,1-5.06,25.07c-.85,2.9-.38,1,.26-1.63a55.34,55.34,0,0,0,1.15-5.48,95.5,95.5,0,0,1-3.18,11.88c-.2.54-.36.89-.69,1.83-.16.48-.37,1.1-.67,2l-1.19,3.38c1-2.31-1.56,6.26-6.19,15.68a143.84,143.84,0,0,0,6-13.51,118.14,118.14,0,0,1-5.63,13.62c-1.61,3.33-3,5.74-4.42,8.15-.73,1.19-1.47,2.37-2.26,3.66l-2.76,4.16-1.72,2.41-.94,1.34c-.34.45-.71.9-1.08,1.38l-2.41,3.08-3,3.39,2.64-3.1c.86-1.06,1.65-2.17,2.47-3.24-1,1.29-2.2,2.91-3.75,4.57l-2.37,2.67-2.77,2.75c-1.86,2-4.13,3.75-6.33,5.72-1.12,1-2.36,1.83-3.55,2.76s-2.38,1.9-3.66,2.73l-3.8,2.54-1.88,1.25c-.63.41-1.29.77-1.92,1.15l-3.77,2.22-1.82,1.07c-.6.35-1.22.64-1.82,1l-6.63,3.46-5.32,2.51c-2.19.88-5.11,2,.25-.42a289.54,289.54,0,0,1-48.08,15.56l-6.12,1.48-6,1.22-5.92,1.19c-1.94.38-3.86.79-5.76,1.07-7.58,1.2-14.58,2.47-20.78,3.1l2.39-.46-8.28,1.21-4.36.61c-1.54.22-3.21.41-5.08.54.38-.1,2.38-.39-.37-.12l-10,1.16-7,.77c-2.34.19-4.61.35-6.59.48l6.73-.68c-7.79.55-14.67,1.06-21,1.57l-17.85,1.11c-2.84.16-5.63.4-8.44.5l-8.48.36-8.82.35c-3,.11-6.15.26-9.43.27a20.93,20.93,0,0,0-4-.24c-2.48-.05-5.94-.08-9.77-.1s-8.06,0-12.09,0l-10.94-.18.43-.05c-9.09-.11-17.51-.12-25.53-.37l-23.23-.49-22.72-.79c-3.84-.15-7.74-.23-11.73-.45l-12.27-.64c-20.89-1.39-70.72-5-104.19-8.36,5.11.58-.86.27-6.82-.27-7.85-.85-21.75-1.8-20.46-2.08l2.8.28c-2.94-.51-8.46-1.05-14.8-1.78l-19.82-2.16-2.13.3c-16.44-2.07-38-4.65-57.69-6.9s-37.52-4.37-46.46-5.79l-25.68-2.85.46-.23c-11-1.39-19.24-2.35-28.15-3.37l-32.06-3.62,5.57.43c-7.68-.88-12.55-1.23-17.27-1.56s-9.29-.64-16.38-1.36l-4.22-.87-40.33-4.36c-6.71-.76-13.44-1.34-20.14-2s-13.37-1.18-20-1.7a39.25,39.25,0,0,1,5.59.31l-12.9-1.24c-5.1-.49-10.67-1.05-15.71-1.42-10.08-.79-18-1.34-15.74-.87a35.42,35.42,0,0,0-4.68-.54c-2.84-.24-6.75-.54-11.11-.85l-6.79-.48-7-.38-12.71-.64,2.28-.14-13.1-.43c-3.77-.13-8.15-.45-16.73-.7-4.06-.21-3.55-.37,1.84-.08-13.53-.7-10.56-.17-27-1l6.13.07-8-.32c-2,0-3.39,0-4.6,0l-7.92.09c-4.38,0-11-.16-16.77-.32s-10.71-.12-11.74-.26c-1.88.17-9.51.43-17.74.41-1.11-.08,1.89-.16,3.39-.2h-4.24l-4,.11-7.28.23-12.58.48c-7.75.38-14.58.85-22.6,1.11a17.33,17.33,0,0,0-2.71,0l23.47-1.18c5.87-.17,9.25-.27,8.55-.24,0-.25-15,.17-3.08-.56-6,.21-14.13.88-22.58,1.4s-17.2,1.2-24.48,1.61c-.71,0-1.4,0-1.93,0l1.5-.12c-3.36.19-6.37.41-9.2.64l-12,.77c-1.73-.09-17.12,1.12-24.56,1.62.64.24-9.1.87,0,.47-1.19.06,1.4-.14,6.35-.49l3.17-.26-.51.06,18.49-1.33c-5.86.56-12,1.12-20.24,1.55l-10.35,1.18c-5.11.15-12.57.54-19.1.84s-12.12.52-13.5.48l-18.17,1.22-18.9,1.07c-12.33.72-23.61,1.41-30.75,2-6.47.43-7.45.28-9.87.33l10.19-.7c-12.93.8-38.3,2.42-41.35,3.08-16.29,1.06,9.12-1.07-13.23.75l3-.36c-22,1.48-39.85,3.45-58.25,5.68L438.93,222c3.36-.42,5-.63,5.74-.67-27.65,3.63-56,8.26-84.21,13.27S304.25,245.07,277.19,250c-15.38,2.85-17,3.4-26.34,5.35l-3.38.33-16,3.28c-11.36,2.15-21.27,3.63-32,5.06s-22.14,2.81-36.7,4.14c1.26,0,2.52-.05,3.78-.09-5.24.41-13.55,1-20.33,1s-12-.21-11.15-.28a59.64,59.64,0,0,1-7.54-.35l-.3-.19A129.74,129.74,0,0,1,101.92,264a72.22,72.22,0,0,1-7.9-2.8c-1-.44-.86-.51-1-.63a12.38,12.38,0,0,0-2.58-1.3c-1-.43-2.41-1.15-4.37-2.11-1-.46-2.07-1.09-3.31-1.78l-2-1.1L78.58,253l-1.8-1.1-1.88-1.29-2-1.35c-.66-.48-1.31-1-2-1.49l-2-1.51-1.89-1.58-1.82-1.54c-.59-.51-1.13-1-1.67-1.53-2.17-1.94-3.85-3.73-4.9-4.77s-1.41-1.37-.74-.6c2.9,3.27,7.77,8,8,8.28-1.28-1.05-2.44-2.22-3.65-3.36s-2.34-2.34-3.48-3.53c-.79-.49-2.56-2.09-2.11-1.27a31.16,31.16,0,0,0,2.8,3.47,85.52,85.52,0,0,0,9.43,9,88.51,88.51,0,0,0,14.51,9.18c1.59.94,3.25,1.76,4.87,2.65a102.11,102.11,0,0,1-12.68-7c1.72,1.12,3.26,2.18,4.78,3s2.91,1.65,4.29,2.29,2.71,1.28,4,1.84l4,1.58c.62.31,1.5.67,2.61,1.12s2.48,1,4.11,1.49a111.44,111.44,0,0,0,16.49,3.39c1,.26-.88,0-1.62,0-.36,0-.45,0,.26.16s2.19.5,5,.86c3.92.41,2.05.06.83-.19-.61-.13-1.05-.23-.54-.21.25,0,.75.06,1.58.15s2,.21,3.63.34c4.06.52,5.51.63,7.12.79s3.43.22,8.22.25c1.35.12-.68.22-4.49.13,4.28.12,9.93.07,15.05-.1,2.57-.09,5-.24,7.06-.36s3.76-.31,4.85-.45c2.13-.06,5-.3,8.05-.54s6.36-.6,9.35-1c6-.65,10.79-1.33,10.41-1l22.49-3.74c-7,1.38.22.27,8.73-1.17s18.27-3.23,16.47-2.61c10.31-2.33,37.44-7.28,55.74-11.09-1,.23-3,.69-4.65,1,10.34-1.95,13.37-2.38,20-3.56,1.25-.65,17.33-3.79,26-5.62,12.75-2-7.62,1.87-3.57,1.5-.7-.21,22-4.35,17.62-3.81,9.75-1.52,8.38-1.38,13.44-2,1.62-.78,9-1.66,17-3.31,14.11-2.12,3.7-.17,19.14-2.84,3.69-.51,2.11-.18-.41.29Zm371-34.15h0l-7.68.52Zm31.27-1.77-13.57.68c-1.1,0,.08-.2,3.23-.36C783,195.87,790.4,195.54,795.07,195.39Zm-66.27,2.22c4.94-.4,6.6-.46,7.28-.45l-8.65.65-.58.08C727.32,197.8,727.86,197.71,728.8,197.61Z"/><path class="cls-1" d="M719.93,198.61l-2,.16,3-.14,1.75-.22Z"/><path class="cls-1" d="M405.13,11.15h.66l-1.39,0Z"/><polygon class="cls-1" points="1226.05 226.45 1226.01 226.37 1223.29 226.1 1226.05 226.45"/><path class="cls-1" d="M232.53,11.32c-.33,0-1-.05-2.27-.06C230.36,11.28,231.34,11.3,232.53,11.32Z"/><path class="cls-1" d="M158,11.58l-10.54-.07Z"/><path class="cls-1" d="M100.65,11.59a8.87,8.87,0,0,0-1.13.11h.12Z"/><path class="cls-1" d="M1012.06,4.5l2.21,0C1019.46,4.37,1015.94,4.42,1012.06,4.5Z"/><path class="cls-1" d="M740.84,7.5l8.72-.21A84.08,84.08,0,0,0,740.84,7.5Z"/><path class="cls-1" d="M1314.93,1.81h0Z"/><path class="cls-1" d="M762.17,7.19c-4.83,0-8.86,0-12.61.1C753.52,7.28,758.18,7.27,762.17,7.19Z"/><path class="cls-1" d="M22.44,175.44l1,2.57s.07.1.16.29Z"/><path class="cls-1" d="M23.62,178.3c.39.95.78,1.9,1.19,2.84C24.26,179.84,23.82,178.7,23.62,178.3Z"/><path class="cls-1" d="M27.41,187.06c-.89-2-1.75-3.94-2.6-5.92C25.66,183.21,26.74,185.75,27.41,187.06Z"/><path class="cls-1" d="M2.46,102.2l-.23-.85A3.18,3.18,0,0,0,2.46,102.2Z"/><path class="cls-1" d="M0,79.2a200.56,200.56,0,0,0,2,21.45l.19.7c-.35-1.77-.88-6-1.32-10.44S.21,81.82,0,79.2Z"/><path class="cls-1" d="M47.39,12.7c-6.43.07-12.94-.57-19.1,1.15a19.54,19.54,0,0,1,2.43-.47,12.05,12.05,0,0,1,1.53-.2c.22,0,0,0-.68.19L30,13.71a20,20,0,0,0-2.56.68c.72-.19,1.38-.42,2-.53l1.76-.33.78-.15.73-.07L34,13.18l1.05-.11.83,0L37,13c1.05,0,.46-.06-.1-.09C35.8,12.92,34.71,12.61,47.39,12.7Z"/><path class="cls-1" d="M107.31,13c-10.38.06.13.16-.42.22C113.47,13.08,115.07,13.05,107.31,13Z"/><path class="cls-1" d="M540.32,10.29l-1,.26C547.28,10.45,539.35,10.45,540.32,10.29Z"/><polygon class="cls-1" points="623.08 8.26 615.29 8.17 611.59 8.44 623.08 8.26"/><polygon class="cls-1" points="671.99 9.67 668.5 9.73 681.85 9.53 671.99 9.67"/><path class="cls-1" d="M1399.2,3.71l-2.42-.3C1391.37,3.51,1390.24,3.87,1399.2,3.71Z"/><path class="cls-1" d="M1713.15,2.36c3.41.16,12.25.27,17.69.12C1723.78,2.45,1716.74,2.32,1713.15,2.36Z"/><path class="cls-1" d="M1309,233.82l6.29.58c-4-.41-7.9-.77-11.84-1.23Q1306.24,233.52,1309,233.82Z"/><g class="cls-2"><path class="cls-1" d="M62.14,247.42c1.52,1.53.77.58-3-4-1-1-1.91-2.1-2.85-3.18C58.11,242.69,60.09,245.09,62.14,247.42Z"/><path class="cls-1" d="M41,213.39c-3.32-6.17-6.85-13.46-5.25-9.19,3.22,6.16,3.84,7.74,7.64,14.19,2.85,5.24,5,9.12,4.4,8.32.59.88,1.74,2.9,3.07,5,.65,1.05,1.34,2.1,2,3.05s1.26,1.82,1.78,2.44c-4.24-6.51-9.25-15-14-24.06C39.65,211.1,40.69,213,41,213.39Z"/><path class="cls-1" d="M410.16,22h0Z"/><path class="cls-1" d="M770.91,19.08c-2.75,0-3.9.07-4,.1C769.42,19.14,771.52,19.1,770.91,19.08Z"/><path class="cls-1" d="M832.5,18.9h-3.63C830.25,18.93,831.65,18.93,832.5,18.9Z"/><path class="cls-1" d="M410.16,22l9.64,0C420.47,21.87,414.86,21.94,410.16,22Z"/><path class="cls-1" d="M13.08,138.17c.46,2,.93,3.59,1.33,5.07-.41-1.6-.83-3.16-1.21-4.77A2.63,2.63,0,0,1,13.08,138.17Z"/><path class="cls-1" d="M251.13,23.29l-2.93,0-2.43.15Z"/><path class="cls-1" d="M129.08,23.85a26.37,26.37,0,0,0,4.78-.4c-1.56.12-3.6.18-6,.21C127.79,23.71,128.16,23.77,129.08,23.85Z"/><path class="cls-1" d="M9,111.09l.56,3.38C9.41,113.59,9.17,112.11,9,111.09Z"/><path class="cls-1" d="M338.49,22.8a9.59,9.59,0,0,0,1.11.09A6.11,6.11,0,0,0,338.49,22.8Z"/><path class="cls-1" d="M194.68,278c.09,0-.05,0,0-.05C194,278.07,193.75,278.12,194.68,278Z"/><path class="cls-1" d="M62.69,246.93,64,248.35c.18.12.36.24.4.21Z"/><path class="cls-1" d="M945.22,18.27h-.5C941.76,18.33,943.44,18.31,945.22,18.27Z"/><path class="cls-1" d="M1886.44,120.7c.68-5.79.36-1,0,2.94s-.76,7.26.48-1.46c-.14.81.2-3.17.29-5.56,0-1.19,0-2-.05-1.56S1886.85,117.09,1886.44,120.7Z"/><path class="cls-1" d="M12.39,135.08c-.36-1.62-.72-3.26-1.08-4.9C11.79,132.41,12.12,133.92,12.39,135.08Z"/><path class="cls-1" d="M1886.87,122.18h0l.24-1.8C1887,121.13,1887,121.55,1886.87,122.18Z"/><path class="cls-1" d="M1204.94,16c-.53-.05-1.57-.08-2.65-.11C1202.38,15.89,1203,15.92,1204.94,16Z"/><path class="cls-1" d="M1011.45,17.14h0Z"/><path class="cls-1" d="M1305.4,14.83c2.6,0,3.49,0,7,0l-1.08,0C1310.07,14.83,1308.36,14.85,1305.4,14.83Z"/><path class="cls-1" d="M1410,14.13l-1.93,0-3.31,0Z"/><path class="cls-1" d="M508.09,226.18c-2.29.16-3.71.22-4.83.27C504.89,226.47,489.63,228.24,508.09,226.18Z"/><path class="cls-1" d="M13.22,138.08c-.21-.58-.45-1.44-.83-3,.28,1.17.55,2.29.81,3.39C13.31,138.75,13.36,138.81,13.22,138.08Z"/><path class="cls-1" d="M1309.63,12.58l16.62-.07Z"/><path class="cls-1" d="M1255.45,241.4l-3.79-.42C1253.11,241.16,1254.46,241.31,1255.45,241.4Z"/><path class="cls-1" d="M1375.55,12.14c3,.08,6.11.12,9.36.13.69,0,1.47,0,1.93-.08Z"/><path class="cls-1" d="M503.23,226.45h0Z"/><path class="cls-1" d="M395,242.07c15.62-2.55,7.28-1.54,10.56-2.3,18.64-3,8.68-1.07,15.06-1.88,11.64-1.88,20.54-3.48,29.25-4.68.66,0,2.36-.25.38.1,12.31-2,36.69-4.82,51.09-6.74,1.08-.09,1.62-.12,1.9-.12-2.36.08-2.74-.07-2.28-.26,7.05-.8,13.07-1.63,15.75-1.68-4.33.45-4.68.58-6.69.87l7.38-.88c6.69-.36-10.08,1.18-10.05,1.44,14.39-1.71,31.19-3.53,42.26-4.4,2.34.1-25.85,2.45-11.07,1.41-5.71.45-11.41,1-17.12,1.51,13.13-.76-10.39,1,1.67.37,22.51-2.08,25.17-2.58,47.66-4.23,5-.57-1.7-.15,3.35-.72,16-1.31,22.3-1.46,27.55-1.56s9.44-.17,21.2-1c6.08-.53,8.43-1.09,25.21-1.75l-5.7.69c21.89-1.13,12.46-1.14,35.38-2.34-4.06.41-17.18,1.22-13.87,1.05,14.86-.64,10.49-.88,21.89-1.61l2.38.19c11.64-.78,23.86-1.77,36.39-2.72s25.36-2,38.25-2.85c-1.42.2-5.83.59.2.3,4.06-.28,8.19-.6,12.37-.84l12.67-.67c4.26-.21,8.55-.47,12.85-.62l12.92-.37c4.3-.11,8.6-.27,12.87-.32l12.7,0,12.41,0c4.07,0,8.08.18,12,.25l12-.08c2.79.06,5.17.23,2.15.23,12.23.34.64-.19,6.52-.17,7,.27,9.19.55,4.77.46l19.07.6c3.57.14,7.28.22,11.07.41l11.53.66,22.8,1.39c7.27.49,14,1.14,19.67,1.65l-4.43-.27c17.65,1.56,20,.94,36.34,2.64l-3.14-.25,29.21,2.79c9.81.95,19.61,1.78,29.11,2.84,19,2,36.86,3.94,51.43,5.73,5.59.22,37.81,4.54,40.33,4.24l46.23,6.07c8.2,1,12.27,1.13,22.42,2.31l.21.33,13.8,1.37,7.29,1.26,9.52,1.09c-3.79-.49-8-1.13-7.45-1.14,7.43.84,16.49,2,23.72,2.94L1277,244c2.28.32,3.68.54,3.76.59l17.61,2,17.62,1.81c-.8,0-6.7-.57-11.37-1,18.83,1.75,3.38.7,20.63,2.3-2.3-.33,1.27-.05,1.67-.07,4.28.55,11.31,1.41,19.08,2.21l23.53,2.26-2.8-.06c6.54.65,13.25,1.34,20.11,2l21,1.75,10.72.9c3.6.31,7.21.6,10.85.84l22,1.57c-10.55-.86-8.09-1.06.53-.47l3.43.58c5.58.2-9-.78,2.45-.19,5.49.43,7.34.57,7,.67a51.15,51.15,0,0,1-6-.12c4.46.3,8.92.47,13.38.71.78.14-2.36,0-3.18.08,5.5.1,23.06,1.73,31,1.73l.75.13c29.46,1.35,42.83,1.64,66.86,2,.47-.27,9.86-.12,17-.28,4.41.11,8.95,0,13.6,0l14.31,0c4.88,0,9.87-.2,15-.31s10.32-.22,15.63-.5c14.93-.92,4.35-.47,11.06-1,.55.09,6.14-.12,10.21-.31s6.61-.41,1.12.1l16.33-1.28,3.49-.27,3.36-.35,6.64-.7,7-.75c2.43-.23,5-.58,7.77-1l9.08-1.24c1.65-.24,3.39-.46,5.2-.74l5.69-1c-3.48.46-7.37,1.05-5.37.63,5.78-1,13.18-2,12.37-1.78l-1.52.27c17.85-3.22,38.39-7.53,57.44-13.85,2.41-.72,4.72-1.65,7-2.5s4.63-1.67,6.87-2.61c4.44-2,8.84-3.72,12.87-5.88l3-1.53c.5-.26,1-.5,1.49-.77l1.43-.83,5.53-3.25c1.76-1.1,3.41-2.29,5-3.38.81-.56,1.61-1.09,2.37-1.65l2.19-1.73-1.28,1a104.32,104.32,0,0,0,21.35-21.24c4.07-5.61,2.86-3.92,1.48-1.79-.68,1.07-1.52,2.17-1.75,2.52s.17,0,1.71-2.09a132.23,132.23,0,0,0,11.08-19.2,154.27,154.27,0,0,0,7.12-17.66,171.85,171.85,0,0,0,7.82-35.95,171.57,171.57,0,0,0,1.81-20.55,228,228,0,0,0-.85-27.28c-1.71-19.19-6-39-11.52-52.08l.48,1.57a73.89,73.89,0,0,0-3.55-7,22.73,22.73,0,0,0-1.72-2.54,12.6,12.6,0,0,0-1.19-1.31c-.25-.22-.52-.44-.81-.67a6.69,6.69,0,0,0-1.07-.61,6.57,6.57,0,0,1,.61.37,6.26,6.26,0,0,1,.9.68,13.4,13.4,0,0,1,1.65,1.77c.81,1.13,1.22,1.68-.29-.17a9.45,9.45,0,0,0-2.44-2.13,3.83,3.83,0,0,0-.84-.39,3.28,3.28,0,0,0-1-.22l-.25,0h-1.26l-5.73-.09-11.52-.2L1826.54,12l-11.72-.24-11.76-.11-23.61-.23L1732.07,11,1685,10.79c-22.79-.07-12.94.91-41.67.47l8.16-.33c-23,.2-46.51.31-69.9.36s-46.65.07-69.16.38c2.68-.09,2.76-.19,7.15-.21-4.75-.1-13.54-.06-21.17,0l-9.9.16-3.08.08a9.48,9.48,0,0,0-1.17.08c-7,0-1.63-.16-6-.24-9.54-.09-23.94.43-29,.22-.86,0,2.68-.09,4.43-.12-6.22.15-29,.12-23,.37-16.9-.05-32.32.29-45.8.22-8.79.37-28.93.05-31.72.5,1.21-.46-29.62-.16-40.31.12,3.58-.16-9.29-.08-5.1-.29-12.19.08-23.36.24-21.24.46-22.46-.4-45.14.77-57.79.17l-102.31,1.31c1.17-.46,36-.33,34.61-.79-30.91.42-48.73,1-79.38,1.11-7.94,0,4.5-.24,7.18-.34-30.87.45-59.7.46-87.17.94,0,0,.8-.05,1.9-.08l3.94-.09c-5.42.06-12.59,0-12,.24l5.28-.1c8.65.22-21.5.8-22.47,1,9.19-.67-27.14.09-12.54-.78-3.57.07-8,.2-7.22.33-5.29,0-7-.06-1.6-.26-19.4.28-12.51.44-30.08.59.06-.1,3.61-.17,5.43-.3-8.9.27-17.84.54-32.69.58.9-.06-.83-.13,3.6-.16-25.5.25-43.46.89-71.44,1,8.25-.5-9.52-.06-11-.42l-15,.25,6,.12c-13.18.11-24.82.49-36.15.47l9.79-.24-24.7.28,14,0c-13.33.31,1.44.46-16.11.51,3.57-.07-13.18.11-20.05,0h.05c-6.52.18-13.23.36-23,.36-2.54-.1,2-.43.38-.5-6.43.37-30.86.36-39,.76,2.71-.1,2.85-.29,2-.33l-5.4.3c-6.1,0-7-.06-6-.22-18.36.11,5.84.42-16,.41,1.71,0,.9-.07,4.46-.14-21.89.08-42.29.53-62.4.58-5.94-.33,17.57-.25,10.77-.51-29,.32-60,1-88.11,1.11h5.23c-3.88.56-20.9-.09-35.09.27,3.48-.06,4.55-.33,3.62-.26-19.22.07-39.3.45-68.41.85l3.6-.16c-11.32,0-29.82.15-42.06.18-3.63.16-10.63.19-6.38.36-37.72-.52-71.95,1-105.42.48,4,0,9.53-.17,6.35-.15L249.26,22c2.26.22,3.74.12,9.73.27-3.61.15-11.66.31-18.72.35,12.82-.23-.11-.37-5.65-.47.93.06-1,.15-.5.22-14.9-.32-2.49.48-22.83.32l1.08-.13c-7.61.1-14.62.32-22.83.3-3.41-.26,8.1-.14,8.62-.38-11.53.07-22.74.58-33.18.35l16.84-.2c-11.37-.28-12.68-.2-21.12-.22h.83L142,22.29l5,.07c-14.42.71-29.37.27-48.8.67,18.89-.39,3.12-.25,4.57-.55-5-.09-12.5-.2-10.36-.28-9.18.22-15.32-.23-28.28.1-.58-.1-9.83,0-7.76-.28-11.94.05,2.83.18,1.82.3-4.6.08-9.6.06-14.94.07a38.32,38.32,0,0,0-4.12.22c-.69.09-1.39.13-2.09.25l-2.1.41a31.17,31.17,0,0,0-8.28,3.09A31.46,31.46,0,0,0,19.34,32a36.93,36.93,0,0,0-5.59,7.73,48.62,48.62,0,0,0-3.83,9,66.85,66.85,0,0,0-2.33,9.65A104.44,104.44,0,0,0,6.08,72.53c-.14,4-.13,7.29,0,10.57.24,6.57.71,12.92,2.07,23.42.41,3.55.12,2.11-.27-.22-.16-1.16-.36-2.55-.51-3.65s-.24-1.91-.24-1.91a229.78,229.78,0,0,0,5,30.7c-.56-2.14-.14.1.46,3.36,1,4.26,1.44,5.65,1.95,7.39S15.57,146,17,151.58c-.64-1.88-1.48-4.28-2.63-8.34,2.62,10,5.71,19.67,9.26,29.71.75,2.73-2.33-6-3.55-9.56,1.83,5.71,4.39,13,6.83,19.31s4.71,11.48,5.56,13.13c-1-2.37-1.92-4.74-2.83-7.14,1.63,4.05.62,2.18-.62-.8-4-9.48-5-13.92-5.17-14.49q1.27,3.58,2.62,7.12c-1.09-3.74-3.68-10.9-6.28-19s-5.25-17.26-7-24.7c.6,2,1.25,4.06,1.9,6.08-1.4-5-2.66-10.09-3.82-15.18-.56-3.29-.78-5.56.78,1.81-1-5.37-1.48-7.75-1.89-9.93s-.8-4.19-1.38-8.85c-.1-1,0-.57.13.38-.54-3.52-1-7-1.43-10.59.31,2.08.06-1.79.76,4.73-2.06-19-1.95-30.84-1-38,0,.53-.11,1.06-.13,1.59A110.59,110.59,0,0,1,8.8,57.06c.36-1.76.34-1.88.27-1.8s-.2.36-.05-.6a24.44,24.44,0,0,1,.55-2.54,54.73,54.73,0,0,1,1.59-5.39,44.92,44.92,0,0,1,7-11.36,24,24,0,0,1,1.43-2.18c.23-.25.48-.55.76-.84s.61-.57.93-.87l1-.89,1-.76c1.22-1,2.19-1.51,1.8-1.19a33,33,0,0,1,3.47-2.15c.35-.21,0-.07-.4.14-.87.41-2.23,1.08.36-.37a34.26,34.26,0,0,1,10.84-2.9c4-.38,8.29-.19,12.2-.23,7.83,0,14.38.05,15.87.29,4.74-.22-12.64-.2,1.47-.33,4,.53,16.31-.06,28.38.21-3.71.26-15.14.09-3.06.36,3.64-.22,9.52-.17,15.76-.1s12.84.16,17.93.1c.24-.19,5.77-.24,13.39-.27l25.84-.12c-1.08.12,32.15.13,48.05.14l-.47.06c3.07-.38,19.47-.41,31.41-.55-.47.22-2.62.32-9.08.46l11.22-.07c2.65-.13,6.15-.21,13.43-.3l-2.82.29c14.94-.1,30.08-.48,49.3-.43,1.08-.26-15.29-.6,5-.92.76.13,1.51.37-3.81.46,1.74,0,6.21-.16,9.72-.12l-8.11.29c8.75,0,4.57-.23,11.57-.26-.14.2,5.18.1,4.18.27-1.79,0-6.11,0-8.79.06,7.89,0,17.43,0,20.59.15-.69-.11,0-.27,5.77-.33,14.94-.13,5.12.2,13.83.24,3.62-.17,13.15-.09,13.4-.39,4.37,0,5.18.1,6.87.17,7.73-.19,36.11-.3,27.39-.55h-2l1.26,0h0c25.34-.47,52.64-.25,77.78-.58l0,.1c15-.24,33.41-.34,44.12-.64,4.44,0,10.48.1,8.58.23,11.48-.17,12.76-.29,29.33-.27-11.53.27,4,.12-11.82.23,14.91-.05,18.29.08,34.29-.32-5.44.3,11.23.22,18.31.08l-10.44-.09,22-.18-3.83.36c30.51.14,55-1.16,78.24-.69,8.07-.3-16.57,0-9.36-.35,14-.08,28.66.27,33,.23,19.23,0,17.93-.64,38-.69-2.57-.1-5-.4,10-.64,14-.08,17.27.34,8.41.52-3.37,0-5,0-4.85,0-4.54.09-10.49.19-4.93.27l1.82-.14c7,.06,26.28-.12,21.75.12,10.61-.21,4.53-.24-3.33-.23,18,0,28.14-.24,46.68-.29-3,0-5.66-.16-2.73-.18,27.19-.09,12-.33,30.4-.55,10.46.09-3.75.47,14.79.16,11.33,0,2.4.29-2.1.43,16.9-.38,31.58-.13,41.23-.17l-8.9.17c5.32-.1,9.68-.14,14.12-.18l-5.09-.19h6.78a20.84,20.84,0,0,1,2.78.07c5.38-.2-4.13-.36,6.56-.67,7,.06,21.21-.31,23.62,0-21.91.09,2.42.3-16.12.51,3.58-.07,7.94-.11,13.18-.11.79,0-.74.07-2.17.1,21,.1,9.64-.44,31.37-.62-2.76.2,5,.29,8.58.23-8.76.07-4.19-.27,3.84-.47,13.94,0,15.15-.23,22.44-.27h-8.33c2.82-.2,9.79-.23,19.5-.37.84.13-8.82.17-5.35.2,10.78-.4,24.37.12,39.41-.22,7,.06.67.33,6.79.36,16.85-.37,18.26.09,36-.25-5.11-.19-6-.13,6.47-.47l-29.12.42,18.69-.51c-8.79.07-18.55.31-23.81.31,8.9-.27,8-.2,3.78-.36,12,.25,23.84-.41,37.74-.29l-.42.6c20.9.08,37.13-.6,64.27-.66l-8.72,0c3.64-.26,16.75-.16,25.54-.32-.81.2,4.68.23,8.43.32-.45-.14,19.87-.14,22.33-.55l12.11.17c21.92-.06,25-.77,46.07-.84-6.34.26,3.24.33-10.88.58l9.33-.06a36.59,36.59,0,0,0,4.14-.13c4.11.1,19.5-.4,26-.25,3-.11,3.93-.32,11.83-.36.86,0,0,.1,0,.1a2.92,2.92,0,0,1,.52,0l1.31,0,3.5-.09c2.22-.06,3.58-.13.13-.22,21.66.47,60.55-.46,79.41,0l47.78-.4a13.63,13.63,0,0,1-2.68.1c19.22.08,11.81-.63,33.69-.54,11.17.26-11.62.23-4.65.32,3,.63,26.4-.23,41.12.07l-3.57.06c11.25.15,27.45-.34,45.84-.36,0,0-.9.06-.11.1,12.57-.37,36.37-.55,54-.69-5.5.27-8,.16-4.67.41,7.92-.06-2.33-.41,13.5-.53,5.14.12,16.55.21,18.07.5l-14.93,0c7.65.32,19.32,0,27.19,0l-1,.16c22.88,0,23.19-.43,47.78-.39l-2.54-.12c13.43-.38,11.26.23,24.66-.06l4,.4c8.87-.11,31.05-.19,47-.18-9,.24-27.61.26-39.12.36,8.79.06,29.86.17,34.44,0-3.54,0-8,.09-11.5,0,10.78-.24,25-.3,42.48-.17-3.11.56,45.62.94,58.3,1.78l2.9,0,1.45,0h.73a3.73,3.73,0,0,1,.44.08,4.81,4.81,0,0,1,1.92,1.33,14.89,14.89,0,0,1,1.7,2.12,51.47,51.47,0,0,1,5,10.22,146,146,0,0,1,6.17,22.6,239.66,239.66,0,0,1,4.2,50.17c.21-3.18.27-4.12.31-3.77s0,2,0,4c-.07,3.94-.36,9.19,0,8.11-.5,8.37-1,11.54-1.07,12.28A188.93,188.93,0,0,1,1882,147c-.83,2.89-.36,1,.25-1.61a52.14,52.14,0,0,0,1.1-5.44c-.94,4.47-1.68,7.14-2.15,8.84s-.74,2.42-.92,3c-.4,1.07-.53,1.43-2.47,7.13.94-2.3-1.48,6.23-6,15.62q3.21-6.57,5.75-13.47a125.28,125.28,0,0,1-5.42,13.57c-.8,1.65-1.51,3.1-2.23,4.41s-1.37,2.53-2.07,3.72c-1.38,2.4-2.86,4.75-4.87,7.83-1,1.54-2.22,3.2-3.6,5.17s-3.09,4.11-5.23,6.48c.85-1,1.77-2,2.56-3.12l2.42-3.24c-1,1.29-2.17,2.91-3.64,4.6s-3.07,3.62-5,5.46c-1,.94-1.9,1.94-2.93,2.91l-3.25,2.85-1.67,1.46-1.78,1.37-3.58,2.76c-1.22.89-2.5,1.7-3.74,2.56s-2.46,1.7-3.71,2.47l-7.28,4.31-6.56,3.46-1.44.77-1.37.65-2.42,1.16c-2.18.88-5.06,2,.24-.42a282.21,282.21,0,0,1-47.53,15.81l-6.06,1.47c-2,.52-4,.85-6,1.28-4,.79-7.82,1.6-11.56,2.31l-10.82,1.75-5,.8c-1.63.23-3.22.4-4.75.59l2.37-.46c-5.86.8-10.18,1.65-17.56,2.4.38-.1,2.36-.39-.37-.12l-10,1.16-7,.77c-2.31.27-4.57.38-6.53.52,2.22-.24,4.45-.41,6.67-.72l-20.83,1.61c-6.3.48-12.08.76-17.7,1.14l-8.36.54-8.41.36c-5.69.22-11.59.5-18.09.64a20.46,20.46,0,0,0-4-.24c-2.47-.05-5.89-.08-9.7-.09l-12,0-10.84-.18.42-.06c-18-.08-33.35-.56-48.34-.82l-22.53-.78c-3.81-.15-7.68-.25-11.63-.44l-12.17-.64c-20.7-1.39-70.12-4.95-103.3-8.32,5.07.58-.85.26-6.76-.27-7.78-.85-21.56-1.81-20.29-2.09l2.78.28c-2.91-.5-8.38-1.05-14.67-1.77l-19.65-2.15-2.12.3c-16.29-2.08-37.66-4.64-57.18-6.91s-37.2-4.36-46.06-5.79l-25.45-2.85.45-.23-14.73-1.83-13.17-1.55-31.8-3.62,5.53.43c-7.61-.88-12.44-1.23-17.12-1.56s-9.21-.65-16.24-1.37l-4.18-.87-40-4.36c-6.66-.76-13.33-1.36-20-2s-13.26-1.18-19.84-1.7a40,40,0,0,1,5.54.32l-12.78-1.25c-5.06-.48-10.58-1.06-15.58-1.43-10-.79-17.86-1.34-15.6-.87a35,35,0,0,0-4.64-.54c-2.82-.24-6.7-.54-11-.85-8.63-.71-19.06-1.12-26.26-1.51l2.26-.14-13-.44c-3.74-.11-8.08-.46-16.59-.71-4-.21-3.52-.37,1.83-.08-13.42-.7-10.48-.17-26.75-1l6.07.07-7.93-.32c-2-.07-3.36,0-4.56,0l-7.85.08c-4.35,0-10.9-.15-16.63-.32s-10.62-.13-11.64-.27c-1.86.17-9.43.43-17.58.41-1.1-.09,1.86-.17,3.35-.21h-4.2l-3.94.1-7.23.24-12.47.48c-7.68.35-14.45.85-22.4,1.09a19.1,19.1,0,0,0-2.69,0l23.26-1.17c5.82-.18,9.18-.27,8.48-.24,0-.26-14.85.16-3-.56-6,.21-14,.86-22.39,1.39S766,206,758.82,206.44c-.7,0-1.39,0-1.92,0l1.5-.12c-3.34.19-6.32.41-9.12.64-4.61.27-7.53.46-11.95.77-1.72-.09-17,1.12-24.35,1.62.63.24-9,.87,0,.47-1.17.06,1.39-.14,6.3-.49l3.14-.26-.5.06,18.33-1.34c-5.81.57-11.89,1.13-20.06,1.56L710,210.56c-5.06.15-12.46.54-18.93.84s-12,.52-13.39.49l-18,1.22-18.74,1.07c-12.22.73-23.41,1.41-30.49,2-6.41.43-7.38.28-9.78.33l10.1-.7c-12.82.8-38,2.42-41,3.08-16.15,1.06,9-1.07-13.12.75l3-.36c-21.83,1.47-39.51,3.45-57.75,5.68l-61.1,7.77c3.33-.42,5-.63,5.69-.67-27.41,3.64-55.53,8.27-83.47,13.28s-55.72,10.46-82.54,15.42c-15.24,2.86-16.84,3.41-26.1,5.35l-3.36.33-15.84,3.28c-11.27,2.16-21.09,3.64-31.68,5.07S181.47,277.64,167,279c1.25,0,2.5,0,3.75-.09-5.19.42-13.43,1-20.16,1s-11.92-.22-11.05-.29a58.53,58.53,0,0,1-7.47-.35l-.3-.19a127.38,127.38,0,0,1-25.13-4.28A74.05,74.05,0,0,1,98.85,272c-1-.45-.86-.51-1-.64a13.26,13.26,0,0,0-2.55-1.29,99.71,99.71,0,0,1-11.71-6.36l-1.79-1.1L80,261.3,78,260l-1.94-1.48-2-1.5-1.86-1.59-1.81-1.53-1.64-1.53c-2.14-1.93-3.8-3.72-4.83-4.75s-1.39-1.36-.73-.6c2.86,3.26,7.65,8,7.86,8.26-1.27-1-2.42-2.22-3.61-3.35s-2.3-2.33-3.43-3.53c-.79-.48-2.54-2.07-2.09-1.25a30.27,30.27,0,0,0,2.76,3.45A84,84,0,0,0,74,259.49a87.13,87.13,0,0,0,14.35,9.18c1.57.95,3.21,1.76,4.82,2.65a100.52,100.52,0,0,1-12.55-7c1.7,1.12,3.23,2.17,4.73,3s2.88,1.65,4.25,2.3,2.67,1.27,4,1.84l4,1.58c.61.32,1.48.67,2.59,1.13s2.44,1,4.06,1.49a109.44,109.44,0,0,0,16.35,3.41c1,.26-.88,0-1.61,0-.36,0-.44,0,.26.16s2.17.5,5,.86c3.89.41,2,.06.83-.19-.6-.13-1-.23-.54-.21.25,0,.74.06,1.57.15s2,.22,3.6.35c4,.52,5.45.63,7.06.79s3.39.22,8.15.25c1.33.13-.68.22-4.46.13,4.24.12,9.85.07,14.93-.09,2.54-.1,5-.24,7-.36s3.73-.32,4.81-.45c2.11-.06,4.93-.31,8-.54s6.3-.61,9.26-1c5.94-.66,10.7-1.33,10.32-1L217,274.21c-6.95,1.38.22.27,8.64-1.18s18.12-3.22,16.33-2.61c10.22-2.33,37.11-7.29,55.24-11.1-1,.24-3,.7-4.6,1,10.25-1.95,13.25-2.39,19.85-3.57,1.24-.64,17.18-3.79,25.74-5.62,12.64-2-7.55,1.87-3.53,1.5-.7-.21,21.78-4.35,17.46-3.81,9.66-1.52,8.31-1.38,13.32-1.95,1.6-.78,8.95-1.66,16.89-3.32,14-2.12,3.67-.16,19-2.83,3.66-.51,2.09-.18-.4.28ZM762.8,207.9h0l-7.61.52Zm31-1.76-13.45.69c-1.09,0,.08-.2,3.2-.36C781.87,206.62,789.18,206.3,793.81,206.14Zm-65.71,2.22c4.9-.4,6.55-.46,7.23-.45l-8.58.65-.58.08C726.64,208.55,727.17,208.46,728.1,208.36Z"/><path class="cls-1" d="M719.31,209.36l-2,.16,2.93-.14,1.73-.22Z"/><path class="cls-1" d="M405.75,21.94h.66l-1.38,0Z"/><polygon class="cls-1" points="1221.08 237.34 1221.05 237.26 1218.35 237 1221.08 237.34"/><path class="cls-1" d="M234.62,22.11c-.33,0-1-.05-2.25-.06C232.47,22.07,233.44,22.09,234.62,22.11Z"/><path class="cls-1" d="M160.7,22.37l-10.46-.07Z"/><path class="cls-1" d="M103.86,22.37a8.57,8.57,0,0,0-1.11.11h.11Z"/><path class="cls-1" d="M1007.52,15.29l2.19,0C1014.86,15.16,1011.36,15.21,1007.52,15.29Z"/><path class="cls-1" d="M738.61,18.29l8.64-.21A85.73,85.73,0,0,0,738.61,18.29Z"/><path class="cls-1" d="M1307.81,12.59h0l1.85,0Z"/><path class="cls-1" d="M759.75,18c-4.78,0-8.78,0-12.5.1C751.18,18.07,755.8,18.06,759.75,18Z"/><path class="cls-1" d="M28.19,186.63l1,2.55c0-.05.08.1.16.29Z"/><path class="cls-1" d="M29.35,189.47c.39.94.78,1.88,1.18,2.81C30,191,29.54,189.86,29.35,189.47Z"/><path class="cls-1" d="M33.09,198.16c-.87-1.95-1.73-3.91-2.56-5.88C31.37,194.34,32.44,196.86,33.09,198.16Z"/><path class="cls-1" d="M8.4,114l-.23-.84A3.19,3.19,0,0,0,8.4,114Z"/><path class="cls-1" d="M5.87,91.21A201.86,201.86,0,0,0,8,112.47l.19.69c-.36-1.76-.9-6-1.33-10.35S6.08,93.8,5.87,91.21Z"/><path class="cls-1" d="M51.06,23.48l-4.79,0h-2.4l-2.37.06a34.51,34.51,0,0,0-9.29,1.62l2.38-.61c.73-.12,1.31-.21,1.52-.22s.06,0-.67.2a13.67,13.67,0,0,0-1.53.4c-.65.23-1.5.41-2.49.81.68-.29,1.36-.41,2-.61a17.45,17.45,0,0,1,1.72-.44c1.08-.19,2-.4,2.73-.49,1.53-.15,2.44-.27,3-.3,1,0,.45-.06-.11-.09s-1.08,0,.07-.15c.58,0,1.58-.09,3.22-.14Z"/><path class="cls-1" d="M110.47,23.76c-10.29,0,.12.17-.42.22C116.58,23.87,118.16,23.84,110.47,23.76Z"/><path class="cls-1" d="M539.79,21.08l-1,.27C546.69,21.25,538.83,21.25,539.79,21.08Z"/><polygon class="cls-1" points="621.85 19.06 614.13 18.96 610.45 19.23 621.85 19.06"/><polygon class="cls-1" points="670.34 20.46 666.88 20.52 680.11 20.32 670.34 20.46"/><path class="cls-1" d="M1391.37,14.5l-2.4-.3C1383.6,14.29,1382.48,14.65,1391.37,14.5Z"/><path class="cls-1" d="M1702.64,13.14c3.38.16,12.14.27,17.54.12C1713.18,13.23,1706.2,13.11,1702.64,13.14Z"/><path class="cls-1" d="M1303.34,244.71l6.24.58c-3.91-.41-7.83-.78-11.74-1.22Z"/></g><path class="cls-1" d="M1776.27,200.85c.9.05.43-.23-2-.54l-1.79.08Z"/><path class="cls-1" d="M1759.88,197.87c-2.91-.25-6.27-.45-4.45.12,2.9.09,3.57.32,6.7.39,2.46.32,4.26.72,3.83.78.88,0,3.8.62,5.15.61a90.93,90.93,0,0,0-11.45-1.7C1758.77,197.86,1759.66,197.9,1759.88,197.87Z"/><path class="cls-1" d="M1519.84,166.59l1.55.21C1521,166.73,1520.44,166.66,1519.84,166.59Z"/><path class="cls-1" d="M1370.61,151.47a9.12,9.12,0,0,0,1.67.08A9.08,9.08,0,0,0,1370.61,151.47Z"/><path class="cls-1" d="M1345.14,148.73l1.5.14A14.91,14.91,0,0,0,1345.14,148.73Z"/><path class="cls-1" d="M1519.84,166.59l-4-.53A30.19,30.19,0,0,0,1519.84,166.59Z"/><path class="cls-1" d="M1726.72,193.91c.83.11,1.53.18,2.17.23l-2-.26A.42.42,0,0,1,1726.72,193.91Z"/><path class="cls-1" d="M1585.58,173.73l1.21.15c.36,0,.7,0,1,0Z"/><path class="cls-1" d="M1636,179.93a4.8,4.8,0,0,0-2,.15,16.6,16.6,0,0,1,2.5.11C1636.46,180.14,1636.32,180.06,1636,179.93Z"/><path class="cls-1" d="M1715.63,191.17l1.42.16Z"/><path class="cls-1" d="M1549.51,169.46a1.66,1.66,0,0,0-.45-.15S1549.23,169.4,1549.51,169.46Z"/><path class="cls-1" d="M135.43,49.78s0,0,0-.05C135.13,49.72,135,49.72,135.43,49.78Z"/><path class="cls-1" d="M77.39,40.12l.81.1c.09,0,.19-.08.19-.13Z"/><path class="cls-1" d="M1298.47,144.43l.2,0C1299.9,144.53,1299.21,144.47,1298.47,144.43Z"/><path class="cls-1" d="M869.34,113.21c4.85.58-7.93-.22-.63.56C868,113.61,875.39,113.78,869.34,113.21Z"/><path class="cls-1" d="M1725.43,193.69l-2.06-.29Z"/><path class="cls-1" d="M868.71,113.77h0l.75.08Z"/><path class="cls-1" d="M1190.81,135.9a8.83,8.83,0,0,0,1.09.21A5.23,5.23,0,0,0,1190.81,135.9Z"/><path class="cls-1" d="M1271,142.69l-2-.21Z"/><path class="cls-1" d="M1149.13,133.12c-1.08-.11-1.44-.17-2.92-.25l.44.07A22,22,0,0,1,1149.13,133.12Z"/><path class="cls-1" d="M1105.77,129.92l.79.11,1.38.09Z"/><path class="cls-1" d="M266.55,66.28a19.07,19.07,0,0,1-2-.49C265.22,66.07,258.87,65.37,266.55,66.28Z"/><path class="cls-1" d="M1726.72,193.76a6,6,0,0,1-1.29-.07l1.43.19C1727,193.86,1727,193.82,1726.72,193.76Z"/><path class="cls-1" d="M1147.2,135.19l-6.88-.56Z"/><path class="cls-1" d="M577.16,94.87l-1.59-.1C576.18,94.83,576.74,94.87,577.16,94.87Z"/><path class="cls-1" d="M1119.87,133.14c-1.22-.18-2.52-.33-3.86-.47-.29,0-.62,0-.81,0Z"/><path class="cls-1" d="M264.57,65.79h0Z"/><path class="cls-1" d="M219.31,61c6.54.8,3.11,0,4.53,0,7.81.84,3.57.7,6.21,1.21,4.88.5,8.65.61,12.28,1.07.27.09,1,.2.13.17,5.19.33,15.29,1.84,21.33,2.2a4.65,4.65,0,0,1,.78.19c-.95-.31-1.08-.51-.87-.62a63.16,63.16,0,0,1,6.54.78,20.61,20.61,0,0,0-2.8-.15c1,.09,2.05.17,3.08.24,1.36.32.31.24-1.09.11a17.08,17.08,0,0,0-3.15-.22c6,.61,13,1,17.61,1.58.93.44-10.75-1-4.66-.07l-7.09-.87c5.37,1.1-4.32-.48.61.61,9.35,1.07,10.49.91,19.81,2,2.12,0-.66-.35,1.46-.32,13.3,1,10.35,1.93,20.15,2.5a52.59,52.59,0,0,1,10.5.66l-2.41.14c9.05,1,5.23,0,14.69,1.23-1.7,0-7.14-.61-5.77-.42,6.12.94,4.37.23,9.1.73l.94.44c9.65.93,20.3,1.84,31,2.83-.6.05-2.44,0,.05.32,13.5,1.06,28.79,2.66,41.78,4l5,.16c1.16.11,2.14.33.88.27,5.06.58.28-.16,2.73,0,2.88.24,3.79.51,2,.43,9,.57,25.53,1.79,34.93,3L457.7,85c7.33.79,8.34.15,15.12,1L471.51,86c15.93,1.45,33.58,2.59,45.71,4,2.35-.23,15.77,1.47,16.84,1,9.09,1,6.47.92,19.28,2.16,3.42.3,5.13,0,9.37.33l.08.31,5.78.15,3,.61,4,.24a12.67,12.67,0,0,1-3.1-.48c3.11.19,6.88.55,9.9.86s5.28.61,5.35.69l14.71.82c-.34.1-2.8,0-4.75-.1,7.86.27,1.4.43,8.6.67-.95-.14.54-.14.71-.19,3.56.45,11.71,1,17.75,1.42l-1.17.13c10.89.85,23,1.59,35.19,2.5-4.38-.43-3.34-.72.25-.49l1.41.43c2.33,0-3.74-.4,1-.29,4.56.37,3,.59.41.51l5.56.29c.32.13-1,.08-1.33.18,2.29,0,9.56,1,12.87.93l.31.12c12.22.91,17.77,1.14,27.73,1.83.22-.27,4.1.06,7.09,0,7.31.6,15.42,1.38,24.23,2,6.21.29,1.83-.11,4.63-.08.44.29,9.24.87,4.66.74,10.59.69,13.52.89,26.92,1.61-1.44-.21-3.08-.36-2.22-.39,2.43.12,5.52.49,5.16.59l-.64,0c15,.67,34.62,3.12,46.62,3.4l-.67,0,12.42.56c5.71.43-3.43,0,.78.4,13.41.48,21.14,1.5,32.18,2,8.48,1.33,30.28,2,41.76,3.25l-.66-.22a48.07,48.07,0,0,1,5.79.53c-.3-.15-3.22-.37-1.37-.35,25.23,1.51,52,3.81,77.85,5.73,9.45.69,5.43-.55,17.32.68l-3.41.1c19.11.9,39,2.77,57.7,3.75a26,26,0,0,1-3,0c2,.26,5.6.52,8.77.7,1.58.08,3,.15,4.12.18a9.15,9.15,0,0,0,1.77,0c2.9.23.66.22,2.44.45,4,.42,10,.4,12,.79a11.93,11.93,0,0,1-1.84,0c2.58.07,12,.89,9.56.43,7,.63,13.41.83,19,1.39,3.66,0,12,1,13.17.66-.53.41,12.25,1.3,16.7,1.43-1.49,0,3.84.44,2.09.49,5,.38,9.69.65,8.83.35,9.27,1.25,18.75,1,23.94,2.09,15,.91,28.93,1.8,42.45,2.73-.53.41-14.94-1.1-14.39-.58,12.82.81,20.25.94,32.94,2.08,3.28.34-1.88,0-3,0,12.81.89,24.73,2.13,36.13,2.84,0,0-1.27,0-2.43-.08,2.25.17,5.21.5,5,.28l-2.19-.13c-3.56-.6,9,.13,9.37,0-3.86.26,11.23,1.09,5.12,1.32,1.48.09,3.34.15,3,0,2.19.23,2.88.36.64.33,8.05.57,5.21.11,12.49.73,0,.1-1.51,0-2.27.06,3.7.12,7.42.24,13.57.84-.38,0,.33.17-1.5,0,10.56.86,18,1,29.62,2.17-3.45.15,3.94.46,4.51.91l6.24.48-2.48-.42c5.45.52,10.3.71,15,1.27l-4.06-.23,10.23.9-5.78-.69c5.54.33-.55-.52,6.71.27-1.48-.1,5.45.52,8.27,1h0c2.71.13,5.49.27,9.52.74,1,.22-.88.34-.21.48,2.69-.06,12.78,1.12,16.19,1.11-1.13,0-1.21.16-.85.24l2.26,0c2.52.32,2.89.39,2.46.51,7.6.76-2.37-.7,6.63.35-.71,0-.37,0-1.85-.08,9,1,17.52,1.5,25.83,2.41,2.42.61-7.28-.59-4.5,0,6,.53,12.23,1,18.4,1.5s12.29,1.16,18.08,1.83l-2.16-.28c1.67-.35,8.62,1.19,14.51,1.58-1.44-.12-1.91.09-1.52.07,7.93.94,16.25,1.62,28.31,2.76l-1.51,0c4.67.63,12.32,1.4,17.38,2,1.51,0,4.4.36,2.67,0,7.75,1.23,15.2,1.93,22.43,2.59,3.61.33,7.17.63,10.69,1s7,.9,10.41,1.49c-1.65-.2-4-.37-2.64-.21l11.78,1.34a28.82,28.82,0,0,0-4-.82c1.51,0,4.84.36,7.76.72-5.31-.5,0,.37,2.27.79-.38-.12.41-.1.23-.2,6.1,1.17,1.09-.33,9.44,1l-.46.07c3.15.33,6.06.53,9.44,1,1.38.44-3.35-.29-3.6-.1,4.76.58,9.45.67,13.72,1.46l-7-.71c4.65.89,5.2.88,8.68,1.36l-.34-.05,8,1.14-2-.33c6,0,12.13,1.37,20.21,1.92-7.85-.54-1.32.08-2,.31,2,.34,5.14.82,4.24.79,3.82.23,6.3,1,11.69,1.29.23.12,4.06.51,3.17.65,4.94.53-1.14-.32-.71-.39,1.91.16,4,.4,6.17.68s4.52.71,6.94,1.09c4.86.78,10.13,1.61,15.61,2.17,9.42,1.16,11.2,1.09,19.94,2.18,2.92.57-2.46,0-2.46,0,4.73.83,8.3,1.31,12.79,1.85-.92-.05,0,.16,1.35.46,3.6.49,2.46,0,7.17.82-.83,0-1.9,0-3.64-.13l12.84,1.48c1.13.34-2.68-.12-4.24-.24,4.93.63,12.77,1.68,14.33,1.64l-3.14-.55c1.79.24.88.36-.45.22a25.07,25.07,0,0,1-6.29-1.1l3.13.39c-3.12-1-12.54-1.71-18.81-2.65l2.67,0-6.49-.59c-1.35-.3-2.25-.67.85-.28-4.47-.85-4-.43-7.84-1.21-.42-.1-.22-.09.18-.05l-4.42-.51c.88,0-.69-.4,2,.05-7.86-1.37-12.77-1.52-15.7-2.26l.67.07c-11-1.43-1.11.15-9.37-.67l-5.43-1.55-1.11.15c-1.13-.17-3.36-.51-2.93-.58-4.24-.39.69.24-1.77.08-5.39-1.13-15-1.81-16.21-2.47-2,0,5.2.82-.65.26-1.59-.72-6.74-.75-11.69-1.6,1.57-.08,6.27.65,1.31-.21-3.06.08-9.68-1.3-13.9-1.74-.24.34-9.15-1-16.22-1.74.46-.06-13.24-1.84-19.78-2.79l.2,0c-1.32.21-8.07-.7-13-1.24.22-.19,1.12-.17,3.8.06l-4.63-.57c-1.11,0-2.56-.14-5.57-.47l1.2-.12c-3.09-.38-6.2-.68-9.53-1s-6.88-.79-10.84-1.29c-.48.21,6.24,1.39-2.18.66-.3-.17-.58-.44,1.62-.26-.72-.06-2.58-.17-4-.38l3.38.13c-3.61-.49-1.92,0-4.81-.34.08-.19-2.12-.38-1.69-.49.74.06,2.52.36,3.63.4-3.26-.39-7.19-.93-8.47-1.22.27.14,0,.27-2.42,0-6.18-.65-2.09-.46-5.68-1-1.51,0-5.44-.59-5.57-.31a16.34,16.34,0,0,1-2.82-.52c-3.21-.22-14.93-1.58-11.36-.88l.81.11-.52,0h0c-10.51-.84-21.74-2.51-32.15-3.51l0-.1c-6.22-.55-13.82-1.42-18.27-1.69-1.84-.19-4.31-.64-3.52-.67-4.75-.43-5.29-.42-12.13-1.26,4.79.29-1.63-.35,4.9.37-6.15-.74-7.54-1-14.19-1.35,2.28,0-4.61-.76-7.55-1l4.3.59c-3.3-.28-6.18-.57-9.11-.87l1.62-.18c-12.59-1.6-22.84-1.47-32.39-3.06-3.36-.08,6.84.81,3.83.8-5.8-.59-11.81-1.64-13.63-1.81-7.94-.94-7.47-.22-15.79-1.14,1.06.22,2,.63-4.2.16-5.81-.6-7.1-1.18-3.42-.92a10.23,10.23,0,0,1,2,.25c1.89.14,4.35.32,2.06,0l-.76,0c-2.87-.39-10.87-1.14-9-1.15-4.4-.31-1.89,0,1.36.38-7.45-.86-11.65-1.12-19.32-1.93,1.22.17,2.33.41,1.11.3-11.25-1.09-5-.19-12.61-.78-4.33-.55,1.59-.3-6.11-.8-4.68-.52-1-.4.91-.34-7-.36-13.07-1.25-17.07-1.63l3.7.22c-2.21-.13-4-.28-5.86-.44l2.09.42a31.75,31.75,0,0,1-4-.48c-2.24,0,1.68.54-2.77.38-2.87-.37-8.8-.61-9.77-1,9.07.87-1-.4,6.71.19-1.48-.08-3.29-.24-5.46-.46-.32-.06.31,0,.91,0-8.67-1-4,0-13-.75,1.16-.08-2.06-.51-3.53-.59,3.63.31,1.71.44-1.63.29-5.76-.62-6.28-.42-9.31-.69l3.45.35c-1.18.08-4.07-.19-8.1-.47-.33-.17,3.66.21,2.23,0-4.49-.06-10.07-1.17-16.31-1.49-2.88-.36-.26-.35-2.79-.65-7-.34-7.54-.9-14.9-1.28,2.1.4,2.48.37-2.71.21q6,.36,12.08.8l-7.77-.29c3.64.28,7.69.49,9.87.71-3.7-.12-3.32-.15-1.59.2-5-.8-9.9-.6-15.64-1.28l.22-.58c-8.64-.92-15.42-.87-26.66-1.88l3.61.38c-1.53.12-7-.5-10.6-.68.35-.17-1.92-.42-3.46-.66.17.16-8.24-.64-9.29-.33l-5-.64c-9.08-.8-10.41-.23-19.14-1,2.64,0-1.31-.45,4.55-.16a49.37,49.37,0,0,0-5.59-.33c-1.7-.25-8.11-.35-10.78-.74a33.41,33.41,0,0,1-4.92-.1c-.35-.07,0-.1,0-.1s-5.13-.25-2.29.18c-8.93-1.33-25.11-1.81-32.9-2.89l-19.82-1.26c.37,0,0-.1,1.12,0-8-.75-4.95.22-14-.63-4.61-.65,4.83.17,2-.16-1.21-.74-11-.69-17-1.5l1.49.07c-4.65-.55-11.41-.57-19-1.15,0,0,.38,0,0-.1-5.23,0-15.11-.63-22.45-1.06,2.3-.09,3.34.1,2-.25-3.29-.2.93.47-5.64.09-2.12-.29-6.85-.73-7.46-1l6.19.41c-3.14-.57-8-.54-11.27-.82l.43-.13c-9.49-.59-9.65-.21-19.85-.93l1,.19c-5.6,0-4.66-.54-10.24-.63l-1.65-.51c-3.69-.15-12.91-.5-19.51-.87,3.76,0,11.48.34,16.27.49-3.64-.25-12.39-.82-14.3-.75,1.47.06,3.33.09,4.78.25q-6.75,0-17.65-.74c1.34-.68-18.92-1.49-24.15-2.44-12.87-.59-25.48-1.85-40.46-2.82,5.27,1-4.37-.27-3.49.4-3.49-.2-4.82-.3-5.13-.36l-10.54-1.08c-2.49-.34,3.33.09,3-.07-7.63-.56-3.18-.47-8.22-1,1,.28-2.68.13-7-.25l6.11.7c-10.7-.4-9.19-1.14-20-1.54l3.42,0c-5.53-.26-20.36-1.38-25.8-1.25-1-.14-2.25-.39.18-.27-13.18-.95-29.39-1.49-39.62-2.51l1-.08c-2.46-.12-4.3,0-7.37-.38.16,0,1-.08-.14-.17-1.3,0-6.55-.19-9.8-.5l2.79,0c-12.84-1.08-19.76-1-30.56-1.61.06-.43-10.05-1.28-15.09-1.7l.18,0c-15-1.1-25.47-1.39-39.35-2.26-8.57-1.11-29.14-2.35-43-3.64,2.11.23-.37.32-2.83.18-3.24-.33-9-.36-8.45-.73l1.16.1c-2.42-.58-9.1-1-14.31-1.36l-.9.46c-6.78-.88-15.71-1.47-23.87-2s-15.53-1.08-19.22-1.72c-3.29-.13-7.36-.46-10.63-.6l.2-.26c-9.1-.81-13.64-1.22-24.9-2.06l2.31,0c-6.35-.53-8.08.17-13.94-.29l-1.72-.56c-11.08-.89-22.26-2.17-33.23-2.68a7.37,7.37,0,0,1,2.31,0c-5.21-.38-20.12-2-18.28-1.29-.1-.39-11.41-1.08-17.4-1.46l.95-.19c-5.07-.1-5.24,0-12.3-.56-1.66-.19-1.44-.36.77-.09-5.55-.65-4.36-.13-11.08-.89l2.52,0a71.87,71.87,0,0,0-8.44-.48A101.67,101.67,0,0,1,406,78.34a51.9,51.9,0,0,1-7.3-.37c-.45-.14.78-.09,1.4-.06-9.55-1.06-14.26-1-20.81-1.84a3.1,3.1,0,0,0-1.1-.27c7.6.7,13.73,1.27,13.15,1.24,0-.26-6.11-.86-1.19-.77-4.95-.26-13.42-.6-19.39-1.27-.29,0-.57-.1-.78-.16l.62,0c-1.38-.15-2.62-.27-3.79-.34-1.9-.24-3.11-.4-4.94-.6-.68-.28-7-.84-10.07-1.17.22.3-3.78-.16,0,.46a22.52,22.52,0,0,1,2.61.23l1.31.11h-.21l7.6.77a74,74,0,0,1-8.33-.76c-1.59,0-3.33,0-4.31,0-4.15-.83-12.19-1.88-13.29-2.24-9.35-.81-22-2.18-27.93-2.27a19.92,19.92,0,0,1-4-.66c1.54.11,3.36.31,4.2.32-5.32-.42-15.73-1.59-17-1.35-6.67-.86,3.8.05-5.4-.85l1.25,0c-4.5-.62-8.6-1.06-12.52-1.42s-7.67-.63-11.47-1c-7.61-.7-15.46-1.46-25.42-3a20.7,20.7,0,0,1,2.35.41c-22.77-3.09-47-5.38-69.5-8.63-6.37-1-7.09-.88-11-1.26l-1.34-.49-6.7-.6c-9.48-1.09-16.25-3.06-28.27-4.29l1.51.42C121.57,46,112.24,44.83,113,44.7a16.57,16.57,0,0,1-3.1-.33l-.11-.18L99.2,43c-8.16-1.28,1.37-.44-10.55-2.17-4.45-.57-12.7-1.34-11.05-1a29.18,29.18,0,0,1,4.66.93l-4.06-.5c-.81.35-4,.38,5.91,2.12l7,.71,2.2.54-5.84-.82a56.54,56.54,0,0,0,7.78,1,18.84,18.84,0,0,0,2.87.66L105,45c.8.3-3.11-.08,1.45.67,3.22.25-3-.83,2.3-.22A32,32,0,0,0,115,46.5c.53.2-.3.16-1.85,0,3.49.35,9.18,1.25,11,1.26,3.42.75,11.72,1.59,11.32,2,1.1.05,6.16.53,9.35,1-5.9-.3,11.92,1.73,10.3,2.07,2.19.07,6.09.57,10.4,1.16,2.15.29,4.41.62,6.61.89s4.35.47,6.27.64a17.73,17.73,0,0,1-2-.15c4.3.56,5.53.85,8.29,1.28.6-.32,7.32.4,11,.6,5.23,1-3.26.07-1.65.63-.22-.35,9.21.79,7.45.31A40.59,40.59,0,0,1,207,59.23c.76-.4,3.76.37,7.15.48,5.81.95,1.45.64,7.88,1.27C225,61.5,219.31,61,219.31,61ZM372.24,76.87h0l-3.16-.28ZM385.11,78l-5.58-.51c-.45-.14.05-.2,1.35-.07C380.17,77.45,383.19,77.78,385.11,78Zm-27-4.57a17.52,17.52,0,0,1,3,.39l-3.56-.34h-.24A5,5,0,0,1,358.1,73.46Z"/><path class="cls-1" d="M354.4,73.45l-.84-.07,1.21.19h.73Z"/><path class="cls-1" d="M1521.66,166.83l-.27,0,.56.1Z"/><polygon class="cls-1" points="562.8 93.84 562.79 93.77 561.66 93.74 562.8 93.84"/><path class="cls-1" d="M1592.24,175.85a7,7,0,0,0,.92.18S1592.72,175.93,1592.24,175.85Z"/><path class="cls-1" d="M1622.73,179.69l4.3.64Z"/><path class="cls-1" d="M1646.16,182.74a1.76,1.76,0,0,0,.47-.06h0Z"/><path class="cls-1" d="M1272.44,144.7l-.91-.07C1269.4,144.51,1270.85,144.61,1272.44,144.7Z"/><path class="cls-1" d="M1383.88,153.8l-3.59-.21A14.63,14.63,0,0,0,1383.88,153.8Z"/><path class="cls-1" d="M1148,135.26h0l-.77-.06Z"/><path class="cls-1" d="M1375.11,153.09c2,.25,3.63.39,5.18.5C1378.66,153.42,1376.75,153.21,1375.11,153.09Z"/><path class="cls-1" d="M1747.57,196.94l1.12.17s.06,0,.15,0Z"/><path class="cls-1" d="M1748.84,197.09l1.25.14A10.82,10.82,0,0,0,1748.84,197.09Z"/><path class="cls-1" d="M1752.74,197.54l-2.65-.31C1751,197.36,1752.13,197.53,1752.74,197.54Z"/><path class="cls-1" d="M1716.63,192.36l-.37,0A.61.61,0,0,0,1716.63,192.36Z"/><path class="cls-1" d="M1707.22,191c2.24.34,5.6,1,8.74,1.41l.3,0C1714.77,192.35,1709.37,191.17,1707.22,191Z"/><path class="cls-1" d="M1668.1,184.22l4,.53,3.94.61c-1.37-.31-3.16-.71.43-.22-5-.88-4.44-.74-4-.58S1673.28,184.88,1668.1,184.22Z"/><path class="cls-1" d="M1643.61,181c4.25.48,0-.16.2-.19C1641.1,180.59,1640.45,180.54,1643.61,181Z"/><path class="cls-1" d="M1466.27,160.63l.45-.2C1463.44,160.11,1466.68,160.52,1466.27,160.63Z"/><polygon class="cls-1" points="1432.18 158.63 1435.36 159.09 1436.9 159 1432.18 158.63"/><polygon class="cls-1" points="1412.29 154.91 1413.72 155.01 1408.23 154.59 1412.29 154.91"/><path class="cls-1" d="M1113.5,130.22l1,.39C1116.7,130.71,1117.19,130.39,1113.5,130.22Z"/><path class="cls-1" d="M984.37,121.46a55.1,55.1,0,0,0-7.27-.6C980,121.08,982.89,121.4,984.37,121.46Z"/><polygon class="cls-1" points="597.22 93.97 599.83 94.05 594.93 93.78 597.22 93.97"/><path class="cls-1" d="M132.31,174.53c-.85.16-.35.31,2,.06l1.66-.49Z"/><path class="cls-1" d="M148.38,173.67c2.79-.42,6-1,4.15-1.13-2.74.57-3.43.5-6.38,1.15-2.37.26-4.16.28-3.77.12-.84.16-3.71.27-5,.59a87.37,87.37,0,0,0,11.13-1C149.43,173.42,148.58,173.59,148.38,173.67Z"/><path class="cls-1" d="M381.15,152.77l-1.51.1Z"/><path class="cls-1" d="M525.35,139.68a9,9,0,0,0-1.6.22A9.12,9.12,0,0,0,525.35,139.68Z"/><path class="cls-1" d="M550,137.78l-1.45.11C549.11,137.87,549.66,137.83,550,137.78Z"/><path class="cls-1" d="M381.15,152.77l3.86-.25A27.29,27.29,0,0,0,381.15,152.77Z"/><path class="cls-1" d="M180.4,169.92c-.8.09-1.47.18-2.08.28l2-.22Z"/><path class="cls-1" d="M317.61,158.88l-1.17.11-1,.22Z"/><path class="cls-1" d="M268.83,163.42a4.56,4.56,0,0,0,1.88-.56,16.17,16.17,0,0,1-2.39.41S268.46,163.37,268.83,163.42Z"/><path class="cls-1" d="M191.44,170.05l-1.37.16Z"/><path class="cls-1" d="M352.53,155.73a1.57,1.57,0,0,0,.45.06S352.8,155.74,352.53,155.73Z"/><path class="cls-1" d="M1716.71,28.08s0,0,0,.05C1717,28.08,1717.08,28.05,1716.71,28.08Z"/><path class="cls-1" d="M1773.38,24.26l-.78.09c-.08.06-.16.12-.16.17Z"/><path class="cls-1" d="M595.09,134h-.2C593.71,134.14,594.38,134.08,595.09,134Z"/><path class="cls-1" d="M1008.67,95.73c-4.71.18,7.59-1,.52-.66C1009.85,95.12,1002.81,96.1,1008.67,95.73Z"/><path class="cls-1" d="M181.67,169.84l2-.19C182.76,169.73,182.14,169.78,181.67,169.84Z"/><path class="cls-1" d="M1009.19,95.07h0l-.74,0Z"/><path class="cls-1" d="M698.88,124.27a8.41,8.41,0,0,0-1.07,0A6.3,6.3,0,0,0,698.88,124.27Z"/><path class="cls-1" d="M621.51,131l1.92-.14C622.67,130.89,622.05,130.94,621.51,131Z"/><path class="cls-1" d="M739,120.18c1-.07,1.4-.07,2.82-.24h-.44A21.35,21.35,0,0,1,739,120.18Z"/><path class="cls-1" d="M780.79,116.33l-.77,0-1.33.13Z"/><path class="cls-1" d="M1589.71,39.9a17.76,17.76,0,0,1,2,.08C1591,39.84,1597.13,39.2,1589.71,39.9Z"/><path class="cls-1" d="M180.44,170.07a5.32,5.32,0,0,1,1.23-.23l-1.39.14C180.16,170,180.14,170.08,180.44,170.07Z"/><path class="cls-1" d="M740.5,117.82l6.64-.57C745.28,117.39,742.87,117.6,740.5,117.82Z"/><path class="cls-1" d="M1289.88,67.53l1.52-.17C1290.81,67.41,1290.27,67.46,1289.88,67.53Z"/><path class="cls-1" d="M766.84,115.39c1.2,0,2.46-.07,3.76-.15.27,0,.58-.09.76-.14Z"/><path class="cls-1" d="M1591.67,40h0Z"/><path class="cls-1" d="M1635.35,35.29c-6.33.57-2.94.63-4.26,1-7.54.8-3.52.05-6.11.1-4.7.53-8.29,1.2-11.81,1.51-.27,0-1,0-.16-.15-5,.75-14.79,1.38-20.57,2.28a4.74,4.74,0,0,1-.77,0c1,.1,1.12.27.94.42a51.67,51.67,0,0,1-6.33.58,16.91,16.91,0,0,0,2.68-.42l-3,.38c-2.71-.1,4-.49,4-.75-5.78.65-12.51,1.56-17,1.87-1-.26,10.38-1.07,4.42-.83l6.89-.5c-5.31,0,4.17-.35-.7-.47-9.06.73-10.1,1.1-19.13,1.83-2,.37.7.22-1.32.59-12.79,1.52-10.17.08-19.55,1.4a49,49,0,0,1-10.06,1.35l2.25-.59c-8.76.77-4.95,1-14.14,1.6,1.62-.3,6.87-.76,5.54-.69-6,.25-4.18.61-8.75,1l-1-.26c-9.32.92-19.56,2.1-29.88,3.12.56-.16,2.32-.43-.1-.31-13,1.37-27.8,2.52-40.38,3.47l-4.77.74c-1.12.1-2.08.06-.88-.11-4.9.34-.24.21-2.58.54-2.78.27-3.69.17-1.93-.08-8.62,1-24.56,2.8-33.69,3.32l1.77-.25c-7.1.53-7.94,1.34-14.54,1.67l1.26-.17c-15.39,1.29-32.37,3.12-44.14,3.76-2.19.62-15.24,1.21-16.17,1.89-8.81.52-6.31.18-18.69,1.12-3.31.28-4.89.82-9,1.26l-.13-.3-5.51.83-3-.09-3.82.43a12.39,12.39,0,0,1,3,0,146.86,146.86,0,0,1-14.76,1l-14.14,1.57c.31-.16,2.67-.42,4.54-.67-7.53,1-1.4-.2-8.3.73.94,0-.48.23-.64.3-3.46.14-11.32.86-17.13,1.47l1.1-.31c-10.5.91-22.12,2.13-33.91,3.21,4.24-.29,3.3.17-.15.52l-1.41-.19c-2.22.4,3.62-.21-.94.45-4.41.37-3-.09-.48-.43l-5.34.6c-.32-.06.93-.23,1.25-.38-2.18.4-9.27.52-12.41,1.16l-.31-.07c-11.78,1.08-17.11,1.69-26.7,2.59-.16.29-3.92.58-6.76,1.07-7.06.56-14.91,1.06-23.4,1.86-6,.69-1.72.4-4.39.81-.46-.21-9,.59-4.56,0-10.2,1-13,1.25-25.9,2.65,1.41,0,3-.13,2.18,0a25.44,25.44,0,0,1-5,.23l.62-.09c-14.45,1.72-33.48,2.33-45,3.92l.64-.08-11.93,1.38c-5.5.46,3.29-.5-.8-.28-12.85,1.61-20.38,1.81-31,3.07-8.29,0-29.16,2.74-40.3,3.28l.65.12a46.87,46.87,0,0,1-5.59.37c.31.11,3.13-.13,1.35.13-24.27,2.45-50.16,4.36-75.07,6.49-9.12.79-5.09,1.39-16.61,2l3.23-.63c-18.35,2.09-37.59,3.45-55.55,5.44a23.43,23.43,0,0,1,2.84-.44,132.67,132.67,0,0,0-14.1,1.49c-2.8.23-.66-.12-2.4-.06-3.83.21-9.54,1.18-11.59,1.13a13.54,13.54,0,0,1,1.76-.26c-2.47.35-11.58,1-9.17,1.1-6.77.49-12.91,1.31-18.31,1.64-3.49.63-11.58.92-12.65,1.46.44-.5-11.87.72-16.13,1.33,1.42-.27-3.72.2-2.07-.15-4.87.46-9.33,1-8.45,1.11-9,.28-18,2.09-23.13,1.87-14.45,1.57-27.83,3-40.84,4.27.42-.49,14.39-1.37,13.78-1.79-12.33,1.32-19.42,2.36-31.68,3.38-3.18.23,1.78-.36,2.84-.53-12.32,1.32-23.86,2.15-34.82,3.41,0,0,1.21-.2,2.32-.34-2.16.21-5,.4-4.77.58l2.1-.25c3.48,0-8.54,1.41-8.91,1.6,3.62-.92-10.86.85-5.09-.42-1.42.17-3.2.43-2.86.53-2.12.16-2.8.14-.67-.21-7.74.82-5,.78-12,1.43,0-.1,1.43-.27,2.15-.46-3.54.52-7.1,1.05-13,1.51.35-.09-.35-.11,1.43-.27-10.2,1-17.33,2.11-28.53,2.95,3.26-.73-3.82.21-4.44-.1l-6,.66,2.43,0c-5.27.48-9.9,1.18-14.44,1.47l3.9-.51-9.86,1,5.6-.38c-5.31.69.61.42-6.41,1,1.43-.17-5.27.48-8,.52h0c-2.6.36-5.27.73-9.17,1-1,0,.78-.49.11-.5-2.54.54-12.33,1.22-15.55,1.85,1.07-.18,1.11-.38.75-.39l-2.13.45c-2.45.15-2.81.14-2.43-.05-7.34.63,2.38.26-6.35.85.68-.08.35-.09,1.77-.26-8.76.7-16.89,1.72-24.94,2.33-2.41-.15,7-.73,4.27-.8-11.58,1.14-24,2.66-35.18,3.6l2.09-.15c-1.5.67-8.38.51-14,1.28,1.39-.17,1.8-.46,1.43-.37-7.69.62-15.7,1.58-27.32,2.81l1.43-.26c-4.54.29-11.93,1-16.82,1.41-1.44.27-4.24.51-2.52.55-15.15.61-28.73,3.06-42.16,3.64,1.6-.14,3.8-.47,2.53-.35l-11.39,1.18a28.59,28.59,0,0,0,3.92,0c-1.43.26-4.64.67-7.46.93,5.11-.63-.08-.37-2.3-.29.37,0-.38.18-.18.23-6,.14-1,.56-9.11,1l.42-.16c-3,.34-5.83.76-9.11,1-1.38-.14,3.23-.42,3.41-.66-4.6.44-9,1.34-13.23,1.46,1.95-.26,4.76-.52,6.71-.77-4.57.1-5.09.23-8.47.49l.34,0-7.82.58,2-.1c-5.7,1.22-11.73,1.2-19.45,2.37,7.5-1.12,1.22-.36,1.77-.72-2,.1-5,.29-4.16.12-3.65.58-6.15.38-11.29,1.21-.25-.08-3.93.35-3.13,0-4.76.52,1.15.06.76.22-7.33,1-17.33,1.19-27.87,2.62-9.11,1-10.76,1.51-19.22,2.45-2.87.11,2.31-.57,2.31-.57-4.62.29-8.09.63-12.42,1.14.87-.16,0-.15-1.38-.14-3.48.35-2.3.57-6.91.85.78-.18,1.78-.45,3.45-.71-4.1.47-8.14,1-12.39,1.5-1.14-.07,2.55-.49,4-.74-4.77.51-12.37,1.29-13.82,1.69l3.08-.18c-1.74.17-.92-.15.36-.32,4.08-.58,5.92-.45,6.16-.37l-3,.34c3.17.28,12.16-1.21,18.26-1.74l-2.5.65,6.22-.92c1.34,0,2.27.13-.73.47,4.39-.2,3.85-.5,7.63-.62.42,0,.23,0-.15.09l4.26-.52c-.83.16.74.23-1.89.41,7.69-.47,12.33-1.45,15.25-1.4l-.64.08c10.62-1.11,1-.39,8.94-1.49l5.44.26,1-.4c1.1-.09,3.27-.27,2.88-.11,4.07-.58-.71-.07,1.64-.48,5.31-.21,14.56-1.47,15.79-1.1,1.88-.4-5.07.29.56-.39,1.65.37,6.51-.69,11.35-.89-1.45.4-6,.68-1.19.48,2.87-.73,9.41-.77,13.47-1.23.16-.38,8.84-1,15.65-1.71-.42.16,12.87-1,19.24-1.44l-.18.08c1.19-.48,7.75-1,12.52-1.53-.17.23-1,.4-3.6.74l4.49-.42c1.05-.21,2.44-.4,5.35-.71l-1.11.37c6-.56,12-1.42,19.7-2,.4-.29-6.18-.15,1.93-1.06.31.11.63.31-1.49.57.7-.09,2.48-.35,3.88-.42l-3.22.53c3.51-.22,1.81-.36,4.61-.59,0,.2,2.08-.06,1.7.14-.72.08-2.45.14-3.51.32,3.15-.26,7-.49,8.25-.46-.29-.09,0-.26,2.28-.5,6-.57,2.07.05,5.56-.17,1.43-.27,5.26-.48,5.33-.78a14.17,14.17,0,0,1,2.76,0c3.08-.41,14.43-1.36,10.92-1.36l-.79.06.5-.06h0c10.1-1.23,21.06-1.77,31.09-2.82v.1c6-.67,13.34-1.3,17.61-1.9,1.77-.17,4.2-.21,3.45,0,4.58-.5,5.08-.66,11.72-1.1-4.59.59,1.61,0-4.71.56,6-.47,7.33-.43,13.7-1.29-2.15.45,4.52-.1,7.34-.43l-4.19.2c3.18-.33,6-.56,8.8-.8l-1.5.47c12.23-.72,21.93-2.71,31.27-2.89,3.2-.53-6.64.45-3.78-.09,5.61-.47,11.5-.53,13.26-.69,7.7-.53,7.12-1.15,15.17-1.76-1,0-2-.25,4-.91,5.62-.48,7-.14,3.41.28a9.84,9.84,0,0,1-1.94.11c-1.81.21-4.19.48-2,.4l.71-.18c2.8-.14,10.52-.86,8.72-.5,4.23-.5,1.8-.36-1.35-.13,7.22-.5,11.25-1,18.67-1.6-1.18,0-2.28,0-1.11-.1,10.88-.86,4.77-.67,12.12-1.4,4.21-.2-1.46.57,5.94-.26,4.54-.3,1,.22-.8.48,6.73-.84,12.63-1,16.5-1.32l-3.55.42c2.12-.25,3.86-.41,5.64-.57l-2.06,0a30.38,30.38,0,0,1,3.83-.21c2.14-.35-1.68-.24,2.57-.85,2.8-.13,8.47-.91,9.46-.68-8.77.7,1,.22-6.41,1,1.43-.17,3.17-.33,5.27-.48.32,0-.29.09-.86.16,8.4-.49,3.82-.71,12.5-1.5-1.08.28,2,.15,3.46,0-3.5.32-1.7-.14,1.5-.57,5.58-.37,6-.66,9-.91l-3.33.24c1.11-.28,3.89-.51,7.77-.93.35.11-3.52.42-2.12.36,4.28-.71,9.77-.58,15.76-1.34,2.79-.14.3.31,2.75.16,6.71-.85,7.32-.43,14.38-1.27-2.06-.05-2.41,0,2.55-.65l-11.62,1.24,7.43-1c-3.51.32-7.4.83-9.5,1,3.54-.52,3.18-.43,1.48-.47,4.84-.08,9.51-1.08,15.09-1.35l-.12.6c8.38-.51,14.82-1.67,25.68-2.52l-3.5.22c1.43-.37,6.69-.65,10.2-1.07-.31.23,1.89.1,3.4.09-.19-.13,7.94-.72,8.89-1.21l4.87-.18c8.77-.7,9.94-1.48,18.37-2.19-2.52.45,1.32.23-4.31.91A43.8,43.8,0,0,0,731,121c1.65,0,7.77-1,10.37-1a30.32,30.32,0,0,1,4.7-.71c.35,0,0,.1,0,.1s4.93-.59,2.15-.55c8.72-.19,24.2-2.28,31.79-2.44,6.13-.63,13.51-1.38,19.08-1.9-.35.09,0,.1-1.06.17,7.69-.52,4.67-1,13.43-1.6,4.49-.09-4.63.6-1.83.47,1.27.53,10.54-1.06,16.46-1.23l-1.42.17c4.51-.19,11-1.25,18.3-1.88,0,0-.36.09,0,.1,5-.79,14.5-1.78,21.56-2.52-2.18.46-3.2.43-1.83.56,3.16-.32-1-.32,5.35-1,2.06,0,6.64-.35,7.27-.13l-6,.57c3.08.07,7.72-.73,10.86-1l-.38.19c9.13-.89,9.23-1.3,19.05-2.17l-1,0c5.33-.88,4.52-.19,9.85-1l1.66.24c3.53-.42,12.37-1.52,18.72-2.18-3.57.62-11,1.46-15.58,2,3.51-.32,11.93-1.12,13.74-1.49-1.41.17-3.18.43-4.58.5q6.42-1.07,16.93-2c-1.17.88,18.26-1.48,23.39-1.36,12.35-1.42,24.57-2.14,39-3.51-5.17-.12,4.21-.41,3.27-.93,3.35-.35,4.64-.46,4.94-.45l10.22-.57c2.42,0-3.19.43-2.87.54,7.36-.63,3.11,0,8-.32-1-.12,2.53-.54,6.73-.85l-5.93.27c10.24-1.27,8.93-.31,19.26-1.58l-3.26.49c5.31-.6,19.62-1.8,24.78-2.77,1,0,2.21,0-.13.3,12.71-1.1,28.24-3.13,38.14-3.74l-.95.24c2.37-.26,4.1-.66,7.09-.78-.15.07-1,.24.15.14s6.28-.84,9.43-1l-2.67.42c12.41-.95,19-2.16,29.36-3.22,0,.44,9.78-.32,14.66-.69L1161,82c14.44-1.27,24.49-2.61,37.84-4,8.34-.28,28.12-2.38,41.48-3.34-2,.1.3-.38,2.66-.64,3.14-.2,8.62-1.1,8.17-.65l-1.12.1c2.39.17,8.81-.52,13.84-1l.78-.6c13.2-.44,34.38-3.44,41.61-3.42,3.16-.42,7.09-.78,10.22-1.2l-.15.3c8.79-.74,13.18-1.11,24-2.17l-2.2.4c6.12-.55,7.66-1.52,13.3-2.06l1.74.26c10.68-1,21.53-1.61,32-3a7,7,0,0,1-2.19.4c5-.45,19.47-1.5,17.59-1.91.16.36,11-1,16.78-1.68l-.87.36c4.83-.8,5-.91,11.77-1.63,1.61-.12,1.43.09-.71.21,5.38-.35,4.15-.64,10.68-1.1l-2.41.4a67.2,67.2,0,0,0,8.1-1,94.14,94.14,0,0,1,11.32-.72,46.42,46.42,0,0,1,7-.93c.45,0-.73.22-1.32.3,9.25-.66,13.7-1.58,20.08-1.9a3,3,0,0,0,1.09.07c-7.34.67-13.25,1.2-12.7,1.13,0,.25,6-.25,1.27.54,4.74-.63,12.84-1.8,18.63-2.21.28,0,.56,0,.77,0l-.59.08c1.33-.1,2.52-.23,3.64-.38,1.85-.12,3-.2,4.8-.36.7.15,6.8-.51,9.76-.77-.27-.26,3.6-.57,0-.47a17.28,17.28,0,0,1-2.52.28l-1.26.14.2,0-7.34.7a67.51,67.51,0,0,1,8-.85c1.5-.32,3.15-.66,4.08-.83,4.08,0,11.9-.49,13-.35,9-1,21.25-2.06,26.87-3.11a18.65,18.65,0,0,1,3.93-.12c-1.47.19-3.23.34-4,.49,5.12-.61,15.2-1.45,16.39-1.93,6.48-.43-3.61.67,5.27-.21l-1.19.23c17.54-1,28.34-3.56,47.78-4.59a18.72,18.72,0,0,1-2.3.08c22.13-1.7,45.51-4.5,67.35-6a105.74,105.74,0,0,0,10.63-1.28l1.37.17,6.43-.94c9.15-1.1,15.95-.72,27.51-2.27L1726.4,29c4.17-.35,13.19-1.34,12.52-1a14.29,14.29,0,0,1,3-.38l.14.14,10.21-1.21c8-.62-1.18.74,10.41-.3,4.3-.45,12.22-1.58,10.59-1.54a28.44,28.44,0,0,1-4.59.17l3.93-.45c.67-.53,3.66-1.28-6-.72l-6.71.91-2.2,0,5.67-.53a52.72,52.72,0,0,0-7.53.8,17.5,17.5,0,0,0-2.84,0l-6.58,1.05c-.82-.11,2.94-.63-1.51-.33-3.08.49,3,.14-2.11.74a30.21,30.21,0,0,0-6.08.36c-.55-.07.25-.22,1.74-.41-3.35.45-8.9.88-10.62,1.29-3.38.05-11.36,1.11-11.07.64-1,.2-5.9.89-9,1.19,5.6-1-11.58,1-10.14.34-4.14.86-15.09,1.6-22.47,2.54a18.36,18.36,0,0,1,1.87-.26c-4.17.34-5.4.31-8.09.47-.5.44-7,1.13-10.46,1.69-5.14.09,3.06-.75,1.42-1,.29.29-8.85,1.13-7.08,1.24a40,40,0,0,1-5.43.06c-.64.55-3.63.41-6.84,1-5.68.28-1.5-.32-7.7.4C1629.84,36,1635.35,35.29,1635.35,35.29Zm-147.7,14.44h0l3-.3Zm-12.42,1.15,5.39-.49c.44.06,0,.2-1.27.31C1480,50.58,1477.09,50.79,1475.23,50.88Zm26.45-.48a15.29,15.29,0,0,1-2.9.19l3.43-.34.23-.06A4,4,0,0,1,1501.68,50.4Z"/><path class="cls-1" d="M1505.18,49.71l.81-.1-1.18,0-.69.15Z"/><path class="cls-1" d="M379.38,152.88h0Z"/><polygon class="cls-1" points="1303.7 66.12 1303.72 66.19 1304.8 66.03 1303.7 66.12"/><path class="cls-1" d="M310.9,158.22a5.46,5.46,0,0,0-.91,0S310.42,158.23,310.9,158.22Z"/><path class="cls-1" d="M281.34,160.87l-4.18.29C279,161.05,280.29,161,281.34,160.87Z"/><path class="cls-1" d="M258.61,162.82a1.74,1.74,0,0,0-.43.16h.05Z"/><path class="cls-1" d="M619.77,129.26l.88-.09C622.7,128.92,621.3,129.07,619.77,129.26Z"/><path class="cls-1" d="M512.35,139.8c1.13-.15,2.25-.31,3.44-.45A14,14,0,0,0,512.35,139.8Z"/><path class="cls-1" d="M739.77,117.88h0l.75-.06Z"/><path class="cls-1" d="M520.79,138.9c-1.92.12-3.52.28-5,.45C517.36,139.23,519.21,139.09,520.79,138.9Z"/><path class="cls-1" d="M160.14,171.76l-1.09.09s0,0-.13.05Z"/><path class="cls-1" d="M158.92,171.9l-1.21.15A9.75,9.75,0,0,0,158.92,171.9Z"/><path class="cls-1" d="M155.16,172.35l2.55-.3A25.41,25.41,0,0,0,155.16,172.35Z"/><path class="cls-1" d="M190.23,169.12l.33-.13A.54.54,0,0,0,190.23,169.12Z"/><path class="cls-1" d="M199.37,168.25c-2.19.18-5.49.29-8.53.63l-.28.11C192,168.7,197.31,168.61,199.37,168.25Z"/><path class="cls-1" d="M237.62,166l-7.66.63c1.35,0,3.12,0-.36.31C239.28,166.37,227.59,166.87,237.62,166Z"/><path class="cls-1" d="M261.38,164c-4.11.42.07.15-.15.23C263.83,163.86,264.46,163.78,261.38,164Z"/><path class="cls-1" d="M433,148.18l-.39.29C435.75,148.14,432.61,148.37,433,148.18Z"/><polygon class="cls-1" points="465.66 143.84 462.56 143.97 461.11 144.34 465.66 143.84"/><polygon class="cls-1" points="485.2 143.87 483.82 144.04 489.1 143.46 485.2 143.87"/><path class="cls-1" d="M773.38,117.26l-1-.22C770.26,117.29,769.84,117.69,773.38,117.26Z"/><path class="cls-1" d="M897.76,105.5a51.6,51.6,0,0,0,7-.54C902,105.19,899.19,105.33,897.76,105.5Z"/><polygon class="cls-1" points="1270.93 71.67 1268.44 72.01 1273.15 71.49 1270.93 71.67"/><g class="cls-2"><path class="cls-1" d="M138,187.17c-.85.17-.35.32,2,0l1.66-.51Z"/><path class="cls-1" d="M154.05,186.06c2.78-.46,6-1.09,4.13-1.2-2.73.62-3.42.56-6.36,1.25-2.37.3-4.16.34-3.77.18-.83.17-3.7.32-5,.67a88.14,88.14,0,0,0,11.11-1.14C155.09,185.8,154.25,186,154.05,186.06Z"/><path class="cls-1" d="M386.47,161.6l-1.5.13Z"/><path class="cls-1" d="M530.46,146.32a9.19,9.19,0,0,0-1.61.24A10.22,10.22,0,0,0,530.46,146.32Z"/><path class="cls-1" d="M555.08,144l-1.46.13A14.33,14.33,0,0,0,555.08,144Z"/><path class="cls-1" d="M386.47,161.6l3.86-.3A28.73,28.73,0,0,0,386.47,161.6Z"/><path class="cls-1" d="M186,181.82c-.8.1-1.47.21-2.08.31l2-.24A.42.42,0,0,1,186,181.82Z"/><path class="cls-1" d="M323,168.69l-1.17.13c-.34.07-.65.15-.95.23Z"/><path class="cls-1" d="M274.33,174a4.45,4.45,0,0,0,1.87-.59,16.86,16.86,0,0,1-2.39.45S274,173.93,274.33,174Z"/><path class="cls-1" d="M197.05,181.78l-1.37.19Z"/><path class="cls-1" d="M357.9,165a1.69,1.69,0,0,0,.45.05S358.17,165,357.9,165Z"/><path class="cls-1" d="M1720,16.53s0,0,0,0C1720.26,16.52,1720.35,16.49,1720,16.53Z"/><path class="cls-1" d="M1776.58,11.85l-.78.1c-.08.06-.16.12-.15.18Z"/><path class="cls-1" d="M600.1,139.56l-.2,0C598.72,139.74,599.39,139.66,600.1,139.56Z"/><path class="cls-1" d="M1013.05,95c-4.71.25,7.58-1.14.5-.66C1014.22,94.36,1007.2,95.45,1013.05,95Z"/><path class="cls-1" d="M187.28,181.72c.65-.07,1.32-.15,2-.21C188.36,181.59,187.75,181.66,187.28,181.72Z"/><path class="cls-1" d="M1013.55,94.33h0l-.73.06Z"/><path class="cls-1" d="M703.73,128.26a8.87,8.87,0,0,0-1.07,0A5.89,5.89,0,0,0,703.73,128.26Z"/><path class="cls-1" d="M626.47,136.16l1.92-.17C627.63,136.05,627,136.1,626.47,136.16Z"/><path class="cls-1" d="M743.78,123.56c1-.09,1.4-.09,2.81-.28h-.43A23.85,23.85,0,0,1,743.78,123.56Z"/><path class="cls-1" d="M785.51,119.07l-.77,0-1.32.15Z"/><path class="cls-1" d="M1593.16,30.29a17.25,17.25,0,0,1,2,.05C1594.45,30.21,1600.58,29.48,1593.16,30.29Z"/><path class="cls-1" d="M186.05,182a5.27,5.27,0,0,1,1.23-.26l-1.39.17C185.77,181.94,185.75,182,186.05,182Z"/><path class="cls-1" d="M745.24,121.17l6.64-.67C750,120.67,747.61,120.91,745.24,121.17Z"/><path class="cls-1" d="M1293.79,62.5l1.52-.2C1294.72,62.36,1294.18,62.43,1293.79,62.5Z"/><path class="cls-1" d="M771.55,118.34c1.19,0,2.45-.1,3.75-.21.27,0,.59-.1.76-.15Z"/><path class="cls-1" d="M1595.13,30.34h0Z"/><path class="cls-1" d="M1638.73,25c-6.32.67-2.93.68-4.24,1-7.53.91-3.52.1-6.11.19-4.7.6-8.27,1.33-11.78,1.69-.27,0-1,0-.17-.14-4.94.82-14.77,1.6-20.53,2.59a5.18,5.18,0,0,1-.77,0c1,.08,1.13.25.95.41a52.77,52.77,0,0,1-6.32.67,15.49,15.49,0,0,0,2.67-.46l-3,.43c-2.7-.06,4-.56,4-.81-5.77.73-12.48,1.74-16.93,2.12-1-.24,10.36-1.23,4.41-.89l6.88-.61c-5.31,0,4.17-.41-.71-.46-9,.87-10.08,1.25-19.1,2.12-2,.41.7.21-1.31.62-12.76,1.71-10.16.23-19.53,1.69a48.29,48.29,0,0,1-10,1.51l2.24-.63c-8.75.9-4.93,1.09-14.11,1.81,1.61-.32,6.85-.86,5.53-.76-6,.33-4.18.66-8.74,1.15l-1-.23c-9.3,1-19.52,2.4-29.82,3.56.56-.16,2.31-.45-.11-.3-13,1.57-27.76,2.94-40.32,4.09l-4.76.81c-1.11.11-2.08.09-.88-.1-4.9.41-.23.21-2.57.58-2.78.32-3.69.23-1.94,0-8.59,1.17-24.5,3.17-33.62,3.84l1.76-.28c-7.09.64-7.92,1.45-14.51,1.89l1.25-.19c-15.37,1.52-32.31,3.61-44.07,4.43-2.19.66-15.22,1.45-16.15,2.14-8.8.65-6.3.28-18.67,1.41-3.3.33-4.87.89-8.94,1.39l-.14-.29-5.5.91-3,0-3.82.49a12,12,0,0,1,3-.09c-6,.78-14.58,1.35-14.75,1.21l-14.1,1.77c.3-.15,2.66-.45,4.52-.73-7.51,1.12-1.4-.18-8.29.85.94,0-.48.24-.63.32-3.46.18-11.31,1-17.1,1.73l1.09-.33c-10.49,1.07-22.09,2.47-33.86,3.73,4.23-.35,3.3.12-.14.52l-1.42-.17c-2.2.44,3.62-.27-.93.47-4.4.43-3,0-.48-.43l-5.33.69c-.32-.06.92-.25,1.24-.41-2.17.44-9.26.67-12.39,1.36l-.31-.07c-11.76,1.26-17.08,2-26.66,3-.16.3-3.91.64-6.74,1.18-7,.66-14.89,1.28-23.37,2.22-6,.78-1.72.42-4.38.88-.47-.21-8.94.72-4.56.07-10.18,1.13-13,1.45-25.85,3,1.4,0,3-.17,2.18,0-2.34.3-5.33.47-5,.31l.61-.09c-14.41,1.93-33.43,2.84-44.89,4.61l.65-.1-11.91,1.56c-5.5.54,3.27-.55-.81-.27-12.83,1.81-20.35,2.13-30.92,3.55-8.29.13-29.12,3.18-40.25,3.89l.66.11a45.2,45.2,0,0,1-5.58.46c.31.1,3.12-.18,1.35.11-24.23,2.82-50.09,5.12-75,7.63-9.1.93-5.06,1.47-16.57,2.28l3.22-.68c-18.31,2.37-37.53,4-55.46,6.29a19.72,19.72,0,0,1,2.83-.48A131.2,131.2,0,0,0,815,114c-2.81.28-.67-.1-2.41,0-3.82.27-9.52,1.33-11.57,1.31a11.5,11.5,0,0,1,1.76-.28c-2.47.38-11.56,1.21-9.16,1.23-6.75.59-12.88,1.51-18.28,1.92-3.47.69-11.56,1.1-12.62,1.65.43-.5-11.87.91-16.11,1.58,1.42-.29-3.72.26-2.07-.11-4.86.53-9.31,1.09-8.44,1.23-9,.43-18,2.37-23.09,2.22-14.43,1.8-27.79,3.4-40.78,4.9.42-.5,14.37-1.59,13.76-2-12.31,1.51-19.39,2.66-31.63,3.87-3.17.27,1.78-.39,2.84-.58-12.3,1.5-23.83,2.52-34.77,3.94a22.18,22.18,0,0,1,2.32-.37c-2.16.24-5,.47-4.77.65l2.1-.28c3.48-.08-8.51,1.54-8.88,1.73,3.6-1-10.85,1-5.1-.34-1.42.19-3.19.48-2.85.58-2.12.18-2.8.18-.67-.21-7.73.94-5,.86-12,1.61,0-.1,1.42-.29,2.14-.48-3.53.57-7.08,1.15-13,1.7.35-.1-.35-.1,1.42-.29-10.18,1.12-17.3,2.38-28.48,3.39,3.25-.78-3.81.27-4.45,0l-6,.76,2.43-.08c-5.26.56-9.88,1.33-14.41,1.69l3.89-.57-9.85,1.13,5.59-.46c-5.3.76.63.41-6.39,1.06,1.42-.2-5.26.56-8,.63h0c-2.59.4-5.26.81-9.16,1.13-1,0,.77-.49.11-.5-2.54.58-12.31,1.41-15.53,2.09,1.08-.2,1.12-.4.75-.4l-2.12.49c-2.45.18-2.81.18-2.43,0-7.33.74,2.38.22-6.34.95.68-.09.35-.1,1.77-.29-8.75.84-16.86,2-24.9,2.71-2.41-.11,7-.84,4.26-.86-11.57,1.31-23.92,3-35.13,4.13l2.09-.18c-1.49.69-8.37.64-14,1.49,1.38-.18,1.78-.48,1.41-.39-7.68.74-15.66,1.82-27.27,3.23l1.43-.29c-4.53.37-11.91,1.21-16.8,1.68-1.44.29-4.23.56-2.51.58-15.14.85-28.68,3.5-42.1,4.29,1.59-.17,3.79-.53,2.52-.39l-11.36,1.35a27.28,27.28,0,0,0,3.91-.1c-1.42.29-4.62.74-7.44,1,5.1-.7-.09-.36-2.31-.25.38,0-.37.19-.18.24-6,.23-.94.57-9.09,1.16l.42-.16c-3,.39-5.81.85-9.09,1.16-1.39-.12,3.22-.47,3.4-.71-4.6.51-9,1.48-13.21,1.66,1.94-.28,4.75-.59,6.7-.87-4.57.18-5.09.31-8.46.62l.33,0-7.8.69,2-.13c-5.68,1.31-11.71,1.39-19.41,2.68,7.49-1.24,1.22-.39,1.76-.75-2,.13-5,.36-4.16.18-3.64.64-6.14.47-11.27,1.38-.24-.07-3.92.41-3.12.08-4.76.59,1.14,0,.76.21-7.31,1.12-17.31,1.45-27.83,3-9.09,1.17-10.74,1.68-19.18,2.75-2.87.15,2.3-.61,2.3-.61-4.62.36-8.08.75-12.4,1.33.87-.18,0-.15-1.38-.12-3.48.4-2.29.6-6.89,1,.77-.2,1.76-.48,3.43-.77-4.09.53-8.12,1.15-12.36,1.69-1.15,0,2.53-.53,4-.8-4.77.59-12.35,1.48-13.8,1.91l3.08-.24c-1.74.2-.92-.13.35-.32a23.35,23.35,0,0,1,6.16-.47l-3,.39c3.16.24,12.14-1.39,18.23-2l-2.5.69,6.21-1c1.34,0,2.27.09-.73.48,4.39-.27,3.85-.56,7.63-.74.41,0,.23,0-.15.09l4.25-.58c-.83.18.74.22-1.89.44,7.68-.59,12.31-1.64,15.23-1.64l-.64.1c10.61-1.28,1-.42,8.92-1.63l5.45.18,1-.42c1.09-.11,3.26-.32,2.88-.15,4.05-.65-.71-.06,1.63-.51,5.31-.29,14.53-1.69,15.77-1.34,1.87-.43-5.06.37.55-.4,1.66.35,6.5-.79,11.34-1.07-1.45.43-6,.78-1.18.5,2.86-.76,9.39-.91,13.44-1.43.16-.38,8.83-1.1,15.63-2-.42.16,12.85-1.18,19.21-1.73l-.18.08c1.19-.5,7.74-1.13,12.5-1.72-.17.24-1,.41-3.59.79l4.48-.48c1.05-.23,2.44-.45,5.34-.8l-1.1.39c6-.65,12-1.61,19.66-2.25.41-.3-6.17,0,1.92-1.09.31.1.64.3-1.48.59.7-.09,2.47-.38,3.88-.47l-3.22.58c3.5-.28,1.81-.39,4.6-.67,0,.2,2.08-.08,1.7.12-.71.09-2.45.18-3.51.37,3.16-.31,7-.6,8.25-.58-.29-.09,0-.27,2.28-.54,6-.66,2.06,0,5.55-.26,1.43-.29,5.25-.56,5.31-.86a14.77,14.77,0,0,1,2.77-.08c3.07-.46,14.41-1.58,10.9-1.52l-.8.06.51-.06h0c10.08-1.38,21-2.1,31-3.3v.1c6-.75,13.33-1.5,17.58-2.17,1.77-.19,4.2-.27,3.46-.07,4.57-.57,5.07-.73,11.7-1.28-4.58.67,1.61,0-4.7.63,6-.55,7.32-.54,13.68-1.49-2.15.48,4.51-.17,7.33-.55l-4.19.27c3.18-.38,6-.65,8.79-.94l-1.49.5c12.21-.91,21.88-3,31.22-3.37,3.19-.57-6.63.55-3.78,0,5.6-.56,11.49-.71,13.24-.9,7.69-.64,7.11-1.25,15.15-2-1,0-2-.21,3.94-1,5.61-.56,7-.25,3.42.23a9.1,9.1,0,0,1-1.95.14c-1.8.24-4.17.54-1.94.43l.72-.19c2.79-.18,10.5-1,8.71-.63,4.22-.57,1.79-.39-1.36-.12,7.21-.6,11.23-1.2,18.64-1.88-1.18.06-2.28,0-1.11-.08,10.87-1,4.76-.74,12.11-1.58,4.19-.27-1.45.59,5.93-.36,4.53-.36,1,.21-.8.5,6.72-1,12.62-1.2,16.48-1.58l-3.54.48c2.11-.28,3.85-.47,5.62-.66l-2,0a31.21,31.21,0,0,1,3.83-.27c2.13-.38-1.69-.21,2.55-.88,2.8-.18,8.46-1,9.45-.83-8.76.83,1,.21-6.4,1.06,1.43-.19,3.17-.38,5.27-.56.31,0-.29.09-.86.17,8.4-.62,3.81-.76,12.48-1.69-1.08.3,2,.12,3.46-.07-3.5.37-1.71-.11,1.49-.59,5.57-.46,6-.76,8.94-1.05l-3.33.29c1.11-.3,3.89-.57,7.76-1,.35.11-3.51.48-2.12.39,4.27-.77,9.76-.72,15.74-1.58,2.79-.18.3.3,2.75.12,6.71-1,7.31-.54,14.36-1.49-2.06,0-2.41.08,2.54-.68l-11.6,1.41,7.42-1.15c-3.51.38-7.38,1-9.49,1.13,3.53-.57,3.17-.47,1.47-.49,4.84-.16,9.5-1.23,15.07-1.58l-.1.6c8.36-.63,14.78-1.89,25.63-2.91l-3.49.27c1.42-.39,6.68-.75,10.18-1.22-.31.23,1.89.07,3.4,0-.2-.13,7.93-.84,8.87-1.34l4.87-.26c8.75-.83,9.92-1.63,18.33-2.47-2.51.49,1.33.22-4.29,1a43.38,43.38,0,0,0,5.36-.68c1.66,0,7.76-1.1,10.36-1.19a31.51,31.51,0,0,1,4.69-.78c.35,0,0,.09,0,.09s4.92-.66,2.14-.58c8.71-.32,24.16-2.64,31.75-2.92,6.11-.73,13.49-1.58,19-2.19-.35.09,0,.1-1.06.19,7.69-.64,4.65-1.07,13.4-1.81,4.5-.16-4.62.67-1.82.49,1.28.52,10.52-1.22,16.44-1.47l-1.42.19c4.51-.26,10.93-1.42,18.27-2.16,0,0-.35.09,0,.1,5-.87,14.46-2,21.51-2.85-2.17.49-3.19.48-1.82.59,3.16-.37-1-.31,5.33-1.06,2.07-.08,6.64-.45,7.27-.24l-6,.65c3.09,0,7.71-.84,10.85-1.11l-.38.19c9.12-1,9.21-1.43,19-2.46h-1c5.32-1,4.52-.26,9.84-1.12l1.66.22c3.53-.48,12.35-1.71,18.69-2.47-3.57.68-11,1.62-15.55,2.29,3.51-.37,11.91-1.31,13.72-1.7-1.41.19-3.18.48-4.58.57q6.4-1.16,16.9-2.28c-1.16.9,18.24-1.76,23.37-1.72,12.33-1.61,24.53-2.51,38.93-4.1-5.17,0,4.2-.47,3.25-1,3.35-.39,4.63-.52,4.94-.51l10.2-.73c2.43-.09-3.17.47-2.85.58,7.35-.75,3.11-.08,8-.44-1-.11,2.52-.58,6.71-.95l-5.92.35c10.23-1.42,8.92-.44,19.23-1.87l-3.25.54c5.3-.68,19.59-2.1,24.74-3.15.95,0,2.2,0-.13.3,12.7-1.29,28.19-3.55,38.08-4.31l-.94.25c2.36-.3,4.09-.72,7.07-.89-.15.08-.94.25.16.14s6.26-.94,9.4-1.19l-2.66.46c12.4-1.14,19-2.45,29.32-3.67,0,.44,9.77-.46,14.64-.91l-.17.08c14.42-1.5,24.44-3,37.77-4.6,8.33-.41,28.08-2.82,41.42-4-2,.14.3-.38,2.66-.67,3.13-.25,8.6-1.24,8.15-.78l-1.11.11c2.39.14,8.8-.65,13.82-1.18l.77-.62c13.19-.64,34.33-4,41.56-4.05,3.15-.47,7.07-.89,10.19-1.36l-.14.3c8.78-.87,13.16-1.31,24-2.54l-2.19.44c6.12-.64,7.63-1.64,13.27-2.26l1.74.23c10.67-1.15,21.5-1.94,32-3.45a6.89,6.89,0,0,1-2.19.44c5-.53,19.45-1.81,17.56-2.19.17.36,11-1.14,16.75-1.93l-.87.38c4.83-.88,5-1,11.75-1.82,1.61-.14,1.43.07-.71.23,5.37-.43,4.15-.71,10.66-1.26l-2.4.43a67.06,67.06,0,0,0,8.08-1.15,96.35,96.35,0,0,1,11.32-.89,47.51,47.51,0,0,1,7-1c.45,0-.73.23-1.32.33,9.24-.8,13.68-1.8,20-2.21a2.92,2.92,0,0,0,1.09.05c-7.33.78-13.23,1.4-12.68,1.32,0,.26,5.95-.33,1.28.53,4.73-.71,12.81-2,18.59-2.5.28,0,.56,0,.77,0l-.59.09c1.33-.12,2.52-.27,3.64-.43,1.85-.16,3-.25,4.79-.44.7.14,6.8-.61,9.75-.92-.27-.25,3.59-.62,0-.47a17.28,17.28,0,0,1-2.52.32l-1.25.16.2,0-7.34.8a69.09,69.09,0,0,1,8-1c1.5-.35,3.15-.71,4.08-.9,4.08,0,11.88-.67,13-.54,9-1.13,21.22-2.39,26.83-3.52a18.55,18.55,0,0,1,3.93-.19c-1.48.21-3.24.39-4,.56,5.11-.69,15.17-1.69,16.36-2.19,6.47-.52-3.6.73,5.27-.28l-1.19.24c17.52-1.29,28.28-4,47.71-5.31a17.5,17.5,0,0,1-2.3.11c22.1-2,45.43-5.19,67.25-7a105.8,105.8,0,0,0,10.6-1.45l1.37.15,6.42-1c9.13-1.23,15.94-1,27.48-2.69l-1.52,0c4.17-.41,13.17-1.54,12.5-1.23a15.27,15.27,0,0,1,3-.43l.14.15,10.2-1.37c7.94-.74-1.18.76,10.39-.46,4.3-.52,12.2-1.77,10.57-1.7a26.25,26.25,0,0,1-4.59.23l3.93-.5c.66-.54,3.63-1.34-6-.62l-6.7,1h-2.19l5.66-.62a53.51,53.51,0,0,0-7.52.91,18.1,18.1,0,0,0-2.85.06l-6.55,1.15c-.82-.1,2.92-.68-1.52-.3-3.07.53,3,.08-2.1.77a29.42,29.42,0,0,0-6.08.45c-.54-.06.25-.23,1.74-.44-3.35.5-8.89,1-10.6,1.45-3.38.1-11.34,1.29-11.06.81-1,.22-5.89,1-9,1.33,5.58-1.13-11.57,1.21-10.13.49-4.13.92-15.07,1.83-22.44,2.89a15.53,15.53,0,0,1,1.87-.29c-4.16.41-5.39.39-8.07.59-.5.45-7,1.23-10.44,1.85-5.14.17,3-.79,1.41-1,.29.29-8.83,1.27-7.07,1.34a38.44,38.44,0,0,1-5.42.15c-.63.56-3.62.47-6.83,1.12-5.67.36-1.5-.3-7.69.51C1633.23,25.75,1638.73,25,1638.73,25Zm-147.46,16.7h0l3-.34ZM1478.87,43l5.38-.57c.44,0,0,.2-1.26.33A39.76,39.76,0,0,0,1478.87,43Zm26.44-.88a15.67,15.67,0,0,1-2.9.23l3.43-.4.23-.06A3.93,3.93,0,0,1,1505.31,42.14Z"/><path class="cls-1" d="M1508.79,41.39c.29,0,.44-.07.81-.11l-1.18.07-.68.16Z"/><path class="cls-1" d="M384.71,161.75l.26,0-.55,0Z"/><polygon class="cls-1" points="1307.59 60.88 1307.61 60.95 1308.69 60.77 1307.59 60.88"/><path class="cls-1" d="M316.31,168.13a7.89,7.89,0,0,0-.91,0A7.91,7.91,0,0,0,316.31,168.13Z"/><path class="cls-1" d="M286.8,171.23l-4.18.35C284.43,171.45,285.75,171.33,286.8,171.23Z"/><path class="cls-1" d="M264.1,173.53a1.58,1.58,0,0,0-.43.17h.05Z"/><path class="cls-1" d="M624.71,134.46l.87-.11C627.63,134.07,626.24,134.25,624.71,134.46Z"/><path class="cls-1" d="M517.46,146.64c1.13-.17,2.25-.34,3.43-.5A12.91,12.91,0,0,0,517.46,146.64Z"/><path class="cls-1" d="M744.51,121.24h0l.74-.08Z"/><path class="cls-1" d="M525.88,145.61c-1.91.14-3.51.33-5,.53C522.46,146,524.31,145.82,525.88,145.61Z"/><path class="cls-1" d="M165.78,184l-1.09.1s0,0-.13.06Z"/><path class="cls-1" d="M164.56,184.13l-1.21.17A10.59,10.59,0,0,0,164.56,184.13Z"/><path class="cls-1" d="M160.81,184.64l2.54-.34A24,24,0,0,0,160.81,184.64Z"/><path class="cls-1" d="M195.82,180.87l.34-.14C196,180.77,195.85,180.82,195.82,180.87Z"/><path class="cls-1" d="M204.94,179.86c-2.17.21-5.48.37-8.51.76l-.27.11C197.57,180.43,202.9,180.25,204.94,179.86Z"/><path class="cls-1" d="M243.17,177l-7.66.74c1.35,0,3.12-.08-.35.32C244.83,177.37,233.14,178.06,243.17,177Z"/><path class="cls-1" d="M266.89,174.63c-4.1.49.07.15-.15.24C269.34,174.49,270,174.4,266.89,174.63Z"/><path class="cls-1" d="M438.22,156.22l-.38.3C441,156.15,437.86,156.42,438.22,156.22Z"/><polygon class="cls-1" points="470.83 151.39 467.73 151.56 466.29 151.95 470.83 151.39"/><polygon class="cls-1" points="490.38 151.12 489 151.31 494.27 150.65 490.38 151.12"/><path class="cls-1" d="M778.12,120.12l-1-.21C775,120.19,774.58,120.59,778.12,120.12Z"/><path class="cls-1" d="M902.3,106.45a50.31,50.31,0,0,0,7-.65C906.52,106.08,903.72,106.26,902.3,106.45Z"/><polygon class="cls-1" points="1274.91 66.93 1272.42 67.3 1277.12 66.71 1274.91 66.93"/></g></g></g></g></svg>