<svg xmlns="http://www.w3.org/2000/svg" viewBox="0 0 1920 1081"><defs><style>.cls-1{fill:#f5f0d2;}.cls-2{opacity:0.5;}.cls-3{fill:#3f51b5;}</style></defs><g id="Layer_2" data-name="Layer 2"><g id="sketch"><g id="bg"><rect class="cls-1" y="0.5" width="1920" height="1080"/><g id="lines" class="cls-2"><polygon class="cls-3" points="56.5 51.93 960 51.43 1863.5 51.93 960 52.43 56.5 51.93"/><polygon class="cls-3" points="56.5 103.36 960 102.86 1863.5 103.36 960 103.86 56.5 103.36"/><polygon class="cls-3" points="56.5 154.78 960 154.29 1863.5 154.78 960 155.28 56.5 154.78"/><polygon class="cls-3" points="56.5 206.21 960 205.71 1863.5 206.21 960 206.71 56.5 206.21"/><polygon class="cls-3" points="56.5 257.64 960 257.14 1863.5 257.64 960 258.14 56.5 257.64"/><polygon class="cls-3" points="56.5 309.07 960 308.57 1863.5 309.07 960 309.57 56.5 309.07"/><polygon class="cls-3" points="56.5 360.5 960 360 1863.5 360.5 960 361 56.5 360.5"/><polygon class="cls-3" points="56.5 411.93 960 411.43 1863.5 411.93 960 412.43 56.5 411.93"/><polygon class="cls-3" points="56.5 463.36 960 462.86 1863.5 463.36 960 463.86 56.5 463.36"/><polygon class="cls-3" points="56.5 514.78 960 514.29 1863.5 514.78 960 515.28 56.5 514.78"/><polygon class="cls-3" points="56.5 566.21 960 565.71 1863.5 566.21 960 566.71 56.5 566.21"/><polygon class="cls-3" points="56.5 617.64 960 617.14 1863.5 617.64 960 618.14 56.5 617.64"/><polygon class="cls-3" points="56.5 669.07 960 668.57 1863.5 669.07 960 669.57 56.5 669.07"/><polygon class="cls-3" points="56.5 720.5 960 720 1863.5 720.5 960 721 56.5 720.5"/><polygon class="cls-3" points="56.5 771.93 960 771.43 1863.5 771.93 960 772.43 56.5 771.93"/><polygon class="cls-3" points="56.5 823.36 960 822.86 1863.5 823.36 960 823.86 56.5 823.36"/><polygon class="cls-3" points="56.5 874.78 960 874.29 1863.5 874.78 960 875.28 56.5 874.78"/><polygon class="cls-3" points="56.5 926.21 960 925.71 1863.5 926.21 960 926.71 56.5 926.21"/><polygon class="cls-3" points="56.5 977.64 960 977.14 1863.5 977.64 960 978.14 56.5 977.64"/><polygon class="cls-3" points="56.5 1029.07 960 1028.57 1863.5 1029.07 960 1029.57 56.5 1029.07"/><polygon class="cls-3" points="56.5 0.5 960 0 1863.5 0.5 960 1 56.5 0.5"/><polygon class="cls-3" points="56.5 1080.5 960 1080 1863.5 1080.5 960 1081 56.5 1080.5"/></g></g></g></g></svg>