<svg xmlns="http://www.w3.org/2000/svg" viewBox="0 0 1731.86 280.89"><defs><style>.cls-1{fill:#4d4d4d;}.cls-2{opacity:0.3;}</style></defs><g id="Layer_2" data-name="Layer 2"><g id="sketch"><g id="sky"><path class="cls-1" d="M51.77,236.61c1.34,1.48.7.55-2.65-3.86-.88-1-1.72-2-2.55-3C48.19,232.09,50,234.37,51.77,236.61Z"/><path class="cls-1" d="M33.19,204.38c-2.93-5.79-6.07-12.62-4.7-8.62l3.21,6.55c.91,1.86,1.87,3.75,3.58,6.78,2.5,4.94,4.42,8.59,3.85,7.84,1,1.69,4.21,7.51,6,9.89-3.73-6.18-8.09-14.18-12.35-22.71C32,202.22,32.94,204,33.19,204.38Z"/><path class="cls-1" d="M360.34,11.26h0Z"/><path class="cls-1" d="M695,8.37c-2.54,0-3.61.08-3.74.11C693.65,8.43,695.59,8.4,695,8.37Z"/><path class="cls-1" d="M752.17,8.19H748.8C750.08,8.22,751.38,8.22,752.17,8.19Z"/><path class="cls-1" d="M360.34,11.26l8.94,0C369.9,11.18,364.7,11.25,360.34,11.26Z"/><path class="cls-1" d="M8.23,134.24c.46,1.82.85,3.33,1.24,4.7-.38-1.49-.74-2.94-1.12-4.43A2.57,2.57,0,0,1,8.23,134.24Z"/><path class="cls-1" d="M212.79,12.59l-2.71,0-2.26.14Z"/><path class="cls-1" d="M99.56,13.11a22.66,22.66,0,0,0,4.43-.4c-1.44.12-3.34.18-5.58.21C98.37,13,98.7,13,99.56,13.11Z"/><path class="cls-1" d="M4.33,109.12l.57,3.13C4.75,111.44,4.5,110.07,4.33,109.12Z"/><path class="cls-1" d="M293.84,12.11a8.48,8.48,0,0,0,1,.09A5.17,5.17,0,0,0,293.84,12.11Z"/><path class="cls-1" d="M173.46,267.25c.09,0,0,0,0-.05C172.79,267.32,172.6,267.37,173.46,267.25Z"/><path class="cls-1" d="M52.34,236.15l1.19,1.37c.17.11.33.23.37.2Z"/><path class="cls-1" d="M856.75,7.55h-.47C853.53,7.61,855.09,7.59,856.75,7.55Z"/><path class="cls-1" d="M1728.64,104.14c.5-5.39.31-1,.08,2.72-.12,1.86-.24,3.55-.22,3.76a35.68,35.68,0,0,0,.64-5.12C1729,107,1729.67,90.68,1728.64,104.14Z"/><path class="cls-1" d="M7.6,131.36c-.35-1.49-.7-3-1-4.53C7,128.9,7.35,130.29,7.6,131.36Z"/><path class="cls-1" d="M1729.14,105.5h0l.15-1.68C1729.23,104.52,1729.2,104.91,1729.14,105.5Z"/><path class="cls-1" d="M1097.7,5.22c-.49,0-1.45-.08-2.45-.1C1095.33,5.14,1095.88,5.18,1097.7,5.22Z"/><path class="cls-1" d="M918.19,6.41h0Z"/><path class="cls-1" d="M1190.9,4.07c2.42,0,3.24,0,6.54,0l-1,0C1195.24,4.07,1193.65,4.1,1190.9,4.07Z"/><path class="cls-1" d="M1287.92,3.37l-1.8-.05-3.07,0Z"/><path class="cls-1" d="M463.52,215.18c-2.12.17-3.45.23-4.48.27C460.55,215.47,446.41,217.23,463.52,215.18Z"/><path class="cls-1" d="M8.37,134.15a26.29,26.29,0,0,1-.77-2.79c.25,1.09.49,2.14.75,3.15C8.46,134.78,8.51,134.83,8.37,134.15Z"/><path class="cls-1" d="M1194.83,1.83l15.41-.08Z"/><path class="cls-1" d="M1156.39,231.66l-3.51-.42C1154.23,231.42,1155.47,231.58,1156.39,231.66Z"/><path class="cls-1" d="M1256,1.38c2.76.08,5.67.11,8.69.13.63,0,1.36-.05,1.79-.09Z"/><path class="cls-1" d="M459,215.45h0Z"/><path class="cls-1" d="M358.78,231.1c14.45-2.55,6.73-1.55,9.76-2.3,17.25-3.05,8-1.08,13.95-1.89,10.77-1.89,19-3.49,27.08-4.7.61,0,2.18-.23.35.11,11.39-2,34-4.84,47.33-6.75,1-.1,1.5-.12,1.76-.12-2.19.07-2.55-.07-2.12-.26,6.54-.78,12.11-1.64,14.6-1.68-4,.45-4.34.59-6.2.88l6.84-.89c6.21-.34-9.34,1.17-9.31,1.45,13.34-1.7,28.9-3.55,39.17-4.39,2.17.08-24,2.45-10.25,1.4-5.3.46-10.59,1-15.88,1.5,12.17-.76-9.63,1,1.56.38,20.87-2.07,23.32-2.58,44.18-4.21,4.68-.57-1.58-.15,3.11-.73,14.81-1.29,20.67-1.42,25.54-1.53s8.76-.13,19.67-1c5.64-.55,7.81-1.1,23.38-1.76l-5.28.68c20.3-1.12,11.55-1.2,32.81-2.39-3.76.41-15.93,1.23-12.86,1.06,13.78-.65,9.72-.89,20.3-1.62l2.21.19,33.74-2.78,17.61-1.49,17.85-1.36c-1.31.2-5.4.6.2.3,15.06-1.11,31.15-2,47.12-2.37l6-.18,6,0,11.78,0c7.78-.11,15.37.19,22.65.37l11.13-.08c2.59,0,4.79.29,2,.23,11.34.6.6-.17,6,0,6.45.27,8.52.55,4.42.46l17.69.61c3.31.09,6.75.32,10.26.53l10.69.67c7.19.48,14.42.88,21.15,1.45s13,1.19,18.23,1.72l-4.11-.27c8.18.77,12.82,1,17.3,1.28,2.24.14,4.45.25,7,.47s5.56.55,9.35,1l-2.91-.25c35.5,3.61,74.72,7.89,101.7,11.6,5.19.23,35,4.58,37.38,4.28,20.19,2.81,14.38,2.2,42.81,6.17,7.6,1,11.38,1.15,20.78,2.34l.19.33,12.8,1.38,6.74,1.27,8.83,1.08a69.11,69.11,0,0,1-6.91-1.13c6.9.83,15.29,2,22,2.95l8.4,1.25c2.11.33,3.4.55,3.49.6l8.15,1,8.17.92,16.33,1.81c-.74,0-6.21-.57-10.54-1,17.46,1.76,3.13.7,19.13,2.31-2.14-.32,1.17,0,1.54-.06,2,.27,4.61.64,7.63,1l10.07,1.12,21.82,2.28-2.6-.06c3,.32,6.1.67,9.21,1l9.44.88,19.44,1.77c6.58.64,13.28,1.08,20,1.62l20.36,1.58c-9.78-.87-7.5-1.05.5-.47l3.18.53c5.18.12-8.36-.66,2.28-.23,10.19.69,6.83.81,1,.54l12.42.68c.72.14-2.19,0-3,.08,2.55.06,7.9.48,13.53.91s11.56.66,15.24.68l.7.12c6.83.31,12.73.64,18.09.8l14.82.4c4.66.1,9.15.29,13.88.32l15.26.13c.43-.29,9.15-.06,15.79-.42,8.19-.08,16.83,0,25.89-.26l13.9-.38c4.74-.21,9.57-.5,14.5-.77l6.57-.47a5.16,5.16,0,0,0,1.41-.19c.06-.06-.84-.06,2.26-.4,1,.18,20.7-1.48,10.51-.45,3-.27,5.65-.44,8.14-.73l7-.79,6.34-.72c2.06-.24,4.09-.46,6.15-.79l13.61-2c2.57-.4,5.33-1,8.38-1.51l4.79-.88c1.67-.31,3.43-.61,5.26-1-1.6.31-3.31.57-4.39.72s-1.51.2-.58,0c2.68-.45,5.7-1.11,8-1.55a18,18,0,0,1,3.43-.56l-1.4.33c16.41-3.69,35.25-8.79,52.42-16.12a160.14,160.14,0,0,0,23.71-12.73,104.15,104.15,0,0,0,17.65-14.87c-.34.37-.66.77-1,1.11a100.7,100.7,0,0,0,16.45-22.6l1.62-3c.16-.3.28-.51.35-.66a1.83,1.83,0,0,1,.13-.21,4.84,4.84,0,0,1-.27.61l-.69,1.39c-1,2.1-2.32,4.57,0,.42a167.76,167.76,0,0,0,13.4-35.72,190.43,190.43,0,0,0,5.47-33.69,174.8,174.8,0,0,0,1.17-19.08,246,246,0,0,0-1.07-25.3c-1.63-17.79-5.38-36.19-10-48.49.14.5.27,1,.38,1.48-1.26-3.13-2.11-5-2.92-6.68-.41-.83-.82-1.62-1.32-2.46a14.2,14.2,0,0,0-2.14-2.76c.13.16.56.63,1,1.2A19.2,19.2,0,0,1,1717,6.3c.63,1.1.94,1.64-.24-.18A15.33,15.33,0,0,0,1715,3.87a5.68,5.68,0,0,0-2.79-1.76,7.74,7.74,0,0,0-1.53-.11l-1.33,0-2.66-.05L1696,1.72l-21.58-.45L1663.53,1C1659.9,1,1656.26,1,1652.62.9L1630.71.67l-44-.48L1543.07,0c-21.14-.06-12,.92-38.65.47L1512,.15c-21.33.2-43.14.31-64.84.36s-43.29.07-64.17.38c2.49-.09,2.56-.19,6.63-.21-4.41-.09-12.56-.05-19.64,0l-9.19.16-2.85.09a8.27,8.27,0,0,0-1.09.08c-6.51,0-1.51-.17-5.52-.24-8.85-.1-22.21.43-26.91.22-.8,0,2.48-.1,4.1-.12-5.76.15-26.86.12-21.34.37-15.68-.06-30,.29-42.49.23-8.16.37-26.84.05-29.43.5,1.12-.46-27.48-.16-37.39.12,3.31-.16-8.62-.07-4.74-.29-11.31.09-21.68.25-19.7.46-20.85-.39-41.89.78-53.62.18L1024.87,3.8c1.09-.47,33.41-.33,32.11-.79-28.67.42-45.21,1-73.65,1.11-7.36,0,4.18-.23,6.67-.33-28.65.45-55.39.46-80.88.94,0,0,.74-.05,1.76-.08l3.66-.09c-5,.06-11.68,0-11.11.24l4.89-.1c8,.22-19.94.8-20.84,1,8.52-.67-25.18.09-11.64-.78-3.31.07-7.45.21-6.69.34-4.91,0-6.47-.06-1.49-.26-18,.28-11.6.44-27.9.59,0-.1,3.34-.17,5-.3-8.25.27-16.55.54-30.32.59.83-.07-.77-.13,3.34-.17-23.67.25-40.33.9-66.29,1,7.66-.51-8.83-.06-10.21-.42l-13.95.25,5.6.12c-12.23.12-23,.49-33.54.47l9.08-.24-22.91.29,13,0c-12.37.31,1.33.46-14.94.51,3.3-.07-12.23.11-18.61,0h0c-6,.18-12.27.36-21.31.36-2.35-.1,1.89-.43.36-.5-6,.37-28.63.36-36.19.76,2.52-.1,2.65-.29,1.82-.33l-5,.3c-5.67,0-6.5,0-5.58-.22-17,.11,5.42.42-14.8.41,1.58,0,.82-.07,4.13-.14-20.31.09-39.23.53-57.89.58-5.51-.32,16.3-.24,10-.5-26.9.33-55.7,1-81.74,1.11h4.85c-3.6.56-19.39-.09-32.56.28,3.23-.07,4.23-.34,3.36-.27-17.83.07-36.46.46-63.47.85l3.35-.16c-10.51,0-27.68.15-39,.17-3.37.17-9.86.2-5.91.36-35-.49-66.76.95-97.82.48,3.72,0,8.85-.18,5.9-.16l-26.45.29c2.09.22,3.47.12,9,.26-3.34.16-10.81.31-17.36.35,11.89-.22-.11-.37-5.25-.47.87.07-.89.16-.46.23-13.82-.33-2.31.48-21.18.32l1-.13c-7.06.1-13.56.27-21.18.26-3.16-.26,7.52-.15,8-.37-10.69,0-21.1.57-30.78.34l15.62-.2c-10.54-.28-11.77-.2-19.6-.22h.77l-18.1-.08,4.61.07c-6.69.37-13.5.42-20.9.45s-15.36-.07-24.38.14c17.53-.39,2.9-.25,4.24-.54-4.6-.1-11.6-.21-9.6-.29-8.52.22-14.22-.23-26.25.1-.27-.05-2.54-.07-4.52-.08S31,11.5,32,11.31c-1.42.17-2.43.31-3.13.41s-1.07.26-1.22.3S28,12,29,11.8s2.29-.26,3.29-.29a6.49,6.49,0,0,1,1.46,0l-1.65.09c-.55,0-1.1.14-1.67.21s-1.13.13-1.7.25L27,12.48c-.29.07-.58.12-.87.2L25.3,13l-1.73.57a29.55,29.55,0,0,0-3.38,1.59A30.42,30.42,0,0,0,8.91,26.22a46.35,46.35,0,0,0-3.76,7.64,67.66,67.66,0,0,0-2.58,8.4,96.68,96.68,0,0,0-2.38,18,160.86,160.86,0,0,0,.52,23c.55,6.07,1.22,11.93,2.71,21.64.44,3.29.13,2-.27-.19l-.56-3.38c-.16-1-.27-1.76-.27-1.76a251.55,251.55,0,0,0,5,28.42c-.51-2-.17.09.43,3.12,1.9,7.88,1.53,5.2,4.12,15.56-.58-1.74-1.37-4-2.43-7.73,2.42,9.25,5.22,18.26,8.39,27.62.66,2.55-2.11-5.58-3.2-8.9,1.64,5.32,3.92,12.15,6.09,18s4.21,10.72,5,12.27c-.85-2.22-1.69-4.44-2.49-6.68,1.45,3.78.52,2-.59-.75-3.51-8.85-4.46-13-4.56-13.52.76,2.22,1.53,4.44,2.34,6.64-.95-3.5-3.25-10.17-5.6-17.74s-4.78-16-6.36-22.94l1.79,5.63c-1.27-4.66-2.49-9.35-3.6-14.07-.5-3-.73-5.16.78,1.67-1-5-1.42-7.18-1.83-9.2s-.79-3.88-1.39-8.2c-.11-1,0-.53.13.35-.57-3.25-1.1-6.51-1.56-9.78.34,1.91,0-1.67.83,4.36C1.31,86.09.6,75.19,1,68.5c0,.5,0,1,0,1.48,0-6.15.21-9.38.28-11s0-1.78,0-1.69-.15.35-.12-.55a69,69,0,0,1,.69-7.58A78,78,0,0,1,5.33,37.19c.15-.8.35-1.58.52-2.38.1-.3.23-.63.36-1l.46-1.09c.34-.74.63-1.52,1-2.16.67-1.29,1.16-2.19,1-1.74,4.64-8.19-1,1.26,1.69-3.5a31.62,31.62,0,0,1,7.13-7.58A26.71,26.71,0,0,1,27.66,13.1a37.81,37.81,0,0,1,9.48-.73,49.82,49.82,0,0,1,5.16.23c4.4-.22-11.73-.2,1.36-.33,3.73.53,15.13,0,26.33.21-3.44.27-14,.1-2.84.36,6.76-.44,21.81.18,31.26.08.22-.19,5.36-.24,12.42-.27l24-.12c-1,.12,29.84.12,44.58.17l-.43.07c2.85-.39,18.07-.41,29.14-.55-.43.22-2.43.32-8.43.45l10.42-.06c2.45-.14,5.7-.22,12.45-.3l-2.61.29c13.86-.1,27.9-.5,45.74-.42,1-.27-14.19-.63,4.67-.92.7.14,1.39.37-3.54.46,1.62,0,5.76-.16,9-.12l-7.53.29c8.12,0,4.24-.23,10.74-.26-.13.2,4.8.1,3.87.27-1.65,0-5.66,0-8.15.06,7.32,0,16.18,0,19.1.15-.64-.11,0-.27,5.36-.33,13.86-.13,4.75.2,12.83.24,3.36-.17,12.2-.1,12.43-.39,4.05,0,4.8.1,6.37.17,7.17-.19,33.5-.3,25.42-.55h-1.84l1.17,0h0c23.51-.47,48.84-.25,72.16-.58l0,.1c13.93-.24,31-.34,40.94-.64,4.11,0,9.72.09,8,.23,10.64-.17,11.83-.29,27.21-.27-10.7.27,3.69.12-11,.23,13.83,0,17,.08,31.81-.33-5,.3,10.42.22,17,.09L532,10l20.42-.19-3.54.37c28.3.14,51-1.17,72.58-.7,7.48-.3-15.37,0-8.68-.35,13-.08,26.59.27,30.66.23,17.84,0,16.64-.65,35.3-.7C676.3,8.53,674,8.23,688,8c13-.09,16,.34,7.79.51-3.12,0-4.63,0-4.5,0-4.21.08-9.73.19-4.57.27l1.69-.14c6.46.06,24.39-.13,20.18.11,9.84-.21,4.21-.24-3.09-.23,16.72,0,26.11-.24,43.31-.29-2.74,0-5.26-.16-2.53-.18,25.22-.1,11.1-.33,28.2-.55,9.71.09-3.48.47,13.72.15,10.51,0,2.23.29-1.94.43,15.67-.38,29.29-.13,38.24-.17l-8.25.17c4.93-.1,9-.14,13.1-.17l-4.72-.2h6.28a17.86,17.86,0,0,1,2.58.07c5-.2-3.82-.36,6.09-.67,6.46.06,19.68-.31,21.92,0-20.33.09,2.24.3-15,.51,3.32-.07,7.37-.11,12.23-.11.73,0-.69.07-2,.1,19.45.1,8.93-.44,29.09-.62-2.55.2,4.68.29,8,.22-8.12.07-3.89-.26,3.56-.47,12.93,0,14-.23,20.82-.27h-7.73c2.62-.2,9.08-.23,18.1-.37.77.13-8.19.17-5,.2,10-.4,22.61.12,36.56-.22,6.46.06.63.33,6.3.36,15.64-.38,16.94.09,33.37-.25-4.73-.2-5.56-.13,6-.47l-27,.41,17.34-.5c-8.16.07-17.21.3-22.09.31,8.26-.27,7.41-.2,3.5-.37,11.16.26,22.12-.41,35-.28l-.39.59c19.39.08,34.45-.6,59.63-.67l-8.09,0c3.37-.27,15.54-.17,23.69-.33-.75.2,4.34.23,7.83.33-.43-.15,18.42-.15,20.71-.56l11.24.17c20.33-.06,23.2-.77,42.74-.85-5.89.26,3,.33-10.09.58l8.65-.06a31.55,31.55,0,0,0,3.84-.13c3.82.1,18.09-.39,24.09-.25,2.75-.11,3.65-.32,11-.36.8,0,0,.1,0,.1s11.47-.22,5.06-.39c20.11.47,56.18-.46,73.68-.05l44.33-.4A11.75,11.75,0,0,1,1328,3c17.83.08,11-.63,31.26-.54,10.36.26-10.78.23-4.32.31,2.82.64,24.49-.22,38.15.08l-3.3.06c10.43.14,25.46-.35,42.52-.37,0,0-.83.06-.1.1,11.66-.37,33.74-.55,50.14-.69-5.1.27-7.45.16-4.33.4,7.35-.06-2.16-.4,12.52-.52,4.77.12,15.37.21,16.77.5l-13.85,0c7.1.32,17.93,0,25.22,0l-.93.15c21.22,0,21.52-.43,44.32-.38l-2.35-.12c12.46-.38,10.44.22,22.88-.06l3.76.4c8.22-.1,28.81-.19,43.56-.18-8.36.24-25.62.26-36.3.36,8.16.06,27.7.17,32,0-3.28,0-7.42.08-10.67,0,10-.24,23.17-.29,39.41-.17-2.88.56,42.33,1,54.09,1.81l2.69,0a2.82,2.82,0,0,1,.57,0l.17,0,.2.08a1.4,1.4,0,0,1,.43.23,2,2,0,0,1,.43.32,14.6,14.6,0,0,1,3,4,59.45,59.45,0,0,1,4.13,9.75,153.52,153.52,0,0,1,5.28,21.1,260,260,0,0,1,4.06,46.57c.26-5.91.3-3.48.3.18s-.14,8.54.19,7.52c-.22,7.78-.58,10.74-.64,11.43a219.59,219.59,0,0,1-3.47,23.28c-.63,2.72-.3.91.13-1.51a51.39,51.39,0,0,0,.73-5.1c-.66,4.19-1.19,6.7-1.54,8.31s-.54,2.28-.69,2.79c-.31,1-.41,1.35-1.85,6.77.74-2.19-1,5.85-4.29,14.92q2.41-6.35,4.3-12.91a126.8,126.8,0,0,1-4,13c-1.16,3.2-2.18,5.56-3.22,7.91-.53,1.16-1.07,2.33-1.66,3.59s-1.25,2.61-2,4.13c-1.53,3.06-3.5,6.85-6.62,11.9,1.34-2.11,2.49-4.35,3.68-6.55a97.19,97.19,0,0,1-16.92,22.79l-3,2.9-.75.72-.79.67-1.57,1.32-3.07,2.58-3.06,2.29-2.87,2.15-2.74,1.8c-1.73,1.14-3.22,2.2-4.49,3-1.94,1-4.52,2.23.17-.41-12.63,7.36-27.79,13.63-42.63,18.2l-5.52,1.72-5.49,1.45c-3.63.92-7.14,2-10.6,2.65l-9.94,2.13c-3.16.65-6.2,1.09-9,1.58l2.17-.54c-5.39,1-9.34,2-16.19,2.79.35-.11,2.17-.46-.35-.11l-9.18,1.46c-4.15.58-8.86,1.09-12.48,1.46l6.16-.86c-7.14.74-13.44,1.53-19.28,2l-8.42.77c-2.72.24-5.35.53-8,.68l-15.54,1.1c-2.63.2-5.32.31-8.1.42l-8.67.34a17.76,17.76,0,0,0-3.68-.16c-2.29,0-5.46.08-9,0l-21.17,0,.39-.07-23.49-.2c-3.69,0-7.29-.12-10.84-.19l-10.52-.23-10.4-.21-10.49-.4c-7.07-.29-14.35-.51-22.09-.92-4.8-.43-11.26-.91-18.74-1.43l-11.9-.83-12.92-1-13.47-1.08-6.79-.55-6.73-.64-25.25-2.47c4.7.5-.8.3-6.28-.23-7.21-.86-20-1.82-18.8-2.1l2.57.28c-5.39-1-20.25-2.39-31.81-3.85l-2,.3c-7.54-1.09-16.27-2.21-25.38-3.32l-27.61-3.54c-18.09-2.27-34.47-4.39-42.67-5.82l-23.59-2.88.42-.23c-20.19-2.8-30.29-4.05-55.31-7.12l5.13.44c-14.1-1.79-17.91-1.42-30.92-3l-3.87-.87c-24.64-2.8-49.52-6.22-74-8.2a34,34,0,0,1,5.14.33L916.25,200c-9.26-.84-16.56-1.37-14.47-.9a26.78,26.78,0,0,0-4.3-.54c-2.61-.25-6.21-.55-10.21-.87l-12.67-1-11.69-.66,2.1-.14c-11.31-.4-11.67-.35-27.43-1.29-3.74-.19-3.26-.39,1.7-.05-12.45-.75-9.72-.19-24.82-1l5.64.07c-12.82-.59-11.8-.51-18.87-.42-4,0-10.12-.16-15.43-.33l-7-.26c-1.92,0-3.29-.08-3.77-.14-1.73.17-8.75.43-16.32.41-1-.08,1.73-.16,3.12-.2h-7.56c-2.37,0-4.59.14-6.71.21l-11.56.49c-7.14.25-13.42.75-20.79,1a14.8,14.8,0,0,0-2.5,0c17-1.08,30.74-1.36,29.46-1.33,0-.25-13.78.17-2.84-.56l-9.55.51-11.22.8L696,195.37c-.65,0-1.29,0-1.78,0l1.39-.13c-3.09.19-5.86.42-8.46.65-4.28.25-7,.43-11.09.75-1.59-.09-15.74,1.13-22.58,1.64.59.24-8.37.88,0,.47-1.09.06,1.29-.13,5.84-.5l2.91-.26-.47.07,17-1.36c-5.4.57-11,1.13-18.61,1.57l-9.51,1.19c-4.7.17-11.56.54-17.57.87s-11.15.54-12.41.51L604,202.13l-17.38,1.1c-11.33.73-21.7,1.43-28.27,2.05-6,.39-6.85.26-9.08.31,3.43-.28,7.52-.51,9.37-.68-11.88.77-35.22,2.36-38,3-15,1.07,8.38-1.05-12.17.74l2.76-.36c-20.25,1.47-36.64,3.44-53.54,5.66l-56.62,7.8c3.09-.43,4.63-.64,5.27-.68-25.39,3.66-51.42,8.29-77.27,13.33S277.52,245,252.72,249.94c-14.1,2.88-15.57,3.43-24.13,5.38l-3.11.34L210.83,259c-10.41,2.17-19.51,3.66-29.32,5.1-4.9.71-10,1.42-15.52,2.11s-11.5,1.39-18.19,2c1.16,0,2.32,0,3.48-.08-4.82.41-12.45.94-18.69,1s-11.07-.26-10.25-.32c-.5,0-1.29,0-2.43-.05a41.22,41.22,0,0,1-4.49-.36l-.28-.19A104.64,104.64,0,0,1,92,263.73c-1.09-.38-2-.69-2.83-1l-2-.84c-1.13-.49-1.86-.77-2.29-1-.89-.48-.77-.51-.9-.65a10.45,10.45,0,0,0-2.31-1.29l-3.92-2.13c-1.71-1-3.94-2.33-6.65-4.26-1-.66-2.11-1.52-3.26-2.38s-2.32-1.81-3.49-2.79-2.31-2-3.4-3c-.55-.51-1.1-1-1.61-1.49l-1.46-1.49c-1.92-1.87-3.37-3.6-4.3-4.59s-1.24-1.31-.66-.58c2.53,3.12,6.76,7.73,6.93,8-2.18-2.12-4.28-4.33-6.24-6.66-.72-.47-2.3-2-1.93-1.22A26.69,26.69,0,0,0,54,239.63a81.1,81.1,0,0,0,8.22,8.71,80.16,80.16,0,0,0,12.93,9.11c1.39,1,2.89,1.79,4.35,2.67a82.57,82.57,0,0,1-11.34-7c1.48,1.17,2.92,2.12,4.23,3.05s2.63,1.6,3.85,2.31,2.45,1.26,3.63,1.85,2.41,1.06,3.63,1.61a18.83,18.83,0,0,0,2.35,1.17c1,.43,2.24,1,3.72,1.53a94.07,94.07,0,0,0,15.1,3.56c1.82.5-6.92-.88,3.32,1,7.22.81-6.82-1.34,5.08.13,3.73.53,5.06.69,6.55.83.74.07,1.53.16,2.68.2l4.88.1c1.24.13-.63.19-4.14.1,3.94.11,9.15.14,13.87,0,2.36-.07,4.59-.24,6.5-.35s3.45-.31,4.46-.44c2-.05,4.58-.31,7.4-.54s5.85-.6,8.59-1c5.51-.67,9.92-1.34,9.57-1l20.65-3.77c-6.42,1.4.21.27,8-1.18s16.76-3.25,15.12-2.63c9.44-2.35,34.31-7.34,51.07-11.17-.93.23-2.76.7-4.25,1,9.47-2,12.25-2.4,18.36-3.59,1.13-.65,15.87-3.81,23.78-5.64,11.7-2-7,1.87-3.24,1.49-.65-.21,20.14-4.36,16.13-3.82,8.95-1.53,7.69-1.39,12.34-2,1.47-.78,8.28-1.68,15.62-3.33,13-2.13,3.4-.17,17.56-2.85,3.39-.51,1.94-.18-.36.28Zm340.94-34.26h0l-7.06.52Zm28.76-1.72-12.48.69c-1,0,.07-.2,3-.36C717.4,195.6,724.19,195.28,728.48,195.12Zm-61,2.16c4.54-.39,6.07-.46,6.7-.45l-8,.66-.53.08C666.16,197.48,666.65,197.39,667.52,197.28Z"/><path class="cls-1" d="M659.37,198.29l-1.88.17,2.72-.15,1.6-.21Z"/><path class="cls-1" d="M356.25,11.25h.61l-1.28,0Z"/><polygon class="cls-1" points="1124.54 227.59 1124.51 227.51 1122.01 227.24 1124.54 227.59"/><path class="cls-1" d="M197.47,11.4c-.3,0-.9,0-2.08-.05Z"/><path class="cls-1" d="M128.89,11.63l-9.7-.07Z"/><path class="cls-1" d="M76.16,11.55a5.7,5.7,0,0,0-1,.12h.11Z"/><path class="cls-1" d="M914.54,4.56l2,0C921.35,4.43,918.1,4.48,914.54,4.56Z"/><path class="cls-1" d="M665.05,7.59l8-.21A71.2,71.2,0,0,0,665.05,7.59Z"/><path class="cls-1" d="M1193.14,1.83s0,0,0,0h0Z"/><path class="cls-1" d="M684.67,7.28c-4.44,0-8.15,0-11.6.1C676.72,7.37,681,7.35,684.67,7.28Z"/><path class="cls-1" d="M21.83,179.32l.88,2.39s.07.09.15.27Z"/><path class="cls-1" d="M22.86,182l1,2.63C23.43,183.4,23,182.34,22.86,182Z"/><path class="cls-1" d="M26.18,190.11c-.79-1.82-1.52-3.67-2.28-5.5C24.66,186.53,25.58,188.9,26.18,190.11Z"/><path class="cls-1" d="M3.74,111.85l-.24-.78A3.1,3.1,0,0,0,3.74,111.85Z"/><path class="cls-1" d="M.84,90.78c.46,5,1.22,12.69,2.47,19.66l.19.63c-.36-1.62-.92-5.5-1.42-9.56S1.16,93.17.84,90.78Z"/><path class="cls-1" d="M27.36,13.52a26.83,26.83,0,0,0-8,3.31,28.07,28.07,0,0,0-6.51,5.79l.77-.87.8-.77c.5-.47.9-.83,1-.95s.06,0-.4.51a36.46,36.46,0,0,0-2.56,2.94c.44-.53.85-1,1.24-1.47l1.15-1.17a20,20,0,0,1,1.91-1.71l.73-.62.63-.43.83-.59c.77-.55.32-.27-.13,0s-.87.49,0-.16a18.08,18.08,0,0,1,2.51-1.57c.65-.37,1.5-.68,2.47-1.13.49-.21,1.05-.35,1.64-.55A13.42,13.42,0,0,1,27.36,13.52Z"/><path class="cls-1" d="M82.29,13c-9.55,0,.12.16-.39.22C88,13.09,89.43,13.07,82.29,13Z"/><path class="cls-1" d="M480.6,10.39l-1,.26C487,10.55,479.72,10.55,480.6,10.39Z"/><polygon class="cls-1" points="556.73 8.36 549.57 8.27 546.16 8.54 556.73 8.36"/><polygon class="cls-1" points="601.73 9.76 598.51 9.83 610.79 9.62 601.73 9.76"/><path class="cls-1" d="M1270.66,3.73l-2.23-.29C1263.46,3.53,1262.42,3.89,1270.66,3.73Z"/><path class="cls-1" d="M1559.44,2.36c3.15.16,11.27.27,16.28.12C1569.23,2.45,1562.75,2.32,1559.44,2.36Z"/><polygon class="cls-1" points="1200.82 234.93 1206.6 235.51 1195.72 234.31 1200.82 234.93"/><g class="cls-2"><path class="cls-1" d="M56.82,247.18c1.29,1.51.58.64-2.7-3.76-.82-1-1.6-2-2.37-3.1C53.33,242.69,55.05,245,56.82,247.18Z"/><path class="cls-1" d="M38.29,215.36c-2.83-5.79-5.79-12.62-4.31-8.71,1.34,2.9,2.16,4.71,3,6.55s1.8,3.74,3.4,6.79c2.45,4.91,4.39,8.5,3.89,7.72.92,1.71,4.17,7.44,5.88,9.86A254.42,254.42,0,0,1,38,215C37.2,213.18,38.06,215,38.29,215.36Z"/><path class="cls-1" d="M360.77,20.22l-3.45,0Z"/><path class="cls-1" d="M692.57,15.24c-2.52,0-3.58.08-3.71.1C691.21,15.29,693.14,15.25,692.57,15.24Z"/><path class="cls-1" d="M749.23,14.56l-3.34,0C747.16,14.59,748.44,14.58,749.23,14.56Z"/><path class="cls-1" d="M360.77,20.22l8.86-.07C370.25,20.08,365.09,20.17,360.77,20.22Z"/><path class="cls-1" d="M14,145.68c.45,1.81.81,3.31,1.19,4.67-.39-1.47-.73-2.91-1.09-4.39Z"/><path class="cls-1" d="M214.5,22.3l-2.7,0-2.24.09Z"/><path class="cls-1" d="M102.23,23.35a43.48,43.48,0,0,0,4.4-.22c-1.43.07-3.31.1-5.54.13A5.76,5.76,0,0,0,102.23,23.35Z"/><path class="cls-1" d="M9.6,120.9l.55,3.11C10,123.21,9.76,121.84,9.6,120.9Z"/><path class="cls-1" d="M294.85,21.31c.19,0,.59,0,1,0a.9.9,0,0,0-.28,0Z"/><path class="cls-1" d="M177,277.38c.09,0,0,0,0,0C176.3,277.46,176.1,277.5,177,277.38Z"/><path class="cls-1" d="M57.1,247l1.17,1.38c.15.13.29.26.31.24Z"/><path class="cls-1" d="M852.9,13.19h-.46C849.72,13.25,851.26,13.22,852.9,13.19Z"/><path class="cls-1" d="M1717.79,114.55c.34-5.37.2-1,0,2.7s-.44,6.71.25-1.37C1717.94,117.38,1718.53,101.16,1717.79,114.55Z"/><path class="cls-1" d="M13.39,142.84c-.33-1.48-.7-3-1-4.49C12.81,140.4,13.14,141.78,13.39,142.84Z"/><path class="cls-1" d="M1718,115.88h0l.12-1.67C1718.08,114.9,1718.05,115.29,1718,115.88Z"/><path class="cls-1" d="M1091.79,9.86c-.49,0-1.44,0-2.44,0C1089.44,9.85,1090,9.86,1091.79,9.86Z"/><path class="cls-1" d="M913.82,12l4.41,0Z"/><path class="cls-1" d="M1184.19,8.62l6.48-.06h-1C1188.49,8.58,1186.92,8.61,1184.19,8.62Z"/><path class="cls-1" d="M1280.37,7.71h-1.77l-3,0Z"/><path class="cls-1" d="M464.48,225.36c-2.1.2-3.4.31-4.42.38C461.54,225.66,447.52,227.39,464.48,225.36Z"/><path class="cls-1" d="M14.1,145.62c-.17-.54-.38-1.34-.71-2.78.24,1.08.49,2.11.74,3.12C14.21,146.23,14.24,146.28,14.1,145.62Z"/><path class="cls-1" d="M1188.09,7.47l15.28-.14Z"/><path class="cls-1" d="M1151.52,242l-3.48-.44Z"/><path class="cls-1" d="M1248.72,6.88l8.61,0,1.77-.06Z"/><path class="cls-1" d="M460,225.75h0Z"/><path class="cls-1" d="M360.59,241.08c14.33-2.56,6.7-1.37,9.72-2,17.12-3,7.95-1.22,13.79-2.12,10.7-1.84,18.89-3.28,26.89-4.49.6-.06,2.16-.28.34,0,11.32-1.9,33.7-4.83,46.95-6.57,1-.11,1.49-.15,1.74-.16-2.16.16-2.5.12-2.07,0,6.48-.77,12-1.52,14.47-1.68-4,.45-4.3.54-6.15.79l6.79-.83c3.07-.24.75,0-2.33.37l-4.62.56-1.66.21a3.26,3.26,0,0,0-.65.12c13.24-1.65,28.69-3.36,38.87-4.24,2.13-.08-23.78,2.39-10.19,1.19-5.25.48-10.5,1-15.74,1.57,12-1-9.55,1,1.52.11,20.69-2.12,23.14-2.5,43.82-4.18,4.65-.47-1.55,0,3.1-.49,14.7-1.2,20.5-1.44,25.33-1.65s8.67-.31,19.49-1c5.6-.44,7.76-.78,23.19-1.56l-5.24.5c20.12-1.14,11.46-.94,32.53-2.26-3.74.34-15.8,1.17-12.75,1,13.65-.8,9.64-.78,20.12-1.51H630L663.48,210,681,208.58l17.71-1.31c-1.31.14-5.37.49.18.14l5.65-.42,5.73-.34,11.65-.67,5.9-.32,5.93-.2,11.89-.4,5.93-.18,5.91,0,11.68-.06c7.72-.13,15.26.17,22.47.31l11,.07c2.57,0,4.76.26,2,.14,11.25.57.59-.07,6,.12,6.39.28,8.45.47,4.39.33l17.54.7c3.28.1,6.69.38,10.17.59l10.6.7,10.65.71c3.52.24,7,.45,10.32.77l18.08,1.65-4.07-.31c8.11.74,12.7,1.07,17.14,1.39,2.22.17,4.41.31,7,.56s5.51.56,9.27,1l-2.89-.27c35.21,3.55,74.08,8,100.85,11.47,5.12.44,34.74,4.49,37,4.48,20,2.67,14.28,2,42.48,5.9,7.53,1,11.25,1.32,20.57,2.54l.21.19,12.66,1.54,6.71,1.08,8.74,1.12c-3.48-.47-7.39-1-6.85-1,6.83.87,15.14,2,21.79,2.92l8.33,1.18c2.1.3,3.39.5,3.47.53l8.08,1,8.09.94,16.18,1.88c-.72,0-6.14-.65-10.43-1.13,17.29,1.92,3.12.54,19,2.3-2.12-.29,1.16,0,1.52.06,3.93.55,10.4,1.27,17.55,2l21.62,2.31-2.56-.17c6,.69,12.18,1.25,18.48,1.84l19.27,1.79,4.91.46,5,.38,10,.79,20.18,1.57c-9.7-.79-7.45-.79.48-.22l3.16.37c5.13.23-8.29-.59,2.24,0,10.11.67,6.79.62,1,.3l12.3.73c.72.1-2.17-.06-2.92-.05,2.52.11,7.83.49,13.41.88s11.46.61,15.1.7l.7.08c6.77.3,12.61.66,17.92.79l14.69.42c9.23.33,17.83.35,28.87.47.22-.07,2.49-.07,5.52-.06s6.85-.1,10.14-.17c8.11-.07,16.68,0,25.65-.38l13.78-.42,14.36-.8,6.51-.43a10.27,10.27,0,0,0,1.4-.16c.06,0-.83,0,2.25-.29,1,0,20.49-1.6,10.4-.67,5.85-.43,10.63-1.06,15-1.53s8.28-.87,12.37-1.53l13.48-2,8.29-1.52c3-.58,6.33-1.07,10-1.93-3.15.68-6.74,1.23-4.9.87,1.33-.22,2.74-.52,4.1-.82l3.79-.8c2.25-.47,3.75-.76,3.38-.65l-1.39.32c16.25-3.67,34.88-8.88,51.73-16.41a158.93,158.93,0,0,0,23.22-12.92,103.71,103.71,0,0,0,17.2-14.9l-1,1.12a101.29,101.29,0,0,0,16-22.46c.75-1.4,1.26-2.34,1.56-2.95l.33-.66.12-.21s-.1.23-.27.59-.41.87-.68,1.38c-1.06,2.06-2.31,4.5-.07.36a150.39,150.39,0,0,0,8-18.64c2.06-5.84,3.67-11.34,5-16.73a193.41,193.41,0,0,0,5.07-33.36c.43-4.72.79-11.3.74-18.9s-.48-16.22-1.42-25c-1.85-17.56-5.81-35.71-10.27-47.79.15.48.3,1,.43,1.43-1.17-3.11-2-5-2.7-6.6a25.48,25.48,0,0,0-3-5.14,26.79,26.79,0,0,1,1.83,2.92c.55,1.08.83,1.62-.18-.21a21.83,21.83,0,0,0-1.47-2.26,6.64,6.64,0,0,0-2.08-2,20.87,20.87,0,0,0-5.22-1.51c-3.5-.64-7-1-10.56-1.39-7.07-.69-14.19-1.15-21.36-1.54-14.32-.76-28.78-1.24-43.29-1.64-29-.78-58.22-1.19-86.88-1.43-21-.14-11.9.38-38.33.07l7.51-.14c-42.31,0-86.51-.06-127.92.31,2.47,0,2.54-.1,6.58-.12-4.37,0-12.46,0-19.47.06l-9.12.1-2.82.06c-.68,0-1.07,0-1.08,0-6.45,0-1.5-.08-5.47-.11-8.78,0-22,.3-26.69.21-.79,0,2.47,0,4.07-.07-5.72.09-26.64.17-21.16.27l-42.13.33c-8.08.22-26.61.16-29.17.41,1.11-.24-27.25.08-37.08.29,3.29-.1-8.54,0-4.69-.12-11.22.12-21.49.28-19.54.37-20.66,0-41.52.69-53.16.48l-94.1,1.43c1.07-.24,33.12-.45,31.83-.67-28.43.45-44.82.86-73,1.19-7.3.07,4.14-.15,6.61-.22l-80.19,1.21,1.75,0,3.63-.09c-5,.08-11.59.14-11,.23l4.85-.1c8,0-19.77.6-20.66.69,8.45-.42-25,.29-11.54-.28-3.28.07-7.39.18-6.64.23-4.86.06-6.41,0-1.47-.11-17.84.32-11.5.33-27.67.57,0,0,.86-.06,1.89-.09l3.1-.11c-8.18.21-16.4.43-30.06.59a19.12,19.12,0,0,1,3.31-.11c-23.46.36-40,.85-65.71,1.15,7.59-.33-8.76.06-10.12-.1L724.63,14h5.56c-12.13.18-22.84.48-33.26.58l9-.21-22.71.38,12.85-.13c-12.26.29,1.32.22-14.81.42,3.27-.07-12.13.18-18.45.17h0c-6,.15-12.16.31-21.12.4-2.33,0,1.87-.23.35-.25-5.91.25-28.39.48-35.88.77,2.5-.08,2.63-.18,1.81-.19l-5,.2c-5.62,0-6.44,0-5.53-.05-16.89.24,5.37.15-14.68.36l4.1-.11-57.4.91c-5.46-.1,16.17-.3,9.92-.36-26.68.45-55.23,1.08-81.05,1.43l4.81-.06c-3.57.32-19.22.17-32.27.49,3.19-.07,4.19-.21,3.32-.17-17.68.22-36.14.61-62.92,1.08l3.32-.11L336,20c-3.34.11-9.78.19-5.86.24-34.71.1-66.19,1.11-97,1.17,3.68-.05,8.78-.17,5.85-.14l-26.22.38c2.07.09,3.43,0,8.94.06-3.31.1-10.72.25-17.21.32,11.79-.21-.11-.19-5.2-.19.85,0-.89.08-.46.11-13.7-.05-2.3.26-21,.32l1-.07c-7,.11-13.45.25-21,.3-3.13-.1,7.45-.13,7.93-.24-10.6.11-20.92.45-30.51.39l15.48-.21c-10.45-.06-11.66,0-19.43,0h.77l-18,.06h4.57c-13.27.44-27,.23-44.89.49,17.37-.25,2.87-.13,4.2-.28-4.56,0-11.5-.08-9.52-.12-8.45.12-14.11-.1-26,0-.26,0-2.51-.08-4.5,0a22.9,22.9,0,0,0-2.43.19c-.55.05-.72.05-.25,0a22.05,22.05,0,0,0-3,.57,10.16,10.16,0,0,0-1.18.3c-.27.09.35-.11,1.3-.28l1.58-.33c.56-.08,1.12-.13,1.61-.19A10.28,10.28,0,0,1,37,22.73a28.91,28.91,0,0,0-13.06,4.33,31.09,31.09,0,0,0-5.78,5,39.92,39.92,0,0,0-4.58,6.6,59.67,59.67,0,0,0-5.69,16A106.91,106.91,0,0,0,5.71,72.48c-.26,5.26-.16,9.45-.06,13.07.07,1.81.13,3.48.24,5.08s.2,3.11.33,4.61c.52,6,1.12,11.83,2.59,21.46.47,3.26.22,1.94-.15-.2s-.79-5.1-.79-5.1c1.37,10.53,2.85,18.39,5,28.15-.47-2-.07.08.56,3.06,1.87,7.81,1.35,5.2,4,15.45-.51-1.74-1.22-4-2.21-7.71,2.34,9.17,5,18.13,8.12,27.43.72,2.49-2-5.58-3-8.88,1.6,5.27,3.84,12,5.95,17.85S30.36,197.41,31,199c-.84-2.2-1.69-4.39-2.5-6.6,1.42,3.75.62,2-.44-.79-3.38-8.82-4.44-12.86-4.59-13.38.74,2.21,1.49,4.41,2.28,6.59-1.07-3.42-3.32-10-5.61-17.57S15.59,151.29,14,144.45c.53,1.88,1,3.77,1.58,5.64-1.21-4.64-2.37-9.3-3.4-14-.14-.75-.28-1.44-.36-2a5.52,5.52,0,0,1-.11-.86,5.79,5.79,0,0,1,.25,1c.16.71.41,1.85.79,3.54-1-4.93-1.43-7.11-1.83-9.12s-.76-3.85-1.42-8.12c-.13-.94-.06-.51.1.35-.55-3.22-1-6.46-1.52-9.7.32,1.9-.08-1.64.73,4.34C6.4,98.07,5.9,87.25,6,80.62l0,1.47c0-6.11.14-9.32.22-11s.07-1.76,0-1.67-.08.36,0-.53c0-.45,0-1.19.15-2.38,0-.6.12-1.32.19-2.17s.22-1.83.35-3a87.23,87.23,0,0,1,2.93-12c.19-.78.34-1.57.56-2.34A40.08,40.08,0,0,1,13,41c1-2.13,1.57-3,1.73-3.37s0,0-.22.33c-.46.76-1.17,2,.15-.43a33.56,33.56,0,0,1,6.6-8A25.93,25.93,0,0,1,31,24.24a32.9,32.9,0,0,1,9.36-1.18c2.58,0,4.43.08,5.11.15,4.36-.09-11.63-.17,1.35-.17,3.7.29,15,0,26.11.12-3.41.14-13.93.07-2.82.19,6.7-.23,21.63,0,31-.09.11-.05,1.44-.08,3.61-.11l8.7-.08,23.77-.19c-1,.07,29.58-.16,44.2-.25l-.43,0c2.83-.21,17.91-.34,28.89-.5-.43.11-2.4.18-8.35.29l10.32-.11c2.44-.09,5.66-.16,12.35-.26l-2.59.17c13.74-.17,27.67-.5,45.35-.64,1-.14-14.07-.17,4.62-.5.7.06,1.39.17-3.5.26,1.6,0,5.71-.13,8.94-.15l-7.47.22c8.06-.06,4.21-.15,10.65-.23-.13.1,4.77,0,3.84.1-1.64,0-5.61,0-8.08.1,7.26-.07,16-.13,18.94-.1-.64,0,0-.13,5.31-.22,13.74-.19,4.7.06,12.72,0,3.32-.12,12.09-.17,12.32-.32,4-.05,4.76,0,6.32,0,7.11-.16,33.21-.49,25.19-.53h-1.82l1.16,0h0c23.31-.48,48.42-.62,71.54-1l0,.05c13.8-.27,30.72-.5,40.58-.76,4.08-.06,9.63-.05,7.89,0,10.55-.2,11.73-.27,27-.42-10.61.25,3.66,0-10.87.23,13.71-.17,16.81-.14,31.53-.5-5,.2,10.33,0,16.84-.14l-9.6.06,20.24-.31-3.52.22c28.06-.23,50.6-1.13,72-1.12,7.42-.24-15.24.15-8.6-.09,12.9-.18,26.35-.15,30.4-.21,17.68-.18,16.49-.5,35-.72-2.37,0-4.61-.15,9.22-.42,12.92-.17,15.88,0,7.73.18-3.1,0-4.6.06-4.47,0-4.17.08-9.64.19-4.53.18l1.68-.09c6.41,0,24.17-.32,20-.15,9.76-.21,4.17-.17-3.06-.09l42.94-.59c-2.72,0-5.21,0-2.52-.07,25-.3,11-.28,28-.56,9.63-.05-3.45.27,13.61-.06,10.42-.1,2.21.12-1.93.23,15.54-.35,29-.36,37.92-.47l-8.19.17,13-.22-4.68,0,6.23-.07c1.61,0,2.6,0,2.56,0,4.95-.15-3.79-.14,6-.39,6.41,0,19.52-.35,21.73-.23-20.15.24,2.23.13-14.83.4l12.13-.17a13.44,13.44,0,0,1-2,.07c19.29-.14,8.86-.31,28.85-.6-2.54.13,4.64.1,7.9,0-8.06.11-3.86-.09,3.53-.27,12.82-.11,13.93-.25,20.64-.34l-7.66.08c2.6-.12,9-.21,17.94-.36.76.06-8.12.16-4.93.15,9.92-.3,22.42-.16,36.25-.45,6.41,0,.62.16,6.25.12,15.5-.33,16.79-.11,33.08-.42-4.7-.06-5.52,0,6-.29l-26.78.45,17.19-.41-21.9.35c8.19-.21,7.34-.17,3.47-.21,11.07,0,21.93-.4,34.72-.45l-.39.3c19.23-.13,34.16-.6,59.12-.84l-8,.05c3.34-.16,15.41-.21,23.49-.36-.75.11,4.3.08,7.75.1-.42-.07,18.27-.21,20.54-.44H1121c20.15-.18,23-.54,42.37-.72-5.84.17,3,.14-10,.36l8.58-.09,2.74,0c.66,0,1,0,1.07,0,3.78,0,17.94-.33,23.89-.3,2.72-.07,3.61-.18,10.88-.25.79,0,0,0,0,0l.48,0,1.21,0,3.21-.06c2-.05,3.29-.09.12-.11,19.93.1,55.7-.56,73-.43l43.94-.4c-.82,0,0,0-2.46,0,17.68,0,10.87-.36,31-.38,10.28.11-10.69.15-4.28.18,2.79.3,24.28-.18,37.82-.05l-3.28,0c10.35.07,25.26-.23,42.16-.24,0,0-.82,0-.1.05,11.57-.2,33.46-.28,49.73-.31-5.07.13-7.39.07-4.31.2,7.3,0-2.13-.22,12.42-.23,4.73.07,15.23.16,16.63.3l-13.73,0c7,.19,17.77,0,25,.1l-.92.07c21,.08,21.33-.12,43.94.08l-2.33-.08c12.35-.07,10.35.21,22.68.21l3.73.25c8.15,0,28.56.23,43.18.57l-36-.39,31.67.49c-3.26-.07-7.36-.1-10.57-.2,9.91,0,23,.26,39,.84-1.43.15,9.06.5,21.35,1.18,6.14.35,12.73.78,18.5,1.35a99.58,99.58,0,0,1,13.49,2,18.3,18.3,0,0,1,2.49.71l.56.25.28.12.23.16a4.88,4.88,0,0,1,.88.83,21.15,21.15,0,0,1,2.76,4.39,76.75,76.75,0,0,1,3.94,9.86,179.34,179.34,0,0,1,5.4,21,260.29,260.29,0,0,1,4.75,46.21c0-5.88.08-3.46.15.17s0,8.48.14,7.47c-.16,7.72-.44,10.66-.49,11.35a212.31,212.31,0,0,1-3,23.18c-.56,2.71-.21.91.18-1.49s.82-5.42.75-5.07c-.63,4.17-1.1,6.68-1.42,8.28s-.47,2.29-.61,2.8l-1.65,6.78c.62-2.21-1.06,5.79-4.26,14.86q2.28-6.37,4-12.92c-1.43,5.72-2.74,9.74-3.85,12.94-.56,1.6-1.07,3-1.58,4.27s-1,2.47-1.49,3.65c-1,2.36-2.06,4.69-3.52,7.77s-3.41,6.86-6.48,11.92c.68-1,1.26-2.15,1.88-3.24s1.22-2.18,1.78-3.3c-.68,1.36-1.63,2.94-2.66,4.75-.5.92-1.13,1.82-1.73,2.8s-1.23,2-2,3a100.85,100.85,0,0,1-10.22,12.46,110.43,110.43,0,0,1-12.12,10.58c-3.89,3-7.57,5.25-10,6.95a24.93,24.93,0,0,1-2.32,1.25c-.14.07-.08,0,.31-.21s1.13-.6,2.24-1.36c-12.43,7.59-27.53,13.83-42.24,18.44l-5.48,1.71c-1.8.6-3.65,1-5.44,1.49l-5.32,1.4c-1.76.46-3.47.94-5.19,1.28l-9.86,2.14-2.32.5-2.27.41-4.34.75,2.17-.46-7.51,1.41c-1.25.23-2.54.49-4,.72l-4.61.64c.34-.08,2.16-.39-.34,0l-9.12,1.39c-2,.34-4.26.57-6.39.82l-6,.66,6.13-.77c-28.32,3.14-43.55,4.24-67.44,5.11a4.24,4.24,0,0,0-1,0l-2.68,0c-2.27,0-5.41.16-8.91.15l-21,.12.39,0-23.29-.19c-3.67,0-7.24-.11-10.76-.21l-10.43-.27-10.32-.26-10.4-.43c-7-.31-14.22-.59-21.9-1l-18.59-1.32-11.81-.78-12.81-1-13.36-1.07-6.73-.54-6.68-.63-25-2.41c4.67.47-.78.12-6.21-.41-7.15-.82-19.8-2-18.65-2.06l2.56.28c-5.37-.8-20.1-2.23-31.56-3.69l-1.93,0c-7.49-1-16.15-2.08-25.18-3.17l-27.37-3.57c-17.93-2.31-34.16-4.47-42.31-5.74l-23.37-3,.4-.09c-20-2.77-30-4-54.82-7.12l5.07.54c-14-1.77-17.71-1.82-30.6-3.45l-3.86-.66c-24.43-2.8-49.1-6.05-73.31-8.22.4,0,1.13,0,5.09.42l-26.06-2.73c-9.17-.87-16.4-1.42-14.32-1.11-.07-.05-1.68-.22-4.27-.45l-10.12-.88-12.55-1c-4.22-.3-8.27-.52-11.58-.74h2.07c-11.2-.58-11.56-.56-27.17-1.57-3.71-.18-3.24-.3,1.67,0-12.33-.7-9.62-.32-24.59-1.1l5.58.17c-12.7-.57-11.69-.57-18.69-.58-4-.05-10-.18-15.3-.31l-7-.2c-1.9,0-3.26,0-3.73-.07-1.72.09-8.68.25-16.17.27a20,20,0,0,1,3.08-.11l-7.49,0c-2.35,0-4.55.14-6.64.2l-11.47.44c-7.07.21-13.3.67-20.61,1-.3,0-1.25,0-2.47.06,16.86-1.09,30.47-1.35,29.2-1.34,0-.13-13.65.32-2.8-.23l-9.46.41c-3.5.18-7.28.47-11.13.7l-11.56.73-10.76.75-1.76.08,1.37-.11-8.38.63c-4.24.27-6.93.47-11,.79-1.58,0-15.6,1.18-22.38,1.7.57.1-8.31.77,0,.24-1.08.07,1.28-.12,5.79-.48l2.89-.24-.47.05L678,207.92c-5.35.5-10.95,1-18.45,1.52l-9.45,1-17.39,1.11c-6,.39-11.06.66-12.31.7l-16.56,1.2c-5.75.4-11.62.71-17.24,1.07-11.24.69-21.53,1.34-28,1.82-5.9.36-6.78.34-9,.43l9.29-.62c-11.79.7-34.91,2.34-37.7,2.82-14.84,1.15,8.32-.88-12.06.87l2.75-.3c-20.06,1.61-36.32,3.46-53.08,5.58s-34.05,4.55-56.11,7.78c3.05-.45,4.58-.67,5.21-.74-25.15,3.74-50.95,8.33-76.58,13.35S280.24,256,255.68,261.08c-14,2.93-15.44,3.36-24,5.23l-3,.49-14.55,3.13c-10.33,2.11-19.33,3.7-29,5.22-4.86.74-9.89,1.48-15.38,2.19s-11.41,1.39-18.06,2c1.15,0,2.3-.11,3.44-.19-4.77.43-12.35.94-18.55,1s-11-.26-10.17-.26c-.49,0-1.28,0-2.41-.1s-2.61-.11-4.46-.36l-.28-.11a103.72,103.72,0,0,1-23-4.65c-1.07-.38-2-.68-2.8-1l-2-.83c-1.12-.48-1.84-.76-2.28-1-.9-.46-.8-.45-.93-.55a19.78,19.78,0,0,0-2.35-1.21l-3.91-2.12c-1.7-1-3.92-2.33-6.61-4.27-1-.67-2.09-1.54-3.23-2.4s-2.29-1.84-3.45-2.83-2.27-2-3.34-3.06c-.54-.51-1.08-1-1.58-1.51l-1.43-1.5c-1.88-1.9-3.29-3.64-4.19-4.64s-1.19-1.34-.6-.62c2.5,3.11,6.71,7.68,6.93,7.88-2.14-2.13-4.2-4.34-6.13-6.66-.63-.55-2.09-2.14-1.64-1.43.21.36.93,1.28,2.48,3.2a87.22,87.22,0,0,0,8.15,8.54,78.58,78.58,0,0,0,12.61,9.15c1.39.94,2.87,1.73,4.33,2.56l-2.9-1.55-2.81-1.71c-.95-.55-1.84-1.18-2.74-1.81s-1.83-1.2-2.68-1.9c1.47,1.15,2.89,2.08,4.17,3S79.83,268,81,268.68s2.4,1.26,3.55,1.87,2.36,1.09,3.55,1.65a24.31,24.31,0,0,0,2.34,1.09c1,.41,2.21,1,3.67,1.49a92,92,0,0,0,14.82,3.76c1.81.42-6.78-1.05,3.32.82,7.1.91-6.77-1.14,5,.4l4.07.5,2.41.21c.73.06,1.51.13,2.65.19l4.82.13c1.23.08-.62.09-4.08,0,3.89.14,9,.18,13.7,0,2.33-.06,4.55-.22,6.43-.32s3.42-.27,4.42-.37c1.93-.09,4.53-.35,7.33-.6s5.78-.6,8.5-1c5.45-.66,9.82-1.35,9.46-1.16,2.41-.39,13.48-2.26,20.47-3.59-6.38,1.27.19.14,7.92-1.32s16.6-3.27,14.94-2.79l50.66-10.94c-.93.22-2.75.64-4.23.95,9.39-2,12.13-2.5,18.17-3.73,1.17-.45,15.78-3.57,23.65-5.29,11.56-2.17-6.95,1.65-3.3,1.09-.61-.05,20-4.21,16-3.54,8.85-1.64,7.62-1.44,12.19-2.18,1.51-.53,8.21-1.64,15.52-3.14,12.82-2.25,3.34-.39,17.39-3,3.36-.54,1.91-.25-.38.18ZM698.7,207.22h0l-7,.51Zm28.52-1.72-12.38.7c-1,0,.08-.1,2.95-.26C716.23,206.06,723,205.7,727.22,205.5Zm-60.38,3.14c4.51-.38,6-.47,6.64-.49l-7.89.64-.53.06C665.49,208.79,666,208.72,666.84,208.64Z"/><path class="cls-1" d="M658.75,209.46l-1.86.16,2.69-.18,1.59-.17Z"/><path class="cls-1" d="M356.71,20.26h0Z"/><polygon class="cls-1" points="1119.96 237.84 1119.92 237.8 1117.45 237.5 1119.96 237.84"/><path class="cls-1" d="M199.31,21.84h0Z"/><path class="cls-1" d="M131.31,22.46l-9.61,0Z"/><path class="cls-1" d="M79,22.67c-.66,0-.85,0-1,.07h.1Z"/><path class="cls-1" d="M910.21,11.13l2,0C917,11,913.74,11.06,910.21,11.13Z"/><path class="cls-1" d="M662.86,15.17l7.95-.19-5.57.08A21.27,21.27,0,0,0,662.86,15.17Z"/><path class="cls-1" d="M1186.42,7.48h0Z"/><path class="cls-1" d="M682.32,14.8c-4.41,0-8.09.11-11.51.18Z"/><path class="cls-1" d="M27.46,190.35l.88,2.36a1.58,1.58,0,0,1,.12.28Z"/><path class="cls-1" d="M28.46,193l1,2.61C29,194.4,28.61,193.36,28.46,193Z"/><path class="cls-1" d="M31.68,201.06c-.76-1.81-1.48-3.64-2.21-5.46C30.21,197.5,31.13,199.84,31.68,201.06Z"/><path class="cls-1" d="M9.52,123.52l-.18-.77A4.56,4.56,0,0,0,9.52,123.52Z"/><path class="cls-1" d="M6.61,102.67c.48,5,1.36,12.54,2.58,19.44l.15.64c-.32-1.62-.93-5.44-1.45-9.47S6.9,105,6.61,102.67Z"/><path class="cls-1" d="M30.67,24.53A26.92,26.92,0,0,0,16.77,34.6a28.2,28.2,0,0,1,2.43-2.77c.32-.24-.5.36-2.81,3.58a29.34,29.34,0,0,1,6.07-6.47c.78-.55.33-.26-.1,0s-.79.61,0-.1c.44-.3,1.16-.9,2.43-1.7A24.69,24.69,0,0,1,30.67,24.53Z"/><path class="cls-1" d="M85.12,23.35c-9.47,0,.11.08-.39.11C90.73,23.39,92.19,23.37,85.12,23.35Z"/><path class="cls-1" d="M480,18.53l-.95.14C486.35,18.54,479.12,18.62,480,18.53Z"/><polygon class="cls-1" points="555.47 16.7 548.37 16.74 544.99 16.91 555.47 16.7"/><polygon class="cls-1" points="600.08 16.92 596.89 16.99 609.06 16.76 600.08 16.92"/><path class="cls-1" d="M1263.27,8l-2.21-.14C1256.13,7.91,1255.09,8.1,1263.27,8Z"/><path class="cls-1" d="M1549.58,7.2c3.12.1,11.18.24,16.14.21Z"/><polygon class="cls-1" points="1195.42 246.43 1201.14 247.07 1190.36 245.81 1195.42 246.43"/></g><path class="cls-1" d="M1616.83,200.52c.81.1.37-.09-1.86-.42l-1.61-.08Z"/><path class="cls-1" d="M1601.89,197.85c-2.64-.33-5.68-.67-4-.25,2.62.25,3.24.41,6.06.67a16.51,16.51,0,0,1,3.5.67c.79.08,3.46.58,4.67.67-2.88-.59-6.55-1.17-10.41-1.68C1600.89,197.77,1601.69,197.85,1601.89,197.85Z"/><path class="cls-1" d="M1383.54,166.84l1.41.19Z"/><path class="cls-1" d="M1247.72,151.81c1,.1,1.47.13,1.52.12A14.11,14.11,0,0,0,1247.72,151.81Z"/><path class="cls-1" d="M1224.53,149.25l1.37.13C1225.38,149.32,1224.85,149.26,1224.53,149.25Z"/><path class="cls-1" d="M1383.54,166.84l-3.62-.48C1379.66,166.39,1381.78,166.62,1383.54,166.84Z"/><path class="cls-1" d="M1571.78,193.5l2,.27-1.85-.28Z"/><path class="cls-1" d="M1443.34,174.12l1.1.15.93,0Z"/><path class="cls-1" d="M1489.16,180.34a7.25,7.25,0,0,0-1.82-.05c.59,0,1.36.1,2.27.21C1489.63,180.48,1489.5,180.43,1489.16,180.34Z"/><path class="cls-1" d="M1561.64,191.32l1.28.19Z"/><path class="cls-1" d="M1410.53,169.88a2.61,2.61,0,0,0-.42-.1A2.32,2.32,0,0,0,1410.53,169.88Z"/><path class="cls-1" d="M123.33,49.12s0,0,0,0C123.06,49.07,123,49.06,123.33,49.12Z"/><path class="cls-1" d="M70.49,40.16l.74.1c.08,0,.16,0,.17,0Z"/><path class="cls-1" d="M1182,145.13l.18,0C1183.33,145.24,1182.7,145.18,1182,145.13Z"/><path class="cls-1" d="M791.3,113.79c4.42.45-7.22-.38-.57.26C790.12,114,796.81,114.28,791.3,113.79Z"/><path class="cls-1" d="M1570.6,193.3l-1.87-.3Z"/><path class="cls-1" d="M790.73,114.05h0l.69.06Z"/><path class="cls-1" d="M1084,136.51c.2.05.59.1,1,.15A9.37,9.37,0,0,0,1084,136.51Z"/><path class="cls-1" d="M1157,143.1l-1.81-.18Z"/><path class="cls-1" d="M1046.08,133.53c-1-.09-1.32-.14-2.66-.24l.41.06C1044.31,133.37,1045,133.41,1046.08,133.53Z"/><path class="cls-1" d="M1006.6,130.33l.72.08,1.26.09Z"/><path class="cls-1" d="M242.58,65.68c-.86-.16-1.39-.27-1.8-.37C241.37,65.49,235.6,64.76,242.58,65.68Z"/><path class="cls-1" d="M1571.77,193.42a10.4,10.4,0,0,1-1.17-.12l1.3.19C1572,193.49,1572.05,193.48,1571.77,193.42Z"/><path class="cls-1" d="M1044.38,134.5l-6.27-.55Z"/><path class="cls-1" d="M525.3,94.29l-1.44-.11Z"/><path class="cls-1" d="M1019.5,132.45c-1.12-.14-2.3-.26-3.52-.37l-.74,0Z"/><path class="cls-1" d="M240.77,65.31h0Z"/><path class="cls-1" d="M199.63,60.17c5.94.79,2.81.19,4.09.25,7.1.9,3.26.58,5.67,1,4.43.54,7.85.83,11.16,1.27.24.06.88.16.12.1,4.71.48,13.91,1.84,19.39,2.38l.71.15c-.88-.21-1-.33-.81-.37,2.66.35,5,.56,5.95.78-1.64-.19-1.78-.18-2.55-.24.93.11,1.87.22,2.8.3,1.25.23.3.14-1,0s-2.85-.36-2.85-.3c5.45.67,11.83,1.18,16,1.73.85.27-9.79-1.06-4.23-.27l-6.46-.81c4.91.83-3.93-.47.58.34l18,2c1.93.13-.61-.21,1.31-.08,12.09,1.21,9.45,1.51,18.36,2.3a86.08,86.08,0,0,1,9.53.88l-2.18-.06c8.25,1,4.74.27,13.36,1.38-1.54-.1-6.49-.67-5.24-.51,5.57.79,4,.35,8.27.84l.87.27,28.19,3c-.55,0-2.22-.11,0,.17,12.29,1.14,26.21,2.64,38,3.92l4.54.31c1.06.1,1.95.26.81.17,4.61.52.25-.07,2.47.1,2.63.25,3.46.43,1.79.31,8.16.69,23.23,2,31.8,3.06l-1.68-.12c6.68.73,7.57.45,13.76,1.21l-1.2-.09c14.51,1.39,30.57,2.66,41.63,3.87,2.13,0,14.36,1.37,15.32,1.16,8.28.89,5.9.73,17.57,1.86,3.11.29,4.66.23,8.52.55l.08.16,5.25.3,2.77.43,3.62.29a23.25,23.25,0,0,1-2.84-.37c2.83.22,6.27.56,9,.82l3.45.35c.87.1,1.4.17,1.43.19l13.38,1c-.3,0-2.54-.13-4.31-.23,7.15.42,1.28.27,7.83.65-.87-.1.48,0,.64-.07,3.25.36,10.67,1,16.16,1.37l-1.06,0,32.05,2.55c-4-.37-3.06-.48.2-.23l1.3.26c2.11.07-3.41-.33.93-.11,4.15.36,2.78.42.39.28l5.06.35c.29.07-.9,0-1.21,0,2.08.07,8.71.87,11.72.94l.28.07c11.13.91,16.18,1.2,25.25,1.89.19-.12,3.73.18,6.44.27,6.66.56,14,1.23,22.08,1.83,5.65.36,1.66,0,4.2.12.4.16,8.42.76,4.26.53,9.63.72,12.31.92,24.5,1.74-1.32-.15-2.8-.29-2-.27,2.21.15,5,.44,4.71.47l-.59,0c13.7.87,31.55,2.75,42.46,3.3l-.61,0,11.31.7c5.2.41-3.12-.13.72.23,12.2.7,19.25,1.46,29.29,2.07,7.75,1,27.57,2,38,3l-.6-.13c2.72.11,3.28.29,5.27.46-.28-.09-2.93-.3-1.24-.22,23,1.61,47.37,3.68,70.9,5.52,8.6.67,4.92-.1,15.75.93l-3.09-.07c17.39,1.1,35.51,2.77,52.53,3.91-1,0-1.05,0-2.71-.12,1.79.2,5.11.46,8,.66l3.74.23,1.17.06a2.7,2.7,0,0,0,.45,0,13.75,13.75,0,0,1,2.23.31c3.6.35,9,.55,11,.82.32.05-1,0-1.68-.08,2.35.12,10.94.87,8.7.55,6.38.57,12.21.9,17.3,1.38,3.33.1,10.91.91,12,.8-.47.18,11.17,1.12,15.21,1.35-1.35,0,3.5.37,1.91.33,4.6.38,8.83.69,8,.51,8.46,1,17.06,1.21,21.81,2l38.64,3c-.47.18-13.6-1.12-13.09-.84,11.67.9,18.42,1.23,30,2.31,3,.31-1.71-.06-2.72-.11,11.65,1,22.51,2.1,32.89,2.94,0,0-.31,0-.72,0l-1.49-.1a42.13,42.13,0,0,0,4.52.34l-2-.15c-3.25-.45,8.14.44,8.51.39-3.49,0,10.23,1,4.69.89a14.83,14.83,0,0,0,2.73.11c2,.21,2.63.3.6.19,7.32.63,4.73.28,11.36.89,0,0-1.37-.05-2.06-.06,3.36.21,6.74.43,12.34,1-.34,0,.31.1-1.36-.06,9.62.88,16.42,1.26,27,2.33-3.14-.07,3.58.39,4.12.66l5.67.53-2.26-.32c5,.52,9.36.84,13.63,1.34l-3.7-.3,9.31.93-5.26-.62c5,.43-.52-.29,6.09.45-1.35-.12,5,.52,7.54.89h0c2.47.2,5,.4,8.67.83.94.16-.79.12-.18.23,2.44.09,11.64,1.16,14.72,1.32-1-.07-1.09,0-.75.08l2,.08c2.3.28,2.63.34,2.25.38,6.92.74-2.17-.47,6,.49-.65-.06-.34,0-1.69-.13l23.52,2.43c2.21.42-6.63-.65-4.09-.22l16.75,1.62c5.61.62,11.17,1.24,16.44,1.89l-2-.25c1.49-.09,7.85,1.06,13.2,1.57-1.31-.14-1.73-.06-1.38,0,7.23.9,14.79,1.69,25.76,2.9l-1.37-.09,15.81,1.94c1.38.1,4,.42,2.42.13,7.07,1,13.85,1.78,20.42,2.5,3.29.37,6.53.7,9.72,1.1s6.35.89,9.48,1.4c-1.5-.21-3.59-.43-2.39-.27l10.71,1.4c-.84-.23-1.4-.26-3.63-.66,1.36.12,4.39.48,7,.84-4.82-.58,0,.19,2.09.53-.35-.08.37,0,.2-.08,5.56,1,1-.1,8.58,1.08h-.41c2.86.36,5.5.64,8.58,1.08,1.26.3-3.05-.36-3.26-.27,4.32.58,8.57.91,12.47,1.57l-6.33-.78c4.24.73,4.74.76,7.9,1.22l-.31,0,7.32,1.07-1.86-.29c5.46.39,11,1.44,18.35,2.2-7.11-.75-1.18,0-1.75,0,1.86.3,4.68.73,3.87.66,3.46.35,5.74.88,10.63,1.37.21.08,3.68.51,2.89.52,4.49.58-1-.23-.66-.23,1.73.19,3.61.44,5.61.72s4.11.67,6.32,1c4.42.74,9.21,1.54,14.18,2.21,8.56,1.25,10.16,1.34,18.1,2.51,2.66.5-2.22-.17-2.22-.17,4.31.75,7.55,1.25,11.63,1.84-.83-.09,0,.08,1.24.33,3.27.5,2.21.17,6.51.92-.75-.06-1.71-.13-3.29-.32l11.65,1.66c1,.25-2.42-.26-3.84-.42,4.49.67,11.61,1.75,13,1.84l-2.86-.5c1.63.25.82.24-.39.08a38.55,38.55,0,0,1-5.73-1l2.84.42c-2.86-.74-11.39-1.75-17.1-2.67l2.41.17-5.88-.75c-1.23-.25-2.07-.5.76-.09-4.08-.75-3.64-.5-7.14-1.17-.38-.07-.2-.06.16,0l-4-.57c.79.08-.64-.25,1.81.17-7.16-1.25-11.6-1.67-14.28-2.26l.6.09c-10-1.51-1,0-8.48-1l-5-1.16h-1a22.06,22.06,0,0,1-2.67-.5c-3.84-.5.64.17-1.59-.08-4.92-1-13.68-1.88-14.76-2.3-1.79-.13,4.74.73-.57.09-1.47-.46-6.13-.79-10.64-1.52,1.41.05,5.69.71,1.17,0-2.76-.15-8.81-1.25-12.64-1.73a48.44,48.44,0,0,1-5-.57l-9.7-1.3c.41,0-12.06-1.75-18-2.63h.18c-1.18,0-7.33-.85-11.82-1.42a15.11,15.11,0,0,1,3.44.26l-4.22-.57c-1-.08-2.32-.23-5-.58h1.08l-18.53-2.4c-.42.08,5.71,1-2,.22-.27-.11-.54-.26,1.47-.05-.66-.07-2.35-.22-3.67-.4l3.07.24c-3.28-.44-1.73-.1-4.36-.43.06-.09-1.94-.3-1.55-.33.67.07,2.29.31,3.3.39-3-.37-6.55-.85-7.72-1.06.25.08,0,.13-2.2-.12-5.62-.66-1.9-.34-5.18-.78-1.37-.09-4.94-.59-5.05-.45a24.16,24.16,0,0,1-2.57-.42c-2.92-.28-13.59-1.59-10.33-1.05l.74.1-.47,0h0c-9.55-1-19.79-2.43-29.26-3.49l0,0c-5.65-.62-12.57-1.46-16.61-1.83-1.67-.2-3.93-.56-3.21-.53-4.32-.47-4.81-.5-11-1.27a36.23,36.23,0,0,1,4.46.44c-5.61-.71-6.88-.86-12.92-1.37,2.07.08-4.21-.6-6.89-.84l3.93.5-8.29-.87,1.46,0c-11.48-1.39-20.77-1.81-29.48-3.06-3.06-.2,6.23.74,3.5.59-5.29-.57-10.77-1.38-12.43-1.56-7.23-.84-6.78-.46-14.35-1.31,1,.16,1.86.41-3.81-.12-5.29-.57-6.48-.92-3.13-.62a15.63,15.63,0,0,1,1.82.22c1.72.16,4,.36,1.87.08h-.69c-2.62-.33-9.9-1.08-8.18-1-4-.36-1.72-.08,1.24.25-6.78-.78-10.6-1.12-17.58-1.87,1.11.14,2.12.3,1,.2-10.25-1-4.53-.31-11.48-.92-3.94-.46,1.43-.09-5.57-.66-4.27-.46-.89-.24.81-.13-6.38-.48-11.9-1.18-15.54-1.54l3.36.27-5.33-.47,1.91.3-2.55-.26a5.12,5.12,0,0,1-1-.15c-2-.11,1.54.34-2.5.08-2.62-.31-8-.68-8.9-.92,8.26.82-.9-.24,6.1.38-1.35-.11-3-.26-5-.46-.29,0,.29,0,.83,0-7.9-.87-3.66-.16-11.85-.92,1,0-1.89-.34-3.23-.45,3.31.31,1.57.29-1.47.08-5.24-.55-5.71-.48-8.46-.74l3.13.32c-1.07,0-3.69-.26-7.36-.57-.31-.1,3.33.26,2,.11-4.09-.22-9.18-1-14.86-1.43-2.63-.31-.24-.19-2.55-.45-6.37-.46-6.87-.78-13.56-1.25,1.91.28,2.25.28-2.47,0q5.5.4,11,.88l-7.07-.46c3.32.28,7,.56,9,.76-3.37-.21-3-.21-1.44,0-4.52-.61-9-.7-14.24-1.26l.18-.28c-7.87-.79-14-1-24.26-2l3.28.33c-1.38,0-6.32-.52-9.64-.75a20.79,20.79,0,0,0-3.17-.46c.17.09-7.5-.64-8.44-.52l-4.57-.51c-8.26-.75-9.46-.51-17.41-1.21,2.41.09-1.2-.28,4.13.09l-3.52-.3a12.42,12.42,0,0,0-1.57-.08c-1.54-.19-7.37-.49-9.8-.78-1.13-.06-1.5,0-4.48-.24-.32-.05,0-.05,0-.05s-4.68-.32-2.08,0c-8.15-1-22.86-1.83-30-2.65l-18-1.33a3.53,3.53,0,0,1,1,0c-7.25-.66-4.48-.07-12.74-.82-4.2-.48,4.4.26,1.77,0-1.12-.42-10-.74-15.52-1.36l1.35.08c-4.24-.44-10.37-.68-17.31-1.25,0,0,.34,0,0,0-4.76-.21-13.75-.86-20.43-1.33,2.08,0,3,.17,1.78-.06-3-.21.86.27-5.12-.15-1.94-.22-6.25-.6-6.81-.78l5.64.41c-2.87-.39-7.3-.54-10.26-.79l.38,0c-8.64-.62-8.78-.43-18.06-1.14l1,.13c-5.09-.19-4.24-.43-9.32-.66l-1.51-.32-17.75-1.1c3.41.11,10.44.56,14.8.8-3.32-.25-11.29-.83-13-.86,1.34.08,3,.16,4.35.29q-6.13-.23-16.07-1c1.2-.3-17.23-1.39-22-2.05-11.72-.73-23.21-1.79-36.85-2.78,4.82.66-4-.28-3.16.08-3.18-.21-4.39-.31-4.67-.35l-9.61-.9c-2.27-.25,3,.16,2.74.07-7-.54-2.91-.34-7.5-.77.93.18-2.43,0-6.39-.36l5.57.56c-9.73-.56-8.38-.88-18.19-1.45l3.11.14c-5-.32-18.54-1.38-23.48-1.5-.89-.1-2.06-.27.16-.13-12-.92-26.76-1.76-36.08-2.62H702c-2.24-.15-3.91-.16-6.71-.45.15,0,.91,0-.13-.09s-6-.32-8.92-.59l2.54.11c-11.71-1-18-1.17-27.82-1.87a38.31,38.31,0,0,0-5.14-.63l-8.62-.75.16,0c-13.64-1.07-23.18-1.57-35.81-2.53C603.73,99.4,585,98,572.43,96.86c1.92.2-.33.15-2.57,0-3-.28-8.19-.51-7.7-.67l1.05.09c-2.21-.38-8.29-.82-13-1.21l-.8.2c-6.19-.7-14.32-1.32-21.74-1.89s-14.14-1.17-17.51-1.64L500.46,91l.17-.13c-8.29-.77-12.42-1.16-22.67-2l2.1.09c-5.78-.53-7.34-.25-12.67-.71l-1.58-.36c-10.09-.89-20.28-2-30.26-2.68a12.4,12.4,0,0,1,2.11.09c-4.75-.38-18.34-1.91-16.64-1.44a10.31,10.31,0,0,0-1.75-.26l-4.17-.4-9.92-.86.86,0c-4.61-.29-4.76-.25-11.18-.84-1.51-.17-1.32-.25.7,0-5.06-.58-4-.26-10.09-1l2.3.14c-5.21-.53-4.8-.44-7.68-.63-3.28-.27-9.88-1-10.64-1.22-.71,0-3.57-.18-6.64-.52-.41-.09.71,0,1.28,0-8.7-1-13-1.13-18.95-1.86a5.23,5.23,0,0,0-1-.19l12,1.22c0-.13-5.57-.71-1.11-.44-4.5-.35-12.19-.91-17.63-1.52-.27,0-.52-.07-.72-.11l.57,0c-1.26-.14-2.38-.27-3.44-.37l-4.51-.55c-.63-.18-6.39-.79-9.17-1.11.21.16-3.43-.28,0,.23-.44-.06.53,0,2.38.25l1.19.12h-.19l6.92.78c-2.21-.18-4.51-.38-7.58-.81l-3.91-.22c-3.79-.63-11.12-1.58-12.12-1.81-8.51-.9-20-2.24-25.4-2.59a37,37,0,0,1-3.67-.54c1.4.13,3.06.33,3.82.37-4.84-.48-14.32-1.61-15.49-1.56-6.08-.78,3.44.23-4.93-.7l1.14.07c-4.11-.54-7.84-1-11.4-1.36L245.57,65l-5.17-.6c-6.91-.81-14-1.66-23.12-3.06,1.26.19,1.89.29,2.14.35-20.73-2.92-42.79-5.53-63.23-8.52-5.8-1-6.44-.94-10-1.41L145,51.46l-6.08-.77c-8.61-1.22-14.81-2.69-25.72-4.15l1.39.32c-3.9-.63-12.38-1.88-11.71-1.89-.4,0-1.3-.1-2.81-.39l-.11-.09-9.61-1.37c-7.42-1.22,1.21-.13-9.63-1.84-4-.6-11.52-1.56-10-1.28s4.15.7,4.26.8l-3.69-.54c-.71.13-3.59-.08,5.44,1.5L83,42.6,85,43l-5.31-.82c3,.57,4.92.78,7.07,1,.49.14,1.37.32,2.62.54l6.23.74c.74.21-2.81-.25,1.34.45,2.92.35-2.75-.64,2.07,0a51.48,51.48,0,0,0,5.66,1c.49.14-.27.06-1.67-.13,3.16.42,8.35,1.27,10,1.4,3.13.62,10.66,1.63,10.31,1.8,1,.11,5.58.7,8.48,1.14-5.33-.56,10.84,1.71,9.4,1.77,2,.19,5.52.72,9.44,1.32,1.95.29,4,.63,6,.9l5.69.7c-.39,0-1.16-.09-1.77-.19,3.91.54,5,.76,7.55,1.14.53-.12,6.64.64,10,1,4.77.83-3-.16-1.47.22-.22-.19,8.37,1,6.75.61,3.66.6,3.16.47,5,.89.67-.16,3.42.41,6.49.67,5.3.82,1.34.41,7.18,1.11C204.83,60.77,199.63,60.17,199.63,60.17ZM338.74,76.48h0l-2.88-.29Zm11.71,1.17-5.08-.52c-.4-.08.05-.09,1.22,0C346,77.13,348.71,77.43,350.45,77.65Zm-24.65-3.6c1.85.19,2.47.29,2.72.34L325.28,74h-.22A7,7,0,0,1,325.8,74.05Z"/><path class="cls-1" d="M322.45,73.85l-.76-.08,1.1.16.66,0Z"/><path class="cls-1" d="M1385.2,167.06l-.25,0,.52.08Z"/><polygon class="cls-1" points="512.23 93.19 512.22 93.16 511.19 93.1 512.23 93.19"/><path class="cls-1" d="M1449.46,175.59c.12,0,.36.08.83.16C1450.26,175.73,1449.9,175.67,1449.46,175.59Z"/><path class="cls-1" d="M1477.19,179.41l3.92.58Z"/><path class="cls-1" d="M1498.52,182.39a2.08,2.08,0,0,0,.42,0h-.42Z"/><path class="cls-1" d="M1158.41,144.18l-.83-.08C1155.64,144,1157,144.06,1158.41,144.18Z"/><path class="cls-1" d="M1259.83,153.6l-3.26-.27A22.1,22.1,0,0,0,1259.83,153.6Z"/><path class="cls-1" d="M1045.07,134.56h0l-.7-.06Z"/><path class="cls-1" d="M1251.86,152.84c1.8.21,3.31.36,4.71.49C1255.09,153.17,1253.35,153,1251.86,152.84Z"/><path class="cls-1" d="M1590.74,196.51l1,.17s0,0,.13,0Z"/><path class="cls-1" d="M1591.89,196.67l1.14.17C1592.51,196.75,1592.05,196.68,1591.89,196.67Z"/><path class="cls-1" d="M1595.43,197.18l-2.4-.34C1593.86,197,1594.88,197.13,1595.43,197.18Z"/><path class="cls-1" d="M1562.6,192h-.33A.82.82,0,0,0,1562.6,192Z"/><path class="cls-1" d="M1554,190.66c2,.34,5.11.92,8,1.34h.27C1560.92,191.86,1556,190.88,1554,190.66Z"/><path class="cls-1" d="M1518.42,184.48l3.59.51,3.58.58c-1.24-.25-2.88-.58.38-.08-4.5-.79-4-.69-3.63-.58S1523.13,185.12,1518.42,184.48Z"/><path class="cls-1" d="M1496.13,181.36c3.87.5,0-.08.18-.09C1493.85,181,1493.25,180.92,1496.13,181.36Z"/><path class="cls-1" d="M1334.79,161l.4-.08C1332.2,160.56,1335.16,160.94,1334.79,161Z"/><polygon class="cls-1" points="1303.81 158.31 1306.71 158.69 1308.11 158.72 1303.81 158.31"/><polygon class="cls-1" points="1285.64 155.5 1286.95 155.62 1281.95 155.15 1285.64 155.5"/><path class="cls-1" d="M1013.63,130.75l.9.23C1016.55,131.11,1017,131,1013.63,130.75Z"/><path class="cls-1" d="M896.06,121.83c-1.28-.18-4.58-.47-6.62-.55C892.08,121.49,894.71,121.75,896.06,121.83Z"/><polygon class="cls-1" points="543.5 94.58 545.87 94.72 541.41 94.4 543.5 94.58"/><path class="cls-1" d="M120.51,174.86c-.78.12-.32.18,1.84-.06l1.52-.32Z"/><path class="cls-1" d="M135.12,173.69c2.54-.33,5.46-.77,3.8-.76-2.51.42-3.13.41-5.82.88a17.08,17.08,0,0,1-3.43.23c-.77.12-3.38.3-4.53.52,2.83-.15,6.41-.51,10.13-1C136.07,173.52,135.3,173.64,135.12,173.69Z"/><path class="cls-1" d="M347,152.54l-1.37.11Z"/><path class="cls-1" d="M478.2,139.36c-1,.1-1.41.16-1.46.18A14.26,14.26,0,0,0,478.2,139.36Z"/><path class="cls-1" d="M500.63,137.27l-1.32.13C499.81,137.36,500.32,137.32,500.63,137.27Z"/><path class="cls-1" d="M347,152.54l3.51-.31C350.71,152.15,348.67,152.37,347,152.54Z"/><path class="cls-1" d="M164.29,170.34c-.74.08-1.35.16-1.9.24l1.79-.2Z"/><path class="cls-1" d="M289.12,158.52l-1.07.11-.88.15Z"/><path class="cls-1" d="M244.72,163a6.79,6.79,0,0,0,1.72-.37c-.56.12-1.3.22-2.18.32C244.25,163,244.38,163,244.72,163Z"/><path class="cls-1" d="M174.3,169.9l-1.25.15Z"/><path class="cls-1" d="M320.9,155.34h0Z"/><path class="cls-1" d="M1562.62,28.74s0,0,0,0C1562.88,28.72,1563,28.71,1562.62,28.74Z"/><path class="cls-1" d="M1614.15,24.23l-.71.08c-.07,0-.15.07-.14.09Z"/><path class="cls-1" d="M541.65,133.31h-.18C540.39,133.45,541,133.38,541.65,133.31Z"/><path class="cls-1" d="M918.09,95.15c-4.27.3,6.93-.87.49-.36C919.19,94.79,912.77,95.6,918.09,95.15Z"/><path class="cls-1" d="M165.44,170.24l1.82-.18Z"/><path class="cls-1" d="M918.58,94.79h0l-.66.06Z"/><path class="cls-1" d="M636.13,123.67l-1,0S635.41,123.71,636.13,123.67Z"/><path class="cls-1" d="M565.72,130.59l1.74-.16Z"/><path class="cls-1" d="M672.66,119.78c.94-.09,1.27-.1,2.56-.25l-.4,0C674.36,119.62,673.74,119.69,672.66,119.78Z"/><path class="cls-1" d="M710.7,115.93l-.71,0-1.2.13Z"/><path class="cls-1" d="M1447,40.49c.84,0,1.36-.05,1.77-.05C1448.19,40.4,1453.78,39.8,1447,40.49Z"/><path class="cls-1" d="M164.32,170.42a8.28,8.28,0,0,1,1.12-.18l-1.26.14C164.07,170.41,164,170.43,164.32,170.42Z"/><path class="cls-1" d="M674.09,118.52l6-.59Z"/><path class="cls-1" d="M1174.12,68.1l1.39-.15C1175,68,1174.48,68.05,1174.12,68.1Z"/><path class="cls-1" d="M698.07,116.1c1.08-.06,2.23-.15,3.41-.25l.7-.11Z"/><path class="cls-1" d="M1448.8,40.44h0Z"/><path class="cls-1" d="M1488.58,36.09c-5.76.57-2.69.45-3.9.68-6.87.74-3.2.18-5.54.33-4.29.48-7.57,1-10.77,1.3-.24,0-.86,0-.14-.07-4.52.61-13.47,1.37-18.73,2.09a6.84,6.84,0,0,1-.7,0c.87,0,1,.09.84.17-2.58.27-4.78.6-5.76.58,1.58-.16,1.71-.22,2.44-.33l-2.7.33c-2.45.07,3.69-.44,3.68-.57-5.27.59-11.41,1.36-15.45,1.72-.86-.08,9.44-1,4-.62l6.27-.57c-4.81.22,3.8-.36-.62-.2-8.24.78-9.2,1-17.41,1.79-1.84.28.62.08-1.22.36-11.65,1.35-9.23.51-17.78,1.6a79.22,79.22,0,0,1-9.17,1.14l2.06-.4c-8,.79-4.52.73-12.88,1.45,1.48-.23,6.26-.7,5-.6-5.42.4-3.81.5-8,.92l-.88-.09c-8.48.89-17.81,2-27.2,2.94.51-.11,2.12-.32-.09-.15-11.84,1.28-25.3,2.54-36.74,3.59l-4.35.59c-1,.1-1.89.12-.79,0-4.46.4-.23.12-2.36.39-2.53.27-3.36.26-1.76,0-7.84.92-22.36,2.53-30.66,3.21l1.61-.2c-6.45.59-7.25,1-13.24,1.5l1.14-.14c-14,1.35-29.46,3-40.16,3.91-2,.41-13.86,1.3-14.73,1.69-8,.66-5.73.38-17,1.42-3,.29-4.46.63-8.17,1l-.11-.14-5,.67-2.7.08-3.48.4a22.43,22.43,0,0,1,2.75-.17c-5.44.62-13.29,1.24-13.43,1.17L1152,70.38c.28-.09,2.43-.33,4.14-.54-6.86.85-1.27,0-7.56.75.85,0-.44.14-.58.18-3.15.23-10.3,1-15.59,1.52l1-.21c-9.56.94-20.14,2.09-30.86,3.17,3.85-.34,3-.06-.16.27l-1.27,0c-2,.3,3.29-.27-.87.27-4,.39-2.71.09-.42-.2l-4.86.55c-.29,0,.85-.16,1.14-.25-2,.3-8.42.69-11.29,1.15l-.28,0c-10.72,1.09-15.58,1.63-24.31,2.52-.16.16-3.58.47-6.17.85-6.42.61-13.55,1.22-21.28,2-5.43.62-1.58.28-4,.61-.42-.09-8.14.7-4.14.21-9.28,1-11.85,1.22-23.58,2.51,1.28-.08,2.71-.2,2-.08a40.67,40.67,0,0,1-4.55.35l.56-.07c-13.15,1.52-30.44,2.7-40.91,4l.59-.07L947.8,91.09c-5,.48,3-.4-.72-.1-11.71,1.4-18.54,1.84-28.19,3-7.52.38-26.55,2.71-36.67,3.49l.59,0c-2.6.35-3.16.27-5.09.44.28,0,2.84-.2,1.23,0-22.1,2.34-45.65,4.48-68.32,6.69-8.3.82-4.66.94-15.14,1.78l3-.46c-16.71,1.89-34.21,3.45-50.57,5.27,1-.13,1-.19,2.6-.35-3.47.23-12.79,1.29-12.84,1.39a14.15,14.15,0,0,1-2.18.09c-3.48.28-8.69,1-10.55,1.1a15.74,15.74,0,0,1,1.61-.21c-2.26.28-10.54,1-8.36,1-6.16.56-11.75,1.25-16.67,1.67-3.18.48-10.53,1-11.52,1.31.42-.27-10.79.91-14.67,1.41,1.29-.2-3.39.27-1.87,0-4.44.45-8.5.9-7.71.94-8.2.56-16.41,1.88-21,2-13.16,1.45-25.35,2.76-37.19,4,.4-.27,13.09-1.35,12.56-1.54-11.23,1.23-17.7,2.08-28.85,3.15-2.89.27,1.62-.26,2.6-.39-11.23,1.22-21.73,2.17-31.71,3.3,0,0,1.1-.15,2.12-.27a40.09,40.09,0,0,0-4.35.51l1.92-.22c3.16-.17-7.79,1.1-8.14,1.21,3.32-.63-9.88.92-4.61,0a14,14,0,0,0-2.61.4c-1.92.17-2.54.2-.59-.08-7.05.77-4.54.62-10.93,1.27,0,0,1.31-.2,2-.33-3.23.43-6.47.85-11.87,1.36.32-.07-.31,0,1.3-.21-9.28,1-15.79,1.86-26,2.8,3-.52-3.47.28-4,.14l-5.47.61,2.2-.13c-4.79.48-9,1-13.14,1.4l3.55-.43-9,.94,5.1-.44c-4.85.58.54.18-5.85.77,1.3-.15-4.79.48-7.3.63h0c-2.36.3-4.8.61-8.35.92-.92,0,.72-.28.12-.25-2.32.39-11.22,1.17-14.17,1.64,1-.14,1-.24.7-.23l-1.95.32c-2.23.19-2.55.2-2.2.09-6.68.65,2.14,0-5.79.72.62-.07.32-.06,1.61-.21-8,.75-15.37,1.63-22.7,2.31-2.18,0,6.39-.69,3.9-.6-10.54,1.1-21.82,2.43-32,3.42l1.9-.17c-1.39.41-7.61.64-12.77,1.28,1.27-.14,1.65-.31,1.31-.25-7,.67-14.29,1.51-24.88,2.67l1.31-.2c-4.13.35-10.85,1.06-15.31,1.48-1.31.2-3.86.45-2.3.39-13.76,1-26.16,2.85-38.37,3.76,1.46-.15,3.47-.41,2.31-.29l-10.37,1.11c.84,0,1.37-.07,3.56-.2-1.31.2-4.23.55-6.8.81,4.66-.55-.06-.18-2.08,0,.34,0-.35.11-.17.13-5.44.34-.89.32-8.3.93l.39-.1c-2.77.31-5.31.65-8.3.93-1.25,0,2.94-.36,3.12-.49-4.19.44-8.25,1.09-12.05,1.34,1.77-.21,4.33-.47,6.11-.69-4.15.26-4.62.35-7.7.64l.31,0-7.11.65,1.81-.14c-5.21.87-10.68,1.14-17.72,2.08,6.85-.91,1.12-.24,1.63-.44-1.81.14-4.55.37-3.78.25-3.33.46-5.58.47-10.28,1.12-.22,0-3.58.36-2.83.16-4.34.48,1,0,.67.08-6.68.84-15.76,1.39-25.36,2.59-8.3.93-9.82,1.25-17.52,2.11-2.61.19,2.11-.39,2.11-.39-4.2.35-7.35.68-11.3,1.14.79-.12,0-.08-1.25,0-3.17.33-2.1.39-6.29.74.71-.12,1.62-.3,3.15-.51-3.74.42-7.42.89-11.29,1.32-1,0,2.33-.36,3.68-.56-4.34.48-11.26,1.22-12.59,1.49l2.8-.24c-1.59.17-.83,0,.34-.17a38,38,0,0,1,5.59-.47l-2.75.31c2.86,0,11.07-1.17,16.62-1.71l-2.29.44,5.67-.75c1.22-.07,2.06,0-.68.27,4-.3,3.52-.43,6.95-.66.37,0,.2,0-.14.05l3.88-.45c-.76.12.66.08-1.73.29,7-.59,11.23-1.29,13.88-1.4l-.59.07c9.68-1,.93-.25,8.17-1.16l4.92-.12.94-.25a20.24,20.24,0,0,1,2.62-.18c3.7-.48-.64,0,1.5-.32,4.83-.35,13.25-1.4,14.36-1.27,1.71-.29-4.61.37.52-.23,1.49.12,5.93-.64,10.33-1-1.33.27-5.5.62-1.1.29,2.63-.49,8.56-.81,12.26-1.23.16-.2,8.05-.89,14.26-1.58-.39.1,11.7-1.08,17.49-1.6l-.16,0c1.1-.3,7.07-.87,11.4-1.35A14.14,14.14,0,0,1,284,159l4.08-.41c1-.16,2.23-.32,4.88-.61l-1,.24c5.44-.55,10.93-1.27,17.93-1.88.38-.17-5.59.21,1.79-.63.28.05.57.14-1.37.36.64-.07,2.26-.29,3.54-.39l-2.94.42c3.19-.27,1.65-.27,4.2-.51,0,.1,1.89-.12,1.53,0-.65.08-2.22.19-3.19.32,2.87-.27,6.35-.56,7.5-.6-.26,0,0-.14,2.09-.36,5.43-.56,1.87-.07,5-.34,1.31-.2,4.79-.48,4.86-.64a22.6,22.6,0,0,1,2.51-.14c2.81-.35,13.14-1.35,10-1.18l-.72.06.46-.06h0c9.2-1.07,19.16-1.85,28.3-2.84v.06c5.45-.61,12.15-1.27,16-1.77,1.62-.16,3.82-.29,3.14-.16,4.17-.46,4.63-.57,10.67-1.09-4.19.51,1.45-.07-4.29.49,5.42-.5,6.66-.55,12.47-1.27-2,.33,4.1-.25,6.67-.55l-3.81.29c2.9-.31,5.43-.56,8-.8l-1.38.3c11.12-.92,20-2.36,28.46-2.88,2.93-.41-6,.53-3.42.13,5.11-.5,10.45-.8,12.05-1,7-.61,6.5-.9,13.82-1.58-.94,0-1.84,0,3.62-.64,5.12-.49,6.31-.39,3.09,0a12.64,12.64,0,0,1-1.77.14c-1.65.19-3.81.43-1.78.29l.66-.12c2.54-.2,9.56-.91,7.92-.65,3.86-.45,1.64-.26-1.22,0,6.56-.57,10.24-1,17-1.65-1.08.07-2.07.1-1,0,9.9-.93,4.35-.56,11.05-1.26,3.82-.29-1.34.35,5.4-.4,4.12-.36.88.06-.75.28,6.14-.74,11.49-1.09,15-1.42l-3.24.37c1.94-.22,3.52-.38,5.14-.54l-1.86.06c1.9-.17,3.51-.33,3.48-.28,2-.27-1.52,0,2.36-.54,2.54-.2,7.71-.85,8.6-.78-8,.76.9.07-5.85.78,1.3-.15,2.89-.31,4.8-.48.29,0-.27.06-.79.12,7.64-.63,3.49-.53,11.4-1.33-1,.19,1.85,0,3.13-.17-3.18.32-1.53,0,1.38-.35,5.08-.45,5.51-.61,8.16-.87l-3,.27c1-.19,3.55-.43,7.08-.82.31,0-3.2.37-1.94.28,3.91-.56,8.88-.74,14.34-1.4,2.54-.19.26.14,2.49,0,6.12-.74,6.66-.55,13.09-1.3-1.87.07-2.19.13,2.34-.44l-10.59,1.15,6.78-.86c-3.19.33-6.74.76-8.65.93,3.23-.42,2.9-.36,1.35-.3,4.4-.27,8.67-1,13.74-1.37l-.13.31c7.62-.64,13.5-1.52,23.38-2.44l-3.18.27c1.31-.25,6.09-.64,9.28-1a19,19,0,0,0,3.09-.11c-.17-.06,7.23-.73,8.1-1l4.42-.32c8-.75,9.07-1.2,16.74-1.94-2.3.34,1.19.06-3.93.65,2.56-.25,4.86-.47,4.89-.54,1.5-.09,7.08-.85,9.44-1,1.08-.15,1.42-.29,4.29-.57.32,0,0,0,0,0s4.49-.52,2-.37c7.91-.49,22-2.25,28.91-2.68,5.58-.6,12.31-1.31,17.37-1.83a3.75,3.75,0,0,1-1,.13c7-.61,4.27-.71,12.24-1.41,4.08-.26-4.22.51-1.67.31,1.13.21,9.59-1,15-1.37l-1.3.15c4.11-.3,10-1.13,16.67-1.78,0,0-.33.06,0,0,4.56-.62,13.21-1.55,19.64-2.25-2,.33-2.92.36-1.68.37,2.88-.31-.87-.12,4.88-.74,1.88-.12,6-.48,6.61-.4l-5.43.56c2.8-.11,7-.72,9.89-1l-.36.12c8.32-.87,8.42-1.08,17.36-2l-.93,0c4.87-.69,4.11-.31,9-1l1.49,0c3.22-.37,11.28-1.33,17.06-2-3.26.48-10,1.23-14.2,1.74,3.2-.32,10.86-1.11,12.52-1.37-1.29.15-2.91.36-4.18.46,3.9-.56,9.06-1.15,15.43-1.79-1.09.49,16.61-1.59,21.26-1.76,11.25-1.28,22.36-2.2,35.49-3.55-4.69.18,3.83-.39,3-.62,3.06-.32,4.22-.44,4.5-.45l9.28-.75c2.21-.13-2.9.36-2.61.4,6.7-.65,2.82-.15,7.26-.52-.92,0,2.31-.39,6.13-.74l-5.38.41c9.34-1.11,8.11-.57,17.52-1.68l-3,.4c4.83-.55,17.85-1.81,22.57-2.53.86,0,2-.08-.13.16C981.81,88.8,996,87.07,1005,86.31l-.87.17c2.15-.24,3.74-.52,6.45-.72-.14,0-.86.16.14.06s5.71-.7,8.58-.95l-2.44.33c11.29-1,17.3-2,26.75-3,0,.22,8.88-.61,13.32-1l-.16,0c13.14-1.3,22.3-2.44,34.46-3.76,7.57-.52,25.59-2.48,37.74-3.58-1.86.15.28-.2,2.43-.44,2.86-.24,7.86-.94,7.43-.7l-1,.1c2.16,0,8-.66,12.58-1.12l.73-.34c12-.83,31.3-3.31,37.86-3.62,2.88-.36,6.45-.72,9.31-1.08l-.14.16c8-.77,12-1.16,21.86-2.19l-2,.31c5.57-.56,7-1.12,12.13-1.65l1.57,0c9.72-1,19.58-1.79,29.17-2.95a12.62,12.62,0,0,1-2,.3c4.58-.46,17.71-1.65,16-1.77.14.18,10-1,15.28-1.61l-.81.22c4.42-.62,4.55-.68,10.74-1.36,1.47-.13,1.29,0-.66.14,4.9-.42,3.8-.51,9.73-1l-2.2.31c5-.49,4.63-.5,7.38-.88,3.16-.38,9.54-.93,10.3-.88.67-.15,3.41-.53,6.38-.79.4,0-.67.14-1.21.21,8.41-.75,12.48-1.42,18.28-1.87a4.74,4.74,0,0,0,1,0c-6.68.68-12.06,1.21-11.55,1.15,0,.13,5.41-.39,1.13.22,4.32-.54,11.71-1.5,17-2l.7,0-.54.07c1.21-.11,2.3-.24,3.32-.36,1.68-.15,2.75-.24,4.36-.4.63,0,6.19-.57,8.88-.84-.23-.12,3.29-.45,0-.23.43,0-.51.07-2.29.25l-1.15.13.18,0-6.68.69c2.11-.29,4.33-.57,7.31-.8l3.74-.6c3.7-.18,10.8-.79,11.8-.77,8.21-.91,19.35-2,24.49-2.79a32.76,32.76,0,0,1,3.57-.25c-1.35.17-3,.33-3.68.44,4.66-.54,13.83-1.43,14.93-1.72,5.89-.52-3.29.5,4.79-.35l-1.08.17c15.94-1.32,25.81-3.09,43.49-4.49-1.22.1-1.84.15-2.09.14,20.13-1.86,41.43-4.34,61.3-6.08,5.64-.52,6.24-.7,9.67-1.14l1.24,0,5.87-.77c8.33-1,14.49-1.09,25-2.4l-1.37,0c3.79-.37,12-1.28,11.39-1.1a24.56,24.56,0,0,1,2.72-.33l.13.07,9.3-1.08c7.24-.67-1.1.43,9.45-.62,3.92-.43,11.14-1.36,9.66-1.26s-4,.36-4.17.29l3.58-.4c.63-.3,3.36-.82-5.46-.09l-6.11.76-2,.09,5.16-.53c-2.94.19-4.79.47-6.86.75-.5,0-1.36,0-2.58.13l-6,.83c-.74,0,2.68-.45-1.36-.09-2.81.39,2.72-.07-1.94.47a49,49,0,0,0-5.53.46c-.49,0,.24-.13,1.6-.29-3.06.38-8.11.85-9.68,1.13-3.07.18-10.35,1.08-10.07.83-.95.15-5.38.72-8.19,1,5.12-.79-10.54,1-9.21.63-3.78.62-13.74,1.49-20.47,2.3.38-.05,1.11-.17,1.71-.21-3.8.36-4.91.4-7.35.6-.47.25-6.38.89-9.55,1.33-4.67.28,2.8-.51,1.32-.55.25.14-8.06,1-6.47.95-3.57.24-3.07.25-4.92.28-.6.3-3.3.37-6.24.82-5.16.4-1.35-.09-7,.55C1483.56,36.68,1488.58,36.09,1488.58,36.09Zm-134.47,14h0l2.78-.29Zm-11.3,1.15,4.9-.49c.41,0,0,.1-1.16.21C1347.17,50.88,1344.5,51.12,1342.81,51.25Zm24-1.45a25,25,0,0,1-2.64.23l3.13-.33.21,0A7,7,0,0,1,1366.82,49.8Z"/><path class="cls-1" d="M1370,49.29l.73-.08-1.07.07-.63.11Z"/><path class="cls-1" d="M345.35,152.68l.24,0-.5,0Z"/><polygon class="cls-1" points="1186.7 66.76 1186.72 66.8 1187.71 66.67 1186.7 66.76"/><path class="cls-1" d="M283.05,158.49c-.12,0-.36,0-.82,0Z"/><path class="cls-1" d="M256.15,161.18l-3.8.33Z"/><path class="cls-1" d="M235.47,163.2a1.88,1.88,0,0,0-.4.1h0Z"/><path class="cls-1" d="M564.2,129.8l.8-.09C566.87,129.49,565.6,129.63,564.2,129.8Z"/><path class="cls-1" d="M466.4,140l3.14-.38A24.66,24.66,0,0,0,466.4,140Z"/><path class="cls-1" d="M673.43,118.58h0l.67-.07Z"/><path class="cls-1" d="M474.09,139.17c-1.74.15-3.2.3-4.55.46C471,139.5,472.65,139.34,474.09,139.17Z"/><path class="cls-1" d="M145.85,172.19l-1,.1s0,0-.11,0Z"/><path class="cls-1" d="M144.74,172.32l-1.11.13C144.14,172.4,144.58,172.35,144.74,172.32Z"/><path class="cls-1" d="M141.31,172.72l2.32-.27C142.83,172.53,141.83,172.63,141.31,172.72Z"/><path class="cls-1" d="M173.23,169.49l.31-.08A.89.89,0,0,0,173.23,169.49Z"/><path class="cls-1" d="M181.54,168.64c-2,.18-5,.39-7.75.7l-.25.07C174.83,169.2,179.67,168.91,181.54,168.64Z"/><path class="cls-1" d="M216.33,165.75l-7,.67c1.23-.07,2.84-.16-.33.17C217.82,165.86,207.19,166.65,216.33,165.75Z"/><path class="cls-1" d="M238,163.65c-3.75.4.05.07-.15.12C240.17,163.48,240.75,163.41,238,163.65Z"/><path class="cls-1" d="M394.13,147.86l-.37.16C396.65,147.71,393.78,148,394.13,147.86Z"/><polygon class="cls-1" points="423.92 144.18 421.1 144.39 419.77 144.64 423.92 144.18"/><polygon class="cls-1" points="441.64 143.3 440.38 143.45 445.19 142.92 441.64 143.3"/><path class="cls-1" d="M703.94,116.74l-.89-.07C701.11,116.9,700.71,117.12,703.94,116.74Z"/><path class="cls-1" d="M817.16,105.13c1.24,0,4.44-.31,6.39-.59C821,104.79,818.46,105,817.16,105.13Z"/><polygon class="cls-1" points="1156.8 71.06 1154.52 71.34 1158.81 70.86 1156.8 71.06"/><g class="cls-2"><path class="cls-1" d="M125.65,187.17c-.77.17-.31.32,1.85,0l1.5-.51Z"/><path class="cls-1" d="M140.28,186.06c2.52-.46,5.42-1.09,3.74-1.2-2.48.62-3.11.56-5.78,1.25-2.16.3-3.79.34-3.44.18-.75.18-3.37.33-4.51.67a73.12,73.12,0,0,0,10.12-1.14C141.22,185.8,140.45,186,140.28,186.06Z"/><path class="cls-1" d="M351.83,161.6l-1.37.13Z"/><path class="cls-1" d="M482.88,146.32a7.45,7.45,0,0,0-1.45.24A7.91,7.91,0,0,0,482.88,146.32Z"/><path class="cls-1" d="M505.3,144l-1.32.13A12,12,0,0,0,505.3,144Z"/><path class="cls-1" d="M351.83,161.6l3.51-.31A26.71,26.71,0,0,0,351.83,161.6Z"/><path class="cls-1" d="M169.35,181.82c-.74.1-1.34.21-1.89.31l1.78-.24Z"/><path class="cls-1" d="M294.09,168.69l-1.06.13c-.31.07-.6.15-.87.23Z"/><path class="cls-1" d="M249.77,174a3.74,3.74,0,0,0,1.69-.59,14,14,0,0,1-2.17.45S249.42,173.93,249.77,174Z"/><path class="cls-1" d="M179.42,181.78l-1.25.19Z"/><path class="cls-1" d="M325.83,165a1.1,1.1,0,0,0,.42.06S326.08,165,325.83,165Z"/><path class="cls-1" d="M1565.52,16.53s0,0,0,0C1565.78,16.53,1565.86,16.5,1565.52,16.53Z"/><path class="cls-1" d="M1617.07,11.85l-.71.1c-.07.06-.14.12-.14.17Z"/><path class="cls-1" d="M546.29,139.56l-.19,0C545,139.74,545.64,139.66,546.29,139.56Z"/><path class="cls-1" d="M922.14,95c-4.29.26,6.89-1.13.45-.65C923.2,94.36,916.81,95.45,922.14,95Z"/><path class="cls-1" d="M170.5,181.72l1.82-.21C171.49,181.59,170.93,181.66,170.5,181.72Z"/><path class="cls-1" d="M922.59,94.33h0l-.67.05Z"/><path class="cls-1" d="M640.61,128.26a7.45,7.45,0,0,0-1,0A5,5,0,0,0,640.61,128.26Z"/><path class="cls-1" d="M570.28,136.16,572,136C571.33,136,570.77,136.1,570.28,136.16Z"/><path class="cls-1" d="M677.05,123.56c1-.1,1.28-.09,2.56-.28h-.39A20.27,20.27,0,0,1,677.05,123.56Z"/><path class="cls-1" d="M715,119.07l-.7,0-1.21.15Z"/><path class="cls-1" d="M1450.1,30.3a14.94,14.94,0,0,1,1.79,0C1451.28,30.21,1456.85,29.48,1450.1,30.3Z"/><path class="cls-1" d="M169.38,182a4.6,4.6,0,0,1,1.12-.26l-1.26.17C169.13,181.94,169.11,182,169.38,182Z"/><path class="cls-1" d="M678.34,121.17l6-.67C682.69,120.67,680.49,120.92,678.34,121.17Z"/><path class="cls-1" d="M1177.62,62.5l1.38-.2C1178.47,62.36,1178,62.43,1177.62,62.5Z"/><path class="cls-1" d="M702.28,118.34c1.09,0,2.24-.1,3.42-.2.25-.06.53-.11.69-.16Z"/><path class="cls-1" d="M1451.9,30.34h0Z"/><path class="cls-1" d="M1491.57,25c-5.75.67-2.66.67-3.85,1-6.85.91-3.21.1-5.57.19-4.27.6-7.52,1.33-10.72,1.69-.24,0-.87,0-.15-.14-4.49.83-13.45,1.6-18.68,2.59a4.28,4.28,0,0,1-.7,0c.88.08,1,.25.87.41a44,44,0,0,1-5.75.67,14.12,14.12,0,0,0,2.43-.45l-2.69.42c-2.47-.06,3.67-.56,3.64-.81-5.25.73-11.36,1.74-15.4,2.12-.89-.24,9.42-1.23,4-.89l6.26-.61c-4.84,0,3.8-.41-.65-.46-8.23.87-9.18,1.26-17.38,2.13-1.83.4.64.2-1.19.61-11.61,1.71-9.27.23-17.78,1.69a40.14,40.14,0,0,1-9.13,1.51l2-.63c-8,.9-4.48,1.09-12.84,1.82,1.46-.33,6.24-.87,5-.77-5.44.33-3.8.66-7.95,1.15l-.9-.23c-8.46,1-17.76,2.4-27.14,3.57.51-.17,2.11-.46-.1-.31-11.81,1.57-25.26,2.94-36.7,4.09l-4.33.81c-1,.11-1.89.09-.8-.1-4.46.42-.21.21-2.34.58-2.52.32-3.36.23-1.76,0-7.82,1.17-22.3,3.17-30.61,3.84l1.6-.28c-6.45.64-7.19,1.46-13.2,1.89l1.14-.19c-14,1.53-29.4,3.62-40.12,4.43-2,.66-13.85,1.45-14.68,2.14-8,.65-5.75.28-17,1.41-3,.33-4.43.9-8.13,1.39l-.13-.29-5,.91-2.73,0-3.47.48a10.05,10.05,0,0,1,2.77-.09,124.67,124.67,0,0,1-13.44,1.21L1155.5,65.2a40.74,40.74,0,0,1,4.11-.74c-6.82,1.13-1.28-.17-7.54.86.85,0-.43.23-.57.31-3.16.19-10.3,1-15.57,1.73l1-.33c-9.55,1.07-20.1,2.47-30.81,3.73,3.85-.35,3,.12-.13.52l-1.29-.17c-2,.44,3.29-.27-.84.47-4,.44-2.73,0-.45-.43l-4.85.69c-.3-.06.84-.25,1.12-.41-2,.44-8.43.67-11.27,1.36l-.28-.07c-10.71,1.27-15.55,2-24.27,3-.14.3-3.55.64-6.13,1.17-6.41.67-13.55,1.29-21.27,2.22-5.41.78-1.56.42-4,.88-.43-.21-8.14.73-4.16.07-9.26,1.14-11.83,1.45-23.52,3,1.28,0,2.72-.17,2,0-2.12.3-4.85.47-4.56.31l.56-.09c-13.11,1.93-30.45,2.84-40.86,4.61l.58-.1-10.83,1.56c-5,.55,3-.55-.74-.27-11.67,1.81-18.52,2.13-28.14,3.55-7.56.13-26.5,3.18-36.64,3.89l.6.11a37.48,37.48,0,0,1-5.08.46c.28.1,2.84-.18,1.23.11-22,2.82-45.59,5.12-68.24,7.63-8.28.93-4.59,1.47-15.08,2.28l2.93-.68c-16.66,2.37-34.16,4-50.47,6.29a17.61,17.61,0,0,1,2.57-.48A111.58,111.58,0,0,0,741.79,114c-2.54.28-.61-.1-2.19,0-3.48.26-8.66,1.33-10.53,1.31a8.08,8.08,0,0,1,1.6-.29c-2.24.38-10.52,1.21-8.33,1.23-6.15.6-11.73,1.51-16.64,1.93-3.16.68-10.52,1.09-11.49,1.64.39-.5-10.8.91-14.66,1.58,1.29-.29-3.39.26-1.89-.11-4.42.53-8.47,1.09-7.67,1.23-8.23.43-16.35,2.37-21,2.22-13.12,1.8-25.28,3.4-37.1,4.9.37-.5,13.08-1.59,12.51-2-11.2,1.51-17.63,2.66-28.78,3.87-2.89.28,1.62-.39,2.58-.58-11.19,1.51-21.69,2.52-31.64,3.94a18.09,18.09,0,0,1,2.11-.37c-2,.24-4.59.47-4.34.65l1.91-.28c3.18-.08-7.74,1.54-8.07,1.73,3.27-1-9.88,1-4.66-.34-1.29.19-2.9.48-2.59.58-1.92.18-2.54.18-.61-.21-7,.94-4.51.87-10.89,1.61a18.91,18.91,0,0,1,1.94-.48c-3.21.57-6.43,1.15-11.84,1.7.32-.1-.31-.1,1.3-.29-9.27,1.13-15.73,2.38-25.92,3.39,2.95-.78-3.47.27-4.05,0l-5.46.76,2.22-.08c-4.79.56-9,1.33-13.12,1.69l3.54-.57-9,1.13,5.09-.46c-4.82.76.58.41-5.81,1.06,1.29-.19-4.79.56-7.31.63h0c-2.35.4-4.78.81-8.33,1.14-.93,0,.69-.5.09-.51-2.3.59-11.2,1.41-14.12,2.09,1-.2,1-.4.67-.4l-1.93.49c-2.22.18-2.55.18-2.21,0-6.68.74,2.17.22-5.77.95.62-.09.32-.1,1.61-.29-8,.84-15.34,2-22.66,2.71-2.2-.11,6.37-.84,3.86-.86-10.52,1.31-21.76,3-32,4.13l1.91-.18c-1.36.69-7.63.64-12.75,1.49,1.25-.18,1.62-.48,1.28-.38-7,.73-14.25,1.81-24.81,3.22l1.29-.29c-4.13.37-10.84,1.21-15.29,1.68-1.31.29-3.85.57-2.28.58-13.8.85-26.09,3.5-38.32,4.29,1.45-.17,3.45-.53,2.29-.39l-10.34,1.35a22.74,22.74,0,0,0,3.57-.1c-1.29.29-4.21.74-6.77,1,4.64-.7-.09-.36-2.11-.25.34,0-.34.19-.16.24-5.46.23-.85.57-8.27,1.16l.38-.16c-2.76.39-5.29.85-8.27,1.16-1.27-.12,2.93-.47,3.09-.71-4.18.51-8.2,1.48-12,1.66,1.77-.28,4.32-.59,6.09-.87-4.16.18-4.63.31-7.7.62l.3,0-7.1.69,1.81-.13c-5.16,1.31-10.65,1.39-17.66,2.68,6.81-1.24,1.11-.39,1.6-.75-1.81.13-4.56.36-3.79.18-3.31.64-5.6.47-10.26,1.38-.22-.07-3.57.41-2.85.08-4.33.59,1.05,0,.7.21-6.65,1.12-15.76,1.46-25.33,3-8.27,1.17-9.76,1.68-17.44,2.75-2.61.15,2.09-.6,2.09-.6-4.21.35-7.36.75-11.29,1.32.79-.18,0-.15-1.26-.12-3.17.4-2.08.61-6.27,1a30.43,30.43,0,0,1,3.12-.77c-3.73.53-7.39,1.15-11.25,1.69-1,0,2.3-.53,3.65-.8-4.33.59-11.24,1.48-12.55,1.91l2.8-.24c-1.58.2-.84-.13.32-.32,3.7-.64,5.38-.54,5.61-.46l-2.75.38c2.9.24,11.05-1.39,16.59-2l-2.26.69,5.64-1c1.22,0,2.08.09-.65.48,4-.27,3.5-.56,6.94-.74.38,0,.21,0-.13.09l3.86-.58c-.75.18.68.21-1.71.44,7-.59,11.2-1.64,13.86-1.64l-.58.1c9.65-1.28.9-.42,8.11-1.63l5,.17.92-.41c1-.11,3-.32,2.62-.15,3.69-.65-.65-.06,1.49-.51,4.83-.29,13.22-1.69,14.35-1.34,1.7-.43-4.61.37.5-.4,1.52.35,5.91-.79,10.32-1.07-1.31.43-5.48.78-1.07.5,2.6-.76,8.56-.91,12.24-1.43.13-.38,8-1.1,14.22-2-.38.16,11.7-1.18,17.49-1.74l-.16.09c1.07-.5,7-1.14,11.36-1.72-.14.24-.91.41-3.25.79l4.08-.48a48,48,0,0,1,4.85-.8l-1,.39c5.42-.65,10.89-1.61,17.89-2.25.36-.3-5.64,0,1.73-1.09.29.1.59.3-1.34.59.63-.09,2.24-.38,3.53-.47l-2.93.58c3.2-.28,1.64-.39,4.19-.67,0,.2,1.9-.08,1.55.11-.65.1-2.23.19-3.19.38,2.87-.31,6.35-.6,7.51-.59-.26-.08,0-.26,2.07-.53,5.42-.66,1.88,0,5.06-.26,1.29-.29,4.77-.56,4.83-.86a11.51,11.51,0,0,1,2.52-.08c2.79-.46,13.11-1.58,9.91-1.52l-.72.06.46-.06h0c9.16-1.38,19.14-2.1,28.25-3.3v.1c5.44-.75,12.13-1.5,16-2.17,1.62-.19,3.83-.27,3.15-.07,4.16-.57,4.62-.73,10.66-1.28-4.17.67,1.46,0-4.28.63,5.42-.55,6.67-.54,12.45-1.49-1.95.48,4.11-.17,6.68-.55l-3.82.27c2.89-.38,5.43-.65,8-.94l-1.35.5c11.13-.91,19.9-3,28.41-3.37,2.91-.58-6,.55-3.44,0,5.1-.56,10.46-.71,12.06-.9,7-.64,6.46-1.25,13.78-2-.95,0-1.87-.21,3.58-1,5.11-.56,6.33-.25,3.12.23a7.52,7.52,0,0,1-1.77.14c-1.64.24-3.8.54-1.77.43l.65-.19c2.55-.18,9.56-1,7.94-.64,3.84-.56,1.62-.38-1.24-.11,6.56-.6,10.22-1.2,17-1.88-1.08.06-2.08,0-1-.08,9.9-1,4.33-.74,11-1.58,3.83-.27-1.31.59,5.41-.36,4.13-.36.91.21-.72.5,6.12-1,11.49-1.2,15-1.58l-3.22.48c1.93-.28,3.51-.47,5.12-.66l-1.87,0a25.84,25.84,0,0,1,3.48-.27c1.94-.38-1.54-.21,2.32-.88,2.54-.18,7.69-1,8.6-.83-8,.83.92.21-5.81,1.06,1.29-.2,2.88-.38,4.78-.56.29,0-.26.09-.77.17,7.65-.62,3.46-.77,11.35-1.69-1,.29,1.87.12,3.15-.07-3.18.37-1.55-.12,1.35-.6,5.07-.46,5.49-.75,8.14-1l-3,.29c1-.3,3.53-.57,7.06-1,.31.11-3.2.48-1.93.39,3.88-.77,8.89-.73,14.33-1.58,2.54-.18.28.3,2.51.12,6.1-1,6.66-.54,13.07-1.49-1.88,0-2.2.08,2.31-.69L594,133.57l6.75-1.15c-3.2.38-6.72,1-8.64,1.13,3.21-.57,2.89-.47,1.33-.49,4.41-.16,8.64-1.23,13.72-1.58l-.09.6c7.63-.63,13.46-1.89,23.33-2.91l-3.18.27c1.3-.39,6.08-.75,9.26-1.22-.27.23,1.73.07,3.11,0-.18-.13,7.22-.84,8.07-1.34l4.43-.26c8-.83,9-1.63,16.68-2.47-2.28.49,1.21.22-3.9,1a35.89,35.89,0,0,0,4.88-.68c1.51,0,7.06-1.1,9.43-1.19a24.85,24.85,0,0,1,4.26-.78c.32,0,0,.09,0,.09s4.48-.66,1.94-.58c7.94-.32,22-2.64,28.91-2.92,5.56-.73,12.27-1.58,17.33-2.2-.31.1,0,.1-1,.2,7-.64,4.22-1.07,12.19-1.81,4.1-.16-4.2.67-1.65.49,1.18.52,9.58-1.22,15-1.47l-1.29.19c4.11-.26,9.94-1.42,16.62-2.16,0,0-.31.09,0,.1,4.52-.87,13.15-2,19.57-2.85-2,.49-2.9.48-1.65.59,2.87-.37-.9-.31,4.84-1.06,1.89-.08,6.05-.45,6.63-.24l-5.42.65c2.82,0,7-.84,9.88-1.11l-.35.19c8.31-1,8.37-1.43,17.31-2.46h-.94c4.83-1,4.12-.26,9-1.12l1.52.22c3.21-.48,11.23-1.72,17-2.47-3.24.68-10,1.62-14.14,2.29,3.2-.38,10.85-1.31,12.49-1.7-1.29.19-2.89.48-4.17.57q5.82-1.16,15.37-2.28c-1,.9,16.6-1.76,21.29-1.72,11.21-1.61,22.33-2.51,35.43-4.11-4.71,0,3.83-.46,3-1,3-.4,4.22-.52,4.49-.52l9.3-.72c2.21-.09-2.89.47-2.59.57,6.69-.74,2.83-.07,7.28-.43-.94-.11,2.28-.59,6.1-.95l-5.4.35c9.31-1.42,8.14-.44,17.52-1.87l-3,.54c4.82-.68,17.83-2.1,22.51-3.15.86,0,2,0-.11.3,11.55-1.29,25.64-3.56,34.65-4.31l-.86.25c2.15-.3,3.72-.72,6.44-.89-.14.07-.85.25.15.14s5.69-.94,8.55-1.19l-2.42.46C1032,82.28,1038,81,1047.41,79.75c0,.44,8.9-.46,13.33-.91l-.14.08c13.12-1.5,22.23-3,34.36-4.6,7.6-.42,25.56-2.82,37.71-4-1.86.14.27-.38,2.41-.68,2.86-.24,7.83-1.23,7.43-.77l-1,.11c2.19.14,8-.66,12.59-1.18l.69-.62c12-.64,31.24-4,37.83-4.05,2.87-.48,6.43-.89,9.27-1.36l-.12.3c8-.87,12-1.31,21.84-2.54l-2,.44c5.57-.64,6.93-1.64,12.06-2.26l1.59.23c9.71-1.15,19.58-1.94,29.12-3.45a5.57,5.57,0,0,1-2,.43c4.57-.52,17.71-1.8,16-2.18.16.36,10-1.14,15.25-1.93l-.79.37c4.39-.87,4.52-1,10.68-1.81,1.47-.14,1.31.07-.64.23,4.9-.43,3.77-.71,9.7-1.27l-2.18.44a56,56,0,0,0,7.35-1.15,80,80,0,0,1,10.31-.89,39.41,39.41,0,0,1,6.35-1c.41,0-.66.23-1.2.33,8.42-.81,12.44-1.8,18.25-2.21a2.42,2.42,0,0,0,1,.05c-6.67.78-12,1.4-11.54,1.32,0,.26,5.42-.33,1.18.52,4.3-.7,11.65-2,16.91-2.49.26,0,.51,0,.71,0l-.55.09c1.22-.12,2.3-.27,3.32-.43,1.68-.16,2.75-.25,4.36-.44.64.14,6.19-.62,8.87-.92-.25-.26,3.27-.63,0-.47a14.24,14.24,0,0,1-2.29.32c-.4,0-.88.11-1.14.16l.18,0-6.67.8a58.58,58.58,0,0,1,7.29-1c1.36-.34,2.86-.7,3.7-.89,3.72,0,10.83-.67,11.85-.55,8.18-1.12,19.31-2.38,24.4-3.51a15.41,15.41,0,0,1,3.58-.19c-1.34.21-2.94.39-3.66.55,4.64-.68,13.81-1.68,14.88-2.18,5.89-.52-3.27.73,4.8-.28l-1.08.24c16-1.29,25.72-4,43.42-5.31a16.4,16.4,0,0,1-2.1.11c20.12-2,41.34-5.19,61.22-7a85.72,85.72,0,0,0,9.64-1.44l1.26.15,5.83-1c8.31-1.23,14.52-1,25-2.69l-1.39,0c3.79-.41,12-1.54,11.38-1.23a12.6,12.6,0,0,1,2.71-.43l.14.15,9.27-1.37c7.23-.74-1.05.76,9.48-.46,3.91-.52,11.09-1.77,9.61-1.7a21.82,21.82,0,0,1-4.18.23l3.57-.5c.59-.54,3.29-1.34-5.54-.62l-6.09,1h-2l5.16-.62a44.36,44.36,0,0,0-6.84.91,15.07,15.07,0,0,0-2.6.06l-6,1.15c-.75-.1,2.65-.68-1.39-.3-2.79.54,2.75.08-1.9.77a24.92,24.92,0,0,0-5.53.45c-.5-.06.22-.23,1.57-.44-3,.51-8.09,1-9.64,1.45-3.08.1-10.32,1.29-10.07.81-1,.22-5.35,1-8.16,1.33,5.07-1.13-10.53,1.22-9.24.49-3.74.92-13.7,1.83-20.4,2.89a12.59,12.59,0,0,1,1.7-.29c-3.8.41-4.92.39-7.36.59-.44.45-6.33,1.24-9.49,1.85-4.68.17,2.77-.79,1.27-1,.27.29-8,1.27-6.42,1.35a32.85,32.85,0,0,1-4.94.14c-.57.56-3.3.47-6.21,1.12-5.17.36-1.38-.3-7,.51C1486.57,25.75,1491.57,25,1491.57,25Zm-134.2,16.69h0l2.77-.35ZM1346.08,43c1.38-.15,3.09-.35,4.9-.57.41,0,0,.2-1.15.33A33.05,33.05,0,0,0,1346.08,43Zm24.1-.89a13.45,13.45,0,0,1-2.63.24l3.12-.4.2-.06A3.11,3.11,0,0,1,1370.18,42.13Z"/><path class="cls-1" d="M1373.35,41.39c.26,0,.4-.07.74-.11l-1.08.06-.62.17Z"/><path class="cls-1" d="M350.22,161.75l.24,0-.5,0Z"/><polygon class="cls-1" points="1190.17 60.88 1190.2 60.95 1191.18 60.77 1190.17 60.88"/><path class="cls-1" d="M288,168.13a6.56,6.56,0,0,0-.83,0A6.58,6.58,0,0,0,288,168.13Z"/><path class="cls-1" d="M261.09,171.23l-3.81.35C258.93,171.45,260.13,171.33,261.09,171.23Z"/><path class="cls-1" d="M240.43,173.53a1.23,1.23,0,0,0-.39.17h0Z"/><path class="cls-1" d="M568.64,134.46l.79-.11C571.29,134.08,570,134.25,568.64,134.46Z"/><path class="cls-1" d="M471,146.64c1-.17,2.05-.34,3.12-.5A11.19,11.19,0,0,0,471,146.64Z"/><path class="cls-1" d="M677.67,121.24s0,0,0,0l.68-.08Z"/><path class="cls-1" d="M478.7,145.61c-1.75.15-3.2.33-4.55.53C475.58,146,477.27,145.82,478.7,145.61Z"/><path class="cls-1" d="M150.94,184l-1,.11s0,0-.11,0Z"/><path class="cls-1" d="M149.83,184.13l-1.1.17A9.32,9.32,0,0,0,149.83,184.13Z"/><path class="cls-1" d="M146.41,184.64l2.32-.34A19.88,19.88,0,0,0,146.41,184.64Z"/><path class="cls-1" d="M178.28,180.87l.3-.14C178.41,180.78,178.31,180.82,178.28,180.87Z"/><path class="cls-1" d="M186.58,179.86c-2,.21-5,.37-7.75.76l-.25.11C179.86,180.43,184.72,180.26,186.58,179.86Z"/><path class="cls-1" d="M221.39,177l-7,.74c1.23,0,2.84-.08-.32.32C222.92,177.37,212.27,178.05,221.39,177Z"/><path class="cls-1" d="M243,174.63c-3.73.49.06.15-.13.24C245.22,174.49,245.79,174.4,243,174.63Z"/><path class="cls-1" d="M398.94,156.22l-.35.3C401.47,156.14,398.6,156.42,398.94,156.22Z"/><polygon class="cls-1" points="428.59 151.39 425.77 151.56 424.46 151.96 428.59 151.39"/><polygon class="cls-1" points="446.41 151.12 445.16 151.31 449.96 150.65 446.41 151.12"/><path class="cls-1" d="M708.31,120.11l-.91-.21C705.46,120.19,705.09,120.59,708.31,120.11Z"/><path class="cls-1" d="M821.33,106.45a43,43,0,0,0,6.39-.65C825.17,106.08,822.62,106.26,821.33,106.45Z"/><polygon class="cls-1" points="1160.48 66.93 1158.22 67.3 1162.5 66.71 1160.48 66.93"/></g></g></g></g></svg>