<svg xmlns="http://www.w3.org/2000/svg" viewBox="0 0 329.45 721.02"><defs><style>.cls-1{fill:#4d4d4d;}.cls-2{opacity:0.3;}</style></defs><g id="Layer_2" data-name="Layer 2"><g id="Layer_1-2" data-name="Layer 1"><g id="sketch-left-rock"><g id="sketch"><g id="sketch-left"><path class="cls-1" d="M277.36,699.45c1.17-.4.42-.33-2.92.62l-2.29.85C273.9,700.46,275.63,700,277.36,699.45Z"/><path class="cls-1" d="M254.2,704.35c-4,.91-8.68,1.94-5.95,1.68,4-1,5-1.06,9.21-2.19,3.44-.72,6-1.19,5.49-1,1.19-.3,5.35-1.13,7.11-1.74-4.5.91-10.15,2.13-16.06,3.44C252.7,704.75,253.92,704.45,254.2,704.35Z"/><path class="cls-1" d="M14.12,633.1v0Z"/><path class="cls-1" d="M10.61,475.28a10.53,10.53,0,0,0,.12,1.77A13.16,13.16,0,0,0,10.61,475.28Z"/><path class="cls-1" d="M10.25,448.34v1.59A13.91,13.91,0,0,0,10.25,448.34Z"/><path class="cls-1" d="M14.12,633.1v-4.21A34.78,34.78,0,0,0,14.12,633.1Z"/><path class="cls-1" d="M207.19,712.31c1.19-.16,2.18-.31,3.08-.45l-2.9.4Z"/><path class="cls-1" d="M14.79,702.69V704a7.12,7.12,0,0,0,.13,1.07Z"/><path class="cls-1" d="M75.09,719.92a12.6,12.6,0,0,0-2.88.24c1.21-.08,2.41-.11,3.62-.09A2.66,2.66,0,0,0,75.09,719.92Z"/><path class="cls-1" d="M190.79,713.45l2-.26Z"/><path class="cls-1" d="M14.85,664.46A1.64,1.64,0,0,0,15,664,2.37,2.37,0,0,0,14.85,664.46Z"/><path class="cls-1" d="M314.32,651h0C314.41,651.26,314.47,651.35,314.32,651Z"/><path class="cls-1" d="M277.08,699l1.09-.33c.09-.08.19-.15.17-.19Z"/><path class="cls-1" d="M9.27,399v.22C9.34,400.54,9.32,399.81,9.27,399Z"/><path class="cls-1" d="M87.74,1.79c-7-.09,11.44-.39.85-.45C89.57,1.4,79,1.82,87.74,1.79Z"/><path class="cls-1" d="M205.31,712.53l-3,.37Z"/><path class="cls-1" d="M6.14,285.41c0,.24-.07.69-.1,1.16A5,5,0,0,0,6.14,285.41Z"/><path class="cls-1" d="M7.93,370.06V368C7.92,368.79,7.92,369.47,7.93,370.06Z"/><path class="cls-1" d="M4.7,241.47v-2.61C4.68,239.42,4.71,240.18,4.7,241.47Z"/><path class="cls-1" d="M3.74,195.73v0Z"/><path class="cls-1" d="M249.89,520.36c.22,1,.32,1.61.38,2.1C250.26,521.75,252.3,528.28,249.89,520.36Z"/><path class="cls-1" d="M207.13,712.23a13.58,13.58,0,0,1-1.82.33l2.06-.28C207.54,712.23,207.57,712.17,207.13,712.23Z"/><path class="cls-1" d="M2.44,239.64l-.12-7.29C2.35,234.4,2.4,237,2.44,239.64Z"/><path class="cls-1" d="M285.52,198.48l-.46,1.64C285.26,199.5,285.43,198.91,285.52,198.48Z"/><path class="cls-1" d="M1.84,210.8c.07-1.3.1-2.68.11-4.1a6,6,0,0,0-.09-.84Z"/><path class="cls-1" d="M269.26,568.16c-3.16-6.51-1.82-3-2.69-4.3-1.9-3.89-2.23-4.81-2.25-5.1s.29.08-.22-1.28c-2.31-4.86-4.19-8.58-5.68-12.26-.05-.29-.31-1,.09-.18-.58-1.3-1.25-2.92-2-4.72s-1.44-3.77-2.16-5.78c-1.44-4-2.83-8.16-4-11.23-.1-.46-.14-.73-.15-.83.12,1,0,1.22-.21,1-.46-1.52-.94-2.92-1.32-4.08a14.19,14.19,0,0,1-.66-2.7,19.16,19.16,0,0,0,1,2.87l-1-3.17c-.46-2.91,1.32,4.37,1.62,4.29a173.88,173.88,0,0,1-5-18.21c0-.52.73,2.28,1.24,4.37s.92,3.56.28.36c.57,2.46,1.13,4.93,1.76,7.4-1-5.71,1.2,4.47.34-.78-.62-2.42-1.1-4.32-1.51-5.94s-.73-3-1.06-4.37-.65-2.72-1-4.37-.75-3.52-1.14-6c-.59-2.19-.15.73-.73-1.46-2.59-13.88-.93-11-3-21.26a63.33,63.33,0,0,1-2.55-10.92l.86,2.44a57.67,57.67,0,0,0-1.77-7.49,73.24,73.24,0,0,1-1.76-7.82c.53,1.75,1.74,7.43,1.48,6-1.1-6.46-1.2-4.52-2.29-9.46l.11-1.06c-1.18-5-2.31-10.32-3.45-15.74-.46-2.72-.94-5.47-1.42-8.25s-.63-5.58-1-8.39c.17.62.46,2.54.31-.09-.09-.89-.21-1.78-.27-2.68s-.05-1.81-.08-2.72c0-1.83-.09-3.64-.14-5.53a49.92,49.92,0,0,1,.16-5.61c.16-1.88.23-3.76.34-5.63.07-.94.1-1.88.2-2.81s.25-1.86.38-2.79c.26-1.86.51-3.7.77-5.52s.44-3.64.81-5.38.72-3.5,1.07-5.19l.7-5.22c.24-1.21.56-2.23.37-.91,1.13-5.28-.15-.3.26-2.85.71-3,1.13-3.94.76-2,.51-2.33,1.14-5.15,1.83-8.23s1.4-6.42,2.39-9.73,1.91-6.67,2.8-9.78,1.74-6,2.65-8.42l-.53,1.91c2.57-7.53,2.18-8.61,4.72-15.57l-.38,1.36c2.62-8.2,5.76-16.75,8.59-24.86s5.76-15.66,8.29-21.85c.48-2.43,6.23-16,6-17.18,1.89-4.61,2.57-6.26,3.43-8.38.43-1.05.9-2.23,1.6-4s1.6-4,2.72-7.28c1.21-3.51,1.4-5.3,2.8-9.66l.34-.06c.55-2,1.14-4,1.6-6l1.31-3.1L285,200a15.19,15.19,0,0,1-1.19,3.19c.89-3.21,2.14-7.11,3.14-10.19l1.18-3.92a14.05,14.05,0,0,1,.57-1.62l1.88-7.64c.64-2.54,1.08-5.09,1.63-7.67.05.36-.48,2.92-.85,5,1.51-8.22.65-1.46,2-9-.29,1-.06-.57-.08-.73.24-.93.58-2.18.88-3.57s.58-3,.9-4.74.63-3.48.94-5.22c.15-.89.3-1.75.45-2.6s.21-1.67.32-2.47l.05,1.23a230.26,230.26,0,0,0,2.68-37.14c0,2.33-.09,3.22-.21,3.06a19,19,0,0,1-.29-3.27l.28-1.53c-.27-2.44,0,4-.4-1-.1-4.83.28-3.26.46-.48l-.14-2.92-.07-1.45-.16-1.46c.06-.35.24,1,.39,1.38-.46-2.39-.45-10.19-1.54-13.6v-.33l-.73-4.53-.94-4c-.3-1.26-.58-2.44-.86-3.59s-.68-2.24-1-3.32-.69-2.13-1-3.19c-.17-.54-.35-1.07-.52-1.6s-.42-1.06-.63-1.6l-1.36-3.33a36.32,36.32,0,0,0-1.58-3.6,12,12,0,0,1-1.47-2.42,35.06,35.06,0,0,0-2.63-4.47,78.7,78.7,0,0,0-18.07-22l-1.81-1.45L264,31.32a3,3,0,0,0-.72-.44s.29.35-1.2-.66c-.1-.62-9.88-6.74-4.72-3.64l-2.1-1.33c-.69-.41-1.38-.78-2-1.15-1.31-.72-2.5-1.4-3.67-2l-3.48-1.68c-.57-.27-1.12-.55-1.69-.8l-1.76-.73c-1.19-.49-2.39-1-3.69-1.53l-4.24-1.54c-3.06-1.07-6.67-2.19-11.25-3.44,1.93.63,4.13,1.3,3,1-3.28-1-7.51-2.1-7-2.08l.89.21q-16.92-4-34.42-6.49C175.4,3.49,164.73,2.4,154,1.8l1,.05Q146,1.3,137,1c-8.26-.4,5,.09-1.14-.3C126.15.41,118.48.22,111.24.1s-14-.16-22,0C83,0,72,.19,60.51.78S37,2.27,28.68,2.92h1c-4.27.54-5.2.45-8.37.79.47,0,4.67-.41,2,0-3.48.41-7,.86-10.49,1.46-1.76.28-3.52.6-5.28,1-.9.2-1.79.44-2.66.72a10.34,10.34,0,0,0-1.37.56,1.85,1.85,0,0,0-1.2,1.31c-.34,5.5-.69,11.06-1,16.64L1,29.51.9,33.69.66,42.05C.49,47.63.33,53.23.16,58.8S.06,69.92,0,75.41c-.06,10,.91,5.66.47,18.2L.14,90.05c.17,10.06.35,20.34.41,30.58s.14,20.39.5,30.27a25.51,25.51,0,0,1-.23-3.13c-.08,2.08,0,5.93.08,9.26,0,1.67.12,3.21.18,4.33a10.55,10.55,0,0,0,.17,1.86c0,3.07-.16.73-.23,2.61-.08,4.17.47,10.47.27,12.68a13.8,13.8,0,0,1-.13-1.93c.16,2.72.18,12.68.41,10.07,0,7.39.42,14.13.38,20,.38,3.85.11,12.66.57,13.88-.46-.53-.1,13,.21,17.63-.17-1.56,0,4.07-.27,2.24.13,5.33.33,10.2.54,9.29-.31,9.83.9,19.74.34,25.28.58,15.87,1.11,30.52,1.66,44.77-.46-.51-.45-15.75-.91-15.13.51,13.52,1.1,21.31,1.33,34.73,0,3.47-.24-2-.35-3.14.53,13.51.65,26.12,1.21,38.13a5.69,5.69,0,0,1-.08-.83c0-.48-.07-1.1-.11-1.72.08,2.37.08,5.51.28,5.24l-.11-2.31c.19-3.79.87,9.4,1,9.82-.7-4,.17,11.88-.75,5.5.08,1.55.23,3.51.36,3.15,0,2.32,0,3.05-.25.73.33,8.48.47,5.47.67,13.15-.1,0-.18-1.57-.31-2.37.29,3.89.59,7.8.69,14.29-.07-.38-.13.37-.18-1.56.33,11.15,1,19,1.17,31.24-.53-3.6,0,4.16-.38,4.82l.29,6.55.11-2.64c.15,5.76.55,10.85.56,15.81L9,468.94l.35,10.8v-6.12c.35,5.83.46-.62.56,7.05-.08-1.56.15,5.76,0,8.74h0c.2,2.85.4,5.78.42,10-.09,1.12-.43-.88-.49-.16.38,2.81.45,13.51.86,17.06-.1-1.19-.3-1.25-.33-.85l.31,2.36c0,2.66,0,3.06-.21,2.63.15,8,.41-2.56.44,7,0-.73-.06-.38-.14-1.94.13,9.57.62,18.5.72,27.29-.31,2.6-.29-7.68-.53-4.71.4,12.69,1.08,26.27,1.26,38.54v-2.29c.57,1.7-.06,9.15.33,15.35-.07-1.51-.34-2-.27-1.58.12,8.42.48,17.19.87,29.94L13,626.49c0,5,.16,13,.19,18.4.16,1.59.19,4.65.36,2.79-.31,8.25-.14,16.12,0,23.76.09,3.81.22,7.58.21,11.3s-.09,7.4-.28,11.06c0-1.75-.09-4.17-.1-2.78v12.47a32.14,32.14,0,0,0,.35-4.26c.06.8.12,2.07.15,3.54v3.49a11.57,11.57,0,0,0,.11,1.17c-.21-1.4-.18-2.1-.23-2.33s-.09,0-.14.55a7.22,7.22,0,0,0,0,.93,5.19,5.19,0,0,0,.11,1.18,6.57,6.57,0,0,0,.4,1.18l.56,1c-.09-.21,0-.12.12,0s.29.22.24.11c.3.37.57.68.81,1a5.54,5.54,0,0,0,.77.66,7.21,7.21,0,0,0,1.13.81,6.56,6.56,0,0,0,1.22.59c.62.22,1.23.46,1.81.72l2,.81c.9.3,2,.73,3.4,1.13l-.65-.09a105.84,105.84,0,0,0,13.27,2.58c1,.25-.22.09-1.71-.11s-3.25-.52-3.44-.46c6.78,1.22,13.55,1.45,19.75,2.12-2.94-.14-7.15-.51-10.07-.78,4.18.61,8.41,1,12.66,1.23h-.5c3.9.3,7.81.47,11.73.64l-3-.17c8.7-.2,17.67.31,29.35-.23-11.34.47-1.88.21-2.74.45,3,0,7.53,0,6.24.07,5.51-.31,9.23-.11,17-.69.36.06,5.9-.26,4.67,0,7.16-.41-1.7,0-1.11-.16,11-.76,26-1.16,41.74-2.86,6.81-.66,10.82-1.15,14.71-1.62l13.93-1.7c4.27-.35-3.43.64-3.43.64,6.88-.64,12-1.26,18.45-2.14-1.29.23.06.11,2-.05,5.16-.69,3.39-.69,10.22-1.5-1.15.23-2.62.56-5.09,1,6.07-.86,12-1.83,18.28-2.85,1.69-.13-3.73.76-5.92,1.15,7-1.05,18.2-2.91,20.29-3.51l-4.52.69c2.56-.43,1.37-.06-.51.29a61.57,61.57,0,0,1-9.06,1.29l4.44-.73c-2.34.17-6.81.87-11.83,1.66s-10.59,1.65-15.11,2.19l3.69-.79-9.21,1.46c-2,.16-3.37.16,1.08-.43-6.51.63-5.71.8-11.33,1.27-.62,0-.34,0,.23-.08l-6.33.8c1.23-.2-1.1-.1,2.81-.49-11.42,1.08-18.35,2.12-22.7,2.28l1-.11c-15.85,1.46-1.49.38-13.36,1.64l-8.11.06-1.53.34a37.08,37.08,0,0,1-4.3.19c-6.09.55,1.05,0-2.48.4-7.92.35-21.81,1.31-23.63,1-2.83.29,7.59-.21-.86.27-2.44-.28-9.78.45-17,.41,2.22-.23,9.08-.32,1.83-.31-4.36.45-14.11.15-20.21.12a71,71,0,0,1-8,0c-4.53-.13-10.36-.38-15.47-.73.34,0-4.47-.35-10.46-1.13-3-.36-6.28-.9-9.35-1.51a63.49,63.49,0,0,1-8-2.12l.27,0a21.26,21.26,0,0,1-6.34-2.57,13.61,13.61,0,0,1-1.91-1.4l-.79-.85a7.06,7.06,0,0,1-.62-.92,7.36,7.36,0,0,1-.75-4,1.84,1.84,0,0,1,.24,1,7,7,0,0,0,.75,2.72,7.21,7.21,0,0,1-.42-1.09,5.39,5.39,0,0,1-.15-1.13V704c-.11-1.16-.16-2.69-.18-5.87l.27,1.23c0-6.55-.18-13.16,0-21.57-.26-.48-.65,6.68-.9-2.19.14-.33.37-.65.45,1.67,0-.73-.14-2.72-.1-4.25l.27,3.55c.07-3.83-.22-2-.22-5.1.2.06.12-2.27.28-1.83,0,.78-.06,2.67,0,3.84,0-3.45.09-7.62.22-9-.11.3-.26,0-.31-2.53-.07-6.55.22-2.24.28-6.05-.15-1.59,0-5.75-.34-5.82a21.62,21.62,0,0,1,.18-3c-.19-3.38-.31-15.8-.56-12v.32h0c-.51-11.08-.2-23-.59-34h.1c-.26-6.55-.39-14.61-.71-19.3,0-1.94.08-4.58.22-3.76-.19-5-.31-5.57-.31-12.82.29,5,.12-1.75.24,5.16-.06-6.52.07-8-.38-15,.31,2.38.2-4.92,0-8l-.06,4.57c-.13-3.48-.18-6.55-.24-9.63l.38,1.67c.07-13.35-1.29-24-.87-34.23-.33-3.53,0,7.29-.33,4.1-.12-6.14.19-12.54.14-14.47,0-8.41-.7-7.83-.8-16.63-.09,1.12-.38,2.18-.67-4.37-.12-6.15.3-7.56.5-3.68a10.73,10.73,0,0,1,0,2.12c.09,2,.21,4.59.28,2.19l-.14-.8c0-3.05-.2-11.5,0-9.52-.24-4.63-.25-2-.22,1.46,0-7.88-.32-12.31-.43-20.39,0,1.29-.14,2.48-.17,1.19C10,439.34,9.83,446,9.56,438c.06-4.58.48,1.63.11-6.48,0-5,.28-1.05.43.92-.43-7.39-.22-13.84-.29-18l.2,3.9c-.12-2.33-.17-4.24-.23-6.18l-.17,2.23c0-2.29-.07-4.22,0-4.19-.22-2.35-.35,1.82-.69-2.86,0-3-.38-9.28-.09-10.33.15,9.58.29-1.07.55,7.05-.08-1.57-.12-3.48-.14-5.77,0-.34.07.32.1.94,0-9.17-.47-4.2-.71-13.71.21,1.2.27-2.18.19-3.76.1,3.83-.24,1.84-.47-1.67,0-6.1-.28-6.63-.35-9.82v3.64c-.21-1.23-.27-4.28-.44-8.52.13-.37.2,3.86.22,2.33-.44-4.71,0-10.66-.35-17.23,0-3,.32-.3.34-3-.42-7.37,0-8-.36-15.73-.18,2.23-.11,2.63-.48-2.83l.49,12.74-.55-8.17c.09,3.84.36,8.11.37,10.41C7,340,7,340.35,6.87,342.19c.22-5.27-.48-10.42-.39-16.51l.59.17c0-9.14-.72-16.24-.88-28.11v3.82c-.27-1.59-.23-7.33-.41-11.17.2.35.22-2.05.3-3.69-.14.2-.19-8.69-.61-9.76l.13-5.31c-.12-9.59-.82-10.93-1-20.15.28,2.77.32-1.42.62,4.76,0-1.54-.07-3-.09-4.09A7.39,7.39,0,0,0,5,250.22c.08-1.79-.47-8.52-.35-11.36a38.85,38.85,0,0,1-.38-5.17c0-.38.1,0,.1,0s-.25-5.4-.41-2.38c.42-9.46-.59-26.48-.23-34.74-.22-6.72-.42-14.81-.53-20.9a2.58,2.58,0,0,1,.1,1.17c0-8.41-.65-5.16-.6-14.73.24-4.9.26,5.09.33,2,.63-1.33-.27-11.55,0-18l.06,1.56c.13-4.92-.43-12-.44-20,0,0,.06.4.1,0-.38-5.49-.59-15.91-.75-23.64.27,2.4.17,3.51.41,2-.07-3.47-.41,1-.54-5.9.11-2.25.21-7.28.5-7.91v6.55c.3-3.34,0-8.44,0-11.88l.16.44c0-10-.43-10.15-.38-20.91l-.08,1.1c-.36-5.89.19-4.93,0-10.8L2.5,55c0-3.88-.11-13.58,0-20.54.21,4,.2,12.08.27,17.12.08-3.84.24-13.06.08-15.07,0,1.56.06,3.51,0,5Q2.7,38,2.67,33.38c0-1.55,0-3.2.06-4.92S2.92,24.9,3,23c.21.42.42-1.28.63-4,.1-1.36.21-3,.33-4.7S4.2,10.75,4.32,9a.47.47,0,0,1,.31-.37,6.63,6.63,0,0,1,.87-.36,20.79,20.79,0,0,1,2.09-.58c1.42-.33,2.84-.59,4.16-.8,2.11-.35,4.24-.61,6.38-.8q13.8-1.86,27.8-2.66c9.56-.59,19.52-1,30.33-1.33-7.69-.22,6.32-.19,5-.58,5-.15,7-.15,7.42-.13q7.65,0,15.28.19c3.62.14-4.79.08-4.33.19,11,.06,4.63.19,11.93.38-1.5-.18,3.84-.2,10.12,0-3-.15-5.89-.27-8.84-.39,7.71,0,11,.21,14.37.41s6.69.41,14.45.73l-4.91-.11c4,.14,11.31.52,18.6,1S169.9,4.92,173.8,5.17c1.39.2,3.2.52-.27.17,9.41,1,19.85,2.36,29.63,4.07,4.89.84,9.6,1.81,13.94,2.82,2.15.53,4.23,1,6.17,1.59s3.78,1.08,5.44,1.67c-.46-.11-.91-.23-1.38-.32a90,90,0,0,1,9.6,3.2c-.23,0-1.33-.37.11.18.87.25,2.9,1.1,5.26,2.05,1.19.46,2.37,1.06,3.53,1.61s2.3,1.08,3.22,1.61c-1.1-.55-2.27-1-3.4-1.54l2.78,1.38,2.51,1.4,2.4,1.34c.77.43,1.47.91,2.18,1.35l2.09,1.31,1,.64,1,.67,3.66,2.6c1.17.88,2.23,1.8,3.34,2.69L268.27,37c.55.46,1,1,1.55,1.46,1,1,2.08,2,3.16,3l3,3.42a4.77,4.77,0,0,0,1,1.56c.63,1,1.52,2.31,2.54,3.78.25.37.52.73.78,1.13a9.35,9.35,0,0,1,.75,1.18L282.47,55a43.38,43.38,0,0,1,2.42,4.37l-.14-.16q1.26,2.71,2.55,5.29l2.09,5.1a48.53,48.53,0,0,1,1.76,4.92c.54,1.61,1.11,3.2,1.56,4.79a124.59,124.59,0,0,1,3.89,20c0,1.12.11,2.45.21,3.93q.07,1.13.15,2.34v2.55c0,3.53.25,7.52,0,11.7-.07,2.09-.13,4.22-.2,6.35s-.36,4.28-.53,6.38-.35,4.18-.58,6.17-.57,3.91-.84,5.72c.38-2.19.29.39,0,3-.14.86-.27,1.87-.39,2.92s-.31,2.08-.45,3c-.29,1.86-.54,3.22-.69,2.92l.22-1.21c-.87,2.51-1.9,9.47-3.23,14.9l.32.95c-1,3.52-1.9,7.61-3.11,11.84-.56,2.13-1.12,4.29-1.69,6.46s-1.08,4.32-1.73,6.42c-1.23,4.2-2.41,8.2-3.42,11.65-.5,1.72-1.06,3.27-1.56,4.64s-.95,2.54-1.36,3.48c-1,3.38-2.36,7.57-3.41,10.92l-.2-.23c-3.52,9.26-5.2,13.88-9.46,25.36l.68-2.37c-2.45,6.46-2.28,8.32-4.51,14.28l-1.08,1.72c-1.06,2.82-2.14,5.65-3.22,8.47L253.43,282c-2,5.69-4.07,11.34-5.83,17a7.61,7.61,0,0,1,.62-2.39c-1.84,5.35-7.05,20.68-5.87,18.83a38.65,38.65,0,0,0-2.26,6.68c-1,3.72-2.17,8.2-3,11.31v-1c-.58,2.63-.86,4-1.25,5.61s-.82,3.5-1.67,7.17c-.46,1.73-.59,1.5.05-.8-1.57,5.77-.85,4.54-2.72,11.55l.47-2.65c-.37,1.5-.63,2.59-.84,3.43a18.32,18.32,0,0,0-.34,2c-.14,1-.22,1.77-.43,3.43-.6,3.78-2.31,11.36-2.51,12.25a57,57,0,0,1-.69,7.69c-.16.47-.06-.83,0-1.46a53.94,53.94,0,0,0-.73,6.71c0,2-.14,3.79-.2,5.47,0,.85-.06,1.66-.09,2.47a16.16,16.16,0,0,0,0,2.41c0,1.6.06,3.21,0,4.95a3.67,3.67,0,0,0-.14,1.18c0-2-.08-3.93-.12-5.65v-1.27a9.32,9.32,0,0,1,.05-1.19c0-.73.09-1.45.13-2.1.14-2.55.23-4,.22-3.72-.25,0-.65,6.51-.72,1.31,0,1.31-.05,2.85-.08,4.53,0,.83,0,1.71.08,2.6s.1,1.8.15,2.72c.08,1.84.17,3.71.25,5.53,0,.91.13,1.79.21,2.66s.15,1.69.22,2.48v.84l-.09-.66c.11,1.46.26,2.78.42,4a51.51,51.51,0,0,0,.66,5.23,35.46,35.46,0,0,0,.56,4.36c.34,2.13.9,4.62,1.2,6.23.22-.3,1,3.9.46-.05A21.24,21.24,0,0,1,229,429c-.11-.48-.23-1-.3-1.36a.31.31,0,0,0,.06.21c-.39-2.11-.8-4.87-1.31-8,.57,2.53,1,5.19,1.55,8.74l1.36,4.42c.12,1.11.31,2.47.52,3.9s.5,2.91.74,4.37c.49,2.81.91,5.23.92,5.83,1.11,4.87,2.48,10.6,3.53,15.89.57,2.65,1.12,5.18,1.61,7.43s.85,4.24,1.23,5.77a22,22,0,0,1,.45,4.27c-.31-1.61-.61-3.53-.83-4.37,1.06,5.54,2.65,16.53,3.34,17.82.56,3.52.3,2.54.12,1.88s-.31-1,.72,3.84l-.38-1.29a163,163,0,0,0,6.51,25c2.62,7.83,5.61,15.84,9.47,26.08-.54-1.42-.81-2.13-.87-2.43a309.25,309.25,0,0,0,16.58,35c6.28,11.54,13.09,22.9,19.41,33.91,3.61,6.25,4.23,6.85,6.62,10.61l.5,1.46q2,3.21,4,6.44a97.67,97.67,0,0,1,6.35,13.23c.89,2.24,1.73,4.57,2.51,7.13a53.31,53.31,0,0,1,2,8.44v-1.63a28.47,28.47,0,0,1,.15,8.74c-.42,2.91-1.46,5-1.41,4.66-.07.23-.16.59-.33,1.12a14.63,14.63,0,0,1-1,2l-.22.08a30.26,30.26,0,0,1-8.54,9.08c-1.11.72-1.89,1.26-2.53,1.6s-1,.56-1.32.69c-.55.26-.55.19-.68.2a7.17,7.17,0,0,0-1.48.62l-2.39,1.17-1.91.86-1.14.51-1.33.55c-2.73,1.22-6.82,2.71-9.94,3.83s-5.32,1.8-4.18,1.49,2.76-.8,4-1.15a23.12,23.12,0,0,1,2.38-.64c-1.77.64-3.59,1.2-5.4,1.77-.41.3-1.63.85-1,.85a16.36,16.36,0,0,0,2.56-.53q3.66-.93,7.17-2.12c1.49-.61,3-1.16,4.47-1.82l2.2-1,2.13-1c.48-.19,1-.37,1.45-.57l1.42-.64c-1.16.63-2.38,1.2-3.6,1.75s-2.48,1.08-3.73,1.6a49,49,0,0,0,9.57-4.63,23.58,23.58,0,0,0,3.47-1.91c1.23-.85,2.32-1.81,3.43-2.75l1.52-1.45c.52-.49.93-1,1.4-1.55.43-.33-.15.39-.34.69-.09.14-.09.19.19-.06l.65-.61a11.61,11.61,0,0,0,1.11-1.24c1.12-1.55.45-.86,0-.42-.23.22-.41.38-.29.17a21.39,21.39,0,0,0,1.39-2.07c.29-.41.55-.73.74-1s.34-.54.48-.73c.27-.44.47-.73.67-1.07a12.22,12.22,0,0,0,.54-1.24c.09-.27.23-.57.34-1s.21-.82.34-1.34.16.33-.38,2a24.76,24.76,0,0,0,1.3-6.6,21.54,21.54,0,0,0-.32-5.25,34.31,34.31,0,0,0-1.49-7.64c-.76-2.58-1.55-4.61-1.25-4.49-.27-.55-.95-2.11-1.82-3.91s-1.89-3.87-2.69-5.47c1.67,2.87.26-.15-1.56-3.64s-4.06-7.5-3.37-6.82c-2.78-4.14-9.1-15.18-13.79-22.53.28.4.83,1.19,1.21,1.85-2.47-4.19-3.06-5.45-4.57-8.17-.67-.42-4.6-6.92-6.81-10.4-2.58-5.27,2.2,3,1.62,1.29-.17.35-5.35-8.9-4.6-7.07a45.88,45.88,0,0,1-2.57-5.58c-.84-.57-2.05-3.69-4-6.93-2.69-5.87-.36-1.6-3.62-8C266.32,562.52,269.26,568.16,269.26,568.16ZM228,409.91h0c.14,1.39.26,2.57.34,3.32C228.25,412.54,228.15,411.58,228,409.91Zm-.46-13.55c0,1.65,0,3.71.09,5.88-.09.48-.2,0-.23-1.4.08.74,0-2.48.12-4.48Zm.45,28.78a19.84,19.84,0,0,1-.43-3.16l.63,3.75a1,1,0,0,0,.07.24,6.13,6.13,0,0,1-.26-.83Z"/><path class="cls-1" d="M229,428.94l.2.88c-.07-.44-.13-.85-.2-1.28-.08-.25-.16-.51-.24-.72A5.13,5.13,0,0,1,229,428.94Z"/><path class="cls-1" d="M14.1,635v.32A1.62,1.62,0,0,1,14.1,635Z"/><polygon class="cls-1" points="281.08 213.29 281 213.3 280.67 214.47 281.08 213.29"/><path class="cls-1" d="M14.77,710c.22.3.46.6.72.89C15.47,710.78,15.15,710.41,14.77,710Z"/><path class="cls-1" d="M56.05,720.24c2.09.16,4.18.28,6.28.4C59.61,720.51,57.63,720.39,56.05,720.24Z"/><path class="cls-1" d="M90.24,721a4.55,4.55,0,0,0,.66-.1h-.06Z"/><path class="cls-1" d="M6.09,371.8v-1C5.94,368.59,6,370.12,6.09,371.8Z"/><path class="cls-1" d="M9.91,489.43c-.07-1.26-.15-2.49-.23-3.78A16.57,16.57,0,0,0,9.91,489.43Z"/><path class="cls-1" d="M2.45,240.44h0v0Z"/><path class="cls-1" d="M9.54,480.18c0,2.09.06,3.84.14,5.47C9.66,483.93,9.63,481.9,9.54,480.18Z"/><path class="cls-1" d="M237.09,708l1.61-.25a.82.82,0,0,1,.19-.07Z"/><path class="cls-1" d="M238.89,707.69l1.77-.32C239.84,707.51,239.13,707.62,238.89,707.69Z"/><path class="cls-1" d="M244.39,706.68l-3.73.73C242,707.14,243.56,706.88,244.39,706.68Z"/><path class="cls-1" d="M192.6,714l-.49.13A1.54,1.54,0,0,0,192.6,714Z"/><path class="cls-1" d="M179,715.51c3.25-.32,8.18-.73,12.69-1.27l.41-.1C190,714.51,182.07,715.07,179,715.51Z"/><path class="cls-1" d="M121.87,719.05q5.76-.27,11.47-.6c-2,0-4.66.1.55-.24C119.42,718.83,136.9,718.24,121.87,719.05Z"/><path class="cls-1" d="M86.25,720.05c6.17-.11-.08-.12.25-.16C82.58,720,81.63,720,86.25,720.05Z"/><path class="cls-1" d="M13.16,576.39l.26.45C13.31,573.36,13.32,576.78,13.16,576.39Z"/><polygon class="cls-1" points="10.97 540.5 10.9 543.88 11.17 545.49 10.97 540.5"/><polygon class="cls-1" points="12.26 519.27 12.34 520.78 12.1 515 12.26 519.27"/><path class="cls-1" d="M4.16,203.86l-.3,1C4,207.26,4.33,207.75,4.16,203.86Z"/><path class="cls-1" d="M2.37,67.73a60.31,60.31,0,0,0,.11-7.67C2.46,63.08,2.33,66.14,2.37,67.73Z"/><path class="cls-1" d="M288.75,177.57l.5-2.71c-.36,1.7-.67,3.4-1.12,5.1C288.34,179.16,288.58,178.37,288.75,177.57Z"/><g class="cls-2"><path class="cls-1" d="M289.9,697.23c1.18-.37.47-.23-2.85.69l-2.33.72C286.46,698.2,288.18,697.72,289.9,697.23Z"/><path class="cls-1" d="M267,702.26c-4,.84-8.67,1.77-6,1.4,4-.85,5-1,9.22-2q2.67-.63,5.42-1.05c1.2-.28,5.3-1.15,7.08-1.67-4.43,1-10,2.18-15.94,3.4C265.49,702.61,266.71,702.34,267,702.26Z"/><path class="cls-1" d="M25.75,632.85v1.63C25.78,634,25.76,633.45,25.75,632.85Z"/><path class="cls-1" d="M19.46,476.16c.06,1.18.1,1.69.11,1.75C19.51,476.8,19.46,475.89,19.46,476.16Z"/><path class="cls-1" d="M18.47,449.4a13.39,13.39,0,0,0,.06,1.58C18.52,450.38,18.5,449.77,18.47,449.4Z"/><path class="cls-1" d="M25.75,632.85l-.09-4.18C25.6,628.35,25.7,630.78,25.75,632.85Z"/><path class="cls-1" d="M220.24,709.84l3.06-.42-2.88.37Z"/><path class="cls-1" d="M27.1,701.91v1.28a6.05,6.05,0,0,0,.06,1.06C27.11,703.49,27.12,702.69,27.1,701.91Z"/><path class="cls-1" d="M89.11,718.06a24.68,24.68,0,0,0-2.85.1c.93,0,2.15,0,3.59,0C89.88,718.06,89.66,718.06,89.11,718.06Z"/><path class="cls-1" d="M204,711.36l2-.25Z"/><path class="cls-1" d="M26.8,664v-.49A2,2,0,0,0,26.8,664Z"/><path class="cls-1" d="M326.37,649.6h0C326.47,649.89,326.51,650,326.37,649.6Z"/><path class="cls-1" d="M289.76,697l1.08-.32c.11-.06.22-.11.21-.13Z"/><path class="cls-1" d="M16.53,400.45v.22C16.61,402,16.58,401.23,16.53,400.45Z"/><path class="cls-1" d="M99.85,6.3c-7,0,11.37-.32.85-.24C101.68,6.08,91.15,6.44,99.85,6.3Z"/><path class="cls-1" d="M218.37,710.05l-2.94.36Z"/><path class="cls-1" d="M100.7,6.06Z"/><path class="cls-1" d="M11.94,287.66v1.15S11.94,288.51,11.94,287.66Z"/><path class="cls-1" d="M15,371.69v0Z"/><path class="cls-1" d="M10.25,244c0-1.13,0-1.52-.09-3.06v.47C10.2,242,10.23,242.74,10.25,244Z"/><path class="cls-1" d="M9,198.61v.84c0,.45,0,1,.05,1.46Z"/><path class="cls-1" d="M261.93,520c.26,1,.4,1.59.5,2.07C262.32,521.38,264.34,527.88,261.93,520Z"/><path class="cls-1" d="M220.19,709.79c-.35.07-.88.15-1.82.27l2-.27C220.59,709.76,220.63,709.74,220.19,709.79Z"/><path class="cls-1" d="M9.08,242.2,8.88,235C8.94,237,9,239.6,9.08,242.2Z"/><path class="cls-1" d="M297.89,200.32l-.48,1.61C297.61,201.32,297.78,200.74,297.89,200.32Z"/><path class="cls-1" d="M8.24,213.56V209.5a3.52,3.52,0,0,0-.06-.84Z"/><path class="cls-1" d="M281.14,567.55c-3.18-6.46-1.65-3-2.43-4.37a51.47,51.47,0,0,1-2.31-5c-.07-.27.18.09-.38-1.24-2.27-4.84-4-8.57-5.49-12.23-.08-.28-.35-1,0-.17-.55-1.29-1.21-2.91-1.92-4.69s-1.43-3.75-2.15-5.75c-1.43-4-2.81-8.11-3.85-11.18-.12-.46-.18-.69-.2-.81.22,1,.17,1.18,0,1-.47-1.5-.91-2.91-1.28-4a21.23,21.23,0,0,1-.7-2.68c.52,1.85.6,2,.89,2.86l-.95-3.15c-.62-2.87,1.26,4.31,1.44,4.29C260,514.21,258,507,257,502.24a32.37,32.37,0,0,1,1.13,4.37c.5,2.09.9,3.53.18.36.59,2.45,1.19,4.9,1.83,7.35-.63-2.82-.33-1.71,0-.54s.67,2.39.09-.2c-.62-2.41-1.1-4.29-1.52-5.9s-.71-3-1-4.32-.62-2.7-1-4.32-.74-3.51-1.15-5.94c-.5-2.19,0,.72-.5-1.46-2.41-13.84-1.35-10.92-3.24-21.12-.61-2.62-1-3.64-2.35-10.85l.68,2.44c-.9-4.72-1.31-6.05-1.66-7.44s-.72-2.84-1.74-7.77c.46,1.74,1.68,7.39,1.39,6-1.25-6.39-1.09-4.5-2.18-9.39l-.06-1c-2.21-10-4.85-21-5.6-32.2.11.61.35,2.53.14-.09a52.72,52.72,0,0,1-.29-5.37c-.05-1.82-.09-3.64-.13-5.51s.11-3.71.19-5.58.21-3.73.32-5.6.35-3.73.6-5.57.49-3.68.73-5.49c.39-3.64,1.19-7.14,1.86-10.52l.85-5.17c.23-1.2.49-2.22.27-.91.52-2.63.58-2.7.46-2.43s-.31.88,0-.39c.72-3,1-3.92.63-2,.55-2.31,1.21-5.09,1.93-8.17.36-1.52.75-3.11,1.13-4.74s.91-3.26,1.37-4.91c1-3.3,1.92-6.62,2.82-9.71s1.74-6,2.61-8.36l-.58,1.88c2.52-7.48,2.49-8.5,4.9-15.43l-.41,1.34,2-6.16c.69-2.07,1.47-4.13,2.2-6.21,1.47-4.14,3-8.28,4.38-12.29,2.8-8.05,5.77-15.56,8.19-21.68.68-2.38,6.15-15.93,6.24-17l3.28-8.33,1.54-4,1.16-3c.45-1.19.9-2.58,1.47-4.21,1.2-3.49,1.59-5.23,3-9.55l.19-.08.91-2.91.82-3,1.13-3.1,1.19-4.08a29.68,29.68,0,0,1-1.08,3.18c.91-3.18,2.18-7,3.07-10.14.44-1.56.83-2.92,1.11-3.9s.48-1.58.51-1.62l2-7.53,1.66-7.6c0,.34-.56,2.91-1,4.91,1.67-8.14.49-1.46,2-8.91-.25,1,0-.55,0-.73.52-1.84,1-4.89,1.67-8.26s1.35-7,1.68-10.2l-.05,1.22c.38-2.84.78-5.75,1.18-8.74.23-1.46.34-3,.46-4.52s.25-3.06.38-4.6.27-3.11.36-4.68.09-3.15.13-4.73.09-3.18.13-4.77c0-.81,0-1.61,0-2.41l-.07-2.4c.08,4.6-.14,3.55-.26-.21l.12-1.51c-.17-2.42.05,3.93-.22-1.06-.12-4.78.1-3.22.23-.47l-.11-2.91c-.07-1-.19-1.94-.28-2.91a9.31,9.31,0,0,1,.26,1.36c-.16-1.18-.35-3.69-.56-6.35-.06-.65-.11-1.32-.17-2s-.2-1.31-.3-1.93c-.2-1.23-.4-2.35-.58-3.2V94a80.26,80.26,0,0,0-1.74-8.4c-.31-1.24-.54-2.43-.88-3.55s-.71-2.19-1.05-3.27-.68-2.11-1-3.17a14.08,14.08,0,0,0-.58-1.56l-.65-1.58c-.91-2.12-1.68-4.37-3-6.82a24.22,24.22,0,0,1-1.36-2.43A24.28,24.28,0,0,0,298.2,61l-1.43-2.19a81.28,81.28,0,0,0-18.68-21.46c-.59-.49-1.21-1-1.87-1.41l-1.12-.79a4.26,4.26,0,0,0-.68-.46c-.05,0,.33.32-1.11-.72-.25-.51-10-6.46-4.92-3.41l-1.07-.69c-.37-.19-.72-.39-1.07-.59l-2-1.1-1.87-1c-.61-.32-1.23-.59-1.83-.89l-3.44-1.64c-1.14-.51-2.29-1-3.46-1.46a137.65,137.65,0,0,0-19.06-6.27c2,.53,4.13,1.22,3,.91-1.62-.48-3.5-1-4.91-1.32a17.78,17.78,0,0,1-2.08-.6l.88.21q-16.81-3.87-34.2-6.17Q181.56,7.77,165.6,6.83l1,0q-8.9-.56-17.82-.88c-8.2-.35,4.93.13-1.14-.18-9.63-.29-17.23-.43-24.42-.51s-13.94,0-21.87.16c-6.14,0-17,.27-28.44.89S49.56,7.92,41.33,8.67h1c-4.23.49-5.14.5-8.27.84.45,0,4.61-.47,2-.13-4.49.52-9,1.09-13.5,1.88-1.13.2-2.25.41-3.37.67A14.73,14.73,0,0,0,15.84,13a6.16,6.16,0,0,0-2,2.32,20.27,20.27,0,0,0-1.06,2.46,62.89,62.89,0,0,0-2.32,10.11c-.55,3.4-1,6.82-1.31,10.24-1.36,13.69-1.92,27.48-2.29,41-.21,9.91.33,5.62,0,18.11l-.13-3.55c0,20-.07,40.87.39,60.44A21.79,21.79,0,0,1,7,151c0,2.06,0,5.89.1,9.2,0,1.65.1,3.18.13,4.3,0,.56,0,1,.06,1.34a4.34,4.34,0,0,0,0,.51c0,3-.08.72-.09,2.58,0,4.14.36,10.4.29,12.61,0,.37-.07-1.17-.09-1.93.11,2.7.26,12.58.34,10,.18,7.34.34,14,.48,19.89.26,3.82.28,12.57.53,13.78-.24-.52.2,12.87.45,17.48-.11-1.55.06,4-.09,2.22.17,5.29.37,10.14.46,9.22,0,9.76.87,19.6.72,25.11.68,15.72,1.3,30.28,1.91,44.42-.25-.51-.62-15.64-.83-15,.6,13.42,1.1,21.16,1.57,34.48.11,3.44-.17-2-.26-3.12.63,13.41,1,25.92,1.65,37.87a7.19,7.19,0,0,0-.06-.82c-.06-.48-.07-1.11-.1-1.72.1,2.36.19,5.47.28,5.2l-.12-2.29c0-3.76.7,9.34.8,9.75-.46-4,.42,11.79-.22,5.46a20.67,20.67,0,0,0,.27,3.13c.08,2.3.07,3-.11.73.42,8.42.4,5.42.73,13.05a5.27,5.27,0,0,1-.1-.89c0-.48-.1-1.07-.13-1.45.26,3.86.52,7.74.76,14.19,0-.38,0,.36-.14-1.56.5,11.07,1.08,18.87,1.52,31-.37-3.58.11,4.14-.05,4.78l.34,6.56v-2.62c.24,5.71.6,10.77.76,15.69l-.27-4.25L19,480.58l-.2-6.08c.35,5.83.21-.62.49,7-.08-1.55.25,5.73.27,8.73h0c.18,2.83.37,5.74.51,10,0,1.1-.24-.87-.25-.16.28,2.79.63,13.4.95,16.94-.09-1.18-.2-1.24-.2-.85l.23,2.34c.07,2.65.07,3,0,2.61.33,8,.13-2.54.44,6.93,0-.73,0-.39-.13-1.93.41,9.47.79,18.36,1.17,27.1-.08,2.57-.37-7.64-.4-4.69.56,12.6,1.31,26.08,1.74,38.27l-.07-2.28c.34,1.69.23,9.09.59,15.25-.08-1.51-.22-2-.18-1.57.28,8.35.72,17.06,1.23,29.71L25,626.3c.14,4.92.37,13,.52,18.27.11,1.58.19,4.61.23,2.76.08,16.4,1,31.26.72,45.8,0-1.74-.07-4.14-.06-2.76v12.38c.13-1,.09-1.61.21-4.22,0,.78.05,2.05.05,3.51s-.23,3.12.54,4.59a7.4,7.4,0,0,1-.59-2.27v.55a2.66,2.66,0,0,0,.16.92,4.49,4.49,0,0,0,.43,1.1A6.49,6.49,0,0,0,27.9,708l.78.88c-.14-.18-.05-.1.08,0s.29.19.21.11l1,.82c.32.22.62.41.87.57l.67.43.55.27c.62.3.88.4,1.22.54s.8.27,1.82.68q2.68,1,5.51,1.72l-.63-.11a115.81,115.81,0,0,0,13.23,2.37c1,.17-.21.05-1.69-.15s-3.24-.47-3.4-.47c6.48.94,13,1.61,19.61,2-2.92-.16-7.1-.48-10-.73,3.35.4,5.23.57,6.89.73s3.12.23,5.63.38l-.49,0c3.87.24,7.75.4,11.63.52l-3-.12c8.61,0,17.53.3,29.12-.1-11.26.34-1.86.13-2.72.26,3,0,7.47-.1,6.19,0,5.47-.23,9.15-.18,16.86-.64.35,0,5.86-.27,4.63-.12,7.11-.39-1.69,0-1.09,0,10.94-.65,25.76-1.32,41.43-2.84,6.76-.62,10.75-1,14.62-1.45l13.86-1.57c4.23-.41-3.43.5-3.43.5,6.82-.67,11.93-1.28,18.32-2.11-1.29.19,0,0,2-.15,5.12-.67,3.4-.55,10.16-1.4-1.14.19-2.61.45-5.08.82,6-.82,12-1.72,18.18-2.68,1.67-.19-3.73.66-5.91,1,7-1,18.08-2.83,20.19-3.32l-4.48.73c2.54-.42,1.34-.13-.53.19-3,.56-6,1-9,1.34l4.41-.72c-2.3.25-6.73.94-11.73,1.69s-10.54,1.55-15,2.1l3.7-.63L214,710.41c-2,.19-3.32.27,1.1-.29-6.45.73-5.68.73-11.24,1.29-.61.06-.34,0,.23,0l-6.3.73c1.23-.17-1.07,0,2.81-.39-11.33,1.15-18.25,2-22.54,2.25l.94-.1c-15.75,1.46-1.5.27-13.31,1.38l-8,.35-1.53.22c-1.64.1-4.86.33-4.27.24-6.06.48,1,0-2.47.28l-14,.79c-4.66.25-8.56.4-9.45.36-2.82.2,7.53-.27-.87.16-2.41-.09-9.71.42-16.91.47,2.2-.14,9-.27,1.82-.17-4.34.28-14,.2-20.09.16-.14.06-3.44.06-8-.05s-10.3-.34-15.38-.66c.33,0-4.45-.3-10.43-1a109.33,109.33,0,0,1-17.46-3.26l.27,0a18.93,18.93,0,0,1-2.5-.73l-.93-.3-1-.4c-.34-.13-.71-.27-1.06-.43l-1.07-.53-.56-.27-.52-.32c-.34-.22-.71-.43-1.05-.66l-1-.77a9.62,9.62,0,0,1-.84-.85,5.9,5.9,0,0,1-1.54-3.83,3.26,3.26,0,0,1,.22,1,6.23,6.23,0,0,0,1.34,2.65,7.09,7.09,0,0,1-.71-1,6,6,0,0,1-.45-1.13,8.6,8.6,0,0,1-.18-2.37v-5.83l.13,1.23c0-6.5-.15-13.11-.19-21.43-.13-.46-.25,6.64-.47-2.18.06-.33.17-.66.24,1.65,0-.73-.1-2.69-.1-4.22l.18,3.53c0-3.81-.14-2-.18-5,.1.06,0-2.25.11-1.82,0,.78,0,2.65.07,3.82,0-3.43-.07-7.57,0-8.94-.05.3-.13,0-.21-2.52-.16-6.48.07-2.18,0-6-.1-1.57-.15-5.71-.3-5.83v-3c-.15-3.35-.5-15.67-.54-11.89V635h0c-.5-11-.69-22.87-1.17-33.79h.05c-.3-6.52-.59-14.51-.89-19.16-.07-1.93-.09-4.55,0-3.73-.23-5-.31-5.54-.53-12.73.3,5,0-1.74.28,5.09-.22-6.47-.21-7.94-.63-14.89.22,2.36,0-4.88-.21-8l.1,4.54c-.15-3.46-.27-6.49-.4-9.57l.23,1.66c-.35-13.25-1.36-23.88-1.46-34-.27-3.5.23,7.2,0,4.06-.24-6.09-.28-12.44-.37-14.35-.27-8.35-.58-7.78-.9-16.52,0,1.12-.12,2.18-.46-4.37-.25-6.1-.08-7.5.13-3.64a18.34,18.34,0,0,1,.06,2.1c.11,2,.25,4.55.21,2.13l-.1-.78c-.07-3-.44-11.42-.26-9.47-.26-4.61-.18-2-.06,1.46l-.83-20.27c0,1.28,0,2.46-.05,1.19-.44-11.82-.34-5.2-.72-13.2-.1-4.55.29,1.62-.13-6.43-.16-4.92.11-1.05.24.91-.43-7.34-.52-13.71-.68-17.91l.22,3.87c-.11-2.32-.2-4.2-.3-6.13v2.18c0-1.13-.08-2.18-.1-2.91a8.15,8.15,0,0,1,0-1.21c-.18-2.33-.12,1.8-.42-2.84-.07-3-.46-9.21-.35-10.26.35,9.52.11-1.06.48,7-.08-1.55-.16-3.45-.24-5.73,0-.34.05.32.08.94-.24-9.11-.35-4.18-.75-13.61.14,1.2.08-2.19,0-3.73.16,3.8-.07,1.82-.28-1.67-.19-6-.33-6.56-.45-9.74l.11,3.64c-.14-1.23-.25-4.25-.45-8.47,0-.36.2,3.83.17,2.33-.35-4.69-.28-10.59-.65-17.12-.06-3,.16-.3.09-3-.41-7.32-.2-7.93-.6-15.62,0,2.18,0,2.6-.32-2.82l.5,12.73-.5-8.12c.18,3.82.37,8.06.47,10.35-.25-3.87-.21-3.48-.23-1.65,0-5.22-.52-10.35-.64-16.39l.31.18c-.23-9.08-.78-16.12-1.15-27.91l.09,3.79c-.18-1.58-.29-7.28-.48-11.1a24.58,24.58,0,0,0,.07-3.64c-.07.2-.31-8.62-.54-9.69l-.08-5.31c-.27-9.52-.66-10.86-.92-20,.19,2.76.13-1.4.4,4.73,0-1.53-.09-3-.13-4.06a9.28,9.28,0,0,0-.05-1.29,2.22,2.22,0,0,0-.06-.51c0-1.78-.41-8.46-.4-11.27-.08-1.29-.2-1.71-.3-5.14,0-.37.05,0,.05,0v-.79c0-.46-.06-1-.08-1.53-.06-1-.11-1.55-.12-.05,0-9.41-.78-26.3-.72-34.5-.17-6.67-.39-14.7-.55-20.75a5.06,5.06,0,0,1,.07,1.16c-.08-8.35-.4-5.13-.47-14.63.07-4.85.18,5,.18,2,.3-1.31-.25-11.46-.14-17.85v1.54C8.08,146,7.8,139,7.76,131V131c-.21-5.46-.31-15.8-.32-23.48.12,2.38.06,3.48.19,2,0-3.45-.22,1-.22-5.83.07-2.23.17-7.19.32-7.85v6.48c.2-3.32,0-8.39.13-11.81l.08.44c.13-9.94-.08-10.07.24-20.75l-.09,1.11c0-5.82.26-4.88.35-10.71l.28-1.75c.12-3.85.51-13.48,1.17-20.39-.26,3.91-.76,12-.89,17,.18-3.82.8-13,.92-15-.12,1.54-.23,3.48-.37,5a161.78,161.78,0,0,1,1.8-18.39c0,.34.26-.73.64-2.57a49.89,49.89,0,0,1,2-7.29,14.46,14.46,0,0,1,1-2.06,4.88,4.88,0,0,1,1.56-1.72,12.71,12.71,0,0,1,2.64-.84c.93-.23,1.87-.4,2.77-.57,3.64-.65,6.83-1,8.7-1.23,9.06-1.22,18.16-2,27.65-2.69S77.71,7,88.45,6.64c-7.64,0,6.27-.22,4.94-.39,5-.15,6.92-.17,7.37-.17q7.59-.07,15.18,0c3.6.06-4.76.06-4.3.12,11,0,4.6.08,11.86.16-1.49-.09,3.81-.11,10.06,0-2.92-.09-5.86-.17-8.8-.23,7.67,0,11,.17,14.3.3l14.37.59-4.88-.15c4,.13,11.25.49,18.51,1S181.53,9,185.39,9.36c1.38.17,3.2.43-.25.08,9.37,1,19.76,2.3,29.49,4a207.65,207.65,0,0,1,25.56,5.82l-1.36-.33c1.65.44,3,.89,4.57,1.36l2.37.73,2.68,1c-.22-.06-1.3-.42.15.12l2.09.73c.92.33,2,.81,3.17,1.28,2.38.92,4.89,2.18,6.83,3.12l-3.37-1.55q5.19,2.46,10,5.3l4.1,2.58c1.28.86,2.46,1.75,3.66,2.59.59.43,1.2.84,1.76,1.29l1.64,1.35c1.08.92,2.23,1.8,3.28,2.76A81.21,81.21,0,0,1,288,48a9.6,9.6,0,0,0,1.09,1.57c.8.89,1.7,2.22,2.75,3.68l1.63,2.27c.58.77,1,1.6,1.5,2.38.94,1.59,1.89,3.09,2.57,4.3l-.12-.16,2.68,5.3a24,24,0,0,1,1.15,2.56l1,2.5c.34.83.68,1.64,1,2.45s.55,1.63.83,2.43c.52,1.62,1,3.21,1.56,4.79s.81,3.18,1.23,4.78.85,3.19,1.13,4.83l.85,5c.15.85.29,1.71.44,2.59s.19,1.77.29,2.67c.08,1.12.18,2.44.29,3.92s.31,3.1.3,4.85.09,3.65.13,5.58c0,1,0,2,.08,3s-.06,2-.1,3.08c-.06,2.08-.13,4.19-.19,6.31l-.06,1.6-.14,1.59-.27,3.16c-.18,2.09-.36,4.15-.53,6.13s-.53,3.89-.78,5.69c.34-2.18.12.37-.2,2.92-.11.84-.25,1.85-.38,2.91-.07.52-.13,1-.2,1.54s-.16,1-.24,1.45c-.32,1.85-.56,3.2-.62,2.92l.23-1.21c-.33,1.26-.8,3.65-1.3,6.35-.27,1.36-.49,2.82-.81,4.26s-.65,2.91-.95,4.22l.06.92c-1.65,7-4.08,16.21-6.36,24.58-1.25,4.17-2.45,8.14-3.47,11.55s-2.08,6.2-2.78,8.08l-3.53,10.82-.08-.2-9.43,25.17.78-2.33c-2.44,6.41-2.68,8.18-4.92,14.1l-.88,1.74L270,275l-3,8.41c-2,5.64-4,11.26-5.93,16.83a15.24,15.24,0,0,1,.74-2.35l-.86,2.39c-.31.92-.65,1.95-1,3-.71,2.15-1.48,4.49-2.19,6.6-1.38,4.24-2.44,7.58-2,6.64a12.86,12.86,0,0,0-.73,2c-.39,1.19-1,2.83-1.49,4.67-1,3.69-2.28,8.13-3.14,11.2l.15-1c-.68,2.6-1,3.94-1.44,5.54-.21.8-.45,1.67-.75,2.78s-.6,2.5-1,4.32-.48,1.5.12-.79c-1.5,5.74-1,4.49-2.78,11.45l.56-2.61a61.85,61.85,0,0,0-1.78,8.74c-.34,1.87-.89,4.69-1.4,7.15-.26,1.23-.5,2.38-.68,3.27s-.25,1.52-.31,1.74c0,.82-.35,4.1-.84,7.62-.11.47,0-.81.1-1.46a94.9,94.9,0,0,0-1,12.09c-.06,1.67-.18,3.24-.2,4.82s.07,3.19.07,4.93a7.45,7.45,0,0,0-.06,1.16c0-2-.08-3.89-.12-5.61,0-.85,0-1.67.07-2.43s.08-1.45.12-2.08c.14-2.48.2-3.39.21-3.69-.13,0-.5,6.45-.4,1.31a93.61,93.61,0,0,0-.06,9.75c.06,1.83.12,3.68.18,5.48v1.34c0,.43.09.87.13,1.29.08.85.16,1.68.23,2.46v.84l-.08-.65c.13,1.45.26,2.75.4,4,.14,2,.37,3.27.67,5.19,0,.73,1.06,7.37,1.81,10.54.08-.28.91,3.89.23,0,.09.5-.14-.61-.58-2.72-.1-.48-.22-1-.29-1.35a.34.34,0,0,0,.06.22c-.35-2.1-.79-4.84-1.3-7.95.5,2.52.92,5.16,1.49,8.69.42,1.62.88,3.41,1.13,4.41.64,4.37,2.49,12.75,2.6,13.93.55,2.42,1.14,5.06,1.75,7.74l.9,4.05c.3,1.36.55,2.7.81,4,.55,2.63,1.07,5.15,1.54,7.39s.78,4.22,1.09,5.74c.49,2.77.45,3.19.58,4.22-.29-1.59-.6-3.49-.78-4.37,1,5.52,2.63,16.42,3.14,17.71.59,3.49.37,2.52.22,1.87s-.27-1,.75,3.8l-.33-1.28a197.37,197.37,0,0,0,6.43,24.76c2.5,7.75,5.41,15.74,9.45,25.86-.56-1.4-.84-2.11-.93-2.4a328.63,328.63,0,0,0,16.6,34.68c6.25,11.46,13.07,22.72,19.51,33.6,3.67,6.18,4.18,6.81,6.49,10.56l.65,1.39q2,3.21,3.85,6.44A135,135,0,0,1,323.9,646c.48,1.11.88,2.25,1.35,3.42s.88,2.38,1.25,3.64a47.87,47.87,0,0,1,1.95,8.43l-.12-1.62a27.85,27.85,0,0,1,.12,8.74,14.15,14.15,0,0,1-1.38,4.67c-.08.22-.21.58-.39,1.1a13.65,13.65,0,0,1-1.05,1.95l-.16.11a30.28,30.28,0,0,1-8.73,9,37.8,37.8,0,0,1-3.81,2.31c-.53.28-.51.23-.61.26-.49.2-1,.43-1.44.67s-1.3.66-2.38,1.17-2.49,1.18-4.38,1.92c-2.75,1.2-6.86,2.64-10,3.7s-5.34,1.7-4.21,1.38l4-1.16c1.26-.38,2.22-.69,2.33-.69-1.77.62-3.58,1.15-5.39,1.71-.45.22-1.7.68-1.16.61a24.29,24.29,0,0,0,2.48-.62c1.5-.39,3.76-1.06,7-2.18,1.49-.59,3-1.1,4.46-1.74l2.19-.93c.72-.31,1.42-.66,2.13-1l1.41-.6,1.37-.65c-1.15.62-2.36,1.16-3.56,1.71s-2.45,1-3.69,1.56a60.18,60.18,0,0,0,9.5-4.5l1.36-.73a20.75,20.75,0,0,0,2-1.2,42.08,42.08,0,0,0,3.47-2.63,33.11,33.11,0,0,0,3-2.91c.39-.34-.22.34-.44.62s-.12.18.14-.07l.62-.61.5-.51c.18-.2.37-.43.59-.72,1.15-1.5.53-.81.11-.36-.21.22-.36.38-.23.18s.22-.28.46-.6c.12-.16.28-.35.44-.58s.33-.51.54-.83l.71-1c.17-.29.31-.54.44-.73l.62-1.06c.17-.34.31-.73.52-1.21.11-.26.22-.57.37-.93l.36-1.31c.2-.57.07.31-.5,1.91a23.08,23.08,0,0,0,1.36-6.45,12.35,12.35,0,0,0,0-1.61v-1.46c-.08-.89-.13-1.63-.22-2.1a38.42,38.42,0,0,0-1.49-7.42c-.75-2.54-1.56-4.55-1.37-4.37-.23-.55-.88-2.1-1.71-3.9s-1.82-3.84-2.61-5.42c1.54,2.86.14-.12-1.69-3.59s-4.08-7.43-3.52-6.72c-2.55-4.16-9-15.07-13.58-22.39.26.4.79,1.2,1.17,1.85-2.49-4.15-3.14-5.38-4.7-8.06-.49-.48-4.39-7-6.49-10.43-2.76-5.17,2,3.06,1.25,1.39,0,.31-5.22-8.87-4.34-7.09-2.08-4-1.83-3.41-2.78-5.48-.61-.63-2-3.64-3.87-6.93-2.81-5.82-.57-1.53-3.78-7.86C278.28,561.92,281.14,567.55,281.14,567.55Zm-40.91-157.3h0c.14,1.38.25,2.56.33,3.31-.07-.64-.17-1.63-.33-3.29Zm-.39-13.47c-.08.82,0,1.74,0,2.73s0,2,.07,3.12c0,.47-.1,0-.13-1.4V400a29.24,29.24,0,0,1,.06-3.23Zm1.33,28.52c-.36-2.12-.45-2.84-.47-3.14.17,1,.36,2.19.61,3.73a2.1,2.1,0,0,0,.06.24A5.57,5.57,0,0,1,241.17,425.3Z"/><path class="cls-1" d="M242,429.13c.07.3.1.47.19.87-.08-.44-.15-.84-.23-1.27-.06-.25-.13-.51-.19-.72A5,5,0,0,1,242,429.13Z"/><path class="cls-1" d="M25.79,634.74v0Z"/><polygon class="cls-1" points="293.4 215 293.36 215.01 293 216.16 293.4 215"/><path class="cls-1" d="M28.67,708.84a10.37,10.37,0,0,0,.89.73Z"/><path class="cls-1" d="M70.24,718c2.08.12,4.15.23,6.23.32C73.78,718.15,71.81,718.06,70.24,718Z"/><path class="cls-1" d="M104.16,718.53l.66,0h-.06Z"/><path class="cls-1" d="M14.17,373.42a5.87,5.87,0,0,0-.05-1C14,370.23,14.07,371.75,14.17,373.42Z"/><path class="cls-1" d="M19.54,490.19c-.07-1.24-.15-2.46-.23-3.76A32.2,32.2,0,0,0,19.54,490.19Z"/><path class="cls-1" d="M9.1,243h0v0Z"/><path class="cls-1" d="M19.08,481c.06,2.07.14,3.81.23,5.42C19.24,484.73,19.15,482.73,19.08,481Z"/><path class="cls-1" d="M249.92,705.59l1.59-.26a.55.55,0,0,0,.19-.05Z"/><path class="cls-1" d="M251.7,705.28l1.77-.31Z"/><path class="cls-1" d="M257.18,704.32l-3.71.65C254.75,704.75,256.34,704.49,257.18,704.32Z"/><path class="cls-1" d="M205.76,711.54l-.5.1A2.6,2.6,0,0,0,205.76,711.54Z"/><path class="cls-1" d="M192.27,713c3.22-.32,8.1-.76,12.58-1.29l.41-.08C203.17,711.94,195.32,712.64,192.27,713Z"/><path class="cls-1" d="M135.6,717q5.7-.29,11.39-.63c-2,.09-4.62.2.56-.14C133.18,717,150.52,716.15,135.6,717Z"/><path class="cls-1" d="M100.21,718.06c6.13-.09-.08-.06.25-.08C96.57,718.06,95.62,718.06,100.21,718.06Z"/><path class="cls-1" d="M23.75,576.52l.14.45C23.74,573.52,23.84,576.93,23.75,576.52Z"/><polygon class="cls-1" points="21.61 540.89 21.67 544.25 21.85 545.84 21.61 540.89"/><polygon class="cls-1" points="21.61 519.82 21.7 521.32 21.4 515.58 21.61 519.82"/><path class="cls-1" d="M9.28,206.69l-.13,1C9.24,210.06,9.43,210.55,9.28,206.69Z"/><path class="cls-1" d="M8.23,71.47c.12-1.46.3-5.27.32-7.61C8.41,66.9,8.25,69.92,8.23,71.47Z"/><path class="cls-1" d="M302.23,179.71l.55-2.69c-.37,1.69-.69,3.38-1.12,5.06C301.89,181.3,302.05,180.5,302.23,179.71Z"/></g><path class="cls-1" d="M235.14,48.19c.12-.34-.06-.18-.46.72l-.14.69Z"/><path class="cls-1" d="M232,54.2c-.42,1.09-.85,2.35-.39,1.69.34-1.09.52-1.33.86-2.51.4-.91.78-1.57.77-1.4.11-.33.69-1.4.81-1.91a32.54,32.54,0,0,0-2,4.23C231.92,54.62,232,54.29,232,54.2Z"/><path class="cls-1" d="M196,143.82l.22-.58A2.43,2.43,0,0,0,196,143.82Z"/><path class="cls-1" d="M178.38,200.27a2.38,2.38,0,0,0,.15-.64A3.71,3.71,0,0,0,178.38,200.27Z"/><path class="cls-1" d="M175.45,209.91c.06-.2.12-.38.17-.57C175.55,209.56,175.48,209.78,175.45,209.91Z"/><path class="cls-1" d="M196,143.82l-.57,1.46A8.48,8.48,0,0,0,196,143.82Z"/><path class="cls-1" d="M226.77,66.5c.14-.31.24-.57.33-.81l-.33.73Z"/><path class="cls-1" d="M204.61,119.09l.16-.46a2.7,2.7,0,0,1,.08-.39Z"/><path class="cls-1" d="M211.79,100.21a1.61,1.61,0,0,0-.11.78,5.32,5.32,0,0,1,.28-.94A.43.43,0,0,0,211.79,100.21Z"/><path class="cls-1" d="M224.39,70.55l.21-.53C224.54,70.16,224.45,70.39,224.39,70.55Z"/><path class="cls-1" d="M199.67,132.63a1.63,1.63,0,0,0-.11.17A.62.62,0,0,0,199.67,132.63Z"/><path class="cls-1" d="M57.31,670h0C57.25,670.13,57.25,670.16,57.31,670Z"/><path class="cls-1" d="M46.88,691.42l.12-.31V691Z"/><path class="cls-1" d="M170.51,227.63v-.07C170.64,227.09,170.57,227.36,170.51,227.63Z"/><path class="cls-1" d="M133.48,391.45c.51-1.84-.47,3.05.25.27C133.62,392,134,389.15,133.48,391.45Z"/><path class="cls-1" d="M226.53,67c-.11.26-.23.51-.35.77Z"/><path class="cls-1" d="M133.73,391.72h0l.07-.29C133.77,391.55,133.75,391.61,133.73,391.72Z"/><path class="cls-1" d="M160.32,268.65a2.17,2.17,0,0,0,.17-.42A2.47,2.47,0,0,0,160.32,268.65Z"/><path class="cls-1" d="M168.09,238.14l-.21.73C168,238.57,168,238.33,168.09,238.14Z"/><path class="cls-1" d="M156.79,284.56c-.1.41-.15.55-.27,1.12a.21.21,0,0,1,.06-.17A7.66,7.66,0,0,1,156.79,284.56Z"/><path class="cls-1" d="M153,301.11a1.27,1.27,0,0,1,.09-.3c0-.1.08-.36.11-.53Z"/><path class="cls-1" d="M76.37,621c-.17.34-.29.56-.39.73C76.16,621.44,75.34,623.83,76.37,621Z"/><path class="cls-1" d="M226.69,66.49a1.56,1.56,0,0,1-.16.49l.24-.54S226.76,66.38,226.69,66.49Z"/><path class="cls-1" d="M157.73,285.37,157.1,288C157.28,287.26,157.51,286.3,157.73,285.37Z"/><path class="cls-1" d="M110.14,503.13l-.13.61C110.07,503.5,110.11,503.29,110.14,503.13Z"/><path class="cls-1" d="M155.33,295.8c-.16.46-.3.95-.43,1.46v.31Z"/><path class="cls-1" d="M70.13,638.72c1-2.45.26-1.19.36-1.73,1-2.91.62-1.32,1.07-2.31.62-1.84,1-3.27,1.46-4.64.07-.1.17-.36.1,0,.56-2,2.07-5.75,2.7-8l.15-.28c-.22.34-.33.38-.37.29a21.22,21.22,0,0,1,.89-2.45,5.75,5.75,0,0,0-.29,1.06l.36-1.16c.55-1-.51,1.59-.38,1.61.78-2.26,1.48-4.93,2.12-6.64.29-.34-1.3,4.05-.38,1.77l-1,2.67c1-2-.58,1.62.34-.21,1.23-3.52,1.24-4,2.47-7.47.17-.81-.22.24,0-.57,1.51-5,1.73-3.86,2.75-7.58a17.67,17.67,0,0,1,1.08-4l-.09.93c1.09-3.43.34-2,1.59-5.57-.13.65-.78,2.7-.6,2.19a25.5,25.5,0,0,0,1-3.45l.28-.35c1.08-3.64,2.28-7.68,3.47-11.74,0,.23-.18.93.17,0,1.41-5.1,3.2-10.92,4.73-15.83l.41-1.91c.13-.44.3-.8.19-.32.62-1.91-.06-.12.15-1,.31-1.09.49-1.45.34-.73.81-3.41,2.39-9.72,3.52-13.28l-.15.73c.83-2.78.57-3.19,1.41-5.76l-.11.49c1.68-6,3.24-12.78,4.66-17.37,0-.91,1.64-6,1.43-6.43,1-3.45.8-2.45,2.09-7.33.33-1.3.29-2,.66-3.58h.16l.38-2.19.46-1.13.34-1.52a4,4,0,0,1-.41,1.17c.26-1.19.64-2.62,1-3.77.16-.57.31-1.08.41-1.46a3.19,3.19,0,0,1,.21-.59l1.18-5.62c0,.13-.16,1.07-.3,1.82.55-3,.29-.53.79-3.29-.12.37,0-.2-.06-.27.41-1.35,1.14-4.46,1.64-6.77v.45c1-4.14,1.95-8.74,3-13.43-.42,1.66-.52,1.26-.23-.11l.29-.53c.1-.89-.38,1.46-.1-.41s.45-1.15.28-.14l.42-2.13c.07-.11,0,.39,0,.52.09-.88,1-3.64,1.09-4.92l.07-.11c1.06-4.66,1.44-6.79,2.27-10.6A21.58,21.58,0,0,1,122,451c.65-2.79,1.44-5.89,2.16-9.25.45-2.38,0-.73.18-1.79.16-.16.87-3.52.59-1.77.84-4,1.07-5.17,2.06-10.29-.17.55-.32,1.17-.3.84a8.12,8.12,0,0,1,.54-2V427c1-5.76,3.18-13.21,3.87-17.81v.25l.86-4.75c.48-2.19-.18,1.32.24-.29.86-5.1,1.72-8.08,2.46-12.31,1.06-3.22,2.4-11.58,3.56-16l-.14.25a15.38,15.38,0,0,1,.53-2.18c-.09.11-.33,1.22-.23.51,1.91-9.65,4.3-19.88,6.49-29.75.79-3.64,0-2.1,1.16-6.63l-.11,1.31c1.35-7.28,3.23-14.9,4.61-22.05a7.45,7.45,0,0,1-.16,1.14c.22-.73.52-2.14.76-3.35.11-.6.22-1.16.3-1.57a2.32,2.32,0,0,0,.07-.69c.26-1.1.15-.24.35-.92.41-1.5.7-3.81,1-4.6a3,3,0,0,1-.1.73c.16-1,1-4.58.69-3.64.66-2.67,1.08-5.1,1.64-7.28.15-1.41,1.1-4.57,1-5,.18.22,1.27-4.67,1.56-6.38-.07.58.41-1.45.35-.78.44-1.92.81-3.7.62-3.38,1.09-3.52,1.44-7.17,2.25-9.13,1.3-5.73,2.49-11,3.66-16.18.18.21-1.36,5.68-1.07,5.49,1.11-4.89,1.55-7.74,2.84-12.56.35-1.25-.08.73-.15,1.15,1.14-4.88,2.41-9.41,3.39-13.76,0,0-.08.48-.17.92a8.29,8.29,0,0,0,.41-1.89l-.18.83c-.5,1.35.55-3.43.51-3.59-.08,1.46,1.18-4.28.94-1.92.14-.56.28-1.28.17-1.15.25-.83.36-1.1.21-.24.76-3.06.36-2,1.11-4.76,0,0-.09.58-.11.87.29-1.41.57-2.83,1.24-5.16,0,.14.1-.12-.09.58,1.07-4,1.58-6.89,2.86-11.28-.15,1.33.5-1.45.75-1.69l.61-2.37-.35.94c.59-2.07,1-3.92,1.54-5.69l-.36,1.54,1.07-3.88-.7,2.19c.51-2.11-.29.19.54-2.56-.14.56.6-2.07,1-3.14h0a31.49,31.49,0,0,1,1-3.64c.17-.38.11.36.22.1.12-1,1.38-4.85,1.61-6.14-.09.43,0,.46.06.33l.13-.87c.33-1,.39-1.09.42-.92.89-2.87-.51.87.63-2.52a6.19,6.19,0,0,1-.17.73c1.09-3.42,1.93-6.64,2.94-9.78.47-.9-.78,2.76-.31,1.72,1.31-4.55,2.7-9.43,4.17-13.8l-.29.81c-.06-.65,1.18-3.24,1.78-5.48-.16.55-.09.73-.07.58,1-3,1.87-6.15,3.36-10.7l-.12.58c.66-1.75,1.64-4.63,2.32-6.56.13-.57.52-1.66.2-1,2.41-5.83,3.62-11.24,5.91-16.35-.23.62-.49,1.45-.31,1l1.58-4.42a10.79,10.79,0,0,0-.71,1.45,24.29,24.29,0,0,1,1-2.91c-.67,2,.18,0,.56-.83-.09.14,0-.16-.08-.1,1.06-2.26-.08-.42,1.23-3.55v.18c.41-1.18.74-2.28,1.22-3.56.33-.49-.4,1.27-.33,1.37a52.57,52.57,0,0,1,1.84-5.15c-.26.73-.7,1.84-.94,2.62.81-1.74.88-1.94,1.41-3.24v.13l1.27-3-.35.73c.55-2.29,1.74-4.54,2.72-7.58-1,3-.07.51,0,.73a9.86,9.86,0,0,1,.76-1.57c.45-1.46,1-2.34,1.66-4.37.09-.08.61-1.51.6-1.16.7-1.85-.25.41-.25.24,1-2.91,3-6.55,4.51-10.69,1.41-3.51,1.53-4.2,2.84-7.46.55-1.08-.21.94-.21.94.83-1.75,1.37-3.09,2-4.76-.11.34.08,0,.37-.49.6-1.32.24-.92,1.11-2.65a12.36,12.36,0,0,1-.42,1.37l2-4.77c.28-.41-.33,1-.54,1.59.81-1.83,2.11-4.73,2.24-5.32l-.59,1.15c.3-.66.27-.31.07.19a8.67,8.67,0,0,1-1.17,2.31l.5-1.16c-.82,1.12-2.1,4.64-3.18,6.95l.24-1L226,68.07c-.27.49-.53.82-.07-.34-.81,1.65-.56,1.5-1.29,2.91-.08.16-.06.08,0-.07L224,72.23c.09-.34-.26.23.2-.73-1.37,2.91-1.88,4.77-2.51,5.82l.09-.25c-1.68,4.09,0,.43-1.16,3.52l-1.24,2V83a4.43,4.43,0,0,1-.54,1.09c-.58,1.58.17-.26-.12.67-1,2-2.26,5.61-2.67,6-.18.73.86-1.93.07.26-.5.56-1,2.52-1.82,4.37.1-.59.87-2.34,0-.51a52.66,52.66,0,0,1-2.07,5.2c.14.11-1.29,3.42-2.28,6.06,0-.18-2,5-3,7.41v-.08a49.42,49.42,0,0,1-1.63,4.9c-.08-.09,0-.43.33-1.46l-.65,1.74a18.17,18.17,0,0,1-.66,2.1v-.46c-.85,2.31-1.58,4.69-2.76,7.65.06.19,1.19-2.31.15.87-.1.1-.26.19,0-.64-.09.27-.28,1-.5,1.52l.33-1.28c-.52,1.35-.15.72-.54,1.81-.09,0-.35.79-.37.62s.37-.94.47-1.36c-.44,1.22-1,2.7-1.25,3.17.09-.09.13,0-.17.93a11.49,11.49,0,0,1-.91,2.11,14.48,14.48,0,0,0-.58,2.12,4.49,4.49,0,0,1-.48,1c-.35,1.21-1.92,5.62-1.3,4.29l.12-.3-.06.19h0c-.61,2-1.36,4-2.06,6.07s-1.4,4.09-2,6.06h0c-.7,2.35-1.65,5.22-2.09,6.91-.22.73-.62,1.62-.58,1.32-.54,1.8-.55,2-1.47,4.58a10.37,10.37,0,0,1,.54-1.86,53.8,53.8,0,0,0-1.66,5.37c.13-.88-.69,1.73-1,2.85l.58-1.62c-.38,1.24-.71,2.34-1,3.44v-.62c-1.64,4.75-2.27,8.67-3.7,12.26-.27,1.28.86-2.58.65-1.46-.7,2.19-1.59,4.46-1.78,5.15-1,3-.57,2.86-1.53,6,.18-.39.44-.72-.18,1.62-.65,2.19-1,2.68-.66,1.28a2.74,2.74,0,0,1,.25-.73c.18-.73.42-1.66.11-.79v.29c-.38,1.09-1.23,4.12-1.12,3.4-.42,1.68-.11.72.27-.51-.89,2.82-1.26,4.42-2.15,7.33.17-.46.36-.87.23-.42a47.36,47.36,0,0,0-1.17,4.81c-.53,1.64-.05-.62-.76,2.31-.54,1.78-.26.36-.12-.36-.6,2.67-1.4,5-1.83,6.48l.33-1.41c-.2.85-.39,1.53-.57,2.23l.33-.79a8.18,8.18,0,0,1-.48,1.5c-.15.86.37-.62,0,1.07-.35,1.1-.83,3.35-1.08,3.71,1-3.44-.26.36.5-2.56-.14.56-.32,1.25-.56,2.07-.05.13,0-.11,0-.35-1,3.29-.26,1.55-1.13,5,0-.44-.37.78-.49,1.34.35-1.38.31-.64.05.63-.62,2.19-.55,2.4-.85,3.55l.36-1.31A25.52,25.52,0,0,1,168,240c-.1.12.31-1.39.14-.86-.28,1.73-1.14,3.83-1.64,6.22-.33,1.09-.19.08-.47,1-.56,2.67-.86,2.86-1.47,5.67.33-.79.32-.94,0,1.05l1.07-4.6-.58,3c.35-1.39.67-2.91.9-3.77-.26,1.42-.25,1.27,0,.62-.66,1.87-.86,3.77-1.5,5.95l-.27-.1c-.93,3.28-1.28,5.88-2.39,10.2l.39-1.37c0,.59-.63,2.64-.92,4-.06-.15-.31.73-.51,1.3.09-.06-.77,3.14-.67,3.56l-.58,1.9c-.86,3.46-.64,4-1.45,7.32.13-1-.29.48.15-1.76a16,16,0,0,0-.45,2.14c-.21.64-.58,3.1-.91,4.12a10.08,10.08,0,0,1-.3,1.88h0s-.39,2,0,.89c-1.12,3.39-2.18,9.58-3.1,12.54l-1.62,7.57c0-.14-.05,0,.06-.42-.77,3-.14,1.9-1,5.36-.55,1.74.33-1.85,0-.73-.43.44-.88,4.18-1.57,6.49l.1-.57c-.49,1.77-.82,4.37-1.48,7.29h0c-.27,2-1,5.82-1.6,8.6.07-.89.21-1.28,0-.73-.26,1.26.28-.35-.23,2.18a23,23,0,0,1-.87,2.84l.5-2.36c-.44,1.18-.65,3.06-1,4.3v-.17c-.75,3.65-.56,3.7-1.4,7.6l.14-.39c-.26,2.15-.49,1.77-.8,3.91l-.33.62c-.25,1.41-.89,4.94-1.35,7.47.15-1.46.7-4.37,1-6.24-.3,1.4-1,4.74-1.05,5.47.1-.56.2-1.27.35-1.82-.21,1.72-.6,4-1.19,6.76-.28-.54-1.62,7.23-2.33,9.21-.9,4.93-2.1,9.74-3.28,15.46.72-2-.34,1.67,0,1.36-.26,1.33-.37,1.84-.42,2l-1,4c-.29.94.19-1.28.1-1.16a25.62,25.62,0,0,1-.87,3.13c.19-.38-.06,1-.45,2.69l.63-2.32c-.69,4.09-1,3.49-1.69,7.62l.17-1.31c-.38,2.11-1.63,7.78-1.82,9.87-.12.38-.3.86-.13-.08-1.09,5-2.12,11.26-3.1,15.16v-.61a26,26,0,0,1-.54,2.83c0-.07,0-.39-.09,0s-.4,2.52-.71,3.76l.14-1.08c-1.14,4.91-1.41,7.57-2.26,11.7-.21,0-1.13,3.82-1.58,5.75v-.08c-1.27,5.72-1.93,9.74-3,15.05-1,3.25-2.58,11.12-3.93,16.38.22-.8.13.15-.06,1.09-.34,1.23-.65,3.44-.8,3.22l.1-.44a39.32,39.32,0,0,0-1.42,5.44l.18.37c-.8,2.57-1.55,6-2.25,9.09a73,73,0,0,1-1.88,7.32c-.26,1.26-.59,2.81-.86,4.06l-.12-.08c-.89,3.46-1.31,5.19-2.36,9.46l.13-.88c-.63,2.41-.39,3.1-1,5.33l-.38.64c-1.09,4.21-2.37,8.45-3.25,12.65a2.26,2.26,0,0,1,.12-.89c-.49,2-2.21,7.63-1.72,7-.2,0-1.2,4.37-1.74,6.62v-.37a44.84,44.84,0,0,1-1,4.69c-.2.63-.27.54,0-.3-.65,2.11-.32,1.67-1.1,4.22l.18-1a25.87,25.87,0,0,0-.78,3.21,31.07,31.07,0,0,1-1.45,4.37,15,15,0,0,1-.66,2.78c-.1.17,0-.31.06-.54-1.15,3.64-1.41,5.42-2.27,7.89a1.12,1.12,0,0,0-.2.41c.84-2.87,1.4-4.77,1.47-5-.13,0-.83,2.3-.46.42-.46,1.88-1.16,5.1-1.91,7.37a.61.61,0,0,1-.14.29l.06-.23c-.18.51-.31,1-.43,1.45-.23.73-.39,1.17-.62,1.87-.18.24-.88,2.65-1.25,3.8.17-.07-.32,1.45.23,0a6.17,6.17,0,0,1,.29-1c0-.17.1-.38.14-.5v.09c.24-.73.54-1.76.89-2.88a22.23,22.23,0,0,1-.93,3.15c-.1.61-.22,1.28-.28,1.66-.68,1.55-1.74,4.58-2,5C84,596,83.34,598,82.77,600s-1.13,3.64-1.38,4.8a7,7,0,0,1-.62,1.51c.17-.59.4-1.28.47-1.59-.61,2-2,5.93-1.94,6.44-.93,2.5.31-1.46-.82,2l.1-.48c-2.51,6.77-3.4,11.14-6.46,18.59.11-.29.24-.58.38-.87-.81,2.13-1.61,4.31-2.4,6.5l-2.51,6.56c-1.7,4.37-3.36,8.74-5.17,12.92a38.58,38.58,0,0,0-1.58,4.12l-.36.49-.88,2.51c-1.37,3.54-2.92,6-4.6,10.51l.35-.54c-.73,1.58-2.24,5-2.23,4.75a5.36,5.36,0,0,1-.47,1.15h-.1l-1.66,3.93c-1.45,3-.08-.55-2.12,3.86a30.88,30.88,0,0,0-1.6,4.11,11.33,11.33,0,0,1,.92-1.71L47,691.11c.1.33-.21,1.54,1.64-2.1l1-2.6.49-.8-1,2.18a18.6,18.6,0,0,0,1.27-2.91,7,7,0,0,0,.61-1l1-2.57c.23-.28-.35,1.17.48-.51.44-1.2-.72,1.09.12-.88a11.47,11.47,0,0,0,1.16-2.29c.15-.19,0,.13-.2.73.53-1.29,1.54-3.4,1.72-4.09.69-1.25,1.82-4.37,2-4.19.12-.42.8-2.31,1.29-3.5-.66,2.18,1.9-4.44,1.93-3.81.42-1.66,2.41-5.83,3.37-8.74a4.79,4.79,0,0,1-.24.73c.65-1.61.9-2.06,1.35-3.09a32.55,32.55,0,0,1,1.24-4.13c1-1.94-.25,1.24.17.66-.2.06,1.18-3.47.79-2.82a13.75,13.75,0,0,1,1-2c-.14-.31.5-1.41.85-2.69a16.81,16.81,0,0,0,1.3-2.92c.25-.57.2-.31.08.09Zm19-57.7h0c-.15.5-.28.92-.36,1.2A12.47,12.47,0,0,0,89.13,581Zm1.42-4.87c-.17.59-.39,1.33-.62,2.11-.09.17-.09,0,.06-.52A16.28,16.28,0,0,0,90.55,576.15Zm-4.06,10.14a6.05,6.05,0,0,1,.39-1.13l-.41,1.35v.09A1.62,1.62,0,0,1,86.49,586.29Z"/><path class="cls-1" d="M86.24,587.7l-.09.32.17-.46v-.27A1.42,1.42,0,0,1,86.24,587.7Z"/><path class="cls-1" d="M196.23,143.14v.1a.46.46,0,0,1,.1-.21Z"/><polygon class="cls-1" points="108.87 508.61 108.83 508.61 108.76 509.05 108.87 508.61"/><path class="cls-1" d="M206.17,116.65a3.17,3.17,0,0,1,.17-.34A2.16,2.16,0,0,0,206.17,116.65Z"/><path class="cls-1" d="M210.51,105.22l.69-1.6C210.9,104.32,210.69,104.82,210.51,105.22Z"/><path class="cls-1" d="M214.07,96.48a.28.28,0,0,0,0-.18Z"/><path class="cls-1" d="M169.17,237.63a2,2,0,0,1-.08.35C168.91,238.79,169,238.24,169.17,237.63Z"/><path class="cls-1" d="M180.35,195.26c-.11.46-.21.91-.32,1.37A4.34,4.34,0,0,0,180.35,195.26Z"/><path class="cls-1" d="M157.8,285.08h0a1.63,1.63,0,0,1-.07.3Z"/><path class="cls-1" d="M179.47,198.6c.24-.73.41-1.38.56-2C179.84,197.25,179.62,198,179.47,198.6Z"/><path class="cls-1" d="M230.35,58.8l.19-.41v-.06Z"/><path class="cls-1" d="M230.55,58.33l.19-.47A3.08,3.08,0,0,0,230.55,58.33Z"/><path class="cls-1" d="M231.16,56.88l-.42,1A6,6,0,0,0,231.16,56.88Z"/><path class="cls-1" d="M225.07,70.24v.14A.17.17,0,0,0,225.07,70.24Z"/><path class="cls-1" d="M223.58,73.74c.37-.83,1-2.07,1.47-3.24v-.12C224.9,70.94,223.84,72.93,223.58,73.74Z"/><path class="cls-1" d="M216.72,88.23c.4-1,.86-2,1.28-2.92-.27.51-.63,1.17-.07-.17C216.2,88.79,218.36,84.37,216.72,88.23Z"/><path class="cls-1" d="M213,97.36c.61-1.59-.09,0-.08-.09C212.57,98.32,212.48,98.54,213,97.36Z"/><path class="cls-1" d="M189.25,164l-.08-.18C188.79,165.09,189.22,163.86,189.25,164Z"/><polygon class="cls-1" points="185.91 176.98 186.35 175.78 186.41 175.19 185.91 176.98"/><polygon class="cls-1" points="182.72 184.44 182.87 183.89 182.28 185.97 182.72 184.44"/><path class="cls-1" d="M153.55,298.15l.24-.36C154,296.93,153.82,296.74,153.55,298.15Z"/><path class="cls-1" d="M142.94,347.49a16.83,16.83,0,0,0-.64,2.77C142.55,349.16,142.84,348.06,142.94,347.49Z"/><polygon class="cls-1" points="110.75 495.4 110.93 494.41 110.53 496.28 110.75 495.4"/><path class="cls-1" d="M205.14,670.65c.14.32.18.12-.09-.78l-.35-.61Z"/><path class="cls-1" d="M203.71,664.54c-.38-1-.87-2.25-.82-1.54.46,1,.46,1.29,1,2.39a3.12,3.12,0,0,1,.3,1.46c.13.31.36,1.41.6,1.87a27.88,27.88,0,0,0-1.17-4.22C203.53,664.17,203.66,664.47,203.71,664.54Z"/><path class="cls-1" d="M178.82,576.39l.14.56Z"/><path class="cls-1" d="M163.32,521.77a3.39,3.39,0,0,0,.21.61A2.32,2.32,0,0,0,163.32,521.77Z"/><path class="cls-1" d="M160.84,512.43a2,2,0,0,0,.15.55A5.1,5.1,0,0,0,160.84,512.43Z"/><path class="cls-1" d="M178.82,576.39l-.37-1.46A9.47,9.47,0,0,0,178.82,576.39Z"/><path class="cls-1" d="M199.85,652.45c.1.31.19.56.27.79-.08-.26-.15-.5-.23-.73Z"/><path class="cls-1" d="M185.82,600.43l.12.45.17.35Z"/><path class="cls-1" d="M191.11,618.9a1.48,1.48,0,0,0-.4-.73,5,5,0,0,1,.36.9A.29.29,0,0,0,191.11,618.9Z"/><path class="cls-1" d="M199.23,648.23l.17.52C199.35,648.61,199.28,648.38,199.23,648.23Z"/><path class="cls-1" d="M182.07,587.21a.54.54,0,0,0,0-.18A.54.54,0,0,0,182.07,587.21Z"/><path class="cls-1" d="M33.59,70.75h0C33.57,70.65,33.55,70.65,33.59,70.75Z"/><path class="cls-1" d="M28.16,49.24l.09.29a.3.3,0,0,0,.1,0Z"/><path class="cls-1" d="M156.15,495.34v.08C156.31,495.86,156.23,495.61,156.15,495.34Z"/><path class="cls-1" d="M111.35,338.75c.38,1.79-1-2.86-.36-.17C111,338.32,111.9,341,111.35,338.75Z"/><path class="cls-1" d="M199.74,652c-.08-.25-.15-.5-.22-.73C199.61,651.56,199.68,651.79,199.74,652Z"/><path class="cls-1" d="M111,338.58h0l.07.27A.41.41,0,0,1,111,338.58Z"/><path class="cls-1" d="M144.85,456.05a1.92,1.92,0,0,0,.05.41A1.4,1.4,0,0,0,144.85,456.05Z"/><path class="cls-1" d="M153,485.36l-.19-.73A3.59,3.59,0,0,1,153,485.36Z"/><path class="cls-1" d="M140.31,440.87c-.1-.39-.12-.53-.29-1.07V440A6.27,6.27,0,0,1,140.31,440.87Z"/><path class="cls-1" d="M135.79,425.05a.56.56,0,0,0,.06.3,3.21,3.21,0,0,1,.15.49Z"/><path class="cls-1" d="M47.38,118.83a5.87,5.87,0,0,1-.08-.72C47.27,118.35,46.57,116,47.38,118.83Z"/><path class="cls-1" d="M199.93,652.43a1.66,1.66,0,0,1-.19-.46l.15.53S200,652.52,199.93,652.43Z"/><path class="cls-1" d="M139,440.39l-.69-2.51C138.53,438.58,138.79,439.5,139,440.39Z"/><path class="cls-1" d="M79.8,232.36l-.18-.57C79.68,232,79.75,232.22,79.8,232.36Z"/><path class="cls-1" d="M136.2,430.4c-.08-.45-.19-.93-.31-1.46l-.12-.28Z"/><path class="cls-1" d="M42.24,101.57c.68,2.39.5,1.1.75,1.58.87,2.86.25,1.35.43,2.34.56,1.78,1.11,3.12,1.49,4.45,0,.1.06.37-.06.07.68,1.86,1.6,5.61,2.41,7.78a1.4,1.4,0,0,1,0,.29c0-.37.06-.44.15-.37a15.47,15.47,0,0,1,.68,2.39,5.59,5.59,0,0,0-.37-1l.37,1.12c.12,1-.5-1.53-.62-1.51.68,2.19,1.55,4.72,2,6.41-.07.38-1.18-3.92-.69-1.66l-.67-2.61c.3,2-.44-1.58-.2.29.93,3.43,1.18,3.81,2.11,7.24.31.73.06-.28.37.48,1.56,4.83.68,3.89,1.92,7.42a15.75,15.75,0,0,1,1.3,3.79l-.44-.83c.93,3.31.81,1.84,1.68,5.33-.25-.6-.81-2.59-.69-2.09a25,25,0,0,0,1.06,3.31l-.07.38c1,3.52,2.26,7.4,3.41,11.3-.11-.21-.35-.87-.14,0,1.49,4.92,3,10.52,4.24,15.29l.66,1.8c.12.42.16.79,0,.34.48,1.86.12.08.43,1,.31,1.06.32,1.41.08.73,1.06,3.25,2.92,9.28,3.75,12.74l-.23-.66c.71,2.69,1.16,3,1.73,5.49l-.16-.47c1.6,5.82,3.57,12.25,4.62,16.75.45.81,1.55,5.77,2,6.1.8,3.35.48,2.4,1.72,7.1.35,1.25.71,1.84,1.19,3.38l-.14.06.75,2.08.14,1.14.45,1.46a3.89,3.89,0,0,1-.21-1.16,47.72,47.72,0,0,1,1.41,5.61l1.66,5.34a17.22,17.22,0,0,1-.62-1.71c1,2.84,0,.54.88,3.15-.06-.36.15.17.19.23.29,1.32,1.13,4.29,1.8,6.49l-.22-.41c1.1,4,2.44,8.37,3.71,12.84-.41-1.61-.12-1.27.27,0v.55c.34.83-.33-1.38.28.33s.14,1.15-.18.21l.63,2c0,.12-.17-.35-.27-.46.34.81.84,3.51,1.35,4.69v.12c1.27,4.46,1.9,6.47,3,10.11a27.21,27.21,0,0,1,1,2.54c.72,2.67,1.45,5.66,2.38,8.87.72,2.25.31.64.68,1.65-.08.19.85,3.4.29,1.74,1.12,3.86,1.43,4.93,2.92,9.8-.09-.54-.24-1.14-.11-.84a7.11,7.11,0,0,1,.42,1.91l-.08-.23c1.76,5.45,3.25,12.7,4.76,17l-.09-.25,1.43,4.51c.58,2.08-.45-1.24-.09.32,1.61,4.85,2.18,7.72,3.46,11.72.52,3.17,3.18,11,4.14,15.29v-.25a12.41,12.41,0,0,1,.53,2.12c0-.12-.25-1.18,0-.52,2.73,9.18,5.29,19,7.9,28.44,1,3.46,1,1.9,2,6.27l-.51-1.2c2.18,6.93,4,14.23,6.16,21a7.24,7.24,0,0,1-.39-1.07,42.21,42.21,0,0,0,1.61,5.34c.3,1.06,0,.26.13.92.34,1.45,1.18,3.6,1.28,4.37a4.12,4.12,0,0,1-.24-.67c.33.94,1.24,4.37,1.12,3.47.66,2.56,1.45,4.88,2,6.93.53,1.31,1.17,4.37,1.51,4.78-.28-.14,1.1,4.51,1.66,6.11-.22-.53.34,1.46.06.8.53,1.84,1.06,3.53,1.08,3.19.7,3.44,2.16,6.8,2.37,8.74,1.68,5.46,3.21,10.52,4.67,15.44-.27-.14-1.58-5.44-1.75-5.2,1.43,4.67,2.39,7.33,3.66,12,.31,1.21-.29-.66-.45-1.06,1.43,4.66,2.56,9,3.87,13.17a6,6,0,0,1-.31-.87,8.58,8.58,0,0,0,.58,1.8l-.25-.79c-.23-1.33,1.23,3.2,1.35,3.34-.69-1.35,1.1,4.12.1,2,.18.54.42,1.21.45,1.08.21.8.24,1.06-.07.26.9,2.91.71,1.87,1.46,4.53,0,0-.22-.54-.36-.81a42.91,42.91,0,0,1,1.56,4.93c-.06-.13,0,.13-.22-.54,1.12,3.86,2.13,6.56,3.25,10.8-.57-1.23.34,1.45.22,1.69l.71,2.28-.18-.93c.57,2,1.21,3.74,1.63,5.45l-.49-1.45,1.1,3.73-.54-2.13c.67,2,.17-.25.88,2.41-.17-.53.57,2,.76,3.05h0c.34,1,.69,2,1.07,3.47.05.39-.29-.28-.26,0,.43,1,1.38,4.67,1.89,5.87-.15-.4-.26-.41-.24-.27l.36.79c.23.94.24,1.07.12.94.78,2.78,0-.92.83,2.39a6.76,6.76,0,0,1-.24-.67c.89,3.32,1.9,6.4,2.71,9.47.07.92-.8-2.65-.67-1.6,1.29,4.37,2.82,9,4,13.3l-.21-.79c.43.55.78,3.18,1.51,5.31-.17-.52-.34-.67-.27-.53.79,2.92,1.76,5.94,3.1,10.34l-.22-.54c.43,1.72,1.25,4.52,1.75,6.38.22.54.52,1.59.43.94,1.25,5.76,3.31,10.85,4.44,16-.17-.61-.47-1.46-.33-1l1.29,4.31a7,7,0,0,0-.4-1.47c.22.53.62,1.74.92,2.81-.63-1.93-.17.05,0,.89,0-.14.12.14.13.06.44,2.29.34.35,1.08,3.44l-.11-.15c.36,1.15.75,2.19,1.08,3.44,0,.54-.41-1.22-.54-1.28.51,1.75,1.23,3.41,1.55,5-.25-.73-.55-1.81-.8-2.54a31.35,31.35,0,0,0,.78,3.22v-.13l.78,3-.18-.73c1,2.12,1.33,4.43,2.4,7.34-1-2.83-.26-.45-.47-.65a7.91,7.91,0,0,1,.32,1.58c.51,1.38.57,2.34,1.3,4.27,0,.1.42,1.46.21,1.19.55,1.81,0-.44.06-.29,1,2.76,1.68,6.55,3,10.55,1.08,3.44,1.42,4,2.42,7.28.23,1.09-.43-.86-.43-.86.43,1.75.82,3.06,1.34,4.7-.13-.32-.07,0,0,.53a26.07,26.07,0,0,1,.85,2.61,13.93,13.93,0,0,1-.57-1.29c.49,1.55,1,3.07,1.52,4.68,0,.44-.4-1-.62-1.52.55,1.81,1.41,4.69,1.71,5.23l-.29-1.18c.2.67,0,.36-.18-.12a7.49,7.49,0,0,1-.57-2.34l.36,1.14c-.06-1.22-1.36-4.6-2-6.91l.48.93-.85-2.34c-.09-.52-.07-.87.28.26-.37-1.67-.49-1.45-.78-2.91v.06l-.52-1.61c.13.31.06-.29.32.73-.71-2.92-1.49-4.66-1.65-5.78l.08.24c-1.21-4-.26-.36-1.29-3.36l-.22-2.09-.26-.37a4.15,4.15,0,0,1-.23-1.1c-.55-1.53,0,.28-.34-.61-.44-2-1.64-5.5-1.53-6-.32-.73.46,1.92-.23-.21.08-.64-.75-2.46-1.15-4.3.29.54.71,2.28.31.43a43.81,43.81,0,0,1-1.45-5.09c-.2-.05-1-3.35-1.83-5.92.11.16-1.29-4.88-1.91-7.29v.07a37.88,37.88,0,0,1-1.54-4.73c.13,0,.26.37.59,1.34l-.49-1.69c-.17-.4-.35-.92-.69-2l.26.41c-.65-2.26-1.46-4.53-2.2-7.45-.17-.15.31,2.36-.65-.73,0-.13.12-.26.38.54-.09-.26-.33-.93-.45-1.45l.47,1.21c-.33-1.34-.3-.68-.59-1.74.1,0-.15-.8,0-.66s.22.93.37,1.33c-.32-1.19-.67-2.65-.74-3.13,0,.11-.13,0-.39-.86a10.92,10.92,0,0,1-.43-2.12,13,13,0,0,0-.72-2,4.3,4.3,0,0,1-.19-1.05c-.4-1.16-1.58-5.47-1.36-4.13l.08.31a.45.45,0,0,0-.06-.2h0c-1.24-3.81-2.19-8-3.34-11.77h0c-.71-2.25-1.48-5-2-6.65-.2-.67-.37-1.6-.23-1.32-.53-1.73-.64-1.92-1.28-4.44a8.41,8.41,0,0,1,.58,1.78c-.61-2.26-.67-2.78-1.5-5.18.36.8-.33-1.73-.67-2.79l.36,1.59c-.36-1.2-.65-2.26-.94-3.33l.32.55c-1.12-4.65-2.71-8.27-3.38-11.83-.46-1.21.63,2.52.19,1.45-.59-2.12-1-4.37-1.17-5-.74-2.91-1-2.67-1.82-5.73.05.4,0,.8-.7-1.45s-.5-2.65-.08-1.32a2.44,2.44,0,0,1,.18.73c.22.69.5,1.58.32.73l-.13-.27a27.48,27.48,0,0,1-.8-3.31c-.51-1.6-.29-.67,0,.52-.69-2.74-1.21-4.26-1.95-7.08.09.46.14.88,0,.43-1.1-4.12-.62-1.79-1.44-4.58-.37-1.59.37.54-.51-2.25-.43-1.73,0-.39.3.28-.85-2.53-1.29-4.79-1.69-6.25l.43,1.34c-.26-.8-.44-1.46-.64-2.13l.11.78a10.55,10.55,0,0,1-.35-1.45c-.3-.8,0,.65-.58-.95a34,34,0,0,1-.93-3.59c.9,3.32.05-.39.88,2.41-.17-.54-.36-1.19-.57-2,0-.12.07.1.14.32-.77-3.19-.59-1.46-1.53-4.72.21.4-.05-.79-.22-1.32.37,1.32,0,.65-.38-.55-.53-2.12-.7-2.28-1-3.39l.33,1.27c-.21-.42-.5-1.46-1-2.92,0-.13.43,1.34.31.8-.62-1.61-.9-3.71-1.65-6-.24-1.06.14-.12-.09-1.05-.84-2.54-.67-2.79-1.53-5.45.11.79.17.92-.48-1l1.34,4.36-1-2.8c.38,1.33.88,2.8,1.09,3.6-.48-1.33-.41-1.2-.33-.56-.34-1.84-1.13-3.59-1.61-5.7h.3c-.64-3.3-1.64-5.7-2.73-9.85l.33,1.33c-.27-.54-.74-2.53-1.17-3.86.13.11-.07-.73-.17-1.3-.05.08-.85-3-1.15-3.35l-.4-1.86c-.89-3.32-1.35-3.74-2.23-6.93.38.95,0-.52.72,1.61a12.22,12.22,0,0,0-.63-2c-.12-.64-1-2.92-1.16-3.93a10.78,10.78,0,0,1-.65-1.77h0s-.6-1.86-.41-.8c-.63-3.33-2.63-9.16-3.19-12.05-.69-2.32-1.53-5.1-2.13-7.23a.79.79,0,0,1,.15.4c-.74-2.91-.79-1.74-1.63-5.09-.33-1.72.58,1.74.34.67.19-.5-1.18-4-1.63-6.24l.17.54c-.38-1.72-1.31-4.13-2.08-6.92,0,0,.07.13.06,0-.71-1.88-1.79-5.47-2.6-8.14.36.81.41,1.2.39.68-.36-1.2-.1.38-.82-2a24.34,24.34,0,0,1-.52-2.78l.66,2.26c-.16-1.18-.84-2.91-1.15-4.11l.12.14c-1-3.46-1.22-3.48-2.27-7.21v.4c-.77-2-.38-1.72-1.1-3.73v-.64c-.43-1.34-1.53-4.67-2.25-7.07.53,1.34,1.41,4.14,2,5.87-.38-1.33-1.3-4.51-1.6-5.2.18.54.42,1.2.54,1.74-.62-1.61-1.3-3.74-2.06-6.39.51.41-1.88-6.93-2.14-8.89-1.47-4.67-2.59-9.31-4.17-14.77.26,2-.47-1.59-.67-1.21-.38-1.27-.52-1.76-.53-1.87l-.92-3.88c-.17-.93.41,1.2.45,1.07a24.39,24.39,0,0,1-.66-3c0,.4-.43-.94-.84-2.53l.5,2.26c-1.27-3.88-.71-3.41-2-7.29l.45,1.23c-.63-2-2.12-7.43-2.92-9.37-.07-.36-.12-.84.16.05-1.34-4.83-3.32-10.68-4.24-14.44l.18.35a26,26,0,0,1-.83-2.67c0,.05.18.35.06-.07s-.81-2.36-1.1-3.56l.37,1c-1.24-4.72-2.26-7.18-3.43-11.1.22,0-.77-3.73-1.26-5.58V281c-1.53-5.47-2.83-9.26-4.36-14.3-.66-3.18-2.93-10.66-4.24-15.73.18.78-.21-.1-.49-1-.29-1.18-1.08-3.24-.83-3.09l.12.42a43.91,43.91,0,0,0-1.35-5.25l-.35-.27c-1-5-3.85-13-4.29-15.77-.41-1.2-.83-2.68-1.23-3.86l.15,0c-.91-3.33-1.37-5-2.57-9.09l.33.82c-.65-2.32-1.23-2.87-1.85-5v-.68c-1.15-4-2.14-8.17-3.47-12.13a2,2,0,0,1,.34.82c-.54-1.9-2-7.39-2-6.65a55.81,55.81,0,0,0-1.88-6.35l.24.32a42.09,42.09,0,0,1-1.55-4.43c-.16-.62,0-.56.15.26-.51-2-.58-1.57-1.21-4L65,177a20.62,20.62,0,0,0-1-3.06,29.34,29.34,0,0,1-1.06-4.3A15.81,15.81,0,0,1,62,167c0-.17.16.27.24.5-.91-3.51-1.65-5.18-2.2-7.61a.94.94,0,0,0,0-.41c.78,2.77,1.42,5,1.35,4.81.12,0-.5-2.27.19-.51-.61-1.79-1.7-4.84-2.26-7a1.5,1.5,0,0,1,0-.3l.08.22c-.13-.5-.28-1-.42-1.38-.18-.73-.29-1.14-.48-1.81,0-.28-.68-2.59-1-3.71-.11.12-.51-1.35-.23,0a5.34,5.34,0,0,1,.3,1,1.53,1.53,0,0,0,.15.47v-.07c.22.72.49,1.69.81,2.78a21.24,21.24,0,0,1-.93-3c-.25-.56-.52-1.18-.66-1.53-.25-1.56-1-4.53-1-5-1-3.41-2.35-8-3.22-10.15a6.46,6.46,0,0,1-.31-1.5c.19.56.38,1.23.5,1.52-.62-1.93-1.67-5.74-2-6.18-.62-2.46.56,1.35-.43-2l.18.44c-1.6-6.66-3.53-10.69-5.25-18.08a6.72,6.72,0,0,1,.18.87c-2.22-8.38-5.07-17.21-7.17-25.48a33.1,33.1,0,0,0-1.3-4v-.52l-.87-2.43c-1.11-3.45-1.35-6.06-2.84-10.42l.06.58c-.43-1.58-1.49-5-1.3-4.75a5.6,5.6,0,0,1-.46-1l.06-.07-1.24-3.85c-.8-3,.44.42-.79-4a28.39,28.39,0,0,0-1.43-4,8.23,8.23,0,0,1,.37,1.76l-.47-1.46c-.3-.24-.86-1.35,0,2.34l.87,2.52.12.84-.62-2.14A18.21,18.21,0,0,0,29.49,56a6.7,6.7,0,0,0,.18,1.09l.94,2.47c0,.32-.5-1.09-.07.6.43,1.16-.12-1.16.5.77a9.55,9.55,0,0,0,.55,2.32c0,.2-.12-.09-.31-.66.44,1.27,1,3.37,1.3,4,.24,1.29,1.26,4.3,1,4.21.17.39.81,2.19,1.16,3.39-.87-2.1,1.23,4.37.8,3.86.68,1.55,1.73,5.71,2.66,8.49a6.28,6.28,0,0,1-.25-.73c.43,1.59.5,2.06.74,3.08a30.73,30.73,0,0,1,1.49,3.93c.37,2-.56-1.14-.56-.5.13-.13,1.11,3.33,1.05,2.65A11.54,11.54,0,0,1,41,97.05c.31.23.44,1.38.93,2.58a15.55,15.55,0,0,0,.68,2.91C42.93,103.64,42.24,101.57,42.24,101.57Zm16.39,55.89h0c-.14-.48-.26-.9-.34-1.15C58.36,156.58,58.46,156.88,58.63,157.46Zm1.37,4.7c-.15-.57-.36-1.28-.57-2,0-.17.1,0,.23.47A11.85,11.85,0,0,0,60,162.16Zm-1.88-10.09a4.32,4.32,0,0,1,.27,1.1c-.1-.35-.22-.73-.38-1.3v-.08a1.47,1.47,0,0,1,.08.28Z"/><path class="cls-1" d="M57.53,150.75c0-.11-.06-.16-.1-.3l.09.45c0,.09.09.17.12.25C57.6,151,57.56,150.88,57.53,150.75Z"/><path class="cls-1" d="M179,577.06v0Z"/><polygon class="cls-1" points="78.24 227.13 78.28 227.13 78.13 226.72 78.24 227.13"/><path class="cls-1" d="M185.9,603a1.11,1.11,0,0,0,.06.35A1,1,0,0,0,185.9,603Z"/><path class="cls-1" d="M189.07,614.22l.4,1.59C189.3,615.12,189.17,614.65,189.07,614.22Z"/><path class="cls-1" d="M191.45,622.83a.91.91,0,0,0,.11.16h0Z"/><path class="cls-1" d="M152.26,486.09a1.15,1.15,0,0,0-.1-.33C151.91,485,152.07,485.52,152.26,486.09Z"/><path class="cls-1" d="M164.19,526.74c-.14-.43-.29-.84-.43-1.29A4.45,4.45,0,0,0,164.19,526.74Z"/><path class="cls-1" d="M139.12,440.67h0l-.08-.28Z"/><path class="cls-1" d="M163.22,523.55c.18.73.36,1.33.54,1.9C163.59,524.85,163.41,524.15,163.22,523.55Z"/><path class="cls-1" d="M202,660.12l.11.42v.05Z"/><path class="cls-1" d="M202.18,660.59l.15.45A4,4,0,0,0,202.18,660.59Z"/><path class="cls-1" d="M202.64,662l-.31-1A8.25,8.25,0,0,0,202.64,662Z"/><path class="cls-1" d="M198.84,648.72l-.08-.12A.2.2,0,0,0,198.84,648.72Z"/><path class="cls-1" d="M197.84,645.23c.23.84.49,2.1.85,3.24l.07.1C198.53,648.08,198.15,646,197.84,645.23Z"/><path class="cls-1" d="M194.34,630.73l.78,2.91c-.09-.51-.21-1.19.18.13C194.42,630.08,195.4,634.53,194.34,630.73Z"/><path class="cls-1" d="M191.85,621.73c.47,1.56.07,0,.12,0C191.64,620.79,191.56,620.55,191.85,621.73Z"/><path class="cls-1" d="M173.3,556.75l.17.14C173.11,555.7,173.42,556.89,173.3,556.75Z"/><polygon class="cls-1" points="169.11 544.43 169.37 545.61 169.64 546.15 169.11 544.43"/><polygon class="cls-1" points="167.91 536.96 168.08 537.48 167.46 535.49 167.91 536.96"/><path class="cls-1" d="M136.72,427.85l-.05.38C136.93,429,137.15,429.19,136.72,427.85Z"/><path class="cls-1" d="M123.12,380.76a14.72,14.72,0,0,0-.71-2.66C122.7,379.16,122.94,380.22,123.12,380.76Z"/><polygon class="cls-1" points="83.05 239.44 83.37 240.38 82.81 238.6 83.05 239.44"/><g class="cls-2"><path class="cls-1" d="M219.66,668.54c.19.31.32.09,0-.8l-.54-.58Z"/><path class="cls-1" d="M218.24,662.4c-.51-1-1.19-2.18-1.26-1.46.66,1,.62,1.27,1.36,2.33.34.9.42,1.6.25,1.46a13.46,13.46,0,0,0,.76,1.86,13.68,13.68,0,0,0-1.35-4.22C218,662,218.16,662.33,218.24,662.4Z"/><path class="cls-1" d="M189.42,574.33l.15.57A5.5,5.5,0,0,0,189.42,574.33Z"/><path class="cls-1" d="M171.43,519.79a1.51,1.51,0,0,0,.27.59C171.55,520,171.43,519.68,171.43,519.79Z"/><path class="cls-1" d="M168.68,510.41l.16.56A1.88,1.88,0,0,0,168.68,510.41Z"/><path class="cls-1" d="M189.42,574.33l-.38-1.45A4.72,4.72,0,0,0,189.42,574.33Z"/><path class="cls-1" d="M213.42,650.41a8.21,8.21,0,0,0,.35.77l-.28-.72Z"/><path class="cls-1" d="M197.69,598.31l.15.45c.08.12.16.23.25.34Z"/><path class="cls-1" d="M203.88,616.75a1.11,1.11,0,0,0-.62-.66,2.85,2.85,0,0,1,.49.88C203.81,617,203.85,616.9,203.88,616.75Z"/><path class="cls-1" d="M213.15,646.08l.21.51C213.3,646.46,213.22,646.23,213.15,646.08Z"/><path class="cls-1" d="M193.35,585.1a.28.28,0,0,0,0-.18Z"/><path class="cls-1" d="M19.39,69.63h.05S19.34,69.5,19.39,69.63Z"/><path class="cls-1" d="M13.62,48l.11.29c.06,0,.12,0,.17,0Z"/><path class="cls-1" d="M163.36,493.32v.07C163.56,493.84,163.47,493.58,163.36,493.32Z"/><path class="cls-1" d="M111,337c.35,1.81-1.27-2.83-.66-.12C110.41,336.6,111.62,339.22,111,337Z"/><path class="cls-1" d="M213.3,649.92l-.26-.72C213.15,649.51,213.23,649.74,213.3,649.92Z"/><path class="cls-1" d="M110.38,336.87h0l.07.29C110.42,337,110.41,337,110.38,336.87Z"/><path class="cls-1" d="M150.11,454.1a2.94,2.94,0,0,0,0,.42A1,1,0,0,0,150.11,454.1Z"/><path class="cls-1" d="M159.47,483.41l-.21-.73C159.33,483,159.4,483.21,159.47,483.41Z"/><path class="cls-1" d="M144.67,439a6,6,0,0,0-.34-1.07v.17A3.08,3.08,0,0,1,144.67,439Z"/><path class="cls-1" d="M139.4,423.19v.3a2.58,2.58,0,0,0,.18.5Z"/><path class="cls-1" d="M35.52,117.63a3.3,3.3,0,0,1,0-.77C35.41,117.14,34.57,114.83,35.52,117.63Z"/><path class="cls-1" d="M213.57,650.37a1,1,0,0,1-.27-.45c.06.18.12.35.19.52S213.59,650.49,213.57,650.37Z"/><path class="cls-1" d="M142.3,438.73l-.8-2.52C141.71,437,142,437.83,142.3,438.73Z"/><path class="cls-1" d="M73.34,231l-.22-.56A3,3,0,0,0,73.34,231Z"/><path class="cls-1" d="M139,428.77a14.33,14.33,0,0,0-.28-1.46,2,2,0,0,0-.17-.27Z"/><path class="cls-1" d="M29.37,100.43c.79,2.4.72,1.06,1.1,1.54,1.05,2.83.17,1.37.31,2.36.69,1.77,1.48,3.09,1.91,4.42,0,.11,0,.37-.14.08.91,1.83,1.88,5.59,3,7.72a.76.76,0,0,1,0,.3c.06-.38.22-.47.38-.42a8.15,8.15,0,0,1,.79,2.4,3.08,3.08,0,0,0-.5-1l.47,1.1c0,1.07-.63-1.51-.88-1.46.84,2.18,2,4.67,2.44,6.37-.21.41-1.42-3.91-1-1.62l-.74-2.62c.14,2.08-.49-1.58-.44.35,1,3.43,1.45,3.79,2.49,7.21.44.73.18-.3.62.44,2,4.78.44,4,2.07,7.44A8.42,8.42,0,0,1,43,138.8l-.66-.81c1.07,3.32,1.17,1.8,2.07,5.31-.35-.59-1-2.58-.87-2.07.46,2.3.74,1.55,1.32,3.27l-.21.42c1.22,3.52,2.76,7.36,4.12,11.24-.17-.19-.5-.84-.3.09,1.81,4.9,3.46,10.52,4.85,15.29l.89,1.77c.14.42.13.81-.07.36.5,1.87.21.06.62.93.37,1.05.3,1.42,0,.77a109.06,109.06,0,0,1,4.46,12.71l-.31-.66c.78,2.7,1.59,2.91,2.16,5.45l-.21-.47c1.81,5.83,4.21,12.21,5.26,16.75.69.77,1.74,5.79,2.43,6.06.83,3.37.41,2.44,1.77,7.15.39,1.25,1,1.8,1.56,3.33l-.29.09,1,2V229l.56,1.46c-.18-.58-.28-1.25-.16-1.18a23.16,23.16,0,0,1,1.49,5.64l2,5.3a9.65,9.65,0,0,1-.82-1.68c1.26,2.8-.14.57,1,3.14,0-.36.25.16.33.21a63.39,63.39,0,0,0,2,6.49l-.35-.38c1.27,4,2.89,8.34,4.37,12.8-.44-1.61,0-1.31.51,0l-.14.57c.48.81-.34-1.38.48.31.52,1.67,0,1.18-.41.25l.79,2c-.06.13-.27-.33-.43-.44.48.8.85,3.56,1.59,4.69l-.06.13c1.48,4.45,2.27,6.46,3.49,10.08.3,0,.71,1.46,1.29,2.49.8,2.68,1.57,5.68,2.67,8.89.89,2.23.45.62,1,1.61-.19.21.9,3.41.17,1.78,1.32,3.85,1.69,4.91,3.51,9.75-.07-.54-.23-1.15,0-.86a3.79,3.79,0,0,1,.41,1.93l-.11-.23c2.2,5.41,3.49,12.76,5.46,17l-.11-.24L104.9,325c.65,2.09-.6-1.21-.25.36,2,4.79,2.51,7.71,4.13,11.65.3,3.24,3.72,11,4.65,15.29l.09-.28a7.15,7.15,0,0,1,.57,2.14c.09-.13-.24-1.2.08-.55,3.27,9.15,6.06,19,9,28.45,1.1,3.45,1.54,1.8,2.58,6.21L125,387.1c2.71,6.88,4.73,14.22,7.32,21a4.15,4.15,0,0,1-.53-1.05,21.75,21.75,0,0,0,2,5.3c.33,1.06-.09.28,0,.95.34,1.45,1.5,3.57,1.53,4.37,0,.14-.21-.39-.32-.65.43.92,1.43,4.37,1.4,3.44.72,2.57,1.75,4.85,2.27,6.92.74,1.28,1.31,4.37,1.87,4.74-.5-.1,1.14,4.54,1.89,6.12-.32-.52.33,1.46-.07.83.62,1.84,1.27,3.51,1.38,3.15.61,3.49,2.7,6.75,2.66,8.78,2.06,5.43,3.91,10.47,5.65,15.37-.49-.1-1.85-5.43-2.24-5.14,1.73,4.64,3,7.28,4.45,11.92.34,1.2-.42-.65-.63-1,1.74,4.63,3,9,4.59,13.11a4.3,4.3,0,0,1-.41-.87c.28.82.57,1.92.73,1.8l-.32-.8c-.14-1.35,1.69,3.15,1.89,3.26-1-1.28,1.23,4.13-.23,2.06.22.53.54,1.18.63,1,.23.81.23,1.07-.19.29,1.09,2.91,1,1.83,1.83,4.49-.1,0-.31-.53-.52-.78a27,27,0,0,1,1.94,4.89c-.1-.13-.09.15-.31-.52,1.31,3.85,2.69,6.48,3.91,10.74-.83-1.17.35,1.45.06,1.75l.86,2.25-.12-.94c.65,2,1.5,3.7,2,5.44l-.65-1.46,1.32,3.72-.57-2.13c.86,2,.39-.3,1.17,2.37-.22-.54.66,2,.79,3.07h0a19.4,19.4,0,0,1,1.3,3.44c0,.4-.5-.23-.5,0,.63.92,1.64,4.65,2.38,5.83-.22-.39-.42-.39-.41-.24l.52.77c.23.93.23,1.08,0,1,.88,2.79.17-1,1.07,2.37a6.33,6.33,0,0,1-.32-.65c1,3.32,2.29,6.35,3.18,9.42-.07,1-1-2.64-.94-1.56,1.52,4.37,3.46,9,4.79,13.25l-.23-.8c.71.5.8,3.21,1.76,5.31-.21-.52-.52-.64-.41-.51.88,2.92,2.1,5.92,3.73,10.29l-.31-.52c.45,1.73,1.43,4.51,2,6.38.31.52.64,1.59.62.91,1.15,5.82,4,10.8,5.09,16-.2-.61-.6-1.42-.44-.94l1.56,4.28a4,4,0,0,0-.18-1.52,17.8,17.8,0,0,1,1.18,2.79c-.8-1.92-.36.08-.2.94,0-.15.19.11.24,0,.35,2.33.58.3,1.33,3.42l-.17-.14c.44,1.14.95,2.19,1.33,3.42-.09.56-.53-1.2-.77-1.25.6,1.74,1.64,3.35,1.9,5-.31-.73-.67-1.8-1-2.52a17,17,0,0,0,.79,3.24v-.13l.85,3-.17-.72c1.41,2.06,1.6,4.41,3,7.28-1.37-2.78-.4-.43-.77-.6.17.77.46,1.92.26,1.61.7,1.35.59,2.35,1.59,4.25-.07.11.49,1.45.14,1.21.68,1.79,0-.46.2-.32,1.25,2.72,1.78,6.61,3.56,10.53,1.33,3.41,1.86,4,3.09,7.17.21,1.11-.64-.82-.64-.82a33.92,33.92,0,0,0,1.56,4.69c-.19-.32-.15,0-.09.56.46,1.31.64.82,1.08,2.58a8.06,8.06,0,0,1-.82-1.24c.6,1.53,1.29,3,1.91,4.63,0,.45-.57-.93-.87-1.46a36.73,36.73,0,0,0,2.16,5.17l-.29-1.17c.23.66-.11.38-.32-.1-.73-1.52-.66-2.25-.59-2.35l.44,1.13c.16-1.27-1.62-4.59-2.36-6.89l.73.88-1.13-2.3c-.06-.52.05-.91.49.22-.35-1.69-.63-1.46-.88-2.91,0-.16,0-.1.09.05l-.66-1.6c.19.3.2-.32.47.69-.73-2.91-1.86-4.63-1.92-5.77l.11.24c-1.48-4-.43-.34-1.78-3.29v-2.19l-.43-.34c-.12-.41-.37-1.24-.21-1.11-.71-1.51,0,.29-.53-.58-.39-2-2-5.48-1.64-6-.46-.68.47,1.94-.4-.16.31-.73-.91-2.46-1.28-4.32.45.52.88,2.26.51.4-.81-1-1.09-3.57-1.69-5.1-.37,0-1.26-3.32-2.24-5.88.18.14-1.42-4.9-2.09-7.32l.08.06c-.51-.4-1.27-2.91-1.95-4.68.24,0,.43.34.85,1.3l-.56-1.69a10.45,10.45,0,0,1-.89-2l.4.39c-.76-2.26-1.82-4.49-2.61-7.43-.31-.12.07,2.43-1.12-.61.1-.14.29-.29.61.5a9.87,9.87,0,0,1-.54-1.46l.64,1.19c-.35-1.34-.42-.66-.76-1.72.2,0-.12-.81.08-.68a11.93,11.93,0,0,0,.44,1.32,18.34,18.34,0,0,1-.74-3.16c-.08.13-.26,0-.57-.82-.77-2.26,0-.82-.37-2.15-.32-.52-.66-2-1-2a2.35,2.35,0,0,1-.13-1.08c-.52-1.14-1.86-5.45-1.72-4.08l.08.31a.52.52,0,0,0-.08-.19h0c-1.56-3.78-2.49-8-3.88-11.76h.1c-.86-2.25-1.75-5-2.49-6.62-.22-.67-.35-1.61-.14-1.35a30,30,0,0,1-1.5-4.43c.75,1.72-.06-.62.72,1.77a28.77,28.77,0,0,0-1.76-5.18c.52.78-.25-1.75-.68-2.81l.35,1.61c-.44-1.19-.77-2.25-1.1-3.32l.51.52c-1.14-4.68-3.44-8.2-3.95-11.82-.63-1.18.68,2.53.05,1.46-.67-2.13-.94-4.42-1.16-5.1-.79-2.91-1.37-2.63-2.26-5.69,0,.41-.18.83-1-1.46-.67-2.13-.39-2.69.15-1.36.18.5.23.72.18.72.27.68.62,1.57.47.73l-.21-.25c-.23-1.08-1.22-4-.8-3.35-.65-1.58-.42-.64-.08.55-.74-2.74-1.42-4.25-2.24-7.07.09.46.09.89-.06.44-1.22-4.13-.82-1.77-1.8-4.54-.35-1.61.61.49-.47-2.28-.45-1.73.18-.42.51.24a47.31,47.31,0,0,1-1.89-6.26l.54,1.33c-.33-.79-.54-1.46-.77-2.13v.81a5,5,0,0,1-.35-1.45c-.42-.79-.17.69-.92-.89-.23-1.07-1.19-3.19-1-3.61,1,3.34.19-.41,1.17,2.38-.2-.54-.42-1.2-.66-2,0-.13.11.09.2.31-.79-3.22-.84-1.4-1.92-4.68.31.38.07-.82-.15-1.35.44,1.33-.07.69-.61-.51a28.89,28.89,0,0,0-1.21-3.37l.35,1.27a16.23,16.23,0,0,1-1.18-2.92c.09-.14.53,1.32.42.79-.85-1.58-.92-3.74-1.88-6-.23-1.07.29-.15.06-1.09-1.07-2.51-.68-2.8-1.76-5.45,0,.82.13.94-.72-.9l1.63,4.37L155,470.68c.44,1.33,1.08,2.78,1.3,3.58-.63-1.31-.53-1.18-.51-.51-.26-1.88-1.4-3.57-1.87-5.71h.6c-.8-3.21-2.17-5.56-3.39-9.69l.34,1.33a33.22,33.22,0,0,1-1.41-3.83c.23.09,0-.73,0-1.34-.11.09-1-3-1.49-3.31l-.36-1.88c-1-3.33-1.8-3.64-2.8-6.87.53.92.18-.55,1,1.55a7.07,7.07,0,0,0-.77-2c-.09-.64-1.24-2.92-1.39-3.91a6,6,0,0,1-.86-1.74c0-.14.1,0,.1,0s-.76-1.85-.62-.73c-.49-3.38-3.09-9.14-3.53-12.08-.84-2.31-1.83-5.1-2.55-7.2.11.13.1,0,.22.39-.79-2.91-1.15-1.68-2.05-5-.26-1.74.75,1.73.52.66.47-.58-1.42-4-1.79-6.26l.22.53c-.36-1.74-1.63-4.11-2.51-6.9,0,0,.1.13.1,0-.95-1.84-2.26-5.42-3.24-8.08.53.79.54,1.2.62.64-.43-1.19-.29.43-1.15-1.95-.13-.81-.58-2.55-.39-2.82l.76,2.25c0-1.22-1-2.92-1.32-4.12l.21.13c-1.21-3.45-1.6-3.43-2.81-7.15v.4c-1-2-.35-1.74-1.31-3.71l.18-.69c-.54-1.31-1.94-4.62-2.81-7,.74,1.31,1.82,4.09,2.57,5.83a37.77,37.77,0,0,0-2-5.17,13,13,0,0,1,.65,1.73,40.94,40.94,0,0,1-2.58-6.34c.9.34-2.11-6.93-2.18-9-1.83-4.63-3-9.31-4.83-14.76.06,2-.55-1.58-1-1.14a12.8,12.8,0,0,1-.62-1.87l-.92-3.91c-.14-.95.53,1.18.62,1-.88-2.79-.13-1.21-.59-3.08-.09.41-.63-.91-1.07-2.51l.47,2.27c-1.61-3.83-.62-3.44-2.24-7.28l.6,1.2c-.78-2-2.47-7.41-3.6-9.3,0-.37,0-.86.29,0-1.53-4.81-4.07-10.6-5-14.39l.26.35a14.32,14.32,0,0,1-1-2.66c.08,0,.27.33.14-.08A29.36,29.36,0,0,1,96.94,295l.5,1c-1.37-4.72-2.79-7.12-4.2-11,.43-.07-.66-3.78-1.21-5.63l.09.05c-1.77-5.46-3.45-9.21-5.3-14.23-.58-3.22-3.35-10.66-4.76-15.75.17.79-.38-.06-.72-1-.31-1.2-1.39-3.22-.93-3.1l.13.42c.09-1-.83-3.37-1.45-5.27l-.61-.22c-.91-5.1-4.62-13-4.85-15.79-.53-1.18-1-2.67-1.54-3.83h.29c-1-3.34-1.55-5-3-9.09l.47.8c-.75-2.31-1.77-2.78-2.49-4.91l.19-.73c-1.35-4-2.35-8.19-4-12.12.08.06.24.15.47.81-.62-1.9-2.17-7.41-2.51-6.61.36-.12-1.35-4.18-2.24-6.33l.39.29a23.16,23.16,0,0,1-2-4.37c-.17-.62,0-.58.24.25-.53-2.06-.78-1.54-1.46-4l.48.89a11.13,11.13,0,0,0-1.3-3,15.52,15.52,0,0,1-1.11-4.33,8.2,8.2,0,0,1-1.16-2.61c0-.18.24.26.35.48-1-3.53-2-5.1-2.58-7.58a.56.56,0,0,0,0-.44c.92,2.77,1.65,5,1.56,4.8.25,0-.45-2.29.49-.56a57.07,57.07,0,0,1-2.84-7,1.6,1.6,0,0,1,0-.31l.11.23a12.19,12.19,0,0,0-.5-1.38c-.19-.72-.31-1.15-.53-1.82a21,21,0,0,0-1.11-3.71c-.24.14-.68-1.33-.45.08a3.44,3.44,0,0,1,.36.95c.06.16.12.31.19.47l0-.07.94,2.77a11.5,11.5,0,0,1-1.12-3c-.36-.54-.75-1.14-1-1.46-.13-1.6-.9-4.58-.8-5-1.3-3.39-2.78-8-4-10.08a3.07,3.07,0,0,1-.27-1.51c.24.54.45,1.21.63,1.5-.78-1.91-2-5.73-2.48-6.14-.65-2.47.79,1.32-.39-2l.26.44c-1.63-6.71-4.49-10.59-6.2-18a3,3,0,0,1,.16.88c-2.46-8.4-6-17.16-8.27-25.49a17.44,17.44,0,0,0-1.64-4l.12-.56-1.15-2.38c-1.41-3.43-1.28-6.14-3.21-10.44v.6c-.49-1.58-1.78-5-1.47-4.75A2.53,2.53,0,0,1,18,59.87l.14-.08L16.58,56c-.88-3,.77.37-.66-4-.6-1.61-2-4.55-1.89-3.93a4.43,4.43,0,0,1,.33,1.78l-.58-1.46c-.54-.19-1.39-1.25-.49,2.46l1.13,2.5.05.86L13.75,52a8.68,8.68,0,0,0,1.05,2.83A3,3,0,0,0,14.91,56l1.27,2.42c-.08.34-.73-1-.27.65.59,1.13,0-1.2.8.72a4.84,4.84,0,0,0,.57,2.33c-.05.22-.22-.07-.46-.63a40.34,40.34,0,0,0,1.64,4c.17,1.32,1.5,4.29,1,4.24A25.54,25.54,0,0,1,21,73c-1.23-2.05,1.43,4.36.69,3.91,1,1.5,2.11,5.68,3.3,8.43a2.65,2.65,0,0,1-.33-.73c.49,1.58.5,2.06.75,3.09.45.14,1.36,2.58,2,3.86.28,2-.84-1.09-1-.42.28-.16,1.43,3.29,1.47,2.6a5.77,5.77,0,0,1,.25,2.1c.56.18.54,1.36,1.24,2.54.48,2.19-.26.63.66,2.92C30.23,102.49,29.37,100.43,29.37,100.43Zm19.44,55.73h0c-.16-.48-.3-.89-.4-1.15.08.24.19.57.4,1.15Zm1.57,4.69c-.18-.57-.42-1.28-.67-2,0-.18.2,0,.35.46a6.72,6.72,0,0,0,.32,1.58ZM49,150.59a2.42,2.42,0,0,1,.3,1.1c-.13-.35-.27-.73-.47-1.29l-.06-.08A1,1,0,0,1,49,150.59Z"/><path class="cls-1" d="M48.16,149.3c0-.11-.07-.16-.12-.3a2.36,2.36,0,0,0,.08.45c0,.15.12.17.18.25A3.73,3.73,0,0,1,48.16,149.3Z"/><path class="cls-1" d="M189.6,575v-.1a.81.81,0,0,1,0,.22Z"/><polygon class="cls-1" points="71.46 225.78 71.53 225.76 71.33 225.36 71.46 225.78"/><path class="cls-1" d="M197.28,601a1,1,0,0,0,0,.35A2,2,0,0,0,197.28,601Z"/><path class="cls-1" d="M200.94,612.21l.43,1.59C201.2,613.11,201.06,612.61,200.94,612.21Z"/><path class="cls-1" d="M203.67,620.82a.5.5,0,0,0,.17.15h0Z"/><path class="cls-1" d="M157.84,484.29c0-.11-.09-.22-.13-.33C157.4,483.23,157.6,483.75,157.84,484.29Z"/><path class="cls-1" d="M172,524.85c-.2-.42-.39-.84-.57-1.28C171.67,524.29,171.85,524.86,172,524.85Z"/><path class="cls-1" d="M142.38,439h0a1,1,0,0,0-.09-.28Z"/><path class="cls-1" d="M170.83,521.67a15,15,0,0,0,.62,1.9C171.27,523,171.07,522.26,170.83,521.67Z"/><path class="cls-1" d="M216,658.07l.12.41.06,0Z"/><path class="cls-1" d="M216.13,658.53l.19.45A1.27,1.27,0,0,0,216.13,658.53Z"/><path class="cls-1" d="M216.71,659.93l-.39-.95A4.53,4.53,0,0,0,216.71,659.93Z"/><path class="cls-1" d="M212.28,646.69l-.14-.12C212.19,646.63,212.23,646.69,212.28,646.69Z"/><path class="cls-1" d="M211.1,643.23c.26.83.48,2.1.93,3.24l.11.09C211.82,646.05,211.53,644,211.1,643.23Z"/><path class="cls-1" d="M207.52,628.59l.89,2.91c-.06-.52-.14-1.22.32.09C207.83,627.89,208.74,632.39,207.52,628.59Z"/><path class="cls-1" d="M204.68,619.59c.57,1.54.15-.05.24,0C204.49,618.64,204.39,618.41,204.68,619.59Z"/><path class="cls-1" d="M183.07,554.71l.3.11C182.93,553.63,183.27,554.83,183.07,554.71Z"/><polygon class="cls-1" points="177.65 542.54 177.88 543.73 178.29 544.24 177.65 542.54"/><polygon class="cls-1" points="176.98 534.9 177.19 535.41 176.43 533.43 176.98 534.9"/><path class="cls-1" d="M140.58,426l-.19.41C140.72,427.18,141.12,427.28,140.58,426Z"/><path class="cls-1" d="M124.59,379a8,8,0,0,0-.78-2.66C124.14,377.37,124.37,378.44,124.59,379Z"/><polygon class="cls-1" points="78.08 237.82 78.49 238.75 77.81 236.98 78.08 237.82"/></g></g></g></g></g></g></svg>