<svg xmlns="http://www.w3.org/2000/svg" viewBox="0 0 737.86 158.81"><defs><style>.cls-1{fill:#4d4d4d;}</style></defs><g id="Layer_2" data-name="Layer 2"><g id="sketch"><g id="sketch-highlight-sentence"><path class="cls-1" d="M276.91,73c.13.28.3.08.12-.73l-.43-.53Z" transform="translate(-0.01)"/><path class="cls-1" d="M276.54,67.37c-.33-.93-.82-2-1-1.31.49.89.4,1.14,1,2.1.18.81.15,1.45,0,1.33.14.28.16,1.28.44,1.69a10.49,10.49,0,0,0-.63-3.83C276.33,67,276.46,67.31,276.54,67.37Z" transform="translate(-0.01)"/><path class="cls-1" d="M246.92,44.87l.18-.49A4.37,4.37,0,0,0,246.92,44.87Z" transform="translate(-0.01)"/><path class="cls-1" d="M226.83,56.94c.1.36.17.51.21.52C226.93,57.12,226.83,56.85,226.83,56.94Z" transform="translate(-0.01)"/><path class="cls-1" d="M225.16,48.52c0,.18.06.33.09.49A1.53,1.53,0,0,0,225.16,48.52Z" transform="translate(-0.01)"/><path class="cls-1" d="M246.92,44.87l-.47,1.27C246.53,46.26,246.72,45.5,246.92,44.87Z" transform="translate(-0.01)"/><path class="cls-1" d="M273.63,56.53a5.23,5.23,0,0,0,.23.7c-.06-.22-.11-.44-.17-.66Z" transform="translate(-0.01)"/><path class="cls-1" d="M254,23.72l.21-.36a2.5,2.5,0,0,0,.06-.38C254.18,23.23,254.08,23.47,254,23.72Z" transform="translate(-0.01)"/><path class="cls-1" d="M266.77,26.44c-.16-.36-.47-.36-.65-.44a2,2,0,0,1,.54.69S266.75,26.6,266.77,26.44Z" transform="translate(-0.01)"/><path class="cls-1" d="M274,52.57l.14.46Z" transform="translate(-0.01)"/><path class="cls-1" d="M249.43,35.17a.29.29,0,0,0-.14.11S249.37,35.25,249.43,35.17Z" transform="translate(-0.01)"/><path class="cls-1" d="M13.08,56.13s0,0,0,0S13,56.23,13.08,56.13Z" transform="translate(-0.01)"/><path class="cls-1" d="M.35,71.26.5,71a.39.39,0,0,0-.1-.14Z" transform="translate(-0.01)"/><path class="cls-1" d="M221.76,33.11v.07C221.91,33.57,221.84,33.34,221.76,33.11Z" transform="translate(-0.01)"/><path class="cls-1" d="M140.12,54.54c.29,1.62-1.15-2.41-.63,0C139.52,54.29,140.62,56.51,140.12,54.54Z" transform="translate(-0.01)"/><path class="cls-1" d="M273.58,56.09l-.15-.68A5.83,5.83,0,0,0,273.58,56.09Z" transform="translate(-0.01)"/><path class="cls-1" d="M139.49,54.54h0l0,.25Z" transform="translate(-0.01)"/><path class="cls-1" d="M198,16.88a1.5,1.5,0,0,0,.34-.21S198.19,16.7,198,16.88Z" transform="translate(-0.01)"/><path class="cls-1" d="M218.39,24.38l-.21-.64A6,6,0,0,0,218.39,24.38Z" transform="translate(-0.01)"/><path class="cls-1" d="M190.47,29a5.2,5.2,0,0,0-.49.85l.1-.12A2.51,2.51,0,0,1,190.47,29Z" transform="translate(-0.01)"/><path class="cls-1" d="M183.75,42l.18-.22.19-.42Z" transform="translate(-0.01)"/><path class="cls-1" d="M40.73,21.65a2.68,2.68,0,0,1-.64.32C40.39,21.94,39,23.56,40.73,21.65Z" transform="translate(-0.01)"/><path class="cls-1" d="M273.78,56.49a.77.77,0,0,1-.2-.4c0,.17.07.32.11.48S273.78,56.6,273.78,56.49Z" transform="translate(-0.01)"/><path class="cls-1" d="M192.13,30.55l-1.13,2C191.33,32,191.73,31.26,192.13,30.55Z" transform="translate(-0.01)"/><path class="cls-1" d="M82,59.32c-.13.14-.24.28-.38.41A2,2,0,0,0,82,59.32Z" transform="translate(-0.01)"/><path class="cls-1" d="M187.88,38.65a9,9,0,0,0-.76,1.08,1.57,1.57,0,0,0-.05.27Z" transform="translate(-0.01)"/><path class="cls-1" d="M40.09,22Z" transform="translate(-0.01)"/><path class="cls-1" d="M30.69,34c1.41-1.7.38-1,.51-1.53,1.6-2.09,1-.76,1.71-1.32,1-1.32,1.52-2.51,2.34-3.42.1,0,.28-.2.15.06.9-1.51,3.36-3.89,4.44-5.63a.83.83,0,0,1,.25-.14c-.36.12-.53,0-.59-.11.66-.73,1.07-1.51,1.5-1.62a2.12,2.12,0,0,0-.52.8l.63-.83c.88-.45-.87,1.12-.68,1.3A48.19,48.19,0,0,1,44.24,17c.46,0-2.39,2.7-.76,1.41L41.75,20c1.63-1-1,1,.54.2,2.22-2.22,2.28-2.68,4.54-4.83.37-.63-.36,0,0-.66a9,9,0,0,1,2.91-2.48A6.28,6.28,0,0,0,52,10.41,5.65,5.65,0,0,1,54.4,7.84c-.12.26-.25.52-.37.79,2.37-1.83,1-1.54,3.69-3.16-.38.41-1.83,1.49-1.44,1.25,1.81-1,1-1,2.33-1.9l.45.12A24.71,24.71,0,0,1,63.3,2.63a6.38,6.38,0,0,1,4.58-.36c-.2,0-.67,0-.1.3a4.21,4.21,0,0,1,2.13,1.78,10.38,10.38,0,0,1,1.25,3A29.53,29.53,0,0,1,71.92,14l.37,1.63c0,.38-.11.71-.18.3-.07,1.68.19.08.32.89,0,1-.15,1.27-.24.66A55.11,55.11,0,0,1,72,29.18l0-.62c-.27,2.45.43,2.82,0,5.09l0-.45c-.49,5.35-.63,11.29-1.07,15.43a12.54,12.54,0,0,1,.19,3c0,1.3.15,2.56.46,2.7a28,28,0,0,0,.17,2.92A8,8,0,0,0,72,58.7a6.51,6.51,0,0,0,1.38,2.58c1.17,1.09,2.35,1.16,4,.77l.12.29a6.63,6.63,0,0,0,1.95-1.23c.39-.1.76-.23,1.14-.36.36-.33.71-.67,1-1-.42.38-1,.71-1,.58,1.63-1.51,3.78-3.69,3.94-3.64,1-1.37,1.9-2.77,2.79-4.18A6,6,0,0,1,86.67,54c1.3-2.36.56-.21,1.72-2.37-.24.22,0-.25-.07-.33a38.51,38.51,0,0,0,3.44-4.92l0,.44c2.07-3,4.16-6.5,6.53-9.82-.92,1.14-1,.65-.37-.35l.54-.2c.29-.75-.82,1-.1-.49.93-1.21.9-.61.48.16l1-1.56c.14,0-.08.35,0,.51.28-.74,2.17-2.34,2.58-3.39l.14,0c1.28-1.57,2.22-2.68,3.14-3.68a32.5,32.5,0,0,1,3-3c-.13-.25.87-1,1.53-1.74a14.42,14.42,0,0,1,7-2.45c1.84-.1.54-.23,1.4-.35a3.6,3.6,0,0,0,1.22.5c.48.16.74.36.08.2a10.46,10.46,0,0,1,3.28,1.7,10.23,10.23,0,0,1,1.45,1.24,18.64,18.64,0,0,1,1.81,2c-.2-.43-.49-.88-.26-.72.55.58,1,1.53.8,1.5l-.13-.15a24.77,24.77,0,0,1,3.62,7.15,67.83,67.83,0,0,0,2.62,6.89l-.1-.2c.56,1.27,1.08,2.56,1.61,3.84.56,1.83-.54-1-.25.36,1.82,4.13,2.14,6.78,3.59,10.22.17,3,3.39,9.66,4.78,13.4l.06-.29c.6.84.44,1.16.77,1.85.07-.16-.39-1.06,0-.54a43.76,43.76,0,0,0,3.63,5.6,16.45,16.45,0,0,0,5.41,4.54c.27.13.54.29.83.4l.89.28.9.28,1,.15a9.48,9.48,0,0,0,3.83-.44A16.46,16.46,0,0,0,166,76.29a5.47,5.47,0,0,0,1.57-2.24,8.77,8.77,0,0,1,2-2.65c-.14.38-.29.75-.45,1.13a119.2,119.2,0,0,0,9.92-16.93,2.86,2.86,0,0,1-.31,1,15.45,15.45,0,0,0,2.1-4.48c.46-.86.26-.12.62-.61.73-1.13,1.23-3.13,1.76-3.66.09-.09-.1.37-.19.6.28-.83,1.83-3.61,1.21-3,1.17-2.05,1.89-4.09,2.88-5.69.27-1.24,2-3.53,1.75-4.07.32.35,2.22-3.48,2.75-4.88-.12.5.75-1.06.63-.46.81-1.48,1.51-2.85,1.17-2.71,2-2.41,2.9-5.55,4.49-6.55a27.36,27.36,0,0,1,4.45-5.42c1.64-1.47,3.61-2.5,5.56-2.2-.11.19-1.13.06-2.12.34s-1.88.87-1.69,1a5.68,5.68,0,0,1,4.37-1.06,6.88,6.88,0,0,1,4,2.83c.59.86-.52-.36-.81-.53A18.28,18.28,0,0,1,214.89,21c.86,1.77,1.56,3.57,2.31,5.31a3.44,3.44,0,0,1-.38-.72c.27.69.51,1.65.68,1.51l-.29-.67c-.11-1.24,1.55,2.61,1.72,2.71-.93-1.05.95,3.65-.35,1.92.18.46.45,1,.55.88.16.72.15,1-.21.29.84,2.56.79,1.58,1.41,3.94-.09,0-.26-.45-.43-.66a18.86,18.86,0,0,1,1.41,4.33c-.09-.11-.11.14-.25-.45.87,3.43,1.9,5.77,2.61,9.61-.68-1,.16,1.33-.15,1.61l.59,2,0-.87c.42,1.8,1.07,3.31,1.34,4.88L225,55.32l.93,3.33-.36-1.93c.66,1.76.4-.31.93,2.09-.17-.47.48,1.77.54,2.76h0a17.58,17.58,0,0,1,1.12,3c0,.38-.48-.13-.48.11a16.79,16.79,0,0,1,1.13,2.43,9.19,9.19,0,0,0,1.43,2.49c-.26-.3-.44-.23-.41-.1.2.19.39.38.6.55.38.8.47.91.24.89.81,1.12.79.85.76.67s-.11-.24,1.06.9a3.47,3.47,0,0,1-.58-.36,3.82,3.82,0,0,0,2.23,1.19,3.48,3.48,0,0,0,2.42-.61,11.79,11.79,0,0,0,2.92-3.35c.37-.28.09.29-.25.81s-.71,1-.28.72a24.89,24.89,0,0,0,2.77-5.74c.72-2,1.33-4,2-5.81l-.27.68c-.33-.68,1.17-2.7,1.5-4.68-.11.48.09.7.08.55.86-2.55,1.43-5.3,2.37-9.26v.52c.54-1.49,1.19-4,1.73-5.6,0-.53.3-1.46,0-.94,2.21-4.8,2.47-9.76,4.93-13.77-.22.5-.4,1.25-.23.85a34.54,34.54,0,0,1,1.58-3.57c-.35.16-.38.37-.91,1a8,8,0,0,1,1.07-2.38c-.81,1.6.3.16.85-.34-.13.06,0-.2-.14-.19.78-.67.76-.77.78-1a.7.7,0,0,1,.22-.44,2.55,2.55,0,0,1,1.13-.75.87.87,0,0,0-.07.17,3.18,3.18,0,0,1,1.37-.49,2.61,2.61,0,0,1,1.51.37c.13.25-.1.09-.42,0-.15,0-.33-.09-.46-.11s-.25,0-.27.07a4.8,4.8,0,0,1,3.5,2.42,9.41,9.41,0,0,0-1.64-1.58,6.63,6.63,0,0,1,.54.75c.15.2.26.36.36.52.21.31.43.55.72,1l-.06-.09A11.66,11.66,0,0,1,264,24.3c.21.39.41.79.58,1.19l-.24-.64c1.57,1.42,1.9,3.58,3.26,5.94-1.34-2.31-.39-.32-.74-.41.16.68.43,1.69.25,1.44.65,1.11.51,2.06,1.39,3.66-.07.1.39,1.3.07,1.1.56,1.56.05-.42.21-.33,1.07,2.36,1.28,5.88,2.6,9.34.92,3,1.37,3.55,2.18,6.4.06,1-.53-.73-.53-.73A26.51,26.51,0,0,0,274,55.5c-.15-.28-.15,0-.17.52.28,1.18.52.72.7,2.32a5.07,5.07,0,0,1-.63-1.11c.38,1.38.83,2.74,1.2,4.18-.09.41-.43-.83-.63-1.32a27.64,27.64,0,0,0,1.32,4.66l-.1-1.07c.12.6-.17.35-.3-.08-.48-1.36-.3-2-.22-2.14l.26,1c.37-1.18-.9-4.15-1.3-6.24l.59.79L273.9,55c0-.48.17-.84.45.18-.11-1.54-.43-1.29-.48-2.62,0-.15,0-.09.08,0l-.44-1.43c.15.26.23-.31.37.6-.34-2.67-1.26-4.14-1.19-5.2l.08.21c-1-3.58-.38-.28-1.39-2.89l.26-2-.39-.27c-.09-.38-.27-1.11-.11-1-.58-1.32-.07.27-.47-.48-.21-1.86-1.54-4.84-1.22-5.38-.42-.56.37,1.73-.38-.09.32-.7-.78-2.15-1.15-3.8.44.39.84,2,.5.27-.76-.8-1.08-3.12-1.76-4.4-.37.1-1.38-2.82-3-4.7A5.68,5.68,0,0,0,262,20a4.3,4.3,0,0,0-2.32-1,4,4,0,0,0-2.25.59l0-.09A14.88,14.88,0,0,1,256.23,21a14,14,0,0,0-1.52,2.26c-.15-.17-.09-.49.37-1.32-.32.45-.6.91-.87,1.38a10.83,10.83,0,0,1-.7,1.79l-.07-.48c-.94,1.93-1.45,4-2.52,6.5.19.22,1.38-1.77.6.95-.17.06-.43.08-.23-.64a8.19,8.19,0,0,1-.39,1.3l.14-1.15c-.49,1.13,0,.67-.35,1.59-.18-.08-.36.65-.47.46a7.82,7.82,0,0,0,.39-1.16,16.68,16.68,0,0,1-1.18,2.65c.14-.06.26.08,0,.86-.6,2-.44.61-.89,1.75,0,.52-.53,1.76-.25,1.88a2.1,2.1,0,0,1-.48.86c-.18,1.07-1.35,4.86-.72,3.77l.1-.26s0,.11,0,.17h0c-.68,3.49-2.15,7-3,10.42l-.09,0c-.49,2-1.32,4.46-1.6,5.94-.21.58-.66,1.31-.68,1a17.07,17.07,0,0,1-1.45,3.79c.45-1.54-.34.45.5-1.56a44.69,44.69,0,0,0-1.92,4.29c.13-.76-1,1.19-1.51,1.94a13.29,13.29,0,0,0,.92-1.05,8.27,8.27,0,0,1-1.77,2.26,3.57,3.57,0,0,0,.1-.57c-1.46,1.27-2.46,1.49-3.74.55a7,7,0,0,1-2.41-4c-.33-.45-.14.07.06.62s.43,1.08.09.7a22.62,22.62,0,0,1-1.23-4.35c-.66-2.56-1.24-2.2-1.88-4.92,0,.38-.25.8-.9-1.2-.45-1.9-.11-2.45.28-1.28.13.45.15.68.11.67.2.6.46,1.38.39.6l-.18-.21c-.14-1-.8-3.56-.46-3-.46-1.4-.34-.57-.14.51-.43-2.47-.92-3.8-1.4-6.35,0,.42,0,.82-.11.42-.72-3.73-.59-1.57-1.23-4.07-.16-1.46.54.42-.2-2.07-.24-1.57.23-.4.47.19A40.2,40.2,0,0,1,223,37.83l.4,1.18c-.24-.71-.38-1.3-.54-1.9l-.05.74c-.14-.72-.29-1.32-.19-1.33-.34-.69-.24.66-.82-.74-.13-1-.9-2.83-.68-3.24.71,3,.22-.42,1,2.09a14,14,0,0,1-.48-1.79c0-.12.09.08.16.27-.54-2.92-.7-1.22-1.58-4.14.29.32.12-.78-.08-1.25.38,1.18-.1.65-.58-.38a16.36,16.36,0,0,0-1.13-3l.34,1.13A15.59,15.59,0,0,1,217.56,23c.08-.17.55,1.12.42.64-.84-1.29-1-3.32-2.24-5.13-.4-.92.24-.24-.14-1.05-.75-1-1.08-1.57-1.47-2.16a7,7,0,0,0-1.92-2.06c.45.72.62.69-1.05-.28a12.8,12.8,0,0,1,3.2,3,15.9,15.9,0,0,0-2.08-1.85,15.57,15.57,0,0,1,2.32,2.6c-.91-.94-.78-.86-.59-.25a5.69,5.69,0,0,0-1.65-2A23.92,23.92,0,0,0,210,12.75l.32-.5a6,6,0,0,0-2.32-.8,6.53,6.53,0,0,0-2.41.21A13.76,13.76,0,0,0,201,14.2c.37-.23.71-.49,1.09-.7C201.8,14,200.2,15,199.41,16c-.06-.23-.66.3-1.11.63.14,0-1.84,2.18-1.7,2.72-.42.4-.81.82-1.21,1.24-1.83,2.51-1.49,3.25-3,5.74.26-.87-.54.21.34-1.57-.51.85-1,1.6-.88,1.68-.4.44-1.13,2.51-1.72,3.21a4.12,4.12,0,0,1-.54,1.59c-.1.09-.09-.05-.09-.05s-.7,1.59,0,.84c-2,2.38-3.84,7.54-5.47,9.66-.9,2-2,4.29-2.84,6,0-.14-.09,0,.09-.37-1.36,2.32-.22,1.73-1.78,4.36-1,1.24.58-1.52,0-.71-.77.08-1.59,3.32-2.88,5l.19-.45c-.92,1.28-1.57,3.49-2.87,5.68,0,0,0-.13-.08-.06a39.65,39.65,0,0,1-3.45,6.68c.21-.77.49-1,0-.75-.58.93.53,0-.64,1.82-.52.51-1.56,1.71-1.9,1.71.4-.55.81-1.1,1.19-1.67-.88.66-1.55,2.15-2.29,3l0-.2c-1,1.22-1.42,1.86-1.92,2.52a10.75,10.75,0,0,1-2.37,2.33l.34-.11c-1.26,1.38-1.34.74-2.81,1.77a4.64,4.64,0,0,1-.64-.17,7.31,7.31,0,0,1-2.58.68,3.62,3.62,0,0,1-.87,0,3.27,3.27,0,0,1-.87-.13,6.85,6.85,0,0,1-1.66-.48,6.67,6.67,0,0,0,1.11.21,13.51,13.51,0,0,0,1.34.19,6.31,6.31,0,0,0,2.54-.35,7.54,7.54,0,0,1-3.48,0A3.69,3.69,0,0,0,154,78a7,7,0,0,1,1.45.34,8,8,0,0,1-5.14-2.2c.21-.07,0-.38-.36-.81s-.9-1.09-1.48-1.78a13.17,13.17,0,0,1-2.33-4.14c-2.3-3.56-3.48-7.67-5.18-12.35,0,1.87-.5-1.37-1-.89a9.89,9.89,0,0,1-.54-1.63l-.77-3.49c-.09-.85.48,1,.57.87-.75-2.45-.08-1.1-.45-2.76-.1.4-.58-.75-1-2.17l.37,2c-1.42-3.32-.47-3.12-1.92-6.46l.54,1c-.67-1.73-2.24-6.53-3.4-8.06-.06-.33-.07-.8.29-.05a46.35,46.35,0,0,0-3.12-6.44c-1.23-2.08-2.51-4-3.56-5.45l.33.19c-.54-.68-1.22-.95-1.85-1.86.08,0,.35.15.07-.16l-1.26-.86a6.26,6.26,0,0,0-.9-.57,8.77,8.77,0,0,1-.84-.54l1,.4a9.44,9.44,0,0,0-1.46-.88c-.51-.21-1-.39-1.46-.56a11.88,11.88,0,0,0-2.76-.3,14,14,0,0,0-5.07,1.35c-.07-.21-1,0-2,.46A19,19,0,0,0,107.93,22v-.09a28.23,28.23,0,0,0-5,4.91c-1.35,1.66-2.55,3.36-3.92,5.28-2.2,2-5.92,7.91-8.69,11.66.46-.55.23.28-.19,1-.68.86-1.42,2.68-1.66,2.31l.22-.32c-.78.46-1.94,2.38-2.94,3.8l.27.54c-1.63,1.63-3.3,4.09-5,6.07a12.16,12.16,0,0,1-2.6,2.38,2.32,2.32,0,0,1-2,.46,1.46,1.46,0,0,1-1-.21,3.55,3.55,0,0,1-.94-.92l.27-.09a11.1,11.1,0,0,1-1-3.3c-.18-1.15-.31-2.42-.42-4.27l.24.74c-.07-2.06-.9-2.62-.89-4.58l.43-.58c.08-3.69.7-7.42.56-11.12.06.06.18.18.15.78.13-1.74.74-6.76.12-6.16.38,0,.27-3.85.18-5.87l.27.32A18.91,18.91,0,0,1,74,20.59c0-.57.23-.49.15.26.17-1.89-.24-1.47-.11-3.76l.19.85a7.6,7.6,0,0,0-.35-2.85,15,15,0,0,1,0-4,7.37,7.37,0,0,1-.68-2.43c.06-.17.21.23.27.43a11.74,11.74,0,0,0-1.14-3.85,18.94,18.94,0,0,0-1.74-2.87c0-.11,0-.26-.17-.42a9,9,0,0,1,2,3,8.22,8.22,0,0,1,.43,1.18c.27-.07-.53-2.2.46-.65a12.5,12.5,0,0,0-2-2.93A8.12,8.12,0,0,0,68,.37a1.47,1.47,0,0,1-.28-.16l.25,0a4.83,4.83,0,0,0-.78-.18c-.25,0-.49,0-.72,0a6.66,6.66,0,0,0-1.9,0,1.34,1.34,0,0,0-.56,0c-.28.05-.62.14-1,.24a16.57,16.57,0,0,0-2,.79c.19.22-1.11.76.19.42-.16.06.16-.13.83-.4l.43-.19L62.36,1A13.82,13.82,0,0,1,65,.29c-.87.28-1.71.58-2.88.87-.46.35-.91.8-1.18,1-1.48.24-4,1.57-4.4,1.61-2.61,1.92-5.89,4.75-7,6.48a2.61,2.61,0,0,1-1.16.77c.34-.4.79-.82,1-1.06-1.24,1.31-3.82,3.73-3.86,4.29-1.71,1.5.65-1.15-1.49,1.12l.22-.38c-4.71,4-6.13,7.89-11.1,12.53a2.79,2.79,0,0,1,.62-.53c-5.28,5.67-9.88,12.48-14.95,18.18a12.75,12.75,0,0,0-2,3.15l-.52.19-1.09,2c-1.72,2.72-3.93,4-5.95,7.55l.48-.3C8.8,58.9,7.06,61.54,7,61.21a1.92,1.92,0,0,1-.53.91l-.16-.06-1.88,3c-1.72,2.18-.26-.72-2.65,2.55C1,68.92-.33,71.4.09,71s1-1.2,1.14-1.15L.5,71c.23.47,0,1.6,2.23-1L3.87,68l.63-.48L3.35,69.14a6.46,6.46,0,0,0,1.45-2.2,2.34,2.34,0,0,0,.78-.65l1-2.12c.31-.12-.32,1,.68-.15.46-1-1,.6,0-.93.83-.78.78-.41,1.41-1.59.2-.08.1.19-.16.65a32.65,32.65,0,0,0,2-3.18c.9-.78,2.3-3.23,2.58-2.87a19.74,19.74,0,0,1,1.6-2.73c-.76,1.89,2.44-3.22,2.59-2.45.5-1.45,3-4.32,4.4-6.51a2.17,2.17,0,0,1-.33.57,24.8,24.8,0,0,1,1.93-2c-.19-.39,1.14-2.22,1.71-3.33,1.4-1.16-.31,1.13.32.92-.31-.13,1.67-2.62,1.09-2.31,1-.91.83-.84,1.52-1.18-.23-.5.73-1.05,1.21-2.11,1.43-1.37.67-.1,1.93-1.87C31.78,32.35,30.69,34,30.69,34ZM67.92,2.18h0A3.89,3.89,0,0,0,67.05,2,4,4,0,0,1,67.92,2.18Zm2.66,2.63a6.24,6.24,0,0,0-1-1.41c0-.17.16-.13.41.18C69.86,3.45,70.38,4.23,70.58,4.81ZM63.13.35c.72-.24,1-.25,1.1-.2A10.94,10.94,0,0,0,63,.51l-.08.05A.79.79,0,0,1,63.13.35Z" transform="translate(-0.01)"/><path class="cls-1" d="M62,1.13l-.27.12.42-.09L62.36,1Z" transform="translate(-0.01)"/><path class="cls-1" d="M247.13,44.29l0,.09a1,1,0,0,1,.09-.18A.45.45,0,0,1,247.13,44.29Z" transform="translate(-0.01)"/><path class="cls-1" d="M77.56,62.41l0-.07-.49.16C77.23,62.48,77.39,62.44,77.56,62.41Z" transform="translate(-0.01)"/><path class="cls-1" d="M256.31,22.46a1,1,0,0,0,.23-.2A.86.86,0,0,0,256.31,22.46Z" transform="translate(-0.01)"/><path class="cls-1" d="M263.44,23.24c.24.41.45.83.66,1.26A9.18,9.18,0,0,0,263.44,23.24Z" transform="translate(-0.01)"/><path class="cls-1" d="M266.71,30.28a.35.35,0,0,0,.17.1h0Z" transform="translate(-0.01)"/><path class="cls-1" d="M216.82,25.55l-.12-.28C216.4,24.63,216.59,25.07,216.82,25.55Z" transform="translate(-0.01)"/><path class="cls-1" d="M227,61.56c-.16-.37-.32-.73-.46-1.13C226.69,61.09,226.83,61.59,227,61.56Z" transform="translate(-0.01)"/><path class="cls-1" d="M192.25,30.33h0l-.12.23Z" transform="translate(-0.01)"/><path class="cls-1" d="M226.07,58.74a8.89,8.89,0,0,0,.46,1.69C226.4,59.9,226.25,59.27,226.07,58.74Z" transform="translate(-0.01)"/><path class="cls-1" d="M275,63.46l.06.38s0,0,.06,0Z" transform="translate(-0.01)"/><path class="cls-1" d="M275.09,63.87l.11.41A1.7,1.7,0,0,0,275.09,63.87Z" transform="translate(-0.01)"/><path class="cls-1" d="M275.43,65.15l-.23-.87A2.75,2.75,0,0,0,275.43,65.15Z" transform="translate(-0.01)"/><path class="cls-1" d="M273,53.17l-.12-.1A.17.17,0,0,0,273,53.17Z" transform="translate(-0.01)"/><path class="cls-1" d="M272.31,50.07A28.62,28.62,0,0,0,272.8,53l.1.08C272.65,52.62,272.63,50.73,272.31,50.07Z" transform="translate(-0.01)"/><path class="cls-1" d="M270.21,36.86l.66,2.6c0-.48,0-1.11.31.06C270.56,36.17,271.14,40.25,270.21,36.86Z" transform="translate(-0.01)"/><path class="cls-1" d="M267.67,28.92c.58,1.33.14-.07.22,0C267.46,28.07,267.36,27.88,267.67,28.92Z" transform="translate(-0.01)"/><path class="cls-1" d="M241.49,62.07l-.19-.22C241,62.89,241.39,61.9,241.49,62.07Z" transform="translate(-0.01)"/><path class="cls-1" d="M236.92,72.7a6.6,6.6,0,0,0,1-.68c.07-.19.15-.38.2-.57A7.12,7.12,0,0,1,236.92,72.7Z" transform="translate(-0.01)"/><path class="cls-1" d="M231.92,69.62l.28.34a11.9,11.9,0,0,1-1-1.4C231.46,68.93,231.69,69.28,231.92,69.62Z" transform="translate(-0.01)"/><path class="cls-1" d="M184.69,39.51l.43-.16C185.41,38.66,185.16,38.36,184.69,39.51Z" transform="translate(-0.01)"/><path class="cls-1" d="M162.6,76.18a9.22,9.22,0,0,0-2,1.19A10.2,10.2,0,0,0,162.6,76.18Z" transform="translate(-0.01)"/><polygon class="cls-1" points="84.47 52.62 84.89 51.86 84 53.22 84.47 52.62"/><path class="cls-1" d="M450,57c.11.18.29,0,.17-.48l-.38-.32Z" transform="translate(-0.01)"/><path class="cls-1" d="M450.11,53.43c-.25-.59-.64-1.26-.88-.81.41.56.3.72.78,1.32.11.52,0,.93-.1.86.11.17,0,.83.3,1.08a4.38,4.38,0,0,0-.32-2.46C449.93,53.22,450,53.39,450.11,53.43Z" transform="translate(-0.01)"/><path class="cls-1" d="M431.15,24.55l.15-.3A1.66,1.66,0,0,0,431.15,24.55Z" transform="translate(-0.01)"/><path class="cls-1" d="M421.77,55.21c.07-.23.08-.34.05-.36C421.77,55.07,421.73,55.25,421.77,55.21Z" transform="translate(-0.01)"/><path class="cls-1" d="M419.45,60.08l.16-.27A.6.6,0,0,0,419.45,60.08Z" transform="translate(-0.01)"/><path class="cls-1" d="M431.15,24.55l-.4.77C430.83,25.41,431,24.93,431.15,24.55Z" transform="translate(-0.01)"/><path class="cls-1" d="M448.17,46.52a2.13,2.13,0,0,0,.16.45c0-.15-.07-.29-.11-.43Z" transform="translate(-0.01)"/><path class="cls-1" d="M440.88,16.91l.18.21a.82.82,0,0,0,.26.1Z" transform="translate(-0.01)"/><path class="cls-1" d="M445.51,27c-.05-.24-.35-.24-.49-.29a1,1,0,0,1,.33.46C445.41,27.15,445.46,27.1,445.51,27Z" transform="translate(-0.01)"/><path class="cls-1" d="M448.86,43.93l.1.3Z" transform="translate(-0.01)"/><path class="cls-1" d="M433.58,18.52a.22.22,0,0,0-.14,0S433.52,18.55,433.58,18.52Z" transform="translate(-0.01)"/><path class="cls-1" d="M338.39,51.12h-.05C338.35,51.18,338.36,51.2,338.39,51.12Z" transform="translate(-0.01)"/><path class="cls-1" d="M333.78,62.89l0-.17-.14-.08Z" transform="translate(-0.01)"/><path class="cls-1" d="M414.46,63.12v0C414.63,63.28,414.55,63.2,414.46,63.12Z" transform="translate(-0.01)"/><path class="cls-1" d="M383.38,34.23c.49-.95-.1,1.73.55.27C383.79,34.62,383.85,33,383.38,34.23Z" transform="translate(-0.01)"/><path class="cls-1" d="M448.16,46.24l-.08-.44A2.19,2.19,0,0,0,448.16,46.24Z" transform="translate(-0.01)"/><path class="cls-1" d="M383.93,34.5h0l.07-.15Z" transform="translate(-0.01)"/><path class="cls-1" d="M408.05,41.71A.62.62,0,0,0,408,42S408,41.89,408.05,41.71Z" transform="translate(-0.01)"/><path class="cls-1" d="M411.61,58.4l-.1-.41A2.46,2.46,0,0,0,411.61,58.4Z" transform="translate(-0.01)"/><path class="cls-1" d="M406,33a2,2,0,0,0-.1-.62s0,.06,0,.1A1.15,1.15,0,0,1,406,33Z" transform="translate(-0.01)"/><path class="cls-1" d="M404.25,23.87c0,.05,0,.12,0,.18l.07.29Z" transform="translate(-0.01)"/><path class="cls-1" d="M346.78,24.28a1.36,1.36,0,0,1-.38.31C346.63,24.53,346.22,25.82,346.78,24.28Z" transform="translate(-0.01)"/><path class="cls-1" d="M448.32,46.49c-.08,0-.12-.11-.16-.25l.06.3S448.31,46.56,448.32,46.49Z" transform="translate(-0.01)"/><path class="cls-1" d="M403.78,33.05l-.23-1.46C403.6,32,403.68,32.53,403.78,33.05Z" transform="translate(-0.01)"/><path class="cls-1" d="M364.67,53.66l-.07-.33A.77.77,0,0,0,364.67,53.66Z" transform="translate(-0.01)"/><path class="cls-1" d="M402.68,27.3a3.42,3.42,0,0,0,0-.85.56.56,0,0,0-.1-.15Z" transform="translate(-0.01)"/><path class="cls-1" d="M346.39,24.59h0Z" transform="translate(-0.01)"/><path class="cls-1" d="M343.82,33.94c.45-1.33-.14-.74-.24-1.09.42-1.62.5-.65.86-1.13.24-1,.18-1.88.45-2.61.07,0,.15-.17.16,0,.09-1.14,1.08-3.09,1.2-4.41a.37.37,0,0,1,.14-.13.49.49,0,0,1-.54,0c.22-.59.19-1.18.51-1.31a.89.89,0,0,0-.06.62l.14-.66c.53-.42-.22.88,0,1a21.06,21.06,0,0,1,1.12-3.6c.39-.06-.77,2.16,0,1.07l-.69,1.36c.93-.88-.37.84.55.06.83-1.81.67-2.13,1.55-3.9,0-.49-.31,0-.3-.47.88-2.7,1.69-1.64,2.23-3.65a2.41,2.41,0,0,1,.72-2.1l.06.62a3.27,3.27,0,0,0,.61-1.36,2.3,2.3,0,0,1,.86-1.26c-.1.35-.77,1.22-.56,1,1-.79.33-.85,1-1.54l.37.1.47-.47.49-.4a2.21,2.21,0,0,1,.93-.37c.57-.07,1.39.55,1.94,1.44-.14,0-.41-.28-.25.17a12.45,12.45,0,0,1,1.63,3.89,36.68,36.68,0,0,1,.81,4.27l.5,1c0,.24,0,.48-.15.23.09,1.07.2,0,.41.5s0,.83-.18.46a27.27,27.27,0,0,1,1.38,7.31l-.14-.37c.09,1.57.83,1.67.74,3.16l-.09-.27c.31,3.39,1,7.12.82,9.76.47.45.17,3.38.78,3.54a27.64,27.64,0,0,0-.15,4.19c.06.73.49,1,.65,1.94l-.3.06.46,1.19-.29.7.18.84c0-.34,0-.74.14-.7a7.92,7.92,0,0,1,0,3.31l.68,3.1c-.14,0-.25-.57-.39-1,.55,1.63-.28.35.23,1.84,0-.21.2.09.26.11a15.3,15.3,0,0,0,.52,3.82l-.26-.21a34.45,34.45,0,0,0,2.09,7.55c-.3-1,.13-.89.48-.15-.06.14-.12.29-.17.44.42.4-.26-.85.44,0,.48,1,0,.84-.38.31a8.48,8.48,0,0,0,.85,1.15c0,.13-.28-.12-.43-.13a4.24,4.24,0,0,1,.48.54,4.06,4.06,0,0,0,.36.41,2.85,2.85,0,0,0,.59.45,2.53,2.53,0,0,0,1.45.38,2.06,2.06,0,0,0,1.17-.4l.15,0a3,3,0,0,0,.65-.43,3.7,3.7,0,0,0,.45-.42,6.09,6.09,0,0,0,.65-.78,12.92,12.92,0,0,0,.83-1.38c.44-.86.77-1.67,1.19-2.7-.24-.14.14-.92.15-1.6A38.4,38.4,0,0,0,378.74,62c.25-1.32-.11-.44-.1-1.06.27,0,.77-1.86.68-.86a57,57,0,0,0,1.26-5.66c-.18.28-.31.6-.35.41.09-.52.41-1.13.51-1V54c.43-3.22,2.53-7,2.61-9.67v.15l.36-2.65c.33-1.18,0,.76.38-.09.26-2.88,1.12-4.38,1.41-6.74,1.17-1.59,1.52-6.29,2.64-8.53l-.21.09c0-.66.3-.72.46-1.16-.15,0-.33.62-.32.22a60.18,60.18,0,0,1,2.44-7.85A42.69,42.69,0,0,1,394,10.46,2.49,2.49,0,0,0,394.45,9a1.36,1.36,0,0,1,.23-.57,1.54,1.54,0,0,1,.85-.55,3,3,0,0,0-.2.52A1.8,1.8,0,0,1,396,8a.64.64,0,0,1,.59.12A5.19,5.19,0,0,1,398,10a57.62,57.62,0,0,1,2.21,5.46c-.14-.2-.24-.18-.35-.55a7,7,0,0,0,1,2.93c.13.6-.14.18-.14.57.06.84.79,2,.66,2.46,0,.09-.13-.21-.19-.35.24.5.53,2.49.69,1.92.19,1.49.71,2.77.78,4,.46.71.35,2.55.83,2.71-.47,0,.13,2.65.51,3.54-.19-.29,0,.84-.24.51.2,1.06.46,2,.66,1.79-.17,2.07,1.16,3.87.68,5.11L407.44,49c-.47,0-.71-3.13-1.14-2.92.73,2.67,1.44,4.15,2,6.84.1.7-.29-.35-.42-.57.82,2.65,1.29,5.22,2.38,7.5,0,0-.18-.23-.3-.46.18.47.33,1.11.51,1l-.22-.43c0-.83,1.27,1.61,1.48,1.6-.43-.26-.22.32,0,.85s.39,1-.27.58c.19.28.49.6.57.47.23.44.25.63-.15.27a4,4,0,0,0,1.07,1.15l.41.32c.17.14.4.33.79.61-.06.08-.39-.12-.63-.16a5.32,5.32,0,0,0,1.55.57,3.78,3.78,0,0,0,2.14-.28c-.07.09.15.08-.33.29A3.82,3.82,0,0,0,418.41,65a7.11,7.11,0,0,0,.91-1.35c.51-.92.94-1.86,1.57-3,.07.87.49-.72.88-.7l.42-1.3-.37.44c.46-1.11.56-2.18,1-3.09l-.15.87c.23-.7.45-1.4.66-2.11l-.54,1.14c.21-1.19-.48,0,.12-1.48a16,16,0,0,1,.76-1.63h0a6.48,6.48,0,0,1,.46-2c.18-.18.35.29.46.18-.12-.64.7-2.67.58-3.46,0,.26.19.32.25.26l-.11-.53c.23-.5.29-.57.41-.44.49-1.56-.59.37.13-1.44,0,.15,0,.09,0,.4.63-1.84.85-3.66,1.44-5.35.5-.41-.32,1.53.14,1,.62-2.5,1-5.26,1.76-7.63l-.17.43c-.41-.48.77-1.71.89-3-.05.31.17.47.14.37.57-1.6.88-3.36,1.58-5.84l0,.34c.44-.9,1-2.44,1.45-3.4,0-.35.27-.9-.07-.64,1-1.35,1.64-2.78,2.45-4A4.14,4.14,0,0,1,437,16.65a1.47,1.47,0,0,1,1.71.17c-.27-.12-.63-.08-.44,0A3.53,3.53,0,0,1,440,17.91c.06-.3-.09-.32-.32-.8a3,3,0,0,1,1.24,1.07c-.79-.81-.28.23-.14.68,0-.1.17,0,.21-.08.3,1.32.55-.07,1.13,1.66l-.15,0a9.36,9.36,0,0,1,1,1.76c-.13.38-.39-.61-.61-.57.42.91,1.22,1.68,1.29,2.64-.23-.38-.43-1-.66-1.34a5.76,5.76,0,0,0,.37,1.84l0-.07c.14.56.28,1.11.41,1.67l-.05-.44c1.05,1,.88,2.44,1.77,4-.86-1.5-.32-.2-.64-.25,0,.45.11,1.12,0,1,.44.72.15,1.35.77,2.38-.09.07.19.85-.09.72.32,1,.11-.28.24-.22.71,1.51.46,3.82,1.37,6,.58,1.95,1,2.26,1.48,4.08,0,.65-.44-.45-.44-.45a10,10,0,0,0,.48,2.72c-.12-.18-.15,0-.21.34.16.76.44.45.47,1.48a2.71,2.71,0,0,1-.52-.69c.24.88.58,1.74.82,2.65-.13.28-.35-.52-.51-.83a10.84,10.84,0,0,0,.91,3v-.68c.07.38-.2.23-.29,0-.36-.87-.12-1.31,0-1.38l.18.65c.45-.77-.54-2.65-.74-4l.51.49-.58-1.31c.05-.31.25-.55.43.1,0-1-.3-.83-.22-1.69,0-.1,0-.06.07,0l-.29-.91c.12.17.26-.21.31.38-.08-1.73-.82-2.65-.64-3.34l.06.13c-.6-2.29-.35-.16-1.05-1.83l.49-1.32-.35-.17c0-.24-.12-.72,0-.65-.39-.85-.1.18-.4-.3,0-1.21-.85-3.13-.44-3.5-.32-.35.09,1.14-.36,0,.42-.48-.44-1.39-.48-2.49.34.25.46,1.28.42.17-.6-.51-.45-2-.8-2.9-.35.06-.7-1.86-1.34-3.26a22.43,22.43,0,0,0-1.37-4.12h.08c-.47-.08-1.08-1.44-1.84-2.25.2-.11.4,0,.82.44a10.07,10.07,0,0,0-.64-.86,9,9,0,0,1-1.08-.77l.4,0a3.7,3.7,0,0,0-2.28-.94,4.3,4.3,0,0,0-2.59,1c.05.13.46,0,.65.09s.18.22-.38.87c-.14,0-.37-.16,0-.54a4.82,4.82,0,0,1-.58.67,7.61,7.61,0,0,1,.35-.7c-.65.52-.17.44-.59.91-.15-.14-.41.29-.47.12a5.66,5.66,0,0,0,.52-.64,16.33,16.33,0,0,1-1.38,1.39c.13,0,.22.14,0,.6-.65,1.2-.43.3-.9,1,0,.35-.53,1.08-.26,1.22a1,1,0,0,1-.46.48c-.18.69-1.18,3-.6,2.41l.08-.15,0,.11h0c-.53,2.21-1.71,4.38-2.25,6.56l-.09,0a33.39,33.39,0,0,0-.84,3.85c-.11.38-.43.84-.5.65A9.78,9.78,0,0,1,427,37.7c.11-1-.25.3.16-1.05a8.74,8.74,0,0,0-.79,3c-.12-.54-.57.88-.67,1.5l.42-.84c-.15.69-.33,1.28-.52,1.88l-.23-.42c-1.11,2.51-.64,4.9-1.87,6.69,0,.75.57-1.37.65-.68a24.19,24.19,0,0,1-1.33,2.66c-.67,1.57,0,1.66-.66,3.32.18-.18.56-.29.24,1s-1,1.28-.8.51c.09-.28.17-.4.2-.38.09-.39.21-.91-.07-.48l.06.19c-.3.54-.87,2.14-.92,1.7-.21.91.05.44.34-.19-.7,1.43-.86,2.32-1.62,3.74.16-.21.38-.37.28-.14-.56,1-.64,1.29-.64,1.47s.07.3-.31,1c-.63.66-.17-.46-.91.9-.66.65-.36,0-.24-.38a2.79,2.79,0,0,1-1.14,1.26,1.28,1.28,0,0,1-.81.15A.28.28,0,0,0,416,64a.53.53,0,0,0,.14-.1c-.18.13-.29.16-.42.12a1,1,0,0,0,.16.25,1.09,1.09,0,0,1-.25-.07c-.06,0-.1-.08-.08-.13s-.13.15-.15.25-.06.23-.43.15c-.33-.29-1.24-1-1.08-1.41.46.74.52.61.53.5s.05-.23.5.17a2,2,0,0,1-.59-.7c0-.07.08,0,.16.09-.34-.71-.5-.85-.71-.95s-.46-.22-.85-1.05c.26.13.14-.53,0-.79.29.67-.14.45-.53-.14a11.78,11.78,0,0,0-.75-1.79l.18.71c-.26-.17-.44-.76-.75-1.55.11-.12.33.7.29.4-.59-.81-.33-2.14-.87-3.36,0-.62.31-.14.25-.68-.59-1.38-.16-1.61-.7-3.08-.13.49-.06.55-.53-.47l.75,2.46-.72-1.52c.17.76.53,1.56.6,2-.38-.72-.3-.65-.4-.25.09-1.11-.7-2-.74-3.26l.59-.09c-.14-1.86-1-3.14-1.32-5.54l.05.78c-.29-.27-.32-1.45-.56-2.2.21,0,.19-.45.25-.8-.14.06-.32-1.74-.75-1.88l.06-1.1c-.25-1.94-1-2.09-1.23-3.94.31.52.29-.35.67.86-.11-.62-.18-1.18-.31-1.16.05-.38-.58-1.66-.5-2.26a1.76,1.76,0,0,1-.47-1c0-.08.1,0,.1,0s-.33-1-.44-.41c.26-2-1.05-5.28-.88-7-.34-1.33-.75-2.93-1.05-4.13.07.06.09,0,.13.21-.22-1.71-.79-.89-1.07-2.83.06-1.05.43,1,.39.33.56-.43-.68-2.27-.72-3.64l.14.3c-.09-1-1-2.3-1.59-3.86,0,0,.08.05.09,0-.38-.46-.82-1.18-1.37-1.91a5.89,5.89,0,0,0-2-1.87c.62,0,.73.38.62-.06-.35-.24-.38-.1-.46,0s-.24,0-1-.09a2,2,0,0,0-1.07-.1,2.77,2.77,0,0,1-.88.07A3,3,0,0,1,396,5.87a1.81,1.81,0,0,0-1.58.33,12.23,12.23,0,0,0-1.07,1c0-.06,0-.12,0-.18a6,6,0,0,0-1.18,1.93,20,20,0,0,1-.92,2.06l.21-.16c-.17,1.26-.64.83-.86,2.05l-.5.19c-.23.77-.66,2.73-1,4.1a19.62,19.62,0,0,1,.63-3.51,12.09,12.09,0,0,0-.86,3,3.69,3.69,0,0,1,.27-1,14.42,14.42,0,0,1-.77,3.75c-.66-.5-1.37,3.83-2.23,4.77-.47,2.74-1.54,5.26-2.28,8.39.85-1-.21.92.43.87a3.42,3.42,0,0,1-.28,1.07L383,36.61c-.3.48,0-.72-.11-.69-.44,1.58-.42.61-.83,1.62.26-.16.17.63-.14,1.52l.59-1.21c-.22,2.3-1,1.8-1.19,4.11l0-.75c-.17,1.18-1,4.24-.83,5.48-.11.19-.34.41-.26-.1-.74,2.72-1,6.22-1.85,8.26l-.09-.24a4.11,4.11,0,0,1-.28,1.55s-.09-.24-.16,0a8,8,0,0,1-.38,2.06v-.62c-.92,2.59-.75,4.16-1.36,6.37-.41-.13-1.23,1.84-1.69,2.79l0-.06c-.59,1.44-1,2.66-1.56,3.75a6.05,6.05,0,0,1-.87,1.38,1.23,1.23,0,0,1-.38.32.59.59,0,0,1-.45,0c-.06-.16-.35-.57-.59-1.12a16.9,16.9,0,0,1-.76-2,25.07,25.07,0,0,1-1-4.76c0,.46-.35,0-.49-.5,0-.69-.63-1.83-.21-1.79l0,.25c.3-.58,0-2-.17-3.06l-.55-.1c.34-3-1.24-7.53-.73-9.2-.21-.68-.3-1.55-.51-2.23h.28c-.13-2-.2-2.92-.52-5.32l.25.47c-.13-1.35-1-1.62-1.15-2.87l.38-.42c-.26-2.36-.16-4.8-.82-7.09.06,0,.19.08.26.46-.12-1.11-.26-4.34-.79-3.86.38-.08-.29-2.45-.65-3.7l.31.16a7.46,7.46,0,0,1-1-2.53c0-.36.17-.34.18.14-.05-1.21-.41-.88-.53-2.34l.28.51a3.41,3.41,0,0,0-.63-1.74,5.32,5.32,0,0,1-.23-2.54,2.76,2.76,0,0,1-.67-1.47c.07-.12.19.12.26.25-.38-2.08-1.2-2.88-1.54-4.32.08-.07.08-.17.05-.3a16.61,16.61,0,0,1,1,2.75c.25-.07-.16-1.39.54-.47-.53-1-1.59-2.61-2.3-3.85a1,1,0,0,1,0-.21l.11.11a2.48,2.48,0,0,0-.62-.73,3.6,3.6,0,0,0-1-.95,1.69,1.69,0,0,0-1.18-.62,3.77,3.77,0,0,0-1.06,0c-.33.06-.62.15-.86.21.14.23-.84.64.16.44-.14,0,.14-.09.7-.22l.39,0-.07,0a3.09,3.09,0,0,1,2.06.66,6.42,6.42,0,0,0-2.26-.57,3.51,3.51,0,0,0-.92.74,3.82,3.82,0,0,0-1.78.66,7.32,7.32,0,0,1-1.16.7c-1.29,1.76-2.65,4.19-2.76,5.57-.19.54-.43.52-.6.68a6.07,6.07,0,0,0,.3-.87c-.41,1.09-1.44,3.11-1.2,3.52-.73,1.25,0-.89-.72,1v-.29c-2.08,3.4-1.5,6.23-3.63,10.05.14-.27.21-.4.29-.44-1.94,4.55-2.88,9.73-4.76,14.23a5.44,5.44,0,0,0-.37,2.36l-.37.21-.06,1.48c-.31,2-1.68,3.2-1.9,5.82l.29-.27c-.29.89-.66,2.87-.84,2.66a.81.81,0,0,1-.08.67h-.16l-.32,2.27c-.57,1.68-.54-.43-1.23,2.06-.18.94-.24,2.75-.05,2.43s.34-.93.5-.92l-.14.87c.41.27.71,1,1.56-.95l.11-1.52.34-.41-.31,1.22a2.74,2.74,0,0,0,.33-1.65,1.11,1.11,0,0,0,.4-.54l-.05-1.53c.22-.13.18.73.53-.2,0-.72-.57.53-.4-.6.39-.64.5-.39.54-1.25.15-.08.18.11.14.44a13,13,0,0,0,.33-2.36c.44-.65.6-2.45,1-2.26a7.94,7.94,0,0,1,.19-2c.16,1.35.73-2.46,1.18-2-.2-1,.73-3.28,1-4.92a.89.89,0,0,1,0,.42A10.18,10.18,0,0,1,341.4,41c-.34-.23,0-1.63,0-2.45.7-1,.24.8.69.56-.32,0,.28-2-.08-1.68.48-.76.33-.68.77-1-.42-.29.17-.79.1-1.57.62-1.11.53-.16.82-1.51C344,32.72,343.82,33.94,343.82,33.94Zm14.05-23.2h0a5.62,5.62,0,0,0-.35-.49A4.46,4.46,0,0,1,357.87,10.74ZM359,13.1a10,10,0,0,0-.43-1.07c.06-.12.19-.07.29.18C358.74,12.1,358.93,12.7,359,13.1Zm-2.47-5.9c.67.12.81.34.87.4a3.48,3.48,0,0,0-1.07-.33l-.08,0A.54.54,0,0,1,356.52,7.2Z" transform="translate(-0.01)"/><path class="cls-1" d="M355.36,7.51l-.23.07a2,2,0,0,1,.35,0l.2-.09Z" transform="translate(-0.01)"/><path class="cls-1" d="M431.33,24.19l0,.06a.49.49,0,0,1,.08-.1S431.35,24.17,431.33,24.19Z" transform="translate(-0.01)"/><polygon class="cls-1" points="364.17 50.61 364.24 50.6 364.15 50.37 364.17 50.61"/><path class="cls-1" d="M440.75,18.86a.48.48,0,0,0,0,.2A.57.57,0,0,0,440.75,18.86Z" transform="translate(-0.01)"/><path class="cls-1" d="M443.33,24.74l.2.9C443.46,25.25,443.39,25,443.33,24.74Z" transform="translate(-0.01)"/><path class="cls-1" d="M444.66,29.57a.2.2,0,0,0,.14.06h0Z" transform="translate(-0.01)"/><path class="cls-1" d="M409.94,59.34l-.07-.18C409.66,58.73,409.79,59,409.94,59.34Z" transform="translate(-0.01)"/><path class="cls-1" d="M423.68,52.82a7.24,7.24,0,0,1-.1.78C423.73,53.2,423.83,52.88,423.68,52.82Z" transform="translate(-0.01)"/><path class="cls-1" d="M403.8,33.21h0l0-.16Z" transform="translate(-0.01)"/><path class="cls-1" d="M423.22,54.66a4.58,4.58,0,0,0,.36-1.06A7.34,7.34,0,0,0,423.22,54.66Z" transform="translate(-0.01)"/><path class="cls-1" d="M448.89,51l0,.24s0,0,0,0Z" transform="translate(-0.01)"/><path class="cls-1" d="M449,51.22l.08.26A.57.57,0,0,0,449,51.22Z" transform="translate(-0.01)"/><path class="cls-1" d="M449.2,52l-.16-.55A1.19,1.19,0,0,0,449.2,52Z" transform="translate(-0.01)"/><path class="cls-1" d="M447.89,44.36l-.12-.06A.14.14,0,0,0,447.89,44.36Z" transform="translate(-0.01)"/><path class="cls-1" d="M447.49,42.37a13,13,0,0,0,.19,1.89l.09,0C447.57,44,447.75,42.79,447.49,42.37Z" transform="translate(-0.01)"/><path class="cls-1" d="M447,33.82l.3,1.68c0-.32.1-.73.29,0C447.43,33.35,447.45,36,447,33.82Z" transform="translate(-0.01)"/><path class="cls-1" d="M445.84,28.64c.3.87.15-.06.22,0C445.81,28.08,445.75,28,445.84,28.64Z" transform="translate(-0.01)"/><path class="cls-1" d="M427.5,35.52l-.22-.16C427.12,36.05,427.37,35.4,427.5,35.52Z" transform="translate(-0.01)"/><polygon class="cls-1" points="426.81 42.91 427.15 42.29 427.01 41.91 426.81 42.91"/><polygon class="cls-1" points="423.9 46.56 423.95 46.26 423.72 47.41 423.9 46.56"/><path class="cls-1" d="M404.83,25.45l-.27.27C404.71,26.18,405.08,26.21,404.83,25.45Z" transform="translate(-0.01)"/><path class="cls-1" d="M391.16,10.68a2.56,2.56,0,0,0-.76,1.4C390.67,11.51,391.06,11,391.16,10.68Z" transform="translate(-0.01)"/><polygon class="cls-1" points="367.56 57.59 367.74 58.12 367.51 57.1 367.56 57.59"/><path class="cls-1" d="M737.87,24.79c0-.29-.21-.22-.48.51l.09.63Z" transform="translate(-0.01)"/><path class="cls-1" d="M735.26,29.32c-.21.9-.38,2,.14,1.55.07-.95.27-1.09.31-2.13.28-.73.63-1.2.7-1,0-.29.54-1.07.51-1.54a9.45,9.45,0,0,0-1.48,3.29C735.26,29.69,735.29,29.41,735.26,29.32Z" transform="translate(-0.01)"/><path class="cls-1" d="M705.37,31.14l0,.49A3,3,0,0,0,705.37,31.14Z" transform="translate(-0.01)"/><path class="cls-1" d="M677.66,41.22c.18-.31.23-.46.21-.49C677.72,41,677.6,41.27,677.66,41.22Z" transform="translate(-0.01)"/><path class="cls-1" d="M673.21,47.83l.27-.39A1.31,1.31,0,0,0,673.21,47.83Z" transform="translate(-0.01)"/><path class="cls-1" d="M705.37,31.14l-.1-1.26C705.15,29.81,705.3,30.53,705.37,31.14Z" transform="translate(-0.01)"/><path class="cls-1" d="M731.68,39.13a4.4,4.4,0,0,0,.21-.65l-.24.6Z" transform="translate(-0.01)"/><path class="cls-1" d="M708.11,51.54l.06.38a1.67,1.67,0,0,0,.18.28Z" transform="translate(-0.01)"/><path class="cls-1" d="M714.9,61.68c-.28.15-.27.42-.34.59a2.54,2.54,0,0,1,.56-.49C715.1,61.73,715,61.7,714.9,61.68Z" transform="translate(-0.01)"/><path class="cls-1" d="M729.11,41.83l.16-.42Z" transform="translate(-0.01)"/><path class="cls-1" d="M706.85,40.34a.42.42,0,0,0,.08-.15S706.87,40.25,706.85,40.34Z" transform="translate(-0.01)"/><path class="cls-1" d="M506.73,41.89s0,0,0,0S506.69,42,506.73,41.89Z" transform="translate(-0.01)"/><path class="cls-1" d="M499.24,58.62l.07-.24s-.08-.09-.13-.1Z" transform="translate(-0.01)"/><path class="cls-1" d="M664.55,58.19h0C664.74,58.09,664.64,58.12,664.55,58.19Z" transform="translate(-0.01)"/><path class="cls-1" d="M616.83,14.06c.49,1.07,0,.29-.45-.07-.22-.2-.47-.29-.51-.25s.18.14.52.75c0-.16.35.22.61.53.13.15.23.26.24.13A2.13,2.13,0,0,0,616.83,14.06Z" transform="translate(-0.01)"/><path class="cls-1" d="M731.47,39.49c-.09.19-.18.39-.28.59C731.33,39.81,731.41,39.63,731.47,39.49Z" transform="translate(-0.01)"/><path class="cls-1" d="M616.39,14.49h0l.13.27Z" transform="translate(-0.01)"/><path class="cls-1" d="M663.66,27.06a1.92,1.92,0,0,0,0,.44S663.72,27.38,663.66,27.06Z" transform="translate(-0.01)"/><path class="cls-1" d="M662.93,52.5l.05-.61C663,52.13,662.94,52.33,662.93,52.5Z" transform="translate(-0.01)"/><path class="cls-1" d="M652.78,33a4.33,4.33,0,0,0-.53.75l.11-.1A2.17,2.17,0,0,1,652.78,33Z" transform="translate(-0.01)"/><path class="cls-1" d="M645.44,44.39l.18-.18.22-.37Z" transform="translate(-0.01)"/><path class="cls-1" d="M528.9,18.62a2.83,2.83,0,0,1-.12-.62C528.72,18.28,527.6,16.84,528.9,18.62Z" transform="translate(-0.01)"/><path class="cls-1" d="M731.54,39.07a.63.63,0,0,1-.07.42l.18-.41C731.63,39,731.6,39,731.54,39.07Z" transform="translate(-0.01)"/><path class="cls-1" d="M654.31,34.69l-1.21,1.75C653.45,36,653.89,35.32,654.31,34.69Z" transform="translate(-0.01)"/><path class="cls-1" d="M597.81,27a1.67,1.67,0,0,0-.39,0A3.22,3.22,0,0,0,597.81,27Z" transform="translate(-0.01)"/><path class="cls-1" d="M649.7,41.83a7.29,7.29,0,0,0-.81.92,1.44,1.44,0,0,0-.08.25Z" transform="translate(-0.01)"/><path class="cls-1" d="M528.78,18Z" transform="translate(-0.01)"/><path class="cls-1" d="M519,19.29c1.31-1.35.36-.9.49-1.34,1.62-1.62,1-.48,1.65-.84.24-.25.49-.39.72-.6a3.42,3.42,0,0,1,.66-.52,5.7,5.7,0,0,1,.65-.4,4.32,4.32,0,0,1,.68-.19c.08,0,.25,0,.06.15a3.09,3.09,0,0,1,2.45.31,11.63,11.63,0,0,1,2.34,1.9.62.62,0,0,1,.06.24c0-.34.1-.49.24-.52.55.69,1.12,1.26,1.09,1.67a1.68,1.68,0,0,0-.58-.64c.19.25.4.48.57.75,0,.45-.13.18-.35-.17s-.53-.79-.63-.72A18.85,18.85,0,0,1,531.81,23c-.17.38-1.45-3-.94-1.14-.27-.67-.53-1.35-.84-2,.3,1.68-.59-1.14-.38.43a46.39,46.39,0,0,1,2.46,5.5c.41.55.19-.3.59.25,1.74,3.77.3,3.35,1.76,6.08A5.63,5.63,0,0,1,536,35.07l-.63-.57c1,2.69,1.08,1.33,2,4.2-.35-.43-1-2-.87-1.61.48,1.92.72,1.19,1.34,2.56l-.18.42a32.62,32.62,0,0,0,5.66,8.22c-.2-.08-.68-.46-.21.23a17.5,17.5,0,0,0,5.82,4,15.25,15.25,0,0,0,6.95,1c.54-.19,1.08-.37,1.6-.58s.72-.05.33.11c1.66-.34,0-.2.79-.53.91-.25,1.23-.25.7.07a43.25,43.25,0,0,0,5-2.62c1.74-1.1,3.45-2.25,4.74-3l-.42.42a7.16,7.16,0,0,0,1.83-1.66,6.89,6.89,0,0,1,1.74-1.53l-.28.3c4-3.09,7.8-7.09,10.93-9.26.25-.82,3.82-3.06,3.7-3.69a24.79,24.79,0,0,1,2.22-1.28c.57-.3,1.23-.74,2.92-1.6.88-.47,1.14-1.05,2.28-1.54l.13.28c.23-.13.47-.29.72-.41l.75-.31a3.79,3.79,0,0,1,.84.29,3.8,3.8,0,0,1,1,0,2.29,2.29,0,0,1-.56-.17c-.15-.05-.26-.08-.22-.13a2.3,2.3,0,0,1,.64,0,2.57,2.57,0,0,1,.66.13,4.69,4.69,0,0,1,1.14.58,2.39,2.39,0,0,1,.9,1.09,9.89,9.89,0,0,1,2.31,3.34c-.15-.05-.46-.7-.77-1.15.62.93.55,1.1.51,1.19s-.09.17.37,1.12c0-.29.22.09.29.12.16,1.06.68,3.44,1,5.26l-.26-.32A81,81,0,0,1,604,48.8c.12-1.35.48-1,.5.07l-.33.44c.19.72.14-1.16.36.32-.07,1.42-.39.94-.47.13l.06,1.72c-.1.1-.14-.3-.26-.41.19.71-.43,3-.13,4l-.11.09c-.09,1.9-.15,3.29-.17,4.6,0,.67,0,1.3,0,2,0,.19,0,.37,0,.58a3.32,3.32,0,0,0,.18.88,1.26,1.26,0,0,0,.09.23,2.51,2.51,0,0,0,.27.37,1.27,1.27,0,0,0,.34.25,1.53,1.53,0,0,0,.49.18,1.56,1.56,0,0,0,.87-.14,1.11,1.11,0,0,0,.41-.3,2.2,2.2,0,0,0,.2-.23,1.82,1.82,0,0,0,.16-.28,4.5,4.5,0,0,0,.29-.76c-.22-.17.16-1.41.11-2.37.53-2.26,1.13-4.74,1.52-7.47.15-1.94-.15-.59-.19-1.48.28-.1.65-2.83.63-1.39.44-3.28.56-4.19,1-8.35-.17.43-.29.93-.34.66.07-.76.36-1.69.47-1.57v.21c.31-4.7,2.38-10.57,2.55-14.3v.21c.15-1.28.3-2.55.48-3.83.42-1.71,0,1.08.4-.16a22.21,22.21,0,0,1,1-4.58c.1-.32.22-.63.33-.93l.05-.14,0-.07.06-.13c.1-.15.16-.37.37-.49a.32.32,0,0,1,.29.11c0,.23,0,.41,0,.53a1,1,0,0,0,0,.17s0,0,0,.06l0,.17c0,.12,0,.25.07.37.17,1,.37,2.18.58,3.37a42.76,42.76,0,0,1,.74,6.79l.15-.22c.28.9,0,1.12.06,1.81.13-.11.05-1,.21-.46.56,3.9,1,8,1.49,12a76.22,76.22,0,0,0,2.37,12.24,4.87,4.87,0,0,0,1.24,2.23,10.42,10.42,0,0,1,1.52,2.78c-.3-.27-.58-.55-.86-.83a13,13,0,0,0,3.31,3.86,6.17,6.17,0,0,0,2.63,1.1,6.43,6.43,0,0,0,2.81-.23,12.16,12.16,0,0,0,4.3-2.55,24.3,24.3,0,0,0,3.15-3.38,2.61,2.61,0,0,1-.5.83,11.84,11.84,0,0,0,2.83-3.74c.57-.72.26-.06.69-.46.87-.92,1.58-2.73,2.15-3.14.09-.07-.14.33-.25.53.38-.73,2.14-3.12,1.48-2.62,1.33-1.77,2.19-3.6,3.27-5,.35-1.13,2.13-3.09,2-3.63.29.37,2.36-3,2.95-4.27-.14.45.79-.91.64-.36.87-1.29,1.64-2.48,1.29-2.4a30.39,30.39,0,0,0,2.63-3.1c.74-.95,1.63-1.65,2.18-1.45a1,1,0,0,1,.38-.1,1,1,0,0,1,.46.45,4.52,4.52,0,0,1,.46,1.15,15.74,15.74,0,0,1,.43,2.8,52.39,52.39,0,0,1,.05,5.74c-.22-.09-.16-1.25-.14-2.35s0-2.17-.22-2.08a62,62,0,0,1-.14,10.19c-.15,1-.15-.6-.2-1-.14,4-.73,7.72-.44,11.38a2.62,2.62,0,0,1-.13-.78c0,.72,0,1.69.17,1.6l-.08-.71c.14-.57.3.14.48,1a8.91,8.91,0,0,0,.54,1.92c-.37-.56-.31.34-.1,1.19.06.21.11.42.16.6a3.28,3.28,0,0,1,.15.44c0,.2-.1.22-.56-.26a3.63,3.63,0,0,0,.55.75c.22.18.4.27.39.16a1.58,1.58,0,0,0,.47.42,1.07,1.07,0,0,1,.25.2c.06.08-.12.05-.67-.17.35.18.65.34.75.38a2.52,2.52,0,0,0,1.64-.06,3.36,3.36,0,0,0,.68-.38,14.13,14.13,0,0,0,1.55-1.26c.07.08-.28.43-.41.69.87-1,1.52-2,2.79-3.47,0,.13.18,0-.18.46,2-2.7,2.87-4.94,5-7.91-.2,1.14.77-1,1.19-.95l.92-1.72-.56.57c.89-1.46,1.44-2.89,2.3-4.08l-.52,1.16,1.59-2.77-1.06,1.48c.73-1.58-.5-.09.77-2-.21.41.89-1.46,1.54-2.1h0a12,12,0,0,1,1.43-2.61c.28-.21.21.44.39.3.17-.87,2.06-3.41,2.38-4.46-.13.34,0,.46.12.39l.17-.72c.51-.61.61-.69.67-.49,1.38-1.92-.83.34,1-1.85a3.7,3.7,0,0,1-.26.53,55.12,55.12,0,0,1,4.94-6.3c.78-.31-1.43,1.72-.61,1.29a25.5,25.5,0,0,1,3.88-4,6.62,6.62,0,0,1,2.35-1.22,3.19,3.19,0,0,1,2.36.25,3.71,3.71,0,0,0-.53-.26c.28-.2.9.1,1.41.7A25.35,25.35,0,0,1,701.86,22c-.23-.37-.53-.34-.42-.28a34.22,34.22,0,0,1,2.81,8.14l-.22-.43c.15,1.45.55,3.8.68,5.37.2.45.28,1.35.41.78-.18,4.93,1.37,9.21,1.29,13.6-.07-.51-.28-1.21-.23-.8.2,1.22.4,2.44.64,3.66.18-.33.06-.5.13-1.3a12.78,12.78,0,0,1,.62,2.36c-.43-1.61-.37.08-.36.82,0-.14.17.09.23,0,0,2,.48.23.83,2.86l-.15-.11c.31,1,.73,1.78,1.1,2.77-.09.52-.51-.94-.72-.93a16.13,16.13,0,0,0,2.36,3.7,6.89,6.89,0,0,1-1.44-1.74,4.74,4.74,0,0,0,.66,1.48,5.16,5.16,0,0,0,1,1l-.09-.08a3.75,3.75,0,0,0,2.86.85,6.57,6.57,0,0,1-.78,0,10.4,10.4,0,0,0,2.9-1.33,8.18,8.18,0,0,0,2.46-2.42c-1.43,2.06-.11.48,0,.82.52-.41,1.27-1.1,1.14-.84.61-1.08,1.46-1.45,2.18-3,.12,0,.74-1.05.79-.69.81-1.34-.35.22-.38,0,1.1-2.15,3.41-4.55,4.66-7.81,1.25-2.7,1.21-3.34,2.29-5.86.56-.76,0,.83,0,.83a19.18,19.18,0,0,0,1.78-3.61c-.05.29.14.06.43-.28.46-1,0-.84.77-2.13a4.61,4.61,0,0,1-.13,1.19c.49-1.24.88-2.51,1.37-3.81.31-.26-.11.87-.21,1.36a21.87,21.87,0,0,0,1.47-4.28l-.5.87c.22-.52.33-.17.21.23-.35,1.3-.88,1.71-1,1.74l.35-.92c-.93.68-1.55,3.62-2.43,5.4l0-.93-.56,2c-.28.35-.62.51-.25-.4-.8,1.19-.42,1.2-1.16,2.19-.09.1-.08,0,0-.08l-.51,1.29c0-.28-.36.07.07-.66-1.32,2.11-1.55,3.7-2.26,4.38l.07-.19c-1.52,3.09.13.44-.82,2.87l-1.51,1.14.09.44c-.18.31-.57.89-.61.72-.5,1.24.23-.12,0,.63-1.1,1.33-2.46,4-3.09,4-.17.64,1.1-1.21.16.36-.72.1-1.18,1.75-2.42,2.74.13-.52,1.16-1.55,0-.53a3.53,3.53,0,0,1-1.3,1.51c-.64.46-1.34.89-1.85,1.2.07.15-.5.6-1.38.79a3.05,3.05,0,0,1-1.43-.09,3.61,3.61,0,0,1-1.3-.83,17.37,17.37,0,0,1-1-1.9,18.1,18.1,0,0,1-1.07-3.67l.07,0c-.46-.28-.85-2.36-1.16-3.87.23,0,.36.29.6,1.08l-.24-1.41a6.18,6.18,0,0,1-.48-1.68l.33.32a45.69,45.69,0,0,1-.91-6.29c-.27-.12-.5,2-1-.56.13-.11.35-.23.48.45a6.25,6.25,0,0,1-.19-1.25l.35,1c0-1.14-.26-.57-.33-1.47.2,0,.07-.68.24-.57a7.14,7.14,0,0,0,.11,1.13,12.5,12.5,0,0,1,0-2.68c-.11.1-.27,0-.37-.71-.22-1.93.16-.69.14-1.82-.19-.46-.19-1.7-.48-1.7a1.57,1.57,0,0,1,.11-.91c-.24-1-.69-4.66-.83-3.49l0,.26a.75.75,0,0,1,0-.16h0c-.8-3.19-1-6.82-2.5-9.85l.09,0a9.8,9.8,0,0,0-1.91-2.59,3.79,3.79,0,0,0-2.6-1.08c-.6-.08-1.46-.11-1.22-.27a7.21,7.21,0,0,0-1.67.64c-.46.25-1,.5-2,1.1,1.19-1-.57.15,1.27-1a13.49,13.49,0,0,0-1.95,1.2,8.86,8.86,0,0,0-1.63,1.69c.33-.7-1.28.84-1.82,1.61.34-.31.7-.61,1.06-.91l-1.9,2.19.06-.6c-2.88,2.9-3.73,6.19-6,8.34-.38,1,1.32-1.71,1-.78-1,1.5-2.46,2.85-2.76,3.34-1.48,2-.82,2.23-2.28,4.4.27-.23.7-.33-.21,1.39-1,1.53-1.58,1.66-1.07.62.22-.37.36-.53.38-.5.27-.52.63-1.21.14-.66l0,.26c-.57.71-1.85,2.86-1.72,2.26-.61,1.23-.13.6.45-.24-1.36,1.91-1.89,3.12-3.24,5.09.25-.28.55-.51.35-.19-2,2.9-.62,1.44-1.85,3.47-.89,1-.1-.64-1.29,1.43-.91,1.14-.43.08-.19-.45a18.34,18.34,0,0,1-3.22,4.08l.61-.92a10.88,10.88,0,0,1-1.06,1.37l.59-.31c-.45.47-.82.85-.88.77-.34.57.65-.08-.13,1a15,15,0,0,1-1.25.92,1.42,1.42,0,0,1-.56.19.22.22,0,0,1-.23-.13,1,1,0,0,0,.63-.17c.08-.07,0-.1,0-.12s-.13,0-.1-.11.16-.15.54-.45a1.66,1.66,0,0,1-.91.47s0-.06.06-.09c-.12,0-.11-.06-.15-.07s-.1,0-.3,0-.47-.26-.67-1.31c.22.28.22-.62.14-1,.15,1-.25.56-.47-.42,0-1.74-.18-1.9-.17-2.82l-.06,1.06a8.17,8.17,0,0,1-.17-2.5c.13-.1.06,1.13.13.69-.27-1.39.46-3.11.4-5,.19-.89.34-.06.48-.84-.05-2.19.44-2.33.44-4.64-.29.64-.24.76-.34-.87l-.15,3.78-.14-2.45c-.1,1.14,0,2.41-.15,3.09-.1-1.17,0-1-.29-.52.49-1.52,0-3.09.43-4.87l.58.1c.44-2.71.09-4.84.08-8.46,0,.39,0,.78-.06,1.17-.24-.47-.09-2.22-.45-3.41.2.07.14-.69,0-1.28-.07,0-.13-.31-.46-.81a2.93,2.93,0,0,0-1.57-1.31c-.55-.14-1-.05-1.07.08a4.35,4.35,0,0,0-1.92.46,6.65,6.65,0,0,0-2.24,2.36,20.61,20.61,0,0,1-1.67,2.5c.34-.79-.55.12.47-1.45-.58.73-1.1,1.39-1,1.48-.43.36-1.26,2.23-1.88,2.83a3.79,3.79,0,0,1-.62,1.43c-.1.08-.08,0-.08,0s-.77,1.41-.1.78c-2,2-4.17,6.65-5.94,8.41-1,1.7-2.28,3.73-3.3,5.21,0-.13-.08-.06.13-.33-1.57,1.92-.4,1.59-2.25,3.73-1.13.94.77-1.3.13-.66-.74-.08-2,2.76-3.57,3.86l.28-.36c-1.11.88-2.19,2.74-4.14,3.89,0,0,.06-.11,0-.09a5.15,5.15,0,0,1-2.64,1.33,4.15,4.15,0,0,1-3.23-.9c.69.22.86.44.68,0-.38-.23-.39-.14-.49-.07s-.34.07-1-.64c-.36-.56-1-1.84-.87-2.14a14.55,14.55,0,0,0,1,1.49c-.29-.91-1.31-1.93-1.67-2.87l.2,0-1.31-2.61a13.67,13.67,0,0,1-1.08-3l0,.35c-.82-1.57-.16-1.45-.83-3.07l.28-.59c-.34-1.09-1.15-3.84-1.54-5.87.47,1.11,1,3.44,1.49,4.86a39.36,39.36,0,0,0-1-4.32,8,8,0,0,1,.31,1.45,22.33,22.33,0,0,1-1.28-5.35c.79.3-.57-5.88-.16-7.59-.37-2-.56-4-.75-6a59.45,59.45,0,0,0-.88-6.61c-.24,1.78-.29-1.32-.89-1a10.27,10.27,0,0,0-.77-1.87,1.52,1.52,0,0,0-1.11-.89c-.83.05-1.37.6-1.93,1.43-.32.47-.19.07.06-.41s.66-.92.59-.94a6,6,0,0,0-1.07,1.45,4.75,4.75,0,0,1-.38.59,1.64,1.64,0,0,0-.28.39,4.38,4.38,0,0,0-.4.74c.32-.26,0,.93-.41,2.25.26-.61.52-1.22.81-1.82a12.73,12.73,0,0,1-.93,3.05,9.25,9.25,0,0,0-.78,3.07l0-1.09c-.27,1.73-1.23,6.3-1,8.05-.12.29-.35.66-.27-.09-.76,4.06-.92,9.15-1.68,12.28l-.11-.34a8.66,8.66,0,0,1-.2,2.3c-.06-.06-.1-.33-.16,0a18.24,18.24,0,0,1-.27,3.05l0-.88c-.78,3.94-.49,6.15-.91,9.49-.44-.08-1.08,3-1.48,4.46l-.05-.06A11.85,11.85,0,0,1,604,62s0,.05,0,0-.1-.07.2.1.66.35.81.6,0,.13.22-.06c.07,0,.28-.13.45-.17l.26-.07.35-.09a2.4,2.4,0,0,1-.06-.5c0-.92,0-1.92-.07-2.88,0-2,0-3.86-.06-6,.61-2.68.47-9.16.24-13.59,0,.68-.34-.07-.48-.85,0-1-.72-2.78-.3-2.69l.06.37c.26-.84-.26-3-.84-4.61l-.6-.09a9.18,9.18,0,0,0-1.48-3.55,7.26,7.26,0,0,0-3.47-2.76,7.53,7.53,0,0,0-4-.33c-1.16.17-2,.47-2.7.54a21.11,21.11,0,0,0-3,1.88l-.1-.27a39.59,39.59,0,0,0-6.36,4.8l.42-.63c-1.54,1.3-1.38,2.27-2.73,3.51l-.7.05c-2.57,2.33-5.38,4.43-7.71,6.91,0-.08,0-.24.41-.61-.61.52-1.85,1.47-2.84,2.28s-1.75,1.46-1.35,1.51c-.25-.26-2.82,2.08-4.32,3.14l.09-.39a9.24,9.24,0,0,1-3,2.27c-.48.18-.49,0,.15-.23-1.59.56-1.1.81-3.08,1.34a5.13,5.13,0,0,0,.66-.41c-.81.3-1.2.36-1.47.51s-.45.27-.9.44c-1.06.37-3.28.27-3.49-.07a2.23,2.23,0,0,1-.8.17,4.69,4.69,0,0,1-1.37-.19c-.11-.12.26-.11.45-.1a23.19,23.19,0,0,1-3.22-1.07A6.54,6.54,0,0,1,546,48.67c0-.1,0-.21-.15-.34.44.35.85.69,1.25,1l1.06.67a7.09,7.09,0,0,1,.92.47c.09-.25-1.45-1,0-.76a6,6,0,0,1-1.13-.41,7.16,7.16,0,0,1-1.29-.66c-.21-.13-.43-.26-.65-.41l-.59-.48a6.45,6.45,0,0,1-1-1,2.34,2.34,0,0,1-.09-.24l.15.12c-.26-.31-.52-.58-.76-.83-.31-.48-.51-.78-.82-1.24a21.34,21.34,0,0,0-1.49-2.65c-.21.21-.75-.89-.41.23,0-.15.1.15.44.67.08.12.17.26.23.33l-.06,0c.31.54.76,1.19,1.28,1.93a5.68,5.68,0,0,1-1.47-2.07,12.27,12.27,0,0,1-1-.92,36.92,36.92,0,0,1-1-4.09c-1.3-2.57-2.58-6.3-3.69-7.86a2.14,2.14,0,0,1-.21-1.27,12.07,12.07,0,0,0,.56,1.2c-.68-1.52-1.72-4.64-2.21-4.88-.61-2,.75,1-.36-1.69l.25.32A17.19,17.19,0,0,0,530,16.92a10,10,0,0,0-3-2.48,6.63,6.63,0,0,0-4.56-.42,1.59,1.59,0,0,1,.81-.1,9.7,9.7,0,0,0-4.87,2.9l-1,1-.87,1.1c-.61.73-1.1,1.52-1.63,2.29-2,3.12-3.73,6.38-5.5,9.47A10,10,0,0,0,508.17,34l-.46.28c-.18.68-.37,1.36-.53,2.06a20.77,20.77,0,0,1-1.79,3.77,17.89,17.89,0,0,0-1.77,4.42l.36-.38c-.54,1.24-1.38,4.06-1.52,3.76a1.63,1.63,0,0,1-.23,1l-.16,0-.87,3.22c-.94,2.4-.47-.59-1.71,3-.39,1.35-.84,3.92-.57,3.46s.56-1.34.72-1.33l-.33,1.24c.37.37.5,1.44,1.82-1.42l.43-2.15.44-.59L501.42,56a5.66,5.66,0,0,0,.69-2.34,2.25,2.25,0,0,0,.52-.78c.09-.73.2-1.44.3-2.16.26-.19,0,1,.6-.3.14-1-.71.77-.28-.84.56-.9.61-.56.86-1.77.17-.12.15.15,0,.62.23-1.07.92-2.72.91-3.33.63-.92,1.26-3.45,1.63-3.19a14,14,0,0,1,.76-2.83c-.21,1.89,1.45-3.43,1.8-2.76.12-1.41,1.77-4.52,2.63-6.74a1.7,1.7,0,0,1-.19.58A14.31,14.31,0,0,1,513.11,28c-.26-.32.62-2.22,1-3.29,1.17-1.2-.12,1.08.46.82-.32-.09,1.19-2.56.68-2.23.85-.93.69-.83,1.31-1.18-.26-.44.55-1,1-2,.66-.61.81-.62,1-.68s.23-.19.84-.91C520,18,519,19.29,519,19.29Zm24.39,28.94h0l-.7-.75C542.86,47.63,543.06,47.85,543.41,48.23Zm3.24,2.68a13.63,13.63,0,0,1-1.49-1.08c0-.16.14-.14.46.12C545.41,49.86,546.13,50.53,546.65,50.91Zm-4.4-7.4c.37.49.45.68.44.79-.16-.24-.37-.5-.61-.88l-.07,0A.52.52,0,0,1,542.25,43.51Z" transform="translate(-0.01)"/><path class="cls-1" d="M541.37,42.75a2.37,2.37,0,0,1-.15-.21c0,.12.09.24.13.35l.19.14Z" transform="translate(-0.01)"/><path class="cls-1" d="M705.42,31.71v-.08a1,1,0,0,1,0,.18A.25.25,0,0,1,705.42,31.71Z" transform="translate(-0.01)"/><polygon class="cls-1" points="594.12 27.46 594.09 27.4 593.81 27.56 594.12 27.46"/><path class="cls-1" d="M707.21,53.87a.71.71,0,0,0,0,.3A1,1,0,0,0,707.21,53.87Z" transform="translate(-0.01)"/><path class="cls-1" d="M711.05,62.9a3.68,3.68,0,0,0,1.47.72A4.16,4.16,0,0,1,711.05,62.9Z" transform="translate(-0.01)"/><path class="cls-1" d="M718.36,60.89a.27.27,0,0,0,0-.19h0Z" transform="translate(-0.01)"/><path class="cls-1" d="M661.05,53c0-.1,0-.2,0-.29C661,52,661,52.48,661.05,53Z" transform="translate(-0.01)"/><path class="cls-1" d="M680.75,38.2c-.15.34-.3.67-.47,1C680.62,38.7,680.87,38.29,680.75,38.2Z" transform="translate(-0.01)"/><path class="cls-1" d="M654.44,34.5h0l-.13.2Z" transform="translate(-0.01)"/><path class="cls-1" d="M679.43,40.6a9.6,9.6,0,0,0,.85-1.38A13.79,13.79,0,0,0,679.43,40.6Z" transform="translate(-0.01)"/><path class="cls-1" d="M734.46,33.17l.16-.32s0,0,0-.06Z" transform="translate(-0.01)"/><path class="cls-1" d="M734.59,32.79l.13-.37A1.49,1.49,0,0,0,734.59,32.79Z" transform="translate(-0.01)"/><path class="cls-1" d="M735,31.63l-.28.79A2.8,2.8,0,0,0,735,31.63Z" transform="translate(-0.01)"/><path class="cls-1" d="M730.2,42l0,.15A.17.17,0,0,0,730.2,42Z" transform="translate(-0.01)"/><path class="cls-1" d="M728.89,44.63a23.15,23.15,0,0,0,1.38-2.4l0-.12C730.17,42.6,729,44,728.89,44.63Z" transform="translate(-0.01)"/><path class="cls-1" d="M721.66,54.73c.48-.67.94-1.35,1.4-2-.33.31-.75.71-.18-.25C721,54.89,723.45,52.05,721.66,54.73Z" transform="translate(-0.01)"/><path class="cls-1" d="M716.78,60.48c.89-.93-.12-.11-.1-.2C716.14,60.87,716,61,716.78,60.48Z" transform="translate(-0.01)"/><path class="cls-1" d="M696.63,18l.09-.28C695.59,18.11,696.73,17.83,696.63,18Z" transform="translate(-0.01)"/><polygon class="cls-1" points="689.35 25.86 690.09 25.19 690.21 24.68 689.35 25.86"/><polygon class="cls-1" points="684.19 29.88 684.41 29.48 683.52 30.97 684.19 29.88"/><path class="cls-1" d="M646.52,42.23l.44-.09C647.28,41.52,647.06,41.21,646.52,42.23Z" transform="translate(-0.01)"/><path class="cls-1" d="M622.7,50.46a5.53,5.53,0,0,0-.45-2.2C622.44,49.14,622.54,50,622.7,50.46Z" transform="translate(-0.01)"/><path class="cls-1" d="M603.69,29.33c.18.24.33.49.49.75a14.17,14.17,0,0,0-.86-1.45C603.45,28.86,603.58,29.09,603.69,29.33Z" transform="translate(-0.01)"/><path class="cls-1" d="M293.5,104.17c0-.23-.2-.22-.46.33l.08.53Z" transform="translate(-0.01)"/><path class="cls-1" d="M291,107.4c-.21.7-.37,1.55.12,1.3.07-.77.27-.85.31-1.69.27-.55.61-.87.67-.72,0-.23.52-.78.5-1.16a5.61,5.61,0,0,0-1.43,2.42C291,107.71,291,107.48,291,107.4Z" transform="translate(-0.01)"/><path class="cls-1" d="M256.12,137.61l0,.38A1.82,1.82,0,0,0,256.12,137.61Z" transform="translate(-0.01)"/><path class="cls-1" d="M243.44,110.38c.22-.19.3-.28.3-.32C243.53,110.24,243.37,110.39,243.44,110.38Z" transform="translate(-0.01)"/><path class="cls-1" d="M238.71,114.65l.26-.27A.81.81,0,0,0,238.71,114.65Z" transform="translate(-0.01)"/><path class="cls-1" d="M256.12,137.61c0-.32-.05-.64-.06-1C255.94,136.6,256.05,137.15,256.12,137.61Z" transform="translate(-0.01)"/><path class="cls-1" d="M287.6,114.83a2.64,2.64,0,0,0,.19-.5c-.07.15-.14.29-.22.44Z" transform="translate(-0.01)"/><path class="cls-1" d="M266,141.67l.22-.19a1.06,1.06,0,0,0,.09-.25Z" transform="translate(-0.01)"/><path class="cls-1" d="M274.05,132.6c-.18.21,0,.46,0,.62a1.15,1.15,0,0,1,.21-.6S274.17,132.57,274.05,132.6Z" transform="translate(-0.01)"/><path class="cls-1" d="M285.2,116.62l.15-.32Z" transform="translate(-0.01)"/><path class="cls-1" d="M259.06,143.55a.19.19,0,0,0,0-.13S259,143.49,259.06,143.55Z" transform="translate(-0.01)"/><path class="cls-1" d="M80.86,137.13s0,0,0,0S80.82,137.05,80.86,137.13Z" transform="translate(-0.01)"/><path class="cls-1" d="M76.36,123.44l.08.18a.47.47,0,0,0,.17,0Z" transform="translate(-0.01)"/><path class="cls-1" d="M231.56,123.66l0,0C231.74,123.36,231.65,123.5,231.56,123.66Z" transform="translate(-0.01)"/><path class="cls-1" d="M190.47,131.2c.76-.94-.57,1.86.48.4C190.77,131.7,191.28,130,190.47,131.2Z" transform="translate(-0.01)"/><path class="cls-1" d="M287.4,115.09l-.25.43C287.27,115.33,287.35,115.19,287.4,115.09Z" transform="translate(-0.01)"/><path class="cls-1" d="M191,131.6h0l.11-.15Z" transform="translate(-0.01)"/><path class="cls-1" d="M216.77,145.17a.77.77,0,0,0,.27-.12S216.94,145.06,216.77,145.17Z" transform="translate(-0.01)"/><path class="cls-1" d="M228.29,129.55l-.29.38C228.12,129.78,228.22,129.66,228.29,129.55Z" transform="translate(-0.01)"/><path class="cls-1" d="M210,149.73a4.11,4.11,0,0,0-.37-.38l0,.08A1.35,1.35,0,0,1,210,149.73Z" transform="translate(-0.01)"/><path class="cls-1" d="M207.67,140.36c0,.06,0,.13,0,.2l0,.33Z" transform="translate(-0.01)"/><path class="cls-1" d="M104.26,158.76a2,2,0,0,1-.53-.25C103.91,158.72,102.2,158.74,104.26,158.76Z" transform="translate(-0.01)"/><path class="cls-1" d="M287.46,114.75a.46.46,0,0,1-.06.34c.06-.11.12-.21.17-.32S287.52,114.7,287.46,114.75Z" transform="translate(-0.01)"/><path class="cls-1" d="M208.16,151.08a6.46,6.46,0,0,1-1.16-1.82A5.57,5.57,0,0,0,208.16,151.08Z" transform="translate(-0.01)"/><path class="cls-1" d="M155.47,112.08l-.28-.21A.85.85,0,0,0,155.47,112.08Z" transform="translate(-0.01)"/><path class="cls-1" d="M205.72,144a5.55,5.55,0,0,0,.09-1,.67.67,0,0,0-.09-.19Z" transform="translate(-0.01)"/><path class="cls-1" d="M103.73,158.51Z" transform="translate(-0.01)"/><path class="cls-1" d="M92.78,154.44c1.29,1.11.85.23,1.25.29,1.64,1.14.58.77,1,1.34a30.46,30.46,0,0,0,3,1.23c0,.08.2.18,0,.16.68.14,1.6.53,2.62.76a7.25,7.25,0,0,0,2.88.19.57.57,0,0,1,.21.1c-.26-.18-.28-.39-.23-.51.75,0,1.36-.26,1.66-.06a1.41,1.41,0,0,0-.7.22c.26,0,.52-.11.77-.16.75.28-1.06.22-1,.44a20.86,20.86,0,0,0,4.37-1.16c.18.13-.47.38-1,.56s-.86.26,0,.21a16.47,16.47,0,0,1-1.85.26c1.5.29-1.14.14.26.5a8.84,8.84,0,0,0,2.58-.69c.64-.28,1.27-.56,2.37-1.09.39-.42-.29-.16.1-.58a7.78,7.78,0,0,1,2.58-1.38,3.08,3.08,0,0,0,1.83-1.28,4.09,4.09,0,0,1,1.63-2.11l-.15.69a3.94,3.94,0,0,0,1.09-1.44,4.26,4.26,0,0,1,1.21-1.43c-.17.42-1.09,1.41-.83,1.18,1.25-.94.57-1,1.33-1.84l.41,0c1.51-1.88,2.89-4.13,4.33-6.33,0,.18-.17.61.26.16,1.75-2.82,3.94-5.88,5.78-8.48l.39-1.19c.15-.24.39-.37.28-.08.74-1-.13-.16.09-.72s.63-.71.47-.28a39.73,39.73,0,0,1,4.29-7.34l-.16.42c1-1.43.57-2,1.72-3.25l-.14.3c2.22-3.15,4.58-6.75,7-8.43,0-.35.74-1,1.43-1.49s1.38-1,1.33-1.28a6.31,6.31,0,0,1,1.79-.52,7.91,7.91,0,0,1,2.23-.16,3.46,3.46,0,0,0,.87-.1,3.21,3.21,0,0,1,1,0l-.09.29a6.66,6.66,0,0,1,1.2.27l.32.67a5.41,5.41,0,0,1,.69.49c-.24-.24-.44-.6-.35-.63a5,5,0,0,1,1.95,2.79c.36.42.66.9,1,1.36l.9,1.47c-.14,0-.45-.51-.72-.88,1.11,1.49-.13.42.84,1.83,0-.24.22,0,.29,0a35.16,35.16,0,0,0,1.44,4l-.29-.2c.81,2.48,1.78,5.23,2.58,8.09-.19-1.06.23-.92.5-.09l-.22.42c.35.49-.13-.91.43.14.26,1.08-.16.82-.43.23l.47,1.27c-.07.1-.21-.19-.35-.23.34.47.32,2.34.88,3l-.07.1c.82,2.88,1.32,4.16,2.14,6.49.28,0,.55.89,1,1.5a21.86,21.86,0,0,0,2.49,5.63c1.09,1.24.48.24,1.06.72-.21.29,1.62,1.94.57,1.21a6.21,6.21,0,0,0,3.2,1.65,5.82,5.82,0,0,0,4.06-.77c-.39.09-.83.19-.65,0,.6-.26,1.37-.56,1.35-.41l-.13.11a34.87,34.87,0,0,0,4.76-4.14,15.87,15.87,0,0,0,3.23-4.5l-.07.16c.47-.92.92-1.84,1.34-2.77.75-1.19-.25.83.41,0,1.26-3.08,2.55-4.54,3.53-7.07,1.63-1.52,3.22-6.66,4.88-9l-.24.07c.17-.73.48-.74.75-1.2-.16,0-.49.63-.38.19a57.64,57.64,0,0,1,4.45-8.16,18,18,0,0,1,1.36-1.8,5.19,5.19,0,0,1,1.38-1.24c.12,0,.16,0,.16.08s.06.11.1.22a3,3,0,0,1,.13.39c.08.29.16.61.22,1a3.5,3.5,0,0,0,.63,1.65,3.24,3.24,0,0,1,.25,2.25l-.36-.79c.61,4.51-.08,9.38.13,13.93a1.53,1.53,0,0,1-.15-.73,8.49,8.49,0,0,0,.08,3.58c0,.71-.18.16-.29.6-.16,1,.27,2.44,0,2.95,0,.09-.08-.27-.1-.45.11.64,0,3,.26,2.35-.11,1.74.21,3.31.17,4.71.37.87.22,3,.74,3.25-.24,0-.18.78.1,1.73a6,6,0,0,0,1.45,2.53c-.18-.14,0,.12.14.37s.42.49.11.37a3.59,3.59,0,0,0,2.27.93c.63,0,.91-.18.76-.26a3.8,3.8,0,0,0,2.08-.5,7.6,7.6,0,0,0,1.45-1.08,7.16,7.16,0,0,1,2.13-1.69,91,91,0,0,0,6.12-8.56c.31.36-2.1,3-1.64,3.16,1.73-2.65,2.42-4.37,4.25-6.88.5-.63-.09.49-.18.76,1.6-2.7,3.38-5,4.71-7.45a1.66,1.66,0,0,1-.22.56c.29-.47.76-1,.55-1.09l-.25.48c-.73.56.69-2.15.62-2.32,0,1.1,1.65-2.19,1.44-.55.17-.32.34-.75.18-.76.33-.42.49-.51.32,0,1-1.67.43-1.22,1.45-2.68.07.07-.1.38-.11.6a10.11,10.11,0,0,1,1.65-2.86c0,.11.16,0-.1.37,1.47-2.08,2.16-3.84,4.11-5.87-.2.91.72-.64,1.1-.49.3-.4.61-.79.92-1.17l-.54.31a16.52,16.52,0,0,1,2.46-2.58c-.22.23-.41.5-.62.74a18.9,18.9,0,0,1,1.81-1.56c-.39.22-.78.45-1.16.71.91-1-.43-.31,1.05-1.25-.29.22,1.11-.74,1.82-.73h0a2.71,2.71,0,0,1,2.08-.47c.2.15-.24.39-.1.49a1.75,1.75,0,0,1,1.47.43,1.6,1.6,0,0,1,.4.33c.12.13.26.23.37.35a3.25,3.25,0,0,0,.58.59c-.2-.18-.38-.08-.37,0a3.55,3.55,0,0,1,.47.32c.2.55.18.65,0,.63.59,1.66.28-.73.78,1.36a3.47,3.47,0,0,1-.22-.39,30.93,30.93,0,0,1,1.24,6.06c-.3.64-.32-1.73-.55-1a73.49,73.49,0,0,1,1.13,8.78v-.53c.56.36-.12,2.12.23,3.54-.06-.35-.32-.44-.26-.35a39.66,39.66,0,0,0,1,6.89l-.19-.34a21.7,21.7,0,0,0,.79,4.27c.22.33.49,1,.51.53a5.9,5.9,0,0,0,1.14,2.75,4.11,4.11,0,0,0,2.59,1.57,5.75,5.75,0,0,0,2.82-.36c.84-.34,1.65-.7,2.46-1.06-.35.23-.79.64-.5.46a18.45,18.45,0,0,0,2.33-1.86c-.33,0-.38.15-1,.38a10.18,10.18,0,0,1,1.3-1.41c-.86,1,.26.27.77,0-.12,0,0-.18-.12-.2,1.38-.77-.12-.49,1.51-1.78v.17c.49-.6.84-1.24,1.42-1.84.43-.08-.45.7-.32.88.77-.88,1.13-2.07,2-2.72-.25.44-.71,1-1,1.41a6.18,6.18,0,0,0,1.58-1.47l-.05.06c.45-.48.89-1,1.34-1.48l-.38.35c.35-1.58,1.7-2.45,2.48-4.32-.77,1.8,0,.4.18.7.36-.36.87-.93.82-.71.34-.9,1.05-1.16,1.5-2.45.12,0,.56-.82.65-.51.61-1.05-.3.14-.34,0,.76-1.73,2.76-3.44,3.8-6,1.07-2.05,1-2.59,2-4.51.51-.53,0,.7,0,.7a12.61,12.61,0,0,0,1.63-2.7c0,.24.14.08.4-.15.43-.77,0-.69.71-1.62a2.84,2.84,0,0,1-.11,1c.45-.94.82-1.92,1.28-2.9.29-.16-.1.69-.2,1.08a13.35,13.35,0,0,0,1.39-3.25l-.47.62c.21-.38.32-.08.2.23-.34,1-.83,1.25-.95,1.25l.33-.7c-.88.4-1.46,2.71-2.28,4l0-.76-.51,1.53c-.27.24-.58.31-.25-.37-.74.84-.37.92-1.06,1.61-.08.07-.07,0,0-.07l-.45,1c0-.22-.34,0,.05-.53-1.21,1.53-1.36,2.82-2,3.28l.07-.15c-1.31,2.35.12.38-.65,2.28l-1.37.73.12.39c-.16.23-.48.67-.53.52-.39,1,.21-.07.05.54-1,1-1.93,3.14-2.5,3.11-.08.53.86-1,.19.31-.65,0-.85,1.41-1.75,2.27,0-.46.77-1.32-.13-.46,0,.86-1.45,1.86-2,2.73.26.26-1.21,1.88-2.21,3.28,0-.15-2.21,2.37-3.42,3.4v-.08c.06.48-1.15,1.6-2,2.43-.1-.19,0-.4.4-.9-.27.25-.54.51-.82.73a3.15,3.15,0,0,1-.89,1l.05-.38c-.57.44-1.11.93-1.76,1.35a4.32,4.32,0,0,1-2.26.82c0,.13.34.28.52.39s.15.36-.93.54c-.08-.16-.14-.33.36-.46a2.06,2.06,0,0,1-.94.07,5.77,5.77,0,0,0,.77-.23c-.4,0-.5,0-.6,0s-.16.14-.49,0c.05-.18-.43-.24-.28-.37s.5.22.74.16a2,2,0,0,1-1.45-.91c0,.11-.18.25-.56-.11s-.46-.66-.43-.74.13-.11,0-.45-.54-1.08-.81-1a1,1,0,0,1,0-.69c-.41-.64-.91-3.41-1-2.51l0,.2,0-.12h0c-.79-2.44-.59-5.24-.91-7.75h.1c-.23-1.5-.3-3.36-.58-4.42,0-.45.11-1.07.24-.89a13,13,0,0,1-.24-3c.26,1.15.12-.42.22,1.18a10.39,10.39,0,0,0-.34-3.46c.32.52.2-1.18,0-1.89l0,1.08c-.14-.8-.21-1.51-.31-2.23l.39.34a10.87,10.87,0,0,0-1.07-4.25c-.59-1.27-1.18-2.37-1.9-3.62-.42-.27-.1.13.2.52s.48.86.15.6a7.76,7.76,0,0,0-1.49-1.83c-.3-.22-.6-.41-.85-.56a4.45,4.45,0,0,0-.64-.22,2.91,2.91,0,0,0-2.29.37c-.49.28-.92.59-1.88,1.09.32,0,.63.07-.58,1s-1.7.74-1.05.06c.27-.23.44-.3.45-.26.34-.33.86-.72.29-.49a1,1,0,0,0-.09.21c-.7.32-2.2,1.7-2,1.24-.73.85-.22.46.43,0a27.53,27.53,0,0,0-3.43,3.4c.24-.19.53-.31.33-.08-1.9,2-.62,1.08-1.75,2.57-.8.73-.11-.57-1.14,1-.8.85-.4,0-.2-.42a22.1,22.1,0,0,1-2.65,3.28l.45-.8a13.42,13.42,0,0,1-.79,1.21l.5-.29c-.34.41-.6.78-.68.72-.19.53.56-.12.12.89-.51.51-1.12,1.84-1.52,1.87,1.35-1.78-.4,0,.63-1.56a7.51,7.51,0,0,1-.77,1.1c-.07,0,0-.1.06-.23-1.43,1.6-.26,1-1.49,2.83,0-.33-.57.24-.74.56.5-.74.49-.19.15.56a11.41,11.41,0,0,0-1.19,1.94l.52-.67a6.41,6.41,0,0,1-.91,1.76c-.16,0,.41-.79.17-.54-.34,1.08-1.63,1.88-2.3,3.26-.49.52-.31-.13-.72.34-.75,1.54-1.22,1.39-2.07,3,.49-.29.49-.4,0,.77l1.5-2.52-.76,1.76c.5-.74.92-1.64,1.25-2.06-.34.86-.34.75.06.51-1,.8-1.17,2.11-2.17,3.13l-.46-.37c-1.41,1.57-1.88,3.24-3.65,5.3l.61-.63c0,.44-1,1.35-1.47,2.09-.1-.18-.5.19-.83.4.14.07-1.29,1.47-1.18,1.9-.34.23-.68.44-1,.66a12.21,12.21,0,0,0-1.56,1.61,3,3,0,0,1-1.74,1.13c.47-.36-.32-.21.71-.8-.55.27-1,.31-1,.44-.16-.05-.48,0-.83,0a1,1,0,0,1-.8-.56,1.13,1.13,0,0,1-.8-.7c0-.09.09,0,.09,0s-.58-1-.53-.32c-.13-1.08-.47-2.5-.67-4a11.59,11.59,0,0,1-.11-3.85c-.13-1.53-.21-3.39-.21-4.79.06.09.1,0,.08.27.2-1.93-.56-1.2-.31-3.4.35-1.12.15,1.17.29.47.65-.28,0-2.66.41-4.13l0,.36c.26-1.13-.15-2.78,0-4.64,0,0,0,.09.09,0a44.1,44.1,0,0,1-.43-5.49c.25.56.13.82.39.48,0-.81-.41.23-.5-1.37.14-.52.22-1.69.49-1.86L208,118c.35-.79-.07-2-.07-2.79l.16.09a9.4,9.4,0,0,0-.51-2.39c-.11-.3-.22-.61-.35-1a9.48,9.48,0,0,0-.63-1.5c0,.1,0,.21,0,.31-.51-.58-.75-.84-1-1.08a1.19,1.19,0,0,0-1.46-.12,3,3,0,0,0-.65-.14c-1,.64-2.17,2.65-2.95,4.06a10.74,10.74,0,0,1,2.08-3.63,8.56,8.56,0,0,0-2.15,3,4.24,4.24,0,0,1,.61-1,29.09,29.09,0,0,1-1.91,3.94c-.55-.66-2.36,4-3.43,4.89-1.14,2.94-2.83,5.54-4.4,8.82,1.11-.89-.46,1,.19,1a4.39,4.39,0,0,1-.57,1.11l-1.49,2.11c-.44.46.25-.77.09-.76-.89,1.61-.59.56-1.3,1.57.31-.12,0,.71-.6,1.59l.95-1.17c-.94,2.43-1.5,1.72-2.51,4.11l.25-.8c-.55,1.22-2.52,4.14-2.9,5.44-.2.15-.51.3-.21-.19-.94,1.24-1.91,2.66-3,3.83a6.29,6.29,0,0,1-3.36,2.2l.14-.2c-.43.18-.76.5-1.35.36,0-.06.18-.14,0-.16a2.53,2.53,0,0,1-1.77-.31l.55.06a10.4,10.4,0,0,1-2.55-2,11.35,11.35,0,0,1-2-2.69c.38-.19-.47-2.39-.78-3.57l.07,0c-1.16-3.35-2.22-5.69-3.32-8.89-.11-2.14-1.69-6.9-2.54-10.23.1.52-.35,0-.58-.53-.17-.79-1.05-2-.62-2l.09.27c.17-.71-.53-2.23-1.09-3.43l-.57,0a11.9,11.9,0,0,0-3-5.27,13.15,13.15,0,0,0-2.34-1.94c-.78-.47-1.47-.85-2-1.13a7,7,0,0,0-3,0l0-.28a8.66,8.66,0,0,0-3.16.9,13,13,0,0,0-2.91,2c.11-.18.22-.36.34-.54-1.32,1.06-1,2-2,3l-.61,0a30.27,30.27,0,0,0-5,6.53c0-.08-.08-.21.16-.58-.76,1-3,4-2.25,3.9-.34-.18-1.54,2.34-2.16,3.67l-.12-.34a8.89,8.89,0,0,1-1.1,2.84c-.24.33-.38.19,0-.24-.84,1.08-.33,1-1.32,2.37l.17-.62a4.32,4.32,0,0,0-.83,1.9,6.26,6.26,0,0,1-1.78,2.25,3.17,3.17,0,0,1-.7,1.65c-.14,0,0-.24,0-.39-1.4,1.87-1.59,3.09-2.71,4.27-.1,0-.19,0-.29.13,1-1.52,1.85-2.77,1.79-2.64-.21-.14-1.06,1.08-.71-.1a19.26,19.26,0,0,1-2.2,4.16.87.87,0,0,1-.18.11l.06-.14a4.12,4.12,0,0,0-.49.77c-.31.35-.5.57-.76.92-.27,0-1.1,1.3-1.56,1.87.26.13-.38.86.37.29-.09.08.06-.13.34-.53a1.46,1.46,0,0,0,.17-.27v.06l1.08-1.49a4.26,4.26,0,0,1-1.11,1.68c-.09.41-.2.86-.28,1.1-.92.57-2.34,1.91-2.7,2-.68.89-1.55,1.87-2.36,2.76a17.36,17.36,0,0,0-2,2.34c-.46.45-.67.32-.91.4a5.24,5.24,0,0,0,.71-.7,16,16,0,0,1-1.84,1.48c-.66.48-1.23.86-1.28,1.09-1.49.55.65-.66-1.27.3l.22-.22a32.36,32.36,0,0,1-5.33,1.3A7.85,7.85,0,0,1,98,155.35c.27.19.41.29.44.38A30.29,30.29,0,0,1,87,143.82a7.42,7.42,0,0,0-1.66-2.11l.09-.44L84.32,140c-1.34-1.91-1.24-3.85-2.92-6.27l0,.43c-.42-1-1.51-3-1.22-2.91a1,1,0,0,1-.4-.64l.13-.09-1.27-2.26c-.67-1.9.69,0-.39-2.66-.47-1-1.57-2.7-1.52-2.28s.32,1.07.18,1.16l-.44-.89c-.5,0-1.22-.55-.63,1.86l.91,1.48v.6l-.56-1.33A3.46,3.46,0,0,0,77,128a1.38,1.38,0,0,0,.05.76l1.07,1.37c-.09.26-.64-.55-.27.53.5.64.06-.86.71.28.14.84-.11.69.45,1.49,0,.18-.21,0-.41-.3A14.24,14.24,0,0,0,80,134.42c.12.89,1.33,2.57.9,2.69A12.22,12.22,0,0,1,82.29,139c-1.15-1,1.38,2.62.73,2.55.92.7,2.14,3.25,3.45,4.67a1,1,0,0,1-.35-.35,20.61,20.61,0,0,1,1,1.87c.39-.12,1.46,1.17,2.22,1.72.54,1.25-.87-.33-.89.21.2-.24,1.73,1.58,1.64,1.06.5.91.49.72.61,1.33.49-.21.71.65,1.54,1,.92,1.19,0,.61,1.3,1.58C94,155.26,92.78,154.44,92.78,154.44Zm31.58-11.95h0l-.43.64Zm1.76-2.61-.76,1.13c-.14,0-.16-.12,0-.38C125.34,140.81,125.79,140.22,126.12,139.88Zm-5.38,4.31c.26-.41.4-.51.49-.53l-.48.71v.06A.64.64,0,0,1,120.74,144.19Z" transform="translate(-0.01)"/><path class="cls-1" d="M120.5,145.12a1.06,1.06,0,0,1-.1.17l.23-.19,0-.19Z" transform="translate(-0.01)"/><path class="cls-1" d="M256.16,138.05V138a.59.59,0,0,1,0,.14S256.16,138.08,256.16,138.05Z" transform="translate(-0.01)"/><path class="cls-1" d="M153,110.51l0-.07a1.77,1.77,0,0,0-.23,0A1.8,1.8,0,0,1,153,110.51Z" transform="translate(-0.01)"/><path class="cls-1" d="M268.09,141.53a.6.6,0,0,0,.22-.11A.8.8,0,0,0,268.09,141.53Z" transform="translate(-0.01)"/><path class="cls-1" d="M273.19,136l.74-.78Z" transform="translate(-0.01)"/><path class="cls-1" d="M276.79,131.45a.45.45,0,0,0,0-.16h0Z" transform="translate(-0.01)"/><path class="cls-1" d="M230.08,130.26l-.11.19C229.73,130.91,229.9,130.61,230.08,130.26Z" transform="translate(-0.01)"/><path class="cls-1" d="M246.78,109.59c-.24.14-.46.3-.69.46C246.5,109.85,246.82,109.74,246.78,109.59Z" transform="translate(-0.01)"/><path class="cls-1" d="M208.34,151.27s0,0,0,0l-.19-.19C208.22,151.14,208.27,151.21,208.34,151.27Z" transform="translate(-0.01)"/><path class="cls-1" d="M245.06,110.67c.41-.22.73-.42,1-.62A4,4,0,0,0,245.06,110.67Z" transform="translate(-0.01)"/><path class="cls-1" d="M290.21,110.41l.15-.23a.05.05,0,0,1,0-.05Z" transform="translate(-0.01)"/><path class="cls-1" d="M290.33,110.13l.13-.29A.92.92,0,0,0,290.33,110.13Z" transform="translate(-0.01)"/><path class="cls-1" d="M290.72,109.25l-.26.59A1.57,1.57,0,0,0,290.72,109.25Z" transform="translate(-0.01)"/><path class="cls-1" d="M286.23,116.91l0,.13A.15.15,0,0,0,286.23,116.91Z" transform="translate(-0.01)"/><path class="cls-1" d="M285.06,118.9a14.54,14.54,0,0,0,1.25-1.76l0-.1C286.22,117.43,285.19,118.37,285.06,118.9Z" transform="translate(-0.01)"/><path class="cls-1" d="M278.81,126.36l1.13-1.57c-.27.23-.64.52-.18-.23C278.16,126.41,280.25,124.28,278.81,126.36Z" transform="translate(-0.01)"/><path class="cls-1" d="M275.27,131.18c.57-.87-.14-.08-.15-.16C274.81,131.6,274.74,131.75,275.27,131.18Z" transform="translate(-0.01)"/><path class="cls-1" d="M255.06,124.63l.26.08C255.23,123.92,255.22,124.71,255.06,124.63Z" transform="translate(-0.01)"/><polygon class="cls-1" points="252.86 116.55 252.83 117.33 253.12 117.66 252.86 116.55"/><path class="cls-1" d="M253.22,111.25c.06.11.14.22.2.34a9.89,9.89,0,0,0-.8-1.3A7.61,7.61,0,0,1,253.22,111.25Z" transform="translate(-0.01)"/><path class="cls-1" d="M208,142.19l-.29.26C207.83,143,208.18,143.06,208,142.19Z" transform="translate(-0.01)"/><path class="cls-1" d="M206.87,110.63a1.84,1.84,0,0,0-.48-1,1.71,1.71,0,0,0-1.28-.62,2.09,2.09,0,0,1,1.24.79A5.07,5.07,0,0,1,206.87,110.63Z" transform="translate(-0.01)"/><path class="cls-1" d="M160.15,114.64l.4.54c-.22-.35-.43-.71-.66-1.06C160,114.29,160.06,114.47,160.15,114.64Z" transform="translate(-0.01)"/><path class="cls-1" d="M466.61,104.21c0-.17-.21-.21-.39.14l.13.42Z" transform="translate(-0.01)"/><path class="cls-1" d="M464.66,106.09c-.12.47-.17,1.07.25,1,0-.56.15-.58.1-1.2.18-.35.46-.51.53-.39,0-.17.39-.47.33-.76a2.42,2.42,0,0,0-1,1.5C464.69,106.31,464.69,106.15,464.66,106.09Z" transform="translate(-0.01)"/><path class="cls-1" d="M441.48,136.45l.2-.15A.65.65,0,0,0,441.48,136.45Z" transform="translate(-0.01)"/><path class="cls-1" d="M426.41,136.32c0,.17.08.24.11.25C426.47,136.41,426.43,136.28,426.41,136.32Z" transform="translate(-0.01)"/><path class="cls-1" d="M426.45,132.32c0,.08,0,.16,0,.23A.38.38,0,0,0,426.45,132.32Z" transform="translate(-0.01)"/><path class="cls-1" d="M441.48,136.45l-.51.38C441,136.94,441.25,136.65,441.48,136.45Z" transform="translate(-0.01)"/><path class="cls-1" d="M462.42,110.94a1.34,1.34,0,0,0,.12-.33l-.15.29Z" transform="translate(-0.01)"/><path class="cls-1" d="M448,128.36l.12-.15a1.48,1.48,0,0,0,0-.21Z" transform="translate(-0.01)"/><path class="cls-1" d="M452.8,122c-.11.14.08.35.14.48A.59.59,0,0,1,453,122,.36.36,0,0,0,452.8,122Z" transform="translate(-0.01)"/><path class="cls-1" d="M460.47,111.81l.1-.21A2.09,2.09,0,0,0,460.47,111.81Z" transform="translate(-0.01)"/><path class="cls-1" d="M444.36,132.75a.17.17,0,0,0-.12,0A.15.15,0,0,0,444.36,132.75Z" transform="translate(-0.01)"/><path class="cls-1" d="M352.06,140l-.05,0C352,140,352,140.05,352.06,140Z" transform="translate(-0.01)"/><path class="cls-1" d="M347.43,148.17l0-.12a.51.51,0,0,0-.13-.09Z" transform="translate(-0.01)"/><path class="cls-1" d="M426.69,125v0C426.72,125.18,426.71,125.07,426.69,125Z" transform="translate(-0.01)"/><path class="cls-1" d="M392.25,147.07c.23.16,0,.22-.17.28s-.4.1,0,.31c0-.06.18-.12.3-.26S392.54,147.17,392.25,147.07Z" transform="translate(-0.01)"/><path class="cls-1" d="M462.27,111.1l-.18.27A1.54,1.54,0,0,0,462.27,111.1Z" transform="translate(-0.01)"/><path class="cls-1" d="M392.12,147.66h0l.1,0Z" transform="translate(-0.01)"/><path class="cls-1" d="M422.47,107.73a.9.9,0,0,0,.26.17S422.67,107.83,422.47,107.73Z" transform="translate(-0.01)"/><path class="cls-1" d="M426.11,120.59l0-.32A2.31,2.31,0,0,0,426.11,120.59Z" transform="translate(-0.01)"/><path class="cls-1" d="M416.6,112.29a1.33,1.33,0,0,0-.3.37l.08,0A.6.6,0,0,1,416.6,112.29Z" transform="translate(-0.01)"/><path class="cls-1" d="M412.83,118.14l.12-.08.09-.2Z" transform="translate(-0.01)"/><path class="cls-1" d="M359.88,120.67a1.09,1.09,0,0,1-.36.18C359.75,120.84,359.41,121.79,359.88,120.67Z" transform="translate(-0.01)"/><path class="cls-1" d="M462.29,110.86a.26.26,0,0,1,0,.24l.12-.2S462.33,110.83,462.29,110.86Z" transform="translate(-0.01)"/><path class="cls-1" d="M418.22,113.83l-.64.83C417.77,114.44,418,114.13,418.22,113.83Z" transform="translate(-0.01)"/><path class="cls-1" d="M382.19,104.35l-.07-.24A.56.56,0,0,0,382.19,104.35Z" transform="translate(-0.01)"/><path class="cls-1" d="M415.89,117.34a2.41,2.41,0,0,0-.48.42.75.75,0,0,0,0,.15Z" transform="translate(-0.01)"/><path class="cls-1" d="M359.52,120.86h0Z" transform="translate(-0.01)"/><path class="cls-1" d="M357.31,127.71c.4-.95-.15-.59-.26-.87.38-1.18.47-.42.81-.74a18,18,0,0,1,.37-1.95c.08,0,.14-.11.16,0,.05-.87.95-2.23,1-3.26a.23.23,0,0,1,.14-.07.63.63,0,0,1-.53-.07c.18-.43.14-.89.43-1-.12.26,0,.32,0,.47l.11-.49c.49-.26-.17.66.07.76a13.75,13.75,0,0,1,.86-2.67c.37,0-.59,1.61.08.84l-.58,1c.84-.57-.31.61.54.12.69-1.31.51-1.59,1.22-2.89,0-.38-.3,0-.33-.4.56-2,1.47-1.14,1.71-2.73a1.59,1.59,0,0,1,.33-1.67l.18.5c.66-1.27-.14-1,.76-2.21,0,.3-.39,1.07-.25.89.7-.74.11-.71.44-1.38h.38c.63-1.38,1.18-3,1.94-4.5,0,.14,0,.44.27.14a26.94,26.94,0,0,1,3.54-5.5l.18-.81c.1-.15.3-.2.23,0,.54-.58-.13-.14,0-.51s.48-.39.39-.11c.56-1.27,1.95-3.52,3.22-4.2l-.14.25a2.18,2.18,0,0,0,.71-.91,1.17,1.17,0,0,1,.81-.68,1.66,1.66,0,0,0-.13.14,4.75,4.75,0,0,1,1.45-.53,1.83,1.83,0,0,1,1.27.29,3.75,3.75,0,0,1,1.45,2.41c.57.12.63,2.25,1.22,2.24a24.81,24.81,0,0,0,.1,3c.07.52.51.71.68,1.35l-.3.07.46.84-.3.52.17.61c0-.25.06-.54.16-.52a4.13,4.13,0,0,1-.06,2.43l.51,2.26c-.13,0-.21-.42-.32-.71.44,1.19-.3.25.1,1.35.05-.16.19.06.26.08a9.6,9.6,0,0,0,.14,2.8l-.23-.16c.09,1.71.39,3.6.53,5.54.05-.7.43-.57.5,0l-.31.25c.23.35.08-.6.39.14,0,.72-.34.51-.48.1l.18.87c-.09.06-.16-.14-.29-.19.23.35-.21,1.54.17,2l-.09.05c.14,1.94.31,2.81.45,4.39.28,0,.27.63.53,1.08a34.06,34.06,0,0,0,.06,3.87c.23,1,.26.27.47.69-.25.1-.08,1.5-.34.79a32.51,32.51,0,0,0,.78,4.24c.07-.24.08-.51.19-.39.09.38,0,.89-.12.86l0-.1a19,19,0,0,1,.53,3.91,7.91,7.91,0,0,0,.86,3.53l0-.09c.29.62.63,1.24,1,1.85.38.9-.42-.46-.26.26.68,1,1.16,1.77,1.79,2.5a3.7,3.7,0,0,0,2.71,1.44,2.66,2.66,0,0,0,1.84.2,5.41,5.41,0,0,0,2-.92c1.22-.84,2.13-1.91,3-2.46l-.21,0c.2-.49.47-.38.75-.63-.14,0-.48.3-.35,0,2.53-3.3,5.11-6.73,7.33-10.24.78-1.29-.38-1.2.92-2.65l0,.63c1.14-2.84,3-5.43,4.12-8.19,0,.2.07.25-.07.5.51-.43,1.12-2,1-2.12.24-.39.21,0,.43-.21.43-.47.5-1.52.87-1.69.06,0,0,.19-.06.3.1-.41,1-1.63.53-1.43.66-.89.95-1.88,1.54-2.55,0-.65,1.11-1.51.84-1.9.34.3,1.35-1.39,1.58-2.06,0,.26.47-.39.46-.06.45-.63.83-1.21.56-1.26a4.9,4.9,0,0,0,1.4-1.4c.37-.46.76-.81,1.18-.64.69-.44.92-.5,1.51.11A6.93,6.93,0,0,1,424,113.2c-.23,0-.33-.55-.48-1s-.33-.92-.53-.8a10.53,10.53,0,0,1,1.28,4.68c0,.52-.21-.28-.31-.44.34,2,.13,3.85.39,5.65,0,0-.09-.2-.12-.39,0,.36-.06.83.14.79l-.06-.35c.3-.57.63,1.41.79,1.47-.59-.6-.15,1.79-.89.83,0,.23.13.53.27.47,0,.35-.12.46-.28.11.11,1.27.33.82.32,2-.09,0-.13-.24-.25-.36a4.77,4.77,0,0,1,.31,2.16c-.06-.06-.14,0-.14-.24,0,1.69.55,2.86.44,4.72-.45-.53-.11.63-.47.76l.18,1,.15-.41c.05.88.4,1.62.36,2.39l-.22-.64c.07.55.17,1.09.27,1.64l0-.95c.31.86.45-.15.51,1a12.81,12.81,0,0,1,0,1.36h0a4.13,4.13,0,0,1,.54,1.46c-.06.2-.44,0-.48.12.38.33.83,2,1.47,2.3-.16-.12-.34,0-.34,0a2.68,2.68,0,0,0,.42.19c.2.38.22.46.05.51.2.28.32.36.39.36s.07-.06.08-.12,0-.21.56.39c-.11-.07-.08,0-.31-.14a3.31,3.31,0,0,0,2.15,1,8.08,8.08,0,0,0,2.17-.23c.26.12,0,.23-.34.32s-.61.14-.33.25a8,8,0,0,0,2.88-1.34c.85-.58,1.63-1.19,2.39-1.74l-.3.18c-.11-.57,1.27-.64,1.83-1.47-.15.19,0,.43,0,.34a20.12,20.12,0,0,0,3.1-3.35l-.07.27a25.93,25.93,0,0,0,2-1.94c.07-.27.39-.6.06-.52,2.25-1.35,2.78-3.87,4.66-5.17-.16.2-.3.56-.17.4l1.08-1.55c-.27,0-.26.11-.65.3a3,3,0,0,1,.57-1.12c-.4.76.3.23.62,0-.09,0-.08-.15-.15-.17.92-.52-.27-.41.77-1.3l.05.13a7,7,0,0,1,.76-1.31c.35,0-.22.5-.07.66.45-.62.5-1.5,1.12-1.89-.13.3-.4.68-.54,1a3.15,3.15,0,0,0,1.06-1l0,0,.88-.95-.27.21c0-1.17,1-1.64,1.42-2.94-.38,1.26.08.31.27.56.26-.21.63-.56.61-.4.16-.63.75-.71.95-1.62.1,0,.38-.52.5-.27.39-.69-.25.06-.31-.07.43-1.18,2-2.1,2.58-3.81.69-1.35.58-1.75,1.21-3,.4-.31.08.51.08.51a5.51,5.51,0,0,0,1.15-1.69c0,.16.13.08.34,0,.3-.49-.08-.51.46-1.07a2,2,0,0,1,0,.7c.3-.62.51-1.28.83-1.91.24-.06,0,.5-.06.76.37-.7,1-1.79.9-2.14l-.36.37c.15-.24.27,0,.2.21-.2.68-.61.76-.72.74l.23-.45c-.77.11-1,1.72-1.61,2.54l-.12-.58-.28,1c-.22.12-.49.12-.27-.33-.57.48-.23.61-.76,1-.07,0-.07,0,0-.06l-.29.65c0-.17-.31-.07,0-.39-.89.91-.88,1.85-1.4,2.07l0-.1c-.86,1.52.16.31-.28,1.6l-1.13.3.16.31c-.11.14-.34.42-.4.3-.21.67.18,0,.12.41-.72.56-1.27,2-1.78,1.92,0,.39.62-.57.22.28-.58-.09-.54.92-1.2,1.43-.08-.35.47-.88-.18-.38.09.66-1,1.2-1.31,1.79.28.24-.73,1.26-1.3,2.24a30.62,30.62,0,0,0-2.16,2.32l0-.07c.17.39-.55,1.19-1,1.86-.16-.16-.14-.32.05-.72l-.45.58a1.81,1.81,0,0,1-.38.83l-.1-.31a14.33,14.33,0,0,1-1.92,2.59c.15.22,1.19-.32.47.82-.14,0-.35-.16-.17-.47a1.6,1.6,0,0,1-.36.53l.16-.56c-.45.38,0,.36-.36.69-.14-.13-.33.17-.4,0s.32-.25.37-.44a3.36,3.36,0,0,1-1.1.84c.12,0,.2.17,0,.47-.63.75-.4.1-.85.46-.06.27-.57.64-.36.85-.2.21-.33.16-.47.19-.24.46-1.57,1.75-1,1.55l.1-.08,0,.07h0c-.93,1.41-2.53,2.35-3.66,3.52l-.07-.08c-.65.74-1.62,1.43-2.05,2-.24.16-.66.24-.63.07a3.64,3.64,0,0,1-1.58,1c.56-.5-.29,0,.59-.47a7.16,7.16,0,0,0-1.9.94c.21-.35-.73-.06-1.09,0a3.12,3.12,0,0,0,.62.05,3.13,3.13,0,0,1-1.25.18,2.43,2.43,0,0,0,.2-.35,6.68,6.68,0,0,1-1.91-.51A1.82,1.82,0,0,1,428,141c-.19-.18-.15.08-.07.31s.17.49-.06.37a5.57,5.57,0,0,1-.29-2c-.13-1.17-.77-.95-.88-2.24-.08.18-.39.4-.64-.55-.09-.92.34-1.17.51-.62,0,.21,0,.32,0,.32.08.28.18.65.26.28l-.13-.1c0-.46-.1-1.69.13-1.42-.18-.66-.22-.27-.23.24,0-1.17-.17-1.81-.12-3-.05.2-.18.38-.19.19.06-1.77-.26-.77-.36-2,.16-.69.44.24.26-1,.11-.74.31-.16.41.13a7.79,7.79,0,0,1,.16-2.69l.1.58a5.17,5.17,0,0,1-.06-.93l-.23.34c0-.35,0-.64.14-.63-.16-.35-.4.27-.61-.43.12-.46-.13-1.39.19-1.55-.11,1.44.31-.16.36,1.06a3.19,3.19,0,0,1,0-.87s.06,0,.08.15c.28-1.38-.35-.64-.35-2.07.18.18.34-.33.3-.57,0,.58-.29.28-.43-.25.14-.92-.11-1-.1-1.48l-.06.55c-.17-.18-.15-.64-.22-1.28.14-.06.1.58.16.35-.32-.71.3-1.62.05-2.62.11-.46.33,0,.4-.47-.29-1.11.18-1.24-.12-2.43-.21.37-.13.42-.46-.39.13.65.25,1.29.34,1.94-.14-.41-.29-.82-.44-1.22.05.58.24,1.22.22,1.58-.23-.59-.17-.53-.35-.24.31-.82-.31-1.56-.19-2.5l.59,0a4.8,4.8,0,0,0-.41-2,17,17,0,0,0-1.1-2.36,2.67,2.67,0,0,1,.26.65c-.27-.13-.68-1.15-1.44-1.49.17-.12-.26-.45-.61-.67,0,.08-.5-.05-1,0s-.94.33-1,.55a6.26,6.26,0,0,0-.95.23,2.82,2.82,0,0,0-1.15,1.26,4.51,4.51,0,0,1-.85,1.32c.11-.46-.43-.06.1-.89-.33.36-.63.67-.53.77-.29.13-.61,1.2-1,1.44-.05.21.08.38-.24.8-.06,0-.08,0-.08,0s-.35.75.09.49c-1.34.84-2.13,3.4-3.2,4.2-.46.91-1,2-1.45,2.81,0-.08-.08-.05,0-.19-.78,1,.12.95-.76,2.11-.63.49.22-.75-.11-.41-.67-.14-.76,1.57-1.56,2.24l.08-.23c-.55.55-.64,1.71-1.26,2.75,0,0,0-.08-.09-.06a14.43,14.43,0,0,1-1.23,3.38c0-.44.14-.53-.2-.46-.22.47.44.07,0,1-.28.23-.76.83-1,.78l.46-.86c-.56.26-.61,1.11-.91,1.53l-.11-.14c-.69,1.33-.36,1.55-1.19,2.93l.19-.09c-.11,1-.56.53-.76,1.43l-.48,0a27.44,27.44,0,0,1-1.23,2.85,17,17,0,0,1,.83-2.5,8,8,0,0,0-1,2,2.17,2.17,0,0,1,.34-.68,6.33,6.33,0,0,1-1.13,2.58c-.5-.59-1.87,2.33-2.88,2.55a8.25,8.25,0,0,1-2,2.16,7.93,7.93,0,0,1-2.44,1.36c.78.41-.49.15-.29.7-.46.09-.64,0-.67,0a2.59,2.59,0,0,1-1.05-.81c-.13-.32.39.1.43-.05-.33-.23-.35-.37-.34-.45a.53.53,0,0,0-.07-.43c-.08.24-.46,0-.7-.53a5.31,5.31,0,0,0,.25.8,1.48,1.48,0,0,1-.68-1.15,2.59,2.59,0,0,0-.52-1.34l.36.38c-.45-.65-1-2.8-1.64-3.51,0-.16.15-.39.28,0-.41-2-1.4-4.38-1.31-6l.17.14c-.09-.38-.37-.63-.28-1.13.07,0,.17.14.16,0a4.38,4.38,0,0,1-.36-1.51l.22.42c0-2-.73-3.05-1-4.74.44,0,.45-1.64.46-2.44l.06,0a57.43,57.43,0,0,0-1-6.16c.38-1.4-.13-4.63-.05-6.85,0,.34-.35,0-.42-.41s-.43-1.4,0-1.35v.18c.36-.42.16-1.48.08-2.31l-.53-.08c.56-2.25-.95-5.62-.5-6.91-.22-.5-.34-1.15-.58-1.64l.29,0a17.89,17.89,0,0,0-1-4l.31.31c-.34-1-1.22-1-1.67-1.87a4.09,4.09,0,0,0,.23-.47,6.55,6.55,0,0,0-2.07-2.49,3.74,3.74,0,0,0-1.82-.56,3.33,3.33,0,0,0-1.7.45c0-.06,0-.22.39-.33a6.25,6.25,0,0,0-2.12.93c-.63.44-1,.88-.69,1-.13-.13-.52.18-.91.66a12.09,12.09,0,0,0-1,1.51l-.11-.3a5.06,5.06,0,0,1-.82,1.91c-.19.2-.32.06-.05-.19-.65.64-.21.72-.95,1.52l.08-.43a1.91,1.91,0,0,0-.53,1.27c-.23.54-1,1.42-1.29,1.41a1.5,1.5,0,0,1-.37,1.14c-.12,0-.07-.18,0-.28-1,1.22-.88,2.12-1.62,2.9a.27.27,0,0,0-.24.08c.6-1.06,1.11-1.9,1.08-1.81-.22-.13-.76.7-.67-.16a10.76,10.76,0,0,1-1.09,3l-.13.07,0-.11a1.73,1.73,0,0,0-.25.56,4.54,4.54,0,0,0-.45.66c-.24,0-.62.95-.85,1.38.26.09-.07.64.41.21-.05.06,0-.09.15-.39a1.38,1.38,0,0,0,.08-.2v0c.15-.28.33-.66.55-1.08a2.06,2.06,0,0,1-.52,1.23c0,.3.08.63.09.81-.66.41-1.42,1.47-1.72,1.53-.52,1.4-1.45,3.2-1.36,4.28-.12.41-.35.37-.49.48a3.31,3.31,0,0,0,.17-.65c-.24.82-1,2.3-.75,2.63-.6.9-.06-.68-.62.67l0-.22c-1.73,2.39-1.06,4.65-3,7.29.13-.19.19-.28.26-.3-1.74,3.22-2.61,7-4.43,10.17a3.06,3.06,0,0,0-.37,1.74l-.36.1-.07,1.12c-.31,1.5-1.65,2.16-1.89,4.12l.28-.16c-.28.63-.67,2.07-.85,1.88a.47.47,0,0,1-.08.5l-.15,0-.35,1.68c-.57,1.18-.51-.42-1.22,1.35-.19.69-.28,2.06-.09,1.84s.35-.64.51-.61l-.16.64c.4.27.67.9,1.54-.47l.12-1.13.34-.26-.32.88a1.5,1.5,0,0,0,.34-1.2.7.7,0,0,0,.4-.34l0-1.18c.22,0,.16.59.52-.06,0-.55-.56.31-.38-.52.39-.42.49-.22.55-.86.14,0,.16.11.12.36.07-.57.48-1.39.35-1.74.44-.42.61-1.77,1-1.56a4.71,4.71,0,0,1,.2-1.51c.16,1.06.73-1.76,1.16-1.32-.19-.82.73-2.39.93-3.61a.46.46,0,0,1,0,.32,6.09,6.09,0,0,1,.75-1.13c-.33-.23,0-1.25,0-1.87.67-.64.24.64.67.54-.31-.08.26-1.47-.09-1.31.46-.5.31-.47.74-.65-.41-.29.15-.58.08-1.19.58-.76.51,0,.77-1C357.49,126.81,357.31,127.71,357.31,127.71Zm9.45-22.28h0l-.22.45C366.59,105.78,366.65,105.65,366.76,105.43Zm1-1.78c-.13.21-.29.48-.44.76-.12,0-.17-.1-.07-.27C367.24,104.26,367.53,103.87,367.75,103.65ZM364,106.52c.11-.31.21-.38.28-.39l-.23.52v0A.35.35,0,0,1,364,106.52Z" transform="translate(-0.01)"/><path class="cls-1" d="M364,107.21a.38.38,0,0,1,0,.13l.15-.14,0-.15A.8.8,0,0,1,364,107.21Z" transform="translate(-0.01)"/><path class="cls-1" d="M441.71,136.27l0,0a.18.18,0,0,1,.09,0Z" transform="translate(-0.01)"/><polygon class="cls-1" points="381.71 102.16 381.77 102.14 381.69 101.98 381.71 102.16"/><path class="cls-1" d="M449.7,128.3a.36.36,0,0,0,.15-.08A.43.43,0,0,0,449.7,128.3Z" transform="translate(-0.01)"/><path class="cls-1" d="M452.7,124.45l.49-.5A5.38,5.38,0,0,0,452.7,124.45Z" transform="translate(-0.01)"/><path class="cls-1" d="M455,121.5a.4.4,0,0,0-.06-.13h0Z" transform="translate(-0.01)"/><path class="cls-1" d="M424.24,120.86s0-.09,0-.14C424.16,120.39,424.19,120.61,424.24,120.86Z" transform="translate(-0.01)"/><path class="cls-1" d="M425.7,138.58c-.08-.17-.16-.35-.23-.54C425.51,138.36,425.55,138.61,425.7,138.58Z" transform="translate(-0.01)"/><polygon class="cls-1" points="418.29 113.74 418.28 113.73 418.21 113.83 418.29 113.74"/><path class="cls-1" d="M425.33,137.21a2.09,2.09,0,0,0,.14.83A6,6,0,0,0,425.33,137.21Z" transform="translate(-0.01)"/><path class="cls-1" d="M464.28,108.17l.11-.14s0,0,0,0Z" transform="translate(-0.01)"/><path class="cls-1" d="M464.36,108l.09-.18C464.4,107.88,464.35,107.94,464.36,108Z" transform="translate(-0.01)"/><path class="cls-1" d="M464.62,107.41l-.17.39A.74.74,0,0,0,464.62,107.41Z" transform="translate(-0.01)"/><path class="cls-1" d="M461.43,112.23l.06.1A.14.14,0,0,0,461.43,112.23Z" transform="translate(-0.01)"/><path class="cls-1" d="M460.62,113.5a7,7,0,0,0,.91-1.08l0-.09C461.48,112.61,460.67,113.12,460.62,113.5Z" transform="translate(-0.01)"/><path class="cls-1" d="M456,118l.79-1c-.22.12-.5.27-.2-.21C455.44,117.87,457,116.63,456,118Z" transform="translate(-0.01)"/><path class="cls-1" d="M453.63,121c.36-.57-.13-.08-.16-.15C453.3,121.3,453.26,121.4,453.63,121Z" transform="translate(-0.01)"/><path class="cls-1" d="M435.08,141.87l-.09-.26C434.6,141.92,435,141.7,435.08,141.87Z" transform="translate(-0.01)"/><path class="cls-1" d="M430.38,144.86a4.5,4.5,0,0,0,.6.17l.26-.25A4.74,4.74,0,0,1,430.38,144.86Z" transform="translate(-0.01)"/><path class="cls-1" d="M428.68,141.93l.14.12a3.36,3.36,0,0,1-.48-.51A2.16,2.16,0,0,0,428.68,141.93Z" transform="translate(-0.01)"/><path class="cls-1" d="M413.25,117l.35,0C413.73,116.65,413.47,116.4,413.25,117Z" transform="translate(-0.01)"/><path class="cls-1" d="M403.54,135a1.44,1.44,0,0,0-.67.94A9.54,9.54,0,0,0,403.54,135Z" transform="translate(-0.01)"/><polygon class="cls-1" points="384.92 107.19 385.07 107.59 384.9 106.83 384.92 107.19"/><path class="cls-1" d="M645.38,126.26c.14.11.29,0,.1-.41l-.41-.15Z" transform="translate(-0.01)"/><path class="cls-1" d="M644.93,123.47c-.34-.39-.81-.8-1-.39.48.32.4.48.95.81.18.37.16.71,0,.69.14.1.17.62.44.75a2.64,2.64,0,0,0-.66-1.81C644.72,123.35,644.86,123.46,644.93,123.47Z" transform="translate(-0.01)"/><path class="cls-1" d="M619.45,111.48l.16-.21A1,1,0,0,0,619.45,111.48Z" transform="translate(-0.01)"/><path class="cls-1" d="M607.91,133.17c.12-.11.16-.18.15-.2S607.86,133.18,607.91,133.17Z" transform="translate(-0.01)"/><path class="cls-1" d="M605,133.11l.14.13A.25.25,0,0,0,605,133.11Z" transform="translate(-0.01)"/><path class="cls-1" d="M619.45,111.48,619,112C619.12,112.12,619.27,111.75,619.45,111.48Z" transform="translate(-0.01)"/><path class="cls-1" d="M642,118.71a1.4,1.4,0,0,0,.23.29l-.17-.29Z" transform="translate(-0.01)"/><path class="cls-1" d="M626.62,102.82a1,1,0,0,1,.21-.09,1.4,1.4,0,0,0,.13-.18A2.24,2.24,0,0,0,626.62,102.82Z" transform="translate(-0.01)"/><path class="cls-1" d="M635.09,105c-.14-.14-.38,0-.52.06a.73.73,0,0,1,.46.14A.29.29,0,0,0,635.09,105Z" transform="translate(-0.01)"/><path class="cls-1" d="M642.21,116.52l.14.2Z" transform="translate(-0.01)"/><path class="cls-1" d="M621.83,107a.19.19,0,0,0-.13,0A.15.15,0,0,0,621.83,107Z" transform="translate(-0.01)"/><path class="cls-1" d="M518.93,117s0,0,.05,0S518.91,117,518.93,117Z" transform="translate(-0.01)"/><path class="cls-1" d="M517.29,107.24l.05.12h.16Z" transform="translate(-0.01)"/><path class="cls-1" d="M602,126.74v0C602.13,127,602.09,126.85,602,126.74Z" transform="translate(-0.01)"/><path class="cls-1" d="M573.62,125.48c-.2.82-.41-1.29-.61-.06C573.12,125.3,573.52,126.49,573.62,125.48Z" transform="translate(-0.01)"/><path class="cls-1" d="M641.93,118.5l-.14-.31A1.58,1.58,0,0,0,641.93,118.5Z" transform="translate(-0.01)"/><path class="cls-1" d="M573,125.42h0l0,.12A.6.6,0,0,0,573,125.42Z" transform="translate(-0.01)"/><path class="cls-1" d="M596.73,109.46a.68.68,0,0,0,0,.23S596.73,109.61,596.73,109.46Z" transform="translate(-0.01)"/><path class="cls-1" d="M600.22,122.56l-.05-.33A2.12,2.12,0,0,0,600.22,122.56Z" transform="translate(-0.01)"/><path class="cls-1" d="M590.1,106.31a1.45,1.45,0,0,0-.47.33.16.16,0,0,0,.09,0A.78.78,0,0,1,590.1,106.31Z" transform="translate(-0.01)"/><path class="cls-1" d="M585.77,112.53l.11-.1.09-.21Z" transform="translate(-0.01)"/><path class="cls-1" d="M527.64,137.41a1.21,1.21,0,0,1,.06-.42C527.58,137.19,527,136.28,527.64,137.41Z" transform="translate(-0.01)"/><path class="cls-1" d="M642.13,118.64a.27.27,0,0,1-.2-.14l.12.21S642.13,118.7,642.13,118.64Z" transform="translate(-0.01)"/><path class="cls-1" d="M591.2,108.25a7.14,7.14,0,0,0-.68.6C590.72,108.68,591,108.43,591.2,108.25Z" transform="translate(-0.01)"/><path class="cls-1" d="M559.78,118.9l-.06.26A.65.65,0,0,0,559.78,118.9Z" transform="translate(-0.01)"/><path class="cls-1" d="M588.82,111.45a1.83,1.83,0,0,0-.47.45.75.75,0,0,0,0,.15Z" transform="translate(-0.01)"/><path class="cls-1" d="M527.7,137Z" transform="translate(-0.01)"/><path class="cls-1" d="M523.74,130.38c.43,1,.54.33.82.46.64,1.16,0,.67,0,1.16.44.71,1,1.14,1.27,1.7,0,.07,0,.18-.13.09.64.66,1.17,2.32,2,3a.24.24,0,0,1,0,.16.56.56,0,0,1,.37-.38c.25.43.65.69.53,1-.14-.27-.24-.24-.37-.33l.34.4c-.07.58-.45-.56-.67-.44a25.29,25.29,0,0,1,1.78,2.41c-.21.33-1.06-1.49-.78-.44l-.5-1.11c0,1.07-.34-.65-.41.37.74,1.43,1.07,1.46,1.89,2.85.36.19.16-.26.52-.07,1.6,1.63.38,2,1.84,3a2.12,2.12,0,0,1,1.59,1h-.57a2,2,0,0,0,1.11.69,2.5,2.5,0,0,1,1.1.77c-.33-.06-1.11-.67-.94-.48.73.9.75.32,1.48.76l0,.38a7.48,7.48,0,0,0,5.79.6c-.08.13-.41.31.09.3a16.69,16.69,0,0,0,6.29-4.36c.11-.29.21-.58.31-.87s.33-.22.24,0c.62-.64-.12-.15,0-.55s.52-.45.4-.14a38.88,38.88,0,0,1,2.9-5.24l-.07.32c.68-1,.11-1.52.86-2.43l-.05.22c1.3-2.36,2.21-5.19,3.39-6.92-.24-.51,1.16-2.39.67-2.77a15.72,15.72,0,0,0,1.72-2.81c.22-.52-.05-.93.14-1.61l.3.09,0-1,.52-.36.16-.65c-.11.25-.33.48-.4.41a4.81,4.81,0,0,1,1.23-2.26l.6-2.39c.1.09,0,.49,0,.82.16-1.33.39-.11.53-1.33-.12.13-.14-.14-.19-.19a10.47,10.47,0,0,0,1.14-2.73l.13.26c.69-1.67,1.27-3.59,2.07-5.42-.37.62-.65.32-.44-.23l.39-.09c0-.42-.36.51-.27-.3.34-.67.54-.3.47.13l.27-.87c.11,0,.07.21.16.31,0-.43,1-1.24.9-1.85h.11a16.16,16.16,0,0,1,1.14-1.84,3.73,3.73,0,0,1,.45-.52.22.22,0,0,1,.15-.08c0-.3.2-.24.48-.24a4,4,0,0,1,.27.57,7.32,7.32,0,0,1,.24.82q.2.91.42,1.92c.33.94.29.23.54.64-.23.12,0,1.52-.28.82.3,1.69.36,2.17.78,4.35.08-.25.1-.53.2-.39.08.39,0,.92-.15.87l0-.1c.6,2.45-.35,5.78.28,7.74l0-.11.38,2c0,1-.22-.56-.34.15.54,2.21.12,3.53.52,5.36-.67,1.48.41,5.06.26,7.09l.16-.14c.26.48,0,.63,0,1,.12-.08.06-.58.21-.28a24.32,24.32,0,0,0,.66,2.49c.07.21.15.43.25.66a4.7,4.7,0,0,0,.5.91,2.54,2.54,0,0,0,1.59,1.09,2.47,2.47,0,0,0,1.58-.34,3.84,3.84,0,0,0,.69-.53,6.54,6.54,0,0,0,.55-.59,15.71,15.71,0,0,0,1.29-1.87,37.08,37.08,0,0,0,1.92-3.76c.63-1.47-.52-1.18.59-2.89l.11.64c.77-3.13,2.25-6.12,3-9.13,0,.2.09.24,0,.52a4.19,4.19,0,0,0,.7-2.33c.2-.44.2,0,.41-.27.37-.56.33-1.64.69-1.86,0,0,0,.2,0,.31,0-.43.81-1.79.39-1.53a30.76,30.76,0,0,1,1.38-2.76c0-.68,1.07-1.58.81-2,.17.16.5-.2.84-.63s.7-.93.86-1.2c-.06.22.47-.2.42.08.47-.37.75-.45.65-.67a3.08,3.08,0,0,0,.51.21.78.78,0,0,0,.27.09,1.87,1.87,0,0,0,.31.17,1.24,1.24,0,0,1,.7,1.2,22.7,22.7,0,0,1,2.88,6.12c-.44,0-.74-2.34-1.18-2.1a24.42,24.42,0,0,1,1.94,5.08c.08.55-.27-.25-.39-.41.72,2,1,4,1.73,5.79,0,0-.14-.18-.23-.36.12.36.17.87.36.77l-.15-.34c.12-.66,1,1.28,1.17,1.3-.75-.45.4,1.85-.61,1.09.11.23.3.5.41.4.07.37,0,.51-.23.19.53,1.27.57.74,1,1.91-.09,0-.21-.19-.37-.27a6.49,6.49,0,0,1,1.13,2c-.08,0-.1.11-.23-.18a9.74,9.74,0,0,0,1.35,2.14,16.37,16.37,0,0,0,1.86,2c-.4,0-.27.11,0,.32s.62.38.6.59a2.24,2.24,0,0,0,.69.16,2.12,2.12,0,0,0,.71,0,1.48,1.48,0,0,1-.53-.23,2.87,2.87,0,0,0,1.6-.22,2.73,2.73,0,0,0,.64-.32c.2-.13.42-.21.6-.32a6.29,6.29,0,0,1-.6.53,6,6,0,0,0,1.52-1.21,6,6,0,0,1-.9.58c.34-.39.24-.46.2-.53s0-.11.45-.52c-.08.1.08-.07.33-.28a4.12,4.12,0,0,1,.76-.66h0a4.79,4.79,0,0,1,.79-1.42c.2-.09.28.35.4.29,0-.55,1-1.93,1-2.59,0,.2.15.3.21.26l-.05-.45c.27-.34.33-.38.44-.25.61-1.13-.6.16.25-1.12,0,.12,0,.09-.05.33.77-1.33,1.11-2.73,1.79-4,.51-.23-.41,1.15.07.85.76-1.87,1.26-4,2.13-5.73l-.18.31c-.38-.46.82-1.21,1-2.2-.06.23.14.41.11.32.63-1.16,1-2.51,1.78-4.36v.28c.46-.63,1-1.77,1.5-2.45,0-.28.27-.68,0-.53a14.55,14.55,0,0,0,2.24-2.93A4.94,4.94,0,0,1,626,104.7c-.21.15-.43.44-.26.33s.47-.39.71-.57l.77-.46c-.22-.15-.26,0-.69,0a1.87,1.87,0,0,1,.4-.41,2.63,2.63,0,0,1,.66-.3c-.78.41.14.34.48.37-.07-.06,0-.15,0-.22.51.14.52,0,.6-.13s.2-.34.89-.14l-.08.12a4.73,4.73,0,0,1,.75-.05,3.61,3.61,0,0,1,.78.16c.14.31-.56,0-.64.18.7.12,1.61,0,2.11.62-.32-.12-.76-.3-1.07-.38.53.63.65.53,1.08.91l0,0a8.58,8.58,0,0,1,.95.86l-.2-.28a2.35,2.35,0,0,1,1.39.7,5.62,5.62,0,0,0,1.37,1.18c-1.19-.67-.33,0-.62.13.16.31.4.77.24.71.58.33.51.89,1.29,1.4,0,.09.38.55.1.58.53.61,0-.26.17-.27,1,.83,1.27,2.67,2.55,4,.9,1.29,1.34,1.38,2.14,2.63.08.51-.5-.21-.5-.21a6.52,6.52,0,0,0,.93,1.93c-.14-.1-.14.08-.15.33.28.53.5.21.7,1a2,2,0,0,1-.61-.38c.39.6.83,1.17,1.2,1.81-.08.24-.41-.31-.62-.5.41.72,1,1.89,1.34,2l-.12-.53c.13.28-.15.24-.28,0-.47-.57-.32-1-.25-1l.27.46c.31-.72-.92-1.9-1.34-2.85l.56.22-.77-.84c0-.25.14-.49.42,0-.13-.77-.42-.54-.5-1.22,0-.08,0-.06.08,0l-.44-.61c.14.09.2-.24.35.19-.37-1.31-1.26-1.76-1.21-2.36l.07.09c-1-1.56-.34,0-1.34-1l.18-1.19h-.35c-.08-.17-.27-.5-.13-.5-.56-.49,0,.17-.43-.07-.24-.94-1.5-2-1.24-2.48-.38-.13.37.82-.33.12.27-.55-.76-.84-1.11-1.64.37,0,.77.74.42-.07-.65-.12-1-1.31-1.62-1.77-.14.12-.46-.11-.87-.46a9.62,9.62,0,0,0-1.52-1c.06,0-.43-.34-1.09-.71-.34-.15-.74-.27-1.12-.41a9,9,0,0,0-1.08-.2l0-.06c-.25.31-1.47.32-2.27.74,0-.22.08-.35.53-.6l-.82.27a2.9,2.9,0,0,1-.82.65l.06-.34a21.12,21.12,0,0,0-2.74,2.38c.14.22,1.24-.27.41.85-.14,0-.36-.17-.14-.48a2.34,2.34,0,0,1-.41.55,5.66,5.66,0,0,1,.2-.58c-.49.39-.07.37-.4.73-.14-.13-.34.19-.41,0s.33-.28.39-.48a5.33,5.33,0,0,1-1.14,1c.12,0,.21.15,0,.5-.61.87-.41.16-.84.62,0,.29-.51.78-.27,1-.16.26-.3.24-.43.3-.19.53-1.23,2.22-.65,1.84l.08-.11,0,.08h0c-.59,1.68-1.83,3.18-2.45,4.83l-.08,0a22.21,22.21,0,0,0-1,2.91c-.12.28-.45.59-.51.42a5.62,5.62,0,0,1-.79,1.87c.16-.8-.25.19.21-.8a5.43,5.43,0,0,0-.93,2.18c-.08-.45-.6.58-.74,1l.46-.58a12.68,12.68,0,0,1-.62,1.38L613,124c-1.23,1.73-1,3.73-2.34,4.79-.06.59.68-.9.69-.35a10.31,10.31,0,0,1-1.56,1.67c-.84.94-.24,1.28-1.18,2.21.2,0,.57,0-.06.85-.77.59-1.15.3-.8-.1.15-.14.26-.17.28-.13.18-.21.39-.54.06-.37v.16c-.2.1-.52.33-.77.45s-.44.16-.39,0c-.2.19-.24.19-.17.23s.24,0,.44-.09l-.32.12a2.3,2.3,0,0,0-.28.06,1.66,1.66,0,0,1-.48.06,1.44,1.44,0,0,1-1-.36c.08.15.15.3,0,.25-.57-.46-.7-.61-.85-.62s-.26,0-.64-.45c-.25-.64.47,0-.29-.95-.25-.7.19-.27.42-.1a5.34,5.34,0,0,1-1-2.46l.31.5a4.47,4.47,0,0,1-.4-.83l-.1.4c-.09-.34-.19-.61-.1-.64-.27-.29-.27.4-.72-.21-.05-.48-.59-1.32-.34-1.58.37,1.45.25-.25.69.92a3.19,3.19,0,0,1-.27-.84c0-.06.08,0,.12.11-.16-1.43-.54-.51-1-1.93.23.13.23-.43.13-.65.16.58-.21.36-.49-.13-.12-1-.38-1-.49-1.47l.09.57c-.23-.14-.33-.61-.55-1.24.12-.09.24.56.24.32-.49-.64-.11-1.71-.58-2.67,0-.49.32-.12.29-.56-.52-1.07-.08-1.28-.58-2.43-.14.41-.07.45-.52-.32l.68,1.91-.67-1.17c.16.59.48,1.21.53,1.57-.34-.55-.27-.5-.39-.17.14-.89-.62-1.54-.64-2.54l.58-.12c-.15-1.49-1-2.42-1.49-4.28,0,.21.07.41.11.62-.3-.17-.42-1.11-.75-1.65.2,0,.12-.41.12-.71-.1.09-.61-1.34-1.07-1.3a6.27,6.27,0,0,0-.27-.91,2.7,2.7,0,0,0-1.47-1.21A6,6,0,0,0,592,106c.27-.11.21-.2.22-.28s.12-.19.83-.1c-.68-.21-1.34-.15-1.32,0a1.8,1.8,0,0,0-1,.39,6,6,0,0,1-.94.65c-.12.22,0,.42-.46.83-.07,0-.07-.07-.07-.07s-.49.77,0,.53a5.41,5.41,0,0,0-1.86,2.22,10.4,10.4,0,0,1-1.45,2.31c-.4,1-.87,2.21-1.23,3.11,0-.08-.09,0,0-.2-.68,1.17.21,1-.54,2.31-.58.6.13-.82-.16-.41-.68,0-.59,1.74-1.3,2.56l.05-.24c-.48.65-.43,1.87-.91,3,0,0,0-.08-.09,0a16.33,16.33,0,0,1-.79,3.7c-.11-.45.07-.57-.26-.44-.15.53.45,0,.14,1-.26.29-.65,1-.94,1l.34-1c-.51.37-.45,1.25-.7,1.73l-.12-.12c-.53,1.48-.16,1.65-.84,3.2l.17-.12c0,1-.5.62-.62,1.57l-.47.08a10.29,10.29,0,0,1-1.21,2.89c.15-.58.65-1.72.83-2.49a18.2,18.2,0,0,0-1,2,2.39,2.39,0,0,1,.36-.64,3.48,3.48,0,0,1-.37,1.07,1.11,1.11,0,0,1-1,.65l-.12,0c.09-.21,0-.36-.12-.54a3.47,3.47,0,0,1-.3-.61,3.56,3.56,0,0,1-.3-2.19c-.68-2-.47-4.11-.7-6.56-.53.92-.08-.72-.67-.53a2.42,2.42,0,0,1,0-.85l.26-1.78c.15-.42.17.55.3.49,0-1.27.23-.55.34-1.4-.21.19-.33-.42-.29-1.15l-.23,1c-.42-1.75.44-1.55,0-3.33l.22.56c-.16-.91-.16-3.4-.71-4.27.06-.17.22-.4.29,0-.05-2.21-.83-4.88-.7-6.62l.16.15c-.08-.41-.34-.69-.25-1.22.06,0,.16.15.15,0a5.55,5.55,0,0,1-.37-1.63l.22.45c-.11-2.21-.89-3.29-1.57-5.06.2-.07.21-.54,0-1.16a3.81,3.81,0,0,0-.47-1,3.16,3.16,0,0,0-1-.93l.07,0a2.77,2.77,0,0,0-3,.27,5.2,5.2,0,0,0-1.34,1.56,24.42,24.42,0,0,0-1.42,3.12c-1.11,1.11-2.2,4.44-3.27,6.51.2-.3.3.18.2.58-.28.47-.25,1.51-.6,1.29l.08-.18c-.52.24-.81,1.33-1.12,2.14l.45.32c-1.51,1.87-1.79,5.69-2.87,6.61-.07.56-.31,1.19-.38,1.74l-.25-.13c-.61,1.39-.91,2.09-1.54,3.85l0-.43c-.41,1,.26,1.54-.09,2.44l-.51.11c-.69,1.7-1.77,3.25-2.19,5,0,0-.13-.15,0-.43-.37.78-1.71,2.85-1.06,2.83-.34-.15-.89,1.64-1.25,2.57l-.17-.27a4,4,0,0,1-.56,2c-.19.21-.32.09-.07-.18-.62.68-.16.75-.91,1.56l.09-.43a2.28,2.28,0,0,0-.59,1.27c-.27.55-1.18,1.33-1.46,1.24a1.4,1.4,0,0,1-.62,1c-.12,0,0-.19,0-.28-1.21.87-1.55,1.7-2.6,1.9a.26.26,0,0,0-.22-.09,11.83,11.83,0,0,0,1.73-1c-.16-.2-.92.3-.54-.42-.43.58-1.36,1.58-2.24,1.61l-.13-.07.08,0a2,2,0,0,0-.51.12c-.26,0-.42,0-.67-.06-.08-.2-.92-.18-1.32-.37,0,.28-.59.06-.14.45-.06,0,.09,0,.38.07a.65.65,0,0,0,.19,0l0,0,.49.08c.18,0,.38,0,.59,0a2.3,2.3,0,0,1-.56.14,1.48,1.48,0,0,1-.64-.18,3.58,3.58,0,0,1-.76.24l-.92-.93c-.29-.34-.53-.59-.52-.75-1.27-.65-2.62-2.17-3.62-2.58-.33-.29-.2-.48-.24-.66.2.16.38.4.52.45-.66-.56-1.58-2-2-2-.48-1,.63.32-.27-.9l.21.11c-1.08-2.78-3.33-3.7-4.1-7.06,0,.23.08.34,0,.41-1.35-3.55-3.47-7.05-4.29-10.77a3.26,3.26,0,0,0-.92-1.62l.21-.32-.7-.94c-.77-1.41-.2-2.83-1.29-4.57l-.11.31c-.19-.7-.82-2.14-.56-2.09a.51.51,0,0,1-.26-.47l.14-.06-.79-1.61c-.3-1.35.66,0,.1-1.9-.27-.69-1.05-1.89-1.07-1.6s.12.77,0,.83l-.28-.63c-.48,0-1.09-.35-.91,1.35l.61,1-.1.43-.31-.94a1.67,1.67,0,0,0,.49,1.22.76.76,0,0,0-.09.54l.77,1c-.14.18-.5-.39-.37.38.36.45.24-.62.63.19,0,.6-.24.5.13,1.07-.08.12-.2,0-.33-.22.32.51.54,1.46.87,1.67-.07.63.68,1.85.25,1.93a5.19,5.19,0,0,1,.85,1.37c-.82-.75.64,1.91,0,1.86.69.52,1.09,2.4,1.8,3.52a.6.6,0,0,1-.2-.28,8.63,8.63,0,0,1,.25,1.41c.39-.05.89,1,1.34,1.44,0,1-.63-.33-.86.07.28-.16.87,1.32,1,.94.05.71.13.58,0,1,.5-.08.32.56.82,1,.17,1-.32.41.25,1.35C524.28,131.2,523.74,130.38,523.74,130.38Zm18,17.49h0l-.58.13Zm2.15-1c-.23.15-.56.3-.89.48-.12-.06-.07-.18.13-.29C543.06,147.22,543.58,147,543.91,146.92Zm-4.54-.84c.27,0,.35,0,.39.11a2.16,2.16,0,0,1-.49,0l0,0A.3.3,0,0,1,539.37,146.08Z" transform="translate(-0.01)"/><path class="cls-1" d="M538.79,146.35h-.12a.54.54,0,0,0,.16.1l.12-.06Z" transform="translate(-0.01)"/><path class="cls-1" d="M619.64,111.23l0,0s0-.06.08-.07Z" transform="translate(-0.01)"/><polygon class="cls-1" points="559.06 121.2 559 121.18 558.99 121.38 559.06 121.2"/><path class="cls-1" d="M628.11,103.66a.33.33,0,0,0,.16,0Z" transform="translate(-0.01)"/><path class="cls-1" d="M632.52,104.73l.5.46C632.81,105,632.65,104.84,632.52,104.73Z" transform="translate(-0.01)"/><path class="cls-1" d="M635.22,107.31a.24.24,0,0,0,.14,0h0Z" transform="translate(-0.01)"/><path class="cls-1" d="M598.47,123.31a.58.58,0,0,0-.05-.14C598.28,122.84,598.36,123.07,598.47,123.31Z" transform="translate(-0.01)"/><path class="cls-1" d="M610.17,132.31a4.3,4.3,0,0,1-.28.57C610.12,132.63,610.3,132.42,610.17,132.31Z" transform="translate(-0.01)"/><polygon class="cls-1" points="591.27 108.2 591.27 108.19 591.19 108.25 591.27 108.2"/><path class="cls-1" d="M609.27,133.56a2.16,2.16,0,0,0,.62-.68C609.71,133.1,609.44,133.32,609.27,133.56Z" transform="translate(-0.01)"/><path class="cls-1" d="M643.38,121.9l.07.18a0,0,0,0,1,0,0Z" transform="translate(-0.01)"/><path class="cls-1" d="M643.5,122.08l.11.18C643.57,122.17,643.54,122.1,643.5,122.08Z" transform="translate(-0.01)"/><path class="cls-1" d="M643.84,122.64l-.23-.38A.72.72,0,0,0,643.84,122.64Z" transform="translate(-0.01)"/><path class="cls-1" d="M641.36,117.15h-.11A.14.14,0,0,0,641.36,117.15Z" transform="translate(-0.01)"/><path class="cls-1" d="M640.64,115.76a7.37,7.37,0,0,0,.51,1.37h.1C641,117,641,116,640.64,115.76Z" transform="translate(-0.01)"/><path class="cls-1" d="M638.41,109.43c.23.38.44.78.66,1.17,0-.26-.08-.6.27-.1C638.7,108.9,639.33,110.93,638.41,109.43Z" transform="translate(-0.01)"/><path class="cls-1" d="M635.93,106c.55.5.12-.11.19-.13C635.72,105.64,635.63,105.58,635.93,106Z" transform="translate(-0.01)"/><path class="cls-1" d="M615.43,119.54l-.2-.17C615,119.89,615.31,119.42,615.43,119.54Z" transform="translate(-0.01)"/><polygon class="cls-1" points="614.33 125.28 614.69 124.85 614.58 124.52 614.33 125.28"/><polygon class="cls-1" points="611.24 127.5 611.31 127.27 610.98 128.11 611.24 127.5"/><path class="cls-1" d="M586.13,111.24h.36C586.62,110.87,586.34,110.64,586.13,111.24Z" transform="translate(-0.01)"/><path class="cls-1" d="M578.44,131.44a1.6,1.6,0,0,0-.57,1.05A10.15,10.15,0,0,0,578.44,131.44Z" transform="translate(-0.01)"/><polygon class="cls-1" points="558.67 114.97 558.72 114.52 558.52 115.32 558.67 114.97"/></g></g></g></svg>