<svg xmlns="http://www.w3.org/2000/svg" viewBox="0 0 440.25 678.39"><defs><style>.cls-1{fill:#f7f7f7;}.cls-2{fill:#43595e;}.cls-3{fill:#e8e9eb;}.cls-4{fill:#313638;}.cls-5{fill:#e2e2e2;}.cls-6{fill:#b4b4b4;}.cls-7{fill:#ababab;}.cls-8{fill:#dcdfde;}.cls-9{fill:#fcbc94;}.cls-10{fill:#efefef;}.cls-11{fill:#9b7b66;}.cls-12{fill:#8d7160;}.cls-13{fill:#e4b363;}.cls-14{fill:#fdfdfd;}.cls-15{fill:#fdfefe;}.cls-16{fill:#f2dfd1;}.cls-17{fill:#9c7b66;}.cls-18{fill:#f2e0d2;}.cls-19{fill:#dadede;}.cls-20{fill:#a1816b;}.cls-21{fill:#eef1f2;}.cls-22{fill:#eef2f2;}.cls-23{fill:#edf1f2;}.cls-24{fill:#edf0f1;}.cls-25{fill:#eceff0;}.cls-26{fill:#ecf0f1;}.cls-27{fill:#ebeff0;}.cls-28{fill:#ebf0f1;}.cls-29{fill:#eef3f4;}.cls-30{fill:#f0f2f3;}.cls-31{fill:#eef2f3;}.cls-32{fill:#eff2f3;}.cls-33{fill:#edeff0;}.cls-34{fill:#f2f7f7;}.cls-35{fill:#7e695c;}.cls-36{fill:#f5f6f4;}.cls-37{fill:#f0f3f3;}.cls-38{fill:#f1f3f4;}.cls-39{fill:#eceff1;}.cls-40{fill:#f6f6f7;}.cls-41{fill:#eef0f1;}.cls-42{fill:#f5f5f6;}.cls-43{fill:#f4f6f7;}.cls-44{fill:#ecf1f2;}.cls-45{fill:#f3f8f9;}.cls-46{fill:#eff1f2;}.cls-47{fill:#f3f8f8;}.cls-48{fill:#f2f8f8;}.cls-49{fill:#f5f6f7;}.cls-50{fill:#f6f6f6;}.cls-51{fill:#edf2f3;}.cls-52{fill:#edf2f2;}.cls-53{fill:#f4f8f9;}.cls-54{fill:#f3f7f7;}.cls-55{fill:#f0f3f4;}.cls-56{fill:#f4f7f8;}.cls-57{fill:#f4f7f7;}.cls-58{fill:#f6f7f7;}.cls-59{fill:#f5f7f8;}.cls-60{fill:#f4f8f8;}.cls-61{fill:#f5f8f7;}.cls-62{fill:#f2f5f6;}.cls-63{fill:#f6f7f8;}.cls-64{fill:#f9f9f9;}.cls-65{fill:#f8f8f9;}.cls-66{fill:#f9fbfb;}.cls-67{fill:#fdfcfb;}.cls-68{fill:#f6fbfb;}.cls-69{fill:#f6fafa;}.cls-70{fill:#f8fbfb;}.cls-71{fill:#f9fafa;}.cls-72{fill:#f7fafa;}.cls-73{fill:#f6fafb;}.cls-74{fill:#f6f9fa;}.cls-75{fill:#f9fcfc;}.cls-76{fill:#f8fafa;}.cls-77{fill:#f5fafb;}.cls-78{fill:#f8fafb;}.cls-79{fill:#f8f9fa;}.cls-80{fill:#fefefe;}.cls-81{fill:#7f685a;}.cls-82{fill:#f8faf8;}.cls-83{fill:#f8fbf9;}.cls-84{fill:#f9fbf9;}.cls-85{fill:#fafcfb;}.cls-86{fill:#fbfcfb;}.cls-87{fill:#fbfcfa;}.cls-88{fill:#fafdfb;}.cls-89{fill:#fbfdfc;}.cls-90{fill:#fbfdfb;}.cls-91{fill:#fcfdfc;}.cls-92{fill:#878686;}.cls-93{fill:#a9a9a9;}.cls-94{fill:#dddedc;}.cls-95{fill:#cdd5cd;}.cls-96{fill:#c09079;}.cls-97{fill:#1c2529;}.cls-98{fill:#a9abab;}.cls-99{fill:#7d685a;}.cls-100{fill:#bd9176;}.cls-101{fill:#8f8e8e;}.cls-102{fill:#7b7979;}.cls-103{fill:#907361;}.cls-104{fill:#fff9f6;}.cls-105{fill:#fffaf6;}.cls-106{fill:#fffaf7;}.cls-107{fill:#fff9f5;}.cls-108{fill:#fcf7f4;}.cls-109{fill:#fefcfa;}.cls-110{fill:#fffcfa;}.cls-111{fill:#fcf8f5;}.cls-112{fill:#f9f8f7;}.cls-113{fill:#fefcfb;}.cls-114{fill:#fffcfb;}.cls-115{fill:#fffdfc;}.cls-116{fill:#fffdfb;}.cls-117{fill:#a6866e;}.cls-118{fill:#454c52;}.cls-119{fill:#7d6759;}.cls-120{fill:#afb4b4;}.cls-121{fill:#f7f8f7;}.cls-122{fill:#feffff;}.cls-123{fill:#f7f9f7;}.cls-124{fill:#f7faf7;}.cls-125{fill:#f9f6f3;}.cls-126{fill:#fbf8f6;}.cls-127{fill:#fdf9f7;}.cls-128{fill:#f8f4f2;}.cls-129{fill:#fbfaf8;}.cls-130{fill:#f9f9f8;}.cls-131{fill:#f5f3f1;}.cls-132{fill:#fcfcfb;}.cls-133{fill:#f6f5f3;}.cls-134{fill:#f8f9f8;}.cls-135{fill:#fffbf8;}.cls-136{fill:#fff8f4;}.cls-137{fill:#f5f4f3;}.cls-138{fill:#fbfbfb;}.cls-139{fill:#444d53;}.cls-140{fill:#485d68;}.cls-141{fill:#ac967a;}.cls-142{fill:#e1e1e1;}.cls-143{fill:#f1bb41;}.cls-144{fill:#a8acac;}.cls-145{fill:#edba41;}.cls-146{fill:#177764;}.cls-147{fill:#17c9a7;}.cls-148{fill:#0e4740;}</style></defs><g id="Layer_2" data-name="Layer 2"><g id="Website"><g id="about-me_copy" data-name="about-me copy"><polygon class="cls-1" points="439.62 678.23 0.63 678.27 0 0 437.11 0 439.62 678.23"/><polygon class="cls-2" points="377.45 211.65 377.45 0 440.25 0 440.25 620.5 401.94 602.28 399.43 211.93 377.45 211.65"/><polyline class="cls-3" points="403.2 603.54 403.2 205.99 314.64 205.99 314.64 555.81 89.18 665.71 89.18 678.23 439.62 678.23 440.25 613.59"/><path class="cls-4" d="M0,530.06c.57-6.49,5.5-13.85,6.82-20.18,3.09-14.95,6.41-29.85,9.64-44.77a19.23,19.23,0,0,1,.58-2.23c1.05-3,4-3.77,6.5-1.71.2.16.41.3.61.45,1.35-.06,2.2.85,3.11,1.62,11.2,9.45,23.58,17.12,36.51,23.92a349,349,0,0,0,50.44,21.3c5.45,1.62,11,2.74,16.56,4,1.29.26,2.54.63,3.83.91.91.12,1.77.44,2.68.56a6.35,6.35,0,0,1,6,4.88,4.18,4.18,0,0,1,0,1.69c-1.1,5.61-2.54,11.16-3.42,16.81-1,3.43-2.54,6.72-2.53,10.4-.61,3.88-1.5,7.71-2.43,11.53-2.46,12.71-5.35,25.33-8.07,38q-8.34,38.85-16.75,77.67c-.27,1.25-.38,2.57-1.39,3.53-46,0-62.09-.12-108.12-.12v-3.76"/><path class="cls-4" d="M440.25,678.27c-74,0-22,.12-96,.12-1.18-1.66-.11-3.14.46-4.6a330.72,330.72,0,0,0,14.14-44.3c3.07-12.84,5.52-25.79,6.23-39,.18-3.42.47-6.83.38-10.26-.05-1.67.58-3.17.86-4.75,1.91-3.38,3.47-3.87,6.88-2.05,16.22,8.67,50.88,27.1,67.08,35.79"/><path class="cls-5" d="M337,678.39H307.64c-10.83-4.12-21-9.64-31.45-14.58-4.81-2.28-5.78-5.35-3.43-10.1,1.45-2.92,2.33-6.09,3.95-8.92a1.29,1.29,0,0,1,1-.56c7.27,4,14.59,7.89,21.92,11.78,1.27.67,2.8.86,3.81,2,.68,1.63.42,3.41.84,5.08a6.65,6.65,0,0,0,4.24,6.44,8.09,8.09,0,0,0,8.29-.5c1.05-.7,1.71-1.95,3.09-2.19,5.92,3.25,12.05,6.12,17.73,9.82C337.93,677.44,337.48,677.92,337,678.39Z"/><path class="cls-6" d="M337,678.39c.14-.52.29-1,.44-1.57-.6-1.55.26-2.85.79-4.17A335.33,335.33,0,0,0,352.77,628c3.29-13.49,5.92-27.1,6.61-41,.15-3.16.41-6.31.43-9.48,0-1.09-.1-2.27.93-3.07a9.63,9.63,0,0,1,3.81,1.75c1.19.85,1.28-.17,1.74-.68A181.79,181.79,0,0,1,363,614.26a327.29,327.29,0,0,1-18.1,61.45c-.34.85-.94,1.66-.7,2.68Z"/><path class="cls-7" d="M277.21,644.89a65.47,65.47,0,0,1-3.65,9,12.55,12.55,0,0,0-1,2.61,4.93,4.93,0,0,0,1.9,5.43,9.94,9.94,0,0,0,1.77,1L305.84,677c.69.32,1.46.56,1.8,1.35h-7.73c-6-2-11.21-5.56-17-8-2-1.21-4.27-2-6.23-3.3h0c-.29-.3-.79-.22-1.06-.56a16.4,16.4,0,0,0-4-2.18,4.69,4.69,0,0,1-2.7-3.16c-.69-2.57-1.08-5.13.47-7.56.49-3.72,2.16-7.07,3.28-10.6a1.11,1.11,0,0,1,.65-.4A5.48,5.48,0,0,1,277.21,644.89Z"/><path class="cls-8" d="M282.91,670.06c3.73,1.4,7.26,3.24,10.84,5,1.45.7,2.92,1.34,4.38,2,.69.32,1.44.57,1.78,1.35h-3.09a16.48,16.48,0,0,0-3.46-2.2c-3.46-1.88-7-3.69-10.45-5.53-.15-.13-.21-.27-.16-.4S282.86,670.06,282.91,670.06Z"/><path class="cls-9" d="M165.43,459.75a18,18,0,0,0,4,1,32.46,32.46,0,0,1,12.42,4.74c6.92,4.26,14.41,7.19,22,10,8.19,3.06,16.49,5.81,24.86,8.36a33.1,33.1,0,0,1,16.94,11.52c4.58,5.89,9.18,11.75,13.6,17.76,11,14.69,19.84,30.37,22.95,49.08a29.76,29.76,0,0,0,2.08-5.7c1.11-3.71,2.92-4.78,6.54-3.58,2.33.77,4.77,1.42,6.74,3a2.34,2.34,0,0,1,.37.74,12.92,12.92,0,0,1-.7,5c-5.92,24-11.94,48.05-19.41,71.67-.56,1.76-.5,4-2.93,4.73a19.93,19.93,0,0,1-8.91-5.36c-2.64-2.72-3.33-6.09-2.79-9.77a21.18,21.18,0,0,0,.25-6c-1,.08-1.47.82-2.07,1.31a27,27,0,0,1-10.74,5.33,9,9,0,0,1-5.33.09c-7.18-2.65-14.42-2-21.82-1.07a41,41,0,0,1-21.11-3.29c-5.88-2.5-8.53-7.51-8.82-13.7-.24-5.21,2.81-9,7.86-10.35.66-.17,1.34-.29,2-.49,4.08-1.19,5.41-3.28,4.64-7.5a25.09,25.09,0,0,1-.59-6.63c.41-4.61,3.94-6.71,8-4.51,4.84,2.63,10.09,4.22,15.29,6.72-7.62-3.27-13.72-8.2-19.57-13.48A45.27,45.27,0,0,1,208,566a54.24,54.24,0,0,1-11.25-19.34,6.49,6.49,0,0,1-.19-.76,54.67,54.67,0,0,1-2.3-20.54,54.49,54.49,0,0,0-.49-14.87c-.79-4.08-3.28-7.14-6.28-9.78A52.17,52.17,0,0,0,168,489.66a59.14,59.14,0,0,1-22.84-13.53c-1.44-1.67-2.64-3.53-4-5.24a33,33,0,0,1-5-11.73c-.94-5.31.09-9.89,4.77-13.15a4.65,4.65,0,0,1,4.85.2c3.47,6,9.84,8.29,15.31,11.69A19.73,19.73,0,0,0,165.43,459.75Z"/><path class="cls-9" d="M27.38,332.85a23.46,23.46,0,0,1-1.65-22.78c4.63-10.76,9-21.64,12.56-32.81a93.7,93.7,0,0,0,3.35-13.42c.85-5.08,2.18-10,5.1-14.39a18.51,18.51,0,0,0,1.33-3c2.62-6.35,2.66-13.16,3.5-19.82a3.71,3.71,0,0,0-.79-2.88c.95-3.85,4.33-6.27,9.2-4.28a16.19,16.19,0,0,1,7,5.84,34.66,34.66,0,0,1,5.17,12.44c.24,1,.43,2,.65,3,1.33,1.68.81,3.6.57,5.41a53,53,0,0,1-2.93,12.65,19.11,19.11,0,0,1-8.2,10.13,7.66,7.66,0,0,1-3.88,1.16c-1.36-.4-2.71-1.33-4.14-.17-.28.13-.57-.13-.86,0,.33,0,.63.17,1,.19,1,.32,1.94.59,2.88,1,1.22.79,2.57,1.36,3.76,2.18,2.56,1.76,3.16,4.22,1.59,6.89a8.85,8.85,0,0,1-7.43,4.79c1.18.33,2.22.65,2.21,2.07-.34.8-1.57.69-1.84,2,1.54-.09,1.23-1.75,2.1-2.14,5.16,1.15,7.48,8.78,3.9,12.87-2.2,2.52-4.88,3.82-9.25,4.5a35.31,35.31,0,0,1,8.89-.41c1.46.06,2.94.53,3.2,2.07.33,1.95,1.56,2.21,3.08,2.36,10,1,18.16,5.75,25.18,12.7,1,1,2,1.9,2,3.44-.12.92-1.39.91-1.54,2,1.12.58,1.7-.77,2.61-.77a2.78,2.78,0,0,1,1.59,1.22c5.41,6.62,12.28,24,12.83,32.31-.16-1,.53-2,.6-3.14,1.1-3,1.71-6.1,3.23-8.91a25.83,25.83,0,0,1,1.42-2.44c3.8-5.45,9-5.61,13.12-.38a20.3,20.3,0,0,0,3,3.49c2.66,2.17,5.08,2.33,7.69.16a18.13,18.13,0,0,1,9.08-3.85c1,.65,1.73,1.88,3.18,1.8a14.87,14.87,0,0,1,7,17.82,47.54,47.54,0,0,1-14.44,20.86,29.73,29.73,0,0,0-8.92,12,7.78,7.78,0,0,1-2.13,3.45,3.37,3.37,0,0,0-3,2.85c-3.74,3-8.24,4.06-13.06,4.95a50.21,50.21,0,0,0,5.82,4.55c4,2.58,5.38,6.29,5,10.81-.19,2.29-.39,4.61-1.62,6.66-1.72,1-3.17-.09-4.6-.69q-12.69-5.33-25.12-11.21C84,412.1,71.79,406.27,59.7,400.17c-1.43-.72-3.09-1.28-3.16-3.32a9.18,9.18,0,0,1,1.19-4.17c1-1.71,2.5-2.72,4.53-1.9a28.15,28.15,0,0,0,13.88,1.85c.3,0,.7-.08.86.33-6.4-2.88-11.46-7.48-16.17-12.53-8.3-8.9-14.28-19.5-21.39-29.27-1.09-1.5-2.59-2.79-3-4.73.14-.71,1.42-.95.91-1.84-.37-.64-1.23-.29-1.86-.45-2.1-.8-2.82-2.85-3.95-4.49s-2-3.54-3.16-5.21h0A11,11,0,0,1,27.38,332.85Z"/><path class="cls-10" d="M25.68,453.82q2.37-11.16,4.75-22.32,3.06-14.28,6.16-28.56c1-1.06,1.17-2.11,0-3.14a8.68,8.68,0,0,0,1.52-1.33c2.17-2.61,4.74-3.14,7.8-1.7,2.24,1.05,4.34,2.41,6.69,3.25a2,2,0,0,1,1.93.73c.65,1.31,1.85,1.23,3,1.21a10.51,10.51,0,0,1,2.86,1.12c9.55,4.64,18.87,9.73,28.58,14.05A8.3,8.3,0,0,1,92,419a2.54,2.54,0,0,0,3.11,1.4c3.43.61,6.27,2.63,9.37,4,6.55,2.9,13.11,5.79,19.73,8.51a6.67,6.67,0,0,1,.66.31l1,.47c1.27.56,2.57,1,3.82,1.65.63.37,1.38.6,1.49,1.49-.25,1.12-1,2-1.27,3.15-1.25,6.22-2.64,12.4-4,18.6a4.09,4.09,0,0,1-1.25,2.74c-1,.59-2,.14-2.94-.1a7.56,7.56,0,0,0-7.73,2.35,10.69,10.69,0,0,0-2.84,10.21c.12,4.51,3.28,6.19,6.92,7.41,1.49.45,2.54,1.35,2.2,3-1.27,6.2-2,12.52-4.33,18.48-1.24,1.19-2.59.54-3.85.1a360.2,360.2,0,0,1-33.69-13.51c-15.83-7.37-31.07-15.76-45-26.37-2.12-1.61-4.16-3.3-6.17-5.05C25.89,456.74,25.2,455.53,25.68,453.82Z"/><path class="cls-11" d="M57.25,287.08c-.82-1.32-2.39-1.49-3.83-2.41,1.27-.29,2.3-.48,3.32-.75a8.19,8.19,0,0,0,5.4-4.7,4,4,0,0,0-1.69-5.47c-.94-.57-2-1-3-1.5a1.15,1.15,0,0,1-.71-1,1.53,1.53,0,0,1,1-1.72c6.24-1.22,9.64-5.52,11.81-11a48.8,48.8,0,0,0,3.22-17.82l2.45-1.49a12.86,12.86,0,0,1,.71,9.72c-.45,1.13-2.53,1.81-.92,3.49,1,1.22.64,2.6.41,3.93a55.55,55.55,0,0,1-3.12,11.32,53.59,53.59,0,0,0-2.54,8.83c-.74,3.44-.19,6.43,2.65,8.77a4.34,4.34,0,0,1,1.37,1.82c.74,2.24.74,2.24,2.72.57a6.75,6.75,0,0,1,2.51-.44c5.07-.42,7.73-2.75,8.71-7.88.92-4.8,1.46-9.66,2.14-14.49a30.38,30.38,0,0,1,4-12.11c.13-.23.25-.46.36-.7a4.37,4.37,0,0,1,.4-.65l.23-.3A38.23,38.23,0,0,1,97.15,248c.63-.63,1.19-1.53,2.34-1.11.75.58.3,1.61.88,2.38,1.49-.39,2.63-1.69,4.24-1.82.3.93-.38,1.42-.91,1.94A25.29,25.29,0,0,0,96.44,264c-.24,1.49-.25,3.07-1.2,4.39-2.67,1.3-2.67,1.3-.75,3.2.57,1.08.24,2.18.05,3.27-1.21,6.82-2.56,13.62-3.84,20.42-.62,3.3-.69,6.27,1.56,9a2.79,2.79,0,0,1,.5,1.17c.4.89-.77,3,1.78,2.21a4,4,0,0,1,.66-.31,3,3,0,0,1,.74-.14,18.23,18.23,0,0,1,3.71.89,7.79,7.79,0,0,0,9.53-5.22c1.44-4.35,2.71-8.77,4-13.18a3,3,0,0,1,.17-.77c1.6-4.61,2.77-9.35,4.28-14a33,33,0,0,1,5.44-11c1.36-1.66,2.9-3.19,5.32-3.13.7.54.16,1.95,1.46,2.07.24,1.1-.68,1.49-1.31,2a19.89,19.89,0,0,0-7.27,11.72c-2.08,8.72-4.61,17.34-6.76,26a7.88,7.88,0,0,1-1.08,2.86c-.64.89-2.31,1.24-1.5,2.88a5.44,5.44,0,0,1,.3.65,3.61,3.61,0,0,1,.18.72c-.35,6.48,2.27,10.44,7.9,12.09a8,8,0,0,0,7.08-1.12,16.48,16.48,0,0,0,5.13-5.66q6.53-11.51,13.05-23c.67-1.18,1.23-2.5,2.82-2.75a1.9,1.9,0,0,1,1.39.64c1,1.4.17,2.64-.45,3.82-2.86,5.45-5.23,11.14-8,16.63-.31.6-.62,1.22-.88,1.85-1.45,3.45-.72,5.18,2.81,6.62,7.76,3.16,15.54.83,20.39-6,1.07-1.51,1.67-3.41,3.42-4.41a4.31,4.31,0,0,1,3,.12,1.16,1.16,0,0,1,.31.68c-3.95,9.95-10,17.81-20.67,21.28a21.06,21.06,0,0,1-8.65.5c-3.08-.29-5.28-2.57-6-5.86a9.65,9.65,0,0,1,.16-5.62,13.34,13.34,0,0,1-2.91,5.33,15.09,15.09,0,0,0-2.94,2.15,17.44,17.44,0,0,1-11.08.25c-6.14-2.07-10.26-7.1-9.7-13.82-5.4,4-11.24,4.91-17.08,1.58-6.7-3.83-5.84-10.17-4.47-16.68a17.85,17.85,0,0,1-4.35,6c-1.79,1.63-4.13,2.41-6,4-.94,0-1.12-1.46-2.36-1.18.22,1.35,1.57.54,2.09,1.15a13.33,13.33,0,0,1,2.47.62c9.54,4.48,17.81,10.55,24,19.2A42.93,42.93,0,0,1,111,355.55a1.63,1.63,0,0,0,.31.52,35.76,35.76,0,0,1-1.17,5.24c-.89-1.77-1-3.51-1.34-5.14a90.15,90.15,0,0,0-8.23-22.56,40.48,40.48,0,0,0-5.26-7.85l-.28-.05a1.85,1.85,0,0,1-.46-.33,1.07,1.07,0,0,1-.21-.81c-3-4.39-7.14-7.56-11.61-10.33a38.16,38.16,0,0,0-19.15-5.51c-.48-.56,0-.88.06-1.26.42-1.74-.13-2.67-1.92-2.82-2-.16-3.94-.11-5.91-.13H49.76l5.85-1.89a12.15,12.15,0,0,0,4.4-2.58c2.54-2.26,3.18-4.71,1.9-7.85C61,290,59.66,288,57.23,287.06Z"/><path class="cls-11" d="M111.31,356.07h-.5c-.35-3,.42-6.14-.38-9.16a1.56,1.56,0,0,1,.54-.82c.55-.45,1.77-.29,1.65-1.28s-1.47-.5-2.09-1.05-.84-1.41-1-2.25a40.58,40.58,0,0,0-8.3-16.93c-2.13-2.5-1.61-2.86,1.34-4,4.42-1.71,6.46.93,8.69,3.7.66,2.64.66,2.64,3,1.24A16.91,16.91,0,0,0,128.9,327c1.84.15,2.95-.88,3.77-2.37,1.52-.67,2,.46,2.44,1.48,1.42,3.55,4.13,4.9,7.8,5a42.45,42.45,0,0,0,14.12-2c4.23-1.31,7.71.07,10.61,3.21.7.75,1.37,1.54.9,2.69-.29,3-1,5.89-1.53,8.83a1.29,1.29,0,0,1,0,1.95c-1.36,2.63-1.53,5.57-2,8.39a75.93,75.93,0,0,1-7.79,23.52c-2,3.63-4.05,7.19-7.14,10-6.58,6-10.76,13.45-14,21.58a48.86,48.86,0,0,0-3.28,11.29c0,.15-.19.27-.3.41-.66-.28-.8-1.28-1.89-1.28.27,1.08,1.44.73,1.87,1.33-.54,3.07-1.07,6.13-1.61,9.2a6.14,6.14,0,0,1,0,1.05,1.64,1.64,0,0,1-.34.62,1.67,1.67,0,0,1-.67.29,6,6,0,0,1-4.27-1.85.76.76,0,0,1,.09-.7c.21-2.47,1.09-4.83,1.13-7.34.07-3.77-1-6.83-4.34-9-2.62-1.75-5-3.79-7.87-5.94l4-.77a26.8,26.8,0,0,0,9.6-3.49,3.34,3.34,0,0,1,1.66-.65,3.38,3.38,0,0,0,2.44-2.53,23.41,23.41,0,0,0,2.12-4.1A28,28,0,0,1,143.2,384a45.84,45.84,0,0,0,11.85-15,42.3,42.3,0,0,0,2.36-5.12,14.51,14.51,0,0,0-4.76-16.35c-.54-.42-1.08-.84-1.63-1.25-.35-1.47-1.11-2.37-2.77-2a1.87,1.87,0,0,1-1.61,1,11.29,11.29,0,0,0-6.85,3.13c-3.3,2.86-7.11,2.43-9.84-1a23.06,23.06,0,0,0-4.49-4.87c-3.07-2.16-5.91-1.86-8.37,1a21.86,21.86,0,0,0-3.73,6.68C112.64,352.2,112,354.14,111.31,356.07Z"/><path class="cls-9" d="M148.4,289.59c-1,.46-1.38,1.48-1.88,2.36q-6.66,11.74-13.3,23.49a18.63,18.63,0,0,1-3.27,4.28c-4.44,4.28-9,4.61-14.56.5-3.69-2.74-4.63-6.62-3.53-11a6.27,6.27,0,0,0,1-3.59c2.63-10.17,5.32-20.33,7.87-30.52a19.8,19.8,0,0,1,9.1-12.19c6.4-2.14,12-1.07,16.77,3.92l1.73,1.87a18.28,18.28,0,0,0,2.06,2.89c.87,2.55,2,5,2.25,7.77.74,3-1.05,5.17-2.17,7.58A13.13,13.13,0,0,0,148.4,289.59Z"/><path class="cls-9" d="M94.82,268.51c.47-2.52.87-5.06,1.43-7.56a22.51,22.51,0,0,1,7.88-12.89,4,4,0,0,0,.48-.59c9.68-3.2,18.16.89,22.47,10,.51,1.07.87,2.22,1.3,3.34-5.76,2.94-8,8.37-9.85,14-1.4,4.3-2.64,8.65-4,13a2.69,2.69,0,0,1-.61,1.39c-.65-.1-.91-1.06-1.88-.75.27.95,1.28.65,1.77,1.09,0,1.84-.9,3.47-1.39,5.19-.79,2.8-1.75,5.56-2.44,8.38-1.13,4.56-6.37,6.95-10.59,5.77-1.4-.4-2.77-.88-4.16-1.33-1-.52-1.91-1-2.85-1.55-.16-.81-.83-1.27-1.3-1.87a8,8,0,0,1-1.68-7c1.6-8,3-16.14,4.5-24.2.09-.51.32-1-.14-1.44A7.74,7.74,0,0,1,94.82,268.51Z"/><path class="cls-9" d="M99.49,246.91c-1.91,1.06-2.68,3.16-4.19,4.59-.74-.13-1.24-1-2.26-.68,0,1.11,1.29,1,1.68,1.64A38.44,38.44,0,0,0,90.82,264c-.68,5-1.44,9.94-2.12,14.92-.93,6.67-5.35,9.49-10.57,9.14-.59,0-1.19,0-1.79,0a5.79,5.79,0,0,1-3-.61c-.2-.86-1-1.12-1.61-1.58a8.14,8.14,0,0,1-3.1-8.45,53,53,0,0,1,2.89-10.36,49.86,49.86,0,0,0,3.21-12.4c.1-.77.29-1.54-.59-2a4.42,4.42,0,0,0,1.09-3.26c.59-3.41-.06-6.81-.06-10.22.71-.47,1.4-1,2.14-1.4a15.59,15.59,0,0,1,21.4,6.68A4.7,4.7,0,0,1,99.49,246.91Z"/><path class="cls-9" d="M167.44,308.69c-.83.3-1,1.11-1.39,1.76a27.79,27.79,0,0,1-4.22,5.79c-5.58,5.63-13.4,5.92-20,3-3.28-1.47-3.91-3.73-2.26-7.19,3.06-6.41,6.21-12.78,9.29-19.18.38-.79,1.2-1.55.58-2.59.55-.94,1.4-1.72,1.47-2.9.76-1.69.91-3.72,2.71-4.82a10,10,0,0,1,6.93-.79c3.52.85,6.83,2.09,8.95,5.31-.24.64-1.07.84-1.31,1.67.94.47,1.33-.67,2-.62a3.29,3.29,0,0,1,.89,1.57c.95,5.5-.33,10.68-2.25,15.76C168,306.35,168.05,307.66,167.44,308.69Z"/><path class="cls-6" d="M25.68,453.82a3.73,3.73,0,0,0,1.55,3C37,465.31,47.75,472.22,59,478.49a321.4,321.4,0,0,0,49.65,22.16c2.25.8,4.41,1.9,6.83,2.19a1.38,1.38,0,0,1,.41.72c-.31,1.95.38,4.26-2,5.46a129.84,129.84,0,0,1-13.35-4.61C80.8,497,61.8,488.1,44.07,476.64a159,159,0,0,1-19.91-15A43.2,43.2,0,0,1,25.68,453.82Z"/><path class="cls-11" d="M28.39,334.44c.92.39,1.27,1.3,1.81,2,1.8,2.44,3.23,5.14,5.36,7.32a2.73,2.73,0,0,1,1,2.62,10,10,0,0,1,2.52,2.86c5.28,7.6,10.43,15.28,15.83,22.78A74.1,74.1,0,0,0,72.45,389.6a50.43,50.43,0,0,0,5.63,3.2,14.57,14.57,0,0,1-5.56.82,24.67,24.67,0,0,1-10-1.92c-2.15-1-3.56-.4-4.43,1.84a30.9,30.9,0,0,0-.91,3.2c-.18.32-.31.68-.69.84a2.12,2.12,0,0,1-2.33-.84c.72-4.59.91-9.16-.49-13.69a27.3,27.3,0,0,0-2-5c-2.56-4.74-5.2-9.44-7.77-14.17Q36.59,350.36,29.3,336.8A4.61,4.61,0,0,1,28.39,334.44Z"/><path class="cls-11" d="M297.35,556.34c-1.75-.69-3.5-1.38-5.26-2.05a21.87,21.87,0,0,0-2.42-.87c-2.64-.68-3.88,0-4.51,2.68a27.74,27.74,0,0,1-2.52,7c-.23.43-.33,1-1.05,1.15-.88-1.78-.62-3.77-1-5.64a81.45,81.45,0,0,0-6.45-19.18,177.4,177.4,0,0,0-13.52-23.61,6.2,6.2,0,0,1-1.48-2.66c2.21,1.67,3.47,4.14,5.19,6.22,3,3.66,6,7.42,8.84,11.22,1.35,1.78,3.43,2.82,4.59,4.75,2.75,3.32,6.15,6,9.33,8.83a105,105,0,0,0,11.76,9.12C298.78,554.51,298.73,555.75,297.35,556.34Z"/><path class="cls-12" d="M168.54,335c-1.71-3.84-6.37-6.25-10.27-5.28-1.25.31-2.48.68-3.71,1a33.79,33.79,0,0,1-12.49,1c-3.72-.3-6.7-2-7.91-5.88-.3-.95-.67-1.37-1.61-.75a.6.6,0,0,1-.61-.57l4-7.87c.06,2.14-.51,4.07-.44,6.12q.22,7.32,7.44,7.49c9.5.23,16.14-4.63,21.44-11.89a68.65,68.65,0,0,0,5.71-9.73c.11-3.48,1.76-6.5,2.89-9.68.09-.23.44-.2.7-.14,1,2,.46,4.18.47,6.27a26.8,26.8,0,0,1-1.48,8.72,32.34,32.34,0,0,1-6.06,10.46c-1.28,1.49-1.77,2.8,0,4.33,1.38,1.22,1.82,3,2.4,4.7A1.77,1.77,0,0,1,168.54,335Z"/><path class="cls-13" d="M378.71,474.45c2.54,2.43,5.11,4.83,7.61,7.29,2,2,4.35,3.6,6.07,5.83a2.26,2.26,0,0,1-.26.52c-2.94,3-3.15,3-6.07.1-2.08-2-4.15-4.09-6.26-6.1-.41-.39-.79-1.27-1.61-.52-2.78,2.65-5.61,5.25-8.32,8-1,1-1.73,1.17-2.75.16-.67-.65-1.44-1.18-2.38-2l13.52-13.2C378.36,474.25,378.51,474.23,378.71,474.45Z"/><path class="cls-14" d="M57.19,53.19a8.29,8.29,0,0,1-2.71,6c-2.12,2.23-2.41,4.7-1,7a10,10,0,0,0,1.14,1.39c3.37,3.72,3.37,7.71,0,11.46-2.69,3-2.69,5.64,0,8.61,3.47,3.84,3.59,7.74,0,11.38a6,6,0,0,0,0,8.86c3,2.93,3.28,6.74,1.18,9.81a6.91,6.91,0,0,1-1.2,1.33.94.94,0,0,1-1.38,0,.84.84,0,0,1,0-1.16c.3-.41.67-.78,1-1.21A5.66,5.66,0,0,0,54,110c-.37-.47-.83-.87-1.22-1.32a7.56,7.56,0,0,1,0-10.29c.28-.33.61-.61.89-.93,2.24-2.57,2.26-5.57-.14-8.06a8.33,8.33,0,0,1-2.73-5.89A6.84,6.84,0,0,1,53.12,78a6.26,6.26,0,0,0,.11-9.12c-3.46-3.48-3.29-7.51,0-11.18,2.57-2.83,2.7-5.1.49-8.27-.1-.14-.24-.25-.34-.4-.3-.45-.49-.94,0-1.34a1,1,0,0,1,1.41.16,7.34,7.34,0,0,1,2.26,4.22A7,7,0,0,1,57.19,53.19Z"/><path class="cls-14" d="M67.53,53.18a7.54,7.54,0,0,1-2.24,5.57c-3.06,3.36-3.05,5.75,0,9.17s3.14,7.71-.07,10.87a6.24,6.24,0,0,0,0,9.28c3.27,3.18,3.1,7.43,0,10.83s-3.05,5.85,0,9.18c2.76,3,3,7.09.71,10.09a2.78,2.78,0,0,1-1.35,1.14,1,1,0,0,1-1-.24.72.72,0,0,1-.1-.93c.26-.44.63-.82.92-1.24a5.66,5.66,0,0,0-.45-7.32c-.28-.32-.62-.59-.9-.92a7.55,7.55,0,0,1,0-10.3c.17-.19.36-.36.53-.55,2.64-2.91,2.67-5.81,0-8.64a8.05,8.05,0,0,1-2.42-4.43,7.77,7.77,0,0,1,2-6.64c3.13-3.46,3.11-6,0-9.44a7.52,7.52,0,0,1,0-10.67c3-3.32,3.08-4.92.54-8.85-.28-.45-.64-.88-.18-1.36s1.11-.31,1.61.09A7.69,7.69,0,0,1,67.53,53.18Z"/><path class="cls-15" d="M47.13,52.86a7.9,7.9,0,0,1-2.37,5.94,6.18,6.18,0,0,0-1.94,3,5.32,5.32,0,0,0,1.54,5.65c3.49,2.93,3.39,8.8.07,11.89a5.24,5.24,0,0,0,0,8.18,8.11,8.11,0,0,1,.06,11.86c-2.7,2.53-2.58,5.71.05,8.4a7.91,7.91,0,0,1,2.39,7.47,6.86,6.86,0,0,1-1.58,3.19c-.49.58-1.1,1.37-1.91.75s0-1.32.38-1.92c2.11-3,1.93-5.31-.59-8-3.45-3.75-3.44-7.6,0-11.39,2.69-2.94,2.84-5.87,0-8.59a7.93,7.93,0,0,1-.09-11.45C46,75,45.88,72,43.12,68.94c-3.32-3.68-3.32-7.57,0-11.22,2.64-2.91,2.81-5.11.59-8.24-.39-.55-1.12-1.09-.38-1.74s1.4,0,1.92.6A7.67,7.67,0,0,1,47.13,52.86Z"/><path class="cls-7" d="M131,436.85l-1.65-.94a5.27,5.27,0,0,1,.94-4.14.76.76,0,0,1,.26,0c3.46,0,6.29,1.95,9.42,3,1.28.4,2.38,1.4,3.85,1.15,1.61.46,2.77,1.66,4.1,2.56A21.27,21.27,0,0,1,151,440c-.2.47-.39.91,0,1.4,1.37,1.58,1.29,3.41.79,5.26-.28,1.05-.16,2.21-.79,3.17-1.86.67-2.75-.49-3.53-1.85-.38-4.78-.95-5.44-5.6-6.84-2.93-.89-5.84-1.81-8.69-2.91a5.46,5.46,0,0,1-.66-.19,3.71,3.71,0,0,1-.61-.28,2.72,2.72,0,0,1-.57-.33A1.12,1.12,0,0,1,131,436.85Z"/><path class="cls-11" d="M169,333.39a2.07,2.07,0,0,1-1-1.1,11.4,11.4,0,0,0-3.1-4.32,1.41,1.41,0,0,1-.19-2.35,56.74,56.74,0,0,0,6.49-9.45c.42-.77.44-1.91,1.52-2.27a82.72,82.72,0,0,1-1.88,10.22c-.21,1,.21,2.26-.77,3.12-.59-.34-.78-1.27-1.81-1.3.3,1.12,1.35.77,1.83,1.27C170.07,329.33,169.27,331.32,169,333.39Z"/><path class="cls-16" d="M50.78,223.7c1.45.05,1.92.9,1.8,2.2-.19,2-.39,4-.62,6.06-.28,2.35-.61,4.7-.9,7-.34,2.73-1,5.31-3,7.39-.11-3.24.57-6.41,1-9.6A128,128,0,0,1,50.78,223.7Z"/><path class="cls-17" d="M173.7,298.91a74.68,74.68,0,0,1-3.1,9c-.14.3-.33.58-.49.86l-.15-.13c-.7-1-1.21-2.07-1.9-3a49.33,49.33,0,0,0,2.57-12.12c.11-1.27.32-2.52.49-3.78C172.38,292.63,173.76,295.57,173.7,298.91Z"/><path class="cls-18" d="M147.86,447.71a6,6,0,0,0,3.14,2.08h0a1.94,1.94,0,0,1,.44.55c4.65,3.17,9.48,6.06,14,9.41-3,.13-5.47-1.17-7.84-2.68-3.26-2.07-6.37-4.36-9.65-6.38a3.76,3.76,0,0,1-2.12-4C146.91,446.19,147.41,446.9,147.86,447.71Z"/><path class="cls-19" d="M143.8,435.9c-.52.71-1.21.54-1.84.29-3.81-1.48-7.78-2.54-11.43-4.4a1.46,1.46,0,0,1,0-.51c.18-.42.35-.86,1-.64A65.8,65.8,0,0,1,143.8,435.9Z"/><path class="cls-20" d="M153.63,282.52a42.48,42.48,0,0,1-2.13,5.12,1.15,1.15,0,0,1-1.62-.69c0-1.51.94-2.66,1.65-3.85a7.27,7.27,0,0,0,1.12-3.76C153.53,280.23,152.53,281.7,153.63,282.52Z"/><path class="cls-21" d="M189.05,438.77a1.72,1.72,0,0,1-3.43-.06,1.7,1.7,0,0,1,1.58-1.7A1.8,1.8,0,0,1,189.05,438.77Z"/><path class="cls-22" d="M223.19,438.69a1.78,1.78,0,0,1,1.95-1.66,1.69,1.69,0,1,1-.47,3.35A1.68,1.68,0,0,1,223.19,438.69Z"/><path class="cls-21" d="M320.48,438.76a1.7,1.7,0,0,1-1.56,1.64,1.72,1.72,0,0,1-1.85-1.67,1.7,1.7,0,0,1,1.55-1.72A1.79,1.79,0,0,1,320.48,438.76Z"/><path class="cls-22" d="M358,438.68a1.72,1.72,0,0,1-3.43.14,1.69,1.69,0,0,1,1.47-1.79A1.78,1.78,0,0,1,358,438.68Z"/><path class="cls-21" d="M187.12,268.18a1.78,1.78,0,0,1,1.91,1.7,1.66,1.66,0,0,1-1.58,1.68,1.7,1.7,0,0,1-.33-3.38Z"/><path class="cls-21" d="M187.45,305.69a1.71,1.71,0,0,1-.24,3.42,1.73,1.73,0,0,1-1.56-1.95A1.75,1.75,0,0,1,187.45,305.69Z"/><path class="cls-23" d="M318.74,268.17a1.75,1.75,0,0,1,1.72,1.86,1.66,1.66,0,0,1-1.72,1.54,1.72,1.72,0,0,1-1.66-1.85A1.7,1.7,0,0,1,318.74,268.17Z"/><path class="cls-21" d="M318.69,309.12a1.71,1.71,0,0,1,.1-3.41,1.68,1.68,0,0,1,1.67,1.6A1.76,1.76,0,0,1,318.69,309.12Z"/><path class="cls-21" d="M356.39,268.17a1.7,1.7,0,1,1-1.79,1.45A1.73,1.73,0,0,1,356.39,268.17Z"/><path class="cls-21" d="M358,307.32a1.76,1.76,0,0,1-1.49,1.76,1.73,1.73,0,0,1-1.95-1.55,1.72,1.72,0,1,1,3.44-.21Z"/><path class="cls-24" d="M225,346.63a1.78,1.78,0,0,1-1.81-1.75,1.65,1.65,0,0,1,1.61-1.66,1.71,1.71,0,1,1,.2,3.41Z"/><path class="cls-21" d="M226.65,269.88a1.82,1.82,0,0,1-1.62,1.68,1.79,1.79,0,0,1-1.85-1.69,1.75,1.75,0,0,1,1.85-1.68A1.81,1.81,0,0,1,226.65,269.88Z"/><path class="cls-24" d="M358,344.91a1.69,1.69,0,0,1-1.51,1.69,1.74,1.74,0,0,1-1.92-1.6,1.68,1.68,0,0,1,1.5-1.77A1.77,1.77,0,0,1,358,344.91Z"/><path class="cls-25" d="M207.77,269.8a1.64,1.64,0,0,1-1.69,1.77,1.58,1.58,0,0,1-1.61-1.61,1.64,1.64,0,0,1,1.69-1.77A1.6,1.6,0,0,1,207.77,269.8Z"/><path class="cls-21" d="M281.07,305.7a1.78,1.78,0,0,1,1.82,1.76,1.65,1.65,0,0,1-1.62,1.64,1.72,1.72,0,0,1-1.78-1.74A1.76,1.76,0,0,1,281.07,305.7Z"/><path class="cls-26" d="M300.1,305.7a1.68,1.68,0,0,1,1.49,1.95,1.5,1.5,0,0,1-1.73,1.44,1.58,1.58,0,0,1-1.54-1.67A1.74,1.74,0,0,1,300.1,305.7Z"/><path class="cls-27" d="M375,309.12a1.58,1.58,0,0,1-1.54-1.57,1.64,1.64,0,1,1,3.27-.28A1.7,1.7,0,0,1,375,309.12Z"/><path class="cls-28" d="M356.21,402.92A1.74,1.74,0,0,1,354.6,401a1.61,1.61,0,0,1,1.76-1.47,1.67,1.67,0,0,1,1.65,1.63A1.78,1.78,0,0,1,356.21,402.92Z"/><path class="cls-29" d="M149.84,249.48a1.67,1.67,0,0,1,1.65,1.82,1.57,1.57,0,0,1-1.7,1.49,1.6,1.6,0,0,1-1.68-1.55A1.72,1.72,0,0,1,149.84,249.48Z"/><path class="cls-28" d="M226.62,401.31a1.75,1.75,0,0,1-1.94,1.58,1.66,1.66,0,0,1-1.48-1.77,1.72,1.72,0,0,1,1.91-1.58A1.81,1.81,0,0,1,226.62,401.31Z"/><path class="cls-27" d="M320.47,401.07a1.78,1.78,0,0,1-1.75,1.85,1.65,1.65,0,0,1-1.64-1.62,1.7,1.7,0,0,1,3.39-.23Z"/><path class="cls-29" d="M281.18,384.11a1.7,1.7,0,0,1-1.69-1.62,1.72,1.72,0,0,1,1.78-1.71,1.67,1.67,0,0,1-.09,3.33Z"/><path class="cls-25" d="M282.89,270.1a1.66,1.66,0,0,1-1.66,1.47,1.73,1.73,0,0,1-1.73-1.79,1.68,1.68,0,0,1,1.67-1.61A1.78,1.78,0,0,1,282.89,270.1Z"/><path class="cls-26" d="M356.32,324.56a1.6,1.6,0,0,1,1.67,1.55,1.7,1.7,0,1,1-3.4-.09A1.57,1.57,0,0,1,356.32,324.56Z"/><path class="cls-30" d="M281.12,362a1.68,1.68,0,0,1,1.76,1.72,1.62,1.62,0,0,1-1.6,1.63,1.73,1.73,0,0,1-1.79-1.71A1.79,1.79,0,0,1,281.12,362Z"/><path class="cls-29" d="M282.89,251.29a1.61,1.61,0,0,1-1.64,1.51,1.65,1.65,0,0,1-1.74-1.73,1.62,1.62,0,0,1,1.64-1.58A1.7,1.7,0,0,1,282.89,251.29Z"/><path class="cls-31" d="M189,420.1a1.63,1.63,0,0,1-1.62,1.53,1.65,1.65,0,0,1-1.78-1.68,1.63,1.63,0,0,1,1.61-1.62A1.73,1.73,0,0,1,189,420.1Z"/><path class="cls-25" d="M337.72,271.58a1.72,1.72,0,0,1-1.83-1.73,1.61,1.61,0,0,1,1.57-1.66,1.64,1.64,0,0,1,1.75,1.72A1.62,1.62,0,0,1,337.72,271.58Z"/><path class="cls-32" d="M112.06,211.92a1.71,1.71,0,0,1,1.85,1.71,1.61,1.61,0,0,1-1.56,1.66,1.68,1.68,0,0,1-1.77-1.71A1.63,1.63,0,0,1,112.06,211.92Z"/><path class="cls-32" d="M131.07,211.92a1.58,1.58,0,0,1,1.6,1.51,1.67,1.67,0,0,1-1.6,1.87,1.62,1.62,0,0,1-1.7-1.52A1.68,1.68,0,0,1,131.07,211.92Z"/><path class="cls-28" d="M187.28,287a1.71,1.71,0,0,1,1.75,1.75,1.71,1.71,0,0,1-3.4.08A1.7,1.7,0,0,1,187.28,287Z"/><path class="cls-25" d="M319,324.57a1.51,1.51,0,0,1,1.47,1.56,1.64,1.64,0,0,1-1.75,1.7,1.7,1.7,0,0,1-1.64-1.83A1.73,1.73,0,0,1,319,324.57Z"/><path class="cls-25" d="M395.58,270a1.71,1.71,0,0,1-1.64,1.6,1.73,1.73,0,0,1-1.79-1.74,1.69,1.69,0,0,1,1.63-1.65A1.78,1.78,0,0,1,395.58,270Z"/><path class="cls-33" d="M224.82,215.32a1.75,1.75,0,0,1-1.63-1.63,1.73,1.73,0,0,1,1.76-1.77,1.69,1.69,0,0,1,1.66,1.62A1.8,1.8,0,0,1,224.82,215.32Z"/><path class="cls-29" d="M395.57,251a1.71,1.71,0,1,1-1.67-1.55A1.71,1.71,0,0,1,395.57,251Z"/><path class="cls-32" d="M262.42,211.91a1.71,1.71,0,0,1,1.64,1.93,1.57,1.57,0,0,1-1.75,1.45,1.65,1.65,0,0,1-1.55-1.91A1.62,1.62,0,0,1,262.42,211.91Z"/><path class="cls-34" d="M206.09,343.21a1.6,1.6,0,0,1,1.65,1.59,1.56,1.56,0,0,1-1.44,1.79,1.66,1.66,0,0,1-1.82-1.7A1.62,1.62,0,0,1,206.09,343.21Z"/><path class="cls-25" d="M318.75,215.32a1.74,1.74,0,0,1-1.68-1.61,1.72,1.72,0,0,1,1.73-1.79,1.65,1.65,0,0,1,1.66,1.59A1.74,1.74,0,0,1,318.75,215.32Z"/><path class="cls-35" d="M54.16,396.74a8.08,8.08,0,0,1,2.47.57,1.67,1.67,0,0,1,.08,2.11,3.52,3.52,0,0,1-2.57,1.46,3.72,3.72,0,0,1-1.57-.86C53.81,399.27,53.46,397.75,54.16,396.74Z"/><path class="cls-33" d="M356.33,215.32a1.7,1.7,0,0,1-.14-3.4,1.7,1.7,0,1,1,.14,3.4Z"/><path class="cls-25" d="M37.07,268.17a1.64,1.64,0,0,1,1.71,1.47,1.67,1.67,0,0,1-1.51,1.94,1.69,1.69,0,0,1-1.77-1.72A1.66,1.66,0,0,1,37.07,268.17Z"/><path class="cls-32" d="M412.64,211.92a1.67,1.67,0,0,1,1.67,1.8,1.67,1.67,0,0,1-3.33,0A1.68,1.68,0,0,1,412.64,211.92Z"/><path class="cls-30" d="M93.45,230.71a1.68,1.68,0,1,1,0,3.35,1.61,1.61,0,0,1-1.68-1.54A1.67,1.67,0,0,1,93.45,230.71Z"/><path class="cls-30" d="M151.51,232.37a1.71,1.71,0,0,1-1.89,1.67,1.62,1.62,0,0,1-1.5-1.72,1.65,1.65,0,0,1,1.88-1.58A1.61,1.61,0,0,1,151.51,232.37Z"/><path class="cls-25" d="M376.73,438.89a1.58,1.58,0,0,1-1.58,1.51,1.62,1.62,0,0,1-1.71-1.75A1.56,1.56,0,0,1,375,437,1.72,1.72,0,0,1,376.73,438.89Z"/><path class="cls-36" d="M150.4,271.57c-2.16-.44-2.35-.71-2.06-2.89l.24-.09c1-.56,2-.64,2.65.43S151.27,270.92,150.4,271.57Z"/><path class="cls-30" d="M281.1,230.71a1.68,1.68,0,0,1,1.78,1.71,1.6,1.6,0,0,1-1.58,1.63,1.73,1.73,0,0,1-1.81-1.69A1.79,1.79,0,0,1,281.1,230.71Z"/><path class="cls-25" d="M339.21,438.73a1.59,1.59,0,0,1-1.54,1.67,1.68,1.68,0,0,1-1.78-1.71,1.63,1.63,0,0,1,1.56-1.68A1.68,1.68,0,0,1,339.21,438.73Z"/><path class="cls-26" d="M300.05,440.41a1.72,1.72,0,0,1-1.73-1.77,1.63,1.63,0,0,1,1.6-1.63,1.7,1.7,0,0,1,.13,3.4Z"/><path class="cls-25" d="M281.27,440.42a1.79,1.79,0,0,1-1.79-1.77,1.73,1.73,0,0,1,1.65-1.65,1.71,1.71,0,0,1,.14,3.42Z"/><path class="cls-25" d="M243.57,437a1.72,1.72,0,0,1,1.77,1.8,1.59,1.59,0,0,1-1.62,1.6,1.62,1.62,0,0,1-1.67-1.79A1.6,1.6,0,0,1,243.57,437Z"/><path class="cls-37" d="M264.09,344.82a1.63,1.63,0,0,1-1.48,1.77,1.68,1.68,0,0,1-1.86-1.62,1.67,1.67,0,1,1,3.34-.15Z"/><path class="cls-38" d="M395.57,232.38a1.72,1.72,0,0,1-1.52,1.66,1.67,1.67,0,1,1-.14-3.33A1.8,1.8,0,0,1,395.57,232.38Z"/><path class="cls-25" d="M168.44,268.18a1.7,1.7,0,0,1,1.75,1.79,1.54,1.54,0,0,1-1.6,1.6,1.68,1.68,0,0,1-1.7-1.78A1.62,1.62,0,0,1,168.44,268.18Z"/><path class="cls-39" d="M168.65,440.41a1.69,1.69,0,0,1-1.75-1.81,1.62,1.62,0,0,1,1.64-1.59,1.65,1.65,0,0,1,1.65,1.82A1.57,1.57,0,0,1,168.65,440.41Z"/><path class="cls-32" d="M264.08,401.29a1.6,1.6,0,0,1-1.56,1.62,1.66,1.66,0,0,1-1.77-1.71,1.62,1.62,0,0,1,1.57-1.66A1.69,1.69,0,0,1,264.08,401.29Z"/><path class="cls-26" d="M356.31,290.29a1.64,1.64,0,0,1-1.72-1.74,1.6,1.6,0,0,1,1.66-1.56,1.68,1.68,0,0,1,1.74,1.75A1.63,1.63,0,0,1,356.31,290.29Z"/><path class="cls-28" d="M320.47,288.6a1.67,1.67,0,0,1-1.78,1.69,1.65,1.65,0,0,1-.08-3.29A1.67,1.67,0,0,1,320.47,288.6Z"/><path class="cls-26" d="M224.75,290.28a1.56,1.56,0,0,1-1.55-1.58A1.66,1.66,0,0,1,225,287a1.63,1.63,0,0,1,1.64,1.6A1.68,1.68,0,0,1,224.75,290.28Z"/><path class="cls-30" d="M281.35,193.22a1.55,1.55,0,0,1,1.53,1.6,1.63,1.63,0,0,1-1.84,1.66,1.57,1.57,0,0,1-1.52-1.73C279.58,193.79,280.21,193.22,281.35,193.22Z"/><path class="cls-40" d="M339.17,401.49a1.57,1.57,0,0,1-1.77,1.4,1.62,1.62,0,0,1-1.45-2,1.53,1.53,0,0,1,1.88-1.29A1.57,1.57,0,0,1,339.17,401.49Z"/><path class="cls-41" d="M320.47,195a1.61,1.61,0,0,1-1.67,1.5,1.68,1.68,0,0,1-1.72-1.82,1.6,1.6,0,0,1,1.81-1.45A1.64,1.64,0,0,1,320.47,195Z"/><path class="cls-42" d="M299.93,402.91a1.66,1.66,0,0,1-1.6-1.67,1.68,1.68,0,0,1,1.82-1.7,1.59,1.59,0,0,1,1.44,1.8A1.57,1.57,0,0,1,299.93,402.91Z"/><path class="cls-43" d="M395.56,194.8a1.67,1.67,0,0,1-1.55,1.67,1.62,1.62,0,0,1-1.83-1.66,1.54,1.54,0,0,1,1.65-1.58C394.85,193.2,395.37,193.8,395.56,194.8Z"/><path class="cls-44" d="M282.9,401.12a1.76,1.76,0,0,1-1.78,1.79,1.67,1.67,0,0,1-1.62-1.64,1.74,1.74,0,0,1,1.78-1.74A1.68,1.68,0,0,1,282.9,401.12Z"/><path class="cls-45" d="M37.16,211.92a1.6,1.6,0,0,1,1.62,1.64,1.56,1.56,0,0,1-1.52,1.72,1.63,1.63,0,0,1-1.73-1.76A1.59,1.59,0,0,1,37.16,211.92Z"/><path class="cls-46" d="M57.66,213.65A1.73,1.73,0,0,1,56,215.3a1.7,1.7,0,0,1-1.78-1.72,1.66,1.66,0,0,1,1.61-1.65A1.78,1.78,0,0,1,57.66,213.65Z"/><path class="cls-47" d="M74.71,215.3c-.94-.11-1.6-.55-1.64-1.59a1.55,1.55,0,0,1,1.45-1.77,1.65,1.65,0,0,1,1.81,1.69C76.3,214.66,75.68,215.14,74.71,215.3Z"/><path class="cls-41" d="M95.16,213.53a1.77,1.77,0,0,1-1.75,1.77,1.64,1.64,0,0,1-1.64-1.61,1.74,1.74,0,0,1,1.74-1.78A1.79,1.79,0,0,1,95.16,213.53Z"/><path class="cls-41" d="M149.81,211.91a1.73,1.73,0,0,1,1.67,1.92,1.64,1.64,0,0,1-1.76,1.47,1.7,1.7,0,0,1-1.58-1.91A1.65,1.65,0,0,1,149.81,211.91Z"/><path class="cls-46" d="M187.45,211.92a1.74,1.74,0,0,1,1.56,1.94,1.71,1.71,0,0,1-3.39-.24A1.77,1.77,0,0,1,187.45,211.92Z"/><path class="cls-45" d="M207.75,213.6a1.54,1.54,0,0,1-1.57,1.66,1.51,1.51,0,0,1-1.69-1.52,1.63,1.63,0,0,1,1.68-1.81A1.65,1.65,0,0,1,207.75,213.6Z"/><path class="cls-48" d="M245.33,213.61a1.57,1.57,0,0,1-1.58,1.66,1.51,1.51,0,0,1-1.68-1.54,1.61,1.61,0,0,1,1.68-1.8A1.67,1.67,0,0,1,245.33,213.61Z"/><path class="cls-41" d="M281.35,215.31a1.79,1.79,0,0,1-1.85-1.75,1.67,1.67,0,0,1,1.62-1.64,1.7,1.7,0,0,1,.23,3.39Z"/><path class="cls-32" d="M301.61,213.55c0,1.11-.61,1.72-1.59,1.73a1.58,1.58,0,0,1-1.69-1.57,1.63,1.63,0,0,1,1.73-1.78A1.56,1.56,0,0,1,301.61,213.55Z"/><path class="cls-45" d="M337.57,211.93a1.55,1.55,0,0,1,1.6,1.52,1.58,1.58,0,0,1-1.4,1.82,1.68,1.68,0,1,1-.2-3.34Z"/><path class="cls-48" d="M376.73,213.63a1.59,1.59,0,0,1-1.64,1.64,1.51,1.51,0,0,1-1.64-1.59,1.59,1.59,0,0,1,1.74-1.74A1.62,1.62,0,0,1,376.73,213.63Z"/><path class="cls-37" d="M431.35,215.31a1.71,1.71,0,0,1-1.64-1.66,1.65,1.65,0,0,1,1.8-1.72,1.56,1.56,0,0,1,1.48,1.76C433,214.72,432.34,215.2,431.35,215.31Z"/><path class="cls-49" d="M112.22,234.07a1.6,1.6,0,0,1-1.62-1.66,1.56,1.56,0,0,1,1.57-1.68,1.67,1.67,0,1,1,0,3.34Z"/><path class="cls-49" d="M132.68,232.48a1.61,1.61,0,0,1-1.64,1.57,1.63,1.63,0,0,1-1.66-1.84,1.53,1.53,0,0,1,1.75-1.46A1.57,1.57,0,0,1,132.68,232.48Z"/><path class="cls-46" d="M187.26,234.06a1.72,1.72,0,0,1-1.62-1.88,1.59,1.59,0,0,1,1.76-1.46,1.61,1.61,0,0,1,1.64,1.6A1.76,1.76,0,0,1,187.26,234.06Z"/><path class="cls-49" d="M262.28,234.06a1.62,1.62,0,0,1-1.52-1.69,1.6,1.6,0,0,1,1.85-1.62,1.53,1.53,0,0,1,1.43,1.78A1.58,1.58,0,0,1,262.28,234.06Z"/><path class="cls-40" d="M412.72,230.73a1.59,1.59,0,0,1,1.58,1.65,1.64,1.64,0,0,1-1.83,1.66,1.55,1.55,0,0,1-1.46-1.76A1.56,1.56,0,0,1,412.72,230.73Z"/><path class="cls-50" d="M243.67,402.92a1.6,1.6,0,0,1-1.6-1.67,1.55,1.55,0,0,1,1.53-1.7,1.65,1.65,0,0,1,1.72,1.78A1.63,1.63,0,0,1,243.67,402.92Z"/><path class="cls-51" d="M187.27,252.81a1.64,1.64,0,0,1-1.65-1.59,1.74,1.74,0,0,1,1.77-1.74,1.71,1.71,0,0,1,1.63,1.86A1.66,1.66,0,0,1,187.27,252.81Z"/><path class="cls-40" d="M207.75,401.1a1.61,1.61,0,0,1-1.46,1.79,1.63,1.63,0,0,1-1.81-1.68,1.52,1.52,0,0,1,1.58-1.64A1.55,1.55,0,0,1,207.75,401.1Z"/><path class="cls-51" d="M224.94,252.81a1.63,1.63,0,0,1-1.73-1.44,1.69,1.69,0,0,1,1.59-1.88,1.73,1.73,0,0,1,1.81,1.69A1.67,1.67,0,0,1,224.94,252.81Z"/><path class="cls-51" d="M187.39,380.78a1.71,1.71,0,0,1,1.63,1.85,1.71,1.71,0,0,1-3.4-.12A1.72,1.72,0,0,1,187.39,380.78Z"/><path class="cls-51" d="M320.47,251.18a1.58,1.58,0,0,1-1.51,1.61,1.65,1.65,0,0,1-1.88-1.58,1.62,1.62,0,0,1,1.51-1.71A1.7,1.7,0,0,1,320.47,251.18Z"/><path class="cls-52" d="M187.12,402.91a1.71,1.71,0,0,1-1.5-1.66,1.74,1.74,0,0,1,1.81-1.72A1.7,1.7,0,0,1,189,401.2,1.79,1.79,0,0,1,187.12,402.91Z"/><path class="cls-51" d="M356.26,252.82a1.64,1.64,0,0,1-1.67-1.56,1.67,1.67,0,0,1,1.71-1.77A1.63,1.63,0,0,1,358,251,1.68,1.68,0,0,1,356.26,252.82Z"/><path class="cls-40" d="M170.18,401.13a1.59,1.59,0,0,1-1.47,1.76,1.64,1.64,0,0,1-1.81-1.69,1.6,1.6,0,0,1,1.61-1.65A1.62,1.62,0,0,1,170.18,401.13Z"/><path class="cls-51" d="M224.68,380.78a1.78,1.78,0,0,1,1.93,1.73,1.71,1.71,0,0,1-3.41-.13A1.62,1.62,0,0,1,224.68,380.78Z"/><path class="cls-44" d="M149.76,402.92a1.67,1.67,0,0,1-1.63-1.55,1.72,1.72,0,0,1,1.65-1.85,1.69,1.69,0,0,1,1.72,1.54A1.76,1.76,0,0,1,149.76,402.92Z"/><path class="cls-24" d="M243.69,268.18a1.69,1.69,0,0,1,1.64,1.83,1.55,1.55,0,0,1-1.64,1.55,1.61,1.61,0,0,1-1.63-1.81A1.63,1.63,0,0,1,243.69,268.18Z"/><path class="cls-23" d="M262.39,268.17a1.74,1.74,0,0,1,1.68,1.9,1.58,1.58,0,0,1-1.72,1.5,1.7,1.7,0,0,1,0-3.4Z"/><path class="cls-24" d="M376.73,270a1.58,1.58,0,0,1-1.54,1.57,1.6,1.6,0,0,1-1.75-1.69,1.58,1.58,0,0,1,1.52-1.68A1.7,1.7,0,0,1,376.73,270Z"/><path class="cls-23" d="M414.33,269.88a1.71,1.71,0,0,1-1.82,1.68,1.61,1.61,0,0,1-1.53-1.7,1.57,1.57,0,0,1,1.54-1.67A1.71,1.71,0,0,1,414.33,269.88Z"/><path class="cls-45" d="M167,345.78c0-.65,0-1.3,0-1.95a6.38,6.38,0,0,1,1.15-.55,1.5,1.5,0,0,1,1.77.72,1.68,1.68,0,0,1-.05,1.94,1.51,1.51,0,0,1-2.06.44A7,7,0,0,1,167,345.78Z"/><path class="cls-53" d="M168.56,211.93a1.54,1.54,0,0,1,1.6,1.52,1.56,1.56,0,0,1-1.4,1.82,1.68,1.68,0,1,1-.2-3.34Z"/><path class="cls-46" d="M187.45,346.6a1.76,1.76,0,0,1-1.83-1.7,1.69,1.69,0,0,1,1.59-1.68,1.75,1.75,0,0,1,1.83,1.7A1.71,1.71,0,0,1,187.45,346.6Z"/><path class="cls-46" d="M281.29,346.61a1.8,1.8,0,0,1-1.79-1.75,1.66,1.66,0,0,1,1.62-1.64A1.74,1.74,0,0,1,282.9,345,1.72,1.72,0,0,1,281.29,346.61Z"/><path class="cls-46" d="M187.26,365.36a1.73,1.73,0,0,1-1.62-1.88,1.71,1.71,0,0,1,3.4.14A1.76,1.76,0,0,1,187.26,365.36Z"/><path class="cls-51" d="M358,382.43a1.71,1.71,0,0,1-3.42.1,1.63,1.63,0,0,1,1.49-1.73A1.74,1.74,0,0,1,358,382.43Z"/><path class="cls-49" d="M262.51,362a1.58,1.58,0,0,1,1.54,1.7,1.54,1.54,0,0,1-1.61,1.62,1.66,1.66,0,1,1,.07-3.32Z"/><path class="cls-51" d="M320.47,382.51a1.58,1.58,0,0,1-1.56,1.58,1.65,1.65,0,0,1-1.83-1.63,1.62,1.62,0,0,1,1.56-1.67A1.7,1.7,0,0,1,320.47,382.51Z"/><path class="cls-54" d="M151.5,419.88A1.59,1.59,0,0,1,150,421.6a1.57,1.57,0,0,1-1.84-1.38,1.68,1.68,0,1,1,3.35-.34Z"/><path class="cls-54" d="M281.12,421.63a1.65,1.65,0,0,1,0-3.29,1.67,1.67,0,0,1,1.72,1.79A1.69,1.69,0,0,1,281.12,421.63Z"/><path class="cls-44" d="M318.86,421.64a1.66,1.66,0,0,1-1.78-1.48,1.68,1.68,0,0,1,1.65-1.83,1.66,1.66,0,0,1,1.73,1.74A1.6,1.6,0,0,1,318.86,421.64Z"/><path class="cls-55" d="M300,346.61c-1-.19-1.6-.67-1.64-1.7a1.67,1.67,0,0,1,1.84-1.69,1.71,1.71,0,0,1-.2,3.39Z"/><path class="cls-24" d="M320.47,345.11a1.66,1.66,0,0,1-1.67,1.5,1.73,1.73,0,0,1-1.72-1.81,1.66,1.66,0,0,1,1.68-1.59A1.77,1.77,0,0,1,320.47,345.11Z"/><path class="cls-45" d="M337.44,343.22a1.59,1.59,0,0,1,1.73,1.51,1.55,1.55,0,0,1-1.36,1.84,1.65,1.65,0,0,1-1.89-1.61A1.62,1.62,0,0,1,337.44,343.22Z"/><path class="cls-25" d="M207.77,438.63a1.6,1.6,0,0,1-1.45,1.76,1.67,1.67,0,0,1-1.86-1.6,1.63,1.63,0,0,1,1.45-1.78A1.72,1.72,0,0,1,207.77,438.63Z"/><path class="cls-21" d="M264.1,438.68a1.65,1.65,0,0,1-1.55,1.73,1.7,1.7,0,0,1-1.8-1.7,1.63,1.63,0,0,1,1.54-1.69A1.7,1.7,0,0,1,264.1,438.68Z"/><path class="cls-47" d="M376.72,344.85a1.55,1.55,0,0,1-1.57,1.72,1.52,1.52,0,0,1-1.69-1.54,1.63,1.63,0,1,1,3.26-.18Z"/><path class="cls-56" d="M282.88,326.25a1.56,1.56,0,0,1-1.56,1.56,1.64,1.64,0,0,1-1.79-1.7,1.55,1.55,0,0,1,1.68-1.54A1.62,1.62,0,0,1,282.88,326.25Z"/><path class="cls-25" d="M339.21,307.47a1.61,1.61,0,0,1-1.59,1.63,1.66,1.66,0,0,1-1.73-1.75,1.63,1.63,0,0,1,1.6-1.63A1.67,1.67,0,0,1,339.21,307.47Z"/><path class="cls-25" d="M207.77,307.43a1.6,1.6,0,0,1-1.55,1.67,1.66,1.66,0,0,1-1.76-1.71,1.61,1.61,0,0,1,1.54-1.68A1.72,1.72,0,0,1,207.77,307.43Z"/><path class="cls-41" d="M395.57,213.53a1.77,1.77,0,0,1-1.82,1.76,1.64,1.64,0,0,1-1.59-1.66,1.72,1.72,0,0,1,1.8-1.71A1.74,1.74,0,0,1,395.57,213.53Z"/><path class="cls-30" d="M95.17,194.89c-.2.94-.68,1.58-1.71,1.6a1.66,1.66,0,0,1-1.69-1.83,1.57,1.57,0,0,1,1.8-1.43A1.63,1.63,0,0,1,95.17,194.89Z"/><path class="cls-30" d="M151.52,194.78a1.7,1.7,0,0,1-3.4,0,1.57,1.57,0,0,1,1.68-1.58A1.62,1.62,0,0,1,151.52,194.78Z"/><path class="cls-57" d="M282.88,288.65a1.54,1.54,0,0,1-1.52,1.61,1.58,1.58,0,0,1-1.83-1.39,1.68,1.68,0,1,1,3.35-.22Z"/><path class="cls-50" d="M376.68,401.62a1.56,1.56,0,0,1-1.77,1.27,1.61,1.61,0,0,1-1.42-2,1.53,1.53,0,0,1,1.88-1.29A1.7,1.7,0,0,1,376.68,401.62Z"/><path class="cls-24" d="M301.6,270.16a1.52,1.52,0,0,1-1.79,1.39,1.57,1.57,0,0,1-1.48-1.78,1.64,1.64,0,0,1,1.94-1.55A1.62,1.62,0,0,1,301.6,270.16Z"/><path class="cls-58" d="M300,365.36a1.67,1.67,0,1,1,0-3.33,1.5,1.5,0,0,1,1.54,1.66A1.58,1.58,0,0,1,300,365.36Z"/><path class="cls-58" d="M374.86,234a1.55,1.55,0,0,1-1.4-1.72,1.49,1.49,0,0,1,1.62-1.58,1.6,1.6,0,0,1,1.62,1.84A1.67,1.67,0,0,1,374.86,234Z"/><path class="cls-38" d="M356.21,230.71a1.67,1.67,0,0,1,1.76,1.48,1.72,1.72,0,0,1-1.61,1.87,1.74,1.74,0,0,1-1.78-1.73A1.69,1.69,0,0,1,356.21,230.71Z"/><path class="cls-58" d="M76.31,232.64a1.55,1.55,0,0,1-1.66,1.4,1.58,1.58,0,0,1-1.57-1.87,1.48,1.48,0,0,1,1.75-1.42A1.65,1.65,0,0,1,76.31,232.64Z"/><path class="cls-55" d="M320.47,232.32a1.72,1.72,0,0,1-1.75,1.74,1.6,1.6,0,0,1-1.62-1.61,1.56,1.56,0,0,1,1.48-1.72A1.72,1.72,0,0,1,320.47,232.32Z"/><path class="cls-55" d="M320.47,363.77a1.73,1.73,0,0,1-2,1.55,1.66,1.66,0,1,1,2-1.55Z"/><path class="cls-58" d="M300.06,230.73a1.51,1.51,0,0,1,1.53,1.6A1.53,1.53,0,0,1,300.1,234a1.64,1.64,0,0,1-1.77-1.71A1.69,1.69,0,0,1,300.06,230.73Z"/><path class="cls-47" d="M412.8,252.77c-1.08,0-1.74-.49-1.79-1.48a1.53,1.53,0,0,1,1.43-1.78,1.6,1.6,0,0,1,1.85,1.61A1.54,1.54,0,0,1,412.8,252.77Z"/><path class="cls-58" d="M245.33,232.47a1.63,1.63,0,1,1-3.25-.23,1.46,1.46,0,0,1,1.68-1.49A1.56,1.56,0,0,1,245.33,232.47Z"/><path class="cls-38" d="M224.81,234.06a1.71,1.71,0,0,1-1.59-1.89,1.59,1.59,0,0,1,1.77-1.44,1.62,1.62,0,0,1,1.62,1.62A1.75,1.75,0,0,1,224.81,234.06Z"/><path class="cls-38" d="M358,363.89a1.75,1.75,0,0,1-2,1.43,1.65,1.65,0,0,1-1.35-1.85,1.7,1.7,0,0,1,2-1.42A1.73,1.73,0,0,1,358,363.89Z"/><path class="cls-58" d="M375.15,365.35a1.56,1.56,0,0,1-1.68-1.53,1.52,1.52,0,0,1,1.4-1.79,1.67,1.67,0,1,1,.28,3.32Z"/><path class="cls-44" d="M358,420.05a1.65,1.65,0,0,1-1.57,1.57,1.63,1.63,0,0,1-1.84-1.61,1.6,1.6,0,0,1,1.54-1.67A1.73,1.73,0,0,1,358,420.05Z"/><path class="cls-44" d="M224.63,418.34a1.75,1.75,0,0,1,2,1.66,1.61,1.61,0,0,1-1.59,1.63A1.64,1.64,0,0,1,223.2,420,1.61,1.61,0,0,1,224.63,418.34Z"/><path class="cls-59" d="M412.61,193.22a1.56,1.56,0,0,1,1.69,1.49,1.62,1.62,0,0,1-1.71,1.77,1.63,1.63,0,0,1,0-3.26Z"/><path class="cls-41" d="M356.23,193.21a1.63,1.63,0,0,1,1.76,1.52,1.73,1.73,0,0,1-1.72,1.77,1.68,1.68,0,0,1-1.68-1.79A1.58,1.58,0,0,1,356.23,193.21Z"/><path class="cls-60" d="M262.22,418.35a1.58,1.58,0,0,1,1.82,1.46,1.49,1.49,0,0,1-1.39,1.79,1.58,1.58,0,0,1-1.88-1.56A1.54,1.54,0,0,1,262.22,418.35Z"/><path class="cls-59" d="M264.07,194.8a1.65,1.65,0,1,1-3.3,0,1.49,1.49,0,0,1,1.61-1.59A1.54,1.54,0,0,1,264.07,194.8Z"/><path class="cls-26" d="M189,326.23a1.61,1.61,0,0,1-1.52,1.59,1.64,1.64,0,0,1-1.89-1.56,1.56,1.56,0,0,1,1.5-1.69A1.68,1.68,0,0,1,189,326.23Z"/><path class="cls-24" d="M431.49,268.18a1.66,1.66,0,0,1,1.49,1.95,1.5,1.5,0,0,1-1.73,1.42,1.58,1.58,0,0,1-1.55-1.67A1.73,1.73,0,0,1,431.49,268.18Z"/><path class="cls-41" d="M226.61,194.77a1.76,1.76,0,0,1-1.86,1.72,1.64,1.64,0,1,1,.28-3.27A1.62,1.62,0,0,1,226.61,194.77Z"/><path class="cls-31" d="M187.27,193.21a1.6,1.6,0,0,1,1.75,1.51,1.68,1.68,0,0,1-1.76,1.77,1.57,1.57,0,0,1-1.61-1.66A1.54,1.54,0,0,1,187.27,193.21Z"/><path class="cls-59" d="M130.92,196.49a1.63,1.63,0,1,1,.26-3.25,1.47,1.47,0,0,1,1.48,1.7A1.56,1.56,0,0,1,130.92,196.49Z"/><path class="cls-59" d="M113.9,195a1.58,1.58,0,0,1-1.68,1.53,1.61,1.61,0,0,1-1.62-1.85,1.66,1.66,0,0,1,3.3.32Z"/><path class="cls-61" d="M263.88,306.65a6.45,6.45,0,0,0,0,.76c0,.75-.16,1.38-.94,1.63a1.54,1.54,0,0,1-1.77-.71,1.42,1.42,0,0,1,0-1.88c.2-.28.42-.54.63-.81C262.63,305.67,263.44,305.77,263.88,306.65Z"/><path class="cls-31" d="M55.75,196.49a1.62,1.62,0,0,1-1.5-1.7,1.6,1.6,0,0,1,1.93-1.55A1.49,1.49,0,0,1,57.61,195,1.62,1.62,0,0,1,55.75,196.49Z"/><path class="cls-47" d="M260.75,251.15a1.57,1.57,0,0,1,1.5-1.64,1.6,1.6,0,0,1,1.81,1.67,1.52,1.52,0,0,1-1.61,1.6A1.63,1.63,0,0,1,260.75,251.15Z"/><path class="cls-38" d="M224.82,365.35a1.7,1.7,0,0,1-1.6-1.88A1.6,1.6,0,0,1,225,362a1.63,1.63,0,0,1,1.63,1.61A1.75,1.75,0,0,1,224.82,365.35Z"/><path class="cls-47" d="M131,252.78a1.56,1.56,0,0,1-1.6-1.58,1.62,1.62,0,0,1,1.78-1.7,1.53,1.53,0,0,1,1.51,1.71C132.65,252.23,132,252.72,131,252.78Z"/><path class="cls-58" d="M245.33,363.6a1.59,1.59,0,0,1-1.49,1.73,1.57,1.57,0,0,1-1.77-1.68,1.49,1.49,0,0,1,1.59-1.61A1.54,1.54,0,0,1,245.33,363.6Z"/><path class="cls-47" d="M264.07,382.48a1.66,1.66,0,0,1-3.31,0,1.66,1.66,0,1,1,3.31,0Z"/><path class="cls-62" d="M151,440c-2,.56-2,.56-3.07-1.5h0a2.33,2.33,0,0,0,.43-.55c.62-.88,1.42-1.25,2.37-.56A1.61,1.61,0,0,1,151,440Z"/><path class="cls-63" d="M431.38,230.73a1.49,1.49,0,0,1,1.59,1.5,1.54,1.54,0,0,1-1.38,1.81,1.64,1.64,0,0,1-1.87-1.61A1.68,1.68,0,0,1,431.38,230.73Z"/><path class="cls-64" d="M170.17,363.78a1.51,1.51,0,0,1-1.59,1.55,1.59,1.59,0,0,1-1.66-1.8,1.51,1.51,0,0,1,1.72-1.47C169.62,362.1,170.15,362.71,170.17,363.78Z"/><path class="cls-65" d="M207.74,363.85a1.54,1.54,0,0,1-1.64,1.48,1.56,1.56,0,0,1-1.59-1.84,1.47,1.47,0,0,1,1.74-1.43A1.55,1.55,0,0,1,207.74,363.85Z"/><path class="cls-65" d="M337.58,365.35a1.66,1.66,0,1,1,.05-3.31,1.52,1.52,0,0,1,1.54,1.66A1.57,1.57,0,0,1,337.58,365.35Z"/><path class="cls-47" d="M245.32,382.65a1.5,1.5,0,0,1-1.68,1.4,1.45,1.45,0,0,1-1.56-1.6,1.57,1.57,0,0,1,1.79-1.65A1.66,1.66,0,0,1,245.32,382.65Z"/><path class="cls-45" d="M299.86,380.79a1.54,1.54,0,0,1,1.72,1.49,1.48,1.48,0,0,1-1.38,1.77,1.64,1.64,0,1,1-.34-3.26Z"/><path class="cls-47" d="M375,252.77a1.5,1.5,0,0,1-1.5-1.69,1.48,1.48,0,0,1,1.6-1.57,1.59,1.59,0,0,1,1.64,1.81A1.57,1.57,0,0,1,375,252.77Z"/><path class="cls-65" d="M37.2,230.73a1.55,1.55,0,0,1,1.57,1.65A1.52,1.52,0,0,1,37.23,234a1.66,1.66,0,1,1,0-3.31Z"/><path class="cls-64" d="M170.18,232.39a1.55,1.55,0,0,1-1.53,1.65,1.61,1.61,0,0,1-1.74-1.73,1.64,1.64,0,0,1,3.27.08Z"/><path class="cls-65" d="M206.14,230.73c1,.15,1.59.66,1.6,1.67a1.6,1.6,0,0,1-1.82,1.63,1.53,1.53,0,0,1-1.42-1.77A1.55,1.55,0,0,1,206.14,230.73Z"/><path class="cls-65" d="M337.63,230.73a1.57,1.57,0,0,1,1.54,1.7,1.52,1.52,0,0,1-1.6,1.61,1.66,1.66,0,1,1,.06-3.31Z"/><path class="cls-47" d="M243.77,252.77a1.5,1.5,0,0,1-1.69-1.47,1.52,1.52,0,0,1,1.39-1.79,1.6,1.6,0,0,1,1.85,1.6A1.55,1.55,0,0,1,243.77,252.77Z"/><path class="cls-66" d="M36.56,399.8c.85.15,2-.22,2.09,1.23s-.76,1.94-2.06,1.91C35.12,401.33,35.12,401.1,36.56,399.8Z"/><path class="cls-45" d="M300.1,252.78a1.64,1.64,0,1,1-.14-3.27,1.48,1.48,0,0,1,1.62,1.56A1.51,1.51,0,0,1,300.1,252.78Z"/><path class="cls-53" d="M433,251.24a1.48,1.48,0,0,1-1.64,1.52,1.51,1.51,0,0,1-1.62-1.58,1.59,1.59,0,0,1,1.78-1.67A1.56,1.56,0,0,1,433,251.24Z"/><path class="cls-67" d="M170.23,288.09c-.15,1.19-.45,2.26-2,2a1.37,1.37,0,0,1-1.24-1.65c.17-1.58,1.4-1.44,2.52-1.44Z"/><path class="cls-47" d="M375.16,384.07a1.5,1.5,0,0,1-1.69-1.48,1.53,1.53,0,0,1,1.39-1.79,1.61,1.61,0,0,1,1.85,1.6A1.56,1.56,0,0,1,375.16,384.07Z"/><path class="cls-65" d="M35.52,363.74a1.54,1.54,0,0,1,1.58-1.68,1.47,1.47,0,0,1,1.67,1.5,1.58,1.58,0,0,1-1.68,1.77A1.55,1.55,0,0,1,35.52,363.74Z"/><path class="cls-68" d="M206.2,418.35a1.53,1.53,0,0,1,1.53,1.65,1.55,1.55,0,0,1-1.82,1.6,1.49,1.49,0,0,1-1.4-1.76A1.52,1.52,0,0,1,206.2,418.35Z"/><path class="cls-69" d="M245.32,420.07a1.63,1.63,0,0,1-3.24.07,1.57,1.57,0,0,1,1.64-1.79A1.59,1.59,0,0,1,245.32,420.07Z"/><path class="cls-69" d="M300.08,418.34a1.52,1.52,0,0,1,1.5,1.69A1.47,1.47,0,0,1,300,421.6a1.55,1.55,0,0,1-1.64-1.79A1.6,1.6,0,0,1,300.08,418.34Z"/><path class="cls-70" d="M337.6,290.26a1.51,1.51,0,0,1-1.67-1.49,1.55,1.55,0,0,1,1.68-1.75,1.62,1.62,0,0,1,0,3.24Z"/><path class="cls-71" d="M38.77,194.93a1.51,1.51,0,0,1-1.53,1.54,1.56,1.56,0,0,1-1.71-1.71,1.49,1.49,0,0,1,1.65-1.52A1.55,1.55,0,0,1,38.77,194.93Z"/><path class="cls-72" d="M300,287a1.63,1.63,0,0,1,.19,3.25,1.57,1.57,0,0,1-1.79-1.64A1.55,1.55,0,0,1,300,287Z"/><path class="cls-73" d="M339.18,419.94a1.51,1.51,0,0,1-1.52,1.65,1.49,1.49,0,0,1-1.73-1.43,1.58,1.58,0,0,1,1.63-1.81A1.55,1.55,0,0,1,339.18,419.94Z"/><path class="cls-74" d="M262.45,287a1.63,1.63,0,0,1,.18,3.25,1.6,1.6,0,0,1-1.87-1.58A1.62,1.62,0,0,1,262.45,287Z"/><path class="cls-69" d="M374.9,421.6a1.63,1.63,0,0,1,.18-3.25,1.6,1.6,0,0,1,1.63,1.82A1.62,1.62,0,0,1,374.9,421.6Z"/><path class="cls-75" d="M245.36,289.09c-1.33,1.23-2.05,1.4-2.77.65s-.52-1.48.7-2.77C244.73,286.94,245.4,287.67,245.36,289.09Z"/><path class="cls-76" d="M376.71,326.07a1.5,1.5,0,0,1-1.44,1.72,1.48,1.48,0,0,1-1.79-1.34,1.53,1.53,0,0,1,1.54-1.86A1.51,1.51,0,0,1,376.71,326.07Z"/><path class="cls-77" d="M339.18,251.28a1.52,1.52,0,0,1-1.7,1.47,1.48,1.48,0,0,1-1.55-1.62,1.63,1.63,0,1,1,3.25.15Z"/><path class="cls-77" d="M206.2,249.49a1.64,1.64,0,1,1-.29,3.27,1.5,1.5,0,0,1-1.4-1.77A1.55,1.55,0,0,1,206.2,249.49Z"/><path class="cls-78" d="M337.58,327.82a1.62,1.62,0,1,1,0-3.23,1.45,1.45,0,0,1,1.54,1.61A1.52,1.52,0,0,1,337.58,327.82Z"/><path class="cls-77" d="M168.62,249.49a1.57,1.57,0,0,1,1.54,1.67,1.55,1.55,0,0,1-1.83,1.6,1.5,1.5,0,0,1-1.4-1.77A1.55,1.55,0,0,1,168.62,249.49Z"/><path class="cls-76" d="M301.59,326.21A1.5,1.5,0,0,1,300,327.8a1.56,1.56,0,0,1-1.62-1.79,1.5,1.5,0,0,1,1.74-1.42A1.46,1.46,0,0,1,301.59,326.21Z"/><path class="cls-70" d="M207.73,326.36a1.48,1.48,0,0,1-1.61,1.44A1.54,1.54,0,0,1,204.5,326a1.5,1.5,0,0,1,1.73-1.42A1.53,1.53,0,0,1,207.73,326.36Z"/><path class="cls-68" d="M168.67,421.61a1.63,1.63,0,1,1-.12-3.25,1.63,1.63,0,0,1,.12,3.25Z"/><path class="cls-77" d="M38.78,251.1a1.51,1.51,0,0,1-1.54,1.65,1.49,1.49,0,0,1-1.71-1.46,1.57,1.57,0,0,1,1.66-1.78A1.53,1.53,0,0,1,38.78,251.1Z"/><path class="cls-79" d="M433,194.88a1.5,1.5,0,0,1-1.58,1.59,1.58,1.58,0,0,1-1.67-1.77,1.49,1.49,0,0,1,1.71-1.45A1.47,1.47,0,0,1,433,194.88Z"/><path class="cls-79" d="M376.71,194.8a1.62,1.62,0,1,1-3.24,0,1.44,1.44,0,0,1,1.6-1.54A1.51,1.51,0,0,1,376.71,194.8Z"/><path class="cls-70" d="M206.1,290.26A1.62,1.62,0,0,1,206,287a1.55,1.55,0,0,1,1.71,1.72A1.51,1.51,0,0,1,206.1,290.26Z"/><path class="cls-71" d="M337.71,193.24a1.62,1.62,0,0,1-.13,3.23,1.62,1.62,0,1,1,.13-3.23Z"/><path class="cls-79" d="M300.08,193.24a1.46,1.46,0,0,1,1.5,1.59,1.49,1.49,0,0,1-1.52,1.64,1.62,1.62,0,1,1,0-3.23Z"/><path class="cls-79" d="M245.33,194.84a1.63,1.63,0,1,1-3.25-.08,1.46,1.46,0,0,1,1.64-1.51A1.51,1.51,0,0,1,245.33,194.84Z"/><path class="cls-71" d="M206.12,196.48a1.62,1.62,0,1,1,.14-3.24,1.48,1.48,0,0,1,1.47,1.69A1.51,1.51,0,0,1,206.12,196.48Z"/><path class="cls-71" d="M168.53,193.23c1,.07,1.61.56,1.62,1.58a1.47,1.47,0,0,1-1.49,1.66,1.56,1.56,0,0,1-1.74-1.69A1.52,1.52,0,0,1,168.53,193.23Z"/><path class="cls-79" d="M76.31,195.05a1.49,1.49,0,0,1-1.62,1.42,1.56,1.56,0,0,1-1.61-1.81,1.47,1.47,0,0,1,1.73-1.41A1.57,1.57,0,0,1,76.31,195.05Z"/><path class="cls-77" d="M339.18,382.53a1.47,1.47,0,0,1-1.54,1.51,1.51,1.51,0,0,1-1.72-1.46,1.63,1.63,0,1,1,3.26-.05Z"/><path class="cls-77" d="M206.14,380.79a1.63,1.63,0,1,1-.17,3.26,1.5,1.5,0,0,1-1.47-1.7A1.54,1.54,0,0,1,206.14,380.79Z"/><path class="cls-77" d="M170.17,382.4a1.63,1.63,0,0,1-3.25.18,1.58,1.58,0,0,1,1.66-1.78A1.55,1.55,0,0,1,170.17,382.4Z"/><path class="cls-77" d="M38.78,382.48A1.5,1.5,0,0,1,37.15,384a1.47,1.47,0,0,1-1.62-1.54,1.59,1.59,0,0,1,1.74-1.7A1.55,1.55,0,0,1,38.78,382.48Z"/><path class="cls-72" d="M375,290.27a1.46,1.46,0,0,1-1.48-1.55,1.48,1.48,0,0,1,1.46-1.7,1.58,1.58,0,0,1,1.76,1.67A1.6,1.6,0,0,1,375,290.27Z"/><path class="cls-11" d="M27.38,332.85a1.75,1.75,0,0,1,1,1.59A1.51,1.51,0,0,1,27.38,332.85Z"/><path class="cls-7" d="M131.46,430.64l-1,.64a1.07,1.07,0,0,1,.37-1.07Z"/><path class="cls-7" d="M148.35,437.9a.48.48,0,0,1-.43.55A.55.55,0,0,1,148.35,437.9Z"/><path class="cls-7" d="M151.44,450.34a.52.52,0,0,1-.44-.55Z"/><path class="cls-10" d="M360.74,574.38c0,.94-.05,1.89-.05,2.83a179.36,179.36,0,0,1-1.44,21.22A238.34,238.34,0,0,1,353,630.88a327.87,327.87,0,0,1-15.52,45.94,5.94,5.94,0,0,1-2.35-.94l-13.88-7.43c-.62-.33-1.19-.68-1.27-1.46-.93-1.57.61-3,.32-4.47a4.28,4.28,0,0,1,.17-1.12c1.23-4.17.34-7.31-2.78-9.74-2.69-2.09-6.23-2.07-9.73.06a4.74,4.74,0,0,1-.49.51,5.79,5.79,0,0,1-.51.48,9.14,9.14,0,0,0-2.4,3.24c-.34.75-.56,1.64-1.56,1.84a1.65,1.65,0,0,1-1.7-.08c-2-1-4-2-5.95-3q-6.56-3.5-13.08-7c-1.2-.65-2.36-1.37-3.56-2a1.86,1.86,0,0,1-1-1.39c-1-1.71.27-3.16.54-4.72,8.05-23.94,14.29-48.38,20.17-72.91.7-2.92,1.34-5.86,2.26-8.72a4,4,0,0,1,1.25-3,8.81,8.81,0,0,0,.92-2.92c1.2-4.32,5-6.16,8.95-4.07,8.33,4.38,16.59,8.9,24.89,13.34,6.41,3.44,12.85,6.83,19.28,10.24A29.72,29.72,0,0,1,360.74,574.38Z"/><path class="cls-13" d="M414.39,508.47a14,14,0,0,1,13.7,11.91c.23,1.62,0,1.91-1.71,2-.34,0-.68,0-1,0-2,0-2,0-2.54-2a9,9,0,0,0-7.83-6.77,8.92,8.92,0,0,0-9.11,6.44c-.25.75,0,1.93-1,2.17a8.36,8.36,0,0,1-3.82,0c-.74-.18-.64-1-.55-1.52a13.86,13.86,0,0,1,4.34-8.52A13.38,13.38,0,0,1,414.39,508.47Z"/><path class="cls-15" d="M371.61,145.45c-1.07,0-1.63.84-2.32,1.46-3.5,3.18-7.71,3.36-11,0a6.46,6.46,0,0,0-9.15-.09c-3.46,3.46-7.52,3.31-11.17,0-2.82-2.56-5.24-2.72-8.28-.53-.14.1-.24.24-.38.35-.44.33-.92.53-1.36.05a1,1,0,0,1,.07-1.39,7.17,7.17,0,0,1,4.7-2.38,7.46,7.46,0,0,1,5.93,1.9c.33.28.61.61.93.89a5.61,5.61,0,0,0,8.08,0c4.23-3.77,7.72-3.77,12,0,2.61,2.3,5.48,2.31,8.06,0,.44-.4.84-.85,1.26-1.28,2.31-1.31,4.68-2.09,7.36-1.08a7.73,7.73,0,0,1,3,1.92c2.64,2.83,6.11,2.85,8.78.13a7.56,7.56,0,0,1,9.2-1.69,5.6,5.6,0,0,1,2.2,1.74.82.82,0,0,1,0,1.16.84.84,0,0,1-1.15.12c-.3-.18-.55-.42-.84-.6-3.05-1.9-5.24-1.73-7.92.66a8.26,8.26,0,0,1-5.75,2.44,7.35,7.35,0,0,1-5.51-2.3C376.44,145,374.23,144.17,371.61,145.45Z"/><path class="cls-80" d="M351.54,135.14a8,8,0,0,0-2.48,1.78c-3.43,3.1-7.48,3.11-10.86.05-3.23-2.92-5.05-3.06-8.62-.64-.53.36-1.05.8-1.58.27s-.13-1.23.36-1.74a7.53,7.53,0,0,1,9.46-.74,23.57,23.57,0,0,1,1.95,1.67,5.59,5.59,0,0,0,7.7,0c.65-.56,1.28-1.14,1.92-1.71A8.94,8.94,0,0,1,354.8,133a7,7,0,0,1,4.06,2c2.95,3.13,6.68,3,9.68,0s7-2.92,10.19-.21c.32.28.63.58,1,.85,3,2.39,5.72,2.36,8.48-.28a8.09,8.09,0,0,1,4.69-2.44,7.09,7.09,0,0,1,6.28,2.19c.35.37.77.79.34,1.33a1,1,0,0,1-1.38.15l-.21-.14c-4.2-2.45-5.35-2.34-9,.89a7.32,7.32,0,0,1-9.45.53,19.44,19.44,0,0,1-1.56-1.32c-2.68-2.41-5.54-2.43-8.26,0a10.63,10.63,0,0,1-2.63,2c-3.39,1.5-6.35.73-8.93-1.77C356.17,134.92,354.1,134.1,351.54,135.14Z"/><path class="cls-80" d="M331,124.87c-.53.41-1.06.81-1.58,1.24s-.92.53-1.35.14-.34-1.08.1-1.54a12,12,0,0,1,1.16-.95c4-2.19,6.86-2,10,1.17a5.85,5.85,0,0,0,8.84-.1,7.66,7.66,0,0,1,10.68-.43,6.26,6.26,0,0,1,.78.67c2,2.39,5.73,2.73,8.42-.07,3.37-3.49,8-3.48,11.63,0,2.84,2.71,5.67,2.66,8.61-.09a9.18,9.18,0,0,1,3.93-2.31c2.58-.71,4.72.21,6.71,1.7.52.39,1.13,1,.61,1.73s-1.17.31-1.78-.1c-3.53-2.34-5.33-2.2-8.41.59-3.44,3.12-7.39,3.13-11.08,0-1.12-1-2.15-2-3.73-2.09a5.72,5.72,0,0,0-4.89,1.74c-3.59,3.66-7.92,3.54-11.65.22-3-2.67-5.76-2.64-8.62,0-3.8,3.45-7.58,3.56-11.42,0a7.48,7.48,0,0,0-5.86-2A1.53,1.53,0,0,0,331,124.87Z"/><path class="cls-81" d="M301.88,554.9a8.56,8.56,0,0,1-.54,3c-1.95,1.1-3-.15-4-1.51l0,0c.7-.92.14-2.48,1.53-3.06Z"/><path class="cls-82" d="M393.94,437a1.73,1.73,0,0,1,1.64,1.6,1.64,1.64,0,0,1-1.5,1.78,1.79,1.79,0,0,1-1.88-1.69A1.92,1.92,0,0,1,393.94,437Z"/><path class="cls-82" d="M394.05,305.71a1.75,1.75,0,0,1,1.54,1.71A1.67,1.67,0,0,1,394,309.1a1.79,1.79,0,0,1-1.75-1.82A1.91,1.91,0,0,1,394.05,305.71Z"/><path class="cls-82" d="M414.28,401.2a1.51,1.51,0,0,1-1.54,1.67,1.6,1.6,0,0,1-1.72-1.52,1.64,1.64,0,0,1,1.66-1.82A1.75,1.75,0,0,1,414.28,401.2Z"/><path class="cls-83" d="M395.57,382.36a1.76,1.76,0,0,1-1.61,1.72,1.69,1.69,0,0,1-1.77-1.74,1.46,1.46,0,0,1,1.66-1.52A1.75,1.75,0,0,1,395.57,382.36Z"/><path class="cls-84" d="M433.06,344.9a1.67,1.67,0,0,1-1.57,1.69,1.71,1.71,0,0,1-1.7-1.81,1.47,1.47,0,0,1,1.4-1.53A1.71,1.71,0,0,1,433.06,344.9Z"/><path class="cls-85" d="M414.28,344.91a1.72,1.72,0,0,1-1.58,1.68,1.64,1.64,0,0,1-1.67-1.81,1.59,1.59,0,0,1,1.7-1.53A1.51,1.51,0,0,1,414.28,344.91Z"/><path class="cls-84" d="M395.56,363.88a1.82,1.82,0,0,1-1.86,1.42,1.66,1.66,0,0,1-1.45-2,1.57,1.57,0,0,1,1.9-1.24A1.68,1.68,0,0,1,395.56,363.88Z"/><path class="cls-86" d="M414.27,363.75a1.55,1.55,0,0,1-1.76,1.55,1.64,1.64,0,0,1-1.5-1.78,1.53,1.53,0,0,1,1.76-1.45A1.6,1.6,0,0,1,414.27,363.75Z"/><path class="cls-87" d="M433.07,363.64a1.73,1.73,0,0,1-1.62,1.67,1.53,1.53,0,0,1-1.66-1.57,1.64,1.64,0,0,1,1.59-1.69A1.61,1.61,0,0,1,433.07,363.64Z"/><path class="cls-84" d="M431.48,399.51c.9.22,1.6.71,1.56,1.69a1.56,1.56,0,0,1-1.56,1.66,1.65,1.65,0,0,1-1.68-1.77A1.79,1.79,0,0,1,431.48,399.51Z"/><path class="cls-85" d="M393.61,421.5a1.45,1.45,0,0,1-1.41-1.62,1.49,1.49,0,0,1,1.71-1.48,1.63,1.63,0,0,1,1.61,1.66C395.55,420.92,394.72,421.56,393.61,421.5Z"/><path class="cls-82" d="M395.56,344.87a1.88,1.88,0,0,1-1.85,1.72,1.57,1.57,0,0,1-1.48-1.74,1.68,1.68,0,0,1,1.68-1.59A1.75,1.75,0,0,1,395.56,344.87Z"/><path class="cls-82" d="M412.68,440.41a1.7,1.7,0,0,1-.26-3.38,1.76,1.76,0,0,1,1.83,1.69A1.8,1.8,0,0,1,412.68,440.41Z"/><path class="cls-82" d="M431.51,437a1.63,1.63,0,0,1,1.53,1.73,1.57,1.57,0,0,1-1.53,1.69,1.79,1.79,0,0,1-1.69-1.84A1.81,1.81,0,0,1,431.51,437Z"/><path class="cls-85" d="M395.54,326.23a1.71,1.71,0,0,1-1.65,1.52,1.56,1.56,0,1,1-.1-3.11A1.61,1.61,0,0,1,395.54,326.23Z"/><path class="cls-82" d="M431.38,309.12a1.81,1.81,0,0,1-1.57-1.7,1.76,1.76,0,0,1,1.82-1.69,1.56,1.56,0,0,1,1.4,1.79A1.58,1.58,0,0,1,431.38,309.12Z"/><path class="cls-82" d="M414.26,307.42a1.69,1.69,0,0,1-1.51,1.65c-1,.16-1.55-.53-1.73-1.44a1.69,1.69,0,0,1,1.55-1.92A1.92,1.92,0,0,1,414.26,307.42Z"/><path class="cls-86" d="M395.53,288.52a1.59,1.59,0,0,1-1.62,1.68,1.51,1.51,0,0,1-1.71-1.5,1.48,1.48,0,0,1,1.57-1.62A1.72,1.72,0,0,1,395.53,288.52Z"/><path class="cls-82" d="M393.82,399.51a2,2,0,0,1,1.73,1.86,1.68,1.68,0,0,1-3.35-.21A1.76,1.76,0,0,1,393.82,399.51Z"/><path class="cls-85" d="M433.06,382.57a1.51,1.51,0,0,1-1.82,1.36,1.56,1.56,0,1,1,.34-3.09C432.61,381,433,381.7,433.06,382.57Z"/><path class="cls-88" d="M414.27,382.45a1.53,1.53,0,0,1-1.72,1.49,1.39,1.39,0,0,1-1.52-1.59,1.58,1.58,0,0,1,1.71-1.52A1.47,1.47,0,0,1,414.27,382.45Z"/><path class="cls-85" d="M433.06,420.15a1.52,1.52,0,0,1-1.83,1.35,1.56,1.56,0,1,1,.36-3.09C432.62,418.53,433,419.28,433.06,420.15Z"/><path class="cls-89" d="M431.29,327.75A1.5,1.5,0,0,1,429.8,326a1.45,1.45,0,0,1,1.56-1.39,1.56,1.56,0,0,1,1.66,1.57A1.62,1.62,0,0,1,431.29,327.75Z"/><path class="cls-90" d="M414.26,420.14a1.49,1.49,0,0,1-1.74,1.36,1.28,1.28,0,0,1-1.37-1.48,1.46,1.46,0,0,1,1.57-1.62A1.52,1.52,0,0,1,414.26,420.14Z"/><path class="cls-91" d="M412.66,327.76a1.47,1.47,0,0,1-1.49-1.69,1.37,1.37,0,0,1,1.48-1.4,1.41,1.41,0,0,1,1.6,1.54A1.46,1.46,0,0,1,412.66,327.76Z"/><path class="cls-89" d="M432.89,288.68a1.46,1.46,0,0,1-1.66,1.49,1.5,1.5,0,0,1-1.43-1.72,1.55,1.55,0,0,1,3.09.23Z"/><path class="cls-91" d="M414.27,288.61a1.47,1.47,0,0,1-1.61,1.56,1.41,1.41,0,0,1-1.5-1.39,1.45,1.45,0,0,1,1.45-1.69A1.48,1.48,0,0,1,414.27,288.61Z"/><path class="cls-9" d="M142.71,561c-1.45-.84-1.87-2.54-3-3.62-2.55-2-3.07-4.87-3-7.89,0-.66.28-1.31,0-2a20.73,20.73,0,0,1,2.51-10.11,9.61,9.61,0,0,1,4.28-5.36,4.76,4.76,0,0,1,1.1-.5,2.94,2.94,0,0,1,.84-.12,42.75,42.75,0,0,1,13.42,2.12c7.9,2.66,15.65,5.71,23.43,8.68a19.55,19.55,0,0,1,4.95,2.71c3.6,2.79,5.37,6.42,4.79,11a20.9,20.9,0,0,1-2.15,7.64c-1.62,2.93-4.05,4.25-7.08,3-7.83-3.27-16.1-3.11-24.3-3.69-4.36-.31-8.73-.58-13.08-1A6.41,6.41,0,0,1,142.71,561Z"/><path class="cls-9" d="M142.76,520.3v-1.49c-.51-8.42,4.4-14.69,12.3-15.69a12.47,12.47,0,0,1,2.41.59,136.58,136.58,0,0,1,21.77,11.55c6.49,4.38,9.87,10.29,9.2,18.26a13.17,13.17,0,0,1-.43,2.79c-1,3.26-2.91,4.43-6.26,3.57-3.16-.81-6.15-2.13-9.21-3.24-4.43-1.6-8.89-3.14-13.28-4.86a30.6,30.6,0,0,0-13.54-2.24c-2.05-1.28-2.75-3.4-3-5.56A9.93,9.93,0,0,1,142.76,520.3Z"/><path class="cls-3" d="M155.08,503.76c-6.17,1.3-11.12,5.75-11.85,12.8a6.15,6.15,0,0,1-.47,2.24,6.44,6.44,0,0,0-5.7-4.2c-1-2.43.54-4.58.77-6.87.82-5.06,2-10,3.15-15a3.38,3.38,0,0,1,.79-1.58c1.41-1,2.45.05,3.45.73,4.25,2.87,8.66,5.48,12.89,8.37a18.08,18.08,0,0,1,2.2,1.69c.69.72.87,1.45-.26,2C158.38,504.45,156.75,503.41,155.08,503.76Z"/><path class="cls-7" d="M113.88,509c.85-1.14.72-2.54,1-3.83a9.39,9.39,0,0,1,.57-1.92,2.31,2.31,0,0,1,2.17-.39c4.43,1.19,8.94,2.05,13.41,3.1a2.76,2.76,0,0,1,1.32.74,7,7,0,0,1-1.46,6.37,91.88,91.88,0,0,1-13.45-2.84A10.36,10.36,0,0,1,113.88,509Z"/><path class="cls-3" d="M142.76,520.3c.57,2.14.6,4.41,1.63,6.43a9.66,9.66,0,0,0,1.4,2.43c2,1.74.44,2.3-1,2.91l-.49.19a2,2,0,0,0-.51.36,30.6,30.6,0,0,0-4.65,4.8,10.25,10.25,0,0,1,.48-3.77q1.4-6.48,2.81-12.95C142.49,520.55,142.66,520.43,142.76,520.3Z"/><path class="cls-3" d="M136.66,547.53a31.54,31.54,0,0,0,3,9.85c-1.15.19-2.29.43-3.44.56a3.12,3.12,0,0,0-2.16,1.08Z"/><path class="cls-92" d="M130.91,513.09a19.13,19.13,0,0,1,1.52-6.18l.32-.19a2.93,2.93,0,0,1,3,1.11,2.23,2.23,0,0,1,.17.71,21.64,21.64,0,0,1-1.4,5.55C133.33,513.73,132,513.86,130.91,513.09Z"/><path class="cls-93" d="M134.53,514.09a6.93,6.93,0,0,1,1.27-5.73c.71-1.42,1.73-.95,2.75-.43-.5,2.22-1,4.45-1.49,6.67Z"/><path class="cls-11" d="M211.35,568.63A132.59,132.59,0,0,0,221.78,577c2.47,1.71,5.09,3.16,7.67,4.69.87.51,1.74,1.05,3,1.84a8.09,8.09,0,0,1-3.81-.72,83.86,83.86,0,0,1-13.9-6c-3.5-2.06-6.34.5-6.59,3.66a24.76,24.76,0,0,0,.7,7.13c.9,4.29-.76,7-5,8.09a14.81,14.81,0,0,1-1.5.33c-5.53.86-9.31,5.45-7.86,12.19a14.41,14.41,0,0,0,10.79,11.56,66.34,66.34,0,0,0,15.18,2.39,25.35,25.35,0,0,0,7.13-.72,24.65,24.65,0,0,1,14.44.68c5.79,2.14,10.74.59,15.64-2.27a47.19,47.19,0,0,0,6.52-5.08,34,34,0,0,1-.19,7.86c-.54,3.51-.3,6.85,2.33,9.6a19.09,19.09,0,0,0,4.5,3.38c1.27.71,2.53,1.45,3.79,2.17.29.22.69.34.79.76-.09,1.67-.32,3.28-1.82,4.36h-.5c-.59.39-.8-.06-1-.47a79.67,79.67,0,0,0-32.25-13.29,42,42,0,0,0-12.77-.22c-4.61.65-9.22-.09-13.74-1.18a81.45,81.45,0,0,1-22.78-9.18c-6.54-3.9-13.3-7.45-20-11.15s-13.19-7.29-19.76-11a14.61,14.61,0,0,1-4.41-3.45c.76-.83,1.72-.65,2.64-.45a73.94,73.94,0,0,0,17.87,1.68c3.87-.07,4.65.92,4.21,4.84a16.11,16.11,0,0,0,.25,4.06,16.55,16.55,0,0,1,1.46-5.66,5.16,5.16,0,0,1,4.47-3.34,96.32,96.32,0,0,0,10.4-1.71,14,14,0,0,0,9.33-7.1,8.05,8.05,0,0,0,.95-6.9c-.67-1.9-.21-3.2,1.8-3.76a12.14,12.14,0,0,0,6.4-4.52C207.59,568.28,209.22,567.6,211.35,568.63Z"/><path class="cls-11" d="M144.82,532.07c.79-.82,1.93-1.52,1-2.91a16.59,16.59,0,0,1,10.57.74Q167.61,534,178.83,538c.65.23,1.3.45,1.93.7,3.82,1.5,6.19,1,6.79-4.53a19.19,19.19,0,0,0-.5-7.64,18.14,18.14,0,0,0-7.11-9.79,107.59,107.59,0,0,0-16.5-9.41c-2.09-1-4.17-2-6.25-3,.59-1.64,2.13-.25,3-.94.46-.4.19-.7-.17-.95-.79-.57-1.59-1.12-2.39-1.68,1.48-1.39,3.23-.83,4.87-.55,7.85,1.35,14.78,4.83,21.28,9.28a52.62,52.62,0,0,0,7.11,4.55c0-3.78-1.75-6.48-4-8.87a44.91,44.91,0,0,0-20.32-13,61.55,61.55,0,0,1-19.59-10,8.6,8.6,0,0,1-2.62-2.44,2.71,2.71,0,0,1-.24-.78c0-1.3,0-2.57,1.2-3.45,3.05,2.05,5.67,4.67,8.81,6.63a63.42,63.42,0,0,0,15.81,7.3,44.68,44.68,0,0,1,15.66,8.61c1.06.86,2.09,1.77,3.12,2.68a18.59,18.59,0,0,1,6.48,14.78c0,4-.07,8-.28,12.06a52,52,0,0,0,2.08,17.25c.12.4.18.83.27,1.24-1.33.36-1.33.36-3.11-.22,1,.11,1.93,1.14,3.2.64,1.4,3.12,2.56,6.34,4.22,9.35a75.35,75.35,0,0,0,7,9.83c-1.43,4.26-4.91,6.16-8.77,7.59a19.61,19.61,0,0,1-4.59.87c2.43,3.29,3,6.69,1,10.17a13.86,13.86,0,0,1-9.22,7.22c-2.22.49-4.51,1.89-6.85.26,0-1.31,1.07-1.88,1.84-2.65,6.82-6.79,4.81-15.63-4.24-18.87-5.17-1.85-10.59-2-15.93-2.64s-10.73-1.19-16.1-1.66c-1-.1-2.11-.14-2.5-1.4,1.41-1.23,1.41-1.23.19-2.57-.28-.31-.52-.66-.78-1,4.72-.11,9.39.52,14.08.87,3.32.25,6.65.54,10,.62a41.32,41.32,0,0,1,15.74,3.15c2.9,1.26,5,.48,6.44-2.27A19.56,19.56,0,0,0,191.15,553c-.2-3-1.94-5.25-4.2-7.09a16,16,0,0,0-4.44-2.56c-7.61-2.85-15.24-5.67-22.84-8.55C154.88,532.94,149.83,532.63,144.82,532.07Z"/><path class="cls-9" d="M143.3,564.56c2,1,4.22.6,6.33.88,5.59.76,11.24,1.18,16.86,1.75a48.46,48.46,0,0,1,12.3,2.45c8.67,3.23,11,12.43,4.74,19.27-1,1.07-2.12,2-3.19,3a3.34,3.34,0,0,1-2.67,1.32c-9.54.95-19.07,1.4-28.5-.9-2.25-.55-4.48-1.18-5.91-3.24l-.26-.24a1.58,1.58,0,0,1-.78-.61,17.18,17.18,0,0,1-5-11.72C137.13,571.6,138.83,567.29,143.3,564.56Z"/><path class="cls-12" d="M143.26,589.05c5.2,2.74,10.87,3.54,16.61,3.81a106.24,106.24,0,0,0,20.47-1c3.8-.5,7.73-.65,10.93-3.14a13.73,13.73,0,0,0,4.54-5.13,8.16,8.16,0,0,0-1.11-8.88c-.36-.46-.7-.94-1.08-1.45,5.77.07,10.54-1.72,13.87-6.58a6.51,6.51,0,0,1,1.13-1l2.73,3c-.13.11-.29.34-.38.32-2.06-.59-3.19.39-4.39,2a10.38,10.38,0,0,1-6.93,4.51c-.87.12-1.75.42-1.15,1.68,2.08,4.31.14,7.78-2.39,11.09a14.42,14.42,0,0,1-8.93,5.15A83.33,83.33,0,0,1,176.55,595a2.76,2.76,0,0,0-2.4,1.66,17.65,17.65,0,0,0-2,7.1,3.93,3.93,0,0,1-.33,2.22c-1.1-2.4-2.16-4.58-1.53-7.16a11.28,11.28,0,0,0,.29-1.25c.18-1.89-.32-2.49-2.24-2.55-1.72,0-3.44-.06-5.15,0a56.1,56.1,0,0,1-14.71-1.82,9.41,9.41,0,0,0-2-.26C145,591.89,143.71,590.83,143.26,589.05Z"/><path class="cls-94" d="M272.1,642.36l1,.47a7.57,7.57,0,0,1-.85,3.68c-.92,2.37-1.87,4.73-2.81,7.09a1,1,0,0,1-.32-1.16A90.82,90.82,0,0,1,272.1,642.36Z"/><path class="cls-95" d="M282.91,670.06v.6l-4.48-2.24c-.67-.33-1.39-.6-1.71-1.37A24.81,24.81,0,0,1,282.91,670.06Z"/><path class="cls-95" d="M275.68,666.5a1.42,1.42,0,0,1,1.06.56A1.15,1.15,0,0,1,275.68,666.5Z"/><path class="cls-96" d="M142.22,588.2c.26.2.52.4.77.61A.94.94,0,0,1,142.22,588.2Z"/><path class="cls-97" d="M321.13,661.55l-.13.85c-1.7,5.25-4.19,7.14-9.27,7.06-4.37-.08-6.66-1.74-8.22-6a16.48,16.48,0,0,1-.54-5.68c.88-2.09,1.6-4.27,3.49-5.76a.67.67,0,0,0,.59-.49h0c4.85-2.77,9.52-1.7,12.41,1.87A9.17,9.17,0,0,1,321.13,661.55Z"/><path class="cls-98" d="M303.51,663.47c.29.41.59.82.88,1.24a9.08,9.08,0,0,0,15.44-.35c.4-.65.78-1.31,1.17-2,.22,1.66-.69,3.06-1.05,4.59a9,9,0,0,1-8.72,4.27A8.26,8.26,0,0,1,303.51,663.47Z"/><path class="cls-99" d="M273.63,642.84a28.52,28.52,0,0,1,1.56-4.59c1.78-.79,2.79.21,3.67,1.55,0,1.59-1.05,2.9-1.2,4.45l-.45.64A6.66,6.66,0,0,1,273.63,642.84Z"/><path class="cls-5" d="M132.43,506.91a104,104,0,0,1-12.5-2.53c-1.49-.34-3-.74-4.46-1.11,0-.14,0-.29,0-.43q1.59-7.5,3.2-15l.57-2.75c.5-2.34.5-2.34-1.72-3.33a2.26,2.26,0,0,1,2.13-.82c3.62-.54,6.24-2.24,7-6.07.29-1.07.7-2.11,1-3.16,1.14-3.24,0-5.91-2-8.38-.57-.67-1.64-1-1.5-2.18,1.18-2.74,1.45-5.71,2.12-8.59.92-4,1.72-8,2.56-12a1.9,1.9,0,0,1,.55-1.12,3,3,0,0,0,3.12-2.09,24.25,24.25,0,0,1,4.88,1.45c2.29.69,4.58,1.35,6.84,2.1,3.19,1.07,4.48,3.51,3.65,6.77l-2-1c-1.54-.08-3-1.07-4.62-.13-5.94,2.42-6.58,5.16-6.49,12.13.06,4.39,1.89,8.29,4.15,12,.76,1.24,1.57,2.45,2.28,3.72a2.79,2.79,0,0,1,.17.81c-1.33,7-3.5,13.9-5.29,20.84-.69,2.64-1.31,5.31-2.1,7.93-.32,1.05-.51,2.18-1.49,2.9Z"/><path class="cls-100" d="M278.86,639.8c-1.39-.12-2.24-1.53-3.67-1.55-.18-.17-.35-.35-.53-.53,1.25-.21,1.21-1.35,1.47-2.17,1.91-6.12,3.84-12.23,5.62-18.39,5.41-18.7,10.12-37.59,14.73-56.51.35-1.4.55-2.84.83-4.26,1.35.48,2.48,1.54,4,1.51-3.21,14.2-6.8,28.3-10.54,42.36-3.33,12.5-6.84,24.94-11,37.2A5.9,5.9,0,0,1,278.86,639.8Z"/><path class="cls-101" d="M140.62,474.59c-3.89-4.74-6.49-10.07-6.84-16.25a17.38,17.38,0,0,1,.65-6.59c1.11-3.27,3.43-5.43,6.77-5.16a11,11,0,0,0-4.62,9.41,22.78,22.78,0,0,0,2.37,9.31c.88,1.83,1.87,3.61,2.81,5.42C142.38,472.3,142.38,473.7,140.62,474.59Z"/><path class="cls-102" d="M140.62,474.59a19.23,19.23,0,0,0,1.14-3.86,21.06,21.06,0,0,1,3.62,4.78l-.57,3.61a.91.91,0,0,1-1-.09c-1.46-1-2.82-2.1-3.12-4A2.14,2.14,0,0,1,140.62,474.59Z"/><path class="cls-103" d="M197.42,546.49c-.13.49-.26,1.12-.94.85-1.46-.58-2.87-1.26-4.85-2.14,2.4-.21,4,.85,5.7.87A.86.86,0,0,1,197.42,546.49Z"/><path class="cls-100" d="M56.25,399.36a3.56,3.56,0,0,0,.38-2.05l.55-.57c-.07,1,.52,1.53,1.37,1.93,5.17,2.49,10.21,5.26,15.47,7.57,2.2,1,4.31,2.12,6.47,3.17,14.16,6.94,28.46,13.57,43,19.69a3.66,3.66,0,0,0,2.21.53l.06.59c.35,1.42.64,2.82-1.07,3.63a110.83,110.83,0,0,1-12.53-5.12c-5.77-2.54-11.48-5.25-17.21-7.88a3.09,3.09,0,0,0-3.21-1.49c-11.58-5.45-23.1-11-34.46-17A10,10,0,0,1,56.25,399.36Z"/><path class="cls-104" d="M55.79,309.09a1.73,1.73,0,0,1-1.53-1.7,1.67,1.67,0,0,1,1.62-1.69,1.78,1.78,0,0,1,1.75,1.82A1.89,1.89,0,0,1,55.79,309.09Z"/><path class="cls-105" d="M57.66,363.58A1.82,1.82,0,0,1,56,365.27a1.75,1.75,0,0,1-1.75-1.81A1.64,1.64,0,0,1,56,361.91,1.74,1.74,0,0,1,57.66,363.58Z"/><path class="cls-105" d="M57.6,232.6a1.69,1.69,0,1,1-3.31-.67,1.69,1.69,0,0,1,1.94-1.3A1.79,1.79,0,0,1,57.6,232.6Z"/><path class="cls-104" d="M57.63,251.26a1.48,1.48,0,0,1-1.71,1.37c-1,0-1.68-.44-1.65-1.48a1.55,1.55,0,0,1,1.56-1.65A1.71,1.71,0,0,1,57.63,251.26Z"/><path class="cls-106" d="M95.17,344.77c-.15,1-.61,1.63-1.6,1.72a1.68,1.68,0,0,1-1.77-1.74,1.46,1.46,0,0,1,1.66-1.52A1.74,1.74,0,0,1,95.17,344.77Z"/><path class="cls-105" d="M56,327.76A1.7,1.7,0,0,1,54.25,326a1.45,1.45,0,0,1,1.5-1.41c1.11-.09,1.92.56,1.88,1.52A1.7,1.7,0,0,1,56,327.76Z"/><path class="cls-107" d="M57.23,287.06c.21.71.66,1.39.22,2.19a1.68,1.68,0,0,1-3.19-.76,1.31,1.31,0,0,1,1.22-1.39,11.59,11.59,0,0,1,1.77,0Z"/><path class="cls-108" d="M57.74,269.56a2.1,2.1,0,0,1-1,1.72c-1.05.51-1.82,0-2.57-.67a.66.66,0,0,1-.06-1.06C55.84,267.56,56.05,267.56,57.74,269.56Z"/><path class="cls-104" d="M95.16,401.18a1.75,1.75,0,0,1-1.64,1.66,1.73,1.73,0,0,1-1.7-1.6,1.8,1.8,0,0,1,1.76-1.79C94.59,399.57,95,400.33,95.16,401.18Z"/><path class="cls-107" d="M38.72,307.33a1.48,1.48,0,0,1-1.5,1.67,1.45,1.45,0,0,1-1.65-1.51,1.59,1.59,0,0,1,1.62-1.81A1.55,1.55,0,0,1,38.72,307.33Z"/><path class="cls-107" d="M74.62,399.49a1.73,1.73,0,0,1,1.65,1.62,1.57,1.57,0,1,1-3.12.2A1.6,1.6,0,0,1,74.62,399.49Z"/><path class="cls-106" d="M74.6,365.29a1.49,1.49,0,0,1-1.45-1.65A1.54,1.54,0,0,1,74.68,362a1.66,1.66,0,0,1,1.6,1.69A1.55,1.55,0,0,1,74.6,365.29Z"/><path class="cls-104" d="M95.16,363.76a1.68,1.68,0,1,1-1.76-1.83A2,2,0,0,1,95.16,363.76Z"/><path class="cls-106" d="M112.33,361.92a1.76,1.76,0,0,1,1.54,1.7,1.65,1.65,0,0,1-1.82,1.64,1.57,1.57,0,0,1-1.43-1.76C110.66,362.52,111.38,362.07,112.33,361.92Z"/><path class="cls-106" d="M131.06,361.93c.94.22,1.63.71,1.59,1.7a1.57,1.57,0,0,1-1.57,1.65,1.65,1.65,0,0,1-1.67-1.79A1.71,1.71,0,0,1,131.06,361.93Z"/><path class="cls-104" d="M151.46,363.69a1.79,1.79,0,0,1-1.63,1.58,1.74,1.74,0,0,1-1.72-1.52,2,2,0,0,1,1.77-1.82A1.81,1.81,0,0,1,151.46,363.69Z"/><path class="cls-106" d="M95.16,382.48a1.61,1.61,0,0,1-1.85,1.44,1.49,1.49,0,0,1-1.51-1.7,1.51,1.51,0,0,1,1.78-1.41A1.72,1.72,0,0,1,95.16,382.48Z"/><path class="cls-105" d="M55.92,346.52c-.88-.15-1.6-.54-1.68-1.56a1.78,1.78,0,0,1,1.82-1.7,1.63,1.63,0,1,1-.14,3.26Z"/><path class="cls-109" d="M94.36,324.57l.59.64.35.52v0a2.4,2.4,0,0,1-.8,1.57,1.65,1.65,0,0,1-1.91.22,1.44,1.44,0,0,1-.79-1.5,1.42,1.42,0,0,1,1.27-1.4C93.5,324.59,93.94,324.6,94.36,324.57Z"/><path class="cls-106" d="M113.86,401.13a1.73,1.73,0,0,1-1.51,1.69,1.59,1.59,0,0,1-1.73-1.51,1.63,1.63,0,0,1,1.48-1.79A1.71,1.71,0,0,1,113.86,401.13Z"/><path class="cls-110" d="M132.66,382.47a1.4,1.4,0,0,1-1.45,1.45,1.53,1.53,0,0,1-1.8-1.62,1.45,1.45,0,0,1,1.67-1.49C132.11,380.85,132.52,381.55,132.66,382.47Z"/><path class="cls-110" d="M112.22,380.8a1.46,1.46,0,0,1,1.63,1.51,1.44,1.44,0,0,1-1.54,1.61,1.42,1.42,0,0,1-1.68-1.44A1.63,1.63,0,0,1,112.22,380.8Z"/><path class="cls-111" d="M132.27,399.88c.45.87.69,1.76-.15,2.54a1.62,1.62,0,0,1-2.29,0c-.45-.85-.69-1.66.15-2.48S131.5,399.62,132.27,399.88Z"/><path class="cls-112" d="M148.25,344.28c.61-1,1.48-1.47,2.54-.73s.75,1.77.23,2.74C148.68,346.61,148.66,346.6,148.25,344.28Z"/><path class="cls-113" d="M36.58,346.41c-1.23-.53-1.07-1.6-1-2.62a6.51,6.51,0,0,1,1.15-.51,1.45,1.45,0,0,1,1.93,1.13c.23,1,0,1.85-1.31,1.94Z"/><path class="cls-114" d="M76.28,344.78a1.45,1.45,0,0,1-1.54,1.57c-.88,0-1.51-.29-1.57-1.27a1.52,1.52,0,0,1,1.35-1.84A1.54,1.54,0,0,1,76.28,344.78Z"/><path class="cls-115" d="M37.06,290.16a1.55,1.55,0,1,1,.29-3.08,1.42,1.42,0,0,1,1.34,1.55A1.47,1.47,0,0,1,37.06,290.16Z"/><path class="cls-116" d="M113.86,420a1.43,1.43,0,0,1-1.61,1.44,1.38,1.38,0,0,1-1.48-1.41,1.47,1.47,0,0,1,1.47-1.68A1.52,1.52,0,0,1,113.86,420Z"/><path class="cls-115" d="M76.27,326.07a1.44,1.44,0,0,1-1.49,1.65,1.4,1.4,0,0,1-1.6-1.54,1.37,1.37,0,0,1,1.35-1.53A1.46,1.46,0,0,1,76.27,326.07Z"/><path class="cls-115" d="M38.69,326.29A1.48,1.48,0,0,1,37,327.72a1.45,1.45,0,0,1-1.36-1.78,1.39,1.39,0,0,1,1.58-1.3A1.46,1.46,0,0,1,38.69,326.29Z"/><path class="cls-115" d="M76.28,382.47a1.47,1.47,0,0,1-1.75,1.42,1.37,1.37,0,0,1-1.35-1.53,1.41,1.41,0,0,1,1.6-1.54A1.46,1.46,0,0,1,76.28,382.47Z"/><path class="cls-117" d="M54.15,269.55l.06,1.06-2.42-1.18C52.78,268.9,53.43,269.62,54.15,269.55Z"/><path class="cls-97" d="M128.35,472c0,1.12-.8,2-1,3.07-1.88,4.61-5.53,5.86-10.13,5.33a8.36,8.36,0,0,1-6.84-6.41c-.94-4.15-.11-7.79,3-10.8,5.71-3.94,11.82-2.54,14.43,3.38A7.93,7.93,0,0,1,128.35,472Z"/><path class="cls-118" d="M128.35,472a23.27,23.27,0,0,0-.48-3.52,9.12,9.12,0,0,0-12.68-6.08c-.61.26-1.08.85-1.83.79,2-2.56,4.81-3.15,7.87-2.76a23.12,23.12,0,0,1,2.91.77c3.38,2.34,5.21,5.42,4.67,9.65A1.81,1.81,0,0,1,128.35,472Z"/><path class="cls-119" d="M124.68,433.85c.9-1.05.13-2.59,1.07-3.63l4.52,1.55a5.16,5.16,0,0,1-.94,4.14l-4.15-1.66a3,3,0,0,0-.49-.39Z"/><path class="cls-120" d="M110.33,473.94a11.21,11.21,0,0,0,6.68,5.74c.71.41,1.5.15,2.25.23,1.22.13,1.41.75.84,1.74l-2.6.11C113.06,480.71,110.51,477.92,110.33,473.94Z"/><path class="cls-121" d="M56.25,399.36c1.23.71,1.84,1.63,1,3-2.43.8-2.61.71-3.13-1.52A2.8,2.8,0,0,1,56.25,399.36Z"/><path class="cls-80" d="M57.64,438.9a1.87,1.87,0,0,1-1.73,1.51,1.8,1.8,0,0,1-1.64-1.91A1.74,1.74,0,0,1,56.09,437,1.92,1.92,0,0,1,57.64,438.9Z"/><path class="cls-15" d="M93.61,437a1.8,1.8,0,0,1,1.62,1.65,1.68,1.68,0,0,1-1.54,1.75,1.85,1.85,0,0,1-1.85-1.73A2.05,2.05,0,0,1,93.61,437Z"/><path class="cls-14" d="M76.26,438.6a1.69,1.69,0,0,1-1.72,1.81c-1-.05-1.3-.72-1.32-1.58s.2-1.75,1.34-1.81A1.71,1.71,0,0,1,76.26,438.6Z"/><path class="cls-91" d="M91.73,419.36a1.84,1.84,0,0,1,2.4-.86,1.64,1.64,0,0,1,.81,2.35C92.68,421.88,92.26,421.69,91.73,419.36Z"/><path class="cls-15" d="M112.25,437a1.9,1.9,0,0,1,1.56,1.71,1.85,1.85,0,0,1-1.88,1.69,1.7,1.7,0,0,1-1.32-1.69A1.72,1.72,0,0,1,112.25,437Z"/><path class="cls-80" d="M56,421.46c-.91,0-1.65-.23-1.79-1.19A1.81,1.81,0,0,1,56,418.49a1.7,1.7,0,0,1,1.58,1.74C57.6,421.19,56.81,421.43,56,421.46Z"/><path class="cls-14" d="M37.07,437.1a1.57,1.57,0,0,1,1.6,1.61,1.5,1.5,0,0,1-1.35,1.6,1.61,1.61,0,0,1-.25-3.21Z"/><path class="cls-14" d="M132.49,437.39a1.11,1.11,0,0,0,0,.26,2.12,2.12,0,0,1-.64,2.54c-1.07.74-1.7-.33-2.49-.71a2.59,2.59,0,0,1,1.61-2.63,1.12,1.12,0,0,1,.44.09.94.94,0,0,0,.52.23,1.5,1.5,0,0,1,.54.22Z"/><path class="cls-122" d="M37.23,421.42a1.4,1.4,0,0,1-1.58-1.28,1.5,1.5,0,1,1,3-.18A1.38,1.38,0,0,1,37.23,421.42Z"/><path class="cls-122" d="M74.63,418.43a1.43,1.43,0,0,1,1.61,1.51,1.5,1.5,0,0,1-3,.22A1.44,1.44,0,0,1,74.63,418.43Z"/><path class="cls-100" d="M124.69,433.86l.49.39A.43.43,0,0,1,124.69,433.86Z"/><path class="cls-82" d="M226.65,307.34a1.78,1.78,0,0,1-1.59,1.74,1.64,1.64,0,0,1-1.81-1.47,1.77,1.77,0,0,1,1.66-1.89A1.86,1.86,0,0,1,226.65,307.34Z"/><path class="cls-123" d="M243.52,309.1c-1-.09-1.37-.75-1.37-1.71s.44-1.68,1.49-1.65a1.57,1.57,0,0,1,1.65,1.56A1.7,1.7,0,0,1,243.52,309.1Z"/><path class="cls-124" d="M226.58,326.28a1.62,1.62,0,0,1-1.76,1.49,1.55,1.55,0,0,1-1.6-1.81,1.53,1.53,0,0,1,1.84-1.32C226.09,324.71,226.49,325.38,226.58,326.28Z"/><path class="cls-88" d="M245.28,344.88a1.67,1.67,0,0,1-1.47,1.7,1.54,1.54,0,0,1-1.65-1.56,1.5,1.5,0,0,1,1.43-1.76A1.54,1.54,0,0,1,245.28,344.88Z"/><path class="cls-91" d="M262.25,324.66a1.45,1.45,0,0,1,1.63,1.51,1.38,1.38,0,0,1-1.31,1.56,1.45,1.45,0,0,1-1.77-1.37A1.48,1.48,0,0,1,262.25,324.66Z"/><path class="cls-91" d="M245.28,326.22a1.45,1.45,0,0,1-1.65,1.51,1.4,1.4,0,0,1-1.44-1.68,1.36,1.36,0,0,1,1.49-1.38A1.44,1.44,0,0,1,245.28,326.22Z"/><path class="cls-12" d="M129.5,327.2c-4.62,2.33-9.23,2-13.88.05-.8-.35-1.09-1.05-1.65-1.56a4.64,4.64,0,0,1-3.08-.81c-1.46-1.41-2.92-2.83-4.39-4.23-.26-.25-.64-.43-.92-.17-1.46,1.35-3.36,1-5.09,1.22a2.54,2.54,0,0,0,.87,1.9A37.82,37.82,0,0,1,110.51,343a2.88,2.88,0,0,0,.31.7c0,.1.05.2.07.31a5.06,5.06,0,0,1,.1,1.86c0,.1,0,.2,0,.31a27.29,27.29,0,0,1-.14,9.87c.33.11-.23,0-.09.27.07.14-.31.24-.32.08-.07-1-.11-2-.09-3.05a41.18,41.18,0,0,0-4.63-19.22,44.84,44.84,0,0,0-7.35-10.43A61.21,61.21,0,0,0,77.21,309.1a1.88,1.88,0,0,1-.9-.88v0a4.08,4.08,0,0,1,2.53-2.45,14.07,14.07,0,0,0,7-6.88,8.08,8.08,0,0,1,1.74-2.46,13.09,13.09,0,0,1-.06,3.6,25.67,25.67,0,0,0-.67,5.33c-.32,4,1.79,7,5.1,9.13,4.3,2.81,14,1.95,17.23-3.18,0,0,.15,0,.43-.08a18.34,18.34,0,0,0-.06,6,11.86,11.86,0,0,0,7.3,8.66c3.36,1.46,6.9,2.09,10.5.79a2.06,2.06,0,0,1,2,.11A.4.4,0,0,1,129.5,327.2Z"/><path class="cls-125" d="M94.82,268.51c.83,1.4.29,2.36-1,3.06-1.77-.58-2.31-1.2-1.94-2.24S93,268.08,94.82,268.51Z"/><path class="cls-126" d="M92.43,306c1.91-.5,2-.43,2.85,1.55l0,0a2.51,2.51,0,0,1-.32.52c-.68,1-1.56,1.29-2.53.5S91.62,306.9,92.43,306Z"/><path class="cls-110" d="M94.72,252.46a9.51,9.51,0,0,1-1.5.14,1.4,1.4,0,0,1-1.39-1.24,1.45,1.45,0,0,1,.82-1.69,1.64,1.64,0,0,1,1.89.27,2.33,2.33,0,0,1,.76,1.56h0a6.49,6.49,0,0,0-.39.62C94.85,252.24,94.79,252.35,94.72,252.46Z"/><path class="cls-127" d="M149.88,287l1.62.69c-.12,2.16-.12,2.16-2.05,2.6l-1-.65C148,287.78,148.08,287.56,149.88,287Z"/><path class="cls-112" d="M151.49,326.18a1.59,1.59,0,0,1-1.62,1.6,1.66,1.66,0,0,1-1.73-1.75,1.68,1.68,0,0,1,3.35.15Z"/><path class="cls-128" d="M168.06,305.56c2.18.64,2.21.69,1.9,3-.83.41-1.66.75-2.52.09C166.7,307.46,166.72,306.38,168.06,305.56Z"/><path class="cls-129" d="M112.87,305.6c1.57,2,1.43,2.55-1,3.59v0a4.43,4.43,0,0,0-.54-.43C110.13,306.7,110.38,306.19,112.87,305.6Z"/><path class="cls-130" d="M129.5,327.2a1,1,0,0,0-.18-.47c.4-2.07.4-2.07,2.62-2.12l.61.57C132.6,327.83,132,328.25,129.5,327.2Z"/><path class="cls-131" d="M76.31,308.22A4.67,4.67,0,0,1,75,309a1.46,1.46,0,0,1-1.89-1.25,1.58,1.58,0,0,1,.91-1.92,1.52,1.52,0,0,1,2.12.85,5,5,0,0,1,.17,1.51Z"/><path class="cls-116" d="M113.86,289.57a5.43,5.43,0,0,1-1.4.57,1.35,1.35,0,0,1-1.66-1.21,1.39,1.39,0,0,1,.79-1.7,1.5,1.5,0,0,1,2.15.74,5.12,5.12,0,0,1,.23,1.25A2,2,0,0,1,113.86,289.57Z"/><path class="cls-67" d="M73.39,287.49c1.17-.69,2.19-.66,3,.61,0,1-.16,1.88-1.34,2.1C73.58,290.46,73,289.55,73.39,287.49Z"/><path class="cls-132" d="M75.28,249.43c1.61,2,1.39,2.66-1.09,3.26a1.57,1.57,0,0,1-1-2C73.39,249.54,74.34,249.47,75.28,249.43Z"/><path class="cls-9" d="M95.3,325.73c-.12-.18-.24-.35-.35-.53A.5.5,0,0,1,95.3,325.73Z"/><path class="cls-9" d="M94.91,252.13l.39-.62A.66.66,0,0,1,94.91,252.13Z"/><path class="cls-9" d="M94.94,308.14l.32-.52Z"/><path class="cls-9" d="M111.33,308.78a.58.58,0,0,1,.54.43Z"/><path class="cls-133" d="M150,380.78a1.52,1.52,0,0,1,1.5,1.59,1.49,1.49,0,0,1-1.55,1.64,1.63,1.63,0,0,1-1.8-1.69A1.79,1.79,0,0,1,150,380.78Z"/><path class="cls-134" d="M131,346.54a1.66,1.66,0,1,1,.12-3.32,1.58,1.58,0,0,1,1.53,1.72A1.55,1.55,0,0,1,131,346.54Z"/><path class="cls-134" d="M110.82,343.72a3.29,3.29,0,0,1,.92-.42c1.28-.17,2.09.41,2.15,1.49s-.68,1.76-2,1.7a3.85,3.85,0,0,1-1-.29l0,.05a2.34,2.34,0,0,1-.11-2.53Z"/><path class="cls-130" d="M110.89,324.88c1.24-.5,2.34-.52,3.08.81a5.2,5.2,0,0,1-.25,1.21,1.55,1.55,0,0,1-1.89.84,1.45,1.45,0,0,1-1.2-1.41A6.15,6.15,0,0,1,110.89,324.88Z"/><path class="cls-71" d="M132.48,421a4,4,0,0,1-1.16.5c-1.19.12-1.93-.48-1.93-1.5a1.5,1.5,0,0,1,1.31-1.64c1-.19,1.65.34,1.87,1.57a4.46,4.46,0,0,1-.07,1Z"/><path class="cls-135" d="M131,271.52a1.78,1.78,0,0,1-1.56-1.64,1.75,1.75,0,0,1,1.77-1.73,1.61,1.61,0,0,1,1.47,1.75A1.66,1.66,0,0,1,131,271.52Z"/><path class="cls-106" d="M132.68,307.34a1.64,1.64,0,1,1-3.28-.12,1.56,1.56,0,0,1,1.7-1.51C132.11,305.7,132.52,306.45,132.68,307.34Z"/><path class="cls-116" d="M130.86,287.07a1.45,1.45,0,0,1,1.64,1.51,1.39,1.39,0,0,1-1.32,1.56,1.45,1.45,0,0,1-1.77-1.37A1.47,1.47,0,0,1,130.86,287.07Z"/><path class="cls-106" d="M112.29,271.53a1.59,1.59,0,0,1-1.66-1.59,1.57,1.57,0,0,1,1.4-1.79,1.75,1.75,0,0,1,1.82,1.69A1.8,1.8,0,0,1,112.29,271.53Z"/><path class="cls-110" d="M95.14,288.71a1.73,1.73,0,0,1-1.74,1.46,1.49,1.49,0,0,1-1.59-1.6A1.51,1.51,0,0,1,93.49,287,1.6,1.6,0,0,1,95.14,288.71Z"/><path class="cls-110" d="M113.87,251a1.49,1.49,0,0,1-1.56,1.61,1.42,1.42,0,0,1-1.68-1.43,1.57,1.57,0,0,1,1.56-1.67A1.47,1.47,0,0,1,113.87,251Z"/><path class="cls-136" d="M76.29,269.73a1.68,1.68,0,0,1-1.69,1.79,1.43,1.43,0,0,1-1.44-1.46,1.55,1.55,0,0,1,1.48-1.92A1.71,1.71,0,0,1,76.29,269.73Z"/><path class="cls-104" d="M151.45,307.22a1.77,1.77,0,0,1-1.52,1.81,2,2,0,0,1-1.83-1.75,1.68,1.68,0,0,1,3.35-.06Z"/><path class="cls-137" d="M57.65,382.39A1.58,1.58,0,0,1,56,384a1.55,1.55,0,0,1-1.78-1.43,1.7,1.7,0,0,1,1.72-1.8A1.72,1.72,0,0,1,57.65,382.39Z"/><path class="cls-10" d="M131.94,437.42l-.52-.48a1.06,1.06,0,0,1,.5,0c.14.09.19.19.15.29S132,437.42,131.94,437.42Z"/><path class="cls-5" d="M131.94,437.42c0-.15,0-.29,0-.44l.56.41Z"/><path class="cls-138" d="M170.06,327.21a5.48,5.48,0,0,1-1.38.54,1.58,1.58,0,1,1,1.43-1.77,6.71,6.71,0,0,1-.07,1.26Z"/><path class="cls-139" d="M321.13,661.55c0-.77-.06-1.53-.08-2.3a9.06,9.06,0,0,0-11.28-8.42,8.54,8.54,0,0,1-2.71.7,8.72,8.72,0,0,1,10.77-.7A8.83,8.83,0,0,1,321.13,661.55Z"/><path class="cls-139" d="M307.05,651.54a.55.55,0,0,1-.59.49A.55.55,0,0,1,307.05,651.54Z"/><path class="cls-140" d="M326.76,204c7-12.52,14.11-25,21.06-37.61a4.39,4.39,0,0,1,4.4-2.62c10.62,0,21.23-.11,31.85-.2,7-.06,14-.1,21-.25a3.18,3.18,0,0,1,3.23,1.82q13.47,23.1,27.08,46.13a3.07,3.07,0,0,1,0,3.5q-13.17,23.28-26.2,46.63a3,3,0,0,1-3,1.82c-9.87.05-19.73.19-29.59.31-8.61,0-17.21-.13-25.81.39-.39-.14-.39-.14-.37-.12a83.87,83.87,0,0,1-4.93-8.06c-7.74-13.14-15.44-26.31-23.22-39.44a3.6,3.6,0,0,1-.06-4.33"/><path class="cls-1" d="M433,212.05c-1.14,0-2.31,0-3.48,0-16,.14-31.8,0-47.75.28-2,0-3.18-.38-4.18-2.1-8.06-13.92-16.23-27.77-24.37-41.64-.45-.77-.87-1.56-1.32-2.35.52-.63,1.17-.39,1.7-.39,16.86-.18,33.72-.32,50.58-.51a2.81,2.81,0,0,1,2.87,1.56c8.4,14.43,16.88,28.81,25.32,43.22A2.52,2.52,0,0,1,433,212.05Z"/><path class="cls-1" d="M431.51,214.09l-7.67.06c-14.37.14-30.14-.09-44.51,0-1.18,0-3.65,6.25-4.15,7.42l-.87,39.68c3.53-.09,10.84.17,14.37.13,4.43-.06,8.86-.13,13.26-.13h3.14c1.57.2,2.2-.47,3-1.84q12-21.57,24.14-43.07c.35-.63,1.16-1.56,1.16-2.19C432.71,214.16,432,214.08,431.51,214.09Z"/><path class="cls-3" d="M369,205.15a14.17,14.17,0,0,1,3.56.44L377,212.9c.49.63.49.63.05,1.26l-25.88,46c-.9-.08-1-.66-1.29-1.09q-12.72-21.68-25.46-43.35a2.84,2.84,0,0,1-.06-3.3c1.36-2.24,2.14-4,3.43-6.28"/><path class="cls-1" d="M327.75,206.17c6.09-10.88,10.51-17.58,16.61-28.46,1.05-1.89,2.37-5.93,5.92-10.67.54-.08,22.38,38.87,22.53,39.13"/><path class="cls-3" d="M379.33,214.16a3.08,3.08,0,0,0-1.34,1.32c-.63,1.25-17.63,32.32-24.26,44.16-.32.56-.84,1.09-.7,1.82a1.41,1.41,0,0,0,1.08.24c13.71,0,43.78-.44,49.09-.44h0c0-.63.62-47.1.62-47.1"/><path class="cls-11" d="M143.82,532.62a.5.5,0,0,1,.51-.36Z"/><path class="cls-141" d="M160.22,503.42c-.84.88-2.24-.07-3,.94l-2.11-.6C156.75,502.93,158.5,503.44,160.22,503.42Z"/><path class="cls-9" d="M144.86,479.62c2.87,2,5.66,4.17,8.67,6A52.48,52.48,0,0,0,166,491.08a47.87,47.87,0,0,1,21.9,13.86A14.4,14.4,0,0,1,192,515.38c-1,.38-1.49-.33-2.08-.72-3.58-2.36-7.06-4.88-10.72-7.1A47.56,47.56,0,0,0,162.53,501a22.73,22.73,0,0,0-4.87-.23l-13-8.32c-.79-.51-1.62-1-2.42-1.44a1.79,1.79,0,0,1-.54-1.85,68.85,68.85,0,0,1,1.83-8.14A1.85,1.85,0,0,1,144.86,479.62Z"/><path class="cls-142" d="M144.86,479.62c-1.27,3.71-1.79,7.59-2.58,11.41q-1.87,8.45-3.73,16.9c-.83.69-2-.41-2.76.43-.06-.14-.12-.29-.19-.43a2.67,2.67,0,0,1-.28-2.67c2.13-8.18,4.23-16.37,6.54-24.5.3-1.05.44-2.73,2.39-2.08l.56.44A2.83,2.83,0,0,0,144.86,479.62Z"/><path class="cls-7" d="M144.25,478.68c-1,0-1.22.81-1.41,1.54q-3.63,13.84-7.24,27.71l-3.17-1a74.58,74.58,0,0,1,2.29-9.41c1.9-7.51,4-15,6-22.47A22.41,22.41,0,0,0,144.25,478.68Z"/><path class="cls-143" d="M319.12,659.83a7.11,7.11,0,1,1-14.21-.13,7.11,7.11,0,1,1,14.21.13Z"/><path class="cls-144" d="M120.1,481.65c0-.84-.24-1.46-1.24-1.47-.66,0-1.35.07-1.85-.5,1.6-.1,3.2.16,4.8-.33,2.43-.74,4-2.5,5.49-4.33C127.21,478.29,123.47,481.54,120.1,481.65Z"/><path class="cls-145" d="M119,463.6a7.08,7.08,0,0,1,7.23,7.06,7.18,7.18,0,1,1-14.36.1A7.06,7.06,0,0,1,119,463.6Z"/><path class="cls-11" d="M110.82,343.72a4.28,4.28,0,0,0,.11,2.53A1.58,1.58,0,0,1,110.82,343.72Z"/><path class="cls-146" d="M309.21,664.88c-3.26-2.12-4-4.88-2.1-8.1a5.47,5.47,0,0,1,5.1,3A6.31,6.31,0,0,1,309.21,664.88Z"/><path class="cls-147" d="M314.82,654.75c3.15,2,3.85,4.32,2.31,7.81a4.92,4.92,0,0,1-5.05-2.75A4.63,4.63,0,0,1,314.82,654.75Z"/><path class="cls-148" d="M312.27,659.84l4.86,2.72c-2,3.13-4.53,3.86-7.92,2.32l2.55-5C311.92,659.6,312.09,659.6,312.27,659.84Z"/><path class="cls-148" d="M312.27,659.84l-.51,0c-1.17-1.6-3.24-1.84-4.65-3.08,2.05-3,4.39-3.57,7.71-2A16.45,16.45,0,0,0,312.27,659.84Z"/><path class="cls-148" d="M124.15,473.47q-3.06,4.86-8.11,2.2a6.6,6.6,0,0,1,3-5.1A5.92,5.92,0,0,1,124.15,473.47Z"/><path class="cls-146" d="M124.15,473.47l-5.09-2.58a1.14,1.14,0,0,1-.32-.67c.59-1.79,1.08-3.65,3-4.56C124.9,467.38,125.72,470,124.15,473.47Z"/><path class="cls-147" d="M119,470.41c0,.16,0,.32.06.48-1.2,1.48-1.68,3.39-3,4.77-3-2.13-3.63-4.57-2-7.84C116.26,467.61,117.79,468.71,119,470.41Z"/><path class="cls-148" d="M119,470.41l-5-2.59c2.14-3.05,4.39-3.68,7.69-2.16A37.29,37.29,0,0,1,119,470.41Z"/></g></g></g></svg>