<svg xmlns="http://www.w3.org/2000/svg" viewBox="0 0 701 1080.18"><defs><style>.cls-1{fill:#e8e9eb;}.cls-2{fill:#e4b363;}.cls-3{fill:#d3d3d3;}.cls-4{fill:#313638;}.cls-5{fill:#e2e2e2;}.cls-6{fill:#b4b4b4;}.cls-7{fill:#ababab;}.cls-8{fill:#dcdfde;}.cls-9{fill:#fcbc94;}.cls-10{fill:#efefef;}.cls-11{fill:#9b7b66;}.cls-12{fill:#8d7160;}.cls-13{fill:#fff;}.cls-14{fill:#fdfdfd;}.cls-15{fill:#fdfefe;}.cls-16{fill:#f2dfd1;}.cls-17{fill:#9c7b66;}.cls-18{fill:#f2e0d2;}.cls-19{fill:#dadede;}.cls-20{fill:#a1816b;}.cls-21{fill:#eef1f2;}.cls-22{fill:#eef2f2;}.cls-23{fill:#edf1f2;}.cls-24{fill:#edf0f1;}.cls-25{fill:#eceff0;}.cls-26{fill:#ecf0f1;}.cls-27{fill:#ebeff0;}.cls-28{fill:#ebf0f1;}.cls-29{fill:#eef3f4;}.cls-30{fill:#f0f2f3;}.cls-31{fill:#eef2f3;}.cls-32{fill:#eff2f3;}.cls-33{fill:#edeff0;}.cls-34{fill:#f2f7f7;}.cls-35{fill:#7e695c;}.cls-36{fill:#f5f6f4;}.cls-37{fill:#f0f3f3;}.cls-38{fill:#f1f3f4;}.cls-39{fill:#eceff1;}.cls-40{fill:#f6f6f7;}.cls-41{fill:#eef0f1;}.cls-42{fill:#f5f5f6;}.cls-43{fill:#f4f6f7;}.cls-44{fill:#ecf1f2;}.cls-45{fill:#f3f8f9;}.cls-46{fill:#eff1f2;}.cls-47{fill:#f3f8f8;}.cls-48{fill:#f2f8f8;}.cls-49{fill:#f5f6f7;}.cls-50{fill:#f6f6f6;}.cls-51{fill:#edf2f3;}.cls-52{fill:#edf2f2;}.cls-53{fill:#f4f8f9;}.cls-54{fill:#f3f7f7;}.cls-55{fill:#f0f3f4;}.cls-56{fill:#f4f7f8;}.cls-57{fill:#f4f7f7;}.cls-58{fill:#f6f7f7;}.cls-59{fill:#f5f7f8;}.cls-60{fill:#f4f8f8;}.cls-61{fill:#f5f8f7;}.cls-62{fill:#f2f5f6;}.cls-63{fill:#f6f7f8;}.cls-64{fill:#f9f9f9;}.cls-65{fill:#f8f8f9;}.cls-66{fill:#f9fbfb;}.cls-67{fill:#fdfcfb;}.cls-68{fill:#f6fbfb;}.cls-69{fill:#f6fafa;}.cls-70{fill:#f8fbfb;}.cls-71{fill:#f9fafa;}.cls-72{fill:#f7fafa;}.cls-73{fill:#f6fafb;}.cls-74{fill:#f6f9fa;}.cls-75{fill:#f9fcfc;}.cls-76{fill:#f8fafa;}.cls-77{fill:#f5fafb;}.cls-78{fill:#f8fafb;}.cls-79{fill:#f8f9fa;}.cls-80{fill:#fefefe;}.cls-81{fill:#7f685a;}.cls-82{fill:#f8faf8;}.cls-83{fill:#f8fbf9;}.cls-84{fill:#f9fbf9;}.cls-85{fill:#fafcfb;}.cls-86{fill:#fbfcfb;}.cls-87{fill:#fbfcfa;}.cls-88{fill:#fafdfb;}.cls-89{fill:#fbfdfc;}.cls-90{fill:#fbfdfb;}.cls-91{fill:#fcfdfc;}.cls-92{fill:#878686;}.cls-93{fill:#a9a9a9;}.cls-94{fill:#dddedc;}.cls-95{fill:#cdd5cd;}.cls-96{fill:#c09079;}.cls-97{fill:#1c2529;}.cls-98{fill:#a9abab;}.cls-99{fill:#7d685a;}.cls-100{fill:#bd9176;}.cls-101{fill:#8f8e8e;}.cls-102{fill:#7b7979;}.cls-103{fill:#907361;}.cls-104{fill:#fff9f6;}.cls-105{fill:#fffaf6;}.cls-106{fill:#fffaf7;}.cls-107{fill:#fff9f5;}.cls-108{fill:#fcf7f4;}.cls-109{fill:#fefcfa;}.cls-110{fill:#fffcfa;}.cls-111{fill:#fcf8f5;}.cls-112{fill:#f9f8f7;}.cls-113{fill:#fefcfb;}.cls-114{fill:#fffcfb;}.cls-115{fill:#fffdfc;}.cls-116{fill:#fffdfb;}.cls-117{fill:#a6866e;}.cls-118{fill:#454c52;}.cls-119{fill:#7d6759;}.cls-120{fill:#afb4b4;}.cls-121{fill:#f7f8f7;}.cls-122{fill:#feffff;}.cls-123{fill:#f7f9f7;}.cls-124{fill:#f7faf7;}.cls-125{fill:#f9f6f3;}.cls-126{fill:#fbf8f6;}.cls-127{fill:#fdf9f7;}.cls-128{fill:#f8f4f2;}.cls-129{fill:#fbfaf8;}.cls-130{fill:#f9f9f8;}.cls-131{fill:#f5f3f1;}.cls-132{fill:#fcfcfb;}.cls-133{fill:#f6f5f3;}.cls-134{fill:#f8f9f8;}.cls-135{fill:#fffbf8;}.cls-136{fill:#fff8f4;}.cls-137{fill:#f5f4f3;}.cls-138{fill:#fbfbfb;}.cls-139{fill:#444d53;}.cls-140{fill:#485d68;}.cls-141{fill:#f7f7f7;}.cls-142{fill:#ac967a;}.cls-143{fill:#e1e1e1;}.cls-144{fill:#f1bb41;}.cls-145{fill:#a8acac;}.cls-146{fill:#edba41;}.cls-147{fill:#177764;}.cls-148{fill:#17c9a7;}.cls-149{fill:#0e4740;}</style></defs><g id="Layer_2" data-name="Layer 2"><g id="about-me"><polygon class="cls-1" points="700 1079.93 1 1080 0 0 696 0 700 1079.93"/><polygon class="cls-2" points="601 337 601 0 701 0 701 988 640 959 636 337.45 601 337"/><polyline class="cls-3" points="642 961 642 328 501 328 501 885 142 1060 142 1079.93 700 1079.93 701 977"/><path class="cls-4" d="M0,844c.9-10.32,8.76-22,10.85-32.13,4.94-23.8,10.21-47.53,15.36-71.28a30.34,30.34,0,0,1,.93-3.55c1.67-4.8,6.3-6,10.35-2.74.31.26.65.49,1,.73,2.15-.1,3.5,1.35,4.95,2.57,17.83,15,37.54,27.26,58.14,38.09,25.8,13.58,52.71,24.56,80.31,33.92,8.68,2.58,17.54,4.36,26.36,6.32,2.05.41,4.05,1,6.1,1.44,1.44.2,2.82.71,4.27.91,5,.42,8.19,3,9.6,7.76a7,7,0,0,1,.05,2.7c-1.75,8.93-4.05,17.76-5.46,26.76-1.58,5.46-4,10.71-4,16.55-1,6.19-2.39,12.29-3.87,18.37-3.91,20.24-8.51,40.33-12.84,60.47q-13.29,61.86-26.68,123.68c-.43,2-.6,4.09-2.21,5.61-73.29,0-98.87-.18-172.16-.18v-6"/><path class="cls-4" d="M701,1080c-117.87,0-35,.18-152.91.18-1.88-2.64-.17-5,.74-7.31a529.35,529.35,0,0,0,22.52-70.54c4.89-20.45,8.79-41.07,9.91-62.15.29-5.45.75-10.89.6-16.34-.07-2.66.92-5.05,1.38-7.57,3-5.37,5.52-6.16,11-3.25,25.82,13.8,81,43.14,106.8,57"/><path class="cls-5" d="M536.61,1080.18H489.84c-17.23-6.56-33.44-15.34-50.06-23.22-7.66-3.63-9.22-8.5-5.47-16.07,2.31-4.65,3.7-9.69,6.29-14.21a2.1,2.1,0,0,1,1.57-.89c11.58,6.35,23.24,12.57,34.91,18.76,2,1.07,4.46,1.37,6.06,3.24,1.08,2.59.67,5.43,1.35,8.08-.11,5,2.55,8.3,6.74,10.26a12.86,12.86,0,0,0,13.2-.81c1.68-1.11,2.73-3.09,4.92-3.47,9.43,5.17,19.2,9.74,28.24,15.63C538.08,1078.67,537.36,1079.43,536.61,1080.18Z"/><path class="cls-6" d="M536.61,1080.18c.23-.83.47-1.66.7-2.49-1-2.47.42-4.54,1.26-6.64a534.27,534.27,0,0,0,23.14-71.16c5.24-21.49,9.43-43.15,10.52-65.33.25-5,.66-10.06.69-15.1,0-1.74-.16-3.61,1.48-4.89a15.29,15.29,0,0,1,6.06,2.79c1.9,1.35,2-.27,2.78-1.09.68,20.8-1.47,41.37-5.21,61.8-6.16,33.63-16.26,66.1-28.82,97.85-.54,1.35-1.5,2.65-1.12,4.26Z"/><path class="cls-7" d="M441.4,1026.84a104.07,104.07,0,0,1-5.81,14.33,20.85,20.85,0,0,0-1.65,4.16,7.84,7.84,0,0,0,3,8.64,15,15,0,0,0,2.83,1.63L487,1078c1.1.52,2.31.9,2.85,2.15h-12.3c-9.5-3.21-17.85-8.86-27-12.8-3.22-1.92-6.79-3.17-9.92-5.26l0,0c-.46-.48-1.25-.35-1.69-.89-1.84-1.64-4.18-2.42-6.34-3.47a7.53,7.53,0,0,1-4.3-5c-1.1-4.1-1.72-8.16.74-12,.78-5.92,3.46-11.26,5.23-16.88a1.86,1.86,0,0,1,1-.64A8.75,8.75,0,0,1,441.4,1026.84Z"/><path class="cls-8" d="M450.47,1066.92c5.94,2.23,11.56,5.16,17.26,7.92,2.31,1.11,4.66,2.13,7,3.2,1.1.51,2.28.91,2.83,2.14h-4.92a26.37,26.37,0,0,0-5.5-3.49c-5.52-3-11.09-5.89-16.65-8.82-.24-.21-.33-.42-.25-.63S450.38,1066.92,450.47,1066.92Z"/><path class="cls-9" d="M263.41,732.06a29,29,0,0,0,6.33,1.56,51.84,51.84,0,0,1,19.77,7.56c11,6.77,22.94,11.44,34.95,15.94,13,4.89,26.26,9.25,39.58,13.32a52.67,52.67,0,0,1,27,18.34c7.28,9.38,14.62,18.71,21.64,28.29,17.5,23.39,31.6,48.35,36.55,78.14a48.18,48.18,0,0,0,3.32-9.08c1.76-5.9,4.64-7.6,10.4-5.7,3.73,1.23,7.61,2.26,10.75,4.87a3.38,3.38,0,0,1,.58,1.17c.41,2.79-.47,5.41-1.12,8-9.42,38.27-19,76.5-30.9,114.1-.89,2.81-.8,6.46-4.66,7.54a31.55,31.55,0,0,1-14.19-8.54c-4.2-4.33-5.3-9.7-4.45-15.55a33.3,33.3,0,0,0,.4-9.62c-1.52.13-2.34,1.31-3.3,2.09A43.14,43.14,0,0,1,399,993c-2.84.69-5.74,1.16-8.49.15-11.43-4.23-23-3.15-34.74-1.71-11.51,1.41-22.94-.71-33.62-5.24-9.36-4-13.58-12-14-21.82-.38-8.29,4.47-14.35,12.51-16.47,1.06-.28,2.13-.48,3.18-.78,6.51-1.9,8.62-5.23,7.4-11.95a39.51,39.51,0,0,1-.94-10.56c.65-7.34,6.28-10.68,12.74-7.18,7.71,4.18,16.07,6.73,24.35,10.69-12.13-5.2-21.84-13-31.16-21.46-1.53-1.9-3.55-3.37-4.9-5.44a86.28,86.28,0,0,1-17.91-30.79,7.49,7.49,0,0,1-.3-1.22,86.73,86.73,0,0,1-3.66-32.71c.63-7.88.74-15.83-.78-23.67-1.26-6.49-5.23-11.36-10-15.57a82.93,82.93,0,0,0-31.13-17.62c-13.81-4.19-25.75-11.81-36.36-21.54-2.3-2.67-4.21-5.63-6.44-8.35-3.64-5.81-6.78-11.83-8-18.69-1.5-8.45.15-15.73,7.6-20.93a7.4,7.4,0,0,1,7.72.32c5.53,9.58,15.66,13.2,24.38,18.62A32.59,32.59,0,0,0,263.41,732.06Z"/><path class="cls-9" d="M43.6,530c-7.13-11.63-8.07-23.64-2.64-36.27,7.38-17.14,14.3-34.46,20-52.24a151.07,151.07,0,0,0,5.34-21.37c1.35-8.09,3.47-15.95,8.11-22.92a28.58,28.58,0,0,0,2.12-4.86c4.17-10.11,4.23-20.94,5.57-31.55a5.87,5.87,0,0,0-1.25-4.58c1.52-6.14,6.9-10,14.64-6.82a25.61,25.61,0,0,1,11.1,9.3c4.25,6,6.57,12.76,8.24,19.81.38,1.59.69,3.19,1,4.78,2.11,2.67,1.29,5.72.91,8.6A85.12,85.12,0,0,1,112.12,412c-2.65,6.77-6.66,12.44-13.07,16.13A12.27,12.27,0,0,1,92.88,430c-2.17-.65-4.31-2.12-6.59-.27-.46.2-.91-.21-1.37,0,.53,0,1,.28,1.52.31,1.52.52,3.08.94,4.58,1.55,1.94,1.26,4.09,2.16,6,3.47,4.06,2.8,5,6.72,2.52,11-2.61,4.42-6.35,7.32-11.83,7.61,1.88.52,3.53,1,3.53,3.31-.55,1.27-2.5,1.08-2.94,3.17,2.45-.15,2-2.79,3.34-3.41,8.22,1.82,11.91,14,6.22,20.48-3.51,4-7.78,6.08-14.73,7.16,4.68-1,9.42-.82,14.15-.64,2.32.09,4.69.85,5.1,3.3.52,3.1,2.48,3.51,4.9,3.75,16,1.55,28.92,9.15,40.09,20.23,1.53,1.52,3.24,3,3.21,5.48-.2,1.46-2.21,1.44-2.46,3.15,1.79.93,2.71-1.22,4.16-1.22a4.44,4.44,0,0,1,2.53,2c8.62,10.54,19.55,38.17,20.42,51.45-.25-1.64.86-3.23,1-5,1.75-4.72,2.72-9.72,5.14-14.19a42.66,42.66,0,0,1,2.26-3.88c6-8.69,14.38-8.94,20.88-.61a32,32,0,0,0,4.75,5.55c4.22,3.45,8.08,3.71,12.23.26a28.88,28.88,0,0,1,14.47-6.13c1.64,1,2.75,3,5.06,2.87,9.93,5.43,14.92,17.57,11.08,28.36a75.78,75.78,0,0,1-23,33.22,47.35,47.35,0,0,0-14.21,19.12c-.79,2-1.61,4.07-3.39,5.5a5.34,5.34,0,0,0-4.76,4.54c-6,4.79-13.12,6.46-20.79,7.89a81.23,81.23,0,0,0,9.26,7.23c6.32,4.11,8.56,10,8,17.21-.3,3.65-.61,7.35-2.58,10.62-2.74,1.63-5-.16-7.32-1.11q-20.2-8.47-40-17.85c-19.48-9.24-38.94-18.52-58.19-28.22-2.28-1.15-4.92-2.05-5-5.3a14.52,14.52,0,0,1,1.89-6.63c1.64-2.73,4-4.33,7.21-3a44.92,44.92,0,0,0,22.11,2.95c.47-.06,1.1-.13,1.37.52-10.19-4.58-18.24-11.91-25.75-20-13.22-14.17-22.73-31.06-34.06-46.61-1.73-2.38-4.12-4.43-4.75-7.53.21-1.13,2.24-1.51,1.43-2.93-.58-1-1.95-.46-2.95-.72-3.35-1.27-4.5-4.53-6.29-7.14s-3.2-5.64-5-8.31v0A18.14,18.14,0,0,1,43.6,530Z"/><path class="cls-10" d="M40.89,722.6q3.78-17.76,7.56-35.53,4.88-22.74,9.81-45.48c1.56-1.68,1.87-3.35,0-5a13.43,13.43,0,0,0,2.42-2.12c3.46-4.16,7.55-5,12.42-2.71,3.57,1.68,6.92,3.84,10.66,5.19a3.12,3.12,0,0,1,3.07,1.15c1,2.1,3,2,4.83,1.93a16.47,16.47,0,0,1,4.54,1.79c15.21,7.38,30.06,15.49,45.51,22.36a13.28,13.28,0,0,1,4.8,3.05c1,2.08,2.75,2.7,5,2.23,5.45,1,10,4.18,14.92,6.36,10.43,4.63,20.86,9.22,31.41,13.56a10,10,0,0,1,1.05.49c.5.25,1,.51,1.51.75,2,.9,4.09,1.67,6.08,2.63,1,.58,2.2,1,2.37,2.37-.4,1.78-1.56,3.25-2,5-2,9.9-4.2,19.75-6.31,29.63-.34,1.58-.55,3.26-2,4.35-1.58.94-3.19.23-4.68-.15-4.91-1.26-8.88.26-12.3,3.73a17.05,17.05,0,0,0-4.54,16.27c.2,7.18,5.23,9.85,11,11.8,2.36.71,4,2.14,3.51,4.74-2,9.87-3.23,19.94-6.9,29.42-2,1.9-4.13.86-6.14.16a571.9,571.9,0,0,1-53.64-21.51c-25.2-11.73-49.47-25.09-71.67-42-3.37-2.57-6.63-5.27-9.83-8.05C41.22,727.25,40.12,725.33,40.89,722.6Z"/><path class="cls-11" d="M91.15,457.11c-1.3-2.11-3.81-2.38-6.08-3.84,2-.45,3.66-.76,5.27-1.2a13,13,0,0,0,8.6-7.47c1.64-3.51.62-6.68-2.69-8.71a50.73,50.73,0,0,0-4.71-2.39A1.87,1.87,0,0,1,90.41,432a2.43,2.43,0,0,1,1.53-2.74c9.93-1.94,15.36-8.79,18.81-17.58a77.57,77.57,0,0,0,5.12-28.37l3.9-2.39c2.61,5,2.58,10.2,1.13,15.49-.71,1.79-4,2.88-1.47,5.55,1.55,1.95,1,4.15.65,6.26a87.91,87.91,0,0,1-5,18,85.89,85.89,0,0,0-4.05,14.06c-1.18,5.48-.3,10.23,4.22,14a6.83,6.83,0,0,1,2.18,2.9c1.19,3.56,1.19,3.56,4.33.9a11,11,0,0,1,4-.7c8.07-.66,12.31-4.37,13.87-12.54,1.46-7.64,2.33-15.38,3.4-23.08.95-6.83,2.7-13.37,6.39-19.28a11.61,11.61,0,0,0,.57-1.11,6.91,6.91,0,0,1,.64-1c.12-.16.25-.32.36-.48,1.31-1.56,2.19-3.45,3.65-4.89,1-1,1.89-2.43,3.73-1.76,1.19.93.47,2.56,1.39,3.8,2.38-.63,4.2-2.7,6.75-2.91.49,1.48-.6,2.26-1.44,3.08-6.54,6.43-10.14,14.28-11.56,23.25-.38,2.38-.4,4.9-1.91,7-4.26,2.07-4.26,2.07-1.2,5.1.91,1.73.39,3.48.08,5.21-1.93,10.86-4.07,21.68-6.11,32.52-1,5.25-1.1,10,2.48,14.27a4.55,4.55,0,0,1,.79,1.86c.64,1.42-1.21,4.83,2.84,3.53a6.29,6.29,0,0,1,1.05-.5,4.81,4.81,0,0,1,1.18-.22c2.08,0,3.93,1,5.91,1.42,6.78,1.56,13-1.7,15.18-8.31,2.29-6.93,4.31-14,6.34-21a5.66,5.66,0,0,1,.27-1.22c2.56-7.34,4.42-14.89,6.82-22.27,2-6.25,4.47-12.33,8.67-17.48,2.16-2.64,4.61-5.08,8.47-5,1.11.86.25,3.11,2.32,3.29.39,1.76-1.08,2.37-2.08,3.14-6.23,4.77-9.78,11.09-11.59,18.66-3.31,13.89-7.33,27.61-10.76,41.47a12.63,12.63,0,0,1-1.71,4.55c-1,1.41-3.67,2-2.39,4.59a6.91,6.91,0,0,1,.47,1,4.94,4.94,0,0,1,.29,1.13c-.56,10.32,3.61,16.62,12.57,19.25a12.73,12.73,0,0,0,11.29-1.78,26.21,26.21,0,0,0,8.16-9q10.39-18.31,20.78-36.62c1.06-1.89,2-4,4.5-4.38a3.11,3.11,0,0,1,2.21,1c1.6,2.24.26,4.21-.72,6.09-4.56,8.68-8.32,17.75-12.79,26.47-.5,1-1,1.95-1.4,2.95-2.31,5.51-1.15,8.25,4.47,10.54,12.36,5,24.76,1.32,32.48-9.61,1.7-2.41,2.65-5.43,5.43-7a6.87,6.87,0,0,1,4.75.19,1.77,1.77,0,0,1,.49,1.08c-6.28,15.84-16,28.37-32.91,33.88-4.51,1.47-9.18,1.25-13.77.81-4.91-.47-8.41-4.1-9.54-9.34-.67-3.08-.85-6.2.26-8.94a21.09,21.09,0,0,1-4.64,8.48,24.1,24.1,0,0,0-4.67,3.43c-5.85,1.82-11.71,2.4-17.65.4-9.77-3.3-16.34-11.31-15.45-22-8.6,6.39-17.9,7.82-27.19,2.52-10.67-6.09-9.31-16.2-7.11-26.56a28.6,28.6,0,0,1-6.93,9.51c-2.85,2.59-6.58,3.84-9.48,6.35-1.49,0-1.78-2.32-3.76-1.88.35,2.16,2.51.86,3.32,1.84a20.22,20.22,0,0,1,4,1c15.19,7.13,28.36,16.79,38.2,30.57a68.46,68.46,0,0,1,12.93,43.76,2.94,2.94,0,0,0,.48.84c-.18,2.73-1.16,5.28-1.85,8.34-1.42-2.82-1.52-5.59-2.14-8.19-3-12.5-7-24.6-13.11-35.92a64.62,64.62,0,0,0-8.36-12.5l-.45-.08a2.57,2.57,0,0,1-.74-.53,1.68,1.68,0,0,1-.33-1.28c-4.82-7-11.38-12-18.49-16.45-9.37-5.82-19.71-8.41-30.48-8.78-.77-.89-.06-1.4.09-2,.66-2.77-.21-4.25-3.06-4.49-3.12-.26-6.27-.18-9.41-.2s-6,0-9.67,0l9.31-3a19.5,19.5,0,0,0,7-4.11c4-3.6,5.06-7.5,3-12.51-1.46-3.58-3.58-6.71-7.45-8.18Z"/><path class="cls-11" d="M177.23,567h-.79c-.56-4.85.67-9.78-.6-14.6a2.52,2.52,0,0,1,.85-1.31c.89-.7,2.83-.45,2.63-2-.22-1.73-2.34-.81-3.32-1.68-1.23-.89-1.34-2.24-1.68-3.58-2.49-9.91-6.47-19.08-13.21-27-3.4-4-2.57-4.55,2.13-6.36,7-2.71,10.29,1.48,13.84,5.9,1,4.2,1,4.2,4.73,2,7.46,4.28,15.26,5.24,23.43,2.32,2.93.24,4.7-1.39,6-3.76,2.42-1.08,3.24.73,3.89,2.35,2.25,5.66,6.57,7.8,12.42,8A67.38,67.38,0,0,0,250,524c6.74-2.08,12.27.12,16.91,5.11,1.11,1.2,2.17,2.46,1.43,4.29-.47,4.75-1.6,9.38-2.45,14.06a2.05,2.05,0,0,1,0,3.11c-2.16,4.18-2.44,8.87-3.2,13.36a121.35,121.35,0,0,1-12.42,37.46c-3.11,5.77-6.45,11.44-11.36,15.89-10.48,9.5-17.13,21.43-22.23,34.37-2.3,5.83-4.38,11.72-5.22,18,0,.23-.31.43-.48.64-1.06-.44-1.27-2-3-2,.43,1.72,2.29,1.16,3,2.11L208.39,685a9.2,9.2,0,0,1,0,1.66,2.81,2.81,0,0,1-.55,1,2.7,2.7,0,0,1-1.06.45,9.6,9.6,0,0,1-6.8-3,1.2,1.2,0,0,1,.14-1.1c.33-3.94,1.74-7.69,1.81-11.7.1-6-1.67-10.86-6.91-14.36-4.18-2.79-8.05-6-12.54-9.45,2.48-.48,4.39-.87,6.31-1.22a42.87,42.87,0,0,0,15.28-5.57,5.47,5.47,0,0,1,2.64-1,5.35,5.35,0,0,0,3.89-4,37.64,37.64,0,0,0,3.38-6.52,44.66,44.66,0,0,1,14-18.73c8.15-6.44,14.06-14.77,18.87-23.89a70.76,70.76,0,0,0,3.76-8.16,23.15,23.15,0,0,0-7.59-26l-2.59-2c-.56-2.33-1.76-3.76-4.42-3.18a3,3,0,0,1-2.55,1.65c-4.25.24-7.73,2.21-10.92,5-5.25,4.57-11.31,3.88-15.66-1.59-2.19-2.76-4.19-5.67-7.15-7.76-4.89-3.45-9.41-3-13.33,1.64a34.61,34.61,0,0,0-5.94,10.64C179.36,560.8,178.32,563.89,177.23,567Z"/><path class="cls-9" d="M236.3,461.11c-1.65.74-2.2,2.35-3,3.76l-21.17,37.41a29.92,29.92,0,0,1-5.21,6.8c-7.07,6.81-14.35,7.35-23.19.79-5.87-4.35-7.37-10.54-5.62-17.55a10,10,0,0,0,1.61-5.72c4.19-16.2,8.47-32.37,12.53-48.59,2.15-8.57,7.22-14.77,14.49-19.42,10.19-3.4,19.18-1.7,26.7,6.25.93,1,1.84,2,2.76,3a30.21,30.21,0,0,0,3.27,4.6c1.4,4.06,3.28,8,3.59,12.37,1.18,4.69-1.67,8.23-3.45,12.07A20.66,20.66,0,0,0,236.3,461.11Z"/><path class="cls-9" d="M151,427.54c.75-4,1.37-8.05,2.27-12A35.83,35.83,0,0,1,165.8,395a5.89,5.89,0,0,0,.76-.94c15.42-5.1,28.92,1.42,35.79,15.93.81,1.72,1.38,3.55,2.07,5.33-9.18,4.68-12.74,13.33-15.68,22.35-2.24,6.84-4.21,13.78-6.3,20.67a4.32,4.32,0,0,1-1,2.21c-1-.16-1.46-1.69-3-1.19.44,1.51,2.05,1,2.83,1.74-.08,2.93-1.43,5.52-2.21,8.26-1.27,4.45-2.79,8.85-3.9,13.34-1.79,7.26-10.14,11.07-16.85,9.18-2.23-.62-4.42-1.4-6.62-2.1-1.52-.83-3.05-1.62-4.55-2.47-.25-1.3-1.32-2-2.07-3a12.83,12.83,0,0,1-2.67-11.07c2.54-12.82,4.79-25.69,7.16-38.54.15-.8.52-1.58-.21-2.28C149.35,430.61,150.31,429.12,151,427.54Z"/><path class="cls-9" d="M158.42,393.15c-3,1.68-4.27,5-6.68,7.3-1.18-.2-2-1.57-3.59-1.07,0,1.76,2.06,1.54,2.68,2.61-2.86,5.88-5.32,11.88-6.22,18.43-1.09,7.92-2.29,15.83-3.38,23.76-1.47,10.62-8.51,15.11-16.82,14.55-1-.06-1.9,0-2.85,0a9.26,9.26,0,0,1-4.71-1c-.31-1.38-1.61-1.79-2.55-2.52-4.43-3.48-6-8.06-4.94-13.46a84.46,84.46,0,0,1,4.6-16.5,79.71,79.71,0,0,0,5.11-19.73c.16-1.23.46-2.46-.93-3.21,1.09-1.56,2-3.16,1.73-5.18.94-5.43-.11-10.86-.1-16.29,1.14-.74,2.23-1.56,3.41-2.23a24.83,24.83,0,0,1,34.07,10.64A7.65,7.65,0,0,1,158.42,393.15Z"/><path class="cls-9" d="M266.61,491.52c-1.32.47-1.61,1.77-2.21,2.81a44.83,44.83,0,0,1-6.72,9.21c-8.88,9-21.35,9.43-31.84,4.72-5.22-2.34-6.22-5.94-3.59-11.46,4.87-10.2,9.89-20.34,14.79-30.53.61-1.26,1.92-2.47.93-4.13.87-1.49,2.23-2.74,2.34-4.62,1.21-2.68,1.44-5.91,4.31-7.66a15.83,15.83,0,0,1,11-1.26c5.6,1.35,10.87,3.33,14.25,8.45-.39,1-1.71,1.33-2.08,2.65,1.49.76,2.11-1.06,3.23-1a5.2,5.2,0,0,1,1.41,2.51c1.51,8.75-.53,17-3.58,25.09C267.56,487.79,267.58,489.87,266.61,491.52Z"/><path class="cls-6" d="M40.89,722.6a6,6,0,0,0,2.47,4.79C58.84,740.91,76,751.9,93.9,761.89A511.15,511.15,0,0,0,173,797.18c3.58,1.26,7,3,10.86,3.47a2.31,2.31,0,0,1,.67,1.16c-.5,3.1.59,6.78-3.17,8.69-7.28-1.88-14.24-4.7-21.25-7.34-31.41-11.81-61.66-26-89.89-44.22A252.69,252.69,0,0,1,38.46,735,71.07,71.07,0,0,1,40.89,722.6Z"/><path class="cls-11" d="M45.2,532.51c1.47.64,2,2.08,2.89,3.25,2.86,3.88,5.14,8.17,8.53,11.65a4.33,4.33,0,0,1,1.62,4.18,15.63,15.63,0,0,1,4,4.55c8.4,12.09,16.6,24.33,25.21,36.27a117.82,117.82,0,0,0,27.89,27.94,76.87,76.87,0,0,0,9,5.09,23.29,23.29,0,0,1-8.86,1.31c-5.49-.09-10.86-.74-15.93-3.06-3.41-1.56-5.66-.64-7.05,2.93-.64,1.64-1,3.39-1.45,5.1-.28.51-.48,1.09-1.09,1.34a3.37,3.37,0,0,1-3.71-1.34c1.14-7.32,1.45-14.59-.78-21.8A44.46,44.46,0,0,0,82.31,602c-4.08-7.55-8.29-15-12.38-22.56q-11.69-21.54-23.28-43.14C46,535.09,45.15,534,45.2,532.51Z"/><path class="cls-11" d="M473.47,885.85c-2.8-1.09-5.59-2.2-8.39-3.27a35.3,35.3,0,0,0-3.85-1.38c-4.2-1.08-6.18,0-7.18,4.27a44,44,0,0,1-4,11.11c-.37.68-.54,1.59-1.68,1.83-1.4-2.83-1-6-1.55-9a129.32,129.32,0,0,0-10.27-30.53A282.16,282.16,0,0,0,415,821.29c-.89-1.33-2.17-2.49-2.37-4.22,3.53,2.65,5.53,6.58,8.27,9.89,4.84,5.84,9.5,11.82,14.08,17.86,2.15,2.84,5.46,4.49,7.31,7.57,4.38,5.29,9.8,9.5,14.85,14.07A170.3,170.3,0,0,0,475.9,881C475.74,882.93,475.66,884.92,473.47,885.85Z"/><path class="cls-12" d="M268.37,533.41c-2.73-6.12-10.15-9.95-16.37-8.41-2,.49-3.94,1.08-5.9,1.67a53.65,53.65,0,0,1-19.88,1.67c-5.93-.49-10.67-3.26-12.6-9.37-.48-1.51-1.07-2.18-2.57-1.2a1,1,0,0,1-1-.89l6.41-12.54c.09,3.4-.81,6.48-.71,9.75.24,7.77,4.2,11.73,11.84,11.92,15.14.36,25.71-7.37,34.15-18.94a110.07,110.07,0,0,0,9.09-15.48c.19-5.54,2.8-10.36,4.61-15.41.13-.37.69-.32,1.1-.24,1.57,3.23.74,6.66.75,10A42.21,42.21,0,0,1,275,499.81a51.17,51.17,0,0,1-9.63,16.66c-2,2.37-2.82,4.46-.07,6.9,2.19,1.94,2.9,4.8,3.82,7.48A2.86,2.86,0,0,1,268.37,533.41Z"/><path class="cls-13" d="M603,755.46c4,3.86,8.12,7.68,12.11,11.6,3.19,3.14,6.92,5.74,9.67,9.29a3.72,3.72,0,0,1-.42.83c-4.68,4.72-5,4.72-9.66.16-3.32-3.25-6.61-6.52-10-9.72-.66-.63-1.25-2-2.57-.83-4.43,4.22-8.92,8.36-13.24,12.69-1.56,1.56-2.76,1.87-4.39.27-1-1-2.28-1.9-3.79-3.12l21.53-21C602.45,755.14,602.7,755.11,603,755.46Z"/><path class="cls-14" d="M91.06,84.69c0,4-1.76,6.94-4.31,9.62-3.38,3.55-3.84,7.48-1.54,11.18A15.75,15.75,0,0,0,87,107.7c5.36,5.92,5.36,12.28,0,18.25-4.28,4.77-4.29,9,0,13.71,5.52,6.11,5.71,12.32,0,18.12-3.81,3.91-4.42,9.65.09,14.11,4.7,4.66,5.22,10.73,1.87,15.62a11,11,0,0,1-1.9,2.12,1.51,1.51,0,0,1-2.21-.07,1.35,1.35,0,0,1,.06-1.84c.47-.67,1.07-1.25,1.52-1.93A9,9,0,0,0,86,175.11c-.59-.74-1.32-1.37-2-2.09a12,12,0,0,1,0-16.39c.44-.52,1-1,1.41-1.48,3.57-4.09,3.6-8.87-.23-12.83-2.59-2.68-4.33-5.62-4.34-9.38a10.94,10.94,0,0,1,3.72-8.78c4.29-3.6,4.24-10.42.17-14.52-5.5-5.53-5.24-12,.06-17.8,4.08-4.51,4.29-8.13.77-13.17-.16-.23-.38-.4-.53-.63-.48-.72-.79-1.49.06-2.14a1.67,1.67,0,0,1,2.24.26A11.71,11.71,0,0,1,91,82.89,12.38,12.38,0,0,1,91.06,84.69Z"/><path class="cls-14" d="M107.53,84.68A12.1,12.1,0,0,1,104,93.55c-4.89,5.35-4.86,9.15,0,14.59s5,12.29-.11,17.32c-4.53,4.45-4.16,10.67.07,14.78,5.21,5.06,4.93,11.83.06,17.24s-4.87,9.31,0,14.61c4.41,4.82,4.86,11.29,1.13,16.07a4.3,4.3,0,0,1-2.15,1.82,1.53,1.53,0,0,1-1.5-.39,1.14,1.14,0,0,1-.17-1.48c.42-.7,1-1.3,1.46-2a9,9,0,0,0-.71-11.65c-.44-.52-1-1-1.43-1.47a12,12,0,0,1,0-16.4c.27-.31.58-.58.86-.88,4.2-4.64,4.24-9.25,0-13.75a12.91,12.91,0,0,1-3.85-7.06,12.37,12.37,0,0,1,3.25-10.57c5-5.51,4.95-9.53,0-15-4.71-5.28-4.71-11.73,0-17s4.91-7.84.87-14.1c-.46-.71-1-1.4-.29-2.16s1.75-.49,2.56.14C105.89,77.71,107.5,81.56,107.53,84.68Z"/><path class="cls-15" d="M75,84.17c-.1,4.1-1.27,7.07-3.76,9.46a9.77,9.77,0,0,0-3.1,4.73c-.81,3.41-.31,6.68,2.46,9,5.55,4.65,5.39,14,.1,18.92-4.19,3.9-4.16,9.13,0,13a12.93,12.93,0,0,1,.09,18.89c-4.3,4-4.1,9.08.07,13.37,3.31,3.4,4.74,7.22,3.82,11.89a11,11,0,0,1-2.51,5.08c-.8.92-1.76,2.18-3.06,1.2-1.48-1.13-.06-2.1.62-3.05,3.34-4.73,3.07-8.47-.94-12.82-5.5-6-5.49-12.12,0-18.15,4.28-4.68,4.53-9.34,0-13.67a12.64,12.64,0,0,1-.14-18.23c4.57-4.47,4.34-9.19,0-14-5.29-5.86-5.29-12,0-17.87,4.22-4.63,4.48-8.12.94-13.12C69,77.91,67.83,77.05,69,76s2.23.06,3.06,1A12.14,12.14,0,0,1,75,84.17Z"/><path class="cls-7" d="M208.55,695.59l-2.62-1.51a8.43,8.43,0,0,1,1.49-6.59,1.2,1.2,0,0,1,.42,0c5.51,0,10,3.11,15,4.71,2,.64,3.79,2.23,6.13,1.83,2.56.74,4.4,2.64,6.53,4.08a34,34,0,0,1,4.89,2.39c-.31.75-.63,1.44.05,2.23,2.17,2.51,2.05,5.43,1.26,8.38-.45,1.67-.26,3.51-1.27,5-3,1.08-4.37-.76-5.62-2.93-.6-7.62-1.51-8.67-8.92-10.9-4.66-1.41-9.29-2.89-13.83-4.63a7.43,7.43,0,0,1-1.05-.3,9.33,9.33,0,0,1-1-.44,4.9,4.9,0,0,1-.91-.53A1.88,1.88,0,0,1,208.55,695.59Z"/><path class="cls-11" d="M269.08,530.85a3.32,3.32,0,0,1-1.63-1.75,18.18,18.18,0,0,0-4.92-6.89c-1.35-1.14-1.65-2.17-.31-3.73a90.48,90.48,0,0,0,10.32-15c.68-1.23.71-3.05,2.42-3.63-.39,5.54-1.9,10.87-3,16.28-.33,1.64.34,3.6-1.21,5-.95-.53-1.26-2-2.89-2.07.48,1.79,2.14,1.23,2.91,2C270.8,524.39,269.53,527.55,269.08,530.85Z"/><path class="cls-16" d="M80.86,356.2c2.3.06,3.06,1.43,2.86,3.5-.3,3.22-.61,6.44-1,9.65-.44,3.74-1,7.48-1.43,11.22-.54,4.35-1.64,8.46-4.76,11.76-.17-5.16.92-10.2,1.52-15.29C78.9,370.08,79.31,363.06,80.86,356.2Z"/><path class="cls-17" d="M276.57,475.94c-1.58,4.78-2.73,9.71-4.92,14.28-.23.47-.53.91-.79,1.37l-.24-.21c-1.12-1.55-1.92-3.29-3-4.84a78.23,78.23,0,0,0,4.1-19.31c.18-2,.51-4,.78-6C274.47,466,276.67,470.63,276.57,475.94Z"/><path class="cls-18" d="M235.43,712.87a9.4,9.4,0,0,0,5,3.31h0a3.2,3.2,0,0,1,.71.88c7.39,5,15.08,9.64,22.27,15-4.72.19-8.7-1.87-12.49-4.28-5.18-3.29-10.13-6.94-15.35-10.16-2.53-1.56-3.74-3.42-3.39-6.33C233.93,710.46,234.72,711.59,235.43,712.87Z"/><path class="cls-19" d="M229,694.07c-.82,1.13-1.92.86-2.94.46-6.05-2.35-12.37-4-18.19-7a2.46,2.46,0,0,1-.05-.81c.29-.68.56-1.37,1.54-1A105.27,105.27,0,0,1,229,694.07Z"/><path class="cls-20" d="M244.62,449.86c-.76,2.87-2.27,5.42-3.39,8.14a1.85,1.85,0,0,1-2.59-1.09c0-2.41,1.51-4.24,2.64-6.14a11.43,11.43,0,0,0,1.78-6C244.46,446.21,242.87,448.54,244.62,449.86Z"/><path class="cls-21" d="M301,698.64a2.73,2.73,0,0,1-5.46-.09,2.7,2.7,0,0,1,2.52-2.71A2.87,2.87,0,0,1,301,698.64Z"/><path class="cls-22" d="M355.37,698.51a2.85,2.85,0,0,1,3.11-2.64,2.7,2.7,0,1,1-3.11,2.64Z"/><path class="cls-21" d="M510.3,698.63a2.72,2.72,0,1,1-3-2.78A2.83,2.83,0,0,1,510.3,698.63Z"/><path class="cls-22" d="M570.06,698.5a2.73,2.73,0,0,1-5.46.23,2.7,2.7,0,0,1,2.34-2.86A2.83,2.83,0,0,1,570.06,698.5Z"/><path class="cls-21" d="M298,427a2.85,2.85,0,0,1,3.05,2.7,2.69,2.69,0,0,1-2.53,2.69A2.71,2.71,0,0,1,298,427Z"/><path class="cls-21" d="M298.48,486.75a2.73,2.73,0,0,1-.4,5.44,2.76,2.76,0,0,1-2.48-3.1A2.79,2.79,0,0,1,298.48,486.75Z"/><path class="cls-23" d="M507.52,427a2.78,2.78,0,0,1,2.74,3,2.65,2.65,0,0,1-2.74,2.45,2.73,2.73,0,0,1-2.63-3A2.7,2.7,0,0,1,507.52,427Z"/><path class="cls-21" d="M507.45,492.21a2.72,2.72,0,0,1,.16-5.43,2.67,2.67,0,0,1,2.65,2.55A2.81,2.81,0,0,1,507.45,492.21Z"/><path class="cls-21" d="M567.48,427a2.72,2.72,0,1,1-.36,5.42,2.8,2.8,0,0,1-2.49-3.1A2.75,2.75,0,0,1,567.48,427Z"/><path class="cls-21" d="M570.07,489.34a2.81,2.81,0,0,1-2.38,2.81,2.77,2.77,0,0,1-3.1-2.48,2.87,2.87,0,0,1,2.74-2.91A2.91,2.91,0,0,1,570.07,489.34Z"/><path class="cls-24" d="M358.27,551.93a2.84,2.84,0,0,1-2.88-2.78A2.65,2.65,0,0,1,358,546.5a2.72,2.72,0,1,1,.32,5.43Z"/><path class="cls-21" d="M360.88,429.72a2.9,2.9,0,0,1-2.58,2.69,2.86,2.86,0,0,1-2.93-2.7,2.79,2.79,0,0,1,2.94-2.68A2.88,2.88,0,0,1,360.88,429.72Z"/><path class="cls-24" d="M570.06,549.19a2.69,2.69,0,0,1-2.41,2.69,2.75,2.75,0,0,1-3-2.55,2.63,2.63,0,0,1,2.38-2.81A2.82,2.82,0,0,1,570.06,549.19Z"/><path class="cls-25" d="M330.83,429.6a2.61,2.61,0,0,1-2.7,2.81,2.52,2.52,0,0,1-2.56-2.55,2.61,2.61,0,0,1,2.7-2.82A2.53,2.53,0,0,1,330.83,429.6Z"/><path class="cls-21" d="M447.54,486.76a2.85,2.85,0,0,1,2.9,2.8,2.65,2.65,0,0,1-2.58,2.61,2.74,2.74,0,0,1-2.84-2.76A2.82,2.82,0,0,1,447.54,486.76Z"/><path class="cls-26" d="M477.84,486.76a2.68,2.68,0,0,1,2.38,3.11,2.38,2.38,0,0,1-2.75,2.28,2.52,2.52,0,0,1-2.47-2.66A2.77,2.77,0,0,1,477.84,486.76Z"/><path class="cls-27" d="M597.09,492.2a2.52,2.52,0,0,1-2.46-2.49,2.62,2.62,0,1,1,5.22-.45A2.72,2.72,0,0,1,597.09,492.2Z"/><path class="cls-28" d="M567.18,641.55a2.75,2.75,0,0,1-2.56-3,2.57,2.57,0,0,1,2.81-2.34,2.66,2.66,0,0,1,2.63,2.6A2.84,2.84,0,0,1,567.18,641.55Z"/><path class="cls-29" d="M238.59,397.25a2.66,2.66,0,0,1,2.63,2.89,2.51,2.51,0,0,1-2.72,2.38,2.54,2.54,0,0,1-2.66-2.48A2.72,2.72,0,0,1,238.59,397.25Z"/><path class="cls-28" d="M360.84,639a2.8,2.8,0,0,1-3.08,2.52,2.67,2.67,0,0,1-2.37-2.82,2.75,2.75,0,0,1,3.05-2.52A2.88,2.88,0,0,1,360.84,639Z"/><path class="cls-27" d="M510.28,638.61a2.83,2.83,0,0,1-2.78,2.94,2.62,2.62,0,0,1-2.62-2.57,2.71,2.71,0,0,1,5.4-.37Z"/><path class="cls-29" d="M447.72,611.6A2.68,2.68,0,0,1,445,609a2.74,2.74,0,0,1,2.83-2.73,2.65,2.65,0,0,1,2.56,3A2.6,2.6,0,0,1,447.72,611.6Z"/><path class="cls-25" d="M450.44,430.07a2.65,2.65,0,0,1-2.64,2.35,2.76,2.76,0,0,1-2.76-2.86A2.66,2.66,0,0,1,447.7,427,2.82,2.82,0,0,1,450.44,430.07Z"/><path class="cls-26" d="M567.36,516.78a2.58,2.58,0,0,1,2.66,2.47,2.71,2.71,0,1,1-5.42-.13A2.53,2.53,0,0,1,567.36,516.78Z"/><path class="cls-30" d="M447.62,576.41a2.68,2.68,0,0,1,2.81,2.74,2.57,2.57,0,0,1-2.55,2.58A2.77,2.77,0,0,1,445,579,2.87,2.87,0,0,1,447.62,576.41Z"/><path class="cls-29" d="M450.45,400.12a2.57,2.57,0,0,1-2.62,2.4,2.63,2.63,0,0,1-2.78-2.75,2.6,2.6,0,0,1,2.62-2.52A2.72,2.72,0,0,1,450.45,400.12Z"/><path class="cls-31" d="M301,668.92a2.59,2.59,0,0,1-2.57,2.43,2.62,2.62,0,0,1-2.84-2.68,2.57,2.57,0,0,1,2.56-2.57A2.75,2.75,0,0,1,301,668.92Z"/><path class="cls-25" d="M537.74,432.42a2.73,2.73,0,0,1-2.91-2.75,2.56,2.56,0,0,1,2.5-2.64,2.61,2.61,0,0,1,2.78,2.74A2.55,2.55,0,0,1,537.74,432.42Z"/><path class="cls-32" d="M178.43,337.44a2.7,2.7,0,0,1,2.94,2.72,2.55,2.55,0,0,1-2.48,2.64,2.67,2.67,0,0,1-2.82-2.72A2.58,2.58,0,0,1,178.43,337.44Z"/><path class="cls-32" d="M208.69,337.43a2.54,2.54,0,0,1,2.56,2.42,2.66,2.66,0,0,1-2.56,3,2.57,2.57,0,0,1-2.69-2.43A2.68,2.68,0,0,1,208.69,337.43Z"/><path class="cls-28" d="M298.21,457a2.7,2.7,0,0,1,2.77,2.77,2.51,2.51,0,0,1-2.64,2.48,2.55,2.55,0,0,1-2.77-2.34A2.7,2.7,0,0,1,298.21,457Z"/><path class="cls-25" d="M507.92,516.8a2.43,2.43,0,0,1,2.35,2.49,2.62,2.62,0,0,1-2.8,2.71,2.7,2.7,0,0,1-2.6-2.92A2.75,2.75,0,0,1,507.92,516.8Z"/><path class="cls-25" d="M629.87,429.87a2.73,2.73,0,0,1-5.45-.22A2.67,2.67,0,0,1,627,427,2.82,2.82,0,0,1,629.87,429.87Z"/><path class="cls-33" d="M358,342.85a2.79,2.79,0,0,1-2.59-2.6,2.76,2.76,0,0,1,2.8-2.82,2.68,2.68,0,0,1,2.64,2.58A2.85,2.85,0,0,1,358,342.85Z"/><path class="cls-29" d="M629.86,399.73c-.14,1.54-.82,2.57-2.41,2.78a2.65,2.65,0,1,1-.25-5.26C628.81,397.31,629.53,398.34,629.86,399.73Z"/><path class="cls-32" d="M417.84,337.43a2.71,2.71,0,0,1,2.62,3.06,2.51,2.51,0,0,1-2.78,2.32,2.64,2.64,0,0,1-2.47-3.05A2.56,2.56,0,0,1,417.84,337.43Z"/><path class="cls-34" d="M328.15,546.49a2.56,2.56,0,0,1,2.64,2.52,2.48,2.48,0,0,1-2.3,2.85,2.64,2.64,0,0,1-2.9-2.69A2.58,2.58,0,0,1,328.15,546.49Z"/><path class="cls-25" d="M507.53,342.85a2.75,2.75,0,0,1-2.66-2.56,2.71,2.71,0,0,1,2.74-2.85,2.63,2.63,0,0,1,2.66,2.53A2.78,2.78,0,0,1,507.53,342.85Z"/><path class="cls-35" d="M86.24,631.72c1.42-.16,2.61.65,3.93.9,1,1.09.72,2.22.12,3.37a5.52,5.52,0,0,1-4.09,2.31A5.67,5.67,0,0,1,83.71,637C85.68,635.75,85.12,633.33,86.24,631.72Z"/><path class="cls-33" d="M567.38,342.84a2.71,2.71,0,0,1-.23-5.41,2.71,2.71,0,1,1,.23,5.41Z"/><path class="cls-25" d="M59,427a2.72,2.72,0,0,1,.31,5.43,2.7,2.7,0,0,1-2.82-2.73C56.55,428.09,57.51,427.31,59,427Z"/><path class="cls-32" d="M657,337.43a2.65,2.65,0,0,1,2.66,2.87,2.65,2.65,0,0,1-5.29,0A2.67,2.67,0,0,1,657,337.43Z"/><path class="cls-30" d="M148.8,367.35a2.67,2.67,0,1,1,0,5.34,2.57,2.57,0,0,1-2.68-2.46A2.69,2.69,0,0,1,148.8,367.35Z"/><path class="cls-30" d="M241.24,370a2.71,2.71,0,0,1-3,2.66,2.6,2.6,0,0,1-2.39-2.74,2.63,2.63,0,0,1,3-2.52A2.55,2.55,0,0,1,241.24,370Z"/><path class="cls-25" d="M599.86,698.83a2.52,2.52,0,0,1-2.52,2.41,2.58,2.58,0,0,1-2.72-2.79,2.49,2.49,0,0,1,2.49-2.61A2.74,2.74,0,0,1,599.86,698.83Z"/><path class="cls-36" d="M239.47,432.42c-3.43-.71-3.73-1.13-3.27-4.6.13-.05.26-.09.38-.15,1.59-.89,3.14-1,4.23.68S240.87,431.37,239.47,432.42Z"/><path class="cls-30" d="M447.6,367.35a2.69,2.69,0,0,1,2.83,2.72,2.58,2.58,0,0,1-2.53,2.61A2.77,2.77,0,0,1,445,370,2.88,2.88,0,0,1,447.6,367.35Z"/><path class="cls-25" d="M540.12,698.58a2.54,2.54,0,0,1-2.46,2.66,2.68,2.68,0,0,1-2.83-2.72,2.62,2.62,0,0,1,2.48-2.68A2.69,2.69,0,0,1,540.12,698.58Z"/><path class="cls-26" d="M477.76,701.25a2.72,2.72,0,0,1-2.75-2.81,2.62,2.62,0,1,1,2.75,2.81Z"/><path class="cls-25" d="M447.86,701.26a2.83,2.83,0,0,1-2.85-2.8,2.73,2.73,0,0,1,2.62-2.63,2.82,2.82,0,0,1,2.83,2.81A2.79,2.79,0,0,1,447.86,701.26Z"/><path class="cls-25" d="M387.84,695.82a2.76,2.76,0,0,1,2.81,2.88,2.53,2.53,0,0,1-2.58,2.54,2.72,2.72,0,0,1-.23-5.42Z"/><path class="cls-37" d="M420.5,549.05a2.58,2.58,0,0,1-2.36,2.81,2.69,2.69,0,1,1-.2-5.36A2.61,2.61,0,0,1,420.5,549.05Z"/><path class="cls-38" d="M629.85,370a2.71,2.71,0,1,1-2.64-2.67A2.88,2.88,0,0,1,629.85,370Z"/><path class="cls-25" d="M268.2,427a2.71,2.71,0,0,1,2.8,2.85,2.48,2.48,0,0,1-2.56,2.55,2.68,2.68,0,0,1-2.7-2.84A2.58,2.58,0,0,1,268.2,427Z"/><path class="cls-39" d="M268.54,701.26a2.7,2.7,0,0,1-2.79-2.89,2.57,2.57,0,0,1,2.62-2.53,2.62,2.62,0,0,1,2.62,2.9A2.5,2.5,0,0,1,268.54,701.26Z"/><path class="cls-32" d="M420.5,639a2.57,2.57,0,0,1-2.5,2.57,2.64,2.64,0,0,1-2.82-2.72,2.59,2.59,0,0,1,2.5-2.65A2.72,2.72,0,0,1,420.5,639Z"/><path class="cls-26" d="M567.35,462.23a2.64,2.64,0,0,1-2.75-2.78,2.56,2.56,0,0,1,2.65-2.48,2.68,2.68,0,0,1,2.77,2.78A2.61,2.61,0,0,1,567.35,462.23Z"/><path class="cls-28" d="M510.28,459.53a2.67,2.67,0,0,1-2.84,2.69,2.62,2.62,0,0,1-.13-5.23A2.65,2.65,0,0,1,510.28,459.53Z"/><path class="cls-26" d="M357.86,462.21a2.52,2.52,0,0,1-2.47-2.52,2.65,2.65,0,0,1,2.82-2.72,2.58,2.58,0,0,1,2.6,2.54A2.69,2.69,0,0,1,357.86,462.21Z"/><path class="cls-30" d="M448,307.65a2.48,2.48,0,0,1,2.44,2.56,2.61,2.61,0,0,1-2.94,2.64,2.48,2.48,0,0,1-2.41-2.76C445.16,308.57,446.17,307.65,448,307.65Z"/><path class="cls-40" d="M540.05,639.28a2.49,2.49,0,0,1-2.82,2.23,2.58,2.58,0,0,1-2.3-3.2,2.43,2.43,0,0,1,3-2A2.49,2.49,0,0,1,540.05,639.28Z"/><path class="cls-41" d="M510.28,310.49a2.57,2.57,0,0,1-2.67,2.38,2.68,2.68,0,0,1-2.73-2.9,2.54,2.54,0,0,1,2.88-2.31A2.63,2.63,0,0,1,510.28,310.49Z"/><path class="cls-42" d="M477.58,641.55a2.69,2.69,0,1,1,.35-5.37,2.7,2.7,0,0,1-.35,5.37Z"/><path class="cls-43" d="M629.85,310.18c-.21,1.4-.83,2.5-2.48,2.66a2.59,2.59,0,0,1-2.91-2.65,2.44,2.44,0,0,1,2.62-2.51C628.71,307.63,629.54,308.58,629.85,310.18Z"/><path class="cls-44" d="M450.46,638.69a2.8,2.8,0,0,1-2.84,2.85,2.66,2.66,0,0,1-2.58-2.61,2.79,2.79,0,0,1,2.83-2.77A2.7,2.7,0,0,1,450.46,638.69Z"/><path class="cls-45" d="M59.17,337.44a2.52,2.52,0,0,1,2.57,2.61,2.46,2.46,0,0,1-2.41,2.73,2.59,2.59,0,0,1-2.76-2.8A2.53,2.53,0,0,1,59.17,337.44Z"/><path class="cls-46" d="M91.81,340.2a2.73,2.73,0,0,1-5.45-.13,2.68,2.68,0,0,1,2.57-2.63A2.85,2.85,0,0,1,91.81,340.2Z"/><path class="cls-47" d="M119,342.82c-1.5-.17-2.55-.87-2.61-2.53a2.48,2.48,0,0,1,2.3-2.83,2.64,2.64,0,0,1,2.89,2.7C121.49,341.8,120.5,342.57,119,342.82Z"/><path class="cls-41" d="M151.52,340a2.82,2.82,0,0,1-2.79,2.82,2.63,2.63,0,0,1-2.61-2.57,2.78,2.78,0,0,1,2.77-2.83A2.85,2.85,0,0,1,151.52,340Z"/><path class="cls-41" d="M238.54,337.43a2.74,2.74,0,0,1,2.66,3,2.6,2.6,0,0,1-2.8,2.34,2.72,2.72,0,0,1-2.53-3A2.63,2.63,0,0,1,238.54,337.43Z"/><path class="cls-46" d="M298.47,337.44a2.78,2.78,0,0,1,2.49,3.08,2.72,2.72,0,0,1-5.4-.38A2.81,2.81,0,0,1,298.47,337.44Z"/><path class="cls-45" d="M330.8,340.1a2.46,2.46,0,0,1-2.5,2.65,2.41,2.41,0,0,1-2.7-2.42,2.61,2.61,0,1,1,5.2-.23Z"/><path class="cls-48" d="M390.64,340.13a2.49,2.49,0,0,1-2.53,2.63,2.37,2.37,0,0,1-2.66-2.44,2.54,2.54,0,0,1,2.67-2.86A2.66,2.66,0,0,1,390.64,340.13Z"/><path class="cls-41" d="M448,342.83a2.84,2.84,0,0,1-2.94-2.78,2.64,2.64,0,0,1,2.57-2.61,2.74,2.74,0,0,1,2.82,2.76A2.7,2.7,0,0,1,448,342.83Z"/><path class="cls-32" d="M480.25,340c-.06,1.76-1,2.73-2.53,2.75a2.5,2.5,0,0,1-2.69-2.5,2.59,2.59,0,0,1,2.75-2.83A2.49,2.49,0,0,1,480.25,340Z"/><path class="cls-45" d="M537.51,337.45a2.46,2.46,0,0,1,2.54,2.42,2.51,2.51,0,0,1-2.23,2.9,2.67,2.67,0,1,1-.31-5.32Z"/><path class="cls-48" d="M599.85,340.16a2.52,2.52,0,0,1-2.61,2.61,2.4,2.4,0,0,1-2.6-2.52,2.61,2.61,0,1,1,5.21-.09Z"/><path class="cls-37" d="M686.84,342.84c-1.5-.27-2.53-1-2.62-2.65a2.63,2.63,0,0,1,2.86-2.74,2.49,2.49,0,0,1,2.36,2.8C689.4,341.89,688.4,342.66,686.84,342.84Z"/><path class="cls-49" d="M178.69,372.7a2.54,2.54,0,0,1-2.58-2.64,2.47,2.47,0,0,1,2.5-2.67,2.55,2.55,0,0,1,2.73,2.82A2.58,2.58,0,0,1,178.69,372.7Z"/><path class="cls-49" d="M211.27,370.16a2.64,2.64,0,1,1-5.26-.41,2.42,2.42,0,0,1,2.79-2.33C210.38,367.5,211.19,368.52,211.27,370.16Z"/><path class="cls-46" d="M298.16,372.69a2.75,2.75,0,0,1-2.57-3,2.72,2.72,0,0,1,5.41.23A2.8,2.8,0,0,1,298.16,372.69Z"/><path class="cls-49" d="M417.62,372.69A2.59,2.59,0,0,1,415.2,370a2.55,2.55,0,0,1,2.95-2.59,2.44,2.44,0,0,1,2.28,2.84A2.52,2.52,0,0,1,417.62,372.69Z"/><path class="cls-40" d="M657.16,367.38a2.57,2.57,0,0,1,2.53,2.63,2.61,2.61,0,0,1-2.93,2.64,2.47,2.47,0,0,1-2.33-2.8C654.52,368.26,655.54,367.46,657.16,367.38Z"/><path class="cls-50" d="M388,641.56a2.55,2.55,0,0,1-2.55-2.66,2.49,2.49,0,0,1,2.44-2.71,2.63,2.63,0,0,1,2.74,2.84A2.59,2.59,0,0,1,388,641.56Z"/><path class="cls-51" d="M298.18,402.55a2.63,2.63,0,0,1-2.62-2.54,2.75,2.75,0,0,1,2.81-2.76,2.72,2.72,0,0,1,2.6,2.95A2.63,2.63,0,0,1,298.18,402.55Z"/><path class="cls-40" d="M330.79,638.66a2.56,2.56,0,0,1-2.32,2.85,2.6,2.6,0,0,1-2.89-2.67,2.61,2.61,0,0,1,5.21-.18Z"/><path class="cls-51" d="M358.16,402.55a2.59,2.59,0,0,1-2.74-2.3,2.69,2.69,0,0,1,2.52-3,2.77,2.77,0,0,1,2.88,2.7A2.66,2.66,0,0,1,358.16,402.55Z"/><path class="cls-51" d="M298.38,606.31a2.71,2.71,0,0,1,2.59,3,2.72,2.72,0,0,1-5.41-.2A2.75,2.75,0,0,1,298.38,606.31Z"/><path class="cls-51" d="M510.28,400a2.5,2.5,0,0,1-2.41,2.56,2.62,2.62,0,0,1-3-2.51,2.57,2.57,0,0,1,2.4-2.72A2.7,2.7,0,0,1,510.28,400Z"/><path class="cls-52" d="M297.94,641.54a2.72,2.72,0,0,1-2.38-2.64,2.75,2.75,0,0,1,2.87-2.73,2.69,2.69,0,0,1,2.57,2.65A2.84,2.84,0,0,1,297.94,641.54Z"/><path class="cls-51" d="M567.27,402.55a2.61,2.61,0,0,1-2.67-2.48,2.68,2.68,0,0,1,2.73-2.82,2.63,2.63,0,0,1,2.68,2.48A2.68,2.68,0,0,1,567.27,402.55Z"/><path class="cls-40" d="M271,638.7a2.54,2.54,0,0,1-2.33,2.82,2.6,2.6,0,0,1-2.88-2.69,2.52,2.52,0,0,1,2.55-2.63A2.56,2.56,0,0,1,271,638.7Z"/><path class="cls-51" d="M357.76,606.31c1.73,0,3.21,1.32,3.06,2.75a2.71,2.71,0,0,1-5.42-.2A2.57,2.57,0,0,1,357.76,606.31Z"/><path class="cls-44" d="M238.47,641.56a2.67,2.67,0,0,1-2.61-2.47,2.74,2.74,0,0,1,2.63-3,2.67,2.67,0,0,1,2.73,2.47A2.77,2.77,0,0,1,238.47,641.56Z"/><path class="cls-24" d="M388,427a2.69,2.69,0,0,1,2.62,2.92,2.5,2.5,0,0,1-2.62,2.47,2.7,2.7,0,0,1,0-5.39Z"/><path class="cls-23" d="M417.8,427a2.76,2.76,0,0,1,2.67,3,2.5,2.5,0,0,1-2.73,2.38,2.71,2.71,0,0,1,.06-5.41Z"/><path class="cls-24" d="M599.86,429.9a2.51,2.51,0,0,1-2.46,2.5,2.57,2.57,0,0,1-2.79-2.7,2.53,2.53,0,0,1,2.44-2.67A2.71,2.71,0,0,1,599.86,429.9Z"/><path class="cls-23" d="M659.73,429.73a2.73,2.73,0,0,1-2.9,2.67,2.57,2.57,0,0,1-2.44-2.7,2.5,2.5,0,0,1,2.46-2.66A2.72,2.72,0,0,1,659.73,429.73Z"/><path class="cls-45" d="M265.89,550.58l0-3.11a10.53,10.53,0,0,1,1.83-.87,2.39,2.39,0,0,1,2.82,1.14,2.67,2.67,0,0,1-.08,3.1,2.42,2.42,0,0,1-3.28.7A12,12,0,0,1,265.89,550.58Z"/><path class="cls-53" d="M268.4,337.45a2.68,2.68,0,0,1,.31,5.32,2.67,2.67,0,1,1-.31-5.32Z"/><path class="cls-46" d="M298.47,551.89a2.78,2.78,0,0,1-2.9-2.71,2.65,2.65,0,0,1,2.52-2.67A2.78,2.78,0,0,1,301,549.2,2.72,2.72,0,0,1,298.47,551.89Z"/><path class="cls-46" d="M447.89,551.9a2.85,2.85,0,0,1-2.84-2.79,2.65,2.65,0,0,1,2.57-2.62,2.81,2.81,0,0,1,2.84,2.78A2.76,2.76,0,0,1,447.89,551.9Z"/><path class="cls-46" d="M298.16,581.75a2.76,2.76,0,0,1-2.57-3A2.72,2.72,0,0,1,301,579,2.81,2.81,0,0,1,298.16,581.75Z"/><path class="cls-51" d="M570,608.94a2.73,2.73,0,0,1-5.44.15,2.58,2.58,0,0,1,2.37-2.76A2.79,2.79,0,0,1,570,608.94Z"/><path class="cls-49" d="M418,576.44a2.5,2.5,0,0,1,2.45,2.71,2.44,2.44,0,0,1-2.57,2.58,2.65,2.65,0,1,1,.12-5.29Z"/><path class="cls-51" d="M510.28,609.06a2.53,2.53,0,0,1-2.48,2.52,2.63,2.63,0,0,1-2.92-2.6,2.58,2.58,0,0,1,2.48-2.66A2.71,2.71,0,0,1,510.28,609.06Z"/><path class="cls-54" d="M241.23,668.56a2.53,2.53,0,0,1-2.41,2.75,2.5,2.5,0,0,1-2.93-2.2,2.68,2.68,0,1,1,5.34-.55Z"/><path class="cls-54" d="M447.62,671.35a2.62,2.62,0,0,1,.06-5.23,2.67,2.67,0,0,1,2.75,2.85A2.7,2.7,0,0,1,447.62,671.35Z"/><path class="cls-44" d="M507.71,671.37a2.65,2.65,0,0,1-2.83-2.36,2.7,2.7,0,0,1,2.62-2.92,2.67,2.67,0,0,1,2.77,2.77A2.57,2.57,0,0,1,507.71,671.37Z"/><path class="cls-55" d="M477.62,551.9c-1.54-.3-2.55-1.07-2.61-2.71a2.64,2.64,0,0,1,2.92-2.68,2.51,2.51,0,0,1,2.3,2.87C480.16,551,479.15,551.76,477.62,551.9Z"/><path class="cls-24" d="M510.28,549.5a2.64,2.64,0,0,1-2.66,2.4,2.74,2.74,0,0,1-2.73-2.88,2.63,2.63,0,0,1,2.66-2.53A2.81,2.81,0,0,1,510.28,549.5Z"/><path class="cls-45" d="M537.29,546.5a2.54,2.54,0,0,1,2.76,2.4,2.45,2.45,0,0,1-2.17,2.93,2.61,2.61,0,0,1-3-2.56A2.57,2.57,0,0,1,537.29,546.5Z"/><path class="cls-25" d="M330.82,698.42a2.54,2.54,0,0,1-2.3,2.81,2.66,2.66,0,0,1-3-2.56,2.61,2.61,0,0,1,2.3-2.83A2.73,2.73,0,0,1,330.82,698.42Z"/><path class="cls-21" d="M420.52,698.49a2.64,2.64,0,0,1-2.47,2.76,2.7,2.7,0,0,1-2.87-2.7,2.62,2.62,0,0,1,2.47-2.7A2.71,2.71,0,0,1,420.52,698.49Z"/><path class="cls-47" d="M599.85,549.1c-.06,1.71-1,2.69-2.51,2.73a2.41,2.41,0,0,1-2.69-2.44,2.61,2.61,0,1,1,5.2-.29Z"/><path class="cls-56" d="M450.43,519.48a2.49,2.49,0,0,1-2.49,2.48,2.6,2.6,0,0,1-2.86-2.7,2.47,2.47,0,0,1,2.69-2.45A2.58,2.58,0,0,1,450.43,519.48Z"/><path class="cls-25" d="M540.12,489.58a2.56,2.56,0,0,1-2.54,2.59,2.63,2.63,0,0,1-2.74-2.78,2.58,2.58,0,0,1,2.53-2.6A2.67,2.67,0,0,1,540.12,489.58Z"/><path class="cls-25" d="M330.83,489.52a2.55,2.55,0,0,1-2.47,2.65,2.63,2.63,0,0,1-2.8-2.72,2.56,2.56,0,0,1,2.46-2.67A2.73,2.73,0,0,1,330.83,489.52Z"/><path class="cls-41" d="M629.85,340a2.82,2.82,0,0,1-2.89,2.82,2.62,2.62,0,0,1-2.53-2.65,2.71,2.71,0,0,1,5.42-.17Z"/><path class="cls-30" d="M151.54,310.32c-.33,1.5-1.09,2.51-2.73,2.55a2.64,2.64,0,0,1-2.68-2.91,2.51,2.51,0,0,1,2.87-2.29C150.63,307.77,151.35,308.81,151.54,310.32Z"/><path class="cls-30" d="M241.26,310.14a2.61,2.61,0,0,1-2.48,2.71,2.64,2.64,0,0,1-2.93-2.67,2.5,2.5,0,0,1,2.67-2.52A2.57,2.57,0,0,1,241.26,310.14Z"/><path class="cls-57" d="M450.43,459.62a2.45,2.45,0,0,1-2.42,2.55,2.51,2.51,0,0,1-2.92-2.22,2.68,2.68,0,1,1,5.34-.33Z"/><path class="cls-50" d="M599.79,639.49a2.51,2.51,0,0,1-2.83,2,2.57,2.57,0,0,1-2.26-3.22,2.44,2.44,0,0,1,3-2A2.71,2.71,0,0,1,599.79,639.49Z"/><path class="cls-24" d="M480.23,430.17a2.41,2.41,0,0,1-2.84,2.21,2.5,2.5,0,0,1-2.37-2.82,2.64,2.64,0,0,1,3.1-2.48A2.58,2.58,0,0,1,480.23,430.17Z"/><path class="cls-58" d="M477.72,581.75a2.65,2.65,0,1,1,0-5.29,2.37,2.37,0,0,1,2.44,2.64A2.5,2.5,0,0,1,477.72,581.75Z"/><path class="cls-58" d="M596.87,372.66a2.47,2.47,0,0,1-2.22-2.75,2.38,2.38,0,0,1,2.58-2.51,2.55,2.55,0,0,1,2.59,2.94A2.68,2.68,0,0,1,596.87,372.66Z"/><path class="cls-38" d="M567.19,367.36a2.66,2.66,0,0,1,2.8,2.34,2.7,2.7,0,1,1-5.39.24A2.67,2.67,0,0,1,567.19,367.36Z"/><path class="cls-58" d="M121.51,370.43a2.47,2.47,0,0,1-2.64,2.23,2.51,2.51,0,0,1-2.5-3,2.34,2.34,0,0,1,2.78-2.26A2.64,2.64,0,0,1,121.51,370.43Z"/><path class="cls-55" d="M510.28,369.91a2.75,2.75,0,0,1-2.8,2.77,2.53,2.53,0,0,1-2.57-2.55,2.48,2.48,0,0,1,2.36-2.74A2.73,2.73,0,0,1,510.28,369.91Z"/><path class="cls-55" d="M510.28,579.23a2.75,2.75,0,0,1-3.2,2.46,2.57,2.57,0,0,1-2.16-2.91,2.69,2.69,0,0,1,5.36.45Z"/><path class="cls-58" d="M477.78,367.39a2.39,2.39,0,0,1,2.44,2.54,2.44,2.44,0,0,1-2.38,2.73,2.62,2.62,0,0,1-2.82-2.73A2.7,2.7,0,0,1,477.78,367.39Z"/><path class="cls-47" d="M657.29,402.48c-1.72,0-2.76-.78-2.86-2.36a2.45,2.45,0,0,1,2.28-2.83,2.55,2.55,0,0,1,3,2.57A2.45,2.45,0,0,1,657.29,402.48Z"/><path class="cls-58" d="M390.64,370.15a2.6,2.6,0,1,1-5.19-.35,2.35,2.35,0,0,1,2.69-2.38A2.48,2.48,0,0,1,390.64,370.15Z"/><path class="cls-38" d="M358,372.68a2.72,2.72,0,0,1-2.54-3,2.72,2.72,0,0,1,5.4.28A2.77,2.77,0,0,1,358,372.68Z"/><path class="cls-38" d="M570,579.41a2.78,2.78,0,0,1-3.24,2.27,2.6,2.6,0,0,1-2.14-2.94,2.68,2.68,0,0,1,3.2-2.25A2.76,2.76,0,0,1,570,579.41Z"/><path class="cls-58" d="M597.34,581.74a2.48,2.48,0,0,1-2.67-2.44,2.42,2.42,0,0,1,2.23-2.85,2.65,2.65,0,1,1,.44,5.29Z"/><path class="cls-44" d="M570,668.83a2.63,2.63,0,0,1-2.5,2.51,2.58,2.58,0,0,1-2.93-2.56,2.55,2.55,0,0,1,2.46-2.66A2.73,2.73,0,0,1,570,668.83Z"/><path class="cls-44" d="M357.67,666.12a2.77,2.77,0,0,1,3.14,2.63,2.57,2.57,0,0,1-2.53,2.6,2.61,2.61,0,0,1-2.88-2.62A2.56,2.56,0,0,1,357.67,666.12Z"/><path class="cls-59" d="M657,307.66a2.48,2.48,0,0,1,2.68,2.38,2.6,2.6,0,0,1-2.73,2.82,2.42,2.42,0,0,1-2.51-2.6C654.41,308.68,655.31,307.78,657,307.66Z"/><path class="cls-41" d="M567.22,307.64a2.6,2.6,0,0,1,2.8,2.42,2.75,2.75,0,0,1-2.74,2.82A2.67,2.67,0,0,1,564.6,310,2.52,2.52,0,0,1,567.22,307.64Z"/><path class="cls-60" d="M417.53,666.12a2.51,2.51,0,0,1,2.89,2.34,2.35,2.35,0,0,1-2.2,2.84,2.52,2.52,0,0,1-3-2.48A2.47,2.47,0,0,1,417.53,666.12Z"/><path class="cls-59" d="M420.48,310.17a2.64,2.64,0,1,1-5.27,0,2.39,2.39,0,0,1,2.57-2.53A2.45,2.45,0,0,1,420.48,310.17Z"/><path class="cls-26" d="M301,519.45a2.58,2.58,0,0,1-2.42,2.53,2.61,2.61,0,0,1-3-2.48,2.48,2.48,0,0,1,2.39-2.69A2.67,2.67,0,0,1,301,519.45Z"/><path class="cls-24" d="M687.05,427a2.66,2.66,0,0,1,2.38,3.11,2.39,2.39,0,0,1-2.76,2.26,2.5,2.5,0,0,1-2.46-2.65A2.76,2.76,0,0,1,687.05,427Z"/><path class="cls-41" d="M360.83,310.13a2.78,2.78,0,0,1-3,2.73,2.61,2.61,0,1,1,.44-5.2A2.59,2.59,0,0,1,360.83,310.13Z"/><path class="cls-31" d="M298.19,307.64a2.56,2.56,0,0,1,2.79,2.41,2.68,2.68,0,0,1-2.82,2.81,2.5,2.5,0,0,1-2.56-2.64C295.58,308.63,296.59,307.77,298.19,307.64Z"/><path class="cls-59" d="M208.46,312.86a2.59,2.59,0,1,1,.42-5.17,2.33,2.33,0,0,1,2.34,2.71A2.46,2.46,0,0,1,208.46,312.86Z"/><path class="cls-59" d="M181.37,310.41a2.64,2.64,0,1,1-5.26-.51,2.4,2.4,0,0,1,2.86-2.2A2.43,2.43,0,0,1,181.37,310.41Z"/><path class="cls-61" d="M420.17,488.27a9.87,9.87,0,0,0-.06,1.22c0,1.18-.26,2.19-1.5,2.59a2.5,2.5,0,0,1-2.83-1.13,2.27,2.27,0,0,1,0-3c.32-.43.67-.85,1-1.28C418.17,486.71,419.47,486.87,420.17,488.27Z"/><path class="cls-31" d="M88.76,312.87a2.62,2.62,0,0,1-2.39-2.71,2.59,2.59,0,0,1,3.08-2.48,2.4,2.4,0,0,1,2.29,2.84A2.61,2.61,0,0,1,88.76,312.87Z"/><path class="cls-47" d="M415.19,399.9a2.49,2.49,0,0,1,2.39-2.61,2.54,2.54,0,0,1,2.88,2.65,2.41,2.41,0,0,1-2.56,2.55A2.58,2.58,0,0,1,415.19,399.9Z"/><path class="cls-38" d="M358,581.74a2.72,2.72,0,0,1-2.55-3,2.72,2.72,0,0,1,5.4.26A2.77,2.77,0,0,1,358,581.74Z"/><path class="cls-47" d="M208.53,402.5A2.47,2.47,0,0,1,206,400a2.56,2.56,0,0,1,2.83-2.71,2.43,2.43,0,0,1,2.4,2.72C211.21,401.62,210.21,402.41,208.53,402.5Z"/><path class="cls-58" d="M390.64,579a2.54,2.54,0,0,1-2.37,2.74,2.5,2.5,0,0,1-2.83-2.68,2.35,2.35,0,0,1,2.53-2.55A2.46,2.46,0,0,1,390.64,579Z"/><path class="cls-47" d="M420.47,609a2.64,2.64,0,0,1-5.26.07,2.63,2.63,0,1,1,5.26-.07Z"/><path class="cls-62" d="M240.39,700.54c-3.25.9-3.25.9-4.89-2.39l0,0a3.2,3.2,0,0,0,.68-.87c1-1.4,2.26-2,3.78-.9S241.65,699,240.39,700.54Z"/><path class="cls-63" d="M686.88,367.39a2.37,2.37,0,0,1,2.53,2.39,2.43,2.43,0,0,1-2.2,2.87,2.61,2.61,0,0,1-3-2.56A2.68,2.68,0,0,1,686.88,367.39Z"/><path class="cls-64" d="M271,579.24a2.42,2.42,0,0,1-2.53,2.47,2.51,2.51,0,0,1-2.64-2.86,2.4,2.4,0,0,1,2.73-2.36C270.09,576.56,270.93,577.54,271,579.24Z"/><path class="cls-65" d="M330.79,579.35a2.46,2.46,0,0,1-2.61,2.36,2.51,2.51,0,0,1-2.55-2.94,2.35,2.35,0,0,1,2.77-2.27C329.94,576.62,330.79,577.6,330.79,579.35Z"/><path class="cls-65" d="M537.52,581.74a2.64,2.64,0,1,1,.08-5.27,2.41,2.41,0,0,1,2.45,2.64A2.51,2.51,0,0,1,537.52,581.74Z"/><path class="cls-47" d="M390.62,609.29a2.39,2.39,0,0,1-2.68,2.22,2.32,2.32,0,0,1-2.49-2.55,2.52,2.52,0,0,1,2.85-2.63A2.66,2.66,0,0,1,390.62,609.29Z"/><path class="cls-45" d="M477.46,606.32a2.45,2.45,0,0,1,2.74,2.37,2.37,2.37,0,0,1-2.2,2.83,2.61,2.61,0,1,1-.54-5.2Z"/><path class="cls-47" d="M597.05,402.49a2.61,2.61,0,0,1,.17-5.21,2.55,2.55,0,0,1,2.6,2.9A2.51,2.51,0,0,1,597.05,402.49Z"/><path class="cls-65" d="M59.23,367.39A2.47,2.47,0,0,1,61.74,370a2.43,2.43,0,0,1-2.46,2.64,2.63,2.63,0,1,1-.05-5.26Z"/><path class="cls-64" d="M271,370a2.47,2.47,0,0,1-2.43,2.63,2.55,2.55,0,0,1-2.77-2.76,2.6,2.6,0,0,1,5.2.13Z"/><path class="cls-65" d="M328.24,367.39c1.6.24,2.53,1,2.54,2.66a2.54,2.54,0,0,1-2.9,2.59,2.64,2.64,0,0,1,.36-5.25Z"/><path class="cls-65" d="M537.6,367.39a2.49,2.49,0,0,1,2.45,2.7,2.41,2.41,0,0,1-2.54,2.56,2.53,2.53,0,0,1-2.62-2.88C535.06,368.14,536.12,367.5,537.6,367.39Z"/><path class="cls-47" d="M388.15,402.48a2.38,2.38,0,0,1-2.69-2.35,2.42,2.42,0,0,1,2.21-2.84,2.54,2.54,0,0,1,2.94,2.55A2.46,2.46,0,0,1,388.15,402.48Z"/><path class="cls-66" d="M58.21,636.59c1.35.24,3.2-.35,3.34,1.95s-1.21,3.09-3.29,3.05C55.92,639,55.92,638.65,58.21,636.59Z"/><path class="cls-45" d="M477.84,402.49c-1.51,0-2.58-.67-2.79-2.29a2.53,2.53,0,0,1,2.57-2.92,2.61,2.61,0,0,1,.22,5.21Z"/><path class="cls-53" d="M689.44,400a2.34,2.34,0,0,1-2.62,2.42,2.38,2.38,0,0,1-2.57-2.5,2.54,2.54,0,0,1,2.83-2.68A2.5,2.5,0,0,1,689.44,400Z"/><path class="cls-67" d="M271.06,458.72c-.24,1.89-.73,3.6-3.19,3.24a2.18,2.18,0,0,1-2-2.62c.28-2.52,2.24-2.3,4-2.29Z"/><path class="cls-47" d="M597.35,611.54c-1.54,0-2.58-.73-2.69-2.35a2.42,2.42,0,0,1,2.22-2.84,2.53,2.53,0,0,1,2.94,2.54A2.46,2.46,0,0,1,597.35,611.54Z"/><path class="cls-65" d="M56.55,579.17a2.45,2.45,0,0,1,2.52-2.67,2.35,2.35,0,0,1,2.66,2.39,2.6,2.6,0,1,1-5.18.28Z"/><path class="cls-68" d="M328.33,666.12a2.6,2.6,0,1,1-.47,5.18,2.38,2.38,0,0,1-2.23-2.8A2.43,2.43,0,0,1,328.33,666.12Z"/><path class="cls-69" d="M390.62,668.86a2.59,2.59,0,0,1-5.16.11,2.49,2.49,0,0,1,2.61-2.84A2.55,2.55,0,0,1,390.62,668.86Z"/><path class="cls-69" d="M477.8,666.12a2.41,2.41,0,0,1,2.4,2.68,2.34,2.34,0,0,1-2.53,2.51,2.48,2.48,0,0,1-2.61-2.85A2.52,2.52,0,0,1,477.8,666.12Z"/><path class="cls-70" d="M537.56,462.18a2.43,2.43,0,0,1-2.67-2.38,2.47,2.47,0,0,1,2.68-2.78,2.58,2.58,0,0,1,0,5.16Z"/><path class="cls-71" d="M61.73,310.39a2.39,2.39,0,0,1-2.43,2.45,2.5,2.5,0,0,1-2.73-2.73,2.37,2.37,0,0,1,2.63-2.41A2.45,2.45,0,0,1,61.73,310.39Z"/><path class="cls-72" d="M477.6,457a2.6,2.6,0,0,1,.3,5.18,2.52,2.52,0,0,1-2.85-2.62A2.47,2.47,0,0,1,477.6,457Z"/><path class="cls-73" d="M540.06,668.66a2.59,2.59,0,0,1-5.17.34,2.52,2.52,0,0,1,2.6-2.86A2.44,2.44,0,0,1,540.06,668.66Z"/><path class="cls-74" d="M417.89,457a2.6,2.6,0,0,1,.29,5.17,2.53,2.53,0,0,1-3-2.51A2.58,2.58,0,0,1,417.89,457Z"/><path class="cls-69" d="M597,671.31a2.37,2.37,0,0,1-2.27-2.69,2.34,2.34,0,0,1,2.55-2.48,2.54,2.54,0,0,1,2.6,2.89A2.6,2.6,0,0,1,597,671.31Z"/><path class="cls-75" d="M390.68,460.32c-2.12,1.95-3.26,2.21-4.41,1s-.83-2.35,1.11-4.41C389.67,456.89,390.74,458.05,390.68,460.32Z"/><path class="cls-76" d="M599.83,519.19c0,1.55-.69,2.59-2.29,2.75a2.35,2.35,0,0,1-2.85-2.15,2.59,2.59,0,1,1,5.14-.6Z"/><path class="cls-77" d="M540.08,400.11a2.42,2.42,0,0,1-2.72,2.33,2.36,2.36,0,0,1-2.47-2.58,2.6,2.6,0,1,1,5.19.25Z"/><path class="cls-77" d="M328.33,397.27a2.61,2.61,0,1,1-.47,5.19,2.39,2.39,0,0,1-2.23-2.81A2.45,2.45,0,0,1,328.33,397.27Z"/><path class="cls-78" d="M537.53,522a2.57,2.57,0,1,1,.05-5.13A2.31,2.31,0,0,1,540,519.4,2.4,2.4,0,0,1,537.53,522Z"/><path class="cls-77" d="M268.49,397.27a2.61,2.61,0,1,1-.46,5.19,2.4,2.4,0,0,1-2.24-2.81A2.46,2.46,0,0,1,268.49,397.27Z"/><path class="cls-76" d="M480.22,519.42c-.15,1.63-1,2.52-2.58,2.53a2.49,2.49,0,0,1-2.59-2.86,2.4,2.4,0,0,1,2.78-2.25A2.34,2.34,0,0,1,480.22,519.42Z"/><path class="cls-70" d="M330.77,519.66a2.37,2.37,0,0,1-2.56,2.29,2.46,2.46,0,0,1-2.59-2.84,2.38,2.38,0,0,1,2.76-2.27A2.44,2.44,0,0,1,330.77,519.66Z"/><path class="cls-68" d="M268.56,671.33a2.49,2.49,0,0,1-2.78-2.3,2.52,2.52,0,0,1,2.59-2.89,2.6,2.6,0,0,1,.19,5.19Z"/><path class="cls-77" d="M61.74,399.82a2.59,2.59,0,0,1-5.17.3,2.52,2.52,0,0,1,2.65-2.83A2.43,2.43,0,0,1,61.74,399.82Z"/><path class="cls-79" d="M689.43,310.31a2.41,2.41,0,0,1-2.52,2.53,2.52,2.52,0,0,1-2.66-2.82,2.6,2.6,0,0,1,5.18.29Z"/><path class="cls-79" d="M599.83,310.17a2.58,2.58,0,1,1-5.16,0,2.31,2.31,0,0,1,2.55-2.46A2.41,2.41,0,0,1,599.83,310.17Z"/><path class="cls-70" d="M328.16,462.18a2.39,2.39,0,0,1-2.53-2.54,2.35,2.35,0,0,1,2.42-2.62,2.47,2.47,0,0,1,2.72,2.73A2.42,2.42,0,0,1,328.16,462.18Z"/><path class="cls-71" d="M537.73,307.69a2.58,2.58,0,0,1-.2,5.14,2.58,2.58,0,1,1,.2-5.14Z"/><path class="cls-79" d="M477.81,307.69a2.32,2.32,0,0,1,2.39,2.53,2.37,2.37,0,0,1-2.43,2.62,2.58,2.58,0,1,1,0-5.15Z"/><path class="cls-79" d="M390.63,310.24a2.59,2.59,0,1,1-5.17-.13,2.32,2.32,0,0,1,2.61-2.41A2.42,2.42,0,0,1,390.63,310.24Z"/><path class="cls-71" d="M328.2,312.86a2.58,2.58,0,1,1,.23-5.16,2.34,2.34,0,0,1,2.33,2.68A2.41,2.41,0,0,1,328.2,312.86Z"/><path class="cls-71" d="M268.35,307.68c1.59.11,2.55.89,2.58,2.5a2.36,2.36,0,0,1-2.38,2.66,2.5,2.5,0,0,1-2.77-2.7A2.4,2.4,0,0,1,268.35,307.68Z"/><path class="cls-79" d="M121.51,310.58a2.39,2.39,0,0,1-2.59,2.26,2.48,2.48,0,0,1-2.56-2.88,2.37,2.37,0,0,1,2.77-2.26A2.51,2.51,0,0,1,121.51,310.58Z"/><path class="cls-77" d="M540.06,609.09a2.33,2.33,0,0,1-2.44,2.41,2.4,2.4,0,0,1-2.74-2.32,2.6,2.6,0,1,1,5.18-.09Z"/><path class="cls-77" d="M328.22,606.32a2.6,2.6,0,1,1-.26,5.2,2.36,2.36,0,0,1-2.33-2.71A2.45,2.45,0,0,1,328.22,606.32Z"/><path class="cls-77" d="M271,608.88a2.36,2.36,0,0,1-2.44,2.63,2.39,2.39,0,0,1-2.73-2.33,2.52,2.52,0,0,1,2.64-2.84A2.46,2.46,0,0,1,271,608.88Z"/><path class="cls-77" d="M61.75,609a2.39,2.39,0,0,1-2.59,2.49,2.35,2.35,0,0,1-2.59-2.45,2.53,2.53,0,0,1,2.78-2.71A2.48,2.48,0,0,1,61.75,609Z"/><path class="cls-72" d="M597,462.18a2.32,2.32,0,0,1-2.36-2.46A2.38,2.38,0,0,1,597,457a2.59,2.59,0,1,1,0,5.17Z"/><path class="cls-11" d="M43.6,530a2.81,2.81,0,0,1,1.61,2.54A2.42,2.42,0,0,1,43.6,530Z"/><path class="cls-7" d="M209.33,685.7l-1.54,1a1.66,1.66,0,0,1,.6-1.7Z"/><path class="cls-7" d="M236.21,697.26c0,.48-.18.8-.68.87A.87.87,0,0,1,236.21,697.26Z"/><path class="cls-7" d="M241.14,717.07a.85.85,0,0,1-.71-.88Z"/><path class="cls-10" d="M574.4,914.57c0,1.51-.08,3-.07,4.51a287.22,287.22,0,0,1-2.3,33.79,380.74,380.74,0,0,1-10,51.67,521.39,521.39,0,0,1-24.72,73.15,9.5,9.5,0,0,1-3.73-1.5c-7.38-3.93-14.74-7.9-22.11-11.84-1-.53-1.89-1.07-2-2.32-1.49-2.49,1-4.7.52-7.12a7.07,7.07,0,0,1,.25-1.77c2-6.64.55-11.65-4.42-15.51-4.28-3.33-9.92-3.3-15.49.09a7.56,7.56,0,0,1-.78.82,9.71,9.71,0,0,1-.81.76,14.43,14.43,0,0,0-3.82,5.16c-.55,1.19-.89,2.61-2.49,2.93a2.62,2.62,0,0,1-2.7-.13c-3.15-1.61-6.36-3.13-9.48-4.79-7-3.69-13.9-7.45-20.83-11.2-1.91-1-3.76-2.19-5.66-3.23a3,3,0,0,1-1.62-2.21c-1.59-2.72.43-5,.85-7.53,12.82-38.11,22.75-77,32.12-116.09,1.12-4.65,2.14-9.32,3.6-13.88a6.38,6.38,0,0,1,2-4.78c1-1.39,1-3.09,1.47-4.65,1.91-6.87,7.95-9.8,14.25-6.48,13.27,7,26.41,14.18,39.63,21.25,10.22,5.47,20.46,10.87,30.7,16.3A47.74,47.74,0,0,1,574.4,914.57Z"/><path class="cls-13" d="M659.83,809.63a22.35,22.35,0,0,1,21.81,19c.37,2.59,0,3.06-2.72,3.18-.55,0-1.09,0-1.64,0-3.12,0-3.12,0-4-3.13-1.86-6.18-6.69-10.35-12.47-10.78-6.57-.49-12.34,3.67-14.5,10.26-.39,1.19,0,3.06-1.64,3.45a13.57,13.57,0,0,1-6.08,0c-1.18-.29-1-1.52-.88-2.44.83-5.26,2.91-10,6.92-13.56C648.86,811.75,653.88,809.37,659.83,809.63Z"/><path class="cls-15" d="M591.71,231.6c-1.71,0-2.6,1.33-3.69,2.32-5.58,5.07-12.29,5.35-17.51,0a10.27,10.27,0,0,0-14.56-.15c-5.52,5.51-12,5.27-17.8,0-4.49-4.08-8.33-4.33-13.17-.84-.22.15-.39.38-.61.55-.7.53-1.46.85-2.16.08a1.55,1.55,0,0,1,.1-2.22,11.48,11.48,0,0,1,7.49-3.79,12,12,0,0,1,9.45,3c.51.45,1,1,1.47,1.43,4.12,3.64,8.76,3.63,12.86,0,6.74-6,12.31-6,19.1,0,4.15,3.67,8.73,3.68,12.83,0,.71-.63,1.34-1.35,2-2,3.68-2.08,7.46-3.33,11.71-1.72a12.23,12.23,0,0,1,4.78,3.06c4.21,4.51,9.74,4.54,14,.21s9.57-5.13,14.65-2.7a9,9,0,0,1,3.5,2.77,1.33,1.33,0,0,1,0,1.85,1.36,1.36,0,0,1-1.85.19c-.46-.28-.86-.67-1.33-1-4.86-3-8.34-2.75-12.6,1.05-2.63,2.34-5.45,3.92-9.17,3.89a11.69,11.69,0,0,1-8.77-3.66C599.39,230.86,595.88,229.56,591.71,231.6Z"/><path class="cls-80" d="M559.75,215.19a12.72,12.72,0,0,0-4,2.83c-5.46,4.93-11.9,4.94-17.29.08-5.14-4.65-8-4.88-13.72-1-.84.57-1.67,1.27-2.51.43-1-1-.2-2,.58-2.78,3.66-3.85,10.36-4.41,15.06-1.18,1.11.77,2.06,1.78,3.1,2.66a8.9,8.9,0,0,0,12.27,0c1-.88,2-1.81,3-2.72,2.73-1.25,5.43-2.3,8.62-1.75a10.88,10.88,0,0,1,6.47,3.15c4.68,5,10.63,4.71,15.41-.05S598,210.2,603,214.51c.52.44,1,.92,1.53,1.35,4.78,3.81,9.11,3.77,13.51-.44a12.86,12.86,0,0,1,7.46-3.89,11.29,11.29,0,0,1,10,3.5c.55.58,1.22,1.25.55,2.11a1.56,1.56,0,0,1-2.2.23l-.34-.22c-6.69-3.9-8.51-3.72-14.36,1.43a11.68,11.68,0,0,1-15,.84,26.2,26.2,0,0,1-2.49-2.11c-4.26-3.83-8.83-3.86-13.15,0a16.83,16.83,0,0,1-4.18,3.23c-5.42,2.4-10.12,1.17-14.23-2.82C567.12,214.83,563.82,213.52,559.75,215.19Z"/><path class="cls-80" d="M527,198.83c-.84.66-1.69,1.3-2.51,2s-1.47.84-2.15.22c-.87-.79-.55-1.72.16-2.45a17.82,17.82,0,0,1,1.85-1.5c6.3-3.5,10.92-3.22,15.92,1.86,4.36,4.42,10.25,4,14.08-.17a12.18,12.18,0,0,1,17-.68,10.82,10.82,0,0,1,1.25,1.07c3.23,3.8,9.12,4.35,13.41-.11,5.36-5.57,12.78-5.54,18.52,0,4.51,4.32,9,4.23,13.7-.14a14.89,14.89,0,0,1,6.26-3.69c4.11-1.13,7.52.35,10.68,2.71.84.62,1.81,1.6,1,2.76s-1.86.48-2.83-.16c-5.61-3.73-8.48-3.51-13.39.94-5.47,5-11.77,5-17.64-.07-1.78-1.53-3.43-3.11-5.93-3.33a9.17,9.17,0,0,0-7.8,2.77c-5.7,5.83-12.61,5.64-18.54.36-4.78-4.26-9.18-4.2-13.73-.07-6.06,5.49-12.07,5.67-18.18,0a11.9,11.9,0,0,0-9.33-3.17A2.35,2.35,0,0,0,527,198.83Z"/><path class="cls-81" d="M480.67,883.55c.27,1.7-.54,3.19-.86,4.78-3.09,1.75-4.79-.24-6.42-2.4l.08-.08c1.11-1.47.22-3.94,2.43-4.87Z"/><path class="cls-82" d="M627.26,695.83a2.75,2.75,0,0,1,2.61,2.55,2.6,2.6,0,0,1-2.39,2.83,2.87,2.87,0,0,1-3-2.69A3.07,3.07,0,0,1,627.26,695.83Z"/><path class="cls-82" d="M627.43,486.78a2.78,2.78,0,0,1,2.46,2.72,2.66,2.66,0,0,1-2.59,2.67,2.85,2.85,0,0,1-2.79-2.9A3,3,0,0,1,627.43,486.78Z"/><path class="cls-82" d="M659.65,638.82c-.07,1.6-.83,2.6-2.45,2.66a2.54,2.54,0,0,1-2.74-2.41,2.62,2.62,0,0,1,2.64-2.9A2.75,2.75,0,0,1,659.65,638.82Z"/><path class="cls-83" d="M629.85,608.82c-.24,1.53-1,2.59-2.55,2.74a2.68,2.68,0,0,1-2.82-2.77,2.31,2.31,0,0,1,2.63-2.41A2.77,2.77,0,0,1,629.85,608.82Z"/><path class="cls-84" d="M689.55,549.17a2.65,2.65,0,0,1-2.5,2.7c-1.38.2-2.78-1.35-2.71-2.89a2.35,2.35,0,0,1,2.23-2.43A2.74,2.74,0,0,1,689.55,549.17Z"/><path class="cls-85" d="M659.65,549.2a2.72,2.72,0,0,1-2.51,2.66,2.62,2.62,0,0,1-2.67-2.87,2.52,2.52,0,0,1,2.71-2.43C658.81,546.61,659.57,547.59,659.65,549.2Z"/><path class="cls-84" d="M629.84,579.4a2.9,2.9,0,0,1-3,2.26,2.66,2.66,0,0,1-2.31-3.14,2.5,2.5,0,0,1,3-2C629.11,576.78,629.76,577.93,629.84,579.4Z"/><path class="cls-86" d="M659.63,579.19a2.46,2.46,0,0,1-2.8,2.46,2.6,2.6,0,0,1-2.38-2.82,2.42,2.42,0,0,1,2.79-2.31A2.55,2.55,0,0,1,659.63,579.19Z"/><path class="cls-87" d="M689.56,579c-.25,1.45-.93,2.54-2.58,2.66a2.42,2.42,0,0,1-2.63-2.49,2.59,2.59,0,0,1,2.53-2.69A2.53,2.53,0,0,1,689.56,579Z"/><path class="cls-84" d="M687,636.14c1.43.34,2.54,1.11,2.48,2.69a2.5,2.5,0,0,1-2.48,2.64,2.64,2.64,0,0,1-2.68-2.83A2.84,2.84,0,0,1,687,636.14Z"/><path class="cls-85" d="M626.73,671.15a2.31,2.31,0,0,1-2.24-2.59,2.38,2.38,0,0,1,2.72-2.35,2.6,2.6,0,0,1,2.57,2.64C629.83,670.22,628.5,671.24,626.73,671.15Z"/><path class="cls-82" d="M629.84,549.14c0,1.38-1.61,2.94-3,2.72a2.49,2.49,0,0,1-2.35-2.76,2.66,2.66,0,0,1,2.67-2.53A2.79,2.79,0,0,1,629.84,549.14Z"/><path class="cls-82" d="M657.1,701.26a2.72,2.72,0,0,1-.41-5.39,2.81,2.81,0,0,1,2.91,2.69A2.86,2.86,0,0,1,657.1,701.26Z"/><path class="cls-82" d="M687.09,695.81a2.61,2.61,0,0,1,2.44,2.76,2.5,2.5,0,0,1-2.45,2.68,2.83,2.83,0,0,1-2.68-2.93A2.87,2.87,0,0,1,687.09,695.81Z"/><path class="cls-85" d="M629.81,519.44a2.74,2.74,0,0,1-2.63,2.43,2.38,2.38,0,0,1-2.69-2.39,2.35,2.35,0,0,1,2.53-2.56A2.55,2.55,0,0,1,629.81,519.44Z"/><path class="cls-82" d="M686.88,492.2a2.89,2.89,0,0,1-2.51-2.7,2.8,2.8,0,0,1,2.91-2.69,2.49,2.49,0,0,1,2.23,2.85A2.52,2.52,0,0,1,686.88,492.2Z"/><path class="cls-82" d="M659.61,489.49a2.69,2.69,0,0,1-2.4,2.64c-1.64.25-2.47-.85-2.75-2.3a2.7,2.7,0,0,1,2.47-3.06A3.07,3.07,0,0,1,659.61,489.49Z"/><path class="cls-86" d="M629.8,459.4a2.55,2.55,0,0,1-2.59,2.68,2.41,2.41,0,0,1-2.72-2.39,2.37,2.37,0,0,1,2.5-2.58A2.76,2.76,0,0,1,629.8,459.4Z"/><path class="cls-82" d="M627.07,636.14a3.14,3.14,0,0,1,2.75,3,2.67,2.67,0,1,1-2.75-3Z"/><path class="cls-85" d="M689.55,609.16a2.4,2.4,0,0,1-2.9,2.16,2.47,2.47,0,1,1,.55-4.91C688.83,606.59,689.38,607.77,689.55,609.16Z"/><path class="cls-88" d="M659.63,609a2.43,2.43,0,0,1-2.74,2.38,2.2,2.2,0,0,1-2.41-2.53,2.51,2.51,0,0,1,2.71-2.43A2.35,2.35,0,0,1,659.63,609Z"/><path class="cls-85" d="M689.54,669a2.41,2.41,0,0,1-2.91,2.15,2.47,2.47,0,1,1,.58-4.91C688.85,666.42,689.39,667.6,689.54,669Z"/><path class="cls-89" d="M686.73,521.87a2.39,2.39,0,0,1-2.37-2.73,2.3,2.3,0,0,1,2.49-2.2,2.48,2.48,0,0,1,2.64,2.49A2.58,2.58,0,0,1,686.73,521.87Z"/><path class="cls-90" d="M659.61,669a2.38,2.38,0,0,1-2.77,2.17,2,2,0,0,1-2.18-2.36,2.33,2.33,0,0,1,2.5-2.58A2.42,2.42,0,0,1,659.61,669Z"/><path class="cls-91" d="M657.06,521.88a2.33,2.33,0,0,1-2.36-2.69,2.16,2.16,0,0,1,2.35-2.23,2.24,2.24,0,0,1,2.55,2.45A2.32,2.32,0,0,1,657.06,521.88Z"/><path class="cls-89" d="M689.28,459.67a2.35,2.35,0,0,1-2.64,2.37,2.39,2.39,0,0,1-2.27-2.75,2.46,2.46,0,0,1,4.91.38Z"/><path class="cls-91" d="M659.63,459.55a2.34,2.34,0,0,1-2.56,2.48,2.22,2.22,0,0,1-2.38-2.21,2.31,2.31,0,0,1,2.31-2.7A2.36,2.36,0,0,1,659.63,459.55Z"/><path class="cls-9" d="M227.24,893.26c-2.31-1.34-3-4-4.83-5.76-4.06-3.25-4.88-7.75-4.78-12.56,0-1,.46-2.08,0-3.13a33,33,0,0,1,4-16.08c1.07-3.8,3.63-6.41,6.81-8.54a7.92,7.92,0,0,1,1.75-.8,5.05,5.05,0,0,1,1.34-.2,68.56,68.56,0,0,1,21.37,3.38c12.57,4.23,24.92,9.09,37.3,13.83a30.45,30.45,0,0,1,7.89,4.32c5.73,4.44,8.55,10.21,7.62,17.52-.54,4.21-1.32,8.38-3.41,12.16-2.59,4.67-6.46,6.77-11.29,4.75-12.46-5.21-25.62-4.95-38.68-5.87-6.94-.49-13.9-.93-20.83-1.59A10.18,10.18,0,0,1,227.24,893.26Z"/><path class="cls-9" d="M227.31,828.46v-2.38c-.82-13.4,7-23.38,19.57-25a20.23,20.23,0,0,1,3.85.94c12,5.26,23.75,11,34.65,18.38,10.35,7,15.72,16.39,14.66,29.08a20.84,20.84,0,0,1-.69,4.44c-1.59,5.2-4.63,7.06-10,5.69-5-1.29-9.79-3.39-14.67-5.15-7.06-2.55-14.15-5-21.14-7.74A48.68,48.68,0,0,0,232,843.18c-3.27-2-4.38-5.42-4.83-8.86A15.86,15.86,0,0,1,227.31,828.46Z"/><path class="cls-1" d="M246.93,802.13c-9.82,2.06-17.71,9.15-18.87,20.37a10,10,0,0,1-.74,3.58c-1.76-3.94-4.64-6.38-9.08-6.69-1.58-3.87.86-7.29,1.23-10.94,1.3-8.05,3.2-16,5-23.92a5.59,5.59,0,0,1,1.27-2.52c2.24-1.57,3.9.09,5.5,1.17,6.75,4.57,13.78,8.72,20.52,13.32a30.65,30.65,0,0,1,3.5,2.69c1.1,1.15,1.38,2.32-.41,3.16C252.18,803.22,249.59,801.57,246.93,802.13Z"/><path class="cls-7" d="M181.32,810.5c1.36-1.81,1.15-4,1.63-6.09a16.09,16.09,0,0,1,.91-3.06,3.62,3.62,0,0,1,3.46-.62c7.06,1.89,14.24,3.26,21.34,4.94a4.38,4.38,0,0,1,2.11,1.17c1.11,3.81-.1,7.09-2.33,10.14-7.3-.75-14.34-2.71-21.41-4.51C185.09,812,183,811.69,181.32,810.5Z"/><path class="cls-1" d="M227.31,828.46c.91,3.4,1,7,2.59,10.24a16,16,0,0,0,2.23,3.87c3.21,2.78.71,3.66-1.54,4.63l-.77.31a3.29,3.29,0,0,0-.81.57c-2.94,2.1-5,5-7.41,7.65-.33-2.08.34-4,.77-6q2.2-10.32,4.46-20.62C226.88,828.87,227.15,828.67,227.31,828.46Z"/><path class="cls-1" d="M217.6,871.81a50.22,50.22,0,0,0,4.81,15.69c-1.83.3-3.64.69-5.48.89a5,5,0,0,0-3.44,1.72Z"/><path class="cls-92" d="M208.44,817c.08-3.46,1.25-6.65,2.42-9.84l.51-.31c1.9-.22,3.59.11,4.79,1.77a3.53,3.53,0,0,1,.28,1.14c-.53,3-.92,6-2.24,8.84C212.29,818,210.17,818.2,208.44,817Z"/><path class="cls-93" d="M214.2,818.58c-.9-3.39.23-6.33,2-9.13,1.15-2.27,2.76-1.51,4.39-.69l-2.37,10.63Z"/><path class="cls-11" d="M336.53,905.42a210.19,210.19,0,0,0,16.61,13.26c3.93,2.73,8.1,5,12.21,7.46,1.39.82,2.76,1.67,4.84,2.94a13,13,0,0,1-6.07-1.15c-7.56-2.76-15.14-5.48-22.13-9.59-5.58-3.28-10.1.8-10.49,5.84a39.42,39.42,0,0,0,1.11,11.35c1.44,6.83-1.2,11.07-7.95,12.88a24.44,24.44,0,0,1-2.4.53c-8.8,1.36-14.82,8.67-12.51,19.4,2,9.43,7.68,15.7,17.18,18.42a105.5,105.5,0,0,0,24.17,3.79,40.49,40.49,0,0,0,11.35-1.14,39.32,39.32,0,0,1,23,1.08c9.22,3.4,17.1.94,24.89-3.61,3.64-2.12,6.74-5,10.39-8.09a54.31,54.31,0,0,1-.31,12.51c-.86,5.59-.47,10.91,3.71,15.29a30.19,30.19,0,0,0,7.17,5.38c2,1.13,4,2.3,6,3.46.46.36,1.09.54,1.25,1.21-.14,2.65-.51,5.22-2.89,6.94l-.4,0h-.39c-.94.62-1.28-.1-1.65-.75-15.62-10.68-32.62-18.08-51.35-21.17a67,67,0,0,0-20.34-.34c-7.33,1-14.68-.15-21.88-1.89a130,130,0,0,1-36.26-14.61c-10.42-6.22-21.18-11.86-31.8-17.75s-21-11.61-31.47-17.49a23.4,23.4,0,0,1-7-5.49c1.22-1.33,2.76-1.05,4.21-.71A117.26,117.26,0,0,0,265.8,946c6.16-.11,7.4,1.47,6.7,7.72a25.64,25.64,0,0,0,.4,6.45,25.87,25.87,0,0,1,2.33-9,8.2,8.2,0,0,1,7.12-5.33,152.79,152.79,0,0,0,16.56-2.72,22.17,22.17,0,0,0,14.84-11.3c1.94-3.42,2.92-7.09,1.52-11-1.07-3-.33-5.09,2.87-6a19.4,19.4,0,0,0,10.19-7.2C330.55,904.85,333.13,903.77,336.53,905.42Z"/><path class="cls-11" d="M230.59,847.2c1.26-1.3,3.07-2.41,1.54-4.63,5.76-1.7,11.36-.8,16.85,1.18q17.9,6.43,35.77,13c1,.37,2.06.72,3.08,1.12,6.08,2.38,9.85,1.58,10.8-7.22a30.59,30.59,0,0,0-.79-12.17,28.87,28.87,0,0,0-11.33-15.58,170.42,170.42,0,0,0-26.27-15c-3.33-1.58-6.64-3.19-10-4.79.95-2.62,3.41-.41,4.83-1.5.74-.64.3-1.11-.26-1.52-1.26-.9-2.54-1.78-3.81-2.67,2.36-2.22,5.15-1.32,7.75-.87,12.5,2.13,23.54,7.68,33.88,14.77,3.56,2.44,7,5.12,11.33,7.24,0-6-2.79-10.32-6.32-14.13-9-9.68-19.61-17-32.36-20.73a98,98,0,0,1-31.2-15.9c-1.52-1.14-3.18-2.15-4.16-3.89a4.15,4.15,0,0,1-.38-1.24c0-2.06.06-4.09,1.9-5.5,4.87,3.27,9,7.44,14,10.57a101.37,101.37,0,0,0,25.18,11.62A71.28,71.28,0,0,1,295.63,793c1.69,1.38,3.32,2.84,5,4.27,7.13,6.23,10.36,14.18,10.32,23.55,0,6.4-.12,12.79-.45,19.2a82.72,82.72,0,0,0,3.31,27.45c.19.65.29,1.33.43,2-2.12.57-2.12.57-4.94-.35,1.54.16,3.06,1.82,5.09,1,2.23,5,4.07,10.1,6.72,14.88,3.12,5.64,7.16,10.61,11.11,15.65-2.27,6.78-7.82,9.81-14,12.08a31.05,31.05,0,0,1-7.3,1.39c3.86,5.24,4.7,10.65,1.65,16.19-3.24,5.87-8.09,10-14.68,11.5-3.53.79-7.19,3-10.91.41,0-2.07,1.72-3,2.94-4.21,10.86-10.81,7.66-24.88-6.76-30-8.22-2.95-16.85-3.25-25.37-4.2s-17.08-1.9-25.63-2.66c-1.62-.15-3.36-.22-4-2.22,2.24-2,2.23-2,.3-4.1-.45-.49-.83-1.05-1.24-1.58,7.51-.17,14.94.84,22.41,1.4,5.3.4,10.6.86,15.9,1,8.67.2,17.06,1.52,25.07,5,4.62,2,8,.78,10.26-3.61a31.06,31.06,0,0,0,3.48-16.58c-.32-4.76-3.09-8.37-6.69-11.3a24.85,24.85,0,0,0-7.06-4.07c-12.12-4.55-24.27-9-36.38-13.62C246.6,848.58,238.57,848.09,230.59,847.2Z"/><path class="cls-9" d="M228.18,898.94c3.19,1.55,6.72.95,10.07,1.4,8.91,1.21,17.89,1.88,26.84,2.78,6.66.68,13.25,1.53,19.6,3.9,13.8,5.15,17.48,19.79,7.54,30.69-1.55,1.71-3.38,3.15-5.08,4.71a5.27,5.27,0,0,1-4.24,2.1c-15.19,1.51-30.37,2.23-45.39-1.43-3.58-.88-7.13-1.88-9.41-5.16l-.42-.39a2.46,2.46,0,0,1-1.23-1,27.25,27.25,0,0,1-7.93-18.66C218.35,910.15,221.06,903.28,228.18,898.94Z"/><path class="cls-12" d="M228.11,937.93c8.28,4.36,17.3,5.64,26.45,6.07a170.11,170.11,0,0,0,32.59-1.58c6.05-.79,12.31-1,17.41-5,2.88-2.25,5.65-4.61,7.22-8.17,2.27-5.15,1.6-9.76-1.76-14.13-.57-.74-1.12-1.5-1.73-2.32,9.19.12,16.79-2.73,22.09-10.47a10.08,10.08,0,0,1,1.8-1.63l4.35,4.72c-.2.18-.46.54-.6.5-3.28-.93-5.08.63-7,3.22-2.68,3.64-6.21,6.51-11,7.18-1.39.19-2.79.68-1.83,2.68,3.31,6.86.22,12.38-3.81,17.65-3.59,4.69-8.6,7-14.22,8.21a132.62,132.62,0,0,1-16.93,2.49,4.44,4.44,0,0,0-3.82,2.65,28,28,0,0,0-3.22,11.3c-.07,1.05.29,2.14-.53,3.54-1.75-3.81-3.44-7.28-2.44-11.4a15.48,15.48,0,0,0,.46-2c.29-3-.51-4-3.57-4.06-2.73-.08-5.46-.09-8.2,0-8,.25-15.72-1.09-23.42-2.91a14.81,14.81,0,0,0-3.24-.4C230.94,942.46,228.82,940.77,228.11,937.93Z"/><path class="cls-94" d="M433.26,1022.82l1.65.75c.24,2.11-.63,4-1.36,5.86-1.47,3.77-3,7.52-4.49,11.28a1.64,1.64,0,0,1-.49-1.84C430,1033.49,431.17,1028,433.26,1022.82Z"/><path class="cls-95" d="M450.47,1066.92v.95l-7.13-3.55c-1.06-.54-2.22-1-2.73-2.2A39.85,39.85,0,0,1,450.47,1066.92Z"/><path class="cls-95" d="M439,1061.26a2.25,2.25,0,0,1,1.69.89A1.84,1.84,0,0,1,439,1061.26Z"/><path class="cls-96" d="M226.46,936.57l1.23,1A1.44,1.44,0,0,1,226.46,936.57Z"/><path class="cls-97" d="M511.32,1053.37c-.06.45-.13.9-.2,1.35-2.7,8.36-6.67,11.38-14.77,11.24-7-.12-10.59-2.77-13.08-9.53a26.5,26.5,0,0,1-.86-9c1.4-3.33,2.56-6.81,5.56-9.17a1.08,1.08,0,0,0,.94-.78v0c7.72-4.42,15.16-2.7,19.76,3C511.84,1044.3,512.34,1048.66,511.32,1053.37Z"/><path class="cls-98" d="M483.27,1056.43c.47.66,1,1.31,1.41,2a14.46,14.46,0,0,0,24.58-.55c.64-1,1.24-2.09,1.86-3.13.34,2.64-1.1,4.88-1.67,7.31-3.32,4.93-7.8,7.26-13.88,6.81A13.16,13.16,0,0,1,483.27,1056.43Z"/><path class="cls-99" d="M435.7,1023.58a45,45,0,0,1,2.48-7.31c2.83-1.26,4.44.34,5.84,2.47,0,2.53-1.66,4.62-1.9,7.09l-.72,1C439.05,1026.53,437.35,1025.11,435.7,1023.58Z"/><path class="cls-5" d="M210.86,807.14c-6.76-.7-13.3-2.51-19.9-4-2.38-.54-4.74-1.17-7.1-1.76,0-.23,0-.46,0-.7l5.1-23.88c.31-1.46.6-2.92.91-4.38.79-3.72.79-3.72-2.74-5.3.82-1.24,2.11-1.29,3.4-1.3,5.76-.86,9.94-3.56,11.16-9.66.45-1.72,1.1-3.37,1.67-5,1.81-5.16,0-9.41-3.27-13.34-.9-1.07-2.6-1.62-2.39-3.47,1.89-4.37,2.32-9.1,3.38-13.67,1.46-6.33,2.75-12.7,4.09-19.05a2.91,2.91,0,0,1,.86-1.78,4.79,4.79,0,0,0,5-3.33c2.75.24,5.19,1.53,7.78,2.31,3.63,1.09,7.28,2.15,10.89,3.35,5.08,1.69,7.13,5.57,5.8,10.76l-3.25-1.58c-2.45-.12-4.86-1.7-7.35-.2-9.45,3.86-10.48,8.23-10.34,19.32.09,7,3,13.21,6.62,19.08,1.21,2,2.49,3.89,3.62,5.92a4.65,4.65,0,0,1,.28,1.28c-2.13,11.24-5.58,22.14-8.44,33.19-1.08,4.21-2.07,8.46-3.33,12.62-.51,1.68-.81,3.48-2.37,4.63Z"/><path class="cls-100" d="M444,1018.74c-2.22-.19-3.56-2.44-5.84-2.47l-.84-.84c2-.33,1.92-2.15,2.33-3.47,3.05-9.73,6.12-19.46,9-29.26,8.61-29.79,16.11-59.87,23.45-90,.55-2.23.88-4.52,1.31-6.78,2.16.75,4,2.45,6.42,2.4-5.1,22.61-10.82,45.06-16.78,67.45-5.29,19.9-10.89,39.71-17.45,59.24C445.16,1016.29,445,1017.69,444,1018.74Z"/><path class="cls-101" d="M223.91,755.67c-6.2-7.54-10.33-16-10.9-25.87a27.72,27.72,0,0,1,1-10.49c1.76-5.21,5.46-8.64,10.78-8.21-4.87,3.81-7.54,8.69-7.35,15a36.36,36.36,0,0,0,3.77,14.83c1.41,2.91,3,5.75,4.47,8.62C226.7,752,226.7,754.27,223.91,755.67Z"/><path class="cls-102" d="M223.91,755.67c1-1.92,1.22-4.09,1.81-6.14a33.23,33.23,0,0,1,5.76,7.62l-.9,5.74a1.44,1.44,0,0,1-1.59-.14c-2.33-1.61-4.5-3.34-5-6.39A3.82,3.82,0,0,1,223.91,755.67Z"/><path class="cls-103" d="M314.35,870.17c-.21.78-.41,1.78-1.5,1.35-2.32-.92-4.57-2-7.71-3.4,3.81-.35,6.31,1.35,9.06,1.38A1.29,1.29,0,0,1,314.35,870.17Z"/><path class="cls-100" d="M89.57,635.89a5.63,5.63,0,0,0,.6-3.27l.88-.9c-.12,1.61.83,2.44,2.17,3.08,8.24,4,16.26,8.37,24.65,12.05,3.49,1.53,6.86,3.37,10.29,5,22.55,11,45.32,21.6,68.46,31.34,1.13.48,2.21,1.12,3.51.84,0,.32.07.63.11.94.55,2.26,1,4.5-1.71,5.8-6.91-2.08-13.37-5.28-19.95-8.17-9.2-4-18.28-8.35-27.41-12.55a4.94,4.94,0,0,0-5.1-2.37c-18.46-8.67-36.8-17.56-54.87-27A15.22,15.22,0,0,1,89.57,635.89Z"/><path class="cls-104" d="M88.84,492.15a2.73,2.73,0,0,1-2.44-2.71A2.63,2.63,0,0,1,89,486.77a2.85,2.85,0,0,1,2.79,2.89A3,3,0,0,1,88.84,492.15Z"/><path class="cls-105" d="M91.81,578.91a2.9,2.9,0,0,1-2.62,2.7,2.8,2.8,0,0,1-2.8-2.87,2.63,2.63,0,0,1,2.77-2.49A2.78,2.78,0,0,1,91.81,578.91Z"/><path class="cls-105" d="M91.72,370.36a2.69,2.69,0,1,1-5.27-1.06,2.69,2.69,0,0,1,3.09-2.08A2.87,2.87,0,0,1,91.72,370.36Z"/><path class="cls-104" d="M91.77,400.08c-.16,1.52-1.2,2.2-2.73,2.18s-2.68-.7-2.62-2.36a2.47,2.47,0,0,1,2.48-2.63A2.74,2.74,0,0,1,91.77,400.08Z"/><path class="cls-106" d="M151.54,549c-.23,1.54-1,2.59-2.55,2.74a2.67,2.67,0,0,1-2.82-2.77,2.33,2.33,0,0,1,2.64-2.42A2.76,2.76,0,0,1,151.54,549Z"/><path class="cls-105" d="M89.18,521.88a2.7,2.7,0,0,1-2.79-2.76,2.28,2.28,0,0,1,2.38-2.23c1.77-.15,3,.88,3,2.42A2.69,2.69,0,0,1,89.18,521.88Z"/><path class="cls-107" d="M91.12,457.08c.35,1.14,1,2.21.36,3.48a2.57,2.57,0,0,1-3,1.44,2.53,2.53,0,0,1-2.06-2.65,2.07,2.07,0,0,1,1.93-2.21,18.93,18.93,0,0,1,2.82,0Z"/><path class="cls-108" d="M91.94,429.22A3.36,3.36,0,0,1,90.41,432c-1.67.81-2.9-.07-4.09-1.08-.66-.52-.59-1.09-.1-1.68C88.91,426,89.25,426,91.94,429.22Z"/><path class="cls-104" d="M151.53,638.78a2.81,2.81,0,0,1-2.62,2.66,2.75,2.75,0,0,1-2.7-2.55A2.83,2.83,0,0,1,149,636C150.61,636.22,151.2,637.44,151.53,638.78Z"/><path class="cls-107" d="M61.66,489.36a2.38,2.38,0,0,1-2.4,2.66,2.34,2.34,0,0,1-2.63-2.41,2.54,2.54,0,0,1,2.59-2.89A2.49,2.49,0,0,1,61.66,489.36Z"/><path class="cls-107" d="M118.81,636.1a2.74,2.74,0,0,1,2.63,2.58,2.49,2.49,0,1,1-5,.32C116.35,637.35,117.21,636.47,118.81,636.1Z"/><path class="cls-106" d="M118.78,581.65a2.39,2.39,0,0,1-2.31-2.64,2.46,2.46,0,0,1,2.44-2.67,2.65,2.65,0,0,1,2.55,2.69A2.48,2.48,0,0,1,118.78,581.65Z"/><path class="cls-104" d="M151.51,579.21a2.67,2.67,0,1,1-2.79-2.91A3.11,3.11,0,0,1,151.51,579.21Z"/><path class="cls-106" d="M178.86,576.28a2.8,2.8,0,0,1,2.45,2.71,2.62,2.62,0,0,1-2.89,2.61,2.5,2.5,0,0,1-2.27-2.81C176.21,577.24,177.35,576.52,178.86,576.28Z"/><path class="cls-106" d="M208.68,576.29c1.5.36,2.61,1.14,2.53,2.71a2.48,2.48,0,0,1-2.49,2.62,2.62,2.62,0,0,1-2.66-2.84A2.72,2.72,0,0,1,208.68,576.29Z"/><path class="cls-104" d="M241.17,579.1a2.87,2.87,0,0,1-2.6,2.51,2.78,2.78,0,0,1-2.74-2.42,3.15,3.15,0,0,1,2.82-2.89A2.87,2.87,0,0,1,241.17,579.1Z"/><path class="cls-106" d="M151.53,609c-.4,1.61-1.32,2.44-2.95,2.29a2.35,2.35,0,0,1-2.4-2.69,2.38,2.38,0,0,1,2.82-2.25A2.74,2.74,0,0,1,151.53,609Z"/><path class="cls-105" d="M89,551.75c-1.4-.23-2.55-.85-2.67-2.47a2.82,2.82,0,0,1,2.89-2.72,2.74,2.74,0,0,1,2.51,2.7C91.88,550.49,90.43,551.75,89,551.75Z"/><path class="cls-109" d="M150.25,516.81l.94,1c.17.28.36.55.55.83l0,.05a3.85,3.85,0,0,1-1.28,2.5,2.62,2.62,0,0,1-3.05.34,2.48,2.48,0,0,1,.77-4.6A19.77,19.77,0,0,1,150.25,516.81Z"/><path class="cls-106" d="M181.29,638.71a2.73,2.73,0,0,1-2.4,2.69,2.52,2.52,0,0,1-2.75-2.4,2.58,2.58,0,0,1,2.35-2.85C179.73,635.89,181.17,637.2,181.29,638.71Z"/><path class="cls-110" d="M211.23,609a2.24,2.24,0,0,1-2.31,2.31,2.45,2.45,0,0,1-2.87-2.58,2.31,2.31,0,0,1,2.66-2.37C210.35,606.43,211,607.54,211.23,609Z"/><path class="cls-110" d="M178.68,606.34a2.34,2.34,0,0,1,2.61,2.4,2.3,2.3,0,0,1-2.47,2.57c-1.58.09-2.76-.87-2.67-2.3A2.59,2.59,0,0,1,178.68,606.34Z"/><path class="cls-111" d="M210.61,636.71c.71,1.4,1.1,2.82-.23,4.06s-2.44.87-3.66,0c-.71-1.36-1.09-2.65.24-3.94S209.38,636.3,210.61,636.71Z"/><path class="cls-112" d="M236.05,548.2c1-1.69,2.36-2.35,4-1.17s1.2,2.82.37,4.35C236.73,551.9,236.71,551.88,236.05,548.2Z"/><path class="cls-113" d="M58.24,551.59c-2-.85-1.69-2.55-1.62-4.18a9,9,0,0,1,1.83-.81c1.5-.3,2.72.18,3.08,1.79s-.07,3-2.09,3.1C59,551.51,58.64,551.55,58.24,551.59Z"/><path class="cls-114" d="M121.45,549a2.28,2.28,0,0,1-2.44,2.5c-1.41.07-2.4-.46-2.5-2s.49-2.67,2.15-2.92A2.44,2.44,0,0,1,121.45,549Z"/><path class="cls-115" d="M59,462a2.47,2.47,0,1,1,.47-4.91,2.25,2.25,0,0,1,2.12,2.48A2.34,2.34,0,0,1,59,462Z"/><path class="cls-116" d="M181.3,668.8a2.28,2.28,0,0,1-2.57,2.29,2.21,2.21,0,0,1-2.36-2.24,2.34,2.34,0,0,1,2.34-2.67A2.41,2.41,0,0,1,181.3,668.8Z"/><path class="cls-115" d="M121.45,519.2a2.31,2.31,0,0,1-2.38,2.62,2.23,2.23,0,0,1-2.54-2.45,2.16,2.16,0,0,1,2.14-2.44A2.33,2.33,0,0,1,121.45,519.2Z"/><path class="cls-115" d="M61.61,519.54a2.38,2.38,0,0,1-2.74,2.29A2.32,2.32,0,0,1,56.71,519a2.19,2.19,0,0,1,2.5-2.07A2.32,2.32,0,0,1,61.61,519.54Z"/><path class="cls-115" d="M121.45,609a2.33,2.33,0,0,1-2.78,2.26,2.17,2.17,0,0,1-2.14-2.44,2.22,2.22,0,0,1,2.54-2.45C120.72,606.43,121.43,607.45,121.45,609Z"/><path class="cls-117" d="M86.22,429.2c0,.56.07,1.12.1,1.68L82.47,429C84.05,428.16,85.08,429.3,86.22,429.2Z"/><path class="cls-97" d="M204.37,751.47c-.09,1.79-1.28,3.2-1.67,4.89-3,7.34-8.81,9.34-16.13,8.48-5.65-1.24-9.42-4.5-10.89-10.2-1.5-6.6-.17-12.41,4.82-17.19,9.09-6.28,18.81-4.05,23,5.38A12.66,12.66,0,0,1,204.37,751.47Z"/><path class="cls-118" d="M204.37,751.47a39.45,39.45,0,0,0-.76-5.6c-1.8-8.21-11.06-13.52-20.19-9.68-1,.41-1.73,1.35-2.92,1.26,3.26-4.07,7.66-5,12.53-4.4a34.76,34.76,0,0,1,4.63,1.23c5.39,3.72,8.3,8.63,7.45,15.37A3,3,0,0,1,204.37,751.47Z"/><path class="cls-119" d="M198.53,690.82c1.42-1.68.21-4.14,1.71-5.8l7.18,2.47a8.21,8.21,0,0,1-1.49,6.59l-6.61-2.64a6.63,6.63,0,0,0-.78-.62Z"/><path class="cls-120" d="M175.68,754.64c2.38,4.39,5.75,7.65,10.63,9.14,1.13.66,2.39.25,3.58.37,1.94.21,2.25,1.19,1.34,2.77l-4.14.17C180,765.42,176,761,175.68,754.64Z"/><path class="cls-121" d="M89.57,635.89c2,1.13,2.92,2.6,1.63,4.84-3.89,1.27-4.17,1.14-5-2.43A4.5,4.5,0,0,1,89.57,635.89Z"/><path class="cls-80" d="M91.78,698.85A3,3,0,0,1,89,701.26c-1.36.08-3-1.78-2.62-3a2.78,2.78,0,0,1,2.91-2.34A3.07,3.07,0,0,1,91.78,698.85Z"/><path class="cls-15" d="M149.06,695.82a2.85,2.85,0,0,1,2.57,2.61,2.67,2.67,0,0,1-2.45,2.8c-1.32.27-3-1.4-3-2.76A3.26,3.26,0,0,1,149.06,695.82Z"/><path class="cls-14" d="M121.43,698.37a2.7,2.7,0,0,1-2.74,2.88c-1.55-.08-2.07-1.14-2.1-2.51s.32-2.78,2.13-2.88A2.72,2.72,0,0,1,121.43,698.37Z"/><path class="cls-91" d="M146.07,667.73c1-1.33,2.21-2.11,3.81-1.36s2,2.1,1.29,3.73C147.57,671.76,146.9,671.45,146.07,667.73Z"/><path class="cls-15" d="M178.74,695.83a3,3,0,0,1,2.48,2.72,3,3,0,0,1-3,2.69,2.7,2.7,0,0,1-2.1-2.68A2.75,2.75,0,0,1,178.74,695.83Z"/><path class="cls-80" d="M89.22,671.07c-1.44,0-2.61-.35-2.84-1.88a2.9,2.9,0,0,1,2.86-2.85,2.72,2.72,0,0,1,2.51,2.78C91.71,670.65,90.45,671,89.22,671.07Z"/><path class="cls-14" d="M59,696a2.5,2.5,0,0,1,2.54,2.57,2.39,2.39,0,0,1-2.14,2.55A2.57,2.57,0,0,1,59,696Z"/><path class="cls-14" d="M211,696.45a1.88,1.88,0,0,0,0,.41c.41,1.54.42,3-1,4-1.7,1.19-2.71-.52-4-1.12-.19-2,.91-3.28,2.56-4.19a2,2,0,0,1,.72.14,1.47,1.47,0,0,0,.82.37,2.19,2.19,0,0,1,.85.35Z"/><path class="cls-122" d="M59.27,671a2.23,2.23,0,0,1-2.51-2A2.31,2.31,0,0,1,59,666.25a2.25,2.25,0,0,1,2.52,2.44A2.2,2.2,0,0,1,59.27,671Z"/><path class="cls-122" d="M118.83,666.25a2.27,2.27,0,0,1,2.56,2.41,2.15,2.15,0,0,1-2.2,2.34,2.18,2.18,0,0,1-2.54-2A2.3,2.3,0,0,1,118.83,666.25Z"/><path class="cls-100" d="M198.54,690.82l.78.62A.68.68,0,0,1,198.54,690.82Z"/><path class="cls-82" d="M360.88,489.37a2.79,2.79,0,0,1-2.53,2.76,2.61,2.61,0,0,1-2.88-2.33,2.82,2.82,0,0,1,2.66-3A2.94,2.94,0,0,1,360.88,489.37Z"/><path class="cls-123" d="M387.75,492.18c-1.53-.15-2.19-1.2-2.17-2.72s.69-2.69,2.36-2.63a2.49,2.49,0,0,1,2.64,2.48A2.74,2.74,0,0,1,387.75,492.18Z"/><path class="cls-124" d="M360.78,519.53c-.35,1.55-1.18,2.44-2.8,2.38a2.5,2.5,0,0,1-2.56-2.9c.29-1.61,1.41-2.18,2.93-2.09S360.63,518.1,360.78,519.53Z"/><path class="cls-88" d="M390.55,549.14a2.66,2.66,0,0,1-2.33,2.71,2.44,2.44,0,0,1-2.63-2.48c0-1.56.61-2.63,2.27-2.81A2.45,2.45,0,0,1,390.55,549.14Z"/><path class="cls-91" d="M417.57,517a2.3,2.3,0,0,1,2.6,2.4,2.21,2.21,0,0,1-2.09,2.49,2.31,2.31,0,0,1-2.81-2.18A2.34,2.34,0,0,1,417.57,517Z"/><path class="cls-91" d="M390.55,519.43a2.3,2.3,0,0,1-2.62,2.41,2.22,2.22,0,0,1-2.29-2.68A2.17,2.17,0,0,1,388,517,2.3,2.3,0,0,1,390.55,519.43Z"/><path class="cls-12" d="M206.2,521c-7.36,3.71-14.7,3.26-22.1.08-1.27-.55-1.73-1.68-2.62-2.47a7.44,7.44,0,0,1-4.91-1.3c-2.33-2.25-4.65-4.51-7-6.74-.4-.39-1-.69-1.46-.27-2.32,2.16-5.34,1.55-8.1,1.94a4.08,4.08,0,0,0,1.38,3c8.06,8.81,12.49,19.3,14.57,30.92a5.06,5.06,0,0,0,.5,1.12c0,.16.07.32.11.48a8.48,8.48,0,0,1,.16,3c0,.16,0,.33-.07.49,1.11,5.26.6,10.5-.22,15.73.52.17-.37-.05-.14.42.1.22-.5.39-.51.13-.11-1.62-.17-3.24-.15-4.85a65.71,65.71,0,0,0-7.36-30.61,71.5,71.5,0,0,0-11.72-16.61,97.38,97.38,0,0,0-33.62-23.28,3,3,0,0,1-1.43-1.39v0a6.52,6.52,0,0,1,4-3.91c5.07-2.06,8.6-6.12,11.15-11a12.89,12.89,0,0,1,2.77-3.91c0,1.92.42,4-.1,5.73a40.5,40.5,0,0,0-1.06,8.48c-.51,6.43,2.84,11.1,8.11,14.54,6.85,4.47,22.34,3.11,27.43-5.06.05-.07.25-.05.7-.13-.3,3.2-.84,6.28-.11,9.49a18.94,18.94,0,0,0,11.63,13.79c5.36,2.32,11,3.33,16.73,1.26a3.26,3.26,0,0,1,3.11.18A.61.61,0,0,1,206.2,521Z"/><path class="cls-125" d="M151,427.54c1.32,2.24.45,3.76-1.61,4.88-2.82-.93-3.68-1.92-3.1-3.58S148,426.86,151,427.54Z"/><path class="cls-126" d="M147.17,487.29c3-.79,3.23-.69,4.55,2.47l0,.06a4.4,4.4,0,0,1-.51.83c-1.07,1.63-2.49,2.05-4,.79S145.89,488.67,147.17,487.29Z"/><path class="cls-110" d="M150.83,402a16.35,16.35,0,0,1-2.4.22,2.22,2.22,0,0,1-2.21-2,2.29,2.29,0,0,1,1.31-2.68,2.59,2.59,0,0,1,3,.42,3.77,3.77,0,0,1,1.21,2.48v0a7.93,7.93,0,0,0-.62,1Z"/><path class="cls-127" d="M238.64,456.91l2.59,1.09c-.19,3.44-.19,3.44-3.26,4.14l-1.67-1C235.59,458.22,235.78,457.88,238.64,456.91Z"/><path class="cls-112" d="M241.22,519.37a2.54,2.54,0,0,1-2.58,2.55,2.65,2.65,0,0,1-2.76-2.79,2.68,2.68,0,0,1,5.34.24Z"/><path class="cls-128" d="M267.59,486.54c3.48,1,3.53,1.1,3,4.84-1.31.64-2.63,1.19-4,.14C265.43,489.56,265.47,487.84,267.59,486.54Z"/><path class="cls-129" d="M179.72,486.6c2.5,3.25,2.27,4.07-1.61,5.72l0,0a8.12,8.12,0,0,0-.86-.69C175.36,488.35,175.75,487.54,179.72,486.6Z"/><path class="cls-130" d="M206.2,521a1.44,1.44,0,0,0-.29-.74c.65-3.3.65-3.3,4.17-3.37l1,.89C211.13,522,210.12,522.67,206.2,521Z"/><path class="cls-131" d="M121.51,490.78a7.21,7.21,0,0,1-2.07,1.24,2.33,2.33,0,0,1-3-2,2.52,2.52,0,0,1,1.45-3.06,2.42,2.42,0,0,1,3.38,1.35,7.86,7.86,0,0,1,.27,2.41Z"/><path class="cls-116" d="M181.3,461.08a9,9,0,0,1-2.23.91,2.17,2.17,0,0,1-2.64-1.93,2.23,2.23,0,0,1,1.25-2.72,2.39,2.39,0,0,1,3.42,1.19,8.64,8.64,0,0,1,.38,2A5.05,5.05,0,0,1,181.3,461.08Z"/><path class="cls-67" d="M116.85,457.77c1.86-1.1,3.49-1.06,4.71,1,0,1.58-.25,3-2.14,3.33C117.16,462.49,116.31,461,116.85,457.77Z"/><path class="cls-132" d="M119.87,397.17c2.57,3.15,2.21,4.23-1.73,5.18a2.5,2.5,0,0,1-1.68-3.16C116.85,397.34,118.37,397.23,119.87,397.17Z"/><path class="cls-9" d="M151.74,518.65c-.19-.28-.37-.56-.56-.83A.78.78,0,0,1,151.74,518.65Z"/><path class="cls-9" d="M151.13,401.47c.2-.34.41-.67.62-1A1.09,1.09,0,0,1,151.13,401.47Z"/><path class="cls-9" d="M151.17,490.65l.51-.83Z"/><path class="cls-9" d="M177.27,491.66a.91.91,0,0,1,.86.69Z"/><path class="cls-133" d="M238.79,606.3a2.44,2.44,0,0,1,2.4,2.53,2.39,2.39,0,0,1-2.48,2.62,2.6,2.6,0,0,1-2.86-2.69A2.84,2.84,0,0,1,238.79,606.3Z"/><path class="cls-134" d="M208.62,551.79a2.61,2.61,0,0,1-2.61-2.54,2.58,2.58,0,0,1,2.8-2.74,2.49,2.49,0,0,1,2.43,2.72A2.46,2.46,0,0,1,208.62,551.79Z"/><path class="cls-134" d="M176.46,547.3a5.25,5.25,0,0,1,1.45-.67c2.05-.28,3.35.66,3.44,2.37s-1.08,2.8-3.15,2.71a5.93,5.93,0,0,1-1.54-.47l0,.09c-1.06-1.3-.68-2.66-.18-4Z"/><path class="cls-130" d="M176.57,517.3c2-.8,3.72-.82,4.91,1.3a8.62,8.62,0,0,1-.41,1.92,2.46,2.46,0,0,1-3,1.33,2.28,2.28,0,0,1-1.9-2.24A9.44,9.44,0,0,1,176.57,517.3Z"/><path class="cls-71" d="M210.94,670.36a6.47,6.47,0,0,1-1.84.81c-1.9.18-3.07-.77-3.08-2.39a2.41,2.41,0,0,1,2.09-2.62c1.6-.31,2.62.54,3,2.5a6.86,6.86,0,0,1-.1,1.62Z"/><path class="cls-135" d="M208.55,432.34a2.83,2.83,0,0,1-2.47-2.61A2.76,2.76,0,0,1,208.9,427a2.58,2.58,0,0,1,2.33,2.79A2.65,2.65,0,0,1,208.55,432.34Z"/><path class="cls-106" d="M211.26,489.38a2.72,2.72,0,0,1-2.54,2.67c-1.38.19-2.78-1.37-2.68-2.88a2.47,2.47,0,0,1,2.71-2.39C210.35,486.76,211,488,211.26,489.38Z"/><path class="cls-116" d="M208.37,457.09a2.31,2.31,0,0,1,2.6,2.41,2.22,2.22,0,0,1-2.09,2.49,2.31,2.31,0,0,1-2.82-2.18A2.35,2.35,0,0,1,208.37,457.09Z"/><path class="cls-106" d="M178.79,432.36a2.54,2.54,0,0,1-2.64-2.54,2.5,2.5,0,0,1,2.23-2.85,2.8,2.8,0,0,1,2.91,2.69A2.87,2.87,0,0,1,178.79,432.36Z"/><path class="cls-110" d="M151.49,459.71a2.74,2.74,0,0,1-2.77,2.32,2.49,2.49,0,1,1,.15-5A2.55,2.55,0,0,1,151.49,459.71Z"/><path class="cls-110" d="M181.32,399.68a2.39,2.39,0,0,1-2.49,2.57c-1.58.09-2.78-.88-2.68-2.29a2.51,2.51,0,0,1,2.49-2.66A2.36,2.36,0,0,1,181.32,399.68Z"/><path class="cls-136" d="M121.48,429.48a2.67,2.67,0,0,1-2.7,2.85,2.29,2.29,0,0,1-2.3-2.32c-.19-1.76.83-3.09,2.36-3.06A2.74,2.74,0,0,1,121.48,429.48Z"/><path class="cls-104" d="M241.16,489.18a2.85,2.85,0,0,1-2.43,2.89,3.14,3.14,0,0,1-2.91-2.8,2.81,2.81,0,0,1,2.67-2.51A2.87,2.87,0,0,1,241.16,489.18Z"/><path class="cls-137" d="M91.79,608.87a2.72,2.72,0,0,1-5.41.3,2.71,2.71,0,1,1,5.41-.3Z"/><path class="cls-10" d="M210.09,696.5l-.82-.77a1.77,1.77,0,0,1,.79.06c.22.15.3.3.23.46S210.16,696.5,210.09,696.5Z"/><path class="cls-5" d="M210.09,696.5l0-.71.88.66Z"/><path class="cls-138" d="M270.78,521a8.66,8.66,0,0,1-2.2.86,2.52,2.52,0,1,1,2.28-2.82,11.27,11.27,0,0,1-.1,2Z"/><path class="cls-139" d="M511.32,1053.37l-.12-3.66a14.43,14.43,0,0,0-18-13.41c-1.43.37-2.74,1.23-4.31,1.12a13.89,13.89,0,0,1,17.16-1.12A14,14,0,0,1,511.32,1053.37Z"/><path class="cls-139" d="M488.91,1037.44a.9.9,0,0,1-.94.78A.88.88,0,0,1,488.91,1037.44Z"/><path class="cls-140" d="M520.29,324.81c11.21-19.94,22.48-39.86,33.53-59.89,1.68-3,3.6-4.18,7-4.17,16.9,0,33.81-.18,50.72-.32,11.15-.09,22.3-.16,33.45-.39a5.06,5.06,0,0,1,5.14,2.89q21.45,36.79,43.11,73.46a4.84,4.84,0,0,1,0,5.57q-21,37.07-41.7,74.25a4.83,4.83,0,0,1-4.77,2.89c-15.71.08-31.41.31-47.12.5-13.7-.07-27.4-.22-41.09.61C558,420,558,420,558,420c-3-4-5.3-8.51-7.85-12.83q-18.48-31.41-37-62.8c-1.44-2.44-1.74-4.4-.1-6.91"/><path class="cls-141" d="M689.45,337.65c-1.82,0-3.69,0-5.55,0-25.41.24-50.63.07-76,.45-3.19,0-5.05-.59-6.64-3.34-12.84-22.16-25.86-44.21-38.82-66.3-.72-1.23-1.38-2.48-2.09-3.74.82-1,1.85-.62,2.71-.63,26.85-.28,53.69-.5,80.54-.81a4.49,4.49,0,0,1,4.56,2.49q20.07,34.46,40.31,68.81A4,4,0,0,1,689.45,337.65Z"/><path class="cls-141" d="M687.09,340.89l-12.22.1c-22.88.22-48-.15-70.87,0-1.89,0-5.82,9.95-6.6,11.82L596,416c5.62-.14,17.27.27,22.89.2,7.05-.09,14.11-.2,21.11-.2h5c2.5.31,3.5-.76,4.71-2.93,12.75-22.89,25.63-45.72,38.44-68.59.56-1,1.85-2.48,1.85-3.48C689,341,687.9,340.88,687.09,340.89Z"/><path class="cls-3" d="M587.58,326.66a22,22,0,0,1,5.67.7l7,11.64c.78,1,.78,1,.09,2L559.1,414.3c-1.44-.14-1.65-1.05-2.05-1.74q-20.26-34.51-40.55-69a4.49,4.49,0,0,1-.08-5.25c2.16-3.57,3.39-6.38,5.46-10"/><path class="cls-141" d="M521.88,328.27c9.69-17.32,16.73-28,26.43-45.31,1.68-3,3.78-9.44,9.44-17,.85-.12,35.63,61.9,35.87,62.3"/><path class="cls-3" d="M604,341a4.89,4.89,0,0,0-2.14,2.1c-1,2-28.07,51.46-38.63,70.32-.5.9-1.33,1.73-1.11,2.89a2.19,2.19,0,0,0,1.72.39c21.82-.06,69.72-.7,78.16-.7h0c0-1,1-75,1-75"/><path class="cls-11" d="M229,848.08a.78.78,0,0,1,.81-.57Z"/><path class="cls-142" d="M255.11,801.59c-1.33,1.39-3.56-.11-4.83,1.5l-3.35-1C249.58,800.81,252.37,801.62,255.11,801.59Z"/><path class="cls-9" d="M230.66,763.68c4.56,3.25,9,6.64,13.8,9.55a83.26,83.26,0,0,0,19.82,8.71A76.16,76.16,0,0,1,299.14,804c4.28,4.65,6.75,10.13,6.57,16.62-1.54.61-2.38-.52-3.33-1.15-5.69-3.76-11.24-7.76-17.06-11.31a75.74,75.74,0,0,0-26.53-10.4,35.35,35.35,0,0,0-7.75-.37q-10.32-6.63-20.64-13.25c-1.26-.81-2.57-1.53-3.86-2.29a2.9,2.9,0,0,1-.86-3,112.9,112.9,0,0,1,2.93-13A3,3,0,0,1,230.66,763.68Z"/><path class="cls-143" d="M230.66,763.68c-2,5.92-2.86,12.1-4.12,18.18q-3,13.46-5.93,26.9c-1.32,1.1-3.1-.65-4.39.69-.1-.23-.2-.45-.31-.68-1.14-1.31-.82-2.82-.45-4.26,3.4-13,6.75-26.06,10.42-39,.48-1.68.7-4.36,3.81-3.32l.89.7A4.15,4.15,0,0,0,230.66,763.68Z"/><path class="cls-7" d="M229.69,762.19c-1.65,0-1.94,1.3-2.24,2.45q-5.8,22.07-11.54,44.13l-5-1.64c.62-5.14,2.37-10,3.64-15,3-12,6.32-23.86,9.5-35.78A35.61,35.61,0,0,0,229.69,762.19Z"/><path class="cls-144" d="M508.13,1050.64a11.32,11.32,0,1,1-22.63-.22,11.32,11.32,0,1,1,22.63.22Z"/><path class="cls-145" d="M191.23,766.92c0-1.34-.38-2.32-2-2.35-1,0-2.14.11-2.94-.79,2.55-.16,5.1.26,7.65-.52,3.86-1.18,6.32-4,8.74-6.9C202.55,761.57,196.6,766.74,191.23,766.92Z"/><path class="cls-146" d="M189.5,738.18A11.26,11.26,0,0,1,201,749.43a11.44,11.44,0,1,1-22.87.15A11.24,11.24,0,0,1,189.5,738.18Z"/><path class="cls-11" d="M176.45,547.3a6.93,6.93,0,0,0,.18,4C175.12,550.05,175.27,548.7,176.45,547.3Z"/><path class="cls-147" d="M492.35,1058.67c-5.19-3.38-6.33-7.77-3.35-12.89a8.68,8.68,0,0,1,8.12,4.72C496.73,1053.92,495.49,1056.85,492.35,1058.67Z"/><path class="cls-148" d="M501.29,1042.54c5,3.13,6.11,6.88,3.66,12.44a7.85,7.85,0,0,1-8-4.38C496.61,1047,497.86,1044.16,501.29,1042.54Z"/><path class="cls-149" d="M497.23,1050.64,505,1055c-3.24,5-7.2,6.15-12.6,3.69l4.06-8C496.66,1050.27,496.93,1050.27,497.23,1050.64Z"/><path class="cls-149" d="M497.23,1050.64a7.52,7.52,0,0,1-.82,0c-1.86-2.56-5.16-2.94-7.41-4.91,3.28-4.71,7-5.69,12.29-3.24C499.65,1045.1,497.92,1047.61,497.23,1050.64Z"/><path class="cls-149" d="M197.68,753.9q-4.87,7.74-12.91,3.49a10.5,10.5,0,0,1,4.78-8.12A9.43,9.43,0,0,1,197.68,753.9Z"/><path class="cls-147" d="M197.68,753.9l-8.11-4.11a2,2,0,0,1-.51-1.07c.95-2.84,1.72-5.8,4.79-7.25C198.87,744.2,200.17,748.42,197.68,753.9Z"/><path class="cls-148" d="M189.49,749c0,.25,0,.51.08.76-1.9,2.35-2.67,5.4-4.8,7.6-4.8-3.4-5.79-7.29-3.17-12.5C185.12,744.57,187.56,746.31,189.49,749Z"/><path class="cls-149" d="M189.49,749l-7.89-4.13c3.4-4.86,7-5.86,12.25-3.43C192.37,744,191.33,746.73,189.49,749Z"/></g></g></svg>