<svg xmlns="http://www.w3.org/2000/svg" viewBox="0 0 604 340.15"><defs><style>.cls-1{fill:#e8e9eb;}.cls-2{fill:#e0dfd5;}.cls-3{fill:#313638;}.cls-4{fill:#e2e2e2;}.cls-5{fill:#b4b4b4;}.cls-6{fill:#ababab;}.cls-7{fill:#dcdfde;}.cls-8{fill:#fcbc94;}.cls-9{fill:#efefef;}.cls-10{fill:#9b7b66;}.cls-11{fill:#8d7160;}.cls-12{fill:#fff;}.cls-13{fill:#fdfdfd;}.cls-14{fill:#fdfefe;}.cls-15{fill:#f5f6f6;}.cls-16{fill:#f2dfd1;}.cls-17{fill:#9c7b66;}.cls-18{fill:#f2e0d2;}.cls-19{fill:#dadede;}.cls-20{fill:#a1816b;}.cls-21{fill:#eef1f2;}.cls-22{fill:#eef2f2;}.cls-23{fill:#edf1f2;}.cls-24{fill:#edf0f1;}.cls-25{fill:#eceff0;}.cls-26{fill:#ecf0f1;}.cls-27{fill:#ebeff0;}.cls-28{fill:#ebf0f1;}.cls-29{fill:#eef3f4;}.cls-30{fill:#f0f2f3;}.cls-31{fill:#eef2f3;}.cls-32{fill:#eff2f3;}.cls-33{fill:#edeff0;}.cls-34{fill:#f2f7f7;}.cls-35{fill:#7e695c;}.cls-36{fill:#f5f6f4;}.cls-37{fill:#f0f3f3;}.cls-38{fill:#f1f3f4;}.cls-39{fill:#eceff1;}.cls-40{fill:#f6f6f7;}.cls-41{fill:#eef0f1;}.cls-42{fill:#f5f5f6;}.cls-43{fill:#f4f6f7;}.cls-44{fill:#ecf1f2;}.cls-45{fill:#f3f8f9;}.cls-46{fill:#eff1f2;}.cls-47{fill:#f3f8f8;}.cls-48{fill:#f2f8f8;}.cls-49{fill:#f5f6f7;}.cls-50{fill:#f6f6f6;}.cls-51{fill:#edf2f3;}.cls-52{fill:#edf2f2;}.cls-53{fill:#f4f8f9;}.cls-54{fill:#f3f7f7;}.cls-55{fill:#f0f3f4;}.cls-56{fill:#f4f7f8;}.cls-57{fill:#f4f7f7;}.cls-58{fill:#f6f7f7;}.cls-59{fill:#f5f7f8;}.cls-60{fill:#f4f8f8;}.cls-61{fill:#f5f8f7;}.cls-62{fill:#f2f5f6;}.cls-63{fill:#f6f7f8;}.cls-64{fill:#f9f9f9;}.cls-65{fill:#f8f8f9;}.cls-66{fill:#f9fbfb;}.cls-67{fill:#fdfcfb;}.cls-68{fill:#f6fbfb;}.cls-69{fill:#f6fafa;}.cls-70{fill:#f8fbfb;}.cls-71{fill:#f9fafa;}.cls-72{fill:#f7fafa;}.cls-73{fill:#f6fafb;}.cls-74{fill:#f6f9fa;}.cls-75{fill:#f9fcfc;}.cls-76{fill:#f8fafa;}.cls-77{fill:#f5fafb;}.cls-78{fill:#f8fafb;}.cls-79{fill:#f8f9fa;}.cls-80{fill:#e4b363;}.cls-81{fill:#485d68;}.cls-82{fill:#fefefe;}.cls-83{fill:#7f685a;}.cls-84{fill:#f2f8f2;}.cls-85{fill:#f8faf8;}.cls-86{fill:#f7faf7;}.cls-87{fill:#f8fbf9;}.cls-88{fill:#f7faf8;}.cls-89{fill:#f8faf7;}.cls-90{fill:#f9fbf9;}.cls-91{fill:#fafcfb;}.cls-92{fill:#fbfcfb;}.cls-93{fill:#fbfcfa;}.cls-94{fill:#fafdfc;}.cls-95{fill:#fafdfb;}.cls-96{fill:#fcfdfc;}.cls-97{fill:#fbfdfc;}.cls-98{fill:#fbfdfb;}.cls-99{fill:#fcfdfd;}.cls-100{fill:#fbfdfd;}.cls-101{fill:#fbfefd;}.cls-102{fill:#878686;}.cls-103{fill:#a9a9a9;}.cls-104{fill:#dddedc;}.cls-105{fill:#cdd5cd;}.cls-106{fill:#c09079;}.cls-107{fill:#1c2529;}.cls-108{fill:#a9abab;}.cls-109{fill:#7d685a;}.cls-110{fill:#bd9176;}.cls-111{fill:#8f8e8e;}.cls-112{fill:#7b7979;}.cls-113{fill:#907361;}.cls-114{fill:#fff9f6;}.cls-115{fill:#fffaf6;}.cls-116{fill:#fffaf7;}.cls-117{fill:#fff9f5;}.cls-118{fill:#fcf7f4;}.cls-119{fill:#fefcfa;}.cls-120{fill:#fffcfa;}.cls-121{fill:#fcf8f5;}.cls-122{fill:#f9f8f7;}.cls-123{fill:#fefcfb;}.cls-124{fill:#fffcfb;}.cls-125{fill:#fffdfc;}.cls-126{fill:#fffdfb;}.cls-127{fill:#a6866e;}.cls-128{fill:#454c52;}.cls-129{fill:#7d6759;}.cls-130{fill:#afb4b4;}.cls-131{fill:#f7f8f7;}.cls-132{fill:#feffff;}.cls-133{fill:#f7f9f7;}.cls-134{fill:#f9f6f3;}.cls-135{fill:#fbf8f6;}.cls-136{fill:#fdf9f7;}.cls-137{fill:#f8f4f2;}.cls-138{fill:#fbfaf8;}.cls-139{fill:#f9f9f8;}.cls-140{fill:#f5f3f1;}.cls-141{fill:#fcfcfb;}.cls-142{fill:#f6f5f3;}.cls-143{fill:#f8f9f8;}.cls-144{fill:#fffbf8;}.cls-145{fill:#fff8f4;}.cls-146{fill:#f5f4f3;}.cls-147{fill:#fbfbfb;}.cls-148{fill:#444d53;}.cls-149{fill:#f9fcf1;}.cls-150{fill:#e8f1e7;}.cls-151{fill:#ac967a;}.cls-152{fill:#e1e1e1;}.cls-153{fill:#f1bb41;}.cls-154{fill:#a8acac;}.cls-155{fill:#edba41;}.cls-156{fill:#0b5c8c;}.cls-157{fill:#039fdc;}.cls-158{fill:#07486f;}.cls-159{fill:#1175bc;}.cls-160{fill:#06486f;}.cls-161{fill:#095b8d;}.cls-162{fill:#019fdc;}.cls-163{fill:#1275bc;}</style></defs><title>about-me</title><g id="Layer_2" data-name="Layer 2"><g id="about_me" data-name="about me"><path class="cls-1" d="M0,296.15V.15c1-.34,423,0,424,0,0,1-.2,82.7-.62,83.28-.76.64-1.67.43-2.53.43q-22.5,0-45,0c-.79,0-1.67-.25-2.31.49a4.77,4.77,0,0,0-.49,2.87V205.7c0,1,0,2.08,0,3.12a3.22,3.22,0,0,1-1.23,2.39c-1.88,2-4.13,3.58-5.95,5.62-.4.46-1.16.88-.54,1.64s1.35.44,2-.06c1.4-1.07,2.51-2.44,3.81-3.6.54-.48,1.09-1.2,2-.48a4.46,4.46,0,0,1,.42,2.56q0,9.27,0,18.54c0,2.93-.28,3.25-3.16,3.72-17.77,2.87-35.55,5.68-53.32,8.54a65.08,65.08,0,0,1-8.11,1.12,10.22,10.22,0,0,1-3.95-3.3c-2.68-3.16-5.06-6.55-7.65-9.78a5.93,5.93,0,0,0-1.11-1.18c-2.93-3.76-5.8-7.56-8.77-11.28a22,22,0,0,0-11-7.34,200.85,200.85,0,0,1-25.58-9.39c-1.93-.91-3.66-2.19-5.59-3.11a21.57,21.57,0,0,0-6.52-2.16,5.18,5.18,0,0,1-2.16-.73c-3-2-6.14-3.84-9-6.07a2,2,0,0,1-.24-.43,1.86,1.86,0,0,1-.09-.47,11.1,11.1,0,0,0-.22-5.94c.09-.68.34-1.49-.9-1.08a2.83,2.83,0,0,1-.4.17,1.32,1.32,0,0,1-.44,0c-1-.37-1.78-1.1-2.77-1.46-2.43-1.43-5.15-2.21-7.67-3.41a1.55,1.55,0,0,1-.46-.62,14.8,14.8,0,0,1,.81-5.59,2.22,2.22,0,0,1,.1-.5,44.67,44.67,0,0,1,6.87-16.37,19.21,19.21,0,0,1,2.78-3.44c5.62-5.19,8.49-11.84,10.19-19.1.54-2.29.93-4.62,1.41-6.92a3,3,0,0,1,.9-2l.15,0c.42-.2,1.17.3,1.28-.32s-.7-.45-1.07-.68a.85.85,0,0,1-.33-.35,20.76,20.76,0,0,1,.77-5.25,4.91,4.91,0,0,0,.3-1.2,30.71,30.71,0,0,1,.68-3.69,4.18,4.18,0,0,1,.1-.51c.41-2.79,1.13-5.53,1.6-8.31.52-3,1.2-6.07.71-9.19A24.79,24.79,0,0,0,240,92a11.16,11.16,0,0,0-.66-1.23l-.51-.76c-2.43-2.45-5.27-3.61-8.74-2.83a2,2,0,0,1-1.13,0c-.8-.47-.56-1.38-.89-2.05-.24-1.65-.95-3.17-1.27-4.79.35-1.13.36-2-1.23-2a3.1,3.1,0,0,1-1.33-.92c-2.61-2.88-5.84-3.56-9.51-2.66a2.72,2.72,0,0,1-.81.07c-.87-.11-1-.85-1.3-1.48A18.14,18.14,0,0,0,210,68.5c-3.25-3.79-7.28-4.78-12-3.32a4.48,4.48,0,0,0-1.23.42c-1.9.88-1.92.87-2.54-1.16-2.19-6.39-8.64-8.42-14.78-4.65-.65.29-1.19,1-2,.63a4.06,4.06,0,0,1-.83-2.1c-.91-3.46-2-6.79-4.78-9.32a8.69,8.69,0,0,0-2.44-1.63c-2.74-1.2-4.61-.29-5.43,2.66-.63,4.21-.8,8.48-1.69,12.65a5.42,5.42,0,0,0,0,1.14,4.88,4.88,0,0,1-.88,2.45,25.25,25.25,0,0,0-3.12,9.1c-.81,5.12-2.6,9.95-4.32,14.8-1.66,4.7-3.49,9.33-5.53,13.88a15.61,15.61,0,0,0,.5,14.65,3.74,3.74,0,0,0,.63,1.3,2.06,2.06,0,0,1,.23.44c4,7.48,8.14,14.85,12.11,22.33,1.5,2.83,3.31,5.52,4.13,8.71a18.18,18.18,0,0,1,.15,8.58c-.21.83-.33,1.72-1.24,2.14-1.19.25-2.08-.49-3-1-3.54-1.74-4.05-1.68-6.91,1-.81.68-.14,1.44-.1,2.17-.53,4-1.58,7.82-2.41,11.72-1.45,6.8-2.86,13.59-4.38,20.37-.64,1.6-.32,3.46-1.35,5a1.33,1.33,0,0,1-1,0c-2.18-.61-2.88-.27-3.43,1.93-.86,3.45-1.51,7-2.27,10.43-2.05,9.35-4,18.73-6.09,28.07-.23,1,.07,2.24-.94,3-1-.63-1.6-1.73-2.55-2.47-2.7-2.13-5.41-2.18-8.08,0-3.34,2.68-5.1,2.68-8.42,0-2.65-2.16-5.33-2.2-7.64,0a2.52,2.52,0,0,0,1.08-.41,5.36,5.36,0,0,1,6.27.69c3.58,3,5.64,2.93,9.26-.1a5,5,0,0,1,6-.57,18.37,18.37,0,0,1,4.08,3.28,16.47,16.47,0,0,1-.76,4.83c-1.78,8.33-3.62,16.66-5.38,25a4.63,4.63,0,0,1-1.17,2.82,7.72,7.72,0,0,1-3.45.95q-23.82,3.79-47.64,7.61c-2.43.39-4.85.83-7.29,1.16C66.5,287.74.73,296.58,0,296.15Z"/><path class="cls-2" d="M423.15,4.5c0-.1.77,0,.87.35a8.62,8.62,0,0,1,.19,2.77q0,36.18,0,72.35a6.3,6.3,0,0,0,.22,2.59,2.41,2.41,0,0,0,2.08.67c3.25,0,6.5-.12,9.74.09,1,.45.56,1.17.27,1.78a27.78,27.78,0,0,1-1.5,2.73,3.14,3.14,0,0,0,.12,3.65c4.46,7.39,8.76,14.87,13.14,22.31q3,5.08,6,10.17a2.62,2.62,0,0,1,.64,1.8c-.13.47-.88.69-.56,1.47.84-.43.31-1.74,1.34-1.89,4.76-.87,9.56-.43,14.35-.51a7.89,7.89,0,0,1,3.7.34,2,2,0,0,1,.71,1.75c.06.77,0,1.53,0,2.3q0,57.39-.05,114.8a5.35,5.35,0,0,0,2.79,5.16c18.07,11.49,123.78,88,126.78,91-1,0-94-.38-111.37-.38a4.25,4.25,0,0,0-2-1.59c-11.87-6.37-23.76-12.69-35.62-19.07-8.29-4.46-16.61-8.87-24.91-13.32-.69-.37-1.6-.55-1.74-1.56.82-1.29,2-.79,3.08-.55a4.73,4.73,0,0,1,1.79,1.13c2.13,1.72,3.87,1.76,6.08.13a5.89,5.89,0,0,1,2.71-1.46,5.66,5.66,0,0,1,3.33.71,4.33,4.33,0,0,0-5.49,0,15.38,15.38,0,0,1-1.83,1.38,3.32,3.32,0,0,1-4-.38,6.11,6.11,0,0,0-7.07-1.33c-3.17-1-5.88-3-8.82-4.48a5.46,5.46,0,0,1-2.53-1.68c.26-1,1.05-.8,1.73-.76a5.22,5.22,0,0,1,3,1.51c2.12,1.74,4,1.74,6.08.07,2.72-2.16,4.07-2.16,6.83,0,2.13,1.67,4,1.68,6.08-.1,1.76-1.48,3.58-2.09,5.73-.83-2.09-1.23-3.5-1.14-5.26.25-2.79,2.21-4.24,2.23-7,.1-2.11-1.63-3.88-1.62-5.94,0-2.6,2.07-4.42,2.11-6.88,0a4.57,4.57,0,0,0-4.44-.91,3.87,3.87,0,0,1-1.11.24c-3.2-1.3-6.09-3.23-9.19-4.74a13,13,0,0,1-2.77-1.38,2.65,2.65,0,0,1,3.42-.49,12.23,12.23,0,0,1,1.88,1.32c2.16,1.52,3.8,1.5,5.85-.09,2.73-2.12,4-2.14,6.71-.11,2.44,1.8,4.09,1.74,6.49-.22,2.07-1.7,3.78-1.73,5.93-.1,2.9,2.2,4.28,2.18,7.14-.1,1.65-1.32,3-1.41,5.18-.36-1.78-1.28-3.46-1.32-5.06.15-2.18,2-4.49,2.46-7.14.15-2.08-1.8-3.93-1.62-6.05.12-2.4,2-4,2-6.46.12s-4.11-1.9-6.61.08c-2.19,1.73-4,1.8-6,0a5.59,5.59,0,0,0-6.09-1c-10.12-5.52-20.32-10.87-30.45-16.36-.63-.34-1.25-.68-1.89-1-2-.94-2.54-.8-3.84,1a1.27,1.27,0,0,1-2,.56,21,21,0,0,0-2.18-1.08c-10.19-5.53-20.44-11-30.64-16.45-2.78-1.5-4.76-.74-5.74,2.22A2.42,2.42,0,0,1,324,261c-.94.33-1.55-.34-2.25-.73-4.53-2.86-8.42-6.5-12.35-10.09-.49-.45-1.15-.89-.94-1.76l22-3.56L354,241.15l17-2.71c.38-.06.75-.17,1.13-.22a.75.75,0,0,0,.74-.87c0-.33,0-.66,0-1q0-10.26,0-20.53c0-.57.2-1.21-.3-1.71.72-1,1.22-.12,1.66.27,1.15,1,2.18,2.13,3.26,3.2l.93.92a1.26,1.26,0,0,0,2,0c.71-.74,0-1.23-.44-1.61-2.19-1.81-4.14-3.86-6.15-5.85a2.65,2.65,0,0,1-1.07-2.26V86a7.58,7.58,0,0,1,.08-2c.68-.53,1.48-.33,2.22-.33h45.43c.72,0,1.43,0,2.13,0a1.1,1.1,0,0,0,.55-.3c0-.49.05-1,.05-1.48V6"/><path class="cls-3" d="M132.8,244.76c.08-.14.24-.27.25-.41.37-4.14,1.57-8.11,2.41-12.16,2-9.54,4.09-19.05,6.16-28.58a11.86,11.86,0,0,1,.37-1.42,2.46,2.46,0,0,1,4.15-1.1l.39.3a2.88,2.88,0,0,1,2,1,128.74,128.74,0,0,0,23.31,15.27,222.52,222.52,0,0,0,32.2,13.6c3.48,1,7,1.75,10.57,2.53.82.17,1.63.4,2.45.58.58.08,1.13.28,1.71.36a4,4,0,0,1,3.85,3.11,2.85,2.85,0,0,1,0,1.09c-.7,3.58-1.63,7.12-2.19,10.73-.63,2.19-1.62,4.29-1.61,6.63-.39,2.49-1,4.93-1.55,7.37-1.57,8.11-3.41,16.17-5.15,24.24q-5.33,24.79-10.7,49.59a3.93,3.93,0,0,1-.88,2.25H112.38c-.68-.79-.37-1.67-.18-2.5,2.17-9.93,4.28-19.88,6.43-29.81,2-9.08,3.91-18.17,5.89-27.25a8.53,8.53,0,0,1,.48-1.73,2.73,2.73,0,0,1,.4-.6,2,2,0,0,1,.11-.2,52,52,0,0,0,1.64-7c1.2-5.25,2.27-10.52,3.4-15.79q1.06-4.95,2.15-9.89C132.63,244.9,132.66,244.81,132.8,244.76Z"/><path class="cls-3" d="M428.49,304.25a44.6,44.6,0,0,0,5,2.8q29,15.56,58.08,31.07l.87.47c.65.3.53.72.19,1.18H350.86c-.75-1.06-.07-2,.3-2.93a212.76,212.76,0,0,0,9-28.28,139,139,0,0,0,4-24.92c.11-2.19.3-4.37.24-6.55a14.68,14.68,0,0,1,.55-3c1.22-2.15,2.21-2.47,4.39-1.3q15.54,8.29,31.05,16.62c.44.24,1.11.29,1.08,1-.28,1.18.77.37,1.06.71a2.46,2.46,0,0,1,1.57.2c3.23,1.77,6.49,3.49,9.74,5.25a2.07,2.07,0,0,1,.46.43,4,4,0,0,1-5.41,2.1,12.77,12.77,0,0,1-2.16-1.49,3.85,3.85,0,0,0-5,0c2.11-1.21,3.92-.77,5.69.77,2.15,1.86,4,1.81,6.21.06.58-.45,1.1-1.13,2-.79a19.16,19.16,0,0,1,3.51,1.75c2.55,1.38,5.17,2.63,7.62,4.17a3.5,3.5,0,0,1-4.59,2.18,8.11,8.11,0,0,1-2.07-1.3c-2.2-1.69-4-1.69-6.28,0-2.9,2.15-3.81,2.14-6.63-.08a4.28,4.28,0,0,0-5.46-.32c2.19-1.11,4.1-.62,5.9.87,2,1.61,3.75,1.62,5.82.12,3.05-2.2,4.33-2.18,7.28.13a4.41,4.41,0,0,0,5.6-.1C427,304.62,427.49,303.73,428.49,304.25Z"/><path class="cls-2" d="M200.54,339.77a3.72,3.72,0,0,1,.15-1.62q8-36.79,15.88-73.61c.07-.32.09-.65.14-1,.68-1.54,2.09-1.33,3.38-1.41,1.24.36,1.57,1.64,2.44,2.38,1.48,1.72,1.48,1.72.25,3-4.08,3.32-4.69,8.43-1.54,13,.28.41.61.77.91,1.16l.42.53a4.26,4.26,0,0,1,.41.54,8.09,8.09,0,0,0,2.06,2.34c3.79,2.83,8.11,4.76,12.18,7.11,6.12,3.52,12.27,7,18.51,10.3s12.83,5.68,20,5c6.71-.61,12.94.77,19.07,3.17a52.21,52.21,0,0,1,8.87,4.61c.56.35,1.16.65,1.4,1.33,0,1.78-.9,3.35-1.22,5.06a13.2,13.2,0,0,0-.37,2.25,20.69,20.69,0,0,0-.42,2.22c-.08,2.07.51,3.72,2.6,4.54a5.76,5.76,0,0,1,1.53.9c.24.18.46.38.71.56a3.07,3.07,0,0,1,.36.27,33.53,33.53,0,0,0,3.81,2c2.51,1.44,5.15,2.66,7.63,4.16.44.27,1.06.42.93,1.16Z"/><path class="cls-2" d="M125.58,278q-5.55,25.75-11.12,51.53c-.66,3.1-1.33,6.19-2,9.29a7.77,7.77,0,0,0-.09,1c-15.79,0-96.59-.62-112.38-.62v-43c2.49-.65,70.07-9.52,72.6-9.95,6.52-1.08,13.05-2.11,19.57-3.16s13.06-2.06,19.59-3.11c4.58-.73,9.16-1.5,13.75-2.25h0c.1.05.14.11.13.18S125.61,278,125.58,278Z"/><path class="cls-4" d="M346.26,339.77H327.51c-6.91-2.63-13.41-6.15-20.08-9.31-3.07-1.45-3.69-3.41-2.19-6.44.92-1.87,1.48-3.89,2.52-5.7a.84.84,0,0,1,.63-.36c4.65,2.55,9.32,5,14,7.52.81.43,1.79.55,2.43,1.3a22.35,22.35,0,0,1,.54,3.24,4.23,4.23,0,0,0,2.7,4.11,5.12,5.12,0,0,0,5.29-.32c.68-.44,1.1-1.24,2-1.39,3.78,2.07,7.69,3.9,11.32,6.26C346.85,339.17,346.56,339.47,346.26,339.77Z"/><path class="cls-5" d="M346.26,339.77l.28-1c-.39-1,.17-1.82.5-2.66a214.91,214.91,0,0,0,9.28-28.53,139.77,139.77,0,0,0,4.22-26.2c.1-2,.26-4,.27-6.05,0-.7-.06-1.45.6-2a6.14,6.14,0,0,1,2.43,1.12c.76.54.82-.11,1.11-.44a116.38,116.38,0,0,1-2.09,24.78,209.48,209.48,0,0,1-11.55,39.23,2.77,2.77,0,0,0-.45,1.71Z"/><path class="cls-6" d="M308.08,318.38a40.94,40.94,0,0,1-2.33,5.75,8.67,8.67,0,0,0-.66,1.67,3.15,3.15,0,0,0,1.21,3.46,5.34,5.34,0,0,0,1.14.65l18.92,9c.44.21.93.36,1.15.86h-4.94c-3.81-1.29-7.16-3.55-10.83-5.13-1.29-.77-2.72-1.28-4-2.11h0c-.18-.19-.5-.14-.67-.36a10.69,10.69,0,0,0-2.55-1.39,3,3,0,0,1-1.72-2c-.44-1.64-.69-3.27.3-4.83.31-2.37,1.38-4.51,2.09-6.76a.72.72,0,0,1,.42-.26A3.49,3.49,0,0,1,308.08,318.38Z"/><path class="cls-7" d="M311.72,334.45c2.38.9,4.64,2.07,6.92,3.18.92.44,1.87.85,2.8,1.28.44.2.91.36,1.13.86h-2a10.19,10.19,0,0,0-2.21-1.4c-2.21-1.2-4.44-2.36-6.67-3.54a.22.22,0,0,1-.1-.25C311.65,334.5,311.68,334.45,311.72,334.45Z"/><path class="cls-8" d="M236.72,200.19a11.52,11.52,0,0,0,2.54.63,20.78,20.78,0,0,1,7.92,3,79.08,79.08,0,0,0,14,6.39c5.23,2,10.53,3.71,15.86,5.34a21.16,21.16,0,0,1,10.82,7.36c2.92,3.76,5.86,7.5,8.68,11.34,7,9.37,12.67,19.39,14.65,31.33a19.83,19.83,0,0,0,1.34-3.64c.7-2.37,1.86-3.05,4.17-2.29a12.5,12.5,0,0,1,4.3,1.95,1.5,1.5,0,0,1,.24.47,8.44,8.44,0,0,1-.45,3.23c-3.78,15.34-7.62,30.67-12.39,45.75-.36,1.12-.32,2.59-1.87,3a12.76,12.76,0,0,1-5.69-3.42,7,7,0,0,1-1.78-6.24,13.26,13.26,0,0,0,.16-3.85c-.61.05-.94.52-1.32.83a17.24,17.24,0,0,1-6.86,3.41,5.88,5.88,0,0,1-3.4.06c-4.58-1.7-9.2-1.27-13.93-.69a26.15,26.15,0,0,1-13.48-2.1c-3.75-1.59-5.44-4.8-5.63-8.75a6.26,6.26,0,0,1,5-6.6c.42-.11.85-.19,1.27-.31,2.61-.77,3.46-2.1,3-4.79a16.38,16.38,0,0,1-.38-4.24c.26-2.94,2.52-4.28,5.11-2.88,3.09,1.68,6.45,2.7,9.76,4.29-4.86-2.09-8.75-5.23-12.49-8.61a29,29,0,0,1-2-2.18,34.55,34.55,0,0,1-7.19-12.34,3.89,3.89,0,0,1-.12-.49,34.8,34.8,0,0,1-1.46-13.11,35.17,35.17,0,0,0-.32-9.5,11.19,11.19,0,0,0-4-6.24,33.2,33.2,0,0,0-12.48-7.06,37.84,37.84,0,0,1-14.58-8.64c-.92-1.07-1.69-2.25-2.58-3.35a20.94,20.94,0,0,1-3.2-7.49c-.61-3.39.06-6.31,3-8.39a3,3,0,0,1,3.1.13c2.22,3.84,6.28,5.29,9.77,7.46A12.9,12.9,0,0,0,236.72,200.19Z"/><path class="cls-8" d="M148.59,119.18a15,15,0,0,1-1.06-14.54c3-6.88,5.74-13.82,8-21a60,60,0,0,0,2.13-8.57A23.2,23.2,0,0,1,161,65.93,12.52,12.52,0,0,0,161.8,64c1.67-4.06,1.69-8.4,2.23-12.66a2.34,2.34,0,0,0-.5-1.83c.61-2.46,2.76-4,5.87-2.74a10.31,10.31,0,0,1,4.45,3.73,22.26,22.26,0,0,1,3.3,7.95c.15.63.28,1.27.41,1.91.85,1.07.52,2.3.37,3.45a34,34,0,0,1-1.87,8.08,12.19,12.19,0,0,1-5.24,6.47,5,5,0,0,1-2.47.74c-.87-.26-1.73-.85-2.64-.11-.19.08-.37-.09-.55,0,.21,0,.4.11.61.13.61.2,1.23.37,1.83.61.78.51,1.64.87,2.4,1.4a3,3,0,0,1,1,4.4,5.63,5.63,0,0,1-4.74,3c.75.21,1.42.42,1.42,1.33-.23.5-1,.43-1.18,1.27,1-.06.79-1.12,1.34-1.37,3.29.73,4.77,5.6,2.49,8.21-1.41,1.61-3.12,2.44-5.91,2.87a22.52,22.52,0,0,1,5.68-.25c.93,0,1.88.34,2,1.32.21,1.24,1,1.41,2,1.5,6.4.63,11.59,3.67,16.07,8.11a3.08,3.08,0,0,1,1.29,2.2c-.08.59-.89.58-1,1.27.72.37,1.09-.49,1.67-.49a1.77,1.77,0,0,1,1,.78c3.45,4.22,7.83,15.3,8.18,20.62-.1-.65.35-1.29.39-2a42.45,42.45,0,0,1,2.06-5.69c.29-.53.57-1.06.91-1.56,2.42-3.48,5.76-3.58,8.37-.24a13.1,13.1,0,0,0,1.9,2.23c1.7,1.38,3.24,1.48,4.91.1a11.6,11.6,0,0,1,5.8-2.46c.66.41,1.1,1.2,2,1.15a9.5,9.5,0,0,1,4.44,11.37A30.3,30.3,0,0,1,223,152.16a19,19,0,0,0-5.69,7.67,5,5,0,0,1-1.36,2.2,2.15,2.15,0,0,0-1.91,1.83c-2.39,1.91-5.26,2.58-8.34,3.16a33.65,33.65,0,0,0,3.71,2.9,6.91,6.91,0,0,1,3.2,6.9,9.56,9.56,0,0,1-1,4.25c-1.1.66-2-.06-2.93-.44q-8.1-3.4-16-7.16c-7.81-3.7-15.61-7.42-23.33-11.31-.91-.46-2-.82-2-2.13a6,6,0,0,1,.76-2.66c.66-1.09,1.6-1.73,2.9-1.21a18,18,0,0,0,8.86,1.18c.19,0,.44-.05.55.21-4.09-1.84-7.32-4.78-10.33-8-5.3-5.68-9.11-12.45-13.65-18.69-.7-1-1.65-1.77-1.91-3,.09-.45.9-.6.58-1.17-.23-.41-.79-.18-1.19-.29-1.34-.51-1.8-1.81-2.52-2.86s-1.28-2.26-2-3.33h0A7.5,7.5,0,0,1,148.59,119.18Z"/><path class="cls-9" d="M147.5,196.4l3-14.24q2-9.12,3.94-18.24c.62-.67.75-1.34,0-2a5.53,5.53,0,0,0,1-.85,3.76,3.76,0,0,1,5-1.09c1.43.68,2.77,1.54,4.27,2.08a1.26,1.26,0,0,1,1.23.46c.41.84,1.18.79,1.94.78a6.62,6.62,0,0,1,1.82.71c6.1,3,12.05,6.22,18.25,9a5.33,5.33,0,0,1,1.92,1.22,1.64,1.64,0,0,0,2,.9c2.19.39,4,1.67,6,2.55,4.18,1.85,8.37,3.69,12.6,5.43l.41.2.61.3c.81.36,1.64.67,2.44,1,.4.24.88.39.95,1-.16.72-.63,1.31-.81,2-.8,4-1.69,7.92-2.53,11.88a2.64,2.64,0,0,1-.8,1.75,2.36,2.36,0,0,1-1.88-.06,4.81,4.81,0,0,0-4.93,1.49,6.86,6.86,0,0,0-1.82,6.53c.08,2.87,2.1,3.94,4.42,4.73.95.28,1.62.86,1.41,1.9-.81,3.95-1.3,8-2.77,11.79-.79.77-1.65.35-2.46.07a227.92,227.92,0,0,1-21.5-8.63,154.66,154.66,0,0,1-28.74-16.83q-2-1.54-3.94-3.23A2.34,2.34,0,0,1,147.5,196.4Z"/><path class="cls-2" d="M287.75,91.24c3.5,3.52,7.1,6.94,10.48,10.57,0,0,0,.09.07.14.18.39-.21,1,.28,1.18s.57-.56,1-.68a5.35,5.35,0,0,0,1.5,2.09q3.44,3.4,6.85,6.84c.92.92.92,1,.08,1.8q-10.74,10.74-21.49,21.47c-.89.89-.94.89-1.83,0q-10.76-10.73-21.49-21.47c-.79-.8-.79-.83.06-1.67Q274,100.76,284.73,90c.56-.56,1-1,1.69-.13C286.25,90.94,286.64,91.44,287.75,91.24Z"/><path class="cls-10" d="M167.66,90c-.53-.85-1.53-1-2.44-1.54.8-.18,1.46-.31,2.11-.48a5.23,5.23,0,0,0,3.45-3,2.53,2.53,0,0,0-1.08-3.49,20.93,20.93,0,0,0-1.89-1,.75.75,0,0,1-.45-.62,1,1,0,0,1,.61-1.09c4-.78,6.16-3.53,7.54-7a30.94,30.94,0,0,0,2.05-11.38l1.57-1a8.21,8.21,0,0,1,.45,6.21c-.28.71-1.61,1.15-.59,2.22a2.93,2.93,0,0,1,.27,2.51,36.2,36.2,0,0,1-2,7.23,34.8,34.8,0,0,0-1.63,5.63,5.22,5.22,0,0,0,1.69,5.6,2.79,2.79,0,0,1,.88,1.16c.48,1.43.48,1.43,1.73.37a4.45,4.45,0,0,1,1.61-.29c3.24-.26,4.94-1.75,5.56-5,.59-3.06.94-6.17,1.37-9.26A19.22,19.22,0,0,1,191,68a4.66,4.66,0,0,0,.22-.45,4.28,4.28,0,0,1,.26-.42l.15-.19a23.17,23.17,0,0,1,1.46-2c.41-.4.76-1,1.5-.71.47.38.19,1,.55,1.53,1-.26,1.69-1.08,2.71-1.17.2.59-.24.91-.58,1.24a16.17,16.17,0,0,0-4.63,9.32,6.16,6.16,0,0,1-.77,2.8c-1.71.83-1.71.83-.48,2a3,3,0,0,1,0,2.08c-.77,4.36-1.63,8.69-2.45,13-.39,2.1-.44,4,1,5.72a1.94,1.94,0,0,1,.32.75c.25.57-.49,1.93,1.13,1.41a2.6,2.6,0,0,1,.42-.19,2,2,0,0,1,.48-.1,11.55,11.55,0,0,1,2.37.58,5,5,0,0,0,6.08-3.34c.92-2.78,1.73-5.6,2.54-8.41a2.68,2.68,0,0,1,.11-.49c1-2.94,1.77-6,2.74-8.93a21,21,0,0,1,3.47-7c.87-1.06,1.85-2,3.4-2,.44.35.1,1.25.93,1.32.15.71-.43.95-.84,1.26a12.75,12.75,0,0,0-4.64,7.48c-1.33,5.57-2.94,11.07-4.31,16.63a5.09,5.09,0,0,1-.69,1.82c-.41.57-1.47.79-1,1.85a3,3,0,0,1,.19.41,2.39,2.39,0,0,1,.12.46c-.23,4.13,1.44,6.66,5,7.71a5.08,5.08,0,0,0,4.52-.71,10.61,10.61,0,0,0,3.28-3.61c2.77-4.9,5.56-9.79,8.33-14.69.42-.75.78-1.59,1.8-1.75a1.19,1.19,0,0,1,.88.4c.65.9.11,1.69-.28,2.44-1.83,3.49-3.34,7.12-5.13,10.62-.2.39-.4.78-.56,1.18-.93,2.21-.46,3.31,1.79,4.23a10.47,10.47,0,0,0,13-3.85c.68-1,1.06-2.18,2.18-2.82a2.7,2.7,0,0,1,1.9.08.69.69,0,0,1,.2.43c-2.52,6.35-6.41,11.37-13.19,13.58a13.6,13.6,0,0,1-5.53.33,4.39,4.39,0,0,1-3.82-3.75,6.12,6.12,0,0,1,.1-3.58,8.46,8.46,0,0,1-1.86,3.4,9.27,9.27,0,0,0-1.87,1.37,11.14,11.14,0,0,1-7.08.16c-3.91-1.32-6.55-4.53-6.19-8.82-3.45,2.55-7.18,3.13-10.9,1-4.28-2.45-3.73-6.5-2.85-10.65a11.57,11.57,0,0,1-2.78,3.81c-1.14,1-2.64,1.54-3.8,2.54-.6,0-.72-.92-1.51-.75.14.87,1,.35,1.33.74a8.05,8.05,0,0,1,1.59.4,38,38,0,0,1,15.31,12.25A27.43,27.43,0,0,1,202,133.67a1.12,1.12,0,0,0,.2.33,24.91,24.91,0,0,1-.74,3.35,12.93,12.93,0,0,1-.86-3.29,57.71,57.71,0,0,0-5.26-14.4,25.92,25.92,0,0,0-3.35-5l-.18,0a1.25,1.25,0,0,1-.3-.21.7.7,0,0,1-.13-.52,24,24,0,0,0-7.41-6.59,24.32,24.32,0,0,0-12.23-3.52c-.3-.36,0-.57,0-.81.27-1.11-.08-1.7-1.22-1.79s-2.52-.08-3.78-.09-2.4,0-3.88,0l3.74-1.2a7.82,7.82,0,0,0,2.81-1.65,4,4,0,0,0,1.21-5,5.34,5.34,0,0,0-3-3.27Z"/><path class="cls-10" d="M202.17,134h-.32c-.22-1.94.27-3.92-.24-5.85a1,1,0,0,1,.34-.52c.36-.29,1.13-.18,1.05-.82s-.93-.32-1.33-.67-.53-.9-.67-1.43a25.93,25.93,0,0,0-5.29-10.81c-1.37-1.6-1-1.83.85-2.55,2.82-1.09,4.12.59,5.55,2.36.42,1.68.42,1.68,1.89.79a10.79,10.79,0,0,0,9.4.93,2.43,2.43,0,0,0,2.41-1.5c1-.44,1.3.29,1.56.94.9,2.27,2.63,3.13,5,3.21a27,27,0,0,0,9-1.3,6.2,6.2,0,0,1,6.77,2c.45.48.88,1,.58,1.72-.19,1.9-.64,3.76-1,5.64a.82.82,0,0,1,0,1.24,17.8,17.8,0,0,0-1.29,5.36,48.58,48.58,0,0,1-5,15,23.17,23.17,0,0,1-4.55,6.37C222.7,158,220,162.77,218,168a31.19,31.19,0,0,0-2.09,7.21c0,.09-.12.17-.19.26-.42-.18-.51-.82-1.21-.82.17.69.92.47,1.19.85l-1,5.87a3.75,3.75,0,0,1,0,.67,1,1,0,0,1-.21.4,1.16,1.16,0,0,1-.43.18,3.87,3.87,0,0,1-2.73-1.18.49.49,0,0,1,.06-.44c.13-1.58.7-3.09.72-4.69a6.18,6.18,0,0,0-2.77-5.76c-1.67-1.12-3.22-2.42-5-3.79l2.52-.49a17.2,17.2,0,0,0,6.13-2.23,2.28,2.28,0,0,1,1.06-.42,2.12,2.12,0,0,0,1.56-1.61,15.14,15.14,0,0,0,1.36-2.62,17.81,17.81,0,0,1,5.62-7.51,29,29,0,0,0,7.56-9.58A26.83,26.83,0,0,0,231.6,139a9.26,9.26,0,0,0-3-10.43l-1-.81c-.22-.93-.7-1.5-1.77-1.27a1.19,1.19,0,0,1-1,.66,7.29,7.29,0,0,0-4.38,2c-2.1,1.83-4.54,1.56-6.28-.64a14.85,14.85,0,0,0-2.87-3.11,3.58,3.58,0,0,0-5.34.66,14,14,0,0,0-2.38,4.27C203,131.53,202.6,132.77,202.17,134Z"/><path class="cls-8" d="M225.85,91.56c-.66.3-.88.94-1.2,1.51l-8.49,15a12,12,0,0,1-2.09,2.72c-2.83,2.73-5.75,2.95-9.3.32-2.35-1.74-3-4.22-2.25-7a4,4,0,0,0,.65-2.29c1.68-6.49,3.39-13,5-19.48A12.64,12.64,0,0,1,214,74.51c4.08-1.36,7.69-.68,10.71,2.51.37.39.73.79,1.1,1.19a12.11,12.11,0,0,0,1.31,1.85,19.47,19.47,0,0,1,1.44,5c.48,1.88-.67,3.3-1.38,4.84A7.87,7.87,0,0,0,225.85,91.56Z"/><path class="cls-8" d="M191.65,78.1c.3-1.61.55-3.23.91-4.82a14.36,14.36,0,0,1,5-8.23,1.91,1.91,0,0,0,.31-.38c6.18-2,11.59.57,14.35,6.39.33.69.55,1.42.83,2.13-3.68,1.88-5.11,5.35-6.29,9-.89,2.75-1.69,5.53-2.52,8.29a1.83,1.83,0,0,1-.39.89c-.42-.07-.59-.68-1.2-.48.17.61.82.41,1.13.7a13.62,13.62,0,0,1-.89,3.31c-.51,1.79-1.11,3.55-1.56,5.35a5.52,5.52,0,0,1-6.76,3.68c-.89-.25-1.77-.56-2.65-.84-.61-.33-1.22-.65-1.83-1-.09-.52-.52-.82-.82-1.2a5.11,5.11,0,0,1-1.07-4.44c1-5.14,1.91-10.3,2.87-15.45.06-.32.2-.63-.09-.91A4.89,4.89,0,0,1,191.65,78.1Z"/><path class="cls-8" d="M194.63,64.31c-1.23.68-1.72,2-2.68,2.93-.48-.08-.79-.63-1.44-.43,0,.71.82.62,1.07,1a24.62,24.62,0,0,0-2.49,7.39c-.44,3.17-.92,6.34-1.36,9.52-.59,4.26-3.41,6.06-6.74,5.84-.38,0-.76,0-1.14,0a3.62,3.62,0,0,1-1.89-.39c-.13-.55-.65-.71-1-1a5.17,5.17,0,0,1-2-5.39,33.88,33.88,0,0,1,1.84-6.62,32.21,32.21,0,0,0,2-7.91c.06-.49.19-1-.37-1.29a2.86,2.86,0,0,0,.69-2.08c.38-2.17,0-4.35,0-6.52.46-.3.89-.63,1.37-.9a10,10,0,0,1,13.66,4.27A3.09,3.09,0,0,1,194.63,64.31Z"/><path class="cls-8" d="M238,103.75c-.53.19-.64.71-.88,1.13a18,18,0,0,1-2.7,3.69c-3.56,3.6-8.56,3.78-12.76,1.89-2.09-.93-2.5-2.38-1.44-4.59,1.95-4.09,4-8.15,5.93-12.24.24-.51.77-1,.37-1.66.35-.6.9-1.09.94-1.85.49-1.07.58-2.37,1.72-3.07a6.43,6.43,0,0,1,4.43-.51c2.25.55,4.36,1.34,5.72,3.39-.16.41-.69.54-.84,1.07.6.3.85-.43,1.3-.4a2.07,2.07,0,0,1,.56,1c.61,3.51-.21,6.81-1.43,10.06C238.38,102.26,238.39,103.09,238,103.75Z"/><path class="cls-5" d="M147.5,196.4a2.43,2.43,0,0,0,1,1.92,118,118,0,0,0,20.27,13.84,205.1,205.1,0,0,0,31.69,14.14,20.34,20.34,0,0,0,4.36,1.4.84.84,0,0,1,.27.46c-.2,1.24.24,2.72-1.27,3.48a82.38,82.38,0,0,1-8.52-2.94,187.54,187.54,0,0,1-36-17.73,102.24,102.24,0,0,1-12.72-9.58A29.14,29.14,0,0,1,147.5,196.4Z"/><path class="cls-10" d="M149.23,120.19c.59.25.82.83,1.16,1.3a42.36,42.36,0,0,0,3.42,4.67,1.75,1.75,0,0,1,.65,1.68,6.23,6.23,0,0,1,1.61,1.82c3.37,4.85,6.66,9.76,10.11,14.54a47.22,47.22,0,0,0,11.18,11.21,32.3,32.3,0,0,0,3.6,2,9.42,9.42,0,0,1-3.55.52,15.74,15.74,0,0,1-6.39-1.22c-1.37-.63-2.27-.26-2.83,1.17-.25.66-.39,1.36-.58,2-.11.21-.19.44-.43.54a1.35,1.35,0,0,1-1.49-.53,19.17,19.17,0,0,0-.32-8.75,17.55,17.55,0,0,0-1.26-3.18c-1.63-3-3.32-6-5-9q-4.69-8.64-9.34-17.29A3.08,3.08,0,0,1,149.23,120.19Z"/><path class="cls-10" d="M320.94,261.85l-3.36-1.31c-.51-.19-1-.41-1.55-.55-1.68-.43-2.47,0-2.87,1.71a18,18,0,0,1-1.61,4.46c-.15.27-.22.63-.67.73-.57-1.13-.4-2.41-.62-3.6a52.21,52.21,0,0,0-4.12-12.24A112.53,112.53,0,0,0,297.51,236a4,4,0,0,1-.95-1.69c1.41,1.06,2.22,2.64,3.32,4,1.93,2.35,3.8,4.74,5.64,7.17.86,1.13,2.19,1.8,2.93,3a56.72,56.72,0,0,0,6,5.64,69.28,69.28,0,0,0,7.5,5.82C321.85,260.68,321.82,261.48,320.94,261.85Z"/><path class="cls-11" d="M238.71,120.55a6,6,0,0,0-6.56-3.37c-.8.19-1.58.43-2.37.67a21.47,21.47,0,0,1-8,.66,5.27,5.27,0,0,1-5.05-3.75c-.2-.61-.43-.87-1-.48a.38.38,0,0,1-.39-.36c.85-1.68,1.71-3.35,2.57-5,0,1.37-.33,2.6-.29,3.91.1,3.12,1.69,4.71,4.75,4.78,6.07.15,10.31-3,13.69-7.59a43.92,43.92,0,0,0,3.65-6.21c.07-2.22,1.12-4.15,1.85-6.18.05-.15.27-.13.44-.09.63,1.29.3,2.67.3,4a17.11,17.11,0,0,1-1,5.57,20.58,20.58,0,0,1-3.86,6.68c-.82.95-1.13,1.78,0,2.76a6.56,6.56,0,0,1,1.53,3A1.14,1.14,0,0,1,238.71,120.55Z"/><path class="cls-12" d="M372.88,209.58c1.62,1.54,3.26,3.08,4.86,4.65a40.05,40.05,0,0,1,3.87,3.72,1.45,1.45,0,0,1-.16.33c-1.88,1.9-2,1.9-3.88.07-1.33-1.3-2.65-2.61-4-3.9-.27-.25-.51-.81-1-.33-1.78,1.69-3.58,3.35-5.31,5.09-.63.62-1.11.75-1.76.1-.43-.41-.92-.76-1.52-1.25l8.63-8.43C372.65,209.45,372.75,209.44,372.88,209.58Z"/><path class="cls-13" d="M98.57,28.09a5.28,5.28,0,0,1-1.73,3.85,3.45,3.45,0,0,0-.61,4.49,6,6,0,0,0,.72.88c2.15,2.38,2.15,4.93,0,7.32-1.71,1.91-1.72,3.6,0,5.5,2.21,2.45,2.29,4.94,0,7.26a3.83,3.83,0,0,0,0,5.66,4.71,4.71,0,0,1,.75,6.26,3.86,3.86,0,0,1-.76.85.6.6,0,0,1-.88,0,.53.53,0,0,1,0-.74c.19-.27.43-.5.61-.78a3.6,3.6,0,0,0-.19-4.28c-.23-.3-.53-.55-.78-.84a4.83,4.83,0,0,1,0-6.57c.18-.21.38-.39.56-.59a3.53,3.53,0,0,0-.09-5.15,5.32,5.32,0,0,1-1.74-3.76A4.44,4.44,0,0,1,96,43.91,4,4,0,0,0,96,38.09c-2.2-2.22-2.1-4.79,0-7.14,1.63-1.8,1.72-3.25.3-5.28-.06-.09-.15-.16-.21-.25-.19-.29-.32-.6,0-.86a.66.66,0,0,1,.89.11,4.71,4.71,0,0,1,1.45,2.69A5,5,0,0,1,98.57,28.09Z"/><path class="cls-13" d="M105.18,28.09a4.9,4.9,0,0,1-1.43,3.55c-2,2.15-2,3.67,0,5.85a4.8,4.8,0,0,1,0,6.94,4,4,0,0,0,0,5.93c2.09,2,2,4.74,0,6.91s-2,3.73,0,5.86a4.89,4.89,0,0,1,.45,6.44,1.7,1.7,0,0,1-.86.73.61.61,0,0,1-.6-.15.46.46,0,0,1-.07-.6c.17-.28.4-.52.58-.79a3.6,3.6,0,0,0-.28-4.67c-.18-.2-.39-.38-.57-.59a4.82,4.82,0,0,1,0-6.57c.11-.13.23-.24.34-.36,1.69-1.85,1.7-3.7,0-5.51a5.15,5.15,0,0,1-1.54-2.83,5,5,0,0,1,1.3-4.24c2-2.21,2-3.82,0-6a4.8,4.8,0,0,1,0-6.81c1.9-2.12,2-3.15.35-5.66-.18-.28-.41-.56-.12-.86s.71-.2,1,.05A5,5,0,0,1,105.18,28.09Z"/><path class="cls-14" d="M92.15,27.88a5.05,5.05,0,0,1-1.51,3.79,4,4,0,0,0-1.24,1.9,3.4,3.4,0,0,0,1,3.61,5.21,5.21,0,0,1,0,7.58,3.36,3.36,0,0,0,0,5.23,5.18,5.18,0,0,1,0,7.57c-1.72,1.61-1.64,3.64,0,5.36A5.05,5.05,0,0,1,92,67.69a4.37,4.37,0,0,1-1,2c-.31.36-.7.87-1.22.47s0-.84.25-1.22c1.34-1.89,1.23-3.39-.38-5.14-2.2-2.4-2.2-4.85,0-7.27,1.72-1.88,1.81-3.75,0-5.48a5.07,5.07,0,0,1-.06-7.31c1.84-1.8,1.74-3.69,0-5.64-2.12-2.35-2.12-4.83,0-7.16,1.7-1.86,1.8-3.26.38-5.26-.24-.35-.71-.69-.24-1.11s.89,0,1.23.38A4.86,4.86,0,0,1,92.15,27.88Z"/><path class="cls-15" d="M132.8,244.76a.37.37,0,0,0-.1.26,4.41,4.41,0,0,1-2.65-1.54,5,5,0,0,0-7.41-.08c-2.71,2.77-6.21,2.63-9-.05-2.21-2.09-4.39-2.22-6.75-.4a1.65,1.65,0,0,0-.24.22c-.37.33-.77.45-1.16.07s-.2-.81.12-1.15a6.13,6.13,0,0,1,3.9-1.91,6.06,6.06,0,0,1,4.81,1.66c.25.22.47.47.71.69a4.53,4.53,0,0,0,6.5-.09,7.41,7.41,0,0,1,3.48-2.05,6.23,6.23,0,0,1,5.14,1.08,19.85,19.85,0,0,0,2.42,1.95C133.13,243.73,132.65,244.32,132.8,244.76Z"/><path class="cls-6" d="M214.73,185.57l-1-.6a3.35,3.35,0,0,1,.59-2.64.47.47,0,0,1,.17,0c2.21,0,4,1.25,6,1.89.81.26,1.51.89,2.45.73a9.63,9.63,0,0,1,2.62,1.64,14.22,14.22,0,0,1,2,1c-.13.3-.25.58,0,.89a3.45,3.45,0,0,1,.51,3.36,6.39,6.39,0,0,1-.51,2c-1.19.43-1.75-.31-2.26-1.18-.24-3.05-.6-3.47-3.57-4.37-1.87-.56-3.73-1.15-5.55-1.85a3.38,3.38,0,0,1-.42-.13,2.2,2.2,0,0,1-.39-.17,2.12,2.12,0,0,1-.36-.21A.74.74,0,0,1,214.73,185.57Z"/><path class="cls-10" d="M239,119.52a1.35,1.35,0,0,1-.65-.7,7.33,7.33,0,0,0-2-2.76.9.9,0,0,1-.13-1.5,35.61,35.61,0,0,0,4.14-6c.28-.49.29-1.22,1-1.45a49.54,49.54,0,0,1-1.2,6.52c-.13.66.14,1.45-.48,2-.38-.21-.51-.8-1.16-.83.19.72.86.5,1.17.82A29.26,29.26,0,0,1,239,119.52Z"/><path class="cls-16" d="M163.53,49.5c.92,0,1.22.57,1.15,1.4-.12,1.29-.25,2.58-.4,3.87-.18,1.5-.39,3-.58,4.5A7.93,7.93,0,0,1,161.8,64a39.3,39.3,0,0,1,.61-6.13A81.06,81.06,0,0,1,163.53,49.5Z"/><path class="cls-17" d="M242,97.51a48.33,48.33,0,0,1-2,5.72c-.09.19-.21.37-.31.55l-.1-.08c-.45-.62-.77-1.32-1.21-1.94A31.6,31.6,0,0,0,240,94c.07-.81.21-1.61.31-2.41C241.15,93.5,242,95.38,242,97.51Z"/><path class="cls-18" d="M225.5,192.5a3.77,3.77,0,0,0,2,1.33h0a1.35,1.35,0,0,1,.28.35c3,2,6.05,3.87,8.93,6a8.67,8.67,0,0,1-5-1.71c-2.07-1.32-4.06-2.78-6.15-4.07a2.43,2.43,0,0,1-1.36-2.54C224.9,191.53,225.22,192,225.5,192.5Z"/><path class="cls-19" d="M222.91,185c-.33.46-.77.35-1.18.19-2.42-1-5-1.62-7.29-2.81a1.15,1.15,0,0,1,0-.32c.12-.27.23-.55.62-.41A42.61,42.61,0,0,1,222.91,185Z"/><path class="cls-20" d="M229.18,87.05a27.28,27.28,0,0,1-1.35,3.26.74.74,0,0,1-1-.43,5,5,0,0,1,1.06-2.47,4.56,4.56,0,0,0,.71-2.39C229.12,85.59,228.49,86.52,229.18,87.05Z"/><path class="cls-21" d="M251.8,186.8a1.1,1.1,0,0,1-2.19,0,1.09,1.09,0,0,1,1-1.09A1.16,1.16,0,0,1,251.8,186.8Z"/><path class="cls-22" d="M273.59,186.74a1.15,1.15,0,0,1,1.25-1.06,1.09,1.09,0,1,1-.3,2.15A1.08,1.08,0,0,1,273.59,186.74Z"/><path class="cls-21" d="M335.71,186.79a1.09,1.09,0,0,1-2.18,0,1.07,1.07,0,0,1,1-1.09A1.13,1.13,0,0,1,335.71,186.79Z"/><path class="cls-22" d="M359.67,186.74a1.1,1.1,0,0,1-2.19.09,1.09,1.09,0,0,1,.94-1.15A1.15,1.15,0,0,1,359.67,186.74Z"/><path class="cls-21" d="M250.57,77.89A1.13,1.13,0,0,1,251.79,79a1.06,1.06,0,0,1-1,1.07A1.1,1.1,0,0,1,249.61,79,1.11,1.11,0,0,1,250.57,77.89Z"/><path class="cls-21" d="M250.78,101.84a1.09,1.09,0,0,1-.16,2.18,1.09,1.09,0,0,1-1-1.24A1.11,1.11,0,0,1,250.78,101.84Z"/><path class="cls-23" d="M334.59,77.88a1.12,1.12,0,0,1,1.1,1.2,1.07,1.07,0,0,1-1.1,1,1.09,1.09,0,0,1,0-2.18Z"/><path class="cls-21" d="M334.57,104a1.09,1.09,0,0,1,.06-2.18,1.07,1.07,0,0,1,1.06,1A1.12,1.12,0,0,1,334.57,104Z"/><path class="cls-21" d="M358.63,77.88a1.09,1.09,0,1,1-.14,2.18,1.13,1.13,0,0,1-1-1.25A1.12,1.12,0,0,1,358.63,77.88Z"/><path class="cls-21" d="M359.67,102.88a1.1,1.1,0,0,1-2.2.13,1.1,1.1,0,0,1,2.2-.13Z"/><path class="cls-24" d="M274.75,128a1.13,1.13,0,0,1-1.15-1.11,1.06,1.06,0,0,1,1-1.06,1.12,1.12,0,0,1,1.16,1.1A1.11,1.11,0,0,1,274.75,128Z"/><path class="cls-21" d="M275.8,79a1.11,1.11,0,0,1-2.21,0,1.11,1.11,0,0,1,1.18-1.07A1.14,1.14,0,0,1,275.8,79Z"/><path class="cls-24" d="M359.67,126.88a1.09,1.09,0,0,1-1,1.08,1.11,1.11,0,0,1-1.22-1,1,1,0,0,1,.95-1.12A1.12,1.12,0,0,1,359.67,126.88Z"/><path class="cls-25" d="M263.75,78.93a1,1,0,0,1-1.08,1.12,1,1,0,0,1-1-1,1,1,0,0,1,1.08-1.13A1,1,0,0,1,263.75,78.93Z"/><path class="cls-21" d="M310.54,101.85a1.13,1.13,0,0,1,1.17,1.12,1.07,1.07,0,0,1-1,1,1.11,1.11,0,0,1-1.14-1.11A1.13,1.13,0,0,1,310.54,101.85Z"/><path class="cls-26" d="M322.69,101.84a1.08,1.08,0,0,1,1,1.25,1,1,0,0,1-1.11.92,1,1,0,0,1-1-1.07A1.12,1.12,0,0,1,322.69,101.84Z"/><path class="cls-27" d="M370.51,104a1,1,0,0,1-1-1,1,1,0,1,1,2.09-.18A1.09,1.09,0,0,1,370.51,104Z"/><path class="cls-28" d="M358.51,163.91a1.1,1.1,0,0,1-1-1.22,1,1,0,0,1,1.12-.94,1.08,1.08,0,0,1,1.06,1.05A1.15,1.15,0,0,1,358.51,163.91Z"/><path class="cls-29" d="M226.77,66a1.06,1.06,0,0,1,1,1.15,1,1,0,0,1-1.09,1,1,1,0,0,1-1.06-1A1.08,1.08,0,0,1,226.77,66Z"/><path class="cls-28" d="M275.79,162.88a1.13,1.13,0,0,1-1.24,1,1.06,1.06,0,0,1-.95-1.13,1.1,1.1,0,0,1,1.22-1A1.17,1.17,0,0,1,275.79,162.88Z"/><path class="cls-27" d="M335.7,162.73a1.14,1.14,0,0,1-1.12,1.18,1.06,1.06,0,0,1-1.05-1,1.09,1.09,0,0,1,2.17-.15Z"/><path class="cls-29" d="M310.62,151.9a1.07,1.07,0,0,1-1.08-1,1.1,1.1,0,0,1,1.13-1.09,1.06,1.06,0,0,1,1,1.18A1,1,0,0,1,310.62,151.9Z"/><path class="cls-25" d="M311.71,79.12a1.07,1.07,0,0,1-1.06.94,1.11,1.11,0,0,1-1.11-1.15,1.07,1.07,0,0,1,1.07-1A1.13,1.13,0,0,1,311.71,79.12Z"/><path class="cls-26" d="M358.59,113.88a1,1,0,0,1,1.06,1,1.08,1.08,0,0,1-1.11,1.11,1.06,1.06,0,0,1-1.06-1.16A1,1,0,0,1,358.59,113.88Z"/><path class="cls-30" d="M310.58,137.79a1.07,1.07,0,0,1,1.12,1.1,1,1,0,0,1-1,1,1.1,1.1,0,0,1-1.14-1.09A1.13,1.13,0,0,1,310.58,137.79Z"/><path class="cls-29" d="M311.71,67.11a1,1,0,0,1-1,1,1,1,0,0,1-1.11-1.1,1,1,0,0,1,1.05-1A1.08,1.08,0,0,1,311.71,67.11Z"/><path class="cls-31" d="M251.79,174.88a1.09,1.09,0,1,1-1.15-1.13A1.1,1.1,0,0,1,251.79,174.88Z"/><path class="cls-25" d="M346.71,80.06a1.1,1.1,0,0,1-1.17-1.1,1,1,0,0,1,1-1.06,1,1,0,0,1,1.12,1.1A1,1,0,0,1,346.71,80.06Z"/><path class="cls-32" d="M202.65,42a1.09,1.09,0,0,1,1.18,1.09,1,1,0,0,1-1,1.06A1.08,1.08,0,0,1,201.7,43,1,1,0,0,1,202.65,42Z"/><path class="cls-32" d="M214.78,42a1,1,0,0,1,1,1,1.06,1.06,0,0,1-1,1.19,1,1,0,0,1-1.08-1A1.08,1.08,0,0,1,214.78,42Z"/><path class="cls-28" d="M250.67,89.9A1.08,1.08,0,0,1,251.78,91a1.09,1.09,0,0,1-2.16,0A1.07,1.07,0,0,1,250.67,89.9Z"/><path class="cls-25" d="M334.75,113.89a1,1,0,0,1,.94,1,1,1,0,0,1-1.12,1.08,1.08,1.08,0,0,1-1-1.17A1.1,1.1,0,0,1,334.75,113.89Z"/><path class="cls-25" d="M383.65,79a1.1,1.1,0,0,1-2.19-.08,1.08,1.08,0,0,1,1-1.06A1.14,1.14,0,0,1,383.65,79Z"/><path class="cls-33" d="M274.63,44.14a1.09,1.09,0,0,1,.09-2.17,1.08,1.08,0,0,1,1.06,1A1.14,1.14,0,0,1,274.63,44.14Z"/><path class="cls-29" d="M383.64,67a1.05,1.05,0,0,1-1,1.11,1.07,1.07,0,0,1-1.22-1,1.09,1.09,0,0,1,2.18-.12Z"/><path class="cls-32" d="M298.64,42a1.09,1.09,0,0,1,1.05,1.23,1,1,0,0,1-1.12.93,1.06,1.06,0,0,1-1-1.22A1,1,0,0,1,298.64,42Z"/><path class="cls-34" d="M262.68,125.79a1,1,0,0,1,1.05,1,1,1,0,0,1-.92,1.15,1.06,1.06,0,0,1-1.16-1.08A1,1,0,0,1,262.68,125.79Z"/><path class="cls-25" d="M334.6,44.15a1.11,1.11,0,0,1-1.07-1,1.09,1.09,0,0,1,1.1-1.14,1,1,0,0,1,1.06,1A1.11,1.11,0,0,1,334.6,44.15Z"/><path class="cls-35" d="M165.69,160a5,5,0,0,1,1.57.36,1,1,0,0,1,.05,1.34,2.18,2.18,0,0,1-1.64.93,2.27,2.27,0,0,1-1-.54C165.46,161.58,165.24,160.61,165.69,160Z"/><path class="cls-33" d="M358.59,44.14a1.08,1.08,0,0,1-1.1-.94,1.1,1.1,0,0,1,1-1.23,1.09,1.09,0,1,1,.09,2.17Z"/><path class="cls-25" d="M154.78,77.88a1.09,1.09,0,0,1,.12,2.18A1.08,1.08,0,0,1,153.77,79C153.78,78.32,154.17,78,154.78,77.88Z"/><path class="cls-32" d="M394.54,42a1.06,1.06,0,0,1,1.06,1.16,1.06,1.06,0,0,1-2.12,0A1.08,1.08,0,0,1,394.54,42Z"/><path class="cls-30" d="M190.77,54a1.07,1.07,0,1,1,0,2.14,1,1,0,0,1-1.07-1A1.07,1.07,0,0,1,190.77,54Z"/><path class="cls-30" d="M227.83,55a1.09,1.09,0,0,1-1.2,1.07,1.06,1.06,0,1,1,.24-2.11A1,1,0,0,1,227.83,55Z"/><path class="cls-25" d="M371.62,186.87a1,1,0,0,1-1,1,1,1,0,0,1-1.09-1.12,1,1,0,0,1,1-1.05A1.11,1.11,0,0,1,371.62,186.87Z"/><path class="cls-36" d="M227.12,80.06c-1.37-.29-1.49-.46-1.31-1.85a.94.94,0,0,0,.15-.06c.64-.35,1.26-.41,1.7.28S227.68,79.64,227.12,80.06Z"/><path class="cls-30" d="M310.57,54a1.08,1.08,0,0,1,1.13,1.09,1,1,0,0,1-1,1A1.11,1.11,0,0,1,309.53,55,1.16,1.16,0,0,1,310.57,54Z"/><path class="cls-25" d="M347.66,186.77a1,1,0,0,1-1,1.07,1.08,1.08,0,0,1-1.14-1.09,1.05,1.05,0,0,1,1-1.08A1.07,1.07,0,0,1,347.66,186.77Z"/><path class="cls-26" d="M322.66,187.84a1.08,1.08,0,0,1-1.1-1.12,1,1,0,0,1,1-1.05,1.05,1.05,0,0,1,1.08,1.13A1,1,0,0,1,322.66,187.84Z"/><path class="cls-25" d="M310.67,187.85a1.14,1.14,0,0,1-1.14-1.13,1.09,1.09,0,0,1,1.05-1.05,1.13,1.13,0,0,1,1.14,1.12A1.15,1.15,0,0,1,310.67,187.85Z"/><path class="cls-25" d="M286.61,185.67a1.1,1.1,0,0,1,1.13,1.15,1.05,1.05,0,1,1-2.1-.12A1,1,0,0,1,286.61,185.67Z"/><path class="cls-37" d="M299.7,126.82a1,1,0,0,1-.94,1.13,1.08,1.08,0,0,1-1.19-1,1.06,1.06,0,0,1,1.11-1.11A1,1,0,0,1,299.7,126.82Z"/><path class="cls-38" d="M383.64,55A1.09,1.09,0,1,1,382.58,54,1.15,1.15,0,0,1,383.64,55Z"/><path class="cls-25" d="M238.64,77.89A1.09,1.09,0,0,1,239.76,79a1,1,0,0,1-1,1,1.09,1.09,0,0,1-1.09-1.14A1,1,0,0,1,238.64,77.89Z"/><path class="cls-39" d="M238.78,187.84a1.07,1.07,0,0,1-1.12-1.15,1,1,0,0,1,1.05-1,1.06,1.06,0,0,1,1,1.17A1,1,0,0,1,238.78,187.84Z"/><path class="cls-32" d="M299.7,162.87a1,1,0,0,1-1,1,1.06,1.06,0,0,1-1.13-1.09,1,1,0,0,1,1-1.06A1.08,1.08,0,0,1,299.7,162.87Z"/><path class="cls-26" d="M358.58,92a1.05,1.05,0,0,1-1.1-1.12,1,1,0,0,1,1.06-1A1.08,1.08,0,0,1,359.65,91,1,1,0,0,1,358.58,92Z"/><path class="cls-28" d="M335.7,90.93A1.06,1.06,0,0,1,334.56,92a1,1,0,0,1-.05-2.09A1.06,1.06,0,0,1,335.7,90.93Z"/><path class="cls-26" d="M274.59,92a1,1,0,0,1-1-1,1.06,1.06,0,0,1,1.13-1.09,1,1,0,0,1,1,1A1.07,1.07,0,0,1,274.59,92Z"/><path class="cls-30" d="M310.72,30a1,1,0,0,1,1,1,1,1,0,0,1-1.17,1.06,1,1,0,0,1-1-1.11C309.59,30.4,310,30,310.72,30Z"/><path class="cls-40" d="M347.64,163a1,1,0,0,1-1.14.89,1,1,0,0,1-.92-1.28,1,1,0,0,1,1.2-.83A1,1,0,0,1,347.64,163Z"/><path class="cls-41" d="M335.7,31.17a1,1,0,0,1-1.07,1A1.08,1.08,0,0,1,333.54,31a1,1,0,0,1,1.15-.92A1,1,0,0,1,335.7,31.17Z"/><path class="cls-42" d="M322.59,163.91a1.08,1.08,0,1,1,.14-2.16,1.09,1.09,0,0,1-.14,2.16Z"/><path class="cls-43" d="M383.64,31.05a1.06,1.06,0,0,1-1,1.06,1,1,0,0,1-1.17-1.06,1,1,0,0,1,1-1C383.18,30,383.52,30.41,383.64,31.05Z"/><path class="cls-44" d="M311.71,162.76a1.11,1.11,0,0,1-1.13,1.14,1.07,1.07,0,0,1-1-1.05,1.13,1.13,0,0,1,1.14-1.11A1.08,1.08,0,0,1,311.71,162.76Z"/><path class="cls-45" d="M154.83,42a1,1,0,0,1,1,1,1,1,0,0,1-1,1.1A1,1,0,0,1,153.79,43,1,1,0,0,1,154.83,42Z"/><path class="cls-46" d="M167.92,43.08a1.1,1.1,0,0,1-1,1.05,1.08,1.08,0,0,1-1.14-1.1,1.07,1.07,0,0,1,1-1.05A1.14,1.14,0,0,1,167.92,43.08Z"/><path class="cls-47" d="M178.81,44.14c-.61-.08-1-.36-1.05-1a1,1,0,0,1,.92-1.13,1.05,1.05,0,0,1,1.16,1.08A1.07,1.07,0,0,1,178.81,44.14Z"/><path class="cls-41" d="M191.86,43a1.13,1.13,0,0,1-1.12,1.13,1.05,1.05,0,0,1-1.05-1A1.12,1.12,0,0,1,190.8,42,1.14,1.14,0,0,1,191.86,43Z"/><path class="cls-41" d="M226.75,42a1.11,1.11,0,0,1,1.07,1.22,1.05,1.05,0,0,1-1.13.94,1.09,1.09,0,0,1-1-1.21A1.05,1.05,0,0,1,226.75,42Z"/><path class="cls-46" d="M250.78,42a1.09,1.09,0,0,1,1,1.23,1.09,1.09,0,0,1-2.16-.15A1.12,1.12,0,0,1,250.78,42Z"/><path class="cls-45" d="M263.74,43a1,1,0,0,1-1,1.07,1,1,0,0,1-1.08-1,1,1,0,1,1,2.08-.1Z"/><path class="cls-48" d="M287.73,43.05a1,1,0,0,1-1,1.06,1,1,0,0,1-1.07-1A1,1,0,0,1,286.72,42,1.07,1.07,0,0,1,287.73,43.05Z"/><path class="cls-41" d="M310.72,44.14A1.13,1.13,0,0,1,309.55,43a1,1,0,0,1,1-1,1.08,1.08,0,0,1,.14,2.16Z"/><path class="cls-32" d="M323.66,43c0,.71-.39,1.1-1,1.11a1,1,0,0,1-1.08-1A1,1,0,0,1,322.67,42,1,1,0,0,1,323.66,43Z"/><path class="cls-45" d="M346.62,42a1,1,0,0,1,1,1,1,1,0,0,1-.89,1.16,1.06,1.06,0,0,1-1.19-1A1.09,1.09,0,0,1,346.62,42Z"/><path class="cls-48" d="M371.61,43.07a1,1,0,0,1-1,1,1,1,0,0,1-1.05-1,1,1,0,1,1,2.09,0Z"/><path class="cls-37" d="M406.49,44.14c-.6-.11-1-.4-1.05-1.06a1.05,1.05,0,0,1,1.14-1.1,1,1,0,0,1,.95,1.12C407.52,43.76,407.11,44.07,406.49,44.14Z"/><path class="cls-49" d="M202.75,56.11a1,1,0,0,1-1-1.06,1,1,0,0,1,1-1.07,1.07,1.07,0,1,1,0,2.13Z"/><path class="cls-49" d="M215.82,55.1a1.06,1.06,0,1,1-2.11-.17,1,1,0,0,1,1.11-.93C215.46,54,215.78,54.44,215.82,55.1Z"/><path class="cls-46" d="M250.65,56.11a1.1,1.1,0,0,1-1-1.2,1.09,1.09,0,0,1,2.17.09A1.12,1.12,0,0,1,250.65,56.11Z"/><path class="cls-49" d="M298.55,56.11a1,1,0,0,1-1-1.08,1,1,0,0,1,1.18-1,1,1,0,0,1,.91,1.13A1,1,0,0,1,298.55,56.11Z"/><path class="cls-40" d="M394.59,54a1,1,0,0,1,1,1.05,1,1,0,0,1-1.17,1.06A1,1,0,0,1,393.5,55,1,1,0,0,1,394.59,54Z"/><path class="cls-50" d="M286.67,163.91a1,1,0,0,1-1-1.06,1,1,0,0,1,1-1.09,1,1,0,0,1,1.09,1.14A1,1,0,0,1,286.67,163.91Z"/><path class="cls-51" d="M250.66,68.08a1.06,1.06,0,0,1-1-1,1.09,1.09,0,1,1,2.17.08A1.05,1.05,0,0,1,250.66,68.08Z"/><path class="cls-40" d="M263.74,162.75a1,1,0,0,1-.94,1.14,1,1,0,0,1-1.15-1.07,1,1,0,0,1,1-1A1,1,0,0,1,263.74,162.75Z"/><path class="cls-51" d="M274.71,68.08a1,1,0,0,1-1.1-.92,1.08,1.08,0,0,1,1-1.2A1.11,1.11,0,0,1,275.78,67,1.08,1.08,0,0,1,274.71,68.08Z"/><path class="cls-51" d="M250.74,149.78a1.09,1.09,0,0,1,1,1.18,1.09,1.09,0,0,1-2.17-.08A1.09,1.09,0,0,1,250.74,149.78Z"/><path class="cls-51" d="M335.7,67a1,1,0,0,1-1,1,1.06,1.06,0,0,1-1.2-1,1,1,0,0,1,1-1.09A1.08,1.08,0,0,1,335.7,67Z"/><path class="cls-52" d="M250.57,163.9a1.08,1.08,0,0,1,.19-2.15,1.07,1.07,0,0,1,1,1.06A1.14,1.14,0,0,1,250.57,163.9Z"/><path class="cls-51" d="M358.55,68.08a1,1,0,0,1-1.07-1A1.07,1.07,0,0,1,358.57,66a1.05,1.05,0,0,1,1.08,1A1.07,1.07,0,0,1,358.55,68.08Z"/><path class="cls-40" d="M239.75,162.76a1,1,0,0,1-.93,1.13,1,1,0,0,1-1.16-1.08,1,1,0,0,1,1-1.05A1,1,0,0,1,239.75,162.76Z"/><path class="cls-51" d="M274.55,149.78a1.14,1.14,0,0,1,1.23,1.1,1.07,1.07,0,0,1-1.06,1,1.06,1.06,0,0,1-1.12-1.1A1,1,0,0,1,274.55,149.78Z"/><path class="cls-44" d="M226.72,163.91a1.07,1.07,0,0,1-1.05-1,1.11,1.11,0,0,1,1.06-1.18,1.06,1.06,0,0,1,1.09,1A1.11,1.11,0,0,1,226.72,163.91Z"/><path class="cls-24" d="M286.68,77.89a1.09,1.09,0,0,1,1.05,1.17,1,1,0,0,1-1.05,1,1,1,0,0,1-1-1.15A1.05,1.05,0,0,1,286.68,77.89Z"/><path class="cls-23" d="M298.62,77.89a1.09,1.09,0,0,1,1.07,1.21,1,1,0,0,1-1.09,1,1.08,1.08,0,0,1,0-2.16Z"/><path class="cls-24" d="M371.62,79.05a1,1,0,0,1-1,1A1,1,0,0,1,369.51,79a1,1,0,0,1,1-1.07A1.09,1.09,0,0,1,371.62,79.05Z"/><path class="cls-23" d="M395.62,79a1.1,1.1,0,0,1-1.16,1.07,1,1,0,0,1-1-1.08,1,1,0,0,1,1-1.07A1.09,1.09,0,0,1,395.62,79Z"/><path class="cls-45" d="M237.72,127.43v-1.24a4.08,4.08,0,0,1,.73-.35,1,1,0,0,1,1.13.45,1.08,1.08,0,0,1,0,1.25,1,1,0,0,1-1.32.28A3.92,3.92,0,0,1,237.72,127.43Z"/><path class="cls-53" d="M238.72,42a1,1,0,0,1,1,1,1,1,0,0,1-.89,1.17,1.07,1.07,0,1,1-.13-2.14Z"/><path class="cls-46" d="M250.78,128a1.12,1.12,0,0,1-1.17-1.09,1.07,1.07,0,0,1,1-1.07,1.12,1.12,0,0,1,1.17,1.08A1.1,1.1,0,0,1,250.78,128Z"/><path class="cls-46" d="M310.69,128a1.13,1.13,0,0,1-1.14-1.11,1.07,1.07,0,0,1,1-1.06,1.14,1.14,0,0,1,1.14,1.12A1.11,1.11,0,0,1,310.69,128Z"/><path class="cls-46" d="M250.65,139.93a1.11,1.11,0,0,1-1-1.2,1.09,1.09,0,0,1,2.17.09A1.12,1.12,0,0,1,250.65,139.93Z"/><path class="cls-51" d="M359.66,150.83a1.09,1.09,0,0,1-2.18.06,1,1,0,0,1,.95-1.1A1.11,1.11,0,0,1,359.66,150.83Z"/><path class="cls-49" d="M298.7,137.8a1,1,0,0,1,1,1.09,1,1,0,0,1-1,1,1,1,0,0,1-1.07-1.16A1.06,1.06,0,0,1,298.7,137.8Z"/><path class="cls-51" d="M335.7,150.88a1,1,0,0,1-1,1,1.06,1.06,0,0,1-1.17-1,1,1,0,0,1,1-1.07A1.09,1.09,0,0,1,335.7,150.88Z"/><path class="cls-54" d="M227.83,174.74a1,1,0,0,1-1,1.1,1,1,0,0,1-1.17-.88,1,1,0,0,1,1-1.2A1.06,1.06,0,0,1,227.83,174.74Z"/><path class="cls-54" d="M310.58,175.85a1,1,0,0,1,0-2.09,1.05,1.05,0,0,1,1.1,1.14A1.08,1.08,0,0,1,310.58,175.85Z"/><path class="cls-44" d="M334.67,175.86a1.05,1.05,0,0,1-1.13-1,1.08,1.08,0,1,1,2.15,0A1,1,0,0,1,334.67,175.86Z"/><path class="cls-55" d="M322.61,128c-.62-.12-1-.43-1.05-1.08a1.06,1.06,0,0,1,1.17-1.08,1,1,0,0,1,.92,1.15A1,1,0,0,1,322.61,128Z"/><path class="cls-24" d="M335.7,127a1.05,1.05,0,0,1-1.07,1,1.09,1.09,0,0,1-1.09-1.15,1.05,1.05,0,0,1,1.06-1A1.13,1.13,0,0,1,335.7,127Z"/><path class="cls-45" d="M346.53,125.8a1,1,0,0,1,1.1,1,1,1,0,0,1-.86,1.17,1,1,0,0,1-1.21-1A1,1,0,0,1,346.53,125.8Z"/><path class="cls-25" d="M263.75,186.71a1,1,0,0,1-.92,1.12,1.09,1.09,0,0,1-.27-2.16A1.1,1.1,0,0,1,263.75,186.71Z"/><path class="cls-21" d="M299.71,186.74a1.05,1.05,0,0,1-1,1.1,1.07,1.07,0,0,1-1.15-1.08,1.05,1.05,0,0,1,1-1.08A1.08,1.08,0,0,1,299.71,186.74Z"/><path class="cls-47" d="M371.61,126.84a1,1,0,0,1-1,1.1,1,1,0,0,1-1.07-1,1,1,0,1,1,2.08-.11Z"/><path class="cls-56" d="M311.7,115a1,1,0,0,1-1,1,1,1,0,0,1-1.14-1.09,1,1,0,0,1,1.08-1A1,1,0,0,1,311.7,115Z"/><path class="cls-25" d="M347.66,103a1,1,0,0,1-1,1,1.06,1.06,0,0,1-1.11-1.11,1,1,0,0,1,1-1A1.06,1.06,0,0,1,347.66,103Z"/><path class="cls-25" d="M263.75,103a1,1,0,0,1-1,1.06,1,1,0,0,1-1.12-1.09,1,1,0,0,1,1-1.07A1.1,1.1,0,0,1,263.75,103Z"/><path class="cls-41" d="M383.64,43a1.13,1.13,0,0,1-1.16,1.13,1.06,1.06,0,0,1-1-1.06,1.09,1.09,0,0,1,2.18-.07Z"/><path class="cls-30" d="M191.87,31.1a1.1,1.1,0,0,1-1.1,1A1.06,1.06,0,0,1,189.7,31a1,1,0,0,1,1.15-.92A1.05,1.05,0,0,1,191.87,31.1Z"/><path class="cls-30" d="M227.84,31a1.09,1.09,0,0,1-2.17,0,1,1,0,0,1,1.07-1A1,1,0,0,1,227.84,31Z"/><path class="cls-57" d="M311.7,91a1,1,0,0,1-1,1,1,1,0,0,1-1.17-.89,1.07,1.07,0,0,1,1.05-1.19A1.06,1.06,0,0,1,311.7,91Z"/><path class="cls-50" d="M371.59,163.08a1,1,0,0,1-1.14.81,1,1,0,0,1-.9-1.29,1,1,0,0,1,1.19-.82A1.09,1.09,0,0,1,371.59,163.08Z"/><path class="cls-24" d="M323.65,79.16a1,1,0,0,1-1.14.88,1,1,0,0,1-.95-1.13,1.06,1.06,0,0,1,1.24-1A1,1,0,0,1,323.65,79.16Z"/><path class="cls-58" d="M322.65,139.93a1.06,1.06,0,1,1,0-2.12,1,1,0,0,1,1,1.06A1,1,0,0,1,322.65,139.93Z"/><path class="cls-58" d="M370.42,56.1a1,1,0,0,1-.89-1.1,1,1,0,0,1,1-1,1,1,0,0,1,1,1.18A1.08,1.08,0,0,1,370.42,56.1Z"/><path class="cls-38" d="M358.52,54a1.07,1.07,0,0,1,1.12.94,1.1,1.1,0,0,1-1,1.2,1.09,1.09,0,0,1-1.13-1.1A1.07,1.07,0,0,1,358.52,54Z"/><path class="cls-58" d="M179.83,55.2a1,1,0,0,1-1.06.9,1,1,0,0,1-1-1.2.94.94,0,0,1,1.12-.9A1.06,1.06,0,0,1,179.83,55.2Z"/><path class="cls-55" d="M335.7,55a1.1,1.1,0,0,1-1.12,1.11,1,1,0,0,1-1-1,1,1,0,0,1,.94-1.09A1.09,1.09,0,0,1,335.7,55Z"/><path class="cls-55" d="M335.7,138.92a1.11,1.11,0,0,1-1.28,1,1.06,1.06,0,1,1,1.28-1Z"/><path class="cls-58" d="M322.67,54a1,1,0,0,1,1,1,1,1,0,0,1-1,1.1,1.05,1.05,0,0,1-1.13-1.1A1.08,1.08,0,0,1,322.67,54Z"/><path class="cls-47" d="M394.64,68.05c-.69,0-1.11-.31-1.14-.94a1,1,0,0,1,.91-1.14,1,1,0,0,1,1.19,1A1,1,0,0,1,394.64,68.05Z"/><path class="cls-58" d="M287.73,55.09a1,1,0,1,1-2.08-.14.93.93,0,0,1,1.08-1A1,1,0,0,1,287.73,55.09Z"/><path class="cls-38" d="M274.63,56.11a1.1,1.1,0,0,1-1-1.21,1,1,0,0,1,1.13-.92,1,1,0,0,1,1,1A1.13,1.13,0,0,1,274.63,56.11Z"/><path class="cls-38" d="M359.65,139a1.11,1.11,0,0,1-1.3.91,1,1,0,0,1-.86-1.18,1.08,1.08,0,0,1,1.29-.9A1.11,1.11,0,0,1,359.65,139Z"/><path class="cls-58" d="M370.6,139.93a1,1,0,0,1-1.07-1,1,1,0,0,1,.9-1.14,1.06,1.06,0,1,1,.17,2.12Z"/><path class="cls-44" d="M359.66,174.84a1.05,1.05,0,0,1-1,1,1,1,0,0,1-1.18-1,1,1,0,0,1,1-1.06A1.1,1.1,0,0,1,359.66,174.84Z"/><path class="cls-44" d="M274.51,173.76a1.11,1.11,0,0,1,1.26,1.05,1,1,0,0,1-1,1,1,1,0,0,1-1.16-1A1,1,0,0,1,274.51,173.76Z"/><path class="cls-59" d="M394.52,30a1,1,0,0,1,1.08.95,1,1,0,0,1-1.09,1.13,1,1,0,0,1,0-2.08Z"/><path class="cls-41" d="M358.53,30a1,1,0,0,1,1.12,1,1.1,1.1,0,0,1-1.1,1.13A1.07,1.07,0,0,1,357.48,31,1,1,0,0,1,358.53,30Z"/><path class="cls-60" d="M298.51,173.76a1,1,0,0,1,1.16.93.94.94,0,0,1-.88,1.14,1,1,0,0,1-1.21-1A1,1,0,0,1,298.51,173.76Z"/><path class="cls-59" d="M299.69,31a1,1,0,0,1-.95,1.07,1,1,0,0,1-1.16-1.05,1,1,0,0,1,1-1A1,1,0,0,1,299.69,31Z"/><path class="cls-26" d="M251.79,115a1,1,0,0,1-1,1,1,1,0,0,1-1.2-1,1,1,0,0,1,1-1.08A1.06,1.06,0,0,1,251.79,115Z"/><path class="cls-24" d="M406.57,77.89a1.07,1.07,0,0,1,1,1.25,1,1,0,0,1-1.11.9,1,1,0,0,1-1-1.06A1.11,1.11,0,0,1,406.57,77.89Z"/><path class="cls-41" d="M275.78,31a1.11,1.11,0,0,1-1.19,1.09,1,1,0,0,1-1-1.06,1.09,1.09,0,0,1,2.18,0Z"/><path class="cls-31" d="M250.66,30a1,1,0,0,1,1.12,1,1.06,1.06,0,0,1-1.13,1.12,1,1,0,0,1-1-1A1,1,0,0,1,250.66,30Z"/><path class="cls-59" d="M214.69,32.12a1,1,0,0,1-1-1,1,1,0,0,1,1.15-1.05.93.93,0,0,1,.94,1.09A1,1,0,0,1,214.69,32.12Z"/><path class="cls-59" d="M203.83,31.14a1.06,1.06,0,1,1-2.11-.2,1,1,0,0,1,1.14-.89A1,1,0,0,1,203.83,31.14Z"/><path class="cls-61" d="M299.57,102.45a4,4,0,0,0,0,.49.93.93,0,0,1-.6,1,1,1,0,0,1-1.14-.46.9.9,0,0,1,0-1.2c.12-.17.26-.34.4-.51A1.32,1.32,0,0,1,299.57,102.45Z"/><path class="cls-31" d="M166.7,32.12a1,1,0,1,1,.27-2.07,1,1,0,0,1,.92,1.13A1,1,0,0,1,166.7,32.12Z"/><path class="cls-47" d="M297.57,67a1,1,0,0,1,1-1A1,1,0,0,1,299.69,67a1,1,0,0,1-1,1A1,1,0,0,1,297.57,67Z"/><path class="cls-38" d="M274.63,139.93a1.1,1.1,0,0,1-1-1.2,1.09,1.09,0,0,1,2.17.1A1.13,1.13,0,0,1,274.63,139.93Z"/><path class="cls-47" d="M214.72,68.06a1,1,0,0,1-1-1A1,1,0,0,1,214.84,66a1,1,0,0,1,1,1.09C215.79,67.71,215.39,68,214.72,68.06Z"/><path class="cls-58" d="M287.73,138.81a1,1,0,0,1-1,1.1,1,1,0,0,1-1.13-1.07,1,1,0,0,1,1-1A1,1,0,0,1,287.73,138.81Z"/><path class="cls-47" d="M299.69,150.86a1,1,0,0,1-1,1,1,1,0,0,1-1.07-1,1.06,1.06,0,1,1,2.11,0Z"/><path class="cls-62" d="M227.49,187.56c-1.3.36-1.3.36-2-1h0a1.17,1.17,0,0,0,.27-.35c.4-.56.91-.8,1.52-.36A1,1,0,0,1,227.49,187.56Z"/><path class="cls-63" d="M406.5,54a1.06,1.06,0,0,1,.14,2.11,1,1,0,0,1-1.2-1A1.08,1.08,0,0,1,406.5,54Z"/><path class="cls-64" d="M239.75,138.92a1,1,0,0,1-1,1,1,1,0,0,1-1.06-1.14,1,1,0,0,1,2.08.15Z"/><path class="cls-65" d="M263.73,139a1,1,0,0,1-1,.94,1,1,0,0,1-1-1.17.94.94,0,0,1,1.11-.92A1,1,0,0,1,263.73,139Z"/><path class="cls-65" d="M346.62,139.93a1.06,1.06,0,1,1,0-2.12,1,1,0,0,1,1,1.06A1,1,0,0,1,346.62,139.93Z"/><path class="cls-47" d="M287.72,151a1,1,0,0,1-1.07.89.93.93,0,0,1-1-1,1,1,0,0,1,1.14-1.05A1.05,1.05,0,0,1,287.72,151Z"/><path class="cls-45" d="M322.54,149.78a1,1,0,0,1,1.1.95,1,1,0,0,1-.88,1.14,1.05,1.05,0,1,1-.22-2.09Z"/><path class="cls-47" d="M370.49,68.06a1,1,0,0,1-1-1.08,1,1,0,0,1,1-1,1,1,0,0,1,1,1.16A1,1,0,0,1,370.49,68.06Z"/><path class="cls-65" d="M154.86,54a1,1,0,0,1,1,1,1,1,0,0,1-1,1.05,1.05,1.05,0,1,1,0-2.1Z"/><path class="cls-64" d="M239.75,55.05a1,1,0,0,1-1,1.05A1,1,0,0,1,237.67,55a1,1,0,0,1,1.05-1A1,1,0,0,1,239.75,55.05Z"/><path class="cls-65" d="M262.71,54c.64.09,1,.41,1,1.06a1,1,0,0,1-1.16,1,1.05,1.05,0,0,1,.14-2.1Z"/><path class="cls-65" d="M346.65,54a1,1,0,0,1,1,1.09,1,1,0,0,1-1,1,1,1,0,0,1-1.05-1.15A1,1,0,0,1,346.65,54Z"/><path class="cls-47" d="M286.73,68.06a1.05,1.05,0,0,1-.19-2.09,1,1,0,0,1,1.18,1A1,1,0,0,1,286.73,68.06Z"/><path class="cls-66" d="M154.45,161.92c.54.09,1.28-.14,1.34.78s-.49,1.24-1.32,1.22C153.53,162.89,153.53,162.75,154.45,161.92Z"/><path class="cls-45" d="M322.69,68.06a1,1,0,1,1-.08-2.09,1,1,0,0,1,1,1A1,1,0,0,1,322.69,68.06Z"/><path class="cls-53" d="M407.53,67.07a.94.94,0,0,1-1,1,1,1,0,0,1-1-1A1,1,0,0,1,406.59,66,1,1,0,0,1,407.53,67.07Z"/><path class="cls-67" d="M239.79,90.6c-.1.76-.29,1.44-1.28,1.3a.87.87,0,0,1-.79-1.05c.11-1,.89-.92,1.61-.92Z"/><path class="cls-47" d="M370.61,151.87a1,1,0,0,1-1.08-.94,1,1,0,0,1,.89-1.14,1,1,0,0,1,1.18,1A1,1,0,0,1,370.61,151.87Z"/><path class="cls-65" d="M153.78,138.89a1,1,0,0,1,1-1.07.94.94,0,0,1,1.07,1,1,1,0,0,1-1.07,1.13A1,1,0,0,1,153.78,138.89Z"/><path class="cls-68" d="M262.75,173.76a1,1,0,1,1-.19,2.07.94.94,0,0,1-.89-1.12A1,1,0,0,1,262.75,173.76Z"/><path class="cls-69" d="M287.72,174.86a1,1,0,0,1-2.06,0,1,1,0,0,1,1-1.14A1,1,0,0,1,287.72,174.86Z"/><path class="cls-69" d="M322.68,173.76a1,1,0,0,1,1,1.07.94.94,0,0,1-1,1,1,1,0,1,1,.06-2.08Z"/><path class="cls-70" d="M346.64,92a1,1,0,0,1-1.07-1,1,1,0,0,1,1.07-1.11.94.94,0,0,1,1,1A1,1,0,0,1,346.64,92Z"/><path class="cls-71" d="M155.86,31.13a1,1,0,0,1-1,1,1,1,0,0,1-1.1-1.09,1,1,0,0,1,1.06-1A1,1,0,0,1,155.86,31.13Z"/><path class="cls-72" d="M322.6,89.91a1,1,0,0,1,.12,2.08,1,1,0,0,1-1.14-1A1,1,0,0,1,322.6,89.91Z"/><path class="cls-73" d="M347.64,174.78a1,1,0,0,1-2.07.13,1,1,0,0,1,1-1.15A1,1,0,0,1,347.64,174.78Z"/><path class="cls-74" d="M298.66,89.91a1,1,0,0,1,.11,2.08,1,1,0,0,1-1.19-1A1,1,0,0,1,298.66,89.91Z"/><path class="cls-69" d="M370.45,175.84a1,1,0,0,1-.91-1.08.94.94,0,0,1,1-1,1,1,0,0,1,1,1.16A1,1,0,0,1,370.45,175.84Z"/><path class="cls-75" d="M287.75,91.24c-.85.79-1.31.89-1.77.41s-.33-.94.44-1.76C287.34,89.87,287.77,90.33,287.75,91.24Z"/><path class="cls-76" d="M371.6,114.85a1,1,0,0,1-.92,1.1.94.94,0,0,1-1.14-.86,1,1,0,0,1,1-1.19A1,1,0,0,1,371.6,114.85Z"/><path class="cls-77" d="M347.65,67.1a1,1,0,0,1-1.09.94.94.94,0,0,1-1-1,1,1,0,0,1,1.16-1A1,1,0,0,1,347.65,67.1Z"/><path class="cls-77" d="M262.75,66a1,1,0,1,1-.19,2.08,1,1,0,0,1-.89-1.12A1,1,0,0,1,262.75,66Z"/><path class="cls-78" d="M346.62,116a1,1,0,0,1-1.05-1,1,1,0,0,1,1.08-1.1.94.94,0,0,1,1,1A1,1,0,0,1,346.62,116Z"/><path class="cls-77" d="M238.76,66a1,1,0,0,1,1,1.07,1,1,0,0,1-1.17,1,1,1,0,0,1-.89-1.13A1,1,0,0,1,238.76,66Z"/><path class="cls-76" d="M323.65,114.94a1,1,0,0,1-1,1,1,1,0,0,1-1-1.15,1,1,0,0,1,1.12-.91A1,1,0,0,1,323.65,114.94Z"/><path class="cls-70" d="M263.73,115a1,1,0,0,1-1,.93,1,1,0,0,1-1-1.15,1,1,0,0,1,1.11-.91A1,1,0,0,1,263.73,115Z"/><path class="cls-68" d="M238.79,175.84a1,1,0,0,1-1.12-.92,1,1,0,0,1,1-1.15,1,1,0,0,1,.08,2.07Z"/><path class="cls-77" d="M155.86,67a1,1,0,0,1-2.07.12A1,1,0,0,1,154.85,66,1,1,0,0,1,155.86,67Z"/><path class="cls-79" d="M407.53,31.1a1,1,0,0,1-1,1A1,1,0,0,1,405.45,31a1,1,0,0,1,2.08.12Z"/><path class="cls-79" d="M371.61,31a1,1,0,0,1-1,1.07A1,1,0,0,1,369.53,31a.94.94,0,0,1,1-1A1,1,0,0,1,371.61,31Z"/><path class="cls-70" d="M262.68,92a1,1,0,0,1-1-1,.94.94,0,0,1,1-1A1,1,0,0,1,263.73,91,1,1,0,0,1,262.68,92Z"/><path class="cls-71" d="M346.71,30.05a.94.94,0,0,1,.92,1.05,1,1,0,0,1-1,1A1,1,0,0,1,345.56,31,1,1,0,0,1,346.71,30.05Z"/><path class="cls-79" d="M322.68,30.05a.93.93,0,0,1,1,1,1,1,0,0,1-1,1.05,1,1,0,0,1-1.1-1.1A1,1,0,0,1,322.68,30.05Z"/><path class="cls-79" d="M287.73,31.07a1,1,0,0,1-1,1A1,1,0,0,1,285.66,31a.93.93,0,0,1,1-1A1,1,0,0,1,287.73,31.07Z"/><path class="cls-71" d="M262.7,32.12a1,1,0,1,1,.09-2.07.93.93,0,0,1,.93,1.08A1,1,0,0,1,262.7,32.12Z"/><path class="cls-71" d="M238.7,30c.64.05,1,.36,1,1a.94.94,0,0,1-.95,1.06A1,1,0,0,1,237.67,31,1,1,0,0,1,238.7,30Z"/><path class="cls-79" d="M179.83,31.21a1,1,0,0,1-1,.9,1,1,0,0,1-1-1.15,1,1,0,0,1,1.11-.91A1,1,0,0,1,179.83,31.21Z"/><path class="cls-77" d="M347.64,150.89a.94.94,0,0,1-1,1,1,1,0,0,1-1.1-.93,1,1,0,1,1,2.08,0Z"/><path class="cls-77" d="M262.71,149.78a1,1,0,0,1,1,1,1,1,0,0,1-1.13,1.06.94.94,0,0,1-.93-1.08A1,1,0,0,1,262.71,149.78Z"/><path class="cls-77" d="M239.74,150.81a1,1,0,0,1-2.07.12,1,1,0,0,1,1.06-1.14A1,1,0,0,1,239.74,150.81Z"/><path class="cls-77" d="M155.87,150.86a1,1,0,0,1-1,1,.94.94,0,0,1-1-1,1,1,0,0,1,1.11-1.08A1,1,0,0,1,155.87,150.86Z"/><path class="cls-72" d="M370.49,92a.93.93,0,0,1-.95-1,.94.94,0,0,1,.93-1.08A1,1,0,0,1,371.6,91,1,1,0,0,1,370.49,92Z"/><path class="cls-10" d="M148.59,119.18a1.1,1.1,0,0,1,.64,1A1,1,0,0,1,148.59,119.18Z"/><path class="cls-6" d="M215,181.61l-.62.41a.68.68,0,0,1,.24-.69Z"/><path class="cls-6" d="M225.81,186.24a.3.3,0,0,1-.27.35A.35.35,0,0,1,225.81,186.24Z"/><path class="cls-6" d="M227.79,194.18a.33.33,0,0,1-.28-.35Z"/><path class="cls-80" d="M423.55.15H603v340c-2.94-1.59-114.57-83.15-124.42-89.49-1.24-.8-2.46-1.64-3.74-2.38a1.73,1.73,0,0,1-1-1.87,8.18,8.18,0,0,0,0-1V127.65c0-.71,0-1.42,0-2.13.59-.8,1.48-.6,2.27-.61,5,0,10.08,0,15.12,0,5.25,0,5.21,0,7.74-4.57q8.12-14.65,16.41-29.21a4,4,0,0,0,0-4.64C509.2,76.05,503.09,65.54,497,55.05a3.47,3.47,0,0,0-3.56-2c-12,.73-24,.18-36,.31A4.49,4.49,0,0,0,453,55.91Q445.76,69,438.35,82c-.46.81-.85,1.71-2.05,1.56H425.17a3,3,0,0,1-1.61-.16c0-.49,0-1,0-1.47C423.51,56.54,423.54.59,423.55.15Z"/><path class="cls-9" d="M361.41,273.37c0,.6,0,1.21,0,1.81a118.14,118.14,0,0,1-.92,13.55,153.29,153.29,0,0,1-4,20.71,210.32,210.32,0,0,1-9.91,29.33,3.79,3.79,0,0,1-1.5-.6l-8.86-4.75c-.4-.21-.76-.43-.81-.93-.6-1,.39-1.88.2-2.85a2.84,2.84,0,0,1,.11-.71c.79-2.67.22-4.67-1.77-6.22-1.72-1.34-4-1.32-6.22,0a3.11,3.11,0,0,1-.31.32c-.1.11-.21.21-.32.31a5.6,5.6,0,0,0-1.53,2.07c-.23.47-.36,1-1,1.17a1,1,0,0,1-1.08-.05c-1.26-.65-2.55-1.25-3.8-1.92-2.79-1.48-5.57-3-8.35-4.49-.77-.42-1.51-.88-2.27-1.3a1.2,1.2,0,0,1-.65-.88c-.63-1.09.17-2,.34-3,5.14-15.28,9.13-30.88,12.88-46.55.45-1.86.86-3.73,1.45-5.56a2.54,2.54,0,0,1,.79-1.92,5.54,5.54,0,0,0,.59-1.86c.76-2.75,3.18-3.93,5.71-2.6,5.32,2.8,10.59,5.69,15.89,8.52q6.15,3.28,12.31,6.54A19.14,19.14,0,0,1,361.41,273.37Z"/><path class="cls-81" d="M436.8,83.43a3.61,3.61,0,0,0,.81-1.23c5.12-9.11,10.27-18.21,15.32-27.37a3.18,3.18,0,0,1,3.2-1.9c7.73,0,15.46-.09,23.18-.15,5.1,0,10.19-.07,15.29-.18A2.32,2.32,0,0,1,497,53.92q9.8,16.81,19.7,33.57a2.23,2.23,0,0,1,0,2.55Q507.1,107,497.61,124a2.2,2.2,0,0,1-2.18,1.33c-7.17,0-14.35.14-21.53.22-6.26,0-12.52-.1-18.78.28-.12.09-.21.06-.27-.08a60.49,60.49,0,0,1-3.58-5.87q-8.44-14.34-16.9-28.69a2.61,2.61,0,0,1,0-3.16c.89-1.36,1.58-2.87,2.36-4.31C436.57,83.54,436.6,83.44,436.8,83.43Z"/><path class="cls-12" d="M395.66,231.3a9,9,0,0,1,8.75,7.59c.14,1,0,1.23-1.1,1.28-.22,0-.44,0-.65,0-1.25,0-1.25,0-1.63-1.25a5.77,5.77,0,0,0-5-4.33,5.69,5.69,0,0,0-5.81,4.12c-.16.48,0,1.23-.66,1.38a5.3,5.3,0,0,1-2.44,0c-.47-.11-.41-.61-.35-1a8.87,8.87,0,0,1,2.77-5.44A8.51,8.51,0,0,1,395.66,231.3Z"/><path class="cls-14" d="M428.49,304.25c-.69,0-1,.54-1.48.94-2.24,2-4.93,2.14-7,0a4.13,4.13,0,0,0-5.84-.06c-2.21,2.21-4.8,2.11-7.13,0-1.81-1.64-3.34-1.74-5.29-.34-.09.06-.15.15-.24.22-.28.22-.59.34-.87,0a.62.62,0,0,1,0-.88,4.55,4.55,0,0,1,3-1.52,4.77,4.77,0,0,1,3.78,1.21c.21.18.39.39.59.57a3.58,3.58,0,0,0,5.16,0c2.7-2.41,4.93-2.41,7.66,0a3.54,3.54,0,0,0,5.14,0c.29-.25.54-.54.81-.81a5.27,5.27,0,0,1,4.7-.69,4.84,4.84,0,0,1,1.91,1.23,3.63,3.63,0,0,0,5.61.08,4.81,4.81,0,0,1,5.87-1.08,3.53,3.53,0,0,1,1.4,1.11.53.53,0,0,1,0,.74.55.55,0,0,1-.74.08c-.19-.12-.35-.27-.53-.39-1.95-1.21-3.35-1.1-5.06.42a5.22,5.22,0,0,1-3.67,1.56,4.66,4.66,0,0,1-3.52-1.47A3.46,3.46,0,0,0,428.49,304.25Z"/><path class="cls-82" d="M415.68,297.67a5.15,5.15,0,0,0-1.59,1.14,4.81,4.81,0,0,1-6.93,0c-2.07-1.86-3.22-2-5.51-.41-.33.23-.66.51-1,.17s-.08-.78.23-1.11a4.81,4.81,0,0,1,6-.47c.44.3.82.71,1.24,1.06a3.56,3.56,0,0,0,4.92,0c.41-.35.81-.73,1.22-1.09a5.79,5.79,0,0,1,3.45-.71,4.4,4.4,0,0,1,2.6,1.27c1.88,2,4.26,1.89,6.18,0a4.56,4.56,0,0,1,6.5-.14c.21.18.4.37.62.54,1.91,1.53,3.65,1.51,5.41-.17a5.11,5.11,0,0,1,3-1.56,4.51,4.51,0,0,1,4,1.4c.22.23.49.5.22.85a.63.63,0,0,1-.88.09l-.14-.09c-2.68-1.56-3.41-1.49-5.76.57a4.65,4.65,0,0,1-6,.34,10.1,10.1,0,0,1-1-.84,3.59,3.59,0,0,0-5.28,0,6.6,6.6,0,0,1-1.67,1.29,4.81,4.81,0,0,1-5.71-1.13A3.57,3.57,0,0,0,415.68,297.67Z"/><path class="cls-82" d="M402.53,291.12c-.34.26-.68.51-1,.78s-.59.34-.86.09-.22-.69.06-1a7.3,7.3,0,0,1,.75-.6c2.52-1.4,4.37-1.29,6.38.74a3.73,3.73,0,0,0,5.64-.06,4.89,4.89,0,0,1,6.82-.27,5,5,0,0,1,.5.42,3.51,3.51,0,0,0,5.37,0,5,5,0,0,1,7.43,0c1.81,1.73,3.62,1.69,5.49-.06a6,6,0,0,1,2.51-1.48,4.75,4.75,0,0,1,4.28,1.09c.34.25.73.64.39,1.11s-.74.19-1.13-.07c-2.25-1.49-3.4-1.41-5.37.38-2.19,2-4.72,2-7.07,0a4.31,4.31,0,0,0-2.38-1.33,3.65,3.65,0,0,0-3.13,1.11c-2.29,2.34-5.05,2.26-7.43.14-1.92-1.71-3.68-1.68-5.51,0-2.43,2.21-4.83,2.28-7.29,0a4.78,4.78,0,0,0-3.74-1.27A1,1,0,0,0,402.53,291.12Z"/><path class="cls-83" d="M323.83,260.93a5.26,5.26,0,0,1-.35,1.92c-1.24.7-1.92-.1-2.57-1l0,0c.45-.58.09-1.58,1-2Z"/><path class="cls-84" d="M436.8,83.43a.3.3,0,0,1-.11.26c-3.87,0-7.73,0-11.59,0-.52,0-1.11.18-1.54-.31Z"/><path class="cls-85" d="M382.6,185.67a1.1,1.1,0,0,1,1,1,1,1,0,0,1-1,1.13,1.14,1.14,0,0,1-1.2-1.07A1.22,1.22,0,0,1,382.6,185.67Z"/><path class="cls-85" d="M419.57,186.78a1.12,1.12,0,0,1-1.07,1.05,1.05,1.05,0,0,1-1.1-1,1.11,1.11,0,0,1,1.13-1.14A1.16,1.16,0,0,1,419.57,186.78Z"/><path class="cls-85" d="M443.57,186.73a1.1,1.1,0,0,1-1,1.09,1.05,1.05,0,0,1-1.14-.95,1.13,1.13,0,0,1,1.08-1.2A1.19,1.19,0,0,1,443.57,186.73Z"/><path class="cls-85" d="M382.67,101.85a1.1,1.1,0,0,1,1,1.09,1.06,1.06,0,0,1-1,1.08,1.15,1.15,0,0,1-1.12-1.17A1.22,1.22,0,0,1,382.67,101.85Z"/><path class="cls-85" d="M395.59,162.81c0,.64-.33,1-1,1.07a1,1,0,0,1-1.1-1,1,1,0,0,1,1.06-1.16A1.1,1.1,0,0,1,395.59,162.81Z"/><path class="cls-86" d="M419.56,162.87a1.15,1.15,0,0,1-1.06,1,1.13,1.13,0,0,1-1.11-1.16,1.14,1.14,0,0,1,1.16-1C419,161.7,419.58,162.31,419.56,162.87Z"/><path class="cls-87" d="M383.64,150.78c-.1.62-.39,1-1,1.1a1.08,1.08,0,0,1-1.14-1.11.94.94,0,0,1,1.06-1A1.13,1.13,0,0,1,383.64,150.78Z"/><path class="cls-88" d="M443.55,174.9c0,.6-.46.88-1.07.88s-1.09-.25-1.08-.92a1,1,0,0,1,1-1.08A1.07,1.07,0,0,1,443.55,174.9Z"/><path class="cls-89" d="M442.4,125.82a1.14,1.14,0,0,1,1.14,1,1.08,1.08,0,0,1-.9,1.16c-.57.06-1.29-.5-1.25-1A1.16,1.16,0,0,1,442.4,125.82Z"/><path class="cls-85" d="M442.53,161.74a1.07,1.07,0,0,1-.06,2.13,1.12,1.12,0,0,1-1.07-1.19C441.51,162,442,161.84,442.53,161.74Z"/><path class="cls-85" d="M418.91,114c.28,0,.65.35.65,1a1,1,0,0,1-1.2,1,.94.94,0,0,1-.92-1.1C417.5,114.23,417.92,113.89,418.91,114Z"/><path class="cls-89" d="M419.57,126.93a1.09,1.09,0,0,1-1.07,1,1.14,1.14,0,0,1-1.11-1,1.16,1.16,0,0,1,1.16-1.11A1.21,1.21,0,0,1,419.57,126.93Z"/><path class="cls-90" d="M407.58,126.87a1.07,1.07,0,0,1-1,1.08,1.1,1.1,0,0,1-1.08-1.16.93.93,0,0,1,.89-1A1.1,1.1,0,0,1,407.58,126.87Z"/><path class="cls-91" d="M454.85,125.72l.27.08a2.83,2.83,0,0,1,.36,1.07,1,1,0,0,1-.81,1,.9.9,0,0,1-1.08-.51,1.09,1.09,0,0,1,.21-1.34C454.09,125.77,454.5,125.82,454.85,125.72Z"/><path class="cls-91" d="M395.59,126.88a1.1,1.1,0,0,1-1,1.07,1.05,1.05,0,0,1-1.07-1.16,1,1,0,0,1,1.09-1C395.25,125.84,395.55,126.23,395.59,126.88Z"/><path class="cls-90" d="M383.63,139a1.15,1.15,0,0,1-1.18.9,1.07,1.07,0,0,1-.93-1.26,1,1,0,0,1,1.21-.79A1.08,1.08,0,0,1,383.63,139Z"/><path class="cls-92" d="M395.58,138.9a1,1,0,0,1-1.12,1,1,1,0,0,1-1-1.13,1,1,0,0,1,1.12-.93A1,1,0,0,1,395.58,138.9Z"/><path class="cls-93" d="M407.58,138.83c-.1.58-.37,1-1,1.07a1,1,0,0,1-1.06-1,1,1,0,0,1,1-1.08A1,1,0,0,1,407.58,138.83Z"/><path class="cls-85" d="M443.57,138.83a1.16,1.16,0,0,1-1,1,1.12,1.12,0,0,1-1.14-1.1,1,1,0,0,1,1.1-1A1,1,0,0,1,443.57,138.83Z"/><path class="cls-85" d="M443.56,150.8a1.09,1.09,0,0,1-2.16.19,1.12,1.12,0,0,1,1.06-1.18A1.16,1.16,0,0,1,443.56,150.8Z"/><path class="cls-88" d="M419.56,150.79a1,1,0,0,1-1,1.08,1,1,0,0,1-1.14-.91,1.08,1.08,0,0,1,1.06-1.16C419.17,149.79,419.43,150.23,419.56,150.79Z"/><path class="cls-90" d="M406.57,161.74c.57.13,1,.44,1,1.07a1,1,0,0,1-1,1.06,1.06,1.06,0,0,1-1.08-1.13A1.16,1.16,0,0,1,406.57,161.74Z"/><path class="cls-93" d="M430.42,161.75a1,1,0,0,1,1.05,1.06,1,1,0,1,1-2,0A1.1,1.1,0,0,1,430.42,161.75Z"/><path class="cls-93" d="M454.55,161.75a1.11,1.11,0,0,1,.91,1.14,1,1,0,0,1-1,1,1,1,0,0,1-.94-1.11A1,1,0,0,1,454.55,161.75Z"/><path class="cls-91" d="M382.39,175.77a.92.92,0,0,1-.9-1,1,1,0,0,1,1.09-1,1,1,0,0,1,1,1.06C383.63,175.4,383.1,175.81,382.39,175.77Z"/><path class="cls-88" d="M418.56,173.78a1,1,0,0,1,1,1.11,1,1,0,0,1-1.16.89,1,1,0,0,1-1-1.09A1.09,1.09,0,0,1,418.56,173.78Z"/><path class="cls-85" d="M383.63,126.85a1.19,1.19,0,0,1-1.18,1.1,1,1,0,0,1-.94-1.11,1.08,1.08,0,0,1,1.07-1A1.12,1.12,0,0,1,383.63,126.85Z"/><path class="cls-85" d="M394.56,187.84a1.09,1.09,0,0,1-.16-2.16,1.13,1.13,0,0,1,1.17,1.08A1.15,1.15,0,0,1,394.56,187.84Z"/><path class="cls-85" d="M406.59,185.66a1.05,1.05,0,0,1,1,1.11,1,1,0,0,1-1,1.07,1.13,1.13,0,0,1-1.07-1.17A1.15,1.15,0,0,1,406.59,185.66Z"/><path class="cls-86" d="M430.52,187.81a1.06,1.06,0,0,1-.07-2.12.94.94,0,0,1,1,1A1,1,0,0,1,430.52,187.81Z"/><path class="cls-86" d="M454.5,187.81a1,1,0,0,1-1-1,.94.94,0,0,1,.93-1.1,1,1,0,0,1,1.07,1C455.51,187.36,455.14,187.69,454.5,187.81Z"/><path class="cls-86" d="M443.56,114.86c-.08.54-.31,1-1,1.07a1,1,0,0,1-1.15-.91,1,1,0,0,1,1-1.09A1,1,0,0,1,443.56,114.86Z"/><path class="cls-91" d="M383.62,115a1.08,1.08,0,0,1-1.05,1,1,1,0,0,1-1.08-1,.94.94,0,0,1,1-1A1,1,0,0,1,383.62,115Z"/><path class="cls-94" d="M431.48,126.88a1,1,0,0,1-1,1.06,1.07,1.07,0,0,1-1-1.13,1,1,0,0,1,1-1A1,1,0,0,1,431.48,126.88Z"/><path class="cls-85" d="M406.5,104a1.16,1.16,0,0,1-1-1.09,1.13,1.13,0,0,1,1.16-1.08,1.09,1.09,0,0,1-.16,2.17Z"/><path class="cls-85" d="M395.57,102.94a1.09,1.09,0,0,1-1,1.06c-.66.1-1-.34-1.1-.93a1.07,1.07,0,0,1,1-1.22A1.21,1.21,0,0,1,395.57,102.94Z"/><path class="cls-92" d="M383.62,90.88a1,1,0,0,1-1,1.07,1,1,0,0,1-1.09-1,1,1,0,0,1,1-1A1.11,1.11,0,0,1,383.62,90.88Z"/><path class="cls-85" d="M382.53,161.74a1.26,1.26,0,0,1,1.1,1.18,1.07,1.07,0,0,1-2.14-.14A1.13,1.13,0,0,1,382.53,161.74Z"/><path class="cls-91" d="M407.57,150.92a1,1,0,0,1-1.16.87.93.93,0,0,1-.91-1.1.91.91,0,0,1,1.13-.87C407.29,149.89,407.51,150.36,407.57,150.92Z"/><path class="cls-95" d="M395.58,150.84a1,1,0,0,1-1.1.95.89.89,0,0,1-1-1,1,1,0,0,1,1.09-1A.93.93,0,0,1,395.58,150.84Z"/><path class="cls-90" d="M418.49,137.8c.55,0,1.12.53,1.06,1a1.1,1.1,0,0,1-1.06,1.06,1.12,1.12,0,0,1-1.07-1A1.18,1.18,0,0,1,418.49,137.8Z"/><path class="cls-91" d="M407.57,174.91a1,1,0,0,1-1.16.86.93.93,0,0,1-.91-1.11.92.92,0,0,1,1.14-.86C407.3,173.88,407.51,174.35,407.57,174.91Z"/><path class="cls-96" d="M430.36,137.76a1.09,1.09,0,0,1,1.09,1,1,1,0,1,1-2,.12A1.15,1.15,0,0,1,430.36,137.76Z"/><path class="cls-96" d="M455.47,138.91a.94.94,0,0,1-1,1,.91.91,0,0,1-.94-1.07,1,1,0,0,1,1-1C455.12,137.83,455.43,138.29,455.47,138.91Z"/><path class="cls-97" d="M406.45,115.92a1,1,0,0,1-.95-1.09.92.92,0,0,1,1-.89,1,1,0,0,1,1.06,1A1,1,0,0,1,406.45,115.92Z"/><path class="cls-98" d="M395.57,174.9a1,1,0,0,1-1.11.87.8.8,0,0,1-.87-.94.93.93,0,0,1,1-1A1,1,0,0,1,395.57,174.9Z"/><path class="cls-99" d="M431.46,114.9a1,1,0,1,1-2,0,.89.89,0,0,1,.86-1A1,1,0,0,1,431.46,114.9Z"/><path class="cls-96" d="M394.55,115.93a.94.94,0,0,1-.95-1.08.88.88,0,0,1,.94-.9.91.91,0,0,1,1,1A.94.94,0,0,1,394.55,115.93Z"/><path class="cls-99" d="M431.46,174.82a1,1,0,0,1-1.11.94.88.88,0,0,1-.86-1,1,1,0,1,1,2,0Z"/><path class="cls-99" d="M454.54,173.79a.92.92,0,0,1,.92,1,.93.93,0,0,1-1.06.95.89.89,0,0,1-.91-.93A1,1,0,0,1,454.54,173.79Z"/><path class="cls-100" d="M431.46,150.76a1,1,0,0,1-1.07,1,.89.89,0,0,1-.9-.94,1,1,0,1,1,2-.08Z"/><path class="cls-101" d="M454.47,149.8a.92.92,0,0,1,1,1,.88.88,0,0,1-.83,1,1,1,0,0,1-1.14-.87A1,1,0,0,1,454.47,149.8Z"/><path class="cls-97" d="M407.47,91a.94.94,0,0,1-1.06,1,1,1,0,0,1-.91-1.1.92.92,0,0,1,1-.87A.93.93,0,0,1,407.47,91Z"/><path class="cls-96" d="M395.58,90.93a1,1,0,0,1-1,1,.88.88,0,0,1-.95-.89.92.92,0,0,1,.92-1.08A1,1,0,0,1,395.58,90.93Z"/><path class="cls-8" d="M222.22,264.83c-.93-.54-1.2-1.62-1.94-2.31-1.63-1.3-2-3.11-1.92-5,0-.42.19-.83,0-1.25a13.3,13.3,0,0,1,1.61-6.45,6.12,6.12,0,0,1,2.73-3.43,2.93,2.93,0,0,1,.7-.31,1.63,1.63,0,0,1,.53-.08,27.33,27.33,0,0,1,8.57,1.35c5,1.7,10,3.64,15,5.54a12.44,12.44,0,0,1,3.16,1.73,7.29,7.29,0,0,1,3.06,7,13.44,13.44,0,0,1-1.37,4.88c-1,1.87-2.59,2.71-4.52,1.9-5-2.09-10.28-2-15.51-2.35-2.79-.2-5.58-.38-8.36-.64A4.19,4.19,0,0,1,222.22,264.83Z"/><path class="cls-8" d="M222.25,238.85v-1c-.33-5.37,2.81-9.37,7.85-10a8.25,8.25,0,0,1,1.54.38,86.67,86.67,0,0,1,13.89,7.37c4.15,2.79,6.31,6.57,5.88,11.66a8.81,8.81,0,0,1-.27,1.77c-.64,2.09-1.86,2.83-4,2.29s-3.93-1.36-5.88-2.07c-2.83-1-5.67-2-8.48-3.1a19.35,19.35,0,0,0-8.64-1.43,4.58,4.58,0,0,1-1.94-3.55A6.42,6.42,0,0,1,222.25,238.85Z"/><path class="cls-1" d="M230.11,228.29a9.14,9.14,0,0,0-7.56,8.17,4.16,4.16,0,0,1-.3,1.43,4.1,4.1,0,0,0-3.64-2.68c-.64-1.55.34-2.92.49-4.39.52-3.23,1.29-6.4,2-9.59a2.21,2.21,0,0,1,.51-1c.89-.63,1.56,0,2.2.47,2.71,1.83,5.53,3.5,8.23,5.34a11.34,11.34,0,0,1,1.4,1.08c.45.46.56.93-.16,1.27C232.22,228.73,231.18,228.07,230.11,228.29Z"/><path class="cls-6" d="M203.81,231.64a5.91,5.91,0,0,0,.65-2.44,6.34,6.34,0,0,1,.36-1.22,1.47,1.47,0,0,1,1.39-.25c2.83.75,5.71,1.3,8.56,2a1.71,1.71,0,0,1,.85.47,4.47,4.47,0,0,1-.94,4.06,59.75,59.75,0,0,1-8.58-1.81A6.71,6.71,0,0,1,203.81,231.64Z"/><path class="cls-1" d="M222.25,238.85a19.42,19.42,0,0,0,1,4.1,6.3,6.3,0,0,0,.89,1.55c1.29,1.12.28,1.47-.62,1.86l-.31.12a1.24,1.24,0,0,0-.32.23,19.17,19.17,0,0,0-3,3.07,6.53,6.53,0,0,1,.3-2.41c.59-2.76,1.19-5.51,1.79-8.27C222.07,239,222.18,238.93,222.25,238.85Z"/><path class="cls-1" d="M218.35,256.23a20.49,20.49,0,0,0,1.93,6.29c-.73.12-1.46.27-2.19.35a2,2,0,0,0-1.38.69C217.25,261.12,217.8,258.67,218.35,256.23Z"/><path class="cls-102" d="M214.68,234.24a12.25,12.25,0,0,1,1-3.94l.21-.13a1.89,1.89,0,0,1,1.92.71,1.47,1.47,0,0,1,.11.46,13.54,13.54,0,0,1-.9,3.54A7.16,7.16,0,0,1,214.68,234.24Z"/><path class="cls-103" d="M217,234.88a4.44,4.44,0,0,1,.81-3.66c.46-.9,1.11-.6,1.76-.27-.32,1.42-.63,2.84-.95,4.26Z"/><path class="cls-81" d="M125.58,278a.5.5,0,0,1-.08-.31,1,1,0,0,1,.17.19S125.62,277.94,125.58,278Z"/><path class="cls-10" d="M266,269.7A83.43,83.43,0,0,0,272.7,275c1.57,1.09,3.24,2,4.89,3,.56.33,1.11.67,1.94,1.18a5.1,5.1,0,0,1-2.43-.47,52.35,52.35,0,0,1-8.87-3.84c-2.24-1.31-4.05.32-4.21,2.34a16.17,16.17,0,0,0,.44,4.55c.58,2.74-.48,4.44-3.18,5.17-.32.08-.64.16-1,.21-3.53.55-5.95,3.48-5,7.78a9.2,9.2,0,0,0,6.89,7.38,41.91,41.91,0,0,0,9.69,1.52,16,16,0,0,0,4.55-.45,15.65,15.65,0,0,1,9.22.43c3.7,1.36,6.86.38,10-1.45a30.82,30.82,0,0,0,4.17-3.24,21.76,21.76,0,0,1-.13,5c-.34,2.25-.19,4.38,1.49,6.13a11.94,11.94,0,0,0,2.88,2.16l2.41,1.39c.19.14.44.21.51.48a3.31,3.31,0,0,1-1.16,2.78h-.32c-.38.25-.51,0-.66-.3a50.92,50.92,0,0,0-20.59-8.49,26.81,26.81,0,0,0-8.15-.13,23.53,23.53,0,0,1-8.78-.76,52,52,0,0,1-14.54-5.86c-4.17-2.49-8.49-4.75-12.74-7.12s-8.43-4.65-12.62-7a9.24,9.24,0,0,1-2.82-2.2,1.57,1.57,0,0,1,1.69-.28A47,47,0,0,0,237.68,286c2.47,0,3,.59,2.69,3.1a10.62,10.62,0,0,0,.15,2.59,10.37,10.37,0,0,1,.94-3.61,3.29,3.29,0,0,1,2.85-2.14,59.66,59.66,0,0,0,6.64-1.09,8.86,8.86,0,0,0,5.95-4.53,5.13,5.13,0,0,0,.61-4.41c-.43-1.21-.13-2,1.16-2.4a7.79,7.79,0,0,0,4.08-2.88A2.44,2.44,0,0,1,266,269.7Z"/><path class="cls-10" d="M223.56,246.36c.51-.52,1.23-1,.62-1.86a10.63,10.63,0,0,1,6.75.47l14.35,5.2,1.23.45c2.44,1,4,.63,4.33-2.9a12,12,0,0,0-.32-4.87A11.52,11.52,0,0,0,246,236.6a68.48,68.48,0,0,0-10.53-6c-1.33-.63-2.66-1.28-4-1.92.38-1,1.36-.16,1.93-.6.3-.26.12-.44-.1-.61l-1.53-1.07c1-.89,2.06-.53,3.11-.35A34.11,34.11,0,0,1,248.45,232a35.41,35.41,0,0,0,4.54,2.9,8,8,0,0,0-2.53-5.67,28.67,28.67,0,0,0-13-8.31A39.38,39.38,0,0,1,225,214.52a5.53,5.53,0,0,1-1.67-1.56,1.52,1.52,0,0,1-.15-.5,2.42,2.42,0,0,1,.76-2.2c2,1.31,3.62,3,5.62,4.23a40.28,40.28,0,0,0,10.1,4.66,28.55,28.55,0,0,1,10,5.49c.67.56,1.33,1.14,2,1.72a11.9,11.9,0,0,1,4.14,9.44c0,2.56-.05,5.13-.19,7.69a33.38,33.38,0,0,0,1.33,11,7.1,7.1,0,0,1,.17.8c-.85.23-.85.23-2-.14.62.07,1.23.73,2,.41.9,2,1.64,4.05,2.7,6a47.8,47.8,0,0,0,4.45,6.28c-.91,2.72-3.13,3.93-5.6,4.84a12.62,12.62,0,0,1-2.92.56c1.54,2.1,1.88,4.27.66,6.49a8.85,8.85,0,0,1-5.89,4.61c-1.41.32-2.88,1.21-4.37.17,0-.83.68-1.2,1.18-1.69,4.35-4.34,3.06-10-2.72-12.05-3.29-1.18-6.75-1.3-10.17-1.68s-6.84-.76-10.27-1.07c-.65-.06-1.35-.09-1.6-.89.9-.78.9-.78.13-1.64-.18-.2-.34-.42-.5-.63a89.81,89.81,0,0,1,9,.56c2.13.16,4.25.34,6.38.39a26.24,26.24,0,0,1,10,2,2.83,2.83,0,0,0,4.11-1.45,12.39,12.39,0,0,0,1.4-6.65,6.46,6.46,0,0,0-2.68-4.53,10.23,10.23,0,0,0-2.83-1.63c-4.86-1.82-9.73-3.62-14.59-5.46C230,246.91,226.76,246.72,223.56,246.36Z"/><path class="cls-8" d="M222.59,267.1c1.28.63,2.7.38,4,.57,3.57.48,7.18.75,10.77,1.11a31.15,31.15,0,0,1,7.85,1.56c5.53,2.07,7,7.94,3,12.31-.62.68-1.36,1.26-2,1.89a2.13,2.13,0,0,1-1.7.84c-6.09.61-12.18.89-18.2-.58a5.82,5.82,0,0,1-3.77-2.06l-.17-.16a1,1,0,0,1-.5-.39,10.9,10.9,0,0,1-3.17-7.48A8.11,8.11,0,0,1,222.59,267.1Z"/><path class="cls-11" d="M222.57,282.74a24.81,24.81,0,0,0,10.6,2.43,68.88,68.88,0,0,0,13.07-.63c2.43-.32,4.93-.42,7-2a8.66,8.66,0,0,0,2.89-3.28,5.2,5.2,0,0,0-.7-5.66l-.69-.93c3.68,0,6.73-1.09,8.85-4.2a4.5,4.5,0,0,1,.72-.65L266,269.7c-.09.07-.19.22-.24.2-1.32-.37-2,.25-2.81,1.29a6.62,6.62,0,0,1-4.42,2.88c-.56.08-1.12.27-.74,1.08,1.33,2.75.09,5-1.52,7.07a9.18,9.18,0,0,1-5.71,3.29,51.79,51.79,0,0,1-6.78,1,1.76,1.76,0,0,0-1.53,1.06,11.1,11.1,0,0,0-1.3,4.54,2.52,2.52,0,0,1-.21,1.42c-.7-1.53-1.38-2.93-1-4.58a5.35,5.35,0,0,0,.19-.79c.12-1.21-.21-1.59-1.43-1.63s-2.19,0-3.29,0a35.86,35.86,0,0,1-9.39-1.17,6.42,6.42,0,0,0-1.3-.16A4.52,4.52,0,0,1,222.57,282.74Z"/><path class="cls-104" d="M304.82,316.77l.66.3a4.79,4.79,0,0,1-.55,2.35c-.58,1.51-1.19,3-1.79,4.53a.66.66,0,0,1-.2-.74A55.78,55.78,0,0,1,304.82,316.77Z"/><path class="cls-105" d="M311.72,334.45v.38l-2.86-1.42c-.43-.22-.89-.39-1.09-.88A16.05,16.05,0,0,1,311.72,334.45Z"/><path class="cls-105" d="M307.11,332.18a.9.9,0,0,1,.67.36A.73.73,0,0,1,307.11,332.18Z"/><path class="cls-106" d="M221.9,282.19l.5.39A.58.58,0,0,1,221.9,282.19Z"/><path class="cls-107" d="M336.12,329l-.08.54c-1.09,3.35-2.68,4.56-5.92,4.51-2.79-.05-4.25-1.11-5.25-3.82a10.61,10.61,0,0,1-.35-3.63,8.44,8.44,0,0,1,2.23-3.67.44.44,0,0,0,.38-.32h0c3.09-1.78,6.07-1.09,7.92,1.19A5.86,5.86,0,0,1,336.12,329Z"/><path class="cls-108" d="M324.87,330.25c.19.26.38.52.56.79a5.8,5.8,0,0,0,9.86-.23c.26-.41.5-.83.75-1.25.13,1.06-.44,2-.67,2.93a5.74,5.74,0,0,1-5.57,2.73A5.28,5.28,0,0,1,324.87,330.25Z"/><path class="cls-109" d="M305.8,317.07a17.93,17.93,0,0,1,1-2.92c1.14-.51,1.78.13,2.34,1,0,1-.66,1.86-.76,2.85l-.29.4A4.13,4.13,0,0,1,305.8,317.07Z"/><path class="cls-4" d="M215.65,230.3a66,66,0,0,1-8-1.62c-.95-.22-1.9-.47-2.85-.7a2.53,2.53,0,0,0,0-.28l2-9.58c.13-.58.25-1.17.37-1.76.32-1.49.32-1.49-1.1-2.12a1.43,1.43,0,0,1,1.36-.52c2.31-.35,4-1.43,4.48-3.88.18-.68.44-1.34.67-2,.72-2.07,0-3.77-1.31-5.34-.36-.43-1-.65-1-1.39a31.44,31.44,0,0,0,1.35-5.49c.59-2.53,1.1-5.09,1.64-7.63a1.2,1.2,0,0,1,.35-.72,1.91,1.91,0,0,0,2-1.33,15.51,15.51,0,0,1,3.12.92c1.46.44,2.92.86,4.36,1.34a3.29,3.29,0,0,1,2.33,4.32l-1.3-.63c-1-.05-1.95-.68-2.95-.08-3.79,1.54-4.2,3.3-4.14,7.74a15,15,0,0,0,2.65,7.65c.48.79,1,1.56,1.45,2.38a1.45,1.45,0,0,1,.11.51c-.85,4.51-2.23,8.88-3.38,13.31-.43,1.69-.83,3.39-1.34,5.06a3.1,3.1,0,0,1-.95,1.85Z"/><path class="cls-110" d="M309.13,315.13c-.88-.07-1.42-1-2.34-1l-.34-.34c.8-.14.78-.86.94-1.39,1.22-3.9,2.45-7.81,3.59-11.74,3.45-11.94,6.46-24,9.41-36.07.21-.9.35-1.82.52-2.72.87.3,1.59,1,2.57,1-2,9.06-4.33,18.06-6.72,27-2.13,8-4.37,15.92-7,23.75A3.66,3.66,0,0,1,309.13,315.13Z"/><path class="cls-111" d="M220.88,209.66a17.79,17.79,0,0,1-4.37-10.37,11.16,11.16,0,0,1,.42-4.21c.71-2.09,2.19-3.46,4.32-3.29a7.06,7.06,0,0,0-2.95,6,14.59,14.59,0,0,0,1.52,5.94c.56,1.17,1.19,2.31,1.79,3.46C222,208.21,222,209.1,220.88,209.66Z"/><path class="cls-112" d="M220.88,209.66a12.42,12.42,0,0,0,.73-2.46,13.53,13.53,0,0,1,2.31,3.06l-.36,2.29a.57.57,0,0,1-.64-.05,4,4,0,0,1-2-2.56A2.36,2.36,0,0,1,220.88,209.66Z"/><path class="cls-113" d="M257.14,255.57c-.08.31-.16.71-.6.54-.93-.37-1.83-.8-3.09-1.37,1.53-.13,2.53.55,3.63.56A.42.42,0,0,1,257.14,255.57Z"/><path class="cls-110" d="M167,161.63a2.17,2.17,0,0,0,.24-1.3l.35-.37a1.24,1.24,0,0,0,.87,1.24c3.31,1.59,6.52,3.35,9.89,4.83,1.4.61,2.75,1.35,4.12,2,9,4.42,18.17,8.66,27.45,12.56a2.33,2.33,0,0,0,1.41.34c0,.12,0,.25,0,.38.22.9.41,1.8-.68,2.32a72.15,72.15,0,0,1-8-3.27c-3.69-1.62-7.33-3.35-11-5a2,2,0,0,0-2.05-.95c-7.4-3.47-14.75-7-22-10.82A6.4,6.4,0,0,1,167,161.63Z"/><path class="cls-114" d="M166.73,104a1.09,1.09,0,0,1-1-1.09,1.06,1.06,0,0,1,1-1.07A1.13,1.13,0,0,1,167.9,103,1.21,1.21,0,0,1,166.73,104Z"/><path class="cls-115" d="M167.92,138.79a1.16,1.16,0,0,1-1,1.08,1.11,1.11,0,0,1-1.12-1.15,1,1,0,0,1,1.11-1A1.11,1.11,0,0,1,167.92,138.79Z"/><path class="cls-115" d="M167.88,55.18a1.08,1.08,0,1,1-2.11-.43,1.08,1.08,0,0,1,1.24-.83A1.14,1.14,0,0,1,167.88,55.18Z"/><path class="cls-114" d="M167.9,67.09a1,1,0,0,1-1.09.88c-.61,0-1.08-.28-1.05-1a1,1,0,0,1,1-1.06A1.1,1.1,0,0,1,167.9,67.09Z"/><path class="cls-116" d="M191.87,126.79a1.13,1.13,0,0,1-1,1.1,1.08,1.08,0,0,1-1.13-1.12.93.93,0,0,1,1.06-1A1.11,1.11,0,0,1,191.87,126.79Z"/><path class="cls-115" d="M166.87,115.93a1.09,1.09,0,0,1-1.13-1.11.93.93,0,0,1,1-.9,1,1,0,0,1,1.2,1A1.09,1.09,0,0,1,166.87,115.93Z"/><path class="cls-117" d="M167.64,90c.14.45.42.88.15,1.39a1,1,0,0,1-1.22.58,1,1,0,0,1-.82-1.06.83.83,0,0,1,.78-.89,7.08,7.08,0,0,1,1.13,0Z"/><path class="cls-118" d="M168,78.78a1.34,1.34,0,0,1-.61,1.09c-.67.33-1.16,0-1.64-.43a.41.41,0,0,1,0-.67C166.76,77.5,166.89,77.5,168,78.78Z"/><path class="cls-114" d="M191.86,162.8a1.11,1.11,0,0,1-1.05,1.06,1.1,1.1,0,0,1-1.08-1,1.14,1.14,0,0,1,1.12-1.14C191.5,161.77,191.73,162.26,191.86,162.8Z"/><path class="cls-117" d="M155.83,102.89a1,1,0,0,1-1,1.06.93.93,0,0,1-1.05-1,1,1,0,1,1,2-.1Z"/><path class="cls-117" d="M178.75,161.72a1.1,1.1,0,0,1,1.05,1,1,1,0,0,1-.92,1.12,1,1,0,0,1-1.07-1A1,1,0,0,1,178.75,161.72Z"/><path class="cls-116" d="M178.73,139.89a1,1,0,0,1-.92-1.06,1,1,0,0,1,1-1.07,1.06,1.06,0,0,1,1,1.08A1,1,0,0,1,178.73,139.89Z"/><path class="cls-114" d="M191.86,138.91a1.07,1.07,0,1,1-1.12-1.17A1.26,1.26,0,0,1,191.86,138.91Z"/><path class="cls-116" d="M202.82,137.74a1.11,1.11,0,0,1,1,1.08,1,1,0,0,1-1.15,1.05,1,1,0,0,1-.92-1.13C201.76,138.12,202.22,137.83,202.82,137.74Z"/><path class="cls-116" d="M214.78,137.74c.6.15,1,.46,1,1.09a1,1,0,0,1-1,1,1,1,0,0,1-1.06-1.14A1.08,1.08,0,0,1,214.78,137.74Z"/><path class="cls-114" d="M227.8,138.87a1.14,1.14,0,0,1-1,1,1.11,1.11,0,0,1-1.1-1,1.28,1.28,0,0,1,1.13-1.16A1.16,1.16,0,0,1,227.8,138.87Z"/><path class="cls-116" d="M191.86,150.86a1,1,0,0,1-1.18.92,1,1,0,1,1,.17-2A1.09,1.09,0,0,1,191.86,150.86Z"/><path class="cls-115" d="M166.81,127.9c-.56-.09-1-.34-1.07-1a1.13,1.13,0,0,1,1.16-1.09,1.11,1.11,0,0,1,1,1.08A1.1,1.1,0,0,1,166.81,127.9Z"/><path class="cls-119" d="M191.35,113.89l.38.41.22.33v0a1.59,1.59,0,0,1-.51,1,1.06,1.06,0,0,1-1.23.14.91.91,0,0,1-.5-1,.89.89,0,0,1,.81-.89A7.54,7.54,0,0,1,191.35,113.89Z"/><path class="cls-116" d="M203.8,162.77a1.12,1.12,0,0,1-1,1.08,1,1,0,0,1-1.1-1,1,1,0,0,1,.94-1.14A1.09,1.09,0,0,1,203.8,162.77Z"/><path class="cls-120" d="M215.8,150.86a.89.89,0,0,1-.93.92,1,1,0,0,1-1.15-1,.93.93,0,0,1,1.07-.95C215.45,149.82,215.71,150.27,215.8,150.86Z"/><path class="cls-120" d="M202.75,149.79a1,1,0,1,1,.06,2,.9.9,0,0,1-1.07-.92A1,1,0,0,1,202.75,149.79Z"/><path class="cls-121" d="M215.55,162c.29.56.44,1.12-.09,1.62a1,1,0,0,1-1.47,0,1.16,1.16,0,0,1,.1-1.58C214.59,161.52,215.06,161.8,215.55,162Z"/><path class="cls-122" d="M225.75,126.48c.39-.68.95-.94,1.62-.47s.48,1.13.15,1.74C226,128,226,128,225.75,126.48Z"/><path class="cls-123" d="M154.46,127.84c-.78-.34-.68-1-.65-1.68a3.6,3.6,0,0,1,.73-.32.93.93,0,0,1,1.24.72c.15.66,0,1.18-.84,1.24Z"/><path class="cls-124" d="M179.8,126.79a.91.91,0,0,1-1,1c-.57,0-1-.18-1-.8a1,1,0,1,1,2-.2Z"/><path class="cls-125" d="M154.77,91.92a1,1,0,1,1,.19-2,.9.9,0,0,1,.85,1A.93.93,0,0,1,154.77,91.92Z"/><path class="cls-126" d="M203.8,174.83a.91.91,0,0,1-1,.92.9.9,0,0,1-1-.9.94.94,0,0,1,.94-1.07A1,1,0,0,1,203.8,174.83Z"/><path class="cls-125" d="M179.8,114.85a.92.92,0,0,1-1,1.05.89.89,0,0,1-1-1,.87.87,0,0,1,.86-1A.93.93,0,0,1,179.8,114.85Z"/><path class="cls-125" d="M155.81,115a1,1,0,1,1-2-.22.89.89,0,0,1,1-.83A.93.93,0,0,1,155.81,115Z"/><path class="cls-125" d="M179.8,150.86a.93.93,0,0,1-1.11.9.87.87,0,0,1-.86-1,.89.89,0,0,1,1-1A.92.92,0,0,1,179.8,150.86Z"/><path class="cls-127" d="M165.68,78.77c0,.22,0,.45,0,.67l-1.55-.75C164.81,78.35,165.22,78.81,165.68,78.77Z"/><path class="cls-107" d="M213.05,208a11.63,11.63,0,0,1-.67,2c-1.2,2.94-3.53,3.74-6.47,3.4a5.33,5.33,0,0,1-4.36-4.09,6.82,6.82,0,0,1,1.93-6.89c3.64-2.52,7.54-1.63,9.21,2.15A5.12,5.12,0,0,1,213.05,208Z"/><path class="cls-128" d="M213.05,208a15.61,15.61,0,0,0-.31-2.25,5.82,5.82,0,0,0-8.09-3.88c-.39.17-.69.54-1.17.51a5.11,5.11,0,0,1,5-1.77,13.83,13.83,0,0,1,1.86.5,6.12,6.12,0,0,1,3,6.16A1.15,1.15,0,0,1,213.05,208Z"/><path class="cls-129" d="M210.71,183.66c.57-.67.08-1.66.68-2.32l2.88,1a3.32,3.32,0,0,1-.59,2.64L211,183.91a1.89,1.89,0,0,0-.31-.25Z"/><path class="cls-130" d="M201.55,209.25a7.12,7.12,0,0,0,4.26,3.66c.45.27.95.1,1.43.15.78.08.91.48.54,1.11l-1.66.07C203.29,213.57,201.66,211.79,201.55,209.25Z"/><path class="cls-131" d="M167,161.63c.79.46,1.17,1.05.65,2-1.55.51-1.67.45-2-1A1.84,1.84,0,0,1,167,161.63Z"/><path class="cls-82" d="M167.91,186.88a1.22,1.22,0,0,1-1.11,1,1.17,1.17,0,0,1-1.05-1.23,1.14,1.14,0,0,1,1.17-.94A1.25,1.25,0,0,1,167.91,186.88Z"/><path class="cls-14" d="M190.87,185.66a1.14,1.14,0,0,1,1,1.05,1.06,1.06,0,0,1-1,1.12c-.53.11-1.2-.56-1.18-1.1A1.32,1.32,0,0,1,190.87,185.66Z"/><path class="cls-13" d="M179.8,186.69a1.09,1.09,0,0,1-1.1,1.15c-.62,0-.83-.45-.85-1s.13-1.12.86-1.16A1.1,1.1,0,0,1,179.8,186.69Z"/><path class="cls-96" d="M189.67,174.4a1.18,1.18,0,0,1,1.53-.54,1,1,0,0,1,.52,1.49C190.28,176,190,175.89,189.67,174.4Z"/><path class="cls-14" d="M202.77,185.67a1.22,1.22,0,0,1,1,1.09,1.18,1.18,0,0,1-1.21,1.08,1.1,1.1,0,0,1,.21-2.17Z"/><path class="cls-82" d="M166.88,175.74c-.58,0-1-.14-1.14-.75a1.15,1.15,0,0,1,1.15-1.14,1.07,1.07,0,0,1,1,1.11C167.88,175.57,167.38,175.73,166.88,175.74Z"/><path class="cls-13" d="M154.78,185.73a1,1,0,0,1,1,1,1,1,0,0,1-.86,1,1,1,0,0,1-.16-2.05Z"/><path class="cls-13" d="M215.69,185.92a.43.43,0,0,0,0,.16,1.35,1.35,0,0,1-.41,1.62c-.68.48-1.09-.21-1.59-.45a1.64,1.64,0,0,1,1-1.68.67.67,0,0,1,.28.06.71.71,0,0,0,.33.15.85.85,0,0,1,.34.14Z"/><path class="cls-132" d="M154.87,175.72a.88.88,0,0,1-1-.82,1,1,0,1,1,1.9-.11A.88.88,0,0,1,154.87,175.72Z"/><path class="cls-132" d="M178.75,173.81a.91.91,0,0,1,1,1,1,1,0,0,1-1.9.15A.93.93,0,0,1,178.75,173.81Z"/><path class="cls-110" d="M210.71,183.66l.31.25A.27.27,0,0,1,210.71,183.66Z"/><path class="cls-85" d="M275.8,102.89a1.12,1.12,0,0,1-1,1.11,1.05,1.05,0,0,1-1.16-.94,1.13,1.13,0,0,1,1.07-1.2A1.17,1.17,0,0,1,275.8,102.89Z"/><path class="cls-133" d="M286.57,104c-.61-.06-.87-.48-.87-1.09s.28-1.08.95-1.06a1,1,0,0,1,1.06,1A1.1,1.1,0,0,1,286.57,104Z"/><path class="cls-86" d="M275.76,115a1,1,0,0,1-1.12,1,1,1,0,0,1-1-1.16,1,1,0,0,1,1.18-.84C275.45,114,275.7,114.41,275.76,115Z"/><path class="cls-95" d="M287.7,126.86a1.07,1.07,0,0,1-.94,1.08,1,1,0,0,1-1.05-1,1,1,0,0,1,.91-1.13A1,1,0,0,1,287.7,126.86Z"/><path class="cls-96" d="M298.53,114a.92.92,0,0,1,1,1,.89.89,0,0,1-.84,1,.92.92,0,0,1-1.12-.88A.94.94,0,0,1,298.53,114Z"/><path class="cls-96" d="M287.7,114.94a.93.93,0,0,1-1.05,1,.88.88,0,0,1-.92-1.07.87.87,0,0,1,.95-.89A.93.93,0,0,1,287.7,114.94Z"/><path class="cls-11" d="M213.78,115.57a10,10,0,0,1-8.86,0c-.51-.22-.69-.67-1-1a3,3,0,0,1-2-.52c-.93-.9-1.86-1.81-2.8-2.7-.16-.16-.41-.28-.59-.11-.93.86-2.14.62-3.25.78a1.69,1.69,0,0,0,.55,1.21,24.12,24.12,0,0,1,5.85,12.4,2,2,0,0,0,.2.45c0,.06,0,.13,0,.19a3.4,3.4,0,0,1,.07,1.19l0,.2a17.33,17.33,0,0,1-.09,6.3c.21.07-.15,0-.06.17s-.19.16-.2.05c0-.64-.07-1.29-.06-1.94A26.35,26.35,0,0,0,198.58,120a28.49,28.49,0,0,0-4.7-6.66A38.89,38.89,0,0,0,180.4,104a1.19,1.19,0,0,1-.57-.56v0a2.59,2.59,0,0,1,1.62-1.56,9.07,9.07,0,0,0,4.47-4.4A5.25,5.25,0,0,1,187,95.92a8.33,8.33,0,0,1,0,2.29,16.66,16.66,0,0,0-.43,3.4c-.2,2.58,1.14,4.45,3.25,5.83,2.75,1.79,9,1.25,11-2a1.22,1.22,0,0,1,.28,0,11.82,11.82,0,0,0,0,3.8,7.61,7.61,0,0,0,4.66,5.54,8.92,8.92,0,0,0,6.71.5,1.32,1.32,0,0,1,1.25.07A.24.24,0,0,1,213.78,115.57Z"/><path class="cls-134" d="M191.65,78.1c.52.9.18,1.51-.65,2-1.13-.38-1.48-.77-1.24-1.44S190.46,77.83,191.65,78.1Z"/><path class="cls-135" d="M190.11,102.06c1.22-.32,1.3-.28,1.83,1l0,0a1.38,1.38,0,0,1-.2.33c-.43.66-1,.83-1.61.32S189.6,102.61,190.11,102.06Z"/><path class="cls-120" d="M191.58,67.86a7.79,7.79,0,0,1-1,.09.9.9,0,0,1-.89-.8.92.92,0,0,1,.53-1.07,1,1,0,0,1,1.2.17,1.47,1.47,0,0,1,.49,1h0a2.7,2.7,0,0,0-.25.4Z"/><path class="cls-136" d="M226.79,89.88l1,.43c-.08,1.38-.08,1.38-1.31,1.66l-.67-.41C225.57,90.4,225.64,90.27,226.79,89.88Z"/><path class="cls-122" d="M227.82,114.92a1,1,0,0,1-1,1,1.06,1.06,0,0,1-1.11-1.12,1.08,1.08,0,0,1,2.14.1Z"/><path class="cls-137" d="M238.4,101.76c1.39.41,1.41.44,1.21,1.94a1.4,1.4,0,0,1-1.61,0A1.27,1.27,0,0,1,238.4,101.76Z"/><path class="cls-138" d="M203.17,101.78c1,1.3.91,1.63-.65,2.29h0c-.11-.09-.23-.19-.35-.27C201.42,102.48,201.58,102.16,203.17,101.78Z"/><path class="cls-139" d="M213.78,115.57a.64.64,0,0,0-.11-.3c.26-1.32.26-1.32,1.67-1.35l.39.36C215.76,116,215.35,116.24,213.78,115.57Z"/><path class="cls-140" d="M179.83,103.46a3.28,3.28,0,0,1-.83.5.94.94,0,0,1-1.21-.8,1,1,0,0,1,.58-1.22,1,1,0,0,1,1.35.54,3,3,0,0,1,.11,1Z"/><path class="cls-126" d="M203.8,91.55a3.7,3.7,0,0,1-.89.36.86.86,0,0,1-1.06-.77.89.89,0,0,1,.5-1.09,1,1,0,0,1,1.37.48,3.43,3.43,0,0,1,.15.8A1.87,1.87,0,0,1,203.8,91.55Z"/><path class="cls-67" d="M178,90.22a1.21,1.21,0,0,1,1.89.39c0,.63-.1,1.2-.86,1.34C178.08,92.11,177.74,91.53,178,90.22Z"/><path class="cls-141" d="M179.17,65.92c1,1.27.89,1.7-.69,2.08a1,1,0,0,1-.68-1.27C178,66,178.57,66,179.17,65.92Z"/><path class="cls-8" d="M192,114.63l-.23-.33A.31.31,0,0,1,192,114.63Z"/><path class="cls-8" d="M191.7,67.65c.08-.14.17-.27.25-.4A.44.44,0,0,1,191.7,67.65Z"/><path class="cls-8" d="M191.72,103.4l.2-.33Z"/><path class="cls-8" d="M202.18,103.81a.37.37,0,0,1,.35.27Z"/><path class="cls-142" d="M226.85,149.77a1,1,0,0,1,1,1,1,1,0,0,1-1,1.05,1,1,0,0,1-1.15-1.08A1.15,1.15,0,0,1,226.85,149.77Z"/><path class="cls-143" d="M214.75,127.92a1,1,0,0,1-1-1,1,1,0,0,1,1.12-1.1,1.06,1.06,0,0,1-.08,2.12Z"/><path class="cls-143" d="M201.86,126.12a1.79,1.79,0,0,1,.58-.27c.82-.11,1.34.26,1.38,1s-.43,1.12-1.26,1.09a2.94,2.94,0,0,1-.62-.19v0a1.47,1.47,0,0,1-.07-1.61Z"/><path class="cls-139" d="M201.9,114.09c.79-.32,1.49-.33,2,.52a3.19,3.19,0,0,1-.16.77,1,1,0,0,1-1.21.54.92.92,0,0,1-.76-.9A3.78,3.78,0,0,1,201.9,114.09Z"/><path class="cls-71" d="M215.68,175.46a2.41,2.41,0,0,1-.74.32c-.76.07-1.23-.31-1.23-1a1,1,0,0,1,.84-1c.64-.12,1,.22,1.19,1a2.47,2.47,0,0,1,0,.66Z"/><path class="cls-144" d="M214.73,80a1.15,1.15,0,0,1-1-1,1.12,1.12,0,0,1,1.13-1.11A1,1,0,0,1,215.8,79,1.07,1.07,0,0,1,214.73,80Z"/><path class="cls-116" d="M215.81,102.89a1,1,0,1,1-2.09-.08,1,1,0,0,1,1.08-1C215.45,101.84,215.71,102.33,215.81,102.89Z"/><path class="cls-126" d="M214.65,90a.93.93,0,0,1,1,1,.89.89,0,0,1-.84,1,.91.91,0,0,1-1.13-.87A.94.94,0,0,1,214.65,90Z"/><path class="cls-116" d="M202.79,80a1.09,1.09,0,0,1-.16-2.16A1.11,1.11,0,0,1,203.79,79,1.14,1.14,0,0,1,202.79,80Z"/><path class="cls-120" d="M191.85,91a1.11,1.11,0,0,1-1.11.93,1,1,0,0,1-1-1,1,1,0,0,1,1.08-1A1,1,0,0,1,191.85,91Z"/><path class="cls-120" d="M203.81,66.93a1,1,0,0,1-1,1,.91.91,0,0,1-1.08-.92,1,1,0,0,1,1-1.06A.94.94,0,0,1,203.81,66.93Z"/><path class="cls-145" d="M179.82,78.88A1.08,1.08,0,0,1,178.73,80a.91.91,0,0,1-.92-.93,1,1,0,0,1,.95-1.22A1.1,1.1,0,0,1,179.82,78.88Z"/><path class="cls-114" d="M227.8,102.82a1.14,1.14,0,0,1-1,1.15,1.25,1.25,0,0,1-1.17-1.12,1.13,1.13,0,0,1,1.07-1A1.16,1.16,0,0,1,227.8,102.82Z"/><path class="cls-146" d="M167.91,150.8a1.09,1.09,0,0,1-2.17.12,1.09,1.09,0,0,1,2.17-.12Z"/><path class="cls-9" d="M215.34,185.94l-.33-.31a.7.7,0,0,1,.32,0c.09.06.12.12.09.19S215.37,185.94,215.34,185.94Z"/><path class="cls-4" d="M215.34,185.94c0-.1,0-.19,0-.29l.35.27Z"/><path class="cls-147" d="M239.68,115.58a3.47,3.47,0,0,1-.89.34,1,1,0,1,1,.92-1.13,5.36,5.36,0,0,1,0,.8Z"/><path class="cls-148" d="M336.12,329c0-.49,0-1-.05-1.47a5.8,5.8,0,0,0-7.21-5.38,5.16,5.16,0,0,1-1.72.46,5.56,5.56,0,0,1,6.88-.45A5.63,5.63,0,0,1,336.12,329Z"/><path class="cls-148" d="M327.13,322.63a.36.36,0,0,1-.38.32A.36.36,0,0,1,327.13,322.63Z"/><path class="cls-149" d="M514.91,88.07h-2.53c-11.61.11-23.23.19-34.84.37a2.9,2.9,0,0,1-3-1.69c-5.87-10.13-11.82-20.21-17.74-30.3-.33-.56-.63-1.13-1-1.71.37-.46.84-.28,1.23-.29,12.27-.13,24.54-.23,36.81-.37A2.06,2.06,0,0,1,496,55.22c6.11,10.5,12.28,21,18.42,31.45A1.83,1.83,0,0,1,514.91,88.07Z"/><path class="cls-149" d="M473.85,93.23c.42-.77.89-1.52,1.23-2.32a1.64,1.64,0,0,1,1.8-1q15.69-.1,31.37-.28l5.59,0a1.94,1.94,0,0,1,1.09.13c.07.65-.35,1.06-.61,1.51q-8.79,15.68-17.57,31.35a2.08,2.08,0,0,1-2.29,1.34,15.13,15.13,0,0,0-2.13,0c-3.22.25-6.44.06-9.66.1-2.57,0-7.1.12-9.67.18-1.14,0,.37-.64.27-1.66a14.54,14.54,0,0,1,0-1.48c0-8,0-16,0-23.93A13.56,13.56,0,0,1,473.85,93.23Z"/><path class="cls-2" d="M471,83.37l3.19,5.32a1,1,0,0,0,0,.92q-9.42,16.77-18.83,33.49c-.66-.06-.75-.48-.94-.79q-9.25-15.78-18.53-31.55a2.06,2.06,0,0,1,0-2.4c1-1.63,1.9-3.31,2.85-5a8.32,8.32,0,0,1,2.58-.34q13.55,0,27.09,0A10.27,10.27,0,0,1,471,83.37Z"/><path class="cls-149" d="M471,83.37c-.43.48-1,.32-1.54.32q-14.6,0-29.17,0c-.53,0-1.11.16-1.55-.3L452,59.64c.77-1.38,1.55-2.75,2.29-4.06a.52.52,0,0,1,.6.33Z"/><path class="cls-2" d="M473.85,93.23q0,14,0,27.91c0,.38,0,2.63,0,3-3.86,0-6.38,0-16.35,0a1,1,0,0,1-.79-.18c-.1-.53.28-.91.51-1.32q8.19-14.62,16.4-29.23A1.26,1.26,0,0,1,473.85,93.23Z"/><path class="cls-150" d="M474.17,89.61c-.41-.29-.38-.6,0-.92A.85.85,0,0,1,474.17,89.61Z"/><path class="cls-10" d="M222.93,246.71a.31.31,0,0,1,.32-.23Z"/><path class="cls-151" d="M233.39,228.07c-.53.56-1.43,0-1.93.6l-1.35-.38C231.18,227.76,232.3,228.08,233.39,228.07Z"/><path class="cls-8" d="M223.59,212.87c1.83,1.3,3.61,2.66,5.53,3.83a33.54,33.54,0,0,0,7.95,3.49,30.69,30.69,0,0,1,14,8.85,9.25,9.25,0,0,1,2.63,6.67c-.62.24-1-.21-1.33-.47-2.29-1.5-4.51-3.11-6.85-4.53a30.36,30.36,0,0,0-10.63-4.17,14.75,14.75,0,0,0-3.11-.15c-2.76-1.77-5.51-3.55-8.28-5.31-.5-.32-1-.61-1.54-.92a1.16,1.16,0,0,1-.35-1.18,44,44,0,0,1,1.18-5.2A1.19,1.19,0,0,1,223.59,212.87Z"/><path class="cls-152" d="M223.59,212.87a58.66,58.66,0,0,0-1.65,7.29q-1.19,5.4-2.38,10.79c-.53.44-1.24-.26-1.76.28l-.12-.28a1.73,1.73,0,0,1-.18-1.71c1.36-5.22,2.7-10.45,4.17-15.64.2-.67.28-1.74,1.53-1.33l.36.28A1.66,1.66,0,0,0,223.59,212.87Z"/><path class="cls-6" d="M223.2,212.27c-.66,0-.78.52-.9,1Q220,222.1,217.68,231l-2-.66a49.64,49.64,0,0,1,1.46-6c1.22-4.79,2.54-9.56,3.81-14.34A14,14,0,0,0,223.2,212.27Z"/><path class="cls-153" d="M334.84,327.92a4.54,4.54,0,1,1-9.08-.08,4.54,4.54,0,1,1,9.08.08Z"/><path class="cls-154" d="M207.78,214.17c0-.53-.15-.93-.79-.94-.42,0-.86.05-1.18-.32a12.14,12.14,0,0,0,3.06-.21,7.48,7.48,0,0,0,3.51-2.76C212.32,212,209.93,214.1,207.78,214.17Z"/><path class="cls-155" d="M207.09,202.65a4.51,4.51,0,0,1,4.61,4.51,4.59,4.59,0,1,1-9.17.06A4.5,4.5,0,0,1,207.09,202.65Z"/><path class="cls-10" d="M201.86,126.12a2.68,2.68,0,0,0,.07,1.61A1,1,0,0,1,201.86,126.12Z"/><path class="cls-99" d="M454.45,114a1,1,0,1,1-1,1.1A1,1,0,0,1,454.45,114Z"/><path class="cls-156" d="M328.51,331.14c-2.08-1.35-2.54-3.11-1.34-5.16a3.46,3.46,0,0,1,3.25,1.89A4,4,0,0,1,328.51,331.14Z"/><path class="cls-157" d="M332.09,324.68c2,1.25,2.46,2.76,1.47,5a3.14,3.14,0,0,1-3.22-1.76A3,3,0,0,1,332.09,324.68Z"/><path class="cls-158" d="M330.47,327.93l3.09,1.74c-1.29,2-2.89,2.46-5.05,1.47l1.63-3.2C330.24,327.78,330.35,327.78,330.47,327.93Z"/><path class="cls-159" d="M330.47,327.93h-.33c-.75-1-2.07-1.17-3-2,1.31-1.89,2.8-2.29,4.92-1.3A10.54,10.54,0,0,0,330.47,327.93Z"/><path class="cls-160" d="M210.37,209c-1.31,2.07-3,2.54-5.18,1.4a4.19,4.19,0,0,1,1.92-3.25A3.79,3.79,0,0,1,210.37,209Z"/><path class="cls-161" d="M210.37,209l-3.25-1.65a.7.7,0,0,1-.21-.43c.38-1.14.69-2.32,1.92-2.9C210.85,205.06,211.37,206.75,210.37,209Z"/><path class="cls-162" d="M207.08,207c0,.1,0,.2,0,.3-.77.94-1.07,2.17-1.93,3-1.93-1.36-2.32-2.92-1.27-5A3.34,3.34,0,0,1,207.08,207Z"/><path class="cls-163" d="M207.08,207l-3.16-1.66c1.36-1.94,2.8-2.35,4.91-1.37A24.05,24.05,0,0,1,207.08,207Z"/></g></g></svg>