<svg xmlns="http://www.w3.org/2000/svg" viewBox="0 0 443.47 397.18"><defs><style>.cls-1{fill:#313638;}.cls-2{fill:#e2e2e2;}.cls-3{fill:#b4b4b4;}.cls-4{fill:#ababab;}.cls-5{fill:#dcdfde;}.cls-6{fill:#fcbc94;}.cls-7{fill:#efefef;}.cls-8{fill:#9b7b66;}.cls-9{fill:#8d7160;}.cls-10{fill:#f2dfd1;}.cls-11{fill:#9c7b66;}.cls-12{fill:#f2e0d2;}.cls-13{fill:#dadede;}.cls-14{fill:#a1816b;}.cls-15{fill:#eef1f2;}.cls-16{fill:#eef2f2;}.cls-17{fill:#edf1f2;}.cls-18{fill:#edf0f1;}.cls-19{fill:#eceff0;}.cls-20{fill:#ecf0f1;}.cls-21{fill:#ebeff0;}.cls-22{fill:#ebf0f1;}.cls-23{fill:#eef3f4;}.cls-24{fill:#f0f2f3;}.cls-25{fill:#eef2f3;}.cls-26{fill:#f2f7f7;}.cls-27{fill:#7e695c;}.cls-28{fill:#f5f6f4;}.cls-29{fill:#f0f3f3;}.cls-30{fill:#f1f3f4;}.cls-31{fill:#eceff1;}.cls-32{fill:#eff2f3;}.cls-33{fill:#f6f6f7;}.cls-34{fill:#f5f5f6;}.cls-35{fill:#ecf1f2;}.cls-36{fill:#f5f6f7;}.cls-37{fill:#eff1f2;}.cls-38{fill:#f6f6f6;}.cls-39{fill:#edf2f3;}.cls-40{fill:#edf2f2;}.cls-41{fill:#f3f8f9;}.cls-42{fill:#f3f7f7;}.cls-43{fill:#f0f3f4;}.cls-44{fill:#f3f8f8;}.cls-45{fill:#f4f7f8;}.cls-46{fill:#f4f7f7;}.cls-47{fill:#f6f7f7;}.cls-48{fill:#f4f8f8;}.cls-49{fill:#f5f8f7;}.cls-50{fill:#f2f5f6;}.cls-51{fill:#f6f7f8;}.cls-52{fill:#f9f9f9;}.cls-53{fill:#f8f8f9;}.cls-54{fill:#f9fbfb;}.cls-55{fill:#f4f8f9;}.cls-56{fill:#fdfcfb;}.cls-57{fill:#f6fbfb;}.cls-58{fill:#f6fafa;}.cls-59{fill:#f8fbfb;}.cls-60{fill:#f7fafa;}.cls-61{fill:#f6fafb;}.cls-62{fill:#f6f9fa;}.cls-63{fill:#f9fcfc;}.cls-64{fill:#f8fafa;}.cls-65{fill:#f5fafb;}.cls-66{fill:#f8fafb;}.cls-67{fill:#7f685a;}.cls-68{fill:#f8faf8;}.cls-69{fill:#f8fbf9;}.cls-70{fill:#f9fbf9;}.cls-71{fill:#fafcfb;}.cls-72{fill:#fbfcfb;}.cls-73{fill:#fbfcfa;}.cls-74{fill:#fafdfb;}.cls-75{fill:#fbfdfc;}.cls-76{fill:#fbfdfb;}.cls-77{fill:#fcfdfc;}.cls-78{fill:#878686;}.cls-79{fill:#a9a9a9;}.cls-80{fill:#dddedc;}.cls-81{fill:#cdd5cd;}.cls-82{fill:#c09079;}.cls-83{fill:#1c2529;}.cls-84{fill:#a9abab;}.cls-85{fill:#7d685a;}.cls-86{fill:#bd9176;}.cls-87{fill:#8f8e8e;}.cls-88{fill:#7b7979;}.cls-89{fill:#907361;}.cls-90{fill:#fff9f6;}.cls-91{fill:#fffaf6;}.cls-92{fill:#fffaf7;}.cls-93{fill:#fff9f5;}.cls-94{fill:#fcf7f4;}.cls-95{fill:#fefcfa;}.cls-96{fill:#fffcfa;}.cls-97{fill:#fcf8f5;}.cls-98{fill:#f9f8f7;}.cls-99{fill:#fefcfb;}.cls-100{fill:#fffcfb;}.cls-101{fill:#fffdfc;}.cls-102{fill:#fffdfb;}.cls-103{fill:#a6866e;}.cls-104{fill:#454c52;}.cls-105{fill:#7d6759;}.cls-106{fill:#afb4b4;}.cls-107{fill:#f7f8f7;}.cls-108{fill:#fefefe;}.cls-109{fill:#fdfefe;}.cls-110{fill:#fdfdfd;}.cls-111{fill:#feffff;}.cls-112{fill:#f7f9f7;}.cls-113{fill:#f7faf7;}.cls-114{fill:#f9f6f3;}.cls-115{fill:#fbf8f6;}.cls-116{fill:#fdf9f7;}.cls-117{fill:#f8f4f2;}.cls-118{fill:#fbfaf8;}.cls-119{fill:#f9f9f8;}.cls-120{fill:#f5f3f1;}.cls-121{fill:#fcfcfb;}.cls-122{fill:#f6f5f3;}.cls-123{fill:#f8f9f8;}.cls-124{fill:#f9fafa;}.cls-125{fill:#fffbf8;}.cls-126{fill:#fff8f4;}.cls-127{fill:#f5f4f3;}.cls-128{fill:#fbfbfb;}.cls-129{fill:#444d53;}.cls-130{fill:#ac967a;}.cls-131{fill:#e1e1e1;}.cls-132{fill:#f1bb41;}.cls-133{fill:#a8acac;}.cls-134{fill:#edba41;}.cls-135{fill:#177764;}.cls-136{fill:#17c9a7;}.cls-137{fill:#0e4740;}.cls-138{fill:#485d68;}.cls-139{fill:#f7f7f7;}.cls-140{fill:#e8e9eb;}</style></defs><g id="Layer_2" data-name="Layer 2"><g id="Website"><g id="about-me-home"><path class="cls-1" d="M138.18,262.69a5.34,5.34,0,0,0-5.08-4.11c-.76-.11-1.49-.37-2.26-.48-1.08-.23-2.14-.54-3.22-.76-4.67-1-9.36-2-14-3.35a292.52,292.52,0,0,1-42.5-18A168.78,168.78,0,0,1,40.4,215.88c-.77-.64-1.49-1.41-2.62-1.35-.18-.13-.35-.25-.52-.39-2.14-1.73-4.59-1.09-5.48,1.45a16.72,16.72,0,0,0-.49,1.88c-2.72,12.57-5.51,25.12-8.13,37.72C22.06,260.53.48,321.67,0,327.13v69.69c38.79,0,70.28.36,109.06.36a5.18,5.18,0,0,0,1.17-3q7.08-32.71,14.12-65.45c2.29-10.66,4.73-21.29,6.8-32,.78-3.22,1.53-6.45,2-9.72,0-3.1,1.3-5.87,2.13-8.76.74-4.77,2-9.44,2.89-14.16A3.62,3.62,0,0,0,138.18,262.69Z"/><path class="cls-1" d="M331.88,308.72c-2.88-1.54-4.19-1.12-5.8,1.72a19.16,19.16,0,0,0-.73,4c.08,2.88-.16,5.76-.32,8.64A183.53,183.53,0,0,1,319.79,356a280.38,280.38,0,0,1-11.92,37.33c-.48,1.23-1.39,2.47-.39,3.87,62.38,0,70.81-.09,133.19-.09v-32C427,357.73,345.55,316,331.88,308.72Z"/><path class="cls-2" d="M301.4,397.18H276.65c-9.12-3.47-17.7-8.11-26.49-12.28-4.06-1.93-4.88-4.51-2.9-8.51,1.22-2.46,2-5.13,3.33-7.52a1.13,1.13,0,0,1,.84-.47c6.12,3.36,12.29,6.65,18.47,9.93,1.07.56,2.36.72,3.21,1.71.57,1.37.35,2.87.71,4.28a5.6,5.6,0,0,0,3.57,5.43,6.8,6.8,0,0,0,7-.43c.89-.59,1.45-1.64,2.61-1.84,5,2.74,10.16,5.15,14.94,8.27C302.18,396.39,301.8,396.79,301.4,397.18Z"/><path class="cls-3" d="M301.4,397.18c.13-.44.25-.88.37-1.32-.5-1.3.23-2.4.67-3.51a281.44,281.44,0,0,0,12.24-37.66c2.78-11.37,5-22.83,5.57-34.57.14-2.67.35-5.32.37-8,0-.92-.08-1.91.78-2.59a8.13,8.13,0,0,1,3.21,1.47c1,.72,1.08-.14,1.47-.57a153.29,153.29,0,0,1-2.76,32.7,275.78,275.78,0,0,1-15.25,51.79,3.7,3.7,0,0,0-.59,2.25Z"/><path class="cls-4" d="M251,369a56.09,56.09,0,0,1-3.08,7.59,11.08,11.08,0,0,0-.87,2.2,4.15,4.15,0,0,0,1.6,4.57,7.6,7.6,0,0,0,1.49.86l25,11.88c.58.27,1.23.47,1.51,1.13h-6.51c-5-1.7-9.45-4.68-14.29-6.77-1.7-1-3.59-1.68-5.25-2.78h0c-.25-.25-.66-.18-.89-.47a14.09,14.09,0,0,0-3.36-1.84,4,4,0,0,1-2.28-2.66c-.58-2.17-.9-4.32.4-6.37.41-3.14,1.83-6,2.76-8.94a1,1,0,0,1,.55-.34A4.64,4.64,0,0,1,251,369Z"/><path class="cls-5" d="M255.81,390.17c3.15,1.18,6.13,2.72,9.14,4.19,1.22.59,2.47,1.12,3.7,1.69.58.27,1.2.48,1.49,1.13h-2.6a13.86,13.86,0,0,0-2.91-1.84c-2.92-1.59-5.87-3.12-8.81-4.67-.13-.11-.18-.22-.13-.34S255.77,390.17,255.81,390.17Z"/><path class="cls-6" d="M156.82,213a15.35,15.35,0,0,0,3.35.83,27.16,27.16,0,0,1,10.46,4c5.84,3.58,12.14,6.06,18.5,8.44,6.9,2.58,13.9,4.89,20.94,7A27.86,27.86,0,0,1,224.35,243c3.86,5,7.74,9.9,11.46,15,9.26,12.38,16.72,25.59,19.34,41.35a25.57,25.57,0,0,0,1.76-4.8c.93-3.13,2.45-4,5.5-3a16.56,16.56,0,0,1,5.69,2.58,1.9,1.9,0,0,1,.31.62,11.22,11.22,0,0,1-.59,4.26c-5,20.25-10.06,40.48-16.36,60.38-.47,1.49-.42,3.42-2.46,4a16.68,16.68,0,0,1-7.51-4.52,9.25,9.25,0,0,1-2.36-8.23,17.5,17.5,0,0,0,.21-5.09c-.8.07-1.23.7-1.74,1.11a22.86,22.86,0,0,1-9,4.49,7.56,7.56,0,0,1-4.49.08c-6.05-2.24-12.15-1.67-18.39-.91a34.57,34.57,0,0,1-17.79-2.77c-4.95-2.1-7.18-6.33-7.43-11.54-.2-4.39,2.37-7.6,6.62-8.72.56-.15,1.13-.25,1.69-.41,3.44-1,4.56-2.77,3.91-6.33a21.41,21.41,0,0,1-.5-5.59c.35-3.88,3.32-5.65,6.75-3.79,4.08,2.21,8.5,3.55,12.88,5.65-6.42-2.75-11.56-6.9-16.49-11.36a37.05,37.05,0,0,1-2.59-2.87,45.86,45.86,0,0,1-9.48-16.3,5,5,0,0,1-.16-.64,46.07,46.07,0,0,1-1.94-17.31,46.15,46.15,0,0,0-.41-12.53c-.67-3.44-2.77-6-5.3-8.24A43.84,43.84,0,0,0,159,238.15a49.73,49.73,0,0,1-19.24-11.4c-1.22-1.41-2.23-3-3.41-4.41a28,28,0,0,1-4.23-9.89c-.79-4.48.08-8.33,4-11.08a3.91,3.91,0,0,1,4.09.17c2.93,5.07,8.29,7,12.9,9.85A16.88,16.88,0,0,0,156.82,213Z"/><path class="cls-6" d="M40.49,106a19.8,19.8,0,0,1-1.39-19.2c3.9-9.07,7.57-18.24,10.59-27.65a79.91,79.91,0,0,0,2.82-11.31,30.4,30.4,0,0,1,4.3-12.13,15.24,15.24,0,0,0,1.12-2.57c2.2-5.35,2.24-11.08,3-16.7A3.12,3.12,0,0,0,60.21,14C61,10.79,63.86,8.75,68,10.43a13.54,13.54,0,0,1,5.87,4.92A29.29,29.29,0,0,1,78.2,25.84c.2.84.36,1.68.54,2.53,1.12,1.41.68,3,.48,4.55a45.05,45.05,0,0,1-2.46,10.67,16.12,16.12,0,0,1-6.92,8.53,6.48,6.48,0,0,1-3.27,1c-1.14-.34-2.28-1.12-3.48-.14-.24.1-.48-.12-.73,0,.28,0,.53.15.81.16.8.27,1.63.5,2.42.82,1,.67,2.16,1.14,3.17,1.83,2.15,1.49,2.66,3.56,1.33,5.81a7.41,7.41,0,0,1-6.25,4c1,.28,1.86.56,1.86,1.75-.29.68-1.32.58-1.55,1.68,1.29-.07,1-1.47,1.77-1.8,4.35,1,6.3,7.39,3.28,10.84-1.85,2.12-4.11,3.22-7.79,3.79a29.83,29.83,0,0,1,7.49-.34c1.23,0,2.48.45,2.7,1.74.27,1.65,1.31,1.86,2.59,2,8.46.82,15.31,4.84,21.22,10.7.81.81,1.71,1.6,1.7,2.9-.11.78-1.18.77-1.3,1.67.94.49,1.43-.64,2.19-.64a2.33,2.33,0,0,1,1.35,1c4.55,5.57,10.34,20.2,10.8,27.22-.13-.86.45-1.7.51-2.64.93-2.5,1.45-5.14,2.73-7.51a19.88,19.88,0,0,1,1.19-2c3.2-4.6,7.61-4.73,11-.32a18.06,18.06,0,0,0,2.51,2.93c2.24,1.83,4.28,2,6.48.14a15.29,15.29,0,0,1,7.65-3.25c.87.55,1.46,1.59,2.68,1.52a12.54,12.54,0,0,1,5.87,15,40.11,40.11,0,0,1-12.17,17.58,25,25,0,0,0-7.52,10.12,6.49,6.49,0,0,1-1.79,2.91,2.82,2.82,0,0,0-2.52,2.41c-3.16,2.53-6.95,3.41-11,4.17a43.71,43.71,0,0,0,4.9,3.83c3.35,2.17,4.53,5.29,4.22,9.1a12.5,12.5,0,0,1-1.37,5.62c-1.45.87-2.67-.08-3.87-.58q-10.69-4.49-21.17-9.45c-10.31-4.89-20.6-9.8-30.79-14.94-1.21-.6-2.61-1.08-2.66-2.8a7.58,7.58,0,0,1,1-3.51c.87-1.44,2.1-2.29,3.81-1.6a23.76,23.76,0,0,0,11.7,1.56c.25,0,.59-.07.73.28-5.39-2.43-9.66-6.31-13.63-10.56-7-7.5-12-16.44-18-24.67-.92-1.26-2.18-2.35-2.52-4,.11-.59,1.19-.8.76-1.55-.31-.53-1-.24-1.56-.37-1.77-.68-2.38-2.4-3.33-3.79s-1.69-3-2.67-4.39h0A10.51,10.51,0,0,1,40.49,106Z"/><path class="cls-7" d="M39.06,208q2-9.4,4-18.8,2.58-12,5.19-24.08c.83-.89,1-1.77,0-2.64a7.51,7.51,0,0,0,1.28-1.12,5,5,0,0,1,6.57-1.44c1.89.89,3.66,2,5.64,2.75a1.65,1.65,0,0,1,1.63.61c.54,1.11,1.56,1,2.55,1a8.47,8.47,0,0,1,2.41.95c8,3.9,15.9,8.19,24.08,11.83a7.14,7.14,0,0,1,2.54,1.61,2.15,2.15,0,0,0,2.62,1.19c2.89.51,5.29,2.2,7.9,3.36,5.52,2.45,11,4.88,16.63,7.17a5.6,5.6,0,0,1,.55.27l.8.39c1.06.48,2.16.88,3.22,1.39.52.31,1.16.51,1.25,1.26-.21.94-.82,1.72-1.07,2.65-1,5.24-2.22,10.45-3.34,15.68a3.47,3.47,0,0,1-1,2.3,3.06,3.06,0,0,1-2.48-.08,6.36,6.36,0,0,0-6.51,2,9,9,0,0,0-2.4,8.61c.1,3.8,2.76,5.21,5.83,6.24,1.25.38,2.14,1.13,1.86,2.51-1.07,5.22-1.71,10.55-3.65,15.57-1,1-2.19.45-3.25.08a302.22,302.22,0,0,1-28.39-11.38c-13.34-6.21-26.18-13.28-37.92-22.22-1.79-1.35-3.51-2.78-5.21-4.26A3.07,3.07,0,0,1,39.06,208Z"/><path class="cls-8" d="M65.66,67.45c-.69-1.12-2-1.26-3.22-2,1.07-.24,1.94-.4,2.79-.63a6.88,6.88,0,0,0,4.55-4,3.34,3.34,0,0,0-1.42-4.6A25.33,25.33,0,0,0,65.87,55a1,1,0,0,1-.6-.82,1.27,1.27,0,0,1,.81-1.44c5.25-1,8.12-4.66,10-9.31a40.91,40.91,0,0,0,2.71-15l2.07-1.26a10.83,10.83,0,0,1,.59,8.19c-.37,1-2.13,1.53-.77,2.94.82,1,.54,2.19.34,3.31a47,47,0,0,1-2.62,9.54,44.87,44.87,0,0,0-2.15,7.44c-.62,2.9-.15,5.42,2.24,7.39a3.69,3.69,0,0,1,1.15,1.54c.63,1.88.63,1.88,2.29.47A5.88,5.88,0,0,1,84,67.56c4.27-.35,6.52-2.31,7.34-6.63.77-4,1.23-8.14,1.8-12.22a25.49,25.49,0,0,1,3.38-10.2,4.68,4.68,0,0,0,.3-.59,3.94,3.94,0,0,1,.35-.55c.06-.08.12-.17.19-.25.69-.83,1.15-1.83,1.92-2.59.54-.53,1-1.29,2-.93.63.49.25,1.35.74,2,1.26-.34,2.22-1.43,3.57-1.54.26.78-.32,1.19-.76,1.63A21.35,21.35,0,0,0,98.69,48a8.17,8.17,0,0,1-1,3.7c-2.26,1.1-2.26,1.1-.64,2.7a4,4,0,0,1,0,2.76c-1,5.74-2.15,11.47-3.23,17.21-.52,2.77-.58,5.28,1.31,7.55a2.27,2.27,0,0,1,.42,1c.34.76-.64,2.56,1.5,1.87a3.15,3.15,0,0,1,.56-.26,2.2,2.2,0,0,1,.62-.12,15.19,15.19,0,0,1,3.13.75,6.56,6.56,0,0,0,8-4.39c1.22-3.68,2.29-7.4,3.36-11.11a2.92,2.92,0,0,1,.15-.65c1.35-3.88,2.33-7.88,3.6-11.79A28,28,0,0,1,121.12,48c1.14-1.4,2.44-2.69,4.48-2.64.59.45.14,1.64,1.23,1.74.21.93-.57,1.26-1.1,1.66a16.75,16.75,0,0,0-6.13,9.88c-1.75,7.35-3.88,14.61-5.7,21.94A6.52,6.52,0,0,1,113,83c-.54.75-2,1-1.26,2.43a5.38,5.38,0,0,1,.24.55,2.41,2.41,0,0,1,.16.6c-.3,5.46,1.91,8.8,6.65,10.19a6.75,6.75,0,0,0,6-1A13.7,13.7,0,0,0,129.08,91q5.5-9.69,11-19.39c.56-1,1-2.1,2.38-2.31a1.62,1.62,0,0,1,1.17.53c.84,1.19.14,2.23-.38,3.22-2.41,4.6-4.41,9.4-6.77,14-.26.51-.52,1-.74,1.56-1.23,2.91-.61,4.36,2.37,5.57,6.53,2.67,13.09.7,17.18-5.08.9-1.28,1.4-2.88,2.88-3.72a3.67,3.67,0,0,1,2.51.1,1,1,0,0,1,.26.58c-3.33,8.38-8.46,15-17.42,17.93a17.77,17.77,0,0,1-7.29.42c-2.59-.25-4.45-2.17-5-4.94a8.15,8.15,0,0,1,.14-4.73,11.18,11.18,0,0,1-2.45,4.49,12.16,12.16,0,0,0-2.47,1.81,14.81,14.81,0,0,1-9.35.21c-5.16-1.74-8.64-6-8.17-11.65C104.33,93,99.41,93.77,94.49,91c-5.64-3.22-4.92-8.57-3.76-14a15.24,15.24,0,0,1-3.67,5c-1.51,1.37-3.48,2-5,3.36-.8,0-1-1.23-2-1,.19,1.14,1.33.45,1.76,1a10.83,10.83,0,0,1,2.09.52c8,3.77,15,8.89,20.22,16.18A36.28,36.28,0,0,1,111,125.14a1.48,1.48,0,0,0,.25.44,30,30,0,0,1-1,4.42,17.46,17.46,0,0,1-1.14-4.34,75.78,75.78,0,0,0-6.94-19A34,34,0,0,0,97.74,100l-.24,0a1.55,1.55,0,0,1-.39-.28.88.88,0,0,1-.17-.68,31.78,31.78,0,0,0-9.79-8.71A32,32,0,0,0,71,85.69c-.41-.48,0-.75,0-1.06.35-1.47-.11-2.25-1.62-2.38s-3.32-.09-5-.11-3.17,0-5.12,0l4.93-1.59A10.29,10.29,0,0,0,68,78.38c2.14-1.91,2.68-4,1.6-6.62a7.05,7.05,0,0,0-4-4.33Z"/><path class="cls-8" d="M111.21,125.58h-.41c-.3-2.56.35-5.17-.32-7.72a1.27,1.27,0,0,1,.45-.69c.47-.38,1.49-.24,1.39-1.08s-1.24-.42-1.76-.88-.71-1.19-.89-1.9a34,34,0,0,0-7-14.26c-1.8-2.11-1.36-2.41,1.13-3.37,3.72-1.43,5.45.78,7.32,3.12.56,2.22.56,2.22,2.51,1a14.2,14.2,0,0,0,12.4,1.23,3.2,3.2,0,0,0,3.18-2c1.28-.57,1.71.39,2.05,1.24,1.2,3,3.49,4.14,6.58,4.24a35.5,35.5,0,0,0,11.89-1.71c3.57-1.1,6.5.06,8.95,2.71.59.63,1.15,1.29.76,2.27-.25,2.51-.85,5-1.3,7.44a1.08,1.08,0,0,1,0,1.64c-1.15,2.22-1.3,4.69-1.7,7.07a64.17,64.17,0,0,1-6.57,19.82,30.28,30.28,0,0,1-6,8.42c-5.54,5-9.06,11.33-11.76,18.19a40.83,40.83,0,0,0-2.76,9.51c0,.12-.17.23-.25.34-.56-.24-.68-1.08-1.6-1.08.23.91,1.21.62,1.58,1.12-.46,2.59-.91,5.17-1.36,7.76a4.31,4.31,0,0,1,0,.88,1.48,1.48,0,0,1-.29.52,1.33,1.33,0,0,1-.56.24,5.05,5.05,0,0,1-3.6-1.56.61.61,0,0,1,.08-.58c.17-2.08.92-4.07,1-6.19,0-3.17-.88-5.75-3.66-7.6-2.21-1.47-4.25-3.19-6.63-5l3.34-.65a22.65,22.65,0,0,0,8.08-2.94,2.85,2.85,0,0,1,1.4-.55,2.84,2.84,0,0,0,2.06-2.14,20.15,20.15,0,0,0,1.79-3.45,23.57,23.57,0,0,1,7.42-9.91,38.59,38.59,0,0,0,10-12.65,38.18,38.18,0,0,0,2-4.31,12.24,12.24,0,0,0-4-13.78l-1.37-1c-.29-1.24-.93-2-2.34-1.69a1.56,1.56,0,0,1-1.35.87,9.49,9.49,0,0,0-5.77,2.64c-2.78,2.41-6,2-8.29-.85a19.44,19.44,0,0,0-3.79-4.11c-2.59-1.82-5-1.57-7,.88a18.43,18.43,0,0,0-3.15,5.62C112.34,122.32,111.79,124,111.21,125.58Z"/><path class="cls-6" d="M142.47,69.56c-.87.39-1.16,1.25-1.58,2l-11.21,19.8a15.75,15.75,0,0,1-2.76,3.6c-3.73,3.6-7.59,3.89-12.27.42-3.1-2.3-3.89-5.58-3-9.29a5.26,5.26,0,0,0,.85-3c2.22-8.57,4.49-17.13,6.64-25.71a16.64,16.64,0,0,1,7.66-10.28c5.39-1.8,10.15-.9,14.13,3.31.5.52,1,1.05,1.46,1.57a16.07,16.07,0,0,0,1.73,2.44c.74,2.15,1.74,4.23,1.9,6.54.63,2.49-.88,4.36-1.83,6.39A11,11,0,0,0,142.47,69.56Z"/><path class="cls-6" d="M97.33,51.79c.39-2.12.72-4.25,1.2-6.36a18.94,18.94,0,0,1,6.63-10.86,3.2,3.2,0,0,0,.41-.5c8.16-2.7,15.3.75,18.94,8.43.43.91.73,1.88,1.09,2.82-4.85,2.47-6.74,7-8.3,11.82-1.18,3.63-2.22,7.3-3.33,11a2.22,2.22,0,0,1-.51,1.16c-.55-.08-.77-.89-1.59-.62.23.79,1.08.54,1.5.92a18.25,18.25,0,0,1-1.17,4.36c-.67,2.36-1.48,4.69-2.06,7.07-1,3.84-5.37,5.85-8.92,4.86-1.18-.34-2.34-.74-3.51-1.12-.8-.43-1.61-.85-2.41-1.3-.13-.69-.69-1.08-1.09-1.58A6.8,6.8,0,0,1,92.8,76c1.34-6.78,2.53-13.59,3.79-20.39.08-.43.27-.84-.12-1.21A6.46,6.46,0,0,1,97.33,51.79Z"/><path class="cls-6" d="M101.26,33.6c-1.61.89-2.26,2.66-3.54,3.86-.62-.11-1-.83-1.9-.57,0,.94,1.09.82,1.42,1.38A32.71,32.71,0,0,0,94,48c-.57,4.19-1.21,8.38-1.79,12.57-.78,5.62-4.5,8-8.9,7.7-.5,0-1,0-1.51,0a4.89,4.89,0,0,1-2.49-.52c-.17-.73-.85-.94-1.35-1.33a6.85,6.85,0,0,1-2.61-7.12,44.39,44.39,0,0,1,2.43-8.73,42.65,42.65,0,0,0,2.71-10.45c.08-.64.24-1.3-.5-1.7a3.71,3.71,0,0,0,.92-2.74c.49-2.87-.06-5.74,0-8.61.6-.4,1.18-.84,1.8-1.19a13.14,13.14,0,0,1,18,5.64A4,4,0,0,1,101.26,33.6Z"/><path class="cls-6" d="M158.51,85.65c-.7.26-.85.94-1.17,1.49A23.52,23.52,0,0,1,153.79,92c-4.7,4.74-11.3,5-16.85,2.49-2.76-1.24-3.29-3.14-1.9-6.06,2.58-5.4,5.23-10.76,7.83-16.16.32-.66,1-1.3.49-2.18.46-.79,1.18-1.45,1.24-2.45.64-1.42.76-3.13,2.28-4a8.33,8.33,0,0,1,5.84-.67c3,.72,5.75,1.76,7.54,4.47-.21.55-.91.71-1.1,1.41.79.4,1.12-.56,1.71-.52a2.74,2.74,0,0,1,.75,1.32c.79,4.63-.28,9-1.9,13.28C159,83.68,159,84.78,158.51,85.65Z"/><path class="cls-3" d="M39.06,208a3.14,3.14,0,0,0,1.31,2.53,155.29,155.29,0,0,0,26.75,18.26A269.89,269.89,0,0,0,109,247.41a27.13,27.13,0,0,0,5.75,1.84,1.26,1.26,0,0,1,.36.62c-.27,1.63.31,3.58-1.68,4.59a109,109,0,0,1-11.25-3.88,247.74,247.74,0,0,1-47.57-23.4,133.29,133.29,0,0,1-16.78-12.65A36.62,36.62,0,0,1,39.06,208Z"/><path class="cls-8" d="M41.34,107.35c.78.34,1.08,1.1,1.53,1.72,1.51,2.05,2.72,4.32,4.52,6.16a2.29,2.29,0,0,1,.85,2.21,8.32,8.32,0,0,1,2.13,2.41c4.45,6.4,8.79,12.88,13.34,19.2a62.62,62.62,0,0,0,14.76,14.79,41.66,41.66,0,0,0,4.75,2.69,12.35,12.35,0,0,1-4.69.69,20.69,20.69,0,0,1-8.43-1.62c-1.81-.82-3-.34-3.73,1.55a27.74,27.74,0,0,0-.77,2.7c-.14.27-.25.58-.57.71a1.79,1.79,0,0,1-2-.71,25.29,25.29,0,0,0-.41-11.54,23.12,23.12,0,0,0-1.67-4.2c-2.16-4-4.38-8-6.55-11.94q-6.18-11.4-12.32-22.83A3.91,3.91,0,0,1,41.34,107.35Z"/><path class="cls-8" d="M268,294.34l-4.44-1.73a18.33,18.33,0,0,0-2-.73c-2.22-.57-3.27,0-3.8,2.26a23.1,23.1,0,0,1-2.12,5.88c-.19.36-.28.84-.89,1-.74-1.5-.51-3.18-.81-4.76a68.6,68.6,0,0,0-5.44-16.15,149,149,0,0,0-11.39-19.9,5.24,5.24,0,0,1-1.25-2.24c1.86,1.4,2.92,3.49,4.37,5.24,2.56,3.09,5,6.25,7.46,9.45,1.13,1.5,2.88,2.37,3.86,4,2.32,2.79,5.19,5,7.86,7.44a90.09,90.09,0,0,0,9.91,7.68C269.19,292.79,269.15,293.85,268,294.34Z"/><path class="cls-9" d="M159.45,107.83a8,8,0,0,0-8.66-4.46c-1,.26-2.09.58-3.13.89a28.33,28.33,0,0,1-10.52.88c-3.14-.26-5.64-1.72-6.67-5-.25-.8-.56-1.15-1.36-.63a.51.51,0,0,1-.51-.48L132,92.44c0,1.8-.43,3.43-.37,5.16.12,4.11,2.22,6.21,6.26,6.31,8,.19,13.61-3.9,18.08-10a56.8,56.8,0,0,0,4.8-8.19c.1-2.93,1.49-5.48,2.45-8.15.07-.2.36-.17.58-.13.83,1.71.39,3.53.4,5.29A22.73,22.73,0,0,1,162.94,90a27,27,0,0,1-5.1,8.82c-1.08,1.25-1.49,2.36,0,3.65,1.16,1,1.54,2.54,2,4A1.55,1.55,0,0,1,159.45,107.83Z"/><path class="cls-4" d="M127.79,193.65l-1.38-.79a4.42,4.42,0,0,1,.78-3.49.53.53,0,0,1,.22,0c2.92,0,5.3,1.64,7.94,2.49,1.08.34,2,1.18,3.25,1a12.76,12.76,0,0,1,3.45,2.16,17.7,17.7,0,0,1,2.59,1.26c-.17.4-.33.77,0,1.18a4.49,4.49,0,0,1,.67,4.43,8,8,0,0,1-.67,2.67c-1.56.57-2.31-.41-3-1.55-.32-4-.8-4.59-4.72-5.77-2.47-.74-4.92-1.53-7.32-2.45a5.15,5.15,0,0,1-.56-.16,4,4,0,0,1-.51-.23,2.87,2.87,0,0,1-.48-.28A1,1,0,0,1,127.79,193.65Z"/><path class="cls-8" d="M159.82,106.47a1.78,1.78,0,0,1-.86-.93,9.55,9.55,0,0,0-2.61-3.64,1.19,1.19,0,0,1-.16-2,47.81,47.81,0,0,0,5.47-8c.36-.65.37-1.61,1.28-1.92a68.08,68.08,0,0,1-1.59,8.62c-.17.87.18,1.9-.64,2.62-.5-.28-.66-1.06-1.53-1.09.26.94,1.14.65,1.54,1.07C160.73,103.05,160.06,104.72,159.82,106.47Z"/><path class="cls-10" d="M60.21,14c1.22,0,1.62.76,1.52,1.86-.16,1.7-.33,3.4-.53,5.1-.23,2-.51,4-.76,5.94a10.41,10.41,0,0,1-2.51,6.22,53.55,53.55,0,0,1,.8-8.09A110.64,110.64,0,0,1,60.21,14Z"/><path class="cls-11" d="M163.79,77.41A63.08,63.08,0,0,1,161.18,85c-.12.25-.28.48-.42.72l-.12-.11c-.59-.82-1-1.74-1.6-2.56A41,41,0,0,0,161.2,72.8c.1-1.06.28-2.12.42-3.18C162.67,72.13,163.84,74.6,163.79,77.41Z"/><path class="cls-12" d="M142,202.8a5,5,0,0,0,2.64,1.75h0a1.91,1.91,0,0,1,.38.47c3.91,2.67,8,5.1,11.78,7.93-2.49.1-4.6-1-6.61-2.26-2.74-1.74-5.36-3.67-8.12-5.38a3.18,3.18,0,0,1-1.8-3.35C141.22,201.52,141.64,202.12,142,202.8Z"/><path class="cls-13" d="M138.6,192.85c-.44.59-1,.45-1.56.24-3.2-1.25-6.55-2.13-9.63-3.7a1.26,1.26,0,0,1,0-.43c.15-.36.3-.73.81-.54A55.41,55.41,0,0,1,138.6,192.85Z"/><path class="cls-14" d="M146.88,63.61a36,36,0,0,1-1.8,4.31,1,1,0,0,1-1.36-.58,6.5,6.5,0,0,1,1.39-3.25,6,6,0,0,0,.94-3.17C146.79,61.67,146,62.91,146.88,63.61Z"/><path class="cls-15" d="M176.73,195.27a1.45,1.45,0,0,1-1.35,1.37,1.47,1.47,0,0,1-1.55-1.42,1.43,1.43,0,0,1,1.34-1.43A1.51,1.51,0,0,1,176.73,195.27Z"/><path class="cls-16" d="M205.49,195.2a1.51,1.51,0,0,1,1.65-1.4,1.43,1.43,0,1,1-.4,2.83A1.42,1.42,0,0,1,205.49,195.2Z"/><path class="cls-15" d="M287.48,195.26a1.44,1.44,0,1,1-1.57-1.47A1.5,1.5,0,0,1,287.48,195.26Z"/><path class="cls-16" d="M319.11,195.19a1.45,1.45,0,0,1-2.89.12,1.43,1.43,0,0,1,1.24-1.51A1.51,1.51,0,0,1,319.11,195.19Z"/><path class="cls-15" d="M175.1,51.52A1.5,1.5,0,0,1,176.71,53a1.41,1.41,0,0,1-1.33,1.42A1.45,1.45,0,0,1,173.84,53,1.43,1.43,0,0,1,175.1,51.52Z"/><path class="cls-15" d="M175.38,83.13a1.44,1.44,0,1,1-.21,2.88,1.44,1.44,0,0,1,.21-2.88Z"/><path class="cls-17" d="M286,51.51a1.48,1.48,0,0,1,1.45,1.57,1.4,1.4,0,0,1-1.45,1.3,1.45,1.45,0,0,1-1.4-1.57A1.43,1.43,0,0,1,286,51.51Z"/><path class="cls-15" d="M286,86a1.44,1.44,0,0,1-1.36-1.36,1.47,1.47,0,0,1,1.44-1.52,1.42,1.42,0,0,1,1.41,1.35A1.49,1.49,0,0,1,286,86Z"/><path class="cls-15" d="M317.74,51.51a1.44,1.44,0,1,1-1.51,1.23A1.46,1.46,0,0,1,317.74,51.51Z"/><path class="cls-15" d="M319.11,84.5A1.49,1.49,0,0,1,317.85,86a1.47,1.47,0,0,1-1.64-1.31,1.45,1.45,0,0,1,2.9-.18Z"/><path class="cls-18" d="M207,117.63a1.51,1.51,0,0,1-1.52-1.48,1.4,1.4,0,0,1,1.36-1.4,1.44,1.44,0,1,1,.16,2.88Z"/><path class="cls-15" d="M208.41,53A1.53,1.53,0,0,1,207,54.37a1.51,1.51,0,0,1-1.55-1.43A1.47,1.47,0,0,1,207,51.53,1.52,1.52,0,0,1,208.41,53Z"/><path class="cls-18" d="M319.1,116.18a1.43,1.43,0,0,1-1.27,1.42,1.47,1.47,0,0,1-1.62-1.35,1.41,1.41,0,0,1,1.27-1.49A1.5,1.5,0,0,1,319.1,116.18Z"/><path class="cls-19" d="M192.5,52.88a1.37,1.37,0,0,1-1.42,1.49A1.33,1.33,0,0,1,189.72,53a1.38,1.38,0,0,1,1.42-1.49A1.33,1.33,0,0,1,192.5,52.88Z"/><path class="cls-15" d="M254.27,83.14a1.5,1.5,0,0,1,1.53,1.48A1.39,1.39,0,0,1,254.44,86a1.46,1.46,0,0,1-1.51-1.46A1.49,1.49,0,0,1,254.27,83.14Z"/><path class="cls-20" d="M270.3,83.14a1.41,1.41,0,0,1,1.26,1.64A1.27,1.27,0,0,1,270.1,86a1.33,1.33,0,0,1-1.3-1.41A1.46,1.46,0,0,1,270.3,83.14Z"/><path class="cls-21" d="M333.41,86a1.32,1.32,0,0,1-1.3-1.31,1.39,1.39,0,1,1,2.76-.24A1.43,1.43,0,0,1,333.41,86Z"/><path class="cls-22" d="M317.58,165.05a1.45,1.45,0,0,1-1.35-1.6,1.36,1.36,0,0,1,1.48-1.24,1.4,1.4,0,0,1,1.39,1.38A1.49,1.49,0,0,1,317.58,165.05Z"/><path class="cls-23" d="M143.69,35.77a1.41,1.41,0,0,1,1.39,1.52,1.32,1.32,0,0,1-1.44,1.26,1.34,1.34,0,0,1-1.41-1.3A1.43,1.43,0,0,1,143.69,35.77Z"/><path class="cls-22" d="M208.39,163.7a1.5,1.5,0,0,1-1.64,1.34,1.41,1.41,0,0,1-1.25-1.49,1.46,1.46,0,0,1,1.61-1.34A1.54,1.54,0,0,1,208.39,163.7Z"/><path class="cls-21" d="M287.47,163.5a1.51,1.51,0,0,1-1.47,1.56,1.4,1.4,0,0,1-1.39-1.37,1.45,1.45,0,0,1,1.46-1.5A1.43,1.43,0,0,1,287.47,163.5Z"/><path class="cls-23" d="M254.36,149.2a1.41,1.41,0,0,1-1.42-1.35,1.46,1.46,0,0,1,1.5-1.45,1.41,1.41,0,0,1,1.35,1.56A1.37,1.37,0,0,1,254.36,149.2Z"/><path class="cls-19" d="M255.8,53.13a1.41,1.41,0,0,1-1.4,1.25,1.47,1.47,0,0,1-1.46-1.51,1.43,1.43,0,0,1,1.41-1.36A1.49,1.49,0,0,1,255.8,53.13Z"/><path class="cls-20" d="M317.68,99a1.36,1.36,0,0,1,1.4,1.31,1.43,1.43,0,1,1-2.86-.07A1.34,1.34,0,0,1,317.68,99Z"/><path class="cls-24" d="M254.31,130.58a1.4,1.4,0,0,1,1.48,1.45,1.36,1.36,0,0,1-1.34,1.37,1.47,1.47,0,0,1-1.52-1.44A1.52,1.52,0,0,1,254.31,130.58Z"/><path class="cls-23" d="M255.8,37.29a1.36,1.36,0,0,1-1.38,1.27A1.39,1.39,0,0,1,253,37.1a1.37,1.37,0,0,1,1.39-1.33A1.43,1.43,0,0,1,255.8,37.29Z"/><path class="cls-25" d="M176.71,179.54a1.36,1.36,0,0,1-1.36,1.28,1.38,1.38,0,0,1-1.5-1.41,1.35,1.35,0,0,1,1.35-1.36A1.45,1.45,0,0,1,176.71,179.54Z"/><path class="cls-19" d="M302,54.38a1.45,1.45,0,0,1-1.54-1.46,1.35,1.35,0,0,1,1.32-1.39A1.37,1.37,0,0,1,303.25,53,1.35,1.35,0,0,1,302,54.38Z"/><path class="cls-22" d="M175.24,67.36a1.44,1.44,0,0,1,1.47,1.47,1.44,1.44,0,0,1-2.87.07A1.44,1.44,0,0,1,175.24,67.36Z"/><path class="cls-19" d="M286.22,99a1.28,1.28,0,0,1,1.24,1.32,1.39,1.39,0,0,1-1.48,1.44,1.44,1.44,0,0,1-1.38-1.55A1.47,1.47,0,0,1,286.22,99Z"/><path class="cls-19" d="M350.76,53a1.45,1.45,0,0,1-2.89-.12,1.42,1.42,0,0,1,1.37-1.39A1.5,1.5,0,0,1,350.76,53Z"/><path class="cls-23" d="M350.75,37.08a1.44,1.44,0,1,1-1.41-1.31A1.43,1.43,0,0,1,350.75,37.08Z"/><path class="cls-26" d="M191.08,114.75a1.35,1.35,0,0,1,1.4,1.33,1.32,1.32,0,0,1-1.22,1.51,1.39,1.39,0,0,1-1.53-1.43A1.36,1.36,0,0,1,191.08,114.75Z"/><path class="cls-27" d="M63.06,159.85a6.77,6.77,0,0,1,2.08.48,1.42,1.42,0,0,1,.07,1.78A3,3,0,0,1,63,163.34a3.16,3.16,0,0,1-1.32-.72C62.76,162,62.47,160.7,63.06,159.85Z"/><path class="cls-19" d="M48.66,51.51a1.44,1.44,0,0,1,.17,2.87,1.44,1.44,0,0,1-.17-2.87Z"/><path class="cls-24" d="M96.17,19.94a1.42,1.42,0,1,1,0,2.83,1.36,1.36,0,0,1-1.41-1.3A1.42,1.42,0,0,1,96.17,19.94Z"/><path class="cls-24" d="M145.09,21.35a1.43,1.43,0,0,1-1.59,1.4,1.4,1.4,0,1,1,.32-2.78A1.35,1.35,0,0,1,145.09,21.35Z"/><path class="cls-19" d="M334.88,195.37a1.34,1.34,0,0,1-1.34,1.27,1.37,1.37,0,0,1-1.44-1.47,1.33,1.33,0,0,1,1.32-1.39A1.46,1.46,0,0,1,334.88,195.37Z"/><path class="cls-28" d="M144.15,54.38c-1.81-.38-2-.6-1.73-2.44a.7.7,0,0,0,.2-.08c.84-.47,1.67-.54,2.24.37S144.89,53.83,144.15,54.38Z"/><path class="cls-24" d="M254.3,19.94a1.42,1.42,0,0,1,1.49,1.44,1.35,1.35,0,0,1-1.33,1.38,1.46,1.46,0,0,1-1.53-1.43A1.53,1.53,0,0,1,254.3,19.94Z"/><path class="cls-19" d="M303.26,195.23a1.34,1.34,0,0,1-1.3,1.41,1.42,1.42,0,0,1-1.5-1.44,1.38,1.38,0,0,1,1.31-1.41A1.42,1.42,0,0,1,303.26,195.23Z"/><path class="cls-20" d="M270.26,196.65a1.46,1.46,0,0,1-1.46-1.49,1.36,1.36,0,0,1,1.35-1.37,1.43,1.43,0,0,1,.11,2.86Z"/><path class="cls-19" d="M254.44,196.65a1.5,1.5,0,0,1-1.51-1.48,1.44,1.44,0,0,1,1.38-1.39,1.5,1.5,0,0,1,1.5,1.49A1.47,1.47,0,0,1,254.44,196.65Z"/><path class="cls-19" d="M222.67,193.77a1.47,1.47,0,0,1,1.49,1.53,1.33,1.33,0,0,1-1.37,1.34,1.44,1.44,0,0,1-.12-2.87Z"/><path class="cls-29" d="M240,116.1a1.37,1.37,0,0,1-1.25,1.49A1.43,1.43,0,1,1,240,116.1Z"/><path class="cls-30" d="M350.75,21.36a1.44,1.44,0,1,1-1.4-1.42A1.52,1.52,0,0,1,350.75,21.36Z"/><path class="cls-19" d="M159.36,51.52A1.44,1.44,0,0,1,160.84,53a1.32,1.32,0,0,1-1.35,1.35,1.43,1.43,0,0,1-1.44-1.5A1.37,1.37,0,0,1,159.36,51.52Z"/><path class="cls-31" d="M159.54,196.65a1.42,1.42,0,0,1-1.48-1.53,1.35,1.35,0,0,1,1.38-1.33,1.38,1.38,0,0,1,1.39,1.53A1.31,1.31,0,0,1,159.54,196.65Z"/><path class="cls-32" d="M240,163.69a1.35,1.35,0,0,1-1.32,1.36,1.41,1.41,0,0,1-1.49-1.44,1.37,1.37,0,0,1,1.32-1.4A1.43,1.43,0,0,1,240,163.69Z"/><path class="cls-20" d="M317.67,70.15a1.39,1.39,0,0,1-1.45-1.47,1.35,1.35,0,0,1,1.4-1.31,1.43,1.43,0,0,1,1.47,1.47A1.39,1.39,0,0,1,317.67,70.15Z"/><path class="cls-22" d="M287.47,68.73a1.41,1.41,0,0,1-1.5,1.42,1.39,1.39,0,0,1-.07-2.77A1.41,1.41,0,0,1,287.47,68.73Z"/><path class="cls-20" d="M206.81,70.15a1.34,1.34,0,0,1-1.31-1.34A1.4,1.4,0,0,1,207,67.37a1.38,1.38,0,0,1,1.38,1.35A1.43,1.43,0,0,1,206.81,70.15Z"/><path class="cls-33" d="M303.22,163.85a1.31,1.31,0,0,1-1.49,1.18,1.36,1.36,0,0,1-1.22-1.69,1.3,1.3,0,0,1,1.59-1.09A1.32,1.32,0,0,1,303.22,163.85Z"/><path class="cls-34" d="M270.16,165.05a1.4,1.4,0,0,1-1.35-1.41,1.42,1.42,0,0,1,1.54-1.43,1.43,1.43,0,0,1-.19,2.84Z"/><path class="cls-35" d="M255.81,163.54a1.49,1.49,0,0,1-1.5,1.51,1.42,1.42,0,0,1-1.37-1.39,1.48,1.48,0,0,1,1.5-1.46A1.43,1.43,0,0,1,255.81,163.54Z"/><path class="cls-36" d="M112,22.77a1.34,1.34,0,0,1-1.37-1.4A1.31,1.31,0,0,1,111.94,20a1.41,1.41,0,1,1,0,2.81Z"/><path class="cls-36" d="M129.23,21.43a1.4,1.4,0,1,1-2.78-.22A1.28,1.28,0,0,1,127.92,20,1.32,1.32,0,0,1,129.23,21.43Z"/><path class="cls-37" d="M175.21,22.77a1.46,1.46,0,0,1-1.36-1.59,1.44,1.44,0,0,1,2.86.13A1.48,1.48,0,0,1,175.21,22.77Z"/><path class="cls-36" d="M238.43,22.77a1.37,1.37,0,0,1-1.28-1.42A1.35,1.35,0,0,1,238.71,20a1.29,1.29,0,0,1,1.21,1.5A1.35,1.35,0,0,1,238.43,22.77Z"/><path class="cls-33" d="M365.2,20a1.36,1.36,0,0,1,1.34,1.39,1.38,1.38,0,0,1-1.55,1.4A1.4,1.4,0,0,1,365.2,20Z"/><path class="cls-38" d="M222.75,165.06a1.36,1.36,0,0,1-1.35-1.41,1.32,1.32,0,0,1,1.29-1.43,1.39,1.39,0,0,1,1.45,1.5A1.38,1.38,0,0,1,222.75,165.06Z"/><path class="cls-39" d="M175.23,38.57a1.4,1.4,0,0,1-1.4-1.35,1.46,1.46,0,0,1,1.49-1.45,1.44,1.44,0,0,1,1.38,1.56A1.39,1.39,0,0,1,175.23,38.57Z"/><path class="cls-33" d="M192.48,163.52a1.35,1.35,0,0,1-1.23,1.51,1.37,1.37,0,0,1-1.53-1.41,1.38,1.38,0,0,1,2.76-.1Z"/><path class="cls-39" d="M207,38.57a1.38,1.38,0,0,1-1.46-1.22,1.42,1.42,0,0,1,1.34-1.58,1.46,1.46,0,0,1,1.52,1.42A1.41,1.41,0,0,1,207,38.57Z"/><path class="cls-39" d="M175.33,146.4A1.44,1.44,0,0,1,176.7,148a1.45,1.45,0,0,1-2.87-.1A1.46,1.46,0,0,1,175.33,146.4Z"/><path class="cls-39" d="M287.47,37.2a1.32,1.32,0,0,1-1.27,1.35,1.39,1.39,0,0,1-1.59-1.33,1.37,1.37,0,0,1,1.27-1.44A1.44,1.44,0,0,1,287.47,37.2Z"/><path class="cls-40" d="M175.1,165.05a1.44,1.44,0,0,1-1.26-1.4,1.45,1.45,0,0,1,1.52-1.45,1.42,1.42,0,0,1,1.35,1.41A1.5,1.5,0,0,1,175.1,165.05Z"/><path class="cls-39" d="M317.63,38.57a1.38,1.38,0,0,1-1.41-1.31,1.4,1.4,0,0,1,1.44-1.49,1.38,1.38,0,0,1,1.42,1.31A1.41,1.41,0,0,1,317.63,38.57Z"/><path class="cls-33" d="M160.82,163.55a1.34,1.34,0,0,1-1.23,1.49,1.4,1.4,0,0,1-1.53-1.43,1.34,1.34,0,0,1,1.35-1.39A1.36,1.36,0,0,1,160.82,163.55Z"/><path class="cls-39" d="M206.75,146.41a1.49,1.49,0,0,1,1.62,1.45,1.44,1.44,0,0,1-2.87-.11A1.35,1.35,0,0,1,206.75,146.41Z"/><path class="cls-35" d="M143.62,165.06a1.42,1.42,0,0,1-1.38-1.31,1.45,1.45,0,0,1,1.4-1.56,1.41,1.41,0,0,1,1.44,1.3A1.47,1.47,0,0,1,143.62,165.06Z"/><path class="cls-18" d="M222.77,51.52a1.42,1.42,0,0,1,1.38,1.54,1.32,1.32,0,0,1-1.38,1.31,1.43,1.43,0,0,1,0-2.85Z"/><path class="cls-17" d="M238.53,51.51a1.46,1.46,0,0,1,1.41,1.61,1.32,1.32,0,0,1-1.44,1.25,1.43,1.43,0,0,1,0-2.86Z"/><path class="cls-18" d="M334.88,53a1.34,1.34,0,0,1-1.3,1.33,1.36,1.36,0,0,1-1.48-1.43,1.33,1.33,0,0,1,1.29-1.41A1.44,1.44,0,0,1,334.88,53Z"/><path class="cls-17" d="M366.56,53A1.44,1.44,0,0,1,365,54.37a1.36,1.36,0,0,1-1.3-1.43A1.34,1.34,0,0,1,365,51.53,1.45,1.45,0,0,1,366.56,53Z"/><path class="cls-41" d="M158.14,116.91v-1.64a5.41,5.41,0,0,1,1-.47,1.27,1.27,0,0,1,1.49.61,1.41,1.41,0,0,1,0,1.64,1.28,1.28,0,0,1-1.74.37A6.82,6.82,0,0,1,158.14,116.91Z"/><path class="cls-37" d="M175.38,117.6a1.48,1.48,0,0,1-1.54-1.43,1.41,1.41,0,0,1,1.33-1.41,1.46,1.46,0,0,1,1.54,1.42A1.43,1.43,0,0,1,175.38,117.6Z"/><path class="cls-37" d="M254.45,117.61a1.49,1.49,0,0,1-1.5-1.47,1.4,1.4,0,0,1,1.36-1.39,1.48,1.48,0,0,1,1.5,1.47A1.45,1.45,0,0,1,254.45,117.61Z"/><path class="cls-37" d="M175.21,133.4a1.46,1.46,0,0,1-1.36-1.58,1.44,1.44,0,0,1,2.86.12A1.47,1.47,0,0,1,175.21,133.4Z"/><path class="cls-39" d="M319.09,147.79a1.37,1.37,0,0,1-1.27,1.39,1.39,1.39,0,0,1-1.61-1.3,1.37,1.37,0,0,1,1.26-1.46A1.46,1.46,0,0,1,319.09,147.79Z"/><path class="cls-36" d="M238.63,130.59a1.34,1.34,0,0,1,1.3,1.44,1.31,1.31,0,0,1-1.37,1.37,1.41,1.41,0,1,1,.07-2.81Z"/><path class="cls-39" d="M287.47,147.86a1.35,1.35,0,0,1-1.32,1.33,1.39,1.39,0,0,1-1.54-1.38,1.36,1.36,0,0,1,1.32-1.4A1.43,1.43,0,0,1,287.47,147.86Z"/><path class="cls-42" d="M145.08,179.35a1.42,1.42,0,0,1-2.82.29,1.42,1.42,0,1,1,2.82-.29Z"/><path class="cls-42" d="M254.31,180.82a1.38,1.38,0,0,1,0-2.76,1.39,1.39,0,0,1,1.45,1.5A1.41,1.41,0,0,1,254.31,180.82Z"/><path class="cls-35" d="M286.11,180.83a1.4,1.4,0,0,1-1.5-1.25A1.43,1.43,0,0,1,286,178a1.4,1.4,0,0,1,1.46,1.47A1.35,1.35,0,0,1,286.11,180.83Z"/><path class="cls-43" d="M270.19,117.61c-.82-.16-1.36-.57-1.39-1.43a1.4,1.4,0,0,1,1.55-1.42,1.43,1.43,0,0,1-.16,2.85Z"/><path class="cls-18" d="M287.47,116.34a1.4,1.4,0,0,1-1.41,1.27,1.44,1.44,0,0,1-1.44-1.52,1.39,1.39,0,0,1,1.4-1.35A1.5,1.5,0,0,1,287.47,116.34Z"/><path class="cls-41" d="M301.76,114.75a1.33,1.33,0,0,1,1.46,1.27,1.29,1.29,0,0,1-1.14,1.55,1.42,1.42,0,1,1-.32-2.82Z"/><path class="cls-19" d="M192.5,195.15a1.36,1.36,0,0,1-1.22,1.49,1.41,1.41,0,0,1-1.57-1.36,1.38,1.38,0,0,1,1.22-1.5A1.45,1.45,0,0,1,192.5,195.15Z"/><path class="cls-15" d="M240,195.19a1.4,1.4,0,0,1-1.31,1.46,1.44,1.44,0,0,1-1.52-1.43,1.39,1.39,0,0,1,1.31-1.43A1.44,1.44,0,0,1,240,195.19Z"/><path class="cls-44" d="M334.87,116.13a1.31,1.31,0,0,1-1.33,1.44,1.27,1.27,0,0,1-1.42-1.29,1.38,1.38,0,1,1,2.75-.15Z"/><path class="cls-45" d="M255.79,100.45a1.32,1.32,0,0,1-1.31,1.32,1.38,1.38,0,0,1-1.51-1.44A1.3,1.3,0,0,1,254.39,99,1.35,1.35,0,0,1,255.79,100.45Z"/><path class="cls-19" d="M303.26,84.63A1.35,1.35,0,0,1,301.92,86a1.4,1.4,0,0,1-1.46-1.47,1.38,1.38,0,0,1,1.35-1.38A1.42,1.42,0,0,1,303.26,84.63Z"/><path class="cls-19" d="M192.5,84.6a1.35,1.35,0,0,1-1.31,1.4,1.4,1.4,0,0,1-1.48-1.44,1.35,1.35,0,0,1,1.3-1.41A1.44,1.44,0,0,1,192.5,84.6Z"/><path class="cls-46" d="M255.8,68.77a1.3,1.3,0,0,1-1.28,1.35A1.32,1.32,0,0,1,253,69a1.42,1.42,0,1,1,2.83-.18Z"/><path class="cls-38" d="M334.84,164a1.34,1.34,0,0,1-1.5,1.08,1.36,1.36,0,0,1-1.19-1.71,1.29,1.29,0,0,1,1.58-1.08A1.43,1.43,0,0,1,334.84,164Z"/><path class="cls-18" d="M271.57,53.19a1.29,1.29,0,0,1-1.51,1.17,1.32,1.32,0,0,1-1.25-1.5,1.4,1.4,0,0,1,1.64-1.31A1.38,1.38,0,0,1,271.57,53.19Z"/><path class="cls-47" d="M270.24,133.41a1.4,1.4,0,1,1,0-2.8,1.25,1.25,0,0,1,1.3,1.39A1.33,1.33,0,0,1,270.24,133.41Z"/><path class="cls-47" d="M333.3,22.75a1.3,1.3,0,0,1-1.18-1.45A1.25,1.25,0,0,1,333.48,20a1.34,1.34,0,0,1,1.37,1.55A1.41,1.41,0,0,1,333.3,22.75Z"/><path class="cls-30" d="M317.59,20a1.41,1.41,0,0,1,1.48,1.24,1.43,1.43,0,1,1-2.86.12A1.42,1.42,0,0,1,317.59,20Z"/><path class="cls-47" d="M81.73,21.57a1.3,1.3,0,0,1-1.4,1.18A1.33,1.33,0,0,1,79,21.17,1.25,1.25,0,0,1,80.48,20,1.41,1.41,0,0,1,81.73,21.57Z"/><path class="cls-43" d="M287.47,21.3A1.45,1.45,0,0,1,286,22.76a1.33,1.33,0,0,1-1.36-1.35A1.3,1.3,0,0,1,285.87,20,1.45,1.45,0,0,1,287.47,21.3Z"/><path class="cls-43" d="M287.47,132.07a1.45,1.45,0,0,1-1.69,1.3,1.36,1.36,0,0,1-1.15-1.53,1.43,1.43,0,0,1,2.84.23Z"/><path class="cls-47" d="M270.27,20a1.27,1.27,0,0,1,1.29,1.35,1.29,1.29,0,0,1-1.26,1.44,1.38,1.38,0,0,1-1.49-1.44A1.43,1.43,0,0,1,270.27,20Z"/><path class="cls-44" d="M365.27,38.54c-.91,0-1.46-.42-1.51-1.26a1.28,1.28,0,0,1,1.2-1.49,1.35,1.35,0,0,1,1.57,1.36A1.31,1.31,0,0,1,365.27,38.54Z"/><path class="cls-47" d="M224.15,21.42a1.37,1.37,0,1,1-2.74-.18A1.24,1.24,0,0,1,222.83,20,1.3,1.3,0,0,1,224.15,21.42Z"/><path class="cls-30" d="M206.86,22.76a1.42,1.42,0,0,1-1.34-1.58,1.43,1.43,0,0,1,2.85.14A1.46,1.46,0,0,1,206.86,22.76Z"/><path class="cls-30" d="M319.08,132.17a1.47,1.47,0,0,1-1.71,1.2,1.38,1.38,0,0,1-1.14-1.55,1.43,1.43,0,0,1,1.7-1.2A1.47,1.47,0,0,1,319.08,132.17Z"/><path class="cls-47" d="M333.54,133.4a1.31,1.31,0,0,1-1.41-1.29,1.28,1.28,0,0,1,1.18-1.51,1.41,1.41,0,1,1,.23,2.8Z"/><path class="cls-35" d="M319.1,179.49a1.41,1.41,0,0,1-1.33,1.33,1.39,1.39,0,1,1-.25-2.77A1.45,1.45,0,0,1,319.1,179.49Z"/><path class="cls-35" d="M206.71,178.06a1.46,1.46,0,0,1,1.66,1.39,1.35,1.35,0,0,1-1.34,1.37,1.37,1.37,0,0,1-1.52-1.38A1.34,1.34,0,0,1,206.71,178.06Z"/><path class="cls-48" d="M238.38,178.06a1.32,1.32,0,0,1,1.53,1.23,1.24,1.24,0,0,1-1.16,1.51,1.33,1.33,0,0,1-1.59-1.32A1.29,1.29,0,0,1,238.38,178.06Z"/><path class="cls-20" d="M176.72,100.43a1.44,1.44,0,0,1-2.87,0A1.3,1.3,0,0,1,175.11,99,1.41,1.41,0,0,1,176.72,100.43Z"/><path class="cls-18" d="M381,51.52a1.4,1.4,0,0,1,1.26,1.64,1.27,1.27,0,0,1-1.47,1.2,1.34,1.34,0,0,1-1.3-1.41A1.46,1.46,0,0,1,381,51.52Z"/><path class="cls-49" d="M239.78,83.93c0,.22,0,.43,0,.65A1.2,1.2,0,0,1,239,86a1.32,1.32,0,0,1-1.5-.6,1.19,1.19,0,0,1,0-1.58c.17-.23.35-.46.53-.68C238.73,83.11,239.41,83.19,239.78,83.93Z"/><path class="cls-44" d="M237.15,37.17a1.31,1.31,0,0,1,1.26-1.38,1.34,1.34,0,0,1,1.52,1.4,1.27,1.27,0,0,1-1.35,1.35A1.36,1.36,0,0,1,237.15,37.17Z"/><path class="cls-30" d="M206.86,133.4a1.43,1.43,0,0,1-1.34-1.58,1.43,1.43,0,0,1,2.85.13A1.47,1.47,0,0,1,206.86,133.4Z"/><path class="cls-44" d="M127.78,38.54a1.3,1.3,0,0,1-1.34-1.33,1.36,1.36,0,0,1,1.5-1.43,1.3,1.3,0,0,1,1.27,1.44C129.2,38.08,128.67,38.5,127.78,38.54Z"/><path class="cls-47" d="M224.15,131.93a1.38,1.38,0,1,1-2.75,0,1.25,1.25,0,0,1,1.34-1.35A1.3,1.3,0,0,1,224.15,131.93Z"/><path class="cls-44" d="M239.94,147.84a1.27,1.27,0,0,1-1.37,1.33,1.29,1.29,0,0,1-1.42-1.3,1.4,1.4,0,1,1,2.79,0Z"/><path class="cls-50" d="M144.64,196.27c-1.72.48-1.72.48-2.59-1.26h0a2,2,0,0,0,.36-.46c.53-.75,1.2-1.06,2-.48A1.36,1.36,0,0,1,144.64,196.27Z"/><path class="cls-51" d="M380.93,20a1.27,1.27,0,0,1,1.34,1.27,1.29,1.29,0,0,1-1.17,1.52,1.37,1.37,0,0,1-1.57-1.36A1.42,1.42,0,0,1,380.93,20Z"/><path class="cls-52" d="M160.82,132.08a1.28,1.28,0,0,1-1.34,1.31,1.34,1.34,0,0,1-1.4-1.52,1.28,1.28,0,0,1,1.45-1.25C160.36,130.66,160.8,131.18,160.82,132.08Z"/><path class="cls-53" d="M192.48,132.14a1.3,1.3,0,0,1-1.38,1.24,1.32,1.32,0,0,1-1.35-1.55,1.24,1.24,0,0,1,1.47-1.2C192,130.69,192.48,131.21,192.48,132.14Z"/><path class="cls-53" d="M301.89,133.4a1.4,1.4,0,1,1,0-2.79,1.28,1.28,0,0,1,1.3,1.4A1.33,1.33,0,0,1,301.89,133.4Z"/><path class="cls-44" d="M224.14,148a1.27,1.27,0,0,1-1.42,1.18,1.23,1.23,0,0,1-1.31-1.35,1.32,1.32,0,0,1,1.51-1.39A1.4,1.4,0,0,1,224.14,148Z"/><path class="cls-41" d="M270.1,146.41a1.29,1.29,0,0,1,1.45,1.25,1.25,1.25,0,0,1-1.16,1.5,1.38,1.38,0,1,1-.29-2.75Z"/><path class="cls-44" d="M333.39,38.54a1.27,1.27,0,0,1-1.26-1.43,1.26,1.26,0,0,1,1.35-1.33,1.38,1.38,0,1,1-.09,2.76Z"/><path class="cls-53" d="M48.77,20a1.39,1.39,0,0,1,0,2.78,1.39,1.39,0,1,1,0-2.78Z"/><path class="cls-52" d="M160.82,21.36a1.3,1.3,0,0,1-1.29,1.39,1.35,1.35,0,0,1-1.46-1.46,1.38,1.38,0,0,1,2.75.07Z"/><path class="cls-53" d="M191.13,20c.85.12,1.34.55,1.35,1.4a1.35,1.35,0,0,1-1.54,1.37,1.39,1.39,0,0,1,.19-2.77Z"/><path class="cls-53" d="M301.93,20a1.31,1.31,0,0,1,1.29,1.43,1.28,1.28,0,0,1-1.34,1.36,1.4,1.4,0,1,1,.05-2.79Z"/><path class="cls-44" d="M222.83,38.54a1.38,1.38,0,0,1-.25-2.75,1.34,1.34,0,0,1,1.56,1.34A1.31,1.31,0,0,1,222.83,38.54Z"/><path class="cls-54" d="M48.23,162.43c.71.13,1.69-.19,1.76,1s-.64,1.64-1.74,1.61C47,163.72,47,163.52,48.23,162.43Z"/><path class="cls-41" d="M270.3,38.54a1.38,1.38,0,1,1-.11-2.76,1.38,1.38,0,0,1,.11,2.76Z"/><path class="cls-55" d="M382.28,37.24a1.23,1.23,0,0,1-1.38,1.28,1.25,1.25,0,0,1-1.36-1.32A1.34,1.34,0,0,1,381,35.78,1.32,1.32,0,0,1,382.28,37.24Z"/><path class="cls-56" d="M160.87,68.3c-.13,1-.38,1.9-1.69,1.71a1.14,1.14,0,0,1-1-1.38c.14-1.34,1.18-1.22,2.12-1.22Z"/><path class="cls-44" d="M333.55,149.17a1.25,1.25,0,0,1-1.42-1.24,1.28,1.28,0,0,1,1.17-1.51,1.34,1.34,0,0,1,1.55,1.35A1.29,1.29,0,0,1,333.55,149.17Z"/><path class="cls-53" d="M47.35,132a1.3,1.3,0,0,1,1.33-1.41,1.24,1.24,0,0,1,1.41,1.26,1.37,1.37,0,1,1-2.74.15Z"/><path class="cls-57" d="M191.18,178.06a1.3,1.3,0,0,1,1.29,1.39,1.32,1.32,0,0,1-1.54,1.35,1.27,1.27,0,0,1-1.18-1.48A1.29,1.29,0,0,1,191.18,178.06Z"/><path class="cls-58" d="M224.14,179.51a1.37,1.37,0,0,1-2.73.06,1.32,1.32,0,0,1,1.38-1.51A1.35,1.35,0,0,1,224.14,179.51Z"/><path class="cls-58" d="M270.28,178.05a1.28,1.28,0,0,1,1.27,1.43,1.23,1.23,0,0,1-1.34,1.32,1.31,1.31,0,0,1-1.38-1.51A1.34,1.34,0,0,1,270.28,178.05Z"/><path class="cls-59" d="M301.9,70.13a1.29,1.29,0,0,1-1.41-1.26,1.31,1.31,0,0,1,1.42-1.47,1.24,1.24,0,0,1,1.31,1.36A1.26,1.26,0,0,1,301.9,70.13Z"/><path class="cls-60" d="M270.18,67.39a1.37,1.37,0,0,1,.16,2.74,1.33,1.33,0,0,1-1.51-1.39A1.29,1.29,0,0,1,270.18,67.39Z"/><path class="cls-61" d="M303.23,179.4a1.37,1.37,0,0,1-2.74.18,1.33,1.33,0,0,1,1.38-1.51A1.29,1.29,0,0,1,303.23,179.4Z"/><path class="cls-62" d="M238.58,67.39a1.24,1.24,0,0,1,1.32,1.24,1.25,1.25,0,0,1-1.17,1.49,1.33,1.33,0,0,1-1.57-1.32A1.36,1.36,0,0,1,238.58,67.39Z"/><path class="cls-58" d="M333.33,180.8a1.26,1.26,0,0,1-1.2-1.42,1.24,1.24,0,0,1,1.36-1.31,1.34,1.34,0,0,1,1.37,1.52A1.38,1.38,0,0,1,333.33,180.8Z"/><path class="cls-63" d="M224.18,69.14c-1.13,1-1.73,1.18-2.34.55s-.44-1.25.59-2.34A1.53,1.53,0,0,1,224.18,69.14Z"/><path class="cls-64" d="M334.86,100.3a1.27,1.27,0,0,1-1.21,1.45,1.24,1.24,0,0,1-1.51-1.13,1.37,1.37,0,1,1,2.72-.32Z"/><path class="cls-65" d="M303.24,37.28a1.28,1.28,0,0,1-1.44,1.23,1.25,1.25,0,0,1-1.31-1.36,1.38,1.38,0,1,1,2.75.13Z"/><path class="cls-65" d="M191.18,35.77a1.38,1.38,0,1,1-.25,2.75A1.26,1.26,0,0,1,189.75,37,1.31,1.31,0,0,1,191.18,35.77Z"/><path class="cls-66" d="M301.89,101.77a1.36,1.36,0,1,1,0-2.72,1.23,1.23,0,0,1,1.3,1.36A1.27,1.27,0,0,1,301.89,101.77Z"/><path class="cls-65" d="M159.51,35.77a1.32,1.32,0,0,1,1.3,1.41,1.3,1.3,0,0,1-1.54,1.34A1.26,1.26,0,0,1,158.08,37,1.31,1.31,0,0,1,159.51,35.77Z"/><path class="cls-64" d="M271.56,100.42a1.27,1.27,0,0,1-1.36,1.34,1.32,1.32,0,0,1-1.38-1.51,1.28,1.28,0,0,1,1.48-1.2A1.25,1.25,0,0,1,271.56,100.42Z"/><path class="cls-59" d="M192.47,100.55a1.25,1.25,0,0,1-1.36,1.21,1.31,1.31,0,0,1-1.37-1.51,1.27,1.27,0,0,1,1.46-1.2A1.3,1.3,0,0,1,192.47,100.55Z"/><path class="cls-57" d="M159.55,180.81a1.37,1.37,0,1,1-.1-2.74,1.37,1.37,0,0,1,.1,2.74Z"/><path class="cls-65" d="M50.1,37.13a1.27,1.27,0,0,1-1.3,1.39,1.26,1.26,0,0,1-1.44-1.24,1.33,1.33,0,0,1,1.4-1.49A1.29,1.29,0,0,1,50.1,37.13Z"/><path class="cls-59" d="M191.09,70.13a1.26,1.26,0,0,1-1.34-1.34A1.24,1.24,0,0,1,191,67.4a1.31,1.31,0,0,1,1.44,1.44A1.28,1.28,0,0,1,191.09,70.13Z"/><path class="cls-65" d="M303.23,147.87a1.24,1.24,0,0,1-1.29,1.28,1.27,1.27,0,0,1-1.45-1.23,1.37,1.37,0,1,1,2.74,0Z"/><path class="cls-65" d="M191.12,146.41a1.38,1.38,0,1,1-.14,2.75,1.25,1.25,0,0,1-1.23-1.43A1.29,1.29,0,0,1,191.12,146.41Z"/><path class="cls-65" d="M160.81,147.76a1.25,1.25,0,0,1-1.29,1.4,1.28,1.28,0,0,1-1.45-1.24,1.34,1.34,0,0,1,1.4-1.5A1.3,1.3,0,0,1,160.81,147.76Z"/><path class="cls-65" d="M50.1,147.83a1.27,1.27,0,0,1-1.37,1.32,1.25,1.25,0,0,1-1.37-1.3,1.34,1.34,0,0,1,1.47-1.43A1.31,1.31,0,0,1,50.1,147.83Z"/><path class="cls-60" d="M333.39,70.13a1.24,1.24,0,0,1-1.26-1.31,1.26,1.26,0,0,1,1.24-1.43,1.37,1.37,0,1,1,0,2.74Z"/><path class="cls-8" d="M40.49,106a1.48,1.48,0,0,1,.86,1.34A1.3,1.3,0,0,1,40.49,106Z"/><path class="cls-4" d="M128.2,188.42l-.81.54a.88.88,0,0,1,.31-.9Z"/><path class="cls-4" d="M142.43,194.54a.4.4,0,0,1-.37.46A.46.46,0,0,1,142.43,194.54Z"/><path class="cls-4" d="M145,205a.46.46,0,0,1-.38-.47Z"/><path class="cls-7" d="M321.4,309.54c0,.8,0,1.59,0,2.38a153,153,0,0,1-1.21,17.89,201.47,201.47,0,0,1-5.29,27.34,276.26,276.26,0,0,1-13.09,38.71,4.84,4.84,0,0,1-2-.79c-3.91-2.08-7.8-4.18-11.7-6.26-.52-.28-1-.57-1.07-1.23-.79-1.32.52-2.49.27-3.77a3.75,3.75,0,0,1,.14-.94c1-3.51.29-6.16-2.34-8.21-2.26-1.76-5.25-1.74-8.2,0a4.22,4.22,0,0,1-.41.43,5.51,5.51,0,0,1-.43.41,7.49,7.49,0,0,0-2,2.73c-.29.63-.47,1.38-1.32,1.55a1.39,1.39,0,0,1-1.43-.07c-1.67-.85-3.36-1.65-5-2.53-3.68-2-7.35-4-11-5.93-1-.55-2-1.16-3-1.71a1.58,1.58,0,0,1-.85-1.17c-.84-1.44.22-2.66.45-4,6.78-20.17,12-40.77,17-61.44.59-2.46,1.13-4.93,1.9-7.35a3.41,3.41,0,0,1,1.05-2.53,7.06,7.06,0,0,0,.77-2.46c1-3.63,4.21-5.18,7.55-3.43,7,3.69,14,7.51,21,11.25q8.12,4.33,16.25,8.62A26,26,0,0,1,321.4,309.54Z"/><path class="cls-67" d="M271.8,293.12a7,7,0,0,1-.46,2.53c-1.63.93-2.53-.13-3.39-1.27l0,0c.59-.78.11-2.09,1.28-2.58Z"/><path class="cls-68" d="M349.38,193.78a1.46,1.46,0,0,1,1.38,1.35,1.37,1.37,0,0,1-1.27,1.49,1.5,1.5,0,0,1-1.58-1.42A1.62,1.62,0,0,1,349.38,193.78Z"/><path class="cls-68" d="M349.47,83.15a1.46,1.46,0,0,1,1.3,1.43A1.41,1.41,0,0,1,349.4,86a1.5,1.5,0,0,1-1.48-1.53A1.6,1.6,0,0,1,349.47,83.15Z"/><path class="cls-68" d="M366.52,163.61c0,.85-.44,1.38-1.3,1.41a1.36,1.36,0,0,1-1.45-1.28,1.4,1.4,0,0,1,1.4-1.54A1.47,1.47,0,0,1,366.52,163.61Z"/><path class="cls-69" d="M350.75,147.73a1.48,1.48,0,0,1-1.35,1.45,1.42,1.42,0,0,1-1.5-1.46,1.24,1.24,0,0,1,1.4-1.28A1.48,1.48,0,0,1,350.75,147.73Z"/><path class="cls-70" d="M382.34,116.17a1.39,1.39,0,0,1-1.32,1.42,1.44,1.44,0,0,1-1.43-1.53,1.22,1.22,0,0,1,1.17-1.28A1.46,1.46,0,0,1,382.34,116.17Z"/><path class="cls-71" d="M366.52,116.18a1.44,1.44,0,0,1-1.33,1.41,1.38,1.38,0,0,1-1.41-1.52,1.33,1.33,0,0,1,1.43-1.29C366.07,114.81,366.47,115.33,366.52,116.18Z"/><path class="cls-70" d="M350.74,132.16a1.53,1.53,0,0,1-1.57,1.2A1.41,1.41,0,0,1,348,131.7a1.32,1.32,0,0,1,1.6-1A1.41,1.41,0,0,1,350.74,132.16Z"/><path class="cls-72" d="M366.51,132.05a1.3,1.3,0,0,1-1.48,1.3,1.38,1.38,0,0,1-1.27-1.49,1.28,1.28,0,0,1,1.48-1.22A1.36,1.36,0,0,1,366.51,132.05Z"/><path class="cls-73" d="M382.35,132c-.14.76-.5,1.34-1.37,1.41a1.29,1.29,0,0,1-1.39-1.32,1.37,1.37,0,0,1,1.34-1.43A1.35,1.35,0,0,1,382.35,132Z"/><path class="cls-70" d="M381,162.19c.76.18,1.35.59,1.32,1.42A1.33,1.33,0,0,1,381,165a1.4,1.4,0,0,1-1.42-1.49A1.52,1.52,0,0,1,381,162.19Z"/><path class="cls-71" d="M349.1,180.72a1.23,1.23,0,0,1-1.19-1.37,1.26,1.26,0,0,1,1.44-1.25,1.38,1.38,0,0,1,1.36,1.4C350.74,180.22,350,180.77,349.1,180.72Z"/><path class="cls-68" d="M350.74,116.15a1.58,1.58,0,0,1-1.56,1.44,1.32,1.32,0,0,1-1.24-1.46,1.41,1.41,0,0,1,1.41-1.34A1.47,1.47,0,0,1,350.74,116.15Z"/><path class="cls-68" d="M365.17,196.65a1.44,1.44,0,0,1-.22-2.85,1.48,1.48,0,0,1,1.54,1.42A1.52,1.52,0,0,1,365.17,196.65Z"/><path class="cls-68" d="M381,193.77a1.38,1.38,0,0,1,1.29,1.46,1.32,1.32,0,0,1-1.3,1.42,1.44,1.44,0,0,1,0-2.88Z"/><path class="cls-71" d="M350.73,100.43a1.45,1.45,0,0,1-1.4,1.28,1.25,1.25,0,0,1-1.42-1.26,1.24,1.24,0,0,1,1.34-1.35A1.35,1.35,0,0,1,350.73,100.43Z"/><path class="cls-68" d="M380.93,86a1.54,1.54,0,0,1-1.33-1.43,1.49,1.49,0,0,1,1.54-1.43,1.44,1.44,0,0,1-.21,2.86Z"/><path class="cls-68" d="M366.5,84.58a1.43,1.43,0,0,1-1.27,1.4c-.87.13-1.31-.45-1.46-1.22a1.43,1.43,0,0,1,1.31-1.62A1.64,1.64,0,0,1,366.5,84.58Z"/><path class="cls-72" d="M350.72,68.66a1.34,1.34,0,0,1-1.37,1.41,1.32,1.32,0,1,1-.12-2.63A1.47,1.47,0,0,1,350.72,68.66Z"/><path class="cls-68" d="M349.28,162.19a1.65,1.65,0,0,1,1.45,1.56,1.41,1.41,0,1,1-1.45-1.56Z"/><path class="cls-71" d="M382.34,147.91a1.27,1.27,0,0,1-1.53,1.15,1.31,1.31,0,1,1,.29-2.6C382,146.55,382.25,147.18,382.34,147.91Z"/><path class="cls-74" d="M366.51,147.81a1.3,1.3,0,0,1-1.45,1.26,1.17,1.17,0,0,1-1.28-1.34,1.34,1.34,0,0,1,1.44-1.29A1.24,1.24,0,0,1,366.51,147.81Z"/><path class="cls-71" d="M382.34,179.58a1.28,1.28,0,0,1-1.54,1.13,1.31,1.31,0,1,1,.3-2.6C382,178.21,382.25,178.84,382.34,179.58Z"/><path class="cls-75" d="M380.85,101.72a1.27,1.27,0,0,1-1.25-1.45,1.21,1.21,0,0,1,1.31-1.16,1.31,1.31,0,0,1,1.4,1.32A1.37,1.37,0,0,1,380.85,101.72Z"/><path class="cls-76" d="M366.5,179.57a1.27,1.27,0,0,1-1.47,1.15,1.07,1.07,0,0,1-1.15-1.25,1.23,1.23,0,0,1,1.32-1.37A1.29,1.29,0,0,1,366.5,179.57Z"/><path class="cls-77" d="M365.15,101.72a1.22,1.22,0,0,1-1.25-1.42,1.14,1.14,0,0,1,1.24-1.18,1.19,1.19,0,0,1,1.35,1.3A1.21,1.21,0,0,1,365.15,101.72Z"/><path class="cls-75" d="M382.2,68.8a1.24,1.24,0,0,1-1.4,1.25,1.26,1.26,0,0,1-1.2-1.45,1.31,1.31,0,0,1,2.6.2Z"/><path class="cls-77" d="M366.51,68.74a1.25,1.25,0,0,1-1.36,1.31,1.18,1.18,0,0,1-1.26-1.17,1.23,1.23,0,0,1,1.22-1.43A1.26,1.26,0,0,1,366.51,68.74Z"/><path class="cls-6" d="M137.68,298.26c-1.22-.71-1.58-2.14-2.56-3.05-2.15-1.71-2.58-4.1-2.53-6.64,0-.56.25-1.11,0-1.66a17.33,17.33,0,0,1,2.12-8.51,8.08,8.08,0,0,1,3.6-4.52,3.9,3.9,0,0,1,.93-.42,2.76,2.76,0,0,1,.7-.11,36.45,36.45,0,0,1,11.31,1.79c6.66,2.24,13.19,4.81,19.74,7.32a16.16,16.16,0,0,1,4.18,2.28,9.61,9.61,0,0,1,4,9.28,17.77,17.77,0,0,1-1.8,6.44c-1.37,2.46-3.42,3.58-6,2.51-6.59-2.76-13.56-2.62-20.47-3.11-3.67-.26-7.35-.49-11-.84A5.33,5.33,0,0,1,137.68,298.26Z"/><path class="cls-6" d="M137.72,264v-1.26c-.43-7.09,3.71-12.37,10.36-13.22a11,11,0,0,1,2,.5,116.21,116.21,0,0,1,18.34,9.73c5.47,3.69,8.31,8.67,7.75,15.39a11,11,0,0,1-.36,2.35c-.84,2.75-2.46,3.73-5.28,3-2.66-.68-5.18-1.8-7.76-2.73-3.73-1.35-7.48-2.65-11.18-4.09a25.65,25.65,0,0,0-11.41-1.89,6,6,0,0,1-2.56-4.69A8.31,8.31,0,0,1,137.72,264Z"/><path class="cls-4" d="M113.38,254.46c.72-1,.61-2.14.86-3.22a8.37,8.37,0,0,1,.48-1.62,1.94,1.94,0,0,1,1.83-.33c3.74,1,7.54,1.73,11.3,2.62a2.4,2.4,0,0,1,1.12.62,5.93,5.93,0,0,1-1.24,5.36,78.12,78.12,0,0,1-11.33-2.38A9.05,9.05,0,0,1,113.38,254.46Z"/><path class="cls-78" d="M127.73,257.89a16.07,16.07,0,0,1,1.28-5.2l.27-.17a2.49,2.49,0,0,1,2.54.94,1.75,1.75,0,0,1,.14.6,17.58,17.58,0,0,1-1.18,4.68C129.77,258.43,128.65,258.54,127.73,257.89Z"/><path class="cls-79" d="M130.78,258.74a5.84,5.84,0,0,1,1.07-4.83c.6-1.2,1.46-.8,2.32-.37-.42,1.88-.83,3.75-1.25,5.63Z"/><path class="cls-8" d="M195.52,304.7a109.74,109.74,0,0,0,8.79,7c2.08,1.45,4.28,2.67,6.46,4l2.56,1.56a6.93,6.93,0,0,1-3.21-.61,70.2,70.2,0,0,1-11.71-5.07c-2.95-1.74-5.35.42-5.56,3.09a21.25,21.25,0,0,0,.59,6c.76,3.61-.63,5.86-4.21,6.82-.41.11-.84.21-1.26.28-4.66.72-7.85,4.59-6.62,10.26a12.13,12.13,0,0,0,9.08,9.75,56.34,56.34,0,0,0,12.8,2,21.93,21.93,0,0,0,6-.6,20.67,20.67,0,0,1,12.17.57c4.88,1.8,9.05.49,13.17-1.91a41.62,41.62,0,0,0,5.5-4.29,28.31,28.31,0,0,1-.17,6.62c-.45,3-.25,5.78,2,8.1a16,16,0,0,0,3.79,2.84c1.07.6,2.13,1.22,3.2,1.84.24.18.58.28.66.64-.07,1.4-.27,2.76-1.53,3.67h-.42c-.5.33-.68-.05-.87-.39a67.18,67.18,0,0,0-27.18-11.21,35.58,35.58,0,0,0-10.76-.18,30.9,30.9,0,0,1-11.58-1A68.45,68.45,0,0,1,178,346.71c-5.51-3.29-11.21-6.28-16.83-9.39s-11.11-6.15-16.65-9.26a12.19,12.19,0,0,1-3.72-2.9,2.05,2.05,0,0,1,2.22-.38,62,62,0,0,0,15.07,1.41c3.26-.06,3.91.78,3.54,4.08a13.87,13.87,0,0,0,.21,3.42,13.69,13.69,0,0,1,1.24-4.76,4.35,4.35,0,0,1,3.76-2.83,79.3,79.3,0,0,0,8.77-1.43,11.77,11.77,0,0,0,7.85-6,6.78,6.78,0,0,0,.81-5.82c-.57-1.6-.18-2.7,1.52-3.17a10.26,10.26,0,0,0,5.39-3.81C192.35,304.4,193.72,303.83,195.52,304.7Z"/><path class="cls-8" d="M139.45,273.89c.67-.69,1.63-1.28.82-2.45a14,14,0,0,1,8.91.62q9.48,3.4,18.94,6.86c.54.2,1.09.38,1.62.59,3.22,1.26,5.22.84,5.72-3.82a16.15,16.15,0,0,0-.42-6.44,15.31,15.31,0,0,0-6-8.25,90.44,90.44,0,0,0-13.9-7.92c-1.77-.84-3.52-1.69-5.28-2.54.51-1.39,1.81-.21,2.56-.79.39-.34.16-.59-.14-.81l-2-1.41c1.25-1.17,2.72-.7,4.1-.46,6.61,1.13,12.45,4.06,17.93,7.82a45,45,0,0,0,6,3.83,10.68,10.68,0,0,0-3.34-7.48,37.83,37.83,0,0,0-17.13-11,52,52,0,0,1-16.51-8.41,7.33,7.33,0,0,1-2.2-2.06,2.19,2.19,0,0,1-.2-.66,3.24,3.24,0,0,1,1-2.91c2.58,1.73,4.79,3.94,7.43,5.59A53.18,53.18,0,0,0,160.67,238a37.63,37.63,0,0,1,13.2,7.26c.9.73,1.76,1.49,2.63,2.25A15.7,15.7,0,0,1,182,259.94c0,3.39-.06,6.77-.24,10.17a43.69,43.69,0,0,0,1.76,14.53c.1.34.15.7.22,1.05-1.12.3-1.12.3-2.61-.19.81.09,1.62,1,2.69.54,1.18,2.63,2.15,5.34,3.56,7.88a63,63,0,0,0,5.88,8.28c-1.21,3.59-4.14,5.19-7.4,6.39a16,16,0,0,1-3.86.74c2,2.77,2.49,5.64.87,8.57a11.64,11.64,0,0,1-7.77,6.08c-1.86.42-3.8,1.6-5.77.22,0-1.1.91-1.58,1.56-2.23,5.75-5.72,4.05-13.17-3.58-15.9-4.35-1.56-8.92-1.72-13.43-2.22s-9-1-13.56-1.41c-.86-.07-1.78-.12-2.1-1.17,1.18-1,1.18-1,.16-2.17-.24-.26-.44-.56-.66-.84,4-.09,7.91.45,11.86.74,2.8.21,5.61.46,8.42.52a34.9,34.9,0,0,1,13.26,2.65c2.45,1.07,4.22.41,5.43-1.91a16.43,16.43,0,0,0,1.84-8.77,8.46,8.46,0,0,0-3.54-6,13.12,13.12,0,0,0-3.73-2.16c-6.42-2.4-12.85-4.78-19.25-7.2C147.93,274.62,143.68,274.36,139.45,273.89Z"/><path class="cls-6" d="M138.18,301.27c1.69.82,3.55.5,5.33.74,4.71.64,9.47,1,14.2,1.47a41.38,41.38,0,0,1,10.37,2.06c7.3,2.73,9.26,10.48,4,16.25-.82.9-1.8,1.66-2.7,2.49a2.78,2.78,0,0,1-2.24,1.11c-8,.8-16.07,1.18-24-.76-1.89-.46-3.77-1-5-2.73l-.22-.2a1.28,1.28,0,0,1-.65-.52,14.4,14.4,0,0,1-4.2-9.87C133,307.2,134.41,303.56,138.18,301.27Z"/><path class="cls-9" d="M138.14,321.9c4.38,2.31,9.16,3,14,3.21a89.62,89.62,0,0,0,17.24-.83c3.21-.42,6.52-.55,9.22-2.65a11.56,11.56,0,0,0,3.82-4.32,6.86,6.86,0,0,0-.93-7.48c-.3-.39-.59-.79-.91-1.23,4.86.07,8.88-1.44,11.68-5.54a5.71,5.71,0,0,1,1-.86l2.3,2.5c-.11.09-.25.28-.32.26-1.74-.49-2.69.33-3.7,1.71a8.77,8.77,0,0,1-5.84,3.8c-.74.1-1.48.36-1,1.41,1.75,3.64.12,6.56-2,9.35a12.11,12.11,0,0,1-7.52,4.34,69.62,69.62,0,0,1-9,1.32,2.33,2.33,0,0,0-2,1.4,14.88,14.88,0,0,0-1.71,6,3.36,3.36,0,0,1-.28,1.87c-.92-2-1.82-3.85-1.29-6a6.62,6.62,0,0,0,.24-1.05c.16-1.6-.26-2.1-1.88-2.15-1.45,0-2.9-.05-4.34,0a47.56,47.56,0,0,1-12.4-1.54,7.62,7.62,0,0,0-1.71-.21A6,6,0,0,1,138.14,321.9Z"/><path class="cls-80" d="M246.71,366.83l.87.39a6.4,6.4,0,0,1-.72,3.1c-.77,2-1.58,4-2.37,6a.87.87,0,0,1-.26-1A73.65,73.65,0,0,1,246.71,366.83Z"/><path class="cls-81" d="M255.81,390.17v.5L252,388.79c-.56-.29-1.17-.51-1.44-1.16A20.63,20.63,0,0,1,255.81,390.17Z"/><path class="cls-81" d="M249.73,387.17a1.17,1.17,0,0,1,.89.47A1,1,0,0,1,249.73,387.17Z"/><path class="cls-82" d="M137.27,321.18c.21.18.43.35.65.52A.77.77,0,0,1,137.27,321.18Z"/><path class="cls-83" d="M288,383l-.11.72c-1.43,4.42-3.52,6-7.81,6-3.68-.07-5.61-1.47-6.93-5a14.1,14.1,0,0,1-.45-4.79c.74-1.76,1.35-3.6,2.94-4.85a.58.58,0,0,0,.5-.42h0c4.08-2.33,8-1.43,10.45,1.58A7.68,7.68,0,0,1,288,383Z"/><path class="cls-84" d="M273.17,384.62c.25.34.51.69.75,1a7.65,7.65,0,0,0,13-.3c.34-.54.66-1.1,1-1.65.19,1.4-.58,2.58-.88,3.87a7.59,7.59,0,0,1-7.34,3.6A7,7,0,0,1,273.17,384.62Z"/><path class="cls-85" d="M248,367.23a24.15,24.15,0,0,1,1.31-3.87c1.5-.67,2.35.18,3.09,1.31,0,1.34-.88,2.44-1,3.75L251,369A5.6,5.6,0,0,1,248,367.23Z"/><path class="cls-2" d="M129,252.69a87.69,87.69,0,0,1-10.53-2.14c-1.26-.29-2.51-.62-3.76-.93,0-.12,0-.24,0-.37l2.7-12.64c.17-.77.32-1.54.48-2.31.42-2,.42-2-1.45-2.81a1.92,1.92,0,0,1,1.8-.69c3-.45,5.26-1.88,5.91-5.11.24-.91.58-1.78.88-2.67,1-2.73,0-5-1.73-7.05-.47-.57-1.38-.86-1.26-1.84,1-2.31,1.22-4.82,1.78-7.24.78-3.35,1.46-6.72,2.17-10.08a1.52,1.52,0,0,1,.45-.94,2.55,2.55,0,0,0,2.64-1.76,20.43,20.43,0,0,1,4.11,1.22c1.92.58,3.86,1.14,5.76,1.77,2.69.89,3.78,3,3.08,5.7l-1.73-.84c-1.29-.06-2.57-.9-3.89-.1-5,2-5.54,4.35-5.47,10.22,0,3.7,1.6,7,3.51,10.1.64,1,1.31,2.06,1.91,3.13a2.24,2.24,0,0,1,.15.68c-1.13,5.94-2.95,11.71-4.46,17.56-.58,2.23-1.1,4.48-1.77,6.68a4.2,4.2,0,0,1-1.25,2.45Z"/><path class="cls-86" d="M252.4,364.67c-1.17-.11-1.88-1.29-3.09-1.31l-.44-.44c1-.18,1-1.14,1.23-1.84,1.62-5.15,3.24-10.3,4.74-15.49,4.56-15.76,8.53-31.68,12.42-47.62.28-1.18.46-2.39.69-3.59,1.14.4,2.09,1.3,3.39,1.27-2.7,12-5.72,23.85-8.87,35.7-2.81,10.53-5.77,21-9.24,31.35A5,5,0,0,1,252.4,364.67Z"/><path class="cls-87" d="M135.92,225.45a23.45,23.45,0,0,1-5.77-13.69,14.55,14.55,0,0,1,.55-5.55c.93-2.76,2.89-4.58,5.7-4.35a9.29,9.29,0,0,0-3.89,7.93,19.32,19.32,0,0,0,2,7.85c.74,1.54,1.57,3,2.37,4.56C137.4,223.53,137.4,224.7,135.92,225.45Z"/><path class="cls-88" d="M135.92,225.45a16.83,16.83,0,0,0,1-3.25,17.57,17.57,0,0,1,3,4c-.16,1-.31,2-.47,3a.78.78,0,0,1-.85-.08c-1.23-.85-2.37-1.77-2.63-3.38A1.49,1.49,0,0,1,135.92,225.45Z"/><path class="cls-89" d="M183.78,286c-.11.42-.22.94-.79.72-1.23-.49-2.42-1.06-4.09-1.81,2-.18,3.34.72,4.8.74A.72.72,0,0,1,183.78,286Z"/><path class="cls-86" d="M64.82,162.06a3,3,0,0,0,.32-1.73l.46-.48c-.06.86.44,1.29,1.16,1.63,4.36,2.09,8.6,4.43,13,6.38,1.85.81,3.63,1.78,5.45,2.67,11.93,5.84,24,11.43,36.23,16.59a3,3,0,0,0,1.86.44c0,.17,0,.33,0,.5.29,1.2.54,2.38-.9,3.07a95.06,95.06,0,0,1-10.56-4.32c-4.87-2.14-9.68-4.43-14.51-6.65a2.61,2.61,0,0,0-2.7-1.25c-9.76-4.59-19.47-9.3-29-14.29A8.07,8.07,0,0,1,64.82,162.06Z"/><path class="cls-90" d="M64.44,86a1.45,1.45,0,0,1-1.3-1.43,1.41,1.41,0,0,1,1.37-1.42A1.5,1.5,0,0,1,66,84.67,1.59,1.59,0,0,1,64.44,86Z"/><path class="cls-91" d="M66,131.91a1.54,1.54,0,0,1-1.39,1.42,1.47,1.47,0,0,1-1.48-1.52,1.39,1.39,0,0,1,1.46-1.31A1.48,1.48,0,0,1,66,131.91Z"/><path class="cls-91" d="M66,21.54A1.42,1.42,0,1,1,63.17,21a1.44,1.44,0,0,1,1.64-1.1A1.52,1.52,0,0,1,66,21.54Z"/><path class="cls-90" d="M66,37.26a1.26,1.26,0,0,1-1.45,1.16c-.8,0-1.42-.37-1.39-1.25a1.31,1.31,0,0,1,1.32-1.39A1.45,1.45,0,0,1,66,37.26Z"/><path class="cls-92" d="M97.62,116.06c-.13.82-.52,1.37-1.35,1.45A1.41,1.41,0,0,1,94.78,116a1.22,1.22,0,0,1,1.39-1.28A1.46,1.46,0,0,1,97.62,116.06Z"/><path class="cls-91" d="M64.62,101.72a1.42,1.42,0,0,1-1.48-1.46,1.2,1.2,0,0,1,1.26-1.18A1.3,1.3,0,0,1,66,100.36,1.42,1.42,0,0,1,64.62,101.72Z"/><path class="cls-93" d="M65.64,67.43c.19.6.56,1.17.19,1.84a1.35,1.35,0,0,1-1.6.76,1.33,1.33,0,0,1-1.08-1.4,1.1,1.1,0,0,1,1-1.17,10.58,10.58,0,0,1,1.49,0Z"/><path class="cls-94" d="M66.08,52.69a1.76,1.76,0,0,1-.81,1.44c-.89.43-1.54,0-2.17-.57a.54.54,0,0,1-.05-.88C64.48,51,64.66,51,66.08,52.69Z"/><path class="cls-90" d="M97.61,163.59A1.48,1.48,0,0,1,96.23,165a1.47,1.47,0,0,1-1.43-1.36,1.49,1.49,0,0,1,1.48-1.5C97.13,162.23,97.44,162.88,97.61,163.59Z"/><path class="cls-93" d="M50.05,84.51a1.25,1.25,0,0,1-1.27,1.41,1.24,1.24,0,0,1-1.39-1.27,1.34,1.34,0,0,1,1.37-1.53A1.31,1.31,0,0,1,50.05,84.51Z"/><path class="cls-93" d="M80.3,162.17a1.45,1.45,0,0,1,1.39,1.36A1.27,1.27,0,0,1,80.47,165a1.25,1.25,0,0,1-1.4-1.3A1.35,1.35,0,0,1,80.3,162.17Z"/><path class="cls-92" d="M80.28,133.35A1.26,1.26,0,0,1,79.06,132a1.31,1.31,0,0,1,1.29-1.42A1.41,1.41,0,0,1,81.7,132,1.31,1.31,0,0,1,80.28,133.35Z"/><path class="cls-90" d="M97.61,132.06a1.48,1.48,0,0,1-1.47,1.27,1.41,1.41,0,0,1,0-2.81A1.67,1.67,0,0,1,97.61,132.06Z"/><path class="cls-92" d="M112.08,130.51a1.48,1.48,0,0,1,1.29,1.44,1.38,1.38,0,0,1-1.52,1.38,1.33,1.33,0,0,1-1.21-1.49C110.67,131,111.28,130.64,112.08,130.51Z"/><path class="cls-92" d="M127.86,130.51c.79.2,1.38.61,1.34,1.44a1.33,1.33,0,0,1-1.32,1.39,1.4,1.4,0,0,1-1.41-1.51A1.45,1.45,0,0,1,127.86,130.51Z"/><path class="cls-90" d="M145.05,132a1.51,1.51,0,0,1-1.37,1.33,1.46,1.46,0,0,1-1.45-1.28,1.67,1.67,0,0,1,1.49-1.53A1.53,1.53,0,0,1,145.05,132Z"/><path class="cls-92" d="M97.61,147.83a1.36,1.36,0,0,1-1.56,1.22,1.25,1.25,0,0,1-1.27-1.43,1.27,1.27,0,0,1,1.5-1.19A1.44,1.44,0,0,1,97.61,147.83Z"/><path class="cls-91" d="M64.54,117.53c-.74-.12-1.35-.45-1.41-1.31a1.49,1.49,0,0,1,1.53-1.44A1.45,1.45,0,0,1,66,116.21C66.05,116.87,65.28,117.53,64.54,117.53Z"/><path class="cls-95" d="M96.94,99l.49.53c.1.15.19.3.29.44l0,0a2,2,0,0,1-.68,1.32,1.38,1.38,0,0,1-1.61.18,1.21,1.21,0,0,1-.67-1.26,1.19,1.19,0,0,1,1.08-1.17A9.63,9.63,0,0,1,96.94,99Z"/><path class="cls-92" d="M113.36,163.55a1.43,1.43,0,0,1-1.27,1.42,1.32,1.32,0,0,1-1.45-1.27,1.35,1.35,0,0,1,1.24-1.5A1.42,1.42,0,0,1,113.36,163.55Z"/><path class="cls-96" d="M129.21,147.83a1.19,1.19,0,0,1-1.22,1.22,1.29,1.29,0,0,1-1.52-1.37,1.22,1.22,0,0,1,1.41-1.25C128.74,146.46,129.09,147.05,129.21,147.83Z"/><path class="cls-96" d="M112,146.42a1.23,1.23,0,0,1,1.38,1.27,1.22,1.22,0,0,1-1.3,1.36c-.84,0-1.47-.46-1.41-1.22A1.36,1.36,0,0,1,112,146.42Z"/><path class="cls-97" d="M128.88,162.49c.37.74.58,1.49-.12,2.15a1.38,1.38,0,0,1-1.94,0c-.38-.72-.58-1.4.13-2.09S128.23,162.28,128.88,162.49Z"/><path class="cls-98" d="M142.34,115.65c.52-.89,1.25-1.24,2.15-.62s.63,1.49.19,2.31C142.7,117.61,142.69,117.6,142.34,115.65Z"/><path class="cls-99" d="M48.24,117.44c-1-.44-.89-1.35-.85-2.21a5.38,5.38,0,0,1,1-.42,1.22,1.22,0,0,1,1.63.94c.2.89,0,1.56-1.1,1.64Z"/><path class="cls-100" d="M81.7,116.06a1.22,1.22,0,0,1-1.3,1.33c-.74,0-1.27-.25-1.32-1.07a1.28,1.28,0,0,1,1.14-1.55A1.3,1.3,0,0,1,81.7,116.06Z"/><path class="cls-101" d="M48.65,70a1.31,1.31,0,1,1,.25-2.6A1.2,1.2,0,0,1,50,68.76,1.23,1.23,0,0,1,48.65,70Z"/><path class="cls-102" d="M113.37,179.48a1.21,1.21,0,0,1-1.36,1.21,1.17,1.17,0,0,1-1.25-1.19,1.23,1.23,0,0,1,1.24-1.41A1.28,1.28,0,0,1,113.37,179.48Z"/><path class="cls-101" d="M81.69,100.3a1.21,1.21,0,0,1-1.25,1.39,1.19,1.19,0,0,1-1.35-1.3,1.15,1.15,0,0,1,1.13-1.29A1.24,1.24,0,0,1,81.69,100.3Z"/><path class="cls-101" d="M50,100.48a1.24,1.24,0,0,1-1.44,1.21,1.22,1.22,0,0,1-1.15-1.49,1.16,1.16,0,0,1,1.33-1.1A1.22,1.22,0,0,1,50,100.48Z"/><path class="cls-101" d="M81.7,147.83A1.24,1.24,0,0,1,80.22,149a1.14,1.14,0,0,1-1.13-1.29,1.18,1.18,0,0,1,1.35-1.29C81.31,146.47,81.68,147,81.7,147.83Z"/><path class="cls-103" d="M63.05,52.68c0,.29,0,.59.05.88l-2-1C61.9,52.13,62.45,52.73,63.05,52.68Z"/><path class="cls-83" d="M125.58,223.22c0,.95-.68,1.7-.89,2.59-1.59,3.89-4.66,4.95-8.53,4.49a7,7,0,0,1-5.77-5.4,9,9,0,0,1,2.55-9.1c4.81-3.32,10-2.14,12.16,2.85A6.67,6.67,0,0,1,125.58,223.22Z"/><path class="cls-104" d="M125.58,223.22a19.88,19.88,0,0,0-.41-3,7.68,7.68,0,0,0-10.68-5.12c-.52.22-.91.71-1.55.66,1.73-2.15,4.06-2.65,6.64-2.32a18.09,18.09,0,0,1,2.45.65c2.85,2,4.39,4.57,3.94,8.13A1.58,1.58,0,0,1,125.58,223.22Z"/><path class="cls-105" d="M122.49,191.13c.75-.89.11-2.19.9-3.07l3.8,1.31a4.36,4.36,0,0,1-.78,3.49l-3.51-1.4a3.29,3.29,0,0,0-.41-.33Z"/><path class="cls-106" d="M110.39,224.9a9.44,9.44,0,0,0,5.63,4.84c.6.35,1.26.13,1.89.2,1,.1,1.19.63.71,1.46l-2.19.09C112.69,230.61,110.54,228.26,110.39,224.9Z"/><path class="cls-107" d="M64.82,162.06c1,.6,1.55,1.38.86,2.56-2.05.67-2.2.6-2.64-1.28A2.37,2.37,0,0,1,64.82,162.06Z"/><path class="cls-108" d="M66,195.38a1.56,1.56,0,0,1-1.45,1.27A1.53,1.53,0,0,1,63.15,195a1.47,1.47,0,0,1,1.54-1.24A1.62,1.62,0,0,1,66,195.38Z"/><path class="cls-109" d="M96.3,193.77a1.52,1.52,0,0,1,1.37,1.39,1.43,1.43,0,0,1-1.3,1.48c-.7.14-1.59-.75-1.56-1.46A1.72,1.72,0,0,1,96.3,193.77Z"/><path class="cls-110" d="M81.69,195.12a1.44,1.44,0,0,1-1.46,1.53c-.82,0-1.09-.6-1.11-1.33s.17-1.47,1.13-1.52A1.44,1.44,0,0,1,81.69,195.12Z"/><path class="cls-77" d="M94.72,178.91a1.55,1.55,0,0,1,2-.72,1.37,1.37,0,0,1,.68,2C95.52,181,95.16,180.88,94.72,178.91Z"/><path class="cls-109" d="M112,193.78a1.59,1.59,0,0,1,1.31,1.44,1.54,1.54,0,0,1-1.58,1.42,1.42,1.42,0,0,1-1.11-1.42A1.44,1.44,0,0,1,112,193.78Z"/><path class="cls-108" d="M64.64,180.68c-.77,0-1.38-.19-1.5-1a1.53,1.53,0,0,1,1.51-1.51A1.44,1.44,0,0,1,66,179.64C66,180.45,65.29,180.66,64.64,180.68Z"/><path class="cls-110" d="M48.66,193.86A1.33,1.33,0,0,1,50,195.22a1.28,1.28,0,0,1-1.14,1.35,1.36,1.36,0,0,1-.21-2.71Z"/><path class="cls-110" d="M129.07,194.11a1.47,1.47,0,0,0,0,.21,1.77,1.77,0,0,1-.54,2.14c-.9.63-1.43-.27-2.1-.59a2.19,2.19,0,0,1,1.36-2.22,1,1,0,0,1,.38.08.77.77,0,0,0,.43.19,1.1,1.1,0,0,1,.46.19Z"/><path class="cls-111" d="M48.79,180.65a1.18,1.18,0,0,1-1.33-1.08,1.22,1.22,0,0,1,1.18-1.44A1.19,1.19,0,0,1,50,179.42,1.16,1.16,0,0,1,48.79,180.65Z"/><path class="cls-111" d="M80.31,178.13a1.2,1.2,0,0,1,1.35,1.27,1.14,1.14,0,0,1-1.16,1.24,1.16,1.16,0,0,1-1.35-1A1.22,1.22,0,0,1,80.31,178.13Z"/><path class="cls-86" d="M122.49,191.13l.41.33A.36.36,0,0,1,122.49,191.13Z"/><path class="cls-68" d="M208.41,84.52A1.49,1.49,0,0,1,207.07,86a1.39,1.39,0,0,1-1.53-1.24A1.5,1.5,0,0,1,207,83.15,1.58,1.58,0,0,1,208.41,84.52Z"/><path class="cls-112" d="M222.63,86c-.81-.08-1.16-.63-1.16-1.44s.37-1.42,1.25-1.39a1.32,1.32,0,0,1,1.4,1.32A1.43,1.43,0,0,1,222.63,86Z"/><path class="cls-113" d="M208.35,100.48a1.36,1.36,0,0,1-1.48,1.26,1.32,1.32,0,0,1-1.35-1.53,1.29,1.29,0,0,1,1.55-1.11C207.94,99.15,208.27,99.72,208.35,100.48Z"/><path class="cls-74" d="M224.11,116.15a1.4,1.4,0,0,1-1.24,1.43,1.41,1.41,0,0,1-.18-2.8A1.3,1.3,0,0,1,224.11,116.15Z"/><path class="cls-77" d="M238.41,99.11a1.22,1.22,0,0,1,1.37,1.27,1.17,1.17,0,0,1-1.1,1.32,1.22,1.22,0,0,1-1.49-1.15A1.24,1.24,0,0,1,238.41,99.11Z"/><path class="cls-77" d="M224.11,100.43a1.22,1.22,0,0,1-1.39,1.27,1.18,1.18,0,0,1-1.21-1.42,1.14,1.14,0,0,1,1.25-1.16A1.22,1.22,0,0,1,224.11,100.43Z"/><path class="cls-9" d="M126.54,101.25c-3.89,2-7.77,1.73-11.69,0-.67-.29-.92-.88-1.39-1.31a3.85,3.85,0,0,1-2.59-.68c-1.24-1.19-2.47-2.39-3.71-3.57-.21-.2-.53-.36-.77-.14-1.23,1.14-2.83.82-4.29,1a2.13,2.13,0,0,0,.73,1.6,31.78,31.78,0,0,1,7.71,16.36,2.62,2.62,0,0,0,.27.59,2,2,0,0,0,0,.26A4.15,4.15,0,0,1,111,117a2.34,2.34,0,0,1,0,.26,22.82,22.82,0,0,1-.11,8.32c.27.09-.2,0-.08.23s-.26.2-.27.06c0-.85-.09-1.71-.08-2.56a34.82,34.82,0,0,0-3.89-16.2,37.92,37.92,0,0,0-6.2-8.79A51.54,51.54,0,0,0,82.48,86a1.54,1.54,0,0,1-.75-.74h0a3.42,3.42,0,0,1,2.13-2.07,11.91,11.91,0,0,0,5.91-5.8,6.68,6.68,0,0,1,1.46-2.07,10.92,10.92,0,0,1,0,3,21.06,21.06,0,0,0-.56,4.49c-.27,3.4,1.5,5.88,4.29,7.7,3.62,2.36,11.82,1.64,14.52-2.68,0,0,.13,0,.37-.07a15.38,15.38,0,0,0-.06,5,10,10,0,0,0,6.15,7.3,11.78,11.78,0,0,0,8.86.67,1.7,1.7,0,0,1,1.64.09A.31.31,0,0,1,126.54,101.25Z"/><path class="cls-114" d="M97.33,51.79c.69,1.19.23,2-.86,2.59-1.49-.49-1.94-1-1.64-1.9S95.77,51.44,97.33,51.79Z"/><path class="cls-115" d="M95.3,83.42c1.62-.42,1.71-.37,2.41,1.3l0,0a1.94,1.94,0,0,1-.27.43c-.57.87-1.31,1.09-2.13.42S94.63,84.15,95.3,83.42Z"/><path class="cls-96" d="M97.24,38.27a7.8,7.8,0,0,1-1.27.12,1.18,1.18,0,0,1-1.17-1,1.23,1.23,0,0,1,.69-1.42,1.4,1.4,0,0,1,1.6.23,1.94,1.94,0,0,1,.63,1.31h0a3.61,3.61,0,0,0-.33.53C97.35,38.09,97.3,38.18,97.24,38.27Z"/><path class="cls-116" d="M143.72,67.34l1.36.58c-.09,1.82-.09,1.82-1.72,2.19l-.89-.55C142.1,68,142.2,67.85,143.72,67.34Z"/><path class="cls-98" d="M145.08,100.39a1.35,1.35,0,0,1-1.37,1.35,1.4,1.4,0,0,1-1.46-1.47,1.42,1.42,0,0,1,2.83.12Z"/><path class="cls-117" d="M159,83c1.84.54,1.86.58,1.6,2.56-.7.34-1.4.63-2.12.07A1.67,1.67,0,0,1,159,83Z"/><path class="cls-118" d="M112.53,83.05c1.33,1.72,1.21,2.15-.85,3h0a3.94,3.94,0,0,0-.45-.36C110.22,84,110.43,83.55,112.53,83.05Z"/><path class="cls-119" d="M126.54,101.25a.7.7,0,0,0-.15-.39c.34-1.75.34-1.75,2.21-1.79l.51.48C129.16,101.78,128.62,102.14,126.54,101.25Z"/><path class="cls-120" d="M81.73,85.26a3.83,3.83,0,0,1-1.1.66,1.23,1.23,0,0,1-1.6-1,1.34,1.34,0,0,1,.77-1.62,1.28,1.28,0,0,1,1.79.71,4.09,4.09,0,0,1,.14,1.28Z"/><path class="cls-102" d="M113.37,69.55a5.42,5.42,0,0,1-1.18.48,1.15,1.15,0,0,1-1.4-1,1.18,1.18,0,0,1,.66-1.44,1.26,1.26,0,0,1,1.81.63,4,4,0,0,1,.2,1A1.71,1.71,0,0,1,113.37,69.55Z"/><path class="cls-56" d="M79.26,67.79a1.59,1.59,0,0,1,2.49.52c0,.83-.13,1.58-1.13,1.76C79.43,70.29,79,69.53,79.26,67.79Z"/><path class="cls-121" d="M80.86,35.72c1.36,1.67,1.17,2.24-.92,2.74a1.31,1.31,0,0,1-.88-1.67C79.26,35.81,80.06,35.76,80.86,35.72Z"/><path class="cls-6" d="M97.72,100c-.09-.15-.19-.29-.29-.44A.4.4,0,0,1,97.72,100Z"/><path class="cls-6" d="M97.4,38l.33-.53A.57.57,0,0,1,97.4,38Z"/><path class="cls-6" d="M97.42,85.19l.27-.43Z"/><path class="cls-6" d="M111.24,85.73a.47.47,0,0,1,.45.36Z"/><path class="cls-122" d="M143.79,146.4a1.29,1.29,0,0,1,1.27,1.34,1.26,1.26,0,0,1-1.31,1.38,1.38,1.38,0,0,1-1.52-1.42A1.51,1.51,0,0,1,143.79,146.4Z"/><path class="cls-123" d="M127.82,117.55a1.37,1.37,0,0,1-1.37-1.34,1.36,1.36,0,0,1,1.48-1.45,1.4,1.4,0,0,1-.11,2.79Z"/><path class="cls-123" d="M110.81,115.17a2.66,2.66,0,0,1,.77-.35c1.08-.15,1.76.35,1.81,1.26s-.57,1.48-1.66,1.43a3.21,3.21,0,0,1-.82-.25v0a2,2,0,0,1-.1-2.13Z"/><path class="cls-119" d="M110.87,99.3c1-.42,2-.44,2.59.68a4.61,4.61,0,0,1-.21,1,1.32,1.32,0,0,1-1.59.71,1.21,1.21,0,0,1-1-1.19A4.83,4.83,0,0,1,110.87,99.3Z"/><path class="cls-124" d="M129.06,180.3a3.49,3.49,0,0,1-1,.43c-1,.09-1.63-.41-1.63-1.27a1.27,1.27,0,0,1,1.11-1.38c.84-.16,1.38.28,1.57,1.32a3.61,3.61,0,0,1,0,.86Z"/><path class="cls-125" d="M127.79,54.34A1.51,1.51,0,0,1,126.48,53,1.47,1.47,0,0,1,128,51.49,1.38,1.38,0,0,1,129.21,53,1.41,1.41,0,0,1,127.79,54.34Z"/><path class="cls-92" d="M129.22,84.52a1.38,1.38,0,1,1-2.76-.11,1.31,1.31,0,0,1,1.43-1.26C128.74,83.13,129.09,83.77,129.22,84.52Z"/><path class="cls-102" d="M127.69,67.44a1.22,1.22,0,0,1,1.38,1.27A1.17,1.17,0,0,1,128,70a1.23,1.23,0,0,1-1.49-1.16A1.24,1.24,0,0,1,127.69,67.44Z"/><path class="cls-92" d="M112,54.35a1.36,1.36,0,0,1-1.4-1.35,1.31,1.31,0,0,1,1.18-1.5,1.48,1.48,0,0,1,1.54,1.42A1.53,1.53,0,0,1,112,54.35Z"/><path class="cls-96" d="M97.59,68.82a1.45,1.45,0,0,1-1.46,1.23,1.27,1.27,0,0,1-1.35-1.35,1.28,1.28,0,0,1,1.42-1.29A1.35,1.35,0,0,1,97.59,68.82Z"/><path class="cls-96" d="M113.38,37.05a1.27,1.27,0,0,1-1.32,1.36,1.2,1.2,0,0,1-1.42-1.21A1.34,1.34,0,0,1,112,35.79,1.26,1.26,0,0,1,113.38,37.05Z"/><path class="cls-126" d="M81.71,52.82a1.41,1.41,0,0,1-1.43,1.51,1.2,1.2,0,0,1-1.21-1.23,1.3,1.3,0,0,1,1.24-1.61A1.43,1.43,0,0,1,81.71,52.82Z"/><path class="cls-90" d="M145.05,84.42A1.52,1.52,0,0,1,143.76,86a1.68,1.68,0,0,1-1.54-1.49,1.47,1.47,0,0,1,1.42-1.32A1.52,1.52,0,0,1,145.05,84.42Z"/><path class="cls-127" d="M66,147.76a1.45,1.45,0,0,1-2.87.16,1.44,1.44,0,1,1,2.87-.16Z"/><path class="cls-7" d="M128.6,194.13l-.43-.4a.76.76,0,0,1,.42,0c.11.08.16.16.12.24S128.64,194.13,128.6,194.13Z"/><path class="cls-2" d="M128.6,194.13c0-.12,0-.25,0-.37l.46.35Z"/><path class="cls-128" d="M160.72,101.26a4.39,4.39,0,0,1-1.16.46,1.34,1.34,0,1,1,1.21-1.5,7.54,7.54,0,0,1-.06,1.06Z"/><path class="cls-129" d="M288,383l-.06-1.93a7.65,7.65,0,0,0-9.51-7.1,7,7,0,0,1-2.28.59,7.36,7.36,0,0,1,9.08-.59A7.44,7.44,0,0,1,288,383Z"/><path class="cls-129" d="M276.16,374.56a.48.48,0,0,1-.5.42A.47.47,0,0,1,276.16,374.56Z"/><path class="cls-8" d="M138.62,274.35a.39.39,0,0,1,.42-.3Z"/><path class="cls-130" d="M152.43,249.75c-.71.74-1.89-.06-2.56.79l-1.77-.5C149.5,249.34,151,249.76,152.43,249.75Z"/><path class="cls-6" d="M139.49,229.69c2.41,1.71,4.77,3.51,7.3,5.05a44.39,44.39,0,0,0,10.49,4.61A40.26,40.26,0,0,1,175.73,251a12.16,12.16,0,0,1,3.48,8.79c-.82.33-1.26-.27-1.76-.6-3-2-5.95-4.11-9-6a40.1,40.1,0,0,0-14-5.5,18.83,18.83,0,0,0-4.1-.2q-5.46-3.51-10.93-7c-.66-.43-1.36-.81-2-1.21a1.52,1.52,0,0,1-.45-1.56,59.79,59.79,0,0,1,1.54-6.87A1.57,1.57,0,0,1,139.49,229.69Z"/><path class="cls-131" d="M139.49,229.69a79.18,79.18,0,0,0-2.18,9.62q-1.56,7.11-3.14,14.23c-.7.59-1.64-.34-2.32.37,0-.12-.11-.24-.17-.36a2.3,2.3,0,0,1-.23-2.26c1.8-6.89,3.57-13.79,5.51-20.64.25-.89.37-2.3,2-1.75l.47.37A2,2,0,0,0,139.49,229.69Z"/><path class="cls-4" d="M139,228.9c-.88,0-1,.68-1.19,1.3-2,7.78-4.07,15.56-6.11,23.35l-2.66-.87a63.17,63.17,0,0,1,1.92-7.93c1.6-6.33,3.35-12.63,5-18.94A18.72,18.72,0,0,0,139,228.9Z"/><path class="cls-132" d="M286.33,381.55a6,6,0,1,1-12-.11,6,6,0,1,1,12,.11Z"/><path class="cls-133" d="M118.62,231.4c0-.71-.2-1.23-1-1.24-.55,0-1.14.06-1.56-.42a16.75,16.75,0,0,0,4-.28c2-.62,3.34-2.1,4.62-3.65C124.61,228.57,121.46,231.31,118.62,231.4Z"/><path class="cls-134" d="M117.71,216.19a6,6,0,0,1,6.09,5.95,6.06,6.06,0,1,1-12.11.08A6,6,0,0,1,117.71,216.19Z"/><path class="cls-8" d="M110.8,115.18a3.61,3.61,0,0,0,.1,2.13A1.33,1.33,0,0,1,110.8,115.18Z"/><path class="cls-135" d="M278,385.8c-2.75-1.79-3.35-4.11-1.77-6.82a4.59,4.59,0,0,1,4.3,2.49A5.3,5.3,0,0,1,278,385.8Z"/><path class="cls-136" d="M282.71,377.26c2.65,1.66,3.24,3.65,1.94,6.59a4.17,4.17,0,0,1-4.26-2.32A3.92,3.92,0,0,1,282.71,377.26Z"/><path class="cls-137" d="M280.56,381.55l4.09,2.3c-1.71,2.64-3.81,3.25-6.67,1.95l2.15-4.23C280.26,381.35,280.41,381.35,280.56,381.55Z"/><path class="cls-137" d="M280.56,381.55a3.1,3.1,0,0,1-.43,0c-1-1.35-2.73-1.55-3.92-2.59,1.73-2.5,3.7-3,6.5-1.72A14,14,0,0,0,280.56,381.55Z"/><path class="cls-137" d="M122,224.51q-2.58,4.1-6.84,1.85a5.58,5.58,0,0,1,2.54-4.3A5,5,0,0,1,122,224.51Z"/><path class="cls-135" d="M122,224.51l-4.29-2.17a1,1,0,0,1-.27-.57c.5-1.51.91-3.07,2.53-3.84C122.67,219.38,123.36,221.61,122,224.51Z"/><path class="cls-136" d="M117.7,221.93c0,.14,0,.27,0,.41-1,1.24-1.42,2.85-2.55,4-2.54-1.8-3.06-3.86-1.67-6.62A4.41,4.41,0,0,1,117.7,221.93Z"/><path class="cls-137" d="M117.7,221.93l-4.17-2.18c1.8-2.57,3.69-3.1,6.48-1.82A30.54,30.54,0,0,1,117.7,221.93Z"/><path class="cls-138" d="M353.68,33.45c5.79-10.3,11.61-20.58,17.32-30.93A3.6,3.6,0,0,1,374.61.37c8.73,0,17.47-.09,26.2-.17,5.76,0,11.51-.08,17.27-.2a2.62,2.62,0,0,1,2.66,1.49q11.07,19,22.26,37.94a2.51,2.51,0,0,1,0,2.87c-7.84,13.87-13.23,23.46-21.54,38.35A2.49,2.49,0,0,1,419,82.14c-8.11,0-16.22.16-24.33.26-7.07,0-14.15-.11-21.21.32l-.31-.1A67.86,67.86,0,0,1,369.12,76c-6.37-10.8-12.7-21.63-19.09-32.42A3,3,0,0,1,350,40"/><path class="cls-139" d="M441,40.08h-2.86c-13.12.12-26.15,0-39.27.23-1.64,0-2.61-.3-3.43-1.72-6.63-11.44-13.35-22.83-20-34.24-.37-.63-.72-1.28-1.08-1.93.42-.52.95-.32,1.4-.33q20.79-.21,41.59-.42A2.32,2.32,0,0,1,419.69,3q10.37,17.79,20.82,35.53A2.08,2.08,0,0,1,441,40.08Z"/><path class="cls-139" d="M439.82,41.75l-6.31.06c-11.82.11-24.79-.08-36.6,0-1,0-3,5.14-3.41,6.1l-.72,32.63c2.9-.07,8.91.14,11.82.11,3.64-.05,7.28-.11,10.9-.11h2.58c1.29.16,1.81-.39,2.43-1.51,6.59-11.82,13.24-23.61,19.85-35.42.29-.52,1-1.28,1-1.8C440.8,41.81,440.23,41.75,439.82,41.75Z"/><path class="cls-140" d="M388.43,34.4a12,12,0,0,1,2.93.36l3.6,6c.4.51.4.51,0,1L373.72,79.66c-.74-.07-.85-.54-1.06-.89q-10.46-17.83-20.94-35.65a2.34,2.34,0,0,1,0-2.72c1.12-1.84,1.75-3.29,2.82-5.16"/><path class="cls-139" d="M354.5,35.24c5-9,8.64-14.45,13.65-23.4.87-1.56,2-4.88,4.87-8.78.45-.06,18.41,32,18.53,32.18"/><path class="cls-140" d="M396.91,41.81a2.53,2.53,0,0,0-1.11,1.08c-.51,1-14.49,26.58-19.94,36.32-.27.46-.69.89-.58,1.49a1.15,1.15,0,0,0,.89.2c11.27,0,36-.36,40.36-.36h0c0-.52.52-38.73.52-38.73"/></g></g></g></svg>