<svg xmlns="http://www.w3.org/2000/svg" viewBox="0 0 442.15 401.73"><defs><style>.cls-1{fill:#f7f7f7;}.cls-2{fill:#313638;}.cls-3{fill:#56797c;}.cls-4{fill:#cbcbcb;}.cls-5{fill:#fcbc94;}.cls-6{fill:#e4b363;}.cls-7{fill:#cccbcb;}.cls-8{fill:#eaa27d;}.cls-9{fill:#ccccce;}.cls-10{fill:#cccbca;}.cls-11{fill:#c8cdd1;}.cls-12{fill:#25485a;}.cls-13{fill:#334d5a;}.cls-14{fill:#efcda9;}.cls-15{fill:#fddcb7;}.cls-16{fill:#dfe1e1;}.cls-17{fill:#f6f9f9;}.cls-18{fill:#979999;}.cls-19{fill:#b8c6d1;}.cls-20{fill:#fefefe;}.cls-21{fill:#00bfa5;}.cls-22{fill:#00d6b2;}.cls-23{fill:#37514c;}.cls-24{fill:#00493b;}.cls-25{fill:#006856;}.cls-26{fill:#00f7c8;}.cls-27{fill:#505e5b;}.cls-28{fill:#fcfcfc;}.cls-29{fill:#e0dfd5;}.cls-30{fill:#932a52;}.cls-31{fill:#be6b83;}.cls-32{fill:#cec6be;}.cls-33{fill:#68645d;}.cls-34{fill:#bfc0bf;}.cls-35{fill:#bebebe;}.cls-36{fill:#f8a719;}.cls-37{fill:#c7c9cc;}.cls-38{fill:#635f58;}.cls-39{fill:#cac6c5;}.cls-40{fill:#625c56;}.cls-41{fill:#edad6e;}.cls-42{fill:#504c47;}.cls-43{fill:#c1c1c1;}.cls-44{fill:#7c756d;}.cls-45{fill:silver;}.cls-46{fill:#7a7367;}.cls-47{fill:#f2ecd7;}.cls-48{fill:#f5f1ce;}.cls-49{fill:#f1ebd6;}.cls-50{fill:#c2c3c2;}.cls-51{fill:#c0c1c2;}.cls-52{fill:#bfbfbf;}.cls-53{fill:#453628;}.cls-54{fill:#c2c2c2;}.cls-55{fill:#bdbdbd;}.cls-56{fill:#bfc0c0;}.cls-57{fill:#bfbebd;}.cls-58{fill:#7f7770;}.cls-59{fill:#c0c0c1;}.cls-60{fill:#bebdbd;}.cls-61{fill:#c1bebf;}.cls-62{fill:#bfbfc0;}.cls-63{fill:#c4c4c4;}.cls-64{fill:#c1bfc0;}.cls-65{fill:#bfbeba;}.cls-66{fill:#bcbcbc;}.cls-67{fill:#c0beb8;}.cls-68{fill:#bebebd;}.cls-69{fill:#bdbbbb;}.cls-70{fill:#bcbcbb;}.cls-71{fill:#bbb;}.cls-72{fill:#bdbfbd;}.cls-73{fill:#bdbbbe;}.cls-74{fill:#bcbdbc;}.cls-75{fill:#bfbebf;}.cls-76{fill:#bebdbe;}.cls-77{fill:#bcbfba;}.cls-78{fill:#bcbbbe;}.cls-79{fill:#bebdbb;}.cls-80{fill:#bdbebd;}.cls-81{fill:#bdbdbc;}.cls-82{fill:#bbbdbe;}.cls-83{fill:#c38a51;}.cls-84{fill:#cbc8bf;}.cls-85{fill:#c7c7c0;}</style></defs><g id="Layer_2" data-name="Layer 2"><g id="Website"><g id="cv-home"><path class="cls-1" d="M117,60.51c-4.52-2.28-5-2.21-7.38,2.46C104.25,73.77,98.91,84.6,93.5,95.4a6.43,6.43,0,0,0-.84,3.18c.24,1.46.33,3,1.6,4,2.38.66,2.81,2.38,2.8,4.6-.06,10.51,0,21,0,31.54-.12,12.82,1.58,8.76-7.72,18.32-.18.18-.13.12-.12.1l-.11.13a7.14,7.14,0,0,1-5.9,2.46c-5.31-.08-10.63,0-15.94,0-1.65,0-3.34-.11-4.86.78-1.53,1.08-2.15,2.79-3,4.35C54,175.45,5.41,267,.14,277.62V401.73c80.55-.11,150.43-.09,231-.09a9.48,9.48,0,0,0,1.68-2.84c7.64-15,14.84-30.27,22.37-45.34,15.81-31.65,31.32-63.44,47-95.14,13.2-26.62,28.41-59.48,41.61-86.11Z"/><path class="cls-1" d="M89.17,157.19Z"/><path class="cls-2" d="M68.67,289.94c-.87-.82-.9-2-1.23-3-5.71-17.8-11.39-32.27-15.93-50.41-1.87-7.47-33.36,7.35-51.36,15.35.17,7.56-.4,60.27,0,66.85L66.6,297.14C71.25,295.62,71.66,294,68.67,289.94Z"/><path class="cls-3" d="M344.15,191c-4.72,9.47-32.8,65.5-37.48,75-4.47,9.07-8.71,18.25-13.15,27.34-4.35,8.89-8.82,17.73-13.24,26.59q-7,13.95-13.92,27.9-7.35,14.79-14.65,29.6-5.07,10.37-10,20.81c-.56,1.2-1.08,1.57-1.95,3.38h-8.65c-.42-1.36.55-2.31,1.06-3.36,20.23-41,91.72-185.24,112-226.23"/><path class="cls-4" d="M127.55,269.36a2.9,2.9,0,0,0-3.7,1.34,13.42,13.42,0,0,1-3.26,3.25c-3.82,3.33-8.66,4.3-13.24,5.88-4.86,1.67-9.7,1.29-14.68.36-3-.57-6-2.4-9.26-1a14.63,14.63,0,0,0,.58,2.21c1.17,2.66.18,3.7-2.52,4.4-4.34,1.12-8.54,2.72-12.8,4.12,1,5.29,1,5.34-4.32,7.07C54.6,300.16,9.9,314.84.14,317.93v7.75c15.16-4.83,61.92-20.42,77.1-25.19,2.17-.68,3.4-1.47,2.12-3.84-1-1.87-.27-2.73,1.6-3.3,4.12-1.26,8.14-2.83,12.3-3.93,1.92-.51,2-1.14,1.28-2.67-.47-1-1.34-2.3-.69-3,.93-1.08,2.22.19,3.33.46,13.5,3.35,26.1,2.48,36.81-7.6C132,274,129.72,271.73,127.55,269.36Z"/><path class="cls-5" d="M127.91,269.86c-2.37-.65-2.85,1.39-4.11,2.62a24.45,24.45,0,0,1-10.15,6.44c-5.18,1.5-10.22,3.59-15.9,3a89.61,89.61,0,0,1-11.43-2.29,11.62,11.62,0,0,0-2.91-.42c-2.3-7.06-4.71-14.08-6.86-21.2-1.22-4-2.23-8.2-4-12.11-1.31-2.85-1.8-6.06-2.72-9.09-.67-2.22,1.13-2.37,2.37-2.77,3.52-1.13,6.92-2.6,10.4-3.73,4.44-1.43,7.39-4.68,10.75-7.43,5.45-4.47,10.65-9.23,16-13.77,1-.81,2-1.86,3.43-1.85,1.89-.28,3.42,1.52,5.37.91a143.27,143.27,0,0,1,15.7,13.52,1.59,1.59,0,0,1,.37,1.54c-3.15,3.82-7.19,6.8-9.92,11a11,11,0,0,0-2,7.15c.34,3.63,2.86,6.26,6.48,6.19,7.61-.16,15.21-.45,22.79-1,3.31-.26,6.62-.15,9.92-.2a64.44,64.44,0,0,0,13.14-.76c-1.07-1.38-2.66-2.49-3.77-4-2.23-5-5.67-9.25-8.16-14.07-1.36-2.62-3.82-3.81-6.48-4.86-4.31-1.71-8.38-4-12.9-5.21a5.7,5.7,0,0,1-2.83-1.65c-4.95-4.6-10.25-8.8-15.23-13.37a3.31,3.31,0,0,1-1.09-1.63c0-2.83,2.51-3.92,4-5.7.91-.58,1-1.8,1.82-2.43,3.61-.56,6.46,1.4,9.64,2.59,8.62,3.22,16.73,7.57,25.32,10.82,3,1.15,6,2.65,8.92,4,7.06,9.89,12.63,20.7,19.18,30.91,1.67,2.6,2.93,5.52,4.83,7.9,3,3.79,2.14,7.94,1.9,12.07a3.37,3.37,0,0,1-2.24,2.69c-3,.36-4.09-2.39-6-3.71-1-1.24-2.4-2-3.49-3-.78-.76-1.66-1.41-2.87-2.43.52,3.45.06,6.42-2,9a12,12,0,0,1-1,1.13,14.73,14.73,0,0,1-2,1.84,9.61,9.61,0,0,1-5.28,1.76c-5-.07-9.9.68-14.86.83-9.91.29-19.83.42-29.73,1.15A6.79,6.79,0,0,1,127.91,269.86Z"/><path class="cls-6" d="M52.69,156.8c-1.73,0-1.45-1.29-1.45-2.36,0-17.58,0-35.17-.05-52.75,0-2.47,1-2.88,3.15-2.87,11.73.09,23.45,0,35.17,0,1.32,0,2.67.17,3.83-.69.26,1.35.92,2.63.7,4.06,1.15,1.27,1,2.86,1,4.4,0,11.7,0,23.4,0,35.1,0,4.75-.72,5.35-5.39,5.19a3.76,3.76,0,0,1-1.55-.66c-1.21-.95-1.84-2.46-3.2-3.29-2.2-1.34-3-1-3.43,1.53s-.59,2.71-2.4,1.2a8.37,8.37,0,0,0-2.56-8c0-.16-.08-.31-.12-.47a2.11,2.11,0,0,1,.22-.92c2.32-4.09,5.64-7.55,7.38-12a11.2,11.2,0,0,0,1.12-5.4c-.66-5-2.54-9.41-7-12.21-6.27-3.92-15.16-.29-17.76,7.21-.36,1-.6,2.12-1,3.16a8.48,8.48,0,0,0,1.28,7.44,108.31,108.31,0,0,1,5.94,9.89c.61,2.85.82,5.54-2.63,6.81-4.4.79-6.75,3.54-7.91,7.76-.72,2.6-1.24,5.35-3,7.6Z"/><path class="cls-3" d="M118,208.64c-2.13,1.09-3.55-.47-5.15-1.38l-4.73-4.55c3.13-3.61,5.86-7.61,9.86-10.41,2.26.27,3.31,2.79,6.23,3.32-3-3.12-6.56-4.25-9.23-6.64.58.47,1.31.79,1.21,1.75-3.38,3.38-6.15,7.31-9.61,10.62-6.69-5.8-13.34-11.64-20.1-17.36-1.55-1.32-1.73-2.21-.29-3.71,2.53-2.62,4.43-6.63,7.47-7.8s5.8,3.24,9.08,4.4c4.5,1.37,8,4.44,12,6.83s8,5,12,7.57c1.39.92,3.32,1.74,2.07,4.08-1.26,1.87-3.63,2.89-4.13,5.34C122.91,203.82,119.89,205.78,118,208.64Z"/><path class="cls-7" d="M197,263.37c2.66-2.63,3.09-9.55,1.09-12.64-3.46-5.36-6.43-11-9.89-16.36-3.13-4.81-6-9.77-9-14.68-1.87-3.12-4.5-5.93-5.33-9.65,4.86,1.91,9.74,3.83,12.63,8.6,2.8,4.61,5.5,9.29,8.26,13.93,4.45,7.5,8.82,15,13.39,22.47,2.44,4,3.24,7.69,0,11.55-.36.43-1,1-.45,1.4,2.1,1.65,2.17,5.29,5.59,5.63a2,2,0,0,1,2,1.84,18.88,18.88,0,0,0,3.11,7.26c.45.68.93,1.3.11,2a1.45,1.45,0,0,1-1.84.12,13.65,13.65,0,0,0-8.49-1.92c-1.2.11-.91-1-1-1.68a3.18,3.18,0,0,0-.29-3.4,8,8,0,0,1-1.5-2.9c-.58-2.76-1.3-5.26-4.64-5.94-1.06-.22-1.45-1.56-2-2.51S197,264.74,197,263.37Z"/><path class="cls-8" d="M127.91,269.86a9.31,9.31,0,0,1,5.36-1.22c8.74.26,17.43-.85,26.15-.74,5.2.06,10.32-1,15.53-.75,2,.1,3.81-1,5.58-1.92,2.56,2.84,1.16,5.75-.05,8.51-.95,2.17-2.48,3.9-5.28,3.48l-1.93,0a6.86,6.86,0,0,1-7.56-1.79c-1.51-1.58-2.52-1.88-4.18,0-2.51,2.91-9.79,3.08-12.76.62a18,18,0,0,1-3.41-3.76c-1.94,1.67-3.18,4.2-6.08,4.21H134A11.77,11.77,0,0,1,127.91,269.86Z"/><path class="cls-9" d="M88.8,146.09a16.33,16.33,0,0,1,2.32,0c2.4.32,3-.79,3-3-.09-13.62,0-27.24,0-40.85,3.24-.58,4.06.8,4,4-.17,13.52-.12,27,0,40.58,0,2.2-.91,3.59-2.16,5.25-5.31,7.05-11.93,10.06-20.88,8.84-4.15-.56-8.61-.9-12.83.49L62,160.7a5.17,5.17,0,0,1,3.35-4.6c2.25-.55,4.54-.19,6.81-.29,3.55-.12,7.1,0,10.64-.08,4.19-1,5.67-5.15,8.76-7.15C91.05,146.84,88.55,148.21,88.8,146.09Z"/><path class="cls-4" d="M175.2,277.22c4.41-1.67,6.68-5.45,5.33-12l1.27-1.31c1.72.31,2.47,2,3.91,2.73,2.26,2.18,5.11,3.69,7,6.3a1,1,0,0,1-.06.87,2.33,2.33,0,0,0-1.44,1.65C188.48,282.63,179.78,284.36,175.2,277.22Z"/><path class="cls-10" d="M139.28,276.58c2.37-1.71,5-3.15,5.95-7.2,1.2,3.92,3.21,6.05,5.87,7.31,2.24,1.05,4.71.67,7.11.07a4.56,4.56,0,0,0,3.35-2.46c1-2.43,2.25-2.19,3.56-.5,2.1,2.72,5,3.2,8.15,3.46-1.9,1.1-3,3.21-5.16,4-3.55,1.31-6.82.75-9.42-1.89-2.18-2.21-4.1-1.89-6.39-.4C147,282.46,143.46,281.78,139.28,276.58Z"/><path class="cls-3" d="M192.63,273.82v-.52c2-2.68,3.87-5.51,6.78-7.37.56,1.16.89,2.8,2.39,2.84,3.36.08,3.56,2.5,3.95,4.84a12.32,12.32,0,0,0,2.54,4.94c1.17,1.68.53,2.36-1.16,2.7a7.84,7.84,0,0,0-3.46-1.91c-3.25-.91-7.33-.17-8.65-4.73C194.75,273.68,193.49,273.93,192.63,273.82Z"/><path class="cls-3" d="M231.15,158.6l-4.79,6.33c-.55.73-1.11,1.43-2.19.92s-1-1.48-.71-2.52a50.13,50.13,0,0,0,1.73-8.13c-1.19,2.37-2.36,4.75-3.57,7.11-.42.82-.6,2-2.1,1.33-1.27-.61-1.13-1.41-.62-2.43q3.65-7.28,7.24-14.57c.54-1.1,1.21-1.52,2.36-.95s2.09,1,1.55,2.72a63.25,63.25,0,0,0-2.38,10.72c2-2.7,4.11-5.37,6.11-8.1,1-1.33,1.94-1.94,3.59-1,1.89,1.13.67,2.28.16,3.35q-3.25,6.72-6.65,13.38c-.38.76-.4,2.15-2,1.48s-1.11-1.61-.57-2.68c1.13-2.25,2.22-4.51,3.32-6.77Z"/><path class="cls-3" d="M169.32,118.89a6.26,6.26,0,0,1-.88,2.46c-3.08,3.33-3.51,7.88-5.64,11.63-.51.9-.72,2.21-2.36,1.49s-1.06-1.86-.53-3c.72-1.5,1.47-3,2.18-4.48.4-.85.67-1.73-.45-2.26s-1.26.58-1.57,1.16c-.9,1.65-1.76,3.33-2.55,5a1.53,1.53,0,0,1-2.37.86c-1.37-.62-1-1.44-.52-2.4,2.38-4.75,4.8-9.48,7.08-14.28.79-1.63,1.72-1.81,3.11-.91C166.59,115.38,169.22,115.62,169.32,118.89Z"/><path class="cls-3" d="M179.44,124.07a6.41,6.41,0,0,1-.83,2.45c-2.92,3.44-3.51,8-5.67,11.74-.53.93-.67,2.17-2.33,1.29-1.49-.8-1-1.68-.51-2.73.76-1.59,1.52-3.19,2.22-4.82.38-.88.47-1.84-.65-2.21s-1.21.77-1.52,1.38c-.86,1.67-1.61,3.4-2.43,5.1-.45.92-1.06,1.32-2.13.75s-1.28-1.15-.8-2.14q3.65-7.47,7.28-14.93c.51-1,1.28-1.6,2.39-.88C176.38,120.3,179.41,120.37,179.44,124.07Z"/><path class="cls-3" d="M149.65,128.8c-3.24,0-5.7-2.79-4.58-5.47,2-4.79,4.4-9.39,6.64-14.07.42-.87,1-1,1.89-.58a1.6,1.6,0,0,1,.75,2.46q-2.21,4.45-4.4,8.92c-.39.79-.86,1.56-1.17,2.38s-1.59,2.17-.2,2.88c1.55.78,2-1,2.48-1.95,1.67-3.25,3.24-6.54,4.85-9.81.3-.59.56-1.2.9-1.77a1.32,1.32,0,0,1,2-.54c.93.47,1.4,1,.87,2.1-2.29,4.53-4.52,9.1-6.92,13.57A3.11,3.11,0,0,1,149.65,128.8Z"/><path class="cls-3" d="M195.66,151.55a4.37,4.37,0,0,1-4.25-6.16c1.88-4.48,4.24-8.75,6.35-13.13a1.35,1.35,0,0,1,2.1-.76c1.19.55,1.33,1.25.77,2.37q-2.94,5.76-5.76,11.58c-.44.91-1.55,2.12-.1,2.86s1.81-.9,2.25-1.76c1.93-3.73,3.76-7.51,5.6-11.29.51-1,.85-2,2.41-1.21s1.07,1.63.55,2.66c-2,4.06-4,8.12-6.08,12.16C198.71,150.43,197.61,151.61,195.66,151.55Z"/><path class="cls-3" d="M209.12,155.77a9.3,9.3,0,0,1,.57-2c2-4.09,4-8.15,6-12.23.49-1,1-1.69,2.27-1s1.09,1.41.59,2.42c-1.85,3.77-3.68,7.55-5.52,11.33-.48,1-1.34,2.29-.12,2.94s1.79-.86,2.27-1.8c1.81-3.55,3.54-7.14,5.35-10.7.5-1,.72-2.5,2.56-1.66s1,1.86.41,2.94c-2,4-3.86,8-6,11.87-1,1.77-2.39,3.38-4.81,2.62C210.76,159.82,209,158.81,209.12,155.77Z"/><path class="cls-3" d="M135.07,119.13a45,45,0,0,1,6.72-13.54c1.2-1.55,3.14-1.43,4.89-.58a3.5,3.5,0,0,1,2,3.84,4.26,4.26,0,0,1-.41,1.92c-.74,1.08-.24,3.62-2.63,2.87-2.68-.84-.62-2.45-.27-3.7.22-.78.6-1.57-.25-2.08s-1.45.28-1.79.94c-1.67,3.25-3.28,6.53-4.9,9.81-.31.62-.49,1.32.2,1.78.91.61,1.36-.16,1.88-.74,1-1.15,1-4.62,3.62-2.43,1.68,1.43-.59,3.24-1.43,4.71a3.55,3.55,0,0,1-4.82,1.65A4,4,0,0,1,135.07,119.13Z"/><path class="cls-3" d="M181.11,142.28c1.77-5,3.64-9.93,7.1-14,1.12-1.32,2.81-1.1,4.33-.46a3.62,3.62,0,0,1,2.53,3.55,7.57,7.57,0,0,1-2.09,5.09c-.47.49-1,0-1.52-.18a1.16,1.16,0,0,1-.79-1.56c.22-.62.55-1.21.79-1.82.33-.82.84-1.78-.35-2.25-.92-.37-1.38.52-1.72,1.19-1.56,3-3.09,6.11-4.56,9.21-.36.75-.81,1.8.32,2.28.9.38,1.35-.5,1.75-1.16s.7-1.38,1.08-2a1.28,1.28,0,0,1,1.72-.51c.63.23,1.46.58,1.23,1.31-.69,2.24-1.72,4.41-3.9,5.54-1.69.87-3.2,0-4.53-1.14A3.91,3.91,0,0,1,181.11,142.28Z"/><path class="cls-3" d="M264.76,184.41c.42-1.32.33-2.14-.82-2.73-1.32-.67-1.84.22-2.37,1-.71,1.13-1.53,1-2.48.4s-.52-1.51,0-2.25c3.11-4.55,6.25-9.08,9.33-13.64.84-1.24,1.69-1,2.81-.48,1.27.61,1.85,1.21,1.33,2.77-1.74,5.23-3.32,10.5-5,15.76-.29.94-.76,1.66-1.89,1.23S264.16,185.27,264.76,184.41Z"/><path class="cls-3" d="M244.34,165.84l4.89-7.39c.69-1,1.3-2.17,2.84-1.1s.1,2-.38,2.66c-2.88,4.31-5.89,8.54-8.79,12.84-.76,1.12-1.34,1.86-2.87,1s-1.72-1.67-1.21-3.2c1.67-5,3.22-10.09,4.84-15.13.28-.89.31-2.14,1.88-1.52,1.19.46,1.35,1.24,1,2.37-1,3-1.9,6.05-2.84,9.08Z"/><path class="cls-3" d="M281.68,175.11c-2.07-1.81-3.05-.56-3.94,1.54-.6,1.4-1,2.46.81,3.14.89.33,1.07,1,.66,1.85a1.11,1.11,0,0,1-1.85.55c-2.21-1.42-2.63.44-3.2,1.8s-2.11,2.73.37,3.76c.92.38,1.52,1,1,2s-1.32.77-2.24.41c-4.43-1.72-4.65-2-2.66-6.28s4-8.14,6-12.21c.45-.9.88-2,2.18-1.14,1.51,1,3.7,1,4.43,3C283.4,174.07,282.87,175,281.68,175.11Z"/><path class="cls-3" d="M265.77,165.38c-.23.27-.67,1.07-.89,1-2.71-.7-2.76,1.68-3.5,3.06-1.78,3.32-3.38,6.73-5.07,10.1-.49,1-.87,2-2.43,1.18s-1-1.69-.45-2.72c1.6-3.17,3.24-6.31,4.72-9.54.74-1.62,2.67-3.23.43-5.23-.48-.43.12-1.6.56-1.72,2-.55,3.34,1.23,5,1.81C265,163.61,265.89,164,265.77,165.38Z"/><path class="cls-3" d="M205.47,156.69c-3.69-.17-5.33-3-3.67-6.34,2-4,3.9-8,5.91-11.91.54-1.05.73-2.78,2.75-1.67,1.84,1,.65,2,.18,3-1.63,3.4-3.33,6.76-5,10.13-.79,1.58-2.05,3.19.73,4.17a1.09,1.09,0,0,1,.63,1.62C206.68,156.35,206.3,156.86,205.47,156.69Z"/><path class="cls-3" d="M257.48,161.07c-.19.42-.41.93-.65,1.42-2.27,4.54-4.53,9.09-6.82,13.62-.47.93-.73,2.2-2.36,1.5s-1.1-1.83-.54-3q3.57-7.11,7.11-14.22c.41-.83.77-1.68,1.94-1.11C256.85,159.66,257.62,160,257.48,161.07Z"/><path class="cls-3" d="M176.84,142.51c-1.24-.58-2.63-.81-1.74-2.6,2.52-5,5-10.08,7.48-15.12.37-.74.79-1.41,1.75-.92.77.39,1.84.84,1.31,1.93-2.58,5.37-5.24,10.7-7.9,16C177.58,142.15,177.11,142.31,176.84,142.51Z"/><path class="cls-11" d="M128.68,195.36c.38-2.39-1.71-2.9-3.07-3.78-6.91-4.43-13.9-8.75-20.84-13.13-.74-.46-1.39-1-2.08-1.57.74-.47,1.48-1.14,2.42-.54,8.3,5.42,17,10.28,24.88,16.3C129.78,193.66,130.46,195.1,128.68,195.36Z"/><path class="cls-12" d="M117.91,192.71c-2.27,2.54-4.53,5.09-6.8,7.62-.87,1-1.55,2.2-3,2.38l-1.54-1.36a32.31,32.31,0,0,1,9.37-10.79C117.41,190.49,118.22,191.08,117.91,192.71Z"/><path class="cls-9" d="M64.75,156.9,62,160.7c-4,.88-7.09-.46-9.29-3.9l.18-.13C56.86,155.27,60.83,154.94,64.75,156.9Z"/><path class="cls-2" d="M118,208.64c1.08-3.58,3.87-5.73,6.6-7.94l18.63,16c4.61,2.14,7.7,6.17,11.51,9.3,4,3.27,7.73,6.88,11.77,10.11a34.6,34.6,0,0,1,4.8,5l6.39,6.07H162c-4.06-1.59-6.6-5.14-9.83-7.78-5.39-4.4-10.47-9.16-15.82-13.61a7.58,7.58,0,0,1-2.46-3.08Z"/><path class="cls-8" d="M133.92,222.7,162,247.17c-10.78.47-21.58.78-32.34,1.49-4,.27-6.43-1.5-7.82-4.71a9.44,9.44,0,0,1,.94-9.14A60,60,0,0,1,133.92,222.7Z"/><path class="cls-8" d="M171.26,241.1c-9.61-7.84-18.9-16-28.08-24.37,4.39.32,7.87,3.13,11.91,4.42C164.8,224.25,166.8,233.69,171.26,241.1Z"/><path class="cls-2" d="M199.41,265.93c-1.94,2.75-3.78,5.6-6.78,7.37l-7.44-6.19c-.06-.09-.16-.18-.17-.27-.21-2.87,3.67-7.36,6.66-7.71l5.27,4.24Z"/><path class="cls-2" d="M191.68,259.13c-2.93,2-5.43,4.42-6.49,8a9.86,9.86,0,0,1-3.39-3.19l.67-.64c2.36-2,3.36-5.17,6.22-6.67C189.73,257.4,191,257.9,191.68,259.13Z"/><path class="cls-13" d="M188.69,256.61c-1.74,2.54-3.27,5.26-6.22,6.67a11.31,11.31,0,0,0,1.41-10.51A18.61,18.61,0,0,1,188.69,256.61Z"/><path class="cls-14" d="M66.06,134.17c-2.77-2.71-4-6.47-6.28-9.44-2-2.64-2-5-1.06-7.82,1.72,1.88,2.66,1.63,3.91-.75,2.22-4.23,9.83-5.68,13.55-2.93-2.89,1.4-3.39,3.8-3.22,6.77.22,3.86.06,7.73.05,11.6,0,2-.06,3.88,2.83,3.69.9-.06,1.49.45.88,1.48h0c-1.37,1.89-3.53,2.41-5.55,3.19-2.72,0-4.35-1.15-4.42-4A2.26,2.26,0,0,0,66.06,134.17Z"/><path class="cls-15" d="M76.72,136.77c-.09-1.39-1-.87-1.64-.62-2.61,1.07-3-.3-3-2.48,0-4.83.2-9.68,0-14.5-.16-3.28-.08-6,4.07-6.31,1.1-1.5,2.38-1.34,3.68-.32a8.08,8.08,0,0,1,3,3.81,2.92,2.92,0,0,0,3.12,2.26c.82,5.41-2.81,9.15-5.13,13.34C79.78,133.75,78.09,135.18,76.72,136.77Z"/><path class="cls-2" d="M85.9,118.61l-2.27,1.2c-2.22-2.61-1.7-8.25-7.56-7-1.32,0-2.64,0-3.95,0-5.37-.2-9.29,1.64-10.4,7.93-1.37-1.44-3-2-3-3.88,1.11-5.54,3.76-10,9.33-11.91,7.53-2.58,14.79,1.64,17.12,9.75C85.53,116,85.66,117.32,85.9,118.61Z"/><path class="cls-2" d="M64.75,156.9l-11.88-.23c1.06-3.34,2.11-6.69,3.18-10,1.15-3.62,3.56-5.71,7.41-6,1.23.07,1.19,1.08,1.39,1.89.13.53,0,1.35.52,1.49,5,1.41,3.24,6.29,4.83,8.77.18,1,.75.3.39.55-.13.08-.21,0-.23-.23-.12-1.4-1-3.25,1.73-3a5.91,5.91,0,0,1,0,6.63Z"/><path class="cls-2" d="M72.06,156.7c-.39-2.23.93-4.69-.89-6.72-1.43-1.47-1.91-3.43-2.55-5.25-.77-2.22.75-3.7,4.24-4.45,3.27,1.86,3.77,3,2.56,6.37-.78,2.2-1.41,4.38-1,6.16a24.88,24.88,0,0,1,2.44-7.44c.56-1.25,1.68-1.39,2.41.13.38.52.73,1.22,1.44.38.11-.13,0-.43.08-.64.38-1.44-1.33-3.9.7-4.21a5.49,5.49,0,0,1,6.07,3.61,5.35,5.35,0,0,0,.54.83,1,1,0,0,1-.89,1.19c-2.11.42-2.33,1.84-2.34,3.68,0,2.12.67,4.42-1,6.3A78,78,0,0,1,72.06,156.7Z"/><path class="cls-16" d="M72.76,140.72c-4.09,1.83-4.13,1.92-2.55,5.84a8.39,8.39,0,0,1,1,3.42c-1,1.47-.06,3.2-.71,4.81a52.59,52.59,0,0,1-3.22-10.19l-2.79,1.61c-1.33-1.82.79-4.06-1-5.59,3.69-1,2.44-4,2.6-6.45,1,0,1.36.6,1.34,1.5,0,2.73,1.63,3.62,4,3.75a2.07,2.07,0,0,1,1.86-.2C73.84,140,73.42,140.38,72.76,140.72Z"/><path class="cls-17" d="M72.76,140.72l.65-1.23c1-.88,1.93-1.89,3.37-2.05,3.69,3.06,4.07,4.29,2.52,8.06-1.09-.56-1.82-.83-2.14.93a36,36,0,0,1-1.86,5.63,19.52,19.52,0,0,1-1,2c-1-2.5-1.2-4.84,0-6.89C75.94,144.37,75.63,142.32,72.76,140.72Z"/><path class="cls-18" d="M83.9,156.64a40.78,40.78,0,0,0,0-4.28c-.32-3.39-.5-6.6,4.2-6.89l.67.62c.25.19.48.48.77.56,1.12.31,2.94-.55,3.32.55.52,1.49-1.34,2.3-2.3,3.22C88.39,152.53,86.67,155.15,83.9,156.64Z"/><path class="cls-15" d="M76.78,137.44c-1,.86-2,1.84-3.37,2.05l-2-.07c1.53-1.36,3.53-1.77,5.3-2.64C76.73,137,76.75,137.22,76.78,137.44Z"/><path class="cls-19" d="M117.91,192.71l-2-2.15-3-2.51.42-.67c2.94,1.8,6,3.47,8.78,5.48,1.06.77,4,1,2.49,3.26s-2.57-.77-3.88-1.22C119.68,194.53,118.85,193.47,117.91,192.71Z"/><path class="cls-20" d="M165.93,119.14c-.57,1.14-.69,2.9-2.57,3.24-.49.09-1.29-.33-1-1,.74-1.39.67-3.44,2.6-3.9C165.75,117.32,166,118.17,165.93,119.14Z"/><path class="cls-20" d="M174.77,122.31c1,.08,1.71.49,1.54,1.22-.38,1.57-.72,3.31-2.59,3.88a.83.83,0,0,1-1.08-.91A10.41,10.41,0,0,1,174.77,122.31Z"/><path class="cls-20" d="M268.45,173.31c-.51,1.65-1,3.32-1.55,5-.28.78-.54,1.86-1.82,1.08-.9-.55-.72-1.23-.23-2q1.48-2.14,3-4.31Z"/><g id="glasses"><path class="cls-2" d="M.58,36.33c9.94-.24,15.53-3.57,23.71-9.1C34.79,20.12,46.43,15.73,58.76,13a33.16,33.16,0,0,1,6.59-1.22c2.13,0,3.46.67,4,2.74a4,4,0,0,1,.75,4.68c-2.41,4.91-1.53,9.6.84,14.23,1.39,2.7,3,5.32,3.37,8.42.44,3.45-.23,4.29-3.84,4.79a2.88,2.88,0,0,0-2.58,1.3c-4.46,6-10.78,9-17.75,11-1.51.42-2.93,1.22-4.54,1.3A12.35,12.35,0,0,1,38,58.74C31.6,56,27,51.21,22.94,45.8a9.75,9.75,0,0,0-5.12-2.31c-4.37-.3-6.92,2.08-7.42,6.81-.26,4.48.45,9-.89,13.46C7.25,71.35,7.8,72.41.58,75"/><path class="cls-21" d="M69.89,45.9c4.07-.26,5-2.39,2.93-6.75-2.25-4.77-5.5-9.18-5-14.89.15-1.76-.18-3.48,1.36-5s.36-3.18.2-4.8c2.59.55,5,1.34,5.7,4.37.27,1.13.59,2.38,0,3.31-3.71,6.06-1.44,11.53,1.44,17a42,42,0,0,1,2.55,5.49c1.2,3.37-.37,5.29-3.81,4.8-.83-.12-1.33-.24-2,.59C66.77,58.48,58.2,63,47.48,62.66c-3.49-.1-7-1-9.52-3.92l8.09.57a26.69,26.69,0,0,0,20.89-7.48A9.08,9.08,0,0,0,69.89,45.9Z"/><path class="cls-21" d="M.58,78.58c3.19-2,8.18-7.94,9.38-11.44,1.55-4.49,1.55-9.11,1.19-13.75-.1-1.31-.2-2.76-1.59-3.55.38-4.14,1.83-5.92,5.45-6.9,3.35-.91,6.15-.49,7.93,2.86-6.05,1.14-8,3.51-8.06,9.62-.05,3.48.21,6.93-.53,10.44-1.76,8.35-5.93,13-13.77,15.49"/><path class="cls-22" d="M65.19,44.54c-5.37,11-22.69,15.49-31.32,8A20.75,20.75,0,0,1,28.68,46c-1.44-3-.88-4.22,2.25-5.32,4.46-1.57,9-2.7,13.58-4a4.73,4.73,0,0,1,2.6.39c5,1.45,9.75,3.76,14.71,5.4A6.33,6.33,0,0,1,65.19,44.54Z"/><path class="cls-22" d="M.58,58.84c1.58,2,.58,1.17,4.83,4C3.34,67.53,2.55,69.9.58,71.48"/><path class="cls-23" d="M65.1,27.45A24.63,24.63,0,0,1,66.4,39c-1.69.74-1.85-.71-2.21-1.65A22.62,22.62,0,0,0,61.85,33c-2.05-3.59-5.55-3-8.47-2.29-5.15,1.2-10.2,2.85-15.23,4.54a2.39,2.39,0,0,1-1.54,0c-2.4-1.44-5.11-2.16-7.67-3.24-1.16-.49-2.73-.66-2.54-2.54a17.36,17.36,0,0,1,6-4.11,84.75,84.75,0,0,0,12.39-5.43c3.22-1.72,6.82-2,10.31-2.6s5.82,1,7.33,4a13.14,13.14,0,0,1-6.46,2.86C59.2,24.5,62.6,24.68,65.1,27.45Z"/><path class="cls-24" d="M.58,40.68c1.18.79,2.67.12,4.71,4.46C3.88,46.7,1.7,46.5.18,47.78"/><path class="cls-25" d="M.58,75s2.83.18,6.76-8.08a25.37,25.37,0,0,0,2.2-12.74c-.08-1.46,0-2.92,0-4.37.75-.91,1.23-1,1.75.28,1.47,3.6,1.12,7.39.78,11-.62,6.63-2.6,12.9-9,16.36C-.8,79.62.58,79,.58,79"/><path class="cls-26" d="M62.47,32.83c2.43,1.35,1.66,4.74,3.93,6.19.14,2,.33,3.93-1.21,5.52-2.83-.95-5.69-1.83-8.48-2.89-3.33-1.26-6.61-2.68-9.91-4a1.15,1.15,0,0,1,.54-1.45C52.24,34.45,57,31.8,62.47,32.83Z"/><path class="cls-27" d="M.18,46.6a34.15,34.15,0,0,1,5.11-1.46c.1,2.12,2.05,3.78,1.49,6.06C1.59,53.5,5,50.94.18,54.1"/><path class="cls-25" d="M36.59,34.76l1.35.1c2.85-1.18,5,.09,6.82,2.1-.48,1.09-1.45,1.14-2.47,1.4-4.11,1-8.19,2.24-12.27,3.43-1.89.56-1.69,1.87-.9,3.19,1.54,2.55,3.16,5.07,4.75,7.6C28.61,49.37,24.7,45.08,23,39a1.45,1.45,0,0,1,1.25-1.73c3.53-.8,6.9-2.12,10.4-3A2.48,2.48,0,0,1,36.59,34.76Z"/><path class="cls-26" d="M.58,52.52c.79-.39,2.37-.79,6.2-1.32.19,3.94.45,7.89-1.37,11.6-4.1-.79-.86-.43-4.83-1.59"/><path class="cls-25" d="M69.89,45.9c.27.64,1.49.68,1,1.85-3.19,7.47-17,14.86-24.83,11.56,6.32-1.62,12.38-3.78,17.56-8a18.75,18.75,0,0,0,4-4.53C68.22,45.8,68.69,45.11,69.89,45.9Z"/><path class="cls-24" d="M36.59,34.76C32,36.07,27.33,37,23,39c-1.72-4.2.35-7.05,3.4-9.55,1.92,2.27,5,2.06,7.34,3.46C34.7,33.52,36.3,33.12,36.59,34.76Z"/><path class="cls-27" d="M65.1,27.45A31.14,31.14,0,0,0,54,24.71c3.17-1.75,5.56-3,8.35-3.39A13.81,13.81,0,0,1,65.1,27.45Z"/><path class="cls-27" d="M44.74,19.93l.29.57c-4.13,1.88-8,4.5-12.67,4.86A40.9,40.9,0,0,1,44.74,19.93Z"/><path class="cls-21" d="M44.76,37c-2.33-.51-4.31-2.17-6.82-2.1.07-.21.1-.59.21-.62,6.8-1.58,13.12-5.32,20.41-4.73,2,.16,3.71.91,3.91,3.32-4.75.66-9.26,2.27-13.87,3.45a2.51,2.51,0,0,0-1.8,1.34Z"/></g><g id="book"><path class="cls-28" d="M441.7,55.68c-7.8,8.79,4.46.64-3.4,9.38-5.1,6.48-11,12.28-16.14,18.71a207.59,207.59,0,0,1-14.81,16.42,5,5,0,0,1-2,1.3c-5-.59-7.84-4.46-11.22-7.46-1.75-1.55-2.45-4.77-4.6-5.13s-3.47,2.78-5.44,4c-3.25,2.1-6.6,3.86-10.54,4.19-4.07-.55-6.24-4-9.29-6.12-1.72-1.19-2.92-3.08-5-3.86a2.38,2.38,0,0,1-.7-.64c-3-3.37-6.54-6.14-9.86-9.16-5.57-5-11.38-9.79-17.13-14.6-8.54-7.16-16.51-15-25.28-21.89-4.84-3.82-9.46-8-14-12.14-5.16-4.68-10.6-9-15.88-13.6-4.69-4.05-9.3-8.2-13.94-12.31-.76-.67-1.94-1.43-1-2.82h62.43c1.89,1.23,3.17,3.13,5,4.44.37.27.19-.61.08-.17,0,.1-.15.1-.31-.07-1.21-1.33-3.21-2-3.39-4.2h16.28c1.39.87,3.69-.3,4.45,2-.78,3-1.81,5.85-5.64,6.06a3.34,3.34,0,0,1-1.93-1.57c-.59-1.06-1.4-1.7-2.68-1.23A1.54,1.54,0,0,0,334.58,7c.29,1.74,1.93,1.52,3.07,2a1.69,1.69,0,0,1,.87,1.17c-.64,3-1.87,5.48-5,6.58-1.56-.16-2.09-1.55-3-2.52a1.9,1.9,0,0,0-2.4-.61,1.47,1.47,0,0,0-.9,1.31c0,.94.6,1.39,1.34,1.73,2.91,1.35,5.41,3.14,6.86,6.13A1.78,1.78,0,0,0,337.66,24a1.63,1.63,0,0,0,1.2-1.08c.32-1-.29-1.7-1.09-2.22s-1.95-1.15-2.24-2.37c.07-3.12,2.3-4.74,4.45-6.41a2,2,0,0,1,1.78.76,5.62,5.62,0,0,1,.6,1.17c.41,1.07,1,2,2.32,1.95a1.69,1.69,0,0,0,1.65-1.38c.34-1.52-.67-2.18-1.85-2.69-.2-.08-.4-.18-.6-.27a2.71,2.71,0,0,1-1.5-1.9c.66-2.83,2.67-4.49,5-5.83,1.18,0,1.79.77,2.37,1.62s1.22,2,2.6,1.71a1.45,1.45,0,0,0,1.28-1.36c.13-1.59-1.18-2-2.22-2.59S348.68,1.92,349,0H364.6c2.35,2.47,2.19,5.84,2.95,8.82,2.06,8.15,4.73,16.16,5.88,24.52-.41,1.54-1.19,1.64-2.31.63a26.88,26.88,0,0,0-3.61-3.3c-2.55-2-4.71-4.37-7.43-6.13,2.58,1.79,4.78,4,7.23,6,2.36,1.7,4.08,4.2,6.8,5.48,2,4.06,2.51,8.57,3.52,12.89,1.17,5,2.87,9.86,3.89,14.89.8,3.18,3.55,5.08,5.12,7.76a20.14,20.14,0,0,0,3,3.35c.28.18.66.57.87.47,3.32-1.69,5,.76,7,2.64s4.57,3.33,5.66,4.93a111.07,111.07,0,0,0-9.27-8,3.67,3.67,0,0,1-1.55-3.21c0-1.21-.3-2.68,1-3.35s1.91.81,2.74,1.45c.54.42,1.14.73,1.71,1.09a27.2,27.2,0,0,0,2.38,2.18,17.41,17.41,0,0,1-2.06-2c-3.09-1.84-5.55-4.07-5.54-8.09,0-2.3.79-2.63,2.55-1.33,1.76,1.11,2.9,3,4.68,4a18.84,18.84,0,0,1,3.1,2.75,15.44,15.44,0,0,0-2.88-2.6c-1.74-1-2.86-2.75-4.46-3.93a13.53,13.53,0,0,0-2.4-1.56c-2.26-1.48-2.48-3.91-2.68-6.22s.85-2.63,2.6-1.3q4.73,4,9.39,8.08a18.55,18.55,0,0,1,3.06,2.68,15,15,0,0,0-2.93-2.59c-3.05-2.72-6.21-5.31-9.25-8-2-1.39-4.18-2.61-4.8-5.33-.45-1.92,0-4.05-.43-5.63s-1.85-3.5-2.24-5.45c-.27-1.36-.9-3.7,2.12-2.28A13.12,13.12,0,0,1,391,37a10.84,10.84,0,0,0-3-2.66,7.7,7.7,0,0,1-4.44-7.21c0-1.48.32-2.82,2.32-1.67,2.21,1.3,3.58,3.58,5.73,5a8.81,8.81,0,0,1,1.65,1.31c-.32-.54-1-.82-1.52-1.23-2.12-1.34-3.45-3.6-5.63-4.88-3.83-2.29-5.77-5.41-4.42-10,.24-.82-.6-1.08-.9-1.62a11.76,11.76,0,0,1-1.94-5.32c-.05-1.68.55-2.71,2.41-1.48,2.18,1.32,3.53,3.59,5.67,4.94,5.22,4.43,10.35,9,15.49,13.49,1.61.91,2.61,2.56,4.21,3.48,2.22,1.58,3.82,3.87,6.08,5.41A13.23,13.23,0,0,1,415,36.49a9.41,9.41,0,0,0-2.11-1.82c-2.31-1.51-3.85-3.88-6.14-5.42-1.56-1-2.59-2.57-4.19-3.5-5.13-4.52-10.25-9-15.46-13.48-2.18-1.34-3.52-3.65-5.74-4.95-2.64-1.72-5.06-3.57-3.86-7.32h3.39c3,2.42,5.85,4.93,8.75,7.42,2.22,1.62,4,3.8,6.31,5.28.46.58,1.07,1,1.64,1.67-.42-.56-.88-.91-1.26-1.34C394,11.35,392,9.22,389.68,7.44c-2.12-1.57-3.83-3.6-6-5.11-.71-.48-1.78-1.06-1.42-2.33h59.85"/><path class="cls-6" d="M442.09,90c-1.18,1.58,3.83-4.68-8.33,9.36-8.54,9.88-17.29,19.58-25.83,29.46-1.34,1.54-2.07,1.5-3.49.26q-20.6-18-41.26-35.87c-10.85-9.45-21.63-19-32.51-28.39C316.61,52.71,302.45,40.7,288.4,28.57c-9.37-8.1-18.65-16.3-27.93-24.5C259,2.74,257,2,256,0h2.71c5.77,4,10.61,9,16,13.47,8.07,6.65,15.8,13.67,23.75,20.44,5.64,4.8,11.35,9.56,16.85,14.54,6.26,5.67,12.67,11.16,19.08,16.67,7.57,6.51,15.09,13.08,22.7,19.54a11.2,11.2,0,0,1,2,2.3h0c3.67,1.86,6.38,5,9.44,7.56,9.74,8.24,19.31,16.68,28.93,25.07.68.59,1.38,1.16,2.05,1.77,1.82,1.67,3.16,1.37,4.78-.51,14.36-16.7,13.14-13.75,27.53-30.42,3.56-4.35-.82,1,10.27-11.85"/><path class="cls-29" d="M442.09,78.58c-23.91,27.56-14,15.92-37.82,43.55-1.73,2-2.73,2.11-4.75.34C386.46,111,373.27,99.64,360.13,88.24a8.67,8.67,0,0,1-1-1.28c1.12-.87,1.79,0,2.57.63,2.84,2.46,5.76,4.84,8.57,7.33,1,.85,1.86,1.6,3.21,1.5a4.54,4.54,0,0,1,.52.72c5.53,5.08,11.14,10.06,17,14.77,2.76,2.22,3,2.16,5.27-.67,2.48-3,5.13-5.93,7.71-8.88.42-.45.95-.76,1.38-1.19,3.36-3.85,6.81-7.71,10.33-11.32,5.4-5.53,9.49-12.14,15.31-17.28,2.61-2.31,8.52-10.11,11.14-12.55"/><path class="cls-30" d="M370,0h5.43a4.06,4.06,0,0,1,1.94,3c2.59,11.3,5.67,22.48,8.41,33.74,1.78,7.33,3.78,14.61,5.5,22a5.29,5.29,0,0,1,.18,3.31,5.44,5.44,0,0,1-5.85,1.36c-1.88-2.06-1.8-4.82-2.45-7.28-4.54-17.24-8.77-34.56-13.07-51.87C369.78,2.85,369,1.43,370,0Z"/><path class="cls-31" d="M370,0l15.63,63.07a.77.77,0,0,1-.1,1c-1.49,1-3,1.57-4.7.43q-3.37-13.17-6.73-26.34a4,4,0,0,0-.87-2.15,7.15,7.15,0,0,1-.38-2q-3-12.27-6-24.54c-.78-3.15-1.5-6.32-2.25-9.48Z"/><path class="cls-29" d="M359.08,87C352.4,82.16,346.52,76.4,340.31,71Q300.62,36.81,261,2.43A31.13,31.13,0,0,1,258.73,0h2.72c0,.92.66,1.41,1.26,1.9,9,7.48,17.43,15.71,26.73,22.91,3.87,3,7.16,6.74,11,9.88,6.2,5.06,12.2,10.38,18.23,15.65,5.07,4.43,10,9,15.11,13.4,3.6,3.12,7.48,5.88,10.93,9.21,3.25,3.13,7,5.76,10.19,8.93C356.42,83.39,359.71,83.64,359.08,87Z"/><path class="cls-32" d="M391.14,61.73c-3.55-14.18-7.07-28.36-10.65-42.54-1.62-6.41-3.35-12.79-5-19.19h2c.13,3.16,2.07,5.28,4.19,7.3l-.27.28c-.86-.16-2.09-1-1.88.94a4.73,4.73,0,0,0,.22,1.31c1.24,3.31,3.48,6.17,2.72,10.24-.46,2.4,2.58,3.68,4,5.53l-.28.3c-1.25-.5-2.08-.62-1.9,1.26.31,3.1,2.08,5.27,4.21,7.27l-.27.29c-.87-.17-2.28-1.06-1.78,1,.62,2.49,1.13,5.1,3.41,6.79-2.26,2-.57,4.06-.09,6.07.53,2.17,2.95,2.69,4,4.38a1.22,1.22,0,0,1-.67.65c-.57-.28-1.27-.91-1.69-.76-.73.27-.32,1.12-.19,1.72.46,2.13.86,4.3,2.69,5.8-.61.56-1.58.64-2,1.46A.62.62,0,0,1,391.14,61.73Z"/><path class="cls-33" d="M345.55,2.11c-.82-1.69-2.95-.9-4-2.11H349a7,7,0,0,0,3.73,2.72,2.6,2.6,0,0,1,2,3.07,2.41,2.41,0,0,1-2.09,2.33,2.67,2.67,0,0,1-3.23-1.77c-.36-.94-.52-2-1.65-2.37A2.91,2.91,0,0,1,345.55,2.11Z"/><path class="cls-34" d="M389.62,7.58A34.44,34.44,0,0,1,380.88,0h1.36c2.09,2.9,5.56,4.39,7.58,7.36Z"/><path class="cls-35" d="M423,0l6,5.53-.59.65C426.21,4,423.41,2.59,421.6,0Z"/><path class="cls-35" d="M325.24,0c1.26,2.48,4.08,3.49,5.49,5.84A17.08,17.08,0,0,1,323.88,0Z"/><path class="cls-36" d="M442.09,66.73c-2.37-1.58-3.16-1.18-4.3-2.29,7.68-8.78-3.37,4,4.3-4.81"/><path class="cls-37" d="M405.31,101.17a1.34,1.34,0,0,1-.66,1.31c-3.1.44-6-.64-9-1.16-6-1.06-12.1-1-18-2.36-1.53-.35-3.12-.57-4.2-1.91q0-.31,0-.63a21.39,21.39,0,0,0,13.87-7.54c1.9-2.27,2.95-1.53,4.24.38C395.07,94.46,399.43,98.69,405.31,101.17Z"/><path class="cls-38" d="M336,18.46c.56,1,1.74.95,2.57,1.47a2.69,2.69,0,0,1,1.4,3.16,2.51,2.51,0,0,1-2.07,2c-1.33.23-2.62-.1-3.12-1.44a9.48,9.48,0,0,0-7-6.1,2.42,2.42,0,0,1-1.72-2.64,2.75,2.75,0,0,1,1.75-2.33,2.46,2.46,0,0,1,3.08.64c.87,1,1.22,2.45,2.6,3C334.51,16.79,335.78,17.05,336,18.46Z"/><path class="cls-39" d="M391.69,61.85c-.29-2,1-1.66,2.23-1.52a2.34,2.34,0,0,1,1.87,1.43,1,1,0,0,1-.63.61c-.58-.27-1.34-.91-1.69-.74-.74.37.06,1.13,0,1.7-.36,4,2.76,5.68,5.06,7.91a.52.52,0,0,1-.86.06l-1.22-.52c-1.1-.45-1.95-2.9-3-1.47a3.89,3.89,0,0,0,.8,5.19c3.91,3.32,7.74,6.74,11.6,10.11l-.55.68-8-6.78c-1.11-.94-2.22-1.91-3.38-2.79-.37-.28-1.12-1.07-1.33-.36-1.23,4.08-2.42.08-3.61,0a10.36,10.36,0,0,1,.4-4.46C389.77,67.82,390,64.66,391.69,61.85Z"/><path class="cls-40" d="M327,30.67c-1.67-1.89-3.09-4.11-6-4.36-1.49-.13-2.1-1.27-2.24-2.57a2.42,2.42,0,0,1,1.7-2.63,2.62,2.62,0,0,1,3.32.93c1.7,2.78,4.36,4.5,6.84,6.4,1.53,1.17,2.09,2.34,1.25,4.1C329.32,34.38,328.44,31.78,327,30.67Z"/><path class="cls-41" d="M380.86,64.51c1.69.32,3.11-.84,4.75-.84,2.63,1.8,2.88,4.43,2.57,7.27-.39.73-.91,1.2-1.81.94C384.21,69.66,381.93,67.54,380.86,64.51Z"/><path class="cls-42" d="M342.82,9.59l1.41,1.35c1.55.9,1.66,2.15.39,3.2-1.52,1.26-2.34-.17-3.15-1.21l-1.29-.73a3.41,3.41,0,0,1-2.09-1.91l-.64-.78c-1.16-.51-2.38-1.07-1.61-2.63a1.93,1.93,0,0,1,3.05-.82l1.4,1.36C341.21,8.06,342.58,8.17,342.82,9.59Z"/><path class="cls-43" d="M425.55,24.55c-4-2.34-7.08-5.83-10.66-8.69a72.63,72.63,0,0,1-8.52-8.13c6.7,5.26,13.41,10.49,19.4,16.58Z"/><path class="cls-44" d="M341.47,12.93c1,.19,1.52,1.88,2.81.88s.53-1.92,0-2.87c2.13.1,3.43,1.16,3.23,3.34a2.61,2.61,0,0,1-2.69,2.51C342.37,16.74,341.68,15,341.47,12.93Z"/><path class="cls-45" d="M402.49,25.89a143.73,143.73,0,0,1-15.64-13.52l.27-.3A119.12,119.12,0,0,1,402.7,25.65Z"/><path class="cls-43" d="M361.31,53.51a103.32,103.32,0,0,1,14.95,12.83l-.26.29a111.48,111.48,0,0,1-14.89-12.9Z"/><path class="cls-43" d="M353.14,53.53a109,109,0,0,1,15,12.83l-.25.28A111,111,0,0,1,353,53.72Z"/><path class="cls-43" d="M387.79,76l13.35,11.62-.56.66c-4.51-3.83-9.21-7.44-13.38-11.67Z"/><path class="cls-46" d="M338.89,6.06c-3.2.58-3.37,1-1.44,3.45-1.93.1-3.67-.25-4-2.5a2.5,2.5,0,0,1,2-3C337.14,3.64,338.6,4,338.89,6.06Z"/><path class="cls-47" d="M338.09,10.29l2.09,1.91c-1.35,2.11-3.86,3.45-4.16,6.26l-2.51-2.22C336,15,336.9,12.53,338.09,10.29Z"/><path class="cls-48" d="M319.76,34.57c-.71,3.17-3.57,4.73-5.58,6.92a.9.9,0,0,1-.84-.07,1.39,1.39,0,0,1,.17-1.83c1.82-1.89,3.68-3.75,5.53-5.61Z"/><path class="cls-49" d="M342.82,9.59l-2.53-2.17c3.47-.07,3.73-3.32,5.26-5.31L347.76,4A18.57,18.57,0,0,0,342.82,9.59Z"/><path class="cls-50" d="M394.33,25.82c-3.75-2.24-6.71-5.38-9.69-8.51,4,2.26,7.14,5.46,10.48,8.48A.5.5,0,0,1,394.33,25.82Z"/><path class="cls-45" d="M426.81,11.63A75.24,75.24,0,0,1,417,3.27l.55-.64,10.15,8.91A.62.62,0,0,1,426.81,11.63Z"/><path class="cls-45" d="M410.62,25.83a50.75,50.75,0,0,1-9.71-8.57c4,2.17,7.09,5.59,10.52,8.52A.51.51,0,0,1,410.62,25.83Z"/><path class="cls-43" d="M424.85,52.31a43.73,43.73,0,0,1-9-7.88c3.7,2.06,6.71,5,9.78,7.83A.54.54,0,0,1,424.85,52.31Z"/><path class="cls-43" d="M427.82,33.15a49.8,49.8,0,0,1,9.71,8.63,44.32,44.32,0,0,1-9.92-8.4Z"/><line class="cls-45" x1="433.71" y1="24.55" x2="433.92" y2="24.32"/><path class="cls-35" d="M354.53,26.35a56.63,56.63,0,0,1,10.17,8.82l-.21.22a55.14,55.14,0,0,1-10.18-8.8Z"/><path class="cls-45" d="M426.81,11.63l.9-.09c3,2.63,6.37,4.88,8.92,8l-.2.22A50.72,50.72,0,0,1,426.81,11.63Z"/><path class="cls-43" d="M420.18,55.64c-2.93-2.46-6.07-4.69-8.12-8.17L420.79,55Z"/><path class="cls-45" d="M367.19,30.66a37.28,37.28,0,0,1-9-8,44.14,44.14,0,0,1,9.21,7.71Z"/><path class="cls-35" d="M341.51,44.12c-2.93-2.5-6.06-4.78-8.18-8.22l8.77,7.62Z"/><path class="cls-43" d="M435.77,33.47c-.33-.3-.31-.57.07-.81"/><path class="cls-51" d="M393.11,53.57l.67-.65c3,2.65,6.37,4.89,8.91,8l-.18.2C398.91,59.21,396.32,56,393.11,53.57Z"/><path class="cls-52" d="M402.37,39.6c2.89,2.08,5.83,4.06,8,7A25.67,25.67,0,0,1,402.37,39.6Z"/><path class="cls-53" d="M386.37,71.88l1.31-.66a1.68,1.68,0,0,1,2.54.16c-.53,1.31-.23,2.86-1.22,4C388.33,74.08,386.22,73.82,386.37,71.88Z"/><path class="cls-52" d="M418.73,39.59c2.8,2.15,5.83,4,7.84,7C423.73,44.54,420.78,42.59,418.73,39.59Z"/><path class="cls-52" d="M359.73,17.09c-2.68-1.23-4.32-3.7-6.53-5.49,2.88,1,4.82,3.1,6.76,5.24Z"/><path class="cls-54" d="M389.82,7.36a29.08,29.08,0,0,1,6.68,5.53.5.5,0,0,1-.8,0,20.53,20.53,0,0,1-6.08-5.36Z"/><path class="cls-55" d="M426.24,39.4c-2.49-1-3.88-3.24-5.79-4.88l.54-.69,6,5.53A.48.48,0,0,1,426.24,39.4Z"/><path class="cls-56" d="M406.74,71.24l6,5.14A9.38,9.38,0,0,1,406.74,71.24Z"/><path class="cls-52" d="M403.74,76.24c2,1.31,4.1,2.44,5.87,5A12.91,12.91,0,0,1,403.74,76.24Z"/><path class="cls-57" d="M372.88,34a2.91,2.91,0,0,1,.38,2,23.21,23.21,0,0,1-6.07-5.36,2.1,2.1,0,0,0,.24-.27C369.68,31,370.39,33.82,372.88,34Z"/><path class="cls-35" d="M406.79,29.06c2.52,1.26,4.24,3.41,6.1,5.42l-.21.23c-2.54-1.22-4.27-3.38-6.14-5.37Z"/><path class="cls-58" d="M327,30.67c1.71.42,2.76,2.55,4.88,1.87C329.39,34.64,328.22,34.2,327,30.67Z"/><path class="cls-52" d="M404.52,34.74c-2.52-1.26-4.25-3.41-6.1-5.42l.19-.22c2.59,1.17,4.25,3.41,6.16,5.37Z"/><path class="cls-43" d="M348.48,35.22c2.29,1,3.76,2.92,5.34,4.72l-.16.18c-2.44-1.07-4-3.17-6-4.85A.54.54,0,0,1,348.48,35.22Z"/><path class="cls-59" d="M318.57,9.39c2.46.74,3.39,3.33,5.52,4.49-2.7-.38-4-2.55-5.74-4.26Z"/><path class="cls-35" d="M439.82,15.72c-2.43-1.08-3.94-3.28-5.94-4.88a.57.57,0,0,1,.8-.06c2.29,1,3.74,2.94,5.36,4.7Z"/><path class="cls-52" d="M423.64,16.21A26.94,26.94,0,0,1,418.13,11l.15-.17c2.36.91,3.75,3,5.42,4.66C424.06,15.73,424,16,423.64,16.21Z"/><path class="cls-45" d="M321.19,5.34A15.16,15.16,0,0,1,316.83,1a15.87,15.87,0,0,1,5,3.81A.91.91,0,0,1,321.19,5.34Z"/><path class="cls-35" d="M403.23,12.27c-2.32-.79-3.59-2.7-5-4.53a12.38,12.38,0,0,1,5.05,4.41Z"/><path class="cls-52" d="M425.77,24.31c2.32,1,3.81,3,5.44,4.75l-.2.22c-2.34-1-3.81-3-5.46-4.73Z"/><path class="cls-60" d="M391.62,30.66c-2.3-1-3.79-3-5.47-4.76a1,1,0,0,0,.28-.3,19.62,19.62,0,0,1,5.44,4.79Z"/><path class="cls-55" d="M346.39,26.33c2.16,1,3.56,2.77,4.93,4.61-2.15-.94-3.65-2.65-5.17-4.33Z"/><path class="cls-52" d="M410,39.44c-2.38-.92-3.76-3-5.47-4.7l.25-.27c2.27,1,3.82,2.93,5.41,4.76Z"/><path class="cls-35" d="M345.47,40.17c-2.29-1-3.8-3-5.42-4.75l.23-.25c2.29,1,3.76,3,5.44,4.72Z"/><path class="cls-52" d="M356.57,35.18c2.32,1,3.78,3,5.43,4.71l-.24.26c-2.27-1-3.81-2.93-5.41-4.73Z"/><path class="cls-52" d="M359.08,44.88c-2.36-1-3.82-2.94-5.42-4.76l.16-.18c2.34,1,3.84,2.91,5.45,4.73Z"/><path class="cls-61" d="M386.85,12.37a18.32,18.32,0,0,1-5.43-4.79,1.12,1.12,0,0,0,.25-.28c2.27,1.07,3.8,3,5.45,4.77Z"/><path class="cls-35" d="M353,53.72c-2.26-.85-3.56-2.75-4.94-4.57a14,14,0,0,1,5.11,4.38Z"/><path class="cls-35" d="M413.55,56.22c2.33,1,3.78,3,5.46,4.71l-.25.27c-2.28-1.05-3.83-2.91-5.41-4.76Z"/><path class="cls-52" d="M402.69,61c2.29.82,3.41,2.92,5,4.51a12.68,12.68,0,0,1-5.19-4.31Z"/><path class="cls-35" d="M400,65.71c2.3.82,3.43,2.91,5,4.52a13.31,13.31,0,0,1-5.19-4.3Z"/><path class="cls-45" d="M368.11,66.36c2.24.89,3.45,2.88,4.94,4.57-2.21-.86-3.65-2.63-5.19-4.29A3.33,3.33,0,0,0,368.11,66.36Z"/><path class="cls-55" d="M318.35,9.62c-2.29-1-3.79-3-5.43-4.75l.2-.22c2.35,1,3.84,2.92,5.45,4.74Z"/><path class="cls-52" d="M315.66,14.34c-2.34-1-3.81-2.95-5.48-4.71l.24-.26c2.28,1.06,3.85,2.91,5.41,4.78Z"/><path class="cls-62" d="M352.48,16.91,357,21.14A6.24,6.24,0,0,1,352.48,16.91Z"/><path class="cls-52" d="M360,16.84c2.19.94,3.54,2.76,4.89,4.6a15.23,15.23,0,0,1-5.12-4.35Z"/><path class="cls-35" d="M436.63,19.57c2.34,1,3.77,3,5.47,4.7l-.26.3c-2.28-1.07-3.83-2.93-5.41-4.78Z"/><path class="cls-55" d="M423.05,29.08c2.1.75,3.35,2.51,4.76,4.07l-.2.22a10.88,10.88,0,0,1-4.74-4.09Z"/><path class="cls-52" d="M315.83,14.15a6.64,6.64,0,0,1,4.05,4.58l-4.21-4.39Z"/><path class="cls-63" d="M423.06,56.93l3.78,3.41c-2.2,0-3.07-1.66-4.35-2.82Z"/><path class="cls-62" d="M343.2,30.83c-1.87-.42-2.85-1.92-4.62-3.52C341.26,27.71,341.88,29.73,343.2,30.83Z"/><path class="cls-35" d="M388.46,34.43c1.9.8,3.08,2.36,4.25,4-2-.68-3.21-2.2-4.52-3.67A.94.94,0,0,0,388.46,34.43Z"/><path class="cls-64" d="M395.16,62.37l.63-.61A18.24,18.24,0,0,1,400,65.71l-.19.22C397.72,65.42,396.85,63.36,395.16,62.37Z"/><path class="cls-55" d="M359.27,44.67c2,.67,3.1,2.32,4.26,3.91-1.94-.68-3.18-2.21-4.45-3.7Z"/><path class="cls-65" d="M376.26,66.34c1.91.78,3.05,2.38,4.21,4A11.37,11.37,0,0,1,376,66.62,1.76,1.76,0,0,0,376.26,66.34Z"/><path class="cls-66" d="M354.31,26.59c-1.94-.73-3.07-2.34-4.23-3.92a11.06,11.06,0,0,1,4.45,3.68Z"/><path class="cls-67" d="M382,71.56c1.87.54,2.83,2.06,4.85,3.75C384,74.66,383.05,73,382,71.56Z"/><path class="cls-35" d="M433.71,24.55c-2-.69-3.09-2.31-4.23-3.92a11.13,11.13,0,0,1,4.43,3.7Z"/><path class="cls-35" d="M412.87,20.26c2,.67,3.1,2.29,4.23,3.9a11.3,11.3,0,0,1-4.43-3.68Z"/><path class="cls-35" d="M312.45,18.21c2,.65,3,2.3,4.18,3.88a11.6,11.6,0,0,1-4.4-3.64Z"/><path class="cls-55" d="M412.67,20.48c-2.09-.77-3.3-2.56-4.74-4.08l.19-.22c2.11.75,3.36,2.5,4.75,4.08Z"/><path class="cls-35" d="M435.84,32.66c0,.27,0,.54-.07.81A13.6,13.6,0,0,1,431,29.28l.2-.22C433.19,29.69,434.2,31.58,435.84,32.66Z"/><path class="cls-55" d="M439.82,15.72l.22-.24"/><path class="cls-35" d="M423.64,16.21l.06-.77c2,.73,3.08,2.39,4.07,4.27Z"/><path class="cls-68" d="M312.23,18.45c-2-.83-3.34-2.52-4.73-4.1l.19-.21c2.08.78,3.38,2.47,4.76,4.07Z"/><path class="cls-55" d="M397.68,71.3l.86-.06,3.94,3.48C400.18,74.45,399,72.77,397.68,71.3Z"/><path class="cls-66" d="M403.33,12.15c2.19.64,3.37,2.49,4.79,4l-.19.22c-2.06-.82-3.38-2.48-4.7-4.13Z"/><path class="cls-55" d="M382.81,80.16,379,76.58l.55-.61,3.82,3.55Z"/><path class="cls-55" d="M307.5,14.35c-2.06-.58-2.95-2.46-4.3-3.85,2,.65,3.24,2.13,4.49,3.64Z"/><path class="cls-55" d="M428.51,47.43,432.32,51c-2.19-.11-3-1.91-4.49-2.88Z"/><path class="cls-69" d="M358.24,8.4c1.78.6,2.86,2.06,4.73,3.92A8.17,8.17,0,0,1,358.24,8.4Z"/><path class="cls-35" d="M434.68,10.78l-.8.06-4-3.43C432.21,7.58,433.3,9.37,434.68,10.78Z"/><path class="cls-35" d="M418.13,11c-2.15-.69-3.34-2.51-4.81-4l.25-.28c2.07.8,3.33,2.52,4.71,4.12Z"/><path class="cls-52" d="M310.18,9.63c-2-.68-3-2.41-4.26-3.85,2,.63,3.24,2.11,4.5,3.59Z"/><path class="cls-55" d="M301.39,9.58,297.58,6c2.13.25,3.06,1.88,4.46,2.95Z"/><path class="cls-52" d="M321.19,5.34l.62-.57A16.51,16.51,0,0,1,326.14,9C323.63,8.13,322.72,6.3,321.19,5.34Z"/><path class="cls-70" d="M395.7,48.32a10,10,0,0,1-4.23-4c1.91.71,3.18,2.22,4.48,3.67Z"/><path class="cls-35" d="M413.32,6.94a9.71,9.71,0,0,1-4.19-4,11.74,11.74,0,0,1,4.44,3.68Z"/><path class="cls-66" d="M401.34,2.61l3.82,3.63c-2.11-.17-3-1.9-4.47-2.83Z"/><path class="cls-45" d="M393.19,2.67,397,6.21c-2.08-.33-3.21-1.66-4.37-2.95Z"/><path class="cls-71" d="M312.92,4.87c-2-.67-3-2.38-4.26-3.9,1.94.68,3.19,2.2,4.46,3.68Z"/><path class="cls-35" d="M300.49,1c1.9.48,2.85,2.05,4,3.39C302.58,3.94,301.63,2.38,300.49,1Z"/><path class="cls-35" d="M296,4.85l-3.73-3.49.49-.61,3.82,3.41Z"/><path class="cls-72" d="M396,48a9.85,9.85,0,0,1,4.2,3.94,11.32,11.32,0,0,1-4.45-3.66A3.33,3.33,0,0,1,396,48Z"/><path class="cls-73" d="M367.77,45.08a7.47,7.47,0,0,1,3.9,3.49A7.56,7.56,0,0,1,367.77,45.08Z"/><path class="cls-55" d="M345.72,39.89c1.9.78,3.07,2.34,4.21,4a11.43,11.43,0,0,1-4.45-3.67Z"/><path class="cls-66" d="M361.11,53.73c-2-.63-3-2.42-4.27-3.9a10.76,10.76,0,0,1,4.47,3.68Z"/><path class="cls-55" d="M413.35,56.44c-2-.66-3.05-2.35-4.27-3.88a11.31,11.31,0,0,1,4.47,3.66Z"/><path class="cls-74" d="M362,39.89c2,.66,3,2.48,4.36,3.88-2.09-.49-3.24-2.19-4.6-3.62A1.48,1.48,0,0,0,362,39.89Z"/><path class="cls-75" d="M374,57.78c-2.05-.6-3.05-2.34-4.24-3.89,1.92.69,3.17,2.2,4.42,3.68Z"/><path class="cls-35" d="M410.18,39.23c1.95.71,3.09,2.3,4.21,3.93a11.48,11.48,0,0,1-4.4-3.72Z"/><path class="cls-66" d="M406.09,57.64c2.13.22,3.18,1.62,4,3.35Z"/><path class="cls-71" d="M394.18,39.64c1.84.63,2.91,2,4,3.48C396.31,42.56,395.22,41.1,394.18,39.64Z"/><path class="cls-76" d="M374.19,57.57c2.06.58,3,2.51,4.39,3.82-2.13-.45-3.26-2.14-4.57-3.61Z"/><path class="cls-77" d="M364.7,35.17c2,.64,3,2.36,4.24,3.89a11,11,0,0,1-4.45-3.67Z"/><path class="cls-66" d="M412.89,34.48a9.13,9.13,0,0,1,4.24,3.93,11.58,11.58,0,0,1-4.45-3.7Z"/><path class="cls-55" d="M396.63,35.21a5.05,5.05,0,0,1,4,3.42Z"/><path class="cls-55" d="M419,60.93c1.94.61,2.85,2.37,4.14,3.73-1.95-.53-3.14-2-4.39-3.46Z"/><path class="cls-66" d="M430.53,42.62A5.35,5.35,0,0,1,434,46.7c-1.22-1.27-2.45-2.54-3.67-3.82Z"/><path class="cls-55" d="M422.87,29.28c-1.7-.47-2.67-1.81-4.18-3.59A8.25,8.25,0,0,1,423,29.08Z"/><path class="cls-35" d="M410.62,25.83l.81,0,3.24,2.78C412.63,28.56,411.72,27.06,410.62,25.83Z"/><path class="cls-66" d="M402.7,25.65c1.82.59,2.87,2.1,4.09,3.41a3.33,3.33,0,0,0-.25.28,10,10,0,0,1-4.05-3.45Z"/><path class="cls-66" d="M394.33,25.82l.79,0a12.79,12.79,0,0,1,3.49,3.31l-.19.22C396.61,28.68,395.47,27.25,394.33,25.82Z"/><path class="cls-78" d="M346.15,26.61c-1.67-.52-2.58-1.85-3.46-3.23a8.51,8.51,0,0,1,3.7,2.95Z"/><path class="cls-35" d="M395.7,12.93l.8,0,3.25,2.78C397.68,15.69,396.81,14.14,395.7,12.93Z"/><path class="cls-55" d="M426.24,39.4l.77,0a12.3,12.3,0,0,1,3.52,3.26,2.85,2.85,0,0,1-.23.26A9.85,9.85,0,0,1,426.24,39.4Z"/><path class="cls-52" d="M424.85,52.31l.8-.05a12.31,12.31,0,0,1,3.51,3.34C426.85,55,426,53.54,424.85,52.31Z"/><path class="cls-66" d="M355.35,48.49c-1.54-.41-2.5-1.44-3.7-2.94C353.79,45.92,354.45,47.4,355.35,48.49Z"/><path class="cls-35" d="M414.68,65.21l-3.09-2.91C413.4,62.38,414.27,63.58,414.68,65.21Z"/><path class="cls-79" d="M373.74,43.05c-1.68-.2-2.45-1.54-3.38-2.7C372,40.51,372.72,42,373.74,43.05Z"/><path class="cls-52" d="M348.48,35.22l-.8.05-3.3-2.78C346.44,32.48,347.34,34,348.48,35.22Z"/><path class="cls-66" d="M340.05,35.42c-1.73-.44-2.53-2-3.65-3.17,1.86.21,2.74,1.74,3.88,2.92Z"/><path class="cls-55" d="M343.22,45.23c1.73.11,2.39,1.54,3.37,2.61C344.9,47.74,344.28,46.2,343.22,45.23Z"/><path class="cls-66" d="M402.83,47.22a5.29,5.29,0,0,1-3.15-2.8A5,5,0,0,1,402.83,47.22Z"/><path class="cls-66" d="M401.66,53.21c1.55.46,2.51,1.52,3.94,3.33A7.13,7.13,0,0,1,401.66,53.21Z"/><path class="cls-71" d="M391.87,30.39c1.65.54,2.62,1.87,4.14,3.6-2.37-.64-3.24-2.17-4.39-3.33Z"/><path class="cls-66" d="M419.16,32.86c-1.61-.27-2.51-1.44-4-3.1C417.5,30.29,418.14,31.83,419.16,32.86Z"/><path class="cls-66" d="M356.35,35.42c-1.68-.51-2.64-1.87-4.17-3.61,2.37.67,3.28,2.16,4.39,3.37Z"/><path class="cls-55" d="M436.81,5.78c-1.66-.32-2.41-1.58-3.25-2.77C435.15,3.35,436,4.58,436.81,5.78Z"/><path class="cls-80" d="M378.46,75.62a10.62,10.62,0,0,1-4.63-3.85C376.1,72.57,377,73.72,378.46,75.62Z"/><path class="cls-81" d="M365,49.92c1.6.28,2.46,1.47,3.92,3.09C366.66,52.49,366,51,365,49.92Z"/><path class="cls-55" d="M409.18,66.78a5.32,5.32,0,0,1,3.13,2.79A4.89,4.89,0,0,1,409.18,66.78Z"/><path class="cls-82" d="M373.44,97.05c7.35,2.14,15.05,2,22.51,3.36,2.94.55,6,.63,8.7,2.07-3.19,3.75-6.36,7.51-9.59,11.23-.66.76-1.25,1.91-2.68.66-6.22-5.46-12.53-10.82-18.8-16.23C373.25,97.85,372.89,97.49,373.44,97.05Z"/><path class="cls-83" d="M390.22,71.38l-2.54-.16c.21-2.76-1.1-5.11-2.07-7.55,0-.2,0-.4.05-.6,1.89-.21,3.81-.26,5.48-1.34a1.33,1.33,0,0,1,.55.12Z"/><path class="cls-84" d="M350.17,3.5c-1.84-.23-2.41-1.3-3.55-3.09C348.49,1.37,349.58,1.86,350.17,3.5Z"/><path class="cls-85" d="M339.24,8.72a9.44,9.44,0,0,1,3.83,2.94C341,11.42,341,11.42,339.24,8.72Z"/></g></g></g></g></svg>