<svg xmlns="http://www.w3.org/2000/svg" viewBox="0 0 440.35 678.9"><defs><style>.cls-1{fill:#e8e9eb;}.cls-2{fill:#fefefe;}.cls-3{fill:#fcfcfc;}.cls-4{fill:#313638;}.cls-5{fill:#56797c;}.cls-6{fill:#e0dfd5;}.cls-7{fill:#cbcbcb;}.cls-8{fill:#006856;}.cls-9{fill:#00bfa5;}.cls-10{fill:#cec6be;}.cls-11{fill:#68645d;}.cls-12{fill:#bfc0bf;}.cls-13{fill:#bebebe;}.cls-14{fill:#fcbc94;}.cls-15{fill:#f7f7f7;}.cls-16{fill:#cccbcb;}.cls-17{fill:#eaa27d;}.cls-18{fill:#ccccce;}.cls-19{fill:#cccbca;}.cls-20{fill:#c8cdd1;}.cls-21{fill:#25485a;}.cls-22{fill:#434a4c;}.cls-23{fill:#c7c9cc;}.cls-24{fill:#635f58;}.cls-25{fill:#cac6c5;}.cls-26{fill:#625c56;}.cls-27{fill:#e4b363;}.cls-28{fill:#504c47;}.cls-29{fill:#c1c1c1;}.cls-30{fill:#7c756d;}.cls-31{fill:silver;}.cls-32{fill:#7a7367;}.cls-33{fill:#f2ecd7;}.cls-34{fill:#f1ebd6;}.cls-35{fill:#c2c3c2;}.cls-36{fill:#c0c1c2;}.cls-37{fill:#bfbfbf;}.cls-38{fill:#453628;}.cls-39{fill:#c2c2c2;}.cls-40{fill:#bdbdbd;}.cls-41{fill:#bfc0c0;}.cls-42{fill:#bfbebd;}.cls-43{fill:#7f7770;}.cls-44{fill:#c0c0c1;}.cls-45{fill:#bebdbd;}.cls-46{fill:#c1bebf;}.cls-47{fill:#bfbfc0;}.cls-48{fill:#c4c4c4;}.cls-49{fill:#c1bfc0;}.cls-50{fill:#bfbeba;}.cls-51{fill:#bcbcbc;}.cls-52{fill:#c0beb8;}.cls-53{fill:#bebebd;}.cls-54{fill:#bdbbbb;}.cls-55{fill:#bcbcbb;}.cls-56{fill:#bbb;}.cls-57{fill:#bdbfbd;}.cls-58{fill:#bdbbbe;}.cls-59{fill:#bcbdbc;}.cls-60{fill:#bfbebf;}.cls-61{fill:#bebdbe;}.cls-62{fill:#bcbfba;}.cls-63{fill:#bcbbbe;}.cls-64{fill:#bebdbb;}.cls-65{fill:#bdbebd;}.cls-66{fill:#bdbdbc;}.cls-67{fill:#bbbdbe;}.cls-68{fill:#dda552;}.cls-69{fill:#cbc8bf;}.cls-70{fill:#334d5a;}.cls-71{fill:#efcda9;}.cls-72{fill:#fddcb7;}.cls-73{fill:#dfe1e1;}.cls-74{fill:#f6f9f9;}.cls-75{fill:#979999;}.cls-76{fill:#b8c6d1;}.cls-77{fill:#708697;}.cls-78{fill:#7e98aa;}.cls-79{fill:#4f5759;}.cls-80{fill:#c7c7c0;}</style></defs><g id="Layer_2" data-name="Layer 2"><g id="Website"><g id="cv_copy" data-name="cv copy"><rect class="cls-1" x="1.27" width="438.37" height="676.54"/><path class="cls-2" d="M.64,341c8.54-17.21,14.05-29.1,22.77-46.22,1.3-2.55,2.3-5.31,4.79-7.06,2.47-1.45,5.2-1.25,7.88-1.26,8.62,0,17.23-.1,25.85,0,3.85.05,7-1.05,9.56-4,.47-.54-.12.13.38-.38C87,266.64,84.2,273.22,84.4,252.43c.16-17.05,0-34.1.07-51.16,0-3.59-.68-6.38-4.53-7.45-2.06-1.72-2.21-4.2-2.6-6.58a10.5,10.5,0,0,1,1.36-5.14c8.77-17.52,17.43-35.08,26.17-52.61,3.78-7.57,4.64-7.67,12-4,33.22,16.72,66.65,33,100,49.43C267,199.56,317,224.48,367.14,249.15c36.91,18.17,36.42,17.37,73.12,36v24.49c-.6,1.1-.06,86.8-.63,87.92-21.39,43.19-1,5.6-22.44,48.78-25.49,51.4-50.63,103-76.27,154.29-12.22,24.45-23.9,49.17-36.29,73.53-.81,1.6-1.37,3.34-2.73,4.61-130.64,0-170.62,0-301.26.15"/><path class="cls-2" d="M48.7,514.3c3.69-1.14,6.83-2.22,5.33-7.32-.94-3.16,1.78-4.37,4.19-5.31,5.52-2.16,11.43-3.11,16.94-5.42,2.74-1.15,4-2.16,3.19-5.5-1.12-4.48.24-5.67,4.77-4.52,7,1.77,13.92,3.38,21.23,3.35,13.41,0,25.59-3.31,36.06-12a16.89,16.89,0,0,1,4.1-2.58,14.16,14.16,0,0,1,7.85-.1,9.91,9.91,0,0,1,3.1,2.07c7.11,5.94,9.91,6.24,17.8,1.66,3.9-2.27,7.55-2.84,11.45.14,7.94,6.07,11.44,5.93,19.47-.35a13.24,13.24,0,0,1,3.66-2.21,5.23,5.23,0,0,1,3.25,0c1.69.71,2.81,2.15,4.17,3.29,6.48,5.42,14,4.32,18.86-2.68,1.57-2.26,2.13-5.45,5.41-6.26,1.93-.32,3.92.18,4.81,1.72,2.77,4.82,7.37,5.67,12.19,6.46a10.78,10.78,0,0,1,6.85,3.9,3.8,3.8,0,0,0,3,1.94c4.46.22,8.67,1.7,13.3,2.58-3.63-5.62-2.84-13.75-10.84-16.74-2.67-1-3.31-4.55-5.08-6.8-2.49-3.17.57-5.3,1.69-7.71a11.73,11.73,0,0,0,0-10.35c-2.81-6.25-6.91-11.73-10.33-17.61-8.65-14.87-17.48-29.64-26.31-44.42-4.76-8-12.55-11.44-20.74-14.41-10-4.45-20.11-8.53-30-13.1-9.74-4.48-20-7.85-29.4-12.94-3.33-1.8-6.95-1.49-10.39-2.33-11.92-7.25-23.51-15-35.3-22.48-2.79-1.76-5.4-4.37-9.24-3.39-4.22-.24-7-3.45-10.37-5.29-2.66-1.44-4.51-1.23-6.65.84-3,2.87-5.2,6.39-8.14,9.26-2.49,2.43-1.69,4.13.73,6.09,9.3,7.54,18,15.81,27.21,23.43a52.08,52.08,0,0,1,3.85,3.73,24.31,24.31,0,0,0,2.75,2.52c2.61,2.58,7,3.78,6.57,8.7-11,8.71-21.79,17.63-31.92,27.31-8.74,8.35-19.53,12.54-30.71,16.14-5.74,1.85-5.95,2.4-4.13,8.08,6.91,21.51,13.53,43.12,20.79,64.52.22,1,.6,2,.85,3.1,1.5,6.33,1.24,6.87-4.91,8.81-7,2.2-13.78,4.87-21,6-3.08-1.09-3.28-4.08-4.06-6.54q-12.6-39.48-25.2-79c-.27-.85-.49-1.72-.77-2.58-2.14-6.58-2.22-6.59-8.6-4.54"/><path class="cls-3" d="M439.63,91.69c-12.4,14,7.11,1-5.4,14.92-8.11,10.31-17.47,19.54-25.66,29.77A338.78,338.78,0,0,1,385,162.5a8,8,0,0,1-3.13,2.06c-7.94-.94-12.47-7.1-17.85-11.87-2.79-2.46-3.91-7.58-7.32-8.15-3.62-.61-5.52,4.42-8.64,6.44-5.18,3.34-10.51,6.14-16.78,6.65-6.47-.86-9.92-6.38-14.77-9.73-2.73-1.89-4.64-4.9-7.92-6.14a3.7,3.7,0,0,1-1.11-1c-4.77-5.36-10.4-9.77-15.69-14.56-8.85-8-18.1-15.58-27.23-23.23C251,91.57,238.31,79.13,224.35,68.14c-7.7-6.07-15-12.68-22.33-19.3-8.2-7.44-16.86-14.4-25.25-21.64-7.46-6.43-14.8-13-22.18-19.58-1.2-1.06-3.09-2.27-1.64-4.48h99.3c3,1.95,5,5,7.93,7.06.58.43.3-1,.11-.27,0,.16-.24.16-.48-.1-1.93-2.12-5.11-3.25-5.4-6.69h25.9c2.21,1.38,5.86-.47,7.08,3.15-1.24,4.84-2.89,9.3-9,9.64a5.38,5.38,0,0,1-3.08-2.5c-.94-1.69-2.22-2.71-4.26-1.95a2.45,2.45,0,0,0-1.82,2.82c.47,2.76,3.08,2.4,4.89,3.22a2.59,2.59,0,0,1,1.38,1.85c-1,4.72-3,8.72-7.9,10.48-2.49-.26-3.32-2.48-4.72-4a3,3,0,0,0-3.82-1A2.37,2.37,0,0,0,257.65,27c-.07,1.49,1,2.21,2.14,2.76,4.63,2.14,8.61,5,10.91,9.75a2.83,2.83,0,0,0,3.47,1.79,2.56,2.56,0,0,0,1.9-1.72c.51-1.66-.46-2.71-1.73-3.53-1.5-1-3.1-1.83-3.57-3.77.13-5,3.67-7.53,7.09-10.2a3.24,3.24,0,0,1,2.82,1.22,7.93,7.93,0,0,1,1,1.85c.66,1.71,1.54,3.23,3.69,3.11A2.7,2.7,0,0,0,288,26c.54-2.42-1.05-3.46-2.94-4.27l-1-.44a4.26,4.26,0,0,1-2.37-3c1.05-4.5,4.24-7.14,8-9.27,1.86,0,2.83,1.23,3.76,2.57s2,3.12,4.14,2.73a2.32,2.32,0,0,0,2-2.17C299.84,9.62,297.76,9,296.1,8c-1.9-1.13-4.41-1.83-3.91-4.89H317c3.74,3.94,3.49,9.28,4.7,14,3.28,13,7.52,25.7,9.35,39-.65,2.45-1.89,2.6-3.67,1s-3.51-3.84-5.74-5.24c-4.06-3.1-7.5-7-11.82-9.75,4.1,2.85,7.6,6.42,11.49,9.54,3.76,2.71,6.5,6.69,10.82,8.72,3.23,6.45,4,13.64,5.6,20.51,1.86,8,4.57,15.67,6.18,23.66,1.28,5.07,5.64,8.1,8.15,12.35a32,32,0,0,0,4.73,5.33c.45.3,1.06.91,1.38.74,5.29-2.68,8,1.22,11.14,4.21s7.27,5.29,9,7.84a173.34,173.34,0,0,0-14.75-12.7,5.85,5.85,0,0,1-2.46-5.11c.06-1.93-.48-4.27,1.62-5.34s3,1.3,4.36,2.32c.86.66,1.81,1.16,2.72,1.74a41.36,41.36,0,0,0,3.79,3.45,28.43,28.43,0,0,1-3.28-3.12c-4.92-2.93-8.84-6.48-8.82-12.88,0-3.65,1.26-4.17,4.06-2.11,2.8,1.77,4.61,4.69,7.44,6.43a29.28,29.28,0,0,1,4.94,4.36,25.29,25.29,0,0,0-4.58-4.13c-2.77-1.63-4.55-4.37-7.1-6.24a20.55,20.55,0,0,0-3.82-2.49c-3.59-2.36-3.94-6.22-4.26-9.89-.31-3.43,1.36-4.18,4.14-2.07q7.51,6.36,14.93,12.86a28.49,28.49,0,0,1,4.86,4.25,24.34,24.34,0,0,0-4.65-4.12c-4.86-4.31-9.88-8.45-14.72-12.78-3.22-2.21-6.64-4.16-7.64-8.48-.7-3,0-6.43-.68-9-.71-2.73-2.94-5.57-3.55-8.66-.44-2.17-1.44-5.89,3.37-3.62A20.46,20.46,0,0,1,359,62.05a17.38,17.38,0,0,0-4.71-4.23c-4.79-2.32-6.88-6.37-7.06-11.46-.08-2.37.51-4.49,3.68-2.67,3.52,2.08,5.71,5.7,9.11,7.91a13,13,0,0,1,2.63,2.09,8.36,8.36,0,0,0-2.42-2c-3.37-2.14-5.49-5.72-8.94-7.76-6.1-3.64-9.18-8.61-7-15.9.38-1.3-1-1.71-1.43-2.57-1.47-2.66-3-5.35-3.09-8.45-.07-2.67.88-4.32,3.84-2.36,3.46,2.1,5.61,5.71,9,7.85C360.88,29.59,369,36.81,377.21,44c2.56,1.45,4.16,4.07,6.7,5.55,3.54,2.51,6.07,6.15,9.66,8.6a19.67,19.67,0,0,1,3.59,3,15.25,15.25,0,0,0-3.36-2.9c-3.66-2.41-6.12-6.18-9.76-8.61-2.48-1.55-4.13-4.1-6.67-5.57-8.16-7.19-16.31-14.4-24.59-21.44-3.46-2.14-5.6-5.81-9.12-7.88-4.21-2.74-8.06-5.67-6.14-11.64h5.39c4.71,3.85,9.3,7.84,13.91,11.8,3.53,2.58,6.32,6,10,8.4.74.93,1.71,1.63,2.62,2.65-.67-.88-1.4-1.43-2-2.12-3.77-2.68-6.92-6.07-10.57-8.89-3.36-2.5-6.09-5.74-9.57-8.13-1.13-.77-2.84-1.68-2.26-3.71h95.19"/><path class="cls-4" d="M.64,518.75C0,508.08.92,418,.64,405.71c3.35-1.12,7-3.47,8.22.32,9,29,18.32,57.81,27.58,86.69.53,1.66.58,3.55,2,4.87,4.84,6.58,4.18,9.22-3.36,11.69"/><path class="cls-5" d="M439.63,428.32C432,443.68,432,443.41,424.42,458.8c-7.25,14.72-14.13,29.6-21.33,44.34-7.06,14.42-14.31,28.76-21.48,43.13Q370.33,568.89,359,591.52q-11.93,24-23.75,48-8.24,16.82-16.19,33.75c-.91,1.94-3.22,3-3.17,5.48h-14c-.68-2.21.89-3.75,1.73-5.45,32.8-66.49,103.18-209.28,136-275.76"/><path class="cls-5" d="M440.26,146.33c-1.88,2.51,6.09-7.44-13.24,14.89-13.6,15.71-27.51,31.14-41.1,46.86-2.12,2.45-3.28,2.38-5.54.4q-32.75-28.59-65.62-57c-17.26-15-34.4-30.18-51.72-45.14C240.69,87,218.17,67.88,195.82,48.57c-14.91-12.87-29.66-25.92-44.42-39-2.39-2.11-5.6-3.36-7.08-6.47h4.31c9.17,6.32,16.87,14.38,25.42,21.43,12.83,10.56,25.12,21.73,37.77,32.5,9,7.64,18.05,15.21,26.8,23.13,10,9,20.16,17.75,30.34,26.51,12,10.35,24,20.8,36.11,31.07a19,19,0,0,1,3.17,3.66h0c5.84,3,10.15,7.91,15,12,15.49,13.1,30.71,26.53,46,39.86,1.09.95,2.21,1.86,3.26,2.83,2.9,2.64,5,2.17,7.61-.81C403,168.79,401,173.48,423.93,147c5.65-6.91-1.3,1.53,16.33-18.84"/><path class="cls-6" d="M440.26,128.12c-38,43.83-22.25,25.32-60.15,69.27-2.75,3.19-4.35,3.36-7.56.54-20.77-18.27-41.75-36.31-62.65-54.44a15,15,0,0,1-1.65-2c1.79-1.39,2.85-.06,4.08,1,4.53,3.91,9.17,7.69,13.64,11.66,1.53,1.35,3,2.54,5.11,2.38a7.84,7.84,0,0,1,.82,1.16c8.8,8.07,17.72,16,27,23.48,4.39,3.53,4.71,3.44,8.38-1.06,3.94-4.84,8.16-9.43,12.26-14.13.66-.71,1.51-1.2,2.19-1.89,5.35-6.12,10.84-12.26,16.44-18,8.57-8.8,15.08-19.31,24.34-27.49,4.15-3.67,13.55-16.09,17.72-20"/><path class="cls-7" d="M.64,518.75c15.84-5,15-4.59,30.78-9.69,8.7-2.81,8.67-2.88,7-11.47,6.91-2.27,13.73-4.86,20.75-6.68,4.38-1.12,6-2.82,4.1-7.14a22.14,22.14,0,0,1-.94-3.58c5.27-2.3,10.13.67,15,1.59,8.09,1.52,15.93,2.13,23.81-.58,7.42-2.56,15.27-4.14,21.47-9.53,1.89-1.65,4-3,5.29-5.28s3.47-2.91,6-2.17c3.53,3.85,7.21,7.57,10.45,11.69-17.37,16.36-37.81,17.77-59.7,12.34-1.8-.45-3.89-2.51-5.41-.76-1,1.2.36,3.38,1.13,4.94,1.23,2.47,1,3.5-2.09,4.32-6.73,1.78-13.26,4.34-19.94,6.38-3,.93-4.24,2.32-2.6,5.34,2.09,3.86.09,5.14-3.43,6.24-24.63,7.73-27.1,8.78-51.69,16.6"/><path class="cls-8" d="M325.65,3.14h8.63c2,1,2.63,2.84,3.08,4.81,4.14,18,9,35.74,13.38,53.66,2.84,11.65,6,23.23,8.76,34.91.41,1.77,1,3.45.27,5.26-2.62,2.76-5.8,3.14-9.3,2.17-3-3.28-2.86-7.67-3.89-11.58-7.21-27.43-14-55-20.79-82.5C325.25,7.68,324.07,5.41,325.65,3.14Z"/><path class="cls-9" d="M325.65,3.14q12.42,50.16,24.86,100.31a1.2,1.2,0,0,1-.16,1.6c-2.37,1.55-4.79,2.51-7.47.69q-5.37-20.94-10.71-41.88c-.31-1.23-.39-2.5-1.39-3.43a11.84,11.84,0,0,1-.6-3.18q-4.8-19.51-9.59-39c-1.23-5-2.39-10-3.58-15.08Z"/><path class="cls-6" d="M308.24,141.44c-10.63-7.63-20-16.79-29.85-25.31Q215.24,61.68,152.29,7a51.61,51.61,0,0,1-3.66-3.87H153c0,1.47,1.06,2.25,2,3,14.38,11.89,27.72,25,42.51,36.43,6.15,4.77,11.4,10.73,17.5,15.71,9.87,8,19.4,16.51,29,24.9,8.06,7,16,14.29,24,21.3,5.72,5,11.9,9.36,17.38,14.65,5.16,5,11.1,9.17,16.2,14.2C304,135.76,309.24,136.16,308.24,141.44Z"/><path class="cls-10" d="M359.23,101.33q-8.46-33.84-17-67.66c-2.57-10.2-5.33-20.36-8-30.53h3.24c.2,5,3.3,8.39,6.65,11.61l-.41.45c-1.38-.26-3.34-1.68-3,1.49a8.09,8.09,0,0,0,.35,2.09c2,5.26,5.54,9.81,4.32,16.28-.72,3.82,4.11,5.85,6.3,8.79l-.45.49c-2-.81-3.3-1-3,2,.49,4.94,3.3,8.39,6.69,11.58l-.43.45c-1.37-.26-3.63-1.68-2.83,1.53,1,4,1.8,8.11,5.42,10.79-3.59,3.16-.91,6.46-.14,9.66.84,3.45,4.69,4.27,6.45,7a1.93,1.93,0,0,1-1.07,1c-.91-.44-2-1.45-2.68-1.21-1.17.43-.52,1.78-.31,2.73.73,3.4,1.36,6.85,4.28,9.24-1,.89-2.51,1-3.19,2.32A1,1,0,0,1,359.23,101.33Z"/><path class="cls-11" d="M286.72,6.5c-1.31-2.69-4.7-1.43-6.41-3.36h11.88c1.61,1.94,3.32,3.7,5.94,4.33s3.37,2.55,3.18,4.87A3.83,3.83,0,0,1,298,16.05a4.25,4.25,0,0,1-5.15-2.81c-.56-1.49-.83-3.15-2.62-3.77A4.61,4.61,0,0,1,286.72,6.5Z"/><path class="cls-12" d="M356.81,15.19a55.07,55.07,0,0,1-13.9-12h2.16c3.33,4.61,8.84,7,12.05,11.71Z"/><path class="cls-13" d="M409.83,3.14l9.52,8.8-.92,1C415,9.5,410.56,7.26,407.67,3.14Z"/><path class="cls-13" d="M254.41,3.14c2,3.94,6.49,5.55,8.74,9.28a27,27,0,0,1-10.9-9.28Z"/><path class="cls-14" d="M134.51,465c-3.85-1-4.63,2.26-6.67,4.25-4.68,4.59-10,8.59-16.46,10.45-8.41,2.43-16.58,5.82-25.78,4.87-6.35-.66-12.42-2.28-18.55-3.72a19,19,0,0,0-4.72-.69c-3.72-11.45-7.64-22.83-11.12-34.37-2-6.56-3.61-13.31-6.53-19.66-2.12-4.61-2.9-9.82-4.4-14.73-1.09-3.6,1.84-3.85,3.84-4.49,5.7-1.83,11.22-4.22,16.87-6.05,7.2-2.33,12-7.59,17.43-12.05,8.84-7.25,17.28-15,26-22.34,1.56-1.31,3.18-3,5.57-3,3.06-.46,5.54,2.47,8.7,1.46,9.17,6.53,17.36,14.19,25.47,21.94a2.56,2.56,0,0,1,.58,2.5c-5.1,6.18-11.65,11-16.07,17.88-2.35,3.64-3.7,7.31-3.3,11.6.55,5.88,4.65,10.16,10.52,10,12.32-.25,24.66-.73,37-1.7,5.38-.43,10.73-.25,16.09-.33a104.51,104.51,0,0,0,21.31-1.23c-1.74-2.23-4.32-4-6.11-6.54-3.62-8.07-9.2-15-13.25-22.82-2.2-4.24-6.18-6.17-10.5-7.88-7-2.77-13.6-6.47-20.91-8.44a9.27,9.27,0,0,1-4.6-2.68c-8-7.46-16.63-14.28-24.69-21.69a5.26,5.26,0,0,1-1.78-2.64c0-4.59,4.07-6.35,6.51-9.24,1.47-.94,1.57-2.93,2.95-3.94,5.85-.91,10.47,2.27,15.63,4.2,14,5.22,27.13,12.27,41.06,17.54,4.94,1.87,9.65,4.3,14.47,6.48,11.46,16,20.49,33.57,31.11,50.13,2.71,4.22,4.75,9,7.84,12.81,4.91,6.15,3.46,12.87,3.08,19.57-.12,2.06-1.75,3.48-3.65,4.37-4.86.58-6.61-3.89-9.81-6-1.56-2-3.88-3.16-5.66-4.93-1.25-1.25-2.69-2.3-4.64-3.95.84,5.59.1,10.41-3.28,14.51a20.34,20.34,0,0,1-1.64,1.84,23.87,23.87,0,0,1-3.29,3,15.52,15.52,0,0,1-8.56,2.85c-8.08-.11-16,1.11-24.1,1.35-16.08.47-32.17.68-48.22,1.87A11,11,0,0,1,134.51,465Z"/><path class="cls-15" d="M12.51,281.67c-2.8,0-2.35-2.09-2.35-3.83,0-28.52.07-57-.08-85.54,0-4,1.56-4.68,5.12-4.65,19,.13,38,0,57,0,2.13,0,4.32.28,6.21-1.12.42,2.19,1.5,4.26,1.14,6.59,1.85,2.07,1.69,4.64,1.69,7.13,0,19,.08,37.95,0,56.93,0,7.7-1.17,8.68-8.75,8.41A5.91,5.91,0,0,1,70,264.52c-2-1.53-3-4-5.2-5.33-3.56-2.17-4.78-1.64-5.56,2.49-.81,4.31-1,4.38-3.9,1.94,1-5.08-.56-9.31-4.15-12.91-.07-.25-.13-.51-.19-.76a3.52,3.52,0,0,1,.36-1.5c3.77-6.62,9.15-12.24,12-19.49,1.12-2.89,2.15-5.64,1.81-8.76C64.08,212,61,204.94,53.78,200.4,43.61,194,29.21,199.94,25,212.09c-.59,1.69-1,3.45-1.62,5.13-1.29,4.37-.45,8,2.09,12.06,3.31,5.26,6.87,10.43,9.63,16,1,4.62,1.33,9-4.27,11.05C23.69,257.66,19.88,262.11,18,269c-1.17,4.22-2,8.68-4.78,12.34Z"/><path class="cls-5" d="M118.35,365.74c-3.46,1.77-5.76-.75-8.35-2.23l-7.67-7.38c5.07-5.86,9.5-12.35,16-16.88,3.66.43,5.37,4.52,10.1,5.38-4.86-5.06-10.64-6.9-15-10.76,1,.75,2.13,1.27,2,2.82-5.48,5.48-10,11.87-15.58,17.23C89,344.52,78.19,335,67.23,325.76c-2.52-2.13-2.8-3.58-.47-6C70.87,315.49,74,309,78.87,307.11c5.1-2,9.41,5.24,14.73,7.13,7.31,2.22,13,7.2,19.4,11.07q9.81,6,19.4,12.29c2.25,1.48,5.38,2.82,3.36,6.6-2,3-5.89,4.69-6.71,8.67C126.4,357.92,121.5,361.1,118.35,365.74Z"/><path class="cls-16" d="M246.47,454.51c4.32-4.27,5-15.5,1.77-20.51-5.61-8.68-10.42-17.9-16-26.53-5.07-7.8-9.78-15.84-14.52-23.8-3-5.07-7.29-9.62-8.64-15.65,7.88,3.09,15.79,6.2,20.48,13.93,4.54,7.5,8.93,15.08,13.4,22.61,7.22,12.16,14.31,24.39,21.72,36.43,3.95,6.41,5.25,12.49,0,18.74-.57.69-1.54,1.64-.73,2.27,3.41,2.67,3.52,8.58,9.08,9.13a3.15,3.15,0,0,1,3.15,3,30.84,30.84,0,0,0,5.05,11.78c.72,1.11,1.51,2.1.18,3.26a2.37,2.37,0,0,1-3,.19,22.19,22.19,0,0,0-13.77-3.11c-1.94.18-1.48-1.58-1.66-2.72a5.21,5.21,0,0,0-.47-5.53,13,13,0,0,1-2.45-4.7c-.93-4.46-2.09-8.52-7.51-9.63-1.73-.35-2.35-2.53-3.22-4.07C248.45,457.85,246.5,456.73,246.47,454.51Z"/><path class="cls-17" d="M134.51,465a15,15,0,0,1,8.68-2c14.18.41,28.27-1.39,42.42-1.21,8.43.11,16.74-1.6,25.19-1.21,3.24.15,6.17-1.66,9-3.12,4.15,4.61,1.87,9.33-.08,13.81-1.54,3.51-4,6.32-8.57,5.63l-3.13.07c-4.67,1.51-8.87.65-12.26-2.9-2.45-2.57-4.09-3.05-6.79.07-4.06,4.71-15.87,5-20.68,1a29,29,0,0,1-5.54-6.12c-3.14,2.72-5.16,6.82-9.86,6.83h-8.57C139.77,473.47,136.19,470.1,134.51,465Z"/><path class="cls-18" d="M71.08,264.3a27.75,27.75,0,0,1,3.76,0c3.89.51,4.81-1.28,4.79-4.93-.13-22.08-.06-44.17,0-66.25,5.24-.94,6.59,1.3,6.52,6.45-.29,21.94-.21,43.88,0,65.82,0,3.56-1.48,5.82-3.51,8.52-8.6,11.42-19.35,16.3-33.86,14.33-6.74-.92-14-1.47-20.81.8-.1-.35-.19-.7-.28-1.05.18-3.66,2.24-6,5.42-7.46,3.65-.88,7.37-.31,11.05-.47,5.75-.19,11.51,0,17.25-.13,6.8-1.65,9.2-8.35,14.21-11.6C74.73,265.52,70.66,267.74,71.08,264.3Z"/><path class="cls-7" d="M211.2,477c7.16-2.69,10.84-8.82,8.65-19.44l2.05-2.12c2.8.49,4,3.26,6.34,4.43,3.66,3.53,8.29,6,11.33,10.21a1.72,1.72,0,0,1-.1,1.42,3.74,3.74,0,0,0-2.34,2.68C232.74,485.75,218.63,488.56,211.2,477Z"/><path class="cls-19" d="M152.94,475.92c3.85-2.77,8.14-5.1,9.66-11.66,2,6.35,5.2,9.8,9.52,11.84,3.62,1.72,7.64,1.09,11.53.13,2.44-.6,4.54-1.85,5.43-4,1.64-3.93,3.65-3.54,5.77-.81,3.41,4.41,8.2,5.2,13.22,5.61-3.08,1.78-4.85,5.21-8.36,6.5-5.77,2.12-11.07,1.23-15.29-3.06-3.53-3.59-6.65-3.07-10.36-.65C165.45,485.47,159.72,484.36,152.94,475.92Z"/><path class="cls-5" d="M239.47,471.46v-.85c3.27-4.35,6.28-8.93,11-11.95.92,1.88,1.44,4.54,3.88,4.6,5.45.14,5.78,4.06,6.41,7.85.51,3.13,2.4,5.56,4.12,8,1.89,2.71.85,3.83-1.88,4.38a12.71,12.71,0,0,0-5.61-3.1c-5.28-1.47-11.89-.28-14-7.68C242.9,471.23,240.86,471.63,239.47,471.46Z"/><path class="cls-5" d="M301.94,284.59l-7.77,10.26c-.9,1.18-1.8,2.33-3.55,1.5-2-.92-1.63-2.4-1.15-4.09a82.21,82.21,0,0,0,2.8-13.18c-1.92,3.84-3.82,7.7-5.78,11.52-.69,1.33-1,3.3-3.4,2.16-2.08-1-1.84-2.29-1-3.94Q288,277,293.81,265.19c.87-1.78,2-2.46,3.82-1.53s3.4,1.61,2.52,4.4a102.82,102.82,0,0,0-3.85,17.39c3.31-4.37,6.66-8.72,9.91-13.14,1.57-2.15,3.14-3.14,5.81-1.56,3.07,1.82,1.1,3.69.26,5.43-3.51,7.26-7.12,14.49-10.77,21.68-.63,1.24-.66,3.5-3.22,2.42s-1.81-2.61-.93-4.36c1.84-3.64,3.6-7.32,5.39-11Z"/><path class="cls-5" d="M201.66,220.19c-.34,1-.43,2.92-1.42,4-5,5.39-5.7,12.78-9.14,18.86-.83,1.45-1.18,3.58-3.84,2.42-2.87-1.26-1.73-3-.86-4.81,1.18-2.43,2.38-4.84,3.54-7.27.65-1.37,1.08-2.79-.74-3.65s-2,.94-2.54,1.88c-1.46,2.68-2.85,5.4-4.13,8.17-.87,1.85-2,2.24-3.85,1.39-2.23-1-1.62-2.32-.84-3.89,3.87-7.7,7.78-15.38,11.49-23.15,1.27-2.66,2.78-2.94,5-1.48C197.24,214.5,201.51,214.88,201.66,220.19Z"/><path class="cls-5" d="M218.08,228.58c-.31,1-.39,2.86-1.34,4-4.74,5.58-5.71,12.91-9.21,19-.85,1.51-1.09,3.53-3.77,2.09-2.41-1.29-1.65-2.72-.84-4.42,1.24-2.59,2.47-5.18,3.61-7.81.62-1.43.76-3-1.06-3.59s-1.95,1.24-2.47,2.23c-1.39,2.72-2.6,5.52-3.93,8.27-.73,1.5-1.72,2.14-3.45,1.22s-2.08-1.87-1.3-3.48q5.91-12.11,11.81-24.2c.82-1.68,2.06-2.59,3.88-1.43C213.11,222.48,218,222.59,218.08,228.58Z"/><path class="cls-5" d="M169.76,236.25c-5.25,0-9.24-4.51-7.43-8.87,3.22-7.76,7.15-15.22,10.78-22.81.68-1.42,1.65-1.66,3-.94,1.85,1,2.08,2.26,1.22,4-2.39,4.82-4.75,9.65-7.13,14.47a38.25,38.25,0,0,0-1.89,3.86c-.57,1.53-2.59,3.52-.33,4.66,2.51,1.28,3.2-1.55,4-3.16,2.7-5.26,5.25-10.6,7.86-15.9.48-1,.91-2,1.46-2.87a2.13,2.13,0,0,1,3.17-.88c1.51.76,2.28,1.7,1.42,3.4-3.72,7.35-7.33,14.76-11.24,22C173.76,235,172,236.61,169.76,236.25Z"/><path class="cls-5" d="M244.38,273.16c-5.39,0-9.07-4.84-6.89-10,3-7.26,6.87-14.19,10.3-21.29.79-1.63,1.73-2,3.4-1.23,1.93.89,2.17,2,1.24,3.84q-4.74,9.35-9.33,18.79c-.71,1.47-2.52,3.43-.16,4.63s2.93-1.45,3.66-2.85c3.13-6.05,6.08-12.19,9.07-18.31.82-1.67,1.38-3.21,3.92-2s1.72,2.65.88,4.33c-3.28,6.57-6.54,13.16-9.87,19.71C249.33,271.34,247.54,273.26,244.38,273.16Z"/><path class="cls-5" d="M266.2,280a15.35,15.35,0,0,1,.94-3.26c3.19-6.63,6.51-13.2,9.74-19.82.8-1.62,1.57-2.74,3.68-1.7s1.77,2.3,1,3.93q-4.51,9.17-8.95,18.38c-.78,1.59-2.17,3.71-.19,4.76,2.17,1.16,2.91-1.39,3.67-2.91,2.93-5.76,5.74-11.59,8.68-17.35.82-1.61,1.18-4.06,4.15-2.7s1.55,3,.67,4.78c-3.21,6.42-6.27,12.93-9.69,19.24-1.56,2.87-3.87,5.49-7.79,4.24C268.87,286.56,266.09,284.92,266.2,280Z"/><path class="cls-5" d="M146.12,220.57c2.63-7.77,5.79-15.39,10.89-21.95,2-2.51,5.1-2.33,7.93-.94a5.68,5.68,0,0,1,3.27,6.22,7.29,7.29,0,0,1-.66,3.12c-1.2,1.75-.39,5.87-4.27,4.65-4.34-1.35-1-4-.44-6,.35-1.26,1-2.54-.4-3.37-1.54-.92-2.36.45-2.91,1.52-2.71,5.27-5.32,10.59-7.95,15.91-.49,1-.79,2.15.32,2.89,1.48,1,2.21-.25,3.06-1.2,1.67-1.86,1.69-7.49,5.86-3.95,2.73,2.33-.95,5.27-2.31,7.64-1.71,3-4.37,4-7.82,2.68S145.85,224.24,146.12,220.57Z"/><path class="cls-5" d="M220.79,258.12c2.87-8.07,5.9-16.1,11.52-22.76,1.8-2.15,4.55-1.79,7-.75s4.23,3,4.1,5.76a12.33,12.33,0,0,1-3.38,8.25c-.77.79-1.66.06-2.46-.29a1.87,1.87,0,0,1-1.29-2.53c.36-1,.89-2,1.29-3,.52-1.32,1.35-2.89-.57-3.64-1.51-.6-2.25.84-2.8,1.92-2.53,4.95-5,9.92-7.4,14.94-.58,1.22-1.31,2.92.52,3.7,1.46.62,2.2-.82,2.84-1.88s1.13-2.24,1.76-3.32a2.05,2.05,0,0,1,2.79-.83c1,.38,2.37.93,2,2.12-1.13,3.64-2.79,7.16-6.34,9-2.73,1.4-5.19,0-7.34-1.86A6.3,6.3,0,0,1,220.79,258.12Z"/><path class="cls-5" d="M356.45,326.44c.67-2.13.53-3.47-1.34-4.42-2.13-1.08-3,.36-3.83,1.69-1.16,1.83-2.49,1.69-4,.64-1.77-1.2-.85-2.45,0-3.65,5-7.37,10.14-14.71,15.14-22.12,1.35-2,2.73-1.64,4.56-.77,2.05,1,3,2,2.15,4.49-2.82,8.47-5.39,17-8.05,25.56-.47,1.52-1.22,2.7-3.07,2S355.48,327.85,356.45,326.44Z"/><path class="cls-5" d="M323.33,296.33c2.65-4,5.28-8,7.94-12,1.1-1.67,2.1-3.52,4.6-1.78,2.73,1.9.16,3.16-.61,4.32-4.67,7-9.56,13.85-14.27,20.82-1.22,1.82-2.17,3-4.65,1.69s-2.79-2.71-2-5.2c2.72-8.14,5.23-16.36,7.85-24.53.46-1.44.52-3.47,3.06-2.47,1.92.75,2.19,2,1.6,3.84-1.58,4.89-3.07,9.82-4.6,14.73Z"/><path class="cls-5" d="M383.89,311.37c-3.36-2.94-4.95-.91-6.39,2.49-1,2.28-1.63,4,1.32,5.09,1.44.54,1.74,1.56,1.07,3s-1.75,1.7-3,.89c-3.58-2.3-4.27.7-5.19,2.91-.85,2.05-3.42,4.44.6,6.1,1.5.62,2.47,1.58,1.55,3.31s-2.15,1.25-3.64.67c-7.19-2.79-7.53-3.3-4.32-10.19,3.11-6.66,6.48-13.2,9.74-19.79.72-1.47,1.42-3.21,3.54-1.86,2.44,1.56,6,1.62,7.18,4.78C386.68,309.67,385.81,311.23,383.89,311.37Z"/><path class="cls-5" d="M358.08,295.58c-.37.44-1.08,1.75-1.44,1.65-4.4-1.12-4.48,2.74-5.68,5-2.88,5.39-5.48,10.93-8.21,16.39-.81,1.61-1.42,3.31-3.95,1.91s-1.57-2.74-.72-4.42c2.58-5.13,5.25-10.23,7.64-15.46,1.2-2.63,4.34-5.24.7-8.49-.77-.69.19-2.59.91-2.78,3.28-.9,5.41,2,8.18,2.92C356.82,292.72,358.28,293.31,358.08,295.58Z"/><path class="cls-5" d="M260.29,281.49c-6-.28-8.64-4.85-6-10.28,3.19-6.45,6.34-12.91,9.6-19.32.87-1.7,1.17-4.5,4.46-2.71,3,1.62,1,3.33.29,4.91-2.64,5.51-5.4,11-8.14,16.42-1.28,2.56-3.33,5.17,1.18,6.77a1.76,1.76,0,0,1,1,2.63C262.26,280.94,261.63,281.77,260.29,281.49Z"/><path class="cls-5" d="M344.64,288.59c-.31.68-.66,1.51-1.06,2.31-3.67,7.36-7.34,14.74-11.05,22.08-.76,1.51-1.18,3.58-3.83,2.43-2.83-1.23-1.78-3-.87-4.78q5.78-11.52,11.53-23.05c.67-1.35,1.25-2.73,3.15-1.81C343.62,286.32,344.87,286.8,344.64,288.59Z"/><path class="cls-5" d="M213.86,258.5c-2-.95-4.27-1.32-2.82-4.22,4.09-8.16,8.1-16.34,12.13-24.52.6-1.21,1.28-2.3,2.84-1.5,1.25.64,3,1.36,2.12,3.14-4.18,8.7-8.49,17.34-12.81,26C215.06,257.9,214.3,258.18,213.86,258.5Z"/><path class="cls-20" d="M135.76,344.2c.61-3.87-2.77-4.69-5-6.12-11.2-7.19-22.53-14.19-33.8-21.29-1.19-.75-2.25-1.7-3.37-2.55,1.2-.76,2.41-1.86,3.92-.88C111,322.14,125.05,330,137.88,339.8,137.54,341.45,138.64,343.78,135.76,344.2Z"/><path class="cls-21" d="M118.29,339.91q-5.52,6.18-11,12.36c-1.41,1.57-2.51,3.56-4.92,3.86l-2.5-2.21A52.44,52.44,0,0,1,115,336.41C117.47,336.31,118.79,337.27,118.29,339.91Z"/><path class="cls-4" d="M.64,76.62c15.82-.38,24.71-5.68,37.72-14.49,16.69-11.29,35.2-18.28,54.81-22.65,3.48-.78,6.83-1.87,10.48-1.94,3.39-.07,5.51,1.07,6.39,4.35,1.94,2.24,2.54,4.72,1.19,7.46-3.84,7.8-2.44,15.27,1.34,22.62,2.2,4.29,4.73,8.46,5.36,13.39.7,5.49-.37,6.82-6.11,7.63a4.53,4.53,0,0,0-4.11,2.07c-7.08,9.56-17.15,14.38-28.23,17.5-2.41.67-4.65,1.94-7.22,2.06-4.28.37-8.4-.1-12.16-2.37-10.12-4.35-17.44-12-23.89-20.58-2.45-1.82-5-3.45-8.15-3.66-6.94-.48-11,3.3-11.8,10.82-.41,7.14.71,14.27-1.41,21.41C11.26,132.31,12.13,134,.64,138.17"/><path class="cls-22" d="M110.88,91.84c6.47-.41,7.94-3.8,4.67-10.74-3.58-7.58-8.76-14.6-8-23.68.24-2.8-.3-5.54,2.17-7.89,2.27-2.18.57-5.06.31-7.63,4.12.87,7.91,2.12,9.06,7,.43,1.79.94,3.78,0,5.26-5.89,9.64-2.29,18.34,2.3,27a67,67,0,0,1,4.06,8.73c1.9,5.37-.59,8.42-6.07,7.63-1.32-.19-2.12-.38-3.14.95-10.37,13.39-24,20.51-41.05,20-5.55-.15-11.13-1.65-15.14-6.24l12.86.92c12.84,1,23.86-3.22,33.23-11.91A14.44,14.44,0,0,0,110.88,91.84Z"/><path class="cls-22" d="M.64,143.82c5.08-3.23,13-12.63,14.92-18.2,2.46-7.15,2.47-14.49,1.9-21.87-.16-2.08-.33-4.38-2.53-5.65.6-6.59,2.91-9.41,8.66-11,5.33-1.45,9.78-.78,12.62,4.54C26.58,93.49,23.55,97.25,23.39,107c-.09,5.53.33,11-.85,16.6-2.8,13.29-9.43,20.7-21.9,24.64"/><path class="cls-18" d="M32.06,281.84,27.59,288c-6.51,1.44-11.51-.74-15.08-6.32l.3-.21C19.28,279.19,25.71,278.65,32.06,281.84Z"/><path class="cls-5" d="M440.26,109.28c-3.77-2.51-5-1.89-6.84-3.65,12.21-14-5.37,6.3,6.84-7.66"/><path class="cls-23" d="M381.76,164.05a2.15,2.15,0,0,1-1.05,2.08c-4.92.69-9.59-1-14.28-1.84-9.52-1.68-19.24-1.61-28.67-3.76-2.44-.56-5-.9-6.68-3a8.51,8.51,0,0,1,0-1,34,34,0,0,0,22.05-12c3-3.6,4.7-2.43,6.75.6C365.47,153.37,372.4,160.11,381.76,164.05Z"/><path class="cls-24" d="M271.56,32.51c.89,1.63,2.76,1.5,4.09,2.32a4.32,4.32,0,0,1,2.23,5,4,4,0,0,1-3.3,3.19c-2.11.36-4.16-.17-5-2.3-2-5.3-5.76-8.28-11.13-9.7a3.83,3.83,0,0,1-2.74-4.2,4.34,4.34,0,0,1,2.78-3.69,3.87,3.87,0,0,1,4.89,1c1.4,1.58,1.95,3.89,4.15,4.8C269.16,29.85,271.17,30.26,271.56,32.51Z"/><path class="cls-25" d="M360.09,101.51c-.45-3.21,1.67-2.63,3.55-2.41a3.66,3.66,0,0,1,3,2.27,1.64,1.64,0,0,1-1,1c-.91-.44-2.12-1.47-2.68-1.19-1.17.58.09,1.8,0,2.71-.57,6.32,4.4,9,8.06,12.58a.84.84,0,0,1-1.37.09l-1.95-.82c-1.74-.73-3.1-4.61-4.78-2.34a6.16,6.16,0,0,0,1.28,8.24c6.2,5.29,12.3,10.72,18.43,16.1l-.87,1.07L369.06,128c-1.78-1.5-3.53-3-5.38-4.44-.58-.45-1.78-1.7-2.12-.57-1.95,6.49-3.85.12-5.73.08a16.73,16.73,0,0,1,.62-7.1C357,111,357.47,106,360.09,101.51Z"/><path class="cls-26" d="M257.21,51.92c-2.66-3-4.91-6.53-9.52-6.93-2.37-.21-3.34-2-3.57-4.09a3.88,3.88,0,0,1,2.71-4.19c2-.72,4.12-.41,5.28,1.49,2.7,4.42,6.94,7.15,10.87,10.17,2.43,1.86,3.33,3.73,2,6.52C260.9,57.82,259.51,53.68,257.21,51.92Z"/><path class="cls-27" d="M342.88,105.74c2.68.51,4.95-1.34,7.54-1.33,4.19,2.85,4.6,7,4.1,11.56-.62,1.15-1.45,1.91-2.89,1.49C348.2,113.94,344.58,110.56,342.88,105.74Z"/><path class="cls-28" d="M282.38,18.4l2.23,2.14c2.47,1.43,2.65,3.42.63,5.09-2.42,2-3.72-.27-5-1.93l-2.05-1.16a5.41,5.41,0,0,1-3.34-3l-1-1.24c-1.84-.8-3.78-1.69-2.55-4.18,1-2.07,2.78-2.56,4.85-1.31L278.35,15C279.81,16,282,16.14,282.38,18.4Z"/><path class="cls-29" d="M414,42.19c-6.36-3.72-11.25-9.27-16.95-13.82a115.61,115.61,0,0,1-13.55-12.93c10.65,8.37,21.33,16.68,30.86,26.37Z"/><path class="cls-30" d="M280.23,23.7c1.55.3,2.42,3,4.47,1.41,1.89-1.47.84-3.06-.09-4.57,3.39.16,5.46,1.84,5.14,5.31a4.14,4.14,0,0,1-4.27,4C281.65,29.76,280.57,27,280.23,23.7Z"/><path class="cls-31" d="M377.28,44.31a228.16,228.16,0,0,1-24.87-21.49l.43-.48a189.91,189.91,0,0,1,24.78,21.6Z"/><path class="cls-29" d="M311.79,88.25a163.88,163.88,0,0,1,23.76,20.41l-.4.45A176.51,176.51,0,0,1,311.47,88.6Z"/><path class="cls-29" d="M298.79,88.27c8.68,5.94,16.36,13,23.81,20.41l-.4.45a176.89,176.89,0,0,1-23.69-20.55Z"/><path class="cls-29" d="M353.9,123.94l21.23,18.49-.89,1c-7.18-6.09-14.65-11.83-21.29-18.55Z"/><path class="cls-32" d="M276.13,12.77c-5.09.93-5.37,1.6-2.3,5.49-3.07.16-5.83-.4-6.4-4a4,4,0,0,1,3.25-4.76C273.33,8.93,275.66,9.43,276.13,12.77Z"/><path class="cls-33" d="M274.84,19.5l3.34,3C276,25.9,272,28,271.56,32.51l-4-3.54C271.53,27,273,23.07,274.84,19.5Z"/><path class="cls-1" d="M245.7,58.12c-1.13,5-5.68,7.53-8.89,11a1.36,1.36,0,0,1-1.32-.1,2.2,2.2,0,0,1,.27-2.91c2.89-3,5.85-6,8.78-8.93Z"/><path class="cls-34" d="M282.38,18.4l-4-3.45c5.51-.12,5.93-5.29,8.37-8.45l3.51,3A29.34,29.34,0,0,0,282.38,18.4Z"/><path class="cls-35" d="M364.31,44.21c-6-3.56-10.68-8.56-15.43-13.53,6.31,3.58,11.37,8.68,16.67,13.48A.79.79,0,0,1,364.31,44.21Z"/><path class="cls-31" d="M416,21.64a120.05,120.05,0,0,1-15.59-13.3l.87-1,16.15,14.17A1,1,0,0,1,416,21.64Z"/><path class="cls-31" d="M390.21,44.23c-5.85-3.74-10.75-8.57-15.44-13.64,6.44,3.46,11.27,8.9,16.72,13.56A.82.82,0,0,1,390.21,44.23Z"/><path class="cls-29" d="M412.84,86.33c-5.47-3.33-9.93-7.85-14.28-12.52,5.88,3.26,10.66,7.92,15.55,12.44A.84.84,0,0,1,412.84,86.33Z"/><path class="cls-29" d="M417.56,55.86c5.86,3.76,10.77,8.61,15.45,13.72-5.79-3.81-11.29-8-15.78-13.36Z"/><line class="cls-31" x1="426.94" y1="42.18" x2="427.26" y2="41.83"/><path class="cls-13" d="M301,45.05a90,90,0,0,1,16.17,14l-.32.36a87.89,87.89,0,0,1-16.2-14Z"/><path class="cls-31" d="M416,21.64l1.43-.15c4.79,4.18,10.13,7.77,14.19,12.77l-.33.35C425.48,31.08,420.64,26.45,416,21.64Z"/><path class="cls-29" d="M405.42,91.64c-4.67-3.92-9.66-7.47-12.92-13l13.88,12Z"/><path class="cls-31" d="M321.13,51.9a59.1,59.1,0,0,1-14.27-12.69,70.6,70.6,0,0,1,14.66,12.27Z"/><path class="cls-13" d="M280.28,73.32c-4.65-4-9.63-7.61-13-13.08l14,12.12Z"/><path class="cls-29" d="M430.21,56.37c-.53-.48-.49-.9.12-1.28"/><path class="cls-36" d="M362.36,88.34c.35-.35.71-.69,1.07-1,4.76,4.22,10.12,7.78,14.16,12.8l-.29.32C371.58,97.31,367.46,92.22,362.36,88.34Z"/><path class="cls-37" d="M377.08,66.12c4.6,3.31,9.28,6.46,12.71,11.07A40.91,40.91,0,0,1,377.08,66.12Z"/><path class="cls-38" d="M351.63,117.46l2.09-1c1.41-1,2.78-1.21,4,.26-.85,2.08-.37,4.55-1.93,6.41C354.75,121,351.4,120.56,351.63,117.46Z"/><path class="cls-37" d="M403.11,66.11c4.45,3.42,9.28,6.37,12.47,11.18C411.06,74,406.36,70.87,403.11,66.11Z"/><path class="cls-37" d="M309.27,30.32c-4.27-1.95-6.87-5.88-10.39-8.73,4.58,1.52,7.67,4.92,10.76,8.33Z"/><path class="cls-39" d="M357.12,14.85c4.13,2.22,7.39,5.5,10.64,8.79a.81.81,0,0,1-1.29.07,32.57,32.57,0,0,1-9.66-8.52Z"/><path class="cls-40" d="M415,65.81c-3.94-1.59-6.15-5.16-9.2-7.77.28-.37.57-.73.86-1.1l9.57,8.81A.78.78,0,0,1,415,65.81Z"/><path class="cls-41" d="M384,116.44l9.56,8.19A14.9,14.9,0,0,1,384,116.44Z"/><path class="cls-37" d="M379.26,124.4c3.16,2.08,6.52,3.88,9.34,7.93C384,130.39,381.47,127.51,379.26,124.4Z"/><path class="cls-42" d="M330.18,57.25a4.58,4.58,0,0,1,.6,3.18c-3.84-2.13-6.8-5.27-9.65-8.53a3.88,3.88,0,0,0,.39-.42C325.09,52.37,326.22,56.93,330.18,57.25Z"/><path class="cls-13" d="M384.11,49.36c4,2,6.76,5.42,9.7,8.62l-.33.37c-4-2-6.79-5.38-9.76-8.55Z"/><path class="cls-43" d="M257.21,51.92c2.71.67,4.39,4.06,7.77,3C261,58.24,259.16,57.53,257.21,51.92Z"/><path class="cls-37" d="M380.51,58.39c-4-2-6.76-5.42-9.71-8.62l.3-.35c4.12,1.87,6.76,5.43,9.8,8.54Z"/><path class="cls-29" d="M291.37,59.15c3.65,1.59,6,4.65,8.5,7.51l-.26.29c-3.87-1.71-6.42-5-9.51-7.71A.87.87,0,0,1,291.37,59.15Z"/><path class="cls-44" d="M243.8,18.07c3.91,1.18,5.39,5.31,8.78,7.14-4.3-.6-6.43-4.06-9.12-6.77Z"/><path class="cls-13" d="M436.64,28.15c-3.86-1.72-6.25-5.23-9.44-7.76a.89.89,0,0,1,1.27-.11c3.65,1.57,5.95,4.68,8.52,7.48Z"/><path class="cls-37" d="M410.92,28.93a43.24,43.24,0,0,1-8.77-8.37l.24-.28c3.75,1.45,6,4.69,8.63,7.41C411.58,28.15,411.55,28.56,410.92,28.93Z"/><path class="cls-31" d="M248,11.63a24.06,24.06,0,0,1-6.93-7A25.18,25.18,0,0,1,249,10.72,1.4,1.4,0,0,1,248,11.63Z"/><path class="cls-13" d="M378.45,22.66c-3.68-1.25-5.71-4.3-7.88-7.21,3.19,1.76,6.15,3.78,8.05,7Z"/><path class="cls-37" d="M414.31,41.81c3.68,1.6,6.05,4.71,8.64,7.55l-.32.36c-3.72-1.56-6.06-4.7-8.68-7.53Z"/><path class="cls-45" d="M360,51.91c-3.64-1.66-6-4.78-8.7-7.57a1.41,1.41,0,0,0,.45-.49c3.53,1.81,6.07,4.74,8.65,7.62Z"/><path class="cls-40" d="M288.06,45c3.42,1.55,5.65,4.4,7.83,7.32-3.42-1.49-5.81-4.2-8.22-6.88Z"/><path class="cls-37" d="M389.21,65.87c-3.79-1.46-6-4.78-8.7-7.48l.39-.43c3.62,1.67,6.07,4.66,8.61,7.57Z"/><path class="cls-13" d="M286.59,67c-3.64-1.63-6-4.68-8.63-7.54l.37-.41c3.64,1.64,6,4.78,8.66,7.52Z"/><path class="cls-37" d="M304.24,59.09c3.7,1.55,6,4.7,8.64,7.5l-.38.41c-3.61-1.66-6.06-4.65-8.61-7.53Z"/><path class="cls-37" d="M308.23,74.52c-3.76-1.52-6.06-4.68-8.62-7.57l.26-.29c3.72,1.55,6.11,4.64,8.66,7.53Z"/><path class="cls-46" d="M352.41,22.82c-3.55-1.79-6.12-4.69-8.65-7.63a1.72,1.72,0,0,0,.41-.44c3.61,1.71,6,4.77,8.67,7.59C352.69,22.49,352.55,22.65,352.41,22.82Z"/><path class="cls-13" d="M298.51,88.58c-3.59-1.35-5.65-4.38-7.85-7.26,3.45,1.45,5.81,4.17,8.13,7Z"/><path class="cls-13" d="M394.87,92.56c3.7,1.56,6,4.73,8.68,7.49l-.39.43c-3.62-1.67-6.1-4.63-8.6-7.57Z"/><path class="cls-37" d="M377.59,100.11c3.65,1.31,5.43,4.64,8,7.17-3.53-1.38-6-4-8.26-6.85Z"/><path class="cls-13" d="M373.27,107.66c3.66,1.29,5.45,4.62,8,7.18-3.5-1.41-6-4-8.26-6.84Z"/><path class="cls-31" d="M322.6,108.68c3.56,1.42,5.48,4.58,7.86,7.28-3.52-1.38-5.82-4.19-8.26-6.83A5.82,5.82,0,0,0,322.6,108.68Z"/><path class="cls-40" d="M243.46,18.44c-3.65-1.63-6-4.71-8.64-7.55l.32-.35c3.73,1.54,6.1,4.65,8.66,7.54Z"/><path class="cls-37" d="M239.18,25.94c-3.73-1.53-6.07-4.69-8.71-7.48l.37-.42c3.62,1.68,6.13,4.64,8.61,7.6Z"/><path class="cls-47" d="M297.74,30,305,36.76C301.25,36,299.07,33.41,297.74,30Z"/><path class="cls-37" d="M309.64,29.92c3.47,1.49,5.63,4.39,7.78,7.32-3.4-1.51-5.79-4.19-8.15-6.92C309.4,30.19,309.52,30.06,309.64,29.92Z"/><path class="cls-13" d="M431.58,34.26c3.71,1.55,6,4.77,8.7,7.49l-.42.46c-3.62-1.69-6.1-4.66-8.61-7.6Z"/><path class="cls-40" d="M410,49.4c3.35,1.19,5.33,4,7.58,6.46l-.32.36a17.29,17.29,0,0,1-7.54-6.52Z"/><path class="cls-37" d="M239.45,25.64c3.31,1.19,5.3,3.78,6.44,7.29l-6.71-7Z"/><path class="cls-48" d="M410,93.69l6,5.42c-3.5,0-4.88-2.64-6.91-4.48Z"/><path class="cls-47" d="M283,52.17c-3-.67-4.54-3.05-7.34-5.6C279.9,47.21,280.89,50.43,283,52.17Z"/><path class="cls-13" d="M355,57.91c3,1.26,4.9,3.75,6.76,6.29-3.11-1.08-5.11-3.51-7.18-5.84A1.51,1.51,0,0,0,355,57.91Z"/><path class="cls-49" d="M365.61,102.35l1-1a28.79,28.79,0,0,1,6.65,6.29l-.3.34C369.69,107.19,368.31,103.91,365.61,102.35Z"/><path class="cls-40" d="M308.53,74.19c3.16,1.07,4.93,3.69,6.79,6.22-3.09-1.09-5.06-3.53-7.09-5.89Z"/><path class="cls-50" d="M335.55,108.66c3,1.23,4.86,3.78,6.7,6.31-3-1.2-5.12-3.45-7.1-5.87A2.79,2.79,0,0,0,335.55,108.66Z"/><path class="cls-51" d="M300.65,45.44c-3.08-1.16-4.88-3.72-6.73-6.24,3,1.16,5.11,3.43,7.07,5.85Z"/><path class="cls-52" d="M344.67,117c3,.86,4.5,3.28,7.71,6C347.78,121.89,346.36,119.2,344.67,117Z"/><path class="cls-13" d="M426.94,42.18c-3.14-1.1-4.92-3.67-6.74-6.23,3,1.22,5.11,3.44,7.06,5.88Z"/><path class="cls-13" d="M393.79,35.37c3.15,1.06,4.93,3.63,6.72,6.2-3-1.21-5.09-3.42-7-5.85Z"/><path class="cls-13" d="M234.07,32.1c3.15,1,4.84,3.65,6.65,6.17-2.94-1.2-5-3.42-7-5.79Z"/><path class="cls-40" d="M393.47,35.72c-3.33-1.23-5.25-4.08-7.54-6.5l.3-.34c3.36,1.18,5.34,4,7.55,6.49Z"/><path class="cls-13" d="M430.33,55.09l-.12,1.28c-3.2-1.45-5.43-4-7.58-6.66l.32-.35C426.11,50.37,427.72,53.37,430.33,55.09Z"/><path class="cls-40" d="M436.65,28.14l.34-.38"/><path class="cls-13" d="M410.92,28.93c0-.41.06-.82.1-1.23,3.1,1.16,4.89,3.79,6.46,6.78Z"/><path class="cls-53" d="M233.72,32.48c-3.25-1.32-5.31-4-7.52-6.52l.31-.33c3.3,1.24,5.36,3.93,7.56,6.47Z"/><path class="cls-40" d="M369.63,116.54l1.37-.09,6.26,5.54C373.61,121.55,371.75,118.88,369.63,116.54Z"/><path class="cls-51" d="M378.62,22.47c3.48,1,5.35,4,7.61,6.41l-.3.34c-3.27-1.3-5.38-3.94-7.48-6.56Z"/><path class="cls-40" d="M346,130.63l-6-5.69.88-1,6.08,5.63Z"/><path class="cls-40" d="M226.2,26c-3.28-.92-4.7-3.91-6.85-6.11,3.15,1,5.16,3.38,7.16,5.78Z"/><path class="cls-40" d="M418.66,78.57l6.07,5.69c-3.49-.16-4.79-3-7.14-4.56Z"/><path class="cls-54" d="M306.9,16.5c2.83,1,4.55,3.27,7.52,6.23C310.15,21.36,308.51,18.94,306.9,16.5Z"/><path class="cls-13" d="M428.47,20.28l-1.27.11-6.4-5.47C424.55,15.19,426.27,18.05,428.47,20.28Z"/><path class="cls-13" d="M402.15,20.56c-3.41-1.1-5.31-4-7.65-6.39l.41-.44c3.28,1.28,5.29,4,7.48,6.55Z"/><path class="cls-37" d="M230.47,18.46c-3.14-1.08-4.74-3.84-6.78-6.13,3.14,1,5.14,3.36,7.15,5.72Z"/><path class="cls-40" d="M216.48,18.37l-6.06-5.71c3.39.39,4.87,3,7.09,4.68Z"/><path class="cls-37" d="M248,11.63l1-.91a26.25,26.25,0,0,1,6.9,6.77C251.85,16.07,250.4,13.16,248,11.63Z"/><path class="cls-55" d="M366.48,80c-3-1.24-4.93-3.7-6.73-6.29,3,1.15,5.05,3.54,7.13,5.85Z"/><path class="cls-13" d="M394.5,14.17c-3-1.23-4.9-3.69-6.66-6.3a18.84,18.84,0,0,1,7.06,5.86Z"/><path class="cls-51" d="M375.45,7.29l6.07,5.77c-3.36-.26-4.73-3-7.11-4.49C374.76,8.14,375.11,7.72,375.45,7.29Z"/><path class="cls-31" d="M362.49,7.38,368.55,13c-3.31-.52-5.1-2.64-7-4.69Z"/><path class="cls-56" d="M234.82,10.89C231.64,9.83,230,7.1,228,4.68c3.09,1.09,5.08,3.49,7.1,5.86Z"/><path class="cls-13" d="M215.05,4.77c3,.75,4.53,3.25,6.35,5.39C218.38,9.41,216.86,6.93,215.05,4.77Z"/><path class="cls-13" d="M207.87,10.86l-5.93-5.55.78-1,6.07,5.43Z"/><path class="cls-57" d="M366.88,79.55c3,1.26,4.93,3.64,6.67,6.26A17.86,17.86,0,0,1,366.48,80,5.48,5.48,0,0,1,366.88,79.55Z"/><path class="cls-58" d="M322.05,74.85c2.85,1,4.68,3.07,6.2,5.54C325.37,79.47,323.63,77.24,322.05,74.85Z"/><path class="cls-40" d="M287,66.59c3,1.23,4.88,3.72,6.69,6.28-3-1.19-5.08-3.47-7.08-5.85Z"/><path class="cls-51" d="M311.47,88.6c-3.24-1-4.8-3.85-6.8-6.21a17.3,17.3,0,0,1,7.12,5.86Z"/><path class="cls-40" d="M394.56,92.91c-3.18-1.06-4.87-3.74-6.8-6.17,3.05,1.14,5.09,3.46,7.11,5.82Z"/><path class="cls-59" d="M312.88,66.59c3.18,1,4.75,3.94,6.93,6.16-3.33-.78-5.15-3.48-7.31-5.75A3,3,0,0,0,312.88,66.59Z"/><path class="cls-60" d="M332,95c-3.25-1-4.85-3.72-6.74-6.18,3.06,1.09,5,3.48,7,5.85Z"/><path class="cls-13" d="M389.51,65.53c3.1,1.13,4.92,3.66,6.7,6.25a18.07,18.07,0,0,1-7-5.92Z"/><path class="cls-51" d="M383,94.81c3.38.35,5,2.59,6.35,5.34Z"/><path class="cls-56" d="M364.06,66.19c2.92,1,4.64,3.24,6.32,5.53C367.45,70.83,365.72,68.51,364.06,66.19Z"/><path class="cls-61" d="M332.27,94.71c3.27.92,4.7,4,7,6.06-3.38-.7-5.19-3.39-7.27-5.73Z"/><path class="cls-62" d="M317.17,59.07c3.2,1,4.82,3.76,6.74,6.19a17.36,17.36,0,0,1-7.06-5.83Z"/><path class="cls-51" d="M393.81,58c3.09,1.16,5,3.6,6.75,6.24-3-1.2-5.09-3.47-7.08-5.87Z"/><path class="cls-40" d="M368,59.14c3.28.54,5.13,2.59,6.32,5.45Z"/><path class="cls-40" d="M403.55,100.05c3.08,1,4.54,3.77,6.59,5.93-3.11-.84-5-3.23-7-5.51A3.88,3.88,0,0,0,403.55,100.05Z"/><path class="cls-51" d="M421.88,70.93a8.5,8.5,0,0,1,5.47,6.49l-5.84-6.07Z"/><path class="cls-40" d="M409.69,49.7C407,49,405.45,46.83,403,44c3.73,1.17,5.3,3.33,6.94,5.4Z"/><path class="cls-13" d="M390.21,44.23l1.28-.08,5.16,4.42C393.4,48.56,392,46.18,390.21,44.23Z"/><path class="cls-51" d="M377.62,43.94c2.89.93,4.55,3.34,6.49,5.42a5.34,5.34,0,0,0-.39.44c-2.81-1-4.62-3.27-6.44-5.49Z"/><path class="cls-51" d="M364.31,44.21l1.24-.05a20.18,20.18,0,0,1,5.55,5.27l-.3.34C367.92,48.75,366.12,46.48,364.31,44.21Z"/><path class="cls-63" d="M287.67,45.46c-2.66-.82-4.1-2.94-5.5-5.13,2.58.81,4.21,2.78,5.88,4.69Z"/><path class="cls-13" d="M366.47,23.71l1.29-.07,5.16,4.43C369.62,28.09,368.25,25.63,366.47,23.71Z"/><path class="cls-40" d="M415,65.81l1.23-.06a19.4,19.4,0,0,1,5.61,5.18c-.12.14-.24.28-.37.41C418.67,70.3,416.87,68,415,65.81Z"/><path class="cls-37" d="M412.84,86.33l1.27-.08c2.08,1.11,3.55,2.86,5.58,5.32C416,90.69,414.6,88.29,412.84,86.33Z"/><path class="cls-51" d="M302.31,80.27c-2.46-.65-4-2.29-5.89-4.68C299.82,76.18,300.87,78.53,302.31,80.27Z"/><path class="cls-13" d="M396.66,106.85l-4.91-4.63C394.63,102.35,396,104.26,396.66,106.85Z"/><path class="cls-64" d="M331.55,71.62c-2.67-.33-3.9-2.45-5.38-4.3C328.84,67.57,329.94,69.94,331.55,71.62Z"/><path class="cls-37" d="M291.37,59.15l-1.27.09q-2.62-2.2-5.24-4.42C288.14,54.8,289.57,57.23,291.37,59.15Z"/><path class="cls-51" d="M278,59.48c-2.75-.7-4-3.17-5.79-5,2.95.34,4.35,2.77,6.16,4.65C278.2,59.21,278.08,59.34,278,59.48Z"/><path class="cls-40" d="M283,75.08c2.75.17,3.8,2.45,5.37,4.15C285.68,79.07,284.7,76.62,283,75.08Z"/><path class="cls-51" d="M377.82,78.24c-2.42-.65-3.84-2.41-5-4.45C375.25,74.4,376.68,76.16,377.82,78.24Z"/><path class="cls-51" d="M376,87.76c2.47.74,4,2.43,6.27,5.3C378.56,91.78,377.27,89.72,376,87.76Z"/><path class="cls-56" d="M360.38,51.47c2.63.86,4.18,3,6.59,5.73-3.77-1-5.15-3.45-7-5.29A5.56,5.56,0,0,0,360.38,51.47Z"/><path class="cls-51" d="M403.78,55.4c-2.55-.43-4-2.29-6.31-4.93C401.15,51.31,402.16,53.76,403.78,55.4Z"/><path class="cls-51" d="M303.89,59.47c-2.67-.81-4.19-3-6.63-5.74,3.78,1.07,5.21,3.44,7,5.36Z"/><path class="cls-40" d="M431.86,12.34c-2.64-.51-3.84-2.52-5.17-4.41C429.22,8.46,430.56,10.42,431.86,12.34Z"/><path class="cls-65" d="M339.06,123.41c-3.62-1.52-5.07-3.29-7.37-6.11C335.31,118.57,336.72,120.38,339.06,123.41Z"/><path class="cls-66" d="M317.7,82.54c2.54.44,3.92,2.33,6.23,4.91C320.3,86.62,319.28,84.21,317.7,82.54Z"/><path class="cls-40" d="M387.92,109.36c2.42.63,3.78,2.44,5,4.42C390.42,113.23,389.07,111.4,387.92,109.36Z"/><path class="cls-67" d="M331.08,157.5c11.69,3.39,23.93,3.11,35.8,5.34,4.67.87,9.5,1,13.83,3.29-5.07,6-10.11,12-15.25,17.86-1,1.21-2,3-4.25,1.06-9.9-8.69-19.94-17.22-29.91-25.83C330.77,158.77,330.2,158.19,331.08,157.5Z"/><path class="cls-68" d="M357.76,116.67l-4-.26c.33-4.39-1.75-8.12-3.3-12q.06-.48.09-1c3-.33,6.06-.42,8.72-2.12a2.11,2.11,0,0,1,.86.18Q358.94,109.1,357.76,116.67Z"/><path class="cls-69" d="M294.06,8.71c-2.92-.36-3.82-2.08-5.64-4.91C291.38,5.32,293.12,6.1,294.06,8.71Z"/><path class="cls-4" d="M118.35,365.74c1.75-5.8,6.27-9.29,10.7-12.87l30.22,26c7.47,3.48,12.49,10,18.67,15.08,6.48,5.32,12.53,11.17,19.08,16.4a56.86,56.86,0,0,1,7.79,8l10.37,9.86H189.84c-6.59-2.59-10.7-8.34-15.94-12.62-8.74-7.13-17-14.86-25.67-22.07a12.44,12.44,0,0,1-4-5Z"/><path class="cls-17" d="M144.25,388.55l45.59,39.69c-17.49.76-35,1.26-52.45,2.41-6.51.44-10.42-2.43-12.68-7.64a15.29,15.29,0,0,1,1.52-14.82C131.14,400.65,137.54,394.45,144.25,388.55Z"/><path class="cls-17" d="M204.81,418.38c-15.58-12.71-30.66-26-45.54-39.52,7.13.52,12.76,5.08,19.32,7.18C194.34,391.06,197.57,406.37,204.81,418.38Z"/><path class="cls-4" d="M250.46,458.66c-3.14,4.46-6.12,9.07-11,11.95l-12.07-10c-.09-.15-.27-.29-.28-.44-.33-4.66,6-11.93,10.8-12.5l8.55,6.88Z"/><path class="cls-4" d="M237.92,447.63c-4.74,3.31-8.8,7.17-10.51,12.94a16.14,16.14,0,0,1-5.51-5.17l1.09-1c3.83-3.16,5.45-8.38,10.08-10.8C234.77,444.82,236.84,445.64,237.92,447.63Z"/><path class="cls-70" d="M233.07,443.55c-2.82,4.11-5.3,8.52-10.08,10.8a18.3,18.3,0,0,0,2.28-17A29.59,29.59,0,0,1,233.07,443.55Z"/><path class="cls-71" d="M34.19,245c-4.48-4.4-6.48-10.49-10.18-15.31-3.28-4.29-3.25-8.17-1.71-12.68,2.78,3,4.31,2.64,6.33-1.21,3.61-6.87,15.94-9.22,22-4.75-4.69,2.26-5.5,6.16-5.22,11,.35,6.25.1,12.54.08,18.81,0,3.21-.1,6.3,4.59,6,1.47-.1,2.42.74,1.42,2.41h0c-2.22,3.07-5.73,3.91-9,5.17-4.4,0-7.05-1.86-7.16-6.53A3.68,3.68,0,0,0,34.19,245Z"/><path class="cls-72" d="M51.48,249.19c-.14-2.26-1.66-1.42-2.66-1-4.22,1.73-4.94-.48-4.9-4,.08-7.85.32-15.71-.08-23.53-.28-5.32-.14-9.72,6.58-10.22,1.79-2.44,3.87-2.18,6-.53s4.13,3.55,4.92,6.18,2.54,3.6,5.06,3.66c1.34,8.77-4.56,14.85-8.31,21.64C56.44,244.3,53.71,246.6,51.48,249.19Z"/><path class="cls-4" d="M66.37,219.73l-3.67,2c-3.6-4.23-2.77-13.38-12.28-11.26-2.13,0-4.27.06-6.4,0-8.7-.32-15.07,2.66-16.86,12.87-2.23-2.34-4.8-3.23-4.86-6.29,1.78-9,6.09-16.22,15.13-19.32,12.21-4.18,24,2.67,27.75,15.81C65.77,215.5,66,217.64,66.37,219.73Z"/><path class="cls-4" d="M32.06,281.84l-19.25-.38C14.53,276,16.23,270.61,18,265.2c1.87-5.88,5.78-9.27,12-9.77,2,.11,1.93,1.75,2.26,3.07.21.85,0,2.19.83,2.42,8.07,2.27,5.27,10.19,7.85,14.21.28,1.7,1.21.49.62.9-.2.13-.34,0-.37-.38-.19-2.27-1.65-5.27,2.8-4.9,2.08,3.6,2.28,7.19,0,10.76Z"/><path class="cls-4" d="M43.92,281.51c-.63-3.62,1.51-7.6-1.44-10.91-2.32-2.37-3.1-5.55-4.13-8.51-1.25-3.59,1.22-6,6.87-7.22,5.31,3,6.12,4.84,4.16,10.34-1.27,3.57-2.29,7.1-1.57,10,.31-3.75,2.11-8,3.95-12.06.91-2,2.72-2.25,3.91.21.61.84,1.18,2,2.33.62.19-.23,0-.7.13-1,.61-2.34-2.15-6.34,1.14-6.84A8.92,8.92,0,0,1,69.12,262a7.14,7.14,0,0,0,.87,1.34,1.7,1.7,0,0,1-1.45,1.93c-3.41.68-3.78,3-3.78,6,0,3.45,1.08,7.17-1.62,10.22C56.73,282.12,50.33,281.76,43.92,281.51Z"/><path class="cls-73" d="M45.07,255.59c-6.64,3-6.71,3.12-4.14,9.48.73,1.79,1.61,3.52,1.55,5.53-1.54,2.39-.09,5.2-1.15,7.81a86,86,0,0,1-5.22-16.53l-4.52,2.61c-2.16-2.95,1.27-6.58-1.61-9.06,6-1.64,3.95-6.51,4.22-10.46,1.61,0,2.2,1,2.18,2.43-.07,4.42,2.63,5.88,6.5,6.09a3.36,3.36,0,0,1,3-.33C46.81,254.37,46.13,255.05,45.07,255.59Z"/><path class="cls-74" d="M45.07,255.59l1-2c1.63-1.43,3.13-3.06,5.47-3.32,6,5,6.6,7,4.08,13.08-1.76-.91-3-1.36-3.47,1.5-.56,3.13-1.93,6.11-3,9.14-.36,1-.92,1.91-1.58,3.27-1.6-4.06-2-7.86,0-11.18C50.22,261.51,49.72,258.18,45.07,255.59Z"/><path class="cls-75" d="M63.14,281.41c0-2.32.25-4.65,0-7-.51-5.49-.81-10.7,6.81-11.17l1.08,1a4.69,4.69,0,0,0,1.25.9c1.82.51,4.77-.89,5.39.9.84,2.42-2.17,3.73-3.73,5.23C70.42,274.74,67.63,279,63.14,281.41Z"/><path class="cls-72" d="M51.59,250.27c-1.65,1.39-3.18,3-5.47,3.32l-3.24-.1c2.47-2.21,5.72-2.88,8.59-4.29C51.5,249.55,51.54,249.91,51.59,250.27Z"/><path class="cls-76" d="M118.29,339.91,115,336.42l-4.81-4.07.68-1.09c4.78,2.93,9.71,5.63,14.24,8.9,1.72,1.24,6.56,1.61,4,5.28-2.66,3.87-4.17-1.25-6.28-2C121.16,342.86,119.81,341.14,118.29,339.91Z"/><path class="cls-2" d="M196.17,220.6c-.92,1.85-1.12,4.7-4.16,5.25-.81.15-2.1-.54-1.55-1.59,1.19-2.25,1.08-5.57,4.22-6.33C195.87,217.64,196.33,219,196.17,220.6Z"/><path class="cls-2" d="M210.51,225.73c1.66.14,2.77.81,2.49,2-.62,2.55-1.17,5.37-4.21,6.3a1.34,1.34,0,0,1-1.74-1.48A16.76,16.76,0,0,1,210.51,225.73Z"/><path class="cls-2" d="M362.43,308.44c-.83,2.69-1.59,5.39-2.52,8-.44,1.27-.87,3-2.94,1.77-1.46-.9-1.18-2-.37-3.18l4.8-7Z"/><path class="cls-1" d="M103.4,89.68c-8.54,17.56-36.08,24.62-49.82,12.78A33,33,0,0,1,45.34,92c-2.3-4.74-1.41-6.71,3.57-8.47C56,81,63.29,79.23,70.52,77.21a7.62,7.62,0,0,1,4.13.61c8,2.31,15.5,6,23.4,8.6C100,87.06,102.08,87.84,103.4,89.68Z"/><path class="cls-1" d="M.64,112.42c2.51,3.14.93,1.86,7.69,6.3C5,126.23,3.78,130,.64,132.51"/><path class="cls-77" d="M103.26,62.5a39,39,0,0,1,2.06,18.39c-2.68,1.19-2.94-1.12-3.51-2.62a36.63,36.63,0,0,0-3.71-7c-3.27-5.7-8.84-4.73-13.49-3.64-8.17,1.92-16.22,4.54-24.21,7.23a3.81,3.81,0,0,1-2.45,0c-3.82-2.29-8.13-3.43-12.2-5.15-1.84-.78-4.35-1-4-4a27.67,27.67,0,0,1,9.47-6.53,136.33,136.33,0,0,0,19.7-8.64c5.12-2.73,10.85-3.16,16.4-4.14s9.25,1.52,11.66,6.35a20.81,20.81,0,0,1-10.28,4.55C93.87,57.8,99.28,58.09,103.26,62.5Z"/><path class="cls-78" d="M.64,83.53c1.88,1.25,4.24.19,7.49,7.09C5.89,93.12,2.42,92.79,0,94.83"/><path class="cls-79" d="M.64,138.17s4.5.28,10.76-12.85c3.07-6.44,3.92-13.23,3.5-20.27-.14-2.31,0-4.64,0-7,1.19-1.44,1.95-1.59,2.78.46,2.34,5.72,1.79,11.74,1.25,17.5-1,10.55-4.14,20.52-14.28,26-6.23,3.39-4,2.37-4,2.37"/><path class="cls-15" d="M99.08,71.05c3.87,2.14,2.63,7.53,6.25,9.84.23,3.12.52,6.25-1.93,8.78-4.5-1.51-9-2.91-13.48-4.59-5.3-2-10.51-4.26-15.76-6.41A1.83,1.83,0,0,1,75,76.36C82.81,73.62,90.31,69.42,99.08,71.05Z"/><path class="cls-78" d="M0,93s1.26-.63,8.12-2.33c.16,3.37,3.26,6,2.37,9.64-8.25,3.66-2.83-.41-10.49,4.62"/><path class="cls-22" d="M57.92,74.12l2.15.15c4.53-1.86,7.86.15,10.83,3.35-.75,1.73-2.29,1.81-3.91,2.23-6.55,1.66-13,3.56-19.52,5.46-3,.88-2.69,3-1.43,5.06,2.45,4.07,5,8.06,7.54,12.09C45.22,97.36,39,90.53,36.3,80.89a2.31,2.31,0,0,1,2-2.75c5.61-1.26,11-3.37,16.55-4.72A3.88,3.88,0,0,1,57.92,74.12Z"/><path class="cls-15" d="M.64,102.37c1.26-.63,3.77-1.26,9.86-2.11.31,6.28.72,12.56-2.17,18.46C1.8,117.46,7,118,.64,116.19"/><path class="cls-79" d="M110.88,91.84c.43,1,2.37,1.08,1.57,2.94-5.07,11.87-27.11,23.63-39.49,18.39,10.06-2.58,19.69-6,27.94-12.7a29.89,29.89,0,0,0,6.3-7.2C108.22,91.69,109,90.58,110.88,91.84Z"/><path class="cls-78" d="M57.92,74.12c-7.27,2.08-14.73,3.52-21.62,6.77-2.74-6.68.56-11.21,5.41-15.19,3,3.61,8,3.27,11.67,5.51C54.91,72.14,57.46,71.52,57.92,74.12Z"/><path class="cls-1" d="M103.26,62.5a49.34,49.34,0,0,0-17.61-4.37c5-2.77,8.85-4.83,13.29-5.39A22,22,0,0,1,103.26,62.5Z"/><path class="cls-1" d="M70.88,50.53l.46.91c-6.56,3-12.67,7.15-20.16,7.73A65.45,65.45,0,0,1,70.88,50.53Z"/><path class="cls-80" d="M276.68,17c2.93,1.47,4.62,2.63,6.09,4.68C279.51,21.3,279.51,21.3,276.68,17Z"/><path class="cls-79" d="M70.9,77.62c-3.7-.81-6.84-3.46-10.83-3.34.1-.34.15-.94.32-1,10.83-2.53,20.88-8.47,32.47-7.53,3.13.25,5.9,1.45,6.22,5.28-7.55,1.06-14.73,3.6-22.07,5.49a4,4,0,0,0-2.85,2.13Z"/></g></g></g></svg>