<svg xmlns="http://www.w3.org/2000/svg" viewBox="0 0 603 340.2"><defs><style>.cls-1{fill:#e8e9eb;}.cls-2{fill:#4d4d4d;}.cls-3{fill:#e4b363;}.cls-4{fill:#fdfdfd;}.cls-5{fill:#fcbc94;}.cls-6{fill:#313638;}.cls-7{fill:#ef6461;}.cls-8{fill:#fcd5b6;}.cls-9{fill:#2c4658;}.cls-10{fill:#07c39b;}.cls-11{fill:#ab652b;}.cls-12{fill:#d57c33;}.cls-13{fill:#e0dfd5;}</style></defs><title>cv</title><g id="Layer_2" data-name="Layer 2"><g id="cv"><g id="Layer_25" data-name="Layer 25"><rect class="cls-1" y="0.01" width="603" height="339"/><path class="cls-2" d="M576.71,138.77c-.09,1.28-1.2,1.55-1.94,2.07q-21.87,15.56-43.79,31c-1.82,1.29-3.72,2.51-5.43,3.94s-2.62,1.34-3.95-.61c-7-10.19-14.13-20.25-21.21-30.37C489.67,129.55,479,114.23,468.19,99c-1.33-1.86-1.06-2.53.66-3.74q25-17.64,50-35.44c1.07-.77,1.51-.88,2.45.39,18.59,25.29,36.08,51.35,54.29,76.92C576,137.69,576.35,138.25,576.71,138.77Z"/><path class="cls-3" d="M511.67,48c3.36-.14,5.56,1.41,7.28,3.87Q534.08,73.44,549.25,95q17.49,24.93,35,49.87c3.4,4.86,2.68,9.36-2.21,12.82q-22.23,15.76-44.53,31.46c-4.32,3-8.89,2.24-11.9-2.06Q492.93,140.57,460.31,94c-3.65-5.21-3-9.31,2.17-13q22-15.62,44.06-31.13C508.15,48.75,509.8,47.72,511.67,48Zm65,90.82c-.36-.52-.74-1.08-1.13-1.63-18.21-25.57-35.7-51.63-54.29-76.92-.94-1.27-1.38-1.16-2.45-.39q-25,17.76-50,35.44c-1.72,1.21-2,1.88-.66,3.74,10.81,15.22,21.48,30.54,32.2,45.82C507.47,155,514.62,165,521.6,175.2c1.33,2,2.27,2,3.95.61s3.61-2.65,5.43-3.94q21.9-15.51,43.79-31C575.51,140.32,576.62,140.05,576.71,138.77Z"/><polygon class="cls-3" points="0 271 0 1 128 1 0 271"/></g><path class="cls-4" d="M120.05,308a9,9,0,0,0,1.47-.2q40-12.74,80.09-25.46c1.79-.56,2.48-1.3,1.62-3.13s-.16-2.75,1.78-3.27c3.52-.95,7-2.16,10.47-3.22,1.3-.39,2-.73,1.29-2.42-1.06-2.51-.58-2.91,2.14-2.3,5.91,1.31,11.83,2,17.87.86a29.14,29.14,0,0,0,13.74-6.44c2.46-2.07,5.16-1.79,7.41.28,3.38,3.09,6.62,3.29,10.43.58,1.9-1.36,3.53-1.54,5.47.24,3.55,3.24,8.15,3.25,11.39-.13,2-2.1,3.23-1.69,5.07.11,3.72,3.63,8.66,2.85,11.65-1.46.77-1.12.76-2.72,2.15-3.44,1,.12,2.33-.06,2.57,1,.83,3.76,4,3.1,6.52,3.75a8.11,8.11,0,0,1,4.14,2.09c-.09.6-.14,1.44.59,1.42a17.9,17.9,0,0,1,8.29,1.83,1.09,1.09,0,0,0,1.28-.52c.45-.63,0-1.08-.32-1.58a15.65,15.65,0,0,1-2.56-5.64,3.17,3.17,0,0,0-2.53-2.73,5.15,5.15,0,0,1-3-7.31c1.48-3,1.11-5.63-.55-8.39-5.35-8.86-10.53-17.82-16-26.63-2.14-3.47-3.49-7.54-7-10.06-4.88-3.47-10.57-5.27-16-7.54-7.69-3.23-15.21-6.86-23-10a43.4,43.4,0,0,0-10.63-3.06l-.13-.12c-1.89-3.2-5.32-4.13-8.34-5.66l-.64-.22c-.89-1.49-2-2.65-3.95-2.28l-.16-.15c-.66-1.5-1.52-2.7-3.45-2.24l-.08-.09c-.23-1.35-1.13-1.4-2.2-1.11l-.18-.17c-.15-1.73-1.17-1.25-2.16-.84-2.61-.79-4.61-2.62-6.9-4-.87-.51-1.56-1.21-2.51-.06-2.07,2.51-4.2,5-6.36,7.43-.76.85-.75,1.47.13,2.21q9,7.67,18,15.38a4.3,4.3,0,0,0,2.28,2.08l3.22,3.2c-6.24,5.39-12.44,10.83-18.75,16.14-2.38,2-4.62,4.14-7.81,5.13s-6.15,2.38-9.33,3.26c-1.61.45-2.57,1.22-1.82,3.2s1.15,4.36,1.89,6.48c3.84,10.92,7.15,22,10.66,33,.58,1.79.36,2.57-1.56,3.2-4,1.31-8.21,2.14-12.07,3.95-.91-.64-.88-1.72-1.17-2.62-5.1-15.9-10.22-31.79-15.18-47.74-.65-2.06-1.4-2.4-3.29-1.76-5.33,1.8-10.7,3.51-16.08,5.18-1.36.42-2.67,1.31-4.22.73,1.46-2.91,2.94-5.81,4.38-8.72q14.94-30.17,29.87-60.34l19.55-.05c1.07,0,2.2.22,3.08-.66l8.39-8.37a2.55,2.55,0,0,0,.72-1.88q0-19.69,0-39.4c0-1.16-.28-1.91-1.65-1.84a1.69,1.69,0,0,0-1.84,1.84c0,.69,0,1.38,0,2.07q0,16.15,0,32.29c0,1.18-.18,2.35-.28,3.52-1.64-.49-3.48-.08-5-1.11a12.47,12.47,0,0,0-1.54-2.46c-1.24-1.22-3-2.09-4.55-1.59s-.22,2.22-.45,3.37a8.42,8.42,0,0,0-.09,1.08c-1.19.42-1.68-1-2.75-.8a29.23,29.23,0,0,1-3.06,8.24c-.6-2.39-1-4.49.1-6.36,1.51-2.51,1.13-4.33-1.4-5.75,1.6-1.95,3-4.17,4.85-5.8,4.26-3.71,6.84-8.1,6.87-13.84-.31-7.44-5.81-13.21-12.31-12.92-6.89.3-11.93,5.89-11.75,13-1.15,1.84-.73,3.29.56,5.06a46.76,46.76,0,0,1,5.61,9.43c.55,1.32,1.83,4.11-1.23,5.16-4-.1-5.78.85-7.17,4.37-1.27,3.2-2.19,6.54-3.27,9.81-1.56.21-1.45-.82-1.44-1.87,0-15.63,0-31.26,0-46.89,0-2.19.6-2.87,2.86-2.85,10.39.12,20.78,0,31.17.08,2.29,0,3.54-.64,4.55-2.71,4.92-10.12,10-20.15,14.93-30.28,1-2,1.71-2.33,3.74-1.31q26.21,13.1,52.51,26,36.76,18.14,73.53,36.26c24.56,12.14,49.09,24.35,73.72,36.35,2.95,1.44,3.82,2.8,2.16,5.59a13.79,13.79,0,0,0-1,1.46Q425,196.44,414,218.89C389.72,268,353.42,337.5,353.4,340H104M336.37,159.08l.66.67c-.25.64-.49,1.28-.75,1.92-.39,1-1.31,2,.26,2.72s1.54-.84,1.92-1.58c1.93-3.77,3.85-7.56,5.64-11.41.43-1,1.89-2.12-.07-3.21-1.74-1-2.41.11-3.32,1.26-1.6,2-2.72,4.44-5.22,6.33.06-3.49,1.4-6.09,2-8.85.28-1.33.13-2-1.11-2.53-1.41-.61-1.91.11-2.45,1.23-2,4.09-4,8.15-6,12.22-.43.88-1.11,1.8.31,2.44s1.42-.61,1.76-1.33.55-2.45,1.46-2.19c1.44.41.49,1.72.2,2.69a8.43,8.43,0,0,0,0,.88,1.5,1.5,0,0,0,.89,1.93c.86.35,1.25-.27,1.72-.78C335,160.7,335.33,159.6,336.37,159.08Zm-43.91-33.94c.19-1.91-4-5.41-5.57-4.89a1.64,1.64,0,0,0-.74.83q-3.37,6.75-6.69,13.5a1.32,1.32,0,0,0,.64,2c1,.53,1.45,0,1.84-.77.75-1.5,1.46-3,2.23-4.5.3-.58.59-1.39,1.49-1.05s.81,1.26.49,2c-.64,1.44-1.34,2.86-2,4.26-.49,1-.79,1.75.54,2.38s1.52-.34,1.92-1.09c2-3.76,2.88-8,5.48-11.47A3.75,3.75,0,0,0,292.46,125.14Zm-9.17-4.57c0-2.13-1.31-3.28-4.2-4.46-1.16-.47-1.72-.37-2.29.83-2.08,4.36-4.28,8.68-6.43,13-.36.73-.78,1.41.32,1.93a1.37,1.37,0,0,0,2.13-.76c.72-1.51,1.51-3,2.32-4.46.27-.48.48-1.21,1.27-1s.88,1,.61,1.7c-.55,1.38-1.23,2.7-1.78,4.07-.36.9-1.46,1.89.15,2.73s1.71-.61,2.22-1.46c1.88-3.14,2.06-7.08,4.78-9.85A5.59,5.59,0,0,0,283.29,120.57Zm19.45,25c0,2.32,1.42,3.17,3.05,3.79,2.11.82,3.5-.35,4.38-2,2-3.65,3.77-7.39,5.61-11.1.37-.76,1-1.52-.35-2.16s-1.71-.06-2.2,1q-2.44,5.07-5,10.09c-.42.83-.88,2.11-2.12,1.39-1-.56-.39-1.6,0-2.39,1.65-3.37,3.33-6.73,5-10.1.35-.72,1.19-1.57-.2-2.18-1.17-.52-1.8,0-2.31,1-1.74,3.66-3.55,7.27-5.3,10.92A10,10,0,0,0,302.74,145.53Zm-37.18-16.37c2,.12,3-1.31,3.78-2.81,1.78-3.4,3.43-6.87,5.14-10.31.48-1,.78-1.88-.53-2.44s-1.54.36-1.95,1.19c-1.43,2.92-2.83,5.86-4.38,8.72-.62,1.16-.91,3.64-2.71,2.66s.15-2.58.69-3.79c1.33-3,2.84-5.86,4.29-8.77.44-.89.59-1.66-.46-2.25-1.23-.69-1.6.28-2,1-1.88,3.8-3.84,7.56-5.5,11.46C260.78,126.64,262.59,129.09,265.56,129.16ZM319,153.83c-.1,2.13,1.39,2.9,3,3.5a3.11,3.11,0,0,0,4-1.65c2-3.64,3.75-7.37,5.6-11.08.44-.9,1.45-1.9-.24-2.63s-1.78.75-2.22,1.61c-1.62,3.15-3.15,6.36-4.77,9.52-.43.84-1,2.11-2.12,1.52s-.43-1.72,0-2.58c1.61-3.28,3.26-6.54,4.86-9.82.41-.83,1.11-1.71-.31-2.45s-1.7.23-2.15,1.13q-2.49,5-5,10.08A6.14,6.14,0,0,0,319,153.83Zm-66.15-33.21a3.87,3.87,0,0,0,2.68,4,3.11,3.11,0,0,0,4.07-1.45c.75-1.28,2.78-2.86,1.11-4.26-2.1-1.76-1.88,1.29-2.81,2-.55.43-1,1.14-1.73.68a1.2,1.2,0,0,1-.24-1.61c1.48-3,3-6,4.53-9,.22-.43.63-.84,1.19-.6s.69.91.53,1.5a13.53,13.53,0,0,1-.5,1.39c-.33.89-1,1.78.47,2.39s1.63-.65,2-1.43a10.42,10.42,0,0,0,.86-2.5,3.23,3.23,0,0,0-1.85-3.67c-1.43-.79-3-.91-4.09.35C256,112.12,254.3,116.54,252.84,120.62Zm122.89,44c0-1.17-1.1-1.24-1.8-1.68a1.31,1.31,0,0,0-2,.53q-4.26,6.23-8.49,12.46c-.42.61-.77,1.22.09,1.73s1.41.76,2-.21c.51-.8.91-1.8,2.27-1.18s1.14,1.62.73,2.69.27,1.45,1.09,1.7,1.16-.4,1.38-1.1c1.2-3.85,2.42-7.7,3.63-11.55C375,166.92,375.37,165.8,375.73,164.66ZM294,141.35a3.42,3.42,0,0,0,1.94,3.2,3.38,3.38,0,0,0,3.9,0c1.51-1.11,2.1-2.82,2.75-4.46.22-.56-.41-.83-.85-1s-1.16-.39-1.57.25-.62,1.24-1,1.82-.93,1.53-1.83,1.1-.56-1.39-.23-2.08c1-2.24,2.11-4.46,3.26-6.64.56-1.07.92-3.06,2.37-2.54,1.94.71.08,2.11-.17,3.16a1.36,1.36,0,0,0,.89,1.85c.91.41,1.3-.09,1.6-.75a16.44,16.44,0,0,0,1.16-3,3.16,3.16,0,0,0-1.85-3.66c-1.43-.77-3-1-4.1.31C297.23,132.49,295.56,136.91,294,141.35Zm63.72,14.36c0-.76-.53-.88-.93-1.13-.81-.48-1.27,0-1.69.61-1.19,1.82-2.38,3.63-3.6,5.42-.33.49-.78,1-1.42.53s-.05-.86.1-1.31c.66-1.85,1.28-3.72,1.93-5.58.34-1,.66-1.95-.79-2.32s-1.42.78-1.67,1.56c-1.41,4.41-2.73,8.85-4.17,13.25-.41,1.26-.24,2,1,2.59a1.7,1.7,0,0,0,2.46-.76c2.7-4,5.45-8,8.18-12C357.39,156.28,357.59,156,357.74,155.71Zm21.79,21c.9.47,1.37.41,1.77-.25.54-.93.12-1.42-.65-1.9-2.07-1.29-.24-2.56.11-3.79s1.34-1.15,2.31-.57c1.37.81,2.19-.29,1.88-1.15-.59-1.67-2.59-1.83-4-2.58-1.23-.66-1.46.6-1.82,1.32-1.78,3.51-3.52,7-5.25,10.58-1.88,3.87-1.78,4.07,2.24,5.6.78.3,1.49.66,2-.35a1.12,1.12,0,0,0-.63-1.68c-2-.86-1.2-2.15-.58-3.4S377.86,175.71,379.53,176.73Zm-19.79-.94c.95,0,1-1,1.33-1.59,1.57-3.06,3.08-6.16,4.63-9.24.55-1.08.79-2.55,2.64-2.13.74.16,1-.58,1.16-1.11.3-.74-.23-1.08-.78-1.34-1.24-.6-2.49-1.18-3.75-1.75-.55-.25-1.12-.46-1.57.17s-.6,1.14,0,1.56c1.32.94.57,1.85.09,2.81-1.68,3.34-3.29,6.72-5,10C357.62,174.73,358.27,175.34,359.74,175.79Zm-42.56-23c-.26-.3-.46-.72-.76-.82-2.47-.83-1.43-2.26-.71-3.69,1.63-3.25,3.26-6.51,4.83-9.8.3-.62.9-1.43-.3-2-.92-.39-1.58-.54-2.12.6-2.14,4.43-4.34,8.83-6.55,13.23-.5,1-.32,1.72.74,2.11,1.41.53,2.55,1.94,4.27,1.42C316.84,153.76,317,153.19,317.18,152.74ZM290,141.39c.44.11.77-.23,1-.7,2.25-4.59,4.48-9.19,6.75-13.78.47-.94.16-1.41-.67-1.87-1-.55-1.41-.05-1.8.76-2.17,4.42-4.31,8.84-6.56,13.22C288,140.48,288.7,141,290,141.39Zm72,16.51c0-.93-.69-1.18-1.28-1.46-.94-.43-1.18.35-1.48,1q-3.21,6.5-6.43,13c-.41.83-.8,1.58.39,2.2s1.59-.09,2-.93q3.17-6.37,6.34-12.73C361.71,158.6,361.85,158.23,362,157.9Z"/><path class="cls-4" d="M255.43,0h27.91a1.88,1.88,0,0,0,1.73,1.85l.6.59.38.22-.23-.38-.59-.6L284.53,0h5.94c0,1.14.73,1.62,1.71,1.87l.42.22-.24-.42L291.65,0h20.79A1,1,0,0,0,313,1.25l.59.57c-.06,2.09,1.5,2.19,3,2.41l.59.61.38.21-.22-.38-.61-.59a4.16,4.16,0,0,0-3-2.37l-.58-.59L313,0h14.84a16.87,16.87,0,0,1,6.2,4.71c-.16,1.85,1,2.45,2.54,2.5a2.11,2.11,0,0,0,2.27-1.94c.2-1.5-.19-2.77-2.07-2.85-1-.6-2.47-.75-2.4-2.42h13.06c.4,2,.81,3.92,1.21,5.88l-.57.6-.59-.59-.81-.78-.26.37,1,.52.59.58a3.79,3.79,0,0,0,1.54,2.34c.31,1.36.62,2.73.94,4.1l-.54,1.1-.44-.18.21.42,1.12,1.06a10.48,10.48,0,0,1,1.45,4.65c-.16.64-.25,1.34-1.19,1.22l-.42-.22.23.42a4.49,4.49,0,0,0,2.35,2.27l1.39,5.83-.6.63c-.2-.19-.4-.38-.59-.58l-.58-.6a1.22,1.22,0,0,0-1.19-.61l-.6-.58-.57-.61a1.25,1.25,0,0,0-1.23-1.17l-.58-.59-.38-.23c.09.11.17.23.26.35l.59.58a1.22,1.22,0,0,0,1.2,1.2L351,28l.58.59a1.22,1.22,0,0,0,1.16.63l.62.56.59.6a5.67,5.67,0,0,0,1.67,2.35q1.27,5.3,2.57,10.6c-.21.71.21,1.84-1.17,1.77a1.23,1.23,0,0,0-1.17-.6l-.57-.6-.59-.6a2.83,2.83,0,0,0-.31-.31c-.36.27,0,.35.16.47l.61.58.6.56,1.12.7a3,3,0,0,0,2.35,2.27c1.21,3,1.11,6.43,2.52,9.41A20.12,20.12,0,0,0,366.46,63a5.83,5.83,0,0,0,2.34,3c.86.48,2.37,1.73,2.52,1.27,1.13-3.56,2.34.45,3.4-.14l.41.22-.24-.39c-.2-1.16-1.2-1.67-1.93-2.42-1.1-1.12-.74-2.61-.41-3.81.37-1.37,1.44,0,2.18-.16l.58.61a1.2,1.2,0,0,0,1.19,1.19l.59.6.59.6.41.21-.23-.39-.61-.58-.61-.58a1.2,1.2,0,0,0-1.21-1.17l-.6-.58c-2.14-1.74-1.83-4.3-2.34-6.52.75-.54,1.38,1.13,2.16-.28-3-1.62-3.52-4.55-4-7.72l2.3,1a1.31,1.31,0,0,0,1.18.6,1.11,1.11,0,0,0,1.22,1.15l.57.61.59.6.61.58.59.6.6.59.39.22-.23-.38-.62-.57-.6-.59-.58-.6-.61-.59-.62-.56-1.22-1.18-1.09-.69c-2-2.41-4.7-4.46-4.32-8.14l.13-.12c.57-.05,1.45.11,1.66-.2.41-.6-.36-1-.8-1.25-2.78-1.39-2.46-4.22-3.14-6.59-.19-.66,1.34-1,.4-1.68-2.28-1.62-1.59-4.19-2.34-6.22.8-.62,1.42,1,2.31-.42-3.23-1.62-4.52-4.37-4.11-7.92.29-.08.77.15.78-.37,0-.1-.44-.21-.68-.32a21.12,21.12,0,0,1-2.28-5.91c-.17-.87-.31-1.58.91-1.6.13.18.23.48.48.14,0,0-.19-.21-.3-.32A9.7,9.7,0,0,1,358.75,0h3.56c-.1.83.34,1.2,1.1,1.28l.63.56.59.59a1.19,1.19,0,0,0,1.2,1.19l.6.57a1.15,1.15,0,0,0,1.15.64l.59.58A1.94,1.94,0,0,0,370,7.18l.58.62L371,8l-.23-.39-.63-.57a2,2,0,0,0-1.8-1.78l-.58-.58a1.24,1.24,0,0,0-1.2-.6l-.58-.6a1.17,1.17,0,0,0-1.2-1.18l-.6-.58-.57-.62L362.91,0H459.1l0,1.49L445.35,17.68C440.89,22,437.08,26.91,433,31.56c-7.12,8.09-14.16,16.25-21.23,24.37-1.79-.13-1.34,1.68-2.06,2.49-5.51,6.2-10.87,12.54-16.29,18.82-2.69,3.11-5.45,6.15-8.11,9.27-1.52,1.79-2.93,2.26-5,.71-3.6-2.65-7-5.43-9.49-9.21-1.15-1.79-1.88-1.69-3.29-.08a20.89,20.89,0,0,1-10.26,6.17c-1.61.45-3.29.63-4.66-.88-2.12-2.33-5.1-3.68-7.08-6.17a2.71,2.71,0,0,0-2.91-1q-41.55-36-83.07-72C258.06,2.84,256.11,2,255.43,0ZM372.35,15.5l.59.58.39.23c-.09-.12-.17-.24-.26-.35l-.59-.59-.59-.59a1.2,1.2,0,0,0-1.22-1.17l-.58-.6a1.2,1.2,0,0,0-1.17-.62l-.59-.59c-.19-1-.59-1.68-1.75-1.73a1.7,1.7,0,0,0,1.62,1.87l.59.57a1.21,1.21,0,0,0,1.18.62l.6.58a1.18,1.18,0,0,0,1.19,1.2Zm-7.14,0,.4.22-.22-.4c-.13-.19-.23-.47-.49-.13A2.14,2.14,0,0,0,365.21,15.52Zm35-.6.41.23-.24-.4-.62-.57-.61-.58-.59-.6-.6-.59-.4-.23.25.38.61.58.61.58.59.6Zm-57.63-.56.42.23-.23-.42-.62-.57-.4-.23.25.37Zm-43.91-.62.41.2-.22-.39-.62-.57c-.11-.11-.3-.33-.31-.32-.37.28,0,.35.15.47Zm92.65-.62.59.58a1.24,1.24,0,0,0,1.16,1.23c.14.19.24.49.5.14,0,0-.2-.22-.31-.33A1.25,1.25,0,0,0,392,13.61l-.58-.6-.39-.25Zm42.11-.55.42.23-.23-.42-.62-.57-.61-.58a1.21,1.21,0,0,0-1.18-.61l-.58-.59a1.92,1.92,0,0,0-1.81-1.77l-.59-.59-.38-.23c.09.11.18.23.28.34l.58.59a1.91,1.91,0,0,0,1.79,1.78l.6.58a1.21,1.21,0,0,0,1.15.64l.6.59Zm-21.34,0,.59.59c.23.4.44.82.69,1.21,0,0,.4-.1.41-.19.11-.73-.32-1-1-1.13l-.59-.59c-.11-.17-.16-.53-.47-.17Zm-64.71,0,.39.22-.23-.39-.61-.58-.61-.58-.61-.58-.59-.6-.6-.58-1.13-.66-.58-.61-.61-.58c-.12-.46-.29-.88-.89-.83a.27.27,0,0,0-.18.19c0,.6.42.73.87.85l.6.59.6.57a1.33,1.33,0,0,0,1.18.61l.6.6.6.58.6.59.59.6Zm-7.15,0,.42.23-.24-.41-.62-.57a1.26,1.26,0,0,0-1.19-1.2l-.82-.75-.27.36.9.61A1.28,1.28,0,0,0,339.69,12Zm35-.6.4.22-.23-.39-.63-.56-.59-.6a1.23,1.23,0,0,0-1.21-1.18c-.2-.29-.56-.68-.77-.33s.36.38.62.51a1.25,1.25,0,0,0,1.23,1.13l.6.59Zm20.79-.6.39.22-.23-.38-.61-.59L395,10a1.57,1.57,0,0,0-1.17-1.46c-.33-.07-.58.13-.48.49.2.75.82,1,1.52,1.11l.59.6Zm20.78-.59.4.22-.23-.39-.62-.58a1.29,1.29,0,0,0-1.2-1.19l-.41-.22.24.4a1.29,1.29,0,0,0,1.22,1.17Zm-7.13,0,.41.22-.24-.4-.61-.58a1.23,1.23,0,0,0-1.23-1.15l-.59-.59-.59-.6-.4-.23c.09.12.18.24.26.37l.63.56L408,9a1.19,1.19,0,0,0,1.17,1.21Zm-99.75,0,.59.58c.07.49.2.92.82.89.07,0,.19-.12.19-.19,0-.63-.43-.72-.9-.81l-.58-.59-.6-.6a1.24,1.24,0,0,0-1.18-.61l-.58-.59c-.3-1.3-1.54-1.64-2.39-2.38L305,6.23l.25.4c.06,1.55.78,2.42,2.42,2.34l.6.58a1.23,1.23,0,0,0,1.16.62ZM435.84,8.42l.42.23L436,8.23l-.62-.57-.61-.58-1.12-.69a3.1,3.1,0,0,0-2.44-2.29l-.59-.58-.39-.24.27.35.59.59a3,3,0,0,0,2.39,2.38,1.24,1.24,0,0,0,1.17.6l.59.6Zm-14.24,0c.12.18.22.48.48.14a2.64,2.64,0,0,0-.31-.32l-.61-.57-.4-.23.26.36Zm-21.34-.05.58.6a2,2,0,0,0,1.78,1.8L403,11l-.23-.41A2,2,0,0,0,401,8.85l-.59-.58L400,8ZM386,8.38l.58.59c.17.93.57,1.54,1.68,1.5-.06-1.18-.76-1.46-1.55-1.62l-.6-.58L385.73,8Zm-8.9,67.09.59.57,1.16.65.4.23-.24-.39a1.29,1.29,0,0,0-1.18-.62l-.57-.6-.61-.58-.6-.59A1.23,1.23,0,0,0,374.83,73l-.58-.62-.41-.22.23.41.64.55a1.22,1.22,0,0,0,1.19,1.2l.61.59Zm-4.75-4.16.39.24-.24-.39-.61-.58c-.11-.19-.18-.51-.46-.15l.32.29Zm5.9-1.15c.14.18.26.49.51.13,0,0-.19-.22-.3-.34l-.64-.55-.59-.59-.6-.59-.41-.24.26.38.6.59.6.59Zm5.38-1.82.59.59A1.92,1.92,0,0,0,386,70.7l.31.21-.21-.31a1.91,1.91,0,0,0-1.8-1.78l-.59-.59-.38-.24Zm-1.8-1.16.41.21L382,67l-.63-.56a2,2,0,0,0-1.8-1.78l-.41-.24.24.41a2,2,0,0,0,1.84,1.74Zm6-1.22.59.58.78.78.26-.37-.94-.51-.59-.59-.59-.6-.59-.59-.59-.59-.6-.59-.4-.23.24.38.61.58.6.59.61.58ZM392,7.78l.39.23-.24-.38-.6-.6-.61-.57-.6-.59-.59-.59-.6-.59-.61-.58a1.2,1.2,0,0,0-1.19-.6l-.58-.6c-.1-.2-.15-.52-.46-.18l.34.3.6.57a1.17,1.17,0,0,0,1.16.64c.2.2.39.4.6.59s.39.4.59.59l.6.59.6.59.59.6Zm-14.26,0,.41.22-.25-.39-.61-.58-.61-.58L376,5.89l-.58-.61-.4-.23.26.38.61.57.59.6.59.6ZM352.17,60l.39.22-.23-.38-.62-.57-.6-.59-.6-.59-.6-.59-.6-.58-.39-.24.25.37.6.59.6.59.6.59.6.59Zm-4.75-4.16.39.24-.25-.38-.61-.59A1.21,1.21,0,0,0,345.74,54l-.6-.57-.38-.25.29.34.57.6a1.21,1.21,0,0,0,1.19,1.19ZM398.47,7.2l.4.23L398.63,7,398,6.46a1.2,1.2,0,0,0-1.22-1.17l-.59-.59a1.2,1.2,0,0,0-1.15-.64l-.58-.6-.6-.59c-.1-.47-.27-.89-.87-.86-.07,0-.18.12-.19.19,0,.6.43.74.89.85l.61.58.59.57a1.24,1.24,0,0,0,1.19.61l.58.59a1.23,1.23,0,0,0,1.2,1.2Zm-14.26,0,.4.2L384.39,7l-.68-.52c-.12-.3.05-.83-.57-.72A.28.28,0,0,0,383,6c-.12.63.43.44.72.57ZM380,53l.42.22-.23-.41-.42-.22C379.87,52.68,379.94,52.82,380,53Zm-28.45-.06.58.6a2,2,0,0,0,1.78,1.8l.42.23-.25-.41a2,2,0,0,0-1.83-1.74l-.6-.58-.38-.24Zm-8.32-.57.39.21-.22-.38-.62-.58-.6-.59A1.24,1.24,0,0,0,341,49.8l-.83-.77-.27.36.92.62a1.3,1.3,0,0,0,1.25,1.12c.19.2.39.4.59.59S343.05,52.13,343.25,52.33Zm6.52-.59.42.22-.24-.4-.62-.57a1.24,1.24,0,0,0-1.21-1.18l-.6-.57-.38-.24.28.33.57.61a1.21,1.21,0,0,0,1.2,1.19Zm76.6-45.13.41.22-.23-.4-.62-.57a1.21,1.21,0,0,0-1.22-1.17l-.6-.57-.58-.61a1.23,1.23,0,0,0-1.18-.62l-.59-.58-.58-.61c-.1-.48-.26-.9-.86-.86a.26.26,0,0,0-.19.19c0,.61.44.72.9.82l.61.58.58.59a1.23,1.23,0,0,0,1.16.64l.63.55.58.6A1.21,1.21,0,0,0,425.79,6C426,6.21,426.18,6.41,426.37,6.61ZM399.08,51.12l.59.58,1.13.67c.09.38.19.78.68.78a.49.49,0,0,0,.32-.35c-.05-.48-.46-.54-.84-.62a1.27,1.27,0,0,0-1.16-.61l-.58-.6-.6-.59a1.24,1.24,0,0,0-1.22-1.17c-.2-.19-.39-.39-.6-.58l-.59-.58-.59-.6-.39-.23.26.36.61.57.58.6.59.59a1.27,1.27,0,0,0,1.2,1.2ZM419.26,6.6l.39.23-.23-.39-.62-.58a1.24,1.24,0,0,0-1.21-1.17l-.6-.58a1.19,1.19,0,0,0-1.18-.62l-.58-.59-.59-.6c-.11-.2-.18-.51-.46-.16a3,3,0,0,0,.33.3l.6.58.59.59a1.23,1.23,0,0,0,1.18.61l.58.6A1.21,1.21,0,0,0,418.65,6ZM403.79,48.78l.41.24-.23-.41-.63-.57a2.26,2.26,0,0,0-1.73-1.27,3.12,3.12,0,0,0-2.42-2.32l-.41-.22.24.4A3.1,3.1,0,0,0,401.45,47a2,2,0,0,0,1.77,1.19Zm-14.26,0,.41.23-.23-.41c-.13-.18-.23-.5-.5-.14C389.19,48.49,389.42,48.68,389.53,48.79Zm-43.91-.62.41.22-.23-.4-.62-.57-.62-.57a1.22,1.22,0,0,0-1.19-1.2l-.6-.57a1.17,1.17,0,0,0-1.18-.61l-.57-.61-.6-.59a2.05,2.05,0,0,0-1.8-1.79l-.39-.21.23.38a2,2,0,0,0,1.82,1.76l.6.59.61.57a1.18,1.18,0,0,0,1.15.64l.58.59A1.2,1.2,0,0,0,344.44,47l.59.6Zm-7.13,0,.4.21-.22-.39-.6-.59-.64-.56-.58-.6-.61-.58a1.23,1.23,0,0,0-1.18-.62l-.58-.59a1.52,1.52,0,0,0-1.14-1.5c-.34-.09-.57.12-.49.48.19.77.81,1,1.5,1.15l.6.58a1.25,1.25,0,0,0,1.16.63l.59.59c.21.2.41.39.62.57l.57.62ZM289.81,6l.4.21-.22-.4-.62-.57a2.05,2.05,0,0,0-1.82-1.77l-.39-.22.24.38a2,2,0,0,0,1.82,1.76ZM392,44.59l.58.59a1.26,1.26,0,0,0,1.18,1.22l.42.22-.24-.4a1.24,1.24,0,0,0-1.24-1.15l-.6-.58-.38-.26Zm-7.13,0,.59.59a2,2,0,0,0,1.78,1.8,3,3,0,0,0,.32.32c.35-.27,0-.37-.15-.5a2,2,0,0,0-1.85-1.73l-.58-.59-.38-.24ZM410.36,4.81l.59.58a1.19,1.19,0,0,0,1.19,1.2l.6.58.6.47.23-.32-.74-.25-.58-.6A1.18,1.18,0,0,0,411,5.29l-.58-.59c-.11-.18-.17-.51-.47-.17ZM390.15,43.42l.41.22-.23-.4-.61-.58-.6-.59a1.24,1.24,0,0,0-1.23-1.16l-.59-.58a1.19,1.19,0,0,0-1.16-.63l-.58-.59-.6-.59a1.21,1.21,0,0,0-1.22-1.17l-.59-.59-.59-.59a1.23,1.23,0,0,0-1.19-.61l-.57-.6c-.11-.67-.45-1.09-1.18-1-.08,0-.21.41-.18.43.39.25.81.47,1.22.7l.6.58a1.25,1.25,0,0,0,1.16.64l.62.56.59.59a1.19,1.19,0,0,0,1.19,1.2l.6.59.59.58a1.21,1.21,0,0,0,1.19.6l.58.59A1.23,1.23,0,0,0,389,42.23l.61.59Zm-7.11,0,.39.21-.23-.39-.62-.57a2,2,0,0,0-1.81-1.76l-.58-.59-.4-.23.26.36.59.59a2,2,0,0,0,1.8,1.78Zm20.18-38.6.6.58A1.23,1.23,0,0,0,405,6.61l.41.23-.24-.41a1.27,1.27,0,0,0-1.25-1.14l-.58-.59-.59-.6a1.2,1.2,0,0,0-1.19-.6L401,2.91l-.58-.6a1.24,1.24,0,0,0-1.2-1.2l-.4-.22.23.39a1.28,1.28,0,0,0,1.24,1.16l.6.58.59.59a1.22,1.22,0,0,0,1.15.64Zm5.36,35.61.58.59a1.26,1.26,0,0,0,1.17,1.22l.41.22-.22-.4a1.24,1.24,0,0,0-1.26-1.14l-.58-.59-.58-.61a1.27,1.27,0,0,0-1.19-.6l-.58-.6a2,2,0,0,0-1.78-1.8l-.42-.22.23.41a2.06,2.06,0,0,0,1.84,1.74l.59.58a1.19,1.19,0,0,0,1.16.63Zm-7.17,0,.4.23-.23-.4-.61-.59-.4-.23.24.39Zm-7.08,0,.58.6a1.19,1.19,0,0,0,1.2,1.18l.59.58.61.47.23-.32-.74-.25-.58-.59a1.19,1.19,0,0,0-1.2-1.19l-.6-.58-.58-.6a1.24,1.24,0,0,0-1.17-.62l-.65-.54c-.21-.42-.41-.84-.64-1.25,0,0-.4.09-.42.18-.13.78.41,1,1,1.11l.55.63a1.28,1.28,0,0,0,1.17.63Zm-57.62,0,.42.22-.24-.41-.63-.56a1.2,1.2,0,0,0-1.21-1.17l-.59-.59c-.12-.17-.17-.52-.47-.16l.36.27.59.59a1.21,1.21,0,0,0,1.19,1.2Zm41.56-1.19.42.22-.24-.4-.63-.56a1.2,1.2,0,0,0-1.21-1.18l-.58-.59c-.12-.18-.19-.51-.49-.16l.37.28.59.58a1.19,1.19,0,0,0,1.2,1.19Zm20.79-.59.4.22-.23-.4-.61-.59-.61-.57-.6-.59-.6-.59-.4-.23.27.37.6.58.59.6.6.59C398.66,38.28,398.86,38.48,399.06,38.68Zm-71.88-.57c.13.19.24.48.49.14,0,0-.19-.22-.3-.33s-.25-.47-.5-.12A2.83,2.83,0,0,0,327.18,38.11Zm-1.74-1.22.4.22-.24-.39-.61-.59-.59-.58-.62-.58-.59-.59c-.21-.15-.41-.31-.62-.45a3.28,3.28,0,0,0-.24.3l.73.28.6.59.58.6.6.59Zm85.47-.57c.13.18.22.49.49.14,0,0-.21-.2-.32-.31l-.42-.23C410.74,36.05,410.82,36.19,410.91,36.32Zm-79,0,.41.23-.23-.41-.62-.58c-.11-.2-.2-.5-.48-.15a3.93,3.93,0,0,0,.33.31Zm42.17-.6.4.21-.23-.39-.6-.59c-.12-.1-.31-.32-.33-.3-.36.27,0,.36.15.49Zm35.05-.62.37.24-.24-.37-.6-.59-.6-.59a1.22,1.22,0,0,0-1.21-1.18l-.6-.57-.38-.24.27.35.58.59a1.23,1.23,0,0,0,1.2,1.19l.6.59Zm-14.27,0,.39.22-.23-.39-.63-.57c-.1-.19-.15-.53-.47-.18l.35.31Zm-57.62-.58.4.23-.23-.39-.62-.58-.6-.59a1.2,1.2,0,0,0-1.18-.61l-.58-.59a1.18,1.18,0,0,0-1.22-1.18l-.58-.59-.59-.59a1.22,1.22,0,0,0-1.17-.63l-.62-.56-.59-.59a1.18,1.18,0,0,0-1.19-1.2l-.59-.58-.38-.24c.08.12.17.24.26.35l.59.59A1.19,1.19,0,0,0,329.61,28l.59.59.58.6a1.3,1.3,0,0,0,1.18.62l.61.58.59.59a1.21,1.21,0,0,0,1.2,1.19l.59.58a1.22,1.22,0,0,0,1.16.63l.6.59C336.9,34.13,337.09,34.33,337.29,34.53ZM294,3.05l.58.59c.22.93.6,1.68,1.8,1.72a1.77,1.77,0,0,0-1.66-1.86l-.59-.58-.4-.23Zm134.79-.59.41.22-.23-.41c-.12-.1-.31-.32-.33-.3C428.23,2.24,428.57,2.33,428.75,2.46ZM320.08,32.15l.42.22-.23-.41c-.13-.23-.25-.5-.52-.14C319.73,31.83,320,32,320.08,32.15Zm91.46-1.21.39.22-.23-.38-.61-.58-.6-.59a2,2,0,0,0-1.81-1.78l-.4-.22.24.39a2,2,0,0,0,1.82,1.76l.59.6Zm-7.13,0,.39.22-.22-.39-.62-.57-.6-.59c-.12-.2-.19-.52-.47-.16,0,0,.21.19.33.3l.6.59Zm-7.12,0,.6.57,1.12.69a3.15,3.15,0,0,0,2.42,2.32l.4.22-.23-.39A3.14,3.14,0,0,0,399.18,32,1.21,1.21,0,0,0,398,31.4l-.57-.6-.6-.59c-.11-.2-.19-.51-.47-.16l.33.3ZM407.37,2.46l.41.22-.24-.39a2.41,2.41,0,0,0-.33-.33C406.84,2.25,407.17,2.33,407.37,2.46ZM388.94,29.79c.13.19.24.48.5.14,0,0-.2-.22-.31-.33l-.62-.57-.6-.59-.41-.23.25.38.61.58C388.55,29.38,388.74,29.59,388.94,29.79Zm-44.49-1.22.38.22-.23-.38-.61-.58a1.19,1.19,0,0,0-1.23-1.16l-.59-.59-.58-.6c-.21-.41-.45-.78-1-.78-.05,0-.15.14-.14.21.07.57.52.65,1,.71l.63.56.58.59a1.23,1.23,0,0,0,1.18,1.2ZM386,27.39l.41.22-.24-.4-.62-.57c-.09-.48-.24-.91-.85-.88a.26.26,0,0,0-.19.19c0,.62.43.74.9.83Zm27.3-1.17.42.21-.23-.4-.63-.57c-.09-.48-.24-.91-.85-.87a.29.29,0,0,0-.2.19c0,.62.44.73.91.82ZM376.51,25l.58.59a2,2,0,0,0,1.8,1.79l.82.77.27-.37-.94-.59a2,2,0,0,0-1.84-1.71l-.59-.59-.58-.6a1.26,1.26,0,0,0-1.18-.61l-.58-.6-.61-.58a1.24,1.24,0,0,0-1.19-1.2l-.4-.23.23.39a1.25,1.25,0,0,0,1.24,1.16l.59.6.6.57a1.23,1.23,0,0,0,1.16.64Zm-50.46,0,.37.23-.24-.36-.61-.58L325.2,24l.25.36Zm20.77-.57.4.22-.24-.39-.62-.57a1.2,1.2,0,0,0-1.21-1.18l-.6-.58-.59-.59a5.44,5.44,0,0,0-.62-.45,2.53,2.53,0,0,0-.23.3l.72.28.61.57.59.59a1.22,1.22,0,0,0,1.19,1.2Zm-7.75-.57c.14.16.25.48.5.12,0,0-.19-.21-.3-.33s-.26-.5-.52-.13C338.73,23.53,339,23.73,339.07,23.85Zm49.3-.61.4.21-.22-.4-.63-.56a1.23,1.23,0,0,0-1.21-1.17l-.59-.59c-.12-.17-.18-.52-.48-.16l.36.28.59.58a1.19,1.19,0,0,0,1.2,1.2Zm19-2.4.59.58a1.25,1.25,0,0,0,1.17,1.23l.4.21-.22-.39a1.22,1.22,0,0,0-1.25-1.14l-.59-.6-.59-.59a1.25,1.25,0,0,0-1.15-.64l-.59-.59-.6-.59a1.22,1.22,0,0,0-1.24-1.15l-.58-.59-.59-.6-.39-.22.26.36.61.56.6.59a1.21,1.21,0,0,0,1.18,1.21l.6.58.59.58a1.29,1.29,0,0,0,1.19.61Zm-7.18.05c.13.19.24.48.49.14,0,0-.19-.21-.3-.32l-.63-.57a1.2,1.2,0,0,0-1.17-.62l-.59-.59-.6-.58a1.24,1.24,0,0,0-1.18-1.22l-.41-.22.24.4a1.24,1.24,0,0,0,1.23,1.15l.6.6.59.58a1.26,1.26,0,0,0,1.18.62Zm-21.34,0,.6.58c.07.49.21.92.82.9a.29.29,0,0,0,.2-.19c0-.62-.44-.73-.91-.82l-.59-.59-.38-.23Zm-8.3-.59.39.21-.23-.37-.62-.58-.6-.59a2,2,0,0,0-1.8-1.78l-.82-.77-.27.36.92.61a2,2,0,0,0,1.84,1.71l.6.6Zm57-.6.59.59c.07.48.22.9.82.88a.27.27,0,0,0,.19-.18c0-.62-.43-.73-.89-.82l-.59-.59-.39-.23Zm-43.34,0,.41.22-.24-.4-.63-.56A1.91,1.91,0,0,0,382,17.16l-.58-.59-.4-.24.27.38.6.57a1.92,1.92,0,0,0,1.8,1.78C383.83,19.26,384,19.47,384.22,19.67Zm-7.12,0,.4.22-.24-.39-.61-.58a1.23,1.23,0,0,0-1.22-1.17l-.6-.58c-.11-.17-.17-.53-.47-.17l.36.28.58.6a1.22,1.22,0,0,0,1.2,1.19Zm-35.65,0,.41.21-.23-.4c-.13-.2-.23-.51-.5-.14A4,4,0,0,0,341.45,19.69Zm-36.22-.6.38.22-.23-.37-.61-.58a1.21,1.21,0,0,0-1.17-.63l-.58-.58-.6-.6A4.36,4.36,0,0,0,300,14.5c0,1.8,1,2.11,2.26,2.2l.61.58.58.58a1.26,1.26,0,0,0,1.17.63ZM411,18.4l.21.12-.22-.11-.22-.15Zm-31.42-3-.59-.59a2,2,0,0,0-1.79-1.8l-.39-.22.23.39a2,2,0,0,0,1.84,1.73l.59.59.38.24Zm39.66-2.85.63.55c.09.37.1.8.59.86.09,0,.33-.22.31-.32-.06-.49-.49-.49-.85-.58l-.56-.62a6.37,6.37,0,0,0-.61-.45,2.25,2.25,0,0,0-.24.3ZM415.7,28l.57.6c.1.67.44,1.09,1.17,1,.08,0,.21-.41.19-.42-.4-.25-.81-.48-1.23-.71l-.6-.57-.61-.47-.23.32Zm.1,6.41-.58-.59a2,2,0,0,0-1.79-1.8l-.39-.23.23.39a2,2,0,0,0,1.84,1.74l.59.59a1.13,1.13,0,0,0,1.19.61l.29.21L417,35A1.16,1.16,0,0,0,415.8,34.38ZM405,12.52l.59.6a2,2,0,0,0,1.77,1.8l.41.22-.24-.39A2,2,0,0,0,405.7,13l-.59-.59c-.19-.42-.44-.78-1-.78-.05,0-.15.15-.14.22C404.1,12.43,404.55,12.49,405,12.52ZM409.27,16l-.38-.22.23.37c.1.48.25.92.86.89a.27.27,0,0,0,.18-.19C410.19,16.19,409.73,16.07,409.27,16Zm-18,9.67c.14.19.24.5.5.14,0,0-.2-.21-.3-.33a1.36,1.36,0,0,0-1.23-1.18l-.4-.21.23.39A1.29,1.29,0,0,0,391.31,25.63ZM291.71,7.05l-.39-.22.23.39c.1.47.25.91.86.88.07,0,.18-.12.19-.19C292.63,7.3,292.17,7.18,291.71,7.05Zm91.91,55.38.4.23-.23-.41c-.08-.38-.19-.76-.66-.79-.1,0-.33.22-.32.32C382.84,62.26,383.24,62.35,383.62,62.43Zm-29-.76-.4-.22.24.38a2.22,2.22,0,0,0,1.28,1.69c.22.16.32.72.73.2l-.74-.19C355.73,62.72,355.78,61.84,354.66,61.67ZM357,57.52l-.4-.23.23.4c.25.4.48.8.75,1.18,0,0,.4-.1.41-.19C358.13,57.94,357.67,57.64,357,57.52ZM303.46,5.43l.41.21-.23-.4c-.17-.72-.54-1.23-1.37-1-.16.06-.38.52-.31.65C302.28,5.5,302.92,5.35,303.46,5.43Zm76.13,3.4-.4-.22.23.39a1.62,1.62,0,0,0,1.19,1.47c.35.08.57-.14.48-.48C380.9,9.22,380.27,9,379.59,8.83ZM345,4.24l.4.22-.24-.39c-.13-.69-.38-1.29-1.15-1.46a.39.39,0,0,0-.49.49C343.72,3.87,344.35,4.1,345,4.24ZM381.38,29l-.41-.23.24.4c.16.7.38,1.36,1.25,1.41.11,0,.35-.23.35-.35C382.75,29.36,382.06,29.19,381.38,29Zm-32.19-8.74.4.21-.23-.4c-.18-.69-.4-1.34-1.26-1.39-.12,0-.35.23-.35.35C347.81,19.92,348.51,20.08,349.19,20.27Zm76.6-1.79.39.22-.23-.39a1.63,1.63,0,0,0-1.19-1.46c-.35-.09-.56.13-.47.48C424.48,18.09,425.1,18.34,425.79,18.48ZM346.35,29.6l-.41-.22.23.41c.25.91.62,1.68,1.78,1.69C348,30.25,347.27,29.82,346.35,29.6Zm60.42-2.8.41.22-.23-.4c-.25-.91-.62-1.68-1.83-1.7A1.85,1.85,0,0,0,406.77,26.8ZM373.55,4.22l.38.23-.23-.38a2.65,2.65,0,0,0-2.31-2.13A2.61,2.61,0,0,0,373.55,4.22Zm-50.95,13c0-.07.16-.16.14-.23a2.6,2.6,0,0,0-.19-.42.89.89,0,0,0-.1-.48c.22-2.5,2.69-3.46,3.7-5.42,1,.23,1.26,1.14,1.65,1.92,0,1.9,1.32,2.29,2.75,2.09a2.25,2.25,0,0,0,2-2.51c-.12-1.17-.31-2.71-2.27-2.06-3.14-.13-3.77-3-5.3-4.86-.25-1.8-1.51-2.1-3-1.83a2.13,2.13,0,0,0-1.85,2.27c.07,1.43.54,2.7,2.42,2.42a2.7,2.7,0,0,1,2.13,1.28c-1.8,1.49-3.7,2.93-3.44,5.68a7.62,7.62,0,0,1-2.88-2.64c-.38-1.88-1.73-2-3.12-1.47a2.21,2.21,0,0,0-1.54,2.79c.4,1.43,1.21,2.5,3,1.78l1.2.9c-.45,2.53-2.93,3.3-4.33,5-.77-.44-1.78-.64-1.81-1.82-.44-1.71-1.69-1.69-3-1.23a2.19,2.19,0,0,0-1.57,2.26c.13,1.27.48,2.58,2.29,2.27.94.17,1.91.28,2.38,1.31-2.87,3.33-5.72,6.68-8.62,10-.62.71-1.4,1.53-.5,2.21s1.3-.55,1.78-1.12q4.29-5,8.55-10a3.22,3.22,0,0,1,1.57,1.39c-.39,1.76.63,2.59,2.11,2.94a2.09,2.09,0,0,0,2.57-1.51c.42-1.37.47-2.81-1.49-3.17a6.57,6.57,0,0,1-2.81-2.24c.87,0,1.27-.71,1.85-1.24,1.1-1,1.9-2.55,3.74-2.43.36,1.74,1.05,3.23,3.14,3.19a2.24,2.24,0,0,0,2.21-2c.23-1.33,0-2.54-1.7-2.81-.56-.1-1.07-.61-1.69-.24Zm80.59,18.32-.19-.18a3,3,0,0,0-.2.4s.12.11.18.17Zm7.72-11.63-.19-.42c-.07,0-.21.11-.2.13a3.25,3.25,0,0,0,.18.43Zm-66.43-7.45.21-.1c-.06-.05-.12-.13-.18-.13s-.14.06-.21.09Zm50.21-.69c-.07,0-.21.11-.2.13a3.2,3.2,0,0,0,.17.43c.07,0,.21-.11.21-.13A3.25,3.25,0,0,0,394.69,15.75ZM409.12,3.69l-.21-.4c-.06,0-.19.12-.18.15a3.86,3.86,0,0,0,.2.41ZM355.44,56.23l.09-.12-.14,0Zm33.8-44.69.14.1,0-.14Z"/><path class="cls-5" d="M246.5,184.22a43.53,43.53,0,0,1,10.63,3.06c7.75,3.11,15.26,6.74,22.95,10,5.41,2.27,11.1,4.07,16,7.54,3.56,2.52,4.9,6.59,7.05,10.06,5.43,8.81,10.61,17.77,16,26.63,1.67,2.76,2,5.43.55,8.39a5.15,5.15,0,0,0,3,7.31,3.18,3.18,0,0,1,2.54,2.73,15.8,15.8,0,0,0,2.55,5.64c.32.5.77.95.32,1.58a1.08,1.08,0,0,1-1.28.52,17.85,17.85,0,0,0-8.29-1.83c-.73,0-.68-.82-.59-1.42,1.55-.12,2-1.2,1.13-2.16-2.83-3-1.44-9-7.1-10.07-.38-.07-.64-.71-1-1.09-1.72-2.8-4.7-4.24-6.94-6.47-.64-1.13-1.83-1.62-2.79-2.38-1.22-1.07-2.21-2.46-4.26-3.11a9.64,9.64,0,0,1-.43,7.83c-1.33,2.19-.58,3.71,1.55,4.78l6.58,5.4a2,2,0,0,1,0,.43c-1.38.72-1.37,2.32-2.15,3.44-3,4.31-7.93,5.09-11.65,1.46-1.84-1.8-3-2.21-5.06-.11-3.25,3.38-7.84,3.37-11.4.13-1.93-1.78-3.56-1.6-5.47-.24-3.81,2.71-7.05,2.51-10.42-.58-2.26-2.07-4.95-2.35-7.41-.28a29.23,29.23,0,0,1-13.74,6.44c-6,1.15-12,.45-17.87-.86-2.73-.61-3.21-.21-2.15,2.3.72,1.69,0,2-1.29,2.42-3.49,1.06-6.94,2.27-10.46,3.22-2,.52-2.62,1.47-1.79,3.27s.18,2.57-1.61,3.13C175.5,289.76,19.49,338.94,19,339H0v-1c3.56-1.12,127.78-39.81,131.34-40.94q29.57-9.35,59.12-18.71c4.76-1.51,4.74-1.57,3.85-6.35,3.85-1.81,8-2.64,12.06-3.95,1.93-.63,2.14-1.41,1.57-3.2-3.52-11-6.83-22.12-10.66-33-.75-2.12-1.11-4.38-1.9-6.48s.21-2.75,1.82-3.2c3.19-.88,6.2-2.29,9.34-3.26s5.43-3.13,7.8-5.13c6.32-5.31,12.51-10.75,18.76-16.14,1.59.88,2.67,3.19,5.08,1.87,10.19,8.92,20.61,17.61,30.48,26.87,5.7,5.35,11.38,9.28,19.58,7.16.83-.22,1.79.06,3.42.15l-47.6-41.26c0-1.24.93-1.93,1.71-2.62C247.68,188.11,248.88,186.42,246.5,184.22Z"/><path class="cls-6" d="M194.31,272c.89,4.78.91,4.84-3.85,6.35q-29.55,9.39-59.12,18.71C127.78,298.2,3.56,336.89,0,338V273c4.26.6,128.43-38.62,132.32-39.55a136.72,136.72,0,0,0,13.87-4.37c2.76-1,11-3.6,12.39-4,5.38-1.67,10.75-3.38,16.08-5.18,1.9-.64,2.65-.3,3.29,1.76,5,15.95,10.08,31.84,15.19,47.74C193.43,270.29,193.4,271.37,194.31,272Z"/><path class="cls-3" d="M437.67,171.52c.6,2.23,3,2,4.42,3,1.23.89,1.5,1.43.82,2.79-3.59,7.23-7.08,14.53-10.64,21.78-7.66,15.62-15.17,31.33-23.09,46.82-7.56,14.79-14.51,29.88-22.19,44.61C380.26,303.46,363,337,361.47,340h-8.31c0-2.51,37.15-73,61.42-122.12q11.09-22.44,22.11-44.91A12.41,12.41,0,0,1,437.67,171.52Z"/><path class="cls-3" d="M342.57,76.08a2.71,2.71,0,0,1,2.91,1c2,2.49,5,3.84,7.08,6.17,1.37,1.51,3.05,1.33,4.66.88a20.89,20.89,0,0,0,10.26-6.17c1.41-1.61,2.14-1.71,3.29.08,2.46,3.78,5.89,6.56,9.49,9.21,2.11,1.55,3.52,1.08,5-.71,2.66-3.12,5.42-6.16,8.11-9.27,5.42-6.28,10.78-12.62,16.29-18.82.72-.81.27-2.62,2.06-2.49a1.86,1.86,0,0,0,.6,1.85c2.56,2.06,5.68,2.07,7.94-.33,3.09-3.28,6-6.72,9-10.11,6.45-7.41,13.18-14.58,19.2-22.35,4.7-4.66,8.83-9.83,13.08-14.88,2.33-2.77,1.08-6.68-2.41-8.62l0-1.49h1.18c1.73,2.44,4.23,4,6.49,5.89,1.13.93,1.5,1.73.57,2.93-5.27,6-10.57,12-15.81,18q-17.19,19.8-34.32,39.62Q399.56,86.82,381.9,107.2c-1.23,1.43-2,1.65-3.51.29-5.06-4.56-10.31-8.91-15.42-13.42C356.18,88.06,349.06,82.42,342.57,76.08Z"/><path class="cls-7" d="M342.57,76.08c6.49,6.34,13.61,12,20.4,18,5.11,4.51,10.36,8.86,15.42,13.42,1.51,1.36,2.28,1.14,3.51-.29q17.6-20.42,35.31-40.75,17.18-19.8,34.32-39.62c5.24-6,10.54-12,15.81-18a14.59,14.59,0,0,1,1.55.86c3.09,2.17,3.27,3.26.81,6.09-8.33,9.57-16.74,19.08-25,28.68-9.47,10.94-18.81,22-28.28,32.92-6.26,7.22-12.71,14.28-19,21.48q-5.82,6.66-11.39,13.55c-1.25,1.54-2.12,1.93-3.81.47-9.29-8.06-18.72-16-28-24C347.53,83.16,341,77.3,334.43,71.56,325.74,64,317,56.55,308.27,49c-7.72-6.69-15.37-13.46-23.09-20.15-10-8.7-20.11-17.34-30.14-26-.86-.75-1.95-1.43-2-2.81h2.37c.68,2,2.63,2.84,4.07,4.09Q301,40.14,342.57,76.08Z"/><path class="cls-7" d="M348.68,5.88c-.4-2-.81-3.92-1.21-5.88H357c2,5.65,3.14,11.56,4.63,17.36,3.14,12.19,6.11,24.43,9.15,36.66-1.19,1.23-3.39.17-4.37,1.9-1.7-.34-3,1.11-4.65,1-1.41-3-1.31-6.37-2.52-9.41a7.51,7.51,0,0,0-1-4.24q-1.29-5.3-2.57-10.6a6.11,6.11,0,0,0-1-3.1c-.46-1.94-.93-3.88-1.39-5.83a6.09,6.09,0,0,0-1-3.69,10.48,10.48,0,0,0-1.45-4.65,2.17,2.17,0,0,0-.35-2.4c-.32-1.37-.63-2.74-.94-4.1A6.37,6.37,0,0,0,348.68,5.88Z"/><path class="cls-8" d="M370.75,54c-3-12.23-6-24.47-9.15-36.66C360.11,11.56,359,5.65,357,0h1.78a9.7,9.7,0,0,0,3.06,5.86l-.18.18c-1.22,0-1.08.73-.91,1.6A21.12,21.12,0,0,0,363,13.55l-.15.18-.23.16.29.37v0c-.41,3.55.88,6.3,4.11,7.92-.89,1.46-1.51-.2-2.31.42.75,2,.06,4.6,2.34,6.22.94.67-.59,1-.4,1.68.68,2.37.36,5.2,3.14,6.59.44.22,1.21.65.8,1.25-.21.31-1.09.15-1.66.2-.11-.25-.22-.5-.32-.75-.08.06-.22.15-.21.17.12.24.26.47.4.7-.38,3.68,2.29,5.73,4.32,8.14l-.18.21-2.3-1c.5,3.17,1,6.1,4,7.72-.78,1.41-1.41-.26-2.16.28.51,2.22.2,4.78,2.34,6.52l-.1.1c-.74.2-1.81-1.22-2.18.15-.33,1.2-.69,2.69.41,3.81.73.75,1.73,1.26,1.93,2.42l-.17.17c-1.06.59-2.27-3.42-3.4.14-.15.46-1.66-.79-2.52-1.27a6.21,6.21,0,0,0,1-3.72C369.59,59.49,371.33,56.88,370.75,54Z"/><path class="cls-9" d="M334.07,4.71A16.87,16.87,0,0,0,327.87,0h6.54c-.07,1.67,1.39,1.82,2.4,2.42C337.06,4.58,336.75,6.06,334.07,4.71Z"/><path class="cls-8" d="M291.65,0l.71,1.67-.18.2c-1-.25-1.71-.73-1.71-1.87Z"/><path class="cls-8" d="M285.07,1.85A1.88,1.88,0,0,1,283.34,0h1.19l.7,1.68Z"/><path class="cls-8" d="M362.91,0l.66,1.12-.16.16c-.76-.08-1.2-.45-1.1-1.28Z"/><path class="cls-8" d="M313,1.25A1,1,0,0,1,312.44,0H313c0,.37.05.75.08,1.12Z"/><path class="cls-10" d="M238.18,199.48c-2.41,1.32-3.49-1-5.08-1.87l-3.23-3.2c3-2.7,5-6.41,8.44-8.69,1.82.28,2.56,2,4,2.9.67.41,1.24.55,1.78-.16.37-.49.78-1.1.11-1.52-3.34-2.14-6.53-4.55-10.33-5.89l1.64,2-7.89,9.3q-9-7.7-18-15.38c-.87-.74-.88-1.36-.13-2.21q3.25-3.66,6.37-7.43c.95-1.15,1.64-.45,2.51.06,2.28,1.35,4.29,3.18,6.89,4a1.94,1.94,0,0,0,2.16.85l.19.16c.17,1.47,1.29,1.09,2.19,1.12l.09.09a3.38,3.38,0,0,0,3.45,2.24l.15.14c.73,1.79,2.29,2.14,4,2.29l.64.22c1.95,3.1,5.05,4.52,8.33,5.66l.14.12c2.38,2.2,1.18,3.89-.73,5.56-.78.69-1.71,1.38-1.71,2.62C241.69,194.42,239,196.18,238.18,199.48Z"/><path class="cls-8" d="M209.53,119.24c0,5.74-2.61,10.13-6.87,13.84-1.87,1.63-3.24,3.85-4.84,5.8-2.57.82-3.94,2.18-2.3,5,1.36,2.31,1,4.73.35,7.45a48.81,48.81,0,0,1-3-8.69c-1.15-.12-1.61,1.41-2.94.71l.45-4.34c3.06-1.05,1.78-3.84,1.23-5.16a47.71,47.71,0,0,0-5.61-9.43c-1.3-1.77-1.72-3.22-.56-5.06,1.22-.24,1.35,1.25,2.27,1.5,2.54-5.71,3.78-6.58,9.66-6.78a10.1,10.1,0,0,0,2.65-.11c3.51-1.11,5,1,6.22,3.69.4.89.75,1.79,1.12,2.67C208.31,120.15,208.61,119.07,209.53,119.24Z"/><path class="cls-9" d="M190.42,139l-.45,4.34c1.33.7,1.79-.83,2.94-.71a48.81,48.81,0,0,0,3,8.69c.66-2.72,1-5.14-.35-7.45-1.64-2.78-.27-4.14,2.3-5,2.52,1.42,2.9,3.24,1.39,5.75-1.12,1.87-.7,4-.09,6.36a29.51,29.51,0,0,0,3-8.24c1.08-.23,1.57,1.22,2.75.8,0-.33,0-.71.1-1.08.22-1.15-1.05-2.89.44-3.37s3.32.37,4.55,1.59a12,12,0,0,1,1.54,2.46c-.34.17-.7.5-1,.47-2.65-.28-3.38,1-3.18,3.45.17,2,0,4.07,0,6.11-5.84.39-11.7-.25-17.53.41-3.2-.75-6.45-.19-9.67-.36l-.21-.08c1.08-3.27,2-6.61,3.28-9.81C184.64,139.82,186.44,138.87,190.42,139Z"/><path class="cls-8" d="M189.85,153.59c5.83-.66,11.69,0,17.53-.41,3.82-2.19,6.39-5.66,9.18-8.92.1-1.17.28-2.34.28-3.52q0-16.14,0-32.29c0-.69,0-1.38,0-2.07a1.7,1.7,0,0,1,1.84-1.84c1.37-.07,1.65.68,1.65,1.84q0,19.71,0,39.4a2.52,2.52,0,0,1-.73,1.88L211.25,156c-.88.88-2,.65-3.09.66l-19.55.05-.4,0A6.69,6.69,0,0,0,189.85,153.59Z"/><path class="cls-10" d="M337,158.08c-1,.52-1.41,1.62-2.14,2.41-.46.51-.85,1.13-1.71.78a1.49,1.49,0,0,1-.89-1.93,8.49,8.49,0,0,1,0-.88c.29-1,1.25-2.28-.19-2.69-.91-.26-1.06,1.35-1.46,2.19s-.4,1.95-1.77,1.33-.74-1.56-.3-2.44c2-4.07,4-8.13,6-12.22.54-1.12,1-1.84,2.45-1.23,1.24.54,1.39,1.2,1.1,2.53-.58,2.76-1.93,5.36-2,8.85,2.51-1.89,3.63-4.33,5.22-6.33.92-1.15,1.58-2.23,3.32-1.26,2,1.09.51,2.26.07,3.21-1.78,3.85-3.7,7.64-5.64,11.41-.38.74-.4,2.26-1.92,1.58s-.64-1.76-.25-2.72l.75-1.92c.37-.41.85-.93.23-1.35C337.41,157.08,337.11,157.63,337,158.08Zm-1-3.05c-.06.06-.16.12-.16.18s.08.14.13.21.16-.12.16-.18S336,155.1,335.91,155Z"/><path class="cls-6" d="M209.53,119.24c-.92-.17-1.22.91-2.13,1.05-.37-.88-.72-1.78-1.12-2.67-1.22-2.65-2.71-4.8-6.22-3.69a10.1,10.1,0,0,1-2.65.11c-5.88.2-7.12,1.07-9.66,6.78-.92-.25-1.05-1.74-2.27-1.5-.19-7.11,4.85-12.7,11.74-13C203.73,106,209.22,111.8,209.53,119.24Z"/><path class="cls-10" d="M293.05,124.14a3.46,3.46,0,0,1-.41,1.16c-2.61,3.46-3.52,7.71-5.48,11.47-.4.75-.62,1.7-1.92,1.09s-1-1.41-.54-2.38c.71-1.4,1.41-2.82,2-4.26.33-.73.55-1.6-.48-2s-1.19.47-1.49,1.05c-.77,1.49-1.49,3-2.23,4.5-.39.78-.86,1.3-1.85.77a1.32,1.32,0,0,1-.63-2q3.31-6.75,6.68-13.5a1.69,1.69,0,0,1,.74-.83C289.09,118.73,293.25,122.23,293.05,124.14Zm-4-1.8c-1.16.8-1.54,2.24-2.09,3.52a.83.83,0,0,0,.79,1.23c1.83-.21,2-1.92,2.53-3.21C290.61,123.1,290.05,122.62,289.06,122.34Z"/><path class="cls-10" d="M283.89,119.57a5.73,5.73,0,0,1-.9,2.33c-2.72,2.77-2.9,6.71-4.78,9.85-.51.85-.57,2.31-2.22,1.46s-.51-1.83-.15-2.73c.55-1.37,1.22-2.69,1.77-4.07.28-.68.26-1.41-.61-1.7s-1,.47-1.26,1c-.81,1.47-1.6,3-2.33,4.46a1.36,1.36,0,0,1-2.12.76c-1.11-.52-.69-1.2-.33-1.93,2.16-4.33,4.35-8.65,6.43-13,.57-1.2,1.14-1.3,2.29-.83C282.57,116.29,283.87,117.44,283.89,119.57Zm-4.1-1.56c-1.12.81-1.5,2.22-1.89,3.59a.72.72,0,0,0,.88.87c1.72-.41,2-1.92,2.3-3.35C281.2,118.48,280.75,118,279.79,118Z"/><path class="cls-10" d="M303.33,144.53a10.14,10.14,0,0,1,.53-1.73c1.74-3.65,3.56-7.26,5.3-10.92.51-1.07,1.13-1.56,2.31-1,1.38.61.55,1.46.2,2.18-1.63,3.37-3.31,6.73-5,10.1-.39.79-1,1.83,0,2.39,1.25.72,1.7-.56,2.12-1.39q2.55-5,5-10.09c.49-1,.93-1.59,2.21-1s.72,1.4.34,2.16c-1.84,3.71-3.63,7.45-5.6,11.1-.89,1.64-2.28,2.81-4.39,2C304.76,147.7,303.33,146.85,303.33,144.53Z"/><path class="cls-10" d="M266.15,128.16c-3-.07-4.78-2.52-3.59-5.3,1.65-3.9,3.62-7.66,5.49-11.46.38-.76.74-1.73,2-1,1.05.59.91,1.36.46,2.25-1.45,2.91-3,5.8-4.28,8.77-.55,1.21-2.36,2.9-.7,3.79s2.09-1.5,2.72-2.66c1.55-2.86,2.94-5.8,4.38-8.72.4-.83.75-1.69,1.94-1.19s1,1.48.54,2.44c-1.71,3.44-3.37,6.91-5.14,10.31C269.16,126.85,268.2,128.28,266.15,128.16Z"/><path class="cls-10" d="M319.59,152.83a6,6,0,0,1,.68-2.85c1.66-3.36,3.34-6.72,5-10.08.44-.9.75-1.86,2.15-1.13s.71,1.62.3,2.45c-1.6,3.28-3.24,6.54-4.86,9.82-.43.86-1.16,2,0,2.58s1.68-.68,2.12-1.52c1.61-3.16,3.14-6.37,4.76-9.52.45-.86.59-2.32,2.23-1.61s.68,1.73.23,2.63c-1.84,3.71-3.64,7.44-5.6,11.08a3.09,3.09,0,0,1-4,1.65C321,155.73,319.48,155,319.59,152.83Z"/><path class="cls-10" d="M253.44,119.62c1.45-4.08,3.14-8.5,6.23-12.17,1.07-1.26,2.67-1.14,4.09-.35a3.22,3.22,0,0,1,1.85,3.67,9.61,9.61,0,0,1-.86,2.5c-.39.78-.49,2.06-2,1.43s-.8-1.5-.47-2.39a13.59,13.59,0,0,0,.51-1.39c.15-.59.13-1.21-.53-1.5s-1,.17-1.19.6c-1.54,3-3.06,6-4.53,9a1.19,1.19,0,0,0,.24,1.61c.76.46,1.18-.25,1.72-.68.94-.74.71-3.79,2.82-2,1.66,1.4-.36,3-1.11,4.26a3.12,3.12,0,0,1-4.08,1.45A3.87,3.87,0,0,1,253.44,119.62Z"/><path class="cls-10" d="M376.33,163.66c-.37,1.14-.73,2.26-1.08,3.39q-1.83,5.77-3.64,11.55c-.22.7-.42,1.39-1.38,1.1s-1.48-.66-1.08-1.7.69-2-.73-2.69-1.76.38-2.27,1.18c-.62,1-1.31.63-2,.21-.87-.51-.51-1.12-.1-1.73l8.49-12.46c.51-.75,1.15-1.08,2-.53S376.3,162.49,376.33,163.66Zm-4.59,4.91c-1.4.93-1.89,2.24-2.66,3.3a.9.9,0,0,0,.36,1.46.94.94,0,0,0,1.43-.52A7.53,7.53,0,0,0,371.74,168.57Z"/><path class="cls-10" d="M294.62,140.35c1.54-4.44,3.2-8.86,6.29-12.53,1.09-1.3,2.67-1.08,4.09-.31a3.15,3.15,0,0,1,1.86,3.66,16.48,16.48,0,0,1-1.17,3c-.29.66-.69,1.16-1.6.75a1.35,1.35,0,0,1-.88-1.85c.25-1,2.11-2.45.17-3.16-1.45-.52-1.81,1.47-2.38,2.54-1.15,2.18-2.21,4.4-3.26,6.64-.32.69-.68,1.65.24,2.08s1.41-.42,1.82-1.1.62-1.24,1-1.82,1-.52,1.57-.25,1.06.47.84,1c-.64,1.64-1.23,3.35-2.75,4.46a3.37,3.37,0,0,1-3.89,0A3.41,3.41,0,0,1,294.62,140.35Z"/><path class="cls-10" d="M311,251.08c.32.38.58,1,1,1.09,5.66,1,4.27,7,7.1,10.07.89,1,.42,2-1.13,2.16a8.11,8.11,0,0,0-4.14-2.09c-2.51-.65-5.69,0-6.52-3.75-.23-1.06-1.61-.88-2.57-1a2,2,0,0,0,0-.43C307.71,256.08,308.59,252.79,311,251.08Z"/><path class="cls-10" d="M358.34,154.71c-.16.24-.35.57-.57.89-2.73,4-5.48,8-8.18,12a1.7,1.7,0,0,1-2.46.76c-1.27-.57-1.44-1.33-1-2.59,1.43-4.4,2.76-8.84,4.16-13.25.25-.78.33-1.91,1.68-1.56s1.12,1.33.78,2.32c-.64,1.86-1.26,3.73-1.92,5.58-.16.45-.63.91-.11,1.31s1.1,0,1.43-.53c1.22-1.79,2.41-3.6,3.6-5.42.41-.64.88-1.09,1.68-.61C357.81,153.83,358.35,154,358.34,154.71Z"/><path class="cls-10" d="M380.12,175.73c-1.67-1-2.05.63-2.64,1.83s-1.39,2.54.57,3.4a1.12,1.12,0,0,1,.64,1.68c-.5,1-1.21.65-2,.35-4-1.53-4.13-1.73-2.24-5.6q2.58-5.31,5.25-10.58c.36-.72.59-2,1.82-1.32,1.42.75,3.42.91,4,2.58.3.86-.51,2-1.88,1.15-1-.58-1.92-.81-2.31.57s-2.19,2.5-.11,3.79c.77.48,1.19,1,.64,1.9C381.5,176.14,381,176.2,380.12,175.73Z"/><path class="cls-10" d="M360.33,174.79c-1.47-.45-2.11-1.06-1.29-2.6,1.76-3.3,3.36-6.68,5-10,.48-1,1.24-1.87-.08-2.81-.6-.42-.38-1.05,0-1.56s1-.42,1.58-.17c1.25.57,2.5,1.15,3.75,1.75.55.26,1.08.6.78,1.34-.22.53-.43,1.27-1.17,1.11-1.84-.42-2.08,1-2.63,2.13-1.56,3.08-3.06,6.18-4.64,9.24C361.34,173.82,361.29,174.81,360.33,174.79Z"/><path class="cls-10" d="M317.78,151.74c-.24.45-.35,1-.61,1.1-1.72.52-2.86-.89-4.27-1.42-1-.39-1.24-1.1-.73-2.11,2.2-4.4,4.41-8.8,6.54-13.23.55-1.14,1.21-1,2.12-.6,1.21.52.6,1.33.3,2-1.57,3.29-3.19,6.55-4.83,9.8-.72,1.43-1.76,2.86.71,3.69C317.32,151,317.51,151.44,317.78,151.74Z"/><path class="cls-10" d="M290.6,140.39c-1.31-.43-2-.91-1.27-2.37,2.24-4.38,4.39-8.8,6.55-13.22.4-.81.81-1.31,1.81-.76.83.46,1.14.93.67,1.87-2.28,4.59-4.51,9.19-6.76,13.78C291.37,140.16,291.05,140.5,290.6,140.39Z"/><path class="cls-10" d="M362.59,156.9c-.14.33-.28.7-.46,1.06l-6.33,12.73c-.42.84-.82,1.55-2,.93s-.8-1.37-.39-2.2l6.42-13c.31-.62.55-1.4,1.48-1C361.9,155.72,362.62,156,362.59,156.9Z"/><path class="cls-10" d="M216.56,144.26c-2.79,3.26-5.36,6.73-9.18,8.92,0-2,.14-4.09,0-6.11-.2-2.43.53-3.73,3.18-3.45.32,0,.68-.3,1-.47C213.07,144.18,214.92,143.77,216.56,144.26Z"/><path class="cls-9" d="M238.31,185.72c-3.45,2.28-5.42,6-8.44,8.69a4.33,4.33,0,0,1-2.28-2.08l7.89-9.29A3.63,3.63,0,0,1,238.31,185.72Z"/><path class="cls-8" d="M246.36,184.1c-3.28-1.14-6.38-2.56-8.33-5.66C241.05,180,244.48,180.9,246.36,184.1Z"/><path class="cls-8" d="M237.39,178.22c-1.67-.15-3.23-.5-4-2.29C235.4,175.57,236.49,176.73,237.39,178.22Z"/><path class="cls-8" d="M233.28,175.79a3.38,3.38,0,0,1-3.45-2.24C231.76,173.09,232.62,174.29,233.28,175.79Z"/><path class="cls-8" d="M229.74,173.46c-.9,0-2,.35-2.19-1.12C228.61,172.06,229.51,172.11,229.74,173.46Z"/><path class="cls-8" d="M227.36,172.18a1.94,1.94,0,0,1-2.16-.85C226.19,170.93,227.21,170.45,227.36,172.18Z"/><path class="cls-3" d="M467.77,294.35c-3.95-5.75-7-11.9-8-18.89-3.71-26.18,16.82-46,38.27-46.3,19.25-.23,32.12,9,39.72,26.28a68,68,0,0,1,2.32,11.75c.41,4.37.46,4.37,4.81,4.64,3.44,1.3,2.83,4,2.32,6.68-1.12,2.6-3.22,3.08-5.61,2.29s-3.19,0-4,2.25c-3.54,9.92-10,17.54-19.46,22.14-17.74,8.62-36.11,4.77-49.76-10l0,.05Zm31.83-.66a24.3,24.3,0,0,0,24.59-24.4,24.75,24.75,0,0,0-24.68-24.48,24.46,24.46,0,0,0-24.15,24.29C475.33,283,485.83,293.64,499.6,293.69Z"/><path class="cls-9" d="M214.72,71.6c-4-4.17-7.36-8.69-8.83-14.4l-.36-.66v-.11c-.45-2.83-1.94-4.61-4.92-4.91-3.63-.36-5.29,0-7.32,4.08-.41,1.21-.88,2.4-1.23,3.63a22.12,22.12,0,0,1-5.38,10c-5.8,5.82-12.91,6.21-20.42,5-.95-.33-1.83-1.08-2.93-.49h0c-3.83-1.82-7.59-3.91-12.09-3.32-2.36-3.31-.56-6.89-.65-10.34-.11-4.37.3-8.72-4-11.83-2.53-1.83-1.16-6.81,1.9-7.5A90.59,90.59,0,0,1,169.87,39c8.91.13,17.56,2.17,26.29,3.67,4.32.75,8.68-.15,12.79-1.31,12.19-3.44,24.56-4,37-2.77,2.43.23,6.1-.31,6.78,3.73.08.27.15.54.23.81h0c-.13,1.22.16,2.51-1.27,3.34-3.09,1.81-3.33,5-3.83,8.13-.63,3.91,1.34,7.59.84,11.53-.44,3.51-.75,3.9-4.33,3-.62-.74-1.12-.71-1.94-.08-6.59,5.07-14.22,5.21-22,4.52Zm28.58-9.67c3.24-5.49,2.64-11.27,1.1-17a4.77,4.77,0,0,0-4.05-3.5c-8.53-1.43-17-1.53-25.36,1.2-2.15.7-2.61,1.27-.55,2.92,1.9,1.51,4.36,2.54,5.28,5.09-3.51-.23-7-.5-10.53-.69-1.34-.08-1.95.64-1.92,2,.25,10,9,19.37,18.9,19.66,5.29.16,10.55-.87,14.63-4.87A6.07,6.07,0,0,0,243.3,61.93ZM186.15,65.2c2.37-2.72,3.45-6,4.4-9.43a9.83,9.83,0,0,0,.49-5c-.39-3.84-3-6.57-7.69-7.78a57.14,57.14,0,0,0-20.8-1.25,6.93,6.93,0,0,0-4,1.31c2.16,1.74,4.26,3.21,6.07,5,1.32,1.29,3.6,1.76,3.78,4.11-.89,0-1.77,0-2.66,0-6.89,0-9.69.19-9.84,9.85-.06,4,1.14,6.19,4.9,7.88a26.49,26.49,0,0,0,12.06,2.62C178.45,72.24,183.3,70.48,186.15,65.2ZM160.26,48.54a6.31,6.31,0,0,0-6.73-.21c-1.42.91-.67,3.46-.24,5.6A17.37,17.37,0,0,1,160.26,48.54Z"/><path class="cls-2" d="M468.37,295.15c13.65,14.81,32,18.66,49.76,10,9.46-4.6,15.92-12.22,19.46-22.14.8-2.24,1.65-3,4-2.25s4.49.31,5.61-2.29c1.76.13,3.55.6,4.08,2.41a7.37,7.37,0,0,1-1.29,6.17c-.76,1.14-2.2,1.09-3.54.82-4-.81-3.76-.67-5.4,3.09-6.1,14-16.47,22.66-31.86,25-9.28,1.43-17.83-.51-25.93-4.83-6.23-3.32-10.64-8.63-14.57-14.35C468.38,296.43,468.47,295.73,468.37,295.15Z"/><path class="cls-3" d="M244.39,69.14c3.58.94,3.89.55,4.33-3,.5-3.94-1.47-7.62-.84-11.53.5-3.1.74-6.32,3.83-8.13,1.43-.83,1.14-2.12,1.27-3.34,4.41,3,4.34,5,.77,9-2.51,2.78-2.51,6.71-2.41,10.33.07,2.53,1,5,1,7.57.07,3.7-1.53,5-4.78,3.48-1.05-.49-1.26,0-1.9.48-7,5-20,6.63-27.9,1-1.28-.9-2.58-1.82-3.06-3.46l5.72,2c4.52,3.17,9.54,3.09,14.65,2.18a18.1,18.1,0,0,0,9.43-4.43C245.77,70.2,244.8,69.84,244.39,69.14Z"/><path class="cls-3" d="M193.29,55.6c2-4.1,3.69-4.44,7.32-4.08,3,.3,4.47,2.08,4.92,4.91-5.26-1.28-7.55.07-9.39,5.23-1.11,3.14-1.72,6.45-3.61,9.32-4.93,7.44-12.11,9.19-20.36,8.18-4.32-.53-8.54-1.52-12.09-4.24-.88-.67-1.39-.34-2,.25a2.22,2.22,0,0,1-3.57-.41c-.9-1.63-2.31-2.78-3.24-4.32,4.5-.59,8.26,1.5,12.09,3.32,2.68,2,5.82,2.72,9.06,3,10.66,1,15.14-1.46,19.9-11.33,1.34-2.79,2.54-5.81,2.34-9.1C194.57,55.19,194.22,55,193.29,55.6Z"/><path class="cls-2" d="M544.87,271.83c-4.35-.27-4.4-.27-4.81-4.64a68,68,0,0,0-2.32-11.75c2.3.9,2.08,3.36,3,5.07a18.77,18.77,0,0,1,2.43,8.91C543.08,270.87,544.81,270.67,544.87,271.83Z"/><path class="cls-7" d="M189.85,153.59a6.69,6.69,0,0,1-1.64,3.19,7.81,7.81,0,0,0-1.74,0c-3.11.62-5.05-.82-6.29-3.52C183.4,153.4,186.65,152.84,189.85,153.59Z"/><path class="cls-11" d="M253,43.17c-.08-.27-.15-.54-.23-.81C252.84,42.63,252.91,42.9,253,43.17Z"/><path class="cls-11" d="M205.53,56.54l.36.66Z"/><path class="cls-11" d="M396.77,339.35l.62.85Z"/><path class="cls-7" d="M448.46,25c-6,7.77-12.75,14.94-19.2,22.35-3,3.39-5.87,6.83-9,10.11-2.26,2.4-5.38,2.39-7.94.33a1.86,1.86,0,0,1-.6-1.85c7.07-8.12,14.11-16.28,21.23-24.37,4.09-4.65,7.9-9.56,12.36-13.88A7.39,7.39,0,0,1,448.46,25Z"/><path class="cls-10" d="M448.46,25a7.39,7.39,0,0,0-3.11-7.31L459.13,1.49c3.49,1.94,4.74,5.85,2.41,8.62C457.29,15.16,453.16,20.33,448.46,25Z"/><path class="cls-9" d="M311.9,24.21c-.47-1-1.44-1.14-2.38-1.31-2-3,.4-2.94,2.24-3.3,0,1.18,1,1.38,1.81,1.82l1.49,1.22a6.57,6.57,0,0,0,2.81,2.24c.08,2.69-1.11,3-3.19,1.74a3.22,3.22,0,0,0-1.57-1.39Z"/><path class="cls-8" d="M311.9,24.21l1.21,1q-4.28,5-8.55,10.05c-.48.57-1,1.67-1.78,1.12s-.12-1.5.5-2.21C306.18,30.89,309,27.54,311.9,24.21Z"/><path class="cls-9" d="M327.8,12.57c-.39-.78-.62-1.69-1.65-1.92L324.7,9.37a2.7,2.7,0,0,0-2.12-1.28c-.26-1.83.22-3,2.38-2.86,1.53,1.87,2.16,4.73,5.3,4.86C330.75,12.21,329.51,12.63,327.8,12.57Z"/><path class="cls-8" d="M361.73,56.94c1.64.09,2.95-1.36,4.65-1-.32,2.24,1.67,4.09,1.07,6.38l-1,.71A20.12,20.12,0,0,1,361.73,56.94Z"/><path class="cls-9" d="M317.9,16.41l-1.2-.9c-1.69-2.54-1.56-2.78,1.68-3.1a7.62,7.62,0,0,0,2.88,2.64.45.45,0,0,0,.1.43c-.66,1.07-1.53-.77-2.23.2.33.71.68,1.45,1,2.18Z"/><path class="cls-8" d="M317.9,16.41l2.25,1.45,0-.06.64.65-.06,0,.33.66a.47.47,0,0,0-.38-.1c-1.84-.12-2.64,1.43-3.74,2.43-.58.53-1,1.21-1.85,1.24l-1.49-1.22C315,19.71,317.45,18.94,317.9,16.41Z"/><path class="cls-10" d="M327.8,12.57c1.71.06,2.95-.36,2.46-2.48,2-.65,2.15.89,2.27,2.06a2.25,2.25,0,0,1-2,2.51C329.12,14.86,327.8,14.47,327.8,12.57Z"/><path class="cls-10" d="M325,5.23c-2.16-.18-2.64,1-2.38,2.86-1.89.28-2.36-1-2.43-2.42A2.13,2.13,0,0,1,322,3.4C323.45,3.13,324.71,3.43,325,5.23Z"/><path class="cls-8" d="M321.36,15.48a.45.45,0,0,1-.1-.43c-.26-2.75,1.64-4.19,3.44-5.68l1.45,1.28c-1,2-3.48,2.92-3.7,5.42Z"/><path class="cls-10" d="M324.3,17.36c1.66.27,1.93,1.48,1.7,2.81a2.24,2.24,0,0,1-2.21,2c-2.09,0-2.78-1.45-3.14-3.19a.47.47,0,0,1,.38.1C323.46,20.67,323.71,20.54,324.3,17.36Z"/><path class="cls-10" d="M318.38,12.41c-3.24.32-3.37.56-1.68,3.1-1.77.72-2.58-.35-3-1.78a2.21,2.21,0,0,1,1.54-2.79C316.65,10.44,318,10.53,318.38,12.41Z"/><path class="cls-10" d="M334.07,4.71c2.68,1.35,3-.13,2.74-2.29,1.88.08,2.27,1.35,2.07,2.85a2.11,2.11,0,0,1-2.27,1.94C335.07,7.16,333.91,6.56,334.07,4.71Z"/><path class="cls-10" d="M314.68,26.62c2.08,1.28,3.27.95,3.19-1.74,2,.36,1.91,1.8,1.49,3.17a2.09,2.09,0,0,1-2.57,1.51C315.31,29.21,314.29,28.38,314.68,26.62Z"/><path class="cls-10" d="M311.76,19.6c-1.84.36-4.25.33-2.24,3.3-1.81.31-2.16-1-2.29-2.27a2.19,2.19,0,0,1,1.57-2.26C310.07,17.91,311.32,17.89,311.76,19.6Z"/><path class="cls-9" d="M366.46,63l1-.71,2.38,0a6.21,6.21,0,0,1-1,3.72A5.83,5.83,0,0,1,366.46,63Z"/><path class="cls-9" d="M324.3,17.36c-.59,3.18-.84,3.31-3.27,1.71l-.33-.66c.92,0,1.85,0,1.91-1.29C323.23,16.75,323.74,17.26,324.3,17.36Z"/><path class="cls-10" d="M322.61,17.12c-.06,1.29-1,1.27-1.91,1.29l.06,0-.64-.65,0,.06-1-2.18c.7-1,1.57.87,2.23-.2l1.09.59a.89.89,0,0,1,.1.48c-.35.25-.56.49.05.65Z"/><path class="cls-8" d="M358.18,43.29a7.51,7.51,0,0,1,1,4.24,3,3,0,0,1-2.35-2.27l.15-.2C358.39,45.13,358,44,358.18,43.29Z"/><path class="cls-8" d="M316.53,4.23c-1.46-.22-3-.32-3-2.41l.12-.11a4.16,4.16,0,0,1,3,2.37Z"/><path class="cls-8" d="M352.29,20.07a6.09,6.09,0,0,1,1,3.69,4.49,4.49,0,0,1-2.35-2.27l.19-.2C352,21.41,352.13,20.71,352.29,20.07Z"/><path class="cls-8" d="M401.45,47A3.1,3.1,0,0,1,399,44.63l.17-.18a3.12,3.12,0,0,1,2.42,2.32Z"/><path class="cls-8" d="M433.51,6.6a3,3,0,0,1-2.39-2.38l.12-.12a3.1,3.1,0,0,1,2.44,2.29Z"/><path class="cls-8" d="M399.19,32a3.14,3.14,0,0,1,2.41,2.37l-.17.17A3.15,3.15,0,0,1,399,32.2Z"/><path class="cls-8" d="M305.37,6.46c.85.74,2.09,1.08,2.39,2.38l-.13.13c-1.64.08-2.36-.79-2.42-2.34Z"/><path class="cls-8" d="M373.55,4.22a2.61,2.61,0,0,1-2.16-2.28,2.65,2.65,0,0,1,2.31,2.13Z"/><path class="cls-8" d="M302.28,16.7c-1.26-.09-2.31-.4-2.26-2.2a4.36,4.36,0,0,1,2.4,2.05Z"/><path class="cls-8" d="M368.2,11.94a1.7,1.7,0,0,1-1.62-1.87c1.16,0,1.56.77,1.75,1.73Z"/><path class="cls-8" d="M406.77,26.8a1.85,1.85,0,0,1-1.65-1.88c1.21,0,1.58.79,1.83,1.7Z"/><path class="cls-8" d="M294.68,3.5a1.77,1.77,0,0,1,1.66,1.86c-1.2,0-1.58-.79-1.8-1.73Z"/><path class="cls-8" d="M348.68,5.88a6.37,6.37,0,0,1,.87,3A3.79,3.79,0,0,1,348,6.58l.1-.1Z"/><path class="cls-8" d="M354.65,29.59a6.11,6.11,0,0,1,1,3.1,5.67,5.67,0,0,1-1.67-2.35l.11-.12Z"/><path class="cls-8" d="M346.35,29.6c.92.22,1.63.65,1.6,1.88-1.16,0-1.53-.78-1.78-1.69Z"/><path class="cls-8" d="M425.79,18.48c-.69-.14-1.31-.39-1.5-1.15-.09-.35.12-.57.47-.48A1.63,1.63,0,0,1,426,18.31Z"/><path class="cls-8" d="M367.71,17.15a2,2,0,0,1,1.8,1.78l-.13.14a2,2,0,0,1-1.84-1.72Z"/><path class="cls-8" d="M383.63,19.06a1.92,1.92,0,0,1-1.79-1.78l.11-.12a1.91,1.91,0,0,1,1.81,1.77Z"/><path class="cls-8" d="M349.19,20.27c-.68-.19-1.38-.35-1.44-1.23,0-.12.23-.36.35-.35.86,0,1.08.7,1.26,1.39Z"/><path class="cls-8" d="M382.44,42.82a2,2,0,0,1-1.8-1.78l.13-.14a2,2,0,0,1,1.81,1.78Z"/><path class="cls-8" d="M385.52,45.07a2,2,0,0,1,1.84,1.73l-.18.18a2,2,0,0,1-1.77-1.81Z"/><path class="cls-8" d="M381.38,29c.68.18,1.37.35,1.43,1.23,0,.12-.24.36-.35.35-.87-.05-1.09-.71-1.25-1.41Z"/><path class="cls-8" d="M394.91,10.16c-.7-.12-1.32-.36-1.52-1.11-.1-.36.15-.56.48-.49.77.17,1,.77,1.17,1.47Z"/><path class="cls-8" d="M352.27,53.37a2,2,0,0,1,1.83,1.75l-.17.18a2,2,0,0,1-1.78-1.8Z"/><path class="cls-8" d="M379.59,64.64a2,2,0,0,1,1.8,1.79l-.13.13a2,2,0,0,1-1.84-1.74Z"/><path class="cls-8" d="M377.21,13a2,2,0,0,1,1.79,1.8l-.11.11a2,2,0,0,1-1.84-1.74Z"/><path class="cls-8" d="M428.86,8.26A1.92,1.92,0,0,1,430.67,10l-.13.12a1.91,1.91,0,0,1-1.79-1.78Z"/><path class="cls-8" d="M345,4.24c-.68-.14-1.31-.37-1.48-1.14a.39.39,0,0,1,.49-.49c.77.17,1,.77,1.15,1.46Z"/><path class="cls-8" d="M410.34,29.76A2,2,0,0,1,408.52,28l.16-.17a2,2,0,0,1,1.8,1.79Z"/><path class="cls-8" d="M340.28,43.41a2,2,0,0,1-1.82-1.76l.16-.17a2.05,2.05,0,0,1,1.8,1.79Z"/><path class="cls-8" d="M287.55,3.49a2.05,2.05,0,0,1,1.82,1.77l-.15.15a2,2,0,0,1-1.82-1.76Z"/><path class="cls-8" d="M334.35,44.59c-.69-.13-1.31-.38-1.5-1.15-.08-.36.15-.57.49-.48a1.52,1.52,0,0,1,1.14,1.5Z"/><path class="cls-8" d="M402.62,10.77A2,2,0,0,1,400.84,9l.12-.12a2,2,0,0,1,1.84,1.74Z"/><path class="cls-8" d="M404.55,36.72a2,2,0,0,1,1.78,1.8l-.13.13a2.06,2.06,0,0,1-1.84-1.74Z"/><path class="cls-8" d="M415.11,33.9a2,2,0,0,1-1.84-1.75l.16-.16a2,2,0,0,1,1.79,1.8Z"/><path class="cls-8" d="M386.71,8.85c.79.16,1.49.44,1.55,1.62-1.11,0-1.51-.57-1.68-1.5Z"/><path class="cls-8" d="M370,7.18a1.94,1.94,0,0,1-1.81-1.77l.13-.13a2,2,0,0,1,1.8,1.78Z"/><path class="cls-8" d="M405.71,13a2,2,0,0,1,1.83,1.74l-.17.17a2,2,0,0,1-1.77-1.8Z"/><path class="cls-8" d="M386,70.7a1.92,1.92,0,0,1-1.81-1.77l.11-.11a1.91,1.91,0,0,1,1.8,1.78Z"/><path class="cls-8" d="M378.89,27.38a2,2,0,0,1-1.8-1.79l.12-.12A2,2,0,0,1,379,27.19Z"/><path class="cls-8" d="M379.59,8.83c.68.15,1.31.39,1.5,1.16.09.34-.13.56-.48.48A1.62,1.62,0,0,1,379.42,9Z"/><path class="cls-8" d="M303.46,5.43c-.54-.08-1.18.07-1.5-.51-.07-.13.15-.59.31-.65.83-.26,1.2.25,1.37,1Z"/><path class="cls-8" d="M412.83,13c.67.09,1.1.4,1,1.13,0,.09-.4.21-.41.19-.25-.39-.46-.81-.69-1.21Z"/><path class="cls-8" d="M350.49,13a2.17,2.17,0,0,1,.35,2.4l-1.12-1.06.24-.24Z"/><path class="cls-8" d="M357,57.52c.64.12,1.1.42,1,1.16,0,.09-.39.22-.41.19-.27-.38-.5-.78-.75-1.18Z"/><path class="cls-8" d="M354.66,61.67c1.12.17,1.07,1,1.11,1.86h0a2.22,2.22,0,0,1-1.28-1.69Z"/><path class="cls-8" d="M416.4,28.43c.42.23.83.46,1.23.71,0,0-.11.41-.19.42-.73.1-1.07-.32-1.17-1Z"/><path class="cls-8" d="M392,38.61c-.61-.12-1.15-.33-1-1.11,0-.09.41-.2.42-.18.23.41.43.83.64,1.25Z"/><path class="cls-8" d="M380.66,35.09c-.41-.23-.83-.45-1.22-.7,0,0,.1-.41.18-.43.73-.09,1.07.33,1.17,1Z"/><path class="cls-8" d="M374.13,10.75a1.25,1.25,0,0,1-1.23-1.13l.15-.18a1.23,1.23,0,0,1,1.21,1.18Z"/><path class="cls-8" d="M408,33.91a1.23,1.23,0,0,1-1.2-1.19l.13-.13a1.22,1.22,0,0,1,1.21,1.18Z"/><path class="cls-8" d="M421,1.85c-.46-.1-.92-.21-.9-.82a.26.26,0,0,1,.19-.19c.6,0,.76.38.86.86Z"/><path class="cls-8" d="M419.93,13c.36.09.79.09.85.58,0,.1-.22.33-.31.32-.49-.06-.5-.49-.59-.86Z"/><path class="cls-8" d="M400.25,2.44A1.27,1.27,0,0,1,399,1.28l.17-.17a1.24,1.24,0,0,1,1.2,1.2Z"/><path class="cls-8" d="M385.41,26.79c-.47-.1-.93-.22-.9-.84a.26.26,0,0,1,.19-.19c.61,0,.76.4.85.88Z"/><path class="cls-8" d="M393.71,3.05c-.46-.11-.91-.25-.89-.85,0-.07.12-.19.19-.19.6,0,.77.39.87.86Z"/><path class="cls-8" d="M338.64,10.6a1.26,1.26,0,0,1,1.19,1.2l-.15.15a1.28,1.28,0,0,1-1.23-1.13Z"/><path class="cls-8" d="M371.76,14.91a1.18,1.18,0,0,1-1.19-1.2l.1-.1a1.18,1.18,0,0,1,1.21,1.17Z"/><path class="cls-8" d="M393.11,14.93A1.24,1.24,0,0,1,392,13.7l.09-.09a1.25,1.25,0,0,1,1.26,1.13Z"/><path class="cls-8" d="M364.74,2.32a1.17,1.17,0,0,1,1.2,1.18l-.12.12a1.19,1.19,0,0,1-1.19-1.19Z"/><path class="cls-8" d="M409.15,10.17A1.19,1.19,0,0,1,408,9l.1-.11A1.23,1.23,0,0,1,409.3,10Z"/><path class="cls-8" d="M416.28,10.17A1.29,1.29,0,0,1,415.06,9l.17-.18a1.29,1.29,0,0,1,1.2,1.19Z"/><path class="cls-8" d="M376.61,37.35a1.2,1.2,0,0,1,1.21,1.18l-.12.12a1.19,1.19,0,0,1-1.2-1.19Z"/><path class="cls-8" d="M384.82,38.66a1.19,1.19,0,0,1-1.19-1.2l.11-.11A1.21,1.21,0,0,1,385,38.52Z"/><path class="cls-8" d="M336.12,39.85a1.21,1.21,0,0,1-1.18-1.21l.11-.1a1.2,1.2,0,0,1,1.21,1.17Z"/><path class="cls-8" d="M389,42.24A1.24,1.24,0,0,1,387.78,41l.11-.11a1.24,1.24,0,0,1,1.23,1.16Z"/><path class="cls-8" d="M396.11,42.21a1.19,1.19,0,0,1-1.2-1.18l.11-.12a1.19,1.19,0,0,1,1.2,1.19Z"/><path class="cls-8" d="M409.26,40.92a1.24,1.24,0,0,1,1.26,1.14l-.19.18A1.26,1.26,0,0,1,409.16,41Z"/><path class="cls-8" d="M393.71,46.4a1.26,1.26,0,0,1-1.18-1.22l.12-.12a1.26,1.26,0,0,1,1.24,1.16Z"/><path class="cls-8" d="M344.44,47a1.2,1.2,0,0,1-1.22-1.17l.15-.15a1.22,1.22,0,0,1,1.19,1.2Z"/><path class="cls-8" d="M401.61,46.77A2.26,2.26,0,0,1,403.34,48l-.12.12A2,2,0,0,1,401.45,47Z"/><path class="cls-8" d="M398.47,50.54a1.27,1.27,0,0,1-1.2-1.2l.14-.13a1.23,1.23,0,0,1,1.21,1.17Z"/><path class="cls-8" d="M341,49.79a1.26,1.26,0,0,1,1.2,1.2l-.14.14A1.3,1.3,0,0,1,340.82,50Z"/><path class="cls-8" d="M349.19,51.13a1.21,1.21,0,0,1-1.2-1.19l.13-.13A1.24,1.24,0,0,1,349.33,51Z"/><path class="cls-8" d="M401,52.18c.38.08.79.14.84.62a.49.49,0,0,1-.32.35c-.49,0-.59-.4-.68-.78Z"/><path class="cls-8" d="M345.74,54A1.21,1.21,0,0,1,347,55.14l-.14.15a1.22,1.22,0,0,1-1.19-1.2Z"/><path class="cls-8" d="M333.27,30.82A1.18,1.18,0,0,1,334.48,32l-.12.12a1.21,1.21,0,0,1-1.2-1.19Z"/><path class="cls-8" d="M376.5,62.41a1.2,1.2,0,0,1-1.19-1.19l.12-.13a1.21,1.21,0,0,1,1.21,1.18Z"/><path class="cls-8" d="M383.62,62.43c-.38-.08-.78-.17-.81-.65,0-.1.22-.33.32-.32.47,0,.58.41.66.79Z"/><path class="cls-8" d="M375.9,74.29a1.22,1.22,0,0,1-1.19-1.2l.12-.12a1.23,1.23,0,0,1,1.22,1.17Z"/><path class="cls-8" d="M428.27,20.13c.46.09.92.2.89.82a.27.27,0,0,1-.19.18c-.6,0-.75-.4-.82-.88Z"/><path class="cls-8" d="M376.5,19.07a1.22,1.22,0,0,1-1.2-1.19l.13-.13a1.23,1.23,0,0,1,1.22,1.17Z"/><path class="cls-8" d="M404.4,18.48a1.22,1.22,0,0,1-1.17-1.22l.1-.09a1.21,1.21,0,0,1,1.23,1.15Z"/><path class="cls-8" d="M396.23,17.13a1.24,1.24,0,0,1,1.18,1.22l-.12.11a1.24,1.24,0,0,1-1.23-1.15Z"/><path class="cls-8" d="M291.71,7.05c.46.13.92.25.89.86,0,.07-.12.19-.19.19-.61,0-.76-.41-.86-.88Z"/><path class="cls-8" d="M412.72,25.6c-.47-.09-.93-.2-.91-.82a.29.29,0,0,1,.2-.19c.61,0,.76.39.85.87Z"/><path class="cls-8" d="M390.28,24.26a1.36,1.36,0,0,1,1.23,1.18l-.2.2a1.31,1.31,0,0,1-1.2-1.2Z"/><path class="cls-8" d="M342,7.82c-.45-.13-.9-.26-.87-.86a.27.27,0,0,1,.18-.19c.6,0,.77.37.89.83Z"/><path class="cls-8" d="M349.3,26.07a1.24,1.24,0,0,1,1.22,1.17l-.14.14a1.21,1.21,0,0,1-1.19-1.2Z"/><path class="cls-8" d="M409.27,16c.46.11.92.23.89.85A.27.27,0,0,1,410,17c-.61,0-.76-.41-.86-.89Z"/><path class="cls-8" d="M411.05,5.29a1.18,1.18,0,0,1,1.2,1.18l-.11.12A1.19,1.19,0,0,1,411,5.39Z"/><path class="cls-8" d="M403.92,5.29a1.27,1.27,0,0,1,1.25,1.14l-.17.18a1.23,1.23,0,0,1-1.18-1.22Z"/><path class="cls-8" d="M396.8,5.29A1.2,1.2,0,0,1,398,6.46l-.14.14a1.21,1.21,0,0,1-1.19-1.2Z"/><path class="cls-8" d="M310.7,11.23c.47.09.93.18.9.81,0,.07-.12.18-.19.19-.62,0-.75-.4-.82-.89Z"/><path class="cls-8" d="M425.79,6a1.2,1.2,0,0,1-1.19-1.19l.11-.12a1.21,1.21,0,0,1,1.22,1.17Z"/><path class="cls-8" d="M418.65,6a1.21,1.21,0,0,1-1.19-1.19l.13-.13a1.24,1.24,0,0,1,1.21,1.17Z"/><path class="cls-8" d="M408.08,21.32a1.23,1.23,0,0,1,1.25,1.15l-.18.18A1.25,1.25,0,0,1,408,21.42Z"/><path class="cls-8" d="M386.71,21.32a1.23,1.23,0,0,1,1.21,1.17l-.14.14a1.19,1.19,0,0,1-1.19-1.2Z"/><path class="cls-8" d="M379.58,21.32c.47.09.93.2.91.82a.29.29,0,0,1-.2.19c-.61,0-.75-.41-.82-.9Z"/><path class="cls-8" d="M345.15,22.5a1.2,1.2,0,0,1,1.21,1.18l-.14.14a1.22,1.22,0,0,1-1.19-1.2Z"/><path class="cls-8" d="M372.47,21.3a1.24,1.24,0,0,1,1.19,1.2l-.12.12a1.25,1.25,0,0,1-1.24-1.16Z"/><path class="cls-8" d="M343.84,28a1.24,1.24,0,0,1-1.18-1.21l.11-.11A1.2,1.2,0,0,1,344,27.83Z"/><path class="cls-8" d="M328.52,26.66a1.18,1.18,0,0,1,1.19,1.2l-.1.1a1.2,1.2,0,0,1-1.21-1.18Z"/><path class="cls-8" d="M375.33,48.74a1.11,1.11,0,0,1-1.22-1.15l.09-.12,1.22,1.18Z"/><path class="cls-8" d="M383.67,6.55c-.29-.13-.84.06-.72-.57a.28.28,0,0,1,.19-.19c.62-.11.45.42.57.72Z"/><path class="cls-8" d="M405,12.52c-.46,0-.91-.09-1-.66,0-.07.09-.22.14-.22.53,0,.78.36,1,.79Z"/><path class="cls-8" d="M367.54,17.35l-.92-.61.27-.36.82.77Z"/><path class="cls-8" d="M341.45,25.62c-.46-.06-.91-.14-1-.71,0-.07.09-.21.14-.21.53,0,.77.37,1,.78Z"/><path class="cls-8" d="M388.49,66.44l.94.51-.26.37-.78-.78Z"/><path class="cls-8" d="M347.41,6l-1-.52.26-.37.81.78Z"/><path class="cls-8" d="M340.82,50l-.92-.62.27-.36.83.76Z"/><path class="cls-8" d="M379,27.19l.94.59-.27.37-.82-.77Z"/><path class="cls-8" d="M338.45,10.82l-.9-.61.27-.36.82.75Z"/><path class="cls-8" d="M408,39.87a1.22,1.22,0,0,1-1.16-.64l.12-.11a1.27,1.27,0,0,1,1.19.6Z"/><path class="cls-8" d="M392.67,39.11a1.24,1.24,0,0,1,1.17.62l-.14.14a1.28,1.28,0,0,1-1.17-.63Z"/><path class="cls-8" d="M332,29.76a1.3,1.3,0,0,1-1.18-.62l.14-.13a1.22,1.22,0,0,1,1.17.63Z"/><path class="cls-8" d="M406.79,20.25a1.29,1.29,0,0,1-1.19-.61l.15-.15a1.27,1.27,0,0,1,1.15.65Z"/><path class="cls-8" d="M373.11,46.78l1.09.69-.09.12a1.31,1.31,0,0,1-1.18-.6Z"/><path class="cls-8" d="M398.6,19.52a1.2,1.2,0,0,1,1.17.62l-.11.12a1.26,1.26,0,0,1-1.18-.62Z"/><path class="cls-8" d="M382.42,36.31a1.25,1.25,0,0,1-1.16-.64l.11-.11a1.23,1.23,0,0,1,1.19.61Z"/><path class="cls-8" d="M355.77,63.53l.74.19c-.41.52-.51,0-.73-.2Z"/><path class="cls-8" d="M403.19,35.52l-.21.39c-.06-.06-.19-.14-.18-.17a3,3,0,0,1,.2-.4Z"/><path class="cls-8" d="M335.07,45.05a1.22,1.22,0,0,1,1.17.62l-.13.13a1.25,1.25,0,0,1-1.16-.63Z"/><path class="cls-8" d="M415.81,34.38A1.15,1.15,0,0,1,417,35l-.09.09a1.14,1.14,0,0,1-1.18-.62Z"/><path class="cls-8" d="M323.05,34.51l-.72-.28a3.28,3.28,0,0,1,.24-.3c.21.14.41.3.62.45Z"/><path class="cls-8" d="M336.11,33.33A1.22,1.22,0,0,1,335,32.7l.11-.12a1.23,1.23,0,0,1,1.18.62Z"/><path class="cls-8" d="M410.91,23.89l-.21.14a3.25,3.25,0,0,1-.18-.43s.13-.09.2-.13C410.78,23.61,410.84,23.75,410.91,23.89Z"/><path class="cls-8" d="M422.35,2.89a1.23,1.23,0,0,1,1.18.62l-.15.15A1.23,1.23,0,0,1,422.22,3Z"/><path class="cls-8" d="M431.25,10.62a1.21,1.21,0,0,1,1.18.61l-.14.15a1.23,1.23,0,0,1-1.15-.65Z"/><path class="cls-8" d="M344.48,16.44l-.18-.14c.07,0,.14-.1.21-.09s.12.08.18.13Z"/><path class="cls-8" d="M303.61,17.73a1.21,1.21,0,0,1,1.16.63l-.13.13a1.26,1.26,0,0,1-1.17-.63Z"/><path class="cls-8" d="M399.8,51.57a1.27,1.27,0,0,1,1.16.61l-.16.19-1.13-.67Z"/><path class="cls-8" d="M412.83,7.07l.74.25-.23.32-.6-.47Z"/><path class="cls-8" d="M394.69,15.75a3.25,3.25,0,0,1,.18.43s-.14.08-.21.13a3.2,3.2,0,0,1-.17-.43S394.62,15.79,394.69,15.75Z"/><path class="cls-8" d="M355.84,44.46a1.23,1.23,0,0,1,1.17.6l-.15.2-1.12-.7Z"/><path class="cls-8" d="M342.64,45.21a1.18,1.18,0,0,1-1.15-.64l.1-.1a1.17,1.17,0,0,1,1.18.61Z"/><path class="cls-8" d="M343.83,21.46l-.72-.28a2.53,2.53,0,0,1,.23-.3,5.44,5.44,0,0,1,.62.45Z"/><path class="cls-8" d="M372.9,9.62c-.26-.13-.87-.08-.62-.51s.57,0,.77.33Z"/><path class="cls-8" d="M409.12,3.69l-.19.16a3.86,3.86,0,0,1-.2-.41s.12-.1.18-.15Z"/><path class="cls-8" d="M370,13.13a1.21,1.21,0,0,1-1.18-.62l.13-.12a1.2,1.2,0,0,1,1.17.62Z"/><path class="cls-8" d="M415.69,28l-.73-.26.23-.32.61.47Z"/><path class="cls-8" d="M395.06,4.06a1.2,1.2,0,0,1,1.15.64l-.11.11a1.24,1.24,0,0,1-1.19-.61Z"/><path class="cls-8" d="M363,13.55c.24.11.68.22.68.32,0,.52-.49.29-.78.37v0a2.33,2.33,0,0,0-.06-.53Z"/><path class="cls-8" d="M366.52,4.1a1.24,1.24,0,0,1,1.2.6l-.14.13a1.15,1.15,0,0,1-1.15-.64Z"/><path class="cls-8" d="M374.85,23.67a1.29,1.29,0,0,1,1.18.62l-.14.14a1.23,1.23,0,0,1-1.16-.64Z"/><path class="cls-8" d="M434.68,7.2a1.24,1.24,0,0,1-1.17-.6l.17-.21,1.12.69Z"/><path class="cls-8" d="M309.39,10.18a1.25,1.25,0,0,1-1.16-.63l.11-.12a1.24,1.24,0,0,1,1.18.61Z"/><path class="cls-8" d="M352.73,29.18a1.22,1.22,0,0,1-1.16-.63l.12-.12a1.22,1.22,0,0,1,1.19.61Z"/><path class="cls-8" d="M343.43,8.78l1.13.67-.14.13A1.33,1.33,0,0,1,343.24,9Z"/><path class="cls-8" d="M398,31.4a1.23,1.23,0,0,1,1.19.58l-.18.22-1.12-.69Z"/><path class="cls-8" d="M416.88,4.22a1.23,1.23,0,0,1-1.18-.61l.11-.12a1.19,1.19,0,0,1,1.18.62Z"/><path class="cls-8" d="M402.6,4.25a1.22,1.22,0,0,1-1.15-.64l.11-.12a1.22,1.22,0,0,1,1.19.61Z"/><path class="cls-8" d="M387.3,3.5a1.22,1.22,0,0,1,1.19.61l-.14.14a1.19,1.19,0,0,1-1.15-.65Z"/><path class="cls-8" d="M377.83,75.91a1.29,1.29,0,0,1,1.18.62l-.16.16L377.69,76Z"/><path class="cls-8" d="M387.2,40.43a1.21,1.21,0,0,1-1.19-.6l.13-.14a1.22,1.22,0,0,1,1.16.64Z"/><path class="cls-8" d="M396.81,42.69l.73.25-.23.32-.61-.47Z"/><path class="cls-8" d="M419.25,12.54l-.73-.27a2.25,2.25,0,0,1,.24-.3,6.37,6.37,0,0,1,.61.45Z"/><path class="cls-8" d="M379.59,15.37l.27.35-.38-.24Z"/><path class="cls-8" d="M402,16.12l-.25-.36.39.22Z"/><path class="cls-8" d="M409.12,16.11l-.23-.37.38.22Z"/><path class="cls-8" d="M373.07,16l.26.35-.39-.23Z"/><path class="cls-8" d="M381.24,16.71l-.27-.38.4.24Z"/><path class="cls-8" d="M402.15,16l.59.6-.11.11-.61-.57Z"/><path class="cls-8" d="M302.88,17.28l-.6-.58.14-.15.6.6Z"/><path class="cls-9" d="M322.6,17.2c-.61-.16-.4-.4-.05-.65a2.6,2.6,0,0,1,.19.42C322.76,17,322.65,17.13,322.6,17.2Z"/><path class="cls-8" d="M374.72,17.29l-.36-.29c.3-.36.36,0,.47.17Z"/><path class="cls-8" d="M381.37,16.57l.58.59-.11.12-.6-.57Z"/><path class="cls-8" d="M396.06,17.31l-.24-.4.41.22Z"/><path class="cls-8" d="M402.74,16.58l.59.59-.1.09-.6-.58Z"/><path class="cls-8" d="M303,17.15l.58.58-.13.13-.58-.58Z"/><path class="cls-8" d="M375.3,17.88l-.58-.6.11-.11.6.58Z"/><path class="cls-8" d="M411,18.4l-.23-.14.22.15Z"/><path class="cls-8" d="M304.77,18.36l.61.58-.15.15-.59-.6Z"/><path class="cls-8" d="M397.88,19.06l-.59-.6.12-.11.6.58Z"/><path class="cls-8" d="M404.56,18.32l.6.6-.15.14-.61-.58Z"/><path class="cls-8" d="M426,18.31l.23.39-.39-.22Z"/><path class="cls-8" d="M305.38,18.94l.23.37-.38-.22Z"/><path class="cls-8" d="M341.45,19.69a4,4,0,0,1-.32-.33c.27-.37.37-.06.5.14Z"/><path class="cls-8" d="M370,19.66l-.59-.6.13-.13.6.59Z"/><path class="cls-8" d="M377.1,19.67l-.6-.6.15-.15.61.58Z"/><path class="cls-8" d="M383.76,18.93l.63.56-.17.18c-.2-.2-.39-.41-.58-.61Z"/><path class="cls-8" d="M398,18.93c.2.2.39.4.59.59l-.12.12-.59-.58Z"/><path class="cls-8" d="M405.6,19.64l-.59-.58.15-.14.59.58Z"/><path class="cls-8" d="M427.56,19.67l-.27-.36.39.23Z"/><path class="cls-8" d="M341.63,19.5l.23.4-.41-.21Z"/><path class="cls-8" d="M370.57,20.26l-.6-.6.14-.14.62.58Z"/><path class="cls-8" d="M377.26,19.5l.24.39-.4-.22Z"/><path class="cls-8" d="M384.39,19.49l.24.4-.41-.22Z"/><path class="cls-8" d="M428.15,20.25l-.59-.59.12-.12.59.59Z"/><path class="cls-8" d="M349.36,20.08l.23.4-.4-.21Z"/><path class="cls-8" d="M370.73,20.1l.23.37-.39-.21Z"/><path class="cls-8" d="M378.87,20.85l-.26-.35.38.23Z"/><path class="cls-8" d="M386,20.85l-.36-.28c.3-.36.36,0,.48.16Z"/><path class="cls-8" d="M400.21,20.89l-.55-.63.11-.12.63.57Z"/><path class="cls-8" d="M406.9,20.14l.59.59-.11.11-.59-.59Z"/><path class="cls-8" d="M350.91,21.49l-.23-.42.42.22Z"/><path class="cls-8" d="M372.3,21.46l-.23-.39.4.23Z"/><path class="cls-8" d="M379.47,21.43l-.6-.58.12-.12.59.59Z"/><path class="cls-8" d="M386.59,21.43l-.59-.58.12-.12.59.59Z"/><path class="cls-8" d="M400.4,20.71c.11.11.32.3.3.32-.25.34-.36,0-.49-.14Z"/><path class="cls-8" d="M407.49,20.73l.59.59-.1.1-.6-.58Z"/><path class="cls-8" d="M344.44,22l-.61-.57.13-.13.59.59Z"/><path class="cls-8" d="M344.55,21.92l.6.58-.12.12-.59-.59Z"/><path class="cls-8" d="M373.66,22.5l.61.58-.14.14-.59-.6Z"/><path class="cls-8" d="M388.37,23.24l-.59-.61.14-.14.63.56Z"/><path class="cls-8" d="M409.33,22.47l.22.39-.4-.21Z"/><path class="cls-8" d="M339.07,23.85c-.11-.12-.34-.32-.32-.34.26-.37.39-.08.52.13Z"/><path class="cls-8" d="M374.27,23.08l.58.6-.12.11-.6-.57Z"/><path class="cls-8" d="M388.55,23.05l.22.4-.4-.21Z"/><path class="cls-8" d="M325.45,24.4,325.2,24l.37.24Z"/><path class="cls-8" d="M339.27,23.64c.11.12.32.3.3.33-.25.36-.36,0-.5-.12Z"/><path class="cls-8" d="M346.82,24.42l-.6-.6.14-.14.62.57Z"/><path class="cls-8" d="M390.11,24.44l-.23-.39.4.21Z"/><path class="cls-8" d="M326.05,25l-.6-.6.12-.12.61.58Z"/><path class="cls-8" d="M347,24.25l.24.39-.4-.22Z"/><path class="cls-8" d="M376,24.29l.58.6-.1.11-.62-.57Z"/><path class="cls-8" d="M326.18,24.86l.24.36-.37-.22Z"/><path class="cls-8" d="M348.59,25.6l-.26-.35.38.23Z"/><path class="cls-8" d="M377.09,25.59l-.58-.59.1-.11.6.59Z"/><path class="cls-8" d="M327.81,26.19l-.26-.35.38.24Z"/><path class="cls-8" d="M341.59,25.48l.58.6-.1.1-.62-.56Z"/><path class="cls-8" d="M348.71,25.48l.58.59-.1.11-.6-.58Z"/><path class="cls-8" d="M391.51,25.44c.1.12.32.31.3.33-.26.36-.36.05-.5-.13Z"/><path class="cls-8" d="M413.3,26.22l-.58-.62.14-.14.63.57Z"/><path class="cls-8" d="M327.93,26.08l.59.58-.12.12-.59-.59Z"/><path class="cls-8" d="M342.17,26.08l.6.58-.11.11c-.19-.2-.39-.4-.59-.59Z"/><path class="cls-8" d="M413.49,26l.23.4-.42-.21Z"/><path class="cls-8" d="M385.55,26.64l.62.57-.17.18-.59-.61Z"/><path class="cls-8" d="M407,26.62l.23.4-.41-.22Z"/><path class="cls-8" d="M350.52,27.24l.57.61L351,28l-.61-.58Z"/><path class="cls-8" d="M386.17,27.21l.24.4-.41-.22Z"/><path class="cls-8" d="M408.52,28l-.24-.39.4.22Z"/><path class="cls-8" d="M411,18.41l.22.11L411,18.4Z"/><path class="cls-8" d="M344.45,28.57l-.61-.59.15-.15.61.58Z"/><path class="cls-8" d="M351.57,28.55,351,28l.1-.11.6.58Z"/><path class="cls-8" d="M387.75,28.6l-.25-.39.41.23Z"/><path class="cls-8" d="M399,1.28l-.23-.39.4.22Z"/><path class="cls-8" d="M415.8,27.86l.6.57-.13.14-.58-.6Z"/><path class="cls-8" d="M330.78,29.14l-.58-.6.1-.1.62.57Z"/><path class="cls-8" d="M344.6,28.41l.23.38-.38-.22Z"/><path class="cls-8" d="M313.57,1.82,313,1.25l.13-.13.58.59Z"/><path class="cls-8" d="M381.21,29.18l-.24-.4.41.23Z"/><path class="cls-8" d="M388.36,29.18l-.61-.58.16-.16.6.59Z"/><path class="cls-8" d="M363.57,1.12l.57.62-.1.1-.63-.56Z"/><path class="cls-8" d="M285.67,2.44l-.6-.59.16-.17.59.6Z"/><path class="cls-8" d="M346.17,29.79l-.23-.41c.13.08.27.15.41.22Z"/><path class="cls-8" d="M352.88,29l.58.6-.11.1-.62-.56Z"/><path class="cls-8" d="M292.36,1.67l.24.42-.42-.22Z"/><path class="cls-8" d="M388.93,29.8l-.57-.62.15-.15.62.57Z"/><path class="cls-8" d="M403.22,29.76c-.12-.11-.34-.29-.33-.3.28-.36.35,0,.47.16Z"/><path class="cls-8" d="M332.57,30.35l-.61-.59.13-.12.59.59Z"/><path class="cls-8" d="M364.63,2.43,364,1.84l.1-.1.6.58Z"/><path class="cls-8" d="M353.46,29.64c.19.2.39.39.59.58l-.11.12-.59-.6Z"/><path class="cls-8" d="M407.37,2.46c-.2-.13-.53-.21-.16-.5a2.41,2.41,0,0,1,.33.33Z"/><path class="cls-8" d="M389.13,29.6c.11.11.32.3.31.33-.26.34-.37.05-.5-.13Z"/><path class="cls-8" d="M396.69,30.35l-.33-.3c.28-.35.36,0,.47.16Z"/><path class="cls-8" d="M403.82,30.35l-.6-.59.14-.14.6.59Z"/><path class="cls-8" d="M410.93,30.36l-.59-.6.14-.14.61.58Z"/><path class="cls-8" d="M333.16,30.93c-.2-.2-.4-.39-.59-.59l.11-.11.59.59Z"/><path class="cls-8" d="M397.29,30.94l-.6-.59.14-.14.6.59Z"/><path class="cls-8" d="M404,30.21l.62.57-.17.17-.59-.6Z"/><path class="cls-8" d="M411.54,30.94l-.61-.58.16-.16.61.58Z"/><path class="cls-8" d="M414.51,2.44a3,3,0,0,1-.33-.3c.28-.35.35,0,.46.16Z"/><path class="cls-8" d="M397.89,31.51l-.6-.57.14-.14.57.6Z"/><path class="cls-8" d="M404.58,30.78l.22.39-.39-.22Z"/><path class="cls-8" d="M411.7,30.78l.23.38-.39-.22Z"/><path class="cls-8" d="M320.08,32.15c-.11-.12-.35-.32-.33-.33.27-.36.39-.09.52.14Z"/><path class="cls-8" d="M421.18,1.7c.2.2.39.4.58.61l-.12.13L421,1.85Z"/><path class="cls-8" d="M406.19,32.13l-.27-.35.38.24Z"/><path class="cls-8" d="M413.27,32.15l-.23-.39.39.23Z"/><path class="cls-8" d="M320.27,32l.23.41-.42-.22Z"/><path class="cls-8" d="M335,32.7l-.59-.58.12-.12.58.59Z"/><path class="cls-8" d="M428.75,2.46c-.18-.13-.52-.22-.15-.49,0,0,.21.2.33.3Z"/><path class="cls-8" d="M406.3,32l.6.57-.13.13-.58-.59Z"/><path class="cls-8" d="M285.82,2.28l.23.38-.38-.22Z"/><path class="cls-8" d="M294,3.05l-.26-.36.4.23Z"/><path class="cls-8" d="M386.6,3l-.34-.3c.31-.34.36,0,.46.18Z"/><path class="cls-8" d="M336.24,33.2l.6.59-.14.14-.59-.6Z"/><path class="cls-8" d="M400.39,2.31l.58.6-.11.12-.61-.59Z"/><path class="cls-8" d="M337.29,34.54l-.59-.62.14-.13.62.58Z"/><path class="cls-8" d="M407.54,2.29l.24.39c-.14-.07-.28-.14-.41-.22Z"/><path class="cls-8" d="M394.32,34.5l-.35-.31c.32-.35.37,0,.47.18Z"/><path class="cls-8" d="M408.11,33.77l.6.59-.14.14-.6-.59Z"/><path class="cls-8" d="M415.7,34.48l-.59-.59.11-.1.59.59Z"/><path class="cls-8" d="M415.11,3l-.6-.59.13-.14.59.6Z"/><path class="cls-8" d="M323.19,34.38l.59.6-.12.12-.6-.59Z"/><path class="cls-8" d="M337.46,34.37l.23.39-.4-.23Z"/><path class="cls-8" d="M373.52,35.12c-.19-.13-.51-.22-.15-.49,0,0,.21.2.33.3Z"/><path class="cls-8" d="M394.91,35.11l-.59-.61.12-.13.63.57Z"/><path class="cls-8" d="M401.6,34.35l.23.39-.4-.22Z"/><path class="cls-8" d="M408.71,34.36l.6.59-.13.14-.61-.59Z"/><path class="cls-8" d="M422.22,3l-.58-.59.12-.12.59.58Z"/><path class="cls-8" d="M324.24,35.7l-.58-.6.12-.12.61.57Z"/><path class="cls-8" d="M331.37,35.7a3.93,3.93,0,0,1-.33-.31c.28-.35.37,0,.48.15Z"/><path class="cls-8" d="M374.13,35.7l-.61-.58.18-.19.6.59Z"/><path class="cls-8" d="M381.26,35.67l-.6-.58.13-.13.58.6Z"/><path class="cls-8" d="M395.07,34.94l.23.39-.39-.22Z"/><path class="cls-8" d="M428.93,2.27l.23.41-.41-.22Z"/><path class="cls-8" d="M409.31,35l.24.37-.37-.23Z"/><path class="cls-8" d="M417,35l.21.29a2.23,2.23,0,0,0-.3-.2Z"/><path class="cls-8" d="M324.84,36.29l-.6-.59.15-.15.6.59Z"/><path class="cls-8" d="M332,36.3l-.59-.6.15-.16.62.58Z"/><path class="cls-8" d="M374.3,35.52l.23.39-.4-.21Z"/><path class="cls-8" d="M287.4,3.65l-.24-.38.39.22Z"/><path class="cls-8" d="M396.67,36.3l-.26-.37.4.23Z"/><path class="cls-8" d="M410.91,36.32l-.25-.4.42.23Z"/><path class="cls-8" d="M325.44,36.89l-.6-.6.15-.15.61.58Z"/><path class="cls-8" d="M332.14,36.12l.23.41L332,36.3Z"/><path class="cls-8" d="M375.9,36.88l-.36-.28c.3-.35.37,0,.49.16Z"/><path class="cls-8" d="M383,36.87l-.62-.56.14-.14.59.59Z"/><path class="cls-8" d="M397.28,36.89c-.2-.2-.4-.4-.61-.59l.14-.14.6.59Z"/><path class="cls-8" d="M404.36,36.91l-.23-.41.42.22Z"/><path class="cls-8" d="M411.08,36.15c.11.11.33.3.32.31-.27.35-.36,0-.49-.14Z"/><path class="cls-8" d="M325.6,36.72l.24.39-.4-.22Z"/><path class="cls-8" d="M376,36.76l.58.59-.11.11-.59-.58Z"/><path class="cls-8" d="M383.15,36.76c.19.2.39.39.59.59l-.11.11-.59-.59Z"/><path class="cls-8" d="M294.09,2.92l.59.58-.14.13L294,3.05Z"/><path class="cls-8" d="M397.41,36.75l.6.59-.14.14-.59-.59Z"/><path class="cls-8" d="M387.2,3.6,386.6,3l.12-.12.58.6Z"/><path class="cls-8" d="M329.71,27.86l.59.58-.1.1-.59-.59Z"/><path class="cls-8" d="M327.17,38.11a3.55,3.55,0,0,1-.3-.31c.25-.35.37-.06.5.12Z"/><path class="cls-8" d="M334.35,38.06l-.36-.27c.3-.36.35,0,.47.16Z"/><path class="cls-8" d="M393.88,2.87l.6.59-.16.17-.61-.58Z"/><path class="cls-8" d="M401,2.91l.59.58-.11.12L400.86,3Z"/><path class="cls-8" d="M415.23,2.9l.58.59-.11.12L415.11,3Z"/><path class="cls-8" d="M398,37.34l.61.58-.16.15-.59-.59Z"/><path class="cls-8" d="M327.37,37.92c.11.11.32.3.3.33-.25.34-.36,0-.49-.14Z"/><path class="cls-8" d="M334.46,38l.59.59-.11.1-.59-.58Z"/><path class="cls-8" d="M399.05,38.68l-.59-.61.16-.15.61.58Z"/><path class="cls-8" d="M430.53,3.63l-.27-.35.39.24Z"/><path class="cls-8" d="M377.82,38.53l.63.56-.18.18-.57-.62Z"/><path class="cls-8" d="M385.41,39.25c-.19-.2-.39-.4-.59-.59l.14-.14.6.59Z"/><path class="cls-8" d="M392.53,39.24l-.55-.63,0,0,.65.54Z"/><path class="cls-8" d="M399.23,38.5l.23.4c-.13-.08-.27-.15-.41-.22Z"/><path class="cls-8" d="M406.33,38.52l.58.6-.12.11-.59-.58Z"/><path class="cls-8" d="M378.45,39.09l.24.4-.42-.22Z"/><path class="cls-8" d="M386,39.83l-.6-.58.15-.14.58.59Z"/><path class="cls-8" d="M365.94,3.5l.58.6-.09.09-.6-.57Z"/><path class="cls-8" d="M400.81,39.88l-.24-.39.4.23Z"/><path class="cls-8" d="M394.48,3.46l.58.6-.15.14-.59-.57Z"/><path class="cls-8" d="M336.71,40.46l-.59-.61.14-.14.63.56Z"/><path class="cls-8" d="M380.05,40.45l-.26-.36.4.23Z"/><path class="cls-8" d="M423.53,3.51l.58.61-.1.09-.63-.55Z"/><path class="cls-8" d="M393.84,39.73l.58.6-.1.1-.62-.56Z"/><path class="cls-8" d="M401,39.72l.61.59-.17.17-.6-.6Z"/><path class="cls-8" d="M408.1,39.72c.19.2.39.4.58.61l-.11.1-.62-.56Z"/><path class="cls-8" d="M336.89,40.27l.24.41-.42-.22Z"/><path class="cls-8" d="M380.19,40.32l.58.59-.13.13-.59-.59Z"/><path class="cls-8" d="M387.78,41l-.58-.59.1-.1.59.58Z"/><path class="cls-8" d="M394.91,41l-.59-.6.1-.1.6.58Z"/><path class="cls-8" d="M401.58,40.31l.23.4-.4-.23Z"/><path class="cls-8" d="M409.16,41c-.19-.2-.39-.39-.59-.59l.11-.1.58.59Z"/><path class="cls-8" d="M338.46,41.65l-.23-.38.39.21Z"/><path class="cls-8" d="M431.12,4.22l-.59-.59.12-.11.59.58Z"/><path class="cls-8" d="M317.12,4.84l-.59-.61.14-.15.61.59Z"/><path class="cls-8" d="M345.19,4.07l.24.39-.4-.22Z"/><path class="cls-8" d="M373.7,4.07l.23.38-.38-.23Z"/><path class="cls-8" d="M389,4.84l-.59-.59.13-.14.61.58Z"/><path class="cls-8" d="M389.56,42.82l-.6-.59.16-.16.6.59Z"/><path class="cls-8" d="M396.7,42.79l-.59-.58.11-.11.59.59Z"/><path class="cls-8" d="M410.52,42.06l.22.4-.41-.22Z"/><path class="cls-8" d="M403.22,4.82l-.62-.57.15-.15.59.6Z"/><path class="cls-8" d="M354.52,43.42c-.18-.12-.51-.2-.15-.47a2.83,2.83,0,0,1,.31.31Z"/><path class="cls-8" d="M383,43.42l-.6-.6.14-.14.62.56Z"/><path class="cls-8" d="M390.15,43.42l-.58-.6.15-.16.61.58Z"/><path class="cls-8" d="M410.35,4.81,410,4.53c.3-.34.36,0,.47.17Z"/><path class="cls-8" d="M417,4.11l.6.58-.13.13-.58-.6Z"/><path class="cls-8" d="M340.88,44l-.6-.59.14-.14.6.59Z"/><path class="cls-8" d="M355.14,44l-.61-.58.15-.16.59.6Z"/><path class="cls-8" d="M424.11,4.12l.6.57-.11.12-.59-.6Z"/><path class="cls-8" d="M383.2,43.24l.23.39-.39-.21Z"/><path class="cls-8" d="M390.33,43.24l.23.4-.41-.22Z"/><path class="cls-8" d="M341,43.86l.57.61-.1.1-.61-.57Z"/><path class="cls-8" d="M355.74,44.56l-.6-.56.13-.14.57.6Z"/><path class="cls-8" d="M384.82,44.59l-.27-.35.38.24Z"/><path class="cls-8" d="M392,44.59l-.28-.36.38.26Z"/><path class="cls-8" d="M399,44.63l-.24-.4c.14.07.28.14.41.22Z"/><path class="cls-8" d="M334.48,44.46l.58.59-.11.12-.6-.58Z"/><path class="cls-8" d="M317.28,4.67l.22.38-.38-.21Z"/><path class="cls-8" d="M367.72,4.7l.58.58-.13.13-.59-.58Z"/><path class="cls-8" d="M384.93,44.48l.59.59-.11.1-.59-.58Z"/><path class="cls-8" d="M392.05,44.49l.6.57-.12.12-.58-.59Z"/><path class="cls-8" d="M375.3,5.43,375,5.05l.4.23Z"/><path class="cls-8" d="M389.1,4.69l.6.59-.15.15-.6-.6Z"/><path class="cls-8" d="M343.22,45.8l-.58-.59.13-.13.6.57Z"/><path class="cls-8" d="M396.21,4.7l.59.59-.11.11-.59-.59Z"/><path class="cls-8" d="M403.34,4.7c.2.19.39.39.58.59l-.1.1-.6-.57Z"/><path class="cls-8" d="M411,5.39l-.6-.58.11-.11.59.59Z"/><path class="cls-8" d="M336.24,45.67l.61.58-.15.15-.59-.6Z"/><path class="cls-8" d="M289.81,6l-.59-.61.15-.15.62.57Z"/><path class="cls-8" d="M336.85,46.25l.58.6-.11.12-.62-.57Z"/><path class="cls-8" d="M393.89,46.22l.24.4-.42-.22Z"/><path class="cls-8" d="M337.43,46.85l.64.56-.18.17-.57-.61Z"/><path class="cls-8" d="M345,47.57l-.59-.6.12-.12.61.57Z"/><path class="cls-8" d="M303.64,5.24l.23.4-.41-.21Z"/><path class="cls-8" d="M387.36,46.8c.19.13.5.23.15.5a3,3,0,0,1-.32-.32Z"/><path class="cls-8" d="M395.49,47.58l-.26-.36.39.23Z"/><path class="cls-8" d="M375.44,5.28l.58.61-.11.11-.61-.57Z"/><path class="cls-8" d="M338.49,48.18l-.6-.6.18-.17.6.59Z"/><path class="cls-8" d="M345.62,48.18l-.59-.61.14-.15.63.57Z"/><path class="cls-8" d="M390.15,6l-.6-.59.15-.14c.19.2.39.39.59.59Z"/><path class="cls-8" d="M395.62,47.45l.59.6-.11.1-.61-.57Z"/><path class="cls-8" d="M290,5.83l.22.4-.4-.21Z"/><path class="cls-8" d="M305.21,6.63l-.25-.4.41.23Z"/><path class="cls-8" d="M338.67,48l.22.39-.4-.21Z"/><path class="cls-8" d="M345.8,48l.23.4-.41-.22Z"/><path class="cls-8" d="M389.53,48.79c-.11-.11-.34-.3-.32-.32.27-.36.37,0,.5.14Z"/><path class="cls-8" d="M347.52,5.89l.59.59-.1.1L347.42,6Z"/><path class="cls-8" d="M403.34,48l.63.57-.18.18-.57-.63Z"/><path class="cls-8" d="M361.81,5.86c.11.11.32.3.3.32-.25.34-.35,0-.48-.14Z"/><path class="cls-8" d="M347.42,49.34l-.28-.34.38.24Z"/><path class="cls-8" d="M375.42,48.65l.62.57-.14.14-.57-.62Z"/><path class="cls-8" d="M389.71,48.61l.23.41-.41-.23Z"/><path class="cls-8" d="M397.27,49.34c-.19-.2-.39-.39-.58-.6l.12-.12c.2.2.39.4.6.59Z"/><path class="cls-8" d="M404,48.61l.23.41-.41-.24Z"/><path class="cls-8" d="M347.52,49.24l.6.57-.13.13-.57-.61Z"/><path class="cls-8" d="M376.49,50l-.59-.6.14-.13.6.58Z"/><path class="cls-8" d="M376,5.89l.61.58-.13.13-.59-.6Z"/><path class="cls-8" d="M390.29,5.87l.6.59-.14.14-.6-.59Z"/><path class="cls-8" d="M418.8,5.86l.62.58-.16.16L418.65,6Z"/><path class="cls-8" d="M377.1,50.53l-.61-.58.15-.15.59.6Z"/><path class="cls-8" d="M377.69,51.13l-.59-.6.13-.13.6.59Z"/><path class="cls-8" d="M398.62,50.38l.6.6-.14.14-.61-.58Z"/><path class="cls-8" d="M426.37,6.61c-.19-.2-.39-.4-.58-.61l.14-.14.62.57Z"/><path class="cls-8" d="M342.65,51.73l-.59-.6.14-.14.6.59Z"/><path class="cls-8" d="M349.33,51l.62.57-.18.18-.58-.61Z"/><path class="cls-8" d="M377.83,51l.62.57-.16.16-.6-.59Z"/><path class="cls-8" d="M399.67,51.7l-.59-.58.14-.14.58.59Z"/><path class="cls-8" d="M342.8,51.58l.62.58-.17.17-.59-.6Z"/><path class="cls-8" d="M350,51.56l.24.4-.42-.22Z"/><path class="cls-8" d="M378.45,51.56l.23.38-.39-.22Z"/><path class="cls-8" d="M291.55,7.22l-.23-.39.39.22Z"/><path class="cls-8" d="M343.42,52.16l.22.38-.39-.21Z"/><path class="cls-8" d="M351.57,52.9l-.28-.34.38.24Z"/><path class="cls-8" d="M380,53l-.23-.41.42.22Z"/><path class="cls-8" d="M377.09,7.2l-.59-.6.13-.13.61.58Z"/><path class="cls-8" d="M345,53.49l-.28-.34.38.25Z"/><path class="cls-8" d="M351.67,52.8l.6.57-.12.13-.58-.6Z"/><path class="cls-8" d="M380.21,52.77l.23.41L380,53Z"/><path class="cls-8" d="M383.71,6.51l.68.52-.18.19-.54-.67Z"/><path class="cls-8" d="M345.62,54.09l-.57-.6.09-.09.6.57Z"/><path class="cls-8" d="M391.34,7.2l-.59-.6.14-.14.61.57Z"/><path class="cls-8" d="M398.47,7.2l-.59-.6.14-.14.61.58Z"/><path class="cls-8" d="M405.17,6.43l.24.41L405,6.61Z"/><path class="cls-8" d="M347.42,55.88c-.2-.2-.4-.4-.61-.59l.14-.15.61.59Z"/><path class="cls-8" d="M354.1,55.12l.25.41-.42-.23Z"/><path class="cls-8" d="M412.74,7.17l-.6-.58.11-.12.58.6Z"/><path class="cls-8" d="M347.56,55.73l.25.38-.39-.23Z"/><polygon class="cls-8" points="355.44 56.23 355.39 56.09 355.53 56.11 355.44 56.23"/><path class="cls-8" d="M419.42,6.44l.23.39-.39-.23Z"/><path class="cls-8" d="M349.17,57.08l-.25-.37.39.24Z"/><path class="cls-8" d="M349.31,57l.6.58-.15.15-.59-.6Z"/><path class="cls-8" d="M356.86,57.69l-.23-.4.4.23Z"/><path class="cls-8" d="M350.37,58.26l-.6-.58.14-.15.6.59Z"/><path class="cls-8" d="M426.55,6.43l.23.4-.41-.22Z"/><path class="cls-8" d="M350.51,58.12l.6.59-.14.14-.6-.59Z"/><path class="cls-8" d="M351.11,58.71l.6.59-.14.14-.6-.59Z"/><path class="cls-8" d="M351.71,59.3l.62.57-.16.16-.6-.59Z"/><path class="cls-8" d="M352.33,59.87l.23.38-.39-.22Z"/><path class="cls-8" d="M375.31,61.22l-.58-.61.1-.09.6.58Z"/><path class="cls-8" d="M354.5,61.83l-.24-.38.4.22Z"/><path class="cls-8" d="M370.1,7.06l.63.57-.17.17L370,7.18Z"/><path class="cls-8" d="M377.69,7.8l-.6-.6.15-.15.61.58Z"/><path class="cls-8" d="M384.39,7l.22.39-.4-.2Z"/><path class="cls-8" d="M392,7.78l-.61-.58L391.5,7l.6.6Z"/><path class="cls-8" d="M376.64,62.27l.61.58-.16.16-.59-.6Z"/><path class="cls-8" d="M383.79,62.25l.23.41-.4-.23Z"/><path class="cls-8" d="M377.25,62.85l.61.58-.18.18-.59-.6Z"/><path class="cls-8" d="M385.37,63.63l-.24-.38.4.23Z"/><path class="cls-8" d="M398.63,7l.24.39-.4-.23Z"/><path class="cls-8" d="M377.86,63.43l.23.39-.41-.21Z"/><path class="cls-8" d="M386,64.22l-.6-.59.16-.15.6.59Z"/><path class="cls-8" d="M379.42,64.82l-.24-.41.41.23Z"/><path class="cls-8" d="M386.13,64.07l.59.59-.14.14-.6-.58Z"/><path class="cls-8" d="M406.76,7.81l-.26-.37c.14.07.27.15.4.23Z"/><path class="cls-8" d="M386.72,64.66l.59.59-.12.13-.61-.58Z"/><path class="cls-8" d="M387.31,65.25l.59.6-.1.11-.61-.58Z"/><path class="cls-8" d="M388.39,66.54,387.8,66l.1-.11.59.59Z"/><path class="cls-8" d="M381.83,67.18l-.57-.62.13-.13L382,67Z"/><path class="cls-8" d="M421,7.8l-.26-.36.4.23Z"/><path class="cls-8" d="M374.89,67l.24.39-.41-.22Z"/><path class="cls-8" d="M382,67l.22.4-.41-.21Z"/><path class="cls-8" d="M376.48,68.37l-.26-.39.41.24Z"/><path class="cls-8" d="M383.63,68.34l-.27-.35.38.24Z"/><path class="cls-8" d="M376.63,68.22l.6.59-.15.15-.6-.6Z"/><path class="cls-8" d="M384.22,68.93l-.59-.59.11-.11.59.59Z"/><path class="cls-8" d="M377.23,68.81l.59.6-.14.13-.6-.59Z"/><path class="cls-8" d="M428.16,7.78l-.27-.34.38.23Z"/><path class="cls-8" d="M378.25,70.17l-.57-.63.14-.13.64.54Z"/><path class="cls-8" d="M371.75,70.72l-.32-.29c.28-.36.35,0,.46.15Z"/><path class="cls-8" d="M378.46,70c.11.12.32.31.3.34-.25.36-.37,0-.51-.13Z"/><path class="cls-8" d="M372.35,71.32l-.6-.6.14-.14.61.58Z"/><path class="cls-8" d="M386.13,70.6l.21.31L386,70.7Z"/><path class="cls-8" d="M372.5,71.16l.24.39-.39-.23Z"/><path class="cls-8" d="M396.21,48.05l.59.57-.11.12-.59-.59Z"/><path class="cls-8" d="M374.25,72.35l.58.62-.12.12-.64-.55Z"/><path class="cls-8" d="M435.27,7.8l-.59-.6.12-.12.61.58Z"/><path class="cls-8" d="M376.05,74.14l.6.59-.15.15-.6-.59Z"/><path class="cls-8" d="M376.65,74.73l.61.58-.16.16-.6-.59Z"/><path class="cls-8" d="M377.69,76l-.59-.57.16-.16.57.6Z"/><path class="cls-8" d="M342.64,8.4l-.6-.59.2-.21.61.58Z"/><path class="cls-8" d="M379,76.53l.24.39-.4-.23Z"/><path class="cls-8" d="M370.73,7.63,371,8l-.4-.22Z"/><path class="cls-8" d="M377.85,7.63l.25.39-.41-.22Z"/><path class="cls-8" d="M386,8.38,385.73,8l.38.24Z"/><path class="cls-8" d="M392.1,7.63l.24.38L392,7.78Z"/><path class="cls-8" d="M400.26,8.37,400,8l.38.24Z"/><path class="cls-8" d="M407.38,8.37l-.62-.56.14-.14.59.6Z"/><path class="cls-8" d="M421.16,7.67l.61.57-.18.18L421,7.8Z"/><path class="cls-8" d="M428.27,7.67l.59.59-.11.11-.58-.59Z"/><path class="cls-8" d="M435.84,8.42l-.57-.62.14-.14.62.57Z"/><path class="cls-8" d="M342.85,8.18l.58.6-.19.19-.6-.57Z"/><path class="cls-8" d="M379.42,9l-.23-.39.4.22Z"/><path class="cls-8" d="M386.11,8.27l.6.58-.13.12L386,8.38Z"/><path class="cls-8" d="M400.37,8.27l.59.58-.12.12-.58-.6Z"/><path class="cls-8" d="M408,9l-.6-.59.11-.1.59.59Z"/><path class="cls-8" d="M415.06,9l-.24-.4.41.22Z"/><path class="cls-8" d="M421.77,8.24a2.64,2.64,0,0,1,.31.32c-.26.34-.36,0-.49-.14Z"/><path class="cls-8" d="M436,8.23l.23.42-.42-.23Z"/><path class="cls-8" d="M308.23,9.55l-.6-.58.13-.13.58.59Z"/><path class="cls-8" d="M344.56,9.45l.6.58-.15.15-.59-.6Z"/><path class="cls-8" d="M309.52,10l.6.6-.12.12-.61-.58Z"/><path class="cls-8" d="M345.16,10l.59.6-.13.13-.61-.58Z"/><path class="cls-8" d="M395.5,10.76l-.59-.6L395,10l.61.57Z"/><path class="cls-8" d="M409.75,10.77l-.6-.6.15-.16.62.58Z"/><path class="cls-8" d="M416.88,10.76l-.6-.59.15-.16.62.58Z"/><path class="cls-8" d="M430.67,10c.19.2.38.4.58.59l-.11.11-.6-.58Z"/><path class="cls-8" d="M310.59,11.34l-.59-.58.12-.12.58.59Z"/><path class="cls-8" d="M346.22,11.35l-.6-.59.13-.13.61.58Z"/><path class="cls-8" d="M374.26,10.62l.59.6-.12.12-.6-.59Z"/><path class="cls-8" d="M395.65,10.6l.61.59-.16.16-.6-.59Z"/><path class="cls-8" d="M402.8,10.59,403,11l-.41-.23Z"/><path class="cls-8" d="M409.92,10.59l.24.4-.41-.22Z"/><path class="cls-8" d="M417.05,10.59l.23.39-.4-.22Z"/><path class="cls-8" d="M346.36,11.21l.61.58-.16.16-.59-.6Z"/><path class="cls-8" d="M374.85,11.22l.63.56-.17.17-.58-.61Z"/><polygon class="cls-8" points="389.24 11.54 389.41 11.5 389.38 11.64 389.24 11.54"/><path class="cls-8" d="M396.26,11.19l.23.38-.39-.22Z"/><path class="cls-8" d="M432.89,12l-.6-.59.14-.14.61.58Z"/><path class="cls-8" d="M340.27,12.55l-.58-.6.14-.15.62.57Z"/><path class="cls-8" d="M347.42,12.54l-.61-.59.16-.16.61.58Z"/><path class="cls-8" d="M368.79,12.51l-.59-.57.13-.14.59.59Z"/><path class="cls-8" d="M375.48,11.78l.23.39-.4-.22Z"/><path class="cls-8" d="M397.85,12.56l-.25-.38.4.23Z"/><path class="cls-8" d="M412.13,12.53l-.36-.28c.31-.36.36,0,.47.17Z"/><path class="cls-8" d="M433.47,12.58l-.58-.62.15-.15.62.57Z"/><path class="cls-8" d="M298.12,13.13c-.17-.12-.52-.19-.15-.47,0,0,.2.21.31.32Z"/><path class="cls-8" d="M340.45,12.37l.24.41-.42-.23Z"/><path class="cls-8" d="M347.58,12.37l.23.39-.39-.22Z"/><path class="cls-8" d="M377.05,13.16l-.23-.39.39.22Z"/><path class="cls-8" d="M391.35,13.12l-.28-.36.39.25Z"/><path class="cls-8" d="M398,12.41l.6.59-.14.14-.61-.58Z"/><path class="cls-8" d="M405.6,13.12l-.59-.6.1-.09.6.58Z"/><path class="cls-8" d="M412.72,13.12l-.59-.59.11-.11.59.59Z"/><path class="cls-8" d="M419.88,13.08l-.63-.55.12-.11c.19.2.37.41.56.62Z"/><path class="cls-8" d="M433.66,12.38l.23.42-.42-.23Z"/><path class="cls-8" d="M298.71,13.74l-.59-.61.16-.15.62.57Z"/><path class="cls-8" d="M342,13.74l-.25-.37.4.23Z"/><path class="cls-8" d="M370.09,13l.58.6-.1.1-.6-.58Z"/><path class="cls-8" d="M391.46,13l.58.6-.09.09-.6-.58Z"/><path class="cls-8" d="M398.6,13l.59.6-.12.12-.61-.58Z"/><path class="cls-8" d="M298.9,13.55l.22.39-.41-.2Z"/><path class="cls-8" d="M342.62,14.36l-.58-.62.15-.14.62.57Z"/><path class="cls-8" d="M349.72,14.36l-.21-.42.44.18Z"/><path class="cls-8" d="M399.19,13.6l.61.58-.14.14-.59-.6Z"/><path class="cls-8" d="M342.81,14.17l.23.42-.42-.23Z"/><path class="cls-8" d="M399.8,14.18l.62.57-.17.17-.59-.6Z"/><path class="cls-8" d="M365.21,15.52a2.14,2.14,0,0,1-.31-.31c.26-.34.36-.06.49.13Z"/><path class="cls-8" d="M372.35,15.5l-.59-.59.12-.13.6.59Z"/><path class="cls-8" d="M379,14.79l.59.59-.11.1-.59-.58Z"/><path class="cls-8" d="M393.3,14.74c.11.11.33.3.31.33-.26.35-.36,0-.5-.14Z"/><path class="cls-8" d="M400.42,14.75l.24.4-.41-.23Z"/><path class="cls-8" d="M407.54,14.75l.24.39-.41-.22Z"/><path class="cls-8" d="M365.39,15.34l.22.4-.4-.22Z"/><path class="cls-8" d="M372.48,15.37l.59.59-.13.12-.59-.58Z"/><path class="cls-8" d="M374.07,72.54l-.23-.41.41.22Z"/><path class="cls-9" d="M238.18,199.48c.84-3.3,3.51-5.06,5.88-7.08l47.6,41.26c-1.63-.09-2.59-.37-3.42-.15-8.2,2.12-13.88-1.81-19.58-7.16C258.79,217.09,248.37,208.4,238.18,199.48Z"/><path class="cls-9" d="M311,251.08c-2.39,1.71-3.27,5-6.29,6l-6.58-5.4a12.21,12.21,0,0,1,5.93-7.12C306.28,246.84,309.26,248.28,311,251.08Z"/><path class="cls-10" d="M304,244.61a12.21,12.21,0,0,0-5.93,7.12c-2.13-1.07-2.88-2.59-1.55-4.78,2.37-.76,3.64-2.63,4.69-4.72C302.21,243,303.4,243.48,304,244.61Z"/><path class="cls-9" d="M301.25,242.23c-1.05,2.09-2.32,4-4.69,4.72a9.64,9.64,0,0,0,.43-7.83C299,239.77,300,241.16,301.25,242.23Z"/><path class="cls-12" d="M369.83,62.32l-2.38,0c.6-2.29-1.39-4.14-1.07-6.38,1-1.73,3.18-.67,4.37-1.9C371.33,56.88,369.59,59.49,369.83,62.32Z"/><path class="cls-4" d="M368.79,38.64c-.14-.23-.28-.46-.4-.7,0,0,.13-.11.21-.17.1.25.21.5.32.75Z"/><path class="cls-4" d="M362.85,13.73a2.33,2.33,0,0,1,.06.53l-.29-.37Z"/><path class="cls-8" d="M238.31,185.72a3.63,3.63,0,0,0-2.83-2.68l-1.64-2c3.8,1.34,7,3.75,10.33,5.89.67.42.26,1-.11,1.52-.54.71-1.11.57-1.78.16C240.87,187.76,240.13,186,238.31,185.72Z"/><path class="cls-4" d="M337,158.08c.15-.45.45-1,.9-.68.62.42.14.94-.23,1.35C337.4,158.53,337.18,158.3,337,158.08Z"/><path class="cls-4" d="M335.91,155c0,.07.14.14.13.21s-.1.12-.16.18-.14-.15-.13-.21S335.85,155.09,335.91,155Z"/><path class="cls-4" d="M289.06,122.34c1,.28,1.55.76,1.23,1.54-.54,1.29-.7,3-2.53,3.21a.83.83,0,0,1-.79-1.23C287.52,124.58,287.9,123.14,289.06,122.34Z"/><path class="cls-4" d="M279.79,118c1,0,1.41.47,1.29,1.11-.26,1.43-.58,2.94-2.3,3.35a.72.72,0,0,1-.88-.87C278.29,120.23,278.67,118.82,279.79,118Z"/><path class="cls-4" d="M371.74,168.57a7.53,7.53,0,0,1-.87,4.24.94.94,0,0,1-1.43.52.9.9,0,0,1-.36-1.46C369.85,170.81,370.34,169.5,371.74,168.57Z"/><path class="cls-7" d="M499.6,293.69c-13.77-.05-24.27-10.71-24.24-24.59a24.46,24.46,0,0,1,24.15-24.29,24.75,24.75,0,0,1,24.68,24.48A24.3,24.3,0,0,1,499.6,293.69Zm17.48-24.28c1.27-8.74-8.72-17.81-17.23-17.69-10.17.15-17.62,8.32-17.78,17A17.85,17.85,0,0,0,499.78,287C508.62,287,517.89,278.84,517.08,269.41Z"/><path class="cls-10" d="M191,50.73a9.88,9.88,0,0,1-.49,5.05c-5-1.17-9.93.26-14.9.19l-.06.81,10.56,8.42c-2.85,5.28-7.7,7-13.25,7.28a26.49,26.49,0,0,1-12.06-2.62c-3.76-1.69-5-3.86-4.9-7.88.15-9.66,2.95-9.8,9.84-9.85.89,0,1.77,0,2.66,0,4.24-.4,7.55-2.73,11.79-2.8A35.05,35.05,0,0,1,191,50.73Z"/><path class="cls-10" d="M240.8,66.71c-4.08,4-9.34,5-14.63,4.87-9.93-.29-18.65-9.67-18.9-19.66,0-1.37.58-2.09,1.92-2,3.51.19,7,.46,10.54.69a17.4,17.4,0,0,0,6.14-1c3.66-1.24,10.23-.15,14.46,1.72,1.72.76,1.83,2.64,1.48,4.82l-12.85-1c-.39,0-.8-.1-1,.31-.34.56,0,.89.43,1.21Z"/><path class="cls-10" d="M241.81,56.12c.35-2.18-1-3.1-2.72-3.86-4.23-1.87-8.73-1.12-13.12-1.43-2.08-.15-4.16-.16-6.24-.23-.93-2.55-3.39-3.58-5.29-5.09-2.06-1.65-1.6-2.22.55-2.92,8.35-2.73,16.83-2.63,25.36-1.2a4.77,4.77,0,0,1,4.05,3.5c1.54,5.77,2.14,11.55-1.1,17C242.12,60.17,243.16,57.84,241.81,56.12Z"/><path class="cls-10" d="M191,50.73c-3.31-1.09-6.59.19-9.88.25-4.25.07-8.48.72-12.72,1.12-.18-2.35-2.46-2.82-3.78-4.11-1.81-1.77-3.91-3.24-6.07-5a6.93,6.93,0,0,1,4-1.31A57.14,57.14,0,0,1,183.35,43C188,44.16,190.65,46.89,191,50.73Z"/><path class="cls-13" d="M193.29,55.6c.93-.61,1.28-.41,1.35.75.2,3.29-1,6.31-2.34,9.1-4.76,9.87-9.24,12.35-19.9,11.33-3.24-.3-6.38-1-9.06-3h0c1,.28,1.85.94,2.93.49,7.51,1.19,14.62.8,20.42-5a22.12,22.12,0,0,0,5.38-10C192.41,58,192.88,56.81,193.29,55.6Z"/><path class="cls-13" d="M241.81,56.12c1.35,1.72.31,4.05,1.49,5.81a6.07,6.07,0,0,1-2.5,4.78L228.35,56.65c-.4-.32-.77-.65-.43-1.21.24-.41.65-.34,1-.31Z"/><path class="cls-13" d="M186.15,65.2l-10.56-8.42.06-.81c5,.07,9.86-1.36,14.9-.19C189.6,59.16,188.52,62.48,186.15,65.2Z"/><path class="cls-13" d="M244.39,69.14c.41.7,1.38,1.06.13,2.19a18.1,18.1,0,0,1-9.43,4.43c-5.11.91-10.13,1-14.65-2.18,7.79.69,15.42.55,22-4.52C243.27,68.43,243.77,68.4,244.39,69.14Z"/><path class="cls-3" d="M160.26,48.54a17.37,17.37,0,0,0-7,5.39c-.43-2.14-1.18-4.69.24-5.6A6.31,6.31,0,0,1,160.26,48.54Z"/><path class="cls-11" d="M166.26,74.24c-1.08.45-2-.21-2.93-.49C164.43,73.16,165.31,73.91,166.26,74.24Z"/><path class="cls-9" d="M320.12,17.8l.64.65Z"/><path class="cls-9" d="M517.08,269.41c.81,9.43-8.46,17.58-17.3,17.59a17.85,17.85,0,0,1-17.71-18.3c.16-8.66,7.61-16.83,17.78-17C508.36,251.6,518.35,260.67,517.08,269.41Z"/></g></g></svg>