<svg xmlns="http://www.w3.org/2000/svg" viewBox="0 0 701.16 1081"><defs><style>.cls-1{fill:#e8e9eb;}.cls-2{fill:#fefefe;}.cls-3{fill:#fcfcfc;}.cls-4{fill:#0e4740;}.cls-5{fill:#e4b363;}.cls-6{fill:#e0dfd5;}.cls-7{fill:#cbcbcb;}.cls-8{fill:#932a52;}.cls-9{fill:#be6b83;}.cls-10{fill:#cec6be;}.cls-11{fill:#68645d;}.cls-12{fill:#bfc0bf;}.cls-13{fill:#bebebe;}.cls-14{fill:#fcbc94;}.cls-15{fill:#177764;}.cls-16{fill:#cccbcb;}.cls-17{fill:#eaa27d;}.cls-18{fill:#ccccce;}.cls-19{fill:#cccbca;}.cls-20{fill:#313638;}.cls-21{fill:#c8cdd1;}.cls-22{fill:#25485a;}.cls-23{fill:#efebd3;}.cls-24{fill:#f8a719;}.cls-25{fill:#c7c9cc;}.cls-26{fill:#635f58;}.cls-27{fill:#cac6c5;}.cls-28{fill:#625c56;}.cls-29{fill:#edad6e;}.cls-30{fill:#504c47;}.cls-31{fill:#c1c1c1;}.cls-32{fill:#7c756d;}.cls-33{fill:silver;}.cls-34{fill:#7a7367;}.cls-35{fill:#f2ecd7;}.cls-36{fill:#f5f1ce;}.cls-37{fill:#f1ebd6;}.cls-38{fill:#c2c3c2;}.cls-39{fill:#c0c1c2;}.cls-40{fill:#bfbfbf;}.cls-41{fill:#453628;}.cls-42{fill:#c2c2c2;}.cls-43{fill:#bdbdbd;}.cls-44{fill:#bfc0c0;}.cls-45{fill:#bfbebd;}.cls-46{fill:#7f7770;}.cls-47{fill:#c0c0c1;}.cls-48{fill:#bebdbd;}.cls-49{fill:#c1bebf;}.cls-50{fill:#bfbfc0;}.cls-51{fill:#c4c4c4;}.cls-52{fill:#c1bfc0;}.cls-53{fill:#bfbeba;}.cls-54{fill:#bcbcbc;}.cls-55{fill:#c0beb8;}.cls-56{fill:#bebebd;}.cls-57{fill:#bdbbbb;}.cls-58{fill:#bcbcbb;}.cls-59{fill:#bbb;}.cls-60{fill:#bdbfbd;}.cls-61{fill:#bdbbbe;}.cls-62{fill:#bcbdbc;}.cls-63{fill:#bfbebf;}.cls-64{fill:#bebdbe;}.cls-65{fill:#bcbfba;}.cls-66{fill:#bcbbbe;}.cls-67{fill:#bebdbb;}.cls-68{fill:#bdbebd;}.cls-69{fill:#bdbdbc;}.cls-70{fill:#bbbdbe;}.cls-71{fill:#c38a51;}.cls-72{fill:#cbc8bf;}.cls-73{fill:#254554;}.cls-74{fill:#334d5a;}.cls-75{fill:#efcda9;}.cls-76{fill:#fddcb7;}.cls-77{fill:#7d5f54;}.cls-78{fill:#102d42;}.cls-79{fill:#024988;}.cls-80{fill:#dfe1e1;}.cls-81{fill:#f6f9f9;}.cls-82{fill:#979999;}.cls-83{fill:#b8c6d1;}.cls-84{fill:#efd7a1;}.cls-85{fill:#f4c684;}.cls-86{fill:#708697;}.cls-87{fill:#d3a157;}.cls-88{fill:#ffd9a6;}.cls-89{fill:#c79a75;}.cls-90{fill:#d89f4c;}.cls-91{fill:#b09780;}.cls-92{fill:#9e9790;}.cls-93{fill:#c7c7c0;}.cls-94{fill:#a97524;}.cls-95{fill:#f2b25f;}.cls-96{fill:#4f3a1d;}.cls-97{fill:#92764d;}</style></defs><g id="Layer_2" data-name="Layer 2"><g id="cv"><rect class="cls-1" x="2.02" width="698" height="1077.24"/><path class="cls-2" d="M1,543c13.6-27.41,22.37-46.34,36.26-73.6,2.06-4,3.66-8.45,7.62-11.24,3.93-2.3,8.28-2,12.55-2,13.72-.06,27.44-.15,41.16,0,6.14.09,11.2-1.66,15.23-6.33.74-.86-.2.21.59-.61,24-24.68,19.65-14.2,20-47.29.25-27.16,0-54.31.11-81.47,0-5.71-1.09-10.16-7.22-11.86-3.28-2.74-3.52-6.69-4.13-10.48a16.45,16.45,0,0,1,2.17-8.19c14-27.89,27.74-55.86,41.67-83.76,6-12.06,7.38-12.23,19-6.35,52.9,26.63,106.12,52.61,159.28,78.71,79.85,39.2,159.45,78.89,239.26,118.17,58.78,28.92,58,27.66,116.44,57.28v39c-1,1.75-.1,138.21-1,140-34.07,68.77-1.63,8.92-35.73,77.67-40.59,81.84-80.63,164-121.46,245.67-19.45,38.93-38,78.29-57.78,117.08-1.29,2.54-2.18,5.32-4.34,7.35-208,0-271.67-.06-479.69.23"/><path class="cls-2" d="M77.54,818.91c5.88-1.82,10.89-3.54,8.49-11.66-1.49-5,2.83-7,6.66-8.45,8.81-3.44,18.21-5,27-8.63,4.36-1.83,6.42-3.44,5.09-8.75-1.78-7.14.38-9,7.59-7.2,11.13,2.82,22.16,5.37,33.81,5.33,21.34-.06,40.75-5.28,57.41-19.12a27.1,27.1,0,0,1,6.53-4.12,22.51,22.51,0,0,1,12.5-.15,15.82,15.82,0,0,1,4.94,3.29c11.31,9.46,15.78,9.93,28.34,2.64,6.21-3.6,12-4.51,18.22.22,12.66,9.67,18.23,9.46,31-.54a21.24,21.24,0,0,1,5.84-3.53,8.45,8.45,0,0,1,5.17,0c2.7,1.13,4.47,3.43,6.64,5.24,10.33,8.63,22.3,6.88,30-4.26,2.51-3.6,3.39-8.68,8.61-10,3.08-.51,6.26.28,7.67,2.74,4.41,7.66,11.73,9,19.41,10.28a17.16,17.16,0,0,1,10.91,6.22c1.18,1.65,2.47,3,4.79,3.08,7.1.35,13.81,2.71,21.18,4.11-5.79-9-4.53-21.89-17.26-26.66-4.26-1.59-5.28-7.24-8.09-10.82-4-5.05.9-8.44,2.68-12.28a18.55,18.55,0,0,0,0-16.47c-4.47-10-11-18.69-16.43-28.05-13.78-23.68-27.84-47.2-41.9-70.72-7.58-12.7-20-18.22-33-23-15.88-7.1-32-13.59-47.8-20.86-15.49-7.14-31.77-12.5-46.8-20.6-5.31-2.87-11.07-2.38-16.56-3.71-19-11.55-37.42-24-56.2-35.81-4.44-2.8-8.59-6.95-14.7-5.38-6.72-.38-11.09-5.5-16.52-8.44-4.23-2.28-7.18-1.95-10.59,1.35-4.75,4.57-8.27,10.17-13,14.75-4,3.87-2.69,6.56,1.16,9.69,14.81,12,28.62,25.17,43.33,37.3,2.19,1.81,4.12,3.93,6.12,6a37.89,37.89,0,0,0,4.39,4c4.15,4.11,11.23,6,10.46,13.85-17.49,13.86-34.7,28.07-50.83,43.49C110,636.65,92.76,643.31,75,649c-9.14,3-9.47,3.83-6.57,12.87,11,34.25,21.54,68.65,33.1,102.73.36,1.67,1,3.27,1.36,4.93,2.39,10.09,2,10.94-7.83,14-11.07,3.51-21.94,7.75-33.51,9.49-4.91-1.74-5.22-6.51-6.47-10.41Q35,719.83,14.92,657c-.43-1.36-.78-2.75-1.22-4.11-3.42-10.47-3.53-10.5-13.7-7.23"/><path class="cls-3" d="M700,146c-19.75,22.27,11.31,1.62-8.6,23.76-12.92,16.4-27.82,31.1-40.87,47.4A537.12,537.12,0,0,1,613,258.74a12.88,12.88,0,0,1-5,3.29c-12.65-1.5-19.86-11.31-28.43-18.9-4.43-3.92-6.21-12.07-11.64-13-5.78-1-8.8,7-13.77,10.25-8.25,5.32-16.73,9.78-26.71,10.59-10.31-1.37-15.81-10.15-23.52-15.5-4.35-3-7.4-7.79-12.62-9.77a6,6,0,0,1-1.76-1.61c-7.6-8.53-16.56-15.56-25-23.18-14.09-12.76-28.81-24.81-43.36-37-21.65-18.13-41.81-37.93-64-55.44C345,98.84,333.28,88.31,321.67,77.77c-13.05-11.86-26.85-22.94-40.2-34.46-11.88-10.25-23.57-20.76-35.32-31.18-1.91-1.69-4.92-3.61-2.61-7.13H401.65c4.78,3.11,8,7.93,12.62,11.25.93.67.48-1.55.18-.44-.07.26-.37.26-.76-.16-3.08-3.38-8.13-5.17-8.6-10.65h41.25c3.52,2.19,9.33-.75,11.26,5-2,7.7-4.59,14.81-14.28,15.35-2.27-.55-3.65-2.18-4.9-4-1.5-2.7-3.53-4.32-6.78-3.11-2,.75-3.28,2.23-2.9,4.48.75,4.4,4.9,3.84,7.78,5.13a4.18,4.18,0,0,1,2.2,3c-1.61,7.51-4.72,13.88-12.58,16.68-4-.42-5.28-3.94-7.52-6.4-1.67-1.84-3.65-2.69-6.08-1.55a3.75,3.75,0,0,0-2.28,3.33c-.12,2.37,1.52,3.52,3.4,4.39,7.36,3.42,13.7,8,17.37,15.52,1.08,2.23,2.86,3.54,5.52,2.86a4.07,4.07,0,0,0,3-2.73c.82-2.65-.73-4.32-2.75-5.62-2.39-1.55-4.93-2.92-5.68-6,.19-7.89,5.83-12,11.28-16.24A5.15,5.15,0,0,1,446.92,37,13.1,13.1,0,0,1,448.45,40c1.05,2.72,2.45,5.14,5.87,4.94a4.28,4.28,0,0,0,4.18-3.49c.86-3.86-1.68-5.52-4.68-6.8-.51-.22-1-.46-1.53-.7a6.82,6.82,0,0,1-3.78-4.82c1.67-7.15,6.75-11.36,12.77-14.76,3-.07,4.51,2,6,4.1,1.62,2.34,3.11,5,6.6,4.34a3.67,3.67,0,0,0,3.23-3.45c.33-4-3-5-5.62-6.55-3-1.79-7-2.91-6.23-7.78h39.53c6,6.27,5.56,14.78,7.48,22.35,5.22,20.63,12,40.91,14.88,62.09-1,3.9-3,4.14-5.83,1.58-3.07-2.77-5.59-6.12-9.15-8.35-6.46-4.94-11.93-11.07-18.82-15.52,6.54,4.54,12.11,10.22,18.3,15.18,6,4.32,10.35,10.65,17.22,13.89,5.16,10.28,6.35,21.71,8.92,32.66,3,12.66,7.28,24.94,9.84,37.68,2,8.06,9,12.89,13,19.66a50.63,50.63,0,0,0,7.54,8.48c.72.47,1.69,1.45,2.2,1.19,8.42-4.27,12.77,1.93,17.73,6.7,5.14,4.93,11.58,8.42,14.34,12.48a274.54,274.54,0,0,0-23.49-20.23,9.35,9.35,0,0,1-3.91-8.13c.1-3.07-.76-6.8,2.59-8.5s4.83,2.07,6.94,3.69c1.37,1,2.88,1.85,4.32,2.77,2.08,1.76,3.74,4,6,5.5-2-1.37-3.48-3.31-5.22-5-7.84-4.67-14.07-10.32-14-20.5,0-5.83,2-6.65,6.45-3.37,4.46,2.82,7.35,7.47,11.86,10.24,3,1.88,5.37,4.48,7.85,6.94-2.32-2.31-4.42-4.87-7.29-6.58-4.4-2.58-7.23-7-11.29-9.94a34,34,0,0,0-6.09-4c-5.72-3.75-6.27-9.91-6.79-15.75-.48-5.46,2.17-6.65,6.6-3.29q12,10.13,23.77,20.48c3,1.8,5.28,4.37,7.74,6.76-2.33-2.34-4.51-4.84-7.4-6.56-7.74-6.86-15.73-13.44-23.43-20.35-5.14-3.52-10.58-6.61-12.17-13.5-1.12-4.85,0-10.24-1.08-14.26-1.14-4.35-4.68-8.87-5.67-13.8-.69-3.45-2.28-9.37,5.37-5.76a33,33,0,0,1,7.55,6.8,27.81,27.81,0,0,0-7.5-6.74c-7.63-3.69-11-10.14-11.23-18.25-.13-3.76.8-7.14,5.85-4.24,5.61,3.31,9.09,9.07,14.51,12.59,1.48,1.12,3.16,2,4.18,3.33-.81-1.37-2.47-2.08-3.85-3.13C568.2,79,564.83,73.26,559.33,70c-9.71-5.79-14.62-13.7-11.2-25.31.61-2.07-1.53-2.73-2.29-4.1-2.33-4.24-4.78-8.51-4.91-13.45-.11-4.26,1.41-6.88,6.12-3.76,5.51,3.35,8.92,9.09,14.36,12.5,13.21,11.23,26.19,22.72,39.21,34.16,4.08,2.31,6.62,6.48,10.67,8.83,5.63,4,9.67,9.79,15.39,13.7a31.36,31.36,0,0,1,5.71,4.83A24,24,0,0,0,627,92.8C621.2,89,617.29,83,611.5,79.08c-4-2.46-6.58-6.52-10.63-8.87-13-11.44-26-22.92-39.15-34.13-5.51-3.41-8.91-9.24-14.52-12.54-6.7-4.37-12.83-9-9.78-18.54H546c7.49,6.14,14.8,12.49,22.15,18.79,5.62,4.11,10.06,9.61,16,13.37,1.18,1.48,2.72,2.59,4.17,4.23-1.07-1.4-2.24-2.29-3.19-3.38-6-4.27-11-9.67-16.83-14.16-5.35-4-9.7-9.13-15.24-12.94-1.79-1.23-4.51-2.68-3.59-5.91H701"/><path class="cls-4" d="M1,826c-1-17,.44-160.46,0-180,5.33-1.78,11.21-5.52,13.08.51,14.35,46.1,29.17,92.06,43.92,138,.85,2.65.92,5.67,3.17,7.76,7.71,10.48,6.66,14.68-5.36,18.61"/><path class="cls-5" d="M700,682c-12.19,24.45-12.16,24-24.23,48.54-11.53,23.43-22.5,47.13-34,70.59-11.23,23-22.78,45.8-34.19,68.68q-18,36-35.95,72.05-19,38.17-37.82,76.44-13.11,26.76-25.77,53.74c-1.46,3.08-5.14,4.81-5.05,8.73H480.71c-1.08-3.53,1.42-6,2.76-8.69C535.7,966.21,647.75,738.85,700,633"/><path class="cls-5" d="M701,233c-3,4,9.69-11.85-21.09,23.71-21.64,25-43.8,49.59-65.44,74.61-3.37,3.9-5.22,3.8-8.83.65C570.91,301.6,536,271.43,501.18,241.13c-27.48-23.93-54.77-48.07-82.34-71.89-35.59-30.74-71.46-61.16-107-91.9-23.73-20.5-47.22-41.27-70.72-62C237.26,11.94,232.15,10,229.79,5h6.88c14.6,10.06,26.86,22.9,40.47,34.12,20.42,16.82,40,34.61,60.14,51.75C351.57,103,366,115.09,380,127.7,395.81,142.05,412,156,428.26,169.91c19.17,16.48,38.21,33.13,57.5,49.48a30.54,30.54,0,0,1,5.05,5.83h0c9.31,4.7,16.16,12.59,23.92,19.15,24.67,20.85,48.89,42.24,73.25,63.48,1.72,1.5,3.5,2.95,5.19,4.49,4.6,4.21,8,3.47,12.1-1.29C641.65,268.77,638.57,276.23,675,234c9-11-2.08,2.44,26-30"/><path class="cls-6" d="M701,204c-60.55,69.79-35.43,40.33-95.77,110.3-4.38,5.07-6.93,5.34-12,.85-33.09-29.08-66.49-57.8-99.76-86.68a23.24,23.24,0,0,1-2.63-3.24c2.84-2.21,4.54-.1,6.5,1.59,7.21,6.22,14.6,12.25,21.72,18.56,2.42,2.16,4.7,4.05,8.13,3.8a12,12,0,0,1,1.3,1.84c14,12.85,28.22,25.47,43,37.39,7,5.62,7.51,5.48,13.34-1.69,6.28-7.71,13-15,19.54-22.5,1-1.13,2.4-1.91,3.48-3,8.52-9.74,17.26-19.52,26.17-28.66,13.66-14,24-30.74,38.77-43.77,6.61-5.84,21.56-25.61,28.21-31.78"/><path class="cls-7" d="M1,826c25.22-8,23.83-7.31,49-15.43,13.86-4.48,13.82-4.59,11.17-18.27,11-3.61,21.86-7.74,33-10.63,7-1.8,9.54-4.5,6.53-11.37a37,37,0,0,1-1.51-5.7c8.41-3.66,16.14,1.07,23.92,2.53,12.87,2.41,25.36,3.39,37.9-.93,11.82-4.08,24.33-6.59,34.19-15.17,3-2.62,6.38-4.82,8.43-8.4,2.19-3.83,5.53-4.63,9.55-3.47,5.61,6.13,11.47,12.07,16.63,18.62-27.66,26.05-60.2,28.29-95.05,19.64-2.87-.71-6.2-4-8.62-1.21-1.66,1.92.57,5.38,1.8,7.87,2,3.94,1.64,5.58-3.32,6.89-10.73,2.83-21.12,6.91-31.75,10.15-4.82,1.48-6.76,3.69-4.15,8.51,3.33,6.14.15,8.17-5.46,9.94C44.11,831.87,40.17,833.54,1,846"/><path class="cls-8" d="M518.52,5h13.75c3.11,1.6,4.19,4.53,4.91,7.65,6.58,28.61,14.36,56.92,21.3,85.45,4.51,18.56,9.58,37,13.94,55.59.66,2.82,1.6,5.5.44,8.36-4.18,4.41-9.24,5-14.81,3.47-4.76-5.22-4.56-12.21-6.19-18.44-11.49-43.67-22.23-87.54-33.11-131.37C517.89,12.23,516,8.62,518.52,5Z"/><path class="cls-9" d="M518.52,5q19.8,79.86,39.59,159.72a1.91,1.91,0,0,1-.26,2.55c-3.77,2.47-7.63,4-11.89,1.1q-8.54-33.35-17.05-66.69c-.49-2-.63-4-2.21-5.45-.8-1.6-.63-3.39-1-5.08Q518.09,60.08,510.46,29c-1.95-8-3.8-16-5.69-24Z"/><path class="cls-6" d="M490.81,225.22c-16.94-12.15-31.81-26.74-47.54-40.3Q342.73,98.21,242.48,11.16A82.71,82.71,0,0,1,236.67,5h6.87c0,2.34,1.69,3.58,3.2,4.82,22.9,18.93,44.14,39.77,67.68,58,9.81,7.59,18.15,17.08,27.87,25,15.71,12.82,30.89,26.3,46.17,39.65,12.83,11.21,25.39,22.75,38.26,33.92,9.12,7.91,18.95,14.91,27.68,23.33,8.22,7.93,17.67,14.6,25.8,22.61C484.07,216.17,492.4,216.81,490.81,225.22Z"/><path class="cls-10" d="M572,161.34q-13.47-53.86-27-107.73C540.91,37.37,536.52,21.2,532.27,5h5.15c.33,8,5.25,13.36,10.6,18.49l-.66.71c-2.19-.4-5.31-2.67-4.78,2.37a13.11,13.11,0,0,0,.55,3.33c3.16,8.37,8.84,15.63,6.89,25.92-1.15,6.08,6.54,9.32,10,14l-.72.78c-3.15-1.28-5.26-1.58-4.79,3.18.78,7.85,5.25,13.35,10.65,18.42l-.68.73c-2.2-.42-5.79-2.68-4.52,2.42,1.57,6.31,2.87,12.92,8.64,17.19-5.72,5-1.45,10.29-.22,15.38,1.33,5.5,7.46,6.81,10.26,11.09a3,3,0,0,1-1.71,1.65c-1.44-.71-3.21-2.3-4.26-1.92-1.87.67-.83,2.83-.5,4.35,1.17,5.4,2.17,10.9,6.81,14.7-1.55,1.42-4,1.62-5.06,3.7A1.61,1.61,0,0,1,572,161.34Z"/><path class="cls-11" d="M456.53,10.36c-2.08-4.29-7.47-2.28-10.19-5.36h18.9c2.57,3.1,5.3,5.9,9.46,6.89s5.38,4.06,5.07,7.77a6.1,6.1,0,0,1-5.27,5.9c-3.79.63-6.77-.72-8.19-4.47-.91-2.38-1.33-5-4.19-6A7.34,7.34,0,0,1,456.53,10.36Z"/><path class="cls-12" d="M568.14,24.19c-8.33-5.3-16-11.4-22.13-19.19h3.44c5.3,7.34,14.07,11.11,19.18,18.64Z"/><path class="cls-13" d="M652.57,5l15.16,14-1.48,1.63c-5.46-5.52-12.53-9.09-17.12-15.65Z"/><path class="cls-13" d="M405.09,5c3.18,6.28,10.33,8.84,13.91,14.78A43,43,0,0,1,401.65,5Z"/><path class="cls-14" d="M214.17,740.45c-6.13-1.66-7.37,3.6-10.61,6.77-7.46,7.32-16,13.69-26.21,16.64-13.39,3.87-26.4,9.28-41.06,7.75-10.11-1.05-19.76-3.63-29.53-5.91a29.65,29.65,0,0,0-7.51-1.1c-5.93-18.24-12.17-36.36-17.71-54.74-3.16-10.44-5.75-21.18-10.39-31.29-3.38-7.34-4.63-15.64-7-23.46-1.74-5.73,2.92-6.13,6.11-7.15,9.08-2.91,17.87-6.72,26.87-9.63,11.46-3.71,19.09-12.08,27.75-19.19,14.07-11.54,27.5-23.85,41.43-35.57,2.48-2.09,5.06-4.78,8.86-4.77,4.87-.73,8.83,3.94,13.86,2.34,14.6,10.39,27.64,22.58,40.55,34.92a4.09,4.09,0,0,1,.93,4c-8.12,9.85-18.55,17.56-25.59,28.47-3.73,5.79-5.88,11.64-5.25,18.46.87,9.38,7.39,16.19,16.74,16,19.63-.4,39.27-1.15,58.84-2.7,8.56-.68,17.09-.41,25.62-.52,11.33.71,22.59-.35,33.93-2-2.77-3.55-6.88-6.42-9.73-10.41C319.3,654.52,310.42,643.5,304,631c-3.5-6.76-9.85-9.83-16.72-12.55-11.12-4.41-21.65-10.3-33.3-13.44-3-.53-5.22-2.32-7.32-4.27-12.79-11.88-26.47-22.73-39.32-34.53a8.32,8.32,0,0,1-2.82-4.21c0-7.31,6.47-10.12,10.35-14.72,2.35-1.49,2.5-4.65,4.7-6.26,9.33-1.45,16.67,3.61,24.9,6.68,22.24,8.32,43.19,19.55,65.38,27.93,7.85,3,15.36,6.85,23,10.32,18.25,25.53,32.63,53.46,49.55,79.82,4.31,6.72,7.55,14.26,12.47,20.4,7.83,9.78,5.53,20.5,4.91,31.16-.19,3.28-2.78,5.53-5.8,7-7.74.92-10.54-6.18-15.62-9.59-2.5-3.19-6.18-5-9-7.86-2-2-4.29-3.65-7.4-6.28,1.33,8.9.16,16.58-5.22,23.1a34.42,34.42,0,0,1-2.61,2.92,37.55,37.55,0,0,1-5.25,4.75c-4.15,2.7-8.73,4.61-13.63,4.54-12.85-.18-25.56,1.77-38.37,2.15-25.6.75-51.22,1.08-76.77,3A17.33,17.33,0,0,1,214.17,740.45Z"/><path class="cls-6" d="M19.92,448.5c-4.45-.07-3.74-3.33-3.74-6.1,0-45.41.11-90.81-.13-136.21,0-6.4,2.48-7.45,8.15-7.41,30.27.22,60.54.05,90.8,0,3.41,0,6.89.45,9.9-1.78.67,3.48,2.38,6.79,1.82,10.48,2.94,3.3,2.68,7.4,2.69,11.36.06,30.22.12,60.44,0,90.65-.06,12.26-1.86,13.83-13.93,13.4a9.65,9.65,0,0,1-4-1.7c-3.13-2.45-4.77-6.36-8.29-8.5-5.66-3.45-7.61-2.61-8.85,4-1.29,6.88-1.51,7-6.2,3.09,1.63-8.08-.9-14.82-6.61-20.55-.11-.41-.21-.81-.31-1.21a5.5,5.5,0,0,1,.58-2.39c6-10.55,14.56-19.48,19.06-31,1.8-4.6,3.44-9,2.89-13.94-1.71-13-6.57-24.29-18.12-31.52-16.19-10.13-39.12-.75-45.84,18.61-.93,2.69-1.56,5.49-2.58,8.16-2.05,7-.72,12.79,3.33,19.21,5.27,8.37,10.94,16.6,15.34,25.54,1.58,7.36,2.11,14.31-6.81,17.59-11.34,2.05-17.42,9.13-20.43,20-1.85,6.72-3.2,13.82-7.6,19.63Z"/><path class="cls-15" d="M188.45,582.36c-5.51,2.83-9.18-1.2-13.29-3.56l-12.22-11.74c8.08-9.34,15.12-19.67,25.46-26.88,5.82.69,8.55,7.19,16.07,8.56-7.73-8-16.94-11-23.82-17.13,1.51,1.2,3.39,2,3.12,4.5C175,544.84,167.89,555,159,563.54c-17.27-15-34.45-30.06-51.9-44.83-4-3.4-4.46-5.72-.75-9.57,6.54-6.79,11.45-17.13,19.29-20.14,8.12-3.12,15,8.34,23.45,11.36,11.63,3.53,20.75,11.47,30.88,17.62q15.63,9.49,30.9,19.57c3.58,2.36,8.56,4.49,5.35,10.51-3.26,4.85-9.38,7.46-10.69,13.81C201.26,569.91,193.46,575,188.45,582.36Z"/><path class="cls-16" d="M392.45,723.71c6.88-6.8,8-24.68,2.82-32.66-8.93-13.83-16.6-28.51-25.54-42.25-8.08-12.42-15.57-25.21-23.12-37.89C341.8,602.83,335,595.6,332.84,586c12.56,4.92,25.16,9.87,32.62,22.19,7.23,11.93,14.22,24,21.34,36,11.49,19.36,22.78,38.84,34.59,58,6.28,10.2,8.35,19.88.06,29.84-.91,1.09-2.45,2.6-1.17,3.61,5.43,4.26,5.61,13.66,14.46,14.55,2.63.26,4.48,1.39,5,4.73,1.1,6.84,4.28,13,8.05,18.76,1.15,1.76,2.41,3.35.28,5.2a3.76,3.76,0,0,1-4.75.29,35.52,35.52,0,0,0-21.93-4.95c-3.1.28-2.36-2.51-2.65-4.33a8.29,8.29,0,0,0-.75-8.8c-1.64-2.29-3.31-4.7-3.89-7.48-1.49-7.12-3.33-13.57-12-15.33-2.75-.56-3.73-4-5.12-6.49C395.61,729,392.49,727.23,392.45,723.71Z"/><path class="cls-17" d="M214.17,740.45c4.24-2.69,9.23-3.27,13.83-3.14,22.57.66,45-2.2,67.54-1.91,13.42.16,26.66-2.55,40.11-1.93,5.17.24,9.83-2.65,14.41-5,6.61,7.35,3,14.86-.13,22-2.45,5.6-6.4,10.08-13.63,9l-5,.12c-7.44,2.4-14.13,1-19.52-4.62-3.9-4.09-6.53-4.86-10.81.1-6.48,7.51-25.28,8-32.93,1.61a45.62,45.62,0,0,1-8.82-9.73c-5,4.33-8.22,10.85-15.71,10.87l-13.65,0C222.55,753.9,216.86,748.54,214.17,740.45Z"/><path class="cls-18" d="M113.17,420.84a42.91,42.91,0,0,1,6,0c6.19.82,7.66-2,7.63-7.85-.22-35.16-.09-70.33-.08-105.5,8.34-1.48,10.48,2.08,10.37,10.28-.45,34.93-.32,69.87-.07,104.8,0,5.67-2.36,9.26-5.6,13.56-13.69,18.2-30.81,26-53.91,22.83-10.72-1.46-22.23-2.34-33.14,1.27l-.45-1.66c.3-5.84,3.58-9.5,8.64-11.88,5.82-1.41,11.73-.5,17.59-.76,9.16-.3,18.33.06,27.47-.2,10.83-2.63,14.65-13.29,22.63-18.47C119,422.78,112.52,426.31,113.17,420.84Z"/><path class="cls-7" d="M336.3,759.45c11.39-4.29,17.25-14.05,13.76-31l3.26-3.38c4.47.79,6.39,5.2,10.11,7.06,5.83,5.61,13.2,9.52,18,16.25a2.64,2.64,0,0,1-.15,2.26c-2.12.66-3,2.28-3.72,4.27C370.58,773.45,348.12,777.92,336.3,759.45Z"/><path class="cls-19" d="M243.52,757.8c6.13-4.41,13-8.12,15.39-18.57,3.09,10.11,8.27,15.6,15.15,18.86,5.77,2.73,12.17,1.73,18.36.2,3.88-1,7.23-2.95,8.65-6.36,2.61-6.27,5.81-5.65,9.18-1.3,5.44,7,13.06,8.27,21.06,8.94-4.91,2.83-7.73,8.29-13.32,10.34-9.18,3.38-17.61,2-24.35-4.87-5.62-5.71-10.58-4.89-16.48-1C263.44,773,254.32,771.24,243.52,757.8Z"/><path class="cls-15" d="M381.3,750.69v-1.35c5.21-6.92,10-14.22,17.51-19,1.45,3,2.29,7.23,6.17,7.33,8.68.22,9.2,6.46,10.2,12.49.82,5,3.82,8.86,6.56,12.78,3,4.32,1.36,6.09-3,7a20.16,20.16,0,0,0-8.94-4.93c-8.39-2.35-18.92-.45-22.35-12.23C386.77,750.33,383.52,751,381.3,750.69Z"/><path class="cls-20" d="M480.78,453.15l-12.39,16.34c-1.42,1.88-2.85,3.7-5.64,2.39-3.15-1.48-2.59-3.83-1.83-6.51a130.87,130.87,0,0,0,4.45-21c-3.06,6.12-6.08,12.26-9.2,18.35-1.09,2.12-1.55,5.25-5.42,3.43-3.3-1.55-2.93-3.64-1.61-6.26,6.26-12.53,12.53-25.06,18.69-37.64,1.39-2.83,3.13-3.92,6.09-2.44s5.4,2.58,4,7a163.06,163.06,0,0,0-6.14,27.69c5.27-7,10.61-13.88,15.77-20.93,2.52-3.43,5-5,9.26-2.49,4.9,2.9,1.75,5.89.42,8.65q-8.4,17.36-17.15,34.53c-1,2-1.06,5.57-5.13,3.84s-2.88-4.15-1.47-6.93c2.91-5.8,5.72-11.65,8.57-17.48Z"/><path class="cls-20" d="M321.09,350.6c-.53,1.62-.67,4.66-2.25,6.36-7.95,8.58-9.08,20.34-14.56,30-1.32,2.32-1.87,5.71-6.11,3.86-4.57-2-2.75-4.8-1.36-7.66,1.86-3.86,3.78-7.7,5.62-11.57,1-2.19,1.73-4.45-1.17-5.82s-3.23,1.5-4.05,3q-3.49,6.39-6.58,13c-1.37,2.95-3.12,3.58-6.12,2.22-3.55-1.59-2.58-3.7-1.33-6.19,6.15-12.27,12.37-24.49,18.28-36.87,2-4.23,4.43-4.68,8-2.35C314.05,341.54,320.86,342.15,321.09,350.6Z"/><path class="cls-20" d="M347.24,364c-.49,1.57-.61,4.54-2.13,6.33-7.54,8.88-9.09,20.56-14.66,30.32-1.36,2.39-1.73,5.62-6,3.33-3.84-2.06-2.62-4.34-1.33-7,2-4.13,3.92-8.26,5.74-12.45,1-2.27,1.22-4.77-1.68-5.7s-3.12,2-3.93,3.55c-2.22,4.32-4.15,8.79-6.27,13.17-1.15,2.38-2.74,3.41-5.49,1.94-2.52-1.34-3.31-3-2.06-5.54q9.39-19.28,18.8-38.54c1.31-2.68,3.28-4.12,6.17-2.27C339.34,354.24,347.15,354.43,347.24,364Z"/><path class="cls-20" d="M270.3,376.18c-8.36,0-14.71-7.18-11.83-14.13,5.13-12.35,11.38-24.23,17.17-36.31,1.08-2.27,2.63-2.65,4.86-1.5,2.94,1.5,3.31,3.6,1.94,6.36q-5.7,11.49-11.36,23a65.77,65.77,0,0,0-3,6.14c-.91,2.44-4.12,5.61-.53,7.43,4,2,5.1-2.47,6.42-5,4.3-8.37,8.37-16.87,12.53-25.32.75-1.53,1.43-3.11,2.31-4.57,1.2-2,2.83-2.53,5.06-1.4,2.4,1.22,3.62,2.71,2.25,5.41-5.92,11.7-11.67,23.5-17.88,35.05C276.67,374.22,273.84,376.74,270.3,376.18Z"/><path class="cls-20" d="M389.13,435c-8.6,0-14.45-7.71-11-15.93,4.87-11.55,10.95-22.59,16.42-33.9,1.25-2.59,2.74-3.19,5.41-2,3.07,1.42,3.45,3.23,2,6.12q-7.57,14.89-14.87,29.92c-1.13,2.34-4,5.46-.26,7.37s4.68-2.31,5.83-4.54c5-9.63,9.69-19.41,14.45-29.15,1.31-2.66,2.19-5.12,6.23-3.14s2.75,4.23,1.42,6.89c-5.24,10.47-10.43,21-15.72,31.4C397,432,394.15,435.11,389.13,435Z"/><path class="cls-20" d="M423.87,445.83a25,25,0,0,1,1.49-5.19c5.08-10.57,10.37-21,15.51-31.56,1.27-2.59,2.5-4.37,5.87-2.71s2.8,3.65,1.53,6.25c-4.8,9.73-9.53,19.5-14.27,29.27-1.23,2.53-3.45,5.91-.29,7.59,3.45,1.83,4.62-2.23,5.85-4.64,4.66-9.18,9.13-18.46,13.8-27.63,1.31-2.57,1.88-6.46,6.62-4.31s2.46,4.82,1.07,7.61c-5.12,10.23-10,20.6-15.44,30.65-2.48,4.57-6.16,8.74-12.4,6.75C428.11,456.29,423.69,453.68,423.87,445.83Z"/><path class="cls-20" d="M232.66,351.21c4.19-12.38,9.23-24.51,17.34-34.95,3.1-4,8.12-3.71,12.63-1.49,4.09,2,5.69,5.46,5.21,9.9-.19,1.69-.17,3.66-1.06,5-1.91,2.79-.62,9.34-6.8,7.41-6.91-2.16-1.6-6.32-.69-9.56.56-2,1.53-4-.65-5.35-2.45-1.48-3.75.71-4.62,2.4-4.31,8.4-8.47,16.88-12.66,25.34-.79,1.61-1.26,3.43.51,4.61,2.35,1.56,3.51-.41,4.87-1.92,2.65-3,2.69-11.93,9.33-6.28,4.35,3.71-1.51,8.38-3.68,12.16-2.72,4.76-7,6.42-12.45,4.27C234.64,360.64,232.23,357.05,232.66,351.21Z"/><path class="cls-20" d="M351.56,411c4.56-12.85,9.39-25.63,18.34-36.24,2.88-3.42,7.25-2.85,11.16-1.19s6.75,4.74,6.53,9.16a19.57,19.57,0,0,1-5.38,13.15c-1.22,1.24-2.64.08-3.92-.47-1.83-.78-2.73-2.07-2.05-4,.57-1.61,1.42-3.12,2.05-4.71.83-2.11,2.15-4.6-.91-5.8-2.39-.95-3.58,1.35-4.45,3.06-4,7.88-8,15.8-11.78,23.79-.92,1.94-2.09,4.64.82,5.88,2.33,1,3.51-1.29,4.52-3s1.81-3.57,2.8-5.3,2.66-2,4.44-1.31c1.63.6,3.78,1.48,3.19,3.38-1.8,5.79-4.44,11.39-10.09,14.3-4.34,2.25-8.27,0-11.69-2.95A10,10,0,0,1,351.56,411Z"/><path class="cls-20" d="M567.56,519.78c1.08-3.39.86-5.52-2.12-7-3.4-1.73-4.76.56-6.1,2.68-1.86,2.92-4,2.7-6.42,1-2.81-1.91-1.35-3.9,0-5.81,8-11.74,16.15-23.43,24.1-35.23,2.16-3.19,4.36-2.61,7.26-1.22,3.27,1.56,4.78,3.12,3.44,7.15-4.5,13.49-8.59,27.11-12.82,40.69-.76,2.42-2,4.3-4.89,3.18S566,522,567.56,519.78Z"/><path class="cls-20" d="M514.84,471.84q6.31-9.54,12.63-19.09c1.76-2.66,3.34-5.6,7.33-2.83,4.34,3,.25,5-1,6.87-7.44,11.14-15.22,22-22.71,33.15-1.95,2.9-3.46,4.8-7.4,2.7s-4.46-4.33-3.14-8.28c4.33-13,8.32-26.05,12.5-39.07.73-2.29.82-5.51,4.86-3.93,3.07,1.2,3.5,3.21,2.55,6.12-2.52,7.79-4.89,15.63-7.32,23.45Z"/><path class="cls-20" d="M611.26,495.78c-5.35-4.67-7.87-1.44-10.18,4-1.54,3.62-2.59,6.34,2.1,8.1,2.31.86,2.77,2.47,1.71,4.79-1.14,2.48-2.78,2.71-4.79,1.42-5.7-3.66-6.8,1.12-8.26,4.63-1.36,3.27-5.46,7.07.95,9.71,2.39,1,3.93,2.52,2.47,5.28s-3.42,2-5.8,1.06c-11.44-4.44-12-5.25-6.88-16.22,4.95-10.61,10.31-21,15.51-31.52,1.15-2.34,2.27-5.11,5.63-3,3.89,2.48,9.56,2.58,11.44,7.61C615.7,493.08,614.32,495.57,611.26,495.78Z"/><path class="cls-20" d="M570.16,470.64c-.58.7-1.72,2.78-2.29,2.64-7-1.8-7.14,4.35-9,7.91-4.59,8.57-8.72,17.39-13.08,26.09-1.28,2.57-2.25,5.27-6.28,3.05-3.86-2.12-2.51-4.37-1.16-7,4.12-8.18,8.37-16.3,12.17-24.62,1.92-4.19,6.91-8.34,1.11-13.52-1.22-1.1.31-4.12,1.45-4.43,5.22-1.42,8.63,3.17,13,4.66C568.16,466.08,570.48,467,570.16,470.64Z"/><path class="cls-20" d="M414.45,448.2c-9.53-.43-13.76-7.71-9.48-16.37,5.07-10.26,10.08-20.55,15.28-30.75,1.38-2.71,1.87-7.17,7.11-4.32,4.73,2.58,1.65,5.31.45,7.82-4.2,8.77-8.6,17.45-13,26.15-2,4.07-5.29,8.23,1.88,10.77a2.81,2.81,0,0,1,1.63,4.19C417.59,447.34,416.59,448.66,414.45,448.2Z"/><path class="cls-20" d="M548.76,459.52c-.5,1.08-1,2.4-1.68,3.67q-8.77,17.6-17.6,35.17c-1.21,2.39-1.88,5.7-6.09,3.86-4.52-2-2.84-4.71-1.39-7.61q9.19-18.35,18.35-36.71c1.07-2.14,2-4.34,5-2.87C547.14,455.89,549.13,456.66,548.76,459.52Z"/><path class="cls-20" d="M340.53,411.6c-3.22-1.51-6.81-2.1-4.49-6.72,6.5-13,12.89-26,19.32-39,.94-1.92,2-3.66,4.51-2.39,2,1,4.74,2.17,3.38,5-6.66,13.86-13.52,27.62-20.4,41.37C342.43,410.65,341.23,411.09,340.53,411.6Z"/><path class="cls-21" d="M216.17,548.06c1-6.16-4.42-7.47-7.95-9.74-17.84-11.45-35.88-22.6-53.82-33.91-1.89-1.19-3.58-2.69-5.36-4.05,1.92-1.21,3.84-3,6.24-1.4,21.45,14,43.84,26.54,64.26,42.1C219,543.68,220.75,547.39,216.17,548.06Z"/><path class="cls-22" d="M188.35,541.24q-8.78,9.84-17.57,19.68c-2.25,2.5-4,5.66-7.84,6.14l-4-3.51a83.29,83.29,0,0,1,24.19-27.88C187.05,535.5,189.14,537,188.35,541.24Z"/><path class="cls-23" d="M701,1029c-10-5-12.57-3.69-34.55-20.69-7.08-5.47-14.44-11.2-17.92-20.13-16.53-22.82-26.13-47.83-25.28-76.5C625.31,842.7,690,805,701,805"/><path class="cls-20" d="M1,122c25.19-.61,39.34-9,60.05-23.06,26.59-18,56.06-29.12,87.28-36.08,5.55-1.24,10.87-3,16.69-3.09,5.4-.11,8.77,1.7,10.17,6.94,3.09,3.56,4,7.51,1.9,11.86-6.11,12.43-3.88,24.32,2.13,36,3.5,6.84,7.53,13.48,8.53,21.32,1.11,8.75-.58,10.86-9.72,12.16a7.21,7.21,0,0,0-6.54,3.28c-11.29,15.24-27.31,22.91-44.95,27.87-3.84,1.08-7.41,3.1-11.51,3.29-6.81.58-13.36-.17-19.35-3.77C79.58,171.8,67.93,159.68,57.65,146c-3.9-2.9-8-5.5-13-5.84-11-.75-17.52,5.27-18.78,17.23-.66,11.37,1.12,22.73-2.25,34.09C17.92,210.68,19.31,213.37,1,220"/><path class="cls-5" d="M701,1040c-1,1-8-3-18.69-10.72-13.82-9.4-23.86-22.76-33.23-36.48-.91-1.33-2.12-2.88-.55-4.62C662,1002,677,1016,701,1025"/><path class="cls-5" d="M176.55,146.24c10.3-.66,12.64-6.06,7.43-17.1-5.7-12.07-13.94-23.25-12.71-37.72.38-4.44-.47-8.81,3.44-12.55,3.63-3.47.91-8.05.5-12.16,6.57,1.4,12.61,3.38,14.43,11.07.68,2.85,1.5,6,.07,8.37-9.38,15.36-3.65,29.2,3.65,43.06a106.92,106.92,0,0,1,6.47,13.91c3,8.54-.93,13.4-9.67,12.15-2.1-.3-3.36-.61-5,1.5-16.51,21.33-38.22,32.67-65.35,31.9-8.85-.25-17.73-2.63-24.11-9.93l20.47,1.46c20.44,1.51,38-5.13,52.92-19A23.07,23.07,0,0,0,176.55,146.24Z"/><path class="cls-5" d="M1,229c8.09-5.15,20.71-20.11,23.76-29,3.92-11.38,3.93-23.07,3-34.82-.25-3.31-.52-7-4-9,.95-10.49,4.63-15,13.78-17.47,8.49-2.31,15.58-1.23,20.09,7.24-15.33,2.89-20.15,8.88-20.41,24.37-.14,8.8.53,17.55-1.35,26.44C31.43,217.94,20.87,229.73,1,236"/><path class="cls-18" d="M51.06,448.77l-7.14,9.8c-10.36,2.28-18.32-1.19-24-10.07l.48-.34C30.7,444.55,40.93,443.68,51.06,448.77Z"/><path class="cls-24" d="M701,174c-6-4-8-3-10.89-5.81,19.44-22.23-8.55,10,10.89-12.19"/><path class="cls-25" d="M607.87,261.21c-.06,1.36-.31,2.62-1.67,3.31-7.84,1.11-15.27-1.61-22.75-2.93-15.15-2.67-30.62-2.55-45.64-6-3.89-.89-7.91-1.44-10.65-4.83,0-.53,0-1.07,0-1.6,14.11-1.94,26-8.28,35.11-19.09,4.82-5.74,7.49-3.87,10.74.95C581.93,244.21,593,254.94,607.87,261.21Z"/><path class="cls-26" d="M432.4,51.76c1.41,2.59,4.39,2.4,6.51,3.71,2.92,1.79,4.47,4.48,3.55,8a6.41,6.41,0,0,1-5.25,5.07c-3.37.56-6.63-.27-7.9-3.66-3.16-8.44-9.17-13.18-17.73-15.45-2.95-.78-4.55-3.47-4.36-6.68.16-2.85,2-4.71,4.43-5.89a6.16,6.16,0,0,1,7.79,1.62c2.22,2.52,3.11,6.19,6.6,7.63C428.58,47.52,431.78,48.19,432.4,51.76Z"/><path class="cls-27" d="M573.37,161.64c-.73-5.12,2.65-4.2,5.65-3.85a5.84,5.84,0,0,1,4.74,3.62,2.61,2.61,0,0,1-1.6,1.55c-1.46-.69-3.38-2.33-4.27-1.88-1.87.93.15,2.87,0,4.31-.92,10.07,7,14.37,12.83,20a1.34,1.34,0,0,1-2.18.14l-3.11-1.3c-2.77-1.16-4.94-7.35-7.62-3.73a9.84,9.84,0,0,0,2,13.13c9.88,8.42,19.58,17.07,29.36,25.63-.47.56-.93,1.13-1.39,1.7q-10.11-8.58-20.2-17.16c-2.83-2.4-5.62-4.83-8.56-7.08-.93-.71-2.83-2.7-3.37-.9-3.11,10.34-6.14.19-9.14.12a26.85,26.85,0,0,1,1-11.3C568.51,176.75,569.19,168.75,573.37,161.64Z"/><path class="cls-28" d="M409.56,82.68c-4.25-4.79-7.83-10.41-15.17-11.05-3.78-.33-5.31-3.22-5.69-6.5A6.16,6.16,0,0,1,393,58.46c3.16-1.16,6.55-.67,8.41,2.37,4.29,7,11,11.38,17.29,16.18,3.88,3,5.3,5.95,3.19,10.39C415.42,92.06,413.21,85.48,409.56,82.68Z"/><path class="cls-29" d="M546,168.37c4.27.81,7.88-2.13,12-2.12,6.66,4.54,7.32,11.22,6.53,18.41-1,1.83-2.31,3-4.6,2.38C554.43,181.43,548.67,176,546,168.37Z"/><path class="cls-30" d="M449.63,29.3l3.55,3.41c3.93,2.27,4.22,5.44,1,8.11-3.84,3.18-5.91-.44-8-3.09l-3.26-1.83a8.62,8.62,0,0,1-5.31-4.85l-1.62-2c-2.93-1.28-6-2.7-4.06-6.66,1.62-3.3,4.42-4.08,7.72-2.08l3.54,3.46C445.54,25.41,449,25.7,449.63,29.3Z"/><path class="cls-31" d="M659.13,67.18c-10.14-5.93-17.92-14.76-27-22a186.28,186.28,0,0,1-21.57-20.59c17,13.32,34,26.56,49.13,42Z"/><path class="cls-32" d="M446.2,37.73c2.47.49,3.86,4.79,7.12,2.25,3-2.34,1.33-4.87-.14-7.27,5.39.25,8.69,2.93,8.19,8.46a6.6,6.6,0,0,1-6.81,6.34C448.47,47.39,446.74,42.92,446.2,37.73Z"/><path class="cls-33" d="M600.73,70.56c-14.17-10.29-27.08-22-39.6-34.23l.69-.76A302.91,302.91,0,0,1,601.27,70Z"/><path class="cls-31" d="M496.45,140.52A261.05,261.05,0,0,1,534.29,173l-.65.72a282.4,282.4,0,0,1-37.7-32.65Z"/><path class="cls-31" d="M475.76,140.55c13.81,9.46,26,20.78,37.91,32.51l-.65.71a282.92,282.92,0,0,1-37.7-32.72Z"/><path class="cls-31" d="M563.5,197.35l33.81,29.43-1.42,1.65c-11.43-9.69-23.32-18.83-33.89-29.54Z"/><path class="cls-34" d="M439.67,20.34c-8.1,1.47-8.55,2.54-3.66,8.74-4.88.25-9.28-.64-10.19-6.34A6.34,6.34,0,0,1,431,15.16C435.22,14.22,438.93,15,439.67,20.34Z"/><path class="cls-35" d="M437.63,31.05l5.31,4.85c-3.42,5.35-9.8,8.74-10.54,15.86L426,46.12C432.36,43,434.64,36.74,437.63,31.05Z"/><path class="cls-36" d="M391.23,92.55c-1.81,8-9.05,12-14.16,17.51a2.18,2.18,0,0,1-2.11-.16,3.51,3.51,0,0,1,.43-4.63c4.6-4.8,9.32-9.49,14-14.23Z"/><path class="cls-37" d="M449.63,29.3l-6.42-5.5c8.78-.19,9.44-8.42,13.32-13.44l5.59,4.72C457.19,19.14,452.63,23.53,449.63,29.3Z"/><path class="cls-38" d="M580.08,70.4c-9.52-5.67-17-13.64-24.56-21.56,10,5.71,18.1,13.83,26.54,21.48A1.27,1.27,0,0,1,580.08,70.4Z"/><path class="cls-33" d="M662.32,34.45A190.18,190.18,0,0,1,637.5,13.28l1.39-1.62L664.6,34.21A1.55,1.55,0,0,1,662.32,34.45Z"/><path class="cls-33" d="M621.32,70.42c-9.32-6-17.11-13.64-24.59-21.71C607,54.22,614.68,62.87,623.36,70.3A1.3,1.3,0,0,1,621.32,70.42Z"/><path class="cls-31" d="M657.35,137.47c-8.71-5.32-15.81-12.51-22.74-19.94,9.37,5.19,17,12.6,24.76,19.81A1.34,1.34,0,0,1,657.35,137.47Z"/><path class="cls-31" d="M664.87,89c9.33,6,17.15,13.7,24.61,21.85-9.23-6.07-18-12.71-25.14-21.28Z"/><line class="cls-33" x1="679.8" y1="67.17" x2="680.32" y2="66.6"/><path class="cls-13" d="M479.27,71.74A142.36,142.36,0,0,1,505,94.06l-.52.57a139.9,139.9,0,0,1-25.79-22.28Z"/><path class="cls-33" d="M662.32,34.45l2.28-.24c7.64,6.66,16.13,12.37,22.59,20.34l-.52.56C677.49,49.48,669.78,42.11,662.32,34.45Z"/><path class="cls-31" d="M645.53,145.92c-7.42-6.25-15.38-11.9-20.56-20.7l22.1,19.14Z"/><path class="cls-33" d="M511.33,82.64a93.89,93.89,0,0,1-22.72-20.21A112.51,112.51,0,0,1,512,82C511.74,82.19,511.54,82.42,511.33,82.64Z"/><path class="cls-13" d="M446.29,116.74c-7.41-6.34-15.35-12.11-20.7-20.82l22.21,19.29Z"/><path class="cls-31" d="M685,89.76c-.84-.76-.78-1.44.19-2"/><path class="cls-39" d="M577,140.66l1.71-1.64c7.59,6.72,16.12,12.39,22.55,20.39l-.46.5C591.66,155,585.1,146.84,577,140.66Z"/><path class="cls-40" d="M600.42,105.28c7.32,5.27,14.77,10.28,20.23,17.63A65,65,0,0,1,600.42,105.28Z"/><path class="cls-41" d="M559.9,187l3.31-1.68c2.26-1.57,4.44-1.93,6.45.41-1.35,3.31-.59,7.25-3.09,10.2C564.86,192.61,559.52,192,559.9,187Z"/><path class="cls-40" d="M641.87,105.27c7.08,5.45,14.76,10.14,19.85,17.8C654.52,117.79,647.05,112.85,641.87,105.27Z"/><path class="cls-40" d="M492.45,48.29c-6.81-3.12-10.94-9.37-16.56-13.91,7.3,2.43,12.23,7.84,17.14,13.26Z"/><path class="cls-42" d="M568.63,23.64c6.58,3.54,11.77,8.76,16.94,14a1.3,1.3,0,0,1-2.05.12c-6.19-3.32-11-8.21-15.37-13.58Z"/><path class="cls-43" d="M660.87,104.79c-6.29-2.53-9.81-8.22-14.66-12.38l1.36-1.74,15.25,14A1.24,1.24,0,0,1,660.87,104.79Z"/><path class="cls-44" d="M611.5,185.4l15.23,13A23.71,23.71,0,0,1,611.5,185.4Z"/><path class="cls-40" d="M603.89,198.08c5,3.32,10.39,6.18,14.87,12.63C611.35,207.62,607.41,203,603.89,198.08Z"/><path class="cls-45" d="M525.74,91.15a7.36,7.36,0,0,1,1,5.08c-6.12-3.4-10.83-8.39-15.37-13.59A7.93,7.93,0,0,0,512,82C517.64,83.39,519.44,90.65,525.74,91.15Z"/><path class="cls-13" d="M611.61,78.59c6.39,3.19,10.76,8.64,15.45,13.74l-.53.58c-6.44-3.1-10.81-8.56-15.55-13.61Z"/><path class="cls-46" d="M409.56,82.68c4.31,1.06,7,6.45,12.36,4.72C415.6,92.73,412.65,91.6,409.56,82.68Z"/><path class="cls-40" d="M605.87,93c-6.38-3.18-10.76-8.63-15.45-13.73l.48-.55c6.56,3,10.77,8.63,15.6,13.59Z"/><path class="cls-31" d="M464,94.19c5.8,2.52,9.52,7.4,13.53,12l-.42.47c-6.16-2.72-10.22-8-15.14-12.28A1.4,1.4,0,0,1,464,94.19Z"/><path class="cls-47" d="M388.2,28.78c6.23,1.88,8.59,8.44,14,11.36-6.85-1-10.24-6.46-14.53-10.77Z"/><path class="cls-13" d="M695.26,44.82c-6.15-2.74-10-8.32-15-12.36a1.43,1.43,0,0,1,2-.16c5.81,2.5,9.48,7.44,13.56,11.91Z"/><path class="cls-40" d="M654.3,46.06a69,69,0,0,1-14-13.33l.39-.44c6,2.31,9.5,7.47,13.73,11.81C655.36,44.83,655.3,45.48,654.3,46.06Z"/><path class="cls-33" d="M394.84,18.52a38.34,38.34,0,0,1-11-11.08,40,40,0,0,1,12.6,9.63A2.27,2.27,0,0,1,394.84,18.52Z"/><path class="cls-13" d="M602.59,36.08c-5.85-2-9.09-6.85-12.53-11.48,5.07,2.81,9.79,6,12.81,11.17Z"/><path class="cls-40" d="M659.69,66.58c5.87,2.54,9.64,7.49,13.77,12l-.52.56c-5.92-2.47-9.64-7.48-13.81-12Z"/><path class="cls-48" d="M573.19,82.66c-5.8-2.65-9.6-7.62-13.85-12.06a2.49,2.49,0,0,0,.71-.77c5.62,2.88,9.67,7.53,13.78,12.13C573.62,82.19,573.4,82.42,573.19,82.66Z"/><path class="cls-43" d="M458.66,71.69c5.46,2.47,9,7,12.48,11.65-5.45-2.36-9.25-6.69-13.1-11Z"/><path class="cls-40" d="M619.73,104.88c-6-2.33-9.52-7.6-13.85-11.9l.61-.69c5.77,2.65,9.68,7.42,13.71,12Z"/><path class="cls-13" d="M456.34,106.72c-5.8-2.61-9.64-7.46-13.74-12l.58-.65c5.8,2.6,9.52,7.6,13.79,12Z"/><path class="cls-40" d="M484.43,94.08c5.89,2.48,9.58,7.49,13.75,12l-.59.66c-5.76-2.65-9.65-7.42-13.71-12Z"/><path class="cls-40" d="M490.79,118.66c-6-2.42-9.66-7.46-13.73-12l.42-.46c5.93,2.46,9.72,7.37,13.78,12Z"/><path class="cls-49" d="M561.13,36.33c-5.65-2.85-9.73-7.46-13.77-12.14a2.9,2.9,0,0,0,.65-.7c5.75,2.71,9.61,7.59,13.8,12.08C561.58,35.82,561.35,36.07,561.13,36.33Z"/><path class="cls-13" d="M475.32,141.05c-5.72-2.16-9-7-12.51-11.57,5.5,2.31,9.26,6.65,12.95,11.07Z"/><path class="cls-13" d="M628.75,147.37c5.88,2.5,9.56,7.55,13.81,11.93l-.62.69c-5.77-2.65-9.71-7.38-13.7-12.06Z"/><path class="cls-40" d="M601.23,159.41c5.8,2.08,8.64,7.39,12.68,11.41-5.61-2.2-9.53-6.37-13.14-10.91Z"/><path class="cls-13" d="M594.36,171.42c5.82,2.06,8.66,7.36,12.66,11.43-5.58-2.23-9.47-6.43-13.15-10.89Z"/><path class="cls-33" d="M513.67,173.06c5.66,2.25,8.73,7.28,12.51,11.57-5.6-2.18-9.26-6.67-13.15-10.87C513.25,173.54,513.46,173.3,513.67,173.06Z"/><path class="cls-43" d="M387.65,29.37c-5.81-2.61-9.61-7.51-13.75-12l.5-.56c6,2.46,9.72,7.4,13.8,12Z"/><path class="cls-40" d="M380.85,41.31c-5.94-2.45-9.67-7.47-13.88-11.92l.6-.66c5.76,2.68,9.75,7.38,13.7,12.1Z"/><path class="cls-50" d="M474.09,47.83l11.49,10.71C479.68,57.27,476.21,53.2,474.09,47.83Z"/><path class="cls-40" d="M493,47.64c5.54,2.38,9,7,12.39,11.65-5.41-2.41-9.22-6.67-13-11C492.64,48.07,492.84,47.86,493,47.64Z"/><path class="cls-13" d="M687.19,54.55c5.92,2.46,9.54,7.6,13.86,11.92l-.67.74c-5.76-2.68-9.71-7.42-13.7-12.1Z"/><path class="cls-43" d="M652.79,78.65c5.33,1.91,8.48,6.36,12.07,10.3l-.51.57a27.57,27.57,0,0,1-12-10.38Z"/><path class="cls-40" d="M381.27,40.83c5.27,1.9,8.44,6,10.25,11.6L380.85,41.3Z"/><path class="cls-51" d="M652.82,149.18l9.57,8.63c-5.57.06-7.78-4.21-11-7.14Z"/><path class="cls-50" d="M450.58,83.07c-4.73-1.06-7.22-4.85-11.69-8.91C445.68,75.17,447.25,80.29,450.58,83.07Z"/><path class="cls-13" d="M565.2,92.2c4.81,2,7.8,6,10.75,10-5-1.72-8.12-5.59-11.43-9.3A2.63,2.63,0,0,0,565.2,92.2Z"/><path class="cls-52" d="M582.16,163l1.6-1.55a45.58,45.58,0,0,1,10.59,10l-.48.54C588.65,170.68,586.45,165.46,582.16,163Z"/><path class="cls-43" d="M491.26,118.13c5,1.7,7.85,5.87,10.81,9.9-4.92-1.73-8.05-5.61-11.28-9.37Z"/><path class="cls-53" d="M534.29,173c4.84,2,7.73,6,10.67,10.05-4.78-1.9-8.15-5.49-11.31-9.33A5.49,5.49,0,0,0,534.29,173Z"/><path class="cls-54" d="M478.72,72.35C473.81,70.5,471,66.42,468,62.42c4.8,1.85,8.14,5.46,11.28,9.32Z"/><path class="cls-55" d="M548.81,186.22c4.73,1.37,7.16,5.22,12.28,9.51C553.77,194.08,551.51,189.79,548.81,186.22Z"/><path class="cls-13" d="M679.8,67.17c-5-1.75-7.82-5.86-10.72-9.92,4.74,1.93,8.13,5.47,11.23,9.35Z"/><path class="cls-13" d="M627,56.31c5,1.7,7.85,5.79,10.71,9.88-4.72-1.93-8.11-5.45-11.22-9.31Z"/><path class="cls-13" d="M372.71,51.1c5,1.66,7.7,5.83,10.58,9.84-4.68-1.91-8-5.45-11.14-9.22Z"/><path class="cls-43" d="M626.51,56.88c-5.29-2-8.35-6.5-12-10.35L615,46c5.35,1.89,8.5,6.33,12,10.33Z"/><path class="cls-13" d="M685.2,87.72l-.18,2c-5.1-2.31-8.65-6.38-12.07-10.59l.5-.56C678.49,80.2,681.05,85,685.2,87.72Z"/><path class="cls-43" d="M695.26,44.81l.55-.6"/><path class="cls-13" d="M654.3,46.06l.15-2c4.95,1.86,7.79,6,10.29,10.8Z"/><path class="cls-56" d="M372.15,51.72c-5.17-2.1-8.46-6.37-12-10.39l.48-.52c5.26,2,8.55,6.26,12,10.3Z"/><path class="cls-43" d="M588.56,185.56l2.18-.14,10,8.82C594.89,193.54,591.93,189.29,588.56,185.56Z"/><path class="cls-54" d="M602.87,35.77c5.54,1.62,8.51,6.3,12.12,10.21l-.49.54c-5.2-2.07-8.55-6.26-11.91-10.44Z"/><path class="cls-43" d="M550.88,208l-9.59-9.06,1.38-1.54,9.69,9Z"/><path class="cls-43" d="M360.18,41.33c-5.24-1.47-7.49-6.23-10.91-9.73,5,1.63,8.21,5.4,11.39,9.21Z"/><path class="cls-43" d="M666.62,125.11l9.67,9.06c-5.56-.26-7.63-4.82-11.38-7.27Z"/><path class="cls-57" d="M488.67,26.27c4.5,1.53,7.24,5.21,12,9.92C493.84,34,491.24,30.16,488.67,26.27Z"/><path class="cls-13" d="M682.25,32.3l-2,.16L670,23.76C676,24.19,678.75,28.73,682.25,32.3Z"/><path class="cls-13" d="M640.33,32.73c-5.43-1.74-8.45-6.37-12.17-10.16l.64-.71c5.23,2,8.43,6.4,11.92,10.44Z"/><path class="cls-40" d="M367,29.39c-5-1.72-7.54-6.11-10.79-9.76,5,1.6,8.19,5.36,11.38,9.1Z"/><path class="cls-43" d="M344.69,29.25l-9.64-9.1c5.4.64,7.75,4.74,11.29,7.46Z"/><path class="cls-40" d="M394.84,18.52l1.56-1.45c3.83,2.47,7.05,5.57,11,10.78C401,25.58,398.71,21,394.84,18.52Z"/><path class="cls-58" d="M583.54,127.37c-4.83-2-7.85-5.9-10.72-10,4.85,1.82,8,5.63,11.35,9.32Z"/><path class="cls-13" d="M628.16,22.57c-4.81-2-7.8-5.88-10.6-10,4.67,2,8.09,5.5,11.24,9.33Z"/><path class="cls-54" d="M597.83,11.61l9.65,9.19c-5.34-.42-7.53-4.8-11.31-7.16Z"/><path class="cls-33" d="M577.19,11.76l9.64,9c-5.27-.83-8.12-4.21-11.07-7.47Z"/><path class="cls-59" d="M373.9,17.34c-5.07-1.69-7.7-6-10.8-9.89,4.93,1.73,8.09,5.57,11.3,9.33Z"/><path class="cls-13" d="M342.43,7.59c4.81,1.2,7.21,5.18,10.1,8.59C347.72,15,345.3,11,342.43,7.59Z"/><path class="cls-13" d="M331,17.29l-9.45-8.83,1.25-1.56q4.83,4.32,9.67,8.63Z"/><path class="cls-60" d="M584.17,126.67c4.74,2,7.85,5.79,10.63,10a28.36,28.36,0,0,1-11.26-9.27Q583.84,127,584.17,126.67Z"/><path class="cls-61" d="M512.79,119.18c4.54,1.52,7.46,4.89,9.88,8.82C518.07,126.54,515.31,123,512.79,119.18Z"/><path class="cls-43" d="M457,106c4.81,2,7.77,5.93,10.64,10-4.77-1.89-8.08-5.52-11.27-9.31C456.55,106.49,456.77,106.26,457,106Z"/><path class="cls-54" d="M495.94,141.08c-5.14-1.62-7.63-6.13-10.82-9.89a27.48,27.48,0,0,1,11.33,9.33Z"/><path class="cls-43" d="M628.24,147.93c-5-1.68-7.74-6-10.81-9.82,4.84,1.81,8.1,5.52,11.32,9.27Z"/><path class="cls-62" d="M498.18,106c5.08,1.67,7.57,6.28,11,9.81-5.29-1.24-8.19-5.55-11.63-9.15A5.34,5.34,0,0,0,498.18,106Z"/><path class="cls-63" d="M528.6,151.33c-5.18-1.51-7.73-5.92-10.74-9.84,4.87,1.74,8,5.55,11.21,9.31Z"/><path class="cls-13" d="M620.2,104.34c4.94,1.81,7.84,5.83,10.68,10-4.64-2-8.12-5.45-11.15-9.42Z"/><path class="cls-54" d="M609.85,151c5.39.57,8,4.13,10.12,8.51Z"/><path class="cls-59" d="M579.69,105.4c4.64,1.58,7.38,5.15,10.06,8.79C585.09,112.78,582.33,109.09,579.69,105.4Z"/><path class="cls-64" d="M529.07,150.8c5.21,1.47,7.48,6.34,11.11,9.66-5.39-1.12-8.27-5.4-11.58-9.14Z"/><path class="cls-65" d="M505,94.06c5.09,1.63,7.67,6,10.72,9.85-4.76-1.89-8.16-5.4-11.24-9.28Z"/><path class="cls-54" d="M627.06,92.33c4.91,1.83,8,5.73,10.75,9.93-4.76-1.92-8.11-5.52-11.27-9.36Z"/><path class="cls-43" d="M585.88,94.17c5.23.86,8.17,4.12,10.06,8.67Z"/><path class="cls-43" d="M642.56,159.3c4.92,1.54,7.23,6,10.49,9.45-4.95-1.34-8-5.14-11.1-8.77A8,8,0,0,0,642.56,159.3Z"/><path class="cls-54" d="M671.75,112.94c4.58,1.7,7.46,5.13,8.71,10.33l-9.31-9.67Z"/><path class="cls-43" d="M652.34,79.14c-4.3-1.19-6.75-4.57-10.6-9.08,5.94,1.86,8.43,5.3,11,8.59Z"/><path class="cls-13" d="M621.32,70.42l2-.12,8.22,7C626.4,77.33,624.11,73.54,621.32,70.42Z"/><path class="cls-54" d="M601.27,70c4.61,1.48,7.26,5.32,10.34,8.64a8.47,8.47,0,0,0-.63.7c-4.47-1.68-7.35-5.22-10.25-8.74Z"/><path class="cls-54" d="M580.08,70.4l2-.08a32.21,32.21,0,0,1,8.84,8.38l-.48.55C585.84,77.63,583,74,580.08,70.4Z"/><path class="cls-66" d="M458,72.38c-4.22-1.3-6.52-4.67-8.74-8.16,4.1,1.28,6.69,4.43,9.36,7.47Z"/><path class="cls-13" d="M583.52,37.76l2.05-.12,8.22,7C588.54,44.73,586.35,40.82,583.52,37.76Z"/><path class="cls-43" d="M660.87,104.79l2-.1a30.71,30.71,0,0,1,8.93,8.25l-.59.66C666.64,111.93,663.77,108.35,660.87,104.79Z"/><path class="cls-40" d="M657.35,137.47l2-.13c3.32,1.76,5.65,4.54,8.89,8.47C662.42,144.4,660.15,140.58,657.35,137.47Z"/><path class="cls-54" d="M481.36,127.81c-3.92-1-6.35-3.65-9.38-7.46C477.39,121.3,479.08,125,481.36,127.81Z"/><path class="cls-13" d="M631.6,170.14l-7.83-7.38C628.36,163,630.56,166,631.6,170.14Z"/><path class="cls-67" d="M527.92,114c-4.25-.51-6.2-3.89-8.56-6.84C523.61,107.59,525.35,111.36,527.92,114Z"/><path class="cls-40" d="M464,94.19l-2,.14-8.35-7C458.79,87.26,461.07,91.13,464,94.19Z"/><path class="cls-54" d="M442.6,94.71c-4.39-1.12-6.4-5-9.23-8,4.7.54,6.92,4.41,9.8,7.39C443,94.27,442.78,94.49,442.6,94.71Z"/><path class="cls-43" d="M450.63,119.54c4.38.28,6.05,3.91,8.55,6.61C454.88,125.9,453.32,122,450.63,119.54Z"/><path class="cls-54" d="M601.59,124.58c-3.85-1-6.11-3.84-8-7.09C597.51,118.47,599.78,121.27,601.59,124.58Z"/><path class="cls-54" d="M598.62,139.75c3.92,1.17,6.37,3.85,10,8.43C602.77,146.14,600.71,142.85,598.62,139.75Z"/><path class="cls-59" d="M573.83,82c4.19,1.36,6.65,4.73,10.49,9.11-6-1.6-8.21-5.49-11.12-8.41C573.42,82.44,573.63,82.2,573.83,82Z"/><path class="cls-54" d="M642.94,88.21c-4.07-.69-6.34-3.64-10.05-7.85C638.75,81.7,640.35,85.6,642.94,88.21Z"/><path class="cls-54" d="M483.88,94.69c-4.26-1.29-6.67-4.72-10.56-9.13,6,1.7,8.3,5.46,11.11,8.53Z"/><path class="cls-43" d="M687.65,19.65c-4.21-.81-6.12-4-8.24-7C683.43,13.48,685.56,16.59,687.65,19.65Z"/><path class="cls-68" d="M539.88,196.51c-5.76-2.42-8.08-5.24-11.74-9.74C533.9,188.79,536.15,191.68,539.88,196.51Z"/><path class="cls-69" d="M505.87,131.42c4,.7,6.24,3.72,9.92,7.82C510,137.93,508.38,134.09,505.87,131.42Z"/><path class="cls-43" d="M617.68,174.13c3.85,1,6,3.89,7.93,7C621.65,180.29,619.51,177.38,617.68,174.13Z"/><path class="cls-70" d="M527.16,250.78c18.62,5.41,38.11,5,57,8.5,7.44,1.39,15.13,1.61,22,5.24-8.08,9.49-16.11,19-24.29,28.45-1.68,1.93-3.16,4.84-6.77,1.67-15.76-13.83-31.74-27.41-47.62-41.11C526.68,252.81,525.78,251.89,527.16,250.78Z"/><path class="cls-71" d="M569.66,185.77l-6.45-.41c.53-7-2.78-12.94-5.24-19.11.06-.51.11-1,.14-1.53,4.77-.53,9.64-.66,13.88-3.38a3.3,3.3,0,0,1,1.38.3Q571.51,173.7,569.66,185.77Z"/><path class="cls-72" d="M468.22,13.87c-4.64-.58-6.08-3.31-9-7.82C464,8.48,466.73,9.71,468.22,13.87Z"/><path class="cls-73" d="M188.45,582.36c2.78-9.24,10-14.8,17-20.49q24,20.7,48.11,41.38c11.89,5.53,19.89,15.94,29.74,24,10.31,8.46,19.94,17.78,30.38,26.1,4.75,3.79,8.55,8.27,12.39,12.81l16.52,15.69H302.27c-10.48-4.11-17-13.27-25.37-20.09-13.91-11.36-27-23.66-40.87-35.14-2.63-2.18-5.08-4.63-6.35-8Z"/><path class="cls-17" d="M229.68,618.68l72.59,63.19c-27.84,1.21-55.71,2-83.51,3.85-10.36.69-16.59-3.88-20.18-12.17-3.41-7.86-2.39-16.21,2.42-23.6C208.81,638,219,628.07,229.68,618.68Z"/><path class="cls-17" d="M326.11,666.18c-24.8-20.24-48.81-41.41-72.51-62.93,11.35.84,20.31,8.09,30.76,11.43C309.44,622.68,314.59,647.06,326.11,666.18Z"/><path class="cls-73" d="M398.81,730.31c-5,7.11-9.76,14.45-17.51,19l-19.21-16c-.15-.24-.43-.46-.45-.7-.53-7.42,9.49-19,17.2-19.92l13.61,11Z"/><path class="cls-15" d="M378.84,712.74c-7.56,5.28-14,11.43-16.75,20.62a25.82,25.82,0,0,1-8.77-8.24l1.74-1.66c6.09-5,8.69-13.35,16.06-17.21C373.81,708.27,377.11,709.58,378.84,712.74Z"/><path class="cls-74" d="M371.12,706.25c-4.49,6.55-8.45,13.58-16.06,17.21,5.58-8.19,7-17,3.63-27.13C364,699,367.56,702.67,371.12,706.25Z"/><path class="cls-75" d="M54.45,390.06c-7.15-7-10.32-16.7-16.21-24.38-5.24-6.82-5.19-13-2.73-20.19,4.43,4.84,6.86,4.2,10.08-1.93,5.74-10.93,25.38-14.68,35-7.56-7.48,3.6-8.76,9.81-8.32,17.47.56,10,.16,20,.13,29.95,0,5.11-.16,10,7.31,9.52,2.33-.15,3.85,1.18,2.26,3.84h0c-3.55,4.9-9.13,6.23-14.35,8.24-7,.06-11.22-3-11.4-10.4A5.87,5.87,0,0,0,54.45,390.06Z"/><path class="cls-76" d="M82,396.78c-.22-3.61-2.65-2.27-4.23-1.61-6.72,2.75-7.87-.76-7.81-6.39.12-12.49.51-25-.13-37.46-.43-8.48-.22-15.47,10.49-16.28,2.85-3.88,6.16-3.47,9.5-.83s6.57,5.65,7.83,9.84,4,5.72,8.06,5.82c2.13,14-7.26,23.64-13.23,34.46C89.88,389,85.52,392.66,82,396.78Z"/><path class="cls-77" d="M105.68,349.87,99.83,353c-5.73-6.74-4.4-21.32-19.54-17.94-3.4,0-6.81.1-10.2,0-13.85-.52-24,4.24-26.85,20.49-3.54-3.73-7.64-5.14-7.73-10,2.84-14.32,9.7-25.82,24.09-30.76C79,308.07,97.78,319,103.79,339.9,104.72,343.14,105.07,346.54,105.68,349.87Z"/><path class="cls-78" d="M51.06,448.77l-30.66-.61q4.09-12.95,8.2-25.89c3-9.35,9.19-14.75,19.13-15.56,3.19.17,3.07,2.79,3.6,4.9.33,1.35.06,3.48,1.33,3.84,12.85,3.63,8.38,16.23,12.49,22.63.44,2.71,1.93.78,1,1.43-.32.22-.54,0-.59-.6-.31-3.62-2.63-8.39,4.47-7.8,3.31,5.73,3.62,11.44-.08,17.13Z"/><path class="cls-79" d="M69.94,448.24c-1-5.76,2.4-12.1-2.3-17.37C64,427.09,62.7,422,61.06,417.32c-2-5.72,1.94-9.54,10.94-11.49,8.46,4.81,9.74,7.7,6.63,16.46-2,5.69-3.65,11.31-2.51,15.91.5-6,3.36-12.68,6.29-19.21,1.45-3.23,4.34-3.59,6.23.33,1,1.35,1.87,3.15,3.72,1,.29-.36.06-1.11.2-1.65,1-3.73-3.42-10.1,1.81-10.89a14.2,14.2,0,0,1,15.69,9.33,12,12,0,0,0,1.38,2.14,2.7,2.7,0,0,1-2.3,3.06c-5.44,1.09-6,4.77-6,9.51,0,5.49,1.73,11.41-2.58,16.27C90.34,449.21,80.14,448.64,69.94,448.24Z"/><path class="cls-80" d="M71.76,407c-10.57,4.73-10.68,5-6.58,15.09,1.15,2.85,2.56,5.62,2.46,8.81-2.46,3.81-.15,8.28-1.83,12.44A137.2,137.2,0,0,1,57.5,417l-7.2,4.15c-3.44-4.69,2-10.47-2.57-14.43,9.52-2.61,6.3-10.37,6.72-16.65,2.57,0,3.51,1.54,3.47,3.87-.1,7,4.19,9.36,10.35,9.69a5.38,5.38,0,0,1,4.79-.51C74.53,405,73.45,406.1,71.76,407Z"/><path class="cls-81" d="M71.76,407l1.67-3.18c2.59-2.28,5-4.87,8.71-5.3,9.52,7.92,10.51,11.08,6.5,20.83-2.81-1.44-4.7-2.15-5.52,2.4-.9,5-3.07,9.73-4.8,14.54a54.84,54.84,0,0,1-2.52,5.21c-2.54-6.46-3.1-12.5,0-17.79C80,416.39,79.17,411.1,71.76,407Z"/><path class="cls-82" d="M100.53,448.08c0-3.69.41-7.41.07-11.06-.82-8.74-1.3-17,10.84-17.79l1.73,1.61c.66.49,1.24,1.23,2,1.44,2.91.81,7.59-1.42,8.59,1.42,1.34,3.86-3.46,5.94-5.95,8.33C112.13,437.46,107.68,444.24,100.53,448.08Z"/><path class="cls-76" d="M82.14,398.49c-2.62,2.22-5,4.77-8.71,5.3l-5.16-.17c4-3.52,9.12-4.58,13.69-6.83C82,397.36,82.06,397.93,82.14,398.49Z"/><path class="cls-83" d="M188.35,541.24l-5.19-5.57-7.66-6.47,1.09-1.74c7.6,4.66,15.46,9,22.67,14.17,2.74,2,10.44,2.57,6.44,8.4-4.24,6.17-6.65-2-10-3.15C192.92,545.93,190.77,543.19,188.35,541.24Z"/><path class="cls-2" d="M312.36,351.25c-1.47,2.95-1.78,7.5-6.63,8.37-1.28.23-3.34-.87-2.46-2.53,1.89-3.59,1.71-8.88,6.72-10.09C311.88,346.55,312.61,348.75,312.36,351.25Z"/><path class="cls-2" d="M335.19,359.43c2.64.21,4.42,1.28,4,3.14-1,4.06-1.86,8.56-6.69,10a2.14,2.14,0,0,1-2.78-2.36A26.72,26.72,0,0,1,335.19,359.43Z"/><path class="cls-2" d="M577.09,491.13c-1.32,4.27-2.53,8.58-4,12.8-.71,2-1.39,4.81-4.68,2.81-2.33-1.42-1.88-3.19-.59-5.06l7.64-11.14Z"/><path class="cls-84" d="M701,832c-16.48,6.47-26.32,16.07-36.67,30.71C634.23,905.33,648,978,701,998v19h0s-11-6-26.62-14.55C652,986.13,638.77,964,632.81,938.19c-4.59-19.85-2.65-40.47,4.18-60.46,7.82-22.88,22.49-40.33,41.75-53.5C693.19,814.35,699,812,701,812"/><path class="cls-84" d="M701,988c-15-4-45.47-30.65-43.73-75.32C659,870.39,694,843,701,842"/><path class="cls-85" d="M164.64,142.79c-13.6,28-57.45,39.21-79.32,20.35a52.47,52.47,0,0,1-13.13-16.65C68.53,138.94,70,135.8,77.88,133c11.29-4,22.89-6.85,34.4-10.08,2.32-.51,4.44.26,6.58,1,12.74,3.68,24.68,9.54,37.26,13.69C159.22,138.63,162.53,139.86,164.64,142.79Z"/><path class="cls-85" d="M1,179c4,5,1.48,3,12.24,10C8,201,6,207,1,211"/><path class="cls-86" d="M164.41,99.52a62.23,62.23,0,0,1,3.3,29.29c-4.28,1.88-4.69-1.8-5.6-4.18a58.58,58.58,0,0,0-5.91-11.15c-5.2-9.08-14.07-7.52-21.47-5.79-13,3-25.83,7.22-38.55,11.5a6.16,6.16,0,0,1-3.91.06c-6.09-3.65-13-5.47-19.42-8.21-2.93-1.24-6.93-1.66-6.43-6.43A43.87,43.87,0,0,1,81.49,94.22a216.51,216.51,0,0,0,31.37-13.76c8.16-4.35,17.27-5,26.12-6.59,8.64-1.53,14.72,2.42,18.56,10.11-4.77,4.18-10.51,6.15-16.37,7.24C149.47,92,158.09,92.5,164.41,99.52Z"/><path class="cls-79" d="M1,133c3,2,6.75.3,11.93,11.3-3.57,4-9.1,3.46-12.93,6.7"/><path class="cls-87" d="M1,220s7.17.45,17.13-20.46c4.89-10.25,6.24-21.06,5.58-32.28-.22-3.67,0-7.37.05-11.06,1.89-2.3,3.09-2.53,4.42.73,3.72,9.11,2.85,18.69,2,27.88-1.57,16.79-6.58,32.66-22.73,41.43C-2.47,231.62,1,230,1,230"/><path class="cls-88" d="M157.76,113.12c6.16,3.42,4.19,12,10,15.69.37,5,.83,9.95-3.07,14-7.16-2.42-14.4-4.64-21.46-7.32-8.44-3.19-16.74-6.78-25.09-10.2-.47-1.57.08-3.24,1.34-3.68C131.86,117.22,143.8,110.53,157.76,113.12Z"/><path class="cls-89" d="M0,148s2-1,12.93-3.7c.24,5.36,5.19,9.57,3.77,15.35C3.58,165.48,12.21,159,0,167"/><path class="cls-90" d="M92.22,118l3.42.24c7.22-3,12.53.24,17.26,5.33-1.21,2.76-3.66,2.89-6.24,3.55-10.42,2.65-20.75,5.67-31.07,8.69-4.8,1.4-4.28,4.74-2.28,8.06,3.9,6.48,8,12.84,12,19.25C72,155,62.11,144.15,57.79,128.81c-.45-2.56,1.3-4,3.18-4.39,8.93-2,17.47-5.37,26.35-7.52A6.25,6.25,0,0,1,92.22,118Z"/><path class="cls-88" d="M1,163c2-1,6-2,15.7-3.35.49,10,1.14,20-3.46,29.38-10.39-2-2.19-1.09-12.24-4"/><path class="cls-87" d="M176.55,146.24c.69,1.62,3.77,1.72,2.5,4.68-8.08,18.9-43.17,37.62-62.88,29.28,16-4.11,31.35-9.59,44.49-20.22a47.47,47.47,0,0,0,10-11.47C172.32,146,173.5,144.23,176.55,146.24Z"/><path class="cls-79" d="M92.22,118c-11.56,3.31-23.45,5.61-34.43,10.79-4.35-10.65.9-17.86,8.63-24.2,4.86,5.76,12.69,5.22,18.57,8.78C87.44,114.87,91.49,113.88,92.22,118Z"/><path class="cls-91" d="M164.41,99.52c-8.32-3.47-16.8-6.43-28-7,8-4.42,14.09-7.69,21.16-8.58A34.91,34.91,0,0,1,164.41,99.52Z"/><path class="cls-92" d="M112.86,80.46l.73,1.45c-10.45,4.75-20.17,11.39-32.1,12.31A103.6,103.6,0,0,1,112.86,80.46Z"/><path class="cls-93" d="M440.55,27.08c4.67,2.35,7.35,4.2,9.7,7.45C445.06,33.92,445.06,33.92,440.55,27.08Z"/><path class="cls-94" d="M701,974c-24-17-30-36-31.35-60.59C669.84,875.37,694,863,701,856"/><path class="cls-95" d="M112.9,123.59c-5.9-1.28-10.9-5.51-17.26-5.32.17-.54.24-1.49.52-1.56,17.24-4,33.24-13.49,51.7-12,5,.41,9.4,2.32,9.9,8.4-12,1.69-23.45,5.75-35.14,8.76a6.25,6.25,0,0,0-4.53,3.39Z"/><path class="cls-96" d="M700,946c-8-12-11-16-11.19-33.12C688.73,904,695,890,701,881"/><path class="cls-97" d="M700,956s-10.92-5-15-12c-15-18-9.2-49.12,10.26-70C680.77,897.61,674,923,694,949,694.88,950.12,700,956,700,956Z"/></g></g></svg>