<svg xmlns="http://www.w3.org/2000/svg" viewBox="0 0 443.59 428.87"><defs><style>.cls-1{fill:#f7f7f7;}.cls-2{fill:#313638;}.cls-3{fill:#e4b363;}.cls-4{fill:#43595e;}.cls-5{fill:#d1d1d1;}.cls-6{fill:#434a4c;}.cls-7{fill:#0e4740;}.cls-8{fill:#102d42;}</style></defs><g id="Layer_2" data-name="Layer 2"><g id="Website"><g id="skills-set-home"><path class="cls-1" d="M163.23,427.53a103.48,103.48,0,0,1-11.33-6.07c-8.8-5.38-15.14-14.12-17.27-29-1.61-11.3-6.92-17.05-14-19.63-4.81-1.75-9.4,0-13.83,2.39-2.3,1.22-3.21,1.06-4.15-2.63-4.88-19.1-15-29.24-28.36-29.78-6.37-.25-12.11,1.78-17.58,6.57-5.15,4.5-10.53,6.36-16.61,4.65-5.71-1.6-9.79-5.44-12.3-13.49-1.81-5.83-3.53-11.72-6-17.07C16.41,311.94,9.1,306.18,0,305.14v-93c1.2.73,2.41,1.39,3.58,2.19,3.79,2.58,6.59,7.29,9.93,10.83,3.74,6.48,7.44,13.06,9.26,21.38.94,4.33,2,4.76,4.68,3,12-8.12,23.73-7.26,35,3.47,4,4,8,8.22,10.89,14.29,1.57,3.32,3.46,4.66,6.24,4.45,3.72-.29,7.53-.79,11.2,1,6.66,2.66,11.59,8.67,15.09,17.71a64.12,64.12,0,0,0,4,7.44q8.72,12.26,20.2,16.75c1.63.05,3.31.52,4.87,0,2-.63,4.26-1.73,4.09-6-.16-3.94.81-7.46,1.43-11.11.62-.13,1.06-.52,1.27-1.54,1.23-6,4.77-9.74,7.87-11.26,6.27-3.09,13-1.95,18,5.54,2.72,4.07,5.33,5.1,8.92,5.28,11,.54,19.2,17.44,18,34.08-.35,4.68-.87,9.42,1,14.07,3.44,8.72,8.28,14.43,14.55,17.51h0c-1.92,2.06-4,1.48-6,.51-4.49-2.18-8.95-4.5-13.43-6.76l-7.29-3.57a60.24,60.24,0,0,0,4.37,9.24c.16.66,2.3,2.61,2.62,2.93,6.22,6.45,12.13,13.65,19.15,18.14,8.34,4.75,16.85,7.15,25.73,4.39,7.36.63,40-9.37,46.93-15,4.7-3.3,7.9-8,8.6-13-1.22,1.36-2.67,1.58-3.62,2.53-3.07,3.09-6.86,3-9.93,5.9-3.15.55-6.26,2.09-10.15,1.33l12.19-8.7c7.37-4.33,12.6-12.26,16.39-22.62,5.68-10.36,12.59-16.64,21.79-15.33,7.35.36,14.58,3.05,22,2.39,3.52-.31,6.71-2.27,10.05-3.47,4.58-3.05,8.32-7.94,12-13,4.4-6,9.32-10.21,15.48-9.78.42-.24,1.14-.33,1.22-.72,2.51-12.41,9.36-16.64,16.4-21,5.29-3.25,10.67-1.11,16-2,4.25.08,8.49.31,12.73.22,7.14-.16,12.88-4.93,17.7-12.74.94-1.53,1.25-3.95,2.77-4.66v53c-2-.66-3.74-2.43-5.22-4.33-8.3-10.65-22.36-.12-24.42,13.1-.72,4.66-2,5.38-4.83,4.27-5-1.94-9.8.08-14.42,2.79-3.38,2-4.86,6.56-5.62,11.69-1.1,7.34-1.8,14.82-3.62,21.89-2.67,10.34-9.59,17.91-16.25,17.68-3.39-.12-6.25-2.3-8.46-5.9-9.49-15.5-24.45-7.94-29.33,8.36-2.43,8.1-4.17,16.83-8.54,23.42-7.39,11.13-24,22.39-33.78,26.44"/><path class="cls-2" d="M300.76,40.72c2.42.27,2.59,1.91,2.61,3.9.09,10.28.28,20.56.43,30.85q.09,6.56.19,13.09c0,11.24,1.29,22.49-.3,33.71a17.2,17.2,0,0,1-11.86,10.14c-4.62,1.3-9.14,2.93-13.7,4.4-5.32,1.72-5.32,1.71-1.67,6.36.7,1.37,1.19,2.76.45,4.27-1.46,3-11,8-14.34,7.52-1.9-2.84-3.9-5.64-5.68-8.56-1.18-2-2.59-2-4.5-1.33-4.1,1.36-8.26,2.56-12.39,3.83a16.86,16.86,0,0,0-1-3.44c-2.25-5.53-1.28-7.86,4.3-9.71,4.7-1.57,9.45-2.81,13.33-6.23a5.88,5.88,0,0,1,6-1.44c2.56,1,4.81-.05,7-.73,4.61-1.42,9.11-3.22,13.69-4.76,8.13-2.73,12-8,12.08-16.49.1-7.88-1.2-15.68-.92-23.58.27-7.26.08-14.55,0-21.83,0-1.47.83-3.55-1.79-3.93,1.72-3.52,5.11-7.06-.06-10.55C293.13,41.09,297,41,300.76,40.72Z"/><path class="cls-3" d="M388.59,183.4c-.09-4.48-.12-9-.27-13.42-.14-4-1.44-5.24-5.41-5.28-4.13,0-8.26,0-12.39,0-2.82,0-2-1-.69-2.26,1.72-3.46,4.77-1.23,7.18-1.67,1.38-.07,2.78-.25,4.17-.21,2.6.07,5.16.15,6.91-2.31-.28-5.31-1-6.15-5.51-6.23-6.41-.12-6.32-.1-4.91-6.36.42-1.87.91-3.92-.84-5.67a4,4,0,0,0-4.29-.81c-2.54.8-2.67,3.43-3.27,5.48-1.67,5.67-3.76,7.54-8.52,7.37-1.78-.06-3.1-.42-3-2.53.09-1.89.44-3.57,3-3.47a19.9,19.9,0,0,0,3.18-.2c2.92-.32,3.88-2.53,3.78-4.89s-1.85-3.38-4.19-3.38c-1.42,0-2.85-.1-4.29-.16-1.72.18-1.66-1.36-2.26-2.27-1.76-2.65-5.91-2.87-7,0-1,2.68-2.68,2.49-4.66,2.4s-3.82.29-4.79,2.29-.39,3.68,1.08,5.17A8.14,8.14,0,0,0,346,146c2.3-.27,3.38.4,3.39,3.07,0,2.92-1.51,3-3.58,2.91s-4.29-.06-6.43,0c-2.82.05-5.82,2.32-5.41,4.38.53,2.65,2.16,4.4,5.23,4.15,1.31-.1,2.62,0,3.93,0,3,0,6.14-.57,7.91,2.8,2.1-.33,4.77,1.23,5.92-2.23.33-1,2.07-.69,3.49.05a17.09,17.09,0,0,1-6.05,5.73l-6,3.57c-2.35,1.58-3.2,3.66-1.72,6.08s3.57,2.38,5.94,1.25c1.35-.63,2.43-1.87,4.5-2v10.34c.07.12.14.24.2.37,1.32,3.59.26,7.32.62,11,.82,2.64,3,1.9,4.66,1.56,2.44-.49,2.57-2.68,2.67-4.71.87-1.73,2.48-1,3.73-.95,3.35,0,6.73-.48,10.06.3a17.69,17.69,0,0,1,1.45,3.21c.4,1.74,1.47,2.24,3.07,2.32,2.69.14,4.23-.89,4.5-3.74C388.43,191.44,387.39,187.37,388.59,183.4Zm-22.17,2.12c-.61,0-1.21-.25-1.13-1a1.14,1.14,0,0,1,1.26-1h12.58c0,.45,0,.91,0,1.36C374.92,185.1,370.67,185.33,366.42,185.52Zm12.74-10a28.76,28.76,0,0,1-13.4,0l-.09-.75c-.57-1.74.68-1.67,1.73-1.65,4,0,7.94.15,11.91.24C380.52,174.2,379.86,174.89,379.16,175.57Z"/><path class="cls-2" d="M220.25,273.64c7-1.15,10.22,3.88,13.55,8.56,5.57,7.83,9.35,16.91,16.38,23.69,9.85,9.5,24.65,7.08,30.57-4.82,1.39-2.78.75-5.62.89-8.45,4.58,9.36,3.05,18.31-4.62,24.9-2,1.7-2.23,2.73-1.16,5.13a14.38,14.38,0,0,1-24.55,14.57c-5.42-7.09-10.6-14.38-15.62-21.75a13.21,13.21,0,0,1-.56-14.62c1.15-2.05,1.05-3.45-.29-5.25-2.74-3.7-5.29-7.55-7.92-11.34C225.33,280.33,222.39,277.24,220.25,273.64Z"/><path class="cls-2" d="M303.19,180.7c1.28,2.83,4.26,4.84,3.61,8.69,3.6-1.35,5.87-3.64,8.49-5.37,7.65-5,16-2.37,18.93,6.25,2.63,7.84,5,15.78,6.9,24-3.3-4.62-6.66-9.21-9.9-13.88-2.46-3.53-5.65-5.35-10-4.83-3.35.4-4.88,1.32-2.93,5.18,7.42,14.68,14.54,29.5,21.75,44.29.72,1.47,1.79,2.83,1.77,4.59l.07,0c-1.48.91-2.22-.76-3.37-1a20.9,20.9,0,0,0-2.54-4.75c-10.61-15.06-23.39-28.74-34-43.76-1.77-2.5-2.09-2.09-4.06-3.55-.66.66-2.28.35-3.46.49-3.23-.86-4-4.09-6-6.17C292.33,186.11,298.45,184.4,303.19,180.7Z"/><path class="cls-4" d="M294.38,197.1c1.18-.14,2.8.17,3.46-.49,3.58-3.57,4.9-.58,6.67,1.92,10.65,15,21.4,30,32,45.05,1,1.43,3.16,2.7,2,5.09-11.56-11.5-23.09-23-34.73-34.45-1.43-1.41-2.7-4.73-5.25-3a7.38,7.38,0,0,0-2.58,8.13c1.32,5,5.32,8.33,7.9,12.56,1.16,1.91,2.92,3.45,3.52,5.72a2.34,2.34,0,0,1-.49.33c-8.2-4.3-15.39-10.1-22.16-16.24-5.06-4.6-3.92-11.78,1.05-17C288.42,201.93,292.87,201.17,294.38,197.1Z"/><path class="cls-3" d="M303.19,180.7c-4.74,3.7-10.86,5.41-14.82,10.23-3.37.38-6.51,2.34-10.06,1.43,3.68-4.15,9-5.73,13.5-8.63,5.74-3.71,6.21-5.42,2.17-11.06-2.36-3.29-4.62-6.65-6.81-10-3.13-4.87-6.42-5.78-11.42-2.56-4.68,3-9.14,6.39-13.7,9.6l-2.7-3.2-.06-.13a11.09,11.09,0,0,1,1.91-2.39c5.06-3.64,10-7.52,15.35-10.64s7.53-2.69,11.74,2a68,68,0,0,1,5.16,7.23c5.65,8.22,5.64,8.22,11.83,6.53C307,173.35,306.77,177.32,303.19,180.7Z"/><path class="cls-2" d="M305.28,169c-6.19,1.69-6.18,1.69-11.83-6.53a68,68,0,0,0-5.16-7.23c-4.21-4.65-6.22-5.18-11.74-2s-10.29,7-15.35,10.64a10.91,10.91,0,0,0-1.91,2.4c-.14-4.15-1.92-8.77,3.28-11.38,3.34.51,12.88-4.49,14.34-7.52.74-1.51.25-2.9-.45-4.27,9.91-.91,16.5,3.36,20.64,12.4C299.27,160.31,302.52,164.55,305.28,169Z"/><path class="cls-3" d="M232.64,322.1c.42,7.64-2.16,13.84-8.56,18.36-3,2.11-6.33,2.63-9.82,2.91s-4-2.86-5.21-4.87c-3.32-5.46-7.71-10.46-7.5-17.52.27-9,.2-9-4.65-16.5a22.62,22.62,0,0,1-3.38-15.18c.32-3-.22-5.26-2.35-7.35-5.57-5.47-5.72-22.38-.92-28.71a3.77,3.77,0,0,1,2.45-1.74c5.61-1.14,11.26-2.14,16.75-3.69,5-1.4,8.86-5,13.29-7.44,6.19-3.47,10.66-9.28,17-12.52,11,16.72,21.95,33.4,32.83,50.16,3.12,4.81,6.72,9.32,9.05,14.61-.14,2.83.5,5.67-.89,8.45-5.92,11.9-20.72,14.32-30.57,4.82-7-6.78-10.81-15.86-16.38-23.69-3.33-4.68-6.51-9.71-13.55-8.56a40.17,40.17,0,0,0,3.09,11.69Z"/><path class="cls-5" d="M307.34,237.67c.48.35,1,1,.39,1.31s-.72-.5-.88-1A2.34,2.34,0,0,0,307.34,237.67Z"/><path class="cls-3" d="M259.36,166.46c.89,1.07,1.79,2.14,2.69,3.2,2.19,4.81,5.83,8.66,8.69,13,1.36,2.08,1.44,3.12-.67,4.58q-25.37,17.44-50.61,35c-2.23,1.55-4.47,3.11-6.57,4.81-4.77,3.88-15.22,4-21.06-1.19-16.8-15-33.74-29.77-50.57-44.7-2.43-2.17-5.2-4.21-5.87-7.76.31-7.87,4.94-13.72,9.17-19.79,3-4.33,6.41-8.42,8.76-13.19,2.18.25,2.2,2.07,2.81,3.62,5.55,14.2,14.47,25.53,27.7,33.54,9.76,5.91,20.27,9.85,31,13.45,2.71.91,5.58,1.75,8.25-.15,4.93-3.52,9.79-7.11,14.69-10.66,1.73.18,2.68-1.23,3.91-2C247.64,174.47,253,169.72,259.36,166.46Z"/><path class="cls-2" d="M101,119.48c-2.68-3.16-1.2-4.55,1.53-5.88,2.22-1.08,4.7-1.69,6.42-3.65,4.7-2.46,6.51,0,8.79,4,8.42,14.81,20.21,20.11,37.35,17.6,2.65-.39,5.37-.24,7.13-3.09,1.26-2.05,1-2.87-1.25-3.31-10.21-2-16.81-8.22-21-17.53-1.78-4-3.68-8-7.35-10.7-2.55-3.9-5.92-6.61-10.66-7.34-3.28-1.89-6.81-1.75-10.43-1.52-6.81.41-12.75,3.75-19.14,5.56l-.09-.26c-1.81-3.8-3.45-7.69-5.48-11.36-1.4-2.55-.61-3.66,1.71-4.83a55.48,55.48,0,0,1,17.21-5c6.75.57,13.58.12,20.13,2.69,7.57,3,13.21,8.1,18,14.41l8.5,15.8c2.8,5.21,6.35,9.47,12.76,10.12a21,21,0,0,1,.86,3,51.63,51.63,0,0,0,7.88,21.43c3.87,5.95,9.67,9.74,14.49,14.61,7.26,7.34,22.3,5.65,28.39-1.56,4.61-5.48,9.43-11,12.17-17.91,1-2.56,2.17-5.07,3.61-8.43,2.5,18.74-6,32.62-16,46.07,7.41,2.49,13.94,5.73,21.25,6.43l0,1.42c-4.9,3.55-9.76,7.14-14.69,10.66-2.67,1.9-5.54,1.06-8.25.15-10.7-3.6-21.21-7.54-31-13.45-13.23-8-22.15-19.34-27.7-33.54-.61-1.55-.63-3.37-2.81-3.62-4,.41-8.06.86-12.1,1.21-13,1.12-23.41-4-32.33-13"/><path class="cls-3" d="M62,160c1.58-1.91,3.14-3.92,4.83-5.67,2.19-2.26.94-3-.89-3.86A22.6,22.6,0,0,1,62.9,149c-1.73-1.23-2.73-2.9-1.62-5s3.08-3.25,5.43-2,4.4,2,6.1-1.13c.91-1.69,2.78-1.88,4.53-1s2.94,2.57,2.21,4.41c-1,2.63.29,3.36,2.23,4.27,2.45,1.16,3,3.19,2,5.7-.28.73-1.81,1.25-.69,2.22.8.68,2,.41,3,.12,1.62-.49,2.22-1.76,2.21-3.42,0-3.9-.08-7.8,0-11.69,0-2.26-.89-3-3.09-2.94-6.75.1-13.51,0-20.26,0a5.18,5.18,0,0,1-5.3-3.5c-.64-1.75.43-3.25,1.77-4.1,1.09-.69,2.59-.73,3.91-1.06,7.27,1,14.58.18,21.87.43,1.36,0,2.74,0,4.1,0,3.77.08,5,1.37,5.13,5.23.08,2.61.17,5.23.25,7.84-.07,2.4.12,5,.25,7.41.7,12.51-4.91,15.45-14.79,14.4-1.82,0-3.2-1-4.63-1.89-.49-2.56.26-4.65,3.06-6.38-2.34-.43-3.77-3.37-5.74-.48-1.18,1.74-2,3.7-3,5.56a14.72,14.72,0,0,0-1.65,1.15c-1.58,1.51-3.31,2.49-5.53,1.61S62.26,162,62,160Z"/><path class="cls-3" d="M95.2,187.67c2.51,4.89,1.28,10,.82,15.07-.11,1.1-1.47,2-3.09,2.22A29.46,29.46,0,0,1,62,186.57c-.34-.83-.84-1.59-1.26-2.38-.34-2.46-.72-4.92-1-7.39-.26-2.31.16-4.4,2.61-5.34s4.11.36,5.33,2.4c0,4.08.35,8,2.92,11.47,2.8,6.09,7.85,9.4,14,11.17,2.29.65,4.16.26,3.67-2.93a8.85,8.85,0,0,1,1.53-6.4A8.55,8.55,0,0,1,95.2,187.67Z"/><path class="cls-3" d="M89.46,166.48c1.62-.59,2.78.54,4.09,1.09A46.2,46.2,0,0,0,103.93,178c2.22,1.67,3.23,3.63,1.59,6.17-1.38,2.15-4,2.21-6.63.21a56,56,0,0,1-10.61-10.26C85.75,170.9,86.06,169,89.46,166.48Z"/><path class="cls-3" d="M50.21,181.05c1.46-1.33,2.81-2.74,5.09-2s2.84,2.73,2.86,4.91c-2.86,4.23-6.88,7.36-10.52,10.82-1.55,1.47-4.1,2-5.8-.08s-1.28-4.16.45-6.15"/><path class="cls-3" d="M70.39,177.3c1.77-2.51,4-2.67,6.61-1.42s5,2.28,7.46,3.43c4.16,1.93,4.63,3.08,3.12,7.46-3.39,1.63-6.35,0-9.36-1.24A37.55,37.55,0,0,0,74,183.39C71,182.33,69.83,180.36,70.39,177.3Z"/><path class="cls-2" d="M259.52,52.19s-7.16,2.62-7.64,3.47c-.23.41.65,1.64.87,2.05C256.3,64.36,269.7,73.22,276.7,76c.55.22,1.68,1.22,2.27,1.16s1.53-.7,2.09-.7c.2,0-.1.52,0,.7a9.67,9.67,0,0,0,1.39,1.38,27.32,27.32,0,0,0,1.49-3.37,3.83,3.83,0,0,0-.1-2.18c-1.32-2-6.58-3.85-8.11-5.71-.34-.42-.54-1.57-.93-1.93a18.18,18.18,0,0,0-3.47-2.09C267.13,61.37,259.52,52.19,259.52,52.19Z"/><path class="cls-3" d="M237.78,178.86c-7.31-.7-13.84-3.94-21.25-6.43,10-13.45,18.51-27.33,16-46.07-1.44,3.36-2.58,5.87-3.61,8.43-2.74,6.86-7.56,12.43-12.17,17.91-6.09,7.21-21.13,8.9-28.39,1.56-4.82-4.87-10.62-8.66-14.49-14.61A51.63,51.63,0,0,1,166,118.22a21,21,0,0,0-.86-3c-.33-4.35-.7-8.71-1-13.07a35.75,35.75,0,0,1,9.72-27.78c4.2-5.11,10.24-7.22,16-9.79,6.74-.37,13.38-.66,19.87,2.19a36.52,36.52,0,0,1,17.9,16.84c.67,1.25.54,3.56,3,3.1-.41,8.62,1.53,17,2.9,25.43.83,5.12,1.61,5,6.25,1.82,11.51-1.43,22.06-6,32.8-10,1.67-1,.88-2.74,1-4.1.29-4.81.31-9.64.55-14.46.06-1.32-.53-3.28,2-3.23,1.5,1.79,2.93.85,3.38-.63s1.82-2.29,2.34-3.65c3.26-2.71,2.84-4.68-.81-6.89-2.39-1.45-5.28-2.67-6.5-5.62l0-3.68a12.54,12.54,0,0,1,1.63.71c6.44,4,9.39,3.44,14-2.66.79-1.05,1.22-2.43,2.58-3,2.62.38,1.77,2.46,1.79,3.93.09,7.28.28,14.57,0,21.83-.28,7.9,1,15.7.92,23.58-.12,8.53-3.95,13.76-12.08,16.49-4.58,1.54-9.08,3.34-13.69,4.76-2.24.68-4.49,1.72-7,.73a5.88,5.88,0,0,0-6,1.44c-3.88,3.42-8.63,4.66-13.33,6.23-5.58,1.85-6.55,4.18-4.3,9.71a16.86,16.86,0,0,1,1,3.44C239.59,158.91,240.2,169,237.78,178.86Zm-27.7-75.18-10.17.36c-3.77,0-7.55-.06-11.32,0-1.22,0-2.9-.53-3.17,1.56a32.5,32.5,0,0,1-4.49.32c-3.69-.23-5.29,1.23-4.64,5s1.59,7.41,1.52,11.1c-.08,4.15,1.59,4.65,5.11,4.2,6.4-.81,12.86-1.23,19.29-1.81l3.35-.48c2.75-.19,5.55.22,8.23-.69,8.47-.37,8.47-.37,7.73-6.06l-.93-3.59c0-2.87,0-5.74-.11-8.61,0-1.2-.31-2.92-1.94-2.3C215.75,103.77,212.8,102.59,210.08,103.68Zm-4,29.89c-.07-.73.5-3.78-2.46-2.85-2.64.83-7.7-1.65-7.54,4.42.1,3.5,1.35,5.35,5.07,5.34C205.18,140.47,206.41,138.27,206.06,133.57Z"/><path class="cls-3" d="M271.27,21.25c4-5.31,6.19-6.06,12.83-4.36l6.71,4.61,1,.58,1.36,2c1.13,1,1.13,1,1.28,1.73l-.05-.07c.28,4.45-.09,8.67-3.06,12.38a118.09,118.09,0,0,0-8.25,11.32c-2.94,4.75-6.91,7.38-12.47,7.64-4.66-.82-7.28-5.16-11.52-6.7-3.14-5.8-1.67-10.7,2.47-15.51,2.28-2.66,3.69-6,5.5-9.12C267.67,25.79,270.28,22.54,271.27,21.25Z"/><path class="cls-2" d="M239.82,113.94c-4.64,3.17-5.42,3.3-6.25-1.82-1.37-8.4-3.31-16.81-2.9-25.43.85-.86,1-2.3,2.31-2.77,4.21.86,6.73,4.35,10.13,6.46l7.34,4.81c1.88,1.42,1,2.69-.07,4.14C246.81,104.16,243.33,109.06,239.82,113.94Z"/><path class="cls-6" d="M257.44,70.25a14.27,14.27,0,0,0-8.14-6.41l-5.11,7-1.4,1.63c-3.29,3.8-5,9-9.81,11.46,4.21.86,6.4,4.39,11.26,7.17"/><path class="cls-6" d="M259.06,50.42c4.24,1.54,6.86,5.88,11.52,6.7a7.44,7.44,0,0,0,3.34,3.2l.62,1.4c0,1.23,0,2.45,0,3.68-6.23-2.57-11.29-7-16.59-10.94C256,53.05,258.5,51.75,259.06,50.42Z"/><path class="cls-2" d="M300.15,28.31a2,2,0,0,0-.36.61c-2.71.51-3-3.12-5.43-3.14l.05.07c0-.88-.85-.76-1.28-1.73l-1.36-2c3.75.13,6.82-2,10.17-3.16a2.65,2.65,0,0,0,1.7-2.88c0-2.57,0-5.13,0-7.7,0-2.35-1.05-2.93-3.17-1.84a19.48,19.48,0,0,1-3.35,1.24c-3.8,1.13-5.82,3.38-5.51,7.59.14,2,.5,4.25-.78,6.17l-6.71-4.61c2.7-6,7.43-10.64,10.94-16.1.79-1.23,2.06-.85,3.15,0,4.5,3.45,9,6.87,13.53,10.3-3.35,5.95-8.31,10.83-11.39,17"/><path class="cls-2" d="M294.36,25.78c2.4,0,2.72,3.65,5.43,3.14a11.35,11.35,0,0,0,.44,7.74c.48,1.19,1.84,2.53.55,4.06-3.78.27-7.65.37-8.14,5.49-1.95,2.65-4.1,5.18-5.8,8-3,5-7.38,6.69-12.92,6.13a7.44,7.44,0,0,1-3.34-3.2c5.56-.26,9.53-2.89,12.47-7.64a118.09,118.09,0,0,1,8.25-11.32C294.27,34.45,294.64,30.23,294.36,25.78Z"/><path class="cls-4" d="M273.92,60.32c5.54.56,9.9-1.18,12.92-6.13,1.7-2.8,3.85-5.33,5.8-8,5.17,3.49,1.78,7,.06,10.55-1.36.58-1.79,2-2.58,3-4.57,6.1-7.52,6.67-14,2.66a12.54,12.54,0,0,0-1.63-.71C274.33,61.25,274.12,60.79,273.92,60.32Z"/><path class="cls-5" d="M202.21,124.43c-1.64.14-3.28.3-4.93.41s-3-.35-2.87-2c.2-3.35-2.29-4.15-5-5.34,6.64-1.37,12.7-3.17,19.49-2-3.75,1.9-4.1,5-3.35,8.53Z"/><path class="cls-7" d="M206.06,133.57c.35,4.7-.88,6.9-4.93,6.91-3.72,0-5-1.84-5.07-5.34-.16-6.07,4.9-3.59,7.54-4.42C206.56,129.79,206,132.84,206.06,133.57Z"/><path class="cls-6" d="M281.81,77.91c-.52,1.36-1.86,2.11-2.34,3.65s-1.88,2.42-3.38.63c-3.45-2.8-7.59-6-10.58-7.53-2.43-2.38-4.66-5.09-8.49-5.18a14.89,14.89,0,0,0-7.72-5.64c-1.22-3.87-5-5-7.85-7-4.32-3-1.12-5.19.4-7.57,1.67-2.62,3.56-4.7,6.81-1.77,2.33,2.09,4.82,4,7.31,6.08-4.23,2.16-4.52,3.7-1.11,6.27,7.08,5.35,14.28,10.53,21.38,15.85,1.24.93,2.35,1.31,3.69.45C282.88,74.26,281.08,77.45,281.81,77.91Z"/><path class="cls-4" d="M202.21,124.43c-6.43.58-12.89,1-19.29,1.81-3.52.45-5.19,0-5.11-4.2.07-3.69-.89-7.41-1.52-11.1s1-5.24,4.64-5a32.25,32.25,0,0,0,4.48-.32c4.92.31,9.83.44,14.5-1.57l10.17-.36c2.95.17,6.57-.65,8.69.77,2.55,1.72.3,5.9,1.61,8.77.06.14.14.26.21.39l.93,3.59c-2.48,5.07-7.81,3.92-12.18,5.28,1.51,1.47,3,.68,4.45.78-2.68.91-5.48.5-8.23.69-.75-3.5-.4-6.63,3.35-8.53-6.79-1.13-12.85.67-19.49,2,2.7,1.19,5.19,2,5,5.34-.1,1.69,1.36,2.15,2.87,2S200.57,124.57,202.21,124.43Z"/><path class="cls-5" d="M213.79,123.26c-1.4-.1-2.94.69-4.45-.78,4.37-1.36,9.7-.21,12.18-5.28C222.26,122.89,222.26,122.89,213.79,123.26Z"/><path class="cls-8" d="M199.91,104c-4.67,2-9.58,1.88-14.5,1.57.28-2.09,2-1.54,3.18-1.56C192.36,104,196.14,104,199.91,104Z"/><path class="cls-5" d="M220.59,113.61c-.07-.13-.15-.25-.21-.39-1.31-2.87.94-7-1.61-8.77-2.12-1.42-5.74-.6-8.69-.77,2.72-1.09,5.67.09,8.46-1,1.63-.62,1.9,1.1,1.94,2.3C220.58,107.87,220.56,110.74,220.59,113.61Z"/><path class="cls-4" d="M290.81,21.5c1.28-1.92.92-4.12.78-6.17-.31-4.21,1.71-6.46,5.51-7.59a19.48,19.48,0,0,0,3.35-1.24c2.12-1.09,3.14-.51,3.17,1.84,0,2.57,0,5.13,0,7.7a2.65,2.65,0,0,1-1.7,2.88c-3.35,1.18-6.42,3.29-10.17,3.16Z"/><path class="cls-4" d="M265.51,74.66c-4.2,7.44-9.56,14-15.06,20.53l-7.34-4.81c.41-4.56,3.91-6.93,6.26-10.75L257,69.48C260.85,69.57,263.08,72.28,265.51,74.66Z"/><path class="cls-4" d="M122.39,274.33c-3.27,7.5-12.75,14-18.67,11-6.33-3.16-8-9.7-6.7-12.08,2.58-4.74,5.39-9.34,9.62-12.86,4.91,3.65.39,3.9,6.3,6.43C115.72,268,122,270.32,122.39,274.33Z"/><path class="cls-2" d="M106.64,260.42c.57-2.43,2.07-4.33,3.48-6.29,11-15.31,22-30.64,33.17-45.89,1.83-2.51,2.54-4.62,1.28-7.76-1.68-4.19-3.11-8.16-6.54-11.55-4.25-4.2-5-9.75-2.64-15.47.67,3.55,3.44,5.59,5.87,7.76,16.83,14.93,33.77,29.74,50.57,44.7,5.84,5.19,16.29,5.07,21.06,1.19,2.1-1.7,4.34-3.26,6.57-4.81q25.28-17.55,50.61-35c2.11-1.46,2-2.5.67-4.58-2.86-4.36-6.5-8.21-8.69-13,4.56-3.21,9-6.58,13.7-9.6,5-3.22,8.29-2.31,11.42,2.56,2.19,3.4,4.45,6.76,6.81,10,4,5.64,3.57,7.35-2.17,11.06-4.49,2.9-9.82,4.48-13.5,8.63l-35.2,24.55c-5.83,4.06-5.89,4.28-3.35,10.94-6.36,3.24-10.83,9.05-17,12.52-4.43,2.48-8.34,6-13.29,7.44-5.49,1.55-11.14,2.55-16.75,3.69a3.77,3.77,0,0,0-2.45,1.74c-4.8,6.33-4.65,23.24.92,28.71,2.13,2.09,2.67,4.38,2.35,7.35a22.62,22.62,0,0,0,3.38,15.18c4.85,7.47,4.92,7.5,4.65,16.5-.21,7.06,4.18,12.06,7.5,17.52,1.22,2,1.64,5.16,5.21,4.87s6.82-.8,9.82-2.91c6.4-4.52,9-10.72,8.56-18.36,2.74,7.19,4.13,14.77,6.31,22.13,1.68,5.73,3.13,11.33,6.66,16.56,4.83,7.14,8.32,15.22,12.06,23s-2.29,18-11.18,18.8a52.09,52.09,0,0,1-5.44-.08c-6.77-2.37-9.1-8.52-12.12-14.13-5.36-10-9.52-20.63-16.89-29.45-.92-1.72-1.75-3.51-2.79-5.16-17.81-28.06-32.92-57.39-42.91-89.23-3.43-10.92-7.44-21.67-11.34-32.93-1.21,1.6-2.09,2.8-3,4-10.08,12.73-17.9,27.2-29.59,38.7-2.78-.55-5.65.45-8.43-.73C108.05,271.08,106.4,266.3,106.64,260.42Z"/></g></g></g></svg>