<svg xmlns="http://www.w3.org/2000/svg" viewBox="0 0 439.62 678.9"><defs><style>.cls-1{fill:#e8e9eb;}.cls-2{fill:#fdfdfd;}.cls-3{fill:#f7f7f7;}.cls-4{fill:#313638;}.cls-5{fill:#e4b363;}.cls-6{fill:#43595e;}.cls-7{fill:#94afaf;}.cls-8{fill:#d1d1d1;}.cls-9{fill:#f4efd5;}.cls-10{fill:#434a4c;}.cls-11{fill:#0e4740;}.cls-12{fill:#102d42;}</style></defs><g id="Layer_2" data-name="Layer 2"><g id="Website"><g id="skills-set_copy" data-name="skills-set copy"><rect class="cls-1" width="439.62" height="678.9"/><path class="cls-2" d="M298.69,547.86c8.74-4.35,15.63-11,22.24-17.91a6.39,6.39,0,0,0,.83-1.83l.29-.39-.38.31c-3.2.41-5.78,2.36-8.6,3.65-14.94,6.82-30.64,10.69-46.85,12.91-12.86,1.76-25.71,3.43-38.73,3.26-24.61-.32-47.59-6.2-68.34-19.81-1.6-1-3.19-2.12-4.8-3.14s-3-2.44-5.91-3.16c5.53,10.89,13.4,18.45,23.11,24.19"/><path class="cls-3" d="M176.13,246.79C156,212.6,27.17.54,26.91,0H.63V68.46c10.66,12.23,83.09,98.62,93.79,110.82,18.12,20.67,52,58.1,70.17,78.76L175,253.77C178.56,250.89,178.55,250.9,176.13,246.79Z"/><path class="cls-3" d="M439.36,208.51S393.72,234.9,383,241.25q-34.55,20.46-69,41c-2,1.17-2.86,1-4.06-.87a72.54,72.54,0,0,0-6.07-8.37c-1.62-1.9-1.19-2.91.5-4.4,13.74-12,27.38-24.18,41.07-36.27,24.4-21.57,68.91-60.72,93.33-82.27"/><path class="cls-3" d="M439.36,86.67c-7.52,8.64-59.11,73.22-66.65,81.83q-35.11,40.08-70.25,80.12c-2.95,3.36-6,6.65-8.82,10.08-1.28,1.52-2.18,1.56-3.69.25-2.14-1.85-4.55-3.38-6.84-5l-.91-.62q-.07-4.41-.13-8.8c1.78,0,1.79-1.67,2.38-2.67C296.89,220.86,431.68,12.1,438.74,0,439.36,29.52,440,71.6,439.36,86.67Z"/><path class="cls-3" d="M135.6,253C103.88,223.92,36.3,165.8.63,135.65v52.76c-.6,0,107.18,72.49,141.25,92.72,4.92,2.92,5,2.88,7.34-2.67l6.37-7.42Z"/><path class="cls-3" d="M195,243.73c-2.79.72-4.16-.22-5.37-3.08C175.9,208.31,85.2.39,85.12,0h66.34c3.39,15.05,40.3,172.69,43.67,187.75q5.18,23.19,10.25,46.4a30,30,0,0,1,.37,3C201.89,238.88,197.85,240.3,195,243.73Z"/><path class="cls-3" d="M439.36,422c-21.12-9.12-90.51-37.18-111.63-46.29-2.51-1.08-5-2.22-7.56-3.2-1.72-.66-2.05-1.58-1.33-3.27a50.56,50.56,0,0,0,3.33-10.44c.43-2.2,1.61-2.47,3.49-2q14.37,3.31,28.75,6.55,29.07,6.52,58.15,13c2.37.54,24.44,4.27,26.8,4.84Z"/><path class="cls-3" d="M258.49,0c-.24,5.54-14.14,156-14.7,162.63-1.39,16.73-3,33.45-4.61,50.16-.7,7.5-1.53,15-2.22,22.49-.14,1.5-.55,2.24-2.19,2a48.44,48.44,0,0,0-11.85,0c-1.7.21-2-.56-2.17-2-1.56-16.82-3.18-33.64-4.76-50.45C214.75,171.76,205.86,13.07,204.66,0"/><path class="cls-3" d="M439.36,352.33c-7.86-.81-35.42-2.82-43.29-3.57q-33.3-3.17-66.62-6.29c-4.43-.43-4.47-.5-4-4.86a54.23,54.23,0,0,0-.17-9.45c-.1-1.29.08-2.08,1.65-2.22,7.37-.63,14.73-1.36,22.1-2.05.47,2.65-.4,5.39.53,8l.66,1.38c.7,2.26,2.55,1.63,4,1.34,2.09-.42,2.2-2.3,2.29-4,3.89-.82,7.86.18,11.76-.56a15,15,0,0,1,1.23,2.76,2.39,2.39,0,0,0,2.63,2c2.29.12,3.61-.76,3.84-3.2.32-3.44-.57-6.93.46-10.33,7.66-.76,15.31-1.74,23-2.22,6.76-.42,32.48-3.11,40-4.37Z"/><path class="cls-3" d="M79.41,321l2.29.17a22.47,22.47,0,0,1,1.12,2.11,26.05,26.05,0,0,0,27.36,16.33c1.43-.17,2.63-1,2.72-2,.41-4.47,1.5-9-.72-13.37,6.59.13,13.12,1,19.67,1.65,1.31.14,1.76.7,1.62,2a55.12,55.12,0,0,0,0,12.18c.2,1.76-.76,2-2.14,2.11-9.08.84-18.15,1.75-27.23,2.61q-31,2.93-62,5.82c-1,.09-40.42,2.36-41.42,2.33V315.9c7-.36,52.24,2.8,59.17,3.16,3.31.18,6.59.77,9.89,1.18-.83,2.17-2.9,3.24-4.32,4.87s-1.83,3.69-.39,5.46,3.75,1.38,5.12.08C73.32,327.57,76.88,324.79,79.41,321Z"/><path class="cls-3" d="M305.59,0c-4.28,19.09-46.51,210.19-50.7,229.29l15.7,6.91c.62-.79,103.73-228.43,107-236.2Z"/><path class="cls-3" d="M320.59,297l7,17,111.77-28.91V243.05Z"/><path class="cls-3" d="M439.36,516.24C430.59,508.57,321,414,312.26,406.35c-2.82-2.47-5.58-5-8.47-7.41-1.41-1.17-1.45-1.94-.27-3.41,2.42-3,4.59-6.18,6.75-9.38.94-1.4,1.71-1.53,3.18-.65,15.82,9.47,109.43,64.19,125.29,73.59C439.86,459.75,439.36,495.52,439.36,516.24Z"/><path class="cls-3" d="M394.3,678.27c-8.93,0-75.73.63-75.73.63-2.35-10.73-64.31-235.77-66.7-246.49-.88-3.92-.93-3.81,2.85-4.93,3.2-1,6.36-2.07,9.49-3.25,1.42-.53,2.25-.33,2.87,1.13C270.74,434.07,394.59,674.57,394.3,678.27Z"/><path class="cls-3" d="M439.36,584.7c-.62,10,.63,68.45,0,76.62-4.09-5.19-154-233.84-157.43-239.43-2.93-4.76-2.81-4.79,1.83-8.06,2.32-1.64,4.54-3.4,6.76-5.16.91-.72,1.55-1.07,2.51,0,5.83,6.75,11.74,13.44,17.6,20.17C310.86,429.15,439.24,584.32,439.36,584.7Z"/><path class="cls-3" d="M220.61,435c4.93,5.93,7.72,13.09,11.31,19.79,2,3.77,3.59,7.91,8.12,9.51.09.78,30.34,198.86,32.84,214.56-7.94,0-69.67-.63-77.61-.63.08-3.54,23.75-225.24,23.37-225.64h0Q219.62,443.84,220.61,435Z"/><path class="cls-3" d="M.63,384.36C8.19,382.05,65,372,72.7,370.23c17.56-4,35.16-7.91,52.75-11.85q1.32-.3,2.67-.57c6.72-1.33,6.69-1.32,8.61,5.32a62.76,62.76,0,0,0,2.2,6.31c.66,1.59.23,2.4-1.29,3.06-14.23,6.12-122.8,52.8-137,59C-.41,431.91.63,389.33.63,384.36Z"/><path class="cls-3" d="M53.2,678.9c9.92,0,88.18-.63,95.13-.63,2.35-10.72,53.27-234.82,55.66-245.53.88-3.92.93-3.81-2.85-4.93-3.2-.95-6.36-2.08-9.49-3.25-1.42-.53-2.25-.34-2.87,1.13C185.12,434.4,52.91,675.2,53.2,678.9Z"/><path class="cls-3" d="M0,466c.63,21.35.63,60.92.63,77.88C7.17,535.07,143,406.05,149.56,397.27c2.4-3.21,2.41-3.08-.58-5.67-2.53-2.19-4.94-4.52-7.31-6.88-1.07-1.07-1.91-1.24-3.07-.16C131.68,391,1.26,462.51,0,466Z"/><path class="cls-3" d="M.63,579c0,25.13,0,86.67.62,95.47C5.51,664.39,166.46,427.3,170.76,417.2c1.58-3.69,1.61-3.57-1.9-5.36-3-1.52-5.88-3.21-8.74-4.94-1.3-.78-2.15-.74-3,.59C151.91,415.38,1,575.36.63,579Z"/><path class="cls-4" d="M297.83,191.92c2.19.24,2.34,1.72,2.36,3.53.07,9.29.25,18.59.38,27.89l.18,11.83c0,10.16,1.16,20.33-.27,30.48a15.58,15.58,0,0,1-10.73,9.17c-4.17,1.17-8.26,2.64-12.38,4-4.81,1.55-4.81,1.55-1.51,5.75a4.12,4.12,0,0,1,.41,3.86c-1.32,2.74-9.95,7.26-13,6.8-1.72-2.57-3.53-5.1-5.13-7.74-1.07-1.77-2.35-1.78-4.07-1.21-3.71,1.24-7.47,2.32-11.2,3.47a15.1,15.1,0,0,0-.9-3.11c-2-5-1.15-7.1,3.89-8.78,4.25-1.42,8.55-2.54,12.05-5.63a5.31,5.31,0,0,1,5.39-1.3c2.31.9,4.35,0,6.37-.67,4.17-1.28,8.24-2.9,12.38-4.3,7.35-2.46,10.81-7.19,10.92-14.91.09-7.11-1.08-14.17-.83-21.31.24-6.57.07-13.15,0-19.73,0-1.33.76-3.22-1.61-3.55,1.56-3.19,4.62-6.39-.05-9.54C290.92,192.26,294.43,192.17,297.83,191.92Z"/><path class="cls-5" d="M377.23,320.91c-.08-4.05-.11-8.09-.24-12.13-.13-3.62-1.3-4.74-4.9-4.78s-7.46,0-11.2,0c-2.55,0-1.84-.93-.62-2.05,1.56-3.12,4.31-1.11,6.49-1.5,1.25-.07,2.51-.23,3.77-.2,2.35.06,4.67.14,6.25-2.08-.26-4.81-.92-5.56-5-5.64-5.8-.11-5.72-.09-4.44-5.75.38-1.68.82-3.54-.76-5.13a3.6,3.6,0,0,0-3.88-.73c-2.29.73-2.41,3.11-3,5-1.5,5.13-3.39,6.82-7.7,6.66-1.61-.05-2.8-.37-2.72-2.29.08-1.7.4-3.23,2.68-3.13a18.44,18.44,0,0,0,2.87-.18c2.64-.29,3.5-2.29,3.42-4.42s-1.68-3.06-3.79-3.06c-1.29,0-2.58-.09-3.88-.14-1.56.16-1.49-1.24-2-2.06-1.6-2.39-5.35-2.59-6.34,0s-2.42,2.25-4.21,2.17-3.45.26-4.34,2.07a3.81,3.81,0,0,0,1,4.67,7.37,7.37,0,0,0,4,1c2.08-.25,3.05.35,3.07,2.77,0,2.64-1.37,2.69-3.25,2.63s-3.87-.05-5.8,0c-2.55,0-5.27,2.09-4.89,4,.47,2.39,1.95,4,4.73,3.75,1.17-.1,2.36,0,3.54,0,2.69,0,5.55-.52,7.15,2.53,1.9-.3,4.32,1.11,5.36-2,.3-.91,1.87-.63,3.15,0a15.26,15.26,0,0,1-5.47,5.19l-5.41,3.23c-2.12,1.43-2.89,3.31-1.56,5.49s3.23,2.15,5.38,1.14c1.21-.58,2.19-1.7,4.06-1.78v9.35c.07.11.13.22.19.33,1.19,3.25.23,6.62.56,9.92.74,2.39,2.69,1.72,4.21,1.41,2.2-.44,2.32-2.42,2.41-4.25.79-1.57,2.24-.88,3.37-.86,3,0,6.09-.44,9.1.26a15.34,15.34,0,0,1,1.3,2.91c.37,1.57,1.34,2,2.78,2.1,2.43.12,3.83-.81,4.07-3.39C377.08,328.18,376.14,324.5,377.23,320.91Zm-20,1.92c-.56,0-1.1-.23-1-.91a1,1,0,0,1,1.14-.88h11.36c0,.41,0,.82.05,1.23C364.87,322.45,361,322.66,357.19,322.83Zm11.51-9a26,26,0,0,1-12.11,0c0-.22,0-.45-.08-.67-.52-1.58.61-1.51,1.56-1.5,3.59.05,7.18.14,10.77.22C369.93,312.6,369.34,313.22,368.7,313.83Z"/><path class="cls-4" d="M225,402.49c6.37-1,9.24,3.51,12.25,7.74,5,7.08,8.45,15.29,14.81,21.42,8.9,8.59,22.29,6.4,27.64-4.36,1.25-2.52.67-5.08.8-7.64,4.14,8.47,2.76,16.55-4.18,22.51-1.79,1.54-2,2.47-1.05,4.64A13,13,0,0,1,253.12,460c-4.9-6.41-9.58-13-14.12-19.67a11.94,11.94,0,0,1-.51-13.21,3.76,3.76,0,0,0-.25-4.75c-2.48-3.34-4.79-6.82-7.17-10.24C229.63,408.54,227,405.74,225,402.49Z"/><path class="cls-4" d="M300,318.47c1.17,2.56,3.86,4.37,3.27,7.86,3.25-1.22,5.3-3.29,7.67-4.86,6.92-4.55,14.51-2.14,17.12,5.65,2.38,7.09,4.52,14.26,6.24,21.73-3-4.18-6-8.33-9-12.55-2.22-3.19-5.1-4.84-9.06-4.37-3,.36-4.41,1.19-2.65,4.68,6.71,13.27,13.15,26.68,19.66,40,.65,1.33,1.62,2.56,1.6,4.15l.06,0c-1.33.82-2-.69-3-.87a19.5,19.5,0,0,0-2.3-4.29c-9.59-13.61-21.14-26-30.77-39.56-1.61-2.26-1.89-1.89-3.67-3.2-.6.59-2.06.31-3.13.43-2.92-.78-3.66-3.69-5.44-5.57C290.21,323.36,295.74,321.82,300,318.47Z"/><path class="cls-6" d="M292.06,333.29c1.07-.12,2.53.16,3.13-.43,3.23-3.23,4.42-.53,6,1.73,9.63,13.58,19.35,27.11,28.94,40.73.91,1.29,2.85,2.43,1.77,4.59-10.45-10.39-20.87-20.82-31.4-31.14-1.3-1.27-2.44-4.27-4.75-2.67a6.67,6.67,0,0,0-2.33,7.35c1.19,4.49,4.81,7.53,7.14,11.35,1.05,1.73,2.65,3.12,3.19,5.17a2.77,2.77,0,0,1-.45.31c-7.41-3.9-13.91-9.14-20-14.69-4.58-4.16-3.55-10.65.95-15.38C286.67,337.66,290.7,337,292.06,333.29Z"/><path class="cls-7" d="M300,318.47c-4.28,3.35-9.81,4.89-13.4,9.25-3,.34-5.88,2.11-9.09,1.29,3.33-3.75,8.15-5.18,12.2-7.8,5.2-3.35,5.62-4.9,2-10-2.13-3-4.18-6-6.16-9.09-2.83-4.39-5.8-5.22-10.32-2.31-4.24,2.73-8.27,5.78-12.39,8.68l-2.43-2.89-.06-.12a9.77,9.77,0,0,1,1.73-2.16c4.57-3.29,9-6.8,13.87-9.62s6.81-2.43,10.61,1.77a61.38,61.38,0,0,1,4.67,6.54c5.1,7.43,5.1,7.43,10.7,5.9C303.51,311.83,303.26,315.41,300,318.47Z"/><path class="cls-4" d="M301.92,307.91c-5.6,1.53-5.6,1.53-10.7-5.9a61.38,61.38,0,0,0-4.67-6.54c-3.8-4.2-5.62-4.69-10.61-1.77s-9.3,6.33-13.87,9.62a9.77,9.77,0,0,0-1.73,2.16c-.13-3.75-1.74-7.92,3-10.28,3,.46,11.65-4.06,13-6.8a4.12,4.12,0,0,0-.41-3.86c9-.82,14.92,3,18.66,11.21C296.48,300,299.42,303.87,301.92,307.91Z"/><path class="cls-8" d="M300.48,265.65c1.43-10.15.25-20.32.27-30.48L302,236c0,8.47,0,17-.05,25.42C301.91,262.9,302.71,264.86,300.48,265.65Z"/><path class="cls-7" d="M236.24,446.3c.39,6.91-2,12.52-7.74,16.6-2.7,1.91-5.72,2.38-8.87,2.63s-3.61-2.58-4.71-4.4c-3-4.94-7-9.45-6.78-15.84.24-8.14.17-8.16-4.21-14.92a20.52,20.52,0,0,1-3.05-13.72,7.39,7.39,0,0,0-2.13-6.65c-5-4.94-5.17-20.23-.83-25.95a3.49,3.49,0,0,1,2.22-1.58c5.06-1,10.17-1.93,15.14-3.33,4.48-1.26,8-4.48,12-6.73,5.59-3.13,9.63-8.39,15.38-11.31,9.9,15.11,19.85,30.19,29.68,45.35,2.82,4.34,6.07,8.42,8.18,13.2-.13,2.56.45,5.12-.8,7.64-5.35,10.76-18.74,12.95-27.64,4.36-6.36-6.13-9.77-14.34-14.81-21.42-3-4.23-5.88-8.78-12.25-7.74a36.54,36.54,0,0,0,2.79,10.57Q232,429.68,236.24,446.3Z"/><path class="cls-8" d="M225,402.49c1.93,3.25,4.59,6.05,6,9.61-1.27-.31-3.21-2.92-3.24,1A36.54,36.54,0,0,1,225,402.49Z"/><path class="cls-8" d="M303.78,370c.43.32.89.88.35,1.19s-.66-.45-.8-.88A2.77,2.77,0,0,0,303.78,370Z"/><path class="cls-9" d="M269.32,519.49l3.84-.21C271.94,520.48,270.73,521.86,269.32,519.49Z"/><path class="cls-8" d="M321.67,528l.38-.31-.29.39Z"/><path class="cls-7" d="M260.4,305.6l2.43,2.89c2,4.35,5.27,7.82,7.86,11.77,1.23,1.88,1.3,2.82-.61,4.14q-22.93,15.77-45.76,31.68c-2,1.4-4,2.81-5.93,4.35-4.32,3.51-13.76,3.61-19-1.08-15.19-13.52-30.5-26.91-45.72-40.41-2.2-2-4.7-3.8-5.31-7,.29-7.12,4.47-12.4,8.29-17.9,2.73-3.91,5.8-7.6,7.93-11.92,2,.23,2,1.87,2.53,3.27,5,12.84,13.09,23.08,25.05,30.32,8.82,5.35,18.32,8.91,28,12.16,2.44.82,5,1.59,7.46-.13,4.45-3.18,8.85-6.43,13.27-9.64,1.57.17,2.42-1.11,3.53-1.81C249.8,312.84,254.65,308.54,260.4,305.6Z"/><path class="cls-4" d="M117.22,263.13c-2.43-2.86-1.09-4.12,1.38-5.32,2-1,4.25-1.53,5.8-3.31,4.25-2.22,5.89,0,7.95,3.65,7.62,13.39,18.27,18.18,33.77,15.91,2.39-.35,4.85-.21,6.44-2.79,1.14-1.85.94-2.59-1.13-3-9.23-1.8-15.2-7.43-19-15.85-1.6-3.59-3.32-7.21-6.64-9.67-2.31-3.53-5.35-6-9.64-6.64-3-1.71-6.16-1.58-9.42-1.38-6.17.38-11.53,3.39-17.31,5l-.09-.23c-1.63-3.44-3.11-6.95-4.94-10.27-1.27-2.3-.56-3.31,1.54-4.37a50.53,50.53,0,0,1,15.56-4.54c6.1.52,12.27.11,18.2,2.43,6.85,2.68,11.94,7.33,16.28,13l7.68,14.28c2.53,4.71,5.75,8.57,11.54,9.16A19.2,19.2,0,0,1,176,262a46.83,46.83,0,0,0,7.12,19.37c3.5,5.38,8.75,8.81,13.1,13.21,6.56,6.63,20.16,5.11,25.67-1.42,4.17-4.95,8.52-10,11-16.18.93-2.32,2-4.59,3.27-7.63,2.25,17-5.48,29.49-14.48,41.65,6.7,2.25,12.6,5.19,19.21,5.81l0,1.29c-4.42,3.21-8.82,6.46-13.27,9.64-2.42,1.72-5,.95-7.46.13-9.68-3.25-19.18-6.81-28-12.16-12-7.24-20-17.48-25.05-30.32-.54-1.4-.57-3-2.53-3.27-3.65.37-7.3.78-10.95,1.09-11.72,1-21.16-3.65-29.22-11.78"/><path class="cls-3" d="M139.34,295.69c-8.3-3.48-25.55-10.39-34.6-14.17-.41-.63-1.17-.86-2.36-.84-6,.09-11.95,0-17.93,0a4.56,4.56,0,0,1-4.68-3.1A3.06,3.06,0,0,1,81.33,274a11.54,11.54,0,0,1,3.46-.94c-7.28-3.8-15-6.7-22.46-10-8.06-3.53-53.61-26-61.7-29.4v49c3.84.88,45.1,9.16,48.95,10l32.25,7.11.12-.15c10.72,2.46,45.63,10.63,51.24,11.89,1.53.34,3.07.74,3.56-1.58a62.07,62.07,0,0,1,3.67-11.5A1.78,1.78,0,0,0,139.34,295.69ZM81.18,285.52c1-2,2.72-2.88,4.8-1.81s3.9,1.8,5.4-1c.8-1.5,2.46-1.67,4-.84s2.57,2.24,2,3.85L87,293.47c.47-1.09-.46-1.59-1.69-2.2A21.06,21.06,0,0,1,82.61,290C81.09,288.89,80.2,287.41,81.18,285.52Z"/><path class="cls-5" d="M82,299.77c1.44-1.74,2.84-3.55,4.37-5.13,2-2,.85-2.67-.8-3.49a20.72,20.72,0,0,1-2.77-1.31c-1.56-1.11-2.47-2.62-1.46-4.54s2.78-2.93,4.9-1.85,4,1.84,5.52-1c.82-1.54,2.51-1.71,4.09-.86s2.67,2.32,2,4c-.94,2.37.26,3,2,3.86,2.21,1,2.7,2.88,1.83,5.14-.26.67-1.64,1.14-.63,2a2.89,2.89,0,0,0,2.7.11,2.81,2.81,0,0,0,2-3.09c0-3.52-.07-7,0-10.57,0-2-.8-2.69-2.79-2.65-6.11.09-12.22,0-18.32,0a4.68,4.68,0,0,1-4.79-3.16,3.14,3.14,0,0,1,1.6-3.71,12,12,0,0,1,3.53-.95c6.58.86,13.18.16,19.77.38,1.24,0,2.48,0,3.72,0,3.4.06,4.53,1.23,4.63,4.72q.11,3.54.23,7.09c-.06,2.16.11,4.55.23,6.7.62,11.3-4.45,14-13.38,13-1.64,0-2.89-.89-4.18-1.7-.44-2.32.23-4.2,2.76-5.77-2.12-.39-3.41-3.05-5.19-.44-1.06,1.58-1.84,3.35-2.75,5a11.31,11.31,0,0,0-1.49,1c-1.43,1.37-3,2.25-5,1.46S82.21,301.52,82,299.77Z"/><path class="cls-5" d="M112,324.78c2.27,4.41,1.15,9.06.74,13.61-.09,1-1.33,1.84-2.79,2a26.64,26.64,0,0,1-28-16.62,20.11,20.11,0,0,0-1.14-2.15c-.3-2.23-.64-4.45-.9-6.69-.23-2.08.15-4,2.36-4.82s3.72.32,4.82,2.17c0,3.68.32,7.28,2.64,10.36,2.53,5.51,7.09,8.51,12.7,10.1,2.06.59,3.76.24,3.31-2.64a8,8,0,0,1,1.39-5.79A7.64,7.64,0,0,1,112,324.78Z"/><path class="cls-5" d="M106.8,305.61c1.47-.53,2.51.49,3.7,1a41.85,41.85,0,0,0,9.38,9.45c2,1.52,2.92,3.29,1.44,5.59-1.25,1.94-3.58,2-6,.18a50.13,50.13,0,0,1-9.59-9.27C103.45,309.61,103.73,307.9,106.8,305.61Z"/><path class="cls-5" d="M71.32,318.78c1.32-1.19,2.53-2.47,4.6-1.76s2.56,2.47,2.59,4.44c-2.59,3.83-6.22,6.66-9.52,9.79-1.4,1.33-3.7,1.8-5.24-.08s-1.16-3.76.4-5.55"/><path class="cls-5" d="M89.56,315.39c1.6-2.27,3.63-2.41,6-1.27s4.5,2.05,6.74,3.09c3.77,1.75,4.19,2.78,2.82,6.75-3.06,1.47-5.74,0-8.46-1.12a34.54,34.54,0,0,0-3.84-1.94C90.12,319.94,89.05,318.16,89.56,315.39Z"/><path class="cls-4" d="M260.55,202.29s-6.48,2.37-6.91,3.14c-.21.36.58,1.48.78,1.85,3.21,6,15.33,14,21.65,16.57.5.2,1.52,1.11,2.06,1.05s1.38-.63,1.88-.63c.18,0-.08.47,0,.63a9.49,9.49,0,0,0,1.26,1.25,24.88,24.88,0,0,0,1.35-3,3.49,3.49,0,0,0-.09-2c-1.19-1.82-5.95-3.48-7.33-5.17-.31-.37-.48-1.41-.84-1.74a16.32,16.32,0,0,0-3.14-1.88C267.42,210.59,260.55,202.29,260.55,202.29Z"/><path class="cls-7" d="M240.89,316.8c-6.61-.62-12.51-3.56-19.21-5.81,9-12.16,16.73-24.7,14.48-41.65-1.31,3-2.34,5.31-3.27,7.63-2.48,6.2-6.83,11.23-11,16.18-5.51,6.53-19.11,8.05-25.67,1.42-4.35-4.4-9.6-7.83-13.1-13.21A46.83,46.83,0,0,1,176,262a19.2,19.2,0,0,0-.78-2.73c-.3-3.94-.63-7.88-.9-11.82a32.35,32.35,0,0,1,8.78-25.12c3.8-4.61,9.26-6.52,14.46-8.85,6.09-.33,12.1-.6,18,2a33,33,0,0,1,16.18,15.23c.61,1.13.49,3.21,2.76,2.8-.37,7.8,1.39,15.39,2.62,23,.76,4.63,1.46,4.51,5.65,1.64,10.41-1.29,20-5.42,29.66-9,1.51-.93.79-2.47.86-3.7.27-4.35.28-8.72.5-13.07.06-1.2-.48-3,1.78-2.93,1.35,1.62,2.64.77,3.05-.57s1.65-2.06,2.12-3.29c2.94-2.46,2.56-4.24-.73-6.24-2.17-1.31-4.78-2.41-5.88-5.08l0-3.32a10.71,10.71,0,0,1,1.47.64c5.82,3.62,8.49,3.1,12.61-2.4.72-1,1.11-2.21,2.34-2.72,2.37.33,1.6,2.22,1.61,3.55.09,6.58.26,13.16,0,19.73-.25,7.14.92,14.2.83,21.31-.11,7.72-3.57,12.45-10.92,14.91-4.14,1.4-8.21,3-12.38,4.3-2,.62-4.06,1.57-6.37.67a5.31,5.31,0,0,0-5.39,1.3c-3.5,3.09-7.8,4.21-12.05,5.63-5,1.68-5.92,3.78-3.89,8.78a15.1,15.1,0,0,1,.9,3.11C242.53,298.77,243.08,307.89,240.89,316.8Zm-25-68-9.2.32c-3.41,0-6.82,0-10.23,0-1.11,0-2.62-.47-2.87,1.41a29.16,29.16,0,0,1-4.05.3c-3.34-.21-4.78,1.11-4.2,4.52s1.44,6.7,1.38,10c-.08,3.75,1.43,4.2,4.61,3.8,5.79-.74,11.63-1.11,17.44-1.64l3-.43c2.48-.18,5,.2,7.44-.63,7.65-.33,7.65-.33,7-5.47l-.84-3.25c0-2.59,0-5.19-.1-7.79,0-1.09-.28-2.63-1.75-2.07C221,248.92,218.31,247.85,215.85,248.84Zm-3.64,27c-.06-.66.46-3.43-2.22-2.59-2.39.75-7-1.49-6.81,4,.08,3.17,1.22,4.84,4.58,4.83C211.42,282.1,212.53,280.11,212.21,275.87Z"/><path class="cls-7" d="M271.16,174.32c3.66-4.8,5.6-5.48,11.61-3.94l6.06,4.17.87.52,1.23,1.84c1,.88,1,.88,1.16,1.57l0-.06c.25,4-.08,7.83-2.76,11.19a104.82,104.82,0,0,0-7.46,10.23c-2.66,4.3-6.25,6.67-11.28,6.91-4.21-.75-6.58-4.67-10.41-6.06-2.84-5.25-1.51-9.67,2.23-14,2.06-2.39,3.34-5.46,5-8.23C267.91,178.42,270.27,175.49,271.16,174.32Z"/><path class="cls-4" d="M242.73,258.11c-4.19,2.87-4.89,3-5.65-1.64-1.23-7.6-3-15.19-2.62-23,.77-.78.91-2.08,2.09-2.5,3.8.77,6.08,3.93,9.16,5.84q3.31,2.18,6.64,4.34c1.7,1.28.9,2.43-.07,3.75C249.05,249.27,245.91,253.71,242.73,258.11Z"/><path class="cls-10" d="M258.66,218.62a12.9,12.9,0,0,0-7.35-5.8l-4.62,6.32-1.27,1.47c-3,3.44-4.49,8.12-8.87,10.37,3.8.77,5.78,4,10.18,6.48"/><path class="cls-10" d="M260.13,200.69c3.83,1.39,6.2,5.31,10.41,6.06a6.81,6.81,0,0,0,3,2.89l.56,1.27,0,3.32c-5.64-2.32-10.21-6.3-15-9.89C257.38,203.06,259.62,201.89,260.13,200.69Z"/><path class="cls-4" d="M297.27,180.71a1.69,1.69,0,0,0-.32.55c-2.45.46-2.74-2.83-4.91-2.84l0,.06c0-.8-.77-.69-1.16-1.57l-1.23-1.84c3.39.11,6.16-1.79,9.19-2.86a2.39,2.39,0,0,0,1.54-2.6c0-2.32,0-4.64,0-7,0-2.12-1-2.65-2.87-1.67a16.83,16.83,0,0,1-3,1.12c-3.43,1-5.26,3.06-5,6.87.14,1.85.46,3.84-.7,5.58l-6.06-4.17c2.43-5.43,6.72-9.62,9.88-14.56.72-1.11,1.87-.77,2.86,0q6.11,4.66,12.23,9.31c-3,5.38-7.52,9.79-10.3,15.33"/><path class="cls-4" d="M292,178.42c2.17,0,2.46,3.3,4.91,2.84a10.21,10.21,0,0,0,.4,7c.43,1.08,1.66,2.29.49,3.67-3.41.25-6.92.34-7.35,5-1.76,2.39-3.71,4.68-5.25,7.21-2.73,4.47-6.67,6.05-11.68,5.54a6.81,6.81,0,0,1-3-2.89c5-.24,8.62-2.61,11.28-6.91a104.82,104.82,0,0,1,7.46-10.23C292,186.25,292.29,182.44,292,178.42Z"/><path class="cls-1" d="M240.89,316.8c2.19-8.91,1.64-18,2-27.08,3.73-1.15,7.49-2.23,11.2-3.47,1.72-.57,3-.56,4.07,1.21,1.6,2.64,3.41,5.17,5.13,7.74-4.7,2.36-3.09,6.53-3,10.28l.06.12c-5.75,2.94-10.6,7.24-16,10.68-1.11.7-2,2-3.53,1.81C240.86,317.66,240.88,317.23,240.89,316.8Z"/><path class="cls-6" d="M273.56,209.64c5,.51,8.95-1.07,11.68-5.54,1.54-2.53,3.49-4.82,5.25-7.21,4.67,3.15,1.61,6.35.05,9.54-1.23.51-1.62,1.76-2.34,2.72-4.12,5.5-6.79,6-12.61,2.4a10.71,10.71,0,0,0-1.47-.64C273.93,210.49,273.75,210.06,273.56,209.64Z"/><path class="cls-8" d="M208.73,267.6c-1.48.13-3,.27-4.45.37s-2.69-.32-2.6-1.85c.18-3-2.07-3.75-4.51-4.82,6-1.24,11.48-2.87,17.62-1.85-3.39,1.72-3.7,4.55-3,7.72Z"/><path class="cls-11" d="M212.21,275.87c.32,4.24-.79,6.23-4.45,6.24-3.36,0-4.5-1.66-4.58-4.83-.15-5.49,4.42-3.25,6.81-4C212.67,272.44,212.15,275.21,212.21,275.87Z"/><path class="cls-10" d="M280.7,225.55c-.47,1.23-1.69,1.9-2.12,3.29s-1.7,2.19-3.05.57c-3.12-2.53-6.87-5.46-9.57-6.81-2.2-2.15-4.22-4.6-7.68-4.68a13.4,13.4,0,0,0-7-5.09c-1.11-3.51-4.53-4.53-7.11-6.33-3.9-2.72-1-4.69.37-6.84,1.51-2.37,3.21-4.25,6.16-1.6,2.11,1.89,4.35,3.63,6.61,5.5-3.83,1.95-4.09,3.34-1,5.67,6.4,4.83,12.91,9.51,19.33,14.32,1.12.84,2.12,1.19,3.33.41C281.67,222.24,280,225.12,280.7,225.55Z"/><path class="cls-6" d="M208.73,267.6c-5.81.53-11.65.9-17.44,1.64-3.18.4-4.69-.05-4.61-3.8.06-3.34-.81-6.7-1.38-10s.86-4.73,4.2-4.52a29.16,29.16,0,0,0,4.05-.3c4.45.29,8.88.4,13.1-1.42l9.2-.32c2.67.15,5.94-.59,7.85.7,2.31,1.55.27,5.33,1.46,7.93.05.12.13.23.19.35l.84,3.25c-2.24,4.58-7.06,3.54-11,4.77,1.37,1.32,2.75.61,4,.7-2.43.83-5,.45-7.45.63-.67-3.17-.36-6,3-7.72-6.14-1-11.62.61-17.62,1.85,2.44,1.07,4.69,1.8,4.51,4.82-.09,1.53,1.23,1.95,2.6,1.85S207.25,267.73,208.73,267.6Z"/><path class="cls-8" d="M219.21,266.54c-1.28-.09-2.66.62-4-.7,3.95-1.23,8.77-.19,11-4.77C226.86,266.21,226.86,266.21,219.21,266.54Z"/><path class="cls-12" d="M206.65,249.16c-4.22,1.82-8.65,1.71-13.1,1.42.25-1.88,1.76-1.39,2.87-1.41C199.83,249.11,203.24,249.16,206.65,249.16Z"/><path class="cls-8" d="M225.35,257.82c-.06-.12-.14-.23-.19-.35-1.19-2.6.85-6.38-1.46-7.93-1.91-1.29-5.18-.55-7.85-.7,2.46-1,5.12.08,7.65-.88,1.47-.56,1.71,1,1.75,2.07C225.34,252.63,225.32,255.23,225.35,257.82Z"/><path class="cls-6" d="M288.83,174.55c1.16-1.74.84-3.73.7-5.58-.27-3.81,1.56-5.85,5-6.87a16.83,16.83,0,0,0,3-1.12c1.92-1,2.85-.45,2.87,1.67,0,2.32,0,4.64,0,7a2.39,2.39,0,0,1-1.54,2.6c-3,1.07-5.8,3-9.19,2.86Z"/><path class="cls-6" d="M266,222.6c-3.8,6.73-8.64,12.7-13.61,18.56q-3.33-2.16-6.64-4.34c.37-4.12,3.53-6.27,5.66-9.72l6.91-9.18C261.74,218,263.76,220.45,266,222.6Z"/><path class="cls-6" d="M136.57,403.12c-2.95,6.78-11.52,12.65-16.88,10-5.72-2.86-7.23-8.77-6.06-10.92,2.34-4.29,4.87-8.45,8.7-11.63,4.44,3.3.35,3.53,5.7,5.81C130.54,397.42,136.19,399.49,136.57,403.12Z"/><path class="cls-2" d="M161.78,585.88a100.84,100.84,0,0,1-11.24-6c-8.72-5.33-15-14-17.11-28.73-1.6-11.2-6.86-16.9-13.86-19.45-4.76-1.74-9.31,0-13.71,2.36-2.27,1.21-3.18,1.05-4.11-2.61-4.84-18.92-14.87-29-28.11-29.5-6.31-.26-12,1.76-17.42,6.5-5.1,4.46-10.43,6.31-16.46,4.62-5.65-1.59-9.7-5.4-12.19-13.38-1.79-5.78-3.5-11.62-6-16.92C16.27,471.33,9,465.62,0,464.59V372.42c1.18.72,2.39,1.38,3.55,2.17,3.76,2.56,6.53,7.23,9.84,10.74,3.7,6.41,7.38,12.94,9.17,21.18.94,4.29,2,4.72,4.65,2.94,11.89-8.05,23.51-7.2,34.66,3.44,4,4,7.94,8.14,10.79,14.16,1.56,3.28,3.43,4.61,6.19,4.4,3.69-.28,7.46-.77,11.1,1,6.6,2.65,11.49,8.6,15,17.56a63.91,63.91,0,0,0,3.92,7.38q8.64,12.15,20,16.6c1.61,0,3.28.51,4.82,0,2-.61,4.23-1.71,4.05-5.9-.15-3.91.81-7.39,1.42-11,.62-.12,1.06-.51,1.27-1.52,1.21-5.94,4.72-9.65,7.79-11.16,6.22-3.06,12.89-1.93,17.83,5.49,2.7,4,5.29,5.06,8.84,5.23,10.9.54,19,17.28,17.8,33.78-.35,4.64-.86,9.34,1,13.95,3.41,8.64,8.21,14.29,14.42,17.35h0c-1.91,2-4,1.47-5.93.51-4.45-2.16-8.87-4.46-13.31-6.71l-7.23-3.54a60.63,60.63,0,0,0,4.33,9.16c.16.66,2.29,2.59,2.6,2.91,6.16,6.39,12,13.52,19,18,8.26,4.71,16.7,7.09,25.5,4.35,7.3.63,39.67-9.28,46.51-14.87,4.66-3.27,7.83-7.9,8.53-12.87-1.22,1.34-2.65,1.56-3.59,2.51-3,3.06-6.81,3-9.84,5.84-3.12.54-6.21,2.07-10.06,1.32l12.08-8.63c7.3-4.28,12.48-12.15,16.24-22.41,5.62-10.27,12.47-16.49,21.59-15.19,7.29.35,14.45,3,21.8,2.36,3.48-.31,6.65-2.24,9.95-3.43,4.55-3,8.25-7.87,11.89-12.86,4.37-6,9.24-10.12,15.34-9.7.42-.23,1.13-.32,1.21-.7,2.49-12.31,9.28-16.49,16.26-20.78,5.24-3.22,10.57-1.1,15.82-2,4.21.08,8.42.31,12.62.22,7.07-.16,12.76-4.88,17.54-12.62.93-1.52,1.23-3.92,2.74-4.63v52.51c-2-.65-3.7-2.41-5.17-4.29-8.22-10.55-22.15-.12-24.19,13-.72,4.61-2,5.32-4.8,4.23-4.92-1.93-9.71.08-14.29,2.76-3.35,1.95-4.81,6.5-5.57,11.58-1.09,7.28-1.78,14.69-3.59,21.7-2.64,10.24-9.5,17.75-16.1,17.52-3.36-.12-6.2-2.28-8.38-5.84-9.41-15.37-24.23-7.87-29.07,8.28-2.41,8-4.13,16.67-8.47,23.21-7.32,11-23.8,22.19-33.47,26.2"/><path class="cls-4" d="M122.33,390.54c.52-2.19,1.88-3.92,3.15-5.69,10-13.83,19.93-27.7,30-41.48,1.66-2.27,2.3-4.18,1.16-7-1.52-3.79-2.81-7.38-5.91-10.44-3.84-3.8-4.55-8.81-2.39-14,.61,3.21,3.11,5.05,5.31,7,15.22,13.5,30.53,26.89,45.72,40.41,5.28,4.69,14.72,4.59,19,1.08,1.9-1.54,3.92-2.95,5.93-4.35q22.86-15.87,45.76-31.68c1.91-1.32,1.84-2.26.61-4.14-2.59-3.95-5.88-7.42-7.86-11.77,4.12-2.9,8.15-5.95,12.39-8.68,4.52-2.91,7.49-2.08,10.32,2.31,2,3.08,4,6.12,6.16,9.09,3.65,5.1,3.23,6.65-2,10-4.05,2.62-8.87,4.05-12.2,7.8l-31.82,22.2c-5.27,3.67-5.33,3.86-3,9.89-5.75,2.92-9.79,8.18-15.38,11.31-4,2.25-7.54,5.47-12,6.73-5,1.4-10.08,2.31-15.14,3.33a3.49,3.49,0,0,0-2.22,1.58c-4.34,5.72-4.2,21,.83,25.95a7.39,7.39,0,0,1,2.13,6.65,20.52,20.52,0,0,0,3.05,13.72c4.38,6.76,4.45,6.78,4.21,14.92-.19,6.39,3.78,10.9,6.78,15.84,1.1,1.82,1.48,4.66,4.71,4.4s6.17-.72,8.87-2.63c5.79-4.08,8.13-9.69,7.74-16.6,2.48,6.51,3.74,13.36,5.7,20,1.53,5.18,2.83,10.24,6,15,4.36,6.45,7.52,13.76,10.9,20.84s-2.07,16.29-10.1,17a47.54,47.54,0,0,1-4.92-.06c-6.12-2.15-8.23-7.71-11-12.79-4.85-9-8.61-18.64-15.27-26.62-.84-1.56-1.58-3.17-2.52-4.66-16.1-25.37-29.76-51.89-38.79-80.67-3.1-9.88-6.74-19.59-10.26-29.77-1.09,1.45-1.89,2.54-2.72,3.59-9.12,11.51-16.19,24.59-26.76,35-2.51-.5-5.11.41-7.62-.67C123.6,400.17,122.12,395.86,122.33,390.54Z"/></g></g></g></svg>