<svg xmlns="http://www.w3.org/2000/svg" viewBox="0 0 700 1081"><defs><style>.cls-1{fill:#e8e9eb;}.cls-2{fill:#fdfdfd;}.cls-3{fill:#e0dfd5;}.cls-4{fill:#216696;}.cls-5{fill:#313638;}.cls-6{fill:#07c39b;}.cls-7{fill:#d1d1d1;}.cls-8{fill:#e4b363;}.cls-9{fill:#f4efd5;}.cls-10{fill:#044e91;}.cls-11{fill:#06325d;}.cls-12{fill:#fa4d3b;}</style></defs><g id="Layer_2" data-name="Layer 2"><g id="skills_set_-_long" data-name="skills set - long"><rect class="cls-1" width="700" height="1081"/><path class="cls-2" d="M475.59,872.35c13.93-6.93,24.89-17.44,35.42-28.53a9.88,9.88,0,0,0,1.32-2.9c.15-.21.31-.41.47-.62l-.61.48c-5.1.66-9.2,3.77-13.69,5.82-23.79,10.85-48.8,17-74.6,20.55-20.48,2.8-40.94,5.47-61.67,5.2-39.19-.51-75.78-9.88-108.83-31.55-2.54-1.66-5.06-3.37-7.64-5s-4.71-3.89-9.39-5c8.8,17.34,21.32,29.37,36.78,38.53"/><path class="cls-3" d="M699.59,332s-72.68,42-89.76,52.14q-55,32.58-109.91,65.32c-3.13,1.88-4.54,1.64-6.45-1.38a118.49,118.49,0,0,0-9.67-13.33c-2.58-3-1.9-4.62.8-7C506.46,408.58,528.2,389.25,550,370c38.85-34.34,109.73-96.67,148.6-131"/><path class="cls-3" d="M699.59,138c-12,13.76-94.12,116.59-106.14,130.3Q537.56,332.11,481.6,395.87c-4.69,5.35-9.49,10.6-14.05,16.05-2,2.43-3.46,2.48-5.87.4-3.4-2.94-7.24-5.38-10.89-8l-1.46-1q-.09-7-.2-14c2.84,0,2.86-2.65,3.8-4.24C472.73,351.67,687.35,19.26,698.59,0,699.59,47,700.58,114,699.59,138Z"/><path class="cls-3" d="M1,216c56.8,48,164.4,140.54,214.91,186.86,2.34,2.14,4.23,4.94,7.65,5.61l.1.28c.3,2.21,2.36,2.92,3.66,4.25,4.48,4.6,10.15,7.9,14,13.19-1.84,2.1-4.48,2.75-6.85,3.91-2.91,1.42-4.49,2.91-1.63,6.29,1.77,2.1,4.11,4.05,4.78,7-3.75,8.83-3.85,8.89-11.69,4.24C171.66,415.42,0,300,1,300"/><path class="cls-3" d="M1,109V0H42.85c.41.87,205.48,338.52,237.6,393,3.86,6.54,3.87,6.53-1.88,11.11-5.11-6.75-11.13-12.25-19.2-15.42-7-2.75-14.27-2.27-21.47-2.89a9.34,9.34,0,0,0-.89-1.62q-43.33-49.35-86.67-98.68C133.31,266,18,128.48,1,109Z"/><path class="cls-3" d="M310.55,388.08c-4.45,1.15-6.62-.34-8.56-4.9C280.08,331.68,135.67.63,135.53,0H241.17c5.4,24,64.17,275,69.52,299q8.25,36.92,16.34,73.88a47.24,47.24,0,0,1,.57,4.78C321.47,380.36,315,382.62,310.55,388.08Z"/><path class="cls-3" d="M699.59,672C666,657.49,555.47,612.81,521.84,598.3c-4-1.72-8-3.53-12-5.09-2.75-1.06-3.28-2.53-2.12-5.22a81.63,81.63,0,0,0,5.3-16.62c.67-3.5,2.55-3.92,5.55-3.23q22.88,5.29,45.78,10.43,46.29,10.39,92.59,20.72c3.77.85,38.91,6.8,42.68,7.71Z"/><path class="cls-3" d="M411.58,0c-.38,8.83-22.51,248.32-23.39,259-2.23,26.65-4.84,53.26-7.35,79.88-1.12,11.94-2.44,23.86-3.53,35.8-.22,2.39-.88,3.57-3.5,3.24a76.22,76.22,0,0,0-18.85,0c-2.72.33-3.25-.89-3.46-3.22q-3.74-40.17-7.59-80.34c-2-20.81-16.13-273.47-18-294.29"/><path class="cls-3" d="M699.59,561c-12.52-1.28-56.41-4.48-68.94-5.67q-53-5.05-106.07-10c-7.06-.67-7.11-.8-6.43-7.72a84,84,0,0,0-.26-15.05c-.16-2.06.12-3.33,2.63-3.54,11.74-1,23.46-2.17,35.18-3.27.75,4.22-.64,8.59.85,12.76l1.05,2.19c1.12,3.6,4.06,2.6,6.33,2.14,3.31-.68,3.49-3.66,3.63-6.43,6.2-1.31,12.53.28,18.73-.89a23.74,23.74,0,0,1,2,4.38c.55,2.38,2,3.06,4.17,3.17,3.66.18,5.75-1.23,6.12-5.11.51-5.48-.9-11,.73-16.45,12.2-1.21,24.39-2.76,36.62-3.52,10.78-.68,51.73-5,63.69-7Z"/><path class="cls-3" d="M126.45,511.18l3.64.25a37.42,37.42,0,0,1,1.78,3.37,41.5,41.5,0,0,0,43.56,26c2.28-.27,4.2-1.58,4.34-3.15.65-7.11,2.39-14.38-1.15-21.29,10.49.21,20.89,1.54,31.32,2.63,2.09.22,2.8,1.11,2.58,3.12a87.91,87.91,0,0,0,0,19.39c.31,2.81-1.22,3.16-3.41,3.36-14.45,1.34-28.9,2.79-43.35,4.15q-49.38,4.66-98.77,9.28C65.38,558.43,2.6,562,1,562V503c11.11-.57,83.18,4.47,94.22,5,5.26.27,10.49,1.23,15.74,1.87-1.32,3.45-4.61,5.15-6.88,7.76-2.44,2.8-2.9,5.88-.62,8.68s6,2.21,8.16.13C116.75,521.59,122.42,517.16,126.45,511.18Z"/><path class="cls-3" d="M610.89,0c-5.2,12.37-152.32,319.11-153.3,320.37l-14.44-11c-1.16-.89-2.52-1.31-3.36,0-3.74,5.85-8.79,10.81-11.66,17.24-7.09-1.83-9.38-1-13.69,4.66-1.05,1.39-2.12,3.83-3.28,5.13,1.58-11.1,1.53-12.58,2.75-18.17C420.58,287.8,468.55,30.39,475.36,0Z"/><path class="cls-3" d="M699.59,387v67c-5.8,1.32-85.82,29.44-91.62,30.72q-26.1,5.76-52.22,11.47c-.38-7.25-1.38-8.39-7.49-8.5-8.71-.16-8.59-.14-6.67-8.67.58-2.55,1.25-5.35-1.14-7.74-1.81-1.81-3.94-1.7-5.82-1.1-3.45,1.09-3.63,4.68-4.45,7.48-2.26,7.73-5.1,10.28-11.57,10-2.42-.09-4.22-.57-4.09-3.46.12-2.57.59-4.87,4-4.72a28.56,28.56,0,0,0,4.32-.27c4-.45,5.26-3.46,5.13-6.68-.12-3.07-2.52-4.6-5.69-4.6-1.94,0-3.87-.15-5.81-.22,11.74-4,22.85-9.57,34.23-14.45"/><path class="cls-3" d="M130.3,477.25q-25.68-5.65-51.36-11.32C72.81,464.57,7.11,451.39,1,450V372c12.89,5.48,85.42,41.19,98.25,46.82,11.94,5.24,24.17,9.86,35.75,15.9-1.86.46-4,.52-5.5,1.49-1.89,1.21-3.39,3.32-2.49,5.8,1.22,3.35,3.88,4.94,7.46,4.94,9.51,0,19,.11,28.55,0,3.1,0,4.42,1,4.35,4.16-.14,5.5-.07,11,0,16.53,0,2.34-.83,4.13-3.12,4.83-1.36.41-3.07.8-4.2-.18-1.58-1.35.57-2.1,1-3.13,1.36-3.55.59-6.42-2.85-8.05-2.74-1.3-4.61-2.33-3.14-6,1-2.6-.64-4.91-3.12-6.23s-5.1-1.06-6.38,1.34c-2.39,4.48-5.14,3.36-8.59,1.6s-6-.24-7.65,2.89-.15,5.36,2.28,7.1a32.81,32.81,0,0,0,4.31,2c2.59,1.29,4.35,2.26,1.26,5.46C134.72,471.71,132.54,474.54,130.3,477.25Z"/><path class="cls-4" d="M573.65,480.79c-1.94,1.78-3.07,3.27,1,3.26,5.94,0,11.89,0,17.83,0,5.73.05,7.6,1.83,7.8,7.6.21,6.44.26,12.88.38,19.31-1.72,5.72-.23,11.58-.78,17.36-.38,4.11-2.6,5.59-6.47,5.4-2.3-.12-3.84-.84-4.43-3.34a24.76,24.76,0,0,0-2.07-4.63c-4.8-1.12-9.66-.36-14.49-.43-1.8,0-4.12-1.12-5.36,1.37-.15,2.92-.34,6.07-3.85,6.78-2.41.49-5.52,1.55-6.71-2.25-.52-5.25,1-10.62-.88-15.79l-.3-.53V500c-3,.13-4.54,1.9-6.48,2.82-3.4,1.62-6.54,1.5-8.55-1.8-2.12-3.49-.9-6.48,2.48-8.75,2.09-1.4,5-2,5.68-5l2.94-.14c3.7-1.87,6.28-4.85,8.7-8.26-2-1.06-4.54-1.5-5-.06-1.64,5-5.5,2.73-8.52,3.21-2.55-4.86-7.11-4.05-11.38-4-1.89,0-3.78-.11-5.65,0-4.42.36-6.78-2.16-7.54-6-.59-3,3.73-6.24,7.79-6.31,3.08,0,6.17-.07,9.25,0s5.19,0,5.16-4.19c0-3.85-1.57-4.8-4.88-4.42-2.32.27-4.35-.63-6.36-1.57-2.12-2.15-2.95-4.6-1.57-7.44s4-3.43,6.91-3.3,5.22.4,6.71-3.45c1.57-4.09,7.55-3.78,10.08,0,.88,1.32.78,3.53,3.25,3.28,2.08.08,4.13.23,6.18.23,3.37,0,5.9,1.62,6,4.87s-1.23,6.57-5.43,7a30.63,30.63,0,0,1-4.58.29c-3.63-.16-4.13,2.27-4.26,5-.14,3,1.77,3.55,4.33,3.64,6.86.25,9.87-2.45,12.27-10.61.86-2.95,1-6.74,4.7-7.9,2-.63,4.26-.74,6.17,1.17,2.53,2.52,1.82,5.48,1.22,8.17-2,9-2.17,9,7.06,9.15,6.47.12,7.53,1.32,7.93,9-2.51,3.53-6.2,3.41-9.95,3.31-2-.05-4,.2-6,.31C580.51,479,576.13,475.81,573.65,480.79Zm13.43,18.92c1-1,1.95-2,.21-3.14-5.71-.13-11.43-.28-17.14-.35-1.51,0-3.31-.12-2.48,2.39l.12,1.06A41.5,41.5,0,0,0,587.08,499.71Zm0,13.41c0-.65-.05-1.3-.07-1.95-6,0-12.06,0-18.1,0a1.63,1.63,0,0,0-1.81,1.41c-.12,1.09.74,1.48,1.63,1.44C574.87,513.76,581,513.43,587.1,513.12Z"/><path class="cls-3" d="M699.59,822c-14-12.22-188.43-162.74-202.39-175-4.49-3.94-8.87-8-13.48-11.81-2.24-1.86-2.31-3.08-.43-5.42C487.14,625,490.6,620,494,614.86c1.5-2.23,2.73-2.44,5.07-1C524.29,628.9,673.34,716,698.59,731,700.37,732.06,699.59,789,699.59,822Z"/><path class="cls-5" d="M474.23,305.59c3.48.39,3.72,2.75,3.75,5.62.12,14.8.4,29.59.62,44.4l.27,18.85c0,16.18,1.85,32.37-.42,48.52-3.31,7.66-9.05,12.35-17.09,14.6-6.64,1.87-13.14,4.22-19.71,6.34-7.66,2.47-7.66,2.46-2.41,9.15,1,2,1.71,4,.66,6.15-2.11,4.35-15.84,11.55-20.65,10.83-2.74-4.1-5.62-8.12-8.18-12.34-1.7-2.8-3.73-2.83-6.48-1.91-5.9,2-11.88,3.69-17.83,5.52a23.94,23.94,0,0,0-1.43-5c-3.24-8-1.83-11.31,6.19-14,6.77-2.25,13.61-4,19.2-9,2.24-2,5.46-3.27,8.57-2.06,3.69,1.42,6.93-.07,10.15-1.06,6.64-2,13.11-4.63,19.71-6.85,11.7-3.92,17.22-11.45,17.38-23.74.16-11.33-1.72-22.57-1.31-33.93.37-10.46.11-20.95,0-31.43,0-2.11,1.2-5.12-2.57-5.65,2.48-5.08,7.35-10.17-.09-15.19C463.23,306.13,468.81,306,474.23,305.59Z"/><path class="cls-3" d="M627.83,1080c-14.22,0-120.58,1-120.58,1-3.74-17.08-102.39-375.42-106.2-392.48-1.4-6.24-1.49-6.07,4.53-7.85,5.11-1.51,10.13-3.31,15.12-5.17,2.26-.85,3.58-.54,4.56,1.8C431.1,691.17,628.29,1074.11,627.83,1080Z"/><path class="cls-5" d="M358.33,640.88c10.14-1.65,14.72,5.59,19.51,12.32,8,11.27,13.45,24.34,23.58,34.11,14.17,13.67,35.48,10.18,44-6.94,2-4,1.08-8.09,1.28-12.16,6.59,13.47,4.39,26.34-6.65,35.83-2.85,2.45-3.21,3.93-1.67,7.39,4.4,9.94.72,20.61-8.35,26.09a20.44,20.44,0,0,1-27-5.12c-7.8-10.2-15.25-20.69-22.49-31.31-4.51-6.64-4.76-14-.8-21,1.66-2.95,1.51-5-.41-7.56-3.95-5.33-7.62-10.87-11.41-16.32C365.64,650.51,361.4,646.06,358.33,640.88Z"/><path class="cls-3" d="M699.59,931c-1,16,1,109,0,122-6.52-8.26-245.19-372.34-250.68-381.24-4.67-7.58-4.47-7.62,2.92-12.83,3.68-2.6,7.23-5.41,10.76-8.22,1.45-1.14,2.47-1.7,4,.07,9.28,10.75,18.68,21.4,28,32.12C495,683.33,699.4,930.4,699.59,931Z"/><path class="cls-5" d="M477.72,507.09c1.85,4.08,6.14,7,5.2,12.51,5.18-1.94,8.44-5.24,12.22-7.72,11-7.26,23.1-3.41,27.25,9,3.79,11.3,7.21,22.72,9.94,34.6-4.76-6.65-9.59-13.26-14.26-20-3.54-5.08-8.13-7.7-14.43-7-4.83.58-7,1.9-4.22,7.46,10.68,21.13,20.93,42.47,31.31,63.76,1,2.11,2.57,4.07,2.54,6.61l.1-.05c-2.12,1.31-3.19-1.08-4.85-1.37,1.73-3.44-1.37-5.26-2.82-7.32-15.27-21.68-30.74-43.22-46.08-64.85-2.55-3.6-4.45-7.9-9.6-2.76-.94,1-3.28.5-5,.7-4.65-1.24-5.82-5.88-8.66-8.89C462.09,514.87,470.9,512.42,477.72,507.09Z"/><path class="cls-4" d="M465,530.7c1.7-.2,4,.25,5-.7,5.15-5.14,7.05-.84,9.6,2.76,15.34,21.63,30.81,43.17,46.08,64.85,1.45,2.06,4.55,3.88,2.82,7.32-16.64-16.55-33.23-33.16-50-49.59-2.07-2-3.89-6.8-7.56-4.26s-4.93,7.16-3.72,11.71c1.9,7.15,7.66,12,11.37,18.08,1.68,2.74,4.22,5,5.07,8.22a2.85,2.85,0,0,1-.7.49c-11.8-6.19-22.16-14.55-31.9-23.38-7.29-6.62-5.64-17,1.52-24.49C456.46,537.65,462.87,536.57,465,530.7Z"/><path class="cls-3" d="M351.27,692.7c7.85,9.44,12.3,20.85,18,31.52,3.22,6,5.71,12.59,12.93,15.13.14,1.25,48.31,316.65,52.29,341.65-12.64,0-110.93-1-123.57-1,.12-5.64,37.81-358.65,37.2-359.29h0Q349.69,706.71,351.27,692.7Z"/><path class="cls-6" d="M551.38,487.16l-2.94.14c-11.5,1.5-22.71,4.45-34,7.05-2.84.65-4.45-.11-5.1-3.18a96.8,96.8,0,0,0-5.8-18c-1.27-3-.33-4.24,2.38-5.44,9-4,18.38-7.21,27-12.11,2,.94,4.05,1.84,6.37,1.57,3.31-.38,4.86.57,4.88,4.42,0,4.2-2.18,4.28-5.16,4.19s-6.17-.08-9.25,0c-4.06.07-8.38,3.33-7.79,6.31.76,3.81,3.12,6.33,7.54,6,1.87-.15,3.76,0,5.65,0,4.27,0,8.83-.83,11.38,4C547.19,484.66,552.3,483.05,551.38,487.16Z"/><path class="cls-6" d="M477.72,507.09c-6.82,5.33-15.63,7.78-21.34,14.72-4.84.56-9.37,3.37-14.47,2.07,5.29-6,13-8.25,19.43-12.42,8.26-5.34,8.94-7.8,3.12-15.93q-5.08-7.09-9.8-14.46c-4.5-7-9.23-8.33-16.44-3.69-6.74,4.34-13.16,9.2-19.72,13.82-1.29-1.53-2.58-3.07-3.88-4.6l-.09-.19c.91-1.16,1.6-2.62,2.75-3.45,7.28-5.23,14.37-10.82,22.09-15.31,7.95-4.64,10.84-3.87,16.9,2.82,2.84,3.14,5,6.89,7.43,10.41,8.13,11.83,8.12,11.84,17,9.4C483.27,496.51,482.87,502.23,477.72,507.09Z"/><path class="cls-5" d="M480.74,490.28c-8.92,2.44-8.91,2.43-17-9.4-2.42-3.52-4.59-7.27-7.43-10.41-6.06-6.69-8.95-7.46-16.9-2.82-7.72,4.49-14.81,10.08-22.09,15.31-1.15.83-1.84,2.29-2.75,3.45-.21-6-2.76-12.61,4.72-16.36,4.81.72,18.54-6.48,20.65-10.83,1.05-2.18.35-4.19-.66-6.15,14.27-1.31,23.76,4.84,29.72,17.85C472.09,477.74,476.76,483.85,480.74,490.28Z"/><path class="cls-7" d="M478.45,423c2.27-16.15.39-32.34.42-48.52.65.45,1.31.89,2,1.33,0,13.49.06,27-.08,40.48C480.73,418.62,482,421.72,478.45,423Z"/><path class="cls-8" d="M376.16,710.63c.61,11-3.11,19.93-12.32,26.43-4.31,3.05-9.11,3.79-14.14,4.2s-5.73-4.12-7.49-7c-4.78-7.86-11.1-15.06-10.79-25.22.38-13,.27-13-6.7-23.76a32.6,32.6,0,0,1-4.87-21.85c.46-4.28-.32-7.57-3.38-10.58-8-7.88-8.24-32.21-1.33-41.33a5.52,5.52,0,0,1,3.53-2.51c8.07-1.63,16.21-3.07,24.12-5.31,7.12-2,12.75-7.13,19.13-10.71,8.91-5,15.33-13.36,24.49-18,15.77,24.06,31.6,48.08,47.27,72.21,4.49,6.91,9.66,13.41,13,21-.2,4.07.72,8.15-1.28,12.16-8.52,17.12-29.83,20.61-44,6.94-10.13-9.77-15.57-22.84-23.58-34.11-4.79-6.73-9.37-14-19.51-12.32a58.48,58.48,0,0,0,4.44,16.83Q369.46,684.17,376.16,710.63Z"/><path class="cls-7" d="M358.33,640.88c3.07,5.18,7.31,9.63,9.6,15.29-2-.49-5.12-4.64-5.16,1.54A58.48,58.48,0,0,1,358.33,640.88Z"/><path class="cls-7" d="M483.69,589.09c.7.51,1.44,1.4.57,1.89s-1-.71-1.27-1.4A2.85,2.85,0,0,0,483.69,589.09Z"/><path class="cls-3" d="M1,612c12-3.67,102.52-19.67,114.76-22.49,28-6.43,56-12.6,84-18.87,1.42-.31,2.84-.62,4.26-.9,10.7-2.12,10.65-2.1,13.72,8.46a98.88,98.88,0,0,0,3.5,10.06c1.05,2.53.37,3.81-2.06,4.86C196.5,602.86,23.63,677.2,1,687-.65,687.71,1,619.93,1,612Z"/><path class="cls-4" d="M217.46,641.88c-4.7,10.79-18.35,20.13-26.88,15.87-9.11-4.55-11.51-14-9.64-17.38,3.72-6.83,7.75-13.46,13.85-18.52-.34,8.46,2,15.34,10.54,19C209.33,642.52,213.46,641.08,217.46,641.88Z"/><path class="cls-1" d="M194.52,744.88c5.57-7.65,10.35-16,19.21-20.64-1.15,4.44-2.95,8.69-2.65,13.47.32,5.13-3.79,6.46-7.56,7.22C200.64,745.51,197.53,744.94,194.52,744.88Z"/><path class="cls-9" d="M428.83,827.17l6.11-.34C433,828.74,431.08,830.94,428.83,827.17Z"/><path class="cls-7" d="M512.19,840.78l.61-.48c-.16.21-.32.41-.47.62Z"/><path class="cls-8" d="M414.62,486.6c1.3,1.53,2.59,3.07,3.88,4.6,3.15,6.92,8.39,12.46,12.51,18.74,2,3,2.07,4.5-1,6.59Q393.53,541.64,357.19,567c-3.21,2.22-6.43,4.47-9.46,6.93-6.87,5.58-21.9,5.75-30.31-1.73-24.19-21.53-48.57-42.85-72.79-64.34-3.51-3.12-7.48-6-8.46-11.16.45-11.33,7.11-19.75,13.2-28.5,4.34-6.23,9.23-12.11,12.62-19,3.13.36,3.17,3,4,5.2,8,20.45,20.84,36.75,39.89,48.29,14,8.51,29.17,14.18,44.58,19.36,3.89,1.3,8,2.52,11.88-.22,7.08-5.06,14.09-10.22,21.13-15.34,2.5.26,3.86-1.77,5.63-2.89C397.76,498.13,405.47,491.29,414.62,486.6Z"/><path class="cls-5" d="M383.5,506.48c-7,5.13-14.05,10.29-21.13,15.35-3.85,2.74-8,1.52-11.88.22-15.41-5.18-30.53-10.85-44.58-19.36C286.86,491.15,274,474.85,266,454.4c-.86-2.22-.9-4.84-4-5.2-5.81.58-11.61,1.23-17.43,1.73-18.67,1.61-33.7-5.81-46.53-18.76-1.45-1.45-2.32-3.81-4.93-3.79-.91-4-4.06-6.59-6.45-9.41-3.87-4.55-1.73-6.56,2.19-8.46,3.2-1.56,6.77-2.44,9.24-5.27,6.77-3.54,9.38.06,12.65,5.81,12.13,21.31,29.1,28.94,53.78,25.33,3.8-.56,7.73-.34,10.26-4.45,1.81-2.94,1.48-4.12-1.8-4.76-14.7-2.86-24.21-11.83-30.21-25.23-2.55-5.72-5.29-11.48-10.57-15.4-3.68-5.61-8.53-9.52-15.35-10.57-4.71-2.72-9.81-2.51-15-2.19-9.81.6-18.35,5.4-27.55,8l-.14-.38c-2.6-5.47-4.95-11.07-7.88-16.36-2-3.66-.88-5.26,2.45-6.94,7.84-4,16.19-6,24.79-7.24,9.71.82,19.54.19,29,3.88,10.9,4.26,19,11.66,25.93,20.74l12.23,22.75c4,7.49,9.14,13.63,18.37,14.57a29.77,29.77,0,0,1,1.24,4.35A74.47,74.47,0,0,0,291.58,448c5.58,8.56,13.92,14,20.86,21,10.45,10.56,32.1,8.13,40.86-2.26,6.65-7.88,13.58-15.9,17.53-25.77,1.48-3.69,3.12-7.31,5.2-12.14,3.59,27-8.72,46.95-23.06,66.31,10.67,3.59,20.08,8.26,30.59,9.26Z"/><path class="cls-4" d="M130.56,477.31c2.28-2.76,4.51-5.64,6.95-8.16,3.16-3.25,1.36-4.25-1.28-5.56a30.66,30.66,0,0,1-4.4-2.09c-2.49-1.76-3.94-4.17-2.34-7.22s4.43-4.68,7.82-2.95,6.33,2.93,8.78-1.62c1.31-2.45,4-2.72,6.52-1.38s4.24,3.71,3.18,6.35c-1.5,3.78.42,4.83,3.21,6.15,3.52,1.66,4.31,4.59,2.91,8.2-.4,1.05-2.6,1.81-1,3.19,1.15,1,2.9.6,4.3.18,2.34-.71,3.2-2.53,3.19-4.92,0-5.61-.12-11.23,0-16.83.08-3.25-1.27-4.28-4.44-4.23-9.73.15-19.45,0-29.18,0-3.65,0-6.37-1.63-7.62-5-.92-2.52.62-4.67,2.55-5.9,1.56-1,3.72-1,5.62-1.52,10.48,1.38,21,.26,31.48.61,2,.06,3.95,0,5.92,0,5.41.11,7.21,2,7.38,7.52.11,3.76.24,7.53.36,11.29-.1,3.45-.56,6.93-.23,10.33,1.12,11.55-6.48,22.58-20.7,21.06-2.62.06-4.61-1.42-6.67-2.72-.7-3.68.38-6.69,4.41-9.18-3.38-.61-5.44-4.85-8.26-.69a85.92,85.92,0,0,0-4.39,8,18.35,18.35,0,0,0-2.38,1.66c-2.27,2.17-4.77,3.58-8,2.32S130.9,480.1,130.56,477.31Z"/><path class="cls-6" d="M159.57,484.82c14.22,1.52,21.82-9.51,20.7-21.06-.33-3.4.13-6.88.23-10.33q20.67,8.7,41.36,17.39c2.11.88,2.6,2.23,1.73,4.3a99.21,99.21,0,0,0-5.85,18.3c-.78,3.71-3.23,3.07-5.66,2.53-9.79-2.2-19.55-4.5-29.35-6.69-2.23-.5-4.53-.72-6.79-1.07-1.89-.79-3.55-2.42-5.88-1.57C166.66,485.48,163.22,484.53,159.57,484.82Z"/><path class="cls-4" d="M178.31,517.13c3.62,7,1.85,14.44,1.18,21.69-.14,1.59-2.11,2.93-4.43,3.2a42.43,42.43,0,0,1-44.52-26.47,35.09,35.09,0,0,0-1.81-3.43c-.49-3.55-1-7.09-1.44-10.64-.38-3.32.24-6.34,3.76-7.68s5.92.51,7.67,3.45c0,5.87.51,11.59,4.21,16.5,4,8.77,11.29,13.54,20.21,16.08,3.29.94,6,.39,5.27-4.21a12.77,12.77,0,0,1,2.21-9.21A12.24,12.24,0,0,1,178.31,517.13Z"/><path class="cls-4" d="M170.06,486.62c2.33-.85,4,.78,5.88,1.57a66.47,66.47,0,0,0,14.94,15.05c3.2,2.42,4.65,5.23,2.3,8.89-2,3.1-5.71,3.18-9.54.3a79.78,79.78,0,0,1-15.28-14.77C164.72,493,165.16,490.26,170.06,486.62Z"/><path class="cls-4" d="M125,511.86c-4.12,6.09-9.91,10.6-15.16,15.58-2.22,2.12-5.89,2.87-8.34-.13s-1.85-6,.64-8.84c2.32-2.66,5.68-4.39,7-7.9,2.06-.09,3.07-1.79,4.38-3,2.1-1.91,4-3.93,7.32-2.81C124.35,506,125,508.72,125,511.86Z"/><path class="cls-4" d="M142.61,502.2c2.54-3.62,5.77-3.85,9.51-2,3.55,1.71,7.17,3.27,10.74,4.93,6,2.79,6.67,4.43,4.49,10.74-4.88,2.34-9.14,0-13.47-1.78a52.3,52.3,0,0,0-6.12-3.08C143.5,509.43,141.8,506.6,142.61,502.2Z"/><path class="cls-6" d="M153.88,514.05c4.33,1.8,8.59,4.12,13.47,1.78l3.27.58a12.77,12.77,0,0,0-2.21,9.21c.72,4.6-2,5.15-5.27,4.21-8.92-2.54-16.19-7.31-20.21-16.08Z"/><path class="cls-6" d="M143,481.64c1.67-3.23,3.1-6.62,5.07-9.64,3.26-5,5.64.1,9.54.84-4.66,3-5.9,6.62-5.09,11.06C149.08,484.37,146,483.14,143,481.64Z"/><path class="cls-8" d="M383.56,504.44c-10.51-1-19.92-5.67-30.59-9.26,14.34-19.36,26.65-39.33,23.06-66.31-2.08,4.83-3.72,8.45-5.2,12.14-3.95,9.87-10.88,17.89-17.53,25.77-8.76,10.39-30.41,12.82-40.86,2.26-6.94-7-15.28-12.48-20.86-21a74.47,74.47,0,0,1-11.34-30.84,29.77,29.77,0,0,0-1.24-4.35c-.48-6.27-1-12.54-1.44-18.82-1.05-15.32,3.55-28.68,14-40,6.05-7.35,14.74-10.39,23-14.1,9.7-.53,19.26-.95,28.6,3.16,11.58,5.1,19.86,13.26,25.77,24.24,1,1.8.78,5.12,4.39,4.46-.6,12.42,2.21,24.51,4.17,36.61,1.2,7.37,2.33,7.19,9,2.62,16.56-2.06,31.76-8.64,47.22-14.34,2.4-1.48,1.26-3.93,1.38-5.89.42-6.93.44-13.88.79-20.82.09-1.9-.77-4.73,2.82-4.65,2.17,2.57,4.22,1.22,4.87-.91s2.62-3.29,3.36-5.25c4.7-3.91,4.09-6.74-1.16-9.92-3.44-2.09-7.6-3.85-9.35-8.1,0-1.76,0-3.52,0-5.29a17.47,17.47,0,0,1,2.34,1c9.27,5.76,13.53,4.94,20.09-3.83,1.14-1.52,1.76-3.51,3.72-4.33,3.77.53,2.54,3.54,2.57,5.65.14,10.48.4,21,0,31.43-.41,11.36,1.47,22.6,1.31,33.93-.16,12.29-5.68,19.82-17.38,23.74-6.6,2.22-13.07,4.81-19.71,6.85-3.22,1-6.46,2.48-10.15,1.06-3.11-1.21-6.33.08-8.57,2.06-5.59,4.93-12.43,6.72-19.2,9-8,2.67-9.43,6-6.19,14a23.94,23.94,0,0,1,1.43,5C386.17,475.73,387,490.24,383.56,504.44ZM343.69,396.22l-14.64.51c-5.43,0-10.86-.08-16.29,0-1.77,0-4.17-.76-4.57,2.25a45.58,45.58,0,0,1-6.46.46c-5.31-.33-7.61,1.77-6.68,7.21s2.29,10.67,2.19,16c-.12,6,2.28,6.69,7.35,6.05,9.22-1.17,18.51-1.77,27.77-2.6l4.83-.69c3.95-.28,8,.31,11.85-1,12.18-.52,12.18-.52,11.11-8.71l-1.33-5.17c0-4.13,0-8.27-.16-12.4-.06-1.73-.45-4.19-2.78-3.31C351.85,396.35,347.61,394.65,343.69,396.22Zm-5.79,43c-.1-1.05.73-5.44-3.54-4.11-3.8,1.2-11.09-2.37-10.85,6.37.14,5,1.95,7.7,7.3,7.69C336.64,449.19,338.4,446,337.9,439.25Z"/><path class="cls-7" d="M431.77,277.57c5.82-7.65,8.91-8.73,18.48-6.28l9.65,6.64,1.38.83,2,2.93c.33,1,.52,2.19,1.85,2.49l-.08-.09c.4,6.4-.13,12.47-4.4,17.82a168.16,168.16,0,0,0-11.88,16.29c-4.23,6.84-10,10.62-18,11-6.71-1.18-10.48-7.43-16.59-9.64-4.51-8.36-2.39-15.41,3.56-22.34,3.28-3.82,5.32-8.71,7.92-13.11C426.59,284.1,430.35,279.43,431.77,277.57Z"/><path class="cls-5" d="M386.5,411c-6.67,4.57-7.8,4.75-9-2.62-2-12.1-4.77-24.19-4.17-36.61,1.22-1.23,1.45-3.3,3.33-4,6,1.23,9.68,6.26,14.58,9.3L401.8,384c2.72,2,1.45,3.87-.1,6C396.56,396.91,391.56,404,386.5,411Z"/><path class="cls-10" d="M391.24,377.08c-4.9-3-8.53-8.07-14.58-9.3,7-3.57,9.39-11,14.12-16.5l2-2.35c1,5.1,4.41,8.78,7.46,12.67C398.07,367.24,391.83,370.52,391.24,377.08Z"/><path class="cls-11" d="M400.25,361.6c-3.05-3.89-6.45-7.57-7.46-12.67q3.69-5,7.36-10.06A21.43,21.43,0,0,1,411.26,347Z"/><path class="cls-11" d="M414.19,319.56c6.11,2.21,9.88,8.46,16.58,9.64a10.8,10.8,0,0,0,4.81,4.6l.89,2c0,1.77,0,3.53,0,5.29-9-3.69-16.25-10-23.89-15.74C409.81,323.33,413.39,321.47,414.19,319.56Z"/><path class="cls-1" d="M232.19,386.54c5.28,3.92,8,9.68,10.57,15.4,6,13.4,15.51,22.37,30.21,25.23,3.28.64,3.61,1.82,1.8,4.76-2.53,4.11-6.46,3.89-10.26,4.45-24.68,3.61-41.65-4-53.78-25.33-3.27-5.75-5.88-9.35-12.65-5.81-5.16-7.1-12.82-11.55-18.86-17.73-1.75-1.8-4.53-2.75-4.94-5.72,9.2-2.61,17.74-7.41,27.55-8,5.2-.32,10.3-.53,15,2.19,3,3.65,6.12,7.22,9,11C228.29,390.1,230.27,389.91,232.19,386.54Z"/><path class="cls-5" d="M459.9,277.93l-9.65-6.64c3.87-8.65,10.69-15.31,15.74-23.18,1.13-1.77,3-1.22,4.54,0q9.72,7.44,19.48,14.83c-4.84,8.56-12,15.58-16.41,24.4l-.37.05.11.36a3.14,3.14,0,0,0-.52.88c-3.9.74-4.35-4.49-7.81-4.52l.08.09c0-1.26-.44-2.25-1.85-2.49l-2-2.93c5.41.18,9.82-2.85,14.64-4.55,1.89-.66,2.47-2.23,2.45-4.15-.05-3.69,0-7.38,0-11.07,0-3.39-1.52-4.23-4.57-2.66a27,27,0,0,1-4.82,1.78c-5.46,1.63-8.37,4.88-7.93,10.94C461.23,272,461.74,275.16,459.9,277.93Z"/><path class="cls-6" d="M465,284.09c3.46,0,3.91,5.26,7.81,4.52a16.4,16.4,0,0,0,.64,11.14c.69,1.71,2.65,3.64.79,5.84-5.44.39-11,.54-11.72,7.91-2.8,3.81-5.89,7.45-8.35,11.48-4.34,7.12-10.62,9.64-18.6,8.82a10.8,10.8,0,0,1-4.81-4.6c8-.38,13.73-4.16,18-11a168.16,168.16,0,0,1,11.88-16.29C464.88,296.56,465.41,290.49,465,284.09Z"/><path class="cls-12" d="M473.34,287.73l-.11-.36.37-.05,0,.31Z"/><path class="cls-1" d="M383.56,504.44c3.48-14.2,2.61-28.71,3.2-43.12,5.95-1.83,11.93-3.56,17.83-5.52,2.75-.92,4.78-.89,6.48,1.91,2.56,4.22,5.44,8.24,8.18,12.34-7.48,3.75-4.93,10.4-4.72,16.36l.09.19c-9.15,4.69-16.86,11.53-25.49,17-1.77,1.12-3.13,3.15-5.63,2.89Z"/><path class="cls-7" d="M435.58,333.8c8,.82,14.26-1.7,18.6-8.82,2.46-4,5.55-7.67,8.35-11.48,7.44,5,2.57,10.11.09,15.19-2,.82-2.58,2.81-3.72,4.33-6.56,8.77-10.82,9.59-20.09,3.83a17.47,17.47,0,0,0-2.34-1C436.18,335.15,435.88,334.48,435.58,333.8Z"/><path class="cls-3" d="M232.19,386.54c-1.92,3.37-3.9,3.56-6.35.39-2.88-3.74-6-7.31-9-11C223.66,377,228.51,380.93,232.19,386.54Z"/><path class="cls-1" d="M423.48,354.45a41.18,41.18,0,0,1,11.62,8.25c-2.77,11.23-1,22.64-1.38,33.95-15.46,5.7-30.66,12.28-47.22,14.34,5.06-7,10.06-14.08,15.2-21,1.55-2.09,2.82-3.92.1-6C409.72,374.66,417.43,365.15,423.48,354.45Z"/><path class="cls-7" d="M332.36,426.1c-2.36.2-4.73.43-7.1.59-2.16.15-4.27-.51-4.12-2.95.29-4.81-3.31-6-7.19-7.68,9.55-2,18.28-4.57,28.06-2.94-5.4,2.74-5.9,7.25-4.82,12.29Z"/><path class="cls-5" d="M337.9,439.25c.5,6.76-1.26,9.94-7.09,9.95-5.35,0-7.16-2.65-7.3-7.69-.24-8.74,7.05-5.17,10.85-6.37C338.63,433.81,337.8,438.2,337.9,439.25Z"/><path class="cls-7" d="M433.72,396.65c.42-11.31-2.74-24.17,0-35.4.78.69,4.26,0,5,4-.7,2.36-2.73,2.75-2.82,4.65-.35,6.94-.37,13.89-.79,20.82C435,392.72,436.12,395.17,433.72,396.65Z"/><path class="cls-6" d="M446.94,359.13c-.74,2-2.68,3-3.36,5.25s-2.7,3.48-4.87.91c-5-4-10.93-8.69-15.23-10.84-3.5-3.43-6.71-7.33-12.22-7.45a21.32,21.32,0,0,0-11.11-8.12c-1.76-5.58-7.21-7.21-11.31-10.07-6.22-4.34-1.6-7.47.58-10.89,2.4-3.78,5.12-6.77,9.81-2.56,3.35,3,6.93,5.79,10.52,8.76-6.09,3.11-6.51,5.32-1.6,9,10.19,7.69,20.56,15.15,30.78,22.8,1.78,1.34,3.38,1.9,5.31.66C448.49,353.87,445.89,358.46,446.94,359.13Z"/><path class="cls-6" d="M332.36,426.1c-9.26.83-18.55,1.43-27.77,2.6-5.07.64-7.47-.07-7.35-6.05.1-5.31-1.29-10.67-2.19-16s1.37-7.54,6.68-7.21a45.34,45.34,0,0,0,6.45-.46c7.08.45,14.14.63,20.87-2.27l14.64-.51c4.25.25,9.46-.93,12.51,1.11,3.68,2.47.43,8.49,2.32,12.63.08.19.2.37.3.56.44,1.73.89,3.45,1.33,5.17-3.56,7.3-11.23,5.64-17.52,7.59,2.17,2.12,4.38,1,6.41,1.12-3.87,1.32-7.9.73-11.85,1-1.08-5-.58-9.55,4.82-12.29-9.78-1.63-18.51,1-28.06,2.94,3.88,1.71,7.48,2.87,7.19,7.68-.15,2.44,2,3.1,4.12,2.95C327.63,426.53,330,426.3,332.36,426.1Z"/><path class="cls-7" d="M349,424.4c-2-.13-4.24,1-6.41-1.12,6.29-1.95,14-.29,17.52-7.59C361.22,423.88,361.22,423.88,349,424.4Z"/><path class="cls-5" d="M329.05,396.73c-6.73,2.9-13.79,2.72-20.87,2.27.41-3,2.81-2.22,4.58-2.25C318.19,396.65,323.62,396.73,329.05,396.73Z"/><path class="cls-7" d="M358.82,410.52c-.1-.19-.22-.37-.3-.56-1.89-4.14,1.36-10.16-2.32-12.63-3.05-2-8.26-.86-12.51-1.11,3.92-1.57,8.16.13,12.19-1.41,2.33-.88,2.72,1.58,2.78,3.31C358.8,402.25,358.78,406.39,358.82,410.52Z"/><path class="cls-10" d="M459.9,277.93c1.84-2.77,1.33-5.94,1.12-8.88-.44-6.06,2.47-9.31,7.93-10.94a27,27,0,0,0,4.82-1.78c3.05-1.57,4.53-.73,4.57,2.66,0,3.69,0,7.38,0,11.07,0,1.92-.56,3.49-2.45,4.15-4.82,1.7-9.23,4.73-14.64,4.55Z"/><path class="cls-12" d="M463.24,281.69c1.41.24,1.81,1.23,1.85,2.49C463.76,283.88,463.57,282.73,463.24,281.69Z"/><path class="cls-4" d="M423.48,354.45c-6.05,10.7-13.76,20.21-21.68,29.55l-10.56-6.92c.59-6.56,6.83-9.84,9-15.48l11-14.61C416.77,347.12,420,351,423.48,354.45Z"/><path class="cls-3" d="M84.71,1081c15.8,0,140.41-1,151.48-1,3.73-17.08,84.81-373.9,88.62-391,1.39-6.23,1.48-6.06-4.54-7.84-5.1-1.51-10.13-3.31-15.11-5.17-2.26-.85-3.58-.54-4.56,1.79C294.76,691.68,84.25,1075.11,84.71,1081Z"/><path class="cls-3" d="M0,742c1,34,1,97,1,124,10.42-14,226.65-219.46,237.14-233.43,3.83-5.11,3.84-4.92-.92-9-4-3.48-7.86-7.2-11.64-11-1.71-1.71-3-2-4.9-.25C209.67,622.55,2,736.44,0,742Z"/><path class="cls-3" d="M1,922c0,40,0,138,1,152,6.79-16.11,263.06-393.61,269.91-409.69,2.51-5.88,2.57-5.69-3-8.55-4.74-2.42-9.35-5.11-13.92-7.86-2.06-1.24-3.42-1.18-4.81.94C241.88,661.4,1.62,916.13,1,922Z"/><path class="cls-2" d="M257.59,932.89a164.68,164.68,0,0,1-17.89-9.58c-13.88-8.48-23.88-22.27-27.24-45.74-2.56-17.83-10.92-26.9-22.07-31-7.58-2.77-14.83,0-21.83,3.77-3.62,1.93-5.06,1.67-6.55-4.15-7.7-30.14-23.68-46.14-44.75-47-10.05-.4-19.11,2.81-27.74,10.36-8.12,7.1-16.62,10-26.22,7.35-9-2.53-15.44-8.59-19.39-21.3-2.87-9.2-5.58-18.5-9.52-26.94-8.49-18.2-20-27.29-34.39-28.94V593c1.89,1.15,3.8,2.2,5.65,3.46,6,4.06,10.39,11.5,15.67,17.09,5.9,10.21,11.75,20.61,14.61,33.73,1.49,6.83,3.2,7.51,7.39,4.67,18.94-12.81,37.44-11.45,55.19,5.48,6.39,6.35,12.65,13,17.19,22.55,2.47,5.23,5.46,7.35,9.84,7,5.89-.45,11.89-1.25,17.69,1.52,10.51,4.22,18.29,13.7,23.8,28,1.66,4.29,4.14,7.85,6.24,11.75q13.75,19.34,31.88,26.43c2.56.07,5.22.81,7.68.05,3.22-1,6.72-2.72,6.45-9.4-.25-6.22,1.28-11.77,2.26-17.54,1-.2,1.68-.81,2-2.43,1.94-9.46,7.52-15.36,12.41-17.77,9.9-4.86,20.52-3.06,28.4,8.75,4.29,6.43,8.41,8,14.06,8.33,17.35.85,30.31,27.52,28.35,53.78-.56,7.39-1.38,14.87,1.53,22.21,5.43,13.76,13.06,22.76,23,27.63h0c-3,3.24-6.28,2.33-9.44.8-7.08-3.44-14.13-7.1-21.19-10.67l-11.52-5.64c3.18,7.44,2.26,6.14,6.9,14.58.26,1,3.64,4.12,4.13,4.63,9.82,10.18,19.16,21.54,30.23,28.62,13.16,7.5,26.59,11.28,40.61,6.93,11.61,1,63.15-14.78,74.05-23.69,7.42-5.2,12.47-12.58,13.58-20.49-1.94,2.15-4.22,2.49-5.72,4-4.84,4.88-10.83,4.8-15.67,9.32-5,.85-9.88,3.29-16,2.09L440.45,825c11.62-6.82,19.88-19.34,25.86-35.68,9-16.35,19.87-26.26,34.39-24.19,11.6.56,23,4.8,34.71,3.77,5.54-.5,10.58-3.58,15.84-5.48,7.24-4.81,13.13-12.53,18.92-20.46,7-9.53,14.71-16.12,24.44-15.45.66-.36,1.79-.51,1.92-1.12,4-19.6,14.78-26.26,25.88-33.08,8.35-5.13,16.84-1.76,25.21-3.23,6.69.14,13.39.5,20.09.35,11.26-.24,20.31-7.77,27.92-20.09,1.49-2.42,2-6.24,4.37-7.37v83.62c-3.18-1.05-5.89-3.84-8.23-6.83-13.09-16.81-35.28-.21-38.53,20.67-1.14,7.34-3.17,8.48-7.63,6.73-7.85-3.07-15.47.13-22.76,4.4-5.33,3.11-7.66,10.35-8.87,18.45-1.73,11.58-2.83,23.38-5.71,34.55-4.21,16.31-15.13,28.26-25.63,27.89-5.36-.19-9.88-3.62-13.35-9.3-15-24.47-38.59-12.53-46.3,13.19-3.83,12.78-6.57,26.55-13.48,36.95-11.65,17.56-37.89,35.33-53.29,41.72"/><path class="cls-5" d="M194.79,621.85c.81-3.5,3-6.24,5-9.06,15.9-22,31.73-44.11,47.74-66,2.64-3.61,3.66-6.65,1.85-11.17-2.42-6-4.48-11.76-9.42-16.63-6.12-6.05-7.24-14-3.8-22.26,1,5.11,5,8,8.46,11.16,24.22,21.49,48.6,42.81,72.79,64.34,8.41,7.48,23.44,7.31,30.31,1.73,3-2.46,6.25-4.71,9.46-6.93Q393.58,541.7,430,516.53c3-2.09,2.93-3.59,1-6.59-4.12-6.28-9.36-11.82-12.51-18.74,6.56-4.62,13-9.48,19.72-13.82,7.21-4.64,11.94-3.32,16.44,3.69q4.72,7.35,9.8,14.46c5.82,8.13,5.14,10.59-3.12,15.93-6.46,4.17-14.14,6.44-19.43,12.42l-50.68,35.34c-8.38,5.85-8.47,6.15-4.82,15.75-9.16,4.65-15.58,13-24.49,18-6.38,3.58-12,8.71-19.13,10.71-7.91,2.24-16.05,3.68-24.12,5.31a5.52,5.52,0,0,0-3.53,2.51c-6.91,9.12-6.69,33.45,1.33,41.33,3.06,3,3.84,6.3,3.38,10.58a32.6,32.6,0,0,0,4.87,21.85c7,10.76,7.08,10.8,6.7,23.76-.31,10.16,6,17.36,10.79,25.22,1.76,2.89,2.36,7.42,7.49,7s9.83-1.15,14.14-4.2c9.21-6.5,12.93-15.42,12.32-26.43,3.95,10.36,5.95,21.28,9.08,31.87,2.43,8.24,4.51,16.3,9.6,23.83,6.94,10.28,12,21.91,17.35,33.18,5.47,11.46-3.29,25.94-16.08,27.06-2.59.22-5.22-.06-7.83-.1-9.75-3.42-13.11-12.28-17.45-20.36-7.72-14.35-13.72-29.69-24.32-42.39-1.33-2.48-2.51-5.05-4-7.42-25.63-40.39-47.38-82.62-61.76-128.44-4.94-15.73-10.72-31.2-16.33-47.41-1.74,2.3-3,4-4.34,5.72-14.52,18.33-25.77,39.16-42.6,55.71-4-.8-8.13.64-12.13-1.06C196.81,637.19,194.45,630.31,194.79,621.85Z"/></g></g></svg>