<svg xmlns="http://www.w3.org/2000/svg" viewBox="0 0 443.59 415.2"><defs><style>.cls-1{fill:#fdfdfd;}.cls-2{fill:#313638;}.cls-3{fill:#e4b363;}.cls-4{fill:#43595e;}.cls-5{fill:#d1d1d1;}.cls-6{fill:#434a4c;}.cls-7{fill:#0e4740;}.cls-8{fill:#102d42;}.cls-9{fill:#f7f7f7;}</style></defs><g id="Layer_2" data-name="Layer 2"><g id="Website"><g id="skills-set-home"><path class="cls-1" d="M293.23,385.58c8.58-4.28,15.34-10.76,21.83-17.59a6.25,6.25,0,0,0,.82-1.79l.29-.39-.38.3c-3.14.41-5.67,2.32-8.44,3.59-14.67,6.69-30.09,10.49-46,12.67-12.62,1.73-25.23,3.37-38,3.21-24.16-.32-46.72-6.1-67.09-19.45-1.57-1-3.13-2.09-4.71-3.09s-2.91-2.39-5.8-3.1a56.9,56.9,0,0,0,22.68,23.75"/><path class="cls-2" d="M292.39,36.14c2.14.24,2.29,1.69,2.31,3.46.08,9.13.24,18.25.38,27.38.06,3.88.11,7.75.17,11.62,0,10,1.14,20-.26,29.92a15.29,15.29,0,0,1-10.54,9c-4.09,1.15-8.1,2.6-12.15,3.91-4.72,1.52-4.72,1.51-1.48,5.64a4,4,0,0,1,.4,3.79c-1.3,2.68-9.77,7.12-12.73,6.68-1.69-2.53-3.47-5-5-7.61-1-1.73-2.3-1.75-4-1.18-3.64,1.21-7.33,2.28-11,3.4a15.14,15.14,0,0,0-.88-3.05c-2-4.91-1.13-7,3.81-8.62,4.18-1.39,8.4-2.49,11.84-5.53a5.21,5.21,0,0,1,5.29-1.27c2.27.88,4.27-.05,6.25-.66,4.1-1.26,8.09-2.85,12.15-4.22,7.22-2.42,10.62-7.06,10.72-14.64.1-7-1.06-13.91-.81-20.92.23-6.45.07-12.91,0-19.37,0-1.31.75-3.16-1.58-3.49,1.53-3.13,4.53-6.27-.05-9.37C285.61,36.47,289.05,36.38,292.39,36.14Z"/><path class="cls-3" d="M370.33,162.77c-.07-4-.1-7.94-.23-11.91-.13-3.56-1.28-4.65-4.81-4.69s-7.33,0-11,0c-2.51,0-1.81-.92-.62-2,1.53-3.07,4.23-1.09,6.38-1.48,1.23-.07,2.46-.22,3.69-.19,2.32.06,4.59.13,6.14-2-.25-4.72-.9-5.47-4.89-5.54-5.69-.1-5.61-.09-4.36-5.64.38-1.66.81-3.48-.74-5a3.52,3.52,0,0,0-3.81-.72c-2.25.71-2.37,3-2.9,4.87-1.48,5-3.34,6.69-7.56,6.54-1.58,0-2.76-.37-2.67-2.24.08-1.68.39-3.17,2.62-3.08a17.93,17.93,0,0,0,2.83-.18c2.59-.29,3.43-2.24,3.35-4.34s-1.65-3-3.72-3c-1.26,0-2.53-.09-3.81-.14-1.53.15-1.47-1.21-2-2-1.56-2.35-5.24-2.55-6.21,0-.92,2.37-2.38,2.21-4.14,2.13s-3.39.25-4.26,2a3.73,3.73,0,0,0,1,4.58,7.27,7.27,0,0,0,3.92,1c2-.24,3,.35,3,2.72,0,2.59-1.34,2.64-3.18,2.58s-3.8,0-5.7,0c-2.51,0-5.17,2.05-4.81,3.89.47,2.34,1.92,3.9,4.65,3.68,1.15-.1,2.32,0,3.48,0,2.64,0,5.45-.51,7,2.49,1.86-.3,4.24,1.09,5.25-2,.3-.89,1.84-.62,3.1,0a15.14,15.14,0,0,1-5.37,5.1l-5.31,3.17c-2.09,1.4-2.84,3.24-1.53,5.39s3.17,2.11,5.28,1.11c1.19-.57,2.15-1.66,4-1.74v9.17l.18.33c1.17,3.19.22,6.5.55,9.74.73,2.34,2.65,1.69,4.13,1.39,2.17-.44,2.28-2.38,2.37-4.18.77-1.54,2.2-.86,3.31-.85,3,0,6-.43,8.93.27a15.09,15.09,0,0,1,1.28,2.85c.36,1.54,1.31,2,2.73,2.06,2.39.12,3.76-.8,4-3.33C370.19,169.91,369.27,166.29,370.33,162.77Zm-19.67,1.88c-.54,0-1.08-.22-1-.88a1,1,0,0,1,1.12-.87c3.72,0,7.44,0,11.16,0,0,.4,0,.8,0,1.2C358.21,164.28,354.43,164.49,350.66,164.65Zm11.3-8.83a25.55,25.55,0,0,1-11.89,0c0-.22-.05-.44-.07-.66-.52-1.54.6-1.48,1.52-1.47,3.53.05,7.05.14,10.58.22C363.17,154.61,362.59,155.22,362,155.82Z"/><path class="cls-2" d="M220.93,242.86c6.25-1,9.07,3.45,12,7.6,4.94,6.94,8.29,15,14.53,21,8.74,8.43,21.88,6.28,27.14-4.28,1.23-2.47.66-5,.79-7.5,4.06,8.31,2.7,16.24-4.11,22.09-1.76,1.51-2,2.43-1,4.56a12.76,12.76,0,0,1-21.78,12.93c-4.82-6.29-9.41-12.76-13.87-19.31a11.73,11.73,0,0,1-.5-13,3.68,3.68,0,0,0-.25-4.66c-2.43-3.29-4.7-6.7-7-10.06C225.43,248.8,222.82,246.05,220.93,242.86Z"/><path class="cls-2" d="M294.54,160.37c1.14,2.52,3.78,4.3,3.2,7.72,3.2-1.2,5.21-3.23,7.54-4.77,6.79-4.47,14.24-2.1,16.8,5.55,2.34,7,4.45,14,6.13,21.33-2.94-4.1-5.91-8.18-8.79-12.32-2.19-3.13-5-4.75-8.9-4.29-3,.35-4.33,1.17-2.6,4.6,6.58,13,12.9,26.18,19.3,39.3.64,1.31,1.58,2.52,1.57,4.08l.06,0c-1.31.81-2-.67-3-.84a17.76,17.76,0,0,0-2.26-4.21c-9.41-13.37-20.75-25.51-30.21-38.85-1.57-2.21-1.85-1.85-3.6-3.14-.58.58-2,.31-3.07.43-2.87-.77-3.59-3.63-5.34-5.48C284.9,165.17,290.33,163.66,294.54,160.37Z"/><path class="cls-4" d="M286.72,174.93c1-.12,2.49.15,3.07-.43,3.18-3.17,4.35-.52,5.92,1.7,9.46,13.34,19,26.62,28.41,40,.89,1.27,2.81,2.4,1.74,4.52-10.26-10.21-20.49-20.45-30.82-30.57-1.28-1.25-2.4-4.2-4.66-2.63a6.56,6.56,0,0,0-2.3,7.22c1.18,4.4,4.73,7.39,7,11.14,1,1.69,2.6,3.06,3.13,5.07a1.84,1.84,0,0,1-.43.3c-7.28-3.82-13.66-9-19.67-14.41-4.49-4.08-3.48-10.46.94-15.1C281.43,179.22,285.38,178.55,286.72,174.93Z"/><path class="cls-3" d="M294.54,160.37c-4.21,3.29-9.64,4.8-13.16,9.08-3,.34-5.77,2.08-8.92,1.27,3.26-3.68,8-5.08,12-7.65,5.09-3.3,5.51-4.81,1.92-9.82q-3.14-4.38-6-8.92c-2.77-4.32-5.69-5.13-10.13-2.27-4.16,2.68-8.12,5.67-12.16,8.52-.8-1-1.6-1.89-2.39-2.84l-.06-.11a10,10,0,0,1,1.7-2.13c4.48-3.23,8.85-6.67,13.61-9.45,4.91-2.85,6.69-2.38,10.42,1.75a60,60,0,0,1,4.58,6.41c5,7.3,5,7.3,10.51,5.8C298,153.85,297.72,157.38,294.54,160.37Z"/><path class="cls-2" d="M296.4,150c-5.5,1.5-5.49,1.5-10.51-5.8a60,60,0,0,0-4.58-6.41c-3.73-4.13-5.51-4.6-10.42-1.75-4.76,2.78-9.13,6.22-13.61,9.45a10,10,0,0,0-1.7,2.13c-.13-3.68-1.7-7.78,2.91-10.1,3,.45,11.43-4,12.73-6.67a4,4,0,0,0-.4-3.79c8.79-.81,14.64,3,18.32,11C291.07,142.28,294,146,296.4,150Z"/><path class="cls-3" d="M231.92,285.87c.38,6.79-1.91,12.29-7.59,16.3-2.66,1.87-5.62,2.33-8.72,2.58s-3.54-2.54-4.62-4.32c-3-4.85-6.84-9.28-6.66-15.55.24-8,.18-8-4.12-14.65a20.09,20.09,0,0,1-3-13.47,7.17,7.17,0,0,0-2.08-6.52c-4.94-4.86-5.08-19.86-.82-25.49a3.41,3.41,0,0,1,2.18-1.54c5-1,10-1.9,14.87-3.27,4.39-1.24,7.86-4.4,11.79-6.61,5.5-3.08,9.46-8.24,15.1-11.1,9.72,14.83,19.49,29.64,29.15,44.51,2.76,4.27,5.95,8.28,8,13-.13,2.51.44,5-.79,7.5-5.26,10.56-18.4,12.71-27.14,4.28-6.24-6-9.59-14.09-14.53-21-3-4.15-5.78-8.62-12-7.6a35.87,35.87,0,0,0,2.74,10.38Z"/><path class="cls-5" d="M298.22,210.93c.43.32.89.86.35,1.17s-.64-.44-.78-.87A1.84,1.84,0,0,0,298.22,210.93Z"/><path class="cls-5" d="M315.79,366.11l.38-.3-.29.39Z"/><path class="cls-3" d="M255.64,147.74c.79.95,1.59,1.89,2.39,2.84,1.94,4.27,5.17,7.68,7.71,11.55,1.21,1.85,1.28,2.77-.6,4.06q-22.5,15.5-44.92,31.11c-2,1.37-4,2.75-5.82,4.27-4.24,3.44-13.51,3.55-18.69-1.06-14.92-13.28-30-26.42-44.88-39.68-2.17-1.92-4.62-3.73-5.22-6.88.28-7,4.39-12.17,8.14-17.57,2.67-3.84,5.69-7.46,7.78-11.7,1.93.22,1.95,1.84,2.49,3.21,4.93,12.6,12.85,22.66,24.59,29.77,8.66,5.25,18,8.74,27.48,11.94,2.41.8,5,1.55,7.33-.14,4.37-3.12,8.69-6.3,13-9.46,1.54.16,2.38-1.09,3.47-1.78C245.24,154.85,250,150.63,255.64,147.74Z"/><path class="cls-2" d="M115.08,106.05c-2.39-2.81-1.07-4,1.35-5.22,2-1,4.17-1.51,5.7-3.25,4.17-2.18,5.78,0,7.8,3.58,7.48,13.14,17.94,17.85,33.15,15.62,2.35-.35,4.77-.21,6.33-2.74,1.12-1.82.91-2.55-1.11-2.94-9.06-1.76-14.93-7.29-18.62-15.56-1.58-3.52-3.27-7.07-6.52-9.49-2.27-3.46-5.26-5.87-9.47-6.52-2.9-1.67-6-1.55-9.25-1.35-6,.37-11.32,3.33-17,4.94l-.08-.24c-1.61-3.37-3.06-6.82-4.86-10.08-1.25-2.26-.54-3.24,1.51-4.28a49.28,49.28,0,0,1,15.28-4.46c6,.5,12,.11,17.87,2.39,6.72,2.63,11.72,7.19,16,12.79l7.54,14c2.49,4.62,5.64,8.4,11.33,9a18.48,18.48,0,0,1,.76,2.68,45.79,45.79,0,0,0,7,19c3.43,5.28,8.58,8.65,12.85,13,6.45,6.52,19.8,5,25.2-1.39,4.1-4.86,8.37-9.8,10.81-15.89.91-2.27,1.92-4.5,3.2-7.49,2.21,16.64-5.37,29-14.21,40.89,6.58,2.21,12.37,5.09,18.86,5.71l0,1.26c-4.34,3.16-8.66,6.34-13,9.46-2.37,1.69-4.92.94-7.33.14-9.49-3.2-18.82-6.69-27.48-11.94C176.87,150.55,169,140.49,164,127.89c-.54-1.37-.56-3-2.49-3.21-3.58.36-7.16.76-10.74,1.07-11.52,1-20.78-3.58-28.7-11.57"/><path class="cls-3" d="M80.49,142c1.41-1.7,2.79-3.48,4.29-5,2-2,.84-2.62-.79-3.43a19.22,19.22,0,0,1-2.71-1.28c-1.54-1.09-2.43-2.57-1.44-4.46s2.73-2.88,4.82-1.82,3.9,1.81,5.41-1c.81-1.5,2.47-1.67,4-.84s2.61,2.28,2,3.91c-.92,2.33.26,3,2,3.79,2.17,1,2.66,2.83,1.8,5.06-.25.65-1.61,1.11-.62,2,.72.61,1.8.36,2.66.1a2.77,2.77,0,0,0,2-3c0-3.46-.07-6.92,0-10.38,0-2-.78-2.63-2.73-2.6-6,.09-12,0-18,0a4.6,4.6,0,0,1-4.7-3.1A3.07,3.07,0,0,1,80,116.25a11.9,11.9,0,0,1,3.47-.94c6.46.85,12.94.16,19.41.37,1.21,0,2.43,0,3.64,0,3.34.07,4.45,1.21,4.55,4.64q.1,3.48.23,7c-.06,2.12.1,4.47.22,6.58.62,11.1-4.36,13.71-13.13,12.77-1.61,0-2.84-.87-4.11-1.67-.43-2.27.23-4.13,2.72-5.66-2.08-.38-3.35-3-5.1-.43-1,1.54-1.81,3.28-2.7,4.93a11.72,11.72,0,0,0-1.47,1c-1.4,1.34-2.94,2.21-4.91,1.43S80.71,143.74,80.49,142Z"/><path class="cls-3" d="M109.94,166.57c2.23,4.33,1.14,8.9.73,13.36-.09,1-1.3,1.81-2.74,2a26.15,26.15,0,0,1-27.44-16.32c-.3-.74-.75-1.41-1.12-2.12-.3-2.18-.64-4.36-.89-6.56-.23-2,.15-3.9,2.32-4.73s3.65.32,4.73,2.13c0,3.62.31,7.14,2.59,10.17,2.48,5.41,7,8.35,12.46,9.92,2,.57,3.7.23,3.26-2.6a7.83,7.83,0,0,1,1.36-5.68A7.57,7.57,0,0,1,109.94,166.57Z"/><path class="cls-3" d="M104.85,147.76c1.44-.53,2.46.47,3.63,1a41,41,0,0,0,9.21,9.28c2,1.49,2.87,3.23,1.41,5.48-1.22,1.91-3.52,2-5.88.19a49.57,49.57,0,0,1-9.42-9.11C101.56,151.68,101.83,150,104.85,147.76Z"/><path class="cls-3" d="M70,160.68c1.3-1.17,2.49-2.42,4.52-1.73s2.52,2.43,2.54,4.36c-2.53,3.76-6.11,6.54-9.34,9.61-1.37,1.31-3.63,1.77-5.14-.08s-1.14-3.69.39-5.45"/><path class="cls-3" d="M87.93,157.36c1.57-2.23,3.55-2.37,5.86-1.26s4.42,2,6.62,3c3.7,1.72,4.11,2.73,2.77,6.63-3,1.44-5.64,0-8.31-1.11a35,35,0,0,0-3.77-1.9C88.48,161.82,87.43,160.07,87.93,157.36Z"/><path class="cls-2" d="M255.78,46.32s-6.36,2.32-6.78,3.08c-.2.36.58,1.45.77,1.82,3.15,5.9,15,13.77,21.26,16.27.49.19,1.49,1.08,2,1s1.35-.61,1.85-.61c.17,0-.09.46,0,.61a8.87,8.87,0,0,0,1.23,1.24,23.75,23.75,0,0,0,1.32-3,3.28,3.28,0,0,0-.09-1.94c-1.16-1.79-5.84-3.41-7.19-5.07-.3-.36-.48-1.38-.82-1.71a16.32,16.32,0,0,0-3.09-1.85C262.53,54.47,255.78,46.32,255.78,46.32Z"/><path class="cls-3" d="M236.49,158.74c-6.49-.62-12.28-3.5-18.86-5.71,8.84-11.93,16.42-24.25,14.21-40.89-1.28,3-2.29,5.22-3.2,7.49-2.44,6.09-6.71,11-10.81,15.89-5.4,6.41-18.75,7.91-25.2,1.39-4.27-4.32-9.42-7.69-12.85-13a45.79,45.79,0,0,1-7-19,18.48,18.48,0,0,0-.76-2.68c-.3-3.87-.62-7.74-.89-11.61A31.75,31.75,0,0,1,179.75,66c3.74-4.53,9.09-6.4,14.2-8.68,6-.33,11.88-.59,17.63,1.94a32.41,32.41,0,0,1,15.89,14.95c.59,1.11.48,3.16,2.71,2.75-.37,7.65,1.36,15.11,2.57,22.57.74,4.54,1.43,4.43,5.55,1.61,10.21-1.27,19.58-5.32,29.11-8.84,1.48-.91.78-2.42.85-3.63.26-4.27.27-8.56.49-12.83.05-1.18-.47-2.92,1.74-2.88,1.33,1.59,2.6.76,3-.55s1.61-2,2.07-3.24c2.9-2.41,2.53-4.16-.71-6.12-2.12-1.28-4.69-2.37-5.77-5l0-3.26a11.61,11.61,0,0,1,1.44.63c5.71,3.56,8.34,3.05,12.39-2.36.7-.94,1.08-2.16,2.29-2.67,2.33.33,1.57,2.18,1.58,3.49.09,6.46.25,12.92,0,19.37-.25,7,.91,13.94.81,20.92-.1,7.58-3.5,12.22-10.72,14.64-4.06,1.37-8.05,3-12.15,4.22-2,.61-4,1.54-6.25.66a5.21,5.21,0,0,0-5.29,1.27c-3.44,3-7.66,4.14-11.84,5.53-4.94,1.64-5.81,3.71-3.81,8.62a15.14,15.14,0,0,1,.88,3.05C238.1,141,238.63,150,236.49,158.74ZM211.91,92l-9,.32c-3.34,0-6.69,0-10,0-1.09,0-2.57-.46-2.82,1.39a28,28,0,0,1-4,.29c-3.27-.21-4.69,1.09-4.12,4.44s1.42,6.58,1.35,9.85c-.07,3.69,1.41,4.13,4.54,3.73,5.68-.72,11.41-1.09,17.12-1.6l3-.43c2.44-.17,4.93.2,7.31-.62,7.51-.32,7.51-.32,6.85-5.37l-.82-3.18c0-2.55,0-5.1-.1-7.65,0-1.07-.28-2.59-1.71-2C216.93,92.1,214.32,91.05,211.91,92Zm-3.57,26.54c-.07-.65.44-3.36-2.19-2.53-2.34.73-6.83-1.47-6.69,3.92.09,3.11,1.2,4.75,4.5,4.74C207.56,124.67,208.64,122.71,208.34,118.55Z"/><path class="cls-3" d="M266.21,18.86c3.59-4.71,5.49-5.38,11.39-3.87l5.95,4.09.85.51c.4.61.81,1.21,1.21,1.81,1,.87,1,.87,1.14,1.54l-.05-.06c.25,3.95-.08,7.69-2.71,11a102.13,102.13,0,0,0-7.32,10c-2.61,4.22-6.14,6.55-11.07,6.79-4.14-.73-6.46-4.58-10.23-6-2.78-5.15-1.48-9.5,2.19-13.77,2-2.36,3.28-5.37,4.89-8.09C263,22.89,265.33,20,266.21,18.86Z"/><path class="cls-2" d="M238.3,101.12c-4.12,2.82-4.81,2.93-5.55-1.61-1.21-7.46-2.94-14.92-2.57-22.57.75-.77.89-2,2-2.46,3.73.76,6,3.86,9,5.74l6.51,4.26c1.67,1.26.89,2.39-.06,3.68C244.5,92.44,241.41,96.79,238.3,101.12Z"/><path class="cls-6" d="M253.93,62.35a12.64,12.64,0,0,0-7.21-5.69l-4.54,6.2c-.42.48-.83,1-1.24,1.45-2.92,3.37-4.42,8-8.71,10.17,3.73.76,5.67,3.9,10,6.36"/><path class="cls-6" d="M255.37,44.75c3.77,1.37,6.09,5.22,10.22,6a6.66,6.66,0,0,0,3,2.83l.55,1.25,0,3.26c-5.53-2.28-10-6.19-14.73-9.7C252.67,47.08,254.88,45.93,255.37,44.75Z"/><path class="cls-2" d="M291.84,25.13a1.64,1.64,0,0,0-.32.54c-2.4.45-2.68-2.77-4.82-2.79l.05.06c0-.78-.76-.67-1.14-1.54-.4-.6-.81-1.2-1.21-1.81,3.34.12,6.06-1.75,9-2.8a2.36,2.36,0,0,0,1.51-2.56c0-2.27,0-4.55,0-6.82,0-2.09-.93-2.61-2.81-1.64a17.15,17.15,0,0,1-3,1.1c-3.36,1-5.16,3-4.89,6.74.13,1.81.45,3.77-.69,5.47L277.6,15C280,9.66,284.2,5.55,287.3.7c.7-1.09,1.84-.75,2.8,0l12,9.14c-3,5.28-7.37,9.61-10.11,15.05"/><path class="cls-2" d="M286.7,22.88c2.14,0,2.42,3.24,4.82,2.79a10.11,10.11,0,0,0,.39,6.87c.43,1.06,1.64,2.24.49,3.6-3.35.24-6.79.33-7.22,4.87-1.73,2.36-3.64,4.6-5.15,7.08-2.68,4.39-6.55,5.95-11.47,5.44a6.66,6.66,0,0,1-3-2.83c4.94-.24,8.47-2.57,11.08-6.79a102.13,102.13,0,0,1,7.32-10C286.62,30.57,287,26.83,286.7,22.88Z"/><path class="cls-4" d="M268.56,53.53c4.92.51,8.79-1.05,11.47-5.44,1.51-2.48,3.42-4.72,5.15-7.08,4.58,3.1,1.58,6.24.05,9.37-1.21.51-1.59,1.73-2.29,2.67-4.05,5.41-6.68,5.92-12.39,2.36a11.61,11.61,0,0,0-1.44-.63C268.92,54.36,268.74,54,268.56,53.53Z"/><path class="cls-5" d="M204.92,110.44c-1.46.12-2.92.26-4.38.36s-2.63-.31-2.54-1.81c.18-3-2-3.69-4.43-4.74,5.89-1.22,11.27-2.82,17.29-1.81-3.32,1.69-3.63,4.46-3,7.57Z"/><path class="cls-7" d="M208.34,118.55c.3,4.16-.78,6.12-4.38,6.13-3.3,0-4.41-1.63-4.5-4.74-.14-5.39,4.35-3.19,6.69-3.92C208.78,115.19,208.27,117.9,208.34,118.55Z"/><path class="cls-6" d="M275.56,69.15c-.46,1.21-1.65,1.87-2.07,3.24s-1.67,2.14-3,.56a62.55,62.55,0,0,0-9.39-6.69c-2.16-2.11-4.14-4.51-7.54-4.59a13.16,13.16,0,0,0-6.85-5c-1.08-3.44-4.44-4.44-7-6.2-3.83-2.68-1-4.61.36-6.72,1.48-2.33,3.16-4.17,6-1.58,2.07,1.86,4.28,3.57,6.49,5.4-3.75,1.92-4,3.28-1,5.57,6.29,4.74,12.68,9.34,19,14.06,1.1.83,2.09,1.17,3.27.41C276.52,65.91,274.91,68.74,275.56,69.15Z"/><path class="cls-4" d="M204.92,110.44c-5.71.51-11.44.88-17.12,1.6-3.13.4-4.61,0-4.54-3.73.07-3.27-.79-6.57-1.35-9.85s.85-4.65,4.12-4.44a28,28,0,0,0,4-.29c4.37.28,8.72.39,12.86-1.4l9-.32c2.62.16,5.83-.57,7.7.69,2.27,1.53.27,5.23,1.43,7.79l.19.35c.27,1.06.55,2.12.82,3.18-2.2,4.5-6.92,3.48-10.8,4.68,1.34,1.31,2.7.61,3.95.69-2.38.82-4.87.45-7.31.62-.66-3.11-.35-5.88,3-7.57-6-1-11.4.59-17.29,1.81,2.39,1,4.61,1.77,4.43,4.74-.09,1.5,1.2,1.9,2.54,1.81S203.46,110.56,204.92,110.44Z"/><path class="cls-5" d="M215.2,109.39c-1.25-.08-2.61.62-3.95-.69,3.88-1.2,8.6-.18,10.8-4.68C222.71,109.07,222.71,109.07,215.2,109.39Z"/><path class="cls-8" d="M202.87,92.33c-4.14,1.79-8.49,1.68-12.86,1.4.25-1.85,1.73-1.37,2.82-1.39C196.18,92.28,199.53,92.33,202.87,92.33Z"/><path class="cls-5" d="M221.23,100.84l-.19-.35c-1.16-2.56.84-6.26-1.43-7.79-1.87-1.26-5.08-.53-7.7-.69,2.41-1,5,.09,7.51-.86,1.43-.55,1.68,1,1.71,2C221.22,95.74,221.2,98.29,221.23,100.84Z"/><path class="cls-4" d="M283.55,19.08c1.14-1.7.82-3.66.69-5.47-.27-3.74,1.53-5.74,4.89-6.74a17.15,17.15,0,0,0,3-1.1c1.88-1,2.79-.45,2.81,1.64,0,2.27,0,4.55,0,6.82a2.36,2.36,0,0,1-1.51,2.56c-3,1.05-5.69,2.92-9,2.8Z"/><path class="cls-4" d="M261.1,66.26c-3.73,6.6-8.48,12.46-13.37,18.22l-6.51-4.26c.36-4,3.46-6.16,5.55-9.55l6.79-9C257,61.75,258.94,64.15,261.1,66.26Z"/><path class="cls-4" d="M134.07,243.48c-2.89,6.65-11.31,12.41-16.57,9.78-5.61-2.8-7.09-8.6-5.94-10.71,2.29-4.21,4.78-8.3,8.54-11.42,4.36,3.24.34,3.46,5.59,5.7C128.16,237.88,133.71,239.91,134.07,243.48Z"/><path class="cls-2" d="M120.1,231.13c.5-2.16,1.84-3.85,3.09-5.58,9.8-13.59,19.56-27.2,29.43-40.73,1.63-2.23,2.26-4.1,1.14-6.89-1.49-3.72-2.76-7.25-5.81-10.25-3.77-3.73-4.46-8.65-2.34-13.73.6,3.15,3,5,5.22,6.88,14.93,13.26,30,26.4,44.88,39.68,5.18,4.61,14.45,4.5,18.69,1.06,1.86-1.52,3.85-2.9,5.82-4.27q22.44-15.59,44.92-31.11c1.88-1.29,1.81-2.21.6-4.06-2.54-3.87-5.77-7.28-7.71-11.55,4-2.85,8-5.84,12.16-8.52,4.44-2.86,7.36-2.05,10.13,2.27q2.91,4.53,6,8.92c3.59,5,3.17,6.52-1.92,9.82-4,2.57-8.72,4-12,7.65l-31.25,21.79c-5.16,3.61-5.22,3.8-3,9.72-5.64,2.86-9.6,8-15.1,11.1-3.93,2.21-7.4,5.37-11.79,6.61-4.88,1.37-9.9,2.26-14.87,3.27a3.41,3.41,0,0,0-2.18,1.54c-4.26,5.63-4.12,20.63.82,25.49a7.17,7.17,0,0,1,2.08,6.52,20.09,20.09,0,0,0,3,13.47c4.3,6.63,4.36,6.66,4.12,14.65-.18,6.27,3.71,10.7,6.66,15.55,1.08,1.78,1.46,4.57,4.62,4.32s6.06-.71,8.72-2.58c5.68-4,8-9.51,7.59-16.3,2.44,6.39,3.67,13.11,5.6,19.65,1.5,5.08,2.78,10.05,5.92,14.69,4.28,6.34,7.38,13.5,10.7,20.46s-2,16-9.92,16.68c-1.59.14-3.22,0-4.83-.06-6-2.11-8.08-7.57-10.76-12.55-4.75-8.85-8.45-18.31-15-26.14-.82-1.53-1.55-3.11-2.48-4.58-15.8-24.9-29.21-50.93-38.08-79.19-3-9.7-6.6-19.23-10.06-29.22-1.08,1.41-1.86,2.48-2.68,3.52-9,11.3-15.89,24.14-26.27,34.35-2.46-.5-5,.4-7.48-.66C121.35,240.59,119.89,236.35,120.1,231.13Z"/><path class="cls-9" d="M163.23,413.86a101.7,101.7,0,0,1-11.33-6.06c-8.8-5.38-15.14-14.12-17.27-29-1.61-11.3-6.92-17.05-14-19.63-4.81-1.76-9.4,0-13.83,2.39-2.3,1.22-3.21,1.06-4.15-2.64-4.88-19.09-15-29.23-28.36-29.77-6.37-.25-12.11,1.78-17.58,6.56-5.15,4.5-10.53,6.37-16.61,4.66-5.71-1.6-9.79-5.44-12.3-13.5-1.81-5.83-3.53-11.72-6-17.07C16.41,298.28,9.1,292.52,0,291.47v-93c1.2.73,2.41,1.39,3.58,2.19,3.79,2.58,6.59,7.29,9.93,10.83,3.74,6.47,7.44,13.06,9.26,21.38.94,4.32,2,4.76,4.68,3,12-8.12,23.73-7.26,35,3.47,4,4,8,8.21,10.89,14.29,1.57,3.31,3.46,4.66,6.24,4.44,3.72-.28,7.53-.78,11.2,1,6.66,2.67,11.59,8.68,15.09,17.72a65,65,0,0,0,4,7.44q8.72,12.25,20.2,16.75c1.63.05,3.31.51,4.87,0,2-.63,4.26-1.73,4.09-6-.16-3.94.81-7.45,1.43-11.11.62-.12,1.06-.51,1.27-1.53,1.23-6,4.77-9.74,7.87-11.27,6.27-3.08,13-1.94,18,5.54,2.72,4.08,5.33,5.11,8.92,5.28,11,.54,19.2,17.44,18,34.08-.35,4.69-.87,9.43,1,14.08,3.44,8.72,8.28,14.42,14.55,17.51h0c-1.92,2.05-4,1.48-6,.51-4.49-2.18-8.95-4.5-13.43-6.77l-7.29-3.57a59.81,59.81,0,0,0,4.37,9.24c.16.67,2.3,2.61,2.62,2.94,6.22,6.45,12.13,13.65,19.15,18.14,8.34,4.75,16.85,7.14,25.73,4.38,7.36.64,40-9.36,46.93-15,4.7-3.29,7.9-8,8.6-13C289.4,345.8,288,346,287,347c-3.07,3.09-6.86,3-9.93,5.9-3.15.54-6.26,2.09-10.15,1.32l12.19-8.7c7.37-4.32,12.6-12.25,16.39-22.61,5.68-10.36,12.59-16.64,21.79-15.33,7.35.35,14.58,3.05,22,2.39,3.52-.32,6.71-2.27,10.05-3.47,4.58-3.05,8.32-7.94,12-13,4.4-6,9.32-10.21,15.48-9.79.42-.23,1.14-.32,1.22-.71,2.51-12.42,9.36-16.64,16.4-21,5.29-3.25,10.67-1.12,16-2.05,4.25.09,8.49.32,12.73.22,7.14-.15,12.88-4.92,17.7-12.73.94-1.53,1.25-3.95,2.77-4.67v53c-2-.66-3.74-2.43-5.22-4.33-8.3-10.65-22.36-.13-24.42,13.1-.72,4.65-2,5.38-4.83,4.27-5-1.95-9.8.08-14.42,2.78-3.38,2-4.86,6.57-5.62,11.7-1.1,7.34-1.8,14.82-3.62,21.89-2.67,10.33-9.59,17.91-16.25,17.67-3.39-.12-6.25-2.29-8.46-5.89-9.49-15.5-24.45-7.94-29.33,8.36-2.43,8.1-4.17,16.82-8.54,23.41-7.39,11.13-24,22.39-33.78,26.44"/></g></g></g></svg>