<svg xmlns="http://www.w3.org/2000/svg" viewBox="0 0 603.46 340.28"><defs><style>.cls-1{fill:#e8e9eb;}.cls-2{fill:#fdfdfd;}.cls-3{fill:#e0dfd5;}.cls-4{fill:#e4b363;}.cls-5{fill:#216696;}.cls-6{fill:#313638;}.cls-7{fill:#07c39b;}.cls-8{fill:#d1d1d1;}.cls-9{fill:#044e91;}.cls-10{fill:#f4efd5;}.cls-11{fill:#06325d;}.cls-12{fill:#fa4d3b;}</style></defs><title>skills-set</title><g id="Layer_2" data-name="Layer 2"><g id="skills_3" data-name="skills 3"><path class="cls-1" d="M603.46,5.12v52c-.3,0-105,39.59-105.26,39.7-15.44,6.68-30.84,13.44-46.31,20-7.21,3.08-14.23,6.58-21.68,9.11-1.48.15-1.42-1.17-1.94-2-1.52-2.27-5.08-2.46-6,0-.88,2.3-2.3,2.13-4,2.06s-3.29.25-4.13,2a3.62,3.62,0,0,0,.93,4.44c-5.13,2.93-10.72,4.86-16.11,7.23-1.62.72-2.19,1.48-1.42,3.25A58.49,58.49,0,0,1,401,153.69c.39,1.84,1.35,2.29,3,1.9,6.73-1.54,13.42-3.31,20.29-4.21-.4,1.82-2.14,2.15-3.39,3-2,1.36-2.75,3.15-1.48,5.23s3.07,2,5.11,1.08c1.15-.55,2.09-1.61,3.86-1.69v8.88a1.76,1.76,0,0,0-.49.33c-7.42.69-14.83,1.42-22.26,2.06-1.59.13-1.77.93-1.67,2.23a52.77,52.77,0,0,1,.17,9.49c-.43,4.37-.4,4.45,4.07,4.87q33.56,3.19,67.12,6.32c7.92.75,120.19,11.14,128.11,12v32c-2.38-.58-109.11-15.69-111.5-16.22q-29.29-6.56-58.58-13.07-14.5-3.24-29-6.58c-1.9-.44-3.09-.17-3.51,2a51.62,51.62,0,0,1-3.36,10.48c-.73,1.69-.4,2.62,1.34,3.29,2.57,1,5.09,2.12,7.62,3.21,21.28,9.15,175.68,71.7,197,80.85v38s-23.41.35-24,0c-16-9.44-171.42-99.55-187.35-109.06-1.48-.89-2.26-.75-3.21.65-2.17,3.21-4.36,6.42-6.79,9.42-1.2,1.48-1.15,2.25.27,3.42,2.91,2.4,5.68,5,8.52,7.45,8.83,7.71,93.73,80.41,102.56,88.12-2.89.68-48.76,1.27-49,1-5.9-6.76-67-80-72.93-86.76-1-1.11-1.61-.76-2.52,0-2.24,1.77-4.48,3.54-6.81,5.18-4.68,3.29-4.8,3.31-1.85,8.09,3.47,5.62,54,68.32,58.11,73.53h-43c-3.72-8.73-26.38-61.29-30.08-70-.62-1.47-1.45-1.66-2.88-1.13-3.16,1.18-6.34,2.31-9.57,3.26-3.81,1.12-3.75,1-2.87,5,2.41,10.76,11,52.19,13.4,63-6,0-17.62.36-24,0-.08-.79-1.23-30.12-1.31-30.91a32.14,32.14,0,0,0,3.67.05c6-.52,10.1-7.31,7.54-12.68s-4.88-10.74-8.14-15.56c-2.38-3.53-3.36-7.31-4.5-11.17-1.46-5-2.4-10.08-4.25-14.94q-3.15-12.4-6.28-24.81c0-2.9,1.47-.95,2.42-.72,1.77,2.55,3.49,5.15,5.35,7.65a2.8,2.8,0,0,1,.19,3.54,8.89,8.89,0,0,0,.38,9.86c3.39,5,6.88,9.9,10.54,14.69a9.7,9.7,0,0,0,16.56-9.84c-.71-1.62-.55-2.31.79-3.46,5.18-4.45,6.2-10.48,3.12-16.8-1.58-3.57-4-6.62-6.11-9.86-7.34-11.31-14.77-22.57-22.16-33.85-1.71-4.5-1.67-4.64,2.26-7.38l23.76-16.57c2.39.61,4.51-.71,6.78-1,1.33,1.41,1.88,3.58,4.07,4.16-1,2.75-4,3.26-5.83,5.17-3.36,3.53-4.13,8.37-.71,11.48a73.46,73.46,0,0,0,14.95,11c.11.32.14.92.6.66s.06-.65-.27-.89c-.4-1.53-1.59-2.57-2.38-3.86-1.74-2.85-4.44-5.12-5.33-8.47a5,5,0,0,1,1.74-5.49c1.73-1.19,2.58,1,3.55,2,7.86,7.7,15.63,15.48,23.43,23.24a4.23,4.23,0,0,1,1.57.77c0-1,1,.32.66-.1a7,7,0,0,0-1.19-3.1c-4.87-10-9.67-20-14.68-29.89-1.31-2.6-.28-3.23,2-3.49A6.76,6.76,0,0,1,379,172.8c2.19,3.15,4.46,6.24,6.69,9.36-1.28-5.57-2.88-10.92-4.66-16.22-1.95-5.81-7.61-7.61-12.78-4.21-1.77,1.17-3.29,2.71-5.72,3.62.44-2.6-1.57-3.95-2.44-5.87,2.41-2.27,2.6-4.95,1.41-7.88-1.86-3-4.05-5.87-5.52-9.07-2.79-6.1-7.24-9-13.93-8.37-2.46-3.14-2.46-3.13,1.13-4.29,3.08-1,6.13-2.1,9.24-3a11.62,11.62,0,0,0,8-6.84c1.66-.59,1.07-2,1.08-3.15.07-6.33,0-12.65,0-19,2.31,1.67,4.74,3.21,6.89,5.07,1.52,1.31,2.43,1.27,3.71-.26C375,99.3,378.07,96,381,92.62q35.4-40.22,70.78-80.44c7.6-8.65,3.08-3.39,10.65-12.06h49c-.34.21-62.57,54.53-87.15,76.18-13.79,12.15-27.54,24.34-41.38,36.43-1.71,1.49-2.14,2.5-.51,4.41a74.18,74.18,0,0,1,6.12,8.4c1.21,1.91,2.1,2.06,4.09.88q34.71-20.7,69.54-41.2C474.47,78,591.15,12.34,603.46,5.12Z"/><path class="cls-2" d="M359.08,330.72c6.53-3.24,11.67-8.17,16.6-13.37a4.46,4.46,0,0,0,.62-1.36l.22-.29-.28.22c-2.39.32-4.31,1.77-6.42,2.73a124,124,0,0,1-35,9.64c-9.6,1.31-19.2,2.56-28.91,2.44-18.38-.24-35.53-4.64-51-14.79-1.2-.79-2.38-1.59-3.59-2.35a12.59,12.59,0,0,0-4.4-2.36,43.18,43.18,0,0,0,17.24,18.06"/><path class="cls-1" d="M126.34,220.18c-2.89-2-122.59,16.4-125.88,14.94-1-.46,0-27.07,0-33,1,0,116.21-7,117.21-7.08q31.24-2.91,62.5-5.85c9.14-.86,18.28-1.77,27.43-2.62,1.38-.12,2.35-.35,2.15-2.11a55.57,55.57,0,0,1,0-12.23c.14-1.27-.31-1.83-1.63-2-6.6-.69-13.18-1.53-19.82-1.66a7.63,7.63,0,0,0-4.76-.45l-2-.35c1.34-3.92.92-4.93-2.79-6.66-2.21-1-4.45-2-6.65-3s-4.31-1-5.89,1.26c-1.91-.15-.8-2.67-2.41-3.06-1.08-1.82-2.52-3-4.75-2.14s-2.56,2.7-2.32,4.75c.25,2.21.58,4.4.88,6.59l-2.3-.16c0-1.94-.4-3.64-2.55-4.38s-3.24.56-4.54,1.74c-.81.73-1.43,1.79-2.71,1.84-3.32-.4-6.63-1-10-1.18-7-.36-128-7.59-135.09-7.23v-46c3.87.87,121.91,25.82,125.79,26.68q16.25,3.58,32.5,7.14c.21,1.73.4,3.51,2.32,4.27s3.53-.09,4.94-1.43a11.72,11.72,0,0,1,1.47-1,9,9,0,0,0,5.1,1.16c1.28.8,2.51,1.72,4.13,1.68a16.21,16.21,0,0,1,6.5,1.12c-3,2.25-3.31,3.94-1.05,6.83a49.41,49.41,0,0,0,9.46,9.15c2.37,1.78,4.67,1.73,5.91-.19,1.46-2.26.55-4-1.43-5.5a41.52,41.52,0,0,1-9.25-9.32c1.4.21,2.83.35,4.21.66,6.06,1.36,12.11,2.78,18.17,4.14,1.51.34,3,.73,3.51-1.56a60.36,60.36,0,0,1,3.62-11.34,1.75,1.75,0,0,0-1.07-2.66q-12.81-5.37-25.62-10.77c-.07-2.33-.15-4.66-.22-7-.1-3.44-1.22-4.59-4.57-4.66-1.22,0-2.44,0-3.66,0-6.5-.22-13,.48-19.49-.38-7.34-3.81-15.07-6.72-22.63-10C131,103.54,8.62,44.57.46,41.12V.12h7c6,3,108.29,63.89,108.81,64.2l103,60.94c4.95,2.93,5,2.9,7.39-2.68,1.23,0,1.64,1.1,2.31,1.78,6,6.07,13.07,9.55,21.82,8.8,2.73-.24,5.45-.54,8.17-.81-1.59,3.22-3.88,6-5.92,8.89-2.85,4.11-6,8-6.18,13.37-1.62,3.85-1.09,7.6,1.78,10.43,2.31,2.29,3.28,5,4.41,7.8.85,2.12.38,3.54-.86,5.24-7.51,10.28-14.93,20.63-22.38,31a12,12,0,0,0-2.35,4.25c-2.86,2.37-4.75,5.48-6.5,8.68-.87,1.6,4.66,7.78,5.52,9.15,1.77,2.81-5,109-2,109-18,0-194-1-194-1H.46v-34c1.16.36,200.17-82,214.51-88.12,1.54-.66,2-1.47,1.31-3.06a61.81,61.81,0,0,1-2.22-6.34c-1.94-6.67-1.91-6.68-8.68-5.34-.9.18-1.8.37-2.69.57-17.72,3.95-35.45,7.84-53.14,11.9C141.81,216.5,134,217.87,126.34,220.18Z"/><path class="cls-1" d="M322.46.12h25c-4.31,19.16-5,24.35-9.26,43.54a30.94,30.94,0,0,0-.74,10.46,5.74,5.74,0,0,0-1,1,44.74,44.74,0,0,1-4.5,6c-2.79,3.25-3.78,6.55-1.66,10.47-.38.9-2.06,1.77-.78,2.72,3.58,2.68,7,5.65,11.2,7.38.82,2,2.77,2.82,4.39,3.8,2.46,1.49,2.74,2.82.54,4.65-.49-.31.73-2.46-1.27-1.18a2,2,0,0,1-2.49-.31c-4.79-3.59-9.65-7.08-14.43-10.69-2.3-1.74-2.1-2.77.75-4.23-1.68-1.4-3.36-2.7-4.93-4.11-2.2-2-3.47-.57-4.6,1.2-1,1.61-3.18,3.07-.27,5.11,1.92,1.34,4.48,2.1,5.3,4.71l-3.45,4.72-.94,1.1C317.1,89,316,92.5,312.7,94.18c-.88.31-1,1.28-1.56,1.86-1.69.31-1.61-1.25-2.06-2.09A24.68,24.68,0,0,0,297,82.59c-4.38-1.93-8.86-1.73-13.41-1.48-.12-1-.15-2-.36-3Q278.09,54.8,272.89,31.5c-3.38-15.12-4-16.27-7.43-31.38h26c1.21,13.12,1.21,15.33,2.45,28.45q2.4,25.34,4.8,50.66c.14,1.47.47,2.24,2.19,2a48.11,48.11,0,0,1,11.93,0c1.66.21,2.07-.53,2.21-2,.7-7.53,1.53-15,2.24-22.58,1.59-16.78,3.24-33.56,4.65-50.37C322.49-.42,322.85,6.89,322.46.12Z"/><path class="cls-3" d="M603.46.12c0,2-.06,5.19-.06,5.19S473,78.85,462.17,85.22q-34.8,20.55-69.54,41.2c-2,1.18-2.88,1-4.09-.88a74.18,74.18,0,0,0-6.12-8.4c-1.63-1.91-1.2-2.92.51-4.41,13.84-12.09,27.59-24.28,41.38-36.43C448.89,54.65,486.87,21.76,511.46.12,511.76-.15,587.46.12,603.46.12Z"/><path class="cls-3" d="M462.54.12c-7.58,8.67-3.13,3.41-10.73,12.06Q416.44,52.43,381,92.62c-3,3.37-6,6.68-8.89,10.12-1.28,1.53-2.19,1.57-3.71.26-2.15-1.86-4.58-3.4-6.89-5.07l-.92-.62c-.05-3-.09-5.89-.13-8.84,1.8,0,1.8-1.67,2.4-2.67,12.53-21,47.46-73.54,54.57-85.68Z"/><path class="cls-3" d="M226.64,122.58c-2.37,5.58-2.44,5.61-7.39,2.68C184.92,105,5.86.12,6.46.12c31,0,75.72.28,98,0,.26.16,10.72,10.89,11,11.09Q164.16,54.13,212.92,97c1.49,1.31,2.67,3.11,4.84,3.53l.06.18c.19,1.4,1.5,1.84,2.32,2.69,2.83,2.89,6.42,5,8.84,8.31-1.16,1.32-2.83,1.74-4.33,2.47-1.84.89-2.84,1.83-1,4C224.74,119.5,226.22,120.73,226.64,122.58Z"/><path class="cls-3" d="M151.46.12h49c.26.54,33,56.34,53.29,90.67,2.45,4.12,2.46,4.11-1.18,7-3.24-4.25-7-7.72-12.15-9.72-4.43-1.73-9-1.44-13.59-1.82a6,6,0,0,0-.56-1Q198.85,54.11,171.43,23C160.65,10.75,162.2,12.4,151.46.12Z"/><path class="cls-1" d="M151.46.12c10.74,12.28,9.19,10.63,20,22.88q27.39,31.14,54.84,62.22a6,6,0,0,1,.56,1,37.6,37.6,0,0,0-11.62,3.39c-1.56.79-2.1,1.54-1.15,3.26,1.37,2.48,2.48,5.1,3.7,7.67-2.17-.43-3.35-2.23-4.84-3.54q-48.78-42.89-97.51-85.82c-.23-.2-11.69-10.93-12-11.09Z"/><path class="cls-1" d="M252.57,97.79c3.64-2.89,3.63-2.88,1.18-7C233.43,56.46,199.72.66,199.46.12h32c.09.39,22.06,52,35.92,84.5,1.23,2.88,2.61,3.82,5.42,3.09a24.16,24.16,0,0,0-6.56,18.75c.2,3,.45,5.89.68,8.83-4.33-.45-6.73-3.32-8.62-6.84Z"/><path class="cls-3" d="M272.8,87.71c-2.81.73-4.19-.21-5.42-3.09C253.52,52.15,230.55.51,230.46.12h35c3.42,15.11,4.05,16.26,7.43,31.38q5.22,23.3,10.34,46.59c.21,1,.24,2,.36,3C279.71,82.84,275.64,84.27,272.8,87.71Z"/><path class="cls-3" d="M603.46,301.12c-21.28-9.15-175.68-71.7-197-80.85-2.53-1.09-5.05-2.23-7.62-3.21-1.74-.67-2.07-1.6-1.34-3.29a51.62,51.62,0,0,0,3.36-10.48c.42-2.21,1.61-2.48,3.51-2q14.47,3.33,29,6.58,29.28,6.55,58.58,13.07c2.39.53,109.12,15.64,111.5,16.22Z"/><path class="cls-3" d="M322.46.12c.39,6.77,0-.54-.53,6.16-1.41,16.81-3.06,33.59-4.65,50.37-.71,7.53-1.54,15.05-2.24,22.58-.14,1.51-.55,2.25-2.21,2a48.11,48.11,0,0,0-11.93,0c-1.72.21-2-.56-2.19-2q-2.35-25.33-4.8-50.66c-1.24-13.12-1.24-14.33-2.45-27.45-.09-1,0,0,0-1Z"/><path class="cls-1" d="M417.46.12c-7.11,12.14-42,64.63-54.57,85.68-.6,1-.6,2.69-2.4,2.67-.1-6.94-.23-13.88-.29-20.82,0-1.34-.12-2.45-1.75-2.63.88-1,0-1.93-.37-2.74a7.64,7.64,0,0,1-.3-5.22,1.33,1.33,0,0,1,.25-.41l.14,0,0-.14c2.08-4.14,5.42-7.43,7.69-11.45.62-.79,20.33-37.09,23.62-44.89Z"/><path class="cls-3" d="M603.46,205.12c-7.92-.81-120.19-11.2-128.11-12q-33.56-3.18-67.12-6.32c-4.47-.42-4.5-.5-4.07-4.87a52.77,52.77,0,0,0-.17-9.49c-.1-1.3.08-2.1,1.67-2.23,7.43-.64,14.84-1.37,22.26-2.06.47,2.66-.4,5.41.54,8.05l.66,1.37c.71,2.28,2.57,1.64,4,1.35,2.09-.42,2.21-2.31,2.3-4.05,3.92-.83,7.92.17,11.85-.56a14.16,14.16,0,0,1,1.24,2.76c.35,1.5,1.27,1.93,2.64,2,2.32.11,3.64-.77,3.87-3.22.33-3.46-.56-7,.47-10.37,7.72-.77,15.43-1.75,23.17-2.23,6.82-.42,117.92-14.59,124.79-14.18Z"/><path class="cls-3" d="M156.31,165.33l2.3.16a22.89,22.89,0,0,1,1.13,2.13A26.28,26.28,0,0,0,187.31,184c1.44-.17,2.65-1,2.74-2,.41-4.49,1.51-9.07-.73-13.43,6.64.13,13.22,1,19.82,1.66,1.32.14,1.77.7,1.63,2a55.57,55.57,0,0,0,0,12.23c.2,1.76-.77,2-2.15,2.11-9.15.85-18.29,1.76-27.43,2.62q-31.24,2.94-62.5,5.85c-1,.09-117.19,7.1-118.21,7.08v-46c7-.36,129.11,6.87,136.09,7.23,3.33.18,6.64.78,10,1.18-.83,2.18-2.91,3.25-4.35,4.9s-1.84,3.7-.4,5.47,3.79,1.39,5.17.08C150.18,171.9,153.76,169.11,156.31,165.33Z"/><path class="cls-3" d="M390.46.12c-3.29,7.8-24,44.1-24.62,44.89q-4.57-3.46-9.13-6.95c-.74-.56-1.6-.82-2.13,0-2.37,3.69-5.56,6.82-7.38,10.87-4.49-1.15-5.93-.64-8.66,2.94-.67.88-1.34,2.42-2.08,3.24,1-7,1-7.94,1.74-11.46,4.22-19.19,4.95-24.38,9.26-43.54Z"/><path class="cls-3" d="M430.23,126c7.43-2.53,14.45-6,21.66-9.11,15.47-6.6,30.87-13.36,46.31-20,.27-.11,105-39.67,105.26-39.7v52c-3.66.83-111.68,26.74-115.35,27.55q-16.51,3.63-33,7.23c-.24-4.57-.88-5.29-4.74-5.36-5.51-.1-5.44-.09-4.22-5.47.36-1.6.79-3.37-.72-4.88a3.4,3.4,0,0,0-3.69-.69c-2.18.69-2.29,2.95-2.81,4.72-1.43,4.87-3.23,6.48-7.32,6.33-1.54-.05-2.67-.36-2.59-2.18.07-1.62.38-3.07,2.54-3a17.8,17.8,0,0,0,2.73-.17c2.52-.28,3.34-2.18,3.25-4.2s-1.59-2.91-3.6-2.91C432.68,126.11,431.45,126,430.23,126Z"/><path class="cls-3" d="M158.75,143.94q-16.26-3.57-32.5-7.14C122.37,135.94,4.33,111,.46,110.12v-70c8.16,3.45,130.52,63.42,138.64,67,7.56,3.31,15.29,6.22,22.62,10a12.06,12.06,0,0,0-3.48.94,3.09,3.09,0,0,0-1.57,3.66,4.6,4.6,0,0,0,4.71,3.11c6,0,12.05.07,18.07,0,2,0,2.8.61,2.75,2.62-.08,3.47,0,6.95,0,10.42a2.8,2.8,0,0,1-2,3.05,2.86,2.86,0,0,1-2.66-.11c-1-.86.36-1.33.62-2,.86-2.24.37-4.05-1.81-5.07-1.73-.82-2.92-1.47-2-3.81.65-1.64-.41-3.1-2-3.93s-3.22-.67-4,.84c-1.52,2.83-3.26,2.12-5.44,1s-3.8-.15-4.84,1.82-.1,3.39,1.45,4.48a20,20,0,0,0,2.72,1.29c1.64.81,2.75,1.43.8,3.44C161.54,140.44,160.16,142.23,158.75,143.94Z"/><path class="cls-1" d="M455.07,143.9q16.51-3.61,33-7.23c3.67-.81,111.69-26.72,115.35-27.55v40c-6.87-.41-118,13.76-124.79,14.18-7.74.48-15.45,1.46-23.17,2.23-.08-3.85-.1-7.7-.23-11.54-.12-3.44-1.24-4.51-4.66-4.54s-7.1,0-10.65,0c-2.42,0-1.75-.88-.59-1.94l6.17-1.43c1.19-.07,2.39-.22,3.58-.19C451.36,145.94,453.57,146,455.07,143.9Z"/><path class="cls-4" d="M312.47,254.91c.28,5.16-1.46,9.34-5.78,12.39a12.65,12.65,0,0,1-6.63,2c-2.4.19-2.69-1.93-3.51-3.29-2.24-3.69-5.2-7.06-5.06-11.82.18-6.08.13-6.1-3.14-11.14a15.29,15.29,0,0,1-2.28-10.24,5.48,5.48,0,0,0-1.59-5c-3.76-3.7-3.86-15.11-.62-19.38a2.57,2.57,0,0,1,1.66-1.18c3.78-.76,7.59-1.44,11.3-2.48,3.34-.95,6-3.35,9-5,4.18-2.34,7.19-6.26,11.48-8.44,7.39,11.28,14.82,22.54,22.16,33.85,2.11,3.24,4.53,6.29,6.11,9.86-.1,1.91.33,3.82-.6,5.7-4,8-14,9.67-20.63,3.26-4.75-4.58-7.3-10.71-11.06-16-2.24-3.16-4.39-6.56-9.14-5.78a27.07,27.07,0,0,0,2.08,7.89Q309.32,242.51,312.47,254.91Z"/><path class="cls-5" d="M439.37,147.5c-1.16,1.06-1.83,1.95.59,1.94,3.55,0,7.1,0,10.65,0s4.54,1.1,4.66,4.54c.13,3.84.15,7.69.23,11.54-1,3.41-.14,6.91-.47,10.37-.23,2.45-1.55,3.33-3.87,3.22-1.37-.07-2.29-.5-2.64-2a14.16,14.16,0,0,0-1.24-2.76c-2.86-.67-5.77-.22-8.65-.26-1.08,0-2.46-.67-3.2.82-.09,1.74-.21,3.63-2.3,4.05-1.44.29-3.3.93-4-1.34-.31-3.14.6-6.35-.53-9.44-.06-.11-.11-.21-.18-.32V159c-1.77.08-2.71,1.14-3.86,1.69-2,1-3.91.89-5.11-1.08s-.54-3.87,1.48-5.23c1.25-.84,3-1.17,3.39-3l1.76-.08a14.6,14.6,0,0,0,5.2-4.93c-1.22-.63-2.72-.9-3,0-1,3-3.29,1.63-5.09,1.92-1.52-2.9-4.25-2.42-6.8-2.41-1.13,0-2.26-.06-3.38,0-2.64.21-4-1.29-4.5-3.57-.35-1.78,2.23-3.72,4.66-3.77,1.84,0,3.68,0,5.52,0s3.1,0,3.08-2.5c0-2.3-.94-2.87-2.91-2.64a7,7,0,0,1-3.8-.94,3.61,3.61,0,0,1-.94-4.44c.84-1.72,2.39-2,4.13-2s3.12.24,4-2.06c.95-2.45,4.51-2.26,6,0,.52.79.46,2.11,1.94,2,1.24,0,2.47.14,3.69.14,2,0,3.52,1,3.6,2.91s-.73,3.92-3.25,4.2a17.8,17.8,0,0,1-2.73.17c-2.16-.09-2.47,1.36-2.54,3-.08,1.82,1,2.13,2.59,2.18,4.09.15,5.89-1.46,7.32-6.33.52-1.77.63-4,2.81-4.72a3.4,3.4,0,0,1,3.69.69c1.51,1.51,1.08,3.28.72,4.88-1.22,5.38-1.29,5.37,4.22,5.47,3.86.07,4.5.79,4.74,5.36-1.5,2.11-3.71,2-5.95,2-1.19,0-2.39.12-3.58.19C443.47,146.44,440.85,144.53,439.37,147.5Zm8,11.3c.6-.59,1.17-1.18.13-1.88-3.42-.07-6.83-.16-10.24-.21-.9,0-2-.07-1.49,1.43l.08.64A24.91,24.91,0,0,0,447.39,158.8Zm0,8c0-.39,0-.78,0-1.17H436.55a1,1,0,0,0-1.08.84c-.07.65.44.89,1,.86C440.1,167.19,443.75,167,447.4,166.81Z"/><path class="cls-3" d="M493.46,339.12c-8.83-7.71-93.73-80.41-102.56-88.12-2.84-2.49-5.61-5.05-8.52-7.45-1.42-1.17-1.47-1.94-.27-3.42,2.43-3,4.62-6.21,6.79-9.42,1-1.4,1.73-1.54,3.21-.65,15.93,9.51,171.37,99.62,187.35,109.06C580.59,339.78,499.46,339.12,493.46,339.12Z"/><path class="cls-6" d="M358.44,65c1.64.18,1.75,1.29,1.76,2.63.06,6.94.19,13.88.29,20.82,0,3,.08,5.89.13,8.84,0,7.58.87,15.17-.2,22.75a11.62,11.62,0,0,1-8,6.84c-3.11.87-6.16,2-9.24,3-3.59,1.16-3.59,1.15-1.13,4.29a3.08,3.08,0,0,1,.31,2.88c-1,2-7.43,5.42-9.68,5.08-1.29-1.92-2.64-3.81-3.84-5.78-.8-1.32-1.74-1.33-3-.9-2.76.92-5.57,1.73-8.35,2.59a11.44,11.44,0,0,0-.67-2.33c-1.52-3.73-.86-5.3,2.9-6.55,3.17-1.06,6.38-1.89,9-4.2a4,4,0,0,1,4-1c1.72.67,3.25,0,4.75-.5,3.12-1,6.15-2.17,9.24-3.21,5.49-1.84,8.08-5.37,8.15-11.13.08-5.31-.8-10.58-.61-15.91.17-4.9,0-9.82,0-14.73,0-1,.56-2.4-1.21-2.65,1.16-2.38,3.45-4.77,0-7.12C353.29,65.27,355.9,65.2,358.44,65Z"/><path class="cls-3" d="M375.46,340.12h-32c-2.36-10.78-11-52.2-13.4-63-.88-3.94-.94-3.83,2.87-5,3.23-.95,6.41-2.08,9.57-3.26,1.43-.53,2.26-.34,2.88,1.13C349.08,278.83,375.75,336.4,375.46,340.12Z"/><path class="cls-6" d="M304.11,222.21c4.75-.78,6.9,2.62,9.14,5.78,3.76,5.28,6.31,11.41,11.06,16,6.64,6.41,16.63,4.77,20.63-3.26.93-1.88.5-3.79.6-5.7,3.08,6.32,2.06,12.35-3.12,16.8-1.34,1.15-1.5,1.84-.79,3.46a9.7,9.7,0,0,1-16.56,9.84c-3.66-4.79-7.15-9.71-10.54-14.69a8.89,8.89,0,0,1-.38-9.86A2.8,2.8,0,0,0,314,237c-1.86-2.5-3.58-5.1-5.35-7.65C307.53,226.72,305.55,224.64,304.11,222.21Z"/><path class="cls-3" d="M444.46,340.12h-26c-4.12-5.21-54.64-67.91-58.11-73.53-3-4.78-2.83-4.8,1.85-8.09,2.33-1.64,4.57-3.41,6.81-5.18.91-.72,1.55-1.07,2.52,0,5.88,6.78,11.83,13.5,17.73,20.26C389.5,273.89,444.34,339.74,444.46,340.12Z"/><path class="cls-6" d="M360.08,159.48c.87,1.92,2.88,3.27,2.44,5.87,2.43-.91,4-2.45,5.72-3.62,5.17-3.4,10.83-1.6,12.78,4.21,1.78,5.3,3.38,10.65,4.66,16.22-2.23-3.12-4.5-6.21-6.69-9.36a6.76,6.76,0,0,0-6.76-3.26c-2.26.26-3.29.89-2,3.49,5,9.91,9.81,19.91,14.68,29.89a7,7,0,0,1,1.19,3.1l.05,0c-1,.61-1.5-.51-2.27-.65.81-1.61-.65-2.46-1.33-3.43-7.15-10.16-14.41-20.26-21.6-30.4-1.2-1.69-2.09-3.7-4.5-1.29-.44.44-1.54.23-2.33.32-2.19-.58-2.74-2.75-4.06-4.16C352.75,163.14,356.88,162,360.08,159.48Z"/><path class="cls-5" d="M354.14,170.55c.79-.09,1.89.12,2.33-.32,2.41-2.41,3.3-.4,4.5,1.29,7.19,10.14,14.45,20.24,21.6,30.4.68,1,2.14,1.82,1.33,3.43-7.81-7.76-15.58-15.54-23.44-23.24-1-1-1.82-3.19-3.55-2a5,5,0,0,0-1.74,5.49c.89,3.35,3.59,5.62,5.33,8.47.79,1.29,2,2.33,2.38,3.86a1.5,1.5,0,0,1-.33.23,73.46,73.46,0,0,1-14.95-11c-3.42-3.11-2.65-7.95.71-11.48C350.11,173.81,353.12,173.3,354.14,170.55Z"/><path class="cls-3" d="M298.57,279.8c5,5.95,7.78,13.14,11.4,19.87,2,3.79,3.61,7.94,8.18,9.54.08.79,1.31,29.91,1.31,30.91h-24c.08-3.56,1.51-42.26,1.12-42.66h0Q297.57,288.63,298.57,279.8Z"/><path class="cls-7" d="M426.07,151.3l-1.76.08c-6.87.9-13.56,2.67-20.29,4.21-1.7.39-2.66-.06-3-1.9A58.49,58.49,0,0,0,397.51,143c-.77-1.77-.2-2.53,1.42-3.25,5.39-2.37,11-4.3,16.11-7.23a7.06,7.06,0,0,0,3.81.94c2-.23,2.9.34,2.91,2.64,0,2.51-1.3,2.56-3.08,2.5s-3.68-.05-5.52,0c-2.43.05-5,2-4.66,3.77.46,2.28,1.86,3.78,4.5,3.57,1.12-.09,2.25,0,3.38,0,2.55,0,5.28-.49,6.8,2.41C423.57,149.81,426.62,148.85,426.07,151.3Z"/><path class="cls-7" d="M360.08,159.48c-3.2,2.5-7.33,3.66-10,6.91-2.28.26-4.4,1.58-6.79,1,2.48-2.8,6.08-3.87,9.11-5.83,3.87-2.5,4.19-3.65,1.46-7.46-1.59-2.22-3.12-4.49-4.59-6.78-2.11-3.29-4.33-3.91-7.71-1.73-3.16,2-6.17,4.31-9.24,6.48l-1.82-2.16,0-.09a7.63,7.63,0,0,1,1.28-1.61c3.42-2.46,6.74-5.08,10.36-7.19s5.08-1.81,7.92,1.33a44.84,44.84,0,0,1,3.48,4.88c3.82,5.54,3.81,5.55,8,4.4C362.68,154.53,362.49,157.21,360.08,159.48Z"/><path class="cls-3" d="M361.49,151.6c-4.18,1.15-4.17,1.14-8-4.4a44.84,44.84,0,0,0-3.48-4.88c-2.84-3.14-4.19-3.5-7.92-1.33s-6.94,4.73-10.36,7.19a8,8,0,0,0-1.29,1.61c-.09-2.8-1.29-5.91,2.22-7.67,2.25.34,8.69-3,9.68-5.08a3.08,3.08,0,0,0-.31-2.88c6.69-.61,11.14,2.27,13.93,8.37C357.44,145.73,359.63,148.59,361.49,151.6Z"/><path class="cls-8" d="M360.42,120.06c1.07-7.58.18-15.17.2-22.75l.92.62c0,6.33,0,12.65,0,19C361.49,118,362.08,119.47,360.42,120.06Z"/><path class="cls-8" d="M304.11,222.21c1.44,2.43,3.42,4.51,4.5,7.17-.95-.23-2.4-2.18-2.42.72A27.07,27.07,0,0,1,304.11,222.21Z"/><path class="cls-9" d="M428.46,176.25c-.94-2.64-.07-5.39-.54-8.05a1.76,1.76,0,0,1,.49-.33c.07.11.12.21.18.32C428.55,170.87,428.5,173.56,428.46,176.25Z"/><path class="cls-8" d="M362.88,197.93c.33.24.67.66.27.89s-.49-.34-.6-.66A1.5,1.5,0,0,0,362.88,197.93Z"/><path class="cls-1" d="M298.57,279.8c-.67,5.89-1.44,27.43-2.11,33.32-5.43-1.75-89.45-27.07-90-27-4.15,2.15,13.95-54.53,18-57,6.85-.18,11.4-1.38,13.6-6.44,7.9-7.76,13.17-17.53,20-26.12.62-.79,1.21-1.6,2-2.68,2.63,7.6,5.34,14.85,7.66,22.22,6.74,21.49,16.93,41.28,28.95,60.22C297.39,277.43,297.94,278.64,298.57,279.8Z"/><path class="cls-3" d="M.46,238.12c7.62-2.31,141.35-21.62,149.09-23.39,17.69-4.06,35.42-7.95,53.14-11.9.89-.2,1.79-.39,2.69-.57,6.77-1.34,6.74-1.33,8.68,5.34a61.81,61.81,0,0,0,2.22,6.34c.66,1.59.23,2.4-1.31,3.06C200.63,223.15,14.79,300.94.46,307.12-.58,307.57.46,243.12.46,238.12Z"/><path class="cls-3" d="M238.06,222.68c-2.2,5.06-8.6,9.44-12.6,7.44-4.26-2.14-5.39-6.55-4.52-8.15,1.75-3.2,3.64-6.31,6.5-8.68-.16,4,.95,7.19,4.94,8.89C234.25,223,236.19,222.3,238.06,222.68Z"/><path class="cls-1" d="M227.31,271c2.61-3.59,4.85-7.52,9-9.68-.53,2.08-1.38,4.07-1.24,6.31.15,2.41-1.77,3-3.54,3.39A20.54,20.54,0,0,1,227.31,271Z"/><path class="cls-10" d="M337.16,309.54l2.86-.15C339.12,310.28,338.21,311.31,337.16,309.54Z"/><path class="cls-8" d="M376.24,315.92l.28-.22-.22.29Z"/><path class="cls-4" d="M330.5,149.88l1.82,2.16c1.47,3.24,3.93,5.84,5.86,8.78.92,1.41,1,2.11-.45,3.09q-17.12,11.78-34.16,23.65c-1.5,1.05-3,2.1-4.43,3.25-3.22,2.62-10.27,2.7-14.21-.81-11.34-10.09-22.77-20.09-34.13-30.16-1.64-1.46-3.51-2.84-4-5.24.21-5.31,3.33-9.25,6.18-13.36,2-2.92,4.33-5.67,5.92-8.89,1.47.17,1.49,1.39,1.89,2.43a44.39,44.39,0,0,0,18.7,22.64c6.59,4,13.68,6.65,20.9,9.08,1.83.61,3.77,1.18,5.57-.1,3.32-2.37,6.61-4.8,9.91-7.2,1.17.13,1.81-.82,2.64-1.35C322.59,155.28,326.21,152.08,330.5,149.88Z"/><path class="cls-6" d="M315.91,159.2c-3.3,2.4-6.59,4.83-9.91,7.2-1.8,1.28-3.74.71-5.57.1-7.22-2.43-14.31-5.09-20.9-9.08a44.39,44.39,0,0,1-18.7-22.64c-.4-1-.42-2.26-1.89-2.43-2.72.27-5.44.57-8.17.81-8.75.75-15.8-2.73-21.82-8.8-.67-.68-1.08-1.78-2.31-1.78-.42-1.85-1.9-3.08-3-4.4-1.81-2.14-.81-3.08,1-4,1.5-.73,3.17-1.15,4.33-2.47,3.17-1.66,4.4,0,5.93,2.72,5.69,10,13.64,13.57,25.21,11.88,1.79-.27,3.63-.16,4.81-2.09.85-1.38.7-1.93-.84-2.23-6.89-1.34-11.35-5.55-14.16-11.83-1.2-2.68-2.48-5.38-5-7.22a10.27,10.27,0,0,0-7.19-5c-2.21-1.28-4.6-1.18-7-1-4.6.28-8.61,2.53-12.92,3.75l-.06-.18c-1.22-2.56-2.33-5.18-3.7-7.66-.95-1.72-.41-2.47,1.15-3.26a37.6,37.6,0,0,1,11.62-3.39c4.56.38,9.16.09,13.59,1.82,5.11,2,8.91,5.47,12.15,9.72l5.73,10.66c1.89,3.52,4.29,6.39,8.62,6.84a14.77,14.77,0,0,1,.58,2,34.82,34.82,0,0,0,5.32,14.45c2.61,4,6.52,6.58,9.77,9.87,4.9,4.95,15.05,3.81,19.16-1.06,3.12-3.7,6.37-7.45,8.22-12.08.69-1.73,1.46-3.43,2.43-5.7,1.69,12.66-4.08,22-10.8,31.09,5,1.68,9.41,3.87,14.34,4.34Z"/><path class="cls-5" d="M158.75,143.94c1.41-1.71,2.79-3.5,4.31-5.06,1.95-2,.84-2.63-.8-3.44a20,20,0,0,1-2.72-1.29c-1.55-1.09-2.44-2.58-1.45-4.48s2.74-2.89,4.84-1.82,3.92,1.82,5.44-1c.81-1.51,2.47-1.68,4-.84s2.63,2.29,2,3.93c-.94,2.34.25,3,2,3.81,2.18,1,2.67,2.83,1.81,5.07-.26.65-1.62,1.12-.62,2a2.86,2.86,0,0,0,2.66.11,2.8,2.8,0,0,0,2-3.05c0-3.47-.07-6.95,0-10.42.05-2-.79-2.65-2.75-2.62-6,.09-12,0-18.07,0a4.6,4.6,0,0,1-4.71-3.11,3.09,3.09,0,0,1,1.57-3.66,12.06,12.06,0,0,1,3.48-.94c6.49.86,13,.16,19.5.38,1.22,0,2.44,0,3.66,0,3.35.07,4.47,1.22,4.57,4.66.07,2.33.15,4.66.22,7a52.73,52.73,0,0,0-.14,6.4c.7,7.15-4,14-12.82,13-1.62,0-2.85-.88-4.12-1.68-.44-2.28.23-4.14,2.72-5.69-2.09-.38-3.36-3-5.11-.43a55.25,55.25,0,0,0-2.72,5,11.72,11.72,0,0,0-1.47,1c-1.41,1.34-3,2.21-4.94,1.43S159,145.67,158.75,143.94Z"/><path class="cls-7" d="M176.71,148.59c8.81.94,13.52-5.89,12.82-13a52.73,52.73,0,0,1,.14-6.4q12.81,5.39,25.62,10.77a1.75,1.75,0,0,1,1.07,2.66,60.36,60.36,0,0,0-3.62,11.34c-.49,2.29-2,1.9-3.51,1.56-6.06-1.36-12.11-2.78-18.17-4.14-1.38-.31-2.81-.45-4.21-.66-1.17-.5-2.2-1.5-3.64-1A16.21,16.21,0,0,0,176.71,148.59Z"/><path class="cls-5" d="M188.32,168.6c2.24,4.36,1.14,8.94.73,13.43-.09,1-1.3,1.81-2.74,2a26.28,26.28,0,0,1-27.57-16.39,22.89,22.89,0,0,0-1.13-2.13c-.3-2.19-.63-4.38-.88-6.59-.24-2.05.14-3.92,2.32-4.75s3.67.32,4.75,2.14c0,3.63.32,7.17,2.61,10.22,2.49,5.42,7,8.38,12.51,10,2,.58,3.71.24,3.27-2.6a7.9,7.9,0,0,1,1.37-5.71A7.63,7.63,0,0,1,188.32,168.6Z"/><path class="cls-5" d="M183.21,149.71c1.44-.53,2.47.47,3.64,1A41.52,41.52,0,0,0,196.1,160c2,1.49,2.89,3.24,1.43,5.5-1.24,1.92-3.54,2-5.91.19a49.41,49.41,0,0,1-9.46-9.15C179.9,153.65,180.18,152,183.21,149.71Z"/><path class="cls-5" d="M155.31,165.33c-2.55,3.78-6.13,6.57-9.38,9.65-1.38,1.31-3.65,1.78-5.17-.08s-1.14-3.71.4-5.47,3.52-2.72,4.35-4.9c1.28-.05,1.9-1.11,2.71-1.84,1.3-1.18,2.5-2.44,4.54-1.74S155.29,163.39,155.31,165.33Z"/><path class="cls-5" d="M166.21,159.35c1.58-2.24,3.57-2.38,5.89-1.26s4.44,2,6.65,3c3.71,1.73,4.13,2.74,2.79,6.66-3,1.44-5.67,0-8.35-1.11a33.61,33.61,0,0,0-3.79-1.91C166.76,163.83,165.71,162.08,166.21,159.35Z"/><path class="cls-7" d="M173.19,166.69c2.68,1.11,5.32,2.55,8.35,1.11l2,.35a7.9,7.9,0,0,0-1.37,5.71c.44,2.84-1.23,3.18-3.27,2.6-5.52-1.57-10-4.53-12.51-10Z"/><path class="cls-7" d="M167.48,145.75a55.25,55.25,0,0,1,2.72-5c1.75-2.58,3,.05,5.11.43-2.49,1.55-3.16,3.41-2.72,5.69A9,9,0,0,1,167.48,145.75Z"/><path class="cls-8" d="M173.19,166.69l-6.78-.18c-2.29-3-2.63-6.59-2.61-10.22,1.61.39.5,2.91,2.41,3.06-.5,2.73.55,4.48,3.19,5.43A33.61,33.61,0,0,1,173.19,166.69Z"/><path class="cls-4" d="M315.94,158.24c-4.93-.47-9.34-2.66-14.34-4.34,6.72-9.07,12.49-18.43,10.8-31.09-1,2.27-1.74,4-2.43,5.7-1.85,4.63-5.1,8.38-8.22,12.08-4.11,4.87-14.26,6-19.16,1.06-3.25-3.29-7.16-5.85-9.77-9.87a34.82,34.82,0,0,1-5.32-14.45,14.77,14.77,0,0,0-.58-2c-.23-2.94-.48-5.88-.68-8.83a24.16,24.16,0,0,1,6.56-18.75c2.84-3.44,6.91-4.87,10.79-6.6,4.55-.25,9-.45,13.41,1.48A24.68,24.68,0,0,1,309.08,94c.45.84.37,2.4,2.06,2.09-.28,5.82,1,11.49,2,17.16.56,3.46,1.08,3.38,4.21,1.23,7.77-1,14.89-4.05,22.14-6.72,1.13-.7.59-1.84.65-2.76.19-3.25.2-6.51.37-9.76,0-.89-.36-2.22,1.32-2.18,1,1.2,2,.57,2.28-.43s1.23-1.54,1.58-2.46c2.2-1.83,1.92-3.16-.54-4.65-1.62-1-3.57-1.81-4.39-3.8,0-.82,0-1.65,0-2.48a8.36,8.36,0,0,1,1.1.49c4.34,2.7,6.34,2.31,9.42-1.8.53-.71.82-1.65,1.74-2,1.77.25,1.19,1.66,1.21,2.65.06,4.91.18,9.83,0,14.73-.19,5.33.69,10.6.61,15.91-.07,5.76-2.66,9.29-8.15,11.13-3.09,1-6.12,2.25-9.24,3.21-1.5.46-3,1.17-4.75.5a4,4,0,0,0-4,1c-2.62,2.31-5.83,3.14-9,4.2-3.76,1.25-4.42,2.82-2.9,6.55a10.81,10.81,0,0,1,.66,2.33C317.16,144.78,317.57,151.59,315.94,158.24Zm-18.69-50.73-6.87.24c-2.55,0-5.09,0-7.64,0-.83,0-1.95-.36-2.14,1a22.17,22.17,0,0,1-3,.22c-2.49-.16-3.57.83-3.13,3.38a41,41,0,0,1,1,7.49c-.06,2.8,1.07,3.14,3.44,2.84,4.33-.55,8.68-.83,13-1.23l2.27-.32c1.85-.13,3.74.15,5.55-.47,5.71-.24,5.71-.24,5.21-4.08l-.62-2.43c0-1.93,0-3.87-.08-5.81,0-.81-.21-2-1.3-1.55C301.07,107.57,299.08,106.77,297.25,107.51Zm-2.72,20.17c0-.49.34-2.55-1.66-1.92-1.78.56-5.2-1.12-5.09,3,.07,2.36.92,3.61,3.43,3.61C293.94,132.34,294.77,130.85,294.53,127.68Z"/><path class="cls-8" d="M338.54,51.88c2.73-3.58,4.17-4.09,8.66-2.94l4.53,3.11.64.39.92,1.38c.16.48.24,1,.87,1.16l0,0c.19,3-.06,5.85-2.06,8.35a78,78,0,0,0-5.57,7.64,9.94,9.94,0,0,1-8.42,5.16c-3.14-.56-4.91-3.48-7.77-4.52-2.12-3.92-1.13-7.22,1.66-10.47,1.54-1.79,2.5-4.09,3.72-6.15C336.11,54.94,337.87,52.76,338.54,51.88Z"/><path class="cls-6" d="M317.31,114.43c-3.13,2.15-3.65,2.23-4.21-1.23-.93-5.67-2.24-11.34-2-17.16.57-.58.68-1.55,1.56-1.86,2.84.57,4.54,2.93,6.83,4.36l5,3.24c1.27,1,.67,1.81-.05,2.79C322,107.83,319.68,111.14,317.31,114.43Z"/><path class="cls-9" d="M319.53,98.54c-2.29-1.43-4-3.79-6.83-4.36,3.26-1.68,4.4-5.17,6.62-7.74l.94-1.1c.47,2.39,2.07,4.12,3.5,5.94C322.74,93.92,319.81,95.46,319.53,98.54Z"/><path class="cls-11" d="M323.76,91.28c-1.43-1.82-3-3.55-3.5-5.94l3.45-4.72a10.07,10.07,0,0,1,5.21,3.81Z"/><path class="cls-11" d="M330.3,71.57c2.86,1,4.63,4,7.77,4.52a5.11,5.11,0,0,0,2.25,2.16l.42.94c0,.83,0,1.66,0,2.48-4.21-1.73-7.62-4.7-11.2-7.38C328.24,73.34,329.92,72.47,330.3,71.57Z"/><path class="cls-1" d="M245,103c2.48,1.84,3.76,4.54,5,7.22,2.81,6.28,7.27,10.49,14.16,11.83,1.54.3,1.69.85.84,2.23-1.18,1.93-3,1.82-4.81,2.09-11.57,1.69-19.52-1.89-25.21-11.88-1.53-2.69-2.76-4.38-5.93-2.72-2.42-3.33-6-5.42-8.84-8.31-.82-.85-2.13-1.29-2.32-2.69,4.31-1.22,8.32-3.47,12.92-3.75,2.44-.15,4.83-.25,7,1,1.42,1.7,2.87,3.38,4.23,5.13C243.14,104.64,244.07,104.55,245,103Z"/><path class="cls-6" d="M351.73,52.05l-4.53-3.11c1.82-4,5-7.18,7.38-10.87.53-.83,1.39-.57,2.13,0q4.55,3.49,9.13,6.95c-2.27,4-5.61,7.31-7.69,11.45l-.18,0,.06.17a1.33,1.33,0,0,0-.25.41c-1.83.35-2-2.11-3.66-2.12l0,0c0-.59-.21-1-.87-1.16l-.92-1.38c2.54.09,4.6-1.34,6.86-2.13a1.79,1.79,0,0,0,1.15-2c0-1.73,0-3.46,0-5.19s-.71-2-2.14-1.24a13.57,13.57,0,0,1-2.26.83c-2.56.76-3.92,2.29-3.72,5.13C352.35,49.27,352.59,50.75,351.73,52.05Z"/><path class="cls-7" d="M354.12,54.94c1.62,0,1.83,2.47,3.66,2.12a7.64,7.64,0,0,0,.3,5.22c.33.81,1.25,1.71.37,2.74-2.55.18-5.16.25-5.49,3.71-1.31,1.79-2.76,3.49-3.92,5.38-2,3.34-5,4.52-8.72,4.14a5.11,5.11,0,0,1-2.25-2.16,9.94,9.94,0,0,0,8.42-5.16,78,78,0,0,1,5.57-7.64C354.06,60.79,354.31,57.94,354.12,54.94Z"/><polygon class="cls-12" points="358.03 56.65 357.97 56.48 358.15 56.46 358.17 56.6 358.03 56.65"/><path class="cls-11" d="M435.43,174.92c.74-1.49,2.12-.83,3.2-.82,2.88,0,5.79-.41,8.65.26C443.35,175.09,439.35,174.09,435.43,174.92Z"/><path class="cls-11" d="M428.46,176.25c0-2.69.09-5.38.13-8.06,1.13,3.09.22,6.3.53,9.44Z"/><path class="cls-3" d="M439.37,147.5c1.48-3,4.1-1.06,6.17-1.43Z"/><path class="cls-11" d="M426.07,151.3c.55-2.45-2.5-1.49-2.89-3.05,1.8-.29,4.1,1.06,5.09-1.92.28-.86,1.78-.59,3,0A14.6,14.6,0,0,1,426.07,151.3Z"/><path class="cls-8" d="M447.4,166.81c-3.65.18-7.3.38-11,.54-.53,0-1-.21-1-.86a1,1,0,0,1,1.08-.84h10.81C447.38,166,447.39,166.42,447.4,166.81Z"/><path class="cls-10" d="M435.79,158.14c-.49-1.5.59-1.44,1.49-1.43,3.41,0,6.82.14,10.24.21-.31,1.42-1.45,1.14-2.41,1.15C442,158.11,438.9,158.12,435.79,158.14Z"/><path class="cls-8" d="M435.79,158.14c3.11,0,6.22,0,9.32-.07,1,0,2.1.27,2.41-1.15,1,.7.47,1.29-.13,1.88l-11.52,0Z"/><path class="cls-11" d="M435.87,158.78l11.52,0A24.91,24.91,0,0,1,435.87,158.78Z"/><path class="cls-1" d="M315.94,158.24c1.63-6.65,1.22-13.46,1.49-20.21,2.79-.86,5.6-1.67,8.36-2.59,1.3-.43,2.24-.42,3,.9,1.2,2,2.55,3.86,3.84,5.78-3.51,1.76-2.31,4.87-2.22,7.67l.05.09c-4.29,2.2-7.91,5.4-11.95,8-.83.53-1.47,1.48-2.64,1.35Z"/><path class="cls-8" d="M340.32,78.25c3.75.38,6.69-.8,8.72-4.14,1.16-1.89,2.61-3.59,3.92-5.38,3.49,2.35,1.2,4.74,0,7.12-.92.38-1.21,1.32-1.74,2-3.08,4.11-5.08,4.5-9.42,1.8a8.36,8.36,0,0,0-1.1-.49Z"/><path class="cls-3" d="M245,103c-.9,1.58-1.83,1.67-3,.18-1.36-1.75-2.81-3.43-4.23-5.13A10.27,10.27,0,0,1,245,103Z"/><path class="cls-1" d="M334.65,87.92a19.22,19.22,0,0,1,5.45,3.88c-1.3,5.26-.45,10.61-.65,15.91-7.25,2.67-14.37,5.76-22.14,6.72,2.37-3.29,4.72-6.6,7.13-9.86.72-1,1.32-1.83.05-2.79A90.85,90.85,0,0,0,334.65,87.92Z"/><path class="cls-8" d="M291.93,121.51c-1.11.1-2.21.21-3.32.28s-2-.24-1.94-1.38c.14-2.26-1.55-2.8-3.37-3.6,4.48-.93,8.57-2.14,13.15-1.38-2.52,1.29-2.76,3.4-2.26,5.76Z"/><path class="cls-11" d="M294.53,127.68c.24,3.17-.59,4.66-3.32,4.67-2.51,0-3.36-1.25-3.43-3.61-.11-4.1,3.31-2.42,5.09-3C294.87,125.13,294.48,127.19,294.53,127.68Z"/><path class="cls-8" d="M339.45,107.71c.2-5.3-1.28-11.33,0-16.59.37.32,2,0,2.33,1.89-.33,1.11-1.28,1.29-1.32,2.18-.17,3.25-.18,6.51-.37,9.76C340,105.87,340.58,107,339.45,107.71Z"/><path class="cls-7" d="M345.65,90.12c-.35.92-1.26,1.42-1.58,2.46s-1.26,1.63-2.28.43a47.66,47.66,0,0,0-7.14-5.09c-1.64-1.6-3.15-3.43-5.73-3.49a10,10,0,0,0-5.21-3.8c-.82-2.62-3.38-3.38-5.3-4.72-2.91-2-.75-3.5.27-5.11,1.13-1.77,2.4-3.17,4.6-1.2,1.57,1.41,3.25,2.71,4.93,4.11-2.85,1.46-3,2.49-.75,4.23,4.78,3.61,9.64,7.1,14.43,10.69a2,2,0,0,0,2.49.31C346.38,87.66,345.16,89.81,345.65,90.12Z"/><path class="cls-7" d="M291.93,121.51c-4.34.4-8.69.68-13,1.23-2.37.3-3.5,0-3.44-2.84a41,41,0,0,0-1-7.49c-.44-2.55.64-3.54,3.13-3.38a22.17,22.17,0,0,0,3-.22c3.32.21,6.63.3,9.78-1.06l6.87-.24c2,.11,4.43-.44,5.86.52,1.72,1.16.2,4,1.08,5.92l.15.26c.2.81.41,1.62.62,2.43-1.67,3.42-5.27,2.64-8.21,3.56,1,1,2.05.46,3,.52-1.81.62-3.7.34-5.56.47-.5-2.36-.26-4.47,2.26-5.76-4.58-.76-8.67.45-13.15,1.38,1.82.8,3.51,1.34,3.37,3.6-.07,1.14.92,1.45,1.94,1.38S290.82,121.61,291.93,121.51Z"/><path class="cls-8" d="M299.75,120.72c-.95-.06-2,.47-3-.52,2.94-.92,6.54-.14,8.21-3.56C305.46,120.48,305.46,120.48,299.75,120.72Z"/><path class="cls-11" d="M290.38,107.75c-3.15,1.36-6.46,1.27-9.78,1.06.19-1.41,1.31-1,2.14-1C285.29,107.71,287.83,107.75,290.38,107.75Z"/><path class="cls-8" d="M304.34,114.21l-.15-.26c-.88-1.94.64-4.76-1.08-5.92-1.43-1-3.87-.41-5.86-.52,1.83-.74,3.82.06,5.71-.66,1.09-.42,1.27.74,1.3,1.55C304.33,110.34,304.32,112.28,304.34,114.21Z"/><path class="cls-9" d="M351.73,52.05c.86-1.3.62-2.78.52-4.16-.2-2.84,1.16-4.37,3.72-5.13a13.57,13.57,0,0,0,2.26-.83c1.43-.74,2.12-.34,2.14,1.24s0,3.46,0,5.19a1.79,1.79,0,0,1-1.15,2c-2.26.79-4.32,2.22-6.86,2.13Z"/><path class="cls-12" d="M353.29,53.82c.66.11.85.57.87,1.16C353.53,54.84,353.45,54.3,353.29,53.82Z"/><path class="cls-3" d="M334.65,87.92a90.85,90.85,0,0,1-10.16,13.86l-5-3.24c.28-3.08,3.21-4.62,4.23-7.26l5.16-6.85C331.5,84.49,333,86.32,334.65,87.92Z"/><path class="cls-3" d="M237.46,340.12c10,0,26-1,33-1,2.37-10.78,9-50.87,11.36-61.63.89-3.94.94-3.83-2.87-4.95-3.23-1-6.41-2.09-9.56-3.26-1.43-.54-2.27-.34-2.89,1.13C262.81,279.16,237.17,336.4,237.46,340.12Z"/><path class="cls-3" d="M30.46,339.12h97c6.6-8.84,92.89-88.43,99.52-97.24,2.43-3.22,2.43-3.1-.58-5.69-2.54-2.2-5-4.55-7.36-6.92-1.09-1.07-1.93-1.24-3.1-.15C209,235.56,31.73,335.61,30.46,339.12Z"/><path class="cls-3" d="M156.46,339.12h35C195.76,329,244,272,248.35,261.89c1.58-3.71,1.62-3.59-1.92-5.39-3-1.52-5.92-3.22-8.81-4.95-1.31-.78-2.16-.75-3,.59C229.35,260.06,156.85,335.41,156.46,339.12Z"/><path class="cls-1" d="M603.46,339.12H.46v-113s83.84,5,129,25c24.09,10.63,164.83,70.8,191,68,56-6,104.49-31.68,150-45,33.93-9.94,133-48,133-48Z"/><path class="cls-2" d="M222.36,339.12c-5.22-1.29-10.36-2.84-15.41-4.54-12-4-20.58-10.55-23.47-21.67-2.2-8.44-9.41-12.74-19-14.67-6.53-1.31-12.78,0-18.8,1.78-3.13.92-4.36.8-5.64-2-6.64-14.28-20.4-21.86-38.56-22.26a51.1,51.1,0,0,0-23.89,4.91A37.32,37.32,0,0,1,55,284.19c-7.74-1.2-13.3-4.07-16.71-10.09-2.46-4.36-4.8-8.76-8.19-12.76-7.32-8.62-17.26-12.93-29.63-13.71V178.12c1.63.54,3.28,1,4.87,1.63,5.15,1.93,9,5.45,13.5,8.1,5.08,4.84,10.12,9.76,12.58,16,1.29,3.23,2.76,3.56,6.37,2.21,16.31-6.07,32.25-5.42,47.54,2.6,5.51,3,10.9,6.14,14.81,10.68,2.13,2.48,4.71,3.48,8.48,3.32,5.07-.21,10.24-.59,15.24.73,9.05,2,15.75,6.48,20.5,13.24,1.43,2,3.56,3.72,5.38,5.56a67.21,67.21,0,0,0,27.45,12.52,37.57,37.57,0,0,0,6.62,0c2.78-.47,5.79-1.29,5.56-4.46-.22-2.94,1.1-5.57,1.95-8.3a1.81,1.81,0,0,0,1.72-1.15c1.67-4.49,6.49-7.28,10.7-8.42,8.52-2.31,17.67-1.45,24.46,4.14,3.69,3.05,7.24,3.82,12.11,3.95,14.95.4,26.11,13,24.42,25.47-.48,3.5-1.18,7,1.32,10.52,4.68,6.52,11.26,10.78,19.78,13.09h0c-2.62,1.53-5.41,1.1-8.13.38-6.11-1.63-12.17-3.37-18.26-5.06l-9.92-2.67a42.78,42.78,0,0,0,5.94,6.91c.23.49,3.14,1.95,3.56,2.19,8.46,4.82,16.51,10.2,26.05,13.56,11.33,3.55,22.89,5.34,35,3.28,10,.47,54.41-7,63.79-11.22,6.39-2.46,10.75-6,11.7-9.71-1.67,1-3.64,1.18-4.92,1.89-4.18,2.31-9.33,2.27-13.5,4.41-4.28.41-8.52,1.56-13.8,1l16.57-6.5a41.11,41.11,0,0,0,22.28-16.91c7.71-7.74,17.11-12.43,29.62-11.45,10,.26,19.82,2.27,29.9,1.78,4.77-.23,9.11-1.69,13.65-2.59,6.23-2.28,11.31-5.94,16.3-9.7,6-4.51,12.67-7.63,21-7.31.57-.17,1.54-.24,1.65-.54,3.42-9.28,12.73-12.43,22.3-15.66,7.19-2.43,14.5-.84,21.71-1.53,5.77.06,11.54.23,17.31.16a35.65,35.65,0,0,0,24.05-9.51c1.28-1.15,1.7-3,3.76-3.49v39.6a17.77,17.77,0,0,1-7.08-3.23c-11.29-8-30.4-.1-33.2,9.79-1,3.48-2.72,4-6.57,3.19-6.76-1.45-13.32.06-19.61,2.08-4.59,1.48-6.59,4.91-7.63,8.74-1.5,5.49-2.45,11.08-4.93,16.37-3.62,7.72-13,13.38-22.08,13.21a17.38,17.38,0,0,1-11.5-4.41C478,285,457.63,290.67,451,302.85c-3.3,6.06-5.66,12.58-11.61,17.5-10,8.32-32.64,16.74-45.91,19.77"/><path class="cls-6" d="M227.44,213.29a12,12,0,0,1,2.35-4.25c7.45-10.33,14.87-20.68,22.38-31,1.24-1.7,1.71-3.12.86-5.24-1.13-2.83-2.1-5.51-4.41-7.8-2.87-2.83-3.4-6.58-1.78-10.44.45,2.4,2.32,3.78,4,5.24,11.36,10.07,22.79,20.07,34.13,30.16,3.94,3.51,11,3.43,14.21.81,1.42-1.15,2.93-2.2,4.43-3.25q17.07-11.85,34.16-23.65c1.42-1,1.37-1.68.45-3.09-1.93-2.94-4.39-5.54-5.86-8.78,3.07-2.17,6.08-4.45,9.24-6.48,3.38-2.18,5.6-1.56,7.71,1.73,1.47,2.29,3,4.56,4.59,6.78,2.73,3.81,2.41,5-1.46,7.46-3,2-6.63,3-9.11,5.83l-23.76,16.57c-3.93,2.74-4,2.88-2.26,7.38-4.29,2.18-7.3,6.1-11.48,8.44-3,1.68-5.63,4.08-9,5-3.71,1-7.52,1.72-11.3,2.48a2.57,2.57,0,0,0-1.66,1.18c-3.24,4.27-3.14,15.68.62,19.38a5.48,5.48,0,0,1,1.59,5A15.29,15.29,0,0,0,288.35,243c3.27,5,3.32,5.06,3.14,11.14-.14,4.76,2.82,8.13,5.06,11.82.82,1.36,1.11,3.48,3.51,3.29a12.65,12.65,0,0,0,6.63-2c4.32-3.05,6.06-7.23,5.78-12.39,1.85,4.86,2.79,10,4.25,14.94,1.14,3.86,2.12,7.64,4.5,11.17,3.26,4.82,5.62,10.27,8.14,15.56s-1.55,12.16-7.54,12.68a32.14,32.14,0,0,1-3.67-.05c-4.57-1.6-6.15-5.75-8.18-9.54-3.62-6.73-6.43-13.92-11.4-19.87-.63-1.16-1.18-2.37-1.89-3.48-12-18.94-22.21-38.73-28.95-60.22-2.32-7.37-5-14.62-7.66-22.22-.82,1.08-1.41,1.89-2,2.68-6.81,8.59-12.08,18.36-20,26.12-1.87-.38-3.81.3-5.68-.5C228.39,220.48,227.28,217.25,227.44,213.29Z"/></g></g></svg>