<svg xmlns="http://www.w3.org/2000/svg" viewBox="0 0 701.15 1081"><defs><style>.cls-1{fill:#e8e9eb;}.cls-2{fill:#43595e;}.cls-3{fill:#f7f7f7;}.cls-4,.cls-5{fill:#323232;}.cls-16,.cls-4{opacity:0.25;}.cls-6{fill:#4d4d4d;}.cls-7{fill:#e1e6e5;}.cls-8{fill:#177764;}.cls-9{fill:#e4b363;}.cls-10{fill:#38302f;}.cls-11{fill:#bea078;}.cls-12{fill:#0e4740;}.cls-13,.cls-16{fill:#313638;}.cls-14{fill:#e0dfd5;}.cls-15{fill:#3d4244;}.cls-17{fill:#fcbc94;}.cls-18{fill:#c0c6ce;}.cls-19{fill:#eaa27d;}.cls-20{fill:#63a6a8;}.cls-21{fill:#07c39b;}.cls-22{fill:#ef6461;}</style></defs><g id="Layer_2" data-name="Layer 2"><g id="work-exp"><polygon class="cls-1" points="701 584.92 0 585 0 0 701 0 701 584.92"/><polygon class="cls-2" points="701 1079.86 0 1080 0 585 701 585.19 701 1079.86"/><polygon class="cls-1" points="457 1077.03 161.18 1055.16 214.54 835 452.66 858 457 1077.03"/><polygon class="cls-3" points="453.24 1081 156.65 1079.66 195.11 856.32 434.22 862.77 453.24 1081"/><path class="cls-4" d="M98.51,972.12c16.44,3.73,33.46,5.33,50,9.06,9.26,2.09,19,3.42,28.61,4.92,17.37,2.72,34.55,6.25,51.85,9.31,11.79,2.08,23.54,4.32,35.32,6.36,6.43,1.12,12.87,2.06,19.1,3.8l.27,2.16c-5.51-.85-11.32.31-16.64-1.69-.22,0-.46.05-.7.06-2,1.43-4-.08-6,0-43.19-4.36-86-10.63-128.77-17.1-12.61-1.91-25.18-4-37.76-6C96.31,979.67,95.18,975.27,98.51,972.12Z"/><path class="cls-5" d="M180,984c9.21,2.35,19,3.33,28.24,5.68,5.18,1.31,10.64,2.08,16,3,9.71,1.62,19.32,3.82,29,5.67,6.59,1.27,13.16,2.64,19.75,3.88a88.59,88.59,0,0,1,10.69,2.35l.18,1.53c-3.08-.5-6.3.43-9.29-.9a2.28,2.28,0,0,1-.39.06c-1.09,1-2.24,0-3.35.1-24.11-2.31-48-6-71.93-9.81-7-1.12-14.07-2.36-21.11-3.54C179.18,989.55,178.19,986.3,180,984Z"/><path class="cls-6" d="M181.78,976.09c15.44,2.76,30.66,6.57,45.9,10.23,16.88,4.06,33.71,8.33,50.28,13.55l6,2.63-.33,2A88.59,88.59,0,0,0,273,1002.2c-6.59-1.24-13.16-2.61-19.75-3.88-9.68-1.85-19.29-4.05-29-5.67-5.35-.89-10.81-1.66-16-3-9.24-2.35-19-3.33-28.24-5.68C180.49,981.31,180.56,978.64,181.78,976.09Z"/><path class="cls-7" d="M283.85,1006.08l-.18-1.53.33-2a12.38,12.38,0,0,1,8.58,3.06C289.44,1007.38,286.61,1006.18,283.85,1006.08Z"/><path class="cls-6" d="M93.63,966.22c.56-4.93.83-5.21,5.38-5.19a2.67,2.67,0,0,0,2.31-.61c4.32-4.49,9.85-5,15.45-4,16,2.89,32,6.06,48,9.14q8.72,1.67,17.41,3.42a20.61,20.61,0,0,1,9.53,4.07c-.15.19-.29.38-.42.58q-30.26-5.82-60.5-11.64c-5.25-1-10.48-1.56-16.41,1.71l55.86,10c-.53,2.51.25,5.74-.28,8.24a39,39,0,0,1-4.93-.83c-10.38-2-20.72-4.23-31.13-6-7.23-1.25-14.29-3.32-21.62-4.14-5.82-.65-11.42-2.71-17.33-2.94C93.74,968,94.34,966.64,93.63,966.22Z"/><path class="cls-5" d="M93.63,966.22c.71.42.11,1.79,1.36,1.84,5.91.23,11.51,2.29,17.33,2.94,7.33.82,14.39,2.89,21.62,4.14,10.41,1.8,20.75,4,31.13,6A39,39,0,0,0,170,982c0,3-2.19,5.11-2.06,8.08l-55.2-11.76c-5.9-1.25-11.82-2.42-17.71-3.69-2.86-.62-3.92-3.22-2.6-6.21C92.77,967.66,93.23,967,93.63,966.22Z"/><path class="cls-8" d="M170.28,973.76a34.12,34.12,0,0,1,11.5,2.33C181,979,180.51,981.82,180,984c-.46,2-1,6-2.22,8-3.31-.46-6.67-.74-9.84-1.91"/><path class="cls-9" d="M109.55,514.44,100.3,525c-1.89,1.36-3.85,2.65-5.67,4.1C78.27,542,58.82,539,44.8,525a16.63,16.63,0,0,1-5.95-6.13,7.63,7.63,0,0,0-4.11-3.54c-2.82-5.15-5.84-10.19-8.41-15.45a122,122,0,0,1-9.52-27.91,14.69,14.69,0,0,1,0-3.25c0-1.84.45-3.61,0-5.54-1.06-5-2.58-10-1.76-15.2.2-1.32-.09-2.66,1.3-3.67.87-.62,3.59-.46,2.07-2.47-1.15-1.53-2-4.72-5.25-2.93.14-4-1.87-6.36-5.3-8.28-2.53-1.41-4.49-3.84-6.37-6.2,3.84-.79,6.56,1.16,9.49,2.4-.35,1.82,1.09,2.68,2.09,3.72,2.57,2.65,5.35,5.11,7.75,7.89,1.62,1.88,3.06,2.28,4.7.45s.78-3.55-1-4.78a51.12,51.12,0,0,0-11.68-6.26C15,427,14.65,425,15,423.3c2.57-14.46,7.2-28.05,16.65-39.62a19.18,19.18,0,0,1,4.58-4.63,11.41,11.41,0,0,1,4.65,1.37,67,67,0,0,0,15.55,5.1c1.5.32,3.1.16,3.8-1.62,1-2.45-.29-4.58-1.28-6.64-.57-1.21-1.95-1-2.92-.44-5.47,3.08-10.23-.53-15.27-1.52,2.82-2.61,5.47-5.47,9.53-6.17A14.54,14.54,0,0,1,51.77,371c.81,1.42,1.79,1.88,3.33,1.08,1.72-.89,1.7-2.32,1.16-3.81A12.25,12.25,0,0,0,54.81,366c3.92-.68,7.82-1.56,11.77-2,17.38-1.94,31.8,4,43.51,16.81a8.83,8.83,0,0,0,3.55,2.74c-1.36,2-2.78,4-4.08,6-2.33,3.71-1.15,6,3.14,6.13,3,.09,6,.05,8.92.07,1.49,7.28,4.88,13.95,6.49,21.23,3.78,17.08,3.21,34.11.14,51.17a7.46,7.46,0,0,1-.94,1.81c-.91.29-1.74,0-2.06,1.75-1.41,7.4-1.59,7.36-9.11,8.3-.28,0-.55,0-.82.09-3.51.65-4.77,3.49-2.45,6.1,3.49,3.92,6.38,7.9,4.7,13.55S112.29,509.57,109.55,514.44ZM82.31,367.29c-.14,1.35-.28,1.67-.18,1.87.44.85.9,1.69,1.42,2.49,6.35,9.77,10.36,20.58,13.62,31.64,2.51,8.57,3.5,17.49,4.9,26.31.68,4.33.1,6.89-4.28,8.56-2.47.94-3.21.91-3.16-1.79a50.14,50.14,0,0,0-1.53-12.25c-.22-1,.13-2.65-1.41-2.5-1.09.1-1.29,1.62-1.55,2.68a66.56,66.56,0,0,0-1.56,20.05c.22,4,2,5,5.64,3,2.59-1.39,5.17-2.81,8.33-4.54,0,5.13.1,9.64,0,14.14s-1,9.35-.55,13.95c.39,4.26-1.63,8-1.47,12.19.17,4.58-1.27,9.22-2,13.83s-1.25,9-2,13.46-1.53,8.75-2.3,13.13c1.38-.51,1.93-1.17,2.14-1.92,2.78-9.91,6.81-19.53,7.95-29.81.55-5,4.17-9.43,2.24-15-.29-.86,1.73-3.94,2-6.25a246.83,246.83,0,0,0,1-27.2c0-3.59-1-7.47,3.29-10.12-2.32-.17-3.92-.07-4.09-2.74-1.15-17.91-7.11-34.32-16.17-49.65A84.47,84.47,0,0,0,82.31,367.29ZM71.66,525c.89-1.38,1.23-1.67,1.28-2A374.77,374.77,0,0,0,77,481.27c.53-17.55,1.85-35.12.32-52.69-.17-2,.89-5.12-.73-5.72-1.85-.69-3.63,2-4.83,3.62-1.72,2.26-5.45,3.46-5.23,6.49.23,3.34-.48,6.54-.33,9.82.9,19.74.4,39.54,2.5,59.22C69.49,509.33,70.57,516.61,71.66,525ZM29.47,465.3c-.12,1.86,1.08,2.4,2.05,3.13,7,5.23,7.5,11.22,1.55,17.34-.67.69-1.37,1.35-2.05,2-.39.38-.89.76-.6,1.39a1.34,1.34,0,0,0,1.76.6,8.72,8.72,0,0,0,2.29-.89c3-1.83,4.13-.92,4.91,2.45,2.07,8.82,4.55,17.55,6.92,26.31.33,1.21.3,3.28,2.1,2.9,1.37-.3.8-2.18.56-3.28-2-9-3.05-18.13-4.42-27.22-.58-3.87.49-6,3.53-7.68,1-.53,2-1,2.85-1.61,4.32-2.9,4.3-5.08-.37-7.16-5.88-2.63-10-6.16-8.89-13.38.31-2.11-.2-3.72-3.07-3.59s-3.9,1-3.84,3.93C34.86,466.27,34.71,466.27,29.47,465.3Zm46.21-71.42c1.09-3.51-1.14-5.47-3.22-7.48-.77-.74-1.51-1.84-2.76-1.32s-.88,1.86-1,2.9c-.51,6.4-1,12.8-1.49,19.21-.24,3.25-.08,6.13,4.58,4.39a5.57,5.57,0,0,1,2.45-.1c2,.18,2.38-.65,2.43-2.62C76.82,403.79,76.12,398.79,75.68,393.88Zm-33,32.52c.7-2.77-1.82-2.36-3.55-2.73-2.13-.47-3.4.12-3.54,2.6-.43,7.67-1,15.33-1.47,23-.15,2.28,1.17,3.24,3.21,3.44,2.38.23,3.67-.89,3.63-3.32A152.65,152.65,0,0,1,42.7,426.4Zm30-59.9-1.5.21c.95,5-4.25,11.08,3.64,15.74C74,376.65,73.36,371.58,72.68,366.5Zm-21,21.91c-.12-1.24-.29-2.94-1.43-3.16-1.9-.36-2,1.9-2.64,3-.93,1.6-3.1,3.12-1.53,5.43a2.25,2.25,0,0,0,2.54.92c2.61-.84,2.06-3.54,3-5.38A2.13,2.13,0,0,0,51.68,388.41Z"/><path class="cls-10" d="M117.57,499.72c1.68-5.65-1.21-9.63-4.7-13.55-2.32-2.61-1.06-5.45,2.45-6.1.27-.05.54-.06.82-.09,7.52-.94,7.7-.9,9.11-8.3.32-1.73,1.15-1.46,2.06-1.75-.23,2.95-3,6.31-1.17,8.53,1.58,1.92,5.43.34,8.26.63,1.22.12,2.45.14,4.63.27-4,2.84-7.93,3.59-11.74,4.62-5.32,1.43-5.85,2.64-3,7.24a79.92,79.92,0,0,1,5.9,10.9,26.56,26.56,0,0,1-6.71-4.93C120,494,120,494,118.06,498.59,117.9,499,117.74,499.34,117.57,499.72Z"/><path class="cls-10" d="M121.62,395.72c-3,0-6,0-8.92-.07-4.29-.12-5.47-2.42-3.14-6.13,1.3-2,2.72-4,4.08-6,3.42-3.73,6.31-8,11.36-11.8a64.36,64.36,0,0,1-6.07,14c-1.54,2.76-1.93,4.15,2.07,4.56a53.12,53.12,0,0,1,14.84,3.24A69.5,69.5,0,0,1,121.62,395.72Z"/><path class="cls-10" d="M40.71,375.3c5,1,9.8,4.6,15.27,1.52,1-.55,2.35-.77,2.92.44,1,2.06,2.23,4.19,1.28,6.64-.7,1.78-2.3,1.94-3.8,1.62a67,67,0,0,1-15.55-5.1,11.41,11.41,0,0,0-4.65-1.37c.34-.47,0-.72-.32-.95,0-.69.11-1.39.16-2.08C37.61,376,39.23,376.12,40.71,375.3Z"/><path class="cls-10" d="M13.18,438.86c3.25-1.79,4.1,1.4,5.25,2.93,1.52,2-1.2,1.85-2.07,2.47-1.39,1-1.1,2.35-1.3,3.67-.82,5.23.7,10.21,1.76,15.2.42,1.93-.07,3.7,0,5.54A99,99,0,0,1,14.15,448c-.08-2.46-.73-3.14-3.2-2.21-2.9,1.1-6,1.78-9.78,2.88C5,444.2,9.33,441.82,13.18,438.86Z"/><path class="cls-10" d="M12.84,427.8a51.12,51.12,0,0,1,11.68,6.26c1.8,1.23,2.75,2.86,1,4.78s-3.08,1.43-4.7-.45c-2.4-2.78-5.18-5.24-7.75-7.89-1-1-2.44-1.9-2.09-3.72Z"/><path class="cls-10" d="M54.81,366a12.25,12.25,0,0,1,1.45,2.34c.54,1.49.56,2.92-1.16,3.81-1.54.8-2.52.34-3.33-1.08a14.54,14.54,0,0,0-1.53-1.89c1.6-3-.28-6.17.56-9.37C52.89,361.4,53.4,364,54.81,366Z"/><path class="cls-11" d="M36,376c-.05.69-.11,1.39-.16,2.08-1.37.19-2.1-.6-1.83-1.77C34.24,375.43,35.29,375.81,36,376Z"/><path class="cls-12" d="M109.72,633.19l-79,1.15a11.88,11.88,0,0,1-11.88-11.88l-6.93-85.11c0-6.57,7.63-20.79,14.19-20.79L72,530.38l43.52-13.82c6.56,0,14.19,11.92,14.19,18.48l-8.08,86.27A11.88,11.88,0,0,1,109.72,633.19Z"/><path class="cls-10" d="M44.8,514.69c14,14,33.47,17.08,49.83,4.14,1.82-1.45,3.78-2.74,5.67-4.1,3.14.11,6.28.35,9.41.31,4.76-.06,9.21.5,11.31,5.55,2,4.76-.16,8.46-3.55,11.69a26.69,26.69,0,0,1-7.71,1q-37.73-.07-75.45,0c-3.21,0-6.3-.2-9.18-1.73a37.4,37.4,0,0,1-2.22-3.94c-2.55-6.08,1.63-12.08,8.72-12.47C36,514.86,40.41,514.82,44.8,514.69Z"/><path class="cls-10" d="M82.31,367.29a84.47,84.47,0,0,1,10.22,13.57c9.06,15.33,15,31.74,16.17,49.65.17,2.67,1.77,2.57,4.09,2.74-4.25,2.65-3.33,6.53-3.29,10.12a246.83,246.83,0,0,1-1,27.2c-.22,2.31-2.24,5.39-2,6.25,1.93,5.55-1.69,10-2.24,15-1.14,10.28-5.17,19.9-7.95,29.81-.21.75-.76,1.41-2.14,1.92.77-4.38,1.6-8.75,2.3-13.13s1.29-9,2-13.46,2.14-9.25,2-13.83c-.16-4.23,1.86-7.93,1.47-12.19-.43-4.6.43-9.3.55-13.95s0-9,0-14.14c-3.16,1.73-5.74,3.15-8.33,4.54-3.65,2-5.42,1-5.64-3a66.56,66.56,0,0,1,1.56-20.05c.26-1.06.46-2.58,1.55-2.68,1.54-.15,1.19,1.53,1.41,2.5a50.14,50.14,0,0,1,1.53,12.25c0,2.7.69,2.73,3.16,1.79,4.38-1.67,5-4.23,4.28-8.56-1.4-8.82-2.39-17.74-4.9-26.31-3.26-11.06-7.27-21.87-13.62-31.64-.52-.8-1-1.64-1.42-2.49C82,369,82.17,368.64,82.31,367.29Z"/><path class="cls-10" d="M71.66,525c-1.09-8.38-2.17-15.66-3-23-2.1-19.68-1.6-39.48-2.5-59.22-.15-3.28.56-6.48.33-9.82-.22-3,3.51-4.23,5.23-6.49,1.2-1.59,3-4.31,4.83-3.62,1.62.6.56,3.72.73,5.72,1.53,17.57.21,35.14-.32,52.69A374.77,374.77,0,0,1,72.94,523C72.89,523.32,72.55,523.61,71.66,525Z"/><path class="cls-10" d="M29.47,465.3c5.24,1,5.39,1,5.28-4.73-.06-2.93,1.1-3.81,3.84-3.93s3.38,1.48,3.07,3.59c-1.09,7.22,3,10.75,8.89,13.38,4.67,2.08,4.69,4.26.37,7.16-.9.6-1.89,1.08-2.85,1.61-3,1.71-4.11,3.81-3.53,7.68,1.37,9.09,2.46,18.22,4.42,27.22.24,1.1.81,3-.56,3.28-1.8.38-1.77-1.69-2.1-2.9-2.37-8.76-4.85-17.49-6.92-26.31-.78-3.37-1.91-4.28-4.91-2.45a8.72,8.72,0,0,1-2.29.89,1.34,1.34,0,0,1-1.76-.6c-.29-.63.21-1,.6-1.39.68-.68,1.38-1.34,2.05-2,6-6.12,5.42-12.11-1.55-17.34C30.55,467.7,29.35,467.16,29.47,465.3Z"/><path class="cls-10" d="M75.68,393.88c.44,4.91,1.14,9.91,1,15,0,2-.43,2.8-2.43,2.62a5.57,5.57,0,0,0-2.45.1c-4.66,1.74-4.82-1.14-4.58-4.39.47-6.41,1-12.81,1.49-19.21.09-1-.31-2.37,1-2.9s2,.58,2.76,1.32C74.54,388.41,76.77,390.37,75.68,393.88Z"/><path class="cls-10" d="M42.7,426.4a152.65,152.65,0,0,0-1.72,23c0,2.43-1.25,3.55-3.63,3.32-2-.2-3.36-1.16-3.21-3.44.49-7.67,1-15.33,1.47-23,.14-2.48,1.41-3.07,3.54-2.6C40.88,424,43.4,423.63,42.7,426.4Z"/><path class="cls-10" d="M72.68,366.5c.68,5.08,1.36,10.15,2.14,15.95-7.89-4.66-2.69-10.7-3.64-15.74Z"/><path class="cls-10" d="M51.69,388.41a2.35,2.35,0,0,1-.09.81c-.92,1.84-.37,4.54-3,5.38a2.25,2.25,0,0,1-2.54-.92c-1.57-2.31.6-3.83,1.53-5.43.65-1.1.74-3.36,2.64-3C51.39,385.47,51.56,387.17,51.69,388.41Z"/><path class="cls-10" d="M57.25,283.73c.16-2.74-.42-5.6,1-8.17,2.36-4.36,6.23-5.77,11-5.76,20.31.07,40.62,0,60.93,0H298.9l111.5,0,168.39,0h59.73c8.28,0,12,3.53,12.05,11.72.1,16.37,0,32.73.14,49.09,0,1.72.29,3.8-.25,5.08,0,1.47-.1,2.94-.1,4.4q0,112.14,0,224.28c0,13.64.1,27.29.14,40.93,0,4.46-.27,8.95.07,13.39.51,6.59-.91,12-7.18,15.36l-7.69-.21A28,28,0,0,0,630,623.57c2.55,0,5.12-.17,7.67,0,2,.11,2.47-.7,2.43-2.54-.14-6-.14-11.94-.19-17.9a7.54,7.54,0,0,0,.46-2.13c-.82-8.5-.25-17-.26-25.52Q640,430,640.13,284.5c0-3.5-1.16-4.27-4.41-4.24-15.25.14-30.51.07-45.76.07H72.77c-4.87,0-4.9,0-4.9,4.74q0,29.64,0,59.3,0,113.56,0,227.14c0,10.52.1,21,.16,31.55-.06,4.62-.09,9.24-.2,13.85-.14,6.43-.17,6.43,6,6.69-3.65,3.35-7.07,7-11.47,9.44-4.19-3.67-5.11-8.38-5-13.77.24-18.29.19-36.58.23-54.87,0-1.57-.2-3.13-.3-4.69l0-1.54c0-2.61.26-3.92.26-5.84q.13-103.22.07-206.43,0-28.25,0-56.49"/><rect class="cls-13" x="118.28" y="637.26" width="457.06" height="90.04"/><path class="cls-14" d="M490.21,595.43c-3.34.85-5.77,3.17-8.35,5.24-1.09.87-1.75,2.32-3.36,2.48-1.34,0-2.68-.1-4-.1q-99.9,0-199.79,0-36.12,0-72.23.12c-5.77-1.86-11.69-1.9-17.65-1.52-3-.46-6.28,1.17-8.8-1.6-6.19-8.22-14.13-13.23-24.69-13.29-3,0-6.07.16-9.1.25a18.85,18.85,0,0,1-11-1.87,11.68,11.68,0,0,0-6.64-1.1c-10.43-.06-18.77,4.46-26.2,11.44-2.61,2.45-4.11,6-7.48,7.63l-22.89-.07c-.06-10.52-.16-21-.16-31.55q0-113.58,0-227.14,0-29.66,0-59.3c0-4.73,0-4.74,4.9-4.74H590c15.25,0,30.51.07,45.76-.07,3.25,0,4.41.74,4.41,4.24q-.15,145.47,0,290.94c0,8.5-.56,17,.26,25.52a7.54,7.54,0,0,1-.46,2.13L615.18,603c-1.35-5.26-3.76-10.3-7.72-13.72-6.93-6-15.18-9.43-24.73-8.32-3.25,0-6.51,0-9.76.06a12,12,0,0,0-7.87,2.77c-2.75-.63-4.2-4-7.5-3.47-4.36-3-9.26-3.82-14.46-3.56s-10.2,1.92-15.28,2.93c-4.47,1.53-8.82,3.19-9.59,8.77-.13,8.14,4.05,12.07,12.2,11.64,3.77-.19,7.55-.17,11.32-.16,2.08,0,3.9.55,4.18,3.08l-23.43-.29c-3.06-.41-4-3.44-6.18-5a28.26,28.26,0,0,0-21.29-5A6.89,6.89,0,0,0,490.21,595.43Z"/><rect class="cls-15" x="76.06" y="290.3" width="557.01" height="302.97"/><path class="cls-16" d="M600.85,796.05h25.07L701,850.4V903s-6.25-13.39-45-51C594.09,791.91,600.85,796.05,600.85,796.05Z"/><path class="cls-17" d="M5.52,779c-1,.07-1.35.78-1.7,1.53"/><path class="cls-18" d="M70.84,726.52C53.74,735.64,4.73,779,4.73,779l4.56,2.28h34.2s13-11,18-13.61a56.92,56.92,0,0,1,12.85-4.22c17.47-2.86,53.23-.42,70.72-3.16,17.75-2.78,69.37-18.9,69.37-18.9l-54.72-4.56-50.15,1.14S79.64,721.83,70.84,726.52Z"/><path class="cls-17" d="M1,679c.8-.53,17.29-12.88,24.05-17.41,6.29-4.21,13.2-7.66,19.27-12.26s11.53-9.74,17.23-14.7c.41-.36.53-1.06.78-1.6,4.4-2.45,7.82-6.09,11.47-9.44,1.84-.51,2.74-2.25,4.24-3.26a33.76,33.76,0,0,0,12.9-17.21c3.37-1.67,4.87-5.18,7.48-7.63,7.43-7,15.77-11.5,26.2-11.44.64.3,3.55.56,4.38,1-7.12,4.48-14.69,7.23-18,16,.87-.39,3.65-1.74,4-2,6.36-4.75,9.49-5.15,16.48-8.84,3.51-1.86,7.56-.8,10.73-3.14,3-.09,6.07-.26,9.1-.25,10.56.06,18.5,5.07,24.69,13.29-3.64-1.12-7.4-1-11.1-.68a30.78,30.78,0,0,0-15.05,5c-5.09,3.4-9.31,7.8-14.14,11.48a8.37,8.37,0,0,0-3.29,5c1.9-.71,3.29-1.14,4.6-1.75,10.6-4.86,21.47-9.05,32.29-13.4,5-2,10.5-2.05,15.49-4,6-.38,11.88-.34,17.65,1.52.09,1,1.14,1.14,1.57,1.84a88.2,88.2,0,0,0-21.17,8.82c-9.83,6-16.14,13-21.85,23.16-1.61,2.88-3.26,4.57-3,8,.09,1.17-.16,2.35,1,2,3.12-1,6.17,2.77,8.05-1.45,3.5-1.5,7.53-1.71,10.53-4.4l8-2c4.92-1.36,10.13-1.33,14.94-3.17l16.8-.15c.79,1.42,1.69.62,4,1.76,1.11.55,2.28.26,3.29,1.42l3.61,2.14,1,1.49c-1.8.53-3.43,5.24-5.16,5.33-15.67.85-26.78,3.67-40,12-11.88,7.48-19.47,14.77-30,24a156.11,156.11,0,0,0-18,18c-.87,1-9-.44-7.43,1a50.18,50.18,0,0,0,25.28,11.48l2.91.22c4.43.64,8.82,1.64,13.34,1.28l2.91.18c12.71.78,25.49,1,37.81,4.84l.91,0,2.21.21c1.53,1.55,3.13,3,4.56,4.66,2.42,2.76,4.32,7.48,1.44,12-2.54,4-6.42,4.76-10.73,4.57-2.93-1.85-6.19-1.41-9.39-1.34l-3.19,0c-1.82.08-3.75-.19-5.46.31-10.93,3.19-22.28,3.41-33.45,3.94-9.87.47-19.91,1.53-29.8-1.12-3.57-1-7.19-.4-11-2.46-5.28-2.91-11.47-4.37-17.3-6.29-8.14-2.68-16.25-5.36-24.21-8.52a5.56,5.56,0,0,0-5.82.59c-3.83,2.76-7.29,5.95-11,8.89-4.21,3.37-8.38,6.82-12.65,10.13-5.49,4.25-39.79,30-45,34.52"/><path class="cls-17" d="M651,813.15c-9.4-6.34-.34-2.63-19.18-12.49-3.45-1.8-6.65-4.11-10.44-5.22-4.69-2.35-9.29-4.9-14.08-7-6.11-2.68-11.68-6.7-18.5-7.69-.23-.41-.36-1.07-.7-1.2-6.89-2.67-13.49-6-20.25-8.93-2.69-1.16-4.82-3.19-8.15-3.53-5.15-.53-10.11-2.87-15.27-3.46-6.78-.78-13.15-3.68-20.09-3.5a70.38,70.38,0,0,1-15.62-1.19,69.34,69.34,0,0,1-25.18-10.82,191.44,191.44,0,0,1-25.1-20.36,30,30,0,0,0-9.48-6.61c-.06-.54-.39-.66-.86-.55-3.42-3.49-8.24-3.28-12.45-4.7a20.18,20.18,0,0,1-4-10c.73-1.62,1.45-3.25,2.18-4.87,5.1-5.15,11.33-4.74,17.58-3.29,4.18,1,8.21,2.58,12.3,3.91l9.25,4.25c3.57,2.18,6.63,5.39,11.16,5.67a25,25,0,0,0,7.63,4.08l2.2.9c3.39,2.31,7.46,2.81,11.21,4.15,1.57.56,2.68.12,2-2a17.31,17.31,0,0,1-.43-2.51c.26-3.21.26-7.21.19-11,0-1.09,0-2.19,0-3.28.31-1.41-.24-1.52.08-2.93,0,0,.47-1.44.71-2.51l0-5.11q-.12-20.61-.25-41.21c-.23-1.26-.05-2.62-1-3.71a18,18,0,0,0-1.5-5.52c-.09-.71-.19-1.42-.28-2.13.34-1.91-1-3.34-1.44-5-.34-3.31-2.33-6.07-3.09-9.24.22-2.08-.45-3.56-2.74-3.77-1.77-.17-3.09.36-3,2.5a28.24,28.24,0,0,0-8.84,10.5,3.66,3.66,0,0,0-2.62,2.65c-.33,1.62-1.6,1.88-2.81,2.32-3,1.26-6,1.72-9.08,0-3-.39-3.18-3.65-5.22-5-1.05-3.53-.28-6.87,1-10.17,2.43-4.24,5-8.4,7.21-12.76,1.34-2.66,4.25-4.39,4.45-7.68,1.61-.17,2.27-1.62,3.36-2.49,2.58-2.07,5-4.39,8.35-5.24a74.12,74.12,0,0,1,9.08.38c3.08.49,6.23,1.18,8.8,3.21,8.51,6.71,17.16,13.42,21.91,23,5.86,11.79,10.77,23,16,35,3.17,7.29,8.5,12.56,16,17,8.72,5.17,17.6,11.3,27,15,14.81,5.84,24.16,11.24,39,17,1.29.5,2.12,5,3.48,4.89a16.15,16.15,0,0,0,6.13,3.19c9.89,3.34,19.56,7.24,29.19,11.27,6.83,2.85,27,13.61,34.2,15.65"/><path class="cls-16" d="M4.73,780.09s3.42,10.26,11.4,16H70.84A288.39,288.39,0,0,0,31,832.52C10,856,1,873,1,873V784Z"/><path class="cls-13" d="M701.15,741.34c-21.82-5.82-37.26,7.46-49,20.52-14.82,20.51-2.28,41-1.14,51.29L701,850"/><path class="cls-13" d="M588.8,780.74c6.82,1,12.39,5,18.5,7.69,4.79,2.11,9.39,4.66,14.08,7-1.22,1.24-2.78.73-4.18.72-15.77-.12-31.55-.65-47.31-.4-28.86.48-57.71.09-86.57.24-16.52.08-33,0-49.55,0H304q-72.59,0-145.19,0-61.07,0-122.14.21c-5.49,0-11-.35-16.46.09-5.64.45-8.91-2.32-11.58-6.66-1.79-2.92-2.62-6.34-4.78-9.06.35-.75.74-1.46,1.7-1.53,1.84.58,3.66,1.57,5.52,1.67,9.61.51,19.24.35,28.86,0,21.4.06,42.8.17,64.2.17q223.28,0,446.56,0C563.37,780.91,576.09,780.8,588.8,780.74Z"/><path class="cls-1" d="M687,735c-7-3-13.37-6.8-20.2-9.65-9.63-4-19.3-7.93-29.19-11.27a16.15,16.15,0,0,1-6.13-3.19c-1.82-13-3.41-26.08-5.6-39a12.54,12.54,0,0,1,2-9.88c5.73-8.48,9.69-17.49,7.78-28.1l7.69.21c8.31,3.22,8.89,11.61,11.71,18.24,7.17,16.85,13.84,33.9,20.51,51C679.57,713.38,683.75,724.61,687,735Z"/><path class="cls-19" d="M585,639c1,2,.21,2.67.48,4.29.4,2.36,1.51,3.06,3.69,3,3.91-.08,7.82-.13,11.73,0,2.86.11,3.78-1.06,3.9-3.87.21-5.22,1.25-10.43,1.2-15.64-.08-6.69,2.79-13,1.07-20-2.65-10.73-7.74-19.05-18.32-23.32-2-.82-4-1.69-6-2.54,9.55-1.11,17.8,2.32,24.73,8.32,4,3.42,6.37,8.46,7.72,13.72-.45,2.07.61,4,.62,6,.2,2,.89,3.23,1.2,5,.07.41-.56,1.59-.49,2-1,8.72-2,17.42-2.3,26.21-.11,3.33,1.26,4.32,4.35,4.12,2.68-.18,3.85-1.77,4.54-4,2.55-8.28,2.31-16.32-2.22-23.94,3.7.56,6.2,3.23,9.1,5.2a28,28,0,0,1,5.72,10.29c1.91,10.61-2.05,19.62-7.78,28.1a12.54,12.54,0,0,0-2,9.88c2.19,13,3.78,26,5.6,39a8.39,8.39,0,0,1-3.91-.68C612.72,704.46,597.83,698.82,583,693a189.73,189.73,0,0,1-27.15-13.34c-7.49-4.44-10.9-11.72-14.07-19-5.22-12-8.79-24.76-14.65-36.55-4.75-9.56-10.55-18.35-19.06-25.06-2.57-2-5.72-2.72-8.8-3.21a74.12,74.12,0,0,0-9.08-.38,6.89,6.89,0,0,1,4.86-2.64,28.26,28.26,0,0,1,21.29,5c2.15,1.51,3.12,4.54,6.18,5L536,623.57c1.82,3.49,2.53,7.61,5.79,10.28-.77,2.11.06,3.72,1.61,5.1.78,3.33,3.21,1.7,5.1,1.69a25.69,25.69,0,0,1,.48,3.23c0,1.67.74,2.48,2.44,2.42,6.7-.23,13.4.38,20.11-.36,1.94-.22,2.55-1,3.25-2.7,2.14-5.06-.94-10.22-1.76-15.23-.86-5.26-1.15-10.73-2-16-1.76-10.9-5.37-19.78-13-28-.85-.92-.25-2.59-.4-3.67,3.3-.57,4.75,2.84,7.5,3.47,3.74,5.29,8.06,10.22,10.33,16.43.28.76.75.89,1.38.53,2.51-1.41,3.43.48,4.47,2.12-5.14.38-5.2.48-3.44,5.27.29.78.43,1.63.73,2.41,1.56,4.12,1.58,8.69,3.63,12.66a26.68,26.68,0,0,0,.76,7.34c.59,2.82,2,5.44,2,8.44"/><path class="cls-1" d="M615.8,609c0-2-1.07-3.92-.62-6l24.71.08c.05,6,.05,11.93.19,17.9,0,1.84-.44,2.65-2.43,2.54-2.55-.13-5.12,0-7.67,0-2.9-2-5.4-4.64-9.1-5.2l0,0c-.28-.69-.9-.85-1.54-1a3.46,3.46,0,0,0-2.87-1.39c-.07-.41-.13-.82-.2-1.23A50,50,0,0,0,615.8,609Z"/><path class="cls-1" d="M68.05,603.05l22.89.07A33.76,33.76,0,0,1,78,620.33c-1.5,1-2.4,2.75-4.24,3.26-6.12-.26-6.09-.26-6-6.69C68,612.29,68,607.67,68.05,603.05Z"/><path class="cls-1" d="M211,742.48c4.38.31-6.84-1.14-1.83-.11,4.31.19,8.19-.58,10.73-4.57,2.88-4.51,1-9.23-1.44-12-1.43-1.64-3-3.11-4.56-4.66a.82.82,0,0,1,.4-.26c1.58.09,3.16.24,4.74.25q26.41.09,52.83.14,79.65,0,159.31,0c1.33,0,2.67-.17,4-.27h5.69a33.88,33.88,0,0,0,8,.16,30,30,0,0,1,9.48,6.61,191.44,191.44,0,0,0,25.1,20.36,69.34,69.34,0,0,0,25.18,10.82,70.38,70.38,0,0,0,15.62,1.19c6.94-.18,13.31,2.72,20.09,3.5,5.16.59,10.12,2.93,15.27,3.46,3.33.34,5.46,2.37,8.15,3.53,6.76,2.95,13.36,6.26,20.25,8.93.34.13.47.79.7,1.2-12.71.06-25.43.17-38.14.17q-223.29,0-446.56,0c-21.4,0-42.8-.11-64.2-.17,4.54-6.55,11.07-10.39,18.19-13.48,10.77-4.69,22.26-5.13,33.7-5.75s22.92-1,34.38-1.47m172.4,16.85v0c20.43,0,40.85,0,61.27,0a33.44,33.44,0,0,0,7.27-.78c4.65-1.07,6.46-3.56,6.34-8.33-.29-12.1-.69-24.2-.91-36.31-.07-3.28-1.47-5.27-4.48-6.33A18.44,18.44,0,0,0,362,724q-59.61,0-119.22,0a18.73,18.73,0,0,0-8.44,2.14,5.46,5.46,0,0,0-3.08,3.84c-.66,3.1-1.17,6.22-1.73,9.33-1.62,9-2.42,18.09-4.3,27-1.16,5.54-.46,7.2,3.16,9,2.92,1.42,6.13,1.51,9.32,1.51Z"/><path class="cls-1" d="M202.45,603.18q36.12-.06,72.23-.12,99.88,0,199.79,0c1.35,0,2.69.07,4,.1-.2,3.3-3.11,5-4.45,7.69-2.19,4.36-4.78,8.52-7.21,12.76q-35.2-.06-70.43-.12-89.13,0-178.28,0c-1.35-1.51-1.48-3.57-2.33-5.31-2.69-5.51-5.56-10.83-11.78-13.17C203.59,604.32,202.54,604.17,202.45,603.18Zm161.76,1.38c-5.18,0-8.45,3.29-8.43,8.48s3.47,9,8,9c5.39,0,9.2-3.62,9.28-8.76A8.67,8.67,0,0,0,364.21,604.56ZM280.69,622a8.74,8.74,0,1,0-8.69-8.66A8.89,8.89,0,0,0,280.69,622Zm113.39-8.74a8.79,8.79,0,0,0-17.57,0,8.79,8.79,0,0,0,17.57,0Zm-63.12.16c.07-5.29-3.38-8.94-8.38-8.9a8.72,8.72,0,0,0-.37,17.44C327.3,622.14,330.9,618.63,331,613.44Zm83.87.14a8.61,8.61,0,1,0-17.21-.62,8.41,8.41,0,0,0,8.44,9A8.5,8.5,0,0,0,414.83,613.58Zm21.09-.05a8.9,8.9,0,0,0-8.74-9,8.81,8.81,0,0,0-8.85,8.48,8.8,8.8,0,0,0,17.59.5Zm-125.55-.21a8.64,8.64,0,0,0-8.85-8.78,8.47,8.47,0,0,0-8.42,8.72c.13,5.19,3.77,8.83,8.79,8.77A8.6,8.6,0,0,0,310.37,613.32Zm41.82-.26c0-4.47-4.11-8.47-8.75-8.43-4.81,0-8.84,3.8-8.61,8.54.25,5.05,3.35,8.76,8.51,8.91C347.85,622.21,352,617.82,352.19,613.06Z"/><path class="cls-15" d="M221.29,673c-8.72,0-20,.31-28.68.29-.25-.84.48-.87.92-1.15a7.71,7.71,0,0,0,2.69-1.42c4.46-3.11,9.61-2.93,14.47-5,3.07-1.3,6.73-.51,8.32,1.59"/><path class="cls-15" d="M240.89,660c-.5-3.24-4.18-4.74-4.78-8.67,4.16,0,10-.67,14.14-.56,2,.06,4.52,0,4.23,3.18-.26,2.79-.33,5.77-4.47,5.75C247,659.65,243.91,659.29,240.89,660Z"/><path class="cls-19" d="M213.32,666.11c-2.39-.41-3.67.57-5.7,1.14-5.14,1.44-5.7,1.14-8,2.28C199.2,669.8,193,673,193,673c-1.62.77-4.33,2.57-6.35,3.66a132.73,132.73,0,0,0-9,10.42C176,689,174.94,689.56,174,691a50,50,0,0,0-4,4c-3.46,2.67-5.8,7.43-8.86,10.49a20.13,20.13,0,0,0-4.27,4.61,3.94,3.94,0,0,0-3,4.35A50.18,50.18,0,0,1,128.57,703c-1.62-1.41-.56-2.27.31-3.31,5.62-6.79,12.17-12.69,18.74-18.46,10.53-9.23,21.42-18.11,33.31-25.59a89.17,89.17,0,0,1,43.35-13.93c1.73-.1,3.08,1.52,4.88,1,2.57.66,3.28,2.68,4.67,4.07a16.74,16.74,0,0,1,3.42,4.56c1.14,2.27,3.14,5.43,3.64,8.67.19,1.41,0,2.66.11,4-.07,3.09.78,6.23.71,9.32a23.25,23.25,0,0,1-.18,4.63c-.57,2.68-1.13,5.36-1.7,8-1.44,2.92-2.48,5.36-4.86,6.34,0,0-4.56,2.28-11.4-1.14-2.75-1.38-1.14-17.1-4.56-22.8"/><path class="cls-1" d="M471.07,638.78c-17.37.05-34.74.12-52.11.12H227.87c-1.1,0-2.2.09-3.29.14-1-1.16-1.78-.88-3.29-1.42-1.79,0-3.18-.34-4-1.75l1.42-2.06q48.39,0,96.79-.1,75.17,0,150.32.06C467.89,635.13,468.1,638.39,471.07,638.78Z"/><path class="cls-19" d="M218.74,633.81l-1.42,2.06-16.79.14a3.11,3.11,0,0,0-1.41-2.34c-.22-1.6-1.18-2.87-1.94-4.24-1.47-2.66-3.28-3.47-6.15-1.77-3.4,2-7.14,3.46-10.2,6.07-2.21,1.55-5.6,1.68-6.22,5.16-1.49.29-3.25.06-3.88,2-1.26.64-2.55,1.23-3.77,1.94-1.56.91-1.77,1.87.09,2.71-1.88,4.22-6.07,2.48-9.19,3.43-1.16.35-1.58-1.2-1.67-2.37a16.59,16.59,0,0,1,2.45-9.45c5.71-10.2,14.38-17.35,24.21-23.32A88.2,88.2,0,0,1,204,605c6.22,2.33,9.09,7.65,11.78,13.16.85,1.74,1,3.8,2.33,5.31A52.47,52.47,0,0,1,218.74,633.81Z"/><path class="cls-19" d="M176,600.06c2.52,2.77,5.85,1.14,8.8,1.6-5,2-10.45,2-15.49,4-10.82,4.35-21.69,8.54-32.29,13.4-1.31.61-2.7,1-4.6,1.75a8.37,8.37,0,0,1,3.29-5c4.83-3.68,9-8.08,14.14-11.48a30.78,30.78,0,0,1,15.05-5C168.6,599.09,172.36,598.94,176,600.06Z"/><path class="cls-19" d="M124.62,584.05a11.68,11.68,0,0,1,6.64,1.1,18.85,18.85,0,0,0,11,1.87c-3.17,2.34-7.22,1.28-10.73,3.14-7,3.69-14,7.22-20.4,12a10.33,10.33,0,0,1-1.68.76c3.32-8.77,10.22-13.37,17.34-17.85Z"/><path class="cls-15" d="M235.22,647c-2.78-.36-3.49-3.65-6.06-4.31l-1-1.49c8.75-.65,17.52-.23,26.27-.24,1.26,0,2.59.36,2.71,1.89a3.18,3.18,0,0,1-1.94,3.55,10.18,10.18,0,0,1-3.94.55Z"/><path class="cls-10" d="M218.74,633.81a52.47,52.47,0,0,0-.61-10.32q89.14,0,178.28,0,35.22,0,70.43.12c-1.27,3.3-2,6.64-1,10.17q-75.15,0-150.32-.06Q267.13,633.71,218.74,633.81Z"/><path class="cls-1" d="M174.61,638.89c.62-3.48,4-3.61,6.22-5.16l18.29-.06a3.11,3.11,0,0,1,1.41,2.34c-4.82,1.84-10,1.81-14.95,3.17Z"/><path class="cls-15" d="M167.05,645.55c-1.86-.84-1.65-1.8-.09-2.71,1.22-.71,2.51-1.3,3.77-1.94,2.28.13,4.59-.4,6.85.25C174.58,643.84,170.55,644.05,167.05,645.55Z"/><path class="cls-10" d="M177.58,641.15c-2.26-.65-4.57-.12-6.85-.25.63-1.95,2.39-1.72,3.88-2l11,.29Z"/><path class="cls-11" d="M209.21,742.37c-2.73.11-1.59,1.25-9.39-1.34C203,741,206.28,740.52,209.21,742.37Z"/><path class="cls-11" d="M156.87,710.1c0,1.52-.07,3-.11,4.57l-2.91-.22A3.94,3.94,0,0,1,156.87,710.1Z"/><path class="cls-20" d="M210.82,721l.93,0Z"/><path class="cls-13" d="M1,705c23.94,22.8,28.67,42.14,28.81,53.44C29.85,762,7.84,778.3,1,784"/><path class="cls-10" d="M485.58,633.77a28.24,28.24,0,0,1,8.84-10.5c2.58.73,3.42.19,5.58.73.76,3.17,2.91,6.47,3.25,9.78Z"/><path class="cls-1" d="M485.58,633.77h17.67c.41,1.69,1.78,3.12,1.44,5l-24.54-.07c1.21-.44,2.48-.7,2.81-2.32A3.66,3.66,0,0,1,485.58,633.77Z"/><path class="cls-15" d="M435.65,715.89c-3.66.07-7.32.2-11,.2H277.17c-5.76,0-7.6-3-5.12-8.37.88-1.91,2.63-1.93,4.38-1.93l18.34,0H428c1.22,0,2.45.08,3.67.13A20.18,20.18,0,0,0,435.65,715.89Z"/><path class="cls-15" d="M506.92,701.93c-4-1.12-8-.38-12-.56a6.63,6.63,0,0,1-6.13-8.26c.42-1.61,1.72-1.59,2.89-1.61,4-.08,8.07,0,12.1-.09,1.62,0,3.57.55,3.48-2.32-.09-2.62-1.9-2.08-3.37-2.09q-20.91,0-41.8,0c-5.25,0-7.16-2-7-7.28,0-1.63,1.24-2.08,2.44-2.21a54.28,54.28,0,0,1,5.85-.19c13.44,0,26.89,0,40.33,0,1.37,0,3.43.83,3.51-1.86s-1.92-2-3.35-2c-4.52-.07-9.05,0-13.57,0s-6.92-3.15-6.15-7.4c.36-2,1.88-2,3.38-2,5,0,10,.13,15-.09,1.65-.08,4.73,1.61,4.6-2.14s-3.14-1.94-4.79-2c-9.65-.17-19.31-.06-29-.09-4.5,0-6.25-1.91-5.87-6.34.22-2.61,2.4-2.52,4.13-2.55,6-.12,12,0,18-.1s11.93.65,17.86-.48q.12,20.61.25,41.21l0,5.1"/><path class="cls-15" d="M156.87,710.1a20.13,20.13,0,0,1,4.27-4.61c2.89.1,5.78.21,8.68.29,2.63.07,4,1,2.69,3.83-.93,2.06-.64,4.59-2.41,6.34-4.52.36-8.91-.64-13.34-1.28C156.8,713.15,156.83,711.62,156.87,710.1Z"/><path class="cls-15" d="M506.47,646.46c-4.32,1-8.69.46-13,.27-2.07-.09-3.81-1.29-3.67-3.72s2.4-2.21,3.91-2.25c3.76-.13,7.53.09,11.3.18A18.24,18.24,0,0,1,506.47,646.46Z"/><path class="cls-15" d="M170.05,696.07c.57-2.41,2.57-3.65,4.25-5.15,9,.75,18.08,0,27.11.38,2.14.08,5.39-1.24,5.51,2.77.17,5.27-1.47,7.22-6,7.26-8.8.07-17.61,0-26.42,0C169.19,701.35,169.17,701.31,170.05,696.07Z"/><path class="cls-15" d="M223,691c4,2,8.84,3.26,13,1,3.74-.66,9,0,12,0a5.67,5.67,0,0,1,1.74,4c-.2,2.47-.84,5.2-4,5.24-10.52.13-21,.05-31.56,0a2,2,0,0,1-1.85-.95c-1.15-1.94,1.87-8.53,4.12-9"/><path class="cls-15" d="M275.34,701.36c-4.63,0-9.27,0-13.9,0-1.77,0-4.22.22-4-2.46s-1-6.9,3.1-7.16a307.72,307.72,0,0,1,31.42-.12c1.59.06,2.37,1.13,2.2,2.75-.67,6.49.06,7-6.76,7H275.34Z"/><path class="cls-15" d="M242.29,716.26c-4.64,0-9.27,0-13.91,0-1.77,0-4.21.21-4-2.46s-1-6.9,3.1-7.17a313.38,313.38,0,0,1,31.41-.12c1.6.06,2.38,1.13,2.21,2.75-.67,6.49.06,7-6.77,7H242.29Z"/><path class="cls-15" d="M196.7,716.26c-4.64,0-9.28,0-13.91,0-1.77,0-4.21.21-4-2.46s-1-6.9,3.11-7.17a313.37,313.37,0,0,1,31.41-.12c1.59.06,2.37,1.13,2.21,2.75-.67,6.49.06,7-6.77,7H196.7Z"/><path class="cls-15" d="M407.28,701.33c-4.77,0-9.53.08-14.29,0-3.8-.08-4.05-.86-4.21-6.34-.1-3.3,1.75-3.53,4.15-3.52,9.16,0,18.32,0,27.48,0,3.52,0,6.54,5.14,5,8.35-.68,1.4-2,1.57-3.44,1.57-4.88,0-9.77,0-14.65,0Z"/><path class="cls-15" d="M319.54,701.34c-4.77,0-9.53,0-14.29,0-2.05,0-3.89-.16-3.92-3.07-.05-5.36.47-6.7,3.89-6.76,8.06-.16,16.12-.07,24.18-.09.73,0,1.46,0,2.2,0,6,0,7.47,1.92,5.95,7.79-.52,2-2.09,2.12-3.72,2.12H319.54Z"/><path class="cls-15" d="M363.21,701.36c-4.64,0-9.29,0-13.93,0-2.95,0-4.22-1.17-4-4.21.2-2.79-.52-5.82,4-5.77q14.13.17,28.24,0c4.72,0,3.78,3.33,4.06,6.14.32,3.11-1.49,3.8-4,3.81Z"/><path class="cls-15" d="M344.21,687H330.27c-2.14,0-4-.34-3.75-3.18.24-2.63-.92-6.08,3.45-6.39,2.55-.19,5.13-.1,7.69-.1,6.73,0,13.45-.08,20.17,0,4,.06,4.37.88,4.58,5.31.18,3.56-1.53,4.45-4.64,4.37C353.25,686.9,348.73,687,344.21,687Z"/><path class="cls-15" d="M239.83,686c.57-2.68,1.13-5.36,1.7-8,10.73-1.26,21.49-.5,32.24-.54,2.06,0,3,1.1,2.8,3.32-.4,5.79-.74,6.22-6.49,6.25-8.57,0-17.13,0-25.69,0C242.79,687,241.2,687,239.83,686Z"/><path class="cls-15" d="M430.73,687c-4.77,0-9.54,0-14.31,0s-3.59-3.65-4-6.32c-.47-2.95,1.55-3,3.65-3.12,9.29-.36,18.57-.39,27.86,0,3.58.16,4.6,1.82,4.52,6.69-.06,3.41-2.61,2.65-4.51,2.7C439.53,687,435.13,687,430.73,687Z"/><path class="cls-15" d="M387.47,686.92c-4.77,0-9.53,0-14.3,0-4.1,0-3.35-2.87-3.52-5.38-.18-2.71.7-4.11,3.66-4.1,8.92,0,17.84-.17,26.75-.11,4.44,0,6.69,3.8,5.08,8.07-.62,1.66-2.08,1.51-3.38,1.52-4.76,0-9.53,0-14.29,0Z"/><path class="cls-15" d="M301.13,687c-4.38,0-8.77.06-13.16,0-1.94,0-4.35.56-4.44-2.78-.13-5.27.44-6.55,4.38-6.65,8.15-.22,16.32-.11,24.48-.13.49,0,1,.08,1.46.1,5.41.26,6.64,2,5.26,7.36-.54,2.12-2.15,2.09-3.72,2.11C310.64,687,305.89,687,301.13,687Z"/><path class="cls-15" d="M290.37,673.28c-4.4,0-8.8.05-13.19,0-2,0-4.15-.2-3.76-3.15.34-2.49-.65-6,3.45-6.09,9.62-.16,19.25-.08,28.87,0,2.18,0,3,1.48,2.68,3.5-.32,2.22.76,5.42-3.05,5.55-5,.16-10,0-15,0Z"/><path class="cls-15" d="M459.42,663.94c4.27,0,8.55-.05,12.82,0,3.63,0,6.56,4.33,5.31,7.65-.47,1.25-1.65,1.43-2.72,1.47-9.51.43-19,.49-28.54,0-3.46-.17-4.6-2.08-4.38-6.63.16-3.19,2.81-2.49,4.7-2.54,4.27-.13,8.54,0,12.81,0Z"/><path class="cls-15" d="M375.2,663.92c4.53,0,9.05.06,13.57,0,3.92-.07,3.94,2.52,4.17,5.39.25,3.11-1.43,3.94-3.9,3.94-9.29,0-18.58-.06-27.87-.15-4,0-3.2-3.06-3.35-5.54-.18-2.82,1.35-3.63,3.81-3.61,4.52,0,9.05,0,13.57,0Z"/><path class="cls-15" d="M333,663.92c4.53,0,9.05.06,13.58,0,3.91-.07,3.93,2.52,4.17,5.39.25,3.11-1.44,3.94-3.91,3.94-9.29,0-18.58-.06-27.86-.15-4,0-3.2-3.06-3.36-5.54-.18-2.82,1.35-3.63,3.81-3.61,4.53,0,9.05,0,13.57,0Z"/><path class="cls-15" d="M417.09,663.92c4.52,0,9.05-.06,13.56,0,3.5.07,4.64,1.88,4.65,6.36,0,3.37-2.53,2.88-4.39,2.9-8.67.14-17.34.15-26,.08a5.52,5.52,0,0,1-4.87-7.93c.71-1.52,2.18-1.42,3.5-1.43C408.05,663.9,412.57,663.92,417.09,663.92Z"/><path class="cls-15" d="M277.73,659.63c-4.26,0-8.52.06-12.79,0-1.59,0-3.83.44-3.81-2.17,0-2.33-.39-5.09,2.6-6.21a9.36,9.36,0,0,1,3.21-.52c7.92,0,15.83-.08,23.75,0,5.37,0,6.45,1.75,4.7,6.83-.59,1.72-1.88,2.07-3.44,2.08H277.73Z"/><path class="cls-15" d="M444.8,659.64c-4.51,0-9,0-13.53,0-4.21.05-4-3-4.26-5.83-.33-3.34,2.15-3.08,4.11-3.1,8.3-.08,16.61-.05,24.91,0,2.54,0,4.86.47,5.5,3.64.85,4.28.16,5.25-4.28,5.28-4.15,0-8.3,0-12.45,0Z"/><path class="cls-15" d="M361.71,659.65c-4.5,0-9,.05-13.52,0-2.14,0-4.17-.23-4.13-3.31,0-2.8.31-5.45,3.76-5.51,9-.16,18-.13,27.05,0,3.74,0,3.9,2.78,3.87,5.69,0,3.14-2.1,3.11-4.23,3.13-4.27,0-8.53,0-12.8,0Z"/><path class="cls-15" d="M319.58,659.64H306.77c-2,0-4.1-.06-4-2.93.08-2.65-.31-5.72,3.64-5.94,2.92-.16,5.85-.09,8.78-.1,5.61,0,11.23-.07,16.84,0,4.43.08,4.89.81,5.1,4.73s-2.06,4.3-5.08,4.23C327.88,659.56,323.73,659.64,319.58,659.64Z"/><path class="cls-15" d="M403.13,659.64c-4.51,0-9-.06-13.53,0-3.38.05-3.82-2-4-4.74s1.16-4.16,3.77-4.17c8.77-.06,17.54-.13,26.31.06,3.64.08,4.57,1.78,4.36,6.09-.16,3.27-2.56,2.69-4.53,2.72C411.41,659.69,407.27,659.64,403.13,659.64Z"/><path class="cls-15" d="M222,687c-5.7,0-14.06.16-20,.14-1.79,0-4.57.78-4.7-2.46-.19-4.69,1.62-7.26,5.1-7.35,4.5-.1,14.42.29,18.92.18"/><path class="cls-15" d="M241.71,673.32c.07-3.09-.78-6.23-.71-9.32,7,0,14.85,0,21.81-.07,2,0,3.92.13,3.54,2.87-.36,2.58.57,6.15-3.76,6.26-6.35.17-12.7.15-19,.21C242.93,673.27,242.32,673.3,241.71,673.32Z"/><path class="cls-15" d="M429.18,640.69c3.29,0,6.58,0,9.86,0a39.71,39.71,0,0,1,4.35.39c1.81.25,2.26,1.6,2.44,3.16.22,1.94-1.25,2.21-2.54,2.4a32.47,32.47,0,0,1-4.73.27q-9.45,0-18.91,0a14.11,14.11,0,0,1-3.21-.5c-2-.51-2.24-2.16-1.91-3.77.3-1.42,1.34-2,3-1.93,3.88.16,7.78,0,11.67,0Z"/><path class="cls-15" d="M392.78,640.92c3.9,0,7.8,0,11.69,0,2,0,3.62.54,3.56,3.08-.06,2.35-1.65,2.83-3.46,2.84-7.92,0-15.84.08-23.76,0-2.12,0-4.35-.46-4.14-3.41s2.53-2.51,4.41-2.55c3.9-.07,7.8,0,11.7,0Z"/><path class="cls-15" d="M354.92,640.93c4,0,8.08,0,12.11,0,1.71,0,3.2.44,3.3,2.59s-1.22,3.19-3.15,3.21c-8.31.09-16.63.13-24.94,0-1.66,0-3.41-.6-3.3-3s1.74-2.78,3.51-2.81c4.16-.09,8.32,0,12.47,0Z"/><path class="cls-15" d="M316.65,646.71c-4.14,0-8.29.06-12.44,0-1.47,0-2.9-.28-2.86-2.44s1-3.23,3-3.29c3-.1,6-.08,9.05-.08q7.51,0,15,0c2,0,4.12,0,4,2.94-.09,2.7-2.1,3-4.13,3.07-3.91.08-7.82,0-11.73,0Z"/><path class="cls-15" d="M467.44,640.89h12.05c2.18,0,3.91.62,4.07,3.16.18,2.81-2.11,2.76-3.78,2.78-7.68.13-15.36.1-23,0a7.4,7.4,0,0,1-3.15-.81,3,3,0,0,1-1.47-3.45c.23-1.4,1.44-1.6,2.51-1.62,4.27-.06,8.53,0,12.8,0Z"/><path class="cls-15" d="M279.56,646.91c-4.82,0-8.59.05-12.36,0-1.79,0-3.49-.43-3.47-2.79s1.39-3.21,3.54-3.2c8.16,0,16.31,0,24.47,0,1.44,0,3,.12,3.16,2.2s-.92,3.17-2.89,3.47C287.52,647.3,283,646.71,279.56,646.91Z"/><path class="cls-15" d="M433.8,701a6.13,6.13,0,0,1-.82-1.61c-1.14-7.39-2.13-8.17,6.09-8,12.2.2,24.41,0,36.62.06,4.75,0,7.53,3.49,6.48,8.06-.45,2-2.07,1.8-3.5,1.84-5,.14-10,.22-15,.31-4.09-1.33-8.12-2.94-12.3-3.91C445.13,696.28,438.9,695.87,433.8,701Z"/><path class="cls-15" d="M492.57,715.12c-1.14-1.14-.8-3.21-1.11-5-.6-3.64-.18-4.16,3.58-4.34,4-.19,8,.65,11.89-.54.07,3.79.07,7.79-.19,11"/><path class="cls-15" d="M472.93,705.89c1.58,0,3.16-.1,4.73-.11,5.68,0,5.79.08,6.44,5.78C479.56,711.28,476.5,708.07,472.93,705.89Z"/><path class="cls-15" d="M177.69,687.08c2.31-4.06,5.73-7.16,9-10.42,1.3,1.38,5-.15,4.19,3.94-1.16,5.71-1.68,6.51-6.62,6.59C182.05,687.22,179.87,687.12,177.69,687.08Z"/><path class="cls-1" d="M500,624c-1,0-3.78.17-5.58-.73-.09-2.14,1.23-2.67,3-2.5C499.71,621,500.22,621.92,500,624Z"/><path class="cls-17" d="M557.6,580.33a4.84,4.84,0,0,0,1.15,3c7.63,8.23,11.26,18.23,13,29.13.85,5.27,2.36,10.43,3.23,15.69.82,5,1.9,10.06-.24,15.12-.7,1.66-1.31,2.48-3.25,2.7-6.71.74-13.41.13-20.11.36-1.7.06-2.4-.75-2.44-2.42a25.69,25.69,0,0,0-.48-3.23c0-.53.1-1.07.14-1.61l0-5.27.09-10.22c.77-6.25-1.23-12.29-1.45-18.47a2.34,2.34,0,0,0-1.32-2c-.28-2.53-2.1-3.07-4.18-3.08-3.77,0-7.55,0-11.32.16-8.15.43-12.33-3.5-12.2-11.64.9-.27,2.4-.06,2.43-1.18.11-3.31,2.78-3.84,4.93-4.91a4.08,4.08,0,0,0,2.23-2.68c5.08-1,10-2.68,15.28-2.93S553.24,577.29,557.6,580.33Z"/><path class="cls-17" d="M581.28,602.88c-1-1.64-2-3.53-4.47-2.12-.63.36-1.1.23-1.38-.53-2.27-6.21-6.59-11.14-10.33-16.43A12,12,0,0,1,573,581c3.25-.06,6.51,0,9.76-.06,2,.85,4,1.72,6,2.54,10.58,4.27,15.67,12.59,18.32,23.32,1.72,7-1.15,13.3-1.07,20,0,5.21-1,10.42-1.2,15.64-.12,2.81-1,4-3.9,3.87-3.91-.15-7.82-.1-11.73,0-2.18,0-3.29-.66-3.69-3-.27-1.62-.2-3.28-.48-4.29h0c0-3-1.45-5.62-2-8.44a26.68,26.68,0,0,1-.76-7.34c.57-.29,1.46.21,1.73-.88,1-3.86,2.06-7.68,2.93-11.56C587.84,606.49,588.17,603.55,581.28,602.88Z"/><path class="cls-1" d="M546,603a2.34,2.34,0,0,1,1.32,2c.22,6.18,2.22,12.22,1.46,18.47l-12.77,0-13.44-20.83Z"/><path class="cls-11" d="M527.86,579.7a4.08,4.08,0,0,1-2.23,2.68c-2.15,1.07-4.82,1.6-4.93,4.91,0,1.12-1.53.91-2.43,1.18C519,582.89,523.39,581.23,527.86,579.7Z"/><path class="cls-17" d="M616.51,616a3.44,3.44,0,0,1,2.87,1.4,1.6,1.6,0,0,0,1.54,1l0,0c4.53,7.62,4.77,15.66,2.22,23.94-.69,2.25-1.86,3.84-4.54,4-3.09.2-4.46-.79-4.35-4.12C614.49,633.42,615.55,624.72,616.51,616Z"/><path class="cls-1" d="M581.28,602.88c6.89.67,6.56,3.61,5.58,7.9-.87,3.88-2,7.7-2.93,11.56-.27,1.09-1.16.59-1.73.88-2.05-4-2.07-8.54-3.63-12.66-.3-.78-.44-1.63-.73-2.41C576.08,603.36,576.14,603.26,581.28,602.88Z"/><path class="cls-10" d="M536,623.57l12.77,0q-.06,5.12-.09,10.22l-6.89.09C538.51,631.18,537.8,627.06,536,623.57Z"/><path class="cls-1" d="M541.77,633.85l6.89-.09q0,2.64,0,5.28l-5.25-.09C541.83,637.57,541,636,541.77,633.85Z"/><path class="cls-10" d="M543.38,639l5.25.09-.15,1.6C546.59,640.65,544.16,642.28,543.38,639Z"/><path class="cls-11" d="M620.92,618.4a1.6,1.6,0,0,1-1.54-1C620,617.55,620.64,617.71,620.92,618.4Z"/><path class="cls-13" d="M298.57,776.88h-60.9c-3.19,0-6.4-.09-9.32-1.51-3.62-1.77-4.32-3.43-3.16-9,1.88-8.95,2.68-18,4.3-27,.56-3.11,1.07-6.23,1.73-9.33a5.46,5.46,0,0,1,3.08-3.84,18.73,18.73,0,0,1,8.44-2.14Q302.35,724,362,724a18.44,18.44,0,0,1,6.1,1.08c3,1.06,4.41,3,4.48,6.33.22,12.11.62,24.21.91,36.31.12,4.77-1.69,7.26-6.34,8.33a33.44,33.44,0,0,1-7.27.78c-20.42.06-40.84,0-61.27,0Z"/><path class="cls-21" d="M121.94,303.77c-.16,2.1-1.59,3.82-4.46,4a4.79,4.79,0,0,1-5.06-5c.22-2.87,1.91-4.4,4.74-4.51S122,300.26,121.94,303.77Z"/><path class="cls-22" d="M91.51,307.86a4.72,4.72,0,0,1-4.9-4.81,4.51,4.51,0,0,1,4.49-4.82,5.12,5.12,0,0,1,5.19,4.61A5,5,0,0,1,91.51,307.86Z"/><path class="cls-9" d="M99.72,302.49c0-2.38,1.68-4.05,4.45-4.11s4.48,1.47,4.58,4.5-1.69,4.43-4.38,4.75C102,307.91,99.77,305.56,99.72,302.49Z"/><path class="cls-8" d="M364.21,604.56a8.67,8.67,0,0,1,8.88,8.73c-.08,5.14-3.89,8.74-9.28,8.76-4.56,0-8-3.86-8-9S359,604.56,364.21,604.56Z"/><path class="cls-8" d="M280.69,622a8.74,8.74,0,1,1,.24-17.47,8.74,8.74,0,1,1-.24,17.47Z"/><path class="cls-8" d="M394.08,613.28a8.79,8.79,0,0,1-17.57,0,8.79,8.79,0,0,1,17.57,0Z"/><path class="cls-8" d="M331,613.44c-.06,5.19-3.66,8.7-8.75,8.54a8.72,8.72,0,0,1,.37-17.44C327.58,604.5,331,608.15,331,613.44Z"/><path class="cls-8" d="M414.83,613.58a8.5,8.5,0,0,1-8.77,8.38,8.72,8.72,0,0,1,.29-17.43A8.53,8.53,0,0,1,414.83,613.58Z"/><path class="cls-8" d="M435.92,613.53a8.8,8.8,0,1,1-8.74-9A8.83,8.83,0,0,1,435.92,613.53Z"/><path class="cls-8" d="M310.37,613.32a8.6,8.6,0,0,1-8.48,8.71c-5,.06-8.66-3.58-8.79-8.77a8.47,8.47,0,0,1,8.42-8.72A8.64,8.64,0,0,1,310.37,613.32Z"/><path class="cls-8" d="M352.19,613.06c-.21,4.76-4.34,9.15-8.85,9-5.16-.15-8.26-3.86-8.51-8.91-.23-4.74,3.8-8.51,8.61-8.54C348.08,604.59,352.22,608.59,352.19,613.06Z"/><path class="cls-10" d="M199.12,633.67l-18.29.06c3.06-2.61,6.8-4.05,10.2-6.07,2.87-1.7,4.68-.89,6.15,1.77C197.94,630.8,198.9,632.07,199.12,633.67Z"/><path class="cls-1" d="M605.09,523.68c-1.7,1.69-7,2.59-7,2.59H270.27s-5.24-1.37-6.49-2.59-2.59-6.06-2.59-6.06V332.91a26,26,0,0,1,2.59-10.39c2.6-5.19,6.49-5.19,6.49-5.19h327a13,13,0,0,1,7.79,6.49,22.4,22.4,0,0,1,2.6,9.09v186.3A18.6,18.6,0,0,1,605.09,523.68Z"/><rect class="cls-13" x="264" y="332.91" width="340" height="188.09"/><path class="cls-21" d="M299.56,325.63a2.88,2.88,0,0,1-3,2.69,3.21,3.21,0,0,1-3.4-3.36,3,3,0,0,1,3.18-3C298.21,321.86,299.57,323.27,299.56,325.63Z"/><path class="cls-22" d="M279.11,328.37a3.16,3.16,0,0,1-3.29-3.23,3,3,0,0,1,3-3.23,3.44,3.44,0,0,1,3.49,3.09A3.31,3.31,0,0,1,279.11,328.37Z"/><path class="cls-9" d="M284.63,324.77a2.75,2.75,0,0,1,3-2.77,2.78,2.78,0,0,1,3.07,3c.08,2.08-1.13,3-2.94,3.19C286.16,328.41,284.66,326.83,284.63,324.77Z"/><path class="cls-20" d="M331.44,448.57H285.29c-1.88,0-3.75,0-5-1.79a4.18,4.18,0,0,1,2.89-6.41,16.94,16.94,0,0,1,3.11-.12c23.81,0,47.63.14,71.44-.13,6.74-.08,13.46.68,20.19.15,3-.23,5,.9,5,4.24,0,3-1.44,4.05-5.47,4.05Z"/><path class="cls-20" d="M340.05,486q-23.24,0-46.48,0c-3,0-5.11-1.92-4.86-4.46s1.73-3.83,4.4-3.83c6.24,0,12.48-.2,18.72-.2q36.6,0,73.18,0a18.41,18.41,0,0,1,3.79.28,4.12,4.12,0,0,1,.11,7.91,15.15,15.15,0,0,1-3.43.29Q362.76,486,340.05,486Z"/><path class="cls-20" d="M302.67,467.77c-5.88,0-11.77.06-17.66,0-3.65-.05-5.6-1.72-5.37-4.43a3.76,3.76,0,0,1,4.06-3.82c12.23-.09,24.46-.21,36.69-.17,3.69,0,5.45,1.7,5.37,4.39s-1.9,4-5.77,4c-5.77.05-11.55,0-17.32,0Z"/><path class="cls-20" d="M302.69,429.7c-5.9,0-11.8,0-17.7,0-2.91,0-5.05-1-5.32-4.17-.23-2.6,1.74-4.15,5.18-4.16,11.92,0,23.84,0,35.75,0,2.78,0,4.87.81,5.13,3.88.24,2.71-1.88,4.44-5.34,4.46C314.49,429.72,308.59,429.69,302.69,429.7Z"/><path class="cls-20" d="M302.32,410.47c-5.78,0-11.55,0-17.32,0-2.87,0-5.31-.77-5.37-4s2.48-4.2,5.26-4.22q18-.07,36,0c2.72,0,4.89,1.21,4.8,4.26s-2.3,4-5,4H302.32Z"/><path class="cls-14" d="M365.32,383c13.75,0,27.51,0,41.26,0,22.4.06,44.8.19,67.2.23,3,0,5.05.95,5.36,4.1.27,2.73-1.73,4.25-5.47,4.25q-27.74,0-55.49,0H329.11c-.7,0-1.39,0-2.08,0-2.59-.15-4.64-1.12-4.64-4s1.94-4.26,4.77-4.26q19.08,0,38.16,0Z"/><path class="cls-14" d="M436.56,429.85H375.82c-2.49,0-5.38-2.16-5.19-4.14.27-2.78,1.86-4.27,4.83-4.35,8.42-.25,16.84-.06,25.26,0,31.36.09,62.72,0,94.08,0a41.3,41.3,0,0,1,4.85.16,3.56,3.56,0,0,1,3.39,3.72,3.64,3.64,0,0,1-3,4.07,18.26,18.26,0,0,1-4.12.36q-29.68,0-59.36,0Z"/><path class="cls-14" d="M387.1,467.74q-23.24,0-46.47,0c-3,0-5.11-1.91-4.87-4.46s1.74-3.83,4.41-3.83c6.24,0,12.48-.19,18.72-.2q36.58,0,73.18,0a19.87,19.87,0,0,1,3.78.28,4.12,4.12,0,0,1,.12,7.91,15.75,15.75,0,0,1-3.43.3Z"/><path class="cls-14" d="M370.11,402.21c8.46-.34,18.51-.1,28.56-.22,10.21-.11,20.44.26,30.66.45,2.69.05,4.89.89,5.21,3.92.26,2.41-2,4.1-5.3,4.11q-17,0-33.94,0H342.69a33.43,33.43,0,0,1-3.47-.12,3.71,3.71,0,0,1-3.48-3.68,3.57,3.57,0,0,1,2.66-4,14.8,14.8,0,0,1,4.1-.47C351.17,402.2,359.85,402.21,370.11,402.21Z"/><path class="cls-14" d="M491.75,459.22q18.74,0,37.48,0a14.07,14.07,0,0,1,3.44.26,4.16,4.16,0,0,1,.32,7.84,10.81,10.81,0,0,1-4.11.43H465.73c-4,0-8,.05-12-.06-3.25-.08-5.14-1.94-4.89-4.53s2.37-3.79,5.47-3.77c12.49.06,25,0,37.47,0Z"/><path class="cls-14" d="M444.69,477.45h37.48a15.13,15.13,0,0,1,3.44.26,4.17,4.17,0,0,1,.33,7.85,10.81,10.81,0,0,1-4.11.42H418.67c-4,0-8,0-12-.06-3.24-.09-5.14-1.94-4.88-4.53s2.37-3.79,5.47-3.78c12.49.07,25,0,37.46,0Z"/><path class="cls-14" d="M390,364.33c9.93,0,19.9.52,29.79-.18,6.82-.48,13.52.75,20.28.18,2.86-.24,5.16.65,5.21,4s-2.39,4.23-5.16,4.19c-5.4-.09-10.82-.07-16.19,0-20.64.25-41.29-.16-61.93.08-.81,0-1.62,0-2.43,0-2.78-.14-4.75-1.28-4.65-4.38s2.11-4.06,4.93-4c6.58.07,13.17.08,19.75.11H390Z"/><path class="cls-2" d="M569.36,440.25c-.58,0-1.15,0-1.73,0H439.36a9.71,9.71,0,0,0-4.43.52,4.26,4.26,0,0,0-1,6.94c1.19,1,2.6.85,4,.86h56.9c6.59,0,13.19,0,19.78,0a2.82,2.82,0,0,0,.41,0h34.52c6.59,0,13.19,0,19.78,0,2.73,0,4.6-1.08,4.7-3.91S572.23,440.34,569.36,440.25Z"/><path class="cls-14" d="M378.93,353.52c-12.72,0-25.44,0-38.16,0-4.39,0-6.16-2.92-4.21-6.62.42-.79.65-1.64,1.94-1.45a18.51,18.51,0,0,0,2.73-.26q37.81,0,75.62,0c2.53,0,5,.17,5.57,3.37.52,2.95-1.22,4.87-4.64,4.91-8,.07-16,0-23.94,0Z"/><path class="cls-14" d="M482.31,410.5q-15.42,0-30.83,0a11.82,11.82,0,0,1-3.1-.21,3.95,3.95,0,0,1-.58-7.51,10,10,0,0,1,4.42-.55h59.94a23.08,23.08,0,0,1,2.76.06c2.55.33,4.59,1.46,4.4,4.34s-2.11,3.9-4.79,3.89Z"/><path class="cls-14" d="M488.24,372.63c-8.56,0-17.12,0-25.68,0-3.72,0-5.5-1.43-5.51-4.27s1.87-4.2,5.55-4.2q25.68,0,51.36,0c3.7,0,6,2.26,5.29,5.16s-2.82,3.33-5.33,3.32C505.36,372.61,496.8,372.63,488.24,372.63Z"/><path class="cls-14" d="M504.2,353.25c-8.56,0-17.12,0-25.68,0-3.72,0-5.51-1.43-5.51-4.26s1.87-4.2,5.55-4.21q25.68,0,51.36,0c3.7,0,6,2.27,5.29,5.16s-2.82,3.33-5.33,3.32C521.32,353.23,512.76,353.25,504.2,353.25Z"/><path class="cls-2" d="M311.14,372.6c-8.66,0-17.33,0-26,0-3.62,0-5.6-1.57-5.58-4.25,0-2.49,2.22-4.22,5.71-4.17q26.67.38,53.34,0c2.76,0,4.43,1.33,4.53,4.11.12,3.09-1.85,4.31-4.64,4.33-9.13,0-18.25,0-27.37,0Z"/><path class="cls-14" d="M302.83,353.51c-5.89,0-11.77,0-17.65,0-3.66,0-5.7-1.51-5.53-4.19.2-3.23,2.43-4.17,5.29-4.17q17.82,0,35.63,0c2.94,0,5,1.13,5.19,4.29.16,2.43-2,4.06-5.29,4.08-5.88,0-11.76,0-17.64,0Z"/><path class="cls-14" d="M513,391.55c-5.65,0-11.31,0-17,0-2.88,0-4.83-1.21-4.82-4.15s2.1-4.19,4.89-4.19c11.54,0,23.08,0,34.63,0,2.72,0,4.82,1.05,4.84,4.18s-2.29,4.05-4.91,4.09C524.73,391.61,518.84,391.54,513,391.55Z"/><path class="cls-9" d="M448.75,353.52c-3.69,0-7.39,0-11.08,0-2.77,0-4.88-.84-5.05-3.92s1.8-4.36,4.58-4.41c7.5-.14,15-.26,22.49-.19,3.53,0,5.43,1.89,5.18,4.67-.31,3.35-2.62,3.92-5.46,3.85C455.86,353.46,452.31,353.52,448.75,353.52Z"/><path class="cls-9" d="M546.78,372.9c-3.7,0-7.39,0-11.09,0-2.77,0-4.88-.84-5.05-3.93s1.8-4.36,4.58-4.41c7.5-.13,15-.25,22.49-.19,3.53,0,5.43,1.9,5.18,4.67-.31,3.35-2.62,3.93-5.46,3.86C553.88,372.83,550.33,372.9,546.78,372.9Z"/><path class="cls-2" d="M379.73,496.55c9.93,0,19.9.52,29.78-.18,6.82-.48,13.52.74,20.28.18,2.87-.24,5.17.65,5.21,4s-2.38,4.22-5.16,4.18c-5.39-.08-10.81-.06-16.18,0-20.65.25-41.29-.16-61.93.07-.81,0-1.62,0-2.43,0-2.78-.14-4.75-1.29-4.65-4.38s2.11-4.06,4.92-4c6.59.07,13.17.08,19.76.11h10.4Z"/><path class="cls-14" d="M477.94,504.84c-8.56,0-17.12,0-25.68,0-3.73,0-5.51-1.44-5.51-4.27s1.87-4.2,5.55-4.2q25.68,0,51.36,0c3.7,0,6,2.27,5.29,5.17s-2.82,3.32-5.33,3.32C495.06,504.83,486.5,504.84,477.94,504.84Z"/><path class="cls-9" d="M536.47,505.12c-3.69,0-7.39,0-11.08,0-2.77,0-4.88-.84-5-3.92s1.8-4.36,4.58-4.41c7.5-.13,15-.25,22.49-.19,3.53,0,5.43,1.89,5.17,4.67-.3,3.35-2.61,3.92-5.45,3.86C543.58,505.05,540,505.11,536.47,505.12Z"/><path class="cls-2" d="M295.61,391.55H284.53c-2.79,0-4.87-1.1-4.85-4.13s2-4.2,4.82-4.2c7.5,0,15,0,22.5,0,2.9,0,4.79,1.28,4.82,4.19s-1.88,4.22-4.79,4.17C303.23,391.5,299.42,391.55,295.61,391.55Z"/><path class="cls-14" d="M407.57,448.56c-3.24,0-6.47-.05-9.71,0-2.69.06-4.31-1.4-4.47-3.82-.18-2.64,1.42-4.42,4.21-4.45,6.82-.09,13.63-.12,20.45,0,2.61,0,4.47,1.31,4.4,4.24s-1.69,4.1-4.48,4.08c-3.47,0-6.94,0-10.4,0Z"/><path class="cls-20" d="M348.73,429.7c-2.76,0-5.52.06-8.28,0s-4.93-2-4.68-4.38c.29-2.69,1.9-4,4.69-3.94,5.17.07,10.36.1,15.53,0,3.21-.07,4.64,1.42,4.75,4.52s-1.71,3.86-4.42,3.75c-2.52-.11-5.06,0-7.59,0Z"/><path class="cls-1" d="M400.24,567c-1.49,1.49-6.16,2.28-6.16,2.28H106.17s-4.6-1.21-5.69-2.28-2.28-5.32-2.28-5.32V399.4a22.72,22.72,0,0,1,2.28-9.12c2.27-4.56,5.69-4.56,5.69-4.56H393.4a11.45,11.45,0,0,1,6.84,5.7,19.69,19.69,0,0,1,2.28,8V563A16.25,16.25,0,0,1,400.24,567Z"/><rect class="cls-13" x="101" y="399.4" width="298" height="165.6"/><path class="cls-21" d="M133.15,392.88a2.89,2.89,0,0,1-3,2.69,3.22,3.22,0,0,1-3.4-3.36,3,3,0,0,1,3.18-3C131.8,389.1,133.16,390.52,133.15,392.88Z"/><path class="cls-22" d="M112.7,395.62a3.16,3.16,0,0,1-3.29-3.23,3,3,0,0,1,3-3.24,3.45,3.45,0,0,1,3.49,3.1A3.32,3.32,0,0,1,112.7,395.62Z"/><path class="cls-9" d="M118.21,392a2.75,2.75,0,0,1,3-2.76,2.78,2.78,0,0,1,3.08,3c.08,2.08-1.13,3-2.94,3.19C119.75,395.66,118.25,394.08,118.21,392Z"/><path class="cls-14" d="M205.75,451.35c13.75,0,27.5,0,41.26,0,22.4.07,44.8.19,67.2.24,2.94,0,5.05,1,5.36,4.09.27,2.74-1.73,4.25-5.47,4.26q-27.75,0-55.49,0H169.54c-.7,0-1.39,0-2.08,0-2.6-.14-4.64-1.11-4.64-4s1.94-4.26,4.77-4.27h38.16Z"/><path class="cls-14" d="M277,498.24H216.24c-2.48,0-5.37-2.16-5.18-4.14.27-2.78,1.85-4.27,4.82-4.36,8.43-.25,16.84-.05,25.27,0,31.36.08,62.72,0,94.07,0a39.34,39.34,0,0,1,4.86.17,3.54,3.54,0,0,1,3.38,3.72,3.63,3.63,0,0,1-3,4.07,18.31,18.31,0,0,1-4.12.36q-29.69,0-59.36,0Z"/><path class="cls-14" d="M227.53,536.13q-23.24,0-46.47,0c-3,0-5.12-1.91-4.87-4.46s1.74-3.83,4.41-3.83c6.24,0,12.48-.2,18.72-.2q36.59,0,73.18,0a19.09,19.09,0,0,1,3.78.28,4.12,4.12,0,0,1,.11,7.91,15.05,15.05,0,0,1-3.43.29Q250.25,536.15,227.53,536.13Z"/><path class="cls-14" d="M171.86,517H125.72c-1.89,0-3.76,0-5-1.79a4.17,4.17,0,0,1,2.88-6.41,16.2,16.2,0,0,1,3.12-.13c23.81,0,47.63.15,71.44-.12,6.74-.08,13.45.68,20.19.15,3-.23,5,.9,5,4.23,0,3-1.44,4.06-5.47,4.06Z"/><path class="cls-14" d="M210.54,470.6c8.46-.34,18.51-.1,28.56-.22,10.2-.11,20.44.25,30.66.45,2.69.05,4.89.89,5.21,3.92.26,2.41-2,4.09-5.3,4.1-11.31,0-22.63,0-34,0h-52.6a33.43,33.43,0,0,1-3.47-.11,3.73,3.73,0,0,1-3.49-3.69,3.58,3.58,0,0,1,2.66-4,14.83,14.83,0,0,1,4.11-.47C191.6,470.58,200.28,470.6,210.54,470.6Z"/><path class="cls-2" d="M332.18,527.61q18.74,0,37.48,0a14.58,14.58,0,0,1,3.44.25,4.17,4.17,0,0,1,.32,7.85,10.81,10.81,0,0,1-4.11.42H306.16c-4,0-8,0-12-.06-3.25-.09-5.15-1.94-4.89-4.53s2.37-3.79,5.47-3.78c12.49.07,25,0,37.47,0Z"/><path class="cls-14" d="M230.46,432.72c9.93,0,19.9.52,29.79-.18,6.81-.48,13.51.74,20.27.18,2.87-.24,5.17.65,5.22,4s-2.39,4.22-5.17,4.18c-5.39-.08-10.81-.06-16.18,0-20.64.25-41.29-.16-61.93.08-.81,0-1.62,0-2.43,0-2.78-.14-4.75-1.29-4.65-4.38s2.11-4.06,4.92-4c6.59.07,13.17.08,19.76.11,3.46,0,6.93,0,10.4,0Z"/><path class="cls-14" d="M316.15,517q-18.91,0-37.82,0c-1.37,0-2.77.18-4-.86a4.24,4.24,0,0,1,1-6.93,9.71,9.71,0,0,1,4.43-.52h73.56c.57,0,1.15,0,1.73,0,2.87.09,4.72,1.46,4.62,4.43s-2,3.93-4.69,3.91c-6.6,0-13.19,0-19.78,0Z"/><path class="cls-14" d="M219.36,421.9c-12.72,0-25.44,0-38.16,0-4.39,0-6.16-2.93-4.21-6.62.42-.79.65-1.64,1.93-1.45a18.64,18.64,0,0,0,2.74-.26q37.82,0,75.62,0c2.53,0,5,.17,5.57,3.37.52,2.95-1.22,4.88-4.64,4.91-8,.08-16,0-23.94.05Z"/><path class="cls-14" d="M322.74,478.88H291.9a11.77,11.77,0,0,1-3.09-.21,3.94,3.94,0,0,1-.58-7.51,9.82,9.82,0,0,1,4.42-.55q30,0,59.93,0a23.2,23.2,0,0,1,2.77.06c2.55.33,4.59,1.46,4.4,4.34s-2.12,3.89-4.8,3.89Z"/><path class="cls-14" d="M328.67,441q-12.84,0-25.68,0c-3.72,0-5.5-1.44-5.51-4.27s1.87-4.2,5.55-4.2q25.68,0,51.36,0c3.7,0,6,2.26,5.29,5.16s-2.82,3.32-5.33,3.32C345.79,441,337.23,441,328.67,441Z"/><path class="cls-14" d="M151.57,441c-8.67,0-17.33,0-26,0-3.63,0-5.6-1.57-5.58-4.25,0-2.5,2.21-4.23,5.71-4.18q26.67.38,53.34,0c2.76,0,4.43,1.33,4.53,4.1.12,3.1-1.85,4.32-4.64,4.34-9.13,0-18.25,0-27.37,0Z"/><path class="cls-9" d="M143.1,536.15c-5.89,0-11.77.06-17.66,0-3.65,0-5.6-1.71-5.37-4.42.2-2.43,1.58-3.81,4.05-3.82,12.23-.09,24.47-.21,36.7-.17,3.69,0,5.45,1.7,5.37,4.39s-1.9,4-5.78,4c-5.77,0-11.54,0-17.31,0Z"/><path class="cls-2" d="M143.25,421.9c-5.88,0-11.76,0-17.64,0-3.66,0-5.71-1.51-5.54-4.2.21-3.23,2.44-4.16,5.29-4.16q17.82,0,35.64,0c2.94,0,5,1.12,5.18,4.29.17,2.43-2,4.06-5.28,4.07-5.88,0-11.76,0-17.65,0Z"/><path class="cls-9" d="M143.12,498.08c-5.9,0-11.8,0-17.7,0-2.91,0-5-1-5.32-4.17-.23-2.6,1.74-4.15,5.18-4.16,11.92,0,23.83,0,35.75,0,2.77,0,4.87.82,5.13,3.89.23,2.71-1.88,4.43-5.34,4.46C154.92,498.11,149,498.08,143.12,498.08Z"/><path class="cls-14" d="M142.74,478.86c-5.77,0-11.54,0-17.31,0-2.87,0-5.32-.77-5.37-4s2.48-4.19,5.26-4.21q18-.09,36,0c2.73,0,4.9,1.21,4.8,4.26s-2.29,4-5,4H142.74Z"/><path class="cls-14" d="M353.38,459.94c-5.66,0-11.31,0-17,0-2.88,0-4.83-1.21-4.82-4.16s2.1-4.18,4.88-4.18q17.32,0,34.64,0c2.72,0,4.81,1.05,4.84,4.18s-2.29,4-4.91,4.08C365.16,460,359.27,459.93,353.38,459.94Z"/><path class="cls-9" d="M289.18,421.91c-3.69,0-7.39,0-11.08,0-2.78,0-4.88-.84-5.06-3.93s1.81-4.36,4.59-4.4c7.5-.14,15-.26,22.49-.2,3.53,0,5.43,1.9,5.17,4.68-.3,3.34-2.61,3.92-5.45,3.85C296.29,421.85,292.73,421.91,289.18,421.91Z"/><path class="cls-14" d="M136,459.94H125c-2.8,0-4.87-1.1-4.85-4.13s2-4.2,4.82-4.2c7.5,0,15,0,22.5,0,2.89,0,4.79,1.29,4.82,4.2s-1.88,4.22-4.79,4.17C143.65,459.89,139.84,459.93,136,459.94Z"/><path class="cls-14" d="M248,517c-3.24,0-6.47-.06-9.71,0-2.7.06-4.31-1.4-4.47-3.82-.18-2.64,1.42-4.42,4.21-4.46,6.81-.08,13.63-.11,20.45,0,2.6,0,4.47,1.3,4.4,4.24s-1.7,4.1-4.48,4.07c-3.47,0-6.94,0-10.4,0Z"/><path class="cls-2" d="M189.16,498.09c-2.76,0-5.52.05-8.28,0s-4.93-2-4.68-4.38c.29-2.7,1.9-4,4.68-3.94,5.18.07,10.36.1,15.54,0,3.21-.07,4.64,1.42,4.75,4.51s-1.71,3.87-4.42,3.76c-2.52-.11-5.06,0-7.59,0Z"/></g></g></svg>