<svg xmlns="http://www.w3.org/2000/svg" viewBox="0 0 603.89 340"><defs><style>.cls-1{fill:#e8e9eb;}.cls-2{fill:#e4b363;}.cls-3{fill:#9b7b66;}.cls-4{fill:#216696;}.cls-5{fill:#38302f;}.cls-6{fill:#bea078;}.cls-7{fill:#ef6461;}.cls-8{fill:#d0805d;}.cls-9{fill:#fcbc94;}.cls-10{fill:#d4f7fb;}.cls-11{fill:#63a6a8;}.cls-12{fill:#fbde7b;}</style></defs><title>work-experience</title><g id="Layer_2" data-name="Layer 2"><g id="exp-1-b"><path class="cls-1" d="M.89,329C.89,245.73.37,0,.89,0h602s1,338,1,340h-24c-.81-.44-57.46-140.46-57-141,2-2.41,4.3-6.33,4.66-9.43a95.91,95.91,0,0,0,.23-11.12c0-5-1.23-9.41-5-13a15.48,15.48,0,0,0-10.69-4.64c-3-.08-3-.05-3-3.11,0-1.44-.08-2.89-.13-4.33a16.15,16.15,0,0,1,0-2.09c.65-4.51-4.41-9-8.89-8.93-12.64.24-25.3.16-37.95.06-4,0-9.41,4.07-8.84,9.18.1.94.78,1.47.54,2.44-.05,12.71-.51,25.85-.55,38.55,0,4.51,0,4.52-4.6,4.5-3.12,0-2.74.32-2.74-2.83q0-60.09,0-120.17a5.06,5.06,0,0,0-.25-2.72c-.34-.82.12-1.6.12-2.41-.06-7.77,0-15.53-.07-23.29,0-3.89-1.79-5.56-5.71-5.56H198.87c-9.63,0-19.26,0-28.9,0-2.26,0-4.1.66-5.22,2.73-.66,1.22-.38,2.57-.46,3.88a.15.15,0,0,0,0,.26v.71c0,.7-.11,1.39-.11,2.08q0,15.42,0,30.83v93c0,1.1.07,2.2.11,3.3l0,.73c-.05.64-.13,1.27-.13,1.9,0,5.22-.06,10.45,0,15.67,0,1.57-.47,2-2,1.93a60,60,0,0,0-6.43,0c-1.4.06-1.82-.43-1.73-1.8.35-4.91.56-9.83.92-14.74a8.37,8.37,0,0,0-4.95-8c-1.5-.65-3.13-.13-4.54-.9,1.16-2.05,2.73-3.88,3.39-6.21.06-.16.13-.32.2-.48.81-1.92.81-1.93,2.3-.58a11.31,11.31,0,0,0,2.83,2.07,34.45,34.45,0,0,0-2.48-4.59c-1.23-1.94-1-2.45,1.24-3.06a13.58,13.58,0,0,0,4.95-1.95c-.92-.05-1.43-.06-1.95-.11-1.19-.12-2.81.55-3.48-.27s.39-2.35.49-3.59a3.1,3.1,0,0,0,.4-.76,54.44,54.44,0,0,0-.06-21.58c-.68-3.07-2.11-5.88-2.74-9a29.13,29.13,0,0,0,6-.94,22.58,22.58,0,0,0-6.26-1.36c-1.69-.17-1.52-.76-.87-1.93a27.39,27.39,0,0,0,2.56-5.9,34.35,34.35,0,0,0-4.79,5,3.69,3.69,0,0,1-1.5-1.15c-4.94-5.41-11-7.91-18.35-7.09-1.66.18-3.31.55-5,.84-.6-.83-.81-1.92-1.69-2.61-.36,1.35.43,2.69-.24,4-1.71.3-2.83,1.5-4,2.6a3.94,3.94,0,0,1-2,.31c-.3-.09-.74-.25-.83.13s.19.83.77.75c.15.09.28.2.13.4a8.12,8.12,0,0,0-1.93,2c-4,4.88-5.94,10.61-7,16.71-.12.71,0,1.55-.89,1.89l-.78-.43c-1.23-.52-2.38-1.34-4-1a9.84,9.84,0,0,0,2.69,2.62,3.64,3.64,0,0,1,2.24,3.49,28.85,28.85,0,0,0-5.07,4.12c1.61-.47,2.9-.75,4.12-1.22,1-.39,1.32-.1,1.35.93a42.17,42.17,0,0,0,1.11,8.74,7,7,0,0,0,0,1.37,52,52,0,0,0,4,11.77c1.08,2.22,2.36,4.34,3.54,6.51-7.06-.72-10.08,4.67-9.63,9.57.36,3.86.46,7.74.85,11.6s.49,3.91-3.41,3.93c-7.55.05-16.92,68.59-20.85,74.94C79.56,274.15,1.66,326.65.89,329Z"/><path class="cls-2" d="M74.89,340c.79.22,8.4-8.28,8.88-8.83a38.48,38.48,0,0,1,4.18-4.5c3-2.41,5.24-5.53,8.24-7.88,3.54-2.77,6.59-6.07,10-9,3.15-2.71,6.37-5.34,9.3-8.29,5.06-4.2,10.1-8.44,15.21-12.59,2.73-2.22,5.25-4.69,8.27-6.53,1,1.28,1.42,2.91,2.27,4.29,1.27,2.06,2.82,3.38,5.49,3.16s5.21,0,7.81,0q29,0,58-.1,34.44,0,68.88,0h61.59c7.83,0,15.67,0,23.5,0,13.69-.07,27.39.12,41.08-.11,7.47-.12,15,.13,22.44.19.66,0,1.41.25,2-.34a28,28,0,0,1,5,2.48c8.93,4.67,17.57,9.86,26,15.39,4.5,2.95,8.82,6.16,13.28,9.17,3.94,3.22,7.9,6.44,11.84,9.68,2.37,1.95,4.73,3.93,7.09,5.9,1.22,1,7.67,7.26,7.79,7.94Z"/><path class="cls-2" d="M145.48,171.61c1.41.77,3,.25,4.54.9a8.37,8.37,0,0,1,4.95,8c-.36,4.91-.57,9.83-.92,14.74-.09,1.37.33,1.86,1.73,1.8a60,60,0,0,1,6.43,0c1.51.08,2-.36,2-1.93-.1-5.22-.05-10.45,0-15.67,0-.63.08-1.26.13-1.9,0,.74.14,1.49.14,2.23,0,8.68,0,17.36-.11,26,0,2.56.4,4.79,2.39,6.54-.12.25-.17.59-.37.76-2.7,2.35-5.32,4.81-8.17,7s-6.16,3.82-9.15,5.82l-9.62,6.49c-2.33,1.58-10.41,7.68-13,8.8,0-.44-6.45,3.69-6.72,4.23a8.9,8.9,0,0,0-1.25.58c-6.32,4.19-12.66,8.35-18.93,12.61-3.28,2.23-6.73,4.25-9.71,6.92a5.88,5.88,0,0,0-2.12,1C85.78,268,57.77,288.67,55.89,290c5-20,27.46-80.95,28.79-83.1,3.93-6.34,9.51-9.79,17.06-9.84,3.9,0,3.8,0,3.41-3.93s-.49-7.74-.85-11.6c-.45-4.9,2.57-10.29,9.64-9.57a3.24,3.24,0,0,1,1.73,1.49,6.92,6.92,0,0,0,2.51,2.59c-1.85.06-3.71.07-5.56.17-3,.17-4.75,2.7-3.67,5.26a16,16,0,0,0,.93,1.66c0,1.21.84,1,1.57,1h35.84c.6,0,1.35.21,1.53-.72,1.43-1.36,2.34-2.93,1.5-4.93s-2.76-2.37-4.77-2.34c-1.32,0-2.64-.09-4-.13Z"/><path class="cls-2" d="M535.23,213.71c0,.87,39.66,113.29,39.66,114.29-1.07-.61-70.31-45.82-71.46-46.27a58.43,58.43,0,0,0-6.54-3.73c-5.68-3.44-13.37-7.58-19.23-10.68-4.74-2.51-9.79-4.42-14.4-7.21-1.54-4.92-3.72-9.6-5.6-14.4-3.16-8.09-6.33-16.18-9.73-24.17-1.34-3.15-1.61-7.13-5.56-8.66,3-1.57,3.66-4.16,3.41-7.29-.16-2.11,0-4.23,0-6.35,0-6.47-.06-13-.06-19.42q0-53.2,0-106.41c0-.69,0-1.39.05-2.08a5.06,5.06,0,0,1,.25,2.72q0,60.09,0,120.17c0,3.15-.38,2.82,2.74,2.83,4.59,0,4.58,0,4.6-4.5q.06-19.05.14-38.11c-.17,0,.49-.23.61,0,1.86,4.26,5.28,5.86,9.75,5.85,11.43-.05,22.85-.11,34.27,0,5.1,0,9-1.53,10.66-6.73,0-.1.15-.17.23-.25.05,1.44.12,2.89.13,4.33,0,3.06,0,3,3,3.11a15.48,15.48,0,0,1,10.69,4.64c3.74,3.62,5,8.07,5,13a95.91,95.91,0,0,1-.23,11.12A15.42,15.42,0,0,1,524,197.9c-.46.54-.76.87,0,1.31C530.07,202.45,534,207.06,535.23,213.71Zm-26.1-31.61c0,3.88,0,7.77,0,11.66,0,.63-.25,1.37.85,1.56a7.82,7.82,0,0,0,9.11-6.55c.47-3.69,0-7.42.2-11.12a7.87,7.87,0,0,0-8.6-8.45c-1.18.1-1.62.36-1.59,1.59C509.17,174.56,509.13,178.33,509.13,182.1Z"/><path class="cls-3" d="M508.89,204c0,.87,0-35.45,0-34-.65-.65-3-10,0-10,.81,0,2.18.75,3.23.78a15.48,15.48,0,0,1,10.69,4.64c3.74,3.62,5,8.07,5,13a95.91,95.91,0,0,1-.23,11.12A15.42,15.42,0,0,1,524,197.9C517.89,207,509.43,205.27,508.89,204Zm.24-21.9c0,3.88,0,7.77,0,11.66,0,.63-.25,1.37.85,1.56a7.82,7.82,0,0,0,9.11-6.55c.47-3.69,0-7.42.2-11.12a7.87,7.87,0,0,0-8.6-8.45c-1.18.1-1.62.36-1.59,1.59C509.17,174.56,509.13,178.33,509.13,182.1Z"/><path class="cls-4" d="M500.89,339c-.51-.85-9.27-5.95-10-7-2.36-2-14.05-11.77-18-15,0-.17-8.95-8.85-9-9-2-5.92,8.7-4.95,10-11.13a31.45,31.45,0,0,1,6.09-13c3.53-4.49,8.54-6.83,14.1-7.93a59.78,59.78,0,0,1,7.56,4.34L547.89,309c4.65,2.73,45,30,46,31C592.89,340,501.89,339,500.89,339Z"/><path class="cls-4" d="M.89,329c1.88-1.33,84.89-61,86.73-62.4a5.88,5.88,0,0,1,2.12-1c7.86-1.45,10.92,3.26,17.15,8.43,3.14,2.61,11.87,17,10.3,22.1-.55,1.81,2.28,1.1,1.7,2.9-2.93,2.95-43.21,41.22-44,41H.89C-1.11,340,.89,332.92.89,329Z"/><path class="cls-5" d="M445.73,71.33c0,.69-.05,1.39-.05,2.08q0,53.21,0,106.41c0,6.47,0,13,.06,19.42,0,2.12-.13,4.24,0,6.35.25,3.13-.43,5.72-3.4,7.29l-3.65-.1A13.28,13.28,0,0,0,436,207.9c1.22,0,2.43-.08,3.64,0,1,.05,1.18-.33,1.16-1.21-.07-2.83-.07-5.66-.1-8.49a3.4,3.4,0,0,0,.22-1c-.38-4-.12-8.07-.12-12.11q-.06-69,0-138c0-1.66-.55-2-2.09-2-7.24.07-14.48,0-21.71,0H171.65c-2.31,0-2.32,0-2.32,2.24q0,14.07,0,28.14,0,53.88,0,107.76c0,5,0,10,.07,15,0,2.19,0,4.39-.09,6.57-.07,3.06-.08,3.06,2.82,3.18a30,30,0,0,1-5.44,4.48c-2-1.75-2.42-4-2.39-6.54.11-8.67.09-17.35.11-26,0-.74-.1-1.49-.14-2.23,0-.24,0-.48,0-.73.73-.88.13-1.86.13-2.77q.06-49,0-97.93,0-13.41,0-26.8a16.41,16.41,0,0,0-.16-1.72v-.71c.17,0,.36,0,.33-.25a1.21,1.21,0,0,0-.3,0c.08-1.31-.2-2.66.46-3.88,1.12-2.07,3-2.74,5.22-2.73,9.64,0,19.27,0,28.9,0h241.2c3.92,0,5.69,1.67,5.71,5.56.05,7.76,0,15.52.07,23.29C445.85,69.73,445.39,70.51,445.73,71.33Z"/><path class="cls-6" d="M145.48,171.61l-3.9,4.45c-.8.57-1.62,1.12-2.39,1.73-6.9,5.45-15.1,4.17-21-1.75a6.92,6.92,0,0,1-2.51-2.59,3.24,3.24,0,0,0-1.73-1.49c-1.19-2.17-2.47-4.29-3.55-6.51a52,52,0,0,1-4-11.77,7,7,0,0,1,0-1.37,11.41,11.41,0,0,0,0-2.34c-.45-2.1-1.09-4.2-.75-6.41.09-.56,0-1.12.56-1.54.36-.27,1.51-.2.87-1.05-.49-.64-.85-2-2.21-1.23a3.64,3.64,0,0,0-2.24-3.49,9.84,9.84,0,0,1-2.69-2.62c1.62-.33,2.77.49,4,1-.14.77.46,1.14.89,1.57,1.08,1.12,2.25,2.16,3.26,3.33.69.79,1.29,1,2,.19s.32-1.5-.43-2a21.51,21.51,0,0,0-4.93-2.65c.92-.34.77-1.18.89-1.89,1.08-6.1,3-11.83,7-16.71a8.12,8.12,0,0,1,1.93-2,4.82,4.82,0,0,1,2,.58,28.38,28.38,0,0,0,6.55,2.14,1.24,1.24,0,0,0,1.6-.68,3.4,3.4,0,0,0-.54-2.8c-.24-.51-.82-.42-1.23-.19-2.31,1.31-4.31-.22-6.44-.64,1.19-1.1,2.31-2.3,4-2.6a6.9,6.9,0,0,1,.65.8.92.92,0,0,0,1.4.46c.73-.38.72-1,.49-1.61a5.39,5.39,0,0,0-.61-1c1.65-.29,3.3-.66,5-.84,7.33-.82,13.41,1.68,18.35,7.09a3.69,3.69,0,0,0,1.5,1.15c-.58.85-1.18,1.68-1.72,2.54-1,1.56-.49,2.54,1.32,2.59,1.25,0,2.51,0,3.76,0,.63,3.07,2.06,5.88,2.74,9a54.44,54.44,0,0,1,.06,21.58,3.1,3.1,0,0,1-.4.76c-.38.12-.73,0-.87.74-.59,3.12-.67,3.1-3.84,3.5l-.35,0c-1.48.28-2,1.48-1,2.58,1.47,1.65,2.69,3.33,2,5.71S146.64,169.56,145.48,171.61ZM134,109.56c-.05.57-.11.7-.07.78a11.08,11.08,0,0,0,.6,1.06,49.61,49.61,0,0,1,5.74,13.34,88.07,88.07,0,0,1,2.07,11.09c.28,1.83,0,2.91-1.81,3.61-1,.4-1.35.39-1.33-.75a21,21,0,0,0-.65-5.17c-.09-.41.06-1.12-.59-1.05-.46,0-.54.68-.65,1.13a27.91,27.91,0,0,0-.66,8.45c.09,1.7.84,2.11,2.38,1.28l3.51-1.92c0,2.16,0,4.07,0,6a53,53,0,0,0-.24,5.89c.17,1.79-.68,3.35-.62,5.14a31.84,31.84,0,0,1-.82,5.83c-.29,1.89-.53,3.79-.83,5.67s-.65,3.7-1,5.54c.59-.21.82-.49.91-.81,1.17-4.18,2.87-8.23,3.35-12.57.23-2.1,1.76-4,.94-6.32-.12-.36.73-1.65.83-2.63a107.05,107.05,0,0,0,.4-11.47c0-1.51-.4-3.15,1.39-4.27-1-.07-1.65,0-1.73-1.15a46.55,46.55,0,0,0-6.82-20.94A35.14,35.14,0,0,0,134,109.56Zm-4.49,66.5c.38-.58.52-.71.54-.85a155.37,155.37,0,0,0,1.72-17.59c.22-7.4.78-14.81.14-22.22-.08-.84.37-2.15-.31-2.41s-1.53.86-2,1.53c-.73.95-2.3,1.46-2.21,2.74s-.2,2.75-.14,4.13c.38,8.33.17,16.68,1.06,25C128.59,169.45,129.05,172.52,129.5,176.06Zm-17.79-25.17c0,.78.46,1,.87,1.32,2.94,2.2,3.16,4.73.65,7.31-.28.29-.58.57-.87.85s-.37.33-.24.59.46.33.73.26a3.56,3.56,0,0,0,1-.38c1.27-.77,1.74-.39,2.07,1,.87,3.72,1.92,7.4,2.92,11.1.14.51.13,1.38.88,1.22.58-.13.34-.92.24-1.38-.83-3.8-1.29-7.65-1.86-11.48a2.71,2.71,0,0,1,1.49-3.24c.4-.22.82-.42,1.2-.68,1.82-1.22,1.81-2.14-.16-3-2.48-1.11-4.21-2.6-3.75-5.64.14-.89-.08-1.57-1.29-1.52s-1.64.43-1.62,1.66C114,151.29,113.92,151.3,111.71,150.89Zm19.49-30.12c.46-1.48-.48-2.31-1.36-3.15-.32-.32-.63-.78-1.16-.56s-.38.78-.41,1.22q-.33,4.05-.63,8.1c-.1,1.37,0,2.59,1.93,1.85a2.54,2.54,0,0,1,1,0c.85.08,1-.27,1-1.1A54.82,54.82,0,0,0,131.2,120.77Zm-13.91,13.71c.3-1.17-.77-1-1.5-1.15-.89-.2-1.43,0-1.49,1.1-.18,3.23-.41,6.46-.62,9.7-.06,1,.5,1.36,1.35,1.45,1,.09,1.55-.38,1.54-1.4A64.67,64.67,0,0,1,117.29,134.48Zm12.64-25.26-.63.09c.4,2.13-1.79,4.68,1.54,6.64Zm-8.85,9.24c0-.52-.12-1.24-.61-1.33-.79-.15-.83.8-1.11,1.27-.39.67-1.3,1.31-.64,2.29a1,1,0,0,0,1.07.38c1.1-.35.87-1.49,1.26-2.27A1.2,1.2,0,0,0,121.08,118.46Z"/><rect class="cls-3" x="453.89" y="150" width="55" height="61"/><path class="cls-7" d="M509,153.34c-.08.08-.2.15-.23.25-1.69,5.2-5.56,6.77-10.66,6.73-11.42-.1-22.84,0-34.27,0a10.2,10.2,0,0,1-9.95-6.33,12,12,0,0,1-.54-2.44c-.57-5.11,4.85-9.22,8.84-9.18,12.65.1,25.31.18,37.95-.06,4.48-.08,9.54,4.42,8.89,8.93A16.15,16.15,0,0,0,509,153.34Zm-22.69-6.09-5.16-.07a1.37,1.37,0,0,0-1.12.06c-5.91,0-11.83,0-17.75,0a3.78,3.78,0,0,0-2.8,1.17,4,4,0,0,0-.92,4.63,4.27,4.27,0,0,0,4.16,2.6c3.71,0,7.41,0,11.12,0,8.7,0,17.41,0,26.11,0a4.4,4.4,0,0,0,4.48-4.19,4.2,4.2,0,0,0-4.38-4.22c-3.48,0-7,0-10.44.05A10.15,10.15,0,0,0,486.31,147.25Z"/><path class="cls-5" d="M148.87,165.4c.7-2.38-.52-4.06-2-5.71-1-1.1-.45-2.3,1-2.58l.35,0c3.17-.4,3.25-.38,3.84-3.5.14-.73.49-.62.87-.74-.1,1.24-1.26,2.66-.49,3.59s2.29.15,3.48.27c.52.05,1,.06,1.95.11a13.58,13.58,0,0,1-4.95,1.95c-2.24.61-2.47,1.12-1.24,3.06a34.45,34.45,0,0,1,2.48,4.59,11.31,11.31,0,0,1-2.83-2.07c-1.49-1.35-1.49-1.34-2.3.58C149,165.08,148.93,165.24,148.87,165.4Z"/><path class="cls-7" d="M369.7,194.55a10.87,10.87,0,0,0-4,2.48c-.51.42-.83,1.1-1.59,1.18s-1.28-.05-1.91-.05H267.45q-17.15,0-34.27.06a22.17,22.17,0,0,0-8.38-.73c-1.39-.21-3,.56-4.17-.76-2.94-3.9-6.7-6.27-11.72-6.3-1.43,0-2.87.08-4.31.12a9,9,0,0,1-5.2-.89,5.53,5.53,0,0,0-3.15-.52c-4.95,0-8.9,2.11-12.43,5.43-1.23,1.16-1.95,2.82-3.55,3.61l-10.86,0c0-5-.07-10-.07-15q0-53.88,0-107.76,0-14.07,0-28.14c0-2.24,0-2.24,2.32-2.24H417c7.23,0,14.47,0,21.71,0,1.54,0,2.09.35,2.09,2q-.07,69,0,138c0,4-.26,8.08.12,12.11a3.4,3.4,0,0,1-.22,1l-11.72,0a12.64,12.64,0,0,0-3.66-6.52,14.89,14.89,0,0,0-11.73-3.94c-1.55,0-3.09,0-4.63,0a5.68,5.68,0,0,0-3.74,1.31c-1.3-.3-2-1.92-3.55-1.65a10.66,10.66,0,0,0-6.87-1.69,49.85,49.85,0,0,0-7.25,1.39c-2.11.73-4.18,1.52-4.54,4.17-.07,3.86,1.92,5.72,5.78,5.52,1.79-.09,3.58-.08,5.37-.08,1,0,1.85.26,2,1.46L385,198c-1.45-.19-1.91-1.63-2.93-2.34a13.44,13.44,0,0,0-10.1-2.38A3.25,3.25,0,0,0,369.7,194.55Z"/><rect class="cls-1" x="173.21" y="49.78" width="264.27" height="143.74"/><path class="cls-8" d="M164.26,47.64a16.41,16.41,0,0,1,.16,1.72q0,13.39,0,26.8,0,49,0,97.93c0,.91.6,1.89-.13,2.77,0-1.1-.11-2.2-.11-3.3v-93q0-15.42,0-30.83C164.15,49,164.22,48.34,164.26,47.64Z"/><path class="cls-5" d="M150.57,121.55c-1.25,0-2.51,0-3.76,0-1.81,0-2.3-1-1.32-2.59.54-.86,1.14-1.69,1.72-2.54a34.35,34.35,0,0,1,4.79-5,27.39,27.39,0,0,1-2.56,5.9c-.65,1.17-.82,1.76.87,1.93a22.58,22.58,0,0,1,6.26,1.36A29.13,29.13,0,0,1,150.57,121.55Z"/><path class="cls-5" d="M116.45,112.93c2.13.42,4.13,1.95,6.44.64.41-.23,1-.32,1.23.19a3.4,3.4,0,0,1,.54,2.8,1.24,1.24,0,0,1-1.6.68,28.38,28.38,0,0,1-6.55-2.14,4.82,4.82,0,0,0-2-.58c.15-.2,0-.31-.13-.4l.06-.88A3.94,3.94,0,0,0,116.45,112.93Z"/><path class="cls-5" d="M104.85,139.74c1.36-.76,1.72.59,2.21,1.23.64.85-.51.78-.87,1.05-.59.42-.47,1-.56,1.54-.34,2.21.3,4.31.75,6.41a11.41,11.41,0,0,1,0,2.34,42.17,42.17,0,0,1-1.11-8.74c0-1-.31-1.32-1.35-.93-1.22.47-2.51.75-4.12,1.22A28.85,28.85,0,0,1,104.85,139.74Z"/><path class="cls-5" d="M104.7,135.07a21.51,21.51,0,0,1,4.93,2.65c.75.51,1.16,1.2.43,2s-1.3.6-2-.19c-1-1.17-2.18-2.21-3.26-3.33-.43-.43-1-.8-.89-1.57Z"/><path class="cls-5" d="M122.4,109a5.39,5.39,0,0,1,.61,1c.23.63.24,1.23-.49,1.61a.92.92,0,0,1-1.4-.46,6.9,6.9,0,0,0-.65-.8c.67-1.26-.12-2.6.24-4C121.59,107.07,121.8,108.16,122.4,109Z"/><path class="cls-6" d="M114.47,113.24l-.06.88c-.58.08-.89-.26-.77-.75S114.17,113.15,114.47,113.24Z"/><path class="cls-8" d="M164.29,46.67a1.21,1.21,0,0,1,.3,0c0,.24-.16.23-.33.25A.15.15,0,0,1,164.29,46.67Z"/><path class="cls-9" d="M166.7,212.39a30,30,0,0,0,5.44-4.48c.88-.24,1.3-1.07,2-1.55a16,16,0,0,0,6.12-8.17c1.6-.79,2.32-2.45,3.55-3.61,3.53-3.32,7.48-5.46,12.43-5.43l1,.47c-3.38,2.13-6.65,4.31-8.23,8.47a6.31,6.31,0,0,0,.8-.36,71.07,71.07,0,0,1,9.68-5.68c1.66-.88,3.59-.38,5.09-1.49,1.44,0,2.88-.13,4.31-.12,5,0,8.78,2.4,11.72,6.3a14,14,0,0,0-5.27-.32,14.64,14.64,0,0,0-7.13,2.36c-2.42,1.61-4.43,3.7-6.72,5.45A4,4,0,0,0,200,206.6c.9-.34,1.56-.54,2.18-.83,5-2.31,10.19-4.29,15.32-6.35,2.4-1,5-1,7.35-1.92a22.17,22.17,0,0,1,8.38.73c0,.46.54.54.74.86a42.49,42.49,0,0,0-10,4.19c-4.66,2.84-8.78,6.23-11.49,11.06a7.91,7.91,0,0,0-1.16,4.49c0,.56.24,1.29.79,1.12,1.48-.45,3.47.38,4.37-1.62,1.65-.72,3.57-.82,5-2.09l3.79-.94c2.34-.64,4.81-.63,7.09-1.5l8-.07a1.89,1.89,0,0,0,1.72,1.12c.58,0,1.25-.16,1.73.39l1.71,1,.46.71c-.85.25-1.49-.52-2.31-.47A42.33,42.33,0,0,0,223,223.1a125.74,125.74,0,0,0-15.8,12.14,79.15,79.15,0,0,0-8.9,8.76c-.41.49-.91.9-.14,1.57a23.77,23.77,0,0,0,12,5.44l1.38.11a28,28,0,0,0,6.33.6l1.38.09c6,.37,12.09.49,17.94,2.3h.43l1,.09c.72.74,1.49,1.44,2.17,2.21a4.71,4.71,0,0,1,.68,5.69c-1.21,1.89-3,2.26-5.09,2.17-1.39-.88-2.94-.67-4.46-.64h-1.51a11.66,11.66,0,0,0-2.59.14c-5.19,1.51-10.57,1.62-15.87,1.87-4.69.23-9.45.73-14.14-.53-1.7-.45-3.41-.19-5.2-1.17-2.51-1.38-5.45-2.07-8.21-3-3.86-1.27-7.71-2.54-11.49-4a2.63,2.63,0,0,0-2.75.28c-1.82,1.31-3.47,2.82-5.21,4.21-2,1.61-4,3.24-6,4.81-2.6,2-5.24,4-7.72,6.16-1.69,1.48-4.14,1.79-5.45,3.78-1.19,1.82-3,2.92-4.73,4.18-.51.37-1.08.68-1.31,1.32-.46,0-.64.37-.81.73-3,1.84-5.54,4.31-8.27,6.53C125.56,293.06,119,299.8,113.89,304c.58-1.8-16.29-39.88-24.15-38.43,3-2.67,6.43-4.69,9.71-6.92,6.27-4.26,12.61-8.42,18.93-12.61.38-.25,27.43-17.95,30.63-20.1,3-2,6.27-3.64,9.15-5.82s5.47-4.62,8.17-7C166.53,213,166.58,212.64,166.7,212.39Z"/><path class="cls-9" d="M463.26,260.11c4.61,2.79,9.66,4.7,14.4,7.21,5.86,3.1,12.55,6.24,18.23,9.68-5.57,1.1-11.37,3.34-14.9,7.83a31.45,31.45,0,0,0-6.09,13c-1.31,6.18-2,19-2,19.13-4.46-3-27.07-20.41-36-25.08a28,28,0,0,0-5-2.48c-2.22-1.12-4.4-2.33-6.68-3.33-2.9-1.27-5.54-3.18-8.77-3.64-.11-.2-.18-.51-.34-.57-3.26-1.27-6.4-2.84-9.6-4.24-1.28-.55-2.29-1.51-3.87-1.68-2.44-.25-4.8-1.36-7.24-1.64-3.22-.37-6.24-1.74-9.54-1.66a31.06,31.06,0,0,1-19.35-5.7,90,90,0,0,1-11.91-9.66,14.27,14.27,0,0,0-4.5-3.13c0-.26-.18-.31-.41-.26-1.62-1.66-3.91-1.56-5.9-2.23A9.6,9.6,0,0,1,341.9,247l1-2.31c2.42-2.44,5.38-2.25,8.34-1.56,2,.46,3.89,1.23,5.84,1.86l4.38,2c1.7,1,3.15,2.55,5.3,2.68a11.83,11.83,0,0,0,3.62,1.94l1,.43c1.61,1.09,3.54,1.33,5.32,2,.75.27,1.27.06,1-.93a9.24,9.24,0,0,1-.21-1.19,7.34,7.34,0,0,0,.09-5.22v-1.56l.45-2c-.19-.07-.19-.07-.07-.58,0-.81,0-1.61,0-2.42l-.12-19.55c-.11-.6,0-1.25-.45-1.76-.17-.89.15-1.92-.71-2.62,0-.34-.09-.68-.14-1,.16-.91-.48-1.58-.68-2.39-.16-1.57-1.11-2.88-1.47-4.38.11-1-.21-1.69-1.3-1.79-.84-.08-1.46.17-1.42,1.19a13.3,13.3,0,0,0-4.19,5,1.76,1.76,0,0,0-1.25,1.25c-.15.77-.76.9-1.33,1.1a4.72,4.72,0,0,1-4.31,0c-1.41-.19-1.51-1.74-2.47-2.39a7.22,7.22,0,0,1,.47-4.82c1.15-2,2.37-4,3.41-6,.64-1.26,2-2.09,2.12-3.65.76-.08,1.08-.76,1.59-1.18a10.87,10.87,0,0,1,4-2.48,34.29,34.29,0,0,1,4.31.18,8.73,8.73,0,0,1,4.18,1.52c4,3.18,6.78,7.36,9,11.89,2.78,5.6,4.47,11.63,6.95,17.34,1.5,3.46,3.12,6.92,6.68,9a90.26,90.26,0,0,0,12.87,6.32c7,2.77,14.1,5.44,21.14,8.17a4,4,0,0,0,1.86.33,7.65,7.65,0,0,0,2.91,1.51c4.69,1.58,9.27,3.43,13.84,5.34A86.79,86.79,0,0,0,463.26,260.11Z"/><path class="cls-5" d="M416.48,282.47c3.23.46,5.87,2.37,8.77,3.64,2.28,1,4.46,2.21,6.68,3.33-.57.59-1.32.35-2,.34-7.48-.06-15-.31-22.44-.19-13.69.23-27.39,0-41.08.11-7.83,0-15.67,0-23.5,0H281.34q-34.44,0-68.88,0-29,0-58,.1c-2.6,0-5.22-.17-7.81,0s-4.22-1.1-5.49-3.16c-.85-1.38-1.24-3-2.27-4.29.17-.36.35-.7.81-.73a11.09,11.09,0,0,0,2.62.79c4.56.24,9.12.17,13.69,0,10.15,0,20.31.08,30.46.08H398.38C404.41,282.54,410.45,282.49,416.48,282.47Z"/><path class="cls-5" d="M118.18,176c5.91,5.92,14.11,7.2,21,1.75.77-.61,1.59-1.16,2.39-1.73,1.33,0,2.65.15,4,.13,2,0,3.88.21,4.77,2.34s-.07,3.57-1.5,4.93a11.45,11.45,0,0,1-3.25.4q-15.91,0-31.82,0a7.92,7.92,0,0,1-3.87-.73,16,16,0,0,1-.93-1.66c-1.08-2.56.68-5.09,3.67-5.26C114.47,176.11,116.33,176.1,118.18,176Z"/><path class="cls-6" d="M109.88,183.13a7.92,7.92,0,0,0,3.87.73q15.91,0,31.82,0a11.45,11.45,0,0,0,3.25-.4c-.18.93-.93.71-1.53.72H111.45C110.72,184.17,109.83,184.34,109.88,183.13Z"/><path class="cls-10" d="M463.26,260.11a86.79,86.79,0,0,1-9.78-3.93c-4.57-1.91-9.15-3.76-13.84-5.34a7.65,7.65,0,0,1-2.91-1.51c-.87-6.18-1.62-12.38-2.66-18.53a5.92,5.92,0,0,1,1-4.69c2.71-4,4.59-8.3,3.69-13.33l3.65.1c3.94,1.53,4.21,5.51,5.55,8.66,3.4,8,6.57,16.08,9.73,24.17C459.54,250.51,461.72,255.19,463.26,260.11Z"/><path class="cls-1" d="M509.13,182.1c0-3.77,0-7.54,0-11.31,0-1.23.41-1.49,1.59-1.59a7.87,7.87,0,0,1,8.6,8.45c-.15,3.7.27,7.43-.2,11.12a7.82,7.82,0,0,1-9.11,6.55c-1.1-.19-.85-.93-.85-1.56C509.12,189.87,509.13,186,509.13,182.1Z"/><path class="cls-3" d="M413.6,187.69a14.89,14.89,0,0,1,11.73,3.94,12.64,12.64,0,0,1,3.66,6.52c-.21,1,.29,1.88.3,2.84a5.76,5.76,0,0,0,.24,2.73l.1.59c-.46,4.13-1,8.26-1.1,12.43,0,1.58.6,2,2.07,2a2.3,2.3,0,0,0,2.15-1.91,13.49,13.49,0,0,0-1.05-11.36c1.75.27,2.94,1.53,4.31,2.47a13.28,13.28,0,0,1,2.72,4.88c.9,5-1,9.31-3.69,13.33a5.92,5.92,0,0,0-1,4.69c1,6.15,1.79,12.35,2.66,18.53a4,4,0,0,1-1.86-.33c-7-2.73-14.11-5.4-21.14-8.17a90.26,90.26,0,0,1-12.87-6.32c-3.56-2.11-5.18-5.57-6.68-9-2.48-5.71-4.17-11.74-6.95-17.34-2.26-4.53-5-8.71-9-11.89a8.73,8.73,0,0,0-4.18-1.52,34.29,34.29,0,0,0-4.31-.18,3.25,3.25,0,0,1,2.31-1.26,13.44,13.44,0,0,1,10.1,2.38c1,.71,1.48,2.15,2.93,2.34l6.38,9.89c.86,1.65,1.2,3.61,2.74,4.88a2.08,2.08,0,0,0,.77,2.42c.37,1.58,1.52.8,2.42.8a11.51,11.51,0,0,1,.22,1.53c0,.79.36,1.17,1.16,1.15,3.18-.11,6.36.18,9.54-.17a1.67,1.67,0,0,0,1.55-1.28c1-2.41.5-4.8.11-7.18s-1.13-4.94-1.53-7.44c-.84-5.17-2.56-9.92-6.18-13.82a2.32,2.32,0,0,1-.54-1.41c1.56-.27,2.25,1.35,3.55,1.65,1.78,2.51,3.83,4.85,4.9,7.8.13.36.36.42.66.25,1.19-.68,1.62.22,2.12,1-2.44.18-2.47.23-1.63,2.5.13.37.2.77.34,1.15.74,2,.75,4.12,1.73,6a12.45,12.45,0,0,0,.36,3.49c.27,1.33.85,2.68-.14,4l-.34.35-.06.14.08-.12.34-.35c1.47,0,1.18,1.28,1.31,2a1.48,1.48,0,0,0,1.75,1.44c1.86,0,3.71-.06,5.57,0,1.35.05,1.79-.51,1.85-1.84.1-2.48.59-5,.57-7.42,0-3.17,1.32-6.18.51-9.49-1.26-5.09-3.68-9-8.69-11.06C415.5,188.51,414.55,188.09,413.6,187.69Z"/><path class="cls-10" d="M429.29,201c0-1-.51-1.86-.3-2.84l11.72,0c0,2.83,0,5.66.1,8.49,0,.88-.21,1.26-1.16,1.21-1.21-.06-2.42,0-3.64,0-1.37-.94-2.56-2.2-4.31-2.47v0c-.13-.33-.42-.41-.72-.48a1.63,1.63,0,0,0-1.36-.66c0-.2-.07-.39-.1-.59A5.08,5.08,0,0,0,429.29,201Z"/><path class="cls-10" d="M169.41,198.16l10.86,0a16,16,0,0,1-6.12,8.17c-.71.48-1.13,1.31-2,1.55-2.9-.12-2.89-.12-2.82-3.18C169.37,202.55,169.38,200.35,169.41,198.16Z"/><path class="cls-5" d="M134,109.56a35.14,35.14,0,0,1,4.31,5.72,46.55,46.55,0,0,1,6.82,20.94c.08,1.12.75,1.08,1.73,1.15-1.79,1.12-1.4,2.76-1.39,4.27a107.05,107.05,0,0,1-.4,11.47c-.1,1-.95,2.27-.83,2.63.82,2.35-.71,4.22-.94,6.32-.48,4.34-2.18,8.39-3.35,12.57-.09.32-.32.6-.91.81.33-1.84.68-3.69,1-5.54s.54-3.78.83-5.67a31.84,31.84,0,0,0,.82-5.83c-.06-1.79.79-3.35.62-5.14a53,53,0,0,1,.24-5.89c0-1.89,0-3.8,0-6L139,143.33c-1.54.83-2.29.42-2.38-1.28a27.91,27.91,0,0,1,.66-8.45c.11-.45.19-1.09.65-1.13.65-.07.5.64.59,1.05a21,21,0,0,1,.65,5.17c0,1.14.29,1.15,1.33.75,1.85-.7,2.09-1.78,1.81-3.61a88.07,88.07,0,0,0-2.07-11.09,49.61,49.61,0,0,0-5.74-13.34,11.08,11.08,0,0,1-.6-1.06C133.88,110.26,133.94,110.13,134,109.56Z"/><path class="cls-5" d="M129.5,176.06c-.45-3.54-.91-6.61-1.24-9.69-.89-8.3-.68-16.65-1.06-25-.06-1.38.24-2.73.14-4.13s1.48-1.79,2.21-2.74c.51-.67,1.26-1.82,2-1.53s.23,1.57.31,2.41c.64,7.41.08,14.82-.14,22.22A155.37,155.37,0,0,1,130,175.21C130,175.35,129.88,175.48,129.5,176.06Z"/><path class="cls-5" d="M111.71,150.89c2.21.41,2.28.4,2.23-2,0-1.23.46-1.61,1.62-1.66s1.43.63,1.29,1.52c-.46,3,1.27,4.53,3.75,5.64,2,.88,2,1.8.16,3-.38.26-.8.46-1.2.68a2.71,2.71,0,0,0-1.49,3.24c.57,3.83,1,7.68,1.86,11.48.1.46.34,1.25-.24,1.38-.75.16-.74-.71-.88-1.22-1-3.7-2-7.38-2.92-11.1-.33-1.42-.8-1.8-2.07-1a3.56,3.56,0,0,1-1,.38c-.27.07-.59.07-.73-.26s.08-.42.24-.59.59-.56.87-.85c2.51-2.58,2.29-5.11-.65-7.31C112.17,151.9,111.66,151.67,111.71,150.89Z"/><path class="cls-5" d="M131.2,120.77a54.82,54.82,0,0,1,.43,6.32c0,.83-.18,1.18-1,1.1a2.54,2.54,0,0,0-1,0c-2,.74-2-.48-1.93-1.85q.3-4,.63-8.1c0-.44-.13-1,.41-1.22s.84.24,1.16.56C130.72,118.46,131.66,119.29,131.2,120.77Z"/><path class="cls-5" d="M117.29,134.48a64.67,64.67,0,0,0-.72,9.7c0,1-.53,1.49-1.54,1.4-.85-.09-1.41-.49-1.35-1.45.21-3.24.44-6.47.62-9.7.06-1.05.6-1.3,1.49-1.1C116.52,133.49,117.59,133.31,117.29,134.48Z"/><path class="cls-5" d="M129.93,109.22l.91,6.73c-3.33-2-1.14-4.51-1.54-6.64Z"/><path class="cls-5" d="M121.08,118.47a1.16,1.16,0,0,1,0,.33c-.39.78-.16,1.92-1.26,2.27a1,1,0,0,1-1.07-.38c-.66-1,.25-1.62.64-2.29.28-.47.32-1.42,1.11-1.27C121,117.22,121,117.94,121.08,118.47Z"/><path class="cls-5" d="M489.61,147.24c3.48,0,7-.07,10.44-.05a4.2,4.2,0,0,1,4.38,4.22A4.4,4.4,0,0,1,500,155.6c-8.7,0-17.41,0-26.11,0-3.71,0-7.41.05-11.12,0a4.27,4.27,0,0,1-4.16-2.6,4,4,0,0,1,.92-4.63,3.78,3.78,0,0,1,2.8-1.17l17.76,0C486,146.88,482.49,147.37,489.61,147.24Z"/><path class="cls-1" d="M416.48,282.47c-6,0-12.07.07-18.1.07H186.52c-10.15,0-20.31-.05-30.46-.08,2.15-3.11,5.25-4.93,8.63-6.4,5.11-2.22,10.56-2.43,16-2.73s10.87-.44,16.31-.69a119.26,119.26,0,0,0,32-5.84c.88-.29,2.1-.16,2.55-.93.56-.95-1.07-1.31-1.11-2.25h1.51c1.67,2,1.67,2,4.46.64,2,.09,3.88-.28,5.09-2.17a4.71,4.71,0,0,0-.68-5.69c-.68-.77-1.45-1.47-2.17-2.21a.35.35,0,0,1,.19-.12c.75,0,1.5.11,2.25.12q12.52,0,25.06.06,37.8,0,75.58,0c.64,0,1.27-.08,1.9-.13h2.7a16.28,16.28,0,0,0,3.82.08,14.27,14.27,0,0,1,4.5,3.13A90,90,0,0,0,366.54,267a31.06,31.06,0,0,0,19.35,5.7c3.3-.08,6.32,1.29,9.54,1.66,2.44.28,4.8,1.39,7.24,1.64,1.58.17,2.59,1.13,3.87,1.68,3.2,1.4,6.34,3,9.6,4.24C416.3,282,416.37,282.27,416.48,282.47Zm-137.7-1.84h0c9.69,0,19.38,0,29.07,0a16,16,0,0,0,3.45-.37c2.2-.51,3.06-1.69,3-3.95-.14-5.75-.33-11.49-.44-17.23a2.9,2.9,0,0,0-2.12-3,8.69,8.69,0,0,0-2.9-.52q-28.28,0-56.56,0a8.86,8.86,0,0,0-4,1,2.55,2.55,0,0,0-1.46,1.82c-.32,1.47-.56,2.95-.82,4.42-.77,4.27-1.15,8.59-2,12.83-.55,2.63-.22,3.42,1.5,4.26a9.92,9.92,0,0,0,4.42.71Z"/><path class="cls-5" d="M346.31,254.11h-2.7a6.42,6.42,0,0,0-2.58-.17H266.88c-1.19,0-2.45.15-2.66-1.79-.42.87-.14,1.79-1.23,1.78-3.59,0-7.19,0-10.79,0-.93,0-1.14-.8-1.21-1.45-.1-1,.78-.64,1.25-.65,2.32,0,4.64,0,7,0,1.09,0,1.75-.44,1.82-1.62a7.29,7.29,0,0,1,.33-1.51c.34-1.26-.09-1.89-1.44-1.88-4.75.05-9.51.08-14.27.12-.65,0-1.41,0-1.65.72-.72,1.95-3,1.92-4,3.66a2.64,2.64,0,0,1,0-1.89c.42-2.17.2-2.48-2-2.5-3.94,0-7.88,0-11.83,0-3.33,0-3.28,0-4,3.32-.27,1.14.21,1.57,1.18,1.57,4.92,0,9.85.11,14.77-.09,1.35,0,1.5.12,1.1,1.24-.14.38-.28.75-.41,1.13a.35.35,0,0,0-.19.12l-1-.1-.44,0c-5.85-1.81-11.91-1.93-17.94-2.3l-1.38-.09c.84-.82.7-2,1.14-3,.61-1.35,0-1.79-1.27-1.82l-4.12-.14c1.45-1.45,2.58-3.2,4.23-4.46-.42,2.48-.41,2.5,2.12,2.51,4.18,0,8.36,0,12.54,0,2.13,0,2.91-.94,2.83-3.44-.06-1.91-1.6-1.28-2.61-1.32-4.29-.16-8.58.18-12.87-.18a7,7,0,0,1,1.61-1.82c1,0,2.07.07,3.1.05,2.34,0,2.59-.42,3.14-3.13.4-1.94-1.37-1.21-2-1.86a15.62,15.62,0,0,1,2.83-1.63l12.41,0,.28,1.38c-.33.87-1.09.48-1.65.49-2.13.06-4.27,0-6.41,0-1.65,0-2.51,1.26-2.42,3.48.06,1.54,1.38,1.16,2.23,1.17a77.58,77.58,0,0,0,8.49-.11,2.72,2.72,0,0,1,1.12,1.48c-.63.68-1.51.47-2.28.63-1.07.22-2.5,3.35-2,4.27a1,1,0,0,0,.88.45c5,0,10,0,15,0,1.51,0,1.81-1.31,1.91-2.49a1.75,1.75,0,0,0-1.57-2.15,13.47,13.47,0,0,0-5.33,0l-.51-.21c1.13-.46,1.39-1.71,2.23-2.44a3.43,3.43,0,0,0,2.16.49c4.07,0,8.13,0,12.19,0,2.73,0,2.89-.22,3.08-3,.08-1.06-.35-1.58-1.32-1.58-5.1,0-10.21-.34-15.3.26-.7-.76.1-1.47.09-2.2l.86,0c3,0,6,0,9-.1,2.05,0,1.61-1.75,1.78-3s-.74-1.37-1.67-1.36l-9.91.06a4.72,4.72,0,0,1-.49-1.94,18.93,18.93,0,0,1,4.32-.15c2,0,2-1.4,2.12-2.72.14-1.5-1.05-1.49-2-1.51-2-.06-3.94,0-5.92,0a4.59,4.59,0,0,1-1.21-1.8l7.62,0a4.77,4.77,0,0,0,1.87-.26,1.52,1.52,0,0,0,.92-1.69c-.06-.72-.69-.89-1.29-.89-4.15,0-8.31-.2-12.46.11l-1.71-1c.52,0,1-.07,1.56-.07q45.33,0,90.66,0,12.36,0,24.72,0a4.72,4.72,0,0,0,4.31,0l11.64,0c.05.33.09.67.14,1-1.79,0-3.58-.15-5.36-.09-.72,0-1.79-.12-1.86,1.07a1.64,1.64,0,0,0,1.75,1.77,23.27,23.27,0,0,0,6.18-.13c.43.51.34,1.16.45,1.76-2.81.53-5.65.15-8.47.23s-5.68,0-8.53,0c-.82,0-1.85,0-2,1.21-.18,2.11.65,3,2.79,3,4.58,0,9.16,0,13.74,0,.79,0,2.22-.79,2.27.94s-1.39,1-2.18,1c-2.37.11-4.75,0-7.13,0-.71,0-1.43,0-1.6,1a2.79,2.79,0,0,0,2.92,3.51c2.14,0,4.29,0,6.43,0,.68,0,1.64-.32,1.6,1s-1,.88-1.67.88c-6.38,0-12.76,0-19.14,0a25.64,25.64,0,0,0-2.77.09c-.57.06-1.14.27-1.16,1.05-.07,2.49.84,3.45,3.33,3.45h19.83c.7,0,1.56-.25,1.6,1s-.88,1.1-1.65,1.11c-1.91,0-3.82,0-5.74,0-.55,0-1.17,0-1.37.77a3.15,3.15,0,0,0,2.91,3.92c1.9.08,3.83-.27,5.71.26v1.56c-1.85.56-3.76.17-5.64.26s-2,.33-1.69,2.06c.14.86.81,1.72.12,2.63a11.83,11.83,0,0,1-3.62-1.94c-.3-2.7-.36-2.75-3.05-2.74-.75,0-1.5,0-2.25.06l-4.38-2c2.37-.05,4.74-.08,7.11-.15.67,0,1.45.06,1.66-.87a3,3,0,0,0-3.08-3.83c-5.79,0-11.58.07-17.37,0-3.9-.07-3.43.3-2.89,3.81a2.74,2.74,0,0,0,.39.76l-1,2.31c-.58,0-1.16-.06-1.73-.06H268.28c-.83,0-1.66,0-2.08.91-1.18,2.56-.31,4,2.43,4q35,0,70,0c1.74,0,3.48-.06,5.22-.09,2,.67,4.28.57,5.9,2.22C348.59,254,347.43,253.73,346.31,254.11Zm-78.55-9.3h5.73c3.24,0,2.89-.25,3.21-3.33a1,1,0,0,0-1.05-1.3,145.19,145.19,0,0,0-14.9.06c-1.95.12-1.36,2.14-1.47,3.39s1,1.16,1.88,1.17C263.36,244.82,265.56,244.8,267.76,244.81Zm62.6,0h6.95c.67,0,1.31-.08,1.63-.74.75-1.52-.68-4-2.35-4-4.35,0-8.69,0-13,0-1.14,0-2,.1-2,1.67.07,2.6.19,3,2,3C325.84,244.83,328.1,244.79,330.36,244.79Zm-41.63,0h6.78c.77,0,1.52,0,1.77-1,.72-2.78,0-3.68-2.83-3.69h-1c-3.83,0-7.65,0-11.47,0-1.63,0-1.87.67-1.85,3.21,0,1.38.89,1.45,1.86,1.46C284.21,244.81,286.47,244.8,288.73,244.8Zm20.72,0h6.79c1.19,0,2.05-.33,1.9-1.8s.31-2.94-1.93-2.92c-4.47,0-8.93,0-13.4,0-2.12,0-1.78,1.41-1.87,2.74s.5,2,1.9,2C305,244.78,307.25,244.81,309.45,244.8Zm-9-6.82c2.15,0,4.3,0,6.44,0,1.47,0,2.28-.39,2.2-2.08-.1-2.1-.29-2.49-2.17-2.52-3.19-.05-6.38,0-9.57,0-1.22,0-2.44,0-3.65.05-2.07.15-1.52,1.78-1.64,3s.76,1.51,1.78,1.51Zm41.05,0c2.09,0,4.18,0,6.27,0,.9,0,2.11.33,2.13-1.28,0-2.32-.44-3.1-2.14-3.18-4.4-.19-8.81-.18-13.22,0-1,0-1.95.09-1.73,1.49s-.34,3,1.9,3ZM321,238v0c2.26,0,4.52,0,6.78,0,.61,0,1.31.07,1.6-.72.77-2-.3-3.82-2.41-3.83-4.23,0-8.46.07-12.69.05-1.4,0-1.82.67-1.74,1.95s-.27,2.58,1.68,2.55C316.44,237.93,318.7,238,321,238Zm-41,0c2.25,0,4.51,0,6.76,0,.75,0,1.51,0,1.77-1,.65-2.53.07-3.37-2.5-3.49-.23,0-.46,0-.69,0-3.87,0-7.75,0-11.62.06-1.87,0-2.14.65-2.07,3.15,0,1.59,1.18,1.3,2.1,1.32C275.83,238,277.92,238,280,238Zm-5.11-6.5v-.09c2.37,0,4.75.06,7.12,0,1.81-.06,1.29-1.58,1.45-2.63s-.24-1.66-1.27-1.66c-4.57,0-9.14-.07-13.71,0-1.94,0-1.47,1.71-1.63,2.89-.18,1.4.83,1.48,1.78,1.5C270.72,231.51,272.8,231.48,274.89,231.48Zm80.21-4.43h0c-2,0-4.06,0-6.08,0-.9,0-2.16-.31-2.23,1.2-.11,2.16.44,3.07,2.08,3.14,4.51.22,9,.19,13.54,0a1.26,1.26,0,0,0,1.29-.7,2.86,2.86,0,0,0-2.53-3.63C359.15,227,357.12,227.05,355.1,227.05Zm-40,0h0c-2.15,0-4.29,0-6.44,0-1.17,0-1.9.38-1.81,1.72.07,1.18-.32,2.61,1.59,2.63q6.61.06,13.22.07c1.18,0,2-.4,1.86-1.87s-.12-2.59-2-2.56C319.43,227.07,317.28,227,315.14,227ZM335,227c-2.14,0-4.29,0-6.43,0-.63,0-1.32,0-1.66.67a2.62,2.62,0,0,0,2.31,3.77c4.11,0,8.23,0,12.34,0,.88,0,2.09.22,2.08-1.38,0-2.12-.55-3-2.2-3C339.3,227,337.16,227.05,335,227Zm-66.11-2h6.74a1.46,1.46,0,0,0,1.63-1c.83-2.41.32-3.22-2.23-3.24-3.75,0-7.51,0-11.27,0a4.57,4.57,0,0,0-1.52.25c-1.42.53-1.22,1.84-1.23,2.95s1.05,1,1.81,1C264.85,225,266.87,225,268.9,225Zm79.26,0h0c2,0,3.94,0,5.91,0s2.43-.47,2-2.51c-.3-1.5-1.4-1.71-2.61-1.72-3.93,0-7.87,0-11.81,0-.93,0-2.11-.12-1.95,1.47.13,1.33,0,2.79,2,2.76S346,225,348.16,225Zm-39.42,0v0h6.07c1,0,2,0,2-1.48s-.07-2.68-1.84-2.71c-4.28-.05-8.56-.06-12.83,0-1.64,0-1.77,1.29-1.79,2.62s.95,1.55,2,1.57C304.46,225,306.6,225,308.74,225Zm-20,0c2,0,3.94,0,5.9,0,1.44,0,2.52-.11,2.42-2s-.32-2.21-2.43-2.25c-2.66,0-5.32,0-8,0-1.39,0-2.78,0-4.17.05-1.87.1-1.69,1.56-1.72,2.82s.93,1.39,1.9,1.39Zm39.64,0c2,0,3.93,0,5.89,0,.94,0,2.07.26,2.15-1.29.1-2.05-.34-2.85-2.07-2.89-4.16-.09-8.32-.06-12.48,0-1.24,0-1.86.62-1.79,2s.27,2.28,1.88,2.25C324.11,225,326.25,225,328.39,225Zm12.36-9v0c-1.85,0-3.7.05-5.54,0-.78,0-1.27.24-1.41.92s-.05,1.54.9,1.78a6.18,6.18,0,0,0,1.53.24c3,0,6,0,9,0a15.22,15.22,0,0,0,2.24-.12c.61-.09,1.31-.22,1.2-1.14-.08-.74-.29-1.38-1.15-1.5a18.1,18.1,0,0,0-2.06-.18C343.87,216,342.31,216,340.75,216Zm-17.27.11v0c-1.85,0-3.7,0-5.55,0-.9,0-2-.16-2.1,1.21s1,1.61,2,1.62c3.76,0,7.52,0,11.27,0,.86,0,1.61-.23,1.64-1.35s-.72-1.45-1.68-1.46Zm-18,0v0c-2,0-3.95,0-5.92,0-.84,0-1.62.19-1.67,1.33s.78,1.43,1.57,1.44c3.94.06,7.89,0,11.83,0a1.34,1.34,0,0,0,1.5-1.53c-.05-1-.76-1.22-1.57-1.23C309.35,216.12,307.43,216.13,305.52,216.13Zm-18.16,2.75V219c1.86,0,3.71,0,5.56,0,1,0,1.92-.17,2-1.46s-.95-1.38-1.91-1.39h-7.13c-1.43,0-2.86,0-4.29,0-1,0-1.43.55-1.45,1.56s.66,1.15,1.36,1.16C283.42,218.9,285.39,218.88,287.36,218.88Zm71.54-2.77v0c-2,0-4,0-6.07,0-.51,0-1.08.11-1.19.77a1.43,1.43,0,0,0,.69,1.64,3.4,3.4,0,0,0,1.5.38c3.64,0,7.28.05,10.92,0,.8,0,1.88,0,1.8-1.32s-.9-1.5-1.93-1.5ZM269.76,219a53.19,53.19,0,0,0,5.91-.14,1.41,1.41,0,0,0,1.37-1.65c-.07-1-.82-1-1.5-1-3.87,0-7.74,0-11.61,0-1,0-1.67.41-1.68,1.52s.8,1.3,1.65,1.32C265.69,219,267.48,219,269.76,219Z"/><path class="cls-1" d="M230.42,263.62c0,.94,1.67,1.3,1.11,2.25-.45.77-1.67.64-2.55.93a119.26,119.26,0,0,1-32,5.84c-5.44.25-10.88.4-16.31.69s-10.88.51-16,2.73c-3.38,1.47-6.48,3.29-8.63,6.4-4.57.15-9.13.22-13.69,0a11.09,11.09,0,0,1-2.62-.79c.23-.64.8-.95,1.31-1.32,1.7-1.26,3.54-2.36,4.73-4.18,1.31-2,3.76-2.3,5.45-3.78,2.48-2.16,5.12-4.14,7.72-6.16,2-1.57,4-3.2,6-4.81,1.74-1.39,3.39-2.9,5.21-4.21a2.63,2.63,0,0,1,2.75-.28c3.78,1.5,7.63,2.77,11.49,4,2.76.91,5.7,1.6,8.21,3,1.79,1,3.5.72,5.2,1.17,4.69,1.26,9.45.76,14.14.53,5.3-.25,10.68-.36,15.87-1.87A11.66,11.66,0,0,1,230.42,263.62Z"/><path class="cls-1" d="M233.18,198.23q17.13,0,34.27-.06h94.79c.63,0,1.27,0,1.91.05-.1,1.56-1.48,2.39-2.12,3.65-1,2.07-2.26,4-3.41,6q-16.71,0-33.42,0-42.29,0-84.58,0a10,10,0,0,1-1.11-2.52c-1.28-2.61-2.64-5.14-5.59-6.25C233.72,198.77,233.22,198.69,233.18,198.23Zm76.74.65a3.74,3.74,0,0,0-4,4c0,2.44,1.65,4.28,3.81,4.27a4.15,4.15,0,1,0,.19-8.29Zm-39.62,8.28a4.15,4.15,0,1,0-4.12-4.11A4.25,4.25,0,0,0,270.3,207.16ZM324.1,203a4.17,4.17,0,0,0-8.34,0,4.17,4.17,0,0,0,8.34,0Zm-30,.08a3.87,3.87,0,0,0-4-4.22,4.14,4.14,0,0,0-.17,8.27A3.87,3.87,0,0,0,294.15,203.09Zm39.79.07a4.09,4.09,0,1,0-8.17-.29,4.09,4.09,0,1,0,8.17.29Zm10,0a4.17,4.17,0,1,0-4.37,4A4.22,4.22,0,0,0,343.94,203.14ZM284.38,203a4.1,4.1,0,0,0-4.2-4.16,4.15,4.15,0,0,0,.18,8.3A4.09,4.09,0,0,0,284.38,203Zm19.84-.12a4.18,4.18,0,0,0-4.15-4A4,4,0,0,0,296,203a4.08,4.08,0,0,0,4,4.23A4.47,4.47,0,0,0,304.22,202.91Z"/><path class="cls-3" d="M228.51,231.46a15.62,15.62,0,0,0-2.83,1.63,24.5,24.5,0,0,0-4.25,4.94,7,7,0,0,0-1.61,1.82c-.79.71-1.74,1.3-2,2.45-1.65,1.26-2.78,3-4.23,4.46a9.83,9.83,0,0,0-2,2.19,1.88,1.88,0,0,0-1.43,2.06,23.77,23.77,0,0,1-12-5.44c-.77-.67-.27-1.08.14-1.57a79.15,79.15,0,0,1,8.9-8.76A125.74,125.74,0,0,1,223,223.1a42.33,42.33,0,0,1,20.57-6.61c.82-.05,1.46.72,2.31.47,1.22.31,1.56,1.87,2.88,2a4.59,4.59,0,0,0,1.21,1.8c-.18,1.68,1.24,2.82,1.48,4.36a4.87,4.87,0,0,0,.48,1.94l-.09,4.39c0,.73-.79,1.44-.09,2.2l-.81,3.81c-.84.73-1.1,2-2.23,2.44a7.64,7.64,0,0,1-2.3-.5c-1.14-.36-2.34-1-3.55-.1l-.27.08a2.72,2.72,0,0,0-1.12-1.48,19.6,19.6,0,0,0-.24-5.07c-.09-.46-.19-.92-.28-1.38.35-.67-.33-1.28-.12-1.94,0-1.89-.57-2.58-2.31-2.88-1.13-.2-2,.46-3,.73-2.43.68-4.83,1.51-6.58,3.51C228.74,231.05,228.39,231.07,228.51,231.46Z"/><path class="cls-10" d="M360.62,215.12q-12.36,0-24.72,0-45.33,0-90.66,0c-.52,0-1,0-1.56.07-.48-.55-1.15-.39-1.73-.39a1.89,1.89,0,0,1-1.72-1.12l.68-1q22.95,0,45.92,0l71.32,0C359.11,213.38,359.21,214.93,360.62,215.12Z"/><path class="cls-3" d="M240.91,212.76l-.68,1-8,.07a1.49,1.49,0,0,0-.67-1.11,6,6,0,0,0-.92-2c-.7-1.26-1.56-1.65-2.92-.84a32.85,32.85,0,0,0-4.84,2.88c-1,.74-2.66.8-2.95,2.45-.71.13-1.54,0-1.84,1-.6.3-1.21.58-1.79.92-.74.43-.84.89,0,1.29-.9,2-2.89,1.17-4.37,1.62-.55.17-.75-.56-.79-1.12a7.91,7.91,0,0,1,1.16-4.49c2.71-4.83,6.83-8.22,11.49-11.06a42.49,42.49,0,0,1,10-4.19c3,1.11,4.31,3.64,5.59,6.25a10,10,0,0,0,1.11,2.52A25.11,25.11,0,0,1,240.91,212.76Z"/><path class="cls-3" d="M220.63,196.74c1.2,1.32,2.78.55,4.17.76-2.36.94-5,.95-7.35,1.92-5.13,2.06-10.29,4-15.32,6.35-.62.29-1.28.49-2.18.83a4,4,0,0,1,1.56-2.37c2.29-1.75,4.3-3.84,6.72-5.45a14.64,14.64,0,0,1,7.13-2.36A14,14,0,0,1,220.63,196.74Z"/><path class="cls-3" d="M196.25,189.15a5.53,5.53,0,0,1,3.15.52,9,9,0,0,0,5.2.89c-1.5,1.11-3.43.61-5.09,1.49a71.07,71.07,0,0,0-9.68,5.68,6.31,6.31,0,0,1-.8.36c1.58-4.16,4.85-6.34,8.23-8.47Z"/><path class="cls-11" d="M248.73,219c-1.32-.18-1.66-1.74-2.88-2l-.46-.71c4.15-.31,8.31-.11,12.46-.11.6,0,1.23.17,1.29.89a1.52,1.52,0,0,1-.92,1.69,4.77,4.77,0,0,1-1.87.26Z"/><path class="cls-11" d="M211.55,249a9.83,9.83,0,0,1,2-2.19l4.12.14c1.25,0,1.88.47,1.27,1.82-.44,1-.3,2.18-1.14,3a28,28,0,0,1-6.33-.6C211.52,250.4,211.54,249.67,211.55,249Z"/><path class="cls-10" d="M220,215.17c.29-1.65,1.9-1.71,2.95-2.45l8.68,0a1.49,1.49,0,0,1,.67,1.11c-2.29.87-4.76.86-7.09,1.5Z"/><path class="cls-11" d="M216.39,218.33c-.89-.4-.79-.86,0-1.29.58-.34,1.19-.62,1.79-.92a14.14,14.14,0,0,1,3.25.12C220,217.51,218,217.61,216.39,218.33Z"/><path class="cls-5" d="M221.38,216.24a14.14,14.14,0,0,0-3.25-.12c.3-.92,1.13-.82,1.84-1l5.21.13Z"/><path class="cls-6" d="M236.39,264.26c-2.79,1.34-2.79,1.34-4.46-.64C233.45,263.59,235,263.38,236.39,264.26Z"/><path class="cls-6" d="M211.55,249c0,.72,0,1.45-.05,2.17l-1.38-.11A1.88,1.88,0,0,1,211.55,249Z"/><line class="cls-6" x1="134.23" y1="237.5" x2="134.23" y2="237.5"/><path class="cls-11" d="M237.15,254.11l.44,0Z"/><path class="cls-6" d="M135.62,237.51v0"/><path class="cls-6" d="M119.25,261.88l-.35.35h0l.35-.34Z"/><path class="cls-6" d="M118.21,262.93l-.35.35h0l.35-.35Z"/><path class="cls-5" d="M240.91,212.76a25.11,25.11,0,0,0-.29-4.9q42.28,0,84.58,0,16.71,0,33.42,0a7.22,7.22,0,0,0-.47,4.82l-71.32,0Q263.87,212.71,240.91,212.76Z"/><path class="cls-11" d="M343.82,251.7c-1.74,0-3.48.09-5.22.09q-35,0-70,0c-2.74,0-3.61-1.41-2.43-4,.42-.91,1.25-.91,2.08-.91h71.89c.57,0,1.15,0,1.73.06A9.6,9.6,0,0,0,343.82,251.7Z"/><path class="cls-11" d="M377.63,245.07c-1.88-.53-3.81-.18-5.71-.26a3.15,3.15,0,0,1-2.91-3.92c.2-.77.82-.76,1.37-.77,1.92,0,3.83,0,5.74,0,.77,0,1.7.26,1.65-1.11s-.9-1-1.6-1H356.34c-2.49,0-3.4-1-3.33-3.45,0-.78.59-1,1.16-1.05a25.64,25.64,0,0,1,2.77-.09c6.38,0,12.76,0,19.14,0,.65,0,1.62.4,1.67-.88s-.92-1-1.6-1c-2.14,0-4.29,0-6.43,0A2.79,2.79,0,0,1,366.8,228c.17-.94.89-.94,1.6-1,2.38,0,4.76.07,7.13,0,.79,0,2.25.77,2.18-1s-1.48-.92-2.27-.94c-4.58-.08-9.16,0-13.74,0-2.14,0-3-.9-2.79-3,.11-1.23,1.14-1.19,2-1.21,2.85-.06,5.69,0,8.53,0s5.66.3,8.47-.23l.12,19.55c0,.81,0,1.61,0,2.42,0,.19,0,.39.07.58Z"/><path class="cls-11" d="M342.94,244.64a2.74,2.74,0,0,1-.39-.76c-.54-3.51-1-3.88,2.89-3.81,5.79.09,11.58,0,17.37,0a3,3,0,0,1,3.08,3.83c-.21.93-1,.85-1.66.87-2.37.07-4.74.1-7.11.15-1.95-.63-3.86-1.4-5.84-1.86C348.32,242.39,345.36,242.2,342.94,244.64Z"/><path class="cls-11" d="M370.42,251.58c.69-.91,0-1.77-.12-2.63-.29-1.73-.09-2,1.69-2.06s3.79.3,5.64-.26a7.34,7.34,0,0,1-.09,5.22c-2,.28-4.06-.43-6.08.16Z"/><path class="cls-5" d="M367.51,212.74a13.3,13.3,0,0,1,4.19-5c.86.42,2-.48,2.72.6.36,1.5,1.31,2.81,1.47,4.38Z"/><path class="cls-10" d="M367.51,212.74h8.38c.2.81.84,1.48.68,2.39l-11.64,0c.57-.2,1.18-.33,1.33-1.1A1.76,1.76,0,0,1,367.51,212.74Z"/><path class="cls-11" d="M377.42,218.76a23.27,23.27,0,0,1-6.18.13,1.64,1.64,0,0,1-1.75-1.77c.07-1.19,1.14-1.05,1.86-1.07,1.78-.06,3.57,0,5.36.09C377.57,216.84,377.25,217.87,377.42,218.76Z"/><path class="cls-5" d="M371.46,252c2-.59,4.06.12,6.08-.16a9.24,9.24,0,0,0,.21,1.19c.3,1-.22,1.2-1,.93C375,253.34,373.07,253.1,371.46,252Z"/><path class="cls-11" d="M361.5,247c.75,0,1.5-.05,2.25-.06,2.69,0,2.75,0,3.05,2.74C364.65,249.51,363.2,248,361.5,247Z"/><path class="cls-10" d="M374.42,208.36c-.71-1.08-1.86-.18-2.72-.6,0-1,.58-1.27,1.42-1.19C374.21,206.67,374.53,207.37,374.42,208.36Z"/><path class="cls-11" d="M346.31,254.11c1.12-.38,2.28-.08,3.41-.19.23,0,.38,0,.41.27A16.28,16.28,0,0,1,346.31,254.11Z"/><path class="cls-12" d="M113.33,256.66,113,257Z"/><path class="cls-9" d="M401.68,187.38a2.32,2.32,0,0,0,.54,1.41c3.62,3.9,5.34,8.65,6.18,13.82.4,2.5,1.12,4.94,1.53,7.44s.9,4.77-.11,7.18a1.67,1.67,0,0,1-1.55,1.28c-3.18.35-6.36.06-9.54.17-.8,0-1.14-.36-1.16-1.15a11.51,11.51,0,0,0-.22-1.53c0-.26,0-.51.07-.77,0-.83,0-1.66,0-2.5l0-4.85c.37-3-.58-5.83-.68-8.76a1.12,1.12,0,0,0-.63-1c-.14-1.2-1-1.45-2-1.46-1.79,0-3.58,0-5.37.08-3.86.2-5.85-1.66-5.78-5.52.42-.13,1.13,0,1.15-.56.05-1.58,1.31-1.83,2.33-2.34a1.89,1.89,0,0,0,1.06-1.27,49.85,49.85,0,0,1,7.25-1.39A10.66,10.66,0,0,1,401.68,187.38Z"/><path class="cls-9" d="M412.91,198.08c-.5-.78-.93-1.68-2.12-1-.3.17-.53.11-.66-.25-1.07-3-3.12-5.29-4.9-7.8a5.68,5.68,0,0,1,3.74-1.31c1.54,0,3.08,0,4.63,0,.95.4,1.9.82,2.86,1.2,5,2,7.43,6,8.69,11.06.81,3.31-.55,6.32-.51,9.49,0,2.47-.47,4.94-.57,7.42-.06,1.33-.5,1.89-1.85,1.84-1.86-.07-3.71,0-5.57,0a1.48,1.48,0,0,1-1.75-1.44c-.13-.76.16-2-1.31-2l0,0c1-1.29.41-2.64.14-4a12.45,12.45,0,0,1-.36-3.49c.27-.13.69.1.82-.41.45-1.84,1-3.65,1.39-5.49C416,199.79,416.18,198.4,412.91,198.08Z"/><path class="cls-10" d="M396.16,198.15a1.12,1.12,0,0,1,.63,1c.1,2.93,1,5.8.68,8.76l-6.05,0L385,198Z"/><path class="cls-6" d="M387.56,187.08a1.89,1.89,0,0,1-1.06,1.27c-1,.51-2.28.76-2.33,2.34,0,.53-.73.43-1.15.56C383.38,188.6,385.45,187.81,387.56,187.08Z"/><path class="cls-9" d="M429.63,204.31A1.63,1.63,0,0,1,431,205a.76.76,0,0,0,.72.48v0a13.49,13.49,0,0,1,1.05,11.36,2.3,2.3,0,0,1-2.15,1.91c-1.47.09-2.12-.38-2.07-2C428.66,212.57,429.17,208.44,429.63,204.31Z"/><path class="cls-10" d="M412.91,198.08c3.27.32,3.11,1.71,2.65,3.75-.42,1.84-.94,3.65-1.39,5.49-.13.51-.55.28-.82.41-1-1.88-1-4-1.73-6-.14-.38-.21-.78-.34-1.15C410.44,198.31,410.47,198.26,412.91,198.08Z"/><path class="cls-5" d="M391.42,207.9l6.05,0c0,1.62,0,3.24,0,4.85l-3.27.05C392.62,211.51,392.28,209.55,391.42,207.9Z"/><path class="cls-10" d="M394.16,212.78l3.27-.05c0,.84,0,1.67,0,2.51l-2.49,0A2.08,2.08,0,0,1,394.16,212.78Z"/><path class="cls-5" d="M394.93,215.2l2.49,0c0,.25-.05.5-.07.76C396.45,216,395.3,216.78,394.93,215.2Z"/><path class="cls-12" d="M429.29,201a5.08,5.08,0,0,1,.24,2.73A5.76,5.76,0,0,1,429.29,201Z"/><path class="cls-12" d="M413.25,215.56l-.08.12.06-.14Z"/><path class="cls-12" d="M413.23,215.54l.34-.35,0,0-.34.35Z"/><path class="cls-6" d="M431.71,205.45A.76.76,0,0,1,431,205C431.29,205,431.58,205.12,431.71,205.45Z"/><path class="cls-5" d="M278.78,280.63H249.89a9.92,9.92,0,0,1-4.42-.71c-1.72-.84-2.05-1.63-1.5-4.26.89-4.24,1.27-8.56,2-12.83.26-1.47.5-2.95.82-4.42a2.55,2.55,0,0,1,1.46-1.82,8.86,8.86,0,0,1,4-1q28.29,0,56.56,0a8.69,8.69,0,0,1,2.9.52,2.9,2.9,0,0,1,2.12,3c.11,5.74.3,11.48.44,17.23.05,2.26-.81,3.44-3,3.95a16,16,0,0,1-3.45.37c-9.69,0-19.38,0-29.07,0Zm17.35-8.22h-12c-4.2,0-4.13,0-4.38,4.24-.09,1.48.45,1.74,1.75,1.73,8.86,0,17.73,0,26.6,0,3.64,0,4-.48,4.06-4.14,0-1.53-.58-1.85-2-1.83C305.52,272.44,300.82,272.41,296.13,272.41Zm-33.48,5.94H274.3c3.7,0,3.7,0,4.06-3.62.22-2.19.18-2.22-2-2.24-9.68-.11-19.35.23-29-.17a.85.85,0,0,0-1,.93c0,.46,0,.93,0,1.39-.46,3.13,0,3.68,3.16,3.71C253.84,278.37,258.24,278.35,262.65,278.35Z"/><path class="cls-11" d="M238.82,254.07c.13-.38.27-.75.41-1.13.4-1.12.25-1.29-1.1-1.24-4.92.2-9.85.12-14.77.09-1,0-1.45-.43-1.18-1.57.77-3.31.72-3.32,4-3.32,4,0,7.89,0,11.83,0,2.16,0,2.38.33,2,2.5a2.64,2.64,0,0,0,0,1.89c1-1.74,3.24-1.71,4-3.66.24-.67,1-.71,1.65-.72,4.76,0,9.52-.07,14.27-.12,1.35,0,1.78.62,1.44,1.88a7.29,7.29,0,0,0-.33,1.51c-.07,1.18-.73,1.62-1.82,1.62-2.33,0-4.65,0-7,0-.47,0-1.35-.36-1.25.65.07.65.28,1.45,1.21,1.45,3.6,0,7.2,0,10.79,0,1.09,0,.81-.91,1.23-1.78.21,1.94,1.47,1.79,2.66,1.79H341a6.42,6.42,0,0,1,2.58.17c-.63,0-1.26.13-1.9.13q-37.79,0-75.58,0-12.53,0-25.06-.06C240.32,254.18,239.57,254.11,238.82,254.07Z"/><path class="cls-11" d="M217.81,242.3c.27-1.15,1.22-1.74,2-2.45,4.29.36,8.58,0,12.87.18,1,0,2.55-.59,2.61,1.32.08,2.5-.7,3.42-2.83,3.44-4.18,0-8.36,0-12.54,0C217.4,244.8,217.39,244.78,217.81,242.3Z"/><path class="cls-11" d="M242.56,239.43l.27-.09c1.29,1.49,4.39,1.89,6.36.82a13.47,13.47,0,0,1,5.33,0,1.75,1.75,0,0,1,1.57,2.15c-.1,1.18-.4,2.47-1.91,2.49-5,.06-10,0-15,0a1,1,0,0,1-.88-.45c-.54-.92.89-4.05,2-4.27C241.05,239.9,241.93,240.11,242.56,239.43Z"/><path class="cls-11" d="M267.76,244.8c-2.2,0-4.4,0-6.6,0-.84,0-2,.1-1.88-1.17s-.48-3.27,1.47-3.39a145.19,145.19,0,0,1,14.9-.06,1,1,0,0,1,1.05,1.3c-.32,3.08,0,3.33-3.21,3.33h-5.73Z"/><path class="cls-11" d="M330.36,244.79c-2.26,0-4.52,0-6.78,0-1.81,0-1.93-.41-2-3-.05-1.57.83-1.67,2-1.67,4.35,0,8.69,0,13,0,1.67,0,3.1,2.44,2.35,4-.32.66-1,.75-1.63.74h-6.95Z"/><path class="cls-11" d="M288.73,244.8c-2.26,0-4.52,0-6.78,0-1,0-1.85-.08-1.86-1.46,0-2.54.22-3.17,1.85-3.21,3.82-.07,7.64,0,11.47,0h1c2.86,0,3.55.91,2.83,3.69-.25,1-1,1-1.77,1Z"/><path class="cls-11" d="M309.45,244.81c-2.2,0-4.41,0-6.61,0-1.4,0-2-.56-1.9-2s-.25-2.77,1.87-2.74c4.47,0,8.93,0,13.4,0,2.24,0,1.79,1.58,1.93,2.92s-.71,1.8-1.9,1.8Z"/><path class="cls-11" d="M300.43,238h-6.61c-1,0-1.9-.17-1.78-1.51s-.43-2.88,1.64-3c1.21-.09,2.43-.05,3.65-.05,3.19,0,6.38,0,9.57,0,1.88,0,2.07.42,2.17,2.52.08,1.69-.73,2.11-2.2,2.08C304.73,237.94,302.58,238,300.43,238Z"/><path class="cls-11" d="M250.91,237.51l.81-3.81c5.09-.6,10.2-.24,15.3-.26,1,0,1.4.52,1.32,1.58-.19,2.74-.35,2.95-3.08,3-4.06,0-8.12,0-12.19,0A3.43,3.43,0,0,1,250.91,237.51Z"/><path class="cls-11" d="M341.48,238h-6.79c-2.24,0-1.7-1.73-1.9-3s.74-1.45,1.73-1.49c4.41-.17,8.82-.18,13.22,0,1.7.08,2.18.86,2.14,3.18,0,1.61-1.23,1.26-2.13,1.28C345.66,238,343.57,238,341.48,238Z"/><path class="cls-11" d="M321,238c-2.26,0-4.52,0-6.78,0-1.95,0-1.6-1.36-1.68-2.55s.34-1.95,1.74-1.95c4.23,0,8.46-.08,12.69-.05,2.11,0,3.18,1.8,2.41,3.83-.29.79-1,.72-1.6.72-2.26,0-4.52,0-6.78,0Z"/><path class="cls-11" d="M280,238c-2.08,0-4.17,0-6.25,0-.92,0-2.06.27-2.1-1.32-.07-2.5.2-3.1,2.07-3.15,3.87-.1,7.75-.05,11.62-.06.23,0,.46,0,.69,0,2.57.12,3.15,1,2.5,3.49-.26,1-1,1-1.77,1C284.51,238,282.25,238,280,238Z"/><path class="cls-11" d="M274.89,231.48c-2.09,0-4.17,0-6.26,0-.95,0-2-.1-1.78-1.5.16-1.18-.31-2.85,1.63-2.89,4.57-.07,9.14,0,13.71,0,1,0,1.4.7,1.27,1.66s.36,2.57-1.45,2.63c-2.37.08-4.75,0-7.12,0Z"/><path class="cls-11" d="M355.1,227.05c2,0,4,0,6.07,0a2.86,2.86,0,0,1,2.53,3.63,1.26,1.26,0,0,1-1.29.7c-4.52.2-9,.23-13.54,0-1.64-.07-2.19-1-2.08-3.14.07-1.51,1.33-1.18,2.23-1.2,2-.06,4.05,0,6.08,0Z"/><path class="cls-11" d="M315.14,227c2.14,0,4.29,0,6.44,0,1.86,0,1.87,1.2,2,2.56s-.68,1.87-1.86,1.87q-6.6,0-13.22-.07c-1.91,0-1.52-1.45-1.59-2.63-.09-1.34.64-1.72,1.81-1.72,2.15,0,4.29,0,6.44,0Z"/><path class="cls-11" d="M335,227c2.15,0,4.29,0,6.44,0,1.65,0,2.2.89,2.2,3,0,1.6-1.2,1.37-2.08,1.38-4.11.07-8.23.07-12.34,0a2.62,2.62,0,0,1-2.31-3.77c.34-.71,1-.67,1.66-.67C330.72,227,332.87,227,335,227Z"/><path class="cls-11" d="M268.9,225c-2,0-4,0-6.07,0-.76,0-1.82.21-1.81-1s-.19-2.42,1.23-2.95a4.57,4.57,0,0,1,1.52-.25c3.76,0,7.52,0,11.27,0,2.55,0,3.06.83,2.23,3.24a1.46,1.46,0,0,1-1.63,1H268.9Z"/><path class="cls-11" d="M348.16,225c-2.14,0-4.28,0-6.42,0s-1.89-1.43-2-2.76c-.16-1.59,1-1.46,1.95-1.47,3.94,0,7.88,0,11.81,0,1.21,0,2.31.22,2.61,1.72.41,2,.08,2.5-2,2.51s-3.94,0-5.91,0Z"/><path class="cls-11" d="M308.74,225c-2.14,0-4.28,0-6.42,0-1,0-2-.11-2-1.57s.15-2.59,1.79-2.62c4.27-.07,8.55-.06,12.83,0,1.77,0,1.85,1.32,1.84,2.71s-1,1.47-2,1.48h-6.07Z"/><path class="cls-11" d="M288.75,225h-6.08c-1,0-1.94,0-1.9-1.39s-.15-2.72,1.72-2.82c1.39-.08,2.78-.05,4.17-.05,2.66,0,5.32,0,8,0,2.11,0,2.33.39,2.43,2.25s-1,2-2.42,2C292.69,225,290.72,225,288.75,225Z"/><path class="cls-11" d="M328.39,225c-2.14,0-4.28,0-6.42,0-1.61,0-1.82-.94-1.88-2.25s.55-2,1.79-2c4.16,0,8.32-.06,12.48,0,1.73,0,2.17.84,2.07,2.89-.08,1.55-1.21,1.28-2.15,1.29C332.32,225,330.35,225,328.39,225Z"/><path class="cls-11" d="M241.2,232.88a19.6,19.6,0,0,1,.24,5.07,77.58,77.58,0,0,1-8.49.11c-.85,0-2.17.37-2.23-1.17-.09-2.22.77-3.44,2.42-3.48,2.14-.06,4.28,0,6.41,0C240.11,233.36,240.87,233.75,241.2,232.88Z"/><path class="cls-11" d="M251.81,231.5l.09-4.39,9.92-.06c.93,0,1.85.06,1.67,1.36s.27,2.92-1.78,3c-3,.08-6,.07-9,.1Z"/><path class="cls-11" d="M340.75,216c1.56,0,3.12,0,4.68,0a18.1,18.1,0,0,1,2.06.18c.86.12,1.07.76,1.15,1.5.11.92-.59,1-1.2,1.14a15.22,15.22,0,0,1-2.24.12c-3,0-6,0-9,0a6.18,6.18,0,0,1-1.53-.24c-.95-.24-1.06-1-.9-1.78s.63-.95,1.41-.92c1.84.07,3.69,0,5.54,0Z"/><path class="cls-11" d="M323.48,216.13H329c1,0,1.71.26,1.68,1.46s-.78,1.35-1.64,1.35c-3.75,0-7.51,0-11.27,0-1,0-2.07-.22-2-1.62s1.2-1.19,2.1-1.21c1.85,0,3.7,0,5.55,0Z"/><path class="cls-11" d="M305.52,216.13c1.91,0,3.83,0,5.74,0,.81,0,1.52.21,1.57,1.23a1.34,1.34,0,0,1-1.5,1.53c-3.94,0-7.89.06-11.83,0-.79,0-1.62-.28-1.57-1.44s.83-1.31,1.67-1.33c2,0,3.94,0,5.92,0Z"/><path class="cls-11" d="M287.36,218.88c-2,0-3.94,0-5.9,0-.7,0-1.38-.13-1.36-1.16s.48-1.53,1.45-1.56c1.43,0,2.86,0,4.29,0H293c1,0,2,0,1.91,1.39s-1,1.44-2,1.46c-1.85,0-3.7,0-5.56,0Z"/><path class="cls-11" d="M358.9,216.11h5.72c1,0,1.85.29,1.93,1.5s-1,1.31-1.8,1.32c-3.64.06-7.28,0-10.92,0a3.4,3.4,0,0,1-1.5-.38,1.43,1.43,0,0,1-.69-1.64c.11-.66.68-.76,1.19-.77,2,0,4,0,6.07,0Z"/><path class="cls-11" d="M269.76,219c-2.28,0-4.07,0-5.86,0-.85,0-1.66-.2-1.65-1.32s.66-1.52,1.68-1.52c3.87,0,7.74,0,11.61,0,.68,0,1.43.06,1.5,1a1.41,1.41,0,0,1-1.37,1.65A53.19,53.19,0,0,1,269.76,219Z"/><path class="cls-11" d="M240.8,229.56c-.21.66.47,1.27.12,1.94l-12.41,0c-.12-.39.23-.41.44-.54.4,0,.89,0,1.18-.16,2.12-1.48,4.65-1.91,7-2.89,1.45-.62,2.26,0,3,1C240.31,229.13,240.44,229.44,240.8,229.56Z"/><path class="cls-11" d="M251.42,225.17c-.24-1.54-1.66-2.68-1.48-4.36,2,0,3.95-.08,5.92,0,.95,0,2.14,0,2,1.51-.12,1.32-.15,2.73-2.12,2.72A18.93,18.93,0,0,0,251.42,225.17Z"/><path class="cls-11" d="M221.43,238a24.5,24.5,0,0,1,4.25-4.94c.62.65,2.39-.08,2,1.86-.55,2.71-.8,3.09-3.14,3.13C223.5,238.1,222.46,238.05,221.43,238Z"/><path class="cls-6" d="M249.19,240.16c-2,1.07-5.07.67-6.36-.82,1.21-.94,2.41-.25,3.55.11a7.64,7.64,0,0,0,2.3.5Z"/><path class="cls-8" d="M309.92,198.88a4.15,4.15,0,1,1-.19,8.29c-2.16,0-3.8-1.83-3.81-4.27A3.74,3.74,0,0,1,309.92,198.88Z"/><path class="cls-8" d="M270.3,207.16a4.15,4.15,0,1,1,.11-8.29,4.15,4.15,0,1,1-.11,8.29Z"/><path class="cls-8" d="M324.1,203a4.17,4.17,0,0,1-8.34,0,4.17,4.17,0,0,1,8.34,0Z"/><path class="cls-8" d="M294.15,203.09a3.87,3.87,0,0,1-4.15,4,4.14,4.14,0,0,1,.17-8.27A3.87,3.87,0,0,1,294.15,203.09Z"/><path class="cls-8" d="M333.94,203.16a4.09,4.09,0,1,1-4-4.29A4,4,0,0,1,333.94,203.16Z"/><path class="cls-8" d="M343.94,203.14a4.17,4.17,0,1,1-4.14-4.27A4.18,4.18,0,0,1,343.94,203.14Z"/><path class="cls-8" d="M284.38,203a4.1,4.1,0,1,1-8.2,0,4,4,0,0,1,4-4.14A4.1,4.1,0,0,1,284.38,203Z"/><path class="cls-8" d="M304.22,202.91a4.47,4.47,0,0,1-4.2,4.28,4.08,4.08,0,0,1-4-4.23,4,4,0,0,1,4.09-4.05A4.18,4.18,0,0,1,304.22,202.91Z"/><path class="cls-6" d="M240.8,229.56c-.36-.12-.49-.43-.7-.71-.75-1-1.56-1.6-3-1-2.31,1-4.84,1.41-7,2.89-.29.2-.78.11-1.18.16,1.75-2,4.15-2.83,6.58-3.51,1-.27,1.83-.93,3-.73C240.23,227,240.85,227.67,240.8,229.56Z"/><path class="cls-5" d="M231.6,212.69l-8.68,0a32.85,32.85,0,0,1,4.84-2.88c1.36-.81,2.22-.42,2.92.84A6,6,0,0,1,231.6,212.69Z"/><path class="cls-11" d="M195,56.17a2,2,0,0,1-2.11,1.91,2.27,2.27,0,0,1-2.4-2.38,2.11,2.11,0,0,1,2.24-2.14C194,53.51,195,54.51,195,56.17Z"/><path class="cls-8" d="M180.54,58.11a2.23,2.23,0,0,1-2.32-2.28,2.15,2.15,0,0,1,2.13-2.29,2.44,2.44,0,0,1,2.46,2.19A2.34,2.34,0,0,1,180.54,58.11Z"/><path class="cls-6" d="M184.44,55.56a2,2,0,0,1,2.11-2,2,2,0,0,1,2.17,2.14A2,2,0,0,1,186.65,58,2.25,2.25,0,0,1,184.44,55.56Z"/><path class="cls-11" d="M296.13,272.41c4.69,0,9.39,0,14.08,0,1.37,0,2,.3,2,1.83-.05,3.66-.42,4.13-4.06,4.14-8.87,0-17.74,0-26.6,0-1.3,0-1.84-.25-1.75-1.73.25-4.24.18-4.24,4.38-4.24Z"/><path class="cls-11" d="M262.65,278.35c-4.41,0-8.81,0-13.22,0-3.18,0-3.62-.58-3.16-3.71.06-.46,0-.93,0-1.39a.85.85,0,0,1,1-.93c9.67.4,19.34.06,29,.17,2.22,0,2.26.05,2,2.24-.36,3.62-.36,3.62-4.06,3.62Z"/></g></g></svg>