<svg xmlns="http://www.w3.org/2000/svg" viewBox="0 0 440.34 678.9"><defs><style>.cls-1{fill:#f7f7f7;}.cls-2{fill:#e8e9eb;}.cls-3,.cls-4{fill:#323232;}.cls-14,.cls-3{opacity:0.25;}.cls-5{fill:#4d4d4d;}.cls-6{fill:#e1e6e5;}.cls-7{fill:#177764;}.cls-8{fill:#38302f;}.cls-9{fill:#bea078;}.cls-10{fill:#0e4740;}.cls-11,.cls-14{fill:#313638;}.cls-12{fill:#e0dfd5;}.cls-13{fill:#43595e;}.cls-15{fill:#fcbc94;}.cls-16{fill:#c0c6ce;}.cls-17{fill:#eaa27d;}.cls-18{fill:#3d4244;}.cls-19{fill:#63a6a8;}.cls-20{fill:#07c39b;}.cls-21{fill:#ef6461;}.cls-22{fill:#e4b363;}.cls-23{fill:#56797c;}</style></defs><g id="Layer_2" data-name="Layer 2"><g id="Website"><g id="work-exp_copy" data-name="work-exp copy"><polygon class="cls-1" points="440.25 367.35 0 367.4 0 0 440.25 0 440.25 367.35"/><polygon class="cls-2" points="440.25 678.19 0 678.27 0 367.4 440.25 367.52 440.25 678.19"/><polygon class="cls-2" points="287.01 676.41 101.23 662.67 134.74 524.41 284.28 538.85 287.01 676.41"/><polygon class="cls-1" points="284.65 678.9 98.38 678.06 122.53 537.8 272.7 541.85 284.65 678.9"/><path class="cls-3" d="M61.87,610.52c10.32,2.34,21,3.35,31.38,5.69,5.81,1.31,11.94,2.15,18,3.09,10.91,1.71,21.7,3.93,32.56,5.85,7.41,1.31,14.79,2.71,22.19,4,4,.71,8.08,1.3,12,2.39.06.45.12.9.17,1.35-3.46-.53-7.1.2-10.45-1.06a3,3,0,0,1-.44,0c-1.25.9-2.52-.05-3.78,0-27.13-2.73-54-6.67-80.88-10.74-7.91-1.2-15.81-2.49-23.71-3.74C60.48,615.26,59.78,612.5,61.87,610.52Z"/><path class="cls-4" d="M113.05,618c5.78,1.48,11.93,2.09,17.73,3.57,3.25.83,6.68,1.31,10,1.87,6.1,1,12.14,2.39,18.21,3.56,4.14.79,8.27,1.65,12.41,2.43a54.6,54.6,0,0,1,6.71,1.48l.12,1c-1.94-.31-4,.27-5.84-.56l-.24,0c-.69.66-1.41,0-2.11.06-15.14-1.44-30.16-3.75-45.17-6.15-4.42-.71-8.84-1.49-13.26-2.23C112.53,621.47,111.91,619.43,113.05,618Z"/><path class="cls-5" d="M114.16,613c9.7,1.74,19.26,4.13,28.83,6.43,10.6,2.55,21.17,5.23,31.58,8.51l3.79,1.65-.21,1.29a54.6,54.6,0,0,0-6.71-1.48c-4.14-.78-8.27-1.64-12.41-2.43-6.07-1.17-12.11-2.55-18.21-3.56-3.36-.56-6.79-1-10-1.87-5.8-1.48-12-2.09-17.73-3.57A18.62,18.62,0,0,1,114.16,613Z"/><path class="cls-6" d="M178.27,631.85l-.12-1,.21-1.29a7.82,7.82,0,0,1,5.39,1.92C181.78,632.67,180,631.91,178.27,631.85Z"/><path class="cls-5" d="M58.8,606.82c.36-3.1.52-3.28,3.38-3.26.54,0,1,.07,1.45-.39,2.71-2.82,6.19-3.13,9.71-2.5,10.07,1.82,20.11,3.81,30.17,5.74q5.47,1.05,10.93,2.15a13,13,0,0,1,6,2.56,4.22,4.22,0,0,0-.27.36l-38-7.31c-3.3-.63-6.59-1-10.31,1.08l35.08,6.3c-.33,1.58.16,3.6-.17,5.18a26.73,26.73,0,0,1-3.1-.52c-6.52-1.25-13-2.66-19.55-3.79-4.54-.79-9-2.09-13.58-2.6-3.65-.41-7.17-1.71-10.88-1.85C58.87,607.94,59.25,607.08,58.8,606.82Z"/><path class="cls-4" d="M58.8,606.82c.45.26.07,1.12.86,1.15,3.71.14,7.23,1.44,10.88,1.85,4.6.51,9,1.81,13.58,2.6,6.54,1.13,13,2.54,19.55,3.79a26.73,26.73,0,0,0,3.1.52c0,1.88-1.38,3.21-1.3,5.07q-17.34-3.69-34.67-7.38c-3.7-.79-7.42-1.52-11.12-2.32-1.79-.39-2.46-2-1.63-3.9C58.26,607.72,58.55,607.28,58.8,606.82Z"/><path class="cls-7" d="M106.94,611.55a21.51,21.51,0,0,1,7.22,1.46c-.49,1.83-.79,3.61-1.11,5s-.63,3.77-1.4,5a29,29,0,0,1-6.18-1.2"/><path class="cls-7" d="M68.8,323.09q-2.91,3.3-5.81,6.62c-1.19.86-2.41,1.67-3.56,2.57-10.27,8.13-22.49,6.22-31.29-2.59a10.47,10.47,0,0,1-3.74-3.86,4.83,4.83,0,0,0-2.58-2.22c-1.77-3.23-3.67-6.4-5.29-9.7a76.86,76.86,0,0,1-6-17.53,9.26,9.26,0,0,1,0-2,16.84,16.84,0,0,0,0-3.48c-.67-3.14-1.63-6.26-1.11-9.55.13-.83-.06-1.67.82-2.3.54-.39,2.25-.29,1.3-1.55-.73-1-1.26-3-3.3-1.84.08-2.51-1.18-4-3.33-5.2a14.66,14.66,0,0,1-4-3.9c2.41-.49,4.12.73,6,1.51-.22,1.15.68,1.69,1.31,2.34,1.61,1.66,3.36,3.21,4.87,5,1,1.18,1.92,1.43,2.95.28s.49-2.24-.64-3a32.06,32.06,0,0,0-7.34-3.94c1.37-.51,1.14-1.77,1.33-2.82C11,256.76,13.91,248.23,19.84,241a12.24,12.24,0,0,1,2.88-2.91,7.35,7.35,0,0,1,2.93.87,42.28,42.28,0,0,0,9.76,3.2,1.85,1.85,0,0,0,2.38-1c.6-1.54-.18-2.88-.8-4.17-.36-.76-1.22-.62-1.83-.28-3.44,1.94-6.43-.33-9.59-1,1.77-1.64,3.44-3.43,6-3.88a8.93,8.93,0,0,1,1,1.19,1.38,1.38,0,0,0,2.09.68,1.71,1.71,0,0,0,.74-2.39,8.39,8.39,0,0,0-.92-1.47c2.46-.43,4.91-1,7.39-1.26,10.92-1.21,20,2.5,27.33,10.56a5.53,5.53,0,0,0,2.23,1.72c-.85,1.26-1.75,2.49-2.56,3.78-1.46,2.33-.72,3.77,2,3.85,1.86.06,3.73,0,5.6.05.94,4.57,3.06,8.76,4.08,13.33,2.37,10.73,2,21.42.08,32.13a4.39,4.39,0,0,1-.58,1.14c-.58.18-1.1,0-1.3,1.1-.89,4.64-1,4.62-5.72,5.21-.17,0-.35,0-.52.06-2.2.41-3,2.19-1.53,3.83,2.19,2.46,4,5,3,8.51S70.52,320,68.8,323.09ZM51.69,230.67c-.09.85-.17,1.05-.11,1.17a17.18,17.18,0,0,0,.89,1.57c4,6.13,6.51,12.92,8.55,19.87,1.58,5.38,2.2,11,3.08,16.52.43,2.72.07,4.33-2.68,5.38-1.55.59-2,.57-2-1.13a31.7,31.7,0,0,0-1-7.69c-.14-.61.08-1.66-.89-1.57-.68.06-.8,1-1,1.68a42,42,0,0,0-1,12.59c.14,2.53,1.25,3.14,3.55,1.9,1.62-.87,3.24-1.76,5.23-2.85,0,3.22.06,6.05,0,8.88s-.62,5.88-.35,8.76c.25,2.67-1,5-.92,7.66.11,2.88-.8,5.79-1.24,8.69s-.78,5.64-1.24,8.45-1,5.49-1.44,8.24c.87-.32,1.21-.73,1.34-1.2,1.75-6.22,4.28-12.27,5-18.73.35-3.12,2.63-5.91,1.41-9.4-.18-.54,1.09-2.47,1.23-3.92a157.25,157.25,0,0,0,.6-17.09c0-2.25-.6-4.69,2.06-6.35-1.45-.11-2.45-.05-2.56-1.73-.73-11.24-4.47-21.55-10.16-31.18A53,53,0,0,0,51.69,230.67Zm-6.68,99c.55-.87.77-1,.8-1.26a235.61,235.61,0,0,0,2.56-26.2c.32-11,1.16-22.06.2-33.09-.11-1.25.55-3.21-.46-3.59-1.17-.44-2.28,1.28-3,2.27-1.08,1.42-3.42,2.17-3.28,4.08.14,2.1-.3,4.1-.21,6.16.57,12.4.25,24.84,1.57,37.2C43.64,319.87,44.32,324.45,45,329.71Zm-26.5-37.49c-.08,1.17.67,1.51,1.29,2,4.37,3.29,4.7,7.05,1,10.89-.42.43-.86.85-1.29,1.27-.24.24-.55.48-.37.88s.68.49,1.1.38a5.48,5.48,0,0,0,1.44-.57c1.88-1.15,2.59-.57,3.08,1.54,1.3,5.54,2.86,11,4.35,16.53.21.76.19,2.06,1.32,1.82.86-.19.5-1.37.35-2.06-1.24-5.65-1.92-11.39-2.78-17.1-.36-2.43.31-3.75,2.22-4.82.6-.33,1.22-.63,1.79-1,2.71-1.82,2.7-3.19-.23-4.5-3.7-1.65-6.27-3.87-5.59-8.4.2-1.33-.12-2.34-1.92-2.26s-2.45.63-2.42,2.47C21.89,292.83,21.8,292.83,18.51,292.22Zm29-44.85c.68-2.21-.72-3.44-2-4.7-.48-.46-.95-1.16-1.74-.83s-.55,1.17-.6,1.82q-.49,6-.94,12.07c-.15,2,0,3.85,2.87,2.75a3.61,3.61,0,0,1,1.54-.06c1.26.11,1.5-.41,1.53-1.64A81.09,81.09,0,0,0,47.53,247.37ZM26.81,267.79c.45-1.74-1.14-1.48-2.23-1.71-1.33-.3-2.13.07-2.22,1.63-.26,4.82-.61,9.63-.92,14.44-.09,1.44.74,2,2,2.16a1.83,1.83,0,0,0,2.28-2.08A95.54,95.54,0,0,1,26.81,267.79Zm18.84-37.62-.95.14c.6,3.16-2.66,6.95,2.29,9.88C46.5,236.55,46.07,233.36,45.65,230.17ZM32.46,243.94c-.08-.78-.19-1.85-.9-2-1.19-.23-1.25,1.19-1.66,1.88-.58,1-1.94,2-1,3.41a1.41,1.41,0,0,0,1.6.58c1.64-.52,1.29-2.22,1.87-3.38A1.35,1.35,0,0,0,32.46,243.94Z"/><path class="cls-8" d="M73.84,313.84c1-3.55-.76-6-3-8.51-1.46-1.64-.67-3.42,1.53-3.83.17,0,.35,0,.52-.06,4.72-.59,4.83-.57,5.72-5.21.2-1.09.72-.92,1.3-1.1-.15,1.85-1.88,4-.74,5.35,1,1.21,3.41.22,5.19.4.76.08,1.54.09,2.9.17-2.51,1.79-5,2.26-7.37,2.9-3.34.9-3.67,1.66-1.86,4.55a49.41,49.41,0,0,1,3.71,6.84,16.44,16.44,0,0,1-4.21-3.09c-2.23-2-2.23-2-3.44.88Z"/><path class="cls-8" d="M76.38,248.53c-1.87,0-3.74,0-5.6-.05-2.69-.08-3.43-1.52-2-3.85.81-1.29,1.71-2.52,2.56-3.78,2.15-2.34,4-5,7.14-7.41a41.06,41.06,0,0,1-3.82,8.8c-1,1.73-1.21,2.6,1.3,2.86a33,33,0,0,1,9.32,2A44,44,0,0,1,76.38,248.53Z"/><path class="cls-8" d="M25.57,235.7c3.16.62,6.15,2.89,9.59,1,.61-.34,1.47-.48,1.83.28.62,1.29,1.4,2.63.8,4.17a1.85,1.85,0,0,1-2.38,1,42.28,42.28,0,0,1-9.76-3.2,7.35,7.35,0,0,0-2.93-.87c.22-.29,0-.45-.2-.59,0-.44.07-.87.1-1.31A6,6,0,0,0,25.57,235.7Z"/><path class="cls-8" d="M8.28,275.62c2-1.13,2.57.88,3.3,1.84.95,1.26-.76,1.16-1.3,1.55-.88.63-.69,1.47-.82,2.3-.52,3.29.44,6.41,1.11,9.55a16.84,16.84,0,0,1,0,3.48,62,62,0,0,1-1.65-13c-.05-1.54-.46-2-2-1.38-1.82.69-3.74,1.11-6.15,1.8C3.14,279,5.86,277.48,8.28,275.62Z"/><path class="cls-8" d="M8.06,268.67a32.06,32.06,0,0,1,7.34,3.94c1.13.76,1.73,1.79.64,3s-1.94.9-2.95-.28c-1.51-1.75-3.26-3.3-4.87-5-.63-.65-1.53-1.19-1.31-2.34Z"/><path class="cls-8" d="M34.42,229.83a8.39,8.39,0,0,1,.92,1.47,1.71,1.71,0,0,1-.74,2.39,1.38,1.38,0,0,1-2.09-.68,8.93,8.93,0,0,0-1-1.19c1-1.87-.17-3.87.36-5.88C33.22,227,33.54,228.59,34.42,229.83Z"/><path class="cls-9" d="M22.62,236.15c0,.44-.06.87-.1,1.31-.86.12-1.32-.38-1.15-1.11C21.51,235.78,22.16,236,22.62,236.15Z"/><path class="cls-10" d="M68.91,397.66l-49.62.73a7.46,7.46,0,0,1-7.46-7.47L7.48,337.47c0-4.12,4.79-13.05,8.91-13.05l28.82,8.68,27.33-8.68c4.12,0,8.91,7.48,8.91,11.6L76.37,390.2A7.46,7.46,0,0,1,68.91,397.66Z"/><path class="cls-8" d="M28.14,323.24c8.8,8.82,21,10.73,31.29,2.6,1.15-.91,2.37-1.72,3.56-2.57,2,.07,3.95.22,5.91.19,3,0,5.79.32,7.11,3.48,1.24,3-.1,5.32-2.24,7.35a16.78,16.78,0,0,1-4.84.6q-23.69,0-47.38,0a11.88,11.88,0,0,1-5.77-1.09,22.27,22.27,0,0,1-1.39-2.47c-1.61-3.82,1-7.59,5.48-7.83C22.62,323.35,25.38,323.32,28.14,323.24Z"/><path class="cls-8" d="M51.69,230.67a53,53,0,0,1,6.42,8.52c5.69,9.63,9.43,19.94,10.16,31.18.11,1.68,1.11,1.62,2.56,1.73-2.66,1.66-2.08,4.1-2.06,6.35a157.25,157.25,0,0,1-.6,17.09c-.14,1.45-1.41,3.38-1.23,3.92,1.22,3.49-1.06,6.28-1.41,9.4-.71,6.46-3.24,12.51-5,18.73-.13.47-.47.88-1.34,1.2.48-2.75,1-5.49,1.44-8.24s.82-5.64,1.24-8.45,1.35-5.81,1.24-8.69c-.11-2.66,1.17-5,.92-7.66-.27-2.88.27-5.84.35-8.76s0-5.66,0-8.88c-2,1.09-3.61,2-5.23,2.85-2.3,1.24-3.41.63-3.55-1.9a42,42,0,0,1,1-12.59c.17-.66.29-1.62,1-1.68,1-.09.75,1,.89,1.57a31.7,31.7,0,0,1,1,7.69c0,1.7.44,1.72,2,1.13,2.75-1.05,3.11-2.66,2.68-5.38-.88-5.54-1.5-11.14-3.08-16.52-2-6.95-4.56-13.74-8.55-19.87a17.18,17.18,0,0,1-.89-1.57C51.52,231.72,51.6,231.52,51.69,230.67Z"/><path class="cls-8" d="M45,329.71c-.69-5.26-1.37-9.84-1.86-14.43-1.32-12.36-1-24.8-1.57-37.2-.09-2.06.35-4.06.21-6.16-.14-1.91,2.2-2.66,3.28-4.08.76-1,1.87-2.71,3-2.27,1,.38.35,2.34.46,3.59,1,11,.12,22.07-.2,33.09a235.61,235.61,0,0,1-2.56,26.2C45.78,328.66,45.56,328.84,45,329.71Z"/><path class="cls-8" d="M18.51,292.22c3.29.61,3.38.61,3.31-3,0-1.84.69-2.39,2.42-2.47s2.12.93,1.92,2.26c-.68,4.53,1.89,6.75,5.59,8.4,2.93,1.31,2.94,2.68.23,4.5-.57.38-1.19.68-1.79,1-1.91,1.07-2.58,2.39-2.22,4.82.86,5.71,1.54,11.45,2.78,17.1.15.69.51,1.87-.35,2.06-1.13.24-1.11-1.06-1.32-1.82-1.49-5.5-3-11-4.35-16.53-.49-2.11-1.2-2.69-3.08-1.54a5.48,5.48,0,0,1-1.44.57c-.42.11-.88.1-1.1-.38s.13-.64.37-.88c.43-.42.87-.84,1.29-1.27,3.73-3.84,3.4-7.6-1-10.89C19.18,293.73,18.43,293.39,18.51,292.22Z"/><path class="cls-8" d="M47.53,247.37a81.09,81.09,0,0,1,.64,9.41c0,1.23-.27,1.75-1.53,1.64a3.61,3.61,0,0,0-1.54.06c-2.92,1.1-3-.71-2.87-2.75q.44-6,.94-12.07c0-.65-.2-1.49.6-1.82s1.26.37,1.74.83C46.81,243.93,48.21,245.16,47.53,247.37Z"/><path class="cls-8" d="M26.81,267.79a95.54,95.54,0,0,0-1.07,14.44,1.83,1.83,0,0,1-2.28,2.08c-1.28-.12-2.11-.72-2-2.16.31-4.81.66-9.62.92-14.44.09-1.56.89-1.93,2.22-1.63C25.67,266.31,27.26,266.05,26.81,267.79Z"/><path class="cls-8" d="M45.65,230.17c.42,3.19.85,6.38,1.34,10-5-2.93-1.69-6.72-2.29-9.88Z"/><path class="cls-8" d="M32.46,243.94a1.35,1.35,0,0,1-.05.5c-.58,1.16-.23,2.86-1.87,3.38a1.41,1.41,0,0,1-1.6-.58c-1-1.45.38-2.41,1-3.41.41-.69.47-2.11,1.66-1.88C32.27,242.09,32.38,243.16,32.46,243.94Z"/><path class="cls-8" d="M36,178.19c.1-1.72-.26-3.52.61-5.13,1.49-2.74,3.92-3.62,6.91-3.61,12.76,0,25.51,0,38.27,0q53,0,106,0h70l105.76,0q18.75,0,37.51,0c5.2,0,7.54,2.21,7.57,7.36.06,10.27,0,20.55.08,30.83a9.43,9.43,0,0,1-.15,3.19c0,.92-.06,1.84-.06,2.76q0,70.43,0,140.85c0,8.57.06,17.14.08,25.71,0,2.8-.17,5.62.05,8.41.32,4.14-.58,7.57-4.51,9.65l-4.83-.14a17.73,17.73,0,0,0-3.59-6.46c1.6,0,3.21-.11,4.81,0,1.25.06,1.56-.44,1.53-1.6-.09-3.75-.09-7.49-.12-11.24a4.75,4.75,0,0,0,.29-1.34c-.51-5.34-.16-10.69-.16-16q-.08-91.35,0-182.71c0-2.2-.73-2.69-2.77-2.67-9.58.09-19.16,0-28.74,0H45.7c-3.06,0-3.08,0-3.08,3q0,18.63,0,37.25,0,71.32,0,142.65c0,6.6.06,13.21.1,19.82,0,2.9-.06,5.8-.13,8.69-.09,4-.1,4,3.74,4.2-2.29,2.11-4.44,4.4-7.21,5.93-2.63-2.31-3.21-5.26-3.16-8.64.15-11.49.12-23,.14-34.47,0-1-.12-2-.18-2.94,0-.33,0-.65,0-1,0-1.64.16-2.46.16-3.67q.09-64.81.05-129.64,0-17.73,0-35.48"/><rect class="cls-11" x="74.28" y="400.22" width="287.05" height="56.55"/><path class="cls-12" d="M307.87,374c-2.1.54-3.62,2-5.24,3.29-.69.55-1.1,1.45-2.12,1.56-.84,0-1.68-.06-2.53-.06H172.51q-22.68,0-45.36.08a29.47,29.47,0,0,0-11.09-1c-1.85-.29-3.94.74-5.53-1-3.89-5.16-8.87-8.3-15.5-8.34-1.91,0-3.81.1-5.72.16a11.86,11.86,0,0,1-6.88-1.18,7.35,7.35,0,0,0-4.17-.69c-6.55,0-11.78,2.8-16.45,7.19-1.64,1.54-2.58,3.74-4.7,4.79l-14.37,0c0-6.61-.1-13.22-.1-19.82q0-71.32,0-142.65,0-18.63,0-37.25c0-3,0-3,3.08-3H370.51c9.58,0,19.16,0,28.74,0,2,0,2.77.47,2.77,2.67q-.09,91.35,0,182.71c0,5.34-.35,10.69.16,16a4.75,4.75,0,0,1-.29,1.34l-15.52-.05a16.75,16.75,0,0,0-4.84-8.62c-4.36-3.76-9.54-5.92-15.54-5.22-2,0-4.08,0-6.13,0a7.56,7.56,0,0,0-4.94,1.75c-1.72-.4-2.64-2.54-4.71-2.18a14,14,0,0,0-9.08-2.24c-3.29.16-6.4,1.2-9.6,1.84-2.8,1-5.54,2-6,5.51-.08,5.11,2.55,7.58,7.66,7.31,2.37-.12,4.74-.11,7.11-.1,1.31,0,2.45.34,2.63,1.93l-14.72-.18c-1.92-.26-2.53-2.16-3.88-3.11a17.73,17.73,0,0,0-13.37-3.14A4.27,4.27,0,0,0,307.87,374Z"/><rect class="cls-13" x="47.77" y="182.32" width="349.82" height="190.28"/><path class="cls-14" d="M377.35,499.94H393.1l47.15,34.13v33s-3.92-8.41-28.26-32C373.11,497.35,377.35,499.94,377.35,499.94Z"/><path class="cls-15" d="M3.47,489.25c-.61,0-.85.49-1.07,1"/><path class="cls-16" d="M44.49,456.28C33.75,462,3,489.21,3,489.21l2.87,1.43H27.31s8.18-6.91,11.32-8.55a35.91,35.91,0,0,1,8.08-2.65c11-1.8,33.43-.26,44.41-2,11.15-1.75,43.56-11.88,43.56-11.88l-34.36-2.86-31.49.72S50,453.33,44.49,456.28Z"/><path class="cls-15" d="M.63,426.43c.5-.33,10.86-8.08,15.1-10.93,3.95-2.64,8.29-4.81,12.11-7.7s7.24-6.12,10.82-9.23c.26-.23.33-.67.48-1,2.77-1.53,4.92-3.82,7.21-5.93,1.15-.31,1.72-1.41,2.66-2a21.2,21.2,0,0,0,8.1-10.81c2.12-1,3.06-3.25,4.7-4.79,4.67-4.39,9.9-7.23,16.45-7.19.41.19,2.23.35,2.76.6-4.47,2.81-9.23,4.54-11.31,10.05.55-.25,2.29-1.1,2.51-1.26,4-3,6-3.23,10.36-5.55,2.2-1.17,4.74-.51,6.73-2,1.91-.06,3.81-.17,5.72-.16,6.63,0,11.61,3.18,15.5,8.34a18.62,18.62,0,0,0-7-.42,19.41,19.41,0,0,0-9.45,3.12c-3.2,2.14-5.85,4.9-8.88,7.21a5.25,5.25,0,0,0-2.07,3.15c1.2-.45,2.07-.72,2.89-1.1,6.66-3.06,13.49-5.68,20.28-8.42,3.17-1.27,6.6-1.28,9.73-2.53a29.47,29.47,0,0,1,11.09,1c0,.62.71.71,1,1.15a55.86,55.86,0,0,0-13.29,5.54,36.72,36.72,0,0,0-13.73,14.55c-1,1.81-2,2.86-1.88,5,0,.74-.1,1.48.63,1.26,2-.6,3.87,1.73,5.06-.91,2.19-.95,4.72-1.08,6.61-2.77l5-1.24c3.09-.85,6.36-.83,9.38-2l10.55-.09c.5.89,1.07.39,2.5,1.1.69.35,1.43.17,2.06.9l2.27,1.34c.21.31.41.63.61.94-1.13.33-2.16,3.29-3.24,3.34-9.84.54-16.82,2.31-25.12,7.54-7.47,4.7-12.23,9.28-18.84,15.07a97.42,97.42,0,0,0-11.31,11.31c-.54.66-5.68-.28-4.66.61a31.57,31.57,0,0,0,15.87,7.21l1.83.14c2.78.4,5.54,1,8.38.8l1.82.11c8,.49,16,.65,23.75,3l.58,0,1.38.13c1,1,2,1.9,2.87,2.93a6.22,6.22,0,0,1,.9,7.53c-1.6,2.51-4,3-6.74,2.87-1.84-1.16-3.89-.89-5.9-.84h-2a15,15,0,0,0-3.43.19c-6.87,2-14,2.15-21,2.48-6.2.29-12.5,1-18.71-.71-2.25-.6-4.52-.25-6.88-1.54-3.32-1.83-7.21-2.74-10.87-3.95-5.11-1.68-10.21-3.37-15.21-5.35a3.47,3.47,0,0,0-3.65.37c-2.41,1.73-4.58,3.74-6.88,5.58-2.65,2.12-5.27,4.28-8,6.36-3.44,2.67-25,18.82-28.27,21.68"/><path class="cls-15" d="M408.85,510.68c-5.9-4-.22-1.65-12.05-7.84-2.16-1.13-4.17-2.58-6.55-3.28-2.95-1.48-5.84-3.08-8.85-4.4-3.84-1.69-7.33-4.21-11.61-4.83-.15-.26-.23-.67-.45-.75-4.32-1.68-8.47-3.76-12.71-5.61-1.69-.73-3-2-5.12-2.22-3.24-.33-6.35-1.8-9.59-2.17-4.26-.49-8.26-2.31-12.62-2.2a44.51,44.51,0,0,1-9.81-.75,43.52,43.52,0,0,1-15.81-6.79,120.46,120.46,0,0,1-15.77-12.79,18.85,18.85,0,0,0-6-4.15c0-.34-.24-.42-.54-.35-2.15-2.19-5.18-2.05-7.82-2.95a12.66,12.66,0,0,1-2.53-6.28l1.37-3.06c3.2-3.23,7.12-3,11-2.07,2.62.61,5.15,1.63,7.73,2.46l5.8,2.67c2.25,1.37,4.17,3.39,7,3.56a15.79,15.79,0,0,0,4.78,2.57l1.39.56c2.12,1.45,4.68,1.76,7,2.61,1,.35,1.69.07,1.29-1.24a10.3,10.3,0,0,1-.27-1.57c.16-2,.16-4.54.12-6.91,0-.69,0-1.38,0-2.07.2-.88-.15-.95.05-1.84,0,0,.29-.9.45-1.58,0-1.06,0-2.13,0-3.2q-.07-12.94-.16-25.88a4.43,4.43,0,0,0-.6-2.33,11.49,11.49,0,0,0-.94-3.47l-.18-1.34c.22-1.2-.64-2.09-.9-3.16-.22-2.08-1.47-3.81-1.94-5.8.13-1.31-.29-2.24-1.72-2.37-1.12-.1-1.95.23-1.89,1.57A17.82,17.82,0,0,0,305,398a2.31,2.31,0,0,0-1.65,1.66c-.2,1-1,1.18-1.76,1.46a6.23,6.23,0,0,1-5.7,0c-1.87-.25-2-2.3-3.28-3.16a9.68,9.68,0,0,1,.62-6.38c1.52-2.66,3.15-5.27,4.53-8,.84-1.68,2.67-2.76,2.79-4.83,1-.11,1.43-1,2.12-1.56,1.62-1.3,3.14-2.75,5.24-3.29a45.05,45.05,0,0,1,5.7.24,11.64,11.64,0,0,1,5.53,2c5.34,4.22,10.77,8.43,13.76,14.44,3.68,7.4,6.76,14.42,10,22,2,4.58,5.35,7.88,10.05,10.67,5.48,3.25,11.06,7.1,17,9.42,9.3,3.67,15.17,7.06,24.49,10.68.81.31,1.33,3.16,2.19,3.07a10.16,10.16,0,0,0,3.85,2c6.21,2.09,12.28,4.54,18.33,7.07,4.29,1.79,17,8.55,21.48,9.83"/><path class="cls-14" d="M3,489.92s2.15,6.44,7.16,10H44.49a180.45,180.45,0,0,0-25,22.91C6.28,537.59.63,548.27.63,548.27V492.38Z"/><path class="cls-11" d="M440.34,465.58c-13.7-3.65-23.4,4.69-30.78,12.89-9.3,12.88-1.43,25.77-.71,32.21l31.4,23.15"/><path class="cls-11" d="M369.79,490.33c4.28.62,7.77,3.14,11.61,4.83,3,1.32,5.9,2.92,8.85,4.4-.77.78-1.75.46-2.63.45-9.9-.07-19.81-.41-29.71-.25-18.12.3-36.25.06-54.37.15-10.37.06-20.74,0-31.12,0H190.9q-45.59,0-91.18,0-38.35,0-76.71.13c-3.45,0-6.91-.22-10.34.05s-5.59-1.45-7.27-4.18c-1.13-1.84-1.64-4-3-5.69.22-.47.46-.92,1.07-1a14.93,14.93,0,0,0,3.46,1.05c6,.31,12.09.22,18.13,0,13.44,0,26.88.1,40.32.1H345.83C353.81,490.43,361.8,490.37,369.79,490.33Z"/><path class="cls-2" d="M431.46,461.6c-4.4-1.88-8.4-4.27-12.69-6.06-6-2.53-12.12-5-18.33-7.07a10.16,10.16,0,0,1-3.85-2c-1.14-8.18-2.14-16.38-3.52-24.52a7.88,7.88,0,0,1,1.29-6.21c3.59-5.33,6.08-11,4.88-17.64l4.83.13c5.22,2,5.58,7.29,7.35,11.45,4.5,10.58,8.7,21.29,12.89,32C426.79,448,429.42,455.08,431.46,461.6Z"/><path class="cls-17" d="M367.4,401.31c.63,1.26.13,1.68.3,2.7A1.94,1.94,0,0,0,370,405.9c2.45,0,4.91-.08,7.36,0,1.8.06,2.38-.67,2.45-2.44.13-3.28.79-6.55.75-9.82,0-4.2,1.76-8.18.68-12.55-1.67-6.74-4.86-12-11.5-14.65-1.27-.51-2.53-1.06-3.79-1.59,6-.7,11.18,1.46,15.54,5.22a16.75,16.75,0,0,1,4.84,8.62c-.28,1.3.38,2.5.39,3.76s.56,2,.76,3.14c0,.26-.35,1-.31,1.26-.6,5.47-1.27,10.94-1.45,16.46-.06,2.09.79,2.71,2.73,2.59a3,3,0,0,0,2.86-2.53c1.6-5.2,1.45-10.25-1.4-15,2.33.36,3.9,2,5.72,3.27a17.73,17.73,0,0,1,3.59,6.46c1.2,6.67-1.29,12.32-4.88,17.65a7.88,7.88,0,0,0-1.29,6.21c1.38,8.14,2.38,16.34,3.52,24.52a5.23,5.23,0,0,1-2.46-.42c-9.32-3.62-18.67-7.16-28-10.82a118.57,118.57,0,0,1-17-8.38c-4.71-2.79-6.85-7.36-8.84-11.94-3.28-7.56-5.52-15.55-9.2-23-3-6-6.63-11.52-12-15.74a11.64,11.64,0,0,0-5.53-2,45.05,45.05,0,0,0-5.7-.24,4.27,4.27,0,0,1,3.05-1.66,17.73,17.73,0,0,1,13.37,3.14c1.35.95,2,2.85,3.88,3.11q4.23,6.54,8.44,13.08c1.15,2.19,1.59,4.78,3.64,6.46a2.75,2.75,0,0,0,1,3.2c.49,2.09,2,1.07,3.2,1.06a14.21,14.21,0,0,1,.3,2c0,1.05.47,1.56,1.54,1.52,4.2-.15,8.41.24,12.62-.23,1.23-.13,1.61-.65,2.05-1.69,1.34-3.18-.59-6.42-1.11-9.57s-.72-6.74-1.25-10c-1.11-6.85-3.37-12.43-8.17-17.59-.53-.58-.16-1.63-.25-2.3,2.07-.36,3,1.78,4.71,2.18,2.35,3.32,5.06,6.41,6.49,10.32a.53.53,0,0,0,.87.33c1.57-.89,2.15.3,2.8,1.33-3.23.24-3.26.3-2.16,3.3.18.5.27,1,.46,1.52,1,2.59,1,5.46,2.28,7.95a16.62,16.62,0,0,0,.48,4.61c.36,1.78,1.28,3.42,1.28,5.3"/><path class="cls-2" d="M386.74,382.47c0-1.26-.67-2.46-.39-3.76l15.52.05c0,3.75,0,7.49.12,11.24,0,1.16-.28,1.66-1.53,1.6-1.6-.09-3.21,0-4.81,0-1.82-1.23-3.39-2.91-5.72-3.27l0,0c-.18-.44-.57-.54-1-.64a2.15,2.15,0,0,0-1.8-.87c0-.26-.09-.52-.13-.78A30.38,30.38,0,0,0,386.74,382.47Z"/><path class="cls-2" d="M42.74,378.74l14.37,0A21.2,21.2,0,0,1,49,389.59c-.94.63-1.51,1.73-2.66,2-3.84-.16-3.83-.16-3.74-4.2C42.68,384.54,42.7,381.64,42.74,378.74Z"/><path class="cls-2" d="M132.54,466.3c2.75.2-4.3-.72-1.15-.07,2.7.12,5.14-.36,6.74-2.87a6.22,6.22,0,0,0-.9-7.53c-.9-1-1.91-2-2.87-2.93a.51.51,0,0,1,.25-.16c1,.06,2,.15,3,.16q16.59.06,33.18.08,50,0,100,0c.84,0,1.67-.11,2.51-.17h3.57a21.41,21.41,0,0,0,5.06.1,18.85,18.85,0,0,1,6,4.15,120.46,120.46,0,0,0,15.77,12.79,43.52,43.52,0,0,0,15.81,6.79,44.51,44.51,0,0,0,9.81.75c4.36-.11,8.36,1.71,12.62,2.2,3.24.37,6.35,1.84,9.59,2.17,2.09.22,3.43,1.49,5.12,2.22,4.24,1.85,8.39,3.93,12.71,5.61.22.08.3.49.45.75-8,0-16,.1-24,.1H65.38c-13.44,0-26.88-.07-40.32-.1,2.85-4.12,7-6.53,11.42-8.48,6.76-2.94,14-3.22,21.17-3.61s14.39-.59,21.59-.92M187.51,487.9v0q19.25,0,38.48,0a21.18,21.18,0,0,0,4.57-.49c2.92-.67,4.05-2.24,4-5.23-.19-7.6-.44-15.2-.58-22.8a3.84,3.84,0,0,0-2.81-4,11.36,11.36,0,0,0-3.83-.68q-37.44,0-74.87,0a11.78,11.78,0,0,0-5.3,1.35,3.43,3.43,0,0,0-1.94,2.41c-.41,1.95-.73,3.91-1.08,5.86-1,5.64-1.52,11.36-2.7,17-.73,3.48-.29,4.53,2,5.63a13,13,0,0,0,5.86.95Z"/><path class="cls-2" d="M127.15,378.82q22.68,0,45.36-.08H298c.85,0,1.69,0,2.53.06-.12,2.07-1.95,3.15-2.79,4.83-1.38,2.74-3,5.35-4.53,8q-22.11,0-44.23-.07H137c-.85-.95-.92-2.24-1.46-3.33-1.69-3.46-3.49-6.8-7.4-8.27C127.86,379.53,127.2,379.44,127.15,378.82Zm101.58.86a4.94,4.94,0,0,0-5.29,5.33c0,3.23,2.18,5.66,5.05,5.65a5.5,5.5,0,1,0,.24-11Zm-52.45,11a5.49,5.49,0,1,0-5.46-5.44A5.65,5.65,0,0,0,176.28,390.65Zm71.22-5.49a5.52,5.52,0,0,0-11,0,5.52,5.52,0,0,0,11,0Zm-39.65.1c.05-3.32-2.12-5.62-5.26-5.59a5.48,5.48,0,0,0-.23,10.95A5.11,5.11,0,0,0,207.85,385.26Zm52.68.09a5.41,5.41,0,1,0-10.81-.39,5.28,5.28,0,0,0,5.3,5.65A5.34,5.34,0,0,0,260.53,385.35Zm13.24,0a5.53,5.53,0,1,0-5.78,5.31A5.58,5.58,0,0,0,273.77,385.32Zm-78.85-.14a5.42,5.42,0,0,0-5.55-5.51,5.49,5.49,0,0,0,.23,11A5.39,5.39,0,0,0,194.92,385.18Zm26.27-.16a5.55,5.55,0,0,0-5.5-5.3,5.29,5.29,0,0,0-5.41,5.37c.16,3.17,2.11,5.5,5.35,5.59C218.46,390.77,221.05,388,221.19,385Z"/><path class="cls-18" d="M139,422.63c-5.48,0-12.54.2-18,.18-.16-.52.3-.54.58-.71a5,5,0,0,0,1.68-.9c2.8-1.95,6-1.84,9.09-3.14a4.56,4.56,0,0,1,5.23,1"/><path class="cls-18" d="M151.29,414.48c-.32-2-2.63-3-3-5.45,2.6,0,6.27-.42,8.87-.35,1.27,0,2.84,0,2.66,2-.16,1.75-.21,3.62-2.81,3.61A24.89,24.89,0,0,0,151.29,414.48Z"/><path class="cls-17" d="M134,418.34c-1.5-.26-2.3.36-3.58.72-3.22.9-3.58.71-5,1.43-.28.17-4.17,2.17-4.17,2.17-1,.49-2.72,1.62-4,2.3a84.37,84.37,0,0,0-5.63,6.55,26,26,0,0,0-2.31,2.46,29.55,29.55,0,0,0-2.51,2.51c-2.18,1.68-3.65,4.67-5.57,6.59A12.7,12.7,0,0,0,98.52,446a2.49,2.49,0,0,0-1.9,2.73,31.47,31.47,0,0,1-15.87-7.2c-1-.89-.36-1.43.19-2.08a103.87,103.87,0,0,1,11.77-11.59,167.2,167.2,0,0,1,20.92-16.08A56.13,56.13,0,0,1,140.86,403c1.08-.06,1.93,1,3.06.63,1.61.41,2.06,1.68,2.93,2.55A10.38,10.38,0,0,1,149,409c.72,1.44,2,3.42,2.29,5.45.11.89,0,1.67.07,2.53-.05,1.94.49,3.92.44,5.86a14.88,14.88,0,0,1-.11,2.9c-.36,1.68-.71,3.37-1.07,5.05-.9,1.84-1.56,3.37-3.05,4,0,0-2.86,1.44-7.16-.71-1.73-.87-.71-10.74-2.86-14.32"/><path class="cls-2" d="M295.85,401.18c-10.91,0-21.82.07-32.73.07h-120c-.69,0-1.38.06-2.07.09-.63-.73-1.12-.56-2.06-.9a2.52,2.52,0,0,1-2.5-1.1l.89-1.29q30.4,0,60.79-.06l94.41,0C293.85,398.88,294,400.93,295.85,401.18Z"/><path class="cls-17" d="M137.37,398.05l-.89,1.29-10.54.09a1.93,1.93,0,0,0-.88-1.46,8,8,0,0,0-1.22-2.67c-.93-1.67-2.07-2.18-3.87-1.11-2.13,1.27-4.48,2.17-6.4,3.81-1.39,1-3.52,1.06-3.91,3.24-.93.18-2,0-2.44,1.26-.79.41-1.6.78-2.36,1.23-1,.57-1.12,1.17.06,1.7-1.19,2.64-3.82,1.55-5.78,2.15-.73.22-1-.75-1-1.49a10.45,10.45,0,0,1,1.54-5.94c3.59-6.4,9-10.89,15.21-14.64A55.86,55.86,0,0,1,128.13,380c3.91,1.47,5.71,4.81,7.4,8.27.54,1.09.61,2.38,1.46,3.33A32,32,0,0,1,137.37,398.05Z"/><path class="cls-17" d="M110.53,376.85c1.59,1.75,3.68.72,5.53,1-3.13,1.25-6.56,1.26-9.73,2.53-6.79,2.74-13.62,5.36-20.28,8.42-.82.38-1.69.65-2.89,1.1a5.25,5.25,0,0,1,2.07-3.15c3-2.31,5.68-5.07,8.88-7.21a19.41,19.41,0,0,1,9.45-3.12A18.62,18.62,0,0,1,110.53,376.85Z"/><path class="cls-17" d="M78.26,366.8a7.35,7.35,0,0,1,4.17.69,11.86,11.86,0,0,0,6.88,1.18c-2,1.46-4.53.8-6.73,2a94.51,94.51,0,0,0-12.82,7.52,8.29,8.29,0,0,1-1.05.48c2.08-5.51,6.42-8.4,10.89-11.22Z"/><path class="cls-18" d="M147.73,406.33c-1.75-.23-2.2-2.3-3.81-2.71-.2-.31-.4-.63-.61-.94,5.5-.41,11-.14,16.5-.15.79,0,1.63.23,1.7,1.18a2,2,0,0,1-1.22,2.24,6.3,6.3,0,0,1-2.47.34Z"/><path class="cls-8" d="M137.37,398.05a32,32,0,0,0-.38-6.48H249q22.11,0,44.23.07a9.68,9.68,0,0,0-.62,6.38l-94.41,0Q167.77,398,137.37,398.05Z"/><path class="cls-2" d="M109.66,401.24c.39-2.18,2.52-2.26,3.91-3.24l11.49,0a1.93,1.93,0,0,1,.88,1.46c-3,1.16-6.3,1.14-9.39,2Z"/><path class="cls-18" d="M104.92,405.43c-1.18-.53-1-1.13-.06-1.7.76-.45,1.57-.82,2.36-1.23,1.44.09,2.88-.25,4.31.16C109.64,404.35,107.11,404.48,104.92,405.43Z"/><path class="cls-8" d="M111.53,402.66c-1.43-.41-2.87-.07-4.31-.16.4-1.22,1.51-1.08,2.44-1.26l6.89.18Z"/><path class="cls-9" d="M131.39,466.23c-1.72.07-1,.79-5.9-.84C127.5,465.34,129.55,465.07,131.39,466.23Z"/><path class="cls-9" d="M98.52,446c0,1,0,1.92-.07,2.88l-1.83-.14A2.5,2.5,0,0,1,98.52,446Z"/><path class="cls-19" d="M132.4,452.79l.58,0Z"/><path class="cls-11" d="M.63,442.76c15,14.32,18,26.47,18.09,33.56,0,2.27-13.8,12.48-18.09,16.06"/><path class="cls-8" d="M305,398a17.82,17.82,0,0,1,5.55-6.6c1.62.46,2.15.12,3.51.46.47,2,1.82,4.06,2,6.14Z"/><path class="cls-2" d="M305,398h11.1c.26,1.07,1.12,2,.9,3.16l-15.41,0c.76-.28,1.56-.44,1.76-1.46A2.31,2.31,0,0,1,305,398Z"/><path class="cls-18" d="M273.6,449.6c-2.3,0-4.6.13-6.9.13H174.07c-3.62,0-4.77-1.88-3.21-5.26.55-1.2,1.65-1.21,2.74-1.21h95.17c.76,0,1.53.05,2.3.08A12.66,12.66,0,0,0,273.6,449.6Z"/><path class="cls-18" d="M318.36,440.83c-2.49-.7-5-.24-7.56-.35a4.16,4.16,0,0,1-3.85-5.19c.26-1,1.08-1,1.82-1,2.53,0,5.06,0,7.6,0,1,0,2.24.34,2.18-1.46-.06-1.65-1.19-1.31-2.12-1.31q-13.12,0-26.25,0c-3.29,0-4.5-1.28-4.41-4.58,0-1,.78-1.3,1.53-1.38a34.72,34.72,0,0,1,3.68-.13c8.44,0,16.89,0,25.33,0,.86,0,2.15.52,2.2-1.17s-1.21-1.26-2.1-1.27c-2.84,0-5.68,0-8.52,0a3.69,3.69,0,0,1-3.86-4.65c.22-1.24,1.18-1.25,2.12-1.25,3.14,0,6.29.08,9.43-.06,1-.05,3,1,2.89-1.34s-2-1.22-3-1.24c-6.07-.1-12.13,0-18.2-.06-2.82,0-3.92-1.19-3.69-4,.14-1.63,1.52-1.58,2.6-1.6,3.76-.08,7.53,0,11.28-.06s7.5.4,11.22-.3q.07,12.94.16,25.88c0,1.07,0,2.14,0,3.2"/><path class="cls-18" d="M98.52,446a12.7,12.7,0,0,1,2.68-2.89c1.82.06,3.63.13,5.45.18,1.66,0,2.49.62,1.69,2.4-.58,1.3-.4,2.89-1.51,4-2.84.22-5.6-.4-8.38-.8C98.47,447.88,98.5,446.92,98.52,446Z"/><path class="cls-18" d="M318.08,406c-2.71.61-5.46.29-8.18.17a2.17,2.17,0,0,1-2.31-2.34c.09-1.58,1.51-1.38,2.46-1.42,2.36-.07,4.73.07,7.09.12A11.49,11.49,0,0,1,318.08,406Z"/><path class="cls-18" d="M106.8,437.15c.36-1.51,1.61-2.29,2.66-3.23,5.68.47,11.36,0,17,.24,1.34,0,3.39-.78,3.46,1.74.11,3.31-.92,4.53-3.75,4.56-5.53,0-11.06,0-16.59,0C106.26,440.47,106.25,440.45,106.8,437.15Z"/><path class="cls-18" d="M140.05,434c2.51,1.26,5.56,2,8.17.63,2.34-.42,5.65,0,7.53,0a3.53,3.53,0,0,1,1.09,2.53c-.12,1.55-.53,3.26-2.53,3.29-6.6.08-13.21,0-19.82,0a1.24,1.24,0,0,1-1.16-.61c-.72-1.21,1.17-5.35,2.59-5.64"/><path class="cls-18" d="M172.92,440.47c-2.91,0-5.82,0-8.73,0-1.11,0-2.65.14-2.5-1.55s-.63-4.33,1.95-4.49a193.78,193.78,0,0,1,19.73-.08,1.39,1.39,0,0,1,1.39,1.72c-.42,4.08,0,4.41-4.25,4.42h-7.59Z"/><path class="cls-18" d="M152.16,449.84c-2.91,0-5.82,0-8.73,0-1.11,0-2.64.14-2.5-1.55s-.63-4.33,1.95-4.49a193.78,193.78,0,0,1,19.73-.08,1.39,1.39,0,0,1,1.39,1.73c-.42,4.07,0,4.41-4.25,4.41h-7.59Z"/><path class="cls-18" d="M123.53,449.84c-2.91,0-5.82,0-8.73,0-1.11,0-2.65.14-2.5-1.55s-.63-4.33,2-4.49A193.78,193.78,0,0,1,134,443.7a1.38,1.38,0,0,1,1.38,1.73c-.42,4.07,0,4.41-4.24,4.41h-7.59Z"/><path class="cls-18" d="M255.78,440.46c-3,0-6,.05-9,0-2.39-.05-2.55-.54-2.64-4-.06-2.07,1.1-2.21,2.6-2.21,5.76,0,11.51,0,17.26,0,2.21,0,4.11,3.23,3.12,5.25-.43.88-1.28,1-2.16,1-3.07,0-6.14,0-9.21,0Z"/><path class="cls-18" d="M200.68,440.47c-3,0-6,0-9,0-1.28,0-2.44-.11-2.45-1.93,0-3.37.29-4.21,2.44-4.25,5.06-.09,10.12,0,15.18,0l1.38,0c3.8,0,4.7,1.2,3.74,4.89-.33,1.27-1.31,1.33-2.34,1.33Z"/><path class="cls-18" d="M228.11,440.48c-2.92,0-5.83,0-8.75,0-1.85,0-2.65-.74-2.52-2.64s-.33-3.66,2.48-3.63c5.91.07,11.83.06,17.74,0,3,0,2.37,2.09,2.55,3.85.2,2-.94,2.39-2.52,2.39Z"/><path class="cls-18" d="M216.17,431.44h-8.75c-1.35,0-2.52-.22-2.35-2s-.58-3.81,2.16-4c1.6-.12,3.22-.07,4.83-.07,4.23,0,8.45,0,12.67,0,2.49,0,2.74.56,2.88,3.34.11,2.23-1,2.79-2.92,2.74C221.85,431.39,219,431.45,216.17,431.44Z"/><path class="cls-18" d="M150.62,430.82c.36-1.68.71-3.37,1.07-5.05,6.74-.79,13.5-.31,20.25-.34,1.29,0,1.85.7,1.75,2.09-.25,3.63-.46,3.91-4.07,3.92-5.38,0-10.76,0-16.14,0A4.49,4.49,0,0,1,150.62,430.82Z"/><path class="cls-18" d="M270.51,431.43c-3,0-6,0-9,0s-2.25-2.3-2.52-4c-.29-1.86,1-1.92,2.3-2,5.83-.22,11.66-.24,17.5,0,2.25.09,2.88,1.14,2.83,4.2,0,2.14-1.63,1.66-2.83,1.69C276,431.48,273.27,431.43,270.51,431.43Z"/><path class="cls-18" d="M243.34,431.41c-3,0-6,0-9,0-2.57,0-2.1-1.8-2.21-3.38s.44-2.58,2.3-2.58c5.6,0,11.2-.1,16.8-.07,2.79,0,4.2,2.39,3.19,5.08-.39,1-1.31.94-2.12.95-3,0-6,0-9,0Z"/><path class="cls-18" d="M189.12,431.43c-2.75,0-5.51,0-8.26,0-1.22,0-2.74.35-2.79-1.75-.09-3.3.27-4.11,2.74-4.17,5.13-.14,10.26-.07,15.38-.08.31,0,.61.05.92.06,3.4.16,4.17,1.28,3.3,4.62-.34,1.33-1.35,1.31-2.33,1.33C195.09,431.46,192.11,431.44,189.12,431.43Z"/><path class="cls-18" d="M182.36,422.84c-2.76,0-5.52,0-8.29,0-1.25,0-2.6-.13-2.35-2,.21-1.56-.41-3.78,2.16-3.82,6-.1,12.09,0,18.14,0,1.36,0,1.86.93,1.68,2.19s.47,3.41-1.92,3.49c-3.14.1-6.28,0-9.42,0Z"/><path class="cls-18" d="M288.53,417c2.68,0,5.37,0,8.05,0a3.8,3.8,0,0,1,3.34,4.81c-.3.79-1,.9-1.71.93-6,.27-11.95.3-17.92,0-2.18-.11-2.89-1.31-2.75-4.17.09-2,1.76-1.55,2.95-1.59,2.68-.08,5.36,0,8,0Z"/><path class="cls-18" d="M235.64,417c2.84,0,5.68,0,8.52,0,2.46,0,2.48,1.58,2.62,3.38.16,2-.9,2.48-2.45,2.48-5.84,0-11.67,0-17.5-.09-2.54,0-2-1.92-2.11-3.48-.11-1.78.85-2.28,2.4-2.27h8.52Z"/><path class="cls-18" d="M209.13,417c2.84,0,5.68,0,8.52,0,2.46,0,2.48,1.58,2.62,3.38.16,2-.9,2.48-2.45,2.48-5.83,0-11.67,0-17.5-.09-2.54,0-2-1.92-2.11-3.48-.11-1.78.85-2.28,2.4-2.27h8.52Z"/><path class="cls-18" d="M262,417c2.84,0,5.68,0,8.51,0,2.2,0,2.92,1.18,2.92,4,0,2.12-1.59,1.81-2.76,1.83-5.44.09-10.89.09-16.33.05a3.48,3.48,0,0,1-3.06-5c.45-.95,1.37-.88,2.2-.89C256.27,417,259.11,417,262,417Z"/><path class="cls-18" d="M174.43,414.27c-2.68,0-5.36,0-8,0-1,0-2.4.28-2.39-1.35,0-1.47-.25-3.21,1.63-3.91a5.92,5.92,0,0,1,2-.32c5,0,10-.06,14.92,0,3.37,0,4.05,1.1,2.95,4.29a1.94,1.94,0,0,1-2.16,1.3h-8.92Z"/><path class="cls-18" d="M279.35,414.27c-2.83,0-5.67,0-8.5,0-2.65,0-2.5-1.89-2.67-3.66-.21-2.1,1.35-1.93,2.58-1.94,5.21-.06,10.43,0,15.64,0,1.6,0,3.05.3,3.45,2.29.54,2.69.11,3.29-2.68,3.32-2.61,0-5.22,0-7.82,0Z"/><path class="cls-18" d="M227.17,414.28c-2.83,0-5.67,0-8.5,0-1.34,0-2.61-.15-2.59-2.08,0-1.76.2-3.43,2.36-3.46,5.66-.1,11.33-.08,17,0,2.35,0,2.45,1.75,2.43,3.58s-1.32,1.95-2.66,2c-2.67,0-5.35,0-8,0Z"/><path class="cls-18" d="M200.71,414.28h-8.05c-1.29,0-2.57,0-2.52-1.84s-.2-3.59,2.28-3.73c1.84-.1,3.68-.06,5.52-.06,3.52,0,7.05,0,10.57,0,2.79,0,3.07.51,3.21,3s-1.3,2.71-3.2,2.66C205.92,414.23,203.31,414.27,200.71,414.28Z"/><path class="cls-18" d="M253.18,414.27c-2.83,0-5.67,0-8.5,0-2.12,0-2.4-1.23-2.49-3s.73-2.61,2.37-2.62c5.51,0,11-.08,16.52,0,2.29,0,2.88,1.12,2.74,3.82-.1,2.06-1.6,1.69-2.84,1.71C258.38,414.31,255.78,414.28,253.18,414.27Z"/><path class="cls-18" d="M139.42,431.46c-3.58,0-8.83.1-12.57.08-1.13,0-2.88.5-3-1.54-.12-2.94,1-4.56,3.2-4.61,2.83-.07,9.06.18,11.89.11"/><path class="cls-18" d="M151.8,422.87c0-1.94-.49-3.92-.44-5.86l13.69,0c1.23,0,2.46.08,2.22,1.8s.36,3.86-2.35,3.93c-4,.11-8,.09-12,.13Z"/><path class="cls-18" d="M269.54,402.37c2.06,0,4.13,0,6.19,0a25,25,0,0,1,2.73.25c1.14.15,1.42,1,1.53,2,.14,1.22-.78,1.38-1.59,1.51a19.65,19.65,0,0,1-3,.16q-5.94,0-11.87,0a8.68,8.68,0,0,1-2-.32c-1.27-.32-1.41-1.35-1.2-2.36s.84-1.26,1.87-1.22c2.44.1,4.89,0,7.33,0Z"/><path class="cls-18" d="M246.68,402.52H254c1.28,0,2.27.34,2.23,1.94s-1,1.78-2.17,1.78c-5,0-9.94.05-14.92,0-1.33,0-2.73-.29-2.6-2.14s1.59-1.57,2.77-1.6c2.45,0,4.9,0,7.35,0Z"/><path class="cls-18" d="M222.9,402.52c2.54,0,5.07,0,7.61,0,1.07,0,2,.28,2.07,1.63a1.77,1.77,0,0,1-2,2c-5.22.06-10.44.08-15.66,0-1.05,0-2.14-.38-2.08-1.91s1.1-1.74,2.21-1.76c2.61-.06,5.22,0,7.83,0Z"/><path class="cls-18" d="M198.87,406.15c-2.61,0-5.21,0-7.82,0-.92,0-1.82-.17-1.79-1.53s.63-2,1.91-2.06c1.9-.06,3.79-.05,5.69-.06h9.44c1.27,0,2.58,0,2.52,1.85s-1.31,1.9-2.59,1.93c-2.45.05-4.91,0-7.36,0Z"/><path class="cls-18" d="M293.56,402.5h7.58c1.36,0,2.45.38,2.55,2,.11,1.76-1.32,1.73-2.38,1.75-4.82.08-9.64,0-14.46,0a4.62,4.62,0,0,1-2-.51,1.88,1.88,0,0,1-.92-2.16c.15-.88.9-1,1.58-1,2.68,0,5.36,0,8,0Z"/><path class="cls-18" d="M175.57,406.28c-3,0-5.39,0-7.76,0-1.13,0-2.19-.28-2.18-1.76s.88-2,2.22-2c5.13,0,10.25,0,15.37,0,.9,0,1.89.08,2,1.38a1.85,1.85,0,0,1-1.81,2.18C180.57,406.52,177.74,406.15,175.57,406.28Z"/><path class="cls-18" d="M272.44,440.26a3.59,3.59,0,0,1-.52-1c-.71-4.64-1.33-5.13,3.83-5.05,7.66.13,15.33,0,23,0a3.9,3.9,0,0,1,4.07,5.06c-.28,1.24-1.3,1.13-2.2,1.16-3.14.09-6.27.13-9.41.19-2.58-.83-5.11-1.85-7.73-2.46C279.56,437.28,275.64,437,272.44,440.26Z"/><path class="cls-18" d="M309.35,449.12c-.72-.72-.51-2-.7-3.16-.37-2.29-.11-2.62,2.25-2.73s5,.41,7.47-.33c0,2.37,0,4.89-.12,6.91"/><path class="cls-18" d="M297,443.32c1,0,2-.06,3-.07,3.56,0,3.63.05,4,3.63C301.18,446.71,299.26,444.69,297,443.32Z"/><path class="cls-18" d="M111.59,431.51c1.45-2.55,3.6-4.5,5.63-6.55.82.87,3.16-.09,2.63,2.48-.73,3.58-1,4.09-4.15,4.14C114.33,431.6,113,431.53,111.59,431.51Z"/><path class="cls-2" d="M314,391.89a8.33,8.33,0,0,1-3.51-.46c-.06-1.34.77-1.67,1.89-1.57C313.83,390,314.15,390.59,314,391.89Z"/><path class="cls-15" d="M350.19,364.47a3.08,3.08,0,0,0,.72,1.86c4.8,5.16,7.08,11.45,8.18,18.29.54,3.31,1.48,6.55,2,9.85.52,3.15,1.2,6.32-.14,9.5-.44,1-.82,1.56-2.05,1.69-4.21.47-8.42.08-12.62.23-1.07,0-1.51-.47-1.54-1.52a14.21,14.21,0,0,0-.3-2l.09-1c0-1.1,0-2.2,0-3.31l.06-6.42c.48-3.93-.78-7.72-.91-11.6a1.48,1.48,0,0,0-.83-1.28c-.18-1.59-1.32-1.93-2.63-1.93-2.37,0-4.74,0-7.11.1-5.11.27-7.74-2.2-7.66-7.31.56-.17,1.51,0,1.53-.74.06-2.08,1.74-2.42,3.09-3.09a2.53,2.53,0,0,0,1.4-1.68c3.2-.64,6.31-1.68,9.6-1.84A14,14,0,0,1,350.19,364.47Z"/><path class="cls-15" d="M365.06,378.63c-.65-1-1.23-2.22-2.8-1.33a.53.53,0,0,1-.87-.33c-1.43-3.91-4.14-7-6.49-10.32a7.56,7.56,0,0,1,4.94-1.75c2.05,0,4.09,0,6.13,0,1.26.53,2.52,1.08,3.79,1.59,6.64,2.69,9.83,7.91,11.5,14.65,1.08,4.37-.72,8.35-.68,12.55,0,3.27-.62,6.54-.75,9.82-.07,1.77-.65,2.5-2.45,2.44-2.45-.1-4.91-.06-7.36,0A1.94,1.94,0,0,1,367.7,404c-.17-1-.12-2.06-.3-2.7h0c0-1.88-.92-3.52-1.28-5.3a16.62,16.62,0,0,1-.48-4.61c.36-.18.92.14,1.09-.55.59-2.42,1.29-4.83,1.84-7.26C369.18,380.89,369.39,379.05,365.06,378.63Z"/><path class="cls-2" d="M342.89,378.72a1.48,1.48,0,0,1,.83,1.28c.13,3.88,1.39,7.67.91,11.6l-8,0q-4.22-6.54-8.44-13.08Z"/><path class="cls-9" d="M331.51,364.07a2.53,2.53,0,0,1-1.4,1.68c-1.35.67-3,1-3.09,3.09,0,.7-1,.57-1.53.74C326,366.08,328.71,365,331.51,364.07Z"/><path class="cls-15" d="M387.19,386.87a2.15,2.15,0,0,1,1.8.87,1,1,0,0,0,1,.64l0,0c2.85,4.79,3,9.84,1.4,15a3,3,0,0,1-2.86,2.53c-1.94.12-2.79-.5-2.73-2.59C385.92,397.81,386.59,392.34,387.19,386.87Z"/><path class="cls-2" d="M365.06,378.63c4.33.42,4.12,2.26,3.51,5-.55,2.43-1.25,4.84-1.84,7.26-.17.69-.73.37-1.09.55-1.29-2.49-1.3-5.36-2.28-7.95-.19-.49-.28-1-.46-1.52C361.8,378.93,361.83,378.87,365.06,378.63Z"/><path class="cls-8" d="M336.61,391.62l8,0-.06,6.42-4.32.06C338.2,396.4,337.76,393.81,336.61,391.62Z"/><path class="cls-2" d="M340.25,398.08l4.32-.06c0,1.11,0,2.21,0,3.31l-3.29-.05A2.75,2.75,0,0,1,340.25,398.08Z"/><path class="cls-8" d="M341.26,401.28l3.29.05-.09,1C343.28,402.35,341.75,403.37,341.26,401.28Z"/><path class="cls-9" d="M390,388.38a1,1,0,0,1-1-.64C389.39,387.84,389.78,387.94,390,388.38Z"/><path class="cls-11" d="M187.51,487.9H149.27a13,13,0,0,1-5.86-.95c-2.27-1.1-2.71-2.15-2-5.63,1.18-5.62,1.68-11.34,2.7-17,.35-1.95.67-3.91,1.08-5.86a3.43,3.43,0,0,1,1.94-2.41,11.78,11.78,0,0,1,5.3-1.35q37.44,0,74.87,0a11.36,11.36,0,0,1,3.83.68,3.84,3.84,0,0,1,2.81,4c.14,7.6.39,15.2.58,22.8.07,3-1.06,4.56-4,5.23a21.18,21.18,0,0,1-4.57.49q-19.23,0-38.48,0Z"/><path class="cls-20" d="M76.58,190.78a2.69,2.69,0,0,1-2.8,2.52,3,3,0,0,1-3.18-3.14,2.81,2.81,0,0,1,3-2.84C75.33,187.25,76.6,188.57,76.58,190.78Z"/><path class="cls-21" d="M57.47,193.34a3,3,0,0,1-3.08-3,2.84,2.84,0,0,1,2.82-3,3.23,3.23,0,0,1,3.27,2.89A3.11,3.11,0,0,1,57.47,193.34Z"/><path class="cls-22" d="M62.63,190a2.56,2.56,0,0,1,2.79-2.58,2.61,2.61,0,0,1,2.88,2.83c.07,1.94-1.06,2.78-2.75,3C64.06,193.38,62.66,191.9,62.63,190Z"/><path class="cls-7" d="M228.73,379.68a5.5,5.5,0,1,1-.24,11c-2.87,0-5-2.42-5.05-5.65A4.94,4.94,0,0,1,228.73,379.68Z"/><path class="cls-7" d="M176.28,390.65a5.49,5.49,0,1,1,.15-11,5.49,5.49,0,1,1-.15,11Z"/><path class="cls-7" d="M247.5,385.16a5.52,5.52,0,0,1-11,0,5.52,5.52,0,0,1,11,0Z"/><path class="cls-7" d="M207.85,385.26a5.11,5.11,0,0,1-5.49,5.36,5.48,5.48,0,0,1,.23-10.95C205.73,379.64,207.9,381.94,207.85,385.26Z"/><path class="cls-7" d="M260.53,385.35a5.34,5.34,0,0,1-5.51,5.26,5.47,5.47,0,0,1,.18-10.94A5.35,5.35,0,0,1,260.53,385.35Z"/><path class="cls-7" d="M273.77,385.32a5.53,5.53,0,1,1-5.49-5.64A5.54,5.54,0,0,1,273.77,385.32Z"/><path class="cls-7" d="M194.92,385.18a5.43,5.43,0,1,1-10.85,0,5.33,5.33,0,0,1,5.3-5.48A5.42,5.42,0,0,1,194.92,385.18Z"/><path class="cls-7" d="M221.19,385c-.14,3-2.73,5.75-5.56,5.66-3.24-.09-5.19-2.42-5.35-5.59a5.29,5.29,0,0,1,5.41-5.37A5.55,5.55,0,0,1,221.19,385Z"/><path class="cls-8" d="M125.06,398l-11.49,0c1.92-1.64,4.27-2.54,6.4-3.81,1.8-1.07,2.94-.56,3.87,1.11A8,8,0,0,1,125.06,398Z"/><path class="cls-2" d="M380,328.88c-1.07,1.07-4.41,1.63-4.41,1.63H169.74s-3.29-.86-4.08-1.63-1.63-3.8-1.63-3.8v-116a16.24,16.24,0,0,1,1.63-6.52c1.63-3.26,4.08-3.26,4.08-3.26H375.13a8.17,8.17,0,0,1,4.89,4.07,14.09,14.09,0,0,1,1.63,5.71v117A11.72,11.72,0,0,1,380,328.88Z"/><rect class="cls-23" x="165.8" y="209.08" width="213.53" height="118.13"/><path class="cls-20" d="M188.13,204.51a1.81,1.81,0,0,1-1.88,1.69,2,2,0,0,1-2.14-2.11,1.9,1.9,0,0,1,2-1.91C187.29,202.14,188.14,203,188.13,204.51Z"/><path class="cls-21" d="M175.29,206.23a2,2,0,0,1-2.07-2,1.9,1.9,0,0,1,1.89-2,2.17,2.17,0,0,1,2.2,1.94A2.1,2.1,0,0,1,175.29,206.23Z"/><path class="cls-22" d="M178.75,204a1.91,1.91,0,0,1,3.81.17,1.79,1.79,0,0,1-1.84,2A2,2,0,0,1,178.75,204Z"/><path class="cls-19" d="M208.15,281.72h-29c-1.18,0-2.36,0-3.11-1.12a2.63,2.63,0,0,1,1.82-4,10.54,10.54,0,0,1,2-.08c15,0,29.91.1,44.87-.08,4.23-.05,8.45.43,12.68.1,1.87-.15,3.14.57,3.15,2.66,0,1.89-.9,2.55-3.44,2.55Z"/><path class="cls-19" d="M213.56,305.21H184.37c-1.88,0-3.21-1.2-3.05-2.8a2.43,2.43,0,0,1,2.77-2.4c3.91,0,7.83-.13,11.75-.13q23,0,46,0a11.87,11.87,0,0,1,2.38.17,2.59,2.59,0,0,1,.07,5,9.76,9.76,0,0,1-2.16.19Q227.83,305.23,213.56,305.21Z"/><path class="cls-19" d="M190.09,293.77c-3.7,0-7.4,0-11.09,0-2.29,0-3.52-1.08-3.38-2.78a2.36,2.36,0,0,1,2.55-2.4c7.68-.06,15.36-.13,23-.1,2.32,0,3.43,1.06,3.38,2.75s-1.2,2.51-3.63,2.53c-3.62,0-7.25,0-10.87,0Z"/><path class="cls-19" d="M190.1,269.86c-3.71,0-7.41,0-11.12,0-1.83,0-3.17-.63-3.34-2.61-.14-1.64,1.1-2.61,3.26-2.62,7.48,0,15,0,22.45,0,1.74,0,3.06.51,3.22,2.44.15,1.7-1.18,2.79-3.35,2.8C197.51,269.88,193.81,269.86,190.1,269.86Z"/><path class="cls-19" d="M189.86,257.79c-3.62,0-7.25,0-10.87,0-1.8,0-3.34-.48-3.37-2.51s1.55-2.63,3.3-2.64q11.31-.06,22.62,0c1.71,0,3.07.77,3,2.68s-1.44,2.51-3.16,2.51H189.86Z"/><path class="cls-12" d="M229.43,240.51c8.64,0,17.28,0,25.91,0,14.07,0,28.14.12,42.21.15,1.85,0,3.17.6,3.36,2.57.17,1.72-1.08,2.67-3.43,2.68H206.69c-.44,0-.87,0-1.31,0-1.62-.09-2.91-.7-2.91-2.54s1.22-2.68,3-2.68h24Z"/><path class="cls-12" d="M274.17,270H236c-1.56,0-3.37-1.36-3.25-2.6a2.77,2.77,0,0,1,3-2.74c5.29-.15,10.57,0,15.86,0,19.7.06,39.39,0,59.09,0a28,28,0,0,1,3,.11,2.23,2.23,0,0,1,2.13,2.34,2.28,2.28,0,0,1-1.88,2.55,11.78,11.78,0,0,1-2.59.23H274.17Z"/><path class="cls-12" d="M243.11,293.76H213.93c-1.89,0-3.22-1.2-3.06-2.8a2.45,2.45,0,0,1,2.77-2.41c3.92,0,7.84-.12,11.75-.12q23,0,46,0a11.76,11.76,0,0,1,2.38.17,2.59,2.59,0,0,1,.07,5,9.61,9.61,0,0,1-2.15.18Z"/><path class="cls-12" d="M232.44,252.6c5.31-.21,11.63-.06,17.94-.13s12.84.15,19.25.28c1.69,0,3.07.56,3.28,2.46.16,1.51-1.24,2.57-3.33,2.58-7.11,0-14.21,0-21.32,0h-33a19.77,19.77,0,0,1-2.18-.08,2.33,2.33,0,0,1-2.19-2.31,2.25,2.25,0,0,1,1.67-2.5,8.93,8.93,0,0,1,2.58-.29C220.55,252.59,226,252.6,232.44,252.6Z"/><path class="cls-12" d="M308.83,288.4h23.54a9.14,9.14,0,0,1,2.16.16,2.62,2.62,0,0,1,.21,4.93,6.91,6.91,0,0,1-2.59.27H292.49c-2.52,0-5,0-7.55,0-2-.05-3.23-1.21-3.07-2.84s1.49-2.38,3.43-2.37c7.85,0,15.69,0,23.53,0Z"/><path class="cls-12" d="M279.28,299.86h23.54A8.64,8.64,0,0,1,305,300a2.61,2.61,0,0,1,.2,4.92,6.64,6.64,0,0,1-2.58.27H262.94c-2.52,0-5,0-7.56,0-2-.06-3.23-1.22-3.07-2.85s1.5-2.38,3.44-2.37c7.84,0,15.69,0,23.53,0Z"/><path class="cls-12" d="M245,228.81c6.24,0,12.5.33,18.71-.11,4.28-.3,8.49.47,12.73.11,1.8-.15,3.25.41,3.28,2.53s-1.5,2.66-3.24,2.63c-3.39-.05-6.8,0-10.17,0-13,.16-25.93-.09-38.89.05-.51,0-1,0-1.53,0-1.75-.09-3-.81-2.92-2.75s1.33-2.55,3.09-2.53c4.14,0,8.27,0,12.41.06Z"/><path class="cls-22" d="M357.58,276.49H275.93a6.15,6.15,0,0,0-2.78.33,2.66,2.66,0,0,0-.62,4.35,3.38,3.38,0,0,0,2.48.54c7.92,0,15.84,0,23.76,0h12c4.14,0,8.28,0,12.42,0h21.94c4.14,0,8.28,0,12.42,0,1.71,0,2.89-.68,3-2.46S359.38,276.55,357.58,276.49Z"/><path class="cls-12" d="M238,222c-8,0-16,0-24,0-2.75,0-3.86-1.84-2.64-4.17.26-.49.41-1,1.22-.9a12.69,12.69,0,0,0,1.71-.17l47.5,0c1.59,0,3.14.11,3.49,2.12.33,1.85-.76,3.06-2.91,3.08-5,0-10,0-15,0Z"/><path class="cls-12" d="M302.9,257.8H283.54a7.79,7.79,0,0,1-1.94-.13,2.48,2.48,0,0,1-.37-4.72,6.14,6.14,0,0,1,2.78-.35h37.64a14.39,14.39,0,0,1,1.74,0c1.6.2,2.88.91,2.76,2.72s-1.33,2.45-3,2.45Z"/><path class="cls-12" d="M306.63,234H290.5c-2.34,0-3.45-.9-3.46-2.68s1.18-2.64,3.49-2.64q16.13,0,32.25,0c2.33,0,3.75,1.42,3.33,3.24s-1.77,2.09-3.35,2.09C317.38,234,312,234,306.63,234Z"/><path class="cls-12" d="M316.65,221.85c-5.37,0-10.75,0-16.12,0-2.34,0-3.46-.9-3.47-2.68s1.18-2.64,3.49-2.64q16.13,0,32.26,0c2.32,0,3.74,1.43,3.32,3.24s-1.77,2.09-3.35,2.09C327.41,221.84,322,221.85,316.65,221.85Z"/><path class="cls-22" d="M195.4,234c-5.44,0-10.88,0-16.32,0-2.27,0-3.51-1-3.5-2.67s1.39-2.65,3.58-2.62q16.76.22,33.5,0a2.48,2.48,0,0,1,2.85,2.58c.08,1.95-1.16,2.71-2.92,2.72-5.73,0-11.46,0-17.19,0Z"/><path class="cls-12" d="M190.18,222c-3.69,0-7.38,0-11.08,0-2.29,0-3.58-.95-3.47-2.64.13-2,1.52-2.61,3.32-2.61h22.38c1.85,0,3.12.7,3.26,2.69.1,1.53-1.25,2.55-3.32,2.56-3.7,0-7.39,0-11.09,0Z"/><path class="cls-12" d="M322.15,245.9c-3.55,0-7.1,0-10.66,0-1.81,0-3-.76-3-2.61s1.31-2.63,3.06-2.63c7.25,0,14.5,0,21.75,0,1.71,0,3,.66,3,2.63s-1.44,2.54-3.08,2.56C329.55,245.94,325.85,245.9,322.15,245.9Z"/><path class="cls-13" d="M281.83,222c-2.32,0-4.64,0-7,0-1.74,0-3.06-.52-3.17-2.46s1.13-2.74,2.88-2.77c4.7-.08,9.41-.16,14.12-.12,2.22,0,3.41,1.19,3.25,2.94-.19,2.1-1.64,2.46-3.43,2.42C286.29,222,284.06,222,281.83,222Z"/><path class="cls-13" d="M343.39,234.19c-2.32,0-4.64,0-7,0-1.74,0-3.06-.52-3.17-2.46s1.13-2.74,2.88-2.77c4.71-.08,9.41-.16,14.12-.12,2.22,0,3.41,1.19,3.25,2.93-.19,2.11-1.64,2.47-3.42,2.42C347.86,234.15,345.62,234.19,343.39,234.19Z"/><path class="cls-22" d="M238.48,311.85c6.24,0,12.5.33,18.71-.11,4.28-.31,8.49.46,12.73.11,1.8-.15,3.25.41,3.28,2.53S271.7,317,270,317c-3.38-.05-6.79,0-10.16,0-13,.16-25.93-.1-38.89.05-.51,0-1,0-1.53,0-1.75-.09-3-.81-2.92-2.76s1.33-2.55,3.09-2.53c4.14,0,8.27.05,12.41.07,2.18,0,4.35,0,6.53,0Z"/><path class="cls-12" d="M300.16,317.06c-5.38,0-10.75,0-16.13,0-2.34,0-3.45-.9-3.46-2.68s1.17-2.63,3.49-2.64q16.13,0,32.25,0c2.33,0,3.75,1.42,3.33,3.24s-1.77,2.09-3.35,2.08Z"/><path class="cls-22" d="M336.92,317.23c-2.32,0-4.64,0-7,0-1.74,0-3.06-.53-3.17-2.47s1.13-2.73,2.88-2.76c4.7-.09,9.41-.16,14.12-.12,2.22,0,3.41,1.19,3.25,2.93-.19,2.1-1.64,2.46-3.43,2.42C341.38,317.19,339.15,317.23,336.92,317.23Z"/><path class="cls-22" d="M185.65,245.91h-7c-1.76,0-3.06-.7-3-2.6s1.24-2.63,3-2.63q7.06,0,14.13,0c1.81,0,3,.8,3,2.63s-1.18,2.65-3,2.62C190.43,245.87,188,245.9,185.65,245.91Z"/><path class="cls-12" d="M256,281.71c-2,0-4.07,0-6.1,0a2.6,2.6,0,1,1-.16-5.19q6.42-.09,12.84,0c1.63,0,2.81.82,2.76,2.66s-1.06,2.58-2.81,2.56c-2.18,0-4.36,0-6.53,0Z"/><path class="cls-19" d="M219,269.86c-1.74,0-3.47,0-5.21,0s-3.09-1.27-2.94-2.76a2.56,2.56,0,0,1,2.95-2.47c3.25,0,6.5.06,9.75,0,2,0,2.92.89,3,2.84s-1.08,2.43-2.78,2.35-3.18,0-4.76,0Z"/><path class="cls-2" d="M251.36,356.06c-.93.94-3.86,1.43-3.86,1.43H66.68s-2.89-.75-3.58-1.43a12.28,12.28,0,0,1-1.43-3.34V250.84a14.28,14.28,0,0,1,1.43-5.73c1.43-2.86,3.58-2.86,3.58-2.86H247.07a7.16,7.16,0,0,1,4.29,3.57,12.35,12.35,0,0,1,1.44,5V353.6A10.34,10.34,0,0,1,251.36,356.06Z"/><rect class="cls-23" x="63.43" y="250.84" width="187.15" height="104"/><path class="cls-20" d="M83.62,246.74a1.81,1.81,0,0,1-1.88,1.69,2,2,0,0,1-2.14-2.11,1.88,1.88,0,0,1,2-1.9C82.78,244.37,83.63,245.26,83.62,246.74Z"/><path class="cls-21" d="M70.78,248.46a2,2,0,0,1-2.07-2,1.9,1.9,0,0,1,1.89-2,2.18,2.18,0,0,1,2.2,1.95A2.08,2.08,0,0,1,70.78,248.46Z"/><path class="cls-22" d="M74.24,246.2a1.73,1.73,0,0,1,1.88-1.74,1.75,1.75,0,0,1,1.93,1.9,1.8,1.8,0,0,1-1.84,2A2,2,0,0,1,74.24,246.2Z"/><path class="cls-12" d="M129.22,283.46c8.63,0,17.27,0,25.91,0,14.07,0,28.13.12,42.2.15,1.85,0,3.17.6,3.37,2.57.17,1.72-1.09,2.67-3.43,2.67q-17.43,0-34.86,0H106.47c-.43,0-.87,0-1.3,0-1.63-.09-2.92-.7-2.91-2.54s1.21-2.68,3-2.68h24Z"/><path class="cls-12" d="M174,312.91H135.81c-1.56,0-3.38-1.36-3.26-2.6a2.78,2.78,0,0,1,3-2.74c5.29-.15,10.58,0,15.87,0,19.69.06,39.39,0,59.08,0a25.84,25.84,0,0,1,3.05.11,2.23,2.23,0,0,1,2.13,2.33,2.3,2.3,0,0,1-1.89,2.56,11.69,11.69,0,0,1-2.58.23H174Z"/><path class="cls-12" d="M142.9,336.71H113.71c-1.89,0-3.21-1.2-3.06-2.8a2.45,2.45,0,0,1,2.77-2.41c3.92,0,7.84-.12,11.76-.12q23,0,46,0a11.72,11.72,0,0,1,2.37.17,2.59,2.59,0,0,1,.07,5,9.61,9.61,0,0,1-2.15.18Z"/><path class="cls-12" d="M107.94,324.67H79c-1.19,0-2.36,0-3.11-1.12a2.62,2.62,0,0,1,1.81-4,10.54,10.54,0,0,1,2-.08c15,0,29.92.1,44.87-.08,4.23-.05,8.45.43,12.68.1,1.87-.15,3.15.56,3.15,2.66,0,1.89-.9,2.55-3.43,2.55Z"/><path class="cls-12" d="M132.23,295.55c5.31-.21,11.62-.06,17.93-.14s12.84.16,19.26.29c1.69,0,3.07.56,3.27,2.46.16,1.51-1.24,2.57-3.33,2.58-7.1,0-14.21,0-21.32,0H115a19.68,19.68,0,0,1-2.17-.08,2.33,2.33,0,0,1-2.19-2.31,2.23,2.23,0,0,1,1.67-2.5,8.82,8.82,0,0,1,2.57-.29C120.33,295.54,125.78,295.55,132.23,295.55Z"/><path class="cls-22" d="M208.62,331.35h23.54a9.14,9.14,0,0,1,2.16.16,2.62,2.62,0,0,1,.2,4.93,6.83,6.83,0,0,1-2.58.27H192.28c-2.52,0-5,0-7.56,0-2-.05-3.23-1.21-3.07-2.84s1.49-2.38,3.44-2.37c7.84,0,15.69,0,23.53,0Z"/><path class="cls-12" d="M144.73,271.76c6.24,0,12.51.33,18.71-.11,4.28-.3,8.49.47,12.74.11,1.8-.15,3.24.41,3.27,2.53s-1.5,2.66-3.24,2.63c-3.39-.05-6.79,0-10.16,0-13,.16-25.94-.1-38.9.05-.51,0-1,0-1.52,0-1.75-.09-3-.81-2.92-2.75s1.32-2.55,3.09-2.53c4.13,0,8.27.05,12.4.06h6.53Z"/><path class="cls-12" d="M198.55,324.67c-7.92,0-15.84,0-23.75,0a3.41,3.41,0,0,1-2.49-.54,2.66,2.66,0,0,1,.62-4.35,6.18,6.18,0,0,1,2.79-.33H223c1.8.06,3,.92,2.91,2.78s-1.24,2.47-3,2.46c-4.14,0-8.28,0-12.42,0Z"/><path class="cls-12" d="M137.76,265c-8,0-16,0-24,0-2.76,0-3.87-1.83-2.64-4.16.26-.49.4-1,1.21-.9a13,13,0,0,0,1.72-.17l47.49,0c1.59,0,3.14.11,3.5,2.12.32,1.85-.77,3.06-2.92,3.08-5,.05-10,0-15,0Z"/><path class="cls-12" d="M202.69,300.75H183.32a7.86,7.86,0,0,1-1.94-.14,2.47,2.47,0,0,1-.36-4.71,6.12,6.12,0,0,1,2.77-.35h37.64a14.39,14.39,0,0,1,1.74,0c1.6.2,2.88.91,2.76,2.72s-1.33,2.45-3,2.45Z"/><path class="cls-12" d="M206.42,277H190.29c-2.34,0-3.46-.9-3.47-2.68s1.18-2.64,3.49-2.64q16.13,0,32.26,0c2.32,0,3.74,1.42,3.32,3.24s-1.77,2.09-3.35,2.09C217.17,277,211.79,277,206.42,277Z"/><path class="cls-12" d="M95.19,277c-5.44,0-10.88,0-16.32,0-2.28,0-3.52-1-3.51-2.67s1.39-2.65,3.59-2.62q16.74.22,33.5,0a2.49,2.49,0,0,1,2.85,2.58c.07,1.95-1.17,2.71-2.92,2.72-5.73,0-11.46,0-17.19,0Z"/><path class="cls-22" d="M89.87,336.72c-3.69,0-7.39,0-11.09,0-2.29,0-3.52-1.08-3.38-2.78a2.36,2.36,0,0,1,2.55-2.4c7.69-.06,15.37-.13,23-.1,2.31,0,3.42,1.06,3.37,2.75s-1.19,2.51-3.63,2.53c-3.62,0-7.24,0-10.87,0Z"/><path class="cls-22" d="M90,265c-3.7,0-7.39,0-11.08,0-2.3,0-3.59-.95-3.48-2.64.13-2,1.53-2.61,3.32-2.61h22.38c1.85,0,3.13.7,3.26,2.69.1,1.53-1.25,2.55-3.32,2.56-3.69,0-7.39,0-11.08,0Z"/><path class="cls-13" d="M89.88,312.81c-3.7,0-7.41,0-11.11,0-1.83,0-3.17-.63-3.35-2.61-.14-1.64,1.1-2.62,3.26-2.62,7.48,0,15,0,22.45,0,1.74,0,3.06.51,3.22,2.44.15,1.7-1.18,2.79-3.35,2.8C97.29,312.83,93.59,312.81,89.88,312.81Z"/><path class="cls-12" d="M89.65,300.74c-3.63,0-7.25,0-10.88,0-1.8,0-3.33-.48-3.37-2.51s1.56-2.63,3.31-2.64q11.3-.06,22.61,0c1.71,0,3.08.77,3,2.68s-1.44,2.51-3.17,2.51H89.65Z"/><path class="cls-12" d="M221.93,288.85c-3.55,0-7.1,0-10.65,0-1.81,0-3-.76-3-2.61s1.32-2.63,3.07-2.63c7.25,0,14.5,0,21.75,0,1.7,0,3,.66,3,2.63s-1.44,2.54-3.08,2.56C229.33,288.89,225.63,288.85,221.93,288.85Z"/><path class="cls-13" d="M181.61,265c-2.32,0-4.64,0-7,0-1.74,0-3.06-.52-3.17-2.46s1.13-2.74,2.88-2.77c4.71-.08,9.42-.16,14.12-.12,2.22,0,3.41,1.19,3.25,2.93-.19,2.11-1.64,2.47-3.42,2.42C186.08,264.93,183.85,265,181.61,265Z"/><path class="cls-12" d="M85.44,288.86h-7c-1.76,0-3.06-.7-3-2.6s1.24-2.63,3-2.63q7.07,0,14.13,0c1.82,0,3,.8,3,2.63s-1.18,2.65-3,2.62C90.22,288.82,87.83,288.85,85.44,288.86Z"/><path class="cls-12" d="M155.75,324.66c-2,0-4.06,0-6.1,0a2.6,2.6,0,1,1-.16-5.19q6.42-.09,12.84,0c1.64,0,2.81.82,2.77,2.66s-1.07,2.58-2.82,2.56c-2.18,0-4.35,0-6.53,0Z"/><path class="cls-22" d="M118.8,312.81c-1.74,0-3.47,0-5.2,0s-3.1-1.27-2.94-2.75a2.55,2.55,0,0,1,2.94-2.47c3.25,0,6.51.06,9.76,0,2,0,2.91.89,3,2.84s-1.07,2.43-2.77,2.35-3.18,0-4.77,0Z"/></g></g></g></svg>