<svg xmlns="http://www.w3.org/2000/svg" viewBox="0 0 444.42 400.58"><defs><style>.cls-1{fill:#e4b363;}.cls-2{fill:#38302f;}.cls-3{fill:#bea078;}.cls-4{fill:#0e4740;}.cls-5{fill:#313638;}.cls-6{fill:#e8e9eb;}.cls-7{fill:#3d4244;}.cls-8{fill:#f7f7f7;}.cls-9{fill:#fcbc94;}.cls-10{fill:#c0c6ce;}.cls-11{fill:#eaa27d;}.cls-12{fill:#63a6a8;}.cls-13{fill:#07c39b;}.cls-14{fill:#ef6461;}.cls-15{fill:#177764;}.cls-16{fill:#e0dfd5;}.cls-17{fill:#43595e;}</style></defs><g id="Layer_2" data-name="Layer 2"><g id="Website"><g id="work-experience-home"><path class="cls-1" d="M68.9,98.18,63,104.88c-1.2.86-2.44,1.68-3.6,2.6-10.38,8.21-22.73,6.28-31.63-2.63A10.56,10.56,0,0,1,24,101a4.91,4.91,0,0,0-2.61-2.25c-1.79-3.26-3.71-6.46-5.34-9.8a77.91,77.91,0,0,1-6-17.72,10.12,10.12,0,0,1,0-2.06,16.54,16.54,0,0,0,0-3.52C9.37,62.44,8.4,59.29,8.92,56c.13-.84-.05-1.69.83-2.33.55-.39,2.28-.29,1.32-1.56-.74-1-1.28-3-3.34-1.87.09-2.53-1.19-4-3.37-5.25A15.1,15.1,0,0,1,.32,41c2.44-.5,4.17.74,6,1.53-.22,1.16.69,1.7,1.33,2.36,1.62,1.68,3.39,3.24,4.91,5,1,1.19,1.94,1.45,3,.28s.49-2.25-.65-3a32.68,32.68,0,0,0-7.41-4c1.37-.51,1.15-1.78,1.34-2.85,1.62-9.18,4.57-17.8,10.56-25.15a12.31,12.31,0,0,1,2.91-2.94,7.39,7.39,0,0,1,3,.87,42.44,42.44,0,0,0,9.87,3.24,1.88,1.88,0,0,0,2.41-1c.6-1.56-.18-2.91-.81-4.22-.36-.76-1.24-.62-1.85-.28-3.48,2-6.5-.33-9.69-1,1.78-1.66,3.47-3.47,6-3.92a9.18,9.18,0,0,1,1,1.2,1.38,1.38,0,0,0,2.11.69c1.09-.57,1.08-1.47.74-2.42a9.37,9.37,0,0,0-.92-1.49c2.48-.43,5-1,7.47-1.26,11-1.23,20.18,2.52,27.62,10.67a5.55,5.55,0,0,0,2.25,1.73c-.86,1.28-1.77,2.53-2.59,3.83-1.48,2.35-.73,3.81,2,3.89,1.89.06,3.78,0,5.67,0,.94,4.62,3.09,8.86,4.11,13.48,2.4,10.84,2,21.65.09,32.48a4.43,4.43,0,0,1-.59,1.14c-.58.19-1.11,0-1.32,1.12-.89,4.69-1,4.67-5.78,5.26-.17,0-.35,0-.52.06-2.22.42-3,2.22-1.55,3.87,2.21,2.49,4,5,3,8.6S70.64,95.09,68.9,98.18ZM51.61,4.78c-.09.85-.17,1.06-.11,1.18.28.54.57,1.08.9,1.59C56.43,13.74,59,20.6,61,27.63c1.6,5.44,2.23,11.1,3.11,16.7.44,2.75.07,4.37-2.71,5.43-1.57.6-2,.58-2-1.13a31.89,31.89,0,0,0-1-7.78c-.14-.62.08-1.68-.89-1.59-.69.07-.82,1-1,1.71a42.48,42.48,0,0,0-1,12.72c.14,2.55,1.27,3.17,3.58,1.92,1.65-.89,3.28-1.79,5.29-2.89,0,3.26.06,6.12,0,9s-.62,5.94-.35,8.85c.25,2.71-1,5.06-.93,7.75.11,2.9-.81,5.85-1.25,8.78s-.8,5.69-1.25,8.53-1,5.56-1.46,8.34c.87-.32,1.22-.74,1.35-1.22,1.77-6.29,4.32-12.4,5-18.92.35-3.16,2.65-6,1.43-9.51-.19-.54,1.09-2.5,1.23-4a155.58,155.58,0,0,0,.61-17.27c0-2.28-.61-4.74,2.09-6.42-1.47-.11-2.49,0-2.6-1.74-.73-11.37-4.51-21.79-10.26-31.52A52.67,52.67,0,0,0,51.61,4.78ZM44.85,104.87c.57-.87.78-1.06.81-1.27a235.67,235.67,0,0,0,2.59-26.48c.33-11.13,1.17-22.29.2-33.44-.11-1.27.57-3.25-.46-3.63s-2.3,1.29-3.07,2.3c-1.09,1.43-3.45,2.19-3.32,4.12.15,2.12-.3,4.15-.21,6.23C42,65.23,41.64,77.8,43,90.29,43.47,94.93,44.16,99.56,44.85,104.87ZM18.07,67c-.08,1.18.68,1.52,1.3,2,4.43,3.33,4.76,7.13,1,11-.42.43-.86.85-1.3,1.28-.24.24-.56.48-.37.88s.69.5,1.11.39A5.76,5.76,0,0,0,21.25,82c1.9-1.16,2.62-.59,3.11,1.55,1.32,5.61,2.89,11.15,4.4,16.7.2.77.19,2.09,1.33,1.84.87-.19.5-1.38.35-2.08-1.24-5.71-1.94-11.5-2.8-17.27-.37-2.46.31-3.79,2.24-4.88.6-.34,1.23-.64,1.81-1,2.74-1.84,2.72-3.22-.24-4.55-3.73-1.66-6.33-3.91-5.64-8.49.2-1.34-.13-2.36-1.95-2.28s-2.47.64-2.44,2.5C21.49,67.6,21.4,67.6,18.07,67ZM47.4,21.66c.69-2.23-.72-3.48-2-4.75-.49-.47-1-1.17-1.75-.84s-.56,1.18-.62,1.84C42.67,22,42.34,26,42,30.1c-.15,2.07,0,3.9,2.91,2.79a3.69,3.69,0,0,1,1.56-.07c1.27.12,1.51-.41,1.54-1.66A80.31,80.31,0,0,0,47.4,21.66ZM26.47,42.3c.44-1.76-1.16-1.5-2.26-1.74-1.35-.29-2.15.08-2.24,1.65-.27,4.87-.62,9.74-.94,14.6-.09,1.45.75,2.06,2,2.19a1.86,1.86,0,0,0,2.31-2.11A95,95,0,0,1,26.47,42.3Zm19-38-1,.13c.6,3.2-2.7,7,2.31,10C46.36,10.72,45.93,7.5,45.5,4.28ZM32.17,18.18c-.08-.78-.19-1.86-.91-2-1.2-.23-1.26,1.2-1.67,1.9-.59,1-2,2-1,3.45a1.43,1.43,0,0,0,1.62.58c1.66-.53,1.3-2.25,1.89-3.41A1.46,1.46,0,0,0,32.17,18.18Z"/><path class="cls-2" d="M74,88.83c1.06-3.58-.78-6.11-3-8.6-1.47-1.65-.67-3.45,1.55-3.87.17,0,.35,0,.52-.06,4.78-.59,4.89-.57,5.78-5.26.21-1.1.74-.93,1.32-1.12-.15,1.88-1.9,4-.74,5.42,1,1.22,3.44.22,5.24.4.77.08,1.55.09,2.93.17-2.53,1.81-5,2.28-7.44,2.93-3.39.91-3.72,1.68-1.88,4.6A51,51,0,0,1,82,90.36a16.84,16.84,0,0,1-4.26-3.13c-2.24-2-2.25-2-3.47.89Z"/><path class="cls-2" d="M76.57,22.82c-1.89,0-3.78,0-5.67,0-2.72-.08-3.47-1.54-2-3.89.82-1.3,1.73-2.55,2.59-3.83,2.17-2.36,4-5.05,7.21-7.48a40.49,40.49,0,0,1-3.86,8.89c-1,1.75-1.22,2.63,1.32,2.89a33.77,33.77,0,0,1,9.42,2.06A43.5,43.5,0,0,1,76.57,22.82Z"/><path class="cls-2" d="M25.21,9.86c3.19.63,6.21,2.92,9.69,1,.61-.34,1.49-.48,1.85.28.63,1.31,1.41,2.66.81,4.22a1.88,1.88,0,0,1-2.41,1,42.44,42.44,0,0,1-9.87-3.24,7.39,7.39,0,0,0-3-.87c.22-.3,0-.45-.2-.6,0-.44.06-.88.1-1.32A6.1,6.1,0,0,0,25.21,9.86Z"/><path class="cls-2" d="M7.73,50.2c2.06-1.13,2.6.89,3.34,1.87,1,1.27-.77,1.17-1.32,1.56-.88.64-.7,1.49-.83,2.33-.52,3.33.45,6.48,1.12,9.65a16.54,16.54,0,0,1,0,3.52A62.72,62.72,0,0,1,8.35,56c0-1.56-.47-2-2-1.4-1.83.7-3.78,1.13-6.2,1.83C2.54,53.6,5.29,52.09,7.73,50.2Z"/><path class="cls-2" d="M7.52,43.18a32.68,32.68,0,0,1,7.41,4c1.14.78,1.75,1.81.65,3s-2,.91-3-.28c-1.52-1.77-3.29-3.33-4.91-5-.64-.66-1.55-1.2-1.33-2.36Z"/><path class="cls-2" d="M34.16,3.92a9.37,9.37,0,0,1,.92,1.49c.34,1,.35,1.85-.74,2.42a1.38,1.38,0,0,1-2.11-.69,9.18,9.18,0,0,0-1-1.2c1-1.89-.17-3.91.36-5.94C32.94,1,33.26,2.67,34.16,3.92Z"/><path class="cls-3" d="M22.23,10.32c0,.44-.07.88-.1,1.32-.87.12-1.34-.38-1.16-1.12C21.1,9.94,21.76,10.19,22.23,10.32Z"/><path class="cls-4" d="M69,173.56l-50.15.73a7.55,7.55,0,0,1-7.54-7.54l-4.4-54c0-4.16,4.85-13.19,9-13.19l29.13,8.77,27.62-8.77c4.16,0,9,7.56,9,11.72L76.56,166A7.55,7.55,0,0,1,69,173.56Z"/><path class="cls-2" d="M27.8,98.34c8.9,8.91,21.25,10.84,31.63,2.63,1.16-.92,2.4-1.74,3.6-2.61,2,.08,4,.23,6,.2,3,0,5.84.32,7.17,3.52,1.26,3-.1,5.37-2.25,7.42a16.85,16.85,0,0,1-4.9.61q-23.94,0-47.89,0a11.75,11.75,0,0,1-5.82-1.1,22,22,0,0,1-1.41-2.49c-1.62-3.86,1-7.67,5.53-7.92C22.23,98.45,25,98.42,27.8,98.34Z"/><path class="cls-2" d="M51.61,4.78a52.67,52.67,0,0,1,6.49,8.61c5.75,9.73,9.53,20.15,10.26,31.52.11,1.69,1.13,1.63,2.6,1.74-2.7,1.68-2.11,4.14-2.09,6.42a155.58,155.58,0,0,1-.61,17.27c-.14,1.46-1.42,3.42-1.23,4,1.22,3.53-1.08,6.35-1.43,9.51-.73,6.52-3.28,12.63-5,18.92-.13.48-.48.9-1.35,1.22.49-2.78,1-5.55,1.46-8.34s.82-5.69,1.25-8.53,1.36-5.88,1.25-8.78c-.11-2.69,1.18-5,.93-7.75-.27-2.91.27-5.89.35-8.85s0-5.72,0-9c-2,1.1-3.64,2-5.29,2.89-2.31,1.25-3.44.63-3.58-1.92a42.48,42.48,0,0,1,1-12.72c.17-.68.3-1.64,1-1.71,1-.09.75,1,.89,1.59a31.89,31.89,0,0,1,1,7.78c0,1.71.44,1.73,2,1.13,2.78-1.06,3.15-2.68,2.71-5.43-.88-5.6-1.51-11.26-3.11-16.7C59,20.6,56.43,13.74,52.4,7.55c-.33-.51-.62-1-.9-1.59C51.44,5.84,51.52,5.63,51.61,4.78Z"/><path class="cls-2" d="M44.85,104.87c-.69-5.31-1.38-9.94-1.87-14.58C41.64,77.8,42,65.23,41.39,52.7c-.09-2.08.36-4.11.21-6.23-.13-1.93,2.23-2.69,3.32-4.12.77-1,1.89-2.74,3.07-2.3s.35,2.36.46,3.63c1,11.15.13,22.31-.2,33.44a235.67,235.67,0,0,1-2.59,26.48C45.63,103.81,45.42,104,44.85,104.87Z"/><path class="cls-2" d="M18.07,67c3.33.61,3.42.61,3.35-3,0-1.86.7-2.42,2.44-2.5s2.15.94,1.95,2.28c-.69,4.58,1.91,6.83,5.64,8.49,3,1.33,3,2.71.24,4.55-.58.38-1.21.68-1.81,1-1.93,1.09-2.61,2.42-2.24,4.88.86,5.77,1.56,11.56,2.8,17.27.15.7.52,1.89-.35,2.08-1.14.25-1.13-1.07-1.33-1.84-1.51-5.55-3.08-11.09-4.4-16.7-.49-2.14-1.21-2.71-3.11-1.55a5.76,5.76,0,0,1-1.46.57c-.42.11-.89.1-1.11-.39s.13-.64.37-.88c.44-.43.88-.85,1.3-1.28,3.78-3.89,3.45-7.69-1-11C18.75,68.51,18,68.17,18.07,67Z"/><path class="cls-2" d="M47.4,21.66a80.31,80.31,0,0,1,.65,9.5c0,1.25-.27,1.78-1.54,1.66a3.69,3.69,0,0,0-1.56.07C42,34,41.89,32.17,42,30.1c.3-4.06.63-8.13,1-12.19.06-.66-.19-1.51.62-1.84s1.26.37,1.75.84C46.68,18.18,48.09,19.43,47.4,21.66Z"/><path class="cls-2" d="M26.47,42.3a95,95,0,0,0-1.09,14.59A1.86,1.86,0,0,1,23.07,59c-1.29-.13-2.13-.74-2-2.19.32-4.86.67-9.73.94-14.6.09-1.57.89-1.94,2.24-1.65C25.31,40.8,26.91,40.54,26.47,42.3Z"/><path class="cls-2" d="M45.5,4.28c.43,3.22.86,6.44,1.36,10.12-5-3-1.71-6.79-2.31-10Z"/><path class="cls-2" d="M32.17,18.19a1.43,1.43,0,0,1-.05.51c-.59,1.16-.23,2.88-1.89,3.41a1.43,1.43,0,0,1-1.62-.58c-1-1.47.39-2.44,1-3.45.41-.7.47-2.13,1.67-1.9C32,16.32,32.09,17.4,32.17,18.19Z"/><path class="cls-2" d="M35.7,24.74c.11-1.74-.26-3.56.62-5.19,1.5-2.77,4-3.66,7-3.65,12.89,0,25.79,0,38.68,0H189.09l70.78,0,106.89,0h37.91c5.25,0,7.62,2.24,7.65,7.44.06,10.39,0,20.77.08,31.16a9.58,9.58,0,0,1-.15,3.22c0,.93-.07,1.86-.07,2.8q0,71.18,0,142.35c0,8.67.06,17.33.08,26,0,2.83-.17,5.68.05,8.49.32,4.19-.58,7.65-4.56,9.76l-4.88-.14a17.89,17.89,0,0,0-3.63-6.53c1.62,0,3.25-.11,4.86,0,1.27.06,1.57-.45,1.55-1.62-.09-3.78-.09-7.57-.12-11.36a4.74,4.74,0,0,0,.29-1.35c-.52-5.4-.16-10.8-.17-16.2q-.07-92.34,0-184.67c0-2.23-.74-2.72-2.8-2.7-9.68.1-19.36,0-29,0H45.56c-3.1,0-3.12,0-3.12,3q0,18.83,0,37.64,0,72.09,0,144.18c0,6.67.06,13.35.1,20,0,2.93-.06,5.86-.12,8.79-.1,4.08-.11,4.08,3.77,4.24-2.32,2.13-4.49,4.44-7.28,6-2.66-2.33-3.25-5.32-3.2-8.73.15-11.61.12-23.22.14-34.84,0-1-.12-2-.18-3,0-.33,0-.66,0-1,0-1.65.16-2.49.16-3.7q.09-65.52.05-131,0-17.92,0-35.85"/><rect class="cls-5" x="74.44" y="249.14" width="290.12" height="57.16"/><path class="cls-6" d="M310.53,222.59c-2.12.54-3.66,2-5.3,3.32-.69.56-1.11,1.48-2.13,1.58-.86,0-1.71-.06-2.56-.06q-63.42,0-126.82,0-22.93,0-45.85.08a29.83,29.83,0,0,0-11.2-1c-1.87-.29-4,.75-5.59-1-3.93-5.22-9-8.4-15.67-8.43-1.93,0-3.85.1-5.78.15a11.93,11.93,0,0,1-6.95-1.19,7.42,7.42,0,0,0-4.21-.69c-6.62,0-11.92,2.83-16.63,7.26-1.66,1.56-2.61,3.78-4.75,4.84l-14.53,0c0-6.68-.1-13.36-.1-20q0-72.09,0-144.18,0-18.82,0-37.64c0-3,0-3,3.12-3H373.85c9.68,0,19.36.05,29,0,2.06,0,2.8.47,2.8,2.7q-.09,92.34,0,184.67c0,5.4-.35,10.8.17,16.2a4.74,4.74,0,0,1-.29,1.35l-15.69,0a16.91,16.91,0,0,0-4.89-8.71c-4.41-3.8-9.64-6-15.71-5.28-2.06,0-4.13,0-6.19,0a7.62,7.62,0,0,0-5,1.76c-1.74-.4-2.66-2.57-4.75-2.2a14.2,14.2,0,0,0-9.19-2.27c-3.32.16-6.47,1.22-9.7,1.86-2.83,1-5.59,2-6.08,5.57-.08,5.17,2.57,7.66,7.74,7.39,2.4-.12,4.79-.11,7.19-.1,1.32,0,2.47.35,2.65,2l-14.87-.19c-1.94-.26-2.56-2.18-3.93-3.14a17.94,17.94,0,0,0-13.51-3.18A4.36,4.36,0,0,0,310.53,222.59Z"/><rect class="cls-7" x="47.64" y="28.9" width="353.56" height="192.31"/><path class="cls-8" d="M380.75,345.69l15.83-1.91,47.75,36.41L444,400.58s-13.76-13.63-28-26C403,363.25,380.75,345.69,380.75,345.69Z"/><path class="cls-9" d="M2.87,339.12c-.61.05-.86.5-1.08,1"/><path class="cls-10" d="M44.33,305.8c-10.85,5.79-42,33.28-42,33.28l2.89,1.45H27s8.27-7,11.44-8.64a36.29,36.29,0,0,1,8.16-2.68c11.09-1.81,33.79-.27,44.89-2,11.27-1.76,44-12,44-12l-34.73-2.9L68.93,313S49.91,302.82,44.33,305.8Z"/><path class="cls-9" d="M0,275.64c.51-.34,11-8.18,15.27-11.05,4-2.68,8.38-4.87,12.23-7.78s7.32-6.19,10.94-9.34c.26-.22.33-.67.49-1,2.79-1.55,5-3.86,7.28-6,1.17-.32,1.74-1.42,2.69-2.07a21.4,21.4,0,0,0,8.19-10.92c2.14-1.06,3.09-3.28,4.75-4.84,4.71-4.43,10-7.3,16.63-7.26.4.19,2.25.35,2.78.6-4.52,2.84-9.32,4.59-11.43,10.15.55-.24,2.32-1.1,2.54-1.26,4-3,6-3.27,10.47-5.62,2.22-1.17,4.79-.51,6.8-2,1.93-.05,3.85-.16,5.78-.15,6.7,0,11.74,3.21,15.67,8.43a18.59,18.59,0,0,0-7-.43,19.53,19.53,0,0,0-9.55,3.15c-3.24,2.16-5.92,4.95-9,7.29a5.28,5.28,0,0,0-2.09,3.18c1.2-.45,2.09-.73,2.92-1.11,6.72-3.09,13.63-5.74,20.49-8.51,3.21-1.28,6.67-1.3,9.84-2.55a29.62,29.62,0,0,1,11.2,1c0,.63.73.72,1,1.16a56.73,56.73,0,0,0-13.44,5.61A37.13,37.13,0,0,0,101.56,249c-1,1.82-2.07,2.89-1.9,5.07,0,.75-.1,1.5.63,1.27,2-.6,3.92,1.76,5.11-.92,2.22-1,4.78-1.08,6.69-2.79l5.07-1.25c3.12-.87,6.43-.84,9.49-2l10.66-.09c.5.9,1.08.38,2.52,1.11.7.35,1.45.16,2.09.9l2.29,1.36.62.94c-1.15.34-2.18,3.33-3.28,3.39-10,.54-17,2.33-25.39,7.62-7.54,4.75-12.36,9.37-19,15.23a98.62,98.62,0,0,0-11.43,11.42c-.55.67-5.74-.27-4.71.62a32,32,0,0,0,16,7.29l1.85.14c2.81.41,5.6,1,8.47.81l1.84.12c8.07.49,16.18.65,24,3.07l.57,0,1.4.13c1,1,2,1.92,2.9,3A6.27,6.27,0,0,1,139,313c-1.61,2.53-4.07,3-6.81,2.9-1.86-1.17-3.93-.9-6-.85h-2a15.3,15.3,0,0,0-3.47.19c-6.94,2-14.14,2.17-21.23,2.51-6.27.29-12.64,1-18.92-.72-2.27-.6-4.56-.25-7-1.56-3.36-1.84-7.29-2.77-11-4-5.16-1.7-10.31-3.4-15.37-5.41a3.51,3.51,0,0,0-3.68.38c-2.44,1.75-4.64,3.77-7,5.64-2.68,2.14-5.33,4.33-8,6.43-3.48,2.7-25.25,19-28.57,21.91"/><path class="cls-9" d="M412.59,360.79c-6-4-.22-1.67-12.17-7.93-2.19-1.15-4.23-2.61-6.63-3.32-3-1.49-5.9-3.1-8.94-4.44-3.88-1.71-7.41-4.26-11.74-4.88-.15-.26-.23-.68-.45-.77-4.37-1.69-8.56-3.79-12.85-5.66-1.71-.74-3.06-2-5.17-2.25-3.27-.33-6.42-1.81-9.69-2.19-4.31-.5-8.35-2.34-12.76-2.22a45.38,45.38,0,0,1-9.91-.76,43.9,43.9,0,0,1-16-6.87,120.71,120.71,0,0,1-15.94-12.92,19.2,19.2,0,0,0-6-4.2c0-.34-.25-.42-.55-.35-2.18-2.21-5.23-2.07-7.9-3a12.72,12.72,0,0,1-2.56-6.35l1.38-3.09c3.24-3.27,7.19-3,11.16-2.09,2.65.62,5.21,1.64,7.81,2.49l5.87,2.7c2.27,1.38,4.2,3.42,7.09,3.59a15.91,15.91,0,0,0,4.83,2.6l1.4.57c2.15,1.46,4.74,1.78,7.12,2.63,1,.36,1.7.07,1.29-1.25a10.56,10.56,0,0,1-.27-1.59c.16-2,.16-4.58.12-7,0-.7,0-1.4,0-2.09.2-.89-.15-1,.05-1.86,0,0,.3-.92.46-1.6,0-1.08,0-2.16,0-3.24q-.09-13.08-.16-26.15a4.64,4.64,0,0,0-.61-2.36,11.4,11.4,0,0,0-1-3.5l-.18-1.36c.22-1.21-.65-2.11-.91-3.19-.22-2.1-1.49-3.85-2-5.86.14-1.32-.28-2.26-1.73-2.4-1.13-.1-2,.23-1.91,1.59a17.85,17.85,0,0,0-5.61,6.67,2.28,2.28,0,0,0-1.66,1.68c-.21,1-1,1.19-1.79,1.47a6.29,6.29,0,0,1-5.76,0c-1.89-.25-2-2.32-3.31-3.19a9.7,9.7,0,0,1,.63-6.45c1.53-2.69,3.18-5.33,4.57-8.1.85-1.69,2.7-2.79,2.83-4.88,1-.1,1.44-1,2.13-1.58,1.64-1.31,3.18-2.78,5.3-3.32a46,46,0,0,1,5.76.24,11.65,11.65,0,0,1,5.59,2c5.4,4.26,10.89,8.52,13.9,14.58,3.73,7.49,6.84,14.58,10.16,22.22,2,4.63,5.4,8,10.16,10.79,5.53,3.28,11.17,7.17,17.13,9.52,9.41,3.71,15.34,7.14,24.76,10.79.82.32,1.34,3.19,2.21,3.11a10.44,10.44,0,0,0,3.89,2c6.28,2.11,12.42,4.59,18.53,7.14,4.33,1.82,17.16,8.64,21.71,9.94"/><path class="cls-8" d="M2.37,339.8s2.17,6.52,7.23,10.13H44.33S33.83,357.05,22,370.58c-14.85,17-22,30-22,30v-58.3Z"/><path class="cls-5" d="M444.42,315.21c-13.85-3.7-23.65,4.73-31.11,13-9.4,13-1.45,26-.72,32.56l31.74,23.39"/><path class="cls-5" d="M373.11,340.22c4.33.62,7.86,3.17,11.74,4.88,3,1.34,6,2.95,8.94,4.44-.78.79-1.77.47-2.66.46-10-.07-20-.41-30-.25-18.32.3-36.64.05-55,.15-10.48.05-21,0-31.45,0H192.31q-46.08,0-92.16,0-38.76,0-77.53.14c-3.48,0-7-.23-10.45.05s-5.65-1.47-7.35-4.23c-1.13-1.85-1.66-4-3-5.74.22-.48.47-.93,1.08-1a14.93,14.93,0,0,0,3.5,1.06c6.11.32,12.21.22,18.32,0,13.59,0,27.17.11,40.76.11H348.89C357,340.32,365,340.25,373.11,340.22Z"/><path class="cls-6" d="M435.44,311.18c-4.44-1.9-8.49-4.31-12.82-6.13-6.11-2.55-12.25-5-18.53-7.14a10.44,10.44,0,0,1-3.89-2c-1.16-8.27-2.17-16.56-3.55-24.79a7.9,7.9,0,0,1,1.29-6.27c3.63-5.38,6.15-11.1,4.94-17.84l4.88.14c5.28,2,5.64,7.37,7.43,11.58,4.55,10.69,8.79,21.51,13,32.34C430.72,297.46,433.38,304.59,435.44,311.18Z"/><path class="cls-11" d="M370.7,250.25c.63,1.26.13,1.69.3,2.72a2,2,0,0,0,2.34,1.91c2.48,0,5-.08,7.45,0,1.81.07,2.4-.67,2.47-2.46.14-3.31.8-6.62.76-9.92,0-4.25,1.78-8.28.69-12.7C383,223,379.79,217.74,373.08,215c-1.28-.51-2.55-1.07-3.83-1.61,6.07-.71,11.3,1.48,15.71,5.28a16.91,16.91,0,0,1,4.89,8.71c-.28,1.31.39,2.53.4,3.81a32.07,32.07,0,0,0,.76,3.17c0,.26-.35,1-.31,1.26-.61,5.54-1.29,11.07-1.46,16.64-.07,2.12.79,2.75,2.76,2.62a3.06,3.06,0,0,0,2.88-2.55c1.62-5.26,1.46-10.36-1.41-15.2,2.35.36,3.94,2,5.78,3.3a17.89,17.89,0,0,1,3.63,6.53c1.21,6.74-1.31,12.46-4.94,17.84a7.9,7.9,0,0,0-1.29,6.27c1.38,8.23,2.39,16.52,3.55,24.79a5.36,5.36,0,0,1-2.49-.43c-9.42-3.66-18.87-7.23-28.27-10.94a119.58,119.58,0,0,1-17.23-8.46c-4.76-2.82-6.92-7.44-8.93-12.07-3.32-7.64-5.58-15.72-9.31-23.2-3-6.07-6.69-11.65-12.09-15.91a11.65,11.65,0,0,0-5.59-2,46,46,0,0,0-5.76-.24,4.36,4.36,0,0,1,3.08-1.68,17.94,17.94,0,0,1,13.51,3.18c1.37,1,2,2.88,3.93,3.14l8.53,13.22c1.16,2.22,1.6,4.83,3.67,6.53a2.79,2.79,0,0,0,1,3.24c.49,2.11,2,1.07,3.23,1.07a16,16,0,0,1,.31,2c0,1.06.47,1.58,1.55,1.54,4.25-.14,8.51.25,12.76-.23,1.24-.13,1.62-.66,2.07-1.71,1.35-3.21-.6-6.49-1.12-9.67-.55-3.34-.73-6.81-1.27-10.15-1.12-6.92-3.41-12.56-8.25-17.78-.54-.58-.16-1.64-.25-2.32,2.09-.37,3,1.8,4.75,2.2,2.38,3.36,5.12,6.48,6.56,10.43.18.48.48.56.88.33,1.59-.9,2.17.31,2.84,1.35-3.27.24-3.3.3-2.19,3.34.18.5.27,1,.46,1.54,1,2.61,1,5.51,2.31,8a17,17,0,0,0,.48,4.66c.37,1.79,1.3,3.45,1.3,5.36"/><path class="cls-6" d="M390.25,231.21c0-1.28-.68-2.5-.4-3.81l15.69,0c0,3.79,0,7.58.12,11.36,0,1.17-.28,1.68-1.55,1.62-1.61-.09-3.24,0-4.86,0-1.84-1.25-3.43-2.94-5.78-3.3l0,0c-.17-.44-.57-.54-1-.64a2.2,2.2,0,0,0-1.82-.89c0-.26-.09-.52-.13-.78A32.72,32.72,0,0,0,390.25,231.21Z"/><path class="cls-6" d="M42.56,227.43l14.53,0a21.4,21.4,0,0,1-8.19,10.92c-.95.65-1.52,1.75-2.69,2.07-3.88-.16-3.87-.16-3.77-4.24C42.5,233.29,42.52,230.36,42.56,227.43Z"/><path class="cls-6" d="M133.32,315.93c2.78.2-4.34-.72-1.16-.07,2.74.12,5.2-.37,6.81-2.9a6.27,6.27,0,0,0-.91-7.61c-.91-1-1.93-2-2.9-3a.54.54,0,0,1,.26-.16c1,0,2,.15,3,.15,11.18,0,22.36.09,33.54.09q50.56,0,101.12,0c.85,0,1.7-.11,2.54-.17h3.61a20.89,20.89,0,0,0,5.12.1,19.2,19.2,0,0,1,6,4.2A120.71,120.71,0,0,0,306.3,319.5a43.9,43.9,0,0,0,16,6.87,45.38,45.38,0,0,0,9.91.76c4.41-.12,8.45,1.72,12.76,2.22,3.27.38,6.42,1.86,9.69,2.19,2.11.22,3.46,1.51,5.17,2.25,4.29,1.87,8.48,4,12.85,5.66.22.09.3.51.45.77-8.07,0-16.14.1-24.22.1H65.45c-13.59,0-27.17-.07-40.76-.11,2.88-4.16,7-6.59,11.55-8.56,6.83-3,14.13-3.26,21.39-3.65s14.55-.6,21.82-.93m109.44,10.69v0c13,0,25.92,0,38.89,0a21,21,0,0,0,4.61-.5c3-.67,4.1-2.26,4-5.28-.19-7.69-.44-15.37-.59-23.05a3.89,3.89,0,0,0-2.84-4,11.65,11.65,0,0,0-3.87-.69q-37.85,0-75.67,0a11.9,11.9,0,0,0-5.36,1.36,3.49,3.49,0,0,0-2,2.44c-.42,2-.74,4-1.1,5.92-1,5.7-1.53,11.48-2.72,17.16-.74,3.52-.29,4.57,2,5.69a13.13,13.13,0,0,0,5.92,1Z"/><path class="cls-6" d="M127.87,227.51q22.92,0,45.85-.08,63.41,0,126.82,0c.85,0,1.7,0,2.56.06-.13,2.09-2,3.19-2.83,4.88-1.39,2.77-3,5.41-4.58,8.1q-22.35,0-44.7-.07-56.58,0-113.17,0c-.85-1-.93-2.26-1.47-3.37-1.72-3.49-3.54-6.87-7.48-8.36C128.6,228.23,127.92,228.14,127.87,227.51Zm102.68.88a5,5,0,0,0-5.35,5.38c0,3.26,2.2,5.72,5.1,5.71a5.55,5.55,0,1,0,.25-11.09Zm-53,11.08a5.65,5.65,0,0,0,5.63-5.6,5.59,5.59,0,0,0-5.49-5.49,5.55,5.55,0,1,0-.14,11.09Zm72-5.55a5.58,5.58,0,0,0-11.16,0,5.58,5.58,0,0,0,11.16,0Zm-40.07.1c.05-3.35-2.14-5.67-5.32-5.65a5.54,5.54,0,0,0-.23,11.07A5.18,5.18,0,0,0,209.44,234Zm53.24.09a5.46,5.46,0,1,0-10.92-.39,5.46,5.46,0,1,0,10.92.39Zm13.39,0a5.65,5.65,0,0,0-5.55-5.7,5.59,5.59,0,0,0-5.62,5.38,5.59,5.59,0,0,0,11.17.32Zm-79.7-.14a5.49,5.49,0,0,0-5.61-5.57,5.55,5.55,0,0,0,.23,11.1A5.45,5.45,0,0,0,196.37,233.94Zm26.55-.16a5.59,5.59,0,0,0-5.55-5.35,5.33,5.33,0,0,0-5.47,5.42c.16,3.2,2.12,5.56,5.4,5.65C220.17,239.59,222.78,236.8,222.92,233.78Z"/><path class="cls-7" d="M139.83,271.8c-5.54,0-12.67.19-18.2.18-.16-.53.3-.55.58-.73a4.91,4.91,0,0,0,1.71-.9c2.83-2,6.1-1.86,9.18-3.18a4.62,4.62,0,0,1,5.29,1"/><path class="cls-7" d="M152.27,263.56c-.32-2.06-2.65-3-3-5.51,2.63,0,6.34-.43,9-.35,1.28,0,2.87,0,2.69,2-.17,1.77-.21,3.66-2.84,3.64A24.94,24.94,0,0,0,152.27,263.56Z"/><path class="cls-11" d="M134.77,267.46c-1.52-.27-2.33.36-3.62.72-3.26.91-3.62.72-5.06,1.45-.28.17-4.22,2.2-4.22,2.2-1,.48-2.75,1.63-4,2.32a86.25,86.25,0,0,0-5.69,6.61,29.48,29.48,0,0,0-2.34,2.49,33.6,33.6,0,0,0-2.54,2.54c-2.2,1.7-3.68,4.72-5.62,6.66a12.81,12.81,0,0,0-2.71,2.93A2.51,2.51,0,0,0,97,298.14a32,32,0,0,1-16-7.29c-1-.89-.36-1.44.19-2.1A105.34,105.34,0,0,1,93.07,277a169,169,0,0,1,21.14-16.24,56.65,56.65,0,0,1,27.52-8.85c1.1-.06,2,1,3.1.63,1.63.43,2.08,1.71,3,2.59a10.49,10.49,0,0,1,2.17,2.89c.72,1.45,2,3.45,2.31,5.51.12.89,0,1.69.07,2.55,0,2,.5,4,.45,5.92a15.29,15.29,0,0,1-.11,2.94l-1.08,5.1c-.92,1.86-1.58,3.41-3.09,4,0,0-2.89,1.44-7.23-.73-1.75-.87-.72-10.85-2.89-14.47"/><path class="cls-6" d="M298.38,250.11c-11,0-22.05.07-33.08.07H144c-.7,0-1.4.06-2.1.09-.63-.74-1.12-.56-2.08-.9-1.14,0-2-.21-2.52-1.11l.9-1.31q30.72,0,61.44-.06,47.7,0,95.42,0C296.36,247.79,296.49,249.86,298.38,250.11Z"/><path class="cls-11" d="M138.21,247l-.9,1.31-10.66.09a2,2,0,0,0-.89-1.49,7.92,7.92,0,0,0-1.23-2.69c-.94-1.68-2.09-2.2-3.91-1.12-2.16,1.28-4.53,2.19-6.47,3.85-1.4,1-3.56,1.07-4,3.27-.94.19-2.06,0-2.46,1.28-.8.41-1.62.78-2.39,1.23-1,.58-1.13,1.19.05,1.72-1.19,2.68-3.85,1.57-5.83,2.18-.74.23-1-.76-1.06-1.5a10.51,10.51,0,0,1,1.55-6c3.63-6.46,9.13-11,15.37-14.79a56.73,56.73,0,0,1,13.44-5.61c3.94,1.49,5.76,4.87,7.48,8.36.54,1.11.62,2.41,1.47,3.37A32.67,32.67,0,0,1,138.21,247Z"/><path class="cls-11" d="M111.08,225.53c1.6,1.76,3.72.72,5.59,1-3.17,1.26-6.63,1.28-9.84,2.56-6.86,2.77-13.77,5.42-20.49,8.51-.83.38-1.72.66-2.92,1.11a5.28,5.28,0,0,1,2.09-3.18c3.06-2.34,5.74-5.13,9-7.29A19.53,19.53,0,0,1,104,225.1,18.59,18.59,0,0,1,111.08,225.53Z"/><path class="cls-11" d="M78.47,215.37a7.42,7.42,0,0,1,4.21.69,11.93,11.93,0,0,0,6.95,1.19c-2,1.48-4.58.82-6.8,2a96.57,96.57,0,0,0-13,7.6,6.6,6.6,0,0,1-1.06.49c2.1-5.57,6.48-8.49,11-11.33Z"/><path class="cls-7" d="M148.67,255.31c-1.76-.23-2.21-2.31-3.84-2.74l-.62-.94c5.56-.42,11.12-.15,16.68-.15.79,0,1.64.22,1.71,1.19a2,2,0,0,1-1.22,2.26,6.34,6.34,0,0,1-2.51.35Z"/><path class="cls-2" d="M138.21,247a32.67,32.67,0,0,0-.39-6.55q56.6,0,113.17,0,22.35,0,44.7.07a9.75,9.75,0,0,0-.62,6.45q-47.71,0-95.42,0Q168.93,246.89,138.21,247Z"/><path class="cls-6" d="M110.2,250.17c.39-2.2,2.55-2.28,4-3.27l11.61,0a2,2,0,0,1,.89,1.49c-3.06,1.17-6.37,1.14-9.49,2Z"/><path class="cls-7" d="M105.4,254.4c-1.18-.53-1-1.14-.05-1.72.77-.45,1.59-.82,2.39-1.23,1.44.08,2.91-.25,4.35.16C110.18,253.32,107.62,253.45,105.4,254.4Z"/><path class="cls-2" d="M112.09,251.61c-1.44-.41-2.91-.08-4.35-.16.4-1.24,1.52-1.09,2.46-1.28l7,.19Z"/><path class="cls-3" d="M132.16,315.86c-1.73.07-1,.79-6-.85C128.23,315,130.3,314.69,132.16,315.86Z"/><path class="cls-3" d="M98.94,295.38c0,1,0,1.93-.07,2.9L97,298.14A2.51,2.51,0,0,1,98.94,295.38Z"/><path class="cls-12" d="M133.19,302.28l.58,0Z"/><path class="cls-5" d="M0,292.14c15.19,14.47,18.2,26.75,18.29,33.92,0,2.29-13.95,12.61-18.29,16.22"/><path class="cls-2" d="M307.59,246.93a17.85,17.85,0,0,1,5.61-6.67c1.64.46,2.17.12,3.54.46.48,2,1.85,4.11,2.07,6.21Z"/><path class="cls-6" d="M307.59,246.93h11.22c.26,1.08,1.13,2,.91,3.19l-15.58,0c.77-.28,1.58-.44,1.79-1.47A2.28,2.28,0,0,1,307.59,246.93Z"/><path class="cls-7" d="M275.9,299.05c-2.33.05-4.65.13-7,.13H175.3c-3.66,0-4.82-1.9-3.25-5.31.56-1.22,1.67-1.23,2.78-1.23H271c.77,0,1.55.06,2.33.08A12.72,12.72,0,0,0,275.9,299.05Z"/><path class="cls-7" d="M321.13,290.19c-2.52-.71-5.09-.24-7.64-.36a4.2,4.2,0,0,1-3.89-5.24c.27-1,1.09-1,1.84-1,2.56-.05,5.12,0,7.68-.05,1,0,2.26.34,2.2-1.48-.05-1.66-1.2-1.32-2.14-1.32-8.84,0-17.69,0-26.53,0-3.33,0-4.54-1.29-4.45-4.62,0-1,.78-1.32,1.54-1.4a33,33,0,0,1,3.72-.12c8.53,0,17.07,0,25.6,0,.87,0,2.17.53,2.23-1.18s-1.22-1.27-2.13-1.29c-2.87,0-5.74,0-8.61,0a3.73,3.73,0,0,1-3.91-4.7c.23-1.25,1.2-1.26,2.15-1.26,3.18,0,6.36.08,9.54-.06,1.05-.05,3,1,2.92-1.36s-2-1.23-3-1.25c-6.13-.1-12.26,0-18.39,0-2.86,0-4-1.21-3.73-4,.14-1.65,1.53-1.6,2.63-1.62,3.8-.08,7.6,0,11.4-.06s7.58.41,11.34-.3q.07,13.08.16,26.15c0,1.08,0,2.16,0,3.24"/><path class="cls-7" d="M98.94,295.38a12.81,12.81,0,0,1,2.71-2.93c1.84.06,3.67.13,5.51.18,1.67.05,2.51.63,1.71,2.43-.59,1.31-.41,2.92-1.53,4-2.87.23-5.66-.4-8.47-.81C98.89,297.31,98.91,296.34,98.94,295.38Z"/><path class="cls-7" d="M320.85,255c-2.74.62-5.52.29-8.27.17a2.17,2.17,0,0,1-2.33-2.36c.09-1.6,1.52-1.4,2.48-1.43,2.39-.08,4.78.06,7.17.11A11.53,11.53,0,0,1,320.85,255Z"/><path class="cls-7" d="M107.3,286.47c.37-1.53,1.64-2.32,2.7-3.27,5.73.48,11.48,0,17.21.24,1.36.05,3.42-.79,3.5,1.76.1,3.35-.93,4.59-3.79,4.61-5.59,0-11.18,0-16.77,0C106.76,289.83,106.75,289.8,107.3,286.47Z"/><path class="cls-7" d="M140.92,283.25c2.53,1.27,5.61,2.07,8.25.64,2.37-.42,5.71,0,7.61,0a3.6,3.6,0,0,1,1.11,2.55c-.13,1.57-.54,3.31-2.56,3.33-6.68.08-13.35,0-20,0a1.27,1.27,0,0,1-1.18-.61c-.72-1.23,1.19-5.41,2.62-5.71"/><path class="cls-7" d="M174.14,289.83c-2.94,0-5.89,0-8.83,0-1.12,0-2.67.14-2.52-1.56s-.64-4.38,2-4.55a195,195,0,0,1,19.94-.07,1.39,1.39,0,0,1,1.4,1.74c-.43,4.12,0,4.46-4.3,4.46h-7.66Z"/><path class="cls-7" d="M153.16,299.29c-2.94,0-5.89,0-8.83,0-1.12,0-2.67.14-2.52-1.56s-.64-4.38,2-4.55a197.92,197.92,0,0,1,19.94-.07,1.4,1.4,0,0,1,1.4,1.74c-.43,4.12,0,4.46-4.3,4.46h-7.66Z"/><path class="cls-7" d="M124.22,299.29c-2.94,0-5.89,0-8.83,0-1.12,0-2.67.14-2.52-1.56s-.64-4.38,2-4.55a197.92,197.92,0,0,1,19.94-.07,1.4,1.4,0,0,1,1.4,1.74c-.43,4.12,0,4.46-4.3,4.46h-7.66Z"/><path class="cls-7" d="M257.89,289.81c-3,0-6,.05-9.07,0-2.42-.05-2.58-.55-2.68-4-.06-2.09,1.12-2.23,2.64-2.23,5.81,0,11.63,0,17.44,0,2.23,0,4.15,3.26,3.15,5.3-.43.89-1.29,1-2.18,1h-9.3Z"/><path class="cls-7" d="M202.19,289.82c-3,0-6.05,0-9.07,0-1.3,0-2.47-.1-2.48-1.95,0-3.4.29-4.25,2.46-4.29,5.12-.1,10.24-.05,15.35-.05.47,0,.93,0,1.4,0,3.83,0,4.74,1.22,3.78,4.94-.33,1.29-1.33,1.35-2.37,1.35h-9.07Z"/><path class="cls-7" d="M229.92,289.83c-2.95,0-5.9,0-8.85,0-1.87,0-2.67-.74-2.54-2.67.12-1.77-.33-3.7,2.51-3.66q9,.09,17.92,0c3,0,2.4,2.12,2.58,3.9.2,2-.95,2.41-2.54,2.42Z"/><path class="cls-7" d="M217.85,280.7H209c-1.36,0-2.54-.22-2.37-2s-.59-3.85,2.18-4.05c1.62-.12,3.26-.06,4.89-.07,4.27,0,8.53,0,12.8,0,2.52,0,2.77.56,2.91,3.38.11,2.26-1,2.82-2.95,2.77C223.59,280.65,220.72,280.7,217.85,280.7Z"/><path class="cls-7" d="M151.6,280.07l1.08-5.1c6.81-.8,13.64-.32,20.46-.34,1.31,0,1.88.69,1.78,2.11-.26,3.67-.47,3.94-4.12,4-5.44,0-10.87,0-16.31,0A4.59,4.59,0,0,1,151.6,280.07Z"/><path class="cls-7" d="M272.77,280.69c-3,0-6,0-9.08,0s-2.28-2.32-2.55-4c-.29-1.87,1-1.94,2.32-2,5.89-.22,11.79-.24,17.69,0,2.27.1,2.91,1.15,2.86,4.24,0,2.17-1.65,1.69-2.86,1.72C278.36,280.74,275.56,280.69,272.77,280.69Z"/><path class="cls-7" d="M245.31,280.66c-3,0-6.05,0-9.07,0-2.61,0-2.13-1.82-2.24-3.41s.45-2.61,2.32-2.6c5.67,0,11.33-.11,17-.07,2.82,0,4.24,2.41,3.22,5.12-.4,1.06-1.32,1-2.15,1-3,0-6,0-9.07,0Z"/><path class="cls-7" d="M190.51,280.69c-2.78,0-5.57,0-8.35,0-1.24,0-2.77.36-2.82-1.76-.09-3.34.28-4.15,2.77-4.22,5.18-.14,10.37-.07,15.55-.08.31,0,.61.05.92.06,3.44.17,4.21,1.29,3.34,4.67-.34,1.35-1.36,1.33-2.36,1.34C196.55,280.71,193.53,280.69,190.51,280.69Z"/><path class="cls-7" d="M183.68,272c-2.8,0-5.59,0-8.38,0-1.27,0-2.63-.13-2.38-2,.21-1.57-.41-3.81,2.19-3.86,6.11-.1,12.22-.05,18.33,0,1.38,0,1.88.94,1.7,2.22s.48,3.44-1.94,3.52c-3.17.11-6.35,0-9.52,0Z"/><path class="cls-7" d="M291,266.08c2.71,0,5.42,0,8.13,0a3.81,3.81,0,0,1,3.37,4.85c-.3.8-1.05.91-1.73.94-6,.27-12.07.31-18.11,0-2.2-.1-2.92-1.32-2.78-4.21.1-2,1.78-1.57,3-1.61,2.71-.08,5.42,0,8.14,0Z"/><path class="cls-7" d="M237.53,266.06c2.87,0,5.74,0,8.61,0,2.49,0,2.5,1.6,2.65,3.42s-.91,2.5-2.48,2.5c-5.9,0-11.79,0-17.69-.09-2.56,0-2-1.94-2.13-3.52-.11-1.79.86-2.3,2.42-2.29h8.62Z"/><path class="cls-7" d="M210.73,266.06c2.88,0,5.75,0,8.62,0,2.49,0,2.5,1.6,2.65,3.42s-.91,2.5-2.48,2.5c-5.9,0-11.79,0-17.69-.09-2.56,0-2-1.94-2.13-3.52-.11-1.79.86-2.3,2.42-2.29h8.61Z"/><path class="cls-7" d="M264.12,266.07c2.87,0,5.74-.05,8.6,0,2.22.05,2.95,1.19,2.95,4,0,2.14-1.6,1.82-2.78,1.84-5.51.09-11,.09-16.51.05a3.5,3.5,0,0,1-3.09-5c.45-1,1.38-.9,2.22-.91C258.38,266.05,261.25,266.06,264.12,266.07Z"/><path class="cls-7" d="M175.66,263.34c-2.71,0-5.42,0-8.12,0-1,0-2.43.28-2.42-1.38,0-1.48-.25-3.23,1.65-3.94a5.8,5.8,0,0,1,2-.33c5,0,10.06-.05,15.08,0,3.41,0,4.09,1.11,3,4.34a2,2,0,0,1-2.19,1.32h-9Z"/><path class="cls-7" d="M281.7,263.34c-2.86,0-5.72,0-8.58,0-2.68,0-2.53-1.91-2.71-3.7-.21-2.12,1.37-1.95,2.61-2,5.27-.05,10.54,0,15.81,0,1.61,0,3.09.29,3.49,2.3.54,2.72.1,3.34-2.71,3.36-2.64,0-5.27,0-7.91,0Z"/><path class="cls-7" d="M229,263.35c-2.86,0-5.72,0-8.58,0-1.36,0-2.65-.15-2.62-2.1,0-1.78.2-3.46,2.39-3.5,5.72-.1,11.44-.08,17.17,0,2.37,0,2.47,1.77,2.45,3.62s-1.33,2-2.68,2c-2.71,0-5.42,0-8.13,0Z"/><path class="cls-7" d="M202.22,263.35h-8.13c-1.3,0-2.6,0-2.55-1.86s-.2-3.63,2.31-3.77c1.85-.1,3.71-.05,5.57-.06,3.56,0,7.13,0,10.69,0,2.81.05,3.1.51,3.24,3s-1.31,2.73-3.23,2.68C207.49,263.3,204.85,263.35,202.22,263.35Z"/><path class="cls-7" d="M255.25,263.35c-2.86,0-5.72,0-8.58,0-2.15,0-2.43-1.25-2.52-3s.74-2.64,2.39-2.65c5.57,0,11.14-.08,16.7,0,2.31.05,2.91,1.13,2.77,3.87-.1,2.07-1.62,1.7-2.87,1.72C260.51,263.38,257.88,263.35,255.25,263.35Z"/><path class="cls-7" d="M140.28,280.71c-3.62,0-8.93.1-12.71.09-1.14,0-2.91.5-3-1.56-.12-3,1-4.61,3.24-4.66,2.86-.07,9.15.18,12,.11"/><path class="cls-7" d="M152.79,272c.05-2-.49-4-.45-5.92,4.42,0,9.43,0,13.85,0,1.24,0,2.48.08,2.24,1.82s.36,3.91-2.38,4c-4,.1-8.07.09-12.1.13Z"/><path class="cls-7" d="M271.79,251.32c2.09,0,4.17,0,6.26,0a23.37,23.37,0,0,1,2.76.24c1.15.16,1.43,1,1.54,2,.15,1.23-.79,1.4-1.61,1.52a19.9,19.9,0,0,1-3,.17c-4,0-8,0-12,0a8.42,8.42,0,0,1-2-.32c-1.28-.32-1.42-1.37-1.21-2.38s.85-1.27,1.89-1.23c2.47.1,4.94,0,7.41,0Z"/><path class="cls-7" d="M248.68,251.46c2.48,0,4.95,0,7.43,0,1.29,0,2.29.34,2.25,1.95s-1.05,1.8-2.19,1.81c-5,0-10.06.05-15.08,0-1.35,0-2.77-.29-2.63-2.16s1.6-1.6,2.8-1.62c2.47-.05,5,0,7.42,0Z"/><path class="cls-7" d="M224.65,251.47c2.57,0,5.13,0,7.69,0,1.08,0,2,.28,2.09,1.65a1.79,1.79,0,0,1-2,2c-5.27.05-10.55.08-15.83,0-1,0-2.16-.38-2.09-1.93s1.1-1.76,2.23-1.79c2.63-.06,5.27,0,7.91,0Z"/><path class="cls-7" d="M200.36,255.14c-2.63,0-5.26,0-7.9,0-.93,0-1.84-.18-1.81-1.55s.64-2,1.94-2.09c1.91-.06,3.83,0,5.74,0,3.18,0,6.36,0,9.54,0,1.28,0,2.62,0,2.55,1.86s-1.33,1.93-2.61,2c-2.48,0-5,0-7.45,0Z"/><path class="cls-7" d="M296.07,251.44h7.66c1.38,0,2.47.39,2.58,2,.11,1.79-1.34,1.75-2.41,1.77-4.87.08-9.74.06-14.61,0a4.78,4.78,0,0,1-2-.51,1.9,1.9,0,0,1-.93-2.19c.14-.89.91-1,1.59-1,2.71,0,5.41,0,8.12,0Z"/><path class="cls-7" d="M176.81,255.27c-3.05,0-5.45,0-7.84,0-1.14,0-2.22-.27-2.2-1.77s.88-2,2.25-2c5.17,0,10.35,0,15.53,0,.91,0,1.91.08,2,1.41a1.87,1.87,0,0,1-1.83,2.2C181.87,255.51,179,255.14,176.81,255.27Z"/><path class="cls-7" d="M274.72,289.61a3.79,3.79,0,0,1-.52-1c-.72-4.69-1.35-5.19,3.87-5.1,7.74.12,15.49,0,23.24,0a4,4,0,0,1,4.12,5.12c-.29,1.25-1.32,1.15-2.23,1.17-3.17.09-6.34.14-9.51.2-2.6-.85-5.16-1.87-7.81-2.49C281.91,286.6,278,286.34,274.72,289.61Z"/><path class="cls-7" d="M312,298.57c-.72-.73-.51-2-.7-3.2-.38-2.31-.11-2.64,2.27-2.76s5.06.42,7.55-.34c0,2.41,0,5-.12,7"/><path class="cls-7" d="M299.56,292.71c1,0,2-.07,3-.07,3.6,0,3.68,0,4.09,3.66C303.76,296.13,301.83,294.09,299.56,292.71Z"/><path class="cls-7" d="M112.15,280.76c1.47-2.57,3.64-4.54,5.69-6.61.83.88,3.19-.1,2.66,2.5-.74,3.63-1.06,4.14-4.2,4.18C114.92,280.85,113.54,280.79,112.15,280.76Z"/><path class="cls-6" d="M316.74,240.72a8.49,8.49,0,0,1-3.54-.46c-.06-1.36.78-1.69,1.91-1.59C316.56,238.81,316.88,239.41,316.74,240.72Z"/><path class="cls-9" d="M353.31,213a3.07,3.07,0,0,0,.72,1.88c4.85,5.21,7.15,11.57,8.27,18.49.54,3.34,1.5,6.61,2.05,10,.52,3.18,1.2,6.39-.15,9.6-.45,1-.83,1.58-2.07,1.71-4.25.48-8.51.09-12.76.23-1.08,0-1.53-.48-1.55-1.54a16,16,0,0,0-.31-2c0-.34.07-.68.1-1,0-1.12,0-2.23,0-3.35l.06-6.49c.49-4-.78-7.8-.92-11.72a1.47,1.47,0,0,0-.84-1.29c-.18-1.61-1.33-2-2.65-2-2.4,0-4.79,0-7.19.1-5.17.27-7.82-2.22-7.74-7.39.57-.17,1.52,0,1.54-.74.07-2.11,1.76-2.45,3.13-3.13a2.55,2.55,0,0,0,1.41-1.7c3.23-.64,6.38-1.7,9.7-1.86A14.2,14.2,0,0,1,353.31,213Z"/><path class="cls-9" d="M368.34,227.32c-.67-1-1.25-2.25-2.84-1.35-.4.23-.7.15-.88-.33-1.44-3.95-4.18-7.07-6.56-10.43a7.62,7.62,0,0,1,5-1.76c2.06,0,4.13,0,6.19,0,1.28.54,2.55,1.1,3.83,1.61,6.71,2.72,9.94,8,11.63,14.8,1.09,4.42-.73,8.45-.69,12.7,0,3.3-.62,6.61-.76,9.92-.07,1.79-.66,2.53-2.47,2.46-2.48-.1-5-.06-7.45,0A2,2,0,0,1,371,253c-.17-1-.12-2.08-.3-2.72h0c0-1.91-.93-3.57-1.3-5.36a17,17,0,0,1-.48-4.66c.36-.18.93.14,1.1-.56.6-2.45,1.3-4.88,1.86-7.34C372.5,229.61,372.71,227.74,368.34,227.32Z"/><path class="cls-6" d="M345.92,227.42a1.47,1.47,0,0,1,.84,1.29c.14,3.92,1.41,7.75.92,11.72l-8.1,0-8.53-13.22Z"/><path class="cls-3" d="M334.42,212.6a2.55,2.55,0,0,1-1.41,1.7c-1.37.68-3.06,1-3.13,3.13,0,.7-1,.57-1.54.74C328.83,214.63,331.59,213.58,334.42,212.6Z"/><path class="cls-9" d="M390.7,235.64a2.2,2.2,0,0,1,1.82.89,1,1,0,0,0,1,.64l0,0c2.87,4.84,3,9.94,1.41,15.2A3.06,3.06,0,0,1,392,254.9c-2,.13-2.83-.5-2.76-2.62C389.41,246.71,390.09,241.18,390.7,235.64Z"/><path class="cls-6" d="M368.34,227.32c4.37.42,4.16,2.29,3.54,5-.56,2.46-1.26,4.89-1.86,7.34-.17.7-.74.38-1.1.56-1.31-2.52-1.32-5.42-2.31-8-.19-.5-.28-1-.46-1.54C365,227.62,365.07,227.56,368.34,227.32Z"/><path class="cls-2" d="M339.58,240.45l8.1,0q0,3.25-.05,6.49l-4.38.06C341.18,245.28,340.74,242.67,339.58,240.45Z"/><path class="cls-6" d="M343.25,247l4.38-.06c0,1.12,0,2.23,0,3.35l-3.33-.05A2.79,2.79,0,0,1,343.25,247Z"/><path class="cls-2" d="M344.28,250.22l3.33.05c0,.34-.07.68-.1,1C346.31,251.29,344.77,252.33,344.28,250.22Z"/><path class="cls-3" d="M393.49,237.17a1,1,0,0,1-1-.64C392.92,236.63,393.32,236.73,393.49,237.17Z"/><path class="cls-5" d="M188.89,337.76H150.23a13.13,13.13,0,0,1-5.92-1c-2.29-1.12-2.74-2.17-2-5.69,1.19-5.68,1.7-11.46,2.72-17.16.36-2,.68-4,1.1-5.92a3.49,3.49,0,0,1,2-2.44,11.9,11.9,0,0,1,5.36-1.36q37.83,0,75.67,0a11.65,11.65,0,0,1,3.87.69,3.89,3.89,0,0,1,2.84,4c.15,7.68.4,15.36.59,23.05.07,3-1.08,4.61-4,5.28a21,21,0,0,1-4.61.5c-13,0-25.93,0-38.89,0Z"/><path class="cls-13" d="M76.77,37.46A2.73,2.73,0,0,1,73.94,40a3,3,0,0,1-3.21-3.17,2.83,2.83,0,0,1,3-2.87C75.5,33.89,76.78,35.23,76.77,37.46Z"/><path class="cls-14" d="M57.45,40.05a3,3,0,0,1-3.11-3,2.87,2.87,0,0,1,2.85-3.06,3.26,3.26,0,0,1,3.3,2.93A3.14,3.14,0,0,1,57.45,40.05Z"/><path class="cls-1" d="M62.66,36.64A2.6,2.6,0,0,1,65.49,34a2.64,2.64,0,0,1,2.91,2.86c.06,2-1.08,2.82-2.78,3C64.12,40.08,62.7,38.6,62.66,36.64Z"/><path class="cls-15" d="M230.55,228.39a5.55,5.55,0,1,1-.25,11.09c-2.9,0-5.1-2.45-5.1-5.71A5,5,0,0,1,230.55,228.39Z"/><path class="cls-15" d="M177.54,239.47a5.55,5.55,0,1,1,.14-11.09,5.59,5.59,0,0,1,5.49,5.49A5.65,5.65,0,0,1,177.54,239.47Z"/><path class="cls-15" d="M249.51,233.92a5.58,5.58,0,0,1-11.16,0,5.58,5.58,0,0,1,11.16,0Z"/><path class="cls-15" d="M209.44,234a5.18,5.18,0,0,1-5.55,5.42,5.54,5.54,0,0,1,.23-11.07C207.3,228.35,209.49,230.67,209.44,234Z"/><path class="cls-15" d="M262.68,234.11a5.46,5.46,0,1,1-5.38-5.74A5.39,5.39,0,0,1,262.68,234.11Z"/><path class="cls-15" d="M276.07,234.08a5.59,5.59,0,1,1-5.55-5.7A5.6,5.6,0,0,1,276.07,234.08Z"/><path class="cls-15" d="M196.37,233.94a5.48,5.48,0,1,1-11,0,5.37,5.37,0,0,1,5.35-5.54A5.49,5.49,0,0,1,196.37,233.94Z"/><path class="cls-15" d="M222.92,233.78c-.14,3-2.75,5.81-5.62,5.72-3.28-.09-5.24-2.45-5.4-5.65a5.33,5.33,0,0,1,5.47-5.42A5.59,5.59,0,0,1,222.92,233.78Z"/><path class="cls-2" d="M125.76,246.86l-11.61,0c1.94-1.66,4.31-2.57,6.47-3.85,1.82-1.08,3-.56,3.91,1.12A7.92,7.92,0,0,1,125.76,246.86Z"/><path class="cls-6" d="M383.45,177c-1.08,1.08-4.45,1.65-4.45,1.65H170.92s-3.32-.87-4.12-1.65-1.65-3.84-1.65-3.84V56a16.41,16.41,0,0,1,1.65-6.59c1.65-3.29,4.12-3.29,4.12-3.29H378.51a8.26,8.26,0,0,1,4.94,4.12A14.18,14.18,0,0,1,385.1,56V174.21A11.86,11.86,0,0,1,383.45,177Z"/><rect class="cls-5" x="166.94" y="55.95" width="215.82" height="119.39"/><path class="cls-13" d="M189.51,51.33a1.83,1.83,0,0,1-1.9,1.71,2,2,0,0,1-2.16-2.13,1.91,1.91,0,0,1,2-1.93C188.66,48.94,189.52,49.83,189.51,51.33Z"/><path class="cls-14" d="M176.53,53.07a2,2,0,0,1-2.09-2A1.92,1.92,0,0,1,176.35,49a2.19,2.19,0,0,1,2.22,2A2.1,2.1,0,0,1,176.53,53.07Z"/><path class="cls-1" d="M180,50.78a1.93,1.93,0,0,1,3.85.17A1.82,1.82,0,0,1,182,53,2,2,0,0,1,180,50.78Z"/><path class="cls-12" d="M209.75,129.37H180.46c-1.2,0-2.39,0-3.15-1.14a2.66,2.66,0,0,1,1.83-4.07,10.87,10.87,0,0,1,2-.08c15.12,0,30.23.09,45.35-.08,4.27-.05,8.54.43,12.81.1,1.89-.15,3.18.57,3.19,2.69,0,1.9-.91,2.57-3.47,2.57Z"/><path class="cls-12" d="M215.21,153.12h-29.5c-1.91,0-3.24-1.22-3.09-2.83a2.47,2.47,0,0,1,2.8-2.44c4,0,7.92-.12,11.88-.12q23.23,0,46.45,0a12.11,12.11,0,0,1,2.41.17,2.62,2.62,0,0,1,.07,5,9.93,9.93,0,0,1-2.18.18Z"/><path class="cls-12" d="M191.49,141.55c-3.74,0-7.48,0-11.21,0-2.32,0-3.56-1.09-3.41-2.81a2.37,2.37,0,0,1,2.57-2.42c7.77-.06,15.53-.14,23.29-.11,2.34,0,3.47,1.08,3.41,2.79s-1.2,2.53-3.66,2.55c-3.67,0-7.33,0-11,0Z"/><path class="cls-12" d="M191.5,117.39c-3.75,0-7.49,0-11.24,0-1.84,0-3.2-.64-3.37-2.65-.15-1.65,1.1-2.63,3.29-2.64,7.56,0,15.13,0,22.69,0,1.76,0,3.09.52,3.26,2.47.14,1.72-1.2,2.81-3.39,2.83C199,117.4,195.24,117.39,191.5,117.39Z"/><path class="cls-12" d="M191.26,105.19c-3.66,0-7.33,0-11,0-1.82,0-3.37-.49-3.41-2.54s1.57-2.66,3.34-2.67q11.43-.06,22.86,0c1.73,0,3.11.77,3.05,2.7s-1.46,2.54-3.2,2.54H191.26Z"/><path class="cls-16" d="M231.25,87.72c8.73,0,17.46,0,26.19,0,14.22,0,28.44.12,42.66.15,1.87,0,3.2.6,3.4,2.6.17,1.73-1.1,2.69-3.47,2.7H208.27c-.44,0-.88,0-1.32,0-1.65-.09-2.95-.71-2.95-2.57s1.23-2.7,3-2.7h24.22Z"/><path class="cls-16" d="M276.47,117.49H237.92c-1.58,0-3.42-1.37-3.3-2.63a2.81,2.81,0,0,1,3.07-2.77c5.34-.15,10.69,0,16,0,19.91.06,39.81,0,59.72,0a26.34,26.34,0,0,1,3.08.1,2.26,2.26,0,0,1,2.15,2.36,2.32,2.32,0,0,1-1.9,2.59,12,12,0,0,1-2.62.22q-18.84,0-37.68,0Z"/><path class="cls-16" d="M245.08,141.54h-29.5c-1.91,0-3.25-1.21-3.09-2.83a2.46,2.46,0,0,1,2.8-2.43c4,0,7.92-.12,11.88-.13q23.24,0,46.45,0a12,12,0,0,1,2.4.18,2.61,2.61,0,0,1,.08,5,9.93,9.93,0,0,1-2.18.18Q259.51,141.56,245.08,141.54Z"/><path class="cls-16" d="M234.29,100c5.37-.22,11.76-.07,18.13-.14s13,.16,19.47.28c1.7,0,3.1.57,3.3,2.49.16,1.53-1.25,2.6-3.36,2.6-7.18,0-14.37,0-21.55,0H216.89a20.13,20.13,0,0,1-2.2-.08,2.37,2.37,0,0,1-2.22-2.34,2.28,2.28,0,0,1,1.69-2.53,9.51,9.51,0,0,1,2.61-.29C222.27,99.93,227.78,100,234.29,100Z"/><path class="cls-16" d="M311.51,136.13h23.78a9.39,9.39,0,0,1,2.19.17,2.64,2.64,0,0,1,.2,5,6.76,6.76,0,0,1-2.6.27H295c-2.55,0-5.1,0-7.64,0-2.06-.06-3.26-1.23-3.1-2.88s1.51-2.4,3.47-2.39c7.93,0,15.86,0,23.79,0Z"/><path class="cls-16" d="M281.64,147.7h23.78a9.39,9.39,0,0,1,2.19.16,2.65,2.65,0,0,1,.21,5,7,7,0,0,1-2.61.26H265.12c-2.55,0-5.09,0-7.64,0-2.06-.05-3.26-1.23-3.1-2.87s1.51-2.41,3.47-2.4c7.93,0,15.86,0,23.79,0Z"/><path class="cls-16" d="M246.94,75.9c6.3,0,12.63.33,18.91-.11,4.32-.31,8.58.47,12.87.11,1.82-.16,3.28.41,3.31,2.56s-1.52,2.68-3.28,2.65c-3.43,0-6.87,0-10.27,0-13.11.16-26.21-.1-39.32,0-.51,0-1,0-1.53,0-1.77-.09-3-.81-3-2.78s1.34-2.58,3.13-2.56c4.18.05,8.36.06,12.54.07,2.2,0,4.4,0,6.6,0Z"/><path class="cls-1" d="M360.77,124.09h-48.1c-.32,0-.64,0-1,0H278.25a6.11,6.11,0,0,0-2.81.33,2.69,2.69,0,0,0-.63,4.4,3.42,3.42,0,0,0,2.51.55h36.12c4.19,0,8.37,0,12.55,0a1.11,1.11,0,0,0,.26,0h21.92c4.18,0,8.37,0,12.55,0,1.73,0,2.93-.68,3-2.48S362.59,124.15,360.77,124.09Z"/><path class="cls-16" d="M239.89,69c-8.07,0-16.15,0-24.22,0-2.79,0-3.91-1.86-2.67-4.21.26-.5.41-1,1.23-.91a13.15,13.15,0,0,0,1.73-.17l48,0c1.61,0,3.18.11,3.54,2.14.33,1.87-.77,3.1-2.95,3.12-5.06,0-10.13,0-15.19,0C246.2,69,243.05,69,239.89,69Z"/><path class="cls-16" d="M305.51,105.2H285.94a7.5,7.5,0,0,1-2-.13,2.5,2.5,0,0,1-.37-4.77,6.27,6.27,0,0,1,2.81-.35h38a14.56,14.56,0,0,1,1.75,0c1.62.21,2.91.93,2.8,2.75s-1.35,2.48-3.05,2.48Z"/><path class="cls-16" d="M309.28,81.16c-5.43,0-10.87,0-16.3,0-2.37,0-3.5-.91-3.5-2.71s1.19-2.66,3.52-2.67q16.31,0,32.6,0c2.35,0,3.79,1.44,3.36,3.27s-1.79,2.12-3.38,2.11C320.15,81.15,314.71,81.16,309.28,81.16Z"/><path class="cls-16" d="M319.41,68.87c-5.44,0-10.87,0-16.3,0-2.37,0-3.5-.91-3.5-2.71s1.18-2.66,3.52-2.67q16.31,0,32.6,0c2.35,0,3.79,1.44,3.36,3.28s-1.79,2.11-3.38,2.1C330.27,68.85,324.84,68.87,319.41,68.87Z"/><path class="cls-1" d="M196.86,81.15c-5.5,0-11,0-16.49,0-2.31,0-3.56-1-3.55-2.69s1.41-2.69,3.63-2.66q16.92.24,33.86,0a2.5,2.5,0,0,1,2.87,2.61c.08,2-1.17,2.74-3,2.75-5.79,0-11.58,0-17.37,0Z"/><path class="cls-16" d="M191.59,69c-3.74,0-7.47,0-11.21,0-2.32,0-3.62-1-3.51-2.66.13-2,1.55-2.64,3.36-2.64h22.62c1.87,0,3.16.71,3.29,2.72.1,1.54-1.26,2.57-3.35,2.58-3.74,0-7.47,0-11.2,0Z"/><path class="cls-16" d="M325,93.17c-3.59,0-7.18,0-10.77,0-1.83,0-3.06-.76-3.06-2.63s1.33-2.66,3.1-2.66q11,0,22,0c1.73,0,3.06.66,3.08,2.65s-1.46,2.57-3.12,2.59C332.44,93.21,328.7,93.17,325,93.17Z"/><path class="cls-17" d="M284.21,69c-2.34,0-4.69,0-7,0-1.76,0-3.1-.53-3.21-2.49s1.14-2.77,2.91-2.8c4.76-.08,9.52-.16,14.28-.12,2.24,0,3.44,1.2,3.28,3-.19,2.13-1.66,2.49-3.46,2.45C288.72,69,286.47,69,284.21,69Z"/><path class="cls-17" d="M346.43,81.34c-2.34,0-4.69,0-7,0-1.76,0-3.1-.53-3.21-2.49s1.14-2.77,2.91-2.8c4.76-.09,9.52-.16,14.28-.12,2.24,0,3.44,1.2,3.28,3-.19,2.13-1.66,2.49-3.46,2.45C350.94,81.3,348.69,81.34,346.43,81.34Z"/><path class="cls-1" d="M240.4,159.82c6.3,0,12.63.34,18.91-.11,4.32-.3,8.58.47,12.87.11,1.82-.15,3.28.42,3.31,2.56s-1.52,2.68-3.28,2.66c-3.43,0-6.87,0-10.27,0-13.11.16-26.21-.1-39.32.05-.51,0-1,0-1.53,0-1.77-.09-3-.82-3-2.78s1.34-2.58,3.13-2.56c4.18,0,8.36.05,12.54.07Z"/><path class="cls-16" d="M302.74,165.09c-5.43,0-10.87,0-16.3,0-2.37,0-3.5-.9-3.5-2.7s1.19-2.67,3.52-2.67q16.31,0,32.6,0c2.35,0,3.79,1.44,3.36,3.28s-1.79,2.11-3.38,2.11C313.61,165.08,308.17,165.09,302.74,165.09Z"/><path class="cls-1" d="M339.89,165.26c-2.34,0-4.69,0-7,0-1.76,0-3.1-.53-3.21-2.49s1.14-2.76,2.91-2.8c4.76-.08,9.52-.16,14.28-.12,2.24,0,3.44,1.2,3.28,3-.19,2.12-1.66,2.49-3.46,2.44C344.4,165.22,342.15,165.26,339.89,165.26Z"/><path class="cls-1" d="M187,93.18h-7c-1.77,0-3.09-.7-3.08-2.62s1.26-2.67,3.06-2.67c4.76,0,9.52,0,14.29,0,1.83,0,3,.82,3,2.66s-1.19,2.68-3,2.65C191.84,93.14,189.42,93.17,187,93.18Z"/><path class="cls-16" d="M258.07,129.36c-2.05,0-4.11,0-6.16,0a2.63,2.63,0,1,1-.17-5.26c4.33-.05,8.66-.07,13,0,1.66,0,2.84.82,2.8,2.69s-1.08,2.6-2.85,2.58c-2.2,0-4.4,0-6.6,0Z"/><path class="cls-12" d="M220.72,117.39c-1.75,0-3.5,0-5.25,0s-3.13-1.28-3-2.78a2.57,2.57,0,0,1,3-2.5c3.29,0,6.58.06,9.86,0,2,0,2.95.9,3,2.87s-1.09,2.45-2.81,2.38-3.21,0-4.82,0Z"/><path class="cls-6" d="M253.42,204.51c-.95,1-3.91,1.45-3.91,1.45H66.76s-2.92-.77-3.62-1.45-1.44-3.37-1.44-3.37v-103a14.47,14.47,0,0,1,1.44-5.79c1.45-2.89,3.62-2.89,3.62-2.89H249.08a7.26,7.26,0,0,1,4.34,3.61,12.51,12.51,0,0,1,1.45,5.07V202A10.14,10.14,0,0,1,253.42,204.51Z"/><rect class="cls-5" x="63.48" y="98.16" width="189.16" height="105.12"/><path class="cls-13" d="M83.88,94A1.84,1.84,0,0,1,82,95.73a2,2,0,0,1-2.16-2.13,1.9,1.9,0,0,1,2-1.93C83,91.62,83.89,92.52,83.88,94Z"/><path class="cls-14" d="M70.9,95.76a2,2,0,0,1-2.09-2.05,1.94,1.94,0,0,1,1.91-2.06,2.2,2.2,0,0,1,2.22,2A2.11,2.11,0,0,1,70.9,95.76Z"/><path class="cls-1" d="M74.4,93.47a1.93,1.93,0,0,1,3.85.17,1.81,1.81,0,0,1-1.86,2A2,2,0,0,1,74.4,93.47Z"/><path class="cls-16" d="M130,131.13c8.73,0,17.46,0,26.19,0,14.22,0,28.44.12,42.66.15,1.87,0,3.2.6,3.4,2.59.17,1.74-1.09,2.7-3.47,2.7q-17.61,0-35.22,0H107c-.44,0-.88,0-1.32,0-1.65-.09-3-.71-3-2.57s1.23-2.7,3-2.7H130Z"/><path class="cls-16" d="M175.18,160.9H136.63c-1.58,0-3.42-1.37-3.29-2.63a2.8,2.8,0,0,1,3.06-2.77c5.34-.15,10.69,0,16,0,19.91.06,39.81,0,59.72,0a28.73,28.73,0,0,1,3.08.11,2.25,2.25,0,0,1,2.15,2.36,2.32,2.32,0,0,1-1.9,2.59,12,12,0,0,1-2.62.22q-18.84,0-37.68,0Z"/><path class="cls-16" d="M143.79,185h-29.5c-1.91,0-3.24-1.21-3.09-2.83a2.46,2.46,0,0,1,2.8-2.43c4,0,7.92-.12,11.88-.13q23.24,0,46.45,0a12.06,12.06,0,0,1,2.41.18,2.62,2.62,0,0,1,.07,5,9.93,9.93,0,0,1-2.18.18Q158.22,185,143.79,185Z"/><path class="cls-16" d="M108.46,172.78H79.17c-1.2,0-2.39,0-3.15-1.14a2.66,2.66,0,0,1,1.84-4.07,10.76,10.76,0,0,1,2-.08c15.12,0,30.23.09,45.35-.08,4.28,0,8.54.43,12.81.1,1.9-.15,3.18.57,3.19,2.69,0,1.9-.91,2.57-3.47,2.57Z"/><path class="cls-16" d="M133,143.35c5.36-.21,11.75-.06,18.13-.14s13,.16,19.46.29c1.7,0,3.1.57,3.3,2.49.17,1.53-1.25,2.6-3.36,2.6q-10.77,0-21.55,0H115.6c-.74,0-1.47,0-2.2-.08a2.36,2.36,0,0,1-2.21-2.34,2.26,2.26,0,0,1,1.68-2.53,9.51,9.51,0,0,1,2.61-.29C121,143.34,126.49,143.35,133,143.35Z"/><path class="cls-1" d="M210.22,179.54H234a9.35,9.35,0,0,1,2.18.17,2.65,2.65,0,0,1,.21,5,6.83,6.83,0,0,1-2.61.27H193.7c-2.55,0-5.09,0-7.64,0-2.06-.06-3.26-1.23-3.1-2.88s1.51-2.41,3.47-2.4c7.93.05,15.86,0,23.79,0Z"/><path class="cls-16" d="M145.65,119.31c6.3,0,12.63.33,18.91-.11,4.33-.31,8.58.47,12.87.11,1.82-.16,3.28.41,3.31,2.56s-1.52,2.68-3.28,2.65c-3.42,0-6.86,0-10.27,0-13.11.17-26.21-.09-39.31,0-.52,0-1,0-1.54,0-1.77-.09-3-.82-3-2.78s1.34-2.58,3.13-2.56c4.18,0,8.36,0,12.54.07,2.2,0,4.4,0,6.6,0Z"/><path class="cls-16" d="M200,172.79H176a3.43,3.43,0,0,1-2.51-.55,2.69,2.69,0,0,1,.63-4.4,6.12,6.12,0,0,1,2.81-.33h46.69c.37,0,.74,0,1.1,0,1.82.06,3,.93,2.94,2.81s-1.25,2.49-3,2.48c-4.19,0-8.37,0-12.56,0Z"/><path class="cls-16" d="M138.6,112.44c-8.07,0-16.15,0-24.22,0-2.79,0-3.91-1.86-2.67-4.21.27-.5.41-1,1.23-.91a13.15,13.15,0,0,0,1.73-.17l48,0c1.6,0,3.17.11,3.53,2.14.33,1.87-.77,3.1-3,3.12-5.06,0-10.12,0-15.19,0C144.91,112.45,141.76,112.44,138.6,112.44Z"/><path class="cls-16" d="M204.22,148.61H184.65a7.53,7.53,0,0,1-2-.13,2.5,2.5,0,0,1-.37-4.77,6.27,6.27,0,0,1,2.81-.35h38a14.73,14.73,0,0,1,1.76,0c1.61.21,2.91.93,2.79,2.75s-1.35,2.48-3.05,2.48Z"/><path class="cls-16" d="M208,124.57c-5.43,0-10.87,0-16.3,0-2.36,0-3.49-.91-3.5-2.71s1.19-2.66,3.52-2.67q16.31,0,32.61,0c2.34,0,3.78,1.44,3.35,3.27s-1.79,2.12-3.38,2.11C218.86,124.56,213.42,124.57,208,124.57Z"/><path class="cls-16" d="M95.57,124.56c-5.5,0-11,0-16.49,0-2.3,0-3.56-1-3.55-2.69s1.41-2.69,3.63-2.66q16.92.24,33.86,0a2.5,2.5,0,0,1,2.87,2.61c.08,2-1.17,2.74-3,2.75-5.79,0-11.58,0-17.37,0Z"/><path class="cls-1" d="M90.2,185c-3.74,0-7.47,0-11.21,0-2.32,0-3.56-1.09-3.41-2.81a2.38,2.38,0,0,1,2.57-2.42c7.77-.06,15.53-.14,23.29-.11,2.35,0,3.47,1.08,3.41,2.79s-1.2,2.53-3.66,2.55c-3.66,0-7.33,0-11,0Z"/><path class="cls-1" d="M90.3,112.44c-3.74,0-7.47,0-11.2,0-2.33,0-3.63-1-3.52-2.66.13-2,1.55-2.64,3.36-2.64q11.31,0,22.62,0c1.87,0,3.16.72,3.29,2.73.1,1.54-1.26,2.57-3.35,2.58-3.74,0-7.47,0-11.2,0Z"/><path class="cls-17" d="M90.21,160.8c-3.74,0-7.49,0-11.24,0-1.84,0-3.2-.64-3.37-2.65-.15-1.65,1.11-2.63,3.29-2.64,7.56,0,15.13,0,22.69,0,1.76,0,3.09.52,3.26,2.47.14,1.72-1.2,2.81-3.39,2.83C97.7,160.81,94,160.8,90.21,160.8Z"/><path class="cls-16" d="M90,148.6c-3.66,0-7.33,0-11,0-1.82,0-3.37-.49-3.4-2.54s1.57-2.66,3.33-2.67q11.43-.06,22.86,0c1.73,0,3.11.77,3,2.7s-1.46,2.54-3.2,2.54H90Z"/><path class="cls-16" d="M223.67,136.58c-3.59,0-7.18,0-10.77,0-1.83,0-3.06-.76-3.06-2.64s1.33-2.65,3.1-2.65q11,0,22,0c1.72,0,3,.66,3.07,2.65s-1.45,2.57-3.11,2.59C231.15,136.62,227.41,136.58,223.67,136.58Z"/><path class="cls-17" d="M182.92,112.45c-2.34,0-4.69,0-7,0-1.76,0-3.1-.53-3.21-2.49s1.14-2.77,2.91-2.8c4.76-.09,9.52-.16,14.28-.12,2.24,0,3.44,1.2,3.28,3-.19,2.13-1.66,2.49-3.46,2.45C187.43,112.41,185.18,112.45,182.92,112.45Z"/><path class="cls-16" d="M85.72,136.59h-7c-1.77,0-3.09-.7-3.07-2.62s1.25-2.67,3-2.67c4.77,0,9.53,0,14.29,0,1.83,0,3,.82,3,2.66s-1.19,2.68-3,2.65C90.55,136.55,88.13,136.58,85.72,136.59Z"/><path class="cls-16" d="M156.78,172.77c-2.05,0-4.11,0-6.16,0a2.63,2.63,0,1,1-.17-5.25c4.33-.05,8.66-.07,13,0,1.66,0,2.84.82,2.8,2.69s-1.08,2.6-2.85,2.58c-2.2,0-4.4,0-6.6,0Z"/><path class="cls-1" d="M119.44,160.8c-1.76,0-3.51,0-5.26,0s-3.13-1.28-3-2.78a2.57,2.57,0,0,1,3-2.5c3.29,0,6.58.06,9.86,0,2,0,2.95.9,3,2.87s-1.09,2.45-2.81,2.38-3.21,0-4.81,0Z"/></g></g></g></svg>