<svg xmlns="http://www.w3.org/2000/svg" xmlns:xlink="http://www.w3.org/1999/xlink" viewBox="0 0 1919.05 355.42"><defs><style>.cls-1{isolation:isolate;}.cls-2{fill:url(#linear-gradient);}.cls-3{fill:url(#linear-gradient-2);}.cls-4{fill:url(#linear-gradient-3);}.cls-5{fill:#fff;opacity:0.2;mix-blend-mode:overlay;}.cls-6{fill:url(#linear-gradient-4);}</style><linearGradient id="linear-gradient" x1="1162.87" y1="177.71" x2="1919.05" y2="177.71" gradientUnits="userSpaceOnUse"><stop offset="0" stop-color="#bad3dd"/><stop offset="1" stop-color="#b0bec5"/></linearGradient><linearGradient id="linear-gradient-2" y1="184.31" x2="696.73" y2="184.31" gradientUnits="userSpaceOnUse"><stop offset="0.59" stop-color="#78909c"/><stop offset="1" stop-color="#9bb8c4"/></linearGradient><linearGradient id="linear-gradient-3" x1="637.4" y1="281.22" x2="1249.31" y2="281.22" gradientUnits="userSpaceOnUse"><stop offset="0" stop-color="#78909c"/><stop offset="1" stop-color="#78909c"/></linearGradient><linearGradient id="linear-gradient-4" x1="1196.98" y1="206.92" x2="1919.05" y2="206.92" gradientUnits="userSpaceOnUse"><stop offset="0.37" stop-color="#78909c"/><stop offset="1" stop-color="#c9c9c9"/></linearGradient></defs><g class="cls-1"><g id="Layer_2" data-name="Layer 2"><g id="Layer_1-2" data-name="Layer 1"><g id="back-mountains"><polygon class="cls-2" points="1882 47.98 1873.76 75.39 1873.76 84.99 1850.43 120.63 1850.43 148.04 1833.28 159.69 1825.73 176.14 1810.63 183.88 1800.34 217.26 1794.85 223.43 1771.52 176.14 1756.42 189.16 1739.27 191.22 1719.37 183.88 1688.49 200.13 1650.06 191.22 1610.95 183.88 1599.29 193.96 1550.57 149.41 1521.74 161.75 1521.74 174.77 1508.02 212.47 1466.85 246.05 1427.05 259.76 1339.22 305.68 1286.38 305.68 1243.84 342.23 1191.23 352.28 1162.87 355.42 1919.05 355.42 1919.05 0 1882 47.98"/><polygon class="cls-3" points="667.16 326.94 657.66 291.39 628.09 272.32 628.09 246.38 614.36 254.79 614.36 203.32 603.79 230.68 603.79 291.39 544.65 291.39 536.2 272.32 524.59 263.19 514.02 247.78 449.6 247.78 410.88 199.67 385.18 178.61 363 132.71 314.42 86.66 300.69 49.35 282.73 27.41 282.73 13.2 261.61 26.04 248.94 160.99 240.49 132.71 226.76 132.06 214.08 91.84 197.6 79.99 178.39 61.98 178.32 37.03 158.5 75.39 144.32 75.39 144.32 84.99 126.37 120.63 126.37 148.04 113.17 159.69 107.36 176.14 95.74 183.88 87.82 217.26 83.6 223.43 65.64 176.14 54.03 189.16 40.83 191.22 25.51 183.88 1.75 200.13 0 355.42 175.01 355.42 179.18 355.42 696.73 355.42 667.16 326.94"/><polygon class="cls-4" points="637.4 319.39 642.96 315.22 642.96 319.39 642.96 322.36 648.51 322.36 657.64 327.11 677.48 315.22 684.22 315.22 688.59 321.17 700.88 321.17 711.99 289.07 716.75 289.07 722.31 264.5 729.65 264.01 733.81 209.42 736.79 209.42 739.76 273.62 744.53 275.2 744.53 292.24 755.63 294.62 763.57 313.64 770.31 314.04 770.31 287.88 782.61 262.52 782.61 255.78 794.52 256.28 794.52 259.35 802.05 268.27 809.2 304.13 812.77 305.71 812.77 312.45 817.53 317.6 817.53 323.15 830.62 346.13 834.98 346.13 879.02 352.87 902.03 355.42 820.82 355.42 823.6 341.77 836.69 337.81 840.66 328.3 846.22 325.53 852.56 299.37 856.93 288.28 860.1 282.42 863.67 277.98 871.21 278.37 871.21 267.27 877.56 258.56 877.56 266.48 885.1 266.48 885.1 209.42 890.25 207.02 890.95 233.29 892.24 233.99 892.24 253.41 896.21 254.59 896.21 296.2 902.16 298.98 902.16 312.05 905.73 312.85 905.73 322.75 910.88 324.34 916.84 337.81 944.21 351.68 950.57 355.42 961.67 351.68 970.01 343.36 972.78 342.57 972.78 333.85 975.56 328.7 975.56 318.79 981.51 307.3 986.67 316.81 990.64 314.04 998.57 311.66 998.57 296.2 1017.62 281.03 1020.79 288.67 1025.15 286.69 1029.91 298.19 1042.21 300.96 1042.21 315.22 1046.18 316.81 1048.96 325.13 1058.48 328.3 1069.99 346.53 1075.14 348.91 1075.14 335.43 1081.89 330.28 1087.44 309.68 1094.58 304.92 1097.36 290.66 1102.92 275.99 1102.92 313.64 1108.47 317.6 1111.64 333.85 1116.4 335.43 1116.4 246.27 1116.4 242.31 1122.75 224.87 1129.5 219.33 1129.5 233.99 1133.46 233.99 1138.62 258.56 1152.31 281.03 1152.31 288.08 1152.31 302.35 1158.26 308.88 1169.57 321.37 1169.57 336.23 1185.04 336.23 1191.59 348.71 1199.92 348.71 1215.99 340.39 1221.35 323.74 1221.35 305.91 1225.51 300.56 1225.51 291.65 1229.68 290.46 1233.25 281.03 1233.25 247.66 1244.55 221.51 1249.31 355.42 642.16 355.42 637.4 319.39"/><polygon class="cls-5" points="591.98 292.88 605.7 297.45 613.93 292.88 604.78 286.49 591.98 292.88"/><polygon class="cls-5" points="733.79 255.42 726.47 255.42 719.15 259.53 742.02 257.24 733.79 255.42"/><polygon class="cls-5" points="742.02 280.09 733.79 283.75 706.34 286.49 736.99 286.49 753.92 283.75 742.02 280.09"/><polygon class="cls-5" points="767.64 314.82 730.13 331.72 662.42 331.72 745.22 338.57 802.84 332.65 767.64 314.82"/><polygon class="cls-5" points="555.69 323.03 572.3 323.03 606.61 323.03 623.08 323.03 582.83 314.82 555.69 323.03"/><polygon class="cls-5" points="241.28 276.44 292.06 291.97 335.97 284.2 269.64 276.44 241.28 276.44"/><polygon class="cls-5" points="295.26 202.41 316.76 214.52 350.38 211.1 322.82 208.47 325.68 205.96 306.24 202.41 295.26 202.41"/><polygon class="cls-5" points="359.3 166.78 350.38 168.94 335.97 171.34 370.28 170.43 359.3 166.78"/><polygon class="cls-5" points="319.05 145.76 329.11 149.07 342.49 147.41 335.97 144.61 319.05 145.76"/><polygon class="cls-5" points="370.28 209.72 356.21 211.61 370.28 214.52 395.9 215.21 370.28 209.72"/><polygon class="cls-5" points="414.2 259.07 405.74 264.1 434.33 265.93 438.44 262.5 429.75 259.99 414.2 259.07"/><polygon class="cls-5" points="519.41 237.14 485.56 247.78 519.41 247.78 515.3 244.68 527.65 240.79 519.41 237.14"/><polygon class="cls-5" points="527.65 256.33 513.7 263.87 538.63 268.21 527.65 256.33"/><polygon class="cls-5" points="568.82 334.01 445.99 338.57 543.66 338.57 538.63 344.06 649.05 344.74 578.88 334.01 568.82 334.01"/><polygon class="cls-5" points="367.54 314.82 389.5 314.82 384.01 318.92 422.09 323.03 330.77 325.21 367.54 314.82"/><polygon class="cls-6" points="1905.95 347.94 1883.2 350.73 1867.77 347.94 1807.92 320.18 1794.9 293.22 1783.63 290.04 1783.63 270.22 1775.82 268.63 1775.82 242.46 1762.81 236.91 1762.81 153.63 1754.14 151.25 1754.14 112.39 1751.32 110.99 1749.8 58.41 1738.52 63.22 1738.52 177.43 1722.04 177.43 1722.04 161.56 1708.16 179.01 1708.16 201.22 1691.68 200.43 1683.87 209.32 1676.93 221.04 1667.39 243.25 1653.51 295.6 1641.37 301.15 1632.7 320.18 1612.53 325.77 1590.79 290.84 1590.79 279.73 1580.38 269.42 1580.38 255.94 1572.58 252.77 1556.96 180.99 1540.48 163.15 1540.48 157 1514.46 156.01 1514.46 169.5 1487.57 220.25 1487.57 272.6 1472.82 271.8 1455.47 233.74 1431.19 228.98 1431.19 194.87 1420.78 191.7 1414.27 63.22 1407.77 63.22 1398.66 172.47 1382.61 173.46 1370.47 222.63 1360.06 222.63 1335.77 286.87 1308.88 286.87 1299.34 274.98 1284.59 274.98 1241.22 298.77 1221.27 289.25 1209.12 289.25 1209.12 283.3 1209.12 274.98 1196.98 283.3 1207.38 355.42 1598 355.42 1775.54 355.42 1919.05 355.42 1905.95 347.94"/><polygon class="cls-5" points="1639.35 276.44 1690.12 291.97 1734.04 284.2 1667.71 276.44 1639.35 276.44"/><polygon class="cls-5" points="1693.33 202.41 1714.83 214.52 1748.45 211.1 1720.89 208.47 1723.75 205.96 1704.31 202.41 1693.33 202.41"/><polygon class="cls-5" points="1757.37 166.78 1748.45 168.94 1734.04 171.34 1768.35 170.43 1757.37 166.78"/><polygon class="cls-5" points="1717.11 145.76 1727.18 149.07 1740.56 147.41 1734.04 144.61 1717.11 145.76"/><polygon class="cls-5" points="1768.35 209.72 1754.28 211.61 1768.35 214.52 1793.97 215.21 1768.35 209.72"/><polygon class="cls-5" points="1812.27 259.07 1803.8 264.1 1832.39 265.93 1836.51 262.5 1827.82 259.99 1812.27 259.07"/><polygon class="cls-5" points="1856.18 125.65 1868.53 134.68 1883.63 133.88 1883.63 126.79 1856.18 125.65"/><polygon class="cls-5" points="1856.18 141.19 1860.3 149.07 1848.63 180.94 1854.47 178.54 1836.51 199.79 1827.82 199.67 1856.18 141.19"/><polygon class="cls-5" points="1765.61 314.82 1787.56 314.82 1782.07 318.92 1820.16 323.03 1728.84 325.21 1765.61 314.82"/><polygon class="cls-5" points="981.75 338.57 1049.91 335.15 1028.81 341.66 981.75 338.57"/><polygon class="cls-5" points="1132.71 309.33 1163.81 305.68 1153.52 302.71 1166.79 299.74 1148.26 297.45 1132.71 309.33"/><polygon class="cls-5" points="1310.66 233.03 1329.87 265.47 1333.08 266.38 1350.46 276.89 1310.66 233.03"/><polygon class="cls-5" points="1238.84 276.44 1305.86 276.89 1280.24 286.49 1260.99 285.57 1238.84 276.44"/><polygon class="cls-5" points="1216.88 305.68 1227.86 309.33 1268.44 318.92 1227.86 314.82 1216.88 305.68"/><polygon class="cls-5" points="1350.46 311.16 1316.15 318.92 1374.47 323.03 1386.14 311.16 1350.46 311.16"/><polygon class="cls-5" points="1469.86 241.25 1498.68 249.93 1511.03 241.25 1479.46 228.91 1469.86 241.25"/><polygon class="cls-5" points="1469.86 282.38 1490.44 323.03 1480.15 318.92 1457.51 320.76 1469.86 282.38"/><polygon class="cls-5" points="1489.07 205.61 1479.46 208.35 1498.68 211.44 1521.32 211.44 1489.07 205.61"/><polygon class="cls-5" points="1238.84 215.66 1268.44 211.44 1284.58 215.66 1238.84 215.66"/><polygon class="cls-5" points="890.25 327.61 917.87 335.15 928.68 331.38 896.66 325.78 890.25 327.61"/></g></g></g></g></svg>