<svg xmlns="http://www.w3.org/2000/svg" viewBox="0 0 1919.05 65.95"><defs><style>.cls-1{isolation:isolate;}.cls-2{fill:#455b64;}.cls-3,.cls-6,.cls-7{fill:#e9e9a8;}.cls-3{opacity:0.51;}.cls-3,.cls-5{mix-blend-mode:soft-light;}.cls-4{fill:#610051;opacity:0.5;mix-blend-mode:multiply;}.cls-7{opacity:0.15;}</style></defs><g class="cls-1"><g id="Layer_2" data-name="Layer 2"><g id="Layer_1-2" data-name="Layer 1"><g id="bottom-main-rock"><polygon class="cls-2" points="1414.7 3.95 1324.35 43.04 1285.92 44.38 1235.05 30.9 1217.23 13.38 1126.73 0 864.94 28.21 823.89 30.9 675.1 27.59 525.37 36.69 484.91 36.69 437.56 22.67 390.21 7.43 337.2 12.75 297.45 29.56 81.33 49.77 0 46.58 0 65.95 1919.05 65.95 1414.7 3.95"/><polyline id="bottom" class="cls-2" points="525.37 36.69 484.91 36.69 437.56 22.67"/><polygon class="cls-3" points="1075.88 5.48 1091.05 7.99 1162.86 18.77 1142.74 13.1 1217.23 13.38 1126.73 0 1075.88 5.48"/><polyline class="cls-3" points="1324.35 58.31 1365.52 44.61 1324.35 43.04 1285.92 44.38 1235.05 30.91 1223.11 34.5"/><polygon class="cls-3" points="484.91 36.69 470.4 43.48 525.37 40.79 519.22 43.48 583.7 52.02 586.68 44.36 636.49 36.69 675.1 27.59 540.23 35.79 484.91 36.69"/><polygon class="cls-3" points="337.2 12.75 352.28 21.47 402.84 21.47 394.68 17.11 390.21 7.43 337.2 12.75"/><polygon class="cls-3" points="297.45 29.56 202.19 55.62 202.19 52.02 141.19 55.62 124.28 52.02 81.33 49.77 297.45 29.56"/><polygon class="cls-4" points="1324.35 58.31 1321.4 65.95 1217.59 65.95 1223.11 34.5 1324.35 58.31"/><polygon class="cls-4" points="352.28 21.47 334.23 50.22 322.58 48.43 295 65.95 297.45 29.56 337.2 12.75 352.28 21.47"/><g class="cls-5"><path class="cls-6" d="M1407.39,43.12a14,14,0,0,0,.22-6.43,2.63,2.63,0,0,0-.36-1,2.08,2.08,0,0,0-1.85-.68,4.2,4.2,0,0,0-3.6,3,5.07,5.07,0,0,0,1.12,4.63,3.52,3.52,0,0,0,2.33,1.32,2,2,0,0,0,2.1-1.39.44.44,0,0,0-.71.13Z"/><path class="cls-6" d="M1120.39,54.65a3.63,3.63,0,0,0-1.15-3.37,3.89,3.89,0,0,0-2.62,2.47,2.34,2.34,0,0,0,1.64,2.88c1.24.22,2.48-1.31,1.78-2.34Z"/><path class="cls-6" d="M1116.66,43.5a4.38,4.38,0,0,0-.53-1.14.29.29,0,0,0-.11-.11.23.23,0,0,0-.16,0c-.39.21-.44.89-.88.91-.08,0-.17,0-.23,0s0,.25,0,.34a1.18,1.18,0,0,0,1.78-.21l0,.19Z"/><path class="cls-6" d="M1426.9,33.83a7.77,7.77,0,0,0-1-2.15.5.5,0,0,0-.21-.2.4.4,0,0,0-.3.05c-.72.4-.82,1.68-1.65,1.72-.16,0-.32,0-.44,0s-.08.47.09.65a2.21,2.21,0,0,0,3.35-.41l.06.36Z"/><path class="cls-6" d="M1448.63,28.6a7.8,7.8,0,0,0-1-2.15.43.43,0,0,0-.2-.2.4.4,0,0,0-.3.05c-.73.41-.83,1.69-1.66,1.72-.15,0-.32,0-.44.06s-.08.46.1.64a2.22,2.22,0,0,0,3.35-.4l.06.35Z"/><path class="cls-6" d="M1119.1,36.42a.84.84,0,1,0-1-1,.65.65,0,0,0,0,.73c.23.27.66.21,1,.13l-.15.25Z"/><path class="cls-6" d="M1115.21,34.77a.72.72,0,0,0-.24-.41.8.8,0,0,0-.46-.09,7.94,7.94,0,0,1-1.29-.13l1.37,1.65a.75.75,0,0,1,.09.15c0,.19-.16.34-.22.53s.18.53.43.67C1116.73,38.12,1115.47,35.61,1115.21,34.77Z"/><path class="cls-6" d="M1094.58,27.18a.8.8,0,0,0-.24-.42,1,1,0,0,0-.46-.09,7.07,7.07,0,0,1-1.3-.12L1094,28.2a.34.34,0,0,1,.09.15c.06.19-.16.34-.22.53s.18.53.44.67C1096.09,30.53,1094.84,28,1094.58,27.18Z"/><path class="cls-6" d="M1121.16,22.29l-.37-.5a1,1,0,0,0-.36,1.11c.17.38.81.5,1,.14s.24-.63.47-.5Z"/><path class="cls-6" d="M1408.6,22.66a.92.92,0,0,1-1.31.69.89.89,0,0,1,0-1.46.92.92,0,0,1,1.31.69Z"/><path class="cls-6" d="M1416.16,28.81c.38.29.79.75.55,1.16s-.81.3-1.24.16c-.18-.06-.4-.15-.44-.34-.1-.46.86-.53.86-1,.12-.07.27.13.16.21Z"/><path class="cls-6" d="M1127.17,60.79a2.19,2.19,0,0,0-1.11-1.65c-.63-.28-1.55.1-1.58.78a.82.82,0,0,0,.18.56,1.48,1.48,0,0,0,.26.24,1.94,1.94,0,0,0,1.31.45.91.91,0,0,0,.82-.94Z"/><path class="cls-6" d="M1420.48,60.15a1,1,0,0,0-.56.25,2.48,2.48,0,0,0-.24.55c-.21.43-.73.62-1,1-.54.63-.29,1.58,0,2.36.06.18.15.39.34.43a.75.75,0,0,0,.41-.09c.94-.36,1.54.53,2.41.42a2.54,2.54,0,1,0-1.3-4.9Z"/><path class="cls-6" d="M1119.49,43.41a.81.81,0,0,1,.25.45,1.48,1.48,0,0,1-1.1-.7c-.16-.2-.32-.47-.19-.68s.29-.2.43-.31.41-.7.76-.66a.44.44,0,0,1,.35.42,1.3,1.3,0,0,1-.17.57c-.18.39-.37.78-.56,1.17Z"/><path class="cls-6" d="M1114.6,48.23c0-.36-.62-.42-.83-.12a1.32,1.32,0,0,0-.06,1,1.29,1.29,0,0,0,1.11-.9Z"/><path class="cls-6" d="M1113.49,43a1.41,1.41,0,0,0-.2-.49.46.46,0,0,0-.47-.18c-.29.09-.32.47-.54.68s-.59.23-.72.49.13.58.42.63a1.32,1.32,0,0,0,.83-.22,1.52,1.52,0,0,0,.59-.5.56.56,0,0,0-.1-.7Z"/><path class="cls-6" d="M1112.7,40.73a.34.34,0,0,1-.39.24.58.58,0,0,1-.4-.3.67.67,0,0,1-.1-.28.43.43,0,0,1,.45-.42.46.46,0,0,1,.41.48.5.5,0,0,1-.46.44Z"/><path class="cls-6" d="M1088.29,45.41a.33.33,0,0,1-.39.25.64.64,0,0,1-.4-.3.5.5,0,0,1-.1-.28.44.44,0,0,1,.45-.43.47.47,0,0,1,.41.48.5.5,0,0,1-.47.44Z"/><path class="cls-6" d="M1114.86,39.88a.5.5,0,0,0,.26-.83.88.88,0,0,0-.5.25.43.43,0,0,0-.06.52.29.29,0,0,0,.48,0Z"/><path class="cls-6" d="M1409.26,14.38a.5.5,0,0,0,.25-.83.88.88,0,0,0-.5.25.41.41,0,0,0,0,.52.29.29,0,0,0,.47,0Z"/><path class="cls-6" d="M1122.82,37.66a1.43,1.43,0,0,0,0-1.26l-.94.54a1,1,0,0,0-.39.31.57.57,0,0,0,.36.78.82.82,0,0,0,.87-.34Z"/><path class="cls-6" d="M1411.57,34.92l1.11,1.6c-.17.28-.61.08-.86-.14a1.66,1.66,0,0,1-.59-.78.58.58,0,0,1,.46-.74Z"/><path class="cls-6" d="M1416.76,43.41a.68.68,0,0,0-.35-1.1,1,1,0,0,0-1.13.66.76.76,0,0,0,0,.59.74.74,0,0,0,.83.32,2.4,2.4,0,0,0,.82-.47Z"/><path class="cls-6" d="M1414.2,26.84a1.09,1.09,0,0,0,.25-1.21,1.33,1.33,0,0,0-.86.38.87.87,0,0,0-.15,1.13c.27.32,1,.17.94-.25Z"/><path class="cls-6" d="M1413,31.16a.66.66,0,0,1-.54.63l-.56-.81a.77.77,0,0,1,1.18-.06Z"/><path class="cls-6" d="M1408.88,48.13l-.92,1.24a.88.88,0,0,0-.2.38,1,1,0,0,0,.09.44c.21.51.56,1.11,1.12,1.08s.83-.77,1.1-1.3c.48-1,3.1-2.64,2.12-3.94S1409.45,47.37,1408.88,48.13Z"/><path class="cls-6" d="M1414.05,41.11l.29.27a2,2,0,0,1-.88.25.72.72,0,0,1-.71-.46c-.08-.29.22-.64.51-.54a1.55,1.55,0,0,1,.75.51Z"/><path class="cls-6" d="M1111,45.51a.67.67,0,0,1-.48.52.7.7,0,0,1-.69-.24c-.1-.13-.13-.37,0-.45a.37.37,0,0,1,.21,0l1,.07,0,.16Z"/><path class="cls-6" d="M1106.14,46.93c-.3-.12-.6.13-.81.37s-.46.51-.78.47a.27.27,0,0,1-.21-.13c-.1-.19.16-.37.29-.55a2.06,2.06,0,0,0,.21-.48,1.07,1.07,0,0,1,1-.61.58.58,0,0,1,.28.57.59.59,0,0,1-.42.48Z"/><path class="cls-6" d="M1105.29,43.91l-.15-.33a.44.44,0,0,0-.45.31.37.37,0,0,0,.3.44.33.33,0,0,0,.33-.39Z"/><path class="cls-6" d="M1096.72,43.22c0-.11-.09-.22-.14-.33a.43.43,0,0,0-.45.32.36.36,0,0,0,.3.43.31.31,0,0,0,.32-.39Z"/><path class="cls-6" d="M1117.26,38.71c0,.23.29.37.52.3s.4-.25.62-.34a.86.86,0,0,1,.72,0,.38.38,0,0,1,.25.32.43.43,0,0,1-.09.26,2.64,2.64,0,0,1-1,1,1.23,1.23,0,0,1-1.33-.07.93.93,0,0,1-.31-.87,1,1,0,0,1,.63-.69Z"/><path class="cls-6" d="M1119.69,32.91a.56.56,0,0,0-.33-.72.82.82,0,0,0-.83.18c-.1.08-.19.22-.12.33a.35.35,0,0,0,.24.12l1.08.19Z"/><path class="cls-6" d="M1125.42,19.68a3,3,0,0,0,1.79-1.34.44.44,0,0,0,.09-.36c-.09-.28-.5-.21-.79-.22-.51,0-.93-.44-1.43-.45a1.73,1.73,0,0,0-1.09.49c-.47.36-1,1-.66,1.44a1.11,1.11,0,0,0,.81.37,5.63,5.63,0,0,0,1.92-.09Z"/><path class="cls-6" d="M1425.82,21.71c.46.07.67-.55.7-1a.94.94,0,0,0-.22-.8c-.3-.24-.75,0-1.08.18l-.85.56c-.13.08-.27.19-.28.33a.51.51,0,0,0,.15.36,4.88,4.88,0,0,0,1.6,1.21Z"/><path class="cls-6" d="M1420.74,35.77c4,1,4.85-3.68,1.72-5.35S1417.24,34.85,1420.74,35.77Z"/><path class="cls-6" d="M1119.71,49.11a1,1,0,0,1-1.55.07,2.44,2.44,0,0,1,1.07-.87c.45-.14,1,.09,1.1.55l-.45.67Z"/><path class="cls-6" d="M1108.54,56.65c-.14-.17-.27-.35-.4-.53a5.83,5.83,0,0,1-2.06,1.12,5.56,5.56,0,0,0-1.13.38,1.17,1.17,0,0,0-.65.92c0,.73.93,1.09,1.67,1.05a3.23,3.23,0,0,0,2.42-1.21,2.16,2.16,0,0,0,0-2.57l-.77.5Z"/><path class="cls-6" d="M1104.13,51.68c.18-.25,0-.38-.35-.29a3.58,3.58,0,0,0-.92.52l-2,1.39c-.38.26-.82.59-.89.87s.23.3.55.21a4.63,4.63,0,0,0,1-.5c1.13-.67,2.45-1.59,2.7-2.4l-.65.14Z"/><path class="cls-6" d="M1102,47.77c0,.14-.15.24-.28.23a.61.61,0,0,1-.35-.21.56.56,0,0,1-.18-.27.45.45,0,0,1,.25-.54.62.62,0,0,1,.63.06.41.41,0,0,1,.18.25.22.22,0,0,1-.16.24Z"/><path class="cls-6" d="M1109.87,28.18a8,8,0,0,0,1.13-1.41.55.55,0,0,0-.42-.22,1.63,1.63,0,0,0-1.75,1.59.54.54,0,0,0,.13.37.45.45,0,0,0,.5,0,1.3,1.3,0,0,0,.38-.36Z"/><path class="cls-6" d="M1112.42,37.61c-.06-.11-.11-.23-.17-.34a.82.82,0,0,0-.49.31c-.09.17,0,.45.23.42a.72.72,0,0,0,.19-.11l.53-.47Z"/><path class="cls-6" d="M1124.35,30.69a2.17,2.17,0,0,0-.17-.91.7.7,0,0,0-1.16-.26.89.89,0,0,0,0,1.25.93.93,0,0,0,1.26-.11Z"/><path class="cls-6" d="M1414,12.62a.62.62,0,0,1-.38,1,1.72,1.72,0,0,1-.55-.49,1.14,1.14,0,0,1,.7-.4Z"/><path class="cls-6" d="M1417.75,19.49c.15-.23-.32-.45-.49-.23s0,.54.2.72a.58.58,0,0,0,.29-.64Z"/><path class="cls-6" d="M1121.75,57.41l-.38-.51a1.12,1.12,0,0,0-.4.28.6.6,0,0,0,.74.39Z"/><path class="cls-6" d="M1454.71,46.82l-.38-.51a1.23,1.23,0,0,0-.4.27.6.6,0,0,0,.74.4Z"/><path class="cls-6" d="M1427.06,42.48a2.17,2.17,0,0,1,.76,2,.44.44,0,0,1-.11.24.45.45,0,0,1-.41,0c-.81-.15-1.8-.47-1.93-1.28a1.07,1.07,0,0,1,1.39-1.08c.06.22.13.43.19.65Z"/></g><polygon class="cls-7" points="0 46.58 0 65.95 8.22 65.95 8.22 46.9 0 46.58"/><polygon class="cls-7" points="89.56 49.77 305.68 29.56 345.43 12.75 392.17 8.06 390.21 7.43 337.2 12.75 297.45 29.56 83.77 49.55 89.56 49.77"/></g></g></g></g></svg>