<svg xmlns="http://www.w3.org/2000/svg" viewBox="0 0 267.23 163.05"><defs><style>.cls-1{isolation:isolate;}.cls-2{fill:#455b64;}.cls-3,.cls-8{fill:#e9e9a8;}.cls-3{opacity:0.51;mix-blend-mode:soft-light;}.cls-4{fill:#610051;opacity:0.5;mix-blend-mode:multiply;}.cls-5{fill:#263238;}.cls-6{fill:#1de9b6;}.cls-7{fill:#02fffc;}.cls-8{opacity:0.15;}</style></defs><g class="cls-1"><g id="Layer_2" data-name="Layer 2"><g id="Layer_1-2" data-name="Layer 1"><g id="bottom-center-rock"><path id="bottom-center-rock-2" data-name="bottom-center-rock" class="cls-2" d="M267.23,163.05l-.07-58-69.54-35-7.32-27-6.4-11.94c-71,16.37-103.09,33.51-103.09,33.51L41.06,125.31,0,128l41.06,35"/><path class="cls-3" d="M80.81,64.66s24,14.3,63.05,16.58S190.3,43.09,190.3,43.09l-6.4-11.94S115.08,48.48,80.81,64.66Z"/><polygon class="cls-3" points="0 128.01 46.08 137.89 104.57 137.89 60.7 132.95 41.06 125.31 0 128.01"/><path class="cls-4" d="M128.18,79.61l-5.56,39,5.56,6.12v38.36l-23.61-25.16L60.7,133l-19.64-7.64L80.81,64.66S112.5,78,128.18,79.61Z"/><polygon class="cls-4" points="197.62 70.05 208.93 98.65 267.23 155.41 267.16 105.09 197.62 70.05"/><polygon class="cls-4" points="46.08 137.89 41.06 163.05 0 128.01 46.08 137.89"/><path class="cls-5" d="M180.93,49.18c-2.14,9.41-9.3,21.7-20.89,26.8-13.3,5.82-42.58-.11-55.46-6.23-4.12-2-6.56-3.93-6.28-5.55,2-11.92,77.09-31.57,81.89-25.83C181.8,40.31,182,44.36,180.93,49.18Z"/><path class="cls-6" d="M180.93,49.18c-2.14,9.41-9.3,21.7-20.89,26.8-13.3,5.82-42.58-.11-55.46-6.23v0S151.46,43.33,180.93,49.18Z"/><path class="cls-7" d="M140,61.84a12.57,12.57,0,0,0-5.62-.32,2.24,2.24,0,0,0-.87.29,1.72,1.72,0,0,0-.63,1.54,3.58,3.58,0,0,0,2.55,3.12,4.59,4.59,0,0,0,4.08-.85,3,3,0,0,0,1.21-2,1.69,1.69,0,0,0-1.17-1.81.36.36,0,0,0,.09.61Z"/><path class="cls-7" d="M152.87,28.84a12.56,12.56,0,0,0-5.62-.32,2.13,2.13,0,0,0-.86.28,1.73,1.73,0,0,0-.64,1.55,3.59,3.59,0,0,0,2.56,3.11,4.54,4.54,0,0,0,4.07-.85,3,3,0,0,0,1.21-1.94,1.68,1.68,0,0,0-1.17-1.81.36.36,0,0,0,.1.6Z"/><path class="cls-7" d="M144.37,69a3.25,3.25,0,0,0-3,.91,3.35,3.35,0,0,0,2.1,2.26,2.05,2.05,0,0,0,2.56-1.32c.22-1-1.09-2.13-2-1.56Z"/><path class="cls-7" d="M134.53,71.87a3.94,3.94,0,0,0-1,.43.22.22,0,0,0-.1.09.15.15,0,0,0,0,.13c.18.33.77.39.78.77,0,.06,0,.14,0,.19s.21,0,.3,0a1,1,0,0,0-.15-1.51l.17,0Z"/><path class="cls-7" d="M132.32,45.13a7,7,0,0,0-1.91.8.37.37,0,0,0-.18.17.32.32,0,0,0,0,.25c.34.62,1.46.74,1.47,1.44,0,.13,0,.27,0,.37s.4.08.56-.06a1.84,1.84,0,0,0-.28-2.85l.31,0Z"/><path class="cls-7" d="M128.2,26.63a6.91,6.91,0,0,0-1.9.8.37.37,0,0,0-.18.17.32.32,0,0,0,0,.25c.34.63,1.45.74,1.47,1.44,0,.13,0,.27,0,.37s.4.08.56-.06a1.84,1.84,0,0,0-.28-2.85l.31,0Z"/><path class="cls-7" d="M128.38,69.66a1.69,1.69,0,0,0-1.4.39,1.65,1.65,0,0,0,.48.47.57.57,0,0,0,.64,0c.24-.19.19-.55.13-.85l.21.13Z"/><path class="cls-7" d="M126.85,72.91a.5.5,0,0,0-.45.58,5.61,5.61,0,0,1-.14,1.09l1.48-1.12a.37.37,0,0,1,.12-.07c.17,0,.3.14.47.2s.46-.15.59-.36C129.82,71.7,127.6,72.71,126.85,72.91Z"/><path class="cls-7" d="M107.15,50.16a.63.63,0,0,0-.37.19.73.73,0,0,0-.09.39,5.79,5.79,0,0,1-.13,1.09L108,50.71a.57.57,0,0,1,.13-.08c.17,0,.3.15.46.2s.47-.14.6-.36C110.12,49,107.89,50,107.15,50.16Z"/><path class="cls-7" d="M116.06,67.61l-.45.3a.88.88,0,0,0,1,.33c.34-.14.46-.67.15-.86s-.55-.22-.43-.41Z"/><path class="cls-7" d="M122.15,60.39a.76.76,0,0,1,.58,1.11.8.8,0,0,1-1.28,0,.78.78,0,0,1,.63-1.1Z"/><path class="cls-7" d="M127.69,54.11c.26-.31.68-.65,1-.44s.24.69.11,1.06c-.05.15-.14.33-.3.36-.4.08-.45-.74-.86-.75-.06-.1.12-.22.19-.13Z"/><path class="cls-7" d="M201.27,50.77a1.92,1.92,0,0,0-1.47.9,1,1,0,0,0,.65,1.36.78.78,0,0,0,.49-.14,1.52,1.52,0,0,0,.22-.22,1.55,1.55,0,0,0,.41-1.09.77.77,0,0,0-.8-.72Z"/><path class="cls-7" d="M157,51.17a.83.83,0,0,0,.2.48,2.62,2.62,0,0,0,.48.22c.38.18.52.63.84.9a2.22,2.22,0,0,0,2.06.07c.16-.05.35-.13.39-.29a.65.65,0,0,0-.07-.35c-.3-.8.49-1.29.41-2A2.32,2.32,0,0,0,160,48.58,2.37,2.37,0,0,0,157,51.17Z"/><path class="cls-7" d="M137.73,2.7a.91.91,0,0,0,.21.48,2.34,2.34,0,0,0,.48.22c.37.18.52.63.83.9a2.21,2.21,0,0,0,2.07.07c.16,0,.34-.13.38-.29a.51.51,0,0,0-.07-.35c-.29-.8.49-1.29.42-2a2.3,2.3,0,0,0-1.3-1.58A2.36,2.36,0,0,0,137.73,2.7Z"/><path class="cls-7" d="M134.51,69.48a.78.78,0,0,1,.4-.21,1.27,1.27,0,0,1-.64.92c-.18.13-.42.26-.6.14s-.17-.24-.26-.36-.6-.37-.57-.67a.4.4,0,0,1,.38-.28,1.17,1.17,0,0,1,.49.15l1,.5Z"/><path class="cls-7" d="M138.62,73.72c-.31,0-.38.51-.12.69a1.16,1.16,0,0,0,.92.08,1.12,1.12,0,0,0-.77-1Z"/><path class="cls-7" d="M134,74.55a1.05,1.05,0,0,0-.43.15.37.37,0,0,0-.17.4c.07.24.4.28.58.46s.18.51.41.62a.43.43,0,0,0,.56-.33,1.06,1.06,0,0,0-.17-.71,1.19,1.19,0,0,0-.43-.51.48.48,0,0,0-.61.07Z"/><path class="cls-7" d="M132,75.16a.28.28,0,0,1,.21.34.52.52,0,0,1-.27.33.57.57,0,0,1-.25.08.38.38,0,0,1-.36-.39.41.41,0,0,1,.43-.34.43.43,0,0,1,.37.4Z"/><path class="cls-7" d="M135.59,95.93a.28.28,0,0,1,.21.33.52.52,0,0,1-.27.33.46.46,0,0,1-.25.08.37.37,0,0,1-.36-.39.4.4,0,0,1,.43-.34.43.43,0,0,1,.37.41Z"/><path class="cls-7" d="M131.32,73.31a.45.45,0,0,0-.73-.23.76.76,0,0,0,.21.43.39.39,0,0,0,.46.06.25.25,0,0,0,0-.41Z"/><path class="cls-7" d="M114.92,59.65a.45.45,0,0,0-.73-.23.76.76,0,0,0,.21.43.38.38,0,0,0,.46,0,.25.25,0,0,0,0-.4Z"/><path class="cls-7" d="M129.55,66.53a1.29,1.29,0,0,0-1.1,0c.14.27.29.54.44.81a.8.8,0,0,0,.27.33.5.5,0,0,0,.69-.28.7.7,0,0,0-.28-.75Z"/><path class="cls-7" d="M133,58.13l1.41-.91c.25.15.06.52-.13.73a1.52,1.52,0,0,1-.7.48c-.28.06-.64-.12-.64-.4Z"/><path class="cls-7" d="M140.48,53.92a.61.61,0,0,0-1,.27.88.88,0,0,0,.56,1,.67.67,0,0,0,.52,0,.62.62,0,0,0,.29-.69,1.75,1.75,0,0,0-.4-.7Z"/><path class="cls-7" d="M125.93,55.73a1,1,0,0,0-1.06-.24,1.11,1.11,0,0,0,.32.74.77.77,0,0,0,1,.15c.29-.22.17-.8-.19-.8Z"/><path class="cls-7" d="M129.68,56.88a.59.59,0,0,1,.54.47l-.72.46a.65.65,0,0,1,0-1Z"/><path class="cls-7" d="M164.67,40.27l1.07.81a.77.77,0,0,0,.33.18.78.78,0,0,0,.39-.08c.45-.16,1-.44,1-.91s-.65-.73-1.11-1c-.87-.44-2.24-2.69-3.4-1.89S164,39.77,164.67,40.27Z"/><path class="cls-7" d="M138.42,56.17l.24-.25a1.82,1.82,0,0,1,.2.75.62.62,0,0,1-.42.6c-.26.06-.56-.2-.46-.45a1.31,1.31,0,0,1,.46-.63Z"/><path class="cls-7" d="M136.16,76.74a.56.56,0,0,1,.45.42.55.55,0,0,1-.22.57c-.13.09-.33.1-.4,0a.28.28,0,0,1,0-.18l.08-.82.14,0Z"/><path class="cls-7" d="M137.3,80.85c-.11.25.1.51.31.69s.44.4.39.67a.27.27,0,0,1-.11.18c-.18.08-.32-.14-.48-.26a2.68,2.68,0,0,0-.42-.19.91.91,0,0,1-.51-.88.54.54,0,0,1,.51-.22.52.52,0,0,1,.41.37Z"/><path class="cls-7" d="M134.64,81.51l-.29.11a.37.37,0,0,0,.26.39.33.33,0,0,0,.39-.25.27.27,0,0,0-.33-.28Z"/><path class="cls-7" d="M133.85,88.74l-.29.11a.38.38,0,0,0,.27.39.32.32,0,0,0,.38-.24.28.28,0,0,0-.33-.29Z"/><path class="cls-7" d="M130.35,71.26c.2,0,.33-.23.27-.43s-.21-.35-.29-.54a.7.7,0,0,1,0-.6.34.34,0,0,1,.28-.21.49.49,0,0,1,.23.08,2.15,2.15,0,0,1,.86.83,1,1,0,0,1-.09,1.12.81.81,0,0,1-1.36-.3Z"/><path class="cls-7" d="M103.4,63.5c.2,0,.33-.24.27-.44a4.63,4.63,0,0,0-.29-.53.72.72,0,0,1,0-.61.4.4,0,0,1,.28-.21.5.5,0,0,1,.23.09,2.19,2.19,0,0,1,.86.82,1,1,0,0,1-.09,1.13.8.8,0,0,1-1.36-.31Z"/><path class="cls-7" d="M125.32,69.08a.51.51,0,0,0-.64.26.71.71,0,0,0,.14.71.25.25,0,0,0,.29.11.29.29,0,0,0,.11-.2c.06-.3.12-.61.19-.91Z"/><path class="cls-7" d="M113.86,64a2.53,2.53,0,0,0-1.13-1.55.47.47,0,0,0-.32-.08c-.24.07-.19.42-.21.67,0,.42-.4.77-.42,1.19a1.51,1.51,0,0,0,.41.94c.3.41.81.86,1.24.59a.9.9,0,0,0,.34-.68,4.7,4.7,0,0,0,0-1.63Z"/><path class="cls-7" d="M121.68,45.79c.07-.39-.46-.58-.86-.61a.83.83,0,0,0-.71.16c-.22.25,0,.64.14.92l.47.73c.07.11.15.23.28.25a.38.38,0,0,0,.31-.13,3.89,3.89,0,0,0,1.1-1.32Z"/><path class="cls-7" d="M133.88,50.38c1-3.38-3.11-4.17-4.64-1.56S133,53.33,133.88,50.38Z"/><path class="cls-7" d="M139.5,69.41a.82.82,0,0,1,0,1.31,2.05,2.05,0,0,1-.74-.92.71.71,0,0,1,.5-.92l.59.4Z"/><path class="cls-7" d="M156,64.69l-.47.33a4.74,4.74,0,0,1,.93,1.76,4.31,4.31,0,0,0,.31,1,1,1,0,0,0,.79.57c.64,0,1-.76,1-1.38a2.72,2.72,0,0,0-1-2.08,1.94,1.94,0,0,0-2.25-.08c.14.22.28.44.43.66Z"/><path class="cls-7" d="M150,71.88c-.21-.17-.33,0-.25.28a2.85,2.85,0,0,0,.43.8l1.17,1.73c.22.32.51.7.74.76s.27-.18.2-.46a3.65,3.65,0,0,0-.41-.88c-.56-1-1.35-2.1-2.05-2.33,0,.18.08.37.11.55Z"/><path class="cls-7" d="M138,84.4a.21.21,0,0,1,.19.25.53.53,0,0,1-.18.29.7.7,0,0,1-.25.15.42.42,0,0,1-.47-.23.51.51,0,0,1,.07-.53.34.34,0,0,1,.23-.15.18.18,0,0,1,.2.14Z"/><path class="cls-7" d="M108.52,26.69a6.79,6.79,0,0,0-1.21-1,.44.44,0,0,0-.19.35,1.38,1.38,0,0,0,1.35,1.51.44.44,0,0,0,.32-.1.38.38,0,0,0,0-.42,1.21,1.21,0,0,0-.31-.33Z"/><path class="cls-7" d="M129.28,75.34l-.3.13a.66.66,0,0,0,.26.42c.15.08.39,0,.37-.18a.37.37,0,0,0-.09-.16l-.4-.46Z"/><path class="cls-7" d="M123.47,65.09a1.76,1.76,0,0,0-.79.13.66.66,0,0,0-.42.62.61.61,0,0,0,.17.35.79.79,0,0,0,1.09,0,.77.77,0,0,0-.07-1.07Z"/><path class="cls-7" d="M113.47,55.64a.55.55,0,0,1,.87.34,1.48,1.48,0,0,1-.44.46,1,1,0,0,1-.33-.6Z"/><path class="cls-7" d="M159.46,12.3c-.2-.14-.4.26-.21.4s.47,0,.63-.15a.53.53,0,0,0-.55-.26Z"/><path class="cls-7" d="M146.81,67.86l-.45.31a1,1,0,0,0,.23.35.52.52,0,0,0,.36-.62Z"/><path class="cls-7" d="M144.28,21.87l-.45.32a1.08,1.08,0,0,0,.23.34.51.51,0,0,0,.36-.62Z"/><path class="cls-7" d="M139.89,45.18a1.93,1.93,0,0,1,1.75-.6.41.41,0,0,1,.21.1.37.37,0,0,1,0,.34c-.15.69-.45,1.52-1.16,1.61a.91.91,0,0,1-.92-1.19l.58-.15Z"/><path class="cls-7" d="M173.35,69.11a1.94,1.94,0,0,1,1.75-.59.31.31,0,0,1,.21.09.42.42,0,0,1,0,.35c-.15.68-.45,1.51-1.16,1.61a.91.91,0,0,1-.92-1.2l.57-.15Z"/><path class="cls-8" d="M8.22,128l41.06-2.7L89,64.66s29.91-16,95.79-31.79l-.92-1.72c-71,16.37-103.09,33.51-103.09,33.51L41.06,125.31l-33.45,2.2Z"/></g></g></g></g></svg>