<svg xmlns="http://www.w3.org/2000/svg" viewBox="0 0 1919.05 163.05"><defs><style>.cls-1{isolation:isolate;}.cls-2{fill:#455b64;}.cls-3,.cls-5{opacity:0.51;}.cls-3,.cls-5,.cls-9{mix-blend-mode:soft-light;}.cls-4,.cls-5{fill:#e9e9a8;}.cls-6{fill:#610051;opacity:0.5;mix-blend-mode:multiply;}.cls-7{fill:#263238;}.cls-8{fill:#1de9b6;}.cls-10{fill:#02fffc;}</style></defs><g class="cls-1"><g id="Layer_2" data-name="Layer 2"><g id="Layer_1-2" data-name="Layer 1"><g id="bottom-rock"><path id="bottom" class="cls-2" d="M1414.7,101.05l-90.35,39.09-38.43,1.35L1235.05,128l-17.82-17.53-90.5-13.38-79.6-15.68-25.62-11.37-7.32-27-6.4-11.94c-71,16.37-103.09,33.51-103.09,33.51l-39.76,60.65L823.89,128,784.07,95.66l-46.61-6.07-41,15L675.1,124.69l-149.73,9.1H484.91l-47.35-14-47.35-15.23-53,5.31-39.75,16.81L81.33,146.88,0,143.68v19.37H1919.05Z"/><g class="cls-3"><path class="cls-4" d="M832.11,128l41.06-2.7,39.75-60.65s29.9-16,95.79-31.79l-.92-1.72c-71,16.37-103.09,33.51-103.09,33.51l-39.76,60.65-33.44,2.2Z"/><polygon class="cls-4" points="0 143.68 0 163.05 8.22 163.05 8.22 144 0 143.68"/><polygon class="cls-4" points="683.32 124.69 704.68 104.53 743.52 90.38 737.46 89.59 696.46 104.53 675.1 124.69 525.37 133.79 533.59 133.79 683.32 124.69"/><polygon class="cls-4" points="89.56 146.88 305.68 126.66 345.43 109.85 392.17 105.16 390.21 104.53 337.2 109.85 297.45 126.66 83.77 146.65 89.56 146.88"/></g><path class="cls-5" d="M904.7,64.66s24,14.3,63,16.58,46.44-38.15,46.44-38.15l-6.4-11.94S939,48.48,904.7,64.66Z"/><path class="cls-5" d="M696.46,104.54s12.67,19.87,41,25.26,72.46-12.63,72.46-12.63L784.07,95.66l-46.61-6.07Z"/><polygon class="cls-5" points="823.89 128.01 869.97 137.89 928.46 137.89 884.59 132.95 864.94 125.31 823.89 128.01"/><polygon class="cls-5" points="1047.13 81.42 1091.05 105.09 1162.86 115.88 1142.74 110.2 1217.23 110.48 1126.73 97.1 1047.13 81.42"/><polyline class="cls-5" points="1324.35 155.41 1365.52 141.71 1324.35 140.14 1285.92 141.49 1235.05 128.01 1223.11 131.6"/><polygon class="cls-5" points="484.91 133.79 470.4 140.59 525.37 137.89 519.22 140.59 583.7 149.13 586.68 141.46 636.49 133.79 675.1 124.69 540.23 132.89 484.91 133.79"/><polygon class="cls-5" points="337.2 109.85 352.28 118.57 402.84 118.57 394.68 114.21 390.21 104.53 337.2 109.85"/><polygon class="cls-5" points="297.45 126.66 202.19 152.72 202.19 149.13 141.19 152.72 124.28 149.13 81.33 146.88 297.45 126.66"/><path class="cls-6" d="M952.07,79.61l-5.57,39,5.57,6.12v38.36l-23.61-25.16L884.59,133l-19.65-7.64L904.7,64.66S936.39,78,952.07,79.61Z"/><polygon class="cls-6" points="1021.51 70.05 1032.81 98.65 1091.12 155.41 1091.05 105.09 1021.51 70.05"/><polygon class="cls-6" points="1324.35 155.41 1321.4 163.05 1217.59 163.05 1223.11 131.6 1324.35 155.41"/><polygon class="cls-6" points="722.8 125.31 707.26 163.05 662.63 163.05 675.1 124.69 696.46 104.53 722.8 125.31"/><polygon class="cls-6" points="869.97 137.89 864.94 163.05 823.89 128.01 869.97 137.89"/><polygon class="cls-6" points="352.28 118.57 334.23 147.33 322.58 145.53 295 163.05 297.45 126.66 337.2 109.85 352.28 118.57"/><path class="cls-7" d="M1004.81,49.18c-2.13,9.41-9.29,21.7-20.89,26.8-13.29,5.82-42.57-.11-55.46-6.23-4.11-2-6.55-3.93-6.27-5.55,2-11.92,77.09-31.57,81.88-25.83C1005.69,40.31,1005.91,44.36,1004.81,49.18Z"/><path class="cls-7" d="M795,115.88c-1.59,2.42-5.57,4.12-10.72,5.33-10.2,2.43-24.92,3-34.05,3.48-13.71.73-47.43-15-37.95-20.16a63.21,63.21,0,0,1,6.2-2.91C754.87,87,799.48,109.08,795,115.88Z"/><path class="cls-8" d="M1004.81,49.18c-2.13,9.41-9.29,21.7-20.89,26.8-13.29,5.82-42.57-.11-55.46-6.23v0S975.34,43.33,1004.81,49.18Z"/><path class="cls-8" d="M784.32,121.21c-10.2,2.43-24.92,3-34.05,3.48-13.71.73-47.43-15-37.95-20.16a63.21,63.21,0,0,1,6.2-2.91c11.21-1.22,26.35-1.51,39.83,2.91C772.72,109.25,780.37,116.12,784.32,121.21Z"/><g class="cls-9"><path class="cls-4" d="M1407.39,140.22a14,14,0,0,0,.22-6.43,2.53,2.53,0,0,0-.36-1,2.11,2.11,0,0,0-1.85-.69,4.2,4.2,0,0,0-3.6,3,5.07,5.07,0,0,0,1.12,4.63,3.57,3.57,0,0,0,2.33,1.33,2,2,0,0,0,2.1-1.39.44.44,0,0,0-.71.12Z"/><path class="cls-4" d="M1120.39,151.75a3.64,3.64,0,0,0-1.15-3.37,3.91,3.91,0,0,0-2.62,2.47,2.33,2.33,0,0,0,1.64,2.88c1.24.22,2.48-1.31,1.78-2.34Z"/><path class="cls-4" d="M1116.66,140.6a4.38,4.38,0,0,0-.53-1.14s-.06-.09-.11-.1a.23.23,0,0,0-.16,0c-.39.22-.44.9-.88.92-.08,0-.17,0-.23,0s0,.25,0,.35a1.18,1.18,0,0,0,1.78-.22l0,.19Z"/><path class="cls-4" d="M1426.9,130.93a7.77,7.77,0,0,0-1-2.15.5.5,0,0,0-.21-.2.4.4,0,0,0-.3,0c-.72.41-.82,1.69-1.65,1.72-.16,0-.32,0-.44.06s-.08.46.09.64a2.22,2.22,0,0,0,3.35-.4l.06.35Z"/><path class="cls-4" d="M1448.63,125.71a8,8,0,0,0-1-2.16.41.41,0,0,0-.2-.19.36.36,0,0,0-.3,0c-.73.4-.83,1.68-1.66,1.71-.15,0-.32,0-.44.06s-.08.46.1.64a2.22,2.22,0,0,0,3.35-.4l.06.36Z"/><path class="cls-4" d="M1119.1,133.52a1.89,1.89,0,0,0-.51-1.59,2,2,0,0,0-.53.57.63.63,0,0,0,0,.72c.23.27.66.21,1,.13l-.15.25Z"/><path class="cls-4" d="M1115.21,131.87a.72.72,0,0,0-.24-.41.8.8,0,0,0-.46-.09,7,7,0,0,1-1.29-.12l1.37,1.65a.67.67,0,0,1,.09.14c0,.19-.16.35-.22.54s.18.53.43.66C1116.73,135.23,1115.47,132.72,1115.21,131.87Z"/><path class="cls-4" d="M1094.58,124.28a.78.78,0,0,0-.24-.41.8.8,0,0,0-.46-.09,8.07,8.07,0,0,1-1.3-.13c.46.55.92,1.1,1.37,1.66a.26.26,0,0,1,.09.14c.06.19-.16.34-.22.53s.18.53.44.67C1096.09,127.63,1094.84,125.12,1094.58,124.28Z"/><path class="cls-4" d="M1121.16,119.4l-.37-.51a1,1,0,0,0-.36,1.11c.17.38.81.5,1,.14s.24-.63.47-.49Z"/><path class="cls-4" d="M1408.6,119.76a.93.93,0,0,1-1.31.7.89.89,0,0,1,0-1.46.91.91,0,0,1,1.31.68Z"/><path class="cls-4" d="M1416.16,125.91c.38.29.79.76.55,1.16s-.81.3-1.24.16c-.18-.06-.4-.15-.44-.34-.1-.45.86-.53.86-1,.12-.07.27.13.16.22Z"/><path class="cls-4" d="M1127.17,157.9a2.16,2.16,0,0,0-1.11-1.65c-.63-.28-1.55.09-1.58.78a.79.79,0,0,0,.18.55,1.18,1.18,0,0,0,.26.24,1.89,1.89,0,0,0,1.31.45.9.9,0,0,0,.82-.94Z"/><path class="cls-4" d="M1420.48,157.25a1.1,1.1,0,0,0-.56.25,2.56,2.56,0,0,0-.24.56c-.21.43-.73.61-1,1a2.44,2.44,0,0,0,0,2.36c.06.19.15.39.34.44a.75.75,0,0,0,.41-.09c.94-.36,1.54.52,2.41.41a2.54,2.54,0,1,0-1.3-4.9Z"/><path class="cls-4" d="M1119.49,140.51a.81.81,0,0,1,.25.45,1.45,1.45,0,0,1-1.1-.7c-.16-.2-.32-.46-.19-.68s.29-.2.43-.31.41-.7.76-.66a.44.44,0,0,1,.35.43,1.3,1.3,0,0,1-.17.56c-.18.39-.37.78-.56,1.17Z"/><path class="cls-4" d="M1114.6,145.34c0-.37-.62-.42-.83-.13a1.34,1.34,0,0,0-.06,1.06,1.31,1.31,0,0,0,1.11-.9Z"/><path class="cls-4" d="M1113.49,140.05a1.36,1.36,0,0,0-.2-.48.47.47,0,0,0-.47-.19c-.29.09-.32.48-.54.68s-.59.23-.72.49.13.58.42.63a1.26,1.26,0,0,0,.83-.22,1.37,1.37,0,0,0,.59-.5.56.56,0,0,0-.1-.7Z"/><path class="cls-4" d="M1112.7,137.83a.33.33,0,0,1-.39.25.64.64,0,0,1-.4-.3.73.73,0,0,1-.1-.28.44.44,0,0,1,.45-.43.46.46,0,0,1,.41.48.49.49,0,0,1-.46.44Z"/><path class="cls-4" d="M1088.29,142.51a.33.33,0,0,1-.39.25.64.64,0,0,1-.4-.3.5.5,0,0,1-.1-.28.43.43,0,0,1,.45-.42.45.45,0,0,1,.41.47.5.5,0,0,1-.47.44Z"/><path class="cls-4" d="M1114.86,137a.5.5,0,0,0,.26-.83.88.88,0,0,0-.5.25.43.43,0,0,0-.06.52.3.3,0,0,0,.48,0Z"/><path class="cls-4" d="M1409.26,111.48a.5.5,0,0,0,.25-.83.88.88,0,0,0-.5.25.41.41,0,0,0,0,.52.29.29,0,0,0,.47,0Z"/><path class="cls-4" d="M1122.82,134.77a1.43,1.43,0,0,0,0-1.26l-.94.53a.94.94,0,0,0-.39.32.58.58,0,0,0,.36.78.84.84,0,0,0,.87-.35Z"/><path class="cls-4" d="M1411.57,132l1.11,1.59c-.17.28-.61.08-.86-.14a1.66,1.66,0,0,1-.59-.78.58.58,0,0,1,.46-.74Z"/><path class="cls-4" d="M1416.76,140.51a.68.68,0,0,0-.35-1.1,1,1,0,0,0-1.13.66.78.78,0,0,0,0,.6.75.75,0,0,0,.83.31,2.11,2.11,0,0,0,.82-.47Z"/><path class="cls-4" d="M1414.2,123.94a1.09,1.09,0,0,0,.25-1.21,1.38,1.38,0,0,0-.86.38.87.87,0,0,0-.15,1.13c.27.33,1,.18.94-.24Z"/><path class="cls-4" d="M1413,128.27a.66.66,0,0,1-.54.62c-.19-.27-.37-.54-.56-.8A.77.77,0,0,1,1413,128Z"/><path class="cls-4" d="M1408.88,145.23l-.92,1.24a.86.86,0,0,0-.2.39,1,1,0,0,0,.09.44c.21.5.56,1.1,1.12,1.07s.83-.76,1.1-1.3c.48-1,3.1-2.63,2.12-3.94S1409.45,144.48,1408.88,145.23Z"/><path class="cls-4" d="M1414.05,138.22l.29.27a2.28,2.28,0,0,1-.88.25.72.72,0,0,1-.71-.47c-.08-.29.22-.64.51-.54a1.57,1.57,0,0,1,.75.52Z"/><path class="cls-4" d="M1111,142.61a.66.66,0,0,1-.48.52.67.67,0,0,1-.69-.23c-.1-.14-.13-.37,0-.45a.37.37,0,0,1,.21,0l1,.07,0,.17Z"/><path class="cls-4" d="M1106.14,144c-.3-.11-.6.13-.81.37s-.46.52-.78.47a.27.27,0,0,1-.21-.13c-.1-.19.16-.37.29-.54a2.13,2.13,0,0,0,.21-.49,1.07,1.07,0,0,1,1-.61.59.59,0,0,1,.28.58.58.58,0,0,1-.42.47Z"/><path class="cls-4" d="M1105.29,141l-.15-.33a.43.43,0,0,0-.45.32.37.37,0,0,0,.3.43.32.32,0,0,0,.33-.39Z"/><path class="cls-4" d="M1096.72,140.32c0-.11-.09-.22-.14-.33a.45.45,0,0,0-.45.32.36.36,0,0,0,.3.43.31.31,0,0,0,.32-.38Z"/><path class="cls-4" d="M1117.26,135.81c0,.24.29.37.52.3a5.36,5.36,0,0,0,.62-.34.9.9,0,0,1,.72,0,.4.4,0,0,1,.25.32.43.43,0,0,1-.09.26,2.64,2.64,0,0,1-1,1,1.23,1.23,0,0,1-1.33-.07.93.93,0,0,1-.31-.87,1,1,0,0,1,.63-.69Z"/><path class="cls-4" d="M1119.69,130a.56.56,0,0,0-.33-.72.84.84,0,0,0-.83.18c-.1.08-.19.23-.12.34a.38.38,0,0,0,.24.11l1.08.19Z"/><path class="cls-4" d="M1125.42,116.78a3,3,0,0,0,1.79-1.33.46.46,0,0,0,.09-.37c-.09-.28-.5-.21-.79-.22-.51,0-.93-.44-1.43-.45a1.85,1.85,0,0,0-1.09.49c-.47.36-1,1-.66,1.44a1.11,1.11,0,0,0,.81.37,5.89,5.89,0,0,0,1.92-.08Z"/><path class="cls-4" d="M1425.82,118.81c.46.07.67-.55.7-1a1,1,0,0,0-.22-.81c-.3-.24-.75,0-1.08.19l-.85.55c-.13.09-.27.19-.28.34a.49.49,0,0,0,.15.35,4.88,4.88,0,0,0,1.6,1.21Z"/><path class="cls-4" d="M1420.74,132.87c4,1,4.85-3.68,1.72-5.35S1417.24,132,1420.74,132.87Z"/><path class="cls-4" d="M1119.71,146.21a1,1,0,0,1-1.55.08,2.46,2.46,0,0,1,1.07-.88c.45-.14,1,.09,1.1.55l-.45.68Z"/><path class="cls-4" d="M1108.54,153.76l-.4-.54a5.83,5.83,0,0,1-2.06,1.12,5.56,5.56,0,0,0-1.13.38,1.17,1.17,0,0,0-.65.92c0,.73.93,1.09,1.67,1.05a3.23,3.23,0,0,0,2.42-1.21,2.16,2.16,0,0,0,0-2.57l-.77.5Z"/><path class="cls-4" d="M1104.13,148.78c.18-.25,0-.37-.35-.29a3.58,3.58,0,0,0-.92.52l-2,1.39c-.38.26-.82.6-.89.87s.23.3.55.21a4.57,4.57,0,0,0,1-.49c1.13-.67,2.45-1.6,2.7-2.41l-.65.14Z"/><path class="cls-4" d="M1102,144.88c0,.13-.15.23-.28.22a.55.55,0,0,1-.35-.2.64.64,0,0,1-.18-.28.46.46,0,0,1,.25-.54.62.62,0,0,1,.63.06.41.41,0,0,1,.18.25.23.23,0,0,1-.16.25Z"/><path class="cls-4" d="M1109.87,125.28a8,8,0,0,0,1.13-1.41.54.54,0,0,0-.42-.21,1.62,1.62,0,0,0-1.75,1.59.52.52,0,0,0,.13.36.45.45,0,0,0,.5,0,1.3,1.3,0,0,0,.38-.36Z"/><path class="cls-4" d="M1112.42,134.71c-.06-.11-.11-.22-.17-.34a.83.83,0,0,0-.49.32c-.09.17,0,.44.23.41a.41.41,0,0,0,.19-.11l.53-.46Z"/><path class="cls-4" d="M1124.35,127.79a2.09,2.09,0,0,0-.17-.9.81.81,0,0,0-.75-.47.74.74,0,0,0-.41.21.88.88,0,0,0,0,1.24.92.92,0,0,0,1.26-.11Z"/><path class="cls-4" d="M1414,109.72a.62.62,0,0,1-.38,1,1.72,1.72,0,0,1-.55-.49,1.12,1.12,0,0,1,.7-.39Z"/><path class="cls-4" d="M1417.75,116.59c.15-.23-.32-.45-.49-.23a.57.57,0,0,0,.2.72.58.58,0,0,0,.29-.64Z"/><path class="cls-4" d="M1121.75,154.51c-.13-.17-.25-.34-.38-.5a1.09,1.09,0,0,0-.4.27.6.6,0,0,0,.74.39Z"/><path class="cls-4" d="M1454.71,143.92l-.38-.51a1.26,1.26,0,0,0-.4.28.6.6,0,0,0,.74.39Z"/><path class="cls-4" d="M1427.06,139.58a2.17,2.17,0,0,1,.76,2,.41.41,0,0,1-.11.24.45.45,0,0,1-.41,0c-.81-.15-1.8-.47-1.93-1.27a1.07,1.07,0,0,1,1.39-1.09c.06.22.13.44.19.65Z"/></g><path class="cls-10" d="M963.92,61.84a12.61,12.61,0,0,0-5.63-.32,2.19,2.19,0,0,0-.86.29,1.7,1.7,0,0,0-.63,1.54,3.58,3.58,0,0,0,2.55,3.12,4.59,4.59,0,0,0,4.08-.85,3,3,0,0,0,1.21-2,1.7,1.7,0,0,0-1.17-1.81.36.36,0,0,0,.09.61Z"/><path class="cls-10" d="M976.76,28.84a12.57,12.57,0,0,0-5.62-.32,2.13,2.13,0,0,0-.86.28,1.73,1.73,0,0,0-.64,1.55,3.57,3.57,0,0,0,2.55,3.11,4.56,4.56,0,0,0,4.08-.85,3,3,0,0,0,1.21-1.94,1.68,1.68,0,0,0-1.17-1.81.36.36,0,0,0,.1.6Z"/><path class="cls-10" d="M968.25,69a3.26,3.26,0,0,0-3,.91,3.36,3.36,0,0,0,2.11,2.26,2.06,2.06,0,0,0,2.56-1.32c.22-1-1.09-2.13-2-1.56Z"/><path class="cls-10" d="M958.41,71.87a4.27,4.27,0,0,0-1,.43.16.16,0,0,0-.09.09.15.15,0,0,0,0,.13c.18.33.77.39.78.77,0,.06,0,.14,0,.19s.21,0,.3,0a1,1,0,0,0-.15-1.51l.16,0Z"/><path class="cls-10" d="M956.2,45.13a6.91,6.91,0,0,0-1.9.8.37.37,0,0,0-.18.17.32.32,0,0,0,0,.25c.34.62,1.45.74,1.47,1.44,0,.13,0,.27,0,.37s.4.08.56-.06a1.84,1.84,0,0,0-.28-2.85l.31,0Z"/><path class="cls-10" d="M952.09,26.63a6.91,6.91,0,0,0-1.9.8.37.37,0,0,0-.18.17.32.32,0,0,0,0,.25c.33.63,1.45.74,1.47,1.44,0,.13,0,.27,0,.37s.4.08.56-.06a1.84,1.84,0,0,0-.28-2.85l.31,0Z"/><path class="cls-10" d="M952.27,69.66a1.68,1.68,0,0,0-1.4.39,1.54,1.54,0,0,0,.48.47.56.56,0,0,0,.63,0c.24-.19.2-.55.14-.85l.21.13Z"/><path class="cls-10" d="M950.74,72.91a.68.68,0,0,0-.37.2.61.61,0,0,0-.08.38,6.5,6.5,0,0,1-.14,1.09l1.47-1.12a.33.33,0,0,1,.13-.07c.17,0,.3.14.46.2s.47-.15.6-.36C953.71,71.7,951.48,72.71,950.74,72.91Z"/><path class="cls-10" d="M931,50.16a.63.63,0,0,0-.37.19.73.73,0,0,0-.09.39,6.75,6.75,0,0,1-.13,1.09l1.47-1.12a.57.57,0,0,1,.13-.08c.17,0,.3.15.46.2s.47-.14.6-.36C934,49,931.78,50,931,50.16Z"/><path class="cls-10" d="M940,67.61l-.45.3a.87.87,0,0,0,1,.33.51.51,0,0,0,.14-.86c-.19-.11-.54-.22-.42-.41Z"/><path class="cls-10" d="M946,60.39a.76.76,0,0,1,.58,1.11.79.79,0,0,1-1.27,0,.78.78,0,0,1,.63-1.1Z"/><path class="cls-10" d="M951.58,54.11c.26-.31.68-.65,1-.44s.25.69.12,1.06c-.06.15-.14.33-.3.36-.41.08-.46-.74-.87-.75-.06-.1.12-.22.2-.13Z"/><path class="cls-10" d="M1025.15,50.77a1.92,1.92,0,0,0-1.46.9,1,1,0,0,0,.65,1.36.78.78,0,0,0,.49-.14,1.1,1.1,0,0,0,.21-.22,1.51,1.51,0,0,0,.42-1.09.77.77,0,0,0-.8-.72Z"/><path class="cls-10" d="M980.85,51.17a.91.91,0,0,0,.21.48,2.34,2.34,0,0,0,.48.22c.37.18.52.63.83.9a2.24,2.24,0,0,0,2.07.07c.16-.05.34-.13.39-.29a.65.65,0,0,0-.07-.35c-.3-.8.49-1.29.41-2a2.34,2.34,0,0,0-1.3-1.59A2.37,2.37,0,0,0,980.85,51.17Z"/><path class="cls-10" d="M961.62,2.7a.91.91,0,0,0,.21.48,2.34,2.34,0,0,0,.48.22c.37.18.52.63.83.9a2.21,2.21,0,0,0,2.07.07c.16,0,.34-.13.38-.29a.65.65,0,0,0-.07-.35c-.29-.8.49-1.29.41-2A2.29,2.29,0,0,0,964.64.12,2.36,2.36,0,0,0,961.62,2.7Z"/><path class="cls-10" d="M958.4,69.48a.71.71,0,0,1,.4-.21,1.27,1.27,0,0,1-.64.92c-.18.13-.42.26-.6.14s-.17-.24-.26-.36-.61-.37-.57-.67a.39.39,0,0,1,.38-.28,1.22,1.22,0,0,1,.49.15l1,.5Z"/><path class="cls-10" d="M962.51,73.72c-.32,0-.38.51-.12.69a1.16,1.16,0,0,0,.92.08,1.12,1.12,0,0,0-.77-1Z"/><path class="cls-10" d="M957.87,74.55a1.1,1.1,0,0,0-.44.15.4.4,0,0,0-.17.4c.07.24.41.28.59.46s.18.51.41.62a.43.43,0,0,0,.56-.33,1.12,1.12,0,0,0-.17-.71,1.27,1.27,0,0,0-.43-.51.49.49,0,0,0-.62.07Z"/><path class="cls-10" d="M955.9,75.16a.28.28,0,0,1,.21.34.52.52,0,0,1-.27.33.57.57,0,0,1-.25.08.38.38,0,0,1-.36-.39.4.4,0,0,1,.43-.34.44.44,0,0,1,.37.4Z"/><path class="cls-10" d="M959.48,95.93a.28.28,0,0,1,.21.33.54.54,0,0,1-.28.33.41.41,0,0,1-.24.08.37.37,0,0,1-.36-.39.4.4,0,0,1,.42-.34.44.44,0,0,1,.38.41Z"/><path class="cls-10" d="M955.2,73.31a.44.44,0,0,0-.72-.23.76.76,0,0,0,.21.43.38.38,0,0,0,.45.06.25.25,0,0,0,0-.41Z"/><path class="cls-10" d="M938.8,59.65a.44.44,0,0,0-.72-.23.76.76,0,0,0,.21.43.36.36,0,0,0,.45,0,.24.24,0,0,0,0-.4Z"/><path class="cls-10" d="M953.44,66.53a1.31,1.31,0,0,0-1.11,0l.45.81a.73.73,0,0,0,.27.33.51.51,0,0,0,.69-.28.7.7,0,0,0-.28-.75Z"/><path class="cls-10" d="M956.83,58.13l1.42-.91c.25.15.06.52-.14.73a1.5,1.5,0,0,1-.69.48c-.29.06-.64-.12-.64-.4Z"/><path class="cls-10" d="M964.37,53.92a.61.61,0,0,0-1,.27.87.87,0,0,0,.56,1,.67.67,0,0,0,.52,0,.63.63,0,0,0,.29-.69,1.75,1.75,0,0,0-.4-.7Z"/><path class="cls-10" d="M949.81,55.73a1,1,0,0,0-1-.24,1.15,1.15,0,0,0,.31.74.79.79,0,0,0,1,.15c.29-.22.17-.8-.19-.8Z"/><path class="cls-10" d="M953.57,56.88a.59.59,0,0,1,.54.47l-.72.46a.65.65,0,0,1,0-1Z"/><path class="cls-10" d="M988.56,40.27l1.07.81a.72.72,0,0,0,.33.18.78.78,0,0,0,.39-.08c.44-.16,1-.44,1-.91s-.65-.73-1.11-1c-.87-.44-2.24-2.69-3.41-1.89S987.91,39.77,988.56,40.27Z"/><path class="cls-10" d="M962.31,56.17l.24-.25a1.82,1.82,0,0,1,.2.75.63.63,0,0,1-.42.6c-.26.06-.56-.2-.47-.45a1.4,1.4,0,0,1,.47-.63Z"/><path class="cls-10" d="M960.05,76.74a.54.54,0,0,1,.22,1c-.12.09-.32.1-.39,0a.37.37,0,0,1,0-.18l.09-.82.14,0Z"/><path class="cls-10" d="M961.19,80.85c-.11.25.1.51.31.69s.44.4.39.67a.25.25,0,0,1-.12.18c-.17.08-.32-.14-.47-.26a2.68,2.68,0,0,0-.42-.19.89.89,0,0,1-.51-.88.53.53,0,0,1,.51-.22.52.52,0,0,1,.41.37Z"/><path class="cls-10" d="M958.53,81.51l-.3.11a.38.38,0,0,0,.27.39.33.33,0,0,0,.39-.25.27.27,0,0,0-.33-.28Z"/><path class="cls-10" d="M957.74,88.74l-.29.11a.37.37,0,0,0,.27.39.32.32,0,0,0,.38-.24.28.28,0,0,0-.33-.29Z"/><path class="cls-10" d="M954.23,71.26c.21,0,.33-.23.28-.43s-.21-.35-.29-.54a.7.7,0,0,1,0-.6.35.35,0,0,1,.29-.21.49.49,0,0,1,.23.08,2.21,2.21,0,0,1,.86.83,1,1,0,0,1-.09,1.12.8.8,0,0,1-.77.24.79.79,0,0,1-.59-.54Z"/><path class="cls-10" d="M927.28,63.5c.21,0,.33-.24.28-.44s-.21-.34-.29-.53a.76.76,0,0,1,0-.61.4.4,0,0,1,.29-.21.5.5,0,0,1,.23.09,2.26,2.26,0,0,1,.86.82,1,1,0,0,1-.09,1.13.82.82,0,0,1-.77.24.8.8,0,0,1-.59-.55Z"/><path class="cls-10" d="M949.21,69.08a.5.5,0,0,0-.64.26.69.69,0,0,0,.14.71.25.25,0,0,0,.29.11.25.25,0,0,0,.1-.2c.07-.3.13-.61.19-.91Z"/><path class="cls-10" d="M937.75,64a2.56,2.56,0,0,0-1.13-1.55.47.47,0,0,0-.32-.08c-.25.07-.19.42-.21.67,0,.42-.4.77-.42,1.19a1.5,1.5,0,0,0,.4.94c.31.41.82.86,1.25.59a.94.94,0,0,0,.34-.68,5,5,0,0,0,0-1.63Z"/><path class="cls-10" d="M945.57,45.79c.07-.39-.46-.58-.86-.61a.82.82,0,0,0-.71.16c-.22.25,0,.64.14.92l.47.73c.07.11.15.23.28.25a.38.38,0,0,0,.31-.13,4,4,0,0,0,1.1-1.32Z"/><path class="cls-10" d="M957.77,50.38c1-3.38-3.12-4.17-4.65-1.56S956.89,53.33,957.77,50.38Z"/><path class="cls-10" d="M963.39,69.41a.82.82,0,0,1,0,1.31,2.05,2.05,0,0,1-.74-.92.71.71,0,0,1,.5-.92l.58.4Z"/><path class="cls-10" d="M979.93,64.69l-.47.33a4.74,4.74,0,0,1,.93,1.76,4.31,4.31,0,0,0,.31,1,1,1,0,0,0,.79.57c.64,0,1-.76,1-1.38a2.68,2.68,0,0,0-1-2.08,1.94,1.94,0,0,0-2.25-.08l.42.66Z"/><path class="cls-10" d="M973.84,71.88c-.21-.17-.33,0-.26.28a2.9,2.9,0,0,0,.44.8l1.17,1.73c.22.32.5.7.74.76s.27-.18.2-.46a3.65,3.65,0,0,0-.41-.88c-.56-1-1.35-2.1-2.05-2.33,0,.18.07.37.11.55Z"/><path class="cls-10" d="M961.84,84.4a.22.22,0,0,1,.19.25.5.5,0,0,1-.19.29.75.75,0,0,1-.24.15.42.42,0,0,1-.47-.23.51.51,0,0,1,.07-.53.34.34,0,0,1,.22-.15.18.18,0,0,1,.21.14Z"/><path class="cls-10" d="M932.41,26.69a7.17,7.17,0,0,0-1.21-1,.45.45,0,0,0-.2.35,1.39,1.39,0,0,0,1.36,1.51.46.46,0,0,0,.32-.1.36.36,0,0,0,0-.42,1,1,0,0,0-.3-.33Z"/><path class="cls-10" d="M953.17,75.34l-.3.13a.66.66,0,0,0,.26.42c.15.08.39,0,.37-.18a.39.39,0,0,0-.1-.16l-.39-.46Z"/><path class="cls-10" d="M947.36,65.09a1.76,1.76,0,0,0-.79.13.66.66,0,0,0-.43.62.62.62,0,0,0,.18.35.78.78,0,0,0,1.08,0,.76.76,0,0,0-.06-1.07Z"/><path class="cls-10" d="M937.36,55.64a.55.55,0,0,1,.87.34,1.48,1.48,0,0,1-.44.46,1,1,0,0,1-.33-.6Z"/><path class="cls-10" d="M983.34,12.3c-.2-.14-.39.26-.2.4s.47,0,.63-.15a.53.53,0,0,0-.55-.26Z"/><path class="cls-10" d="M970.69,67.86l-.45.31a1,1,0,0,0,.23.35.52.52,0,0,0,.37-.62Z"/><path class="cls-10" d="M968.16,21.87l-.45.32a1.08,1.08,0,0,0,.23.34.52.52,0,0,0,.37-.62Z"/><path class="cls-10" d="M963.78,45.18a1.92,1.92,0,0,1,1.74-.6.44.44,0,0,1,.22.1.37.37,0,0,1,0,.34c-.15.69-.45,1.52-1.16,1.61a.91.91,0,0,1-.92-1.19l.58-.15Z"/><path class="cls-10" d="M997.24,69.11a1.93,1.93,0,0,1,1.75-.59.31.31,0,0,1,.21.09.39.39,0,0,1,0,.35c-.15.68-.45,1.51-1.15,1.61a.91.91,0,0,1-.92-1.2l.57-.15Z"/><path class="cls-10" d="M739.61,82.51a12.36,12.36,0,0,0,2.92-4.74,2.25,2.25,0,0,0,.14-.88,1.75,1.75,0,0,0-1.09-1.28,3.69,3.69,0,0,0-4,.76,4.42,4.42,0,0,0-1.14,3.94,2.94,2.94,0,0,0,1.19,2,1.72,1.72,0,0,0,2.17-.17.38.38,0,0,0-.59-.2Z"/><path class="cls-10" d="M763.27,109.11a12.14,12.14,0,0,0,2.91-4.74,2.1,2.1,0,0,0,.15-.88,1.75,1.75,0,0,0-1.09-1.28,3.69,3.69,0,0,0-4,.76,4.42,4.42,0,0,0-1.14,3.94,3,3,0,0,0,1.18,2,1.74,1.74,0,0,0,2.18-.18.37.37,0,0,0-.59-.19Z"/><path class="cls-10" d="M731.19,83a3.14,3.14,0,0,0,.58-3,3.4,3.4,0,0,0-3,.77,2,2,0,0,0,0,2.84c.84.67,2.42,0,2.34-1Z"/><path class="cls-10" d="M733.16,73a3.57,3.57,0,0,0,.1-1.08s0-.09,0-.12a.15.15,0,0,0-.13,0c-.38,0-.71.49-1.05.32-.06,0-.12-.08-.19-.07s-.14.17-.11.27a1,1,0,0,0,1.43.58l-.06.16Z"/><path class="cls-10" d="M758.24,83.62a6.6,6.6,0,0,0,.17-2,.32.32,0,0,0-.07-.23.32.32,0,0,0-.25-.09c-.71,0-1.33.92-2,.6-.11-.05-.22-.15-.35-.14s-.26.32-.2.52a1.9,1.9,0,0,0,2.69,1.09c0,.1-.07.2-.11.29Z"/><path class="cls-10" d="M776.79,88.7a6.6,6.6,0,0,0,.17-2,.32.32,0,0,0-.07-.23.3.3,0,0,0-.24-.09c-.72,0-1.34.92-2,.6-.12,0-.23-.15-.36-.14s-.25.32-.2.52a1.9,1.9,0,0,0,2.69,1.09c0,.1-.07.2-.11.29Z"/><path class="cls-10" d="M738,68.73a1.63,1.63,0,0,0,.3-1.41,1.77,1.77,0,0,0-.64.2.58.58,0,0,0-.29.56c.06.3.41.43.71.52l-.22.12Z"/><path class="cls-10" d="M735.82,65.88a.64.64,0,0,0,0-.41.61.61,0,0,0-.31-.26,7.13,7.13,0,0,1-.92-.63c.11.6.22,1.2.32,1.81a.32.32,0,0,1,0,.14c0,.17-.27.19-.39.31s-.1.47,0,.68C735.52,69,735.66,66.62,735.82,65.88Z"/><path class="cls-10" d="M765.49,59.4a.64.64,0,0,0,0-.41.61.61,0,0,0-.31-.26,7.13,7.13,0,0,1-.92-.63c.11.6.22,1.2.32,1.81a.32.32,0,0,1,0,.14c0,.17-.27.19-.39.31s-.1.47,0,.68C765.19,62.54,765.33,60.14,765.49,59.4Z"/><path class="cls-10" d="M745.64,59c0-.18,0-.36-.07-.54a.86.86,0,0,0-.74.69c0,.35.39.7.7.52s.45-.37.57-.18Z"/><path class="cls-10" d="M749.28,67.64a.79.79,0,0,1-1.28,0,.74.74,0,1,1,1.31,0Z"/><path class="cls-10" d="M752.33,75.4c.15.37.26.89-.09,1.1s-.73-.11-1-.4c-.11-.12-.24-.28-.19-.43.12-.39.88,0,1.08-.4.12,0,.15.21,0,.23Z"/><path class="cls-10" d="M741.27,102.22a.93.93,0,0,0-.52,0,2.12,2.12,0,0,0-.42.32c-.34.23-.81.16-1.2.3-.67.25-.9,1.07-1,1.76,0,.17-.05.36.08.47a.57.57,0,0,0,.34.1c.86.12.93,1,1.64,1.31a2.37,2.37,0,0,0,2-.38A2.32,2.32,0,0,0,741.27,102.22Z"/><path class="cls-10" d="M793.84,108.17a.85.85,0,0,0-.52,0,1.85,1.85,0,0,0-.43.32c-.34.23-.81.15-1.2.3-.67.25-.89,1.06-1,1.76,0,.16-.06.36.07.47a.65.65,0,0,0,.34.1c.86.12.94,1,1.64,1.31a2.37,2.37,0,0,0,2-.38A2.33,2.33,0,0,0,793.84,108.17Z"/><path class="cls-10" d="M735.33,74.13a.86.86,0,0,1,0,.45,1.27,1.27,0,0,1-.53-1c0-.21,0-.48.15-.58s.3,0,.45-.06c.3,0,.61-.35.86-.18a.38.38,0,0,1,.08.46,1.16,1.16,0,0,1-.37.36l-.92.64Z"/><path class="cls-10" d="M729.59,75.73c.15-.28-.28-.57-.57-.44a1.17,1.17,0,0,0-.49.77,1.11,1.11,0,0,0,1.21-.22Z"/><path class="cls-10" d="M731,71.3a1.14,1.14,0,0,0,.06-.45.37.37,0,0,0-.28-.33c-.25,0-.44.22-.69.29s-.54-.08-.75.07a.42.42,0,0,0,0,.64,1.13,1.13,0,0,0,.72.18,1.23,1.23,0,0,0,.66-.13A.47.47,0,0,0,731,71Z"/><path class="cls-10" d="M731.38,69.31a.3.3,0,0,1-.4,0,.54.54,0,0,1-.17-.39.51.51,0,0,1,.05-.25.37.37,0,0,1,.52-.13.39.39,0,0,1,.1.53.44.44,0,0,1-.54.13Z"/><path class="cls-10" d="M711.05,62.7a.29.29,0,0,1-.4,0,.49.49,0,0,1-.17-.39.46.46,0,0,1,0-.26.37.37,0,1,1,.63.4.44.44,0,0,1-.54.14Z"/><path class="cls-10" d="M733.37,69.57a.44.44,0,0,0,.55-.52.75.75,0,0,0-.49,0,.37.37,0,0,0-.26.37.26.26,0,0,0,.37.18Z"/><path class="cls-10" d="M753.32,61.7a.43.43,0,0,0,.55-.51.79.79,0,0,0-.48,0,.36.36,0,0,0-.26.37.24.24,0,0,0,.36.18Z"/><path class="cls-10" d="M740.29,71.2a1.24,1.24,0,0,0,.57-.93h-.94a.79.79,0,0,0-.43.08.49.49,0,0,0-.06.73.71.71,0,0,0,.8.1Z"/><path class="cls-10" d="M746.26,78.09l.15,1.65c-.25.15-.5-.19-.59-.46a1.5,1.5,0,0,1-.11-.83c.08-.27.41-.5.66-.37Z"/><path class="cls-10" d="M746.51,86.61a.59.59,0,0,0,.22-1,.9.9,0,0,0-1.14,0,.7.7,0,0,0-.26.45.62.62,0,0,0,.49.57,1.85,1.85,0,0,0,.81,0Z"/><path class="cls-10" d="M751.7,73.1a.93.93,0,0,0,.7-.8,1.16,1.16,0,0,0-.8-.07A.78.78,0,0,0,751,73c.07.35.64.52.82.2Z"/><path class="cls-10" d="M748.9,75.83a.57.57,0,0,1-.67.25c0-.28-.05-.56-.08-.84a.67.67,0,0,1,.92.44Z"/><path class="cls-10" d="M747.47,114l-1.23.55a.81.81,0,0,0-.31.21.77.77,0,0,0-.12.37c-.06.47,0,1.06.38,1.26s.95-.22,1.38-.52c.8-.55,3.46-.69,3.28-2.07S748.22,113.68,747.47,114Z"/><path class="cls-10" d="M745.46,83.76l.11.32a1.84,1.84,0,0,1-.77-.17.63.63,0,0,1-.34-.65c.07-.25.45-.39.62-.19a1.41,1.41,0,0,1,.35.7Z"/><path class="cls-10" d="M728,72.18a.6.6,0,0,1-.59.19.58.58,0,0,1-.41-.46c0-.15.06-.34.21-.33a.28.28,0,0,1,.17.07l.7.45-.1.11Z"/><path class="cls-10" d="M723.8,71.24c-.18-.21-.51-.15-.77,0s-.56.19-.78,0a.25.25,0,0,1-.11-.19c0-.19.28-.21.46-.29a1.88,1.88,0,0,0,.36-.27.92.92,0,0,1,1,0,.5.5,0,0,1,0,.55.51.51,0,0,1-.52.18Z"/><path class="cls-10" d="M724.45,68.62c0-.1,0-.2,0-.31a.41.41,0,0,0-.48,0,.32.32,0,0,0,0,.45.27.27,0,0,0,.41-.15Z"/><path class="cls-10" d="M718.32,64.56l0-.31a.38.38,0,0,0-.47,0,.31.31,0,0,0,0,.45.28.28,0,0,0,.41-.16Z"/><path class="cls-10" d="M735.67,69.68c-.13.16.06.4.26.44a4.28,4.28,0,0,0,.62,0,.74.74,0,0,1,.52.32.35.35,0,0,1,.06.34.46.46,0,0,1-.18.16,2.26,2.26,0,0,1-1.15.36,1,1,0,0,1-1-.6.77.77,0,0,1,.15-.78.81.81,0,0,1,.76-.26Z"/><path class="cls-10" d="M755.25,49.89c-.12.16.06.4.27.44a4.14,4.14,0,0,0,.61,0,.76.76,0,0,1,.53.32.35.35,0,0,1,.06.34.49.49,0,0,1-.19.16,2.25,2.25,0,0,1-1.14.36,1,1,0,0,1-1-.6.79.79,0,0,1,.14-.78.85.85,0,0,1,.77-.26Z"/><path class="cls-10" d="M740,66.33a.48.48,0,0,0,.06-.67.7.7,0,0,0-.7-.21c-.11,0-.23.09-.23.2s.07.13.13.18l.73.6Z"/><path class="cls-10" d="M750,58.77a2.57,2.57,0,0,0,1.92-.25.4.4,0,0,0,.22-.24c.06-.25-.28-.36-.5-.5-.37-.22-.5-.71-.87-.92a1.6,1.6,0,0,0-1-.09c-.5.07-1.15.31-1.11.81a.92.92,0,0,0,.45.61,4.89,4.89,0,0,0,1.48.74Z"/><path class="cls-10" d="M762.62,74.07c.32.24.74-.13,1-.47a.79.79,0,0,0,.19-.69c-.13-.31-.56-.33-.89-.31l-.88.07a.46.46,0,0,0-.36.13.42.42,0,0,0,0,.33,4,4,0,0,0,.68,1.57Z"/><path class="cls-10" d="M752.78,82.52c2.57,2.46,5.21-.75,3.58-3.3S750.55,80.38,752.78,82.52Z"/><path class="cls-10" d="M733.05,78.5a.84.84,0,0,1-1.19-.58A2.13,2.13,0,0,1,733,77.7c.39.09.74.51.59.88l-.64.31Z"/><path class="cls-10" d="M729.56,95.09c0-.19,0-.38-.07-.56a5.14,5.14,0,0,1-2,0,5.1,5.1,0,0,0-1-.18,1,1,0,0,0-.88.42c-.32.54.23,1.2.8,1.48a2.82,2.82,0,0,0,2.34.1,1.89,1.89,0,0,0,1.12-1.92l-.79.06Z"/><path class="cls-10" d="M726,86.44c.24-.11.13-.3-.14-.36a3.14,3.14,0,0,0-.92,0l-2.1.21a2,2,0,0,0-1,.29c-.14.15,0,.32.32.39a4.53,4.53,0,0,0,1,0,5.53,5.53,0,0,0,3.06-.69l-.55-.16Z"/><path class="cls-10" d="M720.3,70.15a.23.23,0,0,1-.31,0,.51.51,0,0,1-.17-.3.54.54,0,0,1,0-.28.43.43,0,0,1,.42-.31.55.55,0,0,1,.45.31.32.32,0,0,1,0,.27.18.18,0,0,1-.22.11Z"/><path class="cls-10" d="M785.94,71.57A7.44,7.44,0,0,0,787.4,71a.45.45,0,0,0-.23-.34,1.42,1.42,0,0,0-2,.47.48.48,0,0,0-.06.33.37.37,0,0,0,.36.23,1,1,0,0,0,.44-.11Z"/><path class="cls-10" d="M732.51,66.85c0-.11,0-.22,0-.32a.69.69,0,0,0-.49,0c-.15.09-.17.34,0,.4a.41.41,0,0,0,.19,0l.6-.13Z"/><path class="cls-10" d="M744.44,66.6a2.08,2.08,0,0,0,.25-.75.67.67,0,0,0-.36-.66.68.68,0,0,0-.4,0,.77.77,0,0,0-.5,1,.78.78,0,0,0,1,.44Z"/><path class="cls-10" d="M757.6,62.33a.55.55,0,0,1-.71.59,1.43,1.43,0,0,1-.2-.59,1,1,0,0,1,.69,0Z"/><path class="cls-10" d="M775.05,122.56c.22-.11,0-.47-.27-.37a.5.5,0,0,0-.16.62.52.52,0,0,0,.5-.35Z"/><path class="cls-10" d="M731,85.58c0-.18,0-.36-.07-.54a1.18,1.18,0,0,0-.42,0,.51.51,0,0,0,.39.61Z"/><path class="cls-10" d="M773.55,104.89c0-.18,0-.36-.07-.54a1.18,1.18,0,0,0-.42,0,.51.51,0,0,0,.39.61Z"/><path class="cls-10" d="M754.65,90.18a1.83,1.83,0,0,1-.28,1.79.29.29,0,0,1-.19.14.37.37,0,0,1-.32-.13c-.55-.45-1.15-1.1-.91-1.76a.94.94,0,0,1,1.51-.24c-.05.19-.09.38-.14.57Z"/><path class="cls-10" d="M717.48,108.07a1.83,1.83,0,0,1-.28,1.79c-.05.06-.1.13-.18.14a.4.4,0,0,1-.33-.13c-.54-.45-1.15-1.1-.9-1.76a.93.93,0,0,1,1.5-.24c0,.19-.09.38-.13.57Z"/></g></g></g></g></svg>