<svg xmlns="http://www.w3.org/2000/svg" viewBox="0 0 202.31 113.2"><defs><style>.cls-1{isolation:isolate;}.cls-2{fill:#455b64;}.cls-3,.cls-8{fill:#e9e9a8;}.cls-3{opacity:0.51;mix-blend-mode:soft-light;}.cls-4{fill:#610051;opacity:0.5;mix-blend-mode:multiply;}.cls-5{fill:#263238;}.cls-6{fill:#1de9b6;}.cls-7{fill:#02fffc;}.cls-8{opacity:0.15;}</style></defs><g class="cls-1"><g id="Layer_2" data-name="Layer 2"><g id="Layer_1-2" data-name="Layer 1"><g id="botom-center-rock-2"><polyline id="botom-center-rock-2-2" data-name="botom-center-rock-2" class="cls-2" points="202.31 113.2 121.44 45.8 74.83 39.73 33.83 54.68 12.47 74.84 0 113.2"/><path class="cls-3" d="M33.83,54.68S46.5,74.56,74.83,80s72.46-12.64,72.46-12.64L121.44,45.8,74.83,39.74Z"/><polygon class="cls-4" points="60.17 75.46 44.63 113.2 0 113.2 12.47 74.84 33.83 54.68 60.17 75.46"/><path class="cls-5" d="M132.4,66c-1.59,2.43-5.56,4.13-10.72,5.34-10.2,2.42-24.92,3-34.05,3.48-13.7.72-47.42-15-37.94-20.17a64.46,64.46,0,0,1,6.2-2.91C92.24,37.12,136.84,59.23,132.4,66Z"/><path class="cls-6" d="M121.68,71.36c-10.2,2.42-24.92,3-34.05,3.48-13.7.72-47.42-15-37.94-20.17a64.46,64.46,0,0,1,6.2-2.91c11.21-1.21,26.34-1.51,39.83,2.91C110.09,59.39,117.74,66.26,121.68,71.36Z"/><path class="cls-7" d="M77,32.65a12.14,12.14,0,0,0,2.91-4.74A2,2,0,0,0,80,27,1.75,1.75,0,0,0,79,25.75a3.69,3.69,0,0,0-4,.77,4.41,4.41,0,0,0-1.14,3.94,3,3,0,0,0,1.18,2,1.74,1.74,0,0,0,2.18-.17.38.38,0,0,0-.59-.2Z"/><path class="cls-7" d="M100.63,59.25a12,12,0,0,0,2.92-4.74,2,2,0,0,0,.15-.88,1.78,1.78,0,0,0-1.09-1.28,3.69,3.69,0,0,0-4,.77,4.38,4.38,0,0,0-1.14,3.94,3,3,0,0,0,1.18,2,1.73,1.73,0,0,0,2.17-.17.36.36,0,0,0-.58-.2Z"/><path class="cls-7" d="M68.55,33.09a3.08,3.08,0,0,0,.58-3,3.44,3.44,0,0,0-3,.77,2,2,0,0,0,0,2.84c.83.68,2.42.05,2.34-1Z"/><path class="cls-7" d="M70.53,23.17a3.21,3.21,0,0,0,.09-1.07.19.19,0,0,0,0-.13.22.22,0,0,0-.13,0c-.39,0-.72.49-1,.32-.07,0-.12-.09-.19-.08s-.14.17-.11.28a1,1,0,0,0,1.43.57l-.06.16Z"/><path class="cls-7" d="M95.6,33.76a6.93,6.93,0,0,0,.18-2,.45.45,0,0,0-.07-.23.32.32,0,0,0-.25-.09c-.72,0-1.34.93-2,.61-.11-.06-.22-.16-.35-.14s-.26.31-.21.52a1.91,1.91,0,0,0,2.69,1.09c0,.09-.07.19-.1.29Z"/><path class="cls-7" d="M114.16,38.84a6.92,6.92,0,0,0,.17-2,.32.32,0,0,0-.07-.23.32.32,0,0,0-.25-.09c-.71,0-1.34.93-2,.61-.11-.06-.22-.16-.35-.14s-.26.31-.21.52a1.91,1.91,0,0,0,2.69,1.09c0,.09-.07.19-.1.29Z"/><path class="cls-7" d="M75.4,18.87a1.61,1.61,0,0,0,.3-1.4,1.46,1.46,0,0,0-.64.2.56.56,0,0,0-.29.56c.06.29.41.43.71.51l-.23.12Z"/><path class="cls-7" d="M73.19,16a.58.58,0,0,0,0-.41.64.64,0,0,0-.3-.26,5.76,5.76,0,0,1-.92-.63c.11.6.21,1.21.32,1.81a.34.34,0,0,1,0,.14c0,.17-.27.2-.4.31s-.09.48,0,.69C72.89,19.16,73,16.76,73.19,16Z"/><path class="cls-7" d="M102.86,9.54a.64.64,0,0,0,0-.41.72.72,0,0,0-.31-.26,6.25,6.25,0,0,1-.92-.63c.11.6.21,1.21.32,1.81a.34.34,0,0,1,0,.14c0,.17-.27.2-.4.31s-.09.48,0,.69C102.56,12.68,102.69,10.28,102.86,9.54Z"/><path class="cls-7" d="M83,9.12l-.06-.53a.84.84,0,0,0-.74.68c0,.36.39.71.7.53s.45-.37.56-.18Z"/><path class="cls-7" d="M86.65,17.79a.8.8,0,0,1-1.28,0,.74.74,0,1,1,1.31,0Z"/><path class="cls-7" d="M89.69,25.54c.16.37.27.89-.08,1.1s-.74-.11-1-.39c-.12-.13-.24-.28-.19-.44.12-.39.88,0,1.08-.4.12,0,.14.21,0,.23Z"/><path class="cls-7" d="M78.64,52.36a.85.85,0,0,0-.52,0,1.83,1.83,0,0,0-.42.31c-.34.24-.81.16-1.2.3-.68.26-.9,1.07-1,1.77a.52.52,0,0,0,.07.47.68.68,0,0,0,.35.1c.86.12.93,1,1.63,1.31a2.4,2.4,0,0,0,2-.39A2.32,2.32,0,0,0,78.64,52.36Z"/><path class="cls-7" d="M131.2,58.32a.85.85,0,0,0-.52,0c-.16,0-.28.21-.42.31-.34.24-.81.16-1.2.3-.67.25-.9,1.07-1,1.77a.47.47,0,0,0,.08.46.65.65,0,0,0,.34.11c.86.12.93,1,1.64,1.3a2.37,2.37,0,0,0,2-.38A2.32,2.32,0,0,0,131.2,58.32Z"/><path class="cls-7" d="M72.69,24.28a.66.66,0,0,1,0,.44,1.23,1.23,0,0,1-.53-1c0-.22,0-.48.16-.59s.3,0,.45-.06c.3,0,.61-.35.86-.18a.37.37,0,0,1,.07.47,1.1,1.1,0,0,1-.36.35l-.92.65Z"/><path class="cls-7" d="M67,25.87c.15-.27-.28-.57-.57-.43a1.1,1.1,0,0,0-.49.76A1.12,1.12,0,0,0,67.11,26Z"/><path class="cls-7" d="M68.39,21.45a1.17,1.17,0,0,0,.06-.45.43.43,0,0,0-.28-.34c-.25-.05-.44.23-.69.3s-.54-.08-.75.06a.42.42,0,0,0,0,.65,1.11,1.11,0,0,0,.72.18,1.29,1.29,0,0,0,.65-.13.48.48,0,0,0,.23-.57Z"/><path class="cls-7" d="M68.75,19.45a.28.28,0,0,1-.4,0,.54.54,0,0,1-.17-.39.56.56,0,0,1,0-.25.37.37,0,0,1,.52-.13.39.39,0,0,1,.1.53.43.43,0,0,1-.54.13Z"/><path class="cls-7" d="M48.41,12.85a.28.28,0,0,1-.39,0,.48.48,0,0,1-.17-.39.43.43,0,0,1,0-.25.37.37,0,0,1,.52-.13.38.38,0,0,1,.1.53.43.43,0,0,1-.53.13Z"/><path class="cls-7" d="M70.74,19.71a.44.44,0,0,0,.55-.52.82.82,0,0,0-.49,0,.38.38,0,0,0-.26.37.25.25,0,0,0,.37.18Z"/><path class="cls-7" d="M90.69,11.85a.44.44,0,0,0,.55-.52.75.75,0,0,0-.49,0,.37.37,0,0,0-.26.37.26.26,0,0,0,.37.18Z"/><path class="cls-7" d="M77.66,21.34a1.22,1.22,0,0,0,.56-.93h-.93a.89.89,0,0,0-.43.08.48.48,0,0,0-.06.73.69.69,0,0,0,.8.1Z"/><path class="cls-7" d="M83.62,28.23c0,.55.11,1.1.16,1.66-.25.14-.5-.19-.59-.46a1.53,1.53,0,0,1-.11-.84.51.51,0,0,1,.66-.36Z"/><path class="cls-7" d="M83.88,36.75a.59.59,0,0,0,.21-1,.89.89,0,0,0-1.13,0,.55.55,0,0,0,.23,1,1.85,1.85,0,0,0,.81,0Z"/><path class="cls-7" d="M89.06,23.25a1,1,0,0,0,.71-.81,1.19,1.19,0,0,0-.81-.07.78.78,0,0,0-.6.79c.07.35.64.52.81.2Z"/><path class="cls-7" d="M86.27,26a.57.57,0,0,1-.67.24c0-.28,0-.56-.08-.84a.67.67,0,0,1,.92.45Z"/><path class="cls-7" d="M84.84,64.16l-1.23.54a.77.77,0,0,0-.31.21.81.81,0,0,0-.12.37c-.06.47-.06,1.06.37,1.27s1-.23,1.39-.52c.79-.55,3.46-.69,3.28-2.08S85.59,63.83,84.84,64.16Z"/><path class="cls-7" d="M82.83,33.9c0,.11.07.22.11.33a2,2,0,0,1-.77-.18.6.6,0,0,1-.34-.64.39.39,0,0,1,.62-.2,1.32,1.32,0,0,1,.34.7Z"/><path class="cls-7" d="M65.4,22.32a.58.58,0,0,1-.59.19.57.57,0,0,1-.41-.46c0-.15.06-.33.21-.33a.36.36,0,0,1,.17.07l.69.46-.09.1Z"/><path class="cls-7" d="M61.17,21.38c-.18-.2-.51-.14-.77-.05s-.57.19-.78,0a.23.23,0,0,1-.11-.18c0-.19.28-.22.45-.29a3.27,3.27,0,0,0,.37-.28.92.92,0,0,1,1,0,.49.49,0,0,1,0,.54.5.5,0,0,1-.52.18Z"/><path class="cls-7" d="M61.82,18.77l0-.31a.38.38,0,0,0-.47.05.31.31,0,0,0,0,.45.28.28,0,0,0,.41-.16Z"/><path class="cls-7" d="M55.69,14.7l0-.31a.39.39,0,0,0-.47,0,.31.31,0,0,0,0,.45.27.27,0,0,0,.41-.15Z"/><path class="cls-7" d="M73,19.83c-.13.16,0,.39.26.44s.41,0,.61,0a.75.75,0,0,1,.53.31.35.35,0,0,1,.06.34.42.42,0,0,1-.19.16,2.27,2.27,0,0,1-1.14.37,1,1,0,0,1-1-.61.79.79,0,0,1,.14-.78.85.85,0,0,1,.77-.26Z"/><path class="cls-7" d="M92.62,0c-.12.16.06.4.26.44s.41,0,.62,0A.75.75,0,0,1,94,.79a.33.33,0,0,1,0,.34.35.35,0,0,1-.18.16,2.18,2.18,0,0,1-1.15.37,1,1,0,0,1-1-.61.79.79,0,0,1,.14-.78A.82.82,0,0,1,92.7,0Z"/><path class="cls-7" d="M77.35,16.48a.49.49,0,0,0,.06-.68.72.72,0,0,0-.7-.21c-.11,0-.24.09-.23.2s.07.14.13.19l.73.59Z"/><path class="cls-7" d="M87.32,8.92a2.57,2.57,0,0,0,1.92-.26c.09-.06.2-.13.22-.24s-.28-.36-.5-.49-.51-.71-.88-.93a1.57,1.57,0,0,0-1-.08c-.51.07-1.15.3-1.11.8a.93.93,0,0,0,.45.62,5,5,0,0,0,1.48.73Z"/><path class="cls-7" d="M100,24.21c.31.25.73-.13,1-.46a.76.76,0,0,0,.18-.69c-.12-.31-.55-.34-.89-.31l-.88.06a.48.48,0,0,0-.35.13.42.42,0,0,0,0,.33,3.75,3.75,0,0,0,.68,1.57Z"/><path class="cls-7" d="M90.15,32.66c2.57,2.46,5.21-.75,3.58-3.3S87.92,30.52,90.15,32.66Z"/><path class="cls-7" d="M70.42,28.65a.85.85,0,0,1-1.19-.59,2.18,2.18,0,0,1,1.17-.21c.4.08.75.5.59.87l-.63.32Z"/><path class="cls-7" d="M66.92,45.24c0-.19,0-.38-.07-.57a4.91,4.91,0,0,1-2,0,6,6,0,0,0-1-.18,1,1,0,0,0-.88.42c-.32.55.22,1.21.8,1.48a2.78,2.78,0,0,0,2.34.1,1.87,1.87,0,0,0,1.12-1.92l-.79.06Z"/><path class="cls-7" d="M63.31,36.58c.25-.11.13-.3-.13-.36a3.17,3.17,0,0,0-.92,0l-2.1.21a2.09,2.09,0,0,0-1,.28c-.15.16,0,.32.32.39a4,4,0,0,0,1,0,5.56,5.56,0,0,0,3-.68l-.55-.16Z"/><path class="cls-7" d="M57.67,20.29a.22.22,0,0,1-.31.05.49.49,0,0,1-.18-.3.65.65,0,0,1,0-.28.43.43,0,0,1,.43-.3.53.53,0,0,1,.44.31.34.34,0,0,1,0,.26c0,.08-.14.15-.22.12Z"/><path class="cls-7" d="M123.31,21.71a7.09,7.09,0,0,0,1.46-.59.46.46,0,0,0-.23-.33,1.41,1.41,0,0,0-2,.47.41.41,0,0,0-.06.32.39.39,0,0,0,.35.24,1.41,1.41,0,0,0,.45-.11Z"/><path class="cls-7" d="M69.87,17c0-.1,0-.21,0-.32a.68.68,0,0,0-.49,0c-.15.09-.18.35,0,.41a.41.41,0,0,0,.19,0l.6-.13Z"/><path class="cls-7" d="M81.8,16.74a2,2,0,0,0,.26-.75.7.7,0,0,0-.36-.66.61.61,0,0,0-.4,0,.77.77,0,0,0-.5.95.79.79,0,0,0,1,.44Z"/><path class="cls-7" d="M95,12.47a.54.54,0,0,1-.71.59,1.55,1.55,0,0,1-.21-.59,1,1,0,0,1,.7,0Z"/><path class="cls-7" d="M112.42,72.71c.21-.11,0-.47-.27-.37s-.24.4-.16.62a.52.52,0,0,0,.49-.36Z"/><path class="cls-7" d="M68.39,35.72c0-.18,0-.35-.07-.53a.82.82,0,0,0-.41,0,.51.51,0,0,0,.39.6Z"/><path class="cls-7" d="M110.91,55c0-.18,0-.36-.07-.54a.94.94,0,0,0-.41,0,.5.5,0,0,0,.38.6Z"/><path class="cls-7" d="M92,40.32a1.88,1.88,0,0,1-.28,1.8.38.38,0,0,1-.19.14c-.12,0-.23-.06-.32-.13-.55-.46-1.16-1.1-.91-1.76a.93.93,0,0,1,1.51-.24c0,.19-.09.38-.14.57Z"/><path class="cls-7" d="M54.85,58.21a1.86,1.86,0,0,1-.28,1.8.4.4,0,0,1-.18.14c-.12,0-.24-.06-.33-.13-.55-.46-1.15-1.1-.91-1.76A.93.93,0,0,1,54.66,58c0,.19-.09.38-.14.57Z"/><polygon class="cls-8" points="74.83 39.73 33.83 54.68 12.47 74.84 20.69 74.84 42.05 54.68 80.89 40.52 74.83 39.73"/></g></g></g></g></svg>