<svg xmlns="http://www.w3.org/2000/svg" viewBox="0 0 760.36 337.16"><defs><style>.cls-1{isolation:isolate;}.cls-2{fill:#455b64;}.cls-3{fill:#570048;opacity:0.3;mix-blend-mode:multiply;}.cls-4,.cls-7{fill:#dfdfa1;mix-blend-mode:soft-light;}.cls-4{opacity:0.51;}.cls-5{fill:#455a64;}.cls-6{fill:#1de9b6;}.cls-7{opacity:0.16;}.cls-8{fill:#263238;}.cls-9{fill:#37474f;}</style></defs><g class="cls-1"><g id="Layer_2" data-name="Layer 2"><g id="Layer_1-2" data-name="Layer 1"><g id="center-rock"><path class="cls-2" d="M220.44,328.83l109.85,8.33,88.94-4-45-6.76L426,321.89H696.62l-103.93-8.74-20.93-24-37.08-7.74-18.11-4-28.46-5.51L500.79,142.3l-3-9.23V43.86L453.78,0l-14.4,41.84L410.49,65.37,384.62,180.24s-41.37,10.35-65.1,37.95v59.52l-11.22,11.43L301,314.35,285.41,318Z"/><polygon class="cls-3" points="319.52 218.19 332.18 235.26 332.18 253.34 347.27 259.61 347.27 316.85 323.02 305.45 319.51 277.71 319.52 218.19"/><polygon class="cls-3" points="300.96 314.35 319.51 330.12 231.53 329.67 300.96 314.35"/><polygon class="cls-3" points="384.62 180.24 414.65 192.9 422.88 282.65 430.42 147.68 430.42 81.01 410.49 65.37 384.62 180.24"/><polygon class="cls-3" points="439.38 41.84 448.92 44.66 444.15 123.25 458.53 41.69 445.44 24.22 439.38 41.84"/><path class="cls-4" d="M332.18,235.26s12.56,2.34,37.58-4.52,44.89-37.84,44.89-37.84l-30-12.66s-32.75,4.83-65.1,37.95Z"/><polygon class="cls-4" points="308.29 289.14 314.93 302.02 323.02 305.45 319.51 277.71 308.29 289.14"/><polygon class="cls-4" points="430.42 81.01 439.38 73.73 439.38 69 448.92 44.66 439.38 41.84 410.49 65.37 430.42 81.01"/><polygon class="cls-4" points="445.44 24.22 458.53 41.69 476.73 44.66 479.08 41.84 483.14 41.84 497.82 43.86 453.78 0 445.44 24.22"/><polygon class="cls-4" points="498.23 135.13 487.3 148.04 455.37 152.15 445.44 160.67 458.53 156.25 489.54 156.25 489.54 166.08 500.79 142.3 498.23 135.13"/><polygon class="cls-4" points="488.11 271.88 434.99 291.58 483.14 295.63 483.14 299.28 514.95 299.28 576.63 299.28 571.76 289.14 488.11 271.88"/><polygon class="cls-3" points="434.99 291.58 434.99 308.88 439.38 308.88 437.18 321.89 476.73 322.78 483.14 299.28 483.14 295.63 434.99 291.58"/><path class="cls-5" d="M403,193.73s-5.43,19.12-22.16,28.79-45.23,8.22-45.23,8.22-8.74-5-8.46-12.55,43-29.25,51.63-30.4S403,193.73,403,193.73Z"/><path class="cls-6" d="M338.34,230.81s8.91-12.45,26.73-21.57,33.76-5.87,33.76-5.87-3.21,10-18,19.15S338.34,230.81,338.34,230.81Z"/><polygon class="cls-7" points="347.27 259.61 392.04 251.13 419.18 242.28 422.88 282.65 368.58 305.45 350.45 291.58 347.27 259.61"/><polygon class="cls-7" points="476.73 44.66 473.12 87.73 458.53 106.92 445.44 119.71 458.53 41.69 476.73 44.66"/><polygon class="cls-8" points="497.82 107.6 487.53 113.32 467.35 150.61 458.53 156.25 442.52 193.73 437.95 194.65 425.52 235.25 439.38 195.79 446.36 194.61 459.89 156.95 471.63 150.06 489.54 114.69 497.82 111.49 497.82 107.6"/><polygon class="cls-9" points="459.89 156.95 447.89 195.96 445.44 195.96 439.38 195.79 446.36 194.61 459.89 156.95"/><polygon class="cls-9" points="489.54 114.69 492.4 115.26 497.82 113.32 497.82 111.49 489.54 114.69"/><polygon class="cls-9" points="487.76 156.25 493.68 154.67 489.54 166.08 487.76 156.25"/><polygon class="cls-9" points="426.92 78.26 430.42 84.83 433.8 78.26 426.92 78.26"/><polygon class="cls-9" points="328.9 230.84 332.18 239.65 335.15 235.56 328.9 230.84"/><polygon class="cls-9" points="479.41 295.31 482.03 303.36 487.76 299.33 483.14 295.63 479.41 295.31"/><polygon class="cls-8" points="401.99 242.18 397.38 256.67 401.99 249.43 401.99 242.18"/><polygon class="cls-9" points="401.99 242.18 401.99 249.43 397.38 256.67 403.4 250.52 401.99 242.18"/><polygon class="cls-8" points="437.07 162.29 424.1 154.36 430.04 160.56 437.07 162.29"/><polygon class="cls-9" points="437.07 162.29 430.04 160.56 424.1 154.36 428.64 161.67 437.07 162.29"/><path class="cls-2" d="M760.36,323.24l-25.67-.82-82.46-2.63-.55,0s.47-.93,1.29-2.52c0,0,0,0,0-.06,4.71-8.93,20.48-38.08,27.41-39.45a6.87,6.87,0,0,1,.77,0c7.62,1,56.26,19.58,59.68,23S760.36,323.24,760.36,323.24Z"/><path class="cls-2" d="M122.87,331.49l-39.5,1.57s-24.78,2.05-40.16,3h0c-6.47.42-11.3.61-11.84.36C29.47,335.61,3.78,331.93,0,331c0,0,19.79-14,30.87-20.54,3.29-1.94,5.81-3.23,6.83-3.31,4.46-.36,34.26,1.7,38.21,3.07,1.56.54,3.07,3.67,4.33,7.21A99.91,99.91,0,0,1,83.37,329Z"/><path class="cls-3" d="M43.18,336c-6.47.42-11.3.61-11.84.36C29.47,335.61,3.78,331.93,0,331c0,0,19.79-14,30.87-20.54l6.83-3.31-3.21,11.95,3.21,2.22-1.59,7.73Z"/><path class="cls-3" d="M734.69,322.42l-83-.52s.19-.77.55-2.11c.22-.72.47-1.57.74-2.55,0,0,0,0,0-.06,4.71-8.93,20.48-38.08,27.41-39.45a6.87,6.87,0,0,1,.77,0l-9,21.58,19,6.17,2,6.39Z"/><path class="cls-4" d="M740.86,300.68s-4.3,3.62-21.22,2.69-47.51-4.09-47.51-4.09l9-21.58C688.8,278.72,737.44,297.28,740.86,300.68Z"/><path class="cls-4" d="M80.24,317.46c-15.13,2.24-45.75,1.67-45.75,1.67l3.21-11.95c4.46-.36,34.26,1.7,38.21,3.07C77.47,310.79,79,313.92,80.24,317.46Z"/></g></g></g></g></svg>