<svg xmlns="http://www.w3.org/2000/svg" xmlns:xlink="http://www.w3.org/1999/xlink" viewBox="0 0 1919.05 308.88"><defs><style>.cls-1{isolation:isolate;}.cls-2{fill:#90a4ae;}.cls-3{fill:url(#linear-gradient);}.cls-4{fill:#ffb;opacity:0.5;mix-blend-mode:soft-light;}.cls-5{fill:#78909c;opacity:0.24;mix-blend-mode:multiply;}.cls-6{fill:#607d8b;}.cls-7{fill:#546e7a;}</style><linearGradient id="linear-gradient" x1="1128.13" y1="2.31" x2="1128.13" y2="41.81" gradientUnits="userSpaceOnUse"><stop offset="0" stop-color="#7e959e"/><stop offset="1" stop-color="#90a4ae"/></linearGradient></defs><g class="cls-1"><g id="Layer_2" data-name="Layer 2"><g id="Layer_1-2" data-name="Layer 1"><g id="ground"><rect class="cls-2" y="40.6" width="1919.05" height="268.27"/><polygon class="cls-3" points="1919.05 4.11 1834.98 26.84 1802.08 34.73 1726.23 34.73 1680.26 34.73 1638.33 23.76 1540.96 26.84 1519.7 34.73 1473.1 26.84 1437 15.65 1377.42 23.76 1377.42 34.73 1334.76 34.73 1227.28 34.73 1199.41 0 1170.16 4.11 1162.87 10.97 1152.8 11.88 1147.32 17.36 1129.93 23.76 1108.02 34.73 984.66 34.73 949.02 34.73 917.49 34.73 892.36 29.92 788.18 20.33 750.49 26.84 620.77 34.73 575.72 29.92 544.84 29.92 491.43 29.92 458.29 34.73 409.85 34.73 353.2 40.67 337.2 45.69 1919.05 40.6 1919.05 4.11"/><polygon class="cls-4" points="1388.23 28.41 1437 32.2 1454.71 23.76 1437 15.65 1377.42 23.76 1388.23 28.41"/><polygon class="cls-4" points="1540.96 26.84 1587.33 32.2 1627.99 28.41 1638.33 23.76 1540.96 26.84"/><polygon class="cls-4" points="1170.16 4.11 1191.18 8.91 1204.48 6.32 1199.41 0 1170.16 4.11"/><polygon class="cls-4" points="1152.8 11.88 1164.22 18.04 1174.28 14.96 1180.67 14.35 1162.87 10.97 1152.8 11.88"/><polygon class="cls-4" points="788.18 20.33 791.38 33.84 840.34 36.26 849.41 31.24 892.36 29.92 788.18 20.33"/><polygon class="cls-5" points="853.29 125.79 573 158.33 356.5 163.68 1634.51 172.94 828.69 203.98 676.59 172.94 632.75 174.74 594.93 174.74 437.56 192.87 383.35 205.04 558.25 214.49 1136.97 267.75 1657.38 308.88 0 308.88 8.47 105.3 853.29 125.79"/><g id="holes"><path class="cls-6" d="M1381.38,228.74l-.05.07a3.71,3.71,0,0,1-.91,1.05c-7.75,7-49.89,17.37-66.86,19.75-16.45,2.32-56.56-8.35-66.07-17.68h0c-1.73-1.69-2.44-3.33-1.81-4.84,4.22-10.11,55.74-13.93,64.89-13s66.87,6.49,70.9,13A1.5,1.5,0,0,1,1381.38,228.74Z"/><path class="cls-7" d="M1381.38,228.74l-.05.07-.91,1.05s-47.14-12.08-74.55-9.17c-26.87,2.88-57.23,10.75-58.38,11.24h0c-1.73-1.69-2.44-3.33-1.81-4.84,4.22-10.11,55.74-13.93,64.89-13s66.87,6.49,70.9,13A1.5,1.5,0,0,1,1381.38,228.74Z"/><path class="cls-6" d="M1475.83,101.4c-.08.14-.16.25-.24.38a9.91,9.91,0,0,1-2.94,2.33c-8.8,5-31.42,8.91-35.64,9.65-12.94,2.36-35.5-3.78-43-8.5-2.47-1.56-3.32-3-1.75-3.86C1398.63,97.67,1479.51,95,1475.83,101.4Z"/><path class="cls-7" d="M1475.83,101.4c-.08.14-.16.25-.24.38l-2.94,2.33s-5.26-4.27-7-4.27-35.12-2.06-47.45,0a245.66,245.66,0,0,0-24.13,5.45l-.11,0c-2.47-1.56-3.32-3-1.75-3.86C1398.63,97.67,1479.51,95,1475.83,101.4Z"/><path class="cls-6" d="M1117.22,48.33l-.25.19a11.59,11.59,0,0,1-2.93,1.16c-8.8,2.53-31.42,4.46-35.64,4.83-12.94,1.18-35.5-1.89-43-4.25-2.47-.78-3.32-1.48-1.76-1.93C1040,46.46,1120.89,45.15,1117.22,48.33Z"/><path class="cls-7" d="M1117.22,48.33l-.25.19L1114,49.68s-5.27-2.14-7-2.14-35.12-1-47.46,0-24.12,2.73-24.12,2.73h-.11c-2.47-.78-3.32-1.48-1.76-1.93C1040,46.46,1120.89,45.15,1117.22,48.33Z"/><path class="cls-7" d="M1519.34,103.5c-2.58,1.11-8.22,1.81-10.31,1.79a40.45,40.45,0,0,1-10.25-2l-.11,0c-1.84-.73-2.66-1.59-1-2.49,2.8-1.47,19.74-1.29,22.51.84C1521.09,102.33,1520.57,103,1519.34,103.5Z"/><path class="cls-7" d="M1519.34,103.5a45.81,45.81,0,0,0-6-.93,67.81,67.81,0,0,0-14.53.76l-.11,0c-1.84-.73-2.66-1.59-1-2.49,2.8-1.47,19.74-1.29,22.51.84C1521.09,102.33,1520.57,103,1519.34,103.5Z"/><path class="cls-6" d="M1579,49.79c-2.58,1.11-8.23,1.81-10.31,1.79a40.45,40.45,0,0,1-10.25-2l-.11,0c-1.84-.73-2.66-1.59-1-2.49,2.79-1.47,19.74-1.29,22.51.84C1580.78,48.62,1580.26,49.25,1579,49.79Z"/><path class="cls-7" d="M1579,49.79a45.81,45.81,0,0,0-6-.93,67.08,67.08,0,0,0-14.53.76l-.11,0c-1.84-.73-2.66-1.59-1-2.49,2.79-1.47,19.74-1.29,22.51.84C1580.78,48.62,1580.26,49.25,1579,49.79Z"/><path class="cls-6" d="M808.61,43.82c-2.58,1.11-8.22,1.81-10.31,1.79a40,40,0,0,1-10.25-2l-.11,0c-1.84-.73-2.66-1.59-1-2.49,2.8-1.47,19.74-1.29,22.51.85C810.37,42.65,809.84,43.28,808.61,43.82Z"/><path class="cls-7" d="M808.61,43.82a45.81,45.81,0,0,0-6-.93,67.81,67.81,0,0,0-14.53.76l-.11,0c-1.84-.73-2.66-1.59-1-2.49,2.8-1.47,19.74-1.29,22.51.85C810.37,42.65,809.84,43.28,808.61,43.82Z"/><path class="cls-6" d="M939.08,50.74c-2.57,1.1-8.22,1.81-10.3,1.79a40.51,40.51,0,0,1-10.26-2l-.11,0c-1.83-.74-2.66-1.6-1-2.49,2.8-1.47,19.74-1.3,22.51.84C940.84,49.57,940.32,50.2,939.08,50.74Z"/><path class="cls-7" d="M939.08,50.74a45.55,45.55,0,0,0-6-.93,67.47,67.47,0,0,0-14.53.75l-.11,0c-1.83-.74-2.66-1.6-1-2.49,2.8-1.47,19.74-1.3,22.51.84C940.84,49.57,940.32,50.2,939.08,50.74Z"/><path class="cls-6" d="M1231.33,225.68c-7.55,3.23-24.09,5.29-30.2,5.24-5.46,0-21.36-2.42-30-5.76l-.32-.1c-5.38-2.16-7.79-4.67-2.81-7.29,8.19-4.32,57.83-3.81,65.94,2.46C1236.48,222.23,1235,224.08,1231.33,225.68Z"/><path class="cls-7" d="M1231.33,225.68a131.09,131.09,0,0,0-17.67-2.73c-19.67-1.69-42.57,2.21-42.57,2.21l-.32-.1c-5.38-2.16-7.79-4.67-2.81-7.29,8.19-4.32,57.83-3.81,65.94,2.46C1236.48,222.23,1235,224.08,1231.33,225.68Z"/><path class="cls-6" d="M1006.47,100.94c-2.57,1.72-8.22,2.82-10.3,2.79a28,28,0,0,1-10.26-3.07l-.11,0c-1.83-1.15-2.66-2.5-1-3.9,2.8-2.3,19.74-2,22.51,1.32C1008.23,99.1,1007.71,100.09,1006.47,100.94Z"/><path class="cls-7" d="M1006.47,100.94a29.57,29.57,0,0,0-6-1.46c-6.71-.9-14.53,1.18-14.53,1.18l-.11,0c-1.83-1.15-2.66-2.5-1-3.9,2.8-2.3,19.74-2,22.51,1.32C1008.23,99.1,1007.71,100.09,1006.47,100.94Z"/></g><path class="cls-6" d="M707,196.33l-.05,0a3.11,3.11,0,0,1-.91.57c-7.75,3.77-23.63,14.24-66.86,10.67-16.44-1.36-56.56-4.51-66.07-9.55h0c-1.73-.91-2.44-1.8-1.81-2.62,4.22-5.46,55.74-7.52,64.89-7s66.87,3.51,70.9,7C707.37,195.73,707.31,196,707,196.33Z"/><path class="cls-7" d="M707,196.33l-.05,0-.91.57s-49.1-8.38-76.51-6.81c-26.87,1.56-55.27,7.66-56.42,7.93h0c-1.73-.91-2.44-1.8-1.81-2.62,4.22-5.46,55.74-7.52,64.89-7s66.87,3.51,70.9,7C707.37,195.73,707.31,196,707,196.33Z"/></g></g></g></g></svg>