<svg xmlns="http://www.w3.org/2000/svg" viewBox="0 0 139.17 241.43"><defs><style>.cls-1{isolation:isolate;}.cls-2{fill:#33484f;}.cls-3,.cls-4{fill:#e9e9a8;mix-blend-mode:soft-light;}.cls-3{opacity:0.51;}.cls-4{opacity:0.16;}.cls-5{fill:#263238;}.cls-6{fill:#1de9b6;}.cls-7{fill:#02fffc;}</style></defs><g class="cls-1"><g id="Layer_2" data-name="Layer 2"><g id="Layer_1-2" data-name="Layer 1"><g id="hole-2"><path class="cls-2" d="M111.74,55.26s-.9,49.44-34.71,81.33v34.72l5.48,7L77,241.43l62.14-92.7-6.56-10.18Z"/><path class="cls-3" d="M111.74,55.26S94.14,28.9,52.32,34.63c0,0-21.55,46.18-21.27,83.72,0,0,1.2,17.8,46,18.24C77,136.59,107,113.79,111.74,55.26Z"/><polygon class="cls-4" points="82.51 178.35 18.35 186.11 0 211.74 26.7 220.15 18.81 231.46 77.03 241.43 82.51 178.35"/><path class="cls-5" d="M103.79,76.27C100.5,93.1,88.63,119.35,77,125.63,65.82,131.7,52.5,128,45.59,122.26a13.88,13.88,0,0,1-4.33-5.66c-.33-.91-.6-1.86-.85-2.8-7.7-28,9.54-73.14,16.72-73.43,2.39-.11,7.93,1.18,14.42,3.39h0c13.57,4.61,31.31,13.29,32.87,21.78C104.92,68.13,104.64,71.88,103.79,76.27Z"/><path class="cls-6" d="M103.79,76.27C100.5,93.1,88.63,119.35,77,125.63,65.82,131.7,52.5,128,45.59,122.26a13.88,13.88,0,0,1-4.33-5.66c-.33-.91-.6-1.86-.85-2.8C62.72,96.28,91.73,81.91,103.79,76.27Z"/><path class="cls-7" d="M81.32,67.42a21,21,0,0,0-9.4-.53,3.42,3.42,0,0,0-1.44.48A2.89,2.89,0,0,0,69.41,70a6,6,0,0,0,4.27,5.21,7.64,7.64,0,0,0,6.82-1.42,5,5,0,0,0,2-3.26,2.8,2.8,0,0,0-2-3,.6.6,0,0,0,.17,1Z"/><path class="cls-7" d="M88.57,79.32a5.43,5.43,0,0,0-5,1.51,5.6,5.6,0,0,0,3.52,3.78c1.74.5,3.92-.46,4.28-2.21S89.56,78.85,88,79.79Z"/><path class="cls-7" d="M108.07,57.91a6.07,6.07,0,0,0-1.68.71.26.26,0,0,0-.16.15.25.25,0,0,0,0,.22c.3.56,1.29.65,1.3,1.28,0,.11,0,.24,0,.33s.36.07.5-.06a1.63,1.63,0,0,0-.25-2.52l.28,0Z"/><path class="cls-7" d="M68.42,39.48a12,12,0,0,0-3.18,1.33.65.65,0,0,0-.3.29.52.52,0,0,0,.06.42c.57,1,2.44,1.23,2.46,2.41,0,.21-.06.45.06.62s.68.13,1-.11A3.08,3.08,0,0,0,68,39.68l.52-.07Z"/><path class="cls-7" d="M61.84,80.49a2.8,2.8,0,0,0-2.34.66,2.7,2.7,0,0,0,.8.78,1,1,0,0,0,1.07,0c.4-.32.32-.93.22-1.43l.36.23Z"/><path class="cls-7" d="M59.29,85.94a.8.8,0,0,0-.76,1,10.18,10.18,0,0,1-.23,1.82l2.46-1.88a.68.68,0,0,1,.22-.12c.28-.07.5.24.77.33s.78-.24,1-.59C64.25,83.91,60.53,85.6,59.29,85.94Z"/><path class="cls-7" d="M26.34,47.88a1.11,1.11,0,0,0-.61.33,1.09,1.09,0,0,0-.15.64,10.18,10.18,0,0,1-.23,1.83l2.47-1.88a.55.55,0,0,1,.21-.12c.28-.07.5.24.77.33s.79-.24,1-.59C31.3,45.86,27.58,47.54,26.34,47.88Z"/><path class="cls-7" d="M41.24,77.06l-.75.52a1.47,1.47,0,0,0,1.61.54c.56-.23.76-1.12.24-1.43-.33-.2-.91-.37-.71-.68Z"/><path class="cls-7" d="M37,27.41a1.28,1.28,0,0,1,1,1.87,1.32,1.32,0,0,1-2.13-.05,1.28,1.28,0,0,1,1-1.82Z"/><path class="cls-7" d="M60.69,54.5c.44-.52,1.13-1.09,1.71-.74s.41,1.16.2,1.76c-.1.27-.24.57-.51.62-.68.13-.76-1.24-1.44-1.25-.1-.17.2-.38.32-.23Z"/><path class="cls-7" d="M72.09,80.19a1.2,1.2,0,0,1,.67-.34c0,.64-.55,1.15-1.07,1.53-.3.22-.7.43-1,.24s-.28-.41-.43-.61c-.31-.4-1-.61-.94-1.11a.62.62,0,0,1,.63-.47,1.88,1.88,0,0,1,.82.26l1.69.83Z"/><path class="cls-7" d="M79,87.28c-.53,0-.63.86-.21,1.17a2,2,0,0,0,1.54.11A1.85,1.85,0,0,0,79,87Z"/><path class="cls-7" d="M132.17,74.61a2,2,0,0,0-.72.27.64.64,0,0,0-.29.66c.12.4.69.47,1,.77s.31.85.69,1a.72.72,0,0,0,.94-.56,1.89,1.89,0,0,0-.29-1.19,2.06,2.06,0,0,0-.72-.85.81.81,0,0,0-1,.12Z"/><path class="cls-7" d="M67.91,89.7a.47.47,0,0,1,.35.56.85.85,0,0,1-.45.55.91.91,0,0,1-.42.14.63.63,0,0,1-.6-.66.67.67,0,0,1,.72-.56.72.72,0,0,1,.62.67Z"/><path class="cls-7" d="M73.9,124.42a.48.48,0,0,1,.35.56.86.86,0,0,1-.46.55.9.9,0,0,1-.41.13.61.61,0,0,1-.6-.65.67.67,0,0,1,.71-.57.72.72,0,0,1,.62.68Z"/><path class="cls-7" d="M66.75,86.61a.75.75,0,0,0-1.21-.4,1.32,1.32,0,0,0,.35.73.64.64,0,0,0,.76.09.42.42,0,0,0,0-.68Z"/><path class="cls-7" d="M39.33,63.76a.75.75,0,0,0-1.21-.39,1.23,1.23,0,0,0,.35.72.64.64,0,0,0,.76.09.41.41,0,0,0,0-.67Z"/><path class="cls-7" d="M63.79,75.27A2.16,2.16,0,0,0,62,75.18c.25.45.5.9.74,1.35a1.41,1.41,0,0,0,.46.56.83.83,0,0,0,1.15-.48,1.14,1.14,0,0,0-.47-1.24Z"/><path class="cls-7" d="M69.48,61.22l2.37-1.52c.41.25.1.87-.24,1.21a2.39,2.39,0,0,1-1.16.81c-.47.1-1.06-.19-1.07-.67Z"/><path class="cls-7" d="M82.08,54.18a1,1,0,0,0-1.63.45,1.46,1.46,0,0,0,.93,1.62,1.15,1.15,0,0,0,.87,0,1,1,0,0,0,.49-1.16A3,3,0,0,0,82.08,54Z"/><path class="cls-7" d="M57.74,57.21a1.64,1.64,0,0,0-1.77-.4A1.91,1.91,0,0,0,56.5,58a1.31,1.31,0,0,0,1.65.26c.48-.37.29-1.34-.33-1.34Z"/><path class="cls-7" d="M64,59.13a1,1,0,0,1,.9.78l-1.2.77A1.07,1.07,0,0,1,63.66,59Z"/><path class="cls-7" d="M78.62,57.93l.41-.4a2.91,2.91,0,0,1,.33,1.25,1,1,0,0,1-.7,1c-.43.1-.94-.34-.78-.75A2.38,2.38,0,0,1,78.66,58Z"/><path class="cls-7" d="M74.85,92.33a.94.94,0,0,1,.75.71.93.93,0,0,1-.37.95c-.21.15-.55.17-.66,0a.51.51,0,0,1,0-.3c0-.46.09-.91.14-1.37l.24.06Z"/><path class="cls-7" d="M76.75,99.21c-.17.41.18.85.52,1.15s.74.67.66,1.12a.41.41,0,0,1-.19.3c-.29.13-.54-.24-.79-.43a3.5,3.5,0,0,0-.71-.32,1.5,1.5,0,0,1-.85-1.47.87.87,0,0,1,.85-.37.85.85,0,0,1,.68.62Z"/><path class="cls-7" d="M72.31,100.3l-.5.2a.64.64,0,0,0,.45.65.53.53,0,0,0,.65-.41.46.46,0,0,0-.55-.48Z"/><path class="cls-7" d="M71,112.4l-.49.19a.64.64,0,0,0,.45.65.54.54,0,0,0,.65-.41.46.46,0,0,0-.56-.47Z"/><path class="cls-7" d="M65.13,83.18c.34,0,.55-.4.46-.73s-.36-.58-.49-.89a1.19,1.19,0,0,1,.06-1,.6.6,0,0,1,.47-.35.71.71,0,0,1,.39.14,3.68,3.68,0,0,1,1.44,1.38,1.68,1.68,0,0,1-.15,1.88A1.4,1.4,0,0,1,66,84a1.35,1.35,0,0,1-1-.91Z"/><path class="cls-7" d="M20.07,70.19c.34.06.55-.39.45-.72a8.68,8.68,0,0,0-.48-.9,1.19,1.19,0,0,1,.06-1,.6.6,0,0,1,.47-.35.8.8,0,0,1,.39.14,3.75,3.75,0,0,1,1.44,1.38,1.71,1.71,0,0,1-.15,1.88A1.35,1.35,0,0,1,20,70.1Z"/><path class="cls-7" d="M56.72,79.52a.84.84,0,0,0-1.06.45,1.14,1.14,0,0,0,.23,1.18c.12.14.32.27.49.18a.51.51,0,0,0,.17-.33c.11-.51.21-1,.32-1.53Z"/><path class="cls-7" d="M123.28,52.07a4.16,4.16,0,0,0-1.88-2.59.75.75,0,0,0-.54-.13c-.41.11-.32.69-.35,1.11,0,.71-.67,1.29-.71,2a2.57,2.57,0,0,0,.69,1.57c.5.67,1.36,1.43,2.08,1a1.56,1.56,0,0,0,.57-1.13,7.83,7.83,0,0,0-.06-2.73Z"/><path class="cls-7" d="M50.64,40.58c.12-.65-.77-1-1.44-1a1.44,1.44,0,0,0-1.19.27c-.36.43-.07,1.07.23,1.54L49,42.6a.75.75,0,0,0,.48.41A.73.73,0,0,0,50,42.8a6.53,6.53,0,0,0,1.83-2.22Z"/><path class="cls-7" d="M71,48.26c1.69-5.65-5.2-7-7.76-2.61C60.59,50.22,69.57,53.19,71,48.26Z"/><path class="cls-7" d="M80.43,80.08a1.37,1.37,0,0,1,.06,2.19,3.45,3.45,0,0,1-1.25-1.54,1.2,1.2,0,0,1,.85-1.54l1,.67Z"/><path class="cls-7" d="M64.17.17c-.35-.27-.55,0-.43.47A5.12,5.12,0,0,0,64.46,2l2,2.89c.37.55.84,1.18,1.24,1.29s.45-.3.33-.77a6.52,6.52,0,0,0-.69-1.48C66.37,2.28,65.06.39,63.89,0l.18.92Z"/><path class="cls-7" d="M77.84,105.15a.36.36,0,0,1,.32.41.79.79,0,0,1-.31.48,1,1,0,0,1-.4.25.71.71,0,0,1-.79-.38.85.85,0,0,1,.11-.88.59.59,0,0,1,.38-.25.33.33,0,0,1,.35.24Z"/><path class="cls-7" d="M63.34,90l-.5.23a1.16,1.16,0,0,0,.44.69c.25.14.65,0,.61-.3a.52.52,0,0,0-.15-.27l-.66-.77Z"/><path class="cls-7" d="M53.64,72.85a3.3,3.3,0,0,0-1.33.22,1.12,1.12,0,0,0-.71,1,1,1,0,0,0,.29.58,1.32,1.32,0,0,0,1.82,0,1.26,1.26,0,0,0-.12-1.78Z"/><path class="cls-7" d="M36.92,57.06a.91.91,0,0,1,1.44.57,2.4,2.4,0,0,1-.73.76,1.61,1.61,0,0,1-.56-1Z"/><path class="cls-7" d="M92.65,77.49,91.9,78a1.47,1.47,0,0,0,.38.57.85.85,0,0,0,.61-1Z"/><path class="cls-7" d="M90.33,17.28a3.25,3.25,0,0,1,2.92-1,.62.62,0,0,1,.36.15.65.65,0,0,1,.06.58c-.26,1.15-.75,2.54-1.94,2.69a1.52,1.52,0,0,1-1.54-2l1-.25Z"/></g></g></g></g></svg>