<svg xmlns="http://www.w3.org/2000/svg" viewBox="0 0 193.23 626.83"><defs><style>.cls-1{isolation:isolate;}.cls-2{fill:#33484f;}.cls-3,.cls-4{fill:#e9e9a8;mix-blend-mode:soft-light;}.cls-3{opacity:0.16;}.cls-4{opacity:0.51;}.cls-5{fill:#263238;}.cls-6{fill:#1de9b6;}.cls-7{fill:#02fffc;}</style></defs><g class="cls-1"><g id="Layer_2" data-name="Layer 2"><g id="Layer_1-2" data-name="Layer 1"><g id="hole-1"><path class="cls-2" d="M35.13,98,38,257.09l9.88,3.32,5.24,87.45.62,58.05,8.63-56.21L74,239.85l12.33-6.4L117.83,67.19S96.71,84.33,76.48,93C53.19,102.92,35.13,98,35.13,98Z"/><polygon class="cls-3" points="0.41 34.85 5.89 177.95 37.95 257.09 35.13 98.19 0.41 34.85"/><path class="cls-4" d="M35.13,98.19C18.27,94-3.25,41.59.41,34.85S117.15,52.37,121.27,59.79,73.05,107.61,35.13,98.19Z"/><path class="cls-5" d="M108.93,59.79c.19,2.53-7.1,11.16-18,19C77.13,88.85,57.5,97.66,40.39,91s-25-21-28-32.41c-2.33-9-1.67-16.2-.14-16.63C34.91,35.52,108.49,54,108.93,59.79Z"/><path class="cls-6" d="M91,78.79C77.13,88.85,57.5,97.66,40.39,91s-25-21-28-32.41C33.92,58.33,68.05,61.16,91,78.79Z"/><path class="cls-7" d="M60.78,61.84a12.57,12.57,0,0,0-5.62-.32,2.14,2.14,0,0,0-.86.29,1.71,1.71,0,0,0-.64,1.54,3.58,3.58,0,0,0,2.55,3.12,4.59,4.59,0,0,0,4.08-.85,3,3,0,0,0,1.21-2,1.68,1.68,0,0,0-1.17-1.81.36.36,0,0,0,.09.61Z"/><path class="cls-7" d="M73.62,28.84A12.56,12.56,0,0,0,68,28.52a2.13,2.13,0,0,0-.86.28,1.73,1.73,0,0,0-.64,1.55,3.59,3.59,0,0,0,2.56,3.11,4.54,4.54,0,0,0,4.07-.85,3,3,0,0,0,1.21-1.94,1.67,1.67,0,0,0-1.17-1.81.36.36,0,0,0,.1.6Z"/><path class="cls-7" d="M65.12,69a3.25,3.25,0,0,0-3,.91,3.35,3.35,0,0,0,2.1,2.26A2.05,2.05,0,0,0,66.8,70.8c.22-1-1.09-2.13-2-1.56Z"/><path class="cls-7" d="M55.28,71.87a3.94,3.94,0,0,0-1,.43.22.22,0,0,0-.1.09.15.15,0,0,0,0,.13c.18.33.77.39.78.77,0,.06,0,.14,0,.19s.22,0,.3,0a1,1,0,0,0-.15-1.51l.17,0Z"/><path class="cls-7" d="M53.07,45.13a7,7,0,0,0-1.91.8.37.37,0,0,0-.18.17.32.32,0,0,0,0,.25c.34.62,1.46.73,1.47,1.44,0,.13,0,.27,0,.37s.4.08.56-.06a1.84,1.84,0,0,0-.28-2.85l.31,0Z"/><path class="cls-7" d="M49,26.63a6.91,6.91,0,0,0-1.9.8.37.37,0,0,0-.18.17.32.32,0,0,0,0,.25c.34.63,1.46.74,1.47,1.44,0,.13,0,.27,0,.37s.4.08.56-.06a1.84,1.84,0,0,0-.28-2.85l.31,0Z"/><path class="cls-7" d="M49.13,69.66a1.69,1.69,0,0,0-1.4.39,1.65,1.65,0,0,0,.48.47.57.57,0,0,0,.64,0c.24-.19.19-.55.13-.85l.21.13Z"/><path class="cls-7" d="M47.6,72.91a.5.5,0,0,0-.45.58A5.61,5.61,0,0,1,47,74.58l1.48-1.12a.37.37,0,0,1,.12-.07c.17,0,.3.14.47.2s.47-.15.59-.36C50.57,71.7,48.35,72.71,47.6,72.91Z"/><path class="cls-7" d="M27.9,50.16a.63.63,0,0,0-.37.19.73.73,0,0,0-.09.39,5.79,5.79,0,0,1-.13,1.09l1.47-1.12a.57.57,0,0,1,.13-.08c.17,0,.3.15.46.2s.47-.14.6-.36C30.87,49,28.64,50,27.9,50.16Z"/><path class="cls-7" d="M36.81,67.61l-.45.3a.88.88,0,0,0,1,.33c.34-.14.46-.67.15-.86s-.55-.22-.43-.41Z"/><path class="cls-7" d="M42.9,60.39a.76.76,0,0,1,.58,1.11.8.8,0,0,1-1.28,0,.78.78,0,0,1,.63-1.1Z"/><path class="cls-7" d="M48.44,54.11c.26-.31.68-.65,1-.44s.24.69.11,1.06c0,.15-.14.33-.3.36-.4.08-.45-.74-.86-.75-.06-.1.12-.22.19-.13Z"/><path class="cls-7" d="M122,50.77a1.94,1.94,0,0,0-1.47.9A1,1,0,0,0,121.2,53a.78.78,0,0,0,.49-.14,1.52,1.52,0,0,0,.22-.22,1.55,1.55,0,0,0,.41-1.09.77.77,0,0,0-.8-.72Z"/><path class="cls-7" d="M77.72,51.17a.83.83,0,0,0,.2.48,2.62,2.62,0,0,0,.48.22c.38.18.52.63.84.9a2.19,2.19,0,0,0,2.06.07c.16-.05.35-.13.39-.29a.65.65,0,0,0-.07-.35c-.3-.8.49-1.29.41-2a2.32,2.32,0,0,0-1.29-1.59A2.37,2.37,0,0,0,77.72,51.17Z"/><path class="cls-7" d="M58.48,2.7a.91.91,0,0,0,.21.48,2.34,2.34,0,0,0,.48.22c.37.18.52.63.83.9a2.21,2.21,0,0,0,2.07.07c.16,0,.34-.13.39-.29a.65.65,0,0,0-.07-.35c-.3-.8.49-1.29.41-2A2.34,2.34,0,0,0,61.5.11,2.37,2.37,0,0,0,58.48,2.7Z"/><path class="cls-7" d="M55.26,69.48a.78.78,0,0,1,.4-.21,1.27,1.27,0,0,1-.64.92c-.18.13-.42.26-.6.14s-.17-.24-.26-.36-.6-.37-.56-.67A.38.38,0,0,1,54,69a1.17,1.17,0,0,1,.49.15l1,.5Z"/><path class="cls-7" d="M59.37,73.72c-.31,0-.37.51-.12.69a1.12,1.12,0,0,0,.92.07,1.12,1.12,0,0,0-.77-1Z"/><path class="cls-7" d="M54.73,74.55a1.05,1.05,0,0,0-.43.15.37.37,0,0,0-.17.4c.07.24.4.28.58.46s.18.51.41.62a.43.43,0,0,0,.56-.33,1.06,1.06,0,0,0-.17-.71,1.19,1.19,0,0,0-.43-.51.48.48,0,0,0-.61.07Z"/><path class="cls-7" d="M52.76,75.16a.29.29,0,0,1,.21.34.52.52,0,0,1-.27.33.57.57,0,0,1-.25.08.38.38,0,0,1-.36-.39.41.41,0,0,1,.43-.34.43.43,0,0,1,.37.4Z"/><path class="cls-7" d="M56.34,95.93a.28.28,0,0,1,.21.33.5.5,0,0,1-.27.33.46.46,0,0,1-.25.08.37.37,0,0,1-.36-.39.41.41,0,0,1,.43-.34.43.43,0,0,1,.37.41Z"/><path class="cls-7" d="M52.07,73.31a.45.45,0,0,0-.73-.23.76.76,0,0,0,.21.43.39.39,0,0,0,.46.06.25.25,0,0,0,0-.41Z"/><path class="cls-7" d="M35.67,59.65a.45.45,0,0,0-.73-.23.76.76,0,0,0,.21.43.38.38,0,0,0,.46,0,.25.25,0,0,0,0-.4Z"/><path class="cls-7" d="M50.3,66.53a1.28,1.28,0,0,0-1.1,0l.44.81a.8.8,0,0,0,.27.33.5.5,0,0,0,.69-.28.7.7,0,0,0-.28-.75Z"/><path class="cls-7" d="M53.7,58.13l1.42-.91c.24.15.05.52-.14.73a1.52,1.52,0,0,1-.7.48c-.28.06-.64-.12-.64-.4Z"/><path class="cls-7" d="M61.23,53.92a.61.61,0,0,0-1,.27.88.88,0,0,0,.56,1,.67.67,0,0,0,.52,0,.62.62,0,0,0,.29-.69,1.75,1.75,0,0,0-.4-.7Z"/><path class="cls-7" d="M46.68,55.73a1,1,0,0,0-1.06-.24,1.11,1.11,0,0,0,.32.74.77.77,0,0,0,1,.15c.29-.22.17-.8-.19-.8Z"/><path class="cls-7" d="M50.43,56.88a.59.59,0,0,1,.54.47l-.72.46a.64.64,0,0,1,0-1Z"/><path class="cls-7" d="M85.42,40.27l1.07.81a.77.77,0,0,0,.33.18.78.78,0,0,0,.39-.08c.45-.16,1-.44,1-.91s-.65-.73-1.11-1c-.87-.44-2.24-2.68-3.4-1.89S84.77,39.77,85.42,40.27Z"/><path class="cls-7" d="M59.17,56.17l.24-.25a1.82,1.82,0,0,1,.2.75.62.62,0,0,1-.42.6c-.26.06-.56-.2-.46-.45a1.24,1.24,0,0,1,.46-.62Z"/><path class="cls-7" d="M56.91,76.74a.56.56,0,0,1,.45.42.55.55,0,0,1-.22.57c-.13.09-.33.1-.4,0a.28.28,0,0,1,0-.18l.08-.82.14,0Z"/><path class="cls-7" d="M58.05,80.85c-.11.25.1.51.31.69s.44.4.4.67a.32.32,0,0,1-.12.18c-.18.08-.32-.14-.48-.26a3,3,0,0,0-.41-.19.9.9,0,0,1-.52-.88.54.54,0,0,1,.51-.22.52.52,0,0,1,.41.37Z"/><path class="cls-7" d="M55.39,81.51l-.29.11a.37.37,0,0,0,.27.39.32.32,0,0,0,.38-.25.27.27,0,0,0-.33-.28Z"/><path class="cls-7" d="M54.6,88.74l-.29.11a.38.38,0,0,0,.27.39A.33.33,0,0,0,55,89a.28.28,0,0,0-.34-.28Z"/><path class="cls-7" d="M51.1,71.26c.2,0,.33-.23.27-.43a4.74,4.74,0,0,0-.29-.54.7.7,0,0,1,0-.6.34.34,0,0,1,.28-.21.49.49,0,0,1,.23.08,2.15,2.15,0,0,1,.86.83,1,1,0,0,1-.09,1.12.79.79,0,0,1-.77.24.81.81,0,0,1-.59-.54Z"/><path class="cls-7" d="M24.15,63.5c.2,0,.33-.24.27-.44a4.63,4.63,0,0,0-.29-.53.72.72,0,0,1,0-.61.4.4,0,0,1,.28-.21.5.5,0,0,1,.23.09,2.19,2.19,0,0,1,.86.82,1,1,0,0,1-.09,1.13.8.8,0,0,1-1.36-.31Z"/><path class="cls-7" d="M46.07,69.08a.51.51,0,0,0-.64.26.71.71,0,0,0,.14.71.25.25,0,0,0,.29.11A.29.29,0,0,0,46,70c.06-.3.12-.61.19-.91Z"/><path class="cls-7" d="M34.61,64a2.48,2.48,0,0,0-1.13-1.54.42.42,0,0,0-.32-.09c-.24.07-.19.42-.21.67,0,.42-.4.77-.42,1.19a1.51,1.51,0,0,0,.41.94c.3.41.81.86,1.24.59a.9.9,0,0,0,.34-.68,4.7,4.7,0,0,0,0-1.63Z"/><path class="cls-7" d="M42.43,45.79c.07-.39-.46-.58-.86-.61a.83.83,0,0,0-.71.16c-.22.25,0,.64.14.92l.47.73c.07.11.15.23.28.25a.42.42,0,0,0,.31-.13,3.89,3.89,0,0,0,1.1-1.32Z"/><path class="cls-7" d="M54.63,50.38c1-3.38-3.11-4.17-4.64-1.56S53.75,53.33,54.63,50.38Z"/><path class="cls-7" d="M60.25,69.41a.82.82,0,0,1,0,1.31,2.05,2.05,0,0,1-.74-.92.71.71,0,0,1,.51-.92l.58.4Z"/><path class="cls-7" d="M76.79,64.69l-.47.33a4.74,4.74,0,0,1,.93,1.76,4.9,4.9,0,0,0,.31,1,1,1,0,0,0,.79.57c.64,0,1-.76,1-1.38a2.72,2.72,0,0,0-1-2.08,1.94,1.94,0,0,0-2.25-.08c.14.22.28.44.43.66Z"/><path class="cls-7" d="M70.7,71.88c-.21-.17-.33,0-.25.28a2.85,2.85,0,0,0,.43.8l1.17,1.73c.22.32.51.7.74.76s.27-.18.2-.46a3.65,3.65,0,0,0-.41-.88c-.56-1-1.34-2.1-2-2.33,0,.18.08.37.11.55Z"/><path class="cls-7" d="M58.7,84.4a.21.21,0,0,1,.19.25.53.53,0,0,1-.18.29.7.7,0,0,1-.25.15.42.42,0,0,1-.47-.23.53.53,0,0,1,.07-.53.36.36,0,0,1,.23-.15.18.18,0,0,1,.2.14Z"/><path class="cls-7" d="M29.27,26.69a6.79,6.79,0,0,0-1.21-1,.44.44,0,0,0-.19.35,1.38,1.38,0,0,0,1.35,1.51.44.44,0,0,0,.32-.1.38.38,0,0,0,.05-.42,1.21,1.21,0,0,0-.31-.33Z"/><path class="cls-7" d="M50,75.34l-.3.13a.66.66,0,0,0,.26.42c.15.08.39,0,.37-.18a.37.37,0,0,0-.09-.16l-.4-.46Z"/><path class="cls-7" d="M44.22,65.09a1.78,1.78,0,0,0-.79.13.66.66,0,0,0-.42.62.61.61,0,0,0,.17.35.79.79,0,0,0,1.09,0,.77.77,0,0,0-.07-1.07Z"/><path class="cls-7" d="M34.22,55.64a.55.55,0,0,1,.87.34,1.48,1.48,0,0,1-.44.46,1,1,0,0,1-.33-.6Z"/><path class="cls-7" d="M80.21,12.3c-.2-.14-.4.26-.21.4s.47,0,.63-.15a.53.53,0,0,0-.55-.26Z"/><path class="cls-7" d="M67.56,67.86l-.45.31a1,1,0,0,0,.23.35.52.52,0,0,0,.36-.62Z"/><path class="cls-7" d="M65,21.87l-.45.32a1.08,1.08,0,0,0,.23.34.51.51,0,0,0,.36-.62Z"/><path class="cls-7" d="M60.64,45.18a1.93,1.93,0,0,1,1.75-.6.41.41,0,0,1,.21.1.37.37,0,0,1,0,.34c-.15.69-.45,1.52-1.15,1.61a.91.91,0,0,1-.93-1.19l.58-.15Z"/><path class="cls-7" d="M94.1,69.11a1.94,1.94,0,0,1,1.75-.59.31.31,0,0,1,.21.09.42.42,0,0,1,0,.35c-.15.68-.45,1.51-1.16,1.61a.91.91,0,0,1-.92-1.2l.57-.15Z"/><polygon class="cls-3" points="73.97 239.85 128.5 293.4 193.23 296.56 193.23 626.83 102.81 470.72 73.97 425.53 76.48 374.25 59.44 368.45 73.97 239.85"/></g></g></g></g></svg>