<svg xmlns="http://www.w3.org/2000/svg" viewBox="0 0 1162.86 719.97"><defs><style>.cls-1{isolation:isolate;}.cls-2{fill:#fff;mix-blend-mode:overlay;}.cls-18,.cls-2,.cls-9{opacity:0.2;}.cls-3{fill:#546e7a;}.cls-4{fill:#607d8b;}.cls-5{fill:#455b64;}.cls-14,.cls-16,.cls-6{fill:#f1f1a8;}.cls-15,.cls-19,.cls-6{opacity:0.51;}.cls-14,.cls-15,.cls-18,.cls-19,.cls-20,.cls-6{mix-blend-mode:soft-light;}.cls-7{fill:#263238;}.cls-8{fill:#1de9b6;}.cls-10,.cls-13,.cls-9{fill:#690058;}.cls-10,.cls-13,.cls-17,.cls-9{mix-blend-mode:multiply;}.cls-10,.cls-17{opacity:0.3;}.cls-11{fill:#37474f;}.cls-12{fill:#455a64;}.cls-13{opacity:0.15;}.cls-14,.cls-20{opacity:0.16;}.cls-17{fill:#570048;}.cls-18,.cls-19,.cls-20{fill:#dfdfa1;}.cls-21{fill:#65152e;}</style></defs><g class="cls-1"><g id="Layer_2" data-name="Layer 2"><g id="Layer_1-2" data-name="Layer 1"><g id="left-rock"><polygon class="cls-2" points="364.16 439.88 374.33 443.08 379.7 439.88 364.16 439.88"/><polygon class="cls-2" points="297.45 456.33 322.58 478.04 318.47 467.3 297.45 456.33"/><path class="cls-3" d="M729.92,586.22c-42.1-28.6-371.74-136.75-371.74-136.75l-35.59-54.61-9.15,2.08-14-43.2H280.18l-77-193.28L184,150.84l-16.83-57.3-50.5-44.77C70.05,23.22,4.28,1.4.19.05L0,0V660.78s181.62-30.43,232.12-33.39c21.19-1.23,66.43-2.33,126.06-3.31,262.63-4.25,804.68-6,804.68-6ZM228.45,354l-97.76,14.18L117.88,348.5l60.32-52,7.18-68.27,10.17,4.25,43,53v32.92l-10,35.48Z"/><path class="cls-4" d="M398.43,469.13l19.19-21L493.12,471l19.24,30.64,6.86,10.71s-87.06-3-96.61-9.36S398.43,469.13,398.43,469.13Z"/><path class="cls-5" d="M525.37,625.62l26.52-127.5s37.16-8,59.28-6.15,41.27,27.76,44.37,32.61,0,69.27,0,69.27h7.09l6.3,26.9s-49.73,10.81-61.88,11.49S525.37,625.62,525.37,625.62Z"/><path class="cls-6" d="M73.34,77.78,93.21,88.06,0,73.25V0L.19.05C4.28,1.4,70.05,23.22,116.65,48.77l50.5,44.77Z"/><polygon class="cls-6" points="183.98 150.84 158.32 177.16 73.33 195.89 99.38 195.89 26.73 218.96 178.2 184.9 203.23 160.46 183.98 150.84"/><polygon class="cls-6" points="228.45 353.98 238.51 353.98 264.75 361.03 123.37 379.57 50.03 379.57 97.41 368.16 130.69 368.16 228.45 353.98"/><polygon class="cls-6" points="299.43 353.74 274.15 361.03 280.18 353.74 299.43 353.74"/><polygon class="cls-6" points="313.44 396.93 286.79 406.07 248.11 414.3 268.67 414.3 233.94 428.46 184.14 436.23 264.75 428 322.58 394.86 313.44 396.93"/><polygon class="cls-6" points="358.18 449.47 374.67 467.18 398.43 473.24 402.84 464.3 358.18 449.47"/><path class="cls-6" d="M417.62,448.11l5,19.07s20.17,19.31,68.82,18.39L493.12,471Z"/><path class="cls-6" d="M551.89,498.12A87.78,87.78,0,0,0,567,514.82c8.69,7.08,56.34,18.61,67.47,17.76s21-8,21-8-14.66-24.46-36.37-30.92S551.89,498.12,551.89,498.12Z"/><polygon class="cls-6" points="264.75 520.17 297.45 512.3 364.16 516.53 345.43 520.17 409.85 526.7 484.91 545.63 337.2 550.46 345.89 546.35 304.76 532.62 221.6 520.17 157.39 520.17 222.97 516.53 264.75 520.17"/><polygon class="cls-6" points="729.92 586.22 696.46 596.33 940.4 603.9 729.92 586.22"/><polygon class="cls-6" points="19.19 247.06 50.03 247.06 132.51 259.17 75.85 277.22 50.03 258.71 19.19 247.06"/><path class="cls-5" d="M562.24,501.34s34.94-9.6,53.91-4.17,33.59,25.41,33.59,27.24-25.82,5.71-40.9,1.83-38.61-13-40.21-13.94S562.24,501.34,562.24,501.34Z"/><path class="cls-5" d="M426.43,454.12c.24,2.61,2.25,11.65,4.25,13.24s13.72,9.61,24.5,11.71,27.41.91,28.61,0-.08-2.77,0-6.11S426.43,454.12,426.43,454.12Z"/><path class="cls-4" d="M349.88,420.81l-5.82-94.59s-1.56-6.51-12.24-7.19-18.26,11.36-18.26,11.36l-.12,66.54L310,441.48s40.89,23.76,64.65,25.7l-8-24.1Z"/><path class="cls-6" d="M313.56,330.39s5.48,5.09,15.42,4.06a22.36,22.36,0,0,0,15.08-8.23s-3.35-7.88-14.79-6.05S313.56,330.39,313.56,330.39Z"/><path class="cls-7" d="M317.1,330.39s3.66-5.54,9.94-7.25,14.39,2.51,14.39,2.51-4.23,7-12.62,7.09S317.1,330.39,317.1,330.39Z"/><path class="cls-8" d="M573,514.14s20.68-.07,30.72.68,37.12,12,37.12,12-15.62,3.19-29.41,0S573,514.14,573,514.14Z"/><path class="cls-8" d="M430.68,467.36s16.87-.06,26.47,1.77,21.3,10.79,21.3,10.79-14.08,1.39-21.64-.56S436.94,472.46,430.68,467.36Z"/><polygon class="cls-9" points="93.21 88.06 83.58 173.5 0 73.25 0 232.67 26.73 218.96 99.38 195.89 75.85 195.34 123.19 184.9 106.26 83.31 73.33 77.78 93.21 88.06"/><path class="cls-9" d="M358.18,624.08c-59.63,1-104.87,2.08-126.06,3.31C181.62,630.35,0,660.78,0,660.78V232.67l19.19,14.39L50,258.72l25.83,18.5L53.4,389.62,50,311.82,39.27,361.46,26.73,379.57,30,404.47,19.19,454.13l138.2,66H221.6l36.79,75.45,6.36-67.39,40,4.39,41.13,13.73-8.7,4.12L339,582.9l10.88,12.16Z"/><polygon class="cls-9" points="274.15 361.03 238.51 353.98 228.5 353.82 238.51 318.34 238.51 285.42 195.55 232.45 185.38 228.2 178.2 296.47 146.67 195.88 194.18 224.23 231.19 266.72 250.21 278.45 244.9 323.99 274.15 361.03"/><polygon class="cls-9" points="264.75 428 264.75 520.17 222.97 516.53 190.03 435.63 264.75 428"/><polygon class="cls-9" points="313.56 400.03 297.45 409.26 310.02 441.48 324.87 391.68 321.05 333.98 313.56 330.39 313.56 400.03"/><polygon class="cls-9" points="417.62 448.11 402.84 464.3 398.43 473.24 410.2 495.5 422.61 467.18 417.62 448.11"/><polygon class="cls-10" points="551.89 498.12 525.37 625.62 573 630.2 578.69 582.19 573 576.14 573 550.46 567.03 514.82 551.89 498.12"/><polygon class="cls-9" points="640.84 626.58 668.93 608.94 675.1 617.76 792.98 608.94 853.29 617.76 668.93 620.75 640.84 626.58"/><polygon class="cls-9" points="417.62 541.77 437.56 547.18 449.15 555.03 444.19 546.96 417.62 541.77"/><polygon class="cls-9" points="603.72 580.16 618.21 595.06 610.96 595.06 603.72 580.16"/><polygon class="cls-9" points="117.89 379.57 123.19 393.09 129.31 376.94 117.89 379.57"/><polygon class="cls-11" points="603.72 580.16 605.99 595.06 618.21 595.06 609.53 591.12 603.72 580.16"/><polygon class="cls-11" points="417.62 541.77 430.68 547.4 449.15 555.03 437.56 547.18 417.62 541.77"/><polygon class="cls-7" points="129.31 376.94 123.6 380.71 123.19 393.09 117.89 379.57 129.31 376.94"/><polygon class="cls-7" points="253.36 429.17 264.75 436.23 267.63 426.35 253.36 429.17"/><polygon class="cls-11" points="337.2 550.46 339.03 582.9 344.06 558.91 340.63 550.46 337.2 550.46"/><path class="cls-11" d="M621.83,531.38s11.14,6.43,12.67,5.33,9.16-6.14,9.16-6.14-7.09,2.23-9.16,2S621.83,531.38,621.83,531.38Z"/><polygon class="cls-11" points="487.3 485.6 493.12 491.61 491.43 485.57 487.3 485.6"/><polygon class="cls-6" points="349.88 420.81 346.33 431.29 355.02 436.23 366.68 443.08 349.88 420.81"/><polygon class="cls-9" points="344.06 361.03 340.63 373.86 341.43 379.57 344.06 361.03"/><polygon class="cls-11" points="341.43 379.57 345.33 369.3 344.06 361.03 341.43 379.57"/><polygon class="cls-7" points="72.48 274.8 75.05 281.26 81.08 275.55 72.48 274.8"/><path class="cls-7" d="M0,456.33l19.19-2.2s109,23.15,127.48,26.27,62.84,3.07,62.84,3.07,55.24,6.09,55.24,5.12,46.07-24.13,48.81-23.85,61.11,2.44,61.11,2.44l-60.94-.32s-47.25,24-49,24-53-5.35-54.57-5.79-54.77-1.92-63.68-3.29-125.25-25.54-128-25.54S0,459,0,459Z"/><path class="cls-7" d="M0,286.36s65.74,41.52,65.77,41.38,58.78-42.7,63.51-43.45c5.4-.86,38.09,2.15,42.58,1.93,5-.26,8.28-8.19,8.28-8.19s-1.77,9-4.34,10.79-43.81-4.57-46.49-4.06S67.65,330.1,65.24,330.39,0,291.16,0,291.16Z"/><path class="cls-12" d="M0,6.27s50,16.51,66.48,22S132.11,68.87,133.65,72s-54.15,1.89-75.74-1.2S0,61.5,0,61.5Z"/><path class="cls-8" d="M0,30.14s57.6,18.51,66.84,24S90.63,73.25,90.63,73.25a256.4,256.4,0,0,1-38.57-3.36C29.37,66.35,0,61.5,0,61.5Z"/><path class="cls-13" d="M552.58,619.38c-.22-1.19-.54-2.36-.73-3.55a36.39,36.39,0,0,1-.31-4.18q-.54-15.49-1.07-31c0,5.42,0,11,1.85,16.06a14.43,14.43,0,0,1,1.25,4.4c0,.91-.18,1.81-.2,2.71a7.16,7.16,0,0,0,2.14,5.32c1.33-1.37,1.45-3.48,1.5-5.39.39-14.48,1.66-28.92,2.94-43.35q.63-7.24,1.27-14.47-.11,7.32-.22,14.63a5.52,5.52,0,0,1-.25,1.9c-.15.4-.39.77-.51,1.18a4,4,0,0,0,0,1.58l1.35,10.09c.28,2,.45,4.43-1,5.87a2.83,2.83,0,0,0-.76.9,2.31,2.31,0,0,0,.36,1.68c1.13,2.61.18,5.6-.26,8.41a45.44,45.44,0,0,0-.28,8.65l.27,8.28a4.87,4.87,0,0,0,.67,2.82c.83,1.13,2.63,1.54,2.93,2.92a3.91,3.91,0,0,1-.19,1.72c-.67,3,.31,6.08,1.28,9l1.44,4.3c-.17-.52-5.16-.73-5.75-.77-1.85-.15-4,.22-5.81-.13-2-.38-1.33-1.43-1.36-3.49A35.52,35.52,0,0,0,552.58,619.38Z"/><path class="cls-13" d="M534.6,621.29c1-.21,1.25-1.5,1.28-2.52q.27-9.88.36-19.76a5.57,5.57,0,0,1,.65-3.14c.61-.9,2-1.33,2.79-.56q.14,7.16.25,14.31a1.48,1.48,0,0,0-1.7.85,4.32,4.32,0,0,0-.28,2c.15,4.81.73,9.65.79,14.45-1-1-2.51-.56-3.36-1.33S534.71,622.41,534.6,621.29Z"/><path class="cls-13" d="M542.43,572.73A10.62,10.62,0,0,1,543,570a15,15,0,0,1,1.27-2.19c5.16-8.19,3.49-19,7-28a196.87,196.87,0,0,1-3.08,31.59l-4.34,1.6-.18,14.54c-1.81.66-2.63,2.17-3.42,3.77-.31-2.88.68-6.42,1-9.33Z"/><path class="cls-13" d="M551.87,537.84a11.58,11.58,0,0,1,.41-4.1l1,0c-.16,1.44-.27,2.88-.33,4.33l-.87-.39Z"/><path class="cls-13" d="M575.85,568.62l.95.26,1.08,6.09c-.12-1.05.7-2,1.07-3a6.74,6.74,0,0,0,.08-3.4c-.17-1-.4-4.7-1.83-4.86C576,563.61,576,567.55,575.85,568.62Z"/><path class="cls-13" d="M583.77,609.44a5.53,5.53,0,0,1,2.05.39c.42,3.52.85,7,1.27,10.56l1.34-.63q1.2,5.34,2.39,10.69a1.17,1.17,0,0,0,.32.69,1.21,1.21,0,0,0,.58.22c6.11,1.1,12.58,2.17,18.4,0a42.21,42.21,0,0,0-.64-10.94,3.92,3.92,0,0,1-2.57.52,26.87,26.87,0,0,0-.54,7.8,10.21,10.21,0,0,0-10.49-1.89,9.81,9.81,0,0,1-3.21-5.4c-.31-1.49-.27-3-.49-4.54a13.26,13.26,0,0,0-2-5.38,2.81,2.81,0,0,1-2.23,1.36,10.53,10.53,0,0,0-3.45-8,19.9,19.9,0,0,0,1.09-10c-.31-2-.68-4.1-1-6.12C583,590.42,584.1,609.44,583.77,609.44Z"/><polygon class="cls-6" points="632.75 628.16 632.75 582.9 637.06 574.97 634.5 536.71 643.66 530.57 655.54 524.59 655.54 593.85 649.74 600.03 632.75 628.16"/><path class="cls-11" d="M631.85,589.7c.73-2.82,3.53-7.85,1.74-10.51a10.16,10.16,0,0,0-2.79,5.29C630.53,586.05,632.08,588.81,631.85,589.7Z"/><path class="cls-11" d="M369.22,588a8.51,8.51,0,0,0,4.61,4.2l-3.5-4.92a1.76,1.76,0,0,0-.86-.76c-.37-.11-.87.16-.81.55Z"/><polygon class="cls-13" points="1.26 569.72 19.36 525.5 13.75 551.45 35.86 520.21 57.49 485.61 39.71 521.97 35.38 524.86 8.47 597.27 22.4 580.77 11.83 601.96 12.47 623.38 51.88 564.83 54.77 548.09 89.37 506.27 57.01 564.83 0 660.78 1.26 569.72"/><polyline class="cls-13" points="0 232.67 34.27 214.19 22.39 169.2 20.66 176.33 23.51 179.49 23.7 191.7 16.69 171.66 14.32 149.18 13.16 153.4 13.99 158.45 11.08 162.19 6.8 127.25 6.26 147.19 0 118.33"/><polygon class="cls-7" points="437.56 547.18 452.35 545.95 449.15 548.4 458.82 574.97 464 587.61 476.34 595.06 462.46 589.31 458.82 583.95 452 564.16 449.15 555.03 437.56 547.18"/><polygon class="cls-14" points="484.91 545.63 491.64 596.61 484.31 596.61 476.34 595.06 464 587.61 449.15 548.4 452.35 545.95 484.91 545.63"/><polygon class="cls-7" points="232.86 278.45 244.68 281.26 250.21 278.45 247.88 283.39 241.53 286.59 238.51 285.42 232.86 278.45"/><polygon class="cls-7" points="110.39 266.22 108.46 259.57 109.75 258.6 112.83 256.28 132.51 259.17 113.94 257.35 111.37 261.25 114.98 264.76 117.89 281.26 110.39 266.22"/><polygon class="cls-14" points="132.51 259.17 129.71 277.22 123.19 279.79 117.89 281.26 114.98 264.76 111.37 261.25 113.94 257.35 132.51 259.17"/><g class="cls-15"><path class="cls-16" d="M297.78,511.74a17.85,17.85,0,0,0-4.83,6.49,3,3,0,0,0-.33,1.26,2.54,2.54,0,0,0,1.38,2,5.22,5.22,0,0,0,5.82-.56,6.48,6.48,0,0,0,2.18-5.57,4.36,4.36,0,0,0-1.42-3,2.46,2.46,0,0,0-3.13-.05.53.53,0,0,0,.81.37Z"/><path class="cls-16" d="M309.89,512.26a4.63,4.63,0,0,0-1.26,4.3,4.87,4.87,0,0,0,4.43-.71,2.94,2.94,0,0,0,.41-4.13c-1.1-1.1-3.46-.4-3.49,1.16Z"/><path class="cls-16" d="M305.67,526.41a5.11,5.11,0,0,0-.28,1.55.24.24,0,0,0,0,.19.25.25,0,0,0,.18.08c.55,0,1.09-.61,1.55-.32.08.05.16.14.26.14s.22-.23.19-.39a1.44,1.44,0,0,0-2-1l.1-.21Z"/><path class="cls-16" d="M271.3,507.56a10,10,0,0,0-.53,2.93.53.53,0,0,0,.07.35.5.5,0,0,0,.34.16c1,.09,2-1.16,2.91-.61.16.1.3.26.49.25s.41-.42.37-.72a2.73,2.73,0,0,0-3.7-2l.19-.41Z"/><path class="cls-16" d="M245.49,497.62a10,10,0,0,0-.53,2.93.53.53,0,0,0,.06.35.5.5,0,0,0,.34.16c1,.09,2-1.16,2.92-.61.16.1.3.26.48.26s.42-.43.37-.73a2.71,2.71,0,0,0-3.69-2l.19-.42Z"/><path class="cls-16" d="M298.11,532a2.4,2.4,0,0,0-.63,2,2.53,2.53,0,0,0,.95-.21.83.83,0,0,0,.49-.77c-.05-.44-.53-.68-.94-.85l.33-.15Z"/><path class="cls-16" d="M300.87,536.45a.93.93,0,0,0-.05.59.9.9,0,0,0,.4.42,8.7,8.7,0,0,1,1.22,1l-.2-2.67a.49.49,0,0,1,0-.21c.08-.24.41-.25.61-.4s.19-.68,0-1C301.74,531.91,301.21,535.39,300.87,536.45Z"/><path class="cls-16" d="M316.37,558.85a1,1,0,0,0-.05.6,1,1,0,0,0,.4.41,8.14,8.14,0,0,1,1.22,1c-.06-.9-.13-1.79-.2-2.68a.74.74,0,0,1,0-.21c.08-.23.41-.24.61-.39s.19-.68,0-1C317.24,554.32,316.71,557.8,316.37,558.85Z"/><path class="cls-16" d="M285.87,545.13l0,.78a1.26,1.26,0,0,0,1.16-.89c.1-.52-.47-1.08-.94-.86-.29.14-.69.47-.83.18Z"/><path class="cls-16" d="M281.87,532a1.1,1.1,0,1,1-.05.08Z"/><path class="cls-16" d="M278.61,520.33c-.18-.56-.26-1.33.27-1.59s1,.27,1.37.71c.15.2.3.44.21.66-.22.55-1.26-.05-1.59.43-.17,0-.18-.32,0-.34Z"/><path class="cls-16" d="M307.41,501.13a2.77,2.77,0,0,0-.06,2.49,1.39,1.39,0,0,0,2.17.31,1,1,0,0,0,.21-.7,2.15,2.15,0,0,0-.09-.44,2.33,2.33,0,0,0-1-1.38,1.12,1.12,0,0,0-1.51.39Z"/><path class="cls-16" d="M298.16,482.85a1.2,1.2,0,0,0,.74.14,2.59,2.59,0,0,0,.65-.4c.52-.3,1.18-.12,1.75-.28,1-.27,1.43-1.42,1.72-2.42a.73.73,0,0,0,0-.69.89.89,0,0,0-.48-.19c-1.21-.3-1.19-1.63-2.16-2.13a3.37,3.37,0,0,0-2.95.27A3.42,3.42,0,0,0,298.16,482.85Z"/><path class="cls-16" d="M302.73,524.5a1.08,1.08,0,0,1,.07-.64,1.83,1.83,0,0,1,.61,1.51c0,.31,0,.7-.3.83s-.43,0-.65,0c-.44,0-.92.43-1.25.14a.54.54,0,0,1,0-.68,1.67,1.67,0,0,1,.58-.47l1.4-.81Z"/><path class="cls-16" d="M311.16,523c-.26.37.32.86.75.71a1.67,1.67,0,0,0,.81-1.05,1.61,1.61,0,0,0-1.77.15Z"/><path class="cls-16" d="M308.49,529.21a1.85,1.85,0,0,0-.14.65.55.55,0,0,0,.34.52c.35.11.67-.26,1-.33s.77.19,1.09,0a.63.63,0,0,0,0-.94,1.65,1.65,0,0,0-1-.37,1.71,1.71,0,0,0-.95.11.68.68,0,0,0-.4.79Z"/><path class="cls-16" d="M307.7,532.07a.41.41,0,0,1,.57,0,.78.78,0,0,1,.19.59.75.75,0,0,1-.1.36.54.54,0,0,1-.76.12.59.59,0,0,1-.08-.79.64.64,0,0,1,.79-.12Z"/><path class="cls-16" d="M335.85,544.47a.41.41,0,0,1,.57,0,.79.79,0,0,1,.19.6.78.78,0,0,1-.1.36.53.53,0,0,1-.76.11.57.57,0,0,1-.08-.78.63.63,0,0,1,.79-.12Z"/><path class="cls-16" d="M304.89,531.41a.64.64,0,0,0-.86.68,1,1,0,0,0,.69.1.54.54,0,0,0,.43-.5.36.36,0,0,0-.5-.31Z"/><path class="cls-16" d="M275.26,540.1a.64.64,0,0,0-.86.68,1.11,1.11,0,0,0,.69.1.55.55,0,0,0,.43-.5c0-.24-.3-.44-.5-.31Z"/><path class="cls-16" d="M295.22,528.09a1.81,1.81,0,0,0-.93,1.27l1.33.12a1.23,1.23,0,0,0,.63-.05.72.72,0,0,0,.19-1.06,1,1,0,0,0-1.13-.26Z"/><path class="cls-16" d="M287.66,517.26c0-.81,0-1.63,0-2.44.38-.17.68.35.78.76a2.12,2.12,0,0,1,0,1.22.72.72,0,0,1-1,.44Z"/><path class="cls-16" d="M288.48,504.83a.86.86,0,0,0-.44,1.38,1.27,1.27,0,0,0,1.62.12,1,1,0,0,0,.44-.61.9.9,0,0,0-.61-.9,2.57,2.57,0,0,0-1.17-.09Z"/><path class="cls-16" d="M279.18,523.75a1.39,1.39,0,0,0-1.12,1.07,1.58,1.58,0,0,0,1.14.21,1.09,1.09,0,0,0,1-1c0-.53-.84-.85-1.13-.41Z"/><path class="cls-16" d="M283.56,520.17a.81.81,0,0,1,1-.27v1.23a1,1,0,0,1-1.26-.77Z"/><path class="cls-16" d="M299.86,505.52l1.84-.63a1,1,0,0,0,.47-.26,1.06,1.06,0,0,0,.22-.52c.15-.67.23-1.53-.36-1.89s-1.4.19-2,.56c-1.21.7-5,.54-5,2.57S298.75,505.9,299.86,505.52Z"/><path class="cls-16" d="M289.59,509.11l-.11-.48a2.66,2.66,0,0,1,1.07.36.91.91,0,0,1,.4,1,.55.55,0,0,1-.91.19,1.87,1.87,0,0,1-.4-1.06Z"/><path class="cls-16" d="M312.89,528.36a.83.83,0,0,1,.87-.2.81.81,0,0,1,.52.73c0,.21-.13.47-.35.44a.51.51,0,0,1-.23-.12l-.93-.76.15-.14Z"/><path class="cls-16" d="M318.81,530.3c.22.32.71.28,1.09.18s.83-.2,1.12.06a.37.37,0,0,1,.13.29c0,.27-.43.27-.69.36a2.75,2.75,0,0,0-.56.35,1.31,1.31,0,0,1-1.48-.09.76.76,0,0,1,.13-.79.73.73,0,0,1,.78-.19Z"/><path class="cls-16" d="M317.51,534c0,.14-.06.29-.1.44a.56.56,0,0,0,.69,0,.45.45,0,0,0,0-.66.4.4,0,0,0-.61.17Z"/><path class="cls-16" d="M325.71,540.77c0,.15-.06.3-.1.44a.54.54,0,0,0,.69,0,.45.45,0,0,0,0-.66.4.4,0,0,0-.61.17Z"/><path class="cls-16" d="M301.62,530.93c.2-.22,0-.59-.31-.68a8.46,8.46,0,0,0-.88-.08,1,1,0,0,1-.71-.53.48.48,0,0,1,0-.5.54.54,0,0,1,.28-.21,3.15,3.15,0,0,1,1.69-.37,1.48,1.48,0,0,1,1.3,1,1.14,1.14,0,0,1-1.45,1.38Z"/><path class="cls-16" d="M270.85,557c.2-.22,0-.59-.31-.68a8.72,8.72,0,0,0-.88-.08,1.08,1.08,0,0,1-.72-.53.55.55,0,0,1,0-.51.66.66,0,0,1,.29-.2,3.15,3.15,0,0,1,1.69-.37,1.48,1.48,0,0,1,1.3,1,1.15,1.15,0,0,1-1.45,1.38Z"/><path class="cls-16" d="M295,535.21a.71.71,0,0,0-.18,1,1,1,0,0,0,1,.41c.17,0,.36-.11.36-.27A.38.38,0,0,0,296,536l-1-1Z"/><path class="cls-16" d="M279.67,544.83a3.58,3.58,0,0,0-2.78.11.63.63,0,0,0-.35.31c-.11.35.36.57.65.79.5.37.62,1.1,1.12,1.47a2.3,2.3,0,0,0,1.47.27c.73,0,1.69-.29,1.7-1a1.31,1.31,0,0,0-.56-1,7.28,7.28,0,0,0-2-1.27Z"/><path class="cls-16" d="M263.7,520.85c-.42-.4-1.07.09-1.43.54a1.19,1.19,0,0,0-.36,1c.14.47.75.56,1.23.57l1.27,0a.69.69,0,0,0,.53-.14.71.71,0,0,0,.09-.48,6,6,0,0,0-.75-2.37Z"/><path class="cls-16" d="M279,509.91c-3.33-3.92-7.56.38-5.58,4.31C275.43,518.34,281.84,513.33,279,509.91Z"/><path class="cls-16" d="M306.6,518.47a1.2,1.2,0,0,1,1.62,1,3.06,3.06,0,0,1-1.71.15,1,1,0,0,1-.73-1.35l1-.37Z"/><path class="cls-16" d="M323.36,518.56c0,.28,0,.55,0,.83a7.08,7.08,0,0,1,2.89.3,7.15,7.15,0,0,0,1.42.4,1.43,1.43,0,0,0,1.32-.48c.53-.75-.16-1.79-.94-2.27a4,4,0,0,0-3.33-.46,2.74,2.74,0,0,0-1.87,2.63l1.14,0Z"/><path class="cls-16" d="M324.26,526.81c-.36.13-.23.42.14.54a4.6,4.6,0,0,0,1.32.12l3,0a2.88,2.88,0,0,0,1.53-.27c.23-.21,0-.47-.41-.61a5.48,5.48,0,0,0-1.4-.21c-1.63-.11-3.63-.08-4.47.58l.77.31Z"/><path class="cls-16" d="M323.66,532.37a.32.32,0,0,1,.45,0,.76.76,0,0,1,.21.46.82.82,0,0,1,0,.41.6.6,0,0,1-.65.38.77.77,0,0,1-.59-.51.5.5,0,0,1,0-.38.27.27,0,0,1,.34-.14Z"/><path class="cls-16" d="M301.56,547a10.18,10.18,0,0,0-2.16.66.67.67,0,0,0,.27.52,2,2,0,0,0,2.92-.41.65.65,0,0,0,.13-.46.52.52,0,0,0-.47-.39,1.6,1.6,0,0,0-.65.09Z"/><path class="cls-16" d="M305.74,535.49c0,.15,0,.31-.07.46a1,1,0,0,0,.72,0c.22-.11.29-.48.07-.58a.49.49,0,0,0-.27,0l-.87.1Z"/><path class="cls-16" d="M288.65,534.21a2.79,2.79,0,0,0-.46,1.06,1,1,0,0,0,.42,1,.9.9,0,0,0,.56.08A1.12,1.12,0,0,0,290,535a1.11,1.11,0,0,0-1.35-.78Z"/><path class="cls-16" d="M269.23,538.61a.78.78,0,0,1,1.1-.76,2.24,2.24,0,0,1,.21.89,1.46,1.46,0,0,1-1-.08Z"/><path class="cls-16" d="M270.3,528.83c-.32.13,0,.69.33.58s.41-.55.32-.88a.75.75,0,0,0-.76.45Z"/><path class="cls-16" d="M310.48,508.45l0,.8a1.35,1.35,0,0,0,.6,0,.75.75,0,0,0-.47-.93Z"/><path class="cls-16" d="M252.39,474.53l0,.79a1.51,1.51,0,0,0,.6,0,.76.76,0,0,0-.47-.94Z"/><path class="cls-16" d="M277.35,498.52A2.75,2.75,0,0,1,278,496a.45.45,0,0,1,.29-.18c.17,0,.32.11.44.23.72.74,1.5,1.76,1,2.69a1.33,1.33,0,0,1-2.19.14c.1-.27.19-.54.28-.81Z"/><path class="cls-16" d="M333,477.62a2.75,2.75,0,0,1,.65-2.57.5.5,0,0,1,.29-.18.6.6,0,0,1,.45.24c.71.73,1.49,1.75,1,2.68a1.32,1.32,0,0,1-2.18.14l.27-.81Z"/></g><g class="cls-15"><path class="cls-16" d="M235.52,392.63a17.88,17.88,0,0,0-4.84,6.49,3.15,3.15,0,0,0-.33,1.27,2.54,2.54,0,0,0,1.38,2,5.22,5.22,0,0,0,5.82-.56,6.46,6.46,0,0,0,2.18-5.57,4.39,4.39,0,0,0-1.41-3,2.46,2.46,0,0,0-3.13,0,.53.53,0,0,0,.81.36Z"/><path class="cls-16" d="M263,377.2a4.63,4.63,0,0,0-1.25,4.3,4.84,4.84,0,0,0,4.42-.71,2.93,2.93,0,0,0,.41-4.13c-1.1-1.1-3.45-.4-3.49,1.16Z"/><path class="cls-16" d="M258.8,391.35a5.44,5.44,0,0,0-.28,1.55.33.33,0,0,0,0,.19.27.27,0,0,0,.18.08c.54.05,1.08-.61,1.54-.32.09,0,.16.14.26.13s.22-.22.2-.38a1.45,1.45,0,0,0-2-1l.1-.22Z"/><path class="cls-16" d="M45.91,222.59a10.39,10.39,0,0,0-.54,2.92.58.58,0,0,0,.07.35.46.46,0,0,0,.34.16c1,.1,2-1.15,2.92-.6.16.1.3.25.48.25s.42-.42.37-.73A2.72,2.72,0,0,0,45.86,223c.06-.14.12-.27.19-.41Z"/><path class="cls-16" d="M20.09,212.65a10,10,0,0,0-.53,2.92.62.62,0,0,0,.07.36.45.45,0,0,0,.34.15c1,.1,2-1.15,2.91-.6.16.1.3.26.49.25s.41-.42.37-.73a2.72,2.72,0,0,0-3.7-1.95c.07-.14.13-.27.19-.41Z"/><path class="cls-16" d="M251.25,396.94a2.34,2.34,0,0,0-.63,2,2.52,2.52,0,0,0,.94-.21.82.82,0,0,0,.49-.77c-.05-.44-.52-.69-.94-.85l.34-.15Z"/><path class="cls-16" d="M254,401.38a.9.9,0,0,0-.06.6,1.07,1.07,0,0,0,.4.42,9.4,9.4,0,0,1,1.23,1c-.07-.89-.14-1.78-.2-2.67a.37.37,0,0,1,0-.21c.08-.24.41-.25.6-.4s.2-.68,0-1C254.87,396.85,254.35,400.33,254,401.38Z"/><path class="cls-16" d="M91,273.88a.93.93,0,0,0-.06.59,1,1,0,0,0,.4.42,9.4,9.4,0,0,1,1.23,1c-.07-.89-.14-1.78-.2-2.67a.5.5,0,0,1,0-.21c.08-.24.41-.24.6-.4s.2-.67,0-1C91.85,269.34,91.32,272.82,91,273.88Z"/><path class="cls-16" d="M60.48,260.15c0,.26,0,.53,0,.79a1.25,1.25,0,0,0,1.16-.9c.1-.51-.46-1.08-.93-.85-.29.13-.7.47-.83.17Z"/><path class="cls-16" d="M56.48,247.05a1,1,0,1,1-.06.08Z"/><path class="cls-16" d="M53.21,235.35c-.17-.56-.26-1.33.27-1.58s1,.26,1.38.71c.14.19.3.44.21.66-.23.55-1.27-.06-1.6.43-.17,0-.18-.32,0-.34Z"/><path class="cls-16" d="M82,216.16a2.75,2.75,0,0,0-.06,2.48,1.4,1.4,0,0,0,2.17.32,1.07,1.07,0,0,0,.22-.71,1.58,1.58,0,0,0-.1-.43,2.26,2.26,0,0,0-1-1.38,1.12,1.12,0,0,0-1.51.39Z"/><path class="cls-16" d="M212.39,380a1.29,1.29,0,0,0,.74.13,2.59,2.59,0,0,0,.65-.4c.52-.3,1.18-.12,1.76-.27,1-.28,1.43-1.43,1.71-2.43a.7.7,0,0,0,0-.69.89.89,0,0,0-.48-.19c-1.21-.3-1.18-1.63-2.15-2.13a3.36,3.36,0,0,0-3,.28A3.42,3.42,0,0,0,212.39,380Z"/><path class="cls-16" d="M255.87,389.44a1,1,0,0,1,.06-.64,1.8,1.8,0,0,1,.62,1.5c0,.32,0,.71-.31.84s-.43,0-.65,0c-.43,0-.92.42-1.25.14a.53.53,0,0,1,0-.68,1.64,1.64,0,0,1,.57-.47l1.41-.81Z"/><path class="cls-16" d="M264.29,387.92c-.26.37.32.86.75.7a1.64,1.64,0,0,0,.82-1,1.61,1.61,0,0,0-1.77.15Z"/><path class="cls-16" d="M261.63,394.15a1.67,1.67,0,0,0-.15.65.57.57,0,0,0,.35.52c.35.11.66-.26,1-.33s.76.19,1.08,0a.63.63,0,0,0,0-.95,1.65,1.65,0,0,0-1-.36,1.73,1.73,0,0,0-1,.11.69.69,0,0,0-.4.79Z"/><path class="cls-16" d="M260.83,397a.42.42,0,0,1,.57,0,.75.75,0,0,1,.19.6.68.68,0,0,1-.1.36.53.53,0,0,1-.76.11.56.56,0,0,1-.07-.78.64.64,0,0,1,.79-.12Z"/><path class="cls-16" d="M289,409.4a.42.42,0,0,1,.58,0,.75.75,0,0,1,.18.6.77.77,0,0,1-.09.36.54.54,0,0,1-.77.11.58.58,0,0,1-.07-.78.61.61,0,0,1,.79-.12Z"/><path class="cls-16" d="M258,396.35a.64.64,0,0,0-.85.68,1.1,1.1,0,0,0,.69.1.53.53,0,0,0,.42-.5.35.35,0,0,0-.5-.31Z"/><path class="cls-16" d="M49.87,255.13a.63.63,0,0,0-.86.68,1.1,1.1,0,0,0,.69.09.54.54,0,0,0,.43-.5.36.36,0,0,0-.5-.31Z"/><path class="cls-16" d="M69.83,243.11a1.84,1.84,0,0,0-.94,1.28l1.34.12a1.18,1.18,0,0,0,.62-.06.72.72,0,0,0,.19-1.06,1,1,0,0,0-1.12-.25Z"/><path class="cls-16" d="M62.26,232.28c0-.81,0-1.62,0-2.43.37-.17.68.35.77.75a2.15,2.15,0,0,1,0,1.23.74.74,0,0,1-1,.44Z"/><path class="cls-16" d="M63.09,219.86a.86.86,0,0,0-.44,1.38,1.25,1.25,0,0,0,1.62.11,1,1,0,0,0,.44-.6.92.92,0,0,0-.62-.91,2.69,2.69,0,0,0-1.17-.09Z"/><path class="cls-16" d="M53.79,238.78a1.39,1.39,0,0,0-1.13,1.07,1.65,1.65,0,0,0,1.15.21,1.1,1.1,0,0,0,1-1.06c0-.52-.84-.85-1.13-.41Z"/><path class="cls-16" d="M58.17,235.19a.84.84,0,0,1,1-.27c0,.42,0,.83,0,1.24a1,1,0,0,1-1.25-.77Z"/><path class="cls-16" d="M74.47,220.54l1.83-.62a1.25,1.25,0,0,0,.48-.26,1.21,1.21,0,0,0,.22-.52c.15-.67.23-1.54-.36-1.89s-1.4.19-2,.56c-1.22.69-5,.53-5,2.56S73.35,220.92,74.47,220.54Z"/><path class="cls-16" d="M64.19,224.14c0-.16-.07-.32-.1-.48a2.66,2.66,0,0,1,1.07.36.9.9,0,0,1,.39,1,.56.56,0,0,1-.91.2,2,2,0,0,1-.39-1.06Z"/><path class="cls-16" d="M266,393.3a.84.84,0,0,1,.88-.2.83.83,0,0,1,.52.72c0,.22-.14.48-.35.45a.55.55,0,0,1-.24-.12l-.93-.76.16-.14Z"/><path class="cls-16" d="M271.94,395.24c.22.32.71.28,1.09.18s.84-.2,1.13.06a.33.33,0,0,1,.12.29c0,.27-.42.27-.69.36a2.44,2.44,0,0,0-.55.35,1.31,1.31,0,0,1-1.48-.09.72.72,0,0,1,.9-1Z"/><path class="cls-16" d="M270.64,399l-.09.45a.56.56,0,0,0,.69,0,.46.46,0,0,0,0-.66.39.39,0,0,0-.6.17Z"/><path class="cls-16" d="M278.84,405.71l-.09.44a.54.54,0,0,0,.69,0,.46.46,0,0,0,0-.66.39.39,0,0,0-.6.17Z"/><path class="cls-16" d="M254.76,395.87c.2-.22,0-.59-.31-.68a8.91,8.91,0,0,0-.89-.08,1.09,1.09,0,0,1-.71-.53.55.55,0,0,1,0-.51.63.63,0,0,1,.28-.2,3.15,3.15,0,0,1,1.69-.37,1.47,1.47,0,0,1,1.3,1,1.15,1.15,0,0,1-.31,1.11,1.18,1.18,0,0,1-1.13.27Z"/><path class="cls-16" d="M45.45,272c.2-.22,0-.59-.31-.68a8.46,8.46,0,0,0-.88-.09,1.08,1.08,0,0,1-.71-.52.5.5,0,0,1,0-.51.6.6,0,0,1,.28-.21,3.15,3.15,0,0,1,1.69-.37,1.5,1.5,0,0,1,1.3,1,1.18,1.18,0,0,1-.31,1.12,1.19,1.19,0,0,1-1.14.27Z"/><path class="cls-16" d="M69.59,250.23a.72.72,0,0,0-.18,1,1,1,0,0,0,1,.4c.16,0,.35-.1.36-.26a.39.39,0,0,0-.16-.29l-1-1Z"/><path class="cls-16" d="M54.28,259.85a3.67,3.67,0,0,0-2.78.11.62.62,0,0,0-.35.32c-.11.35.35.57.65.79.49.37.62,1.1,1.12,1.47a2.2,2.2,0,0,0,1.46.26c.74,0,1.69-.29,1.71-1a1.38,1.38,0,0,0-.56-.95,7,7,0,0,0-2-1.28Z"/><path class="cls-16" d="M38.3,235.87c-.41-.4-1.07.09-1.42.55a1.18,1.18,0,0,0-.36,1c.13.46.74.56,1.23.57L39,238a.69.69,0,0,0,.53-.15.59.59,0,0,0,.09-.47,5.77,5.77,0,0,0-.75-2.38Z"/><path class="cls-16" d="M53.55,224.94c-3.33-3.93-7.55.37-5.58,4.31C50,233.37,56.45,228.35,53.55,224.94Z"/><path class="cls-16" d="M259.73,383.4a1.21,1.21,0,0,1,1.62,1,3,3,0,0,1-1.71.15,1.05,1.05,0,0,1-.72-1.35l.95-.37Z"/><path class="cls-16" d="M140.48,203.29l0,.84a7.12,7.12,0,0,1,2.9.3,6.88,6.88,0,0,0,1.41.4,1.43,1.43,0,0,0,1.32-.49c.54-.75-.15-1.78-.94-2.26a4,4,0,0,0-3.32-.47,2.76,2.76,0,0,0-1.88,2.64l1.14,0Z"/><path class="cls-16" d="M277.4,391.75c-.37.12-.23.41.14.54a4.57,4.57,0,0,0,1.31.12l3,0a2.84,2.84,0,0,0,1.52-.27c.23-.21,0-.47-.4-.61a5.5,5.5,0,0,0-1.41-.21c-1.62-.11-3.62-.08-4.46.57l.76.32Z"/><path class="cls-16" d="M276.79,397.31a.32.32,0,0,1,.45,0,.76.76,0,0,1,.21.45,1,1,0,0,1,0,.42.61.61,0,0,1-.65.38.77.77,0,0,1-.59-.51.48.48,0,0,1,0-.39.27.27,0,0,1,.33-.13Z"/><path class="cls-16" d="M328,393.13a4.63,4.63,0,0,0-1.25,4.3,4.89,4.89,0,0,0,4.43-.7,3,3,0,0,0,.41-4.14c-1.11-1.09-3.46-.39-3.5,1.16Z"/><path class="cls-16" d="M329.23,403.85c-.26.37.32.86.75.71a1.71,1.71,0,0,0,.81-1.05,1.61,1.61,0,0,0-1.77.15Z"/><path class="cls-16" d="M353.91,425.34a.42.42,0,0,1,.58,0,.87.87,0,0,1,.09.95.56.56,0,0,1-.77.12.6.6,0,0,1-.07-.79.64.64,0,0,1,.79-.12Z"/><path class="cls-16" d="M331,409.23a.83.83,0,0,1,.87-.2.81.81,0,0,1,.52.73c0,.21-.13.47-.35.45a.53.53,0,0,1-.23-.13l-.93-.76.15-.14Z"/><path class="cls-16" d="M336.88,411.17c.22.32.7.28,1.08.18s.84-.2,1.13.06a.37.37,0,0,1,.13.29c0,.27-.43.27-.69.36a3.27,3.27,0,0,0-.56.35,1.31,1.31,0,0,1-1.48-.09.74.74,0,0,1,.13-.79.72.72,0,0,1,.77-.19Z"/><path class="cls-16" d="M335.57,414.89l-.09.44a.56.56,0,0,0,.69,0,.46.46,0,0,0,0-.66.39.39,0,0,0-.6.17Z"/><path class="cls-16" d="M343.77,421.64l-.09.45a.57.57,0,0,0,.69,0,.46.46,0,0,0,0-.66.39.39,0,0,0-.6.17Z"/><path class="cls-16" d="M342.33,407.68c-.37.13-.23.42.14.54a4.57,4.57,0,0,0,1.31.12l3,0a2.78,2.78,0,0,0,1.53-.27c.23-.2,0-.47-.41-.61a5.48,5.48,0,0,0-1.4-.21c-1.63-.11-3.63-.08-4.47.58l.76.31Z"/><path class="cls-16" d="M341.73,413.24a.32.32,0,0,1,.45,0,.7.7,0,0,1,.2.46.72.72,0,0,1,0,.41.6.6,0,0,1-.65.38.77.77,0,0,1-.59-.51.46.46,0,0,1,0-.38.26.26,0,0,1,.33-.14Z"/><path class="cls-16" d="M598.49,571.44a4.63,4.63,0,0,0-1.25,4.3,4.87,4.87,0,0,0,4.42-.7,2.94,2.94,0,0,0,.41-4.14c-1.1-1.09-3.45-.39-3.49,1.16Z"/><path class="cls-16" d="M599.76,582.16c-.26.38.32.86.75.71a1.69,1.69,0,0,0,.82-1,1.61,1.61,0,0,0-1.77.15Z"/><path class="cls-16" d="M624.45,603.65a.42.42,0,0,1,.58,0,.74.74,0,0,1,.18.59.77.77,0,0,1-.09.36.56.56,0,0,1-.77.12.6.6,0,0,1-.07-.79.64.64,0,0,1,.79-.12Z"/><path class="cls-16" d="M601.49,587.54a.84.84,0,0,1,.88-.2.83.83,0,0,1,.52.73c0,.21-.14.47-.35.45a.47.47,0,0,1-.24-.13l-.93-.76.16-.14Z"/><path class="cls-16" d="M607.41,589.48c.22.33.71.28,1.09.18s.84-.2,1.13.07a.31.31,0,0,1,.12.28c0,.27-.42.27-.69.36a2.85,2.85,0,0,0-.55.35,1.31,1.31,0,0,1-1.48-.09.72.72,0,0,1,.9-1Z"/><path class="cls-16" d="M606.11,593.2l-.09.44a.56.56,0,0,0,.69,0,.46.46,0,0,0,0-.66.39.39,0,0,0-.6.17Z"/><path class="cls-16" d="M614.31,600l-.09.45a.57.57,0,0,0,.69,0,.46.46,0,0,0,0-.66.39.39,0,0,0-.6.17Z"/><path class="cls-16" d="M612.87,586c-.37.13-.23.42.14.54a4.57,4.57,0,0,0,1.31.12l3,0a2.75,2.75,0,0,0,1.52-.27c.23-.2,0-.47-.4-.61a6,6,0,0,0-1.41-.21c-1.62-.11-3.62-.08-4.46.58l.76.31Z"/><path class="cls-16" d="M612.26,591.55a.32.32,0,0,1,.45,0,.76.76,0,0,1,.21.46,1,1,0,0,1,0,.41.61.61,0,0,1-.65.38.77.77,0,0,1-.59-.5.48.48,0,0,1,0-.39.26.26,0,0,1,.33-.14Z"/><path class="cls-16" d="M254.7,412a10.44,10.44,0,0,0-2.17.66.72.72,0,0,0,.28.52,2,2,0,0,0,2.92-.41.65.65,0,0,0,.13-.46.55.55,0,0,0-.48-.4,1.61,1.61,0,0,0-.65.1Z"/><path class="cls-16" d="M258.88,400.42c0,.16-.05.32-.07.47a1,1,0,0,0,.71,0c.22-.11.3-.48.08-.58a.53.53,0,0,0-.28,0l-.87.1Z"/><path class="cls-16" d="M472.74,527.19a18,18,0,0,0-4.84,6.49,3.32,3.32,0,0,0-.33,1.26,2.54,2.54,0,0,0,1.38,2,5.22,5.22,0,0,0,5.82-.56,6.49,6.49,0,0,0,2.19-5.57,4.36,4.36,0,0,0-1.42-3,2.46,2.46,0,0,0-3.13,0,.53.53,0,0,0,.81.36Z"/><path class="cls-16" d="M500.25,511.76a4.63,4.63,0,0,0-1.26,4.3,4.87,4.87,0,0,0,4.43-.71,3,3,0,0,0,.41-4.13c-1.1-1.1-3.46-.4-3.49,1.16Z"/><path class="cls-16" d="M496,525.91a5.11,5.11,0,0,0-.28,1.55.26.26,0,0,0,0,.19.27.27,0,0,0,.18.08c.55,0,1.09-.61,1.55-.32.08.05.16.14.26.13s.21-.22.19-.38a1.45,1.45,0,0,0-2-1,1.47,1.47,0,0,0,.1-.22Z"/><path class="cls-16" d="M488.47,531.5a1,1,0,1,0,.32,1.79.84.84,0,0,0,.49-.77c0-.45-.53-.69-.94-.85l.33-.15Z"/><path class="cls-16" d="M491.23,535.94a1,1,0,0,0-.05.6,1,1,0,0,0,.4.42,8.7,8.7,0,0,1,1.22,1l-.2-2.67a.55.55,0,0,1,0-.22c.08-.23.41-.24.61-.39s.19-.68,0-1C492.1,531.41,491.57,534.89,491.23,535.94Z"/><path class="cls-16" d="M449.61,514.53a1.3,1.3,0,0,0,.74.13,2.84,2.84,0,0,0,.66-.4c.51-.3,1.17-.12,1.75-.27,1-.28,1.43-1.43,1.72-2.43a.76.76,0,0,0,0-.69.89.89,0,0,0-.48-.19c-1.22-.3-1.19-1.63-2.16-2.13a3.36,3.36,0,0,0-3,.28A3.42,3.42,0,0,0,449.61,514.53Z"/><path class="cls-16" d="M493.09,524a1.17,1.17,0,0,1,.06-.64,1.8,1.8,0,0,1,.62,1.5c0,.32,0,.71-.3.83s-.43,0-.65,0c-.44,0-.92.42-1.25.14a.54.54,0,0,1-.05-.68,1.73,1.73,0,0,1,.57-.47l1.41-.81Z"/><path class="cls-16" d="M501.52,522.48c-.26.37.32.86.75.7s.64-.62.81-1a1.61,1.61,0,0,0-1.77.15Z"/><path class="cls-16" d="M498.85,528.71a1.67,1.67,0,0,0-.15.65.59.59,0,0,0,.35.52c.35.11.67-.26,1-.33s.77.19,1.09,0a.64.64,0,0,0,0-.95,2.24,2.24,0,0,0-2-.25.7.7,0,0,0-.41.79Z"/><path class="cls-16" d="M498.05,531.57a.42.42,0,0,1,.58,0,.79.79,0,0,1,.19.6.78.78,0,0,1-.1.36.54.54,0,0,1-.77.11.58.58,0,0,1-.07-.78.64.64,0,0,1,.79-.12Z"/><path class="cls-16" d="M526.21,544a.41.41,0,0,1,.57,0,.79.79,0,0,1,.19.6.78.78,0,0,1-.1.36.53.53,0,0,1-.76.11.57.57,0,0,1-.08-.78.61.61,0,0,1,.79-.12Z"/><path class="cls-16" d="M495.25,530.91a.64.64,0,0,0-.86.68,1.11,1.11,0,0,0,.69.1.54.54,0,0,0,.43-.5c0-.24-.3-.44-.5-.31Z"/><path class="cls-16" d="M503.25,527.85a.85.85,0,0,1,.87-.19.81.81,0,0,1,.52.72c0,.22-.13.48-.35.45a.45.45,0,0,1-.23-.13l-.93-.75.15-.14Z"/><path class="cls-16" d="M509.17,529.8c.22.32.7.28,1.09.18s.83-.2,1.12.06a.36.36,0,0,1,.13.29c0,.27-.43.27-.69.36a2.75,2.75,0,0,0-.56.35,1.31,1.31,0,0,1-1.48-.09.73.73,0,0,1,.9-1Z"/><path class="cls-16" d="M507.87,533.51c0,.15-.07.3-.1.45a.56.56,0,0,0,.69,0,.45.45,0,0,0,0-.66.39.39,0,0,0-.6.17Z"/><path class="cls-16" d="M516.07,540.27c0,.15-.07.29-.1.44a.54.54,0,0,0,.69,0,.46.46,0,0,0,0-.66.39.39,0,0,0-.6.17Z"/><path class="cls-16" d="M492,530.43c.2-.22,0-.59-.31-.68a8.46,8.46,0,0,0-.88-.08,1,1,0,0,1-.71-.53.52.52,0,0,1,0-.51.78.78,0,0,1,.29-.21,3.34,3.34,0,0,1,1.69-.37,1.5,1.5,0,0,1,1.3,1,1.15,1.15,0,0,1-1.45,1.38Z"/><path class="cls-16" d="M497,518a1.21,1.21,0,0,1,1.62,1,3.06,3.06,0,0,1-1.71.15c-.56-.18-1-.84-.73-1.35l.95-.37Z"/><path class="cls-16" d="M514.62,526.31c-.37.12-.23.41.14.54a4.6,4.6,0,0,0,1.32.12l3,0a2.88,2.88,0,0,0,1.53-.27c.23-.21,0-.47-.41-.61a5.48,5.48,0,0,0-1.4-.21c-1.63-.11-3.63-.08-4.47.57l.76.32Z"/><path class="cls-16" d="M514,531.87a.32.32,0,0,1,.45,0,.76.76,0,0,1,.21.45.86.86,0,0,1,0,.42.61.61,0,0,1-.65.38.77.77,0,0,1-.59-.51.53.53,0,0,1,0-.39.27.27,0,0,1,.34-.13Z"/><path class="cls-16" d="M491.92,546.52a10.76,10.76,0,0,0-2.16.65.68.68,0,0,0,.27.53,2,2,0,0,0,2.92-.41.65.65,0,0,0,.13-.46.55.55,0,0,0-.47-.4,1.61,1.61,0,0,0-.65.1Z"/><path class="cls-16" d="M496.1,535c0,.16,0,.32-.07.47a1,1,0,0,0,.72,0c.21-.11.29-.48.07-.58a.49.49,0,0,0-.27,0l-.88.1Z"/><path class="cls-16" d="M63.26,249.23a3.05,3.05,0,0,0-.47,1.06,1,1,0,0,0,.43,1,.83.83,0,0,0,.56.07,1.07,1.07,0,1,0-.51-2.08Z"/><path class="cls-16" d="M43.84,253.64a.79.79,0,0,1,1.1-.77,2.32,2.32,0,0,1,.21.89,1.38,1.38,0,0,1-1-.08Z"/><path class="cls-16" d="M44.9,243.86c-.32.13,0,.69.34.58a.72.72,0,0,0,.31-.88.72.72,0,0,0-.75.45Z"/><path class="cls-16" d="M85.09,223.48l0,.79a1.51,1.51,0,0,0,.6,0,.73.73,0,0,0-.47-.93Z"/><path class="cls-16" d="M27,189.55l0,.79a1.35,1.35,0,0,0,.6,0,.74.74,0,0,0-.47-.93Z"/><path class="cls-16" d="M52,213.55a2.77,2.77,0,0,1,.66-2.58.42.42,0,0,1,.73.06c.72.73,1.49,1.76,1,2.68a1.33,1.33,0,0,1-2.19.15l.27-.81Z"/><path class="cls-16" d="M179.21,413.51a2.73,2.73,0,0,1,.65-2.57.46.46,0,0,1,.28-.18c.18,0,.33.11.45.23.72.74,1.49,1.76,1,2.69a1.33,1.33,0,0,1-2.19.14c.09-.27.18-.54.28-.81Z"/></g><polygon class="cls-4" points="276.97 693.13 286.79 693.13 306.36 700.31 337.2 705.43 374.67 699.28 558.25 706.46 190.03 719.97 28.79 710.93 34.05 705.43 0 699.93 44.69 674.05 65.09 680.89 276.97 693.13"/><polygon class="cls-17" points="206.85 710.93 175.68 712.43 190.03 719.97 28.79 710.93 34.05 705.43 34.05 705.43 0 699.93 56.6 689.85 96.14 705.74 183.57 703.65 206.85 710.93"/><path class="cls-5" d="M235.06,701.23S111,707.39,99.68,706.34,56.6,689.85,56.6,689.85L34.05,473.55l11.26-8.74V392.39l.31-.43c1.88-2.62,12.61-17.6,28.43-36.77l15.38,29.14,2.4.61c8.12,2.19,35.51,9.94,59.32,21.79l1.85.92,17,100.88,2.46,3.07,8.22,60.29,7.2,1.13Z"/><polygon class="cls-17" points="45.32 392.38 45.32 464.83 77.18 487.34 82.01 488.01 70.06 422.73 63.66 402.63 45.32 392.38"/><polygon class="cls-17" points="34.04 473.54 45.32 488.8 51.99 491.48 49.3 496.84 60.45 500.32 70.06 639.16 73.14 641.08 73.14 654.65 82.01 661.3 96.14 705.74 56.6 689.85 34.04 473.54"/><polygon class="cls-17" points="119.68 558.35 119.68 571.24 128.14 582.62 140.96 705.43 134.55 700.31 112.75 607.24 107.37 603.39 102.37 518.4 109.68 540.32 119.68 558.35"/><path class="cls-18" d="M151.15,406.73H120.82l-23.91-8.9-10.06,4.8H63.68L45.31,392.39l.31-.43,28.43-36.77,15.38,29.14,2.4.61C100,387.13,127.34,394.88,151.15,406.73Z"/><polygon class="cls-19" points="45.32 464.83 34.04 473.54 45.32 488.8 51.99 491.48 49.3 496.84 60.45 500.32 113.14 496.84 77.18 487.34 45.32 464.83"/><path class="cls-19" d="M119.68,558.35s10.12,7.74,14.87,7.74,28.2-4,31.66-7.74-20.64-20.47-31.66-27.52-32.18-12.43-32.18-12.43l4.15,12.43,3.16,9.49Z"/><polygon class="cls-17" points="96.91 397.83 98.23 432.38 100.45 432.38 107.37 470.07 109.42 416.22 113.14 418.53 120.81 406.73 96.91 397.83"/><polygon class="cls-19" points="180.69 571.89 177.11 581.09 168.91 591.6 180.44 588.26 187.89 573.02 180.69 571.89"/><path class="cls-7" d="M108.86,525.32s6.59,17.73,10,26.34,11.15,10.77,17.5,11.35,21.81-2.06,24-6.66S128.05,524.36,108.86,525.32Z"/><path class="cls-8" d="M114.09,539.24s13.8,3.64,20.46,8.51,13,14.37,13,14.37-14.29,3.06-22.31-2.55S114.09,539.24,114.09,539.24Z"/><path class="cls-20" d="M166.21,558.35l6.26,76.19-3.13,13.08-.43,34.61L141,699.93,128.14,582.62l-8.46-11.38V558.35s11.28,7.35,14.87,7.74S158.52,564.83,166.21,558.35Z"/><polygon class="cls-20" points="82.01 661.3 120.81 641.66 134.55 700.31 96.14 700.31 82.01 661.3"/><polygon class="cls-20" points="180.44 588.26 206.08 654.65 209.11 651.08 215.06 663.65 223.93 670.99 187.89 573.02 180.44 588.26"/><path class="cls-4" d="M183.57,703.65V629.14s52.25-7.58,77.38,25.51l6.16,20.28,5.64,2.05,7.43,28.45s-61.37,6.42-71.07,5.39S183.57,703.65,183.57,703.65Z"/><path class="cls-7" d="M256.35,658c-.37.84-1.82,2-4.1,3.14-5.59,2.86-16.21,5.54-28.33,2.25-8.59-2.31-19.35-9.88-27.08-16.89v0c-7.63-6.9-12.27-13.26-9-13.6C236.1,628,257.61,655.17,256.35,658Z"/><path class="cls-8" d="M252.25,661.14c-5.59,2.86-16.21,5.54-28.33,2.25-8.59-2.31-19.35-9.88-27.08-16.89v0s23.6-1,38.22,4.86A69,69,0,0,1,252.25,661.14Z"/><path class="cls-17" d="M183.57,629.14v74.51l23.28,7.28V696l-3.07-1.28-1.59-25-3-8.36L192,646.4S186.8,644.67,183.57,629.14Z"/><polygon class="cls-19" points="272.75 676.98 252.25 686.85 229.76 686.85 251.04 681.91 267.11 674.93 272.75 676.98"/><polygon class="cls-7" points="55.34 498.73 60.89 506.69 63.66 500.11 55.34 498.73"/><polygon class="cls-11" points="118.57 556.35 119.68 563.09 120.81 559.72 118.57 556.35"/><polygon class="cls-11" points="175.68 589.64 182.2 592.81 180.44 588.26 175.68 589.64"/><polygon class="cls-21" points="256.4 690.31 236.85 695.95 252.25 695.95 256.4 690.31"/><polygon class="cls-21" points="144.03 634.67 149.42 643.39 144.03 637.88 144.03 634.67"/><polygon class="cls-7" points="90.83 591.6 86.22 606.08 90.83 598.84 90.83 591.6"/><polygon class="cls-11" points="236.85 695.95 251.25 694.54 256.4 690.31 252.25 695.95 236.85 695.95"/><polygon class="cls-11" points="144.03 634.67 145.51 638.58 149.42 643.39 144.03 638.45 144.03 634.67"/><polygon class="cls-11" points="90.83 591.6 90.83 598.84 86.22 606.08 92.24 599.93 90.83 591.6"/><polygon class="cls-20" points="120.81 406.73 113.14 418.53 107.37 470.07 150 499.68 155.41 499.68 169.7 506.69 153 407.65 120.81 406.73"/><polygon class="cls-7" points="168.91 500.32 166.55 505.15 155.41 499.68 149.55 498.73 112.38 473.54 149.55 500.32 155.32 501.47 170.01 508.53 168.91 500.32"/><polygon class="cls-11" points="149.55 500.32 155.44 502.58 166.55 509.42 172.47 511.6 170.01 508.53 155.32 501.47 149.55 500.32"/><polygon class="cls-7" points="51.99 491.48 86.55 498.6 86.22 514.93 82.01 516.67 70.45 568.39 82.95 517.53 88.04 515.7 87.42 500.32 89.01 498.44 51.99 491.48"/><polygon class="cls-20" points="63.66 500.11 60.89 506.69 65.65 575.45 70.5 570.7 82.01 516.67 86.22 514.93 86.55 498.6 63.66 500.11"/><polygon class="cls-11" points="88.04 515.7 86.86 517.56 84.04 518.4 81.78 522.29 82.95 517.53 88.04 515.7"/></g></g></g></g></svg>