<svg xmlns="http://www.w3.org/2000/svg" viewBox="0 0 1031 1084.27"><defs><style>.cls-1{fill:#43595e;}.cls-2{fill:#4f6b70;}.cls-3{fill:#56797c;}.cls-4{fill:#434a4c;}.cls-5{fill:#313638;}.cls-6{fill:#006856;}.cls-7{fill:#00bfa5;}.cls-8{fill:#374042;}</style></defs><g id="Layer_2" data-name="Layer 2"><g id="Website"><g id="right"><g id="bottom_right" data-name="bottom right"><path class="cls-1" d="M394,1084l24-65c-7.11-7.18-13-13.25-20.25-20.33-1.56-1.52-2.05-2.7-1.22-4.8,8.85-22.32,17.56-44.69,26.43-67a8.41,8.41,0,0,0-.45-7.87c-3.48-6.3-6.65-12.77-10-19.12-5.28-9.9-10.64-19.76-16-29.63-3,.33-3.86,2.81-4.79,5.09-7.4,18-15.38,35.82-22.76,53.86-.54,1.32-.76,3-2.56,3.57a11.56,11.56,0,0,1-2.36-2.89c-7.7-11.41-15.71-22.62-23.54-33.95-3.89-5.62-6-5.31-8.87.84-6.74,14.6-13.18,29.34-19.78,44-9.47,21-18.92,42-28.53,63-8.19,17.85-16,35.86-24.13,53.76-3.31,7.33-6.78,14.6-9.78,22.06-.69,1.72-2.1,4,1.34,4.58,8.94.32,17.89-.24,26.84-.28"/><path class="cls-2" d="M208.15,1084.17a3.19,3.19,0,0,1,0-.69c-4.25-1.91-3.61-4.5-1.81-8.12,7.59-15.23,15.31-30.39,22.87-45.64q20.17-40.74,40.49-81.4c5.1-10.24,9.91-20.62,15.47-30.63.73-1.32,1.15-3.12,3-3.26a89,89,0,0,1,16.07,0c-2.72,3.41-5.72,2.18-8.31,2.59-2.25.36-5.13-.7-6.1,2.64h13.34c-3.91,7-6.74,13.74-10,20.29-7.33,14.73-13.76,29.91-21,44.7-8.4,17.18-16.75,34.36-24.87,51.67-6.82,14.52-13.95,28.89-21,43.3-1.39,2.85-1.48,4.44,1.7,4.35h22c7.6-17,15.57-36.12,23.16-53.1q10.14-22.73,20.34-45.4c6.13-13.57,12.42-27.06,18.53-40.63q11.27-25,22.34-50c.86-1.94,1.46-2.67,3-.43,7.44,11,14.86,21.93,22.53,32.72,2.32,3.28,4.12,7.08,7.77,9.87,2.45-6,4.69-11.78,7.09-17.43,4.21-9.91,8.35-19.85,12.84-29.63,3-6.55,4.72-13.68,8.93-19.68-1.25-1.4-2.89-.81-4.37-.76-6.48.25-13,.88-19.45.87-12.38,0-24.72.94-37.09,1.27-2.22.06-3.62.52-4.62,2.81-2.28,5.21-5.15,10.17-7.38,15.4-1,2.31-2.32,2.94-4.56,2.95-25.83.09-51.61,2.08-77.43,2.43C233.14,895.34,228,895,224,905l-45.43,92a5,5,0,0,1-.49,3.6c-6,12.14-12.1,24.23-18.07,36.38-7.57,15.43-15.49,31.55-23,47,5,0,13,0,18,0"/><path class="cls-3" d="M366,887l-5,17a44,44,0,0,0,9,1l6-18C372.44,885.08,368.08,884,366,887Z"/><path class="cls-1" d="M378,883l-14,1s-6.46,15.87-7,19l4,1c.46-1.44,6-16,6-16s2.22-1.32,9-1C376.6,885.9,378,883,378,883Z"/><path class="cls-3" d="M401,923l-5,11c-2,5-1.06,5.87,2.83,9.55,1.95-4.16,3.77-8.12,5.66-12C405.49,929.44,403,923.32,401,923Z"/><path class="cls-1" d="M208,1084c-7.28-.29-7.88.3-8,0,9.82-19.82,23.69-46.86,33.51-66.68,6-12.08,11.7-24.28,17.67-36.36,4.8-9.73,9.85-19.35,14.72-29.05,6.18-12.29,12.38-24.57,18.35-37a4.09,4.09,0,0,1,4.27-2.63c5.25-.08,11.24,0,16.48-.31,2.56-.14,4,0,4,1-.92,2.52-1,5.92-4,6-3.65.1-11.67-.94-15.2.69-3.79,4.2-5.44,9.6-7.91,14.51-10.09,20-19.88,40.24-29.75,60.4-8.93,18.23-17.75,36.51-26.74,54.71C219.75,1060.76,213.77,1072.61,208,1084Z"/><path class="cls-3" d="M257,919c-3.09,0-6.91,0-10,0-3.06-1.09-4.55,3.15-5.41,4.87-4.63,9.24-9.38,18.42-13.79,27.77L160,1084l18.65-.21,78.54-160.4C258.38,920.94,258.91,919,257,919Z"/><path class="cls-1" d="M153,1084h8s21.79-43.79,31.66-63.07l46.11-91.17c1.54-3.17,2.28-6.93,5.47-9.15a11.15,11.15,0,0,1,2.6-.77c3.24-.14,6.48,0,9.71-.21,3.78-.21,4.09-3.84,4.39-6.09s-2.64-1-4.09-1.1c-3.53-.18-7.09,0-10.63,0-4.51,0-7.25,2-9.2,6.16"/><path class="cls-2" d="M150.34,1009.83c-6.24-4-10.83-9.9-16.37-14.71-1.47-1.27-3.23-2.46-4-4.46a20.9,20.9,0,0,0,1.1-2c1.73-4,4.25-6,9.13-5.8,6.77.34,13.59-.41,20.39-.61,1.6,0,3.49-.74,4.57,1.25-3.68,1.17-3.82,5-5.37,7.61C156.25,997.14,153.45,1003.58,150.34,1009.83Z"/><path class="cls-1" d="M177.57,996l-12.38-12.47a3.17,3.17,0,0,0-3.95,1.63c-4.34,7.61-8.86,15.13-11.71,23.48l-19.53-18a6.48,6.48,0,0,1-2.33-1.3c-12.72-9.73-26.35-17.78-42.71-19-13-.95-25.69-3.47-34,9.61-1.72,2.72-3.86,8-5.58,10.69,1.65.83,3.07-.19,4.34-.82A39,39,0,0,1,68,986c20,.41,37,9.07,52.37,21.29,2.15,1.71,2.25,3.42.62,5.51-1.25,1.59-34,69.08-34,71.21h52l38.46-81.36C178.48,1000.56,180.21,998.26,177.57,996Z"/><path class="cls-2" d="M116.63,1002.15a98.48,98.48,0,0,0-22.13-12.4c-16.45-6.23-32.91-9.13-49.08.94L0,1084H90l30.16-66.06C125.06,1009.27,124.68,1007.91,116.63,1002.15Z"/><path class="cls-3" d="M208,1084h21c5.36-11.48,14.17-30.6,19.59-42,15.26-32.26,30.9-64.33,46.25-96.53,3.46-7.25,7-14.46,10.29-21.79,1.77-4,1.09-5.09-3.17-5.21a75.35,75.35,0,0,0-10.19.14A11.58,11.58,0,0,0,286,924c-7,14.15-12.76,27.91-19.72,42.08"/></g><g id="right-2" data-name="right"><path class="cls-4" d="M1031,0H887c-3.59,10.87-14.12,39.62-17.89,50.43a2.17,2.17,0,0,1-1.49,1.49l-9.47,30.31c-5,9.07-7.11,19.26-11,28.78-3.71,9.08-6.6,18.5-9.88,27.76q-6.32,17.82-12.66,35.61-6.26,17.61-12.55,35.19c-4.12,11.43-8.35,22.81-12.44,34.24-3.48,9.69-6.79,19.45-10.25,29.15-3.05,8.56-6.25,17.07-9.32,25.62q-6.36,17.78-12.64,35.58-6.24,17.58-12.5,35.15c-4,11.28-8,22.58-12.06,33.83-3.26,9-6.77,17.83-10,26.8-5.14,14.33-10,28.75-15.24,43.05-4.27,11.69-8.05,23.56-12.61,35.15-3.78,9.58-6.72,19.48-10.14,29.2-3.17,9-6.51,17.92-9.74,26.89q-6.35,17.57-12.64,35.13c-3.22,9-6.4,17.93-9.63,26.89q-6.17,17.13-12.38,34.25c-4.18,11.58-8.43,23.15-12.53,34.76s-8,23.24-12.09,34.8c-3.26,9.12-6.89,18.11-10.14,27.23-5.12,14.33-9.89,28.78-15.17,43L555.41,815c-21.93,2.59-43.87,5.22-65.78,8-3.23.41-5.52,1.91-6.68,5-2.81,7.36-5.71,14.69-8.58,22q-13.5,34.55-27,69.1c-6.66,17-13.43,33.91-20.09,50.88L377,1084l654-.71"/><path class="cls-5" d="M922,1020.57c2-8.69,4.16-17.35,6.14-26,3.29-14.41,6.23-28.89,9.83-43.22,2.31-9.25,4.59-18.54,6.71-27.81q5.31-23.21,10.87-46.33c1.51-6.29,2.69-12.66,4-19,.54-2.62-.25-4.43-3.24-4.16-7.37.65-14.74,1.41-22.11,2.18-15.51,1.63-31,3.54-46.54,4.85-11.39,1-22.74,2.36-34.11,3.42-16.75,1.57-33.45,3.82-50.24,5-7.83.56-8.68.94-10.86,8.36-.22.74-.47,1.47-.67,2.22-2.39,8.58-4.65,17.21-7.2,25.75-3.16,10.61-6.4,21.23-9.25,31.9-4.08,15.31-8.82,30.42-12.94,45.72-2.88,10.69-6.4,21.24-9.25,31.92-4.35,16.35-15,50.25-19.1,66.65l173,1"/><path class="cls-6" d="M950.09,860l-45.55,4.53C890.33,866,876,867.62,861.8,869.1c-20.22,2.11-40.41,4.61-61.35,6.34,5.58,8.47,12.5,15.11,18.17,22.73a4.85,4.85,0,0,0,5.32,1.89c9.26-1.93,18.75-1.8,28-3l90.65-9c1.76-.44,4.25-.12,4.82-2.11,2.15-7.68,4-15.44,5.85-23.21C953.87,860.3,952.62,859.5,950.09,860Z"/><path class="cls-5" d="M495,1083h6c1.52-7.71,8.29-22.63,10.65-30.06,2.12-6.7,4.45-13.34,6.71-20,2.17-6.38,4.39-12.74,6.56-19.12,2.47-7.21,4.9-14.43,7.38-21.64,2.29-6.65,4.63-13.28,7-19.91,2.23-6.37,4.7-12.68,6.69-19.12,3.06-10,6.81-19.67,10-29.56.94-2.88,3.83-11.42,6-18.6,4,6.3,9.85,15.67,11,17,3.22,3.7,8.54,6.09,6.53,11.45-4.14,11-8,22.17-12,33.28-3.39,9.53-6.79,19.07-10,28.65-4.08,12-7.61,24.24-12.12,36.08-4.73,12.45-12.91,39-17.38,51.54h6c2.73-9,8.85-27.14,12-36,4.28-12,7.82-23.93,12-36s8.78-24.83,13-37,9.23-25.8,13-38c1.85-6,1.13-5,8-5l96-11c3.12-.34,5.08-2.65,4,.72-3.17,10.29-6.39,20.59-9,31-2.84,11.5-6.45,22.76-9.59,34.16-2.33,8.45-4.94,16.82-7.29,25.27-3.22,11.54-6.27,23.14-9.45,34.7-2.62,9.49-6.24,23.58-8.76,33.1-1,3.61,0,4,4,4,3.57-12.73,8.24-30.7,11.8-43.43,4.6-16.45,8.91-33,13.85-49.33,6-19.74,11.42-39.6,16.92-59.46,4.11-14.84,8.55-29.59,12.84-44.39,1.41-4.85.7-5.78-4.3-5.77-8.24,0-16.23,2.08-24.38,2.84-10.91,1-21.8,2.23-32.69,3.43-14.73,1.62-70.32,7.42-85,9.11m139.6-5.56c-1.6,4.95-2.76,10-4,15.1-1.78,7.52-2.68,8.28-10.27,8.64-2.3.11-4.58.65-6.87.9-14.85,1.66-29.68,3.4-44.53,5-15.77,1.68-31.46,4-47.28,5.44-3.89.35-5.7-.91-8-3.52-1.74-2-9-14-14.31-20.23,11.79-1.12,34.6-5,43.8-4.79a2.74,2.74,0,0,0,.45-.12c12.25-2.4,24.75-3,37.08-4.83,12.93-2,26-2.69,39.06-4,3.83-.4,7.61-1.19,11.43-1.69C700.46,885.85,701.76,886.83,700.6,890.44Z"/><path class="cls-7" d="M694,919,586,931l-52,152H649"/><path class="cls-7" d="M924,990q5.29-23.38,10.6-46.78,5.67-24.93,11.39-49.86c.64-2.82-.11-3.67-2.79-3.4-8.94.91-17.88,1.66-26.81,2.62-14.29,1.52-28.57,3.24-42.87,4.75-15.49,1.64-31,3.12-46.48,4.69-1.51.15-3.31.42-3.55,2.24L772,1082H903"/><polygon class="cls-8" points="845 775 928 766 1031 295 1031 94 845 775"/><polygon class="cls-8" points="694 793 764 785 981 0 935 0 694 793"/><path class="cls-5" d="M1024.18,753.41q-35.19,4.27-70.37,8.48-22.54,2.72-45.08,5.45c-12,1.47-23.89,3.1-35.85,4.53-10.43,1.24-20.89,2.19-31.31,3.46-12.73,1.54-25.42,3.36-38.14,4.9-10.58,1.27-21.19,2.22-31.77,3.45-13.44,1.56-81.59,9.61-95.48,11.3l-68.44,6.74c-5.21.65-5.44.48-3.55-4.57q5.29-14.13,10.18-28.39c8.49-24.71,17.47-49.25,26.27-73.85,9.9-27.67,19.73-55.37,29.75-83,9.76-26.89,19.12-53.93,28.92-80.81,8-21.94,15.78-44,23.7-65.94,9.34-25.9,18.7-51.79,27.87-77.75C760.52,360.16,770.3,333,780,305.69c9.24-26.1,18.76-52.1,28-78.21,9.16-25.95,18.51-51.85,27.8-77.76q12-33.4,23.85-66.84L889,0H878c-4.56,12.82-13.37,36.82-17.86,49.66-9.38,26.84-19.25,53.51-28.58,80.37-3.53,10.05-7.43,20-10.65,30.13-5.33,12.68-9.49,25.8-14.09,38.75-8.91,25.05-18,50-26.82,75.11-5.15,14.74-10.56,29.38-15.79,44.09-2.05,5.79-3.89,11.68-6.54,17.26-4.69,11.41-8.27,23.21-12.42,34.82-2.54,7.1-5.51,14.11-7.69,21.29-4.66,15.38-11.41,30-16.13,45.32-2.89,9.43-6.91,18.47-9.55,28-.25,2.88-2.18,5.06-3.1,7.7-8.77,25.27-18,50.37-26.93,75.6-4.72,13.38-9.66,26.69-14.19,40.14-.12,2.66-1.72,4.75-2.73,7.06-.14,2.42-1.31,4.46-2.36,6.55-10.77,29.79-21.27,59.68-32,89.48q-10.77,29.88-21.43,59.8c-5.69,15.86-11.56,31.65-17,47.61-1.24,3.65-3.14,5.21-6.75,5.81-11.59,1.94-23.3,2.91-34.94,4.28q-32,3.77-63.91,7.78a10,10,0,0,0-8.86,7.14c-2.18,6.28-5.17,12.21-7.73,18.33-.9,6.21-4.17,11.56-6.36,17.29-7.83,20.49-16,40.84-23.91,61.31-6,15.56-12.29,31-18.35,46.55-6.73,17.26-13.08,34.68-20.55,51.65-3.37,9.74-7.16,19.33-11,28.9C385.25,1059,379.7,1072.41,376,1084h10c3.53-9,7.88-22.31,11.42-31.32,3.93-10,8-20,11.92-30,5-12.89,9.8-25.86,14.86-38.74,5.17-13.16,10.62-26.21,15.81-39.36,6.27-15.89,12.4-31.83,18.59-47.75l15.2-39.15q5.85-15,11.73-30.09a4.11,4.11,0,0,1,3.88-2.73c11-1.17,22.1-2.45,33.14-3.76Q557.28,817,592,812.75c15.64-1.88,31.3-3.59,46.91-5.71l32.45-3.71c22.48-2.14,70.27-8.71,78.7-9.69,12.71-1.49,25.45-2.91,38.14-4.75,19.39-2.81,38.94-4.56,58.41-6.83q23.22-2.71,46.43-5.6C904.69,775,916.31,773.35,928,772c17.78-2.07,35.62-3.68,53.37-6,14.7-1.94,29.38-3.93,44.15-5.22,2-.18,3.67-.54,4.23-2.77C1030,753.83,1027.74,753,1024.18,753.41Z"/><path class="cls-6" d="M698,884c-8.56,1.24-20.6,2.39-29.14,3.51L563,899l8.14,11.1,9.72,15c1,1.18,1.89,2.19,3.41,1.89l51.07-5.72L690,915c4.39-.55,5.73-1,6.83-4.53,1.85-5.88,3.82-11.73,5.13-17.77C703.39,886.07,704.76,883,698,884Z"/><path class="cls-6" d="M578,927l-16-25c-4.7,12.71-12.87,35.11-17.17,48-5.93,17.7-12.05,35.33-18,53L498,1083h31l50-145C580.79,933.09,581,931,578,927Z"/><polygon class="cls-6" points="798 880 819 904 767 1082 739 1082 798 880"/></g></g></g></g></svg>