<svg xmlns="http://www.w3.org/2000/svg" viewBox="0 0 650.61 1017.2"><defs><style>.cls-1{isolation:isolate;}.cls-2{fill:#455b64;}.cls-3{fill:#610051;opacity:0.5;}.cls-3,.cls-8{mix-blend-mode:multiply;}.cls-11,.cls-4,.cls-5{fill:#e9e9a8;}.cls-4{opacity:0.51;}.cls-10,.cls-4,.cls-5{mix-blend-mode:soft-light;}.cls-5{opacity:0.16;}.cls-6{fill:#263238;}.cls-7{fill:#37474f;}.cls-8{opacity:0.2;}.cls-9{fill:#690058;}</style></defs><g class="cls-1"><g id="Layer_2" data-name="Layer 2"><g id="Layer_1-2" data-name="Layer 1"><g id="right-rock"><polygon class="cls-2" points="600.37 23.63 537.53 37.11 529.07 49.42 519.02 75.48 513.38 106.03 503.49 114.11 499.13 219.54 492.51 229.71 466.93 304.17 449.69 315.92 414.38 571.64 409.48 575.99 377.05 841.98 336.79 885.29 311.63 909.56 259.94 912.91 253.12 921.61 221.51 940.09 146.26 955.2 0 1016.78 650.61 1017.2 650.61 0 600.37 23.63"/><polyline class="cls-3" points="650.61 0 627.63 195.16 617.68 203.97 606.7 302.23 601.21 321.69 601.21 577.55 560.19 860.67 530 888.2 502.48 903.45 478.38 937.68 584.74 974.07 478.38 974.07 355.09 951.16 336.79 959.24 276.98 952.5 399.58 974.07 452.3 985.3 369.89 1003.27 240.28 1009.57 180.86 996.98 147.63 987.1 207.52 1009.57 252.22 1017.2 650.61 1017.2"/><polygon class="cls-4" points="503.49 114.11 546.44 128.27 537.53 132.99 608.12 141.75 538.21 114.11 513.37 106.03 503.49 114.11"/><polygon class="cls-4" points="529.07 49.42 537.53 37.11 546.95 35.22 599.21 60.87 572.48 70.98 521.39 69.32 529.07 49.42"/><polygon class="cls-4" points="492.51 229.71 519.02 236.77 553.52 245.53 590.3 237.62 549.18 237.62 499.13 219.54 492.51 229.71"/><polygon class="cls-4" points="466.93 304.17 479.95 318.32 547.81 331.13 573.85 331.13 528.62 336.52 475.16 326.41 449.69 315.92 466.93 304.17"/><polygon class="cls-4" points="311.63 909.56 380.77 883.53 388.94 854.62 388.22 845.84 389.6 739.01 377.05 841.98 336.79 885.29 311.63 909.56"/><polygon class="cls-4" points="259.94 912.91 311.9 935.57 355.09 951.16 307.52 923.85 311.63 909.56 259.94 912.91"/><polygon class="cls-5" points="221.51 940.09 276.98 952.5 448 984.39 369.89 1003.27 240.28 1009.57 147.63 987.1 146.26 955.2 221.51 940.09"/><polygon class="cls-6" points="499.13 219.54 535.1 232.54 553.52 245.53 533.86 295.41 541.41 295.41 526.32 327.07 533.86 300.12 529.99 296.75 544.72 244.19 528.96 232.54 499.13 219.54"/><polygon class="cls-6" points="414.38 571.64 437.89 578.66 443.38 611.82 452.87 615.98 466.59 692.81 449.45 619.13 437.89 613.9 430.61 584.72 409.48 575.99 414.38 571.64"/><polygon class="cls-5" points="430.61 584.72 427.87 619.13 433.09 619.13 423.07 704.49 419.24 677.94 397.32 675.74 409.48 575.99 430.61 584.72"/><polygon class="cls-5" points="531.36 629.8 586 682.48 560.19 860.67 531.36 815.48 533.86 764.2 516.83 758.41 531.36 629.8"/><polygon class="cls-5" points="449.69 315.92 437.54 403.91 457.79 400.54 469.81 377.63 477.69 374.26 528.62 336.52 475.16 326.41 449.69 315.92"/><polygon class="cls-7" points="437.89 613.9 442.49 619.13 451.17 619.13 437.89 613.9"/><polygon class="cls-7" points="528.96 232.54 532.5 240.2 544.72 244.19 528.96 232.54"/><polygon class="cls-3" points="572.48 70.98 572.48 106.03 599.21 60.87 572.48 70.98"/><polygon class="cls-3" points="537.53 132.99 581.69 233.78 608.12 141.75 537.53 132.99"/><polygon class="cls-7" points="537.53 132.99 548.42 157.86 548.42 134.34 537.53 132.99"/><polygon class="cls-7" points="568.37 71.33 572.48 80.42 576.87 69.32 568.37 71.33"/><g class="cls-8"><path class="cls-9" d="M559.05,681.41a25.58,25.58,0,0,0-11-2.89,4.48,4.48,0,0,0-1.82.22,3.52,3.52,0,0,0-1.91,2.8,7.22,7.22,0,0,0,3.77,7.21,9.28,9.28,0,0,0,8.43,0,6.09,6.09,0,0,0,3.21-3.37,3.38,3.38,0,0,0-1.57-4.05.73.73,0,0,0-.06,1.23Z"/><path class="cls-9" d="M564.68,697.25a6.63,6.63,0,0,0-6.28.59,6.76,6.76,0,0,0,3.23,5.34c1.94,1,4.76.39,5.63-1.59s-1.29-4.65-3.34-3.9Z"/><path class="cls-9" d="M544,699.08a7.74,7.74,0,0,0-2.18.43.46.46,0,0,0-.22.14.39.39,0,0,0,0,.28c.22.72,1.37,1.08,1.23,1.82,0,.14-.1.28,0,.4s.4.17.6.06a2,2,0,0,0,.34-3.06l.33,0Z"/><path class="cls-9" d="M550.72,645.2a14.28,14.28,0,0,0-4.1.81.88.88,0,0,0-.43.27.67.67,0,0,0,0,.52c.41,1.37,2.58,2,2.31,3.44,0,.25-.18.52-.07.75.17.4.77.32,1.14.1a3.73,3.73,0,0,0,.63-5.75l.64,0Z"/><path class="cls-9" d="M550.27,606.89a14.35,14.35,0,0,0-4.1.81.81.81,0,0,0-.42.27.59.59,0,0,0,0,.52c.4,1.37,2.57,2,2.31,3.44,0,.25-.18.52-.08.75.17.4.77.32,1.14.1a3.71,3.71,0,0,0,.63-5.75l.64,0Z"/><path class="cls-9" d="M532.72,692.22a3.38,3.38,0,0,0-2.94.21,3.44,3.44,0,0,0,.75,1.12,1.2,1.2,0,0,0,1.27.23c.56-.29.62-1,.62-1.64l.37.35Z"/><path class="cls-9" d="M528.34,698.05a1.38,1.38,0,0,0-.81.23,1.41,1.41,0,0,0-.34.73,11.93,11.93,0,0,1-.72,2.11l3.39-1.63a.92.92,0,0,1,.28-.09c.35,0,.53.4.84.58s1-.1,1.32-.47C534.72,696.84,529.89,697.94,528.34,698.05Z"/><path class="cls-9" d="M507.1,729.48a1.31,1.31,0,0,0-.81.23,1.45,1.45,0,0,0-.34.73,12.21,12.21,0,0,1-.72,2.11l3.39-1.63a.71.71,0,0,1,.28-.09c.35,0,.53.4.84.57s1-.09,1.32-.46C513.48,728.27,508.65,729.37,507.1,729.48Z"/><path class="cls-9" d="M509.16,683.19l-1,.43a1.76,1.76,0,0,0,1.77,1c.73-.13,1.18-1.15.64-1.64-.33-.31-1-.65-.66-1Z"/><path class="cls-9" d="M524.22,671.33a1.55,1.55,0,0,1,.69,2.45,1.6,1.6,0,0,1-2.52-.56,1.57,1.57,0,0,1,1.7-1.92Z"/><path class="cls-9" d="M537.83,661.14c.64-.51,1.6-1,2.21-.47s.2,1.47-.21,2.14c-.18.29-.42.61-.76.61-.83,0-.58-1.66-1.39-1.84-.08-.22.32-.39.44-.19Z"/><path class="cls-9" d="M578,688.36a3.9,3.9,0,0,0-3.28,1.2c-.73,1-.45,2.63.72,3a1.52,1.52,0,0,0,1-.08,2.63,2.63,0,0,0,.52-.35,3.2,3.2,0,0,0,1.29-2,1.56,1.56,0,0,0-1.3-1.74Z"/><path class="cls-9" d="M597.05,667.09a1.7,1.7,0,0,0,.21,1c.21.29.58.41.86.63.66.52.77,1.46,1.28,2.12.88,1.15,2.61,1.11,4.06,1,.34,0,.73-.11.88-.41a1.22,1.22,0,0,0,0-.71c-.25-1.71,1.51-2.36,1.66-3.87a4.64,4.64,0,0,0-1.9-3.66A4.82,4.82,0,0,0,597.05,667.09Z"/><path class="cls-9" d="M544.93,694.32a1.61,1.61,0,0,1,.88-.25c-.15.77-.93,1.24-1.65,1.57-.4.18-.93.34-1.24,0s-.24-.56-.37-.83c-.26-.55-1-1-.84-1.54a.76.76,0,0,1,.87-.4,2.25,2.25,0,0,1,.91.49l1.79,1.4Z"/><path class="cls-9" d="M551.32,704.38c-.62-.14-1,.86-.53,1.33a2.35,2.35,0,0,0,1.79.51,2.22,2.22,0,0,0-1.12-2.2Z"/><path class="cls-9" d="M541.77,704.15a2.4,2.4,0,0,0-.92.14.8.8,0,0,0-.5.72c0,.5.69.72,1,1.15s.16,1.08.56,1.4a.89.89,0,0,0,1.25-.44,2.1,2.1,0,0,0,0-1.48,2.47,2.47,0,0,0-.63-1.18,1,1,0,0,0-1.25-.11Z"/><path class="cls-9" d="M537.62,704.59a.56.56,0,0,1,.28.74,1.07,1.07,0,0,1-.68.55,1,1,0,0,1-.52.06.74.74,0,0,1-.55-.93.81.81,0,0,1,1-.49.86.86,0,0,1,.57,1Z"/><path class="cls-9" d="M536.07,747.16a.58.58,0,0,1,.28.75,1.14,1.14,0,0,1-.68.55,1,1,0,0,1-.52,0,.73.73,0,0,1-.55-.92.81.81,0,0,1,1-.49.85.85,0,0,1,.57.95Z"/><path class="cls-9" d="M537,700.64a.89.89,0,0,0-1.33-.75,1.51,1.51,0,0,0,.23.93.78.78,0,0,0,.88.3.5.5,0,0,0,.15-.81Z"/><path class="cls-9" d="M510.2,667a.89.89,0,0,0-1.33-.76,1.52,1.52,0,0,0,.23.94.75.75,0,0,0,.88.29.5.5,0,0,0,.15-.8Z"/><path class="cls-9" d="M536.33,686.5a2.59,2.59,0,0,0-2.16-.56c.18.6.36,1.19.55,1.79a1.57,1.57,0,0,0,.39.77,1,1,0,0,0,1.49-.29,1.39,1.39,0,0,0-.25-1.59Z"/><path class="cls-9" d="M546.56,671.21l3.19-1.23c.42.4-.1,1.06-.58,1.38a3,3,0,0,1-1.58.68c-.59,0-1.21-.48-1.1-1Z"/><path class="cls-9" d="M563.25,665.91a1.23,1.23,0,0,0-2,.14,1.73,1.73,0,0,0,.7,2.14,1.35,1.35,0,0,0,1,.25,1.25,1.25,0,0,0,.86-1.25,3.61,3.61,0,0,0-.49-1.55Z"/><path class="cls-9" d="M533.65,663.64a2,2,0,0,0-2-.9,2.21,2.21,0,0,0,.32,1.58,1.59,1.59,0,0,0,1.89.71c.66-.33.67-1.52-.06-1.67Z"/><path class="cls-9" d="M540.62,667.43a1.14,1.14,0,0,1,.86,1.14l-1.61.62a1.3,1.3,0,0,1,.35-2Z"/><path class="cls-9" d="M568.28,680.9l1.78,2a1.5,1.5,0,0,0,.58.48,1.66,1.66,0,0,0,.8,0c1-.14,2.13-.49,2.29-1.43s-1-1.7-1.81-2.34c-1.54-1.21-3.32-6.22-5.95-5.11C563.18,675.74,567.2,679.66,568.28,680.9Z"/><path class="cls-9" d="M558.22,669.52c.19-.13.38-.26.58-.38a3.75,3.75,0,0,1,.09,1.56,1.26,1.26,0,0,1-1.09,1c-.54,0-1-.62-.73-1.07a2.85,2.85,0,0,1,1.18-1Z"/><path class="cls-9" d="M545.19,709.37a1.15,1.15,0,0,1,.71,1,1.12,1.12,0,0,1-.68,1c-.28.13-.69.07-.77-.22a.68.68,0,0,1,0-.37c.16-.52.33-1.05.5-1.58l.27.13Z"/><path class="cls-9" d="M545.73,718c-.31.45,0,1,.33,1.49s.7,1,.5,1.48a.49.49,0,0,1-.3.31c-.38.09-.58-.41-.83-.7a4.54,4.54,0,0,0-.76-.54,1.83,1.83,0,0,1-.65-1.95,1.06,1.06,0,0,1,1.1-.24,1,1,0,0,1,.66.9Z"/><path class="cls-9" d="M540.19,718.21l-.63.11a.75.75,0,0,0,.37.88.64.64,0,0,0,.86-.34.54.54,0,0,0-.53-.69Z"/><path class="cls-9" d="M535.62,732.22l-.63.11a.77.77,0,0,0,.37.88.66.66,0,0,0,.87-.33.54.54,0,0,0-.54-.69Z"/><path class="cls-9" d="M535.94,696.19c.39.14.76-.34.73-.75s-.28-.77-.35-1.18a1.41,1.41,0,0,1,.32-1.18.72.72,0,0,1,.65-.3,1,1,0,0,1,.42.25,4.42,4.42,0,0,1,1.36,2,2,2,0,0,1-.64,2.19,1.7,1.7,0,0,1-1.63.17,1.63,1.63,0,0,1-.94-1.32Z"/><path class="cls-9" d="M485.78,670c.39.14.75-.34.72-.75a12.21,12.21,0,0,0-.34-1.18,1.44,1.44,0,0,1,.32-1.19.72.72,0,0,1,.64-.29.86.86,0,0,1,.42.25,4.53,4.53,0,0,1,1.37,2,2,2,0,0,1-.65,2.19,1.67,1.67,0,0,1-1.63.16,1.59,1.59,0,0,1-.93-1.31Z"/><path class="cls-9" d="M526.89,689.83a1,1,0,0,0-1.37.28,1.38,1.38,0,0,0,0,1.45c.11.2.32.4.53.33a.57.57,0,0,0,.29-.35c.25-.58.51-1.15.76-1.73Z"/><path class="cls-9" d="M506.32,675.06a5,5,0,0,0-1.59-3.51.82.82,0,0,0-.6-.29c-.51,0-.55.74-.69,1.23-.23.83-1.12,1.37-1.34,2.2a3.06,3.06,0,0,0,.42,2c.43.93,1.26,2,2.22,1.67a1.91,1.91,0,0,0,1-1.2,9.55,9.55,0,0,0,.61-3.25Z"/><path class="cls-9" d="M529.38,642.22c.3-.74-.68-1.33-1.46-1.55a1.68,1.68,0,0,0-1.47,0c-.54.41-.35,1.24-.11,1.87l.63,1.65a.91.91,0,0,0,.46.6.86.86,0,0,0,.67-.13,8.22,8.22,0,0,0,2.72-2.18Z"/><path class="cls-9" d="M551.63,656.24c3.4-6.3-4.43-9.53-8.55-5C538.77,656,548.67,661.72,551.63,656.24Z"/><path class="cls-9" d="M554.85,696.2a1.66,1.66,0,0,1-.48,2.61,4.19,4.19,0,0,1-1.09-2.13c-.06-.8.57-1.71,1.39-1.62l1,1Z"/><path class="cls-9" d="M563.46,717.81l-1.08.46a9.81,9.81,0,0,1,1.12,3.88,9.68,9.68,0,0,0,.21,2,2,2,0,0,0,1.33,1.45c1.26.31,2.25-1.11,2.47-2.36a5.42,5.42,0,0,0-1.13-4.52,3.92,3.92,0,0,0-4.42-1.07c.18.5.37,1,.56,1.48Z"/><path class="cls-9" d="M553.14,723.21c-.36-.41-.67-.08-.63.46a6,6,0,0,0,.52,1.75l1.61,3.9c.3.73.7,1.6,1.15,1.82s.61-.25.58-.84a7.62,7.62,0,0,0-.45-1.91c-.71-2.15-1.79-4.71-3.08-5.45,0,.38,0,.76,0,1.14Z"/><path class="cls-9" d="M545.54,725.28a.44.44,0,0,1,.28.57,1,1,0,0,1-.49.5,1.29,1.29,0,0,1-.54.19.85.85,0,0,1-.84-.64,1,1,0,0,1,.35-1,.7.7,0,0,1,.51-.2.39.39,0,0,1,.36.36Z"/><path class="cls-9" d="M514.86,704.36a14.61,14.61,0,0,0-2-2.45.92.92,0,0,0-.53.62,2.79,2.79,0,0,0,2,3.55,1,1,0,0,0,.67-.07.75.75,0,0,0,.27-.82,2.3,2.3,0,0,0-.46-.78Z"/><path class="cls-9" d="M532.13,703.83l-.65.15a1.41,1.41,0,0,0,.35.93c.26.22.78.13.8-.21a.66.66,0,0,0-.11-.36c-.2-.36-.4-.71-.59-1.07Z"/><path class="cls-9" d="M524.9,681.18a4.27,4.27,0,0,0-1.63-.06,1.39,1.39,0,0,0-1.1,1.06,1.14,1.14,0,0,0,.2.76,1.6,1.6,0,0,0,2.16.43,1.52,1.52,0,0,0,.3-2.14Z"/><path class="cls-9" d="M509,658.45a1.1,1.1,0,0,1,1.57,1,3.07,3.07,0,0,1-1.06.72,1.82,1.82,0,0,1-.41-1.31Z"/><path class="cls-9" d="M522.36,654.81c-.33-.35-.9.36-.58.72a1,1,0,0,0,1.32,0,1,1,0,0,0-1-.74Z"/><path class="cls-9" d="M570,696.07l-1,.43a2,2,0,0,0,.32.78,1,1,0,0,0,1-1.08Z"/><path class="cls-9" d="M584.1,603.93l-1,.44a1.79,1.79,0,0,0,.31.77,1,1,0,0,0,1-1.08Z"/><path class="cls-9" d="M565.71,648.34a3.93,3.93,0,0,1,3.71-.47.74.74,0,0,1,.38.27.8.8,0,0,1-.08.7c-.58,1.3-1.52,2.82-3,2.72a1.83,1.83,0,0,1-1.33-2.74l1.2-.06Z"/><path class="cls-9" d="M622.05,709.23a3.93,3.93,0,0,1,3.71-.48.72.72,0,0,1,.38.28.78.78,0,0,1-.07.69c-.59,1.3-1.53,2.82-3,2.73a1.85,1.85,0,0,1-1.33-2.75l1.21-.06Z"/></g><g class="cls-10"><path class="cls-11" d="M370.93,931.49a14,14,0,0,0,.22-6.43,2.38,2.38,0,0,0-.37-1,2.07,2.07,0,0,0-1.84-.68,4.2,4.2,0,0,0-3.61,3,5.1,5.1,0,0,0,1.13,4.63,3.55,3.55,0,0,0,2.33,1.33,2,2,0,0,0,2.1-1.39.43.43,0,0,0-.71.13Z"/><path class="cls-11" d="M362.65,936.64a3.63,3.63,0,0,0-1.15-3.38,3.91,3.91,0,0,0-2.61,2.47,2.35,2.35,0,0,0,1.63,2.89c1.24.21,2.48-1.31,1.79-2.34Z"/><path class="cls-11" d="M358.92,925.49a4.05,4.05,0,0,0-.52-1.14.29.29,0,0,0-.11-.11.18.18,0,0,0-.16,0c-.39.21-.44.89-.88.91-.08,0-.17,0-.23,0s0,.25,0,.34a1.18,1.18,0,0,0,1.78-.21c0,.06,0,.12,0,.19Z"/><path class="cls-11" d="M390.44,922.2a8.28,8.28,0,0,0-1-2.16.48.48,0,0,0-.21-.19.36.36,0,0,0-.3,0c-.73.4-.82,1.68-1.66,1.72a.73.73,0,0,0-.44,0c-.2.14-.07.46.1.64a2.22,2.22,0,0,0,3.35-.4l.06.36Z"/><path class="cls-11" d="M412.17,917a7.8,7.8,0,0,0-1-2.15.43.43,0,0,0-.2-.2.36.36,0,0,0-.3,0c-.73.4-.83,1.68-1.66,1.72a.8.8,0,0,0-.44.05c-.2.15-.08.47.09.65a2.23,2.23,0,0,0,3.36-.41l.06.36Z"/><path class="cls-11" d="M361.36,918.41a1.83,1.83,0,0,0-.5-1.59,1.92,1.92,0,0,0-.54.56.65.65,0,0,0,0,.73c.23.27.66.21,1,.12l-.15.25Z"/><path class="cls-11" d="M357.48,916.76a.74.74,0,0,0-.24-.41.8.8,0,0,0-.46-.09,7.94,7.94,0,0,1-1.29-.13l1.36,1.65a.34.34,0,0,1,.09.15c.06.19-.16.34-.22.53s.19.53.44.67C359,920.11,357.74,917.6,357.48,916.76Z"/><path class="cls-11" d="M336.84,909.17a.73.73,0,0,0-.23-.42.81.81,0,0,0-.46-.09,7.07,7.07,0,0,1-1.3-.12l1.37,1.65a.42.42,0,0,1,.09.14c.05.19-.16.35-.22.54s.18.53.44.67C338.36,912.52,337.11,910,336.84,909.17Z"/><path class="cls-11" d="M363.43,904.28c-.12-.17-.25-.33-.38-.5a1,1,0,0,0-.35,1.11c.17.38.81.5,1,.13s.24-.62.46-.49Z"/><path class="cls-11" d="M372.13,911a.91.91,0,0,1-1.3.7.89.89,0,0,1,0-1.46.9.9,0,0,1,1.3.69Z"/><path class="cls-11" d="M379.7,917.18c.37.29.79.75.55,1.15s-.81.3-1.24.16c-.19-.06-.4-.14-.44-.33-.11-.46.86-.54.86-1,.11-.07.27.13.16.22Z"/><path class="cls-11" d="M369.44,942.78a2.2,2.2,0,0,0-1.11-1.65c-.64-.28-1.56.1-1.59.78a.83.83,0,0,0,.19.56,1.48,1.48,0,0,0,.26.24,1.93,1.93,0,0,0,1.3.45.91.91,0,0,0,.83-.94Z"/><path class="cls-11" d="M384,950.52a.93.93,0,0,0-.56.25,2.5,2.5,0,0,0-.25.55c-.2.43-.72.61-1,1a2.44,2.44,0,0,0,0,2.36c.07.18.16.39.35.43a.75.75,0,0,0,.41-.09c.94-.36,1.54.52,2.41.41a2.53,2.53,0,1,0-1.3-4.89Z"/><path class="cls-11" d="M361.75,925.4a.89.89,0,0,1,.26.45,1.5,1.5,0,0,1-1.11-.7c-.15-.2-.31-.47-.18-.68s.29-.2.42-.31c.28-.22.42-.7.77-.66a.41.41,0,0,1,.34.42,1.21,1.21,0,0,1-.16.56l-.56,1.17Z"/><path class="cls-11" d="M356.86,930.22c0-.36-.61-.42-.82-.12a1.32,1.32,0,0,0-.06,1,1.29,1.29,0,0,0,1.11-.9Z"/><path class="cls-11" d="M355.75,924.94a1.24,1.24,0,0,0-.2-.49.46.46,0,0,0-.47-.18c-.28.09-.32.47-.53.68s-.59.22-.72.49.12.58.41.63a1.35,1.35,0,0,0,.84-.22,1.42,1.42,0,0,0,.58-.5.53.53,0,0,0-.1-.7Z"/><path class="cls-11" d="M355,922.71a.33.33,0,0,1-.39.25.61.61,0,0,1-.4-.3.48.48,0,0,1-.1-.28.43.43,0,0,1,.45-.42.46.46,0,0,1,.41.48.49.49,0,0,1-.47.43Z"/><path class="cls-11" d="M330.55,927.4a.34.34,0,0,1-.39.25.65.65,0,0,1-.4-.31.67.67,0,0,1-.1-.28.43.43,0,0,1,.46-.42.48.48,0,0,1,.41.48.51.51,0,0,1-.47.44Z"/><path class="cls-11" d="M357.13,921.87a.5.5,0,0,0,.26-.83.83.83,0,0,0-.51.25.44.44,0,0,0-.05.52.3.3,0,0,0,.48,0Z"/><path class="cls-11" d="M372.79,902.75a.5.5,0,0,0,.26-.83.78.78,0,0,0-.5.25.42.42,0,0,0-.06.52.3.3,0,0,0,.48,0Z"/><path class="cls-11" d="M365.09,919.65a1.46,1.46,0,0,0,0-1.26l-.94.53a1,1,0,0,0-.39.32.56.56,0,0,0,.36.78.82.82,0,0,0,.87-.34Z"/><path class="cls-11" d="M375.11,923.29l1.11,1.59c-.17.29-.61.09-.86-.14a1.66,1.66,0,0,1-.59-.78c-.08-.32.12-.73.45-.74Z"/><path class="cls-11" d="M380.29,931.78a.69.69,0,0,0-.34-1.11,1,1,0,0,0-1.13.67.76.76,0,0,0,0,.59.75.75,0,0,0,.83.31,2,2,0,0,0,.81-.47Z"/><path class="cls-11" d="M377.74,915.21A1.11,1.11,0,0,0,378,914a1.38,1.38,0,0,0-.86.38.88.88,0,0,0-.15,1.14c.26.32.94.17.93-.25Z"/><path class="cls-11" d="M376.49,919.53a.67.67,0,0,1-.54.63l-.56-.81a.77.77,0,0,1,1.18-.07Z"/><path class="cls-11" d="M372.42,936.49l-.93,1.24a1,1,0,0,0-.19.39.85.85,0,0,0,.09.44c.21.51.56,1.11,1.11,1.07s.84-.76,1.1-1.3c.49-1,3.11-2.63,2.13-3.93S373,935.74,372.42,936.49Z"/><path class="cls-11" d="M377.59,929.48l.29.27a2.28,2.28,0,0,1-.88.25.72.72,0,0,1-.72-.47c-.07-.29.23-.64.52-.54a1.65,1.65,0,0,1,.75.52Z"/><path class="cls-11" d="M353.23,927.5a.67.67,0,0,1-.49.52.67.67,0,0,1-.68-.24c-.11-.13-.13-.37,0-.45a.37.37,0,0,1,.21,0l1,.07,0,.16Z"/><path class="cls-11" d="M348.41,928.91c-.3-.11-.61.14-.81.38s-.46.51-.78.47a.27.27,0,0,1-.21-.13c-.11-.2.15-.37.29-.55a2.58,2.58,0,0,0,.21-.48,1.05,1.05,0,0,1,1-.61.58.58,0,0,1,.28.57.6.6,0,0,1-.43.48Z"/><path class="cls-11" d="M347.55,925.9c0-.11-.09-.23-.14-.34a.45.45,0,0,0-.45.32.36.36,0,0,0,.3.44.32.32,0,0,0,.32-.39Z"/><path class="cls-11" d="M339,925.21l-.14-.33a.44.44,0,0,0-.45.31.36.36,0,0,0,.3.44.32.32,0,0,0,.32-.39Z"/><path class="cls-11" d="M359.52,920.7c0,.23.29.37.52.3s.41-.25.63-.34a.84.84,0,0,1,.71,0,.41.41,0,0,1,.26.31.62.62,0,0,1-.09.27,2.64,2.64,0,0,1-.95,1,1.23,1.23,0,0,1-1.33-.07.94.94,0,0,1-.31-.88.92.92,0,0,1,.63-.68Z"/><path class="cls-11" d="M367.92,889.71c0,.23.29.37.52.3a5.45,5.45,0,0,0,.62-.35.9.9,0,0,1,.72,0,.4.4,0,0,1,.25.32.48.48,0,0,1-.09.27,2.54,2.54,0,0,1-.95,1,1.21,1.21,0,0,1-1.33-.07.9.9,0,0,1-.3-.87.92.92,0,0,1,.62-.69Z"/><path class="cls-11" d="M362,914.89a.57.57,0,0,0-.33-.71.84.84,0,0,0-.83.17c-.1.09-.19.23-.12.34a.3.3,0,0,0,.24.11l1.08.2Z"/><path class="cls-11" d="M367.69,901.67a3,3,0,0,0,1.79-1.34.47.47,0,0,0,.08-.36c-.08-.28-.49-.21-.79-.22-.5,0-.92-.44-1.42-.46a1.85,1.85,0,0,0-1.1.5c-.47.35-1,1-.66,1.44a1.14,1.14,0,0,0,.81.37,5.69,5.69,0,0,0,1.93-.09Z"/><path class="cls-11" d="M389.36,910.07c.46.07.67-.54.69-1a.89.89,0,0,0-.21-.8c-.3-.25-.75,0-1.08.18l-.85.56c-.13.08-.27.18-.29.33a.5.5,0,0,0,.16.35,4.65,4.65,0,0,0,1.6,1.21Z"/><path class="cls-11" d="M384.28,924.13c4,1,4.84-3.67,1.72-5.35C382.72,917,380.78,923.21,384.28,924.13Z"/><path class="cls-11" d="M362,931.1a1,1,0,0,1-1.54.07,2.37,2.37,0,0,1,1.07-.87.84.84,0,0,1,1.1.55c-.15.22-.3.45-.46.67Z"/><path class="cls-11" d="M350.8,938.64l-.39-.53a5.79,5.79,0,0,1-2.07,1.12,5.48,5.48,0,0,0-1.12.38,1.11,1.11,0,0,0-.65.91c0,.74.92,1.1,1.67,1.06a3.25,3.25,0,0,0,2.42-1.21,2.16,2.16,0,0,0,0-2.57l-.77.5Z"/><path class="cls-11" d="M346.4,933.67c.18-.25,0-.38-.35-.29a3.63,3.63,0,0,0-.93.52l-2,1.39c-.38.26-.82.59-.89.87s.22.3.55.21a4.63,4.63,0,0,0,1-.5c1.13-.67,2.44-1.59,2.7-2.4l-.65.14Z"/><path class="cls-11" d="M344.23,929.76a.26.26,0,0,1-.29.23.61.61,0,0,1-.34-.21.83.83,0,0,1-.19-.27.49.49,0,0,1,.26-.55.65.65,0,0,1,.63.07.39.39,0,0,1,.17.25.21.21,0,0,1-.15.24Z"/><path class="cls-11" d="M352.14,910.17a9.07,9.07,0,0,0,1.13-1.41.55.55,0,0,0-.42-.22,1.63,1.63,0,0,0-1.75,1.59.51.51,0,0,0,.12.36.44.44,0,0,0,.5,0,1.31,1.31,0,0,0,.39-.35Z"/><path class="cls-11" d="M354.69,919.6l-.17-.34a.82.82,0,0,0-.49.31c-.09.17,0,.45.22.42a.41.41,0,0,0,.19-.12l.54-.46Z"/><path class="cls-11" d="M366.62,912.67a2.33,2.33,0,0,0-.18-.9.78.78,0,0,0-.74-.46.64.64,0,0,0-.41.2.88.88,0,0,0,0,1.24.92.92,0,0,0,1.26-.1Z"/><path class="cls-11" d="M377.48,901a.61.61,0,0,1-.37,1,1.71,1.71,0,0,1-.55-.48,1.11,1.11,0,0,1,.69-.4Z"/><path class="cls-11" d="M381.29,907.85c.15-.23-.32-.45-.49-.22s0,.54.2.72a.6.6,0,0,0,.29-.64Z"/><path class="cls-11" d="M364,939.4l-.38-.51a1.13,1.13,0,0,0-.4.27.6.6,0,0,0,.74.4Z"/><path class="cls-11" d="M418.25,935.18c-.13-.17-.26-.33-.38-.5a1,1,0,0,0-.4.27.6.6,0,0,0,.74.39Z"/><path class="cls-11" d="M390.6,930.84a2.17,2.17,0,0,1,.75,2,.37.37,0,0,1-.1.25.52.52,0,0,1-.41,0c-.81-.16-1.8-.47-1.93-1.28a1.07,1.07,0,0,1,1.39-1.09c.06.22.12.44.19.66Z"/><path class="cls-11" d="M363.3,969.74a2.17,2.17,0,0,1,.76,2,.47.47,0,0,1-.11.25.48.48,0,0,1-.41,0c-.81-.15-1.8-.47-1.93-1.27a1.07,1.07,0,0,1,1.39-1.09c.06.22.13.44.19.65Z"/></g><polygon class="cls-3" points="426.65 667.05 413.68 659.26 419.61 665.36 426.65 667.05"/><polygon class="cls-7" points="426.65 667.05 419.61 665.36 413.68 659.26 418.22 666.45 426.65 667.05"/><polygon class="cls-6" points="577.02 349.38 555.14 370.5 570.2 362.08 577.02 349.38"/><polygon class="cls-7" points="577.02 349.38 570.2 362.08 555.14 370.5 571.68 365.29 577.02 349.38"/></g></g></g></g></svg>