<svg xmlns="http://www.w3.org/2000/svg" xmlns:xlink="http://www.w3.org/1999/xlink" viewBox="0 0 1919.05 1085.31"><defs><style>.cls-1{isolation:isolate;}.cls-2{fill:#455b64;}.cls-3,.cls-6{opacity:0.51;}.cls-14,.cls-3,.cls-6,.cls-7{mix-blend-mode:soft-light;}.cls-4,.cls-6,.cls-7{fill:#e9e9a8;}.cls-5{fill:#610051;opacity:0.5;}.cls-12,.cls-5{mix-blend-mode:multiply;}.cls-7{opacity:0.16;}.cls-8{fill:#263238;}.cls-9{fill:#1de9b6;}.cls-10{fill:#520026;}.cls-11{fill:#37474f;}.cls-12{opacity:0.2;}.cls-13{fill:#690058;}.cls-15,.cls-16,.cls-17,.cls-18{opacity:0.61;mix-blend-mode:screen;}.cls-15{fill:url(#Áåçûìÿííûé_ãðàäèåíò_163);}.cls-16{fill:url(#Áåçûìÿííûé_ãðàäèåíò_163-2);}.cls-17{fill:url(#Áåçûìÿííûé_ãðàäèåíò_163-3);}.cls-18{fill:url(#Áåçûìÿííûé_ãðàäèåíò_163-4);}.cls-19{fill:#02fffc;}.cls-20{fill:#611638;}</style><radialGradient id="Áåçûìÿííûé_ãðàäèåíò_163" cx="1773.74" cy="515.22" r="103.52" gradientTransform="translate(-32.54) scale(1.02 1)" gradientUnits="userSpaceOnUse"><stop offset="0" stop-color="#005eff"/><stop offset="0.12" stop-color="#004dd1"/><stop offset="0.3" stop-color="#003692"/><stop offset="0.48" stop-color="#00235e"/><stop offset="0.64" stop-color="#001435"/><stop offset="0.78" stop-color="#000918"/><stop offset="0.91" stop-color="#000206"/><stop offset="1"/></radialGradient><radialGradient id="Áåçûìÿííûé_ãðàäèåíò_163-2" cx="1728.14" cy="857.58" r="85.43" xlink:href="#Áåçûìÿííûé_ãðàäèåíò_163"/><radialGradient id="Áåçûìÿííûé_ãðàäèåíò_163-3" cx="982.17" cy="978.27" r="73.53" xlink:href="#Áåçûìÿííûé_ãðàäèåíò_163"/><radialGradient id="Áåçûìÿííûé_ãðàäèåíò_163-4" cx="759.86" cy="1019.22" r="62.58" xlink:href="#Áåçûìÿííûé_ãðàäèåíò_163"/></defs><g class="cls-1"><g id="Layer_2" data-name="Layer 2"><g id="Layer_1-2" data-name="Layer 1"><g id="right-rock"><path class="cls-2" d="M0,1078.31v-19.37l81.33,3.2,216.12-20.22,39.75-16.81,53-5.31L437.56,1035l47.35,14h40.46L675.1,1040l21.36-20.15,41-14.95,46.61,6.07,39.82,32.35,41.05-2.7,39.76-60.65s32.09-17.14,103.09-33.51l6.4,11.94,7.32,27,25.62,11.37,79.6,15.68,90.5,13.39,17.82,17.52,50.87,13.48,38.43-1.35,90.35-39.09L1490,1001.2l31.61-18.48,6.82-8.7,51.69-3.35,25.16-24.26,40.26-43.32,32.42-266,4.91-4.35L1718.13,377l17.24-11.75L1761,290.82l6.62-10.17,4.35-105.42,9.89-8.09,5.65-30.55,10-26.06,8.23-23.37V51.22l15.53-27.86V0h97.78V1078.31Z"/><g class="cls-3"><path class="cls-4" d="M832.11,1043.27l41.06-2.7,39.75-60.65s29.9-16,95.79-31.78l-.92-1.73c-71,16.37-103.09,33.51-103.09,33.51l-39.76,60.65-33.44,2.2Z"/><polygon class="cls-4" points="0 1058.94 0 1078.31 8.22 1078.31 8.22 1059.27 0 1058.94"/><polygon class="cls-4" points="683.32 1039.95 704.68 1019.8 743.52 1005.64 737.46 1004.85 696.46 1019.8 675.1 1039.95 525.37 1049.06 533.59 1049.06 683.32 1039.95"/><polygon class="cls-4" points="89.56 1062.14 305.68 1041.92 345.43 1025.11 392.17 1020.42 390.21 1019.8 337.2 1025.11 297.45 1041.92 83.77 1061.91 89.56 1062.14"/></g><polygon class="cls-5" points="1886.11 0 1896.06 256.28 1886.11 265.09 1875.13 363.34 1869.64 382.8 1869.64 638.66 1828.63 921.78 1798.44 949.32 1770.91 964.57 1746.82 998.79 1853.18 1035.18 1746.82 1035.18 1623.53 1012.27 1605.23 1020.35 1545.42 1013.62 1668.02 1035.18 1720.74 1046.41 1638.33 1064.38 1508.72 1070.68 1449.3 1058.1 1416.06 1048.21 1475.95 1070.68 1520.65 1078.31 1919.05 1078.31 1919.05 0 1886.11 0"/><polygon class="cls-6" points="1771.92 175.23 1814.87 189.38 1805.96 194.1 1876.56 202.86 1806.65 175.23 1781.81 167.14 1771.92 175.23"/><polygon class="cls-6" points="1805.73 87.16 1837.49 101.09 1867.65 121.98 1840.92 132.09 1787.46 136.59 1805.73 87.16"/><polygon class="cls-6" points="1805.73 51.22 1838.18 35.72 1821.27 23.36 1805.73 51.22"/><polygon class="cls-6" points="1760.95 290.82 1787.46 297.88 1821.96 306.64 1858.74 298.73 1817.62 298.73 1767.57 280.65 1760.95 290.82"/><polygon class="cls-6" points="1735.37 365.28 1748.39 379.43 1816.24 392.24 1842.29 392.24 1797.05 397.63 1743.59 387.52 1718.13 377.04 1735.37 365.28"/><polygon class="cls-6" points="1580.07 970.67 1649.2 944.64 1657.38 915.74 1656.66 906.95 1659.71 800.12 1645.49 903.09 1580.07 970.67"/><polygon class="cls-6" points="1528.38 974.02 1580.34 996.68 1623.53 1012.27 1575.95 984.96 1580.07 970.67 1528.38 974.02"/><polygon class="cls-7" points="1489.95 1001.2 1545.42 1013.62 1716.44 1045.5 1638.33 1064.38 1508.72 1070.68 1416.06 1048.21 1414.7 1016.31 1489.95 1001.2"/><path class="cls-6" d="M904.7,979.92s24,14.3,63,16.58,46.44-38.15,46.44-38.15l-6.4-11.94S939,963.74,904.7,979.92Z"/><path class="cls-6" d="M696.46,1019.8s12.67,19.87,41,25.27,72.46-12.64,72.46-12.64l-25.85-21.51-46.61-6.07Z"/><polygon class="cls-6" points="823.89 1043.27 869.97 1053.15 928.46 1053.15 884.59 1048.21 864.94 1040.57 823.89 1043.27"/><polygon class="cls-6" points="1047.13 996.68 1091.05 1020.35 1162.86 1031.14 1142.74 1025.46 1217.23 1025.75 1047.13 996.68"/><polygon class="cls-6" points="1235.05 1043.27 1223.11 1046.86 1246.01 1053.15 1324.35 1070.68 1365.52 1056.97 1324.35 1055.4 1292.33 1056.97 1235.05 1043.27"/><polygon class="cls-6" points="484.91 1049.06 470.4 1055.85 525.37 1053.15 519.22 1055.85 583.7 1064.38 586.68 1056.72 636.49 1049.06 675.1 1039.95 540.23 1048.15 484.91 1049.06"/><polygon class="cls-6" points="337.2 1025.11 352.28 1033.83 402.84 1033.83 394.68 1029.47 390.21 1019.8 337.2 1025.11"/><polygon class="cls-6" points="297.45 1041.92 202.19 1067.98 202.19 1064.38 141.19 1067.98 124.28 1064.38 81.33 1062.14 297.45 1041.92"/><path class="cls-5" d="M952.07,994.87l-5.57,39,5.57,6.12v38.36l-23.61-25.16-43.87-4.94-19.65-7.64,39.76-60.65S936.39,993.24,952.07,994.87Z"/><polygon class="cls-5" points="1021.51 985.31 1032.81 1013.91 1091.12 1070.68 1091.05 1020.35 1021.51 985.31"/><polygon class="cls-5" points="1324.35 1070.68 1321.4 1078.31 1217.59 1078.31 1223.11 1046.86 1324.35 1070.68"/><polygon class="cls-5" points="722.8 1040.57 707.26 1078.31 662.63 1078.31 675.1 1039.95 696.46 1019.8 722.8 1040.57"/><polygon class="cls-5" points="869.97 1053.15 864.94 1078.31 823.89 1043.27 869.97 1053.15"/><polygon class="cls-5" points="352.28 1033.83 334.23 1062.59 322.58 1060.79 295 1078.31 297.45 1041.92 337.2 1025.11 352.28 1033.83"/><path class="cls-5" d="M1761,815s-.91,49.44-34.72,81.33v34.71l5.48,7-5.48,63.08,62.14-92.7-6.56-10.18Z"/><path class="cls-6" d="M1761,815s-17.6-26.36-59.42-20.63c0,0-21.56,46.18-21.27,83.72,0,0,1.19,17.8,46,18.24C1726.23,896.36,1755.46,878.83,1761,815Z"/><polygon class="cls-7" points="1731.71 938.12 1667.56 945.88 1649.2 971.5 1675.91 979.92 1668.02 991.23 1726.23 1001.2 1731.71 938.12"/><path class="cls-8" d="M1753,836c-3.29,16.83-15.16,43.08-26.76,49.36-11.21,6.07-24.54,2.38-31.44-3.37a13.91,13.91,0,0,1-4.34-5.66c-.32-.91-.6-1.86-.85-2.8-7.7-28,9.54-73.14,16.73-73.43,2.38-.11,7.92,1.18,14.42,3.39h0c13.57,4.61,31.3,13.29,32.87,21.78C1754.12,827.9,1753.85,831.65,1753,836Z"/><path class="cls-9" d="M1753,836c-3.29,16.83-15.16,43.08-26.76,49.36-11.21,6.07-24.54,2.38-31.44-3.37a13.91,13.91,0,0,1-4.34-5.66c-.32-.91-.6-1.86-.85-2.8C1711.93,856.05,1740.94,841.68,1753,836Z"/><path class="cls-10" d="M1004.81,964.44c-2.13,9.41-9.29,21.7-20.89,26.8-13.29,5.82-42.57-.11-55.46-6.23-4.11-2-6.55-3.93-6.27-5.55,2-11.92,77.09-31.57,81.88-25.83C1005.69,955.57,1005.91,959.62,1004.81,964.44Z"/><path class="cls-10" d="M795,1031.14c-1.59,2.42-5.57,4.12-10.72,5.34-10.2,2.42-24.92,3-34.05,3.47-13.71.73-47.43-15-37.95-20.16a63.21,63.21,0,0,1,6.2-2.91C754.87,1002.24,799.48,1024.34,795,1031.14Z"/><path class="cls-9" d="M1004.81,964.44c-2.13,9.41-9.29,21.7-20.89,26.8-13.29,5.82-42.57-.11-55.46-6.23v0S975.34,958.59,1004.81,964.44Z"/><path class="cls-9" d="M784.32,1036.48c-10.2,2.42-24.92,3-34.05,3.47-13.71.73-47.43-15-37.95-20.16a63.21,63.21,0,0,1,6.2-2.91c11.21-1.22,26.35-1.51,39.83,2.91C772.72,1024.51,780.37,1031.38,784.32,1036.48Z"/><polygon class="cls-8" points="1767.57 280.65 1803.54 293.65 1821.96 306.64 1802.3 356.52 1809.84 356.52 1794.76 388.18 1802.3 361.24 1798.42 357.87 1813.16 305.3 1797.4 293.65 1767.57 280.65"/><polygon class="cls-8" points="1682.82 632.75 1706.33 639.77 1711.82 672.93 1721.31 677.09 1735.03 753.92 1717.89 680.24 1706.33 675.01 1699.05 645.84 1677.91 637.1 1682.82 632.75"/><polygon class="cls-7" points="1699.05 645.84 1696.3 680.24 1701.53 680.24 1691.51 765.6 1687.67 739.05 1665.75 736.85 1677.91 637.1 1699.05 645.84"/><polygon class="cls-7" points="1799.8 690.92 1854.44 743.59 1828.63 921.78 1799.8 876.59 1802.3 825.31 1785.26 819.52 1799.8 690.92"/><polygon class="cls-7" points="1718.13 377.04 1705.98 465.02 1726.23 461.65 1738.25 438.74 1746.13 435.37 1797.05 397.63 1743.59 387.52 1718.13 377.04"/><polygon class="cls-7" points="1726.23 485.92 1731.71 629.02 1763.77 708.16 1760.95 549.25 1726.23 485.92"/><path class="cls-5" d="M1761,549l2.82,159.12,9.88,3.31,5.24,87.46.62,58,8.63-56.2,11.66-109.85,12.33-6.41,31.52-166.25S1822.53,535.4,1802.3,544C1779,554,1761,549,1761,549Z"/><path class="cls-6" d="M1761,549.25c-16.86-4.19-38.38-56.6-34.72-63.33s116.74,17.52,120.86,24.93S1798.87,558.67,1761,549.25Z"/><path class="cls-8" d="M1834.75,510.85c.19,2.54-7.1,11.16-18,19-13.84,10-33.47,18.87-50.58,12.18s-25-21-28-32.4c-2.33-9-1.67-16.2-.14-16.63C1760.73,486.59,1834.31,505.08,1834.75,510.85Z"/><path class="cls-9" d="M1816.79,529.86c-13.84,10-33.47,18.87-50.58,12.18s-25-21-28-32.4C1759.74,509.4,1793.87,512.23,1816.79,529.86Z"/><polygon class="cls-11" points="1706.33 675.01 1710.92 680.24 1719.61 680.24 1706.33 675.01"/><polygon class="cls-11" points="1797.4 293.65 1800.94 301.31 1813.16 305.3 1797.4 293.65"/><polygon class="cls-5" points="1840.92 132.09 1840.92 167.14 1867.65 121.98 1840.92 132.09"/><polygon class="cls-5" points="1805.96 194.1 1849.83 300.65 1867.65 199.34 1805.96 194.1"/><polygon class="cls-11" points="1805.96 194.1 1813.16 211.58 1813.16 194.71 1805.96 194.1"/><polygon class="cls-11" points="1836.81 132.44 1840.92 141.53 1845.3 130.44 1836.81 132.44"/><g class="cls-12"><path class="cls-13" d="M1827.49,742.52a25.58,25.58,0,0,0-11-2.89,4.52,4.52,0,0,0-1.83.22,3.53,3.53,0,0,0-1.9,2.8,7.21,7.21,0,0,0,3.77,7.21,9.26,9.26,0,0,0,8.42-.05,6.05,6.05,0,0,0,3.21-3.37,3.37,3.37,0,0,0-1.57-4.05.73.73,0,0,0,0,1.23Z"/><path class="cls-13" d="M1833.12,758.37a6.6,6.6,0,0,0-6.28.58,6.73,6.73,0,0,0,3.23,5.34c1.94,1,4.76.39,5.62-1.59s-1.28-4.65-3.33-3.9Z"/><path class="cls-13" d="M1812.41,760.19a7.74,7.74,0,0,0-2.18.43.38.38,0,0,0-.22.14.31.31,0,0,0,0,.28c.22.73,1.37,1.08,1.23,1.82,0,.14-.1.28,0,.4s.41.17.61.06a2,2,0,0,0,.33-3.05h.34Z"/><path class="cls-13" d="M1819.16,706.31a14.42,14.42,0,0,0-4.11.81.81.81,0,0,0-.42.27.63.63,0,0,0,0,.52c.41,1.37,2.58,2,2.31,3.44-.05.25-.18.52-.08.75.17.4.77.32,1.15.1a3.73,3.73,0,0,0,.63-5.75l.63,0Z"/><path class="cls-13" d="M1818.71,668a14.63,14.63,0,0,0-4.1.81.84.84,0,0,0-.43.27.63.63,0,0,0,0,.52c.41,1.37,2.58,2,2.31,3.44,0,.25-.18.52-.07.76.17.39.76.31,1.14.09a3.73,3.73,0,0,0,.63-5.75l.64,0Z"/><path class="cls-13" d="M1801.16,753.33a3.43,3.43,0,0,0-3,.21,3.47,3.47,0,0,0,.76,1.12,1.2,1.2,0,0,0,1.27.23c.55-.29.62-1,.62-1.64l.37.35Z"/><path class="cls-13" d="M1796.78,759.16a1.31,1.31,0,0,0-.81.24,1.34,1.34,0,0,0-.34.73,13.12,13.12,0,0,1-.72,2.11l3.39-1.64a.92.92,0,0,1,.28-.09c.35,0,.53.41.83.58s1-.1,1.33-.47C1803.16,758,1798.33,759.06,1796.78,759.16Z"/><path class="cls-13" d="M1775.54,790.59a1,1,0,0,0-1.15,1,12.8,12.8,0,0,1-.72,2.11l3.39-1.63a.71.71,0,0,1,.28-.09c.35,0,.53.4.83.57s1-.09,1.33-.46C1781.92,789.38,1777.09,790.48,1775.54,790.59Z"/><path class="cls-13" d="M1777.6,744.31l-1,.42a1.78,1.78,0,0,0,1.77,1c.73-.14,1.18-1.15.64-1.65-.33-.3-1-.65-.67-1Z"/><path class="cls-13" d="M1792.66,732.44a1.55,1.55,0,0,1,.69,2.45,1.59,1.59,0,0,1-2.52-.56,1.57,1.57,0,0,1,1.7-1.92Z"/><path class="cls-13" d="M1806.27,722.25c.64-.51,1.6-1,2.2-.46s.2,1.47-.21,2.13c-.17.29-.41.61-.75.61-.83,0-.59-1.65-1.4-1.84-.07-.22.33-.39.45-.18Z"/><path class="cls-13" d="M1846.39,749.47a3.93,3.93,0,0,0-3.28,1.2,1.91,1.91,0,0,0,.72,3,1.47,1.47,0,0,0,1-.08,2.63,2.63,0,0,0,.52-.35,3.15,3.15,0,0,0,1.28-2,1.55,1.55,0,0,0-1.29-1.75Z"/><path class="cls-13" d="M1865.49,728.2a1.6,1.6,0,0,0,.21,1,3.93,3.93,0,0,0,.86.64c.66.51.77,1.45,1.27,2.11.88,1.15,2.61,1.12,4.07,1,.34,0,.73-.1.88-.4a1.26,1.26,0,0,0,0-.72c-.25-1.71,1.5-2.36,1.66-3.87a4.64,4.64,0,0,0-1.9-3.66A4.82,4.82,0,0,0,1865.49,728.2Z"/><path class="cls-13" d="M1813.37,755.43a1.6,1.6,0,0,1,.88-.24c-.15.76-.93,1.23-1.65,1.56-.4.19-.93.34-1.25,0s-.23-.56-.36-.83c-.27-.55-1-1-.84-1.54a.76.76,0,0,1,.87-.4,2.15,2.15,0,0,1,.9.49l1.8,1.4Z"/><path class="cls-13" d="M1819.76,765.49c-.63-.14-1,.86-.54,1.33a2.38,2.38,0,0,0,1.8.51,2.19,2.19,0,0,0-1.12-2.19Z"/><path class="cls-13" d="M1810.21,765.26a2.57,2.57,0,0,0-.92.14.77.77,0,0,0-.5.72c0,.51.69.72,1,1.15s.16,1.08.56,1.4a.89.89,0,0,0,1.25-.44,2.16,2.16,0,0,0,0-1.48,2.47,2.47,0,0,0-.63-1.18,1,1,0,0,0-1.25-.11Z"/><path class="cls-13" d="M1806.06,765.7a.57.57,0,0,1,.28.74,1.26,1.26,0,0,1-1.21.61.75.75,0,0,1-.55-.92.82.82,0,0,1,1-.5.87.87,0,0,1,.57,1Z"/><path class="cls-13" d="M1804.51,808.27a.57.57,0,0,1,.27.75,1.06,1.06,0,0,1-.67.55,1.19,1.19,0,0,1-.53.06.76.76,0,0,1-.55-.93.83.83,0,0,1,1-.49.86.86,0,0,1,.57.95Z"/><path class="cls-13" d="M1805.45,761.75a.89.89,0,0,0-1.33-.75,1.55,1.55,0,0,0,.23.94.78.78,0,0,0,.88.29.51.51,0,0,0,.15-.81Z"/><path class="cls-13" d="M1778.64,728.08a.9.9,0,0,0-1.33-.76,1.52,1.52,0,0,0,.23.94.77.77,0,0,0,.88.3.5.5,0,0,0,.14-.81Z"/><path class="cls-13" d="M1804.77,747.61a2.57,2.57,0,0,0-2.16-.55l.54,1.78a1.68,1.68,0,0,0,.4.77,1,1,0,0,0,1.49-.29,1.38,1.38,0,0,0-.26-1.59Z"/><path class="cls-13" d="M1815,732.32l3.19-1.23c.42.4-.1,1.06-.58,1.39a3.09,3.09,0,0,1-1.58.67c-.59,0-1.21-.48-1.1-1Z"/><path class="cls-13" d="M1831.69,727a1.23,1.23,0,0,0-2,.14,1.72,1.72,0,0,0,.7,2.14,1.34,1.34,0,0,0,1,.25,1.25,1.25,0,0,0,.86-1.25,3.61,3.61,0,0,0-.49-1.55Z"/><path class="cls-13" d="M1802.09,724.75a2,2,0,0,0-2-.9,2.31,2.31,0,0,0,.32,1.58,1.59,1.59,0,0,0,1.9.71c.66-.32.67-1.52-.06-1.67Z"/><path class="cls-13" d="M1809.05,728.54a1.15,1.15,0,0,1,.87,1.14l-1.61.62a1.3,1.3,0,0,1,.35-2Z"/><path class="cls-13" d="M1836.72,742l1.77,2a1.61,1.61,0,0,0,.59.48,1.55,1.55,0,0,0,.8,0c1-.15,2.13-.49,2.29-1.44s-1-1.7-1.81-2.34c-1.54-1.21-3.32-6.22-5.95-5.1C1831.61,736.85,1835.64,740.77,1836.72,742Z"/><path class="cls-13" d="M1826.66,730.63l.57-.38a3.44,3.44,0,0,1,.09,1.56,1.24,1.24,0,0,1-1.08,1c-.54,0-1-.62-.73-1.06a2.75,2.75,0,0,1,1.18-1.06Z"/><path class="cls-13" d="M1813.62,770.48a1.14,1.14,0,0,1,.72,1,1.18,1.18,0,0,1-.68,1c-.28.12-.69.06-.77-.23a.68.68,0,0,1,0-.37l.51-1.58.26.13Z"/><path class="cls-13" d="M1814.17,779.09c-.31.45,0,1.06.32,1.49s.71,1,.51,1.49a.49.49,0,0,1-.31.3c-.37.09-.57-.41-.83-.7a4.09,4.09,0,0,0-.75-.54,1.81,1.81,0,0,1-.65-2,1.06,1.06,0,0,1,1.1-.24,1,1,0,0,1,.66.9Z"/><path class="cls-13" d="M1808.63,779.32l-.63.11a.75.75,0,0,0,.37.88.65.65,0,0,0,.86-.34.55.55,0,0,0-.54-.69Z"/><path class="cls-13" d="M1804.06,793.33l-.63.11a.76.76,0,0,0,.37.88.66.66,0,0,0,.87-.33.54.54,0,0,0-.54-.69Z"/><path class="cls-13" d="M1804.38,757.3c.39.14.75-.34.73-.75s-.28-.77-.35-1.18a1.41,1.41,0,0,1,.32-1.18.71.71,0,0,1,.64-.3.81.81,0,0,1,.42.26,4.44,4.44,0,0,1,1.37,2,2,2,0,0,1-.65,2.19,1.68,1.68,0,0,1-1.62.17,1.63,1.63,0,0,1-.94-1.32Z"/><path class="cls-13" d="M1754.22,731.07c.39.14.75-.34.72-.75a10.54,10.54,0,0,0-.35-1.18,1.48,1.48,0,0,1,.32-1.18.72.72,0,0,1,.65-.3.91.91,0,0,1,.42.25,4.42,4.42,0,0,1,1.36,2,2,2,0,0,1-.64,2.19,1.67,1.67,0,0,1-1.63.16,1.62,1.62,0,0,1-.94-1.31Z"/><path class="cls-13" d="M1795.33,751a1,1,0,0,0-1.37.27,1.38,1.38,0,0,0,0,1.45c.1.2.31.4.53.33a.57.57,0,0,0,.29-.35c.25-.58.51-1.15.76-1.73Z"/><path class="cls-13" d="M1774.76,736.17a5,5,0,0,0-1.59-3.51.82.82,0,0,0-.6-.29c-.52,0-.56.75-.69,1.23-.23.83-1.12,1.37-1.34,2.2a3.06,3.06,0,0,0,.42,2c.42.93,1.26,2,2.22,1.67a1.89,1.89,0,0,0,1-1.2,10,10,0,0,0,.61-3.25Z"/><path class="cls-13" d="M1797.81,703.33c.31-.74-.67-1.33-1.45-1.55a1.68,1.68,0,0,0-1.47,0c-.54.41-.35,1.24-.11,1.87s.42,1.1.62,1.65a1,1,0,0,0,.47.6.9.9,0,0,0,.67-.12,8.24,8.24,0,0,0,2.71-2.19Z"/><path class="cls-13" d="M1820.07,717.35c3.4-6.3-4.43-9.53-8.55-5C1807.2,717.15,1817.11,722.83,1820.07,717.35Z"/><path class="cls-13" d="M1823.29,757.32a1.66,1.66,0,0,1-.48,2.6,4.08,4.08,0,0,1-1.09-2.13c-.06-.8.57-1.71,1.38-1.62l1,1Z"/><path class="cls-13" d="M1831.9,778.93l-1.08.45a9.81,9.81,0,0,1,1.12,3.88,9.21,9.21,0,0,0,.21,2,2,2,0,0,0,1.33,1.44c1.25.31,2.25-1.11,2.47-2.36a5.46,5.46,0,0,0-1.13-4.52,3.94,3.94,0,0,0-4.43-1.07l.57,1.49Z"/><path class="cls-13" d="M1821.57,784.32c-.35-.41-.66-.08-.63.46a6.22,6.22,0,0,0,.53,1.75l1.61,3.9c.3.73.7,1.6,1.15,1.82s.61-.25.58-.84a8.08,8.08,0,0,0-.45-1.91c-.71-2.15-1.79-4.71-3.08-5.45,0,.38,0,.76,0,1.14Z"/><path class="cls-13" d="M1814,786.4a.43.43,0,0,1,.28.56,1,1,0,0,1-.49.5,1.35,1.35,0,0,1-.54.19.84.84,0,0,1-.84-.64,1,1,0,0,1,.35-1,.74.74,0,0,1,.51-.2.38.38,0,0,1,.35.36Z"/><path class="cls-13" d="M1783.3,765.47a15.56,15.56,0,0,0-2-2.45,1,1,0,0,0-.54.62,2.8,2.8,0,0,0,2.06,3.55,1,1,0,0,0,.67-.07.76.76,0,0,0,.27-.82,2.33,2.33,0,0,0-.47-.78Z"/><path class="cls-13" d="M1800.57,764.94l-.65.15a1.41,1.41,0,0,0,.35.93c.25.22.78.13.8-.21a.67.67,0,0,0-.12-.36c-.19-.36-.39-.71-.59-1.07Z"/><path class="cls-13" d="M1793.34,742.29a4.27,4.27,0,0,0-1.63-.06,1.38,1.38,0,0,0-1.1,1.06,1.18,1.18,0,0,0,.2.77,1.58,1.58,0,0,0,2.15.42,1.53,1.53,0,0,0,.31-2.14Z"/><path class="cls-13" d="M1777.45,719.56a1.11,1.11,0,0,1,1.58,1,3.24,3.24,0,0,1-1.06.73,1.86,1.86,0,0,1-.41-1.32Z"/><path class="cls-13" d="M1790.8,715.92c-.34-.35-.9.36-.58.72a1,1,0,0,0,1.32,0,1.05,1.05,0,0,0-1-.74Z"/><path class="cls-13" d="M1838.41,757.18l-1,.44a2,2,0,0,0,.31.77,1,1,0,0,0,1-1.08Z"/><path class="cls-13" d="M1852.53,665.05l-1,.43a2,2,0,0,0,.32.78,1,1,0,0,0,1-1.09Z"/><path class="cls-13" d="M1834.14,709.46a3.94,3.94,0,0,1,3.71-.48.73.73,0,0,1,.39.27.8.8,0,0,1-.08.7c-.59,1.3-1.52,2.82-3,2.72a1.83,1.83,0,0,1-1.33-2.74l1.2-.06Z"/><path class="cls-13" d="M1890.49,770.34a3.93,3.93,0,0,1,3.71-.48.72.72,0,0,1,.38.28.78.78,0,0,1-.08.69c-.58,1.3-1.52,2.83-3,2.73a1.83,1.83,0,0,1-1.33-2.74l1.2-.07Z"/></g><g class="cls-14"><path class="cls-4" d="M1639.37,992.6a14,14,0,0,0,.21-6.43,2.36,2.36,0,0,0-.36-1,2.07,2.07,0,0,0-1.84-.68,4.2,4.2,0,0,0-3.61,3,5.09,5.09,0,0,0,1.12,4.62,3.55,3.55,0,0,0,2.34,1.33,2,2,0,0,0,2.1-1.39.43.43,0,0,0-.71.13Z"/><path class="cls-4" d="M1631.09,997.75a3.63,3.63,0,0,0-1.15-3.37,3.87,3.87,0,0,0-2.61,2.47,2.32,2.32,0,0,0,1.63,2.88c1.24.22,2.48-1.31,1.79-2.34Z"/><path class="cls-4" d="M1627.36,986.6a4.08,4.08,0,0,0-.53-1.14.29.29,0,0,0-.11-.11.23.23,0,0,0-.16,0c-.38.21-.43.89-.87.91a.63.63,0,0,0-.24,0c-.1.08,0,.25,0,.34a1.18,1.18,0,0,0,1.78-.21l0,.19Z"/><path class="cls-4" d="M1658.88,983.31a7.8,7.8,0,0,0-1-2.15.39.39,0,0,0-.2-.2.36.36,0,0,0-.3,0c-.73.4-.83,1.68-1.66,1.72-.15,0-.32,0-.44,0s-.08.47.09.64a2.23,2.23,0,0,0,3.36-.4l.06.36Z"/><path class="cls-4" d="M1680.61,978.08a8.1,8.1,0,0,0-1-2.15.41.41,0,0,0-.21-.2.4.4,0,0,0-.3,0c-.72.4-.82,1.68-1.65,1.72-.15,0-.32,0-.44,0s-.08.47.09.65a2.21,2.21,0,0,0,3.35-.41l.07.36Z"/><path class="cls-4" d="M1629.8,979.52a1.86,1.86,0,0,0-.5-1.59,1.8,1.8,0,0,0-.54.56.66.66,0,0,0,0,.73c.24.27.67.21,1,.13,0,.08-.11.16-.16.25Z"/><path class="cls-4" d="M1625.91,977.87a.7.7,0,0,0-.23-.41.8.8,0,0,0-.46-.09,8.07,8.07,0,0,1-1.3-.13l1.37,1.65a.46.46,0,0,1,.09.15c.06.19-.16.34-.22.53s.18.53.44.67C1627.43,981.22,1626.18,978.71,1625.91,977.87Z"/><path class="cls-4" d="M1605.28,970.28a.74.74,0,0,0-.24-.42.88.88,0,0,0-.46-.09,7,7,0,0,1-1.29-.12l1.37,1.65a.75.75,0,0,1,.09.15c0,.18-.16.34-.22.53s.18.53.44.67C1606.8,973.63,1605.54,971.12,1605.28,970.28Z"/><path class="cls-4" d="M1631.87,965.39c-.13-.16-.25-.33-.38-.5a1,1,0,0,0-.35,1.11c.17.38.8.5,1,.14s.25-.63.47-.5Z"/><path class="cls-4" d="M1640.57,972.13a.91.91,0,0,1-1.3.7.89.89,0,0,1,0-1.46.91.91,0,0,1,1.31.69Z"/><path class="cls-4" d="M1648.14,978.29c.37.29.78.75.55,1.15s-.81.3-1.24.17c-.19-.06-.4-.15-.45-.34-.1-.46.87-.54.87-1,.11-.07.26.13.16.22Z"/><path class="cls-4" d="M1637.87,1003.89a2.21,2.21,0,0,0-1.1-1.65c-.64-.28-1.56.1-1.59.78a.87.87,0,0,0,.18.56,1.55,1.55,0,0,0,.27.24,1.9,1.9,0,0,0,1.3.45.89.89,0,0,0,.82-.94Z"/><path class="cls-4" d="M1652.45,1011.63a.93.93,0,0,0-.55.25,2.11,2.11,0,0,0-.25.55c-.2.43-.73.61-1,1a2.46,2.46,0,0,0,0,2.36c.07.18.16.39.35.43a.77.77,0,0,0,.41-.09c.94-.36,1.53.52,2.41.41a2.71,2.71,0,0,0,1.84-1.52A2.74,2.74,0,0,0,1652.45,1011.63Z"/><path class="cls-4" d="M1630.19,986.51a.89.89,0,0,1,.26.45,1.48,1.48,0,0,1-1.11-.7c-.15-.2-.31-.47-.18-.68s.28-.2.42-.31.41-.7.77-.66a.43.43,0,0,1,.34.42,1.29,1.29,0,0,1-.16.57c-.19.39-.38.78-.56,1.17Z"/><path class="cls-4" d="M1625.3,991.33c0-.36-.61-.42-.82-.12a.71.71,0,1,0,1,.15Z"/><path class="cls-4" d="M1624.19,986.05a1.24,1.24,0,0,0-.2-.49.46.46,0,0,0-.47-.18c-.28.09-.32.47-.53.68s-.6.23-.72.49.12.58.41.63a1.35,1.35,0,0,0,.84-.22,1.56,1.56,0,0,0,.58-.5.54.54,0,0,0-.1-.7Z"/><path class="cls-4" d="M1623.4,983.83a.32.32,0,0,1-.38.24.56.56,0,0,1-.4-.3.48.48,0,0,1-.1-.28.42.42,0,0,1,.45-.42.47.47,0,0,1,.41.48.49.49,0,0,1-.47.43Z"/><path class="cls-4" d="M1599,988.51a.33.33,0,0,1-.39.25.62.62,0,0,1-.4-.31.63.63,0,0,1-.1-.27.44.44,0,0,1,.45-.43.46.46,0,0,1,.41.48.49.49,0,0,1-.46.44Z"/><path class="cls-4" d="M1625.57,983a.51.51,0,0,0,.26-.83.88.88,0,0,0-.51.25.42.42,0,0,0,0,.52.28.28,0,0,0,.47,0Z"/><path class="cls-4" d="M1641.23,963.86a.5.5,0,0,0,.26-.83.88.88,0,0,0-.51.25.44.44,0,0,0,0,.52.29.29,0,0,0,.48,0Z"/><path class="cls-4" d="M1633.52,980.76a1.43,1.43,0,0,0,0-1.26l-1,.53a1.08,1.08,0,0,0-.38.32.56.56,0,0,0,.36.78.8.8,0,0,0,.86-.34Z"/><path class="cls-4" d="M1643.54,984.4l1.12,1.59c-.17.29-.61.09-.86-.13a1.74,1.74,0,0,1-.59-.79.59.59,0,0,1,.45-.74Z"/><path class="cls-4" d="M1648.73,992.89a.69.69,0,0,0-.34-1.11,1,1,0,0,0-1.13.67.72.72,0,0,0,0,.59.73.73,0,0,0,.82.31,2.11,2.11,0,0,0,.82-.47Z"/><path class="cls-4" d="M1646.17,976.32a1.09,1.09,0,0,0,.26-1.22,1.34,1.34,0,0,0-.86.39.87.87,0,0,0-.16,1.13c.27.32.95.17.94-.25Z"/><path class="cls-4" d="M1644.92,980.64a.66.66,0,0,1-.53.63l-.57-.81a.78.78,0,0,1,1.19-.07Z"/><path class="cls-4" d="M1640.86,997.61l-.93,1.24a.82.82,0,0,0-.2.38.86.86,0,0,0,.1.44c.21.51.56,1.11,1.11,1.07s.84-.76,1.1-1.3c.49-1,3.1-2.63,2.13-3.93S1641.43,996.85,1640.86,997.61Z"/><path class="cls-4" d="M1646,990.59l.3.27a2.12,2.12,0,0,1-.88.25.73.73,0,0,1-.72-.46c-.08-.3.23-.65.51-.54a1.54,1.54,0,0,1,.76.51Z"/><path class="cls-4" d="M1621.67,988.61a.67.67,0,0,1-.49.52.67.67,0,0,1-.68-.24c-.11-.13-.13-.37,0-.45a.42.42,0,0,1,.22,0l1,.07a.94.94,0,0,0,0,.16Z"/><path class="cls-4" d="M1616.84,990c-.29-.11-.6.14-.8.38s-.47.51-.78.47a.27.27,0,0,1-.22-.13c-.1-.2.16-.37.3-.55a2.55,2.55,0,0,0,.2-.48,1.08,1.08,0,0,1,1-.61.59.59,0,0,1,.28.57.6.6,0,0,1-.43.48Z"/><path class="cls-4" d="M1616,987l-.14-.33a.43.43,0,0,0-.45.31.36.36,0,0,0,.3.44.32.32,0,0,0,.32-.39Z"/><path class="cls-4" d="M1607.43,986.32c0-.11-.1-.22-.14-.33a.45.45,0,0,0-.46.32.37.37,0,0,0,.31.43.31.31,0,0,0,.32-.39Z"/><path class="cls-4" d="M1628,981.81c0,.23.29.37.52.3s.41-.25.63-.34a.84.84,0,0,1,.71,0,.41.41,0,0,1,.26.32.52.52,0,0,1-.1.26,2.5,2.5,0,0,1-1,1,1.23,1.23,0,0,1-1.33-.07.91.91,0,0,1,.33-1.56Z"/><path class="cls-4" d="M1636.36,950.82c0,.23.29.37.52.3a6.47,6.47,0,0,0,.62-.35.94.94,0,0,1,.72,0c.12.07.25.18.25.32a.54.54,0,0,1-.09.27,2.61,2.61,0,0,1-1,1,1.23,1.23,0,0,1-1.33-.06.91.91,0,0,1,.32-1.57Z"/><path class="cls-4" d="M1630.4,976a.58.58,0,0,0-.33-.72.84.84,0,0,0-.84.18c-.09.08-.18.22-.11.33a.33.33,0,0,0,.23.12l1.09.19Z"/><path class="cls-4" d="M1636.12,962.78a3,3,0,0,0,1.8-1.34.47.47,0,0,0,.08-.36c-.09-.28-.49-.21-.79-.22-.5,0-.92-.44-1.42-.45a1.78,1.78,0,0,0-1.1.49c-.47.36-1,1-.66,1.44a1.12,1.12,0,0,0,.81.37,5.69,5.69,0,0,0,1.93-.09Z"/><path class="cls-4" d="M1657.8,971.18c.46.07.67-.54.69-1a.92.92,0,0,0-.21-.8c-.31-.25-.76,0-1.08.18l-.86.56c-.12.08-.26.18-.28.33a.5.5,0,0,0,.16.35,4.61,4.61,0,0,0,1.59,1.21Z"/><path class="cls-4" d="M1652.72,985.24c4,1.06,4.84-3.67,1.72-5.34C1651.16,978.14,1649.22,984.33,1652.72,985.24Z"/><path class="cls-4" d="M1630.41,992.21a1,1,0,0,1-1.54.07,2.38,2.38,0,0,1,1.07-.87.85.85,0,0,1,1.1.55l-.46.67Z"/><path class="cls-4" d="M1619.24,999.75l-.4-.53a5.74,5.74,0,0,1-2.06,1.12,5.28,5.28,0,0,0-1.12.38,1.13,1.13,0,0,0-.65.92c0,.73.92,1.09,1.66,1.05a3.25,3.25,0,0,0,2.43-1.21,2.18,2.18,0,0,0,0-2.57l-.77.5Z"/><path class="cls-4" d="M1614.83,994.78c.19-.25,0-.38-.34-.29a3.63,3.63,0,0,0-.93.52l-2,1.39c-.38.26-.81.59-.88.87s.22.3.55.21a4.85,4.85,0,0,0,1-.5c1.13-.67,2.44-1.59,2.69-2.4l-.65.14Z"/><path class="cls-4" d="M1612.66,990.87a.25.25,0,0,1-.28.23.64.64,0,0,1-.35-.21.71.71,0,0,1-.18-.27.49.49,0,0,1,.26-.55.63.63,0,0,1,.62.07.37.37,0,0,1,.18.25.21.21,0,0,1-.16.24Z"/><path class="cls-4" d="M1620.57,971.28a8.58,8.58,0,0,0,1.14-1.41.57.57,0,0,0-.43-.22,1.62,1.62,0,0,0-1.74,1.59.55.55,0,0,0,.12.37.45.45,0,0,0,.5,0,1.33,1.33,0,0,0,.39-.36Z"/><path class="cls-4" d="M1623.12,980.71l-.17-.34a.8.8,0,0,0-.48.31c-.09.17,0,.45.22.42a.72.72,0,0,0,.19-.11l.53-.47Z"/><path class="cls-4" d="M1635.06,973.79a2.34,2.34,0,0,0-.18-.91.78.78,0,0,0-.74-.46.76.76,0,0,0-.41.2.88.88,0,0,0,0,1.25.93.93,0,0,0,1.26-.11Z"/><path class="cls-4" d="M1645.92,962.1a.62.62,0,0,1-.38,1,1.81,1.81,0,0,1-.54-.49,1.11,1.11,0,0,1,.69-.4Z"/><path class="cls-4" d="M1649.73,969c.15-.23-.33-.44-.49-.22a.56.56,0,0,0,.2.72.6.6,0,0,0,.29-.64Z"/><path class="cls-4" d="M1632.45,1000.51l-.38-.51a1.34,1.34,0,0,0-.4.27.61.61,0,0,0,.75.4Z"/><path class="cls-4" d="M1686.68,996.29l-.38-.5a1.09,1.09,0,0,0-.4.27.62.62,0,0,0,.75.4Z"/><path class="cls-4" d="M1659,992a2.18,2.18,0,0,1,.75,2,.43.43,0,0,1-.1.25.52.52,0,0,1-.41.05c-.82-.16-1.8-.47-1.93-1.28a1.07,1.07,0,0,1,1.38-1.09c.07.22.13.44.19.66Z"/><path class="cls-4" d="M1631.74,1030.85a2.17,2.17,0,0,1,.75,2,.39.39,0,0,1-.1.25.48.48,0,0,1-.41,0c-.81-.15-1.8-.46-1.93-1.27a1.07,1.07,0,0,1,1.38-1.09c.07.22.13.44.2.66Z"/></g><g class="cls-14"><path class="cls-4" d="M1407.39,1055.48a14,14,0,0,0,.22-6.43,2.53,2.53,0,0,0-.36-1,2.11,2.11,0,0,0-1.85-.69,4.2,4.2,0,0,0-3.6,3,5.07,5.07,0,0,0,1.12,4.63,3.57,3.57,0,0,0,2.33,1.33,2,2,0,0,0,2.1-1.39.44.44,0,0,0-.71.12Z"/><path class="cls-4" d="M1120.39,1067a3.65,3.65,0,0,0-1.15-3.38,3.91,3.91,0,0,0-2.62,2.47,2.33,2.33,0,0,0,1.64,2.88c1.24.22,2.48-1.31,1.78-2.34Z"/><path class="cls-4" d="M1116.66,1055.86a4.38,4.38,0,0,0-.53-1.14s-.06-.09-.11-.1a.19.19,0,0,0-.16,0c-.39.21-.44.89-.88.91-.08,0-.17,0-.23,0s0,.24,0,.34a1.18,1.18,0,0,0,1.78-.22l0,.19Z"/><path class="cls-4" d="M1426.9,1046.19a7.91,7.91,0,0,0-1-2.15.57.57,0,0,0-.21-.2.36.36,0,0,0-.3.06c-.72.4-.82,1.68-1.65,1.71-.16,0-.32,0-.44.06s-.08.46.09.64a2.22,2.22,0,0,0,3.35-.4l.06.35Z"/><path class="cls-4" d="M1448.63,1041a8,8,0,0,0-1-2.16.41.41,0,0,0-.2-.19.36.36,0,0,0-.3.05c-.73.4-.83,1.68-1.66,1.72-.15,0-.32,0-.44,0s-.08.46.1.64a2.22,2.22,0,0,0,3.35-.4l.06.36Z"/><path class="cls-4" d="M1119.1,1048.79a1.9,1.9,0,0,0-.51-1.6,2,2,0,0,0-.53.57.63.63,0,0,0,0,.72c.23.27.66.21,1,.13l-.15.25Z"/><path class="cls-4" d="M1115.21,1047.13a.72.72,0,0,0-.24-.41.8.8,0,0,0-.46-.09,7,7,0,0,1-1.29-.12l1.37,1.65a.67.67,0,0,1,.09.14c0,.19-.16.35-.22.54s.18.53.43.66C1116.73,1050.49,1115.47,1048,1115.21,1047.13Z"/><path class="cls-4" d="M1094.58,1039.54a.78.78,0,0,0-.24-.41.8.8,0,0,0-.46-.09,7.07,7.07,0,0,1-1.3-.13l1.37,1.66a.31.31,0,0,1,.09.14c.06.19-.16.34-.22.53s.18.53.44.67C1096.09,1042.9,1094.84,1040.38,1094.58,1039.54Z"/><path class="cls-4" d="M1121.16,1034.66l-.37-.51a1,1,0,0,0-.36,1.11c.17.38.81.5,1,.14s.24-.63.47-.49Z"/><path class="cls-4" d="M1408.6,1035a.92.92,0,0,1-1.31.7.89.89,0,0,1,0-1.46.91.91,0,0,1,1.31.68Z"/><path class="cls-4" d="M1416.16,1041.18c.38.28.79.75.55,1.15s-.81.3-1.24.16c-.18-.06-.4-.15-.44-.33-.1-.46.86-.54.86-1,.12-.07.27.13.16.22Z"/><path class="cls-4" d="M1127.17,1073.16a2.16,2.16,0,0,0-1.11-1.65c-.63-.28-1.55.09-1.58.78a.78.78,0,0,0,.18.55,1.54,1.54,0,0,0,.26.25,1.93,1.93,0,0,0,1.31.44.9.9,0,0,0,.82-.94Z"/><path class="cls-4" d="M1420.48,1074.51a1.1,1.1,0,0,0-.56.25,2.56,2.56,0,0,0-.24.56c-.21.43-.73.61-1,1a2.44,2.44,0,0,0,0,2.36c.06.19.15.39.34.44a.75.75,0,0,0,.41-.09c.94-.36,1.54.52,2.41.41a2.54,2.54,0,1,0-1.3-4.9Z"/><path class="cls-4" d="M1119.49,1055.78a.75.75,0,0,1,.25.45,1.49,1.49,0,0,1-1.1-.71c-.16-.19-.32-.46-.19-.68s.29-.2.43-.31.41-.69.76-.66a.44.44,0,0,1,.35.43,1.3,1.3,0,0,1-.17.56c-.18.39-.37.78-.56,1.17Z"/><path class="cls-4" d="M1114.6,1060.6c0-.37-.62-.42-.83-.13a1.34,1.34,0,0,0-.06,1.06,1.31,1.31,0,0,0,1.11-.9Z"/><path class="cls-4" d="M1113.49,1055.32a1.33,1.33,0,0,0-.2-.49.47.47,0,0,0-.47-.19c-.29.09-.32.48-.54.68s-.59.23-.72.49a.5.5,0,0,0,.42.63,1.21,1.21,0,0,0,.83-.22,1.37,1.37,0,0,0,.59-.5.56.56,0,0,0-.1-.7Z"/><path class="cls-4" d="M1112.7,1053.09a.33.33,0,0,1-.39.25.64.64,0,0,1-.4-.3.73.73,0,0,1-.1-.28.44.44,0,0,1,.45-.43.46.46,0,0,1,.41.48.49.49,0,0,1-.46.44Z"/><path class="cls-4" d="M1088.29,1057.77a.33.33,0,0,1-.39.25.64.64,0,0,1-.4-.3.5.5,0,0,1-.1-.28.43.43,0,0,1,.45-.42.45.45,0,0,1,.41.47.49.49,0,0,1-.47.44Z"/><path class="cls-4" d="M1114.86,1052.24a.5.5,0,0,0,.26-.83.88.88,0,0,0-.5.25.43.43,0,0,0-.06.52.3.3,0,0,0,.48,0Z"/><path class="cls-4" d="M1409.26,1026.75a.51.51,0,0,0,.25-.84.88.88,0,0,0-.5.25.41.41,0,0,0,0,.52.29.29,0,0,0,.47,0Z"/><path class="cls-4" d="M1122.82,1050a1.43,1.43,0,0,0,0-1.26l-.94.53a.94.94,0,0,0-.39.32.58.58,0,0,0,.36.78.84.84,0,0,0,.87-.35Z"/><path class="cls-4" d="M1411.57,1047.29l1.11,1.59c-.17.29-.61.08-.86-.14a1.66,1.66,0,0,1-.59-.78.58.58,0,0,1,.46-.74Z"/><path class="cls-4" d="M1416.76,1055.77a.68.68,0,0,0-.35-1.1,1,1,0,0,0-1.13.66.78.78,0,0,0,0,.6.75.75,0,0,0,.83.31,2.11,2.11,0,0,0,.82-.47Z"/><path class="cls-4" d="M1414.2,1039.2a1.09,1.09,0,0,0,.25-1.21,1.38,1.38,0,0,0-.86.38.87.87,0,0,0-.15,1.13c.27.33,1,.18.94-.24Z"/><path class="cls-4" d="M1413,1043.53a.66.66,0,0,1-.54.62c-.19-.27-.37-.54-.56-.8a.77.77,0,0,1,1.18-.07Z"/><path class="cls-4" d="M1408.88,1060.49c-.3.42-.61.83-.92,1.24a.86.86,0,0,0-.2.39,1,1,0,0,0,.09.44c.21.5.56,1.1,1.12,1.07s.83-.76,1.1-1.3c.48-1,3.1-2.63,2.12-3.94S1409.45,1059.74,1408.88,1060.49Z"/><path class="cls-4" d="M1414.05,1053.48l.29.27a2.28,2.28,0,0,1-.88.25.71.71,0,0,1-.71-.47c-.08-.29.22-.64.51-.54a1.65,1.65,0,0,1,.75.52Z"/><path class="cls-4" d="M1111,1057.87a.68.68,0,0,1-.48.53.7.7,0,0,1-.69-.24c-.1-.14-.13-.37,0-.45a.37.37,0,0,1,.21,0l1,.07,0,.17Z"/><path class="cls-4" d="M1106.14,1059.29c-.3-.11-.6.13-.81.37s-.46.52-.78.47a.28.28,0,0,1-.21-.12c-.1-.2.16-.38.29-.55a2.13,2.13,0,0,0,.21-.49,1.07,1.07,0,0,1,1-.61.59.59,0,0,1,.28.58.58.58,0,0,1-.42.47Z"/><path class="cls-4" d="M1105.29,1056.27l-.15-.33a.43.43,0,0,0-.45.32.37.37,0,0,0,.3.43.32.32,0,0,0,.33-.39Z"/><path class="cls-4" d="M1096.72,1055.58c0-.11-.09-.22-.14-.33a.45.45,0,0,0-.45.32.36.36,0,0,0,.3.43.31.31,0,0,0,.32-.38Z"/><path class="cls-4" d="M1117.26,1051.07c0,.24.29.38.52.31s.4-.26.62-.35a.9.9,0,0,1,.72,0,.4.4,0,0,1,.25.32.43.43,0,0,1-.09.26,2.57,2.57,0,0,1-1,1,1.21,1.21,0,0,1-1.33-.07.93.93,0,0,1-.31-.87,1,1,0,0,1,.63-.69Z"/><path class="cls-4" d="M1375.3,1048.47c0,.24.29.37.52.3s.41-.25.63-.34a.84.84,0,0,1,.71,0,.42.42,0,0,1,.26.32.52.52,0,0,1-.1.26,2.5,2.5,0,0,1-1,1,1.23,1.23,0,0,1-1.33-.07.91.91,0,0,1-.3-.87.92.92,0,0,1,.62-.69Z"/><path class="cls-4" d="M1119.69,1045.27a.56.56,0,0,0-.33-.72.84.84,0,0,0-.83.18c-.1.08-.19.23-.12.34a.38.38,0,0,0,.24.11l1.08.19Z"/><path class="cls-4" d="M1125.42,1032a3,3,0,0,0,1.79-1.33.46.46,0,0,0,.09-.37c-.09-.28-.5-.21-.79-.22-.51,0-.93-.44-1.43-.45a1.85,1.85,0,0,0-1.09.49c-.47.36-1,1-.66,1.44a1.07,1.07,0,0,0,.81.37,5.89,5.89,0,0,0,1.92-.08Z"/><path class="cls-4" d="M1425.82,1034.07c.46.07.67-.54.7-1a.93.93,0,0,0-.22-.8c-.3-.25-.75,0-1.08.18l-.85.55c-.13.09-.27.19-.28.34a.49.49,0,0,0,.15.35,4.74,4.74,0,0,0,1.6,1.21Z"/><path class="cls-4" d="M1420.74,1048.13c4,1,4.85-3.67,1.72-5.35S1417.24,1047.21,1420.74,1048.13Z"/><path class="cls-4" d="M1119.71,1061.47a1,1,0,0,1-1.55.08,2.46,2.46,0,0,1,1.07-.88c.45-.14,1,.09,1.1.55l-.45.68Z"/><path class="cls-4" d="M1108.54,1069l-.4-.54a5.83,5.83,0,0,1-2.06,1.12,6.26,6.26,0,0,0-1.13.38,1.17,1.17,0,0,0-.65.92c0,.73.93,1.09,1.67,1a3.2,3.2,0,0,0,2.42-1.21,2.16,2.16,0,0,0,0-2.57l-.77.51Z"/><path class="cls-4" d="M1104.13,1064c.18-.25,0-.37-.35-.29a3.58,3.58,0,0,0-.92.52l-2,1.39c-.38.26-.82.6-.89.87s.23.3.55.21a4.57,4.57,0,0,0,1-.49c1.13-.67,2.45-1.6,2.7-2.41l-.65.14Z"/><path class="cls-4" d="M1102,1060.14c0,.13-.15.23-.28.22a.55.55,0,0,1-.35-.2.64.64,0,0,1-.18-.28.46.46,0,0,1,.25-.54.65.65,0,0,1,.63.06.4.4,0,0,1,.18.26.23.23,0,0,1-.16.24Z"/><path class="cls-4" d="M1109.87,1040.54a8,8,0,0,0,1.13-1.41.54.54,0,0,0-.42-.21,1.62,1.62,0,0,0-1.75,1.59.52.52,0,0,0,.13.36.45.45,0,0,0,.5,0,1.3,1.3,0,0,0,.38-.36Z"/><path class="cls-4" d="M1112.42,1050l-.17-.33a.82.82,0,0,0-.49.31c-.09.17,0,.44.23.41a.41.41,0,0,0,.19-.11l.53-.46Z"/><path class="cls-4" d="M1124.35,1043.05a2.09,2.09,0,0,0-.17-.9.81.81,0,0,0-.75-.47.74.74,0,0,0-.41.21.88.88,0,0,0,0,1.24.92.92,0,0,0,1.26-.11Z"/><path class="cls-4" d="M1414,1025a.62.62,0,0,1-.38,1,1.72,1.72,0,0,1-.55-.49,1.12,1.12,0,0,1,.7-.39Z"/><path class="cls-4" d="M1417.75,1031.85c.15-.23-.32-.45-.49-.23a.39.39,0,1,0,.49.09Z"/><path class="cls-4" d="M1121.75,1069.77c-.13-.17-.25-.34-.38-.5a1.09,1.09,0,0,0-.4.27.6.6,0,0,0,.74.39Z"/><path class="cls-4" d="M1454.71,1059.18l-.38-.5a1.09,1.09,0,0,0-.4.27.6.6,0,0,0,.74.39Z"/><path class="cls-4" d="M1427.06,1054.84a2.17,2.17,0,0,1,.76,2,.47.47,0,0,1-.11.25.48.48,0,0,1-.41,0c-.81-.15-1.8-.47-1.93-1.27a1.07,1.07,0,0,1,1.39-1.09c.06.22.13.44.19.65Z"/></g><g class="cls-3"><path class="cls-4" d="M1730.68,717a25.45,25.45,0,0,0-11-2.9,4.52,4.52,0,0,0-1.83.22,3.55,3.55,0,0,0-1.9,2.81,7.2,7.2,0,0,0,3.77,7.2,9.23,9.23,0,0,0,8.42-.05,6,6,0,0,0,3.21-3.36,3.38,3.38,0,0,0-1.57-4.06.73.73,0,0,0-.06,1.23Z"/><path class="cls-4" d="M1736.31,732.85a6.62,6.62,0,0,0-6.28.59,6.73,6.73,0,0,0,3.23,5.33c1.94,1,4.76.39,5.62-1.59s-1.28-4.65-3.33-3.9Z"/><path class="cls-4" d="M1715.6,734.67a7.75,7.75,0,0,0-2.18.44.34.34,0,0,0-.22.14.29.29,0,0,0,0,.27c.22.73,1.37,1.08,1.23,1.83a.7.7,0,0,0-.05.4c.09.21.41.16.61,0a2,2,0,0,0,.33-3l.34,0Z"/><path class="cls-4" d="M1811.4,350.42a14.77,14.77,0,0,0-4.1.81.81.81,0,0,0-.42.27.59.59,0,0,0,0,.52c.4,1.37,2.57,2,2.31,3.44-.05.25-.18.52-.08.76s.77.31,1.14.09a3.71,3.71,0,0,0,.63-5.75l.64,0Z"/><path class="cls-4" d="M1811,312.11a14.77,14.77,0,0,0-4.11.81.81.81,0,0,0-.42.27.63.63,0,0,0,0,.52c.4,1.37,2.57,2,2.31,3.44,0,.26-.18.52-.08.76s.77.31,1.15.1a3.73,3.73,0,0,0,.62-5.76l.64,0Z"/><path class="cls-4" d="M1793.4,397.44a3.41,3.41,0,0,0-2.94.21,3.32,3.32,0,0,0,.76,1.12,1.2,1.2,0,0,0,1.27.23c.55-.29.62-1,.61-1.64l.37.35Z"/><path class="cls-4" d="M1789,403.27a1,1,0,0,0-1.14,1,12.25,12.25,0,0,1-.73,2.11l3.39-1.63a.73.73,0,0,1,.28-.1c.35,0,.54.41.84.58s1-.09,1.32-.47C1795.4,402.07,1790.58,403.17,1789,403.27Z"/><path class="cls-4" d="M1767.78,434.7a1.42,1.42,0,0,0-.81.23,1.4,1.4,0,0,0-.33.73,12,12,0,0,1-.73,2.11l3.39-1.63a.92.92,0,0,1,.28-.09c.35,0,.54.4.84.58s1-.1,1.32-.47C1774.16,433.49,1769.34,434.59,1767.78,434.7Z"/><path class="cls-4" d="M1769.84,388.42l-1,.43a1.8,1.8,0,0,0,1.78,1c.72-.14,1.17-1.15.63-1.65-.33-.3-1-.65-.66-1Z"/><path class="cls-4" d="M1784.91,376.56a1.55,1.55,0,0,1,.68,2.45,1.6,1.6,0,0,1-2.52-.57,1.56,1.56,0,0,1,1.7-1.91Z"/><path class="cls-4" d="M1798.51,366.36c.64-.51,1.6-1,2.21-.46s.2,1.47-.21,2.13c-.18.29-.42.61-.76.61-.83,0-.58-1.65-1.39-1.83-.08-.23.33-.4.44-.19Z"/><path class="cls-4" d="M1749.58,724a3.92,3.92,0,0,0-3.28,1.19,1.92,1.92,0,0,0,.72,3,1.52,1.52,0,0,0,1-.09,2.26,2.26,0,0,0,.52-.35,3.13,3.13,0,0,0,1.28-2,1.56,1.56,0,0,0-1.29-1.75Z"/><path class="cls-4" d="M1857.73,372.31a1.67,1.67,0,0,0,.21,1,3.93,3.93,0,0,0,.86.64c.66.51.77,1.45,1.28,2.11.88,1.15,2.61,1.12,4.06,1,.34,0,.74-.1.89-.4a1.26,1.26,0,0,0,0-.72c-.25-1.71,1.51-2.36,1.66-3.87a4.63,4.63,0,0,0-1.9-3.66A4.82,4.82,0,0,0,1857.73,372.31Z"/><path class="cls-4" d="M1716.56,729.92a1.53,1.53,0,0,1,.88-.25c-.15.77-.93,1.24-1.65,1.57-.4.18-.93.33-1.25,0s-.23-.55-.36-.83c-.27-.55-1-1-.84-1.53a.76.76,0,0,1,.87-.41,2.29,2.29,0,0,1,.9.5l1.8,1.39Z"/><path class="cls-4" d="M1723,740c-.63-.14-1,.85-.54,1.33a2.41,2.41,0,0,0,1.8.51,2.21,2.21,0,0,0-1.12-2.2Z"/><path class="cls-4" d="M1713.4,739.75a2.19,2.19,0,0,0-.92.14.75.75,0,0,0-.5.71c0,.51.69.72,1,1.15s.16,1.09.56,1.4a.88.88,0,0,0,1.25-.44,2.16,2.16,0,0,0,0-1.48,2.43,2.43,0,0,0-.63-1.17,1,1,0,0,0-1.25-.11Z"/><path class="cls-4" d="M1709.25,740.18a.57.57,0,0,1,.27.75,1.09,1.09,0,0,1-.67.55,1.19,1.19,0,0,1-.53,0,.75.75,0,0,1-.55-.92.82.82,0,0,1,1-.5.87.87,0,0,1,.57,1Z"/><path class="cls-4" d="M1796.72,452.36a.57.57,0,0,1,.32.73,1.1,1.1,0,0,1-.65.58,1.05,1.05,0,0,1-.52.08.74.74,0,0,1-.6-.89.8.8,0,0,1,1-.54.86.86,0,0,1,.62.92Z"/><path class="cls-4" d="M1708.64,736.23a.9.9,0,0,0-1.33-.75,1.54,1.54,0,0,0,.23.94.77.77,0,0,0,.88.29.5.5,0,0,0,.15-.8Z"/><path class="cls-4" d="M1770.89,372.19a.9.9,0,0,0-1.34-.75,1.45,1.45,0,0,0,.24.93.76.76,0,0,0,.87.3.5.5,0,0,0,.15-.81Z"/><path class="cls-4" d="M1708,722.09a2.63,2.63,0,0,0-2.16-.55l.54,1.78a1.68,1.68,0,0,0,.4.77,1,1,0,0,0,1.49-.29,1.36,1.36,0,0,0-.26-1.58Z"/><path class="cls-4" d="M1807.24,376.44l3.19-1.24c.42.4-.1,1.06-.58,1.39a3,3,0,0,1-1.58.67c-.58,0-1.21-.48-1.1-1Z"/><path class="cls-4" d="M1823.93,371.13a1.23,1.23,0,0,0-2,.14,1.74,1.74,0,0,0,.7,2.14,1.35,1.35,0,0,0,1,.25,1.23,1.23,0,0,0,.86-1.25,3.64,3.64,0,0,0-.48-1.55Z"/><path class="cls-4" d="M1794.33,368.86a2,2,0,0,0-2-.9,2.25,2.25,0,0,0,.32,1.58,1.58,1.58,0,0,0,1.89.71c.67-.32.67-1.52,0-1.67Z"/><path class="cls-4" d="M1801.3,372.65a1.15,1.15,0,0,1,.87,1.14l-1.62.63a1.31,1.31,0,0,1,.36-2Z"/><path class="cls-4" d="M1850.42,467l1.78,2a1.44,1.44,0,0,0,.58.49,1.66,1.66,0,0,0,.8,0c1-.15,2.13-.49,2.29-1.43s-1-1.7-1.81-2.35c-1.54-1.21-3.32-6.21-6-5.1C1845.32,461.82,1849.34,465.75,1850.42,467Z"/><path class="cls-4" d="M1818.9,374.74l.58-.38a3.59,3.59,0,0,1,.09,1.56,1.27,1.27,0,0,1-1.09,1c-.53,0-1-.63-.73-1.07a2.78,2.78,0,0,1,1.19-1.06Z"/><path class="cls-4" d="M1716.81,745a1.16,1.16,0,0,1,.72,1,1.18,1.18,0,0,1-.68,1c-.28.12-.7.07-.77-.22a.68.68,0,0,1,0-.37l.51-1.58.26.12Z"/><path class="cls-4" d="M1717.36,753.57c-.31.45,0,1.06.32,1.5s.71,1,.51,1.48a.48.48,0,0,1-.31.31c-.37.09-.57-.41-.83-.71a4,4,0,0,0-.75-.53,1.83,1.83,0,0,1-.65-2,1.06,1.06,0,0,1,1.1-.23,1,1,0,0,1,.66.89Z"/><path class="cls-4" d="M1711.82,753.8l-.63.11a.75.75,0,0,0,.37.88.64.64,0,0,0,.86-.33.54.54,0,0,0-.54-.69Z"/><path class="cls-4" d="M1796.31,437.44l-.63.11a.75.75,0,0,0,.37.88.64.64,0,0,0,.86-.33.54.54,0,0,0-.54-.69Z"/><path class="cls-4" d="M1707.57,731.78c.39.15.75-.34.72-.74a9.9,9.9,0,0,0-.34-1.18,1.43,1.43,0,0,1,.32-1.19.73.73,0,0,1,.64-.3.88.88,0,0,1,.42.26,4.44,4.44,0,0,1,1.37,2,2.06,2.06,0,0,1-.65,2.2,1.67,1.67,0,0,1-1.62.16,1.61,1.61,0,0,1-.94-1.32Z"/><path class="cls-4" d="M1746.46,375.18c.39.14.76-.34.73-.75s-.28-.77-.35-1.18a1.41,1.41,0,0,1,.32-1.18.71.71,0,0,1,.64-.3.88.88,0,0,1,.43.26,4.5,4.5,0,0,1,1.36,2,2.06,2.06,0,0,1-.64,2.19,1.7,1.7,0,0,1-1.63.17,1.63,1.63,0,0,1-.94-1.32Z"/><path class="cls-4" d="M1787.57,395.06a1,1,0,0,0-1.37.27,1.44,1.44,0,0,0,0,1.46c.11.19.32.39.54.32a.56.56,0,0,0,.28-.35c.26-.57.51-1.15.76-1.73Z"/><path class="cls-4" d="M1767,380.28a5,5,0,0,0-1.59-3.51.86.86,0,0,0-.6-.29c-.51,0-.55.75-.69,1.24-.23.83-1.12,1.36-1.34,2.19a3,3,0,0,0,.42,2c.43.93,1.26,2,2.23,1.67a1.84,1.84,0,0,0,1-1.2,9.76,9.76,0,0,0,.62-3.25Z"/><path class="cls-4" d="M1790.06,347.45c.3-.74-.68-1.33-1.46-1.56a1.65,1.65,0,0,0-1.46,0c-.55.41-.36,1.24-.12,1.87l.63,1.65a.91.91,0,0,0,.46.6.9.9,0,0,0,.67-.12,8.28,8.28,0,0,0,2.72-2.19Z"/><path class="cls-4" d="M1812.31,361.46c3.41-6.29-4.42-9.53-8.54-5C1799.45,361.26,1809.35,366.94,1812.31,361.46Z"/><path class="cls-4" d="M1814.24,283.08c3.4-6.29-4.43-9.53-8.55-5C1801.37,282.88,1811.28,288.56,1814.24,283.08Z"/><path class="cls-4" d="M1845,309.29c3.41-6.3-4.42-9.53-8.54-5C1832.18,309.09,1842.08,314.76,1845,309.29Z"/><path class="cls-4" d="M1726.48,731.8a1.66,1.66,0,0,1-.48,2.6,4.05,4.05,0,0,1-1.09-2.12c-.06-.81.57-1.71,1.38-1.62l1,1Z"/><path class="cls-4" d="M1735.09,753.41l-1.08.45a9.81,9.81,0,0,1,1.12,3.88,9.14,9.14,0,0,0,.21,2,2,2,0,0,0,1.33,1.45c1.25.3,2.25-1.11,2.47-2.37a5.47,5.47,0,0,0-1.13-4.52,3.92,3.92,0,0,0-4.43-1.06l.57,1.48Z"/><path class="cls-4" d="M1724.76,758.8c-.35-.4-.66-.08-.63.46a6.22,6.22,0,0,0,.53,1.75l1.61,3.9c.3.74.7,1.6,1.15,1.82s.61-.25.58-.83a8.08,8.08,0,0,0-.45-1.91c-.71-2.15-1.79-4.71-3.08-5.45,0,.38,0,.76,0,1.14Z"/><path class="cls-4" d="M1717.17,760.88a.43.43,0,0,1,.28.56,1,1,0,0,1-.49.5,1.36,1.36,0,0,1-.54.2.86.86,0,0,1-.84-.64,1,1,0,0,1,.35-1,.69.69,0,0,1,.51-.19.36.36,0,0,1,.35.36Z"/><path class="cls-4" d="M1775.54,409.58a15.5,15.5,0,0,0-2-2.45,1,1,0,0,0-.54.62,2.79,2.79,0,0,0,2,3.55,1,1,0,0,0,.68-.07.73.73,0,0,0,.26-.81,2.25,2.25,0,0,0-.46-.79Z"/><path class="cls-4" d="M1792.82,409.05l-.65.15a1.35,1.35,0,0,0,.34.93c.26.22.78.13.8-.21a.66.66,0,0,0-.11-.36c-.2-.35-.4-.71-.59-1.07Z"/><path class="cls-4" d="M1785.58,386.4a4.07,4.07,0,0,0-1.63,0,1.34,1.34,0,0,0-1.09,1.06,1.22,1.22,0,0,0,.19.76,1.6,1.6,0,0,0,2.16.42,1.53,1.53,0,0,0,.31-2.14Z"/><path class="cls-4" d="M1769.7,363.67a1.1,1.1,0,0,1,1.57,1,3.14,3.14,0,0,1-1.06.73,2,2,0,0,1-.41-1.32Z"/><path class="cls-4" d="M1783.05,360c-.34-.34-.9.37-.58.72a1,1,0,0,0,1.31,0,1,1,0,0,0-1-.74Z"/><path class="cls-4" d="M1694,971.62a14.77,14.77,0,0,0-4.11.81.81.81,0,0,0-.42.27.63.63,0,0,0,0,.52c.41,1.37,2.58,2,2.31,3.44,0,.26-.18.52-.08.76s.77.31,1.15.1a3.73,3.73,0,0,0,.62-5.76l.64,0Z"/><path class="cls-4" d="M1693.55,933.31a14.43,14.43,0,0,0-4.11.82.74.74,0,0,0-.42.26.63.63,0,0,0,0,.52c.41,1.37,2.58,2,2.31,3.44,0,.26-.18.52-.08.76s.77.31,1.15.1a3.74,3.74,0,0,0,.63-5.76l.63,0Z"/><path class="cls-4" d="M1676,1018.64a1.48,1.48,0,1,0-2.18,1.33,1.2,1.2,0,0,0,1.27.23c.55-.29.62-1,.61-1.64l.37.36Z"/><path class="cls-4" d="M1671.61,1024.47a1.31,1.31,0,0,0-.8.24,1.27,1.27,0,0,0-.34.73,12.25,12.25,0,0,1-.73,2.11l3.39-1.63a.77.77,0,0,1,.29-.1c.35,0,.53.41.83.58s1-.09,1.33-.47C1678,1023.27,1673.17,1024.37,1671.61,1024.47Z"/><path class="cls-4" d="M1650.37,1055.9a1.37,1.37,0,0,0-.8.23,1.33,1.33,0,0,0-.34.74,12.15,12.15,0,0,1-.73,2.1l3.39-1.63a1,1,0,0,1,.29-.09c.35,0,.53.41.83.58s1-.1,1.33-.47C1656.76,1054.69,1651.93,1055.8,1650.37,1055.9Z"/><path class="cls-4" d="M1652.43,1009.62l-1,.43a1.78,1.78,0,0,0,1.77,1c.72-.14,1.18-1.15.64-1.65-.34-.3-1-.65-.67-1Z"/><path class="cls-4" d="M1667.5,997.76a1.54,1.54,0,0,1,.68,2.45,1.6,1.6,0,0,1-2.52-.57,1.57,1.57,0,0,1,1.71-1.91Z"/><path class="cls-4" d="M1681.1,987.56c.65-.51,1.61-1,2.21-.46s.2,1.47-.21,2.13c-.18.29-.41.61-.75.61-.83,0-.59-1.65-1.4-1.83-.08-.23.33-.4.44-.19Z"/><path class="cls-4" d="M1653.48,993.39a.9.9,0,0,0-1.34-.75,1.56,1.56,0,0,0,.24.94.77.77,0,0,0,.87.29.5.5,0,0,0,.15-.81Z"/><path class="cls-4" d="M1689.84,997.64l3.19-1.24c.42.4-.1,1.06-.58,1.39a2.93,2.93,0,0,1-1.59.67c-.58,0-1.21-.48-1.09-1Z"/><path class="cls-4" d="M1706.52,992.33a1.22,1.22,0,0,0-2,.14,1.74,1.74,0,0,0,.69,2.15,1.44,1.44,0,0,0,1,.25,1.27,1.27,0,0,0,.87-1.26,3.66,3.66,0,0,0-.49-1.55Z"/><path class="cls-4" d="M1676.92,990.06a2,2,0,0,0-2-.9,2.25,2.25,0,0,0,.32,1.58,1.58,1.58,0,0,0,1.89.71c.67-.32.67-1.52-.05-1.66Z"/><path class="cls-4" d="M1683.89,993.85a1.15,1.15,0,0,1,.87,1.14l-1.62.63a1.31,1.31,0,0,1,.36-2Z"/><path class="cls-4" d="M1701.49,995.94c.2-.12.39-.25.58-.38a3.45,3.45,0,0,1,.09,1.56,1.26,1.26,0,0,1-1.08,1c-.54,0-1-.63-.73-1.07a2.7,2.7,0,0,1,1.18-1.06Z"/><path class="cls-4" d="M1678.9,1058.64l-.63.11a.75.75,0,0,0,.37.88.64.64,0,0,0,.86-.33.54.54,0,0,0-.53-.69Z"/><path class="cls-4" d="M1629.05,996.38c.39.15.76-.34.73-.75s-.28-.77-.35-1.18a1.48,1.48,0,0,1,.32-1.18.72.72,0,0,1,.65-.3.85.85,0,0,1,.42.26,4.34,4.34,0,0,1,1.36,2,2,2,0,0,1-.64,2.19,1.67,1.67,0,0,1-1.63.17,1.65,1.65,0,0,1-.94-1.32Z"/><path class="cls-4" d="M1670.16,1016.26a1,1,0,0,0-1.36.27,1.42,1.42,0,0,0,0,1.46c.11.19.32.39.54.32s.22-.2.29-.35c.25-.57.5-1.15.76-1.73Z"/><path class="cls-4" d="M1649.6,1001.49A5,5,0,0,0,1648,998a.84.84,0,0,0-.59-.29c-.52,0-.56.75-.7,1.24-.23.83-1.11,1.36-1.34,2.19a3.15,3.15,0,0,0,.42,2c.43.92,1.26,2,2.23,1.66a1.84,1.84,0,0,0,1-1.2,9.76,9.76,0,0,0,.62-3.25Z"/><path class="cls-4" d="M1672.65,968.65c.31-.74-.67-1.33-1.45-1.56a1.68,1.68,0,0,0-1.47,0c-.54.41-.35,1.25-.11,1.88s.41,1.09.62,1.64c.09.24.21.52.46.6a.9.9,0,0,0,.67-.12,8.28,8.28,0,0,0,2.72-2.19Z"/><path class="cls-4" d="M1694.91,982.66c3.4-6.29-4.43-9.52-8.55-5C1682,982.46,1691.94,988.14,1694.91,982.66Z"/><path class="cls-4" d="M1658.13,1030.78a15,15,0,0,0-2-2.45,1,1,0,0,0-.54.63,2.8,2.8,0,0,0,2.05,3.54,1,1,0,0,0,.68-.07.73.73,0,0,0,.26-.81,2.11,2.11,0,0,0-.46-.79Z"/><path class="cls-4" d="M1675.41,1030.25l-.65.15a1.38,1.38,0,0,0,.34.93c.26.22.79.13.81-.21a.73.73,0,0,0-.12-.36c-.2-.35-.39-.71-.59-1.07Z"/><path class="cls-4" d="M1668.17,1007.6a4,4,0,0,0-1.62-.05,1.35,1.35,0,0,0-1.1,1.06,1.22,1.22,0,0,0,.19.76,1.6,1.6,0,0,0,2.16.42,1.53,1.53,0,0,0,.31-2.14Z"/><path class="cls-4" d="M1652.29,984.87a1.1,1.1,0,0,1,1.57,1,3,3,0,0,1-1,.73,1.92,1.92,0,0,1-.42-1.32Z"/><path class="cls-4" d="M1665.64,981.23c-.34-.34-.9.37-.58.73a1,1,0,0,0,1.32-.05,1.06,1.06,0,0,0-1-.74Z"/><path class="cls-4" d="M1054.44,1064.24a13.89,13.89,0,0,0-.14-4.12.8.8,0,0,0-.19-.45.68.68,0,0,0-.52-.12c-1.44.17-2.47,2.16-3.84,1.67-.24-.09-.48-.26-.74-.2-.42.1-.44.69-.29,1.09a3.87,3.87,0,0,0,5.67,1.57l-.14.61Z"/><path class="cls-4" d="M1092.93,1070.16a13.82,13.82,0,0,0-.13-4.11.92.92,0,0,0-.2-.46.68.68,0,0,0-.52-.11c-1.44.17-2.47,2.16-3.83,1.67-.25-.09-.49-.26-.75-.2-.42.1-.44.69-.29,1.09a3.87,3.87,0,0,0,5.67,1.57l-.14.61Z"/><path class="cls-4" d="M1010.27,1039a3.24,3.24,0,0,0,.28-2.89,3.7,3.7,0,0,0-1.25.55,1.17,1.17,0,0,0-.44,1.2c.2.58.93.77,1.54.87l-.41.3Z"/><path class="cls-4" d="M1005.15,1033.76a1.27,1.27,0,0,0-.1-.82,1.34,1.34,0,0,0-.68-.45,12.66,12.66,0,0,1-2-1.06c.36,1.19.71,2.38,1.07,3.56a.77.77,0,0,1,0,.29c0,.34-.5.45-.72.72s-.07,1,.25,1.36C1005.3,1040.15,1005,1035.28,1005.15,1033.76Z"/><path class="cls-4" d="M977.16,1007.94a1.27,1.27,0,0,0-.1-.82,1.41,1.41,0,0,0-.68-.45,12.61,12.61,0,0,1-2-1l1.07,3.56a.71.71,0,0,1,0,.29c0,.34-.5.45-.72.71s-.07,1,.25,1.37C977.31,1014.33,977,1009.47,977.16,1007.94Z"/><path class="cls-4" d="M1023.23,1017.63c-.08-.36-.17-.71-.26-1.06a1.76,1.76,0,0,0-1.33,1.55c0,.72,1,1.33,1.55.89.36-.27.81-.85,1.08-.49Z"/><path class="cls-4" d="M1032.63,1034.2a1.59,1.59,0,0,1-2.57.26,1.55,1.55,0,0,1,1-2.35,1.57,1.57,0,0,1,1.64,2Z"/><path class="cls-4" d="M1040.59,1049.09c.41.71.75,1.72.1,2.22s-1.51,0-2.11-.56c-.26-.22-.54-.5-.48-.83.15-.81,1.75-.3,2.07-1.05.24,0,.34.38.12.46Z"/><path class="cls-4" d="M1039.33,1021.33a.88.88,0,0,0,1-1.16,1.49,1.49,0,0,0-1,.07.74.74,0,0,0-.44.8.5.5,0,0,0,.78.27Z"/><path class="cls-4" d="M1029,1055.89c.23,1.09.47,2.19.7,3.29-.47.34-1-.27-1.29-.79a2.88,2.88,0,0,1-.41-1.65,1,1,0,0,1,1.23-.89Z"/><path class="cls-4" d="M1031.59,1073a1.19,1.19,0,0,0,.2-2,1.8,1.8,0,0,0-2.27.32,1.29,1.29,0,0,0-.42,1,1.27,1.27,0,0,0,1.11,1,3.71,3.71,0,0,0,1.64-.22Z"/><path class="cls-4" d="M1038.78,1044.62a1.91,1.91,0,0,0,1.23-1.78,2.37,2.37,0,0,0-1.64.05,1.54,1.54,0,0,0-1,1.71c.21.7,1.41.91,1.68.23Z"/><path class="cls-4" d="M1033.82,1050.75a1.18,1.18,0,0,1-1.29.65l-.36-1.67a1.36,1.36,0,0,1,2,.68Z"/><path class="cls-4" d="M1028.8,1067.47c.1.21.19.42.29.62a3.64,3.64,0,0,1-1.58-.17,1.25,1.25,0,0,1-.84-1.22c.07-.52.8-.89,1.19-.53a2.74,2.74,0,0,1,.87,1.32Z"/><path class="cls-4" d="M969.67,1035.15v-.63a.79.79,0,0,0-.95.21.64.64,0,0,0,.2.9.55.55,0,0,0,.78-.41Z"/><path class="cls-4" d="M1040.39,997.15c-.21.36.21.79.63.83s.82-.14,1.24-.14a1.54,1.54,0,0,1,1.14.51.71.71,0,0,1,.19.67.91.91,0,0,1-.33.37,4.56,4.56,0,0,1-2.22,1,2.11,2.11,0,0,1-2.09-1,1.58,1.58,0,0,1,.11-1.6,1.66,1.66,0,0,1,1.47-.7Z"/><path class="cls-4" d="M1013.63,1033.72a1,1,0,0,0,0-1.37,1.46,1.46,0,0,0-1.45-.27c-.22.07-.45.24-.42.47a.57.57,0,0,0,.3.33l1.62,1Z"/><path class="cls-4" d="M1031.86,1016.23a5.23,5.23,0,0,0,3.79-1,.84.84,0,0,0,.39-.54c0-.5-.66-.66-1.13-.87-.79-.36-1.18-1.31-2-1.67a3.2,3.2,0,0,0-2.09.07c-1,.27-2.25.89-2,1.88a1.91,1.91,0,0,0,1,1.13,10.15,10.15,0,0,0,3.16,1.14Z"/><path class="cls-4" d="M1061,1044c.7.42,1.45-.43,1.81-1.15a1.61,1.61,0,0,0,.2-1.43c-.32-.59-1.19-.55-1.86-.42l-1.75.33a1,1,0,0,0-.69.35.87.87,0,0,0,0,.67,8,8,0,0,0,1.74,3Z"/><path class="cls-4" d="M1043.21,1063.29c5.75,4.34,10.29-2.72,6.41-7.47C1045.55,1050.85,1038.21,1059.51,1043.21,1063.29Z"/><path class="cls-4" d="M1001.06,1019.64a15.37,15.37,0,0,0,2.79-1.52,1,1,0,0,0-.54-.62,2.86,2.86,0,0,0-3.89,1.4.89.89,0,0,0,0,.66.77.77,0,0,0,.78.4,2.42,2.42,0,0,0,.86-.32Z"/><path class="cls-4" d="M998.73,1036.48c0-.22,0-.44,0-.66a1.39,1.39,0,0,0-1,.19c-.27.21-.27.73.07.81a.63.63,0,0,0,.38-.06l1.17-.39Z"/><path class="cls-4" d="M1022.64,1033.22a4,4,0,0,0,.33-1.56,1.35,1.35,0,0,0-.88-1.24,1.22,1.22,0,0,0-.8.06,1.53,1.53,0,0,0-.78,2,1.58,1.58,0,0,0,2.09.65Z"/><path class="cls-4" d="M1048.07,1021.6a1.09,1.09,0,0,1-1.28,1.35,2.81,2.81,0,0,1-.55-1.14,1.92,1.92,0,0,1,1.39-.18Z"/><path class="cls-4" d="M1049.51,1035.14c.4-.27-.22-.93-.63-.68a1,1,0,0,0-.18,1.29,1,1,0,0,0,.91-.84Z"/><path class="cls-4" d="M1181.26,1033.25a13.54,13.54,0,0,0-.33,4.11.75.75,0,0,0,.14.47.64.64,0,0,0,.5.17c1.45,0,2.7-1.87,4-1.24.24.12.46.31.72.28.43,0,.52-.64.41-1a3.85,3.85,0,0,0-5.46-2.17l.21-.6Z"/><path class="cls-4" d="M1143.67,1023.18a13.47,13.47,0,0,0-.33,4.1.8.8,0,0,0,.14.48.68.68,0,0,0,.5.17c1.46,0,2.7-1.88,4-1.25.24.12.46.32.72.28.43,0,.52-.64.41-1a3.84,3.84,0,0,0-5.45-2.17c.07-.2.13-.4.2-.59Z"/><path class="cls-4" d="M1222.31,1063.17a3.23,3.23,0,0,0-.6,2.84,3.6,3.6,0,0,0,1.3-.41,1.15,1.15,0,0,0,.57-1.14c-.13-.6-.83-.87-1.43-1l.45-.25Z"/><path class="cls-4" d="M1199.56,1065.48a1.6,1.6,0,0,1,2.58,0,1.5,1.5,0,1,1-2.65.09Z"/><path class="cls-4" d="M1193.31,1049.82c-.32-.75-.55-1.8.15-2.22s1.5.22,2,.79c.23.24.48.55.38.88-.23.78-1.77.1-2.17.81-.24,0-.3-.42-.07-.47Z"/><path class="cls-4" d="M1117.65,1045c-.32-.75-.55-1.79.15-2.21s1.49.21,2,.78c.23.25.48.56.39.88-.24.78-1.78.1-2.18.82-.24,0-.3-.42-.06-.47Z"/><path class="cls-4" d="M1205.56,1044.32l-.33-3.35c.5-.29,1,.38,1.19.92a2.93,2.93,0,0,1,.23,1.69,1,1,0,0,1-1.32.75Z"/><path class="cls-4" d="M1204.94,1027.09a1.19,1.19,0,0,0-.42,2,1.81,1.81,0,0,0,2.29-.07,1.31,1.31,0,0,0,.53-.9,1.27,1.27,0,0,0-1-1.16,3.83,3.83,0,0,0-1.65,0Z"/><path class="cls-4" d="M1194.61,1054.45a2,2,0,0,0-1.43,1.64,2.32,2.32,0,0,0,1.64.13,1.54,1.54,0,0,0,1.21-1.59c-.13-.72-1.3-1.05-1.64-.41Z"/><path class="cls-4" d="M1135.11,1048.89a2,2,0,0,0-1.43,1.64,2.38,2.38,0,0,0,1.64.13,1.54,1.54,0,0,0,1.21-1.59c-.13-.72-1.3-1-1.64-.41Z"/><path class="cls-4" d="M1200.23,1048.91a1.16,1.16,0,0,1,1.35-.51l.17,1.69a1.33,1.33,0,0,1-1.86-.88Z"/><path class="cls-4" d="M1207.1,1032.83c-.07-.22-.15-.43-.22-.65a3.9,3.9,0,0,1,1.56.34,1.25,1.25,0,0,1,.69,1.31.79.79,0,0,1-1.25.4,2.66,2.66,0,0,1-.7-1.41Z"/><path class="cls-4" d="M1218.38,1068a1,1,0,0,0-.11,1.36,1.48,1.48,0,0,0,1.42.43c.22,0,.48-.2.46-.42s-.14-.27-.26-.37l-1.48-1.19Z"/><path class="cls-4" d="M1172.5,1052.63c-.64-.5-1.49.27-1.92.94a1.63,1.63,0,0,0-.37,1.4c.26.63,1.12.68,1.81.62l1.77-.14a.94.94,0,0,0,.72-.27.82.82,0,0,0,.06-.67,8,8,0,0,0-1.39-3.17Z"/><path class="cls-4" d="M1192.3,1035.42c-5.22-4.94-10.53,1.58-7.2,6.72C1188.58,1047.53,1196.85,1039.72,1192.3,1035.42Z"/><path class="cls-4" d="M1103.86,1055.88c-5.22-4.94-10.53,1.58-7.21,6.72C1100.14,1068,1108.41,1060.19,1103.86,1055.88Z"/><path class="cls-4" d="M307.6,1068.62a3.25,3.25,0,0,0,.27-2.89,3.39,3.39,0,0,0-1.24.55,1.15,1.15,0,0,0-.45,1.19c.2.59.93.77,1.55.87l-.42.3Z"/><path class="cls-4" d="M302.48,1063.4a1.28,1.28,0,0,0-.11-.82,1.38,1.38,0,0,0-.67-.45,12.28,12.28,0,0,1-2-1.05l1.07,3.56a.71.71,0,0,1,.05.29c0,.34-.49.45-.71.71s-.08,1,.24,1.36C302.62,1069.79,302.32,1064.93,302.48,1063.4Z"/><path class="cls-4" d="M274.49,1037.59a1.28,1.28,0,0,0-.11-.82,1.38,1.38,0,0,0-.67-.45,13.11,13.11,0,0,1-2-1c.36,1.18.72,2.37,1.07,3.55a.77.77,0,0,1,.05.29c0,.35-.49.45-.71.72s-.08,1,.24,1.36C274.63,1044,274.33,1039.12,274.49,1037.59Z"/><path class="cls-4" d="M320.56,1047.27c-.09-.35-.18-.7-.26-1.06a1.74,1.74,0,0,0-1.33,1.55c0,.73,1,1.33,1.54.89.36-.27.82-.84,1.09-.48Z"/><path class="cls-4" d="M330,1063.85a1.6,1.6,0,0,1-2.57.26,1.49,1.49,0,1,1,2.62-.38Z"/><path class="cls-4" d="M337.92,1078.73c.4.71.75,1.73.09,2.22s-1.5,0-2.1-.56c-.26-.22-.54-.5-.48-.83.14-.8,1.75-.29,2.06-1,.24,0,.35.39.12.46Z"/><path class="cls-4" d="M336.66,1051a.88.88,0,0,0,1-1.17,1.64,1.64,0,0,0-1,.07.73.73,0,0,0-.43.8.51.51,0,0,0,.78.28Z"/><path class="cls-4" d="M336.1,1074.27a1.94,1.94,0,0,0,1.24-1.79,2.37,2.37,0,0,0-1.64,0,1.54,1.54,0,0,0-1,1.72c.22.7,1.41.9,1.68.22Z"/><path class="cls-4" d="M331.14,1080.39a1.16,1.16,0,0,1-1.28.66l-.36-1.67a1.34,1.34,0,0,1,1.95.67Z"/><path class="cls-4" d="M267,1064.79v-.63a.8.8,0,0,0-.94.22.62.62,0,0,0,.19.89.55.55,0,0,0,.78-.4Z"/><path class="cls-4" d="M337.71,1026.8c-.21.35.22.79.63.83a10.24,10.24,0,0,0,1.24-.15,1.54,1.54,0,0,1,1.14.51.71.71,0,0,1,.19.68.87.87,0,0,1-.33.36,4.5,4.5,0,0,1-2.21,1,2.12,2.12,0,0,1-2.09-1,1.6,1.6,0,0,1,.1-1.61,1.67,1.67,0,0,1,1.48-.69Z"/><path class="cls-4" d="M311,1063.36a1,1,0,0,0,0-1.37,1.45,1.45,0,0,0-1.46-.26c-.22.07-.45.24-.41.46s.17.26.3.34l1.61,1Z"/><path class="cls-4" d="M329.18,1045.87a5.16,5.16,0,0,0,3.79-1,.85.85,0,0,0,.39-.53c.05-.51-.65-.66-1.12-.88-.8-.36-1.18-1.31-2-1.66a3.23,3.23,0,0,0-2.1.07c-1,.26-2.24.88-2,1.88a1.85,1.85,0,0,0,1.05,1.13,10.33,10.33,0,0,0,3.15,1.13Z"/><path class="cls-4" d="M358.29,1073.68c.69.42,1.44-.43,1.8-1.15a1.61,1.61,0,0,0,.2-1.43c-.32-.6-1.19-.55-1.86-.42l-1.75.33a.93.93,0,0,0-.68.35.82.82,0,0,0,0,.67,8.18,8.18,0,0,0,1.74,3Z"/><path class="cls-4" d="M298.39,1049.28a14.66,14.66,0,0,0,2.78-1.51,1,1,0,0,0-.53-.63,2.88,2.88,0,0,0-3.9,1.4.92.92,0,0,0,0,.67.75.75,0,0,0,.77.39,2.19,2.19,0,0,0,.87-.32Z"/><path class="cls-4" d="M296.05,1066.13c0-.22,0-.44,0-.66a1.46,1.46,0,0,0-1,.18c-.27.21-.26.74.07.81a.71.71,0,0,0,.38,0l1.18-.39Z"/><path class="cls-4" d="M320,1062.87a3.92,3.92,0,0,0,.33-1.57,1.35,1.35,0,0,0-.88-1.24,1.3,1.3,0,0,0-.8.06,1.54,1.54,0,0,0-.78,2,1.59,1.59,0,0,0,2.1.66Z"/><path class="cls-4" d="M345.4,1051.24a1.1,1.1,0,0,1-1.29,1.36,3.06,3.06,0,0,1-.55-1.15,2,2,0,0,1,1.39-.18Z"/><path class="cls-4" d="M346.83,1064.79c.4-.27-.22-.93-.63-.68a1,1,0,0,0-.17,1.28,1,1,0,0,0,.9-.83Z"/><path class="cls-4" d="M1209.37,1067.54a3.79,3.79,0,0,0-.5,1.52,1.35,1.35,0,0,0,.73,1.33,1.22,1.22,0,0,0,.8,0,1.54,1.54,0,0,0,1-1.92,1.58,1.58,0,0,0-2-.88Z"/><path class="cls-4" d="M1182.78,1076.33a1.1,1.1,0,0,1,1.44-1.21,3,3,0,0,1,.41,1.2,2,2,0,0,1-1.4,0Z"/><path class="cls-4" d="M1182.88,1062.71c-.43.22.11,1,.55.74s.49-.81.32-1.26a1.05,1.05,0,0,0-1,.73Z"/><path class="cls-4" d="M653.31,1042.1a13.51,13.51,0,0,0-.33,4.11.79.79,0,0,0,.14.47.68.68,0,0,0,.5.17c1.46,0,2.7-1.88,4-1.24.24.11.46.31.72.28.43-.05.52-.64.41-1.06a3.85,3.85,0,0,0-5.45-2.17l.2-.59Z"/><path class="cls-4" d="M694.36,1072a3.28,3.28,0,0,0-.6,2.85,3.6,3.6,0,0,0,1.3-.41,1.15,1.15,0,0,0,.57-1.14c-.12-.6-.83-.87-1.43-1l.45-.26Z"/><path class="cls-4" d="M671.61,1074.32a1.6,1.6,0,0,1,2.58,0,1.49,1.49,0,1,1-2.65.09Z"/><path class="cls-4" d="M665.36,1058.66c-.32-.74-.55-1.79.16-2.21s1.49.21,2,.78c.23.25.48.56.38.88-.23.79-1.77.1-2.17.82-.24,0-.3-.42-.07-.47Z"/><path class="cls-4" d="M677.61,1053.17l-.33-3.36c.51-.29,1,.39,1.19.93a2.9,2.9,0,0,1,.23,1.68,1,1,0,0,1-1.32.75Z"/><path class="cls-4" d="M666.66,1063.3a1.93,1.93,0,0,0-1.42,1.64,2.35,2.35,0,0,0,1.63.13,1.55,1.55,0,0,0,1.21-1.6c-.13-.71-1.3-1-1.64-.4Z"/><path class="cls-4" d="M672.28,1057.75a1.17,1.17,0,0,1,1.35-.51c.06.57.12,1.14.17,1.7a1.33,1.33,0,0,1-1.86-.88Z"/><path class="cls-4" d="M679.15,1041.68c-.07-.22-.14-.44-.22-.65a3.74,3.74,0,0,1,1.56.34,1.24,1.24,0,0,1,.69,1.31.78.78,0,0,1-1.24.39,2.68,2.68,0,0,1-.71-1.41Z"/><path class="cls-4" d="M690.43,1076.87a1,1,0,0,0-.11,1.37,1.45,1.45,0,0,0,1.42.42c.22,0,.48-.19.47-.41a.55.55,0,0,0-.27-.37l-1.48-1.19Z"/><path class="cls-4" d="M644.55,1061.47c-.64-.49-1.49.28-1.92,1a1.62,1.62,0,0,0-.37,1.4c.26.62,1.13.67,1.81.62l1.78-.14a.93.93,0,0,0,.71-.27.82.82,0,0,0,.06-.67,7.91,7.91,0,0,0-1.39-3.17Z"/><path class="cls-4" d="M756.65,1062.07c-5.23-4.94-10.53,1.58-7.21,6.72C752.92,1074.18,761.19,1066.38,756.65,1062.07Z"/><path class="cls-4" d="M681.42,1076.39a3.79,3.79,0,0,0-.5,1.52,1.36,1.36,0,0,0,.74,1.33,1.25,1.25,0,0,0,.79,0,1.54,1.54,0,0,0,1-1.92,1.58,1.58,0,0,0-2-.88Z"/><path class="cls-4" d="M654.84,1085.17a1.09,1.09,0,0,1,1.43-1.2,3,3,0,0,1,.41,1.19,1.93,1.93,0,0,1-1.4,0Z"/><path class="cls-4" d="M654.93,1071.55c-.42.23.11,1,.55.75s.49-.81.32-1.26a1,1,0,0,0-1,.73Z"/><path class="cls-4" d="M1741.6,731.66l-1,.44a1.93,1.93,0,0,0,.31.77,1,1,0,0,0,1-1.08Z"/><path class="cls-4" d="M1844.78,309.16l-1,.43a1.83,1.83,0,0,0,.31.78,1,1,0,0,0,1-1.08Z"/><path class="cls-4" d="M1826.39,353.57a3.93,3.93,0,0,1,3.71-.48.76.76,0,0,1,.38.27.8.8,0,0,1-.08.7c-.58,1.3-1.52,2.82-3,2.72a1.83,1.83,0,0,1-1.33-2.74l1.2-.06Z"/><path class="cls-4" d="M1874.76,331.19a3.93,3.93,0,0,1,3.71-.47.74.74,0,0,1,.38.27.8.8,0,0,1-.08.7c-.58,1.3-1.52,2.82-3,2.72a1.83,1.83,0,0,1-1.33-2.74l1.2-.06Z"/><path class="cls-4" d="M1882.73,414.45a3.93,3.93,0,0,1,3.71-.48.68.68,0,0,1,.38.28.77.77,0,0,1-.07.7c-.59,1.3-1.52,2.82-3,2.72a1.83,1.83,0,0,1-1.32-2.74l1.2-.07Z"/></g><ellipse class="cls-15" cx="1771.28" cy="515.22" rx="105.28" ry="103.52"/><ellipse class="cls-16" cx="1724.9" cy="857.58" rx="86.88" ry="85.43"/><ellipse class="cls-17" cx="966.28" cy="978.27" rx="74.78" ry="73.53"/><path class="cls-18" d="M807.59,1026.81c0,36.6-30.17,51.09-67.38,51.09s-67.39-14.49-67.39-51.09,30.17-66.26,67.39-66.26S807.59,990.22,807.59,1026.81Z"/><path class="cls-19" d="M1786.6,512.9a12.72,12.72,0,0,0-5.62-.31,2.13,2.13,0,0,0-.86.28,1.73,1.73,0,0,0-.64,1.55,3.57,3.57,0,0,0,2.55,3.11,4.59,4.59,0,0,0,4.08-.85,3,3,0,0,0,1.21-1.94,1.68,1.68,0,0,0-1.17-1.81.35.35,0,0,0,.09.6Z"/><path class="cls-19" d="M1799.44,479.9a12.56,12.56,0,0,0-5.62-.32,2.14,2.14,0,0,0-.86.29,1.71,1.71,0,0,0-.64,1.54,3.6,3.6,0,0,0,2.56,3.12,4.57,4.57,0,0,0,4.07-.85,3,3,0,0,0,1.21-1.95,1.67,1.67,0,0,0-1.17-1.81.37.37,0,0,0,.1.61Z"/><path class="cls-19" d="M1790.94,520a3.25,3.25,0,0,0-3,.9,3.34,3.34,0,0,0,2.1,2.27,2.05,2.05,0,0,0,2.56-1.33c.22-1-1.09-2.12-2-1.56Z"/><path class="cls-19" d="M1781.1,522.94a3.6,3.6,0,0,0-1,.42.22.22,0,0,0-.1.09.17.17,0,0,0,0,.14c.18.33.77.39.78.76,0,.07,0,.14,0,.2s.22,0,.3,0A1,1,0,0,0,1781,523l.17,0Z"/><path class="cls-19" d="M1778.89,496.19a7,7,0,0,0-1.91.8.37.37,0,0,0-.18.17.35.35,0,0,0,0,.26c.34.62,1.46.73,1.47,1.43a.69.69,0,0,0,0,.38c.12.17.4.07.56-.07a1.83,1.83,0,0,0-.28-2.84l.31-.05Z"/><path class="cls-19" d="M1774.77,477.69a7.23,7.23,0,0,0-1.9.8.37.37,0,0,0-.18.17.35.35,0,0,0,0,.26c.34.62,1.46.73,1.47,1.43,0,.13,0,.27,0,.38s.4.07.56-.07a1.83,1.83,0,0,0-.28-2.84l.31-.05Z"/><path class="cls-19" d="M1775,520.72a1.67,1.67,0,0,0-1.4.4,1.75,1.75,0,0,0,.48.46.59.59,0,0,0,.64,0c.24-.2.19-.56.13-.86l.21.14Z"/><path class="cls-19" d="M1773.42,524a.6.6,0,0,0-.36.19.65.65,0,0,0-.09.39,5.81,5.81,0,0,1-.14,1.09l1.48-1.12.12-.08c.17,0,.3.15.47.2s.47-.14.59-.36C1776.39,522.77,1774.17,523.77,1773.42,524Z"/><path class="cls-19" d="M1753.72,501.22a.69.69,0,0,0-.37.19.75.75,0,0,0-.09.39,5.7,5.7,0,0,1-.13,1.09l1.47-1.12a.33.33,0,0,1,.13-.07c.17-.05.3.14.46.19s.47-.14.6-.35C1756.69,500,1754.46,501,1753.72,501.22Z"/><path class="cls-19" d="M1762.63,518.67l-.45.31a.87.87,0,0,0,1,.32c.34-.13.46-.67.15-.85s-.55-.22-.43-.41Z"/><path class="cls-19" d="M1768.72,511.45a.77.77,0,0,1,.58,1.12.8.8,0,0,1-1.28,0,.77.77,0,0,1,.63-1.09Z"/><path class="cls-19" d="M1774.26,505.18c.26-.31.68-.65,1-.44s.24.69.11,1.05c-.05.16-.14.34-.3.37-.4.07-.45-.75-.86-.75-.06-.1.12-.23.19-.14Z"/><path class="cls-19" d="M1847.84,501.84a1.91,1.91,0,0,0-1.47.9,1,1,0,0,0,.65,1.36.73.73,0,0,0,.49-.15,1.52,1.52,0,0,0,.22-.22,1.55,1.55,0,0,0,.41-1.09.76.76,0,0,0-.8-.71Z"/><path class="cls-19" d="M1803.54,502.24a.8.8,0,0,0,.2.47,2.09,2.09,0,0,0,.48.22c.38.19.52.63.84.9a2.19,2.19,0,0,0,2.06.07c.16,0,.35-.12.39-.28a.61.61,0,0,0-.07-.35c-.3-.8.49-1.29.41-2a2.31,2.31,0,0,0-1.29-1.58A2.36,2.36,0,0,0,1803.54,502.24Z"/><path class="cls-19" d="M1784.3,453.77a.88.88,0,0,0,.21.47,1.91,1.91,0,0,0,.48.22c.37.19.52.63.83.9a2.21,2.21,0,0,0,2.07.07c.16-.05.34-.12.39-.28a.61.61,0,0,0-.07-.35c-.3-.8.49-1.29.41-2a2.32,2.32,0,0,0-1.3-1.59A2.37,2.37,0,0,0,1784.3,453.77Z"/><path class="cls-19" d="M1781.08,520.54a.78.78,0,0,1,.4-.21,1.27,1.27,0,0,1-.64.92c-.18.13-.42.26-.6.14s-.17-.24-.26-.36-.6-.36-.56-.66a.36.36,0,0,1,.37-.28,1,1,0,0,1,.49.15l1,.5Z"/><path class="cls-19" d="M1785.19,524.78c-.31,0-.37.51-.12.7a1.16,1.16,0,0,0,.92.07,1.09,1.09,0,0,0-.77-.95Z"/><path class="cls-19" d="M1780.55,525.61a1.06,1.06,0,0,0-.43.16.36.36,0,0,0-.17.39c.07.25.4.28.58.47s.18.51.41.62a.43.43,0,0,0,.56-.34,1.08,1.08,0,0,0-.17-.71,1.32,1.32,0,0,0-.43-.51.49.49,0,0,0-.61.07Z"/><path class="cls-19" d="M1778.58,526.23a.28.28,0,0,1,.21.33.5.5,0,0,1-.27.33.46.46,0,0,1-.25.08.37.37,0,0,1-.36-.39.41.41,0,0,1,.43-.34.43.43,0,0,1,.37.41Z"/><path class="cls-19" d="M1782.16,547a.28.28,0,0,1,.21.34.55.55,0,0,1-.27.33.73.73,0,0,1-.25.08.38.38,0,0,1-.36-.4.41.41,0,0,1,.43-.33.42.42,0,0,1,.37.4Z"/><path class="cls-19" d="M1777.89,524.38a.46.46,0,0,0-.73-.24.79.79,0,0,0,.21.44.41.41,0,0,0,.46,0,.24.24,0,0,0,0-.4Z"/><path class="cls-19" d="M1761.49,510.71a.45.45,0,0,0-.73-.23.76.76,0,0,0,.21.43.39.39,0,0,0,.46.06.25.25,0,0,0,0-.41Z"/><path class="cls-19" d="M1776.12,517.6a1.32,1.32,0,0,0-1.1-.06l.44.81a.91.91,0,0,0,.27.34.51.51,0,0,0,.69-.29.68.68,0,0,0-.28-.74Z"/><path class="cls-19" d="M1779.52,509.19l1.42-.9c.24.15,0,.52-.14.72a1.45,1.45,0,0,1-.7.48c-.28.07-.64-.11-.64-.39Z"/><path class="cls-19" d="M1787.05,505a.6.6,0,0,0-1,.26.87.87,0,0,0,.56,1,.63.63,0,0,0,.52,0,.61.61,0,0,0,.29-.69,1.9,1.9,0,0,0-.4-.7Z"/><path class="cls-19" d="M1772.5,506.8a1,1,0,0,0-1.06-.24,1.07,1.07,0,0,0,.32.73.78.78,0,0,0,1,.16c.29-.22.17-.8-.19-.8Z"/><path class="cls-19" d="M1776.25,508a.57.57,0,0,1,.54.46l-.72.47a.65.65,0,0,1,0-1Z"/><path class="cls-19" d="M1811.24,491.33l1.07.81a.77.77,0,0,0,.33.18.9.9,0,0,0,.39-.07c.45-.17,1-.45,1-.92s-.65-.73-1.11-1c-.87-.43-2.24-2.68-3.4-1.88S1810.59,490.84,1811.24,491.33Z"/><path class="cls-19" d="M1785,507.23l.24-.24a1.82,1.82,0,0,1,.2.75.61.61,0,0,1-.42.59c-.26.06-.56-.2-.46-.44a1.31,1.31,0,0,1,.46-.63Z"/><path class="cls-19" d="M1782.73,527.8a.55.55,0,0,1,.23,1c-.13.08-.33.1-.4,0a.27.27,0,0,1,0-.18l.08-.81.14,0Z"/><path class="cls-19" d="M1783.87,531.91c-.11.25.1.52.31.7s.44.4.4.66a.27.27,0,0,1-.12.18c-.18.08-.32-.14-.48-.26a2.13,2.13,0,0,0-.41-.18.92.92,0,0,1-.52-.88.53.53,0,0,1,.51-.23.53.53,0,0,1,.41.37Z"/><path class="cls-19" d="M1781.21,532.57l-.29.12a.36.36,0,0,0,.27.38.31.31,0,0,0,.38-.24.27.27,0,0,0-.33-.28Z"/><path class="cls-19" d="M1780.42,539.8l-.29.12a.39.39,0,0,0,.27.39.33.33,0,0,0,.39-.25.27.27,0,0,0-.34-.28Z"/><path class="cls-19" d="M1776.92,522.33c.2,0,.33-.24.27-.43a4,4,0,0,0-.29-.54.73.73,0,0,1,0-.61.38.38,0,0,1,.28-.21.5.5,0,0,1,.23.09,2.19,2.19,0,0,1,.86.82,1,1,0,0,1-.09,1.13.8.8,0,0,1-1.36-.31Z"/><path class="cls-19" d="M1750,514.56c.2,0,.33-.24.27-.43a4,4,0,0,0-.29-.54.7.7,0,0,1,0-.6.35.35,0,0,1,.28-.21.49.49,0,0,1,.23.08,2.15,2.15,0,0,1,.86.83,1,1,0,0,1-.09,1.12.82.82,0,0,1-.77.24.82.82,0,0,1-.59-.54Z"/><path class="cls-19" d="M1771.89,520.14a.51.51,0,0,0-.64.27.72.72,0,0,0,.14.71c.07.08.19.16.29.1a.29.29,0,0,0,.11-.2c.06-.3.12-.6.19-.91Z"/><path class="cls-19" d="M1760.43,515a2.48,2.48,0,0,0-1.13-1.54.41.41,0,0,0-.32-.08c-.24.07-.19.41-.21.66,0,.43-.4.77-.42,1.2a1.51,1.51,0,0,0,.41.94c.3.4.81.85,1.24.59a.9.9,0,0,0,.34-.68,4.76,4.76,0,0,0,0-1.64Z"/><path class="cls-19" d="M1768.25,496.85c.07-.39-.46-.58-.86-.61a.87.87,0,0,0-.71.16c-.22.26,0,.64.14.92s.31.49.47.74.15.23.28.24a.41.41,0,0,0,.31-.12,3.93,3.93,0,0,0,1.1-1.33Z"/><path class="cls-19" d="M1780.45,501.45c1-3.38-3.11-4.18-4.64-1.57S1779.57,504.39,1780.45,501.45Z"/><path class="cls-19" d="M1786.07,520.48a.81.81,0,0,1,0,1.3,2,2,0,0,1-.74-.92.71.71,0,0,1,.51-.92l.58.4Z"/><path class="cls-19" d="M1802.61,515.75l-.47.33a4.78,4.78,0,0,1,.93,1.77,5.38,5.38,0,0,0,.31,1,1,1,0,0,0,.79.57c.64,0,1-.76,1-1.39a2.73,2.73,0,0,0-1-2.08,2,2,0,0,0-2.25-.08l.43.67Z"/><path class="cls-19" d="M1796.52,522.94c-.21-.16-.33,0-.25.28a2.85,2.85,0,0,0,.43.8l1.17,1.73c.22.33.51.7.74.77s.27-.18.2-.46a3.65,3.65,0,0,0-.41-.88c-.56-1-1.34-2.11-2.05-2.34,0,.19.08.37.11.55Z"/><path class="cls-19" d="M1784.52,535.47a.21.21,0,0,1,.19.24.67.67,0,0,1-.43.44.42.42,0,0,1-.47-.23.54.54,0,0,1,.07-.53.35.35,0,0,1,.23-.14.18.18,0,0,1,.2.14Z"/><path class="cls-19" d="M1755.09,477.75a7.26,7.26,0,0,0-1.21-1,.48.48,0,0,0-.19.35,1.39,1.39,0,0,0,1.35,1.52.44.44,0,0,0,.32-.1.38.38,0,0,0,.05-.42,1.12,1.12,0,0,0-.31-.34Z"/><path class="cls-19" d="M1775.85,526.4l-.3.14a.64.64,0,0,0,.26.41c.15.09.39,0,.37-.18a.37.37,0,0,0-.09-.16c-.14-.15-.27-.31-.4-.46Z"/><path class="cls-19" d="M1770,516.15a2.12,2.12,0,0,0-.79.13.66.66,0,0,0-.42.62.58.58,0,0,0,.17.35.79.79,0,0,0,1.09,0,.77.77,0,0,0-.07-1.07Z"/><path class="cls-19" d="M1760,506.71a.55.55,0,0,1,.87.34,1.45,1.45,0,0,1-.44.45,1,1,0,0,1-.33-.6Z"/><path class="cls-19" d="M1806,463.36c-.2-.13-.4.27-.21.41a.51.51,0,0,0,.63-.15.5.5,0,0,0-.55-.26Z"/><path class="cls-19" d="M1793.38,518.92l-.45.32a1,1,0,0,0,.23.34.51.51,0,0,0,.36-.62Z"/><path class="cls-19" d="M1790.85,472.94l-.45.31a.89.89,0,0,0,.23.34.51.51,0,0,0,.36-.62Z"/><path class="cls-19" d="M1786.46,496.24a1.92,1.92,0,0,1,1.75-.59.33.33,0,0,1,.21.09.39.39,0,0,1,0,.35c-.15.68-.45,1.51-1.15,1.61a.92.92,0,0,1-.93-1.2l.58-.15Z"/><path class="cls-19" d="M1819.92,520.18a2,2,0,0,1,1.75-.6.32.32,0,0,1,.21.1.4.4,0,0,1,0,.34c-.15.69-.45,1.52-1.16,1.61a.91.91,0,0,1-.92-1.2l.57-.15Z"/><path class="cls-19" d="M963.92,977.1a12.61,12.61,0,0,0-5.63-.32,2.19,2.19,0,0,0-.86.29,1.7,1.7,0,0,0-.63,1.54,3.58,3.58,0,0,0,2.55,3.12,4.59,4.59,0,0,0,4.08-.85,3,3,0,0,0,1.21-2,1.7,1.7,0,0,0-1.17-1.81.36.36,0,0,0,.09.61Z"/><path class="cls-19" d="M976.76,944.1a12.57,12.57,0,0,0-5.62-.32,2.13,2.13,0,0,0-.86.28,1.73,1.73,0,0,0-.64,1.55,3.57,3.57,0,0,0,2.55,3.11,4.53,4.53,0,0,0,4.08-.85,3,3,0,0,0,1.21-1.94,1.68,1.68,0,0,0-1.17-1.81.36.36,0,0,0,.1.6Z"/><path class="cls-19" d="M968.25,984.22a3.26,3.26,0,0,0-3,.9,3.36,3.36,0,0,0,2.11,2.26,2.06,2.06,0,0,0,2.56-1.32c.22-1-1.09-2.13-2-1.56Z"/><path class="cls-19" d="M958.41,987.14a3.86,3.86,0,0,0-1,.42.16.16,0,0,0-.09.09.15.15,0,0,0,0,.13c.18.33.77.39.78.77,0,.06,0,.14,0,.19s.21,0,.3,0a1,1,0,0,0-.15-1.51l.16,0Z"/><path class="cls-19" d="M956.2,960.39a6.91,6.91,0,0,0-1.9.8.37.37,0,0,0-.18.17.32.32,0,0,0,0,.25c.34.63,1.45.74,1.47,1.44,0,.13,0,.27,0,.37s.4.08.56-.06a1.84,1.84,0,0,0-.28-2.85l.31,0Z"/><path class="cls-19" d="M952.09,941.89a6.91,6.91,0,0,0-1.9.8.37.37,0,0,0-.18.17.32.32,0,0,0,0,.25c.33.63,1.45.74,1.47,1.44,0,.13,0,.27,0,.37s.4.08.56-.06a1.84,1.84,0,0,0-.28-2.85l.31,0Z"/><path class="cls-19" d="M952.27,984.92a1.68,1.68,0,0,0-1.4.39,1.54,1.54,0,0,0,.48.47.56.56,0,0,0,.63,0c.24-.19.2-.55.14-.85l.21.14Z"/><path class="cls-19" d="M950.74,988.17a.68.68,0,0,0-.37.2.61.61,0,0,0-.08.38,6.75,6.75,0,0,1-.14,1.1l1.47-1.13a.33.33,0,0,1,.13-.07c.17,0,.3.14.46.2s.47-.14.6-.36C953.71,987,951.48,988,950.74,988.17Z"/><path class="cls-19" d="M931,965.42a.63.63,0,0,0-.37.19.73.73,0,0,0-.09.39,6.75,6.75,0,0,1-.13,1.09l1.47-1.12a.57.57,0,0,1,.13-.08c.17,0,.3.15.46.2s.47-.14.6-.36C934,964.21,931.78,965.21,931,965.42Z"/><path class="cls-19" d="M940,982.87l-.45.31a.87.87,0,0,0,1,.32.51.51,0,0,0,.14-.86c-.19-.11-.54-.22-.42-.4Z"/><path class="cls-19" d="M946,975.65a.76.76,0,0,1,.58,1.11.79.79,0,0,1-1.27,0,.78.78,0,0,1,.63-1.1Z"/><path class="cls-19" d="M951.58,969.37c.26-.31.68-.65,1-.44s.25.69.12,1.06c-.06.15-.14.33-.3.36-.41.08-.46-.74-.87-.75-.06-.1.12-.22.2-.13Z"/><path class="cls-19" d="M1025.15,966a1.92,1.92,0,0,0-1.46.9,1,1,0,0,0,.65,1.36.72.72,0,0,0,.49-.14,1.1,1.1,0,0,0,.21-.22,1.51,1.51,0,0,0,.42-1.09.77.77,0,0,0-.8-.72Z"/><path class="cls-19" d="M980.85,966.43a.91.91,0,0,0,.21.48,2.34,2.34,0,0,0,.48.22c.37.18.52.63.83.9a2.21,2.21,0,0,0,2.07.07c.16-.05.34-.13.39-.29a.6.6,0,0,0-.07-.34c-.3-.81.49-1.3.41-2a2.3,2.3,0,0,0-1.3-1.58A2.36,2.36,0,0,0,980.85,966.43Z"/><path class="cls-19" d="M961.62,918a.91.91,0,0,0,.21.48,2.34,2.34,0,0,0,.48.22c.37.18.52.63.83.9a2.21,2.21,0,0,0,2.07.07c.16,0,.34-.13.38-.29a.6.6,0,0,0-.07-.34c-.29-.81.49-1.3.41-2a2.29,2.29,0,0,0-1.29-1.58A2.36,2.36,0,0,0,961.62,918Z"/><path class="cls-19" d="M958.4,984.74a.71.71,0,0,1,.4-.21,1.27,1.27,0,0,1-.64.92c-.18.13-.42.26-.6.14s-.17-.24-.26-.36-.61-.37-.57-.66a.39.39,0,0,1,.38-.29,1.09,1.09,0,0,1,.49.16l1,.49Z"/><path class="cls-19" d="M962.51,989c-.32,0-.38.51-.12.7a1.21,1.21,0,0,0,.92.07,1.12,1.12,0,0,0-.77-1Z"/><path class="cls-19" d="M957.87,989.81a1.27,1.27,0,0,0-.44.15.4.4,0,0,0-.17.4c.07.24.41.28.59.46s.18.51.41.63a.44.44,0,0,0,.56-.34,1.12,1.12,0,0,0-.17-.71,1.27,1.27,0,0,0-.43-.51.51.51,0,0,0-.62.07Z"/><path class="cls-19" d="M955.9,990.43a.28.28,0,0,1,.21.33.52.52,0,0,1-.27.33.57.57,0,0,1-.25.08.37.37,0,0,1-.36-.39.4.4,0,0,1,.43-.34.44.44,0,0,1,.37.41Z"/><path class="cls-19" d="M959.48,1011.19a.28.28,0,0,1,.21.33.51.51,0,0,1-.28.33.41.41,0,0,1-.24.08.37.37,0,0,1-.36-.39.4.4,0,0,1,.42-.34.44.44,0,0,1,.38.41Z"/><path class="cls-19" d="M955.2,988.57a.44.44,0,0,0-.72-.23.76.76,0,0,0,.21.43.38.38,0,0,0,.45.06.25.25,0,0,0,0-.41Z"/><path class="cls-19" d="M938.8,974.91a.44.44,0,0,0-.72-.23.76.76,0,0,0,.21.43.36.36,0,0,0,.45,0,.24.24,0,0,0,0-.4Z"/><path class="cls-19" d="M953.44,981.8a1.28,1.28,0,0,0-1.11-.06l.45.81a.73.73,0,0,0,.27.33.51.51,0,0,0,.69-.28.7.7,0,0,0-.28-.75Z"/><path class="cls-19" d="M956.83,973.39l1.42-.91c.25.15.06.52-.14.73a1.5,1.5,0,0,1-.69.48c-.29.06-.64-.11-.64-.4Z"/><path class="cls-19" d="M964.37,969.18a.61.61,0,0,0-1,.27.86.86,0,0,0,.56,1,.67.67,0,0,0,.52,0,.63.63,0,0,0,.29-.69,1.82,1.82,0,0,0-.4-.7Z"/><path class="cls-19" d="M949.81,971a1,1,0,0,0-1-.24,1.13,1.13,0,0,0,.31.74.77.77,0,0,0,1,.15c.29-.22.17-.8-.19-.8Z"/><path class="cls-19" d="M953.57,972.14a.59.59,0,0,1,.54.47l-.72.46a.64.64,0,0,1,0-1Z"/><path class="cls-19" d="M988.56,955.53l1.07.81a.72.72,0,0,0,.33.18.78.78,0,0,0,.39-.08c.44-.16,1-.44,1-.91s-.65-.73-1.11-1c-.87-.44-2.24-2.68-3.41-1.89S987.91,955,988.56,955.53Z"/><path class="cls-19" d="M962.31,971.43l.24-.25a1.82,1.82,0,0,1,.2.75.63.63,0,0,1-.42.6c-.26.06-.56-.2-.47-.45a1.37,1.37,0,0,1,.47-.62Z"/><path class="cls-19" d="M960.05,992a.58.58,0,0,1,.45.42.57.57,0,0,1-.23.57c-.12.09-.32.1-.39,0a.36.36,0,0,1,0-.18L960,992l.14,0Z"/><path class="cls-19" d="M961.19,996.11c-.11.25.1.51.31.69s.44.4.39.67a.23.23,0,0,1-.12.18c-.17.08-.32-.14-.47-.26a2.68,2.68,0,0,0-.42-.19.89.89,0,0,1-.51-.88.53.53,0,0,1,.51-.22.52.52,0,0,1,.41.37Z"/><path class="cls-19" d="M958.53,996.77l-.3.11a.38.38,0,0,0,.27.39.33.33,0,0,0,.39-.25.27.27,0,0,0-.33-.28Z"/><path class="cls-19" d="M957.74,1004l-.29.11a.37.37,0,0,0,.27.39.31.31,0,0,0,.38-.24.28.28,0,0,0-.33-.29Z"/><path class="cls-19" d="M954.23,986.52c.21,0,.33-.23.28-.43a5.45,5.45,0,0,0-.29-.53.72.72,0,0,1,0-.61.35.35,0,0,1,.29-.21.41.41,0,0,1,.23.09,2.12,2.12,0,0,1,.86.82,1,1,0,0,1-.09,1.13.85.85,0,0,1-.77.24.82.82,0,0,1-.59-.55Z"/><path class="cls-19" d="M927.28,978.76c.21,0,.33-.24.28-.43a5.61,5.61,0,0,0-.29-.54.76.76,0,0,1,0-.61.36.36,0,0,1,.29-.2.4.4,0,0,1,.23.08,2.21,2.21,0,0,1,.86.83,1,1,0,0,1-.09,1.12.82.82,0,0,1-.77.24.8.8,0,0,1-.59-.55Z"/><path class="cls-19" d="M949.21,984.34a.5.5,0,0,0-.64.27.67.67,0,0,0,.14.7.25.25,0,0,0,.29.11.25.25,0,0,0,.1-.2c.07-.3.13-.61.19-.91Z"/><path class="cls-19" d="M937.75,979.21a2.52,2.52,0,0,0-1.13-1.54.43.43,0,0,0-.32-.09c-.25.07-.19.42-.21.67,0,.43-.4.77-.42,1.2a1.5,1.5,0,0,0,.4.93c.31.41.82.86,1.25.59a.93.93,0,0,0,.34-.67,5,5,0,0,0,0-1.64Z"/><path class="cls-19" d="M945.57,961.05c.07-.39-.46-.58-.86-.61a.82.82,0,0,0-.71.16c-.22.25,0,.64.14.92s.31.49.47.73.15.23.28.25a.41.41,0,0,0,.31-.12,4.15,4.15,0,0,0,1.1-1.33Z"/><path class="cls-19" d="M957.77,965.64c1-3.38-3.12-4.17-4.65-1.56S956.89,968.59,957.77,965.64Z"/><path class="cls-19" d="M963.39,984.67a.82.82,0,0,1,0,1.31,2.05,2.05,0,0,1-.74-.92.71.71,0,0,1,.5-.92l.58.4Z"/><path class="cls-19" d="M979.93,980l-.47.33a4.74,4.74,0,0,1,.93,1.76,4.31,4.31,0,0,0,.31,1,1,1,0,0,0,.79.58c.64,0,1-.76,1-1.39a2.68,2.68,0,0,0-1-2.08,1.94,1.94,0,0,0-2.25-.08l.42.66Z"/><path class="cls-19" d="M973.84,987.14c-.21-.16-.33,0-.26.28a2.9,2.9,0,0,0,.44.8l1.17,1.73c.22.32.5.7.74.76s.27-.18.2-.46a3.83,3.83,0,0,0-.41-.88c-.56-1-1.35-2.1-2.05-2.33,0,.18.07.37.11.55Z"/><path class="cls-19" d="M961.84,999.67c.12,0,.2.12.19.24a.47.47,0,0,1-.19.29.75.75,0,0,1-.24.15.42.42,0,0,1-.47-.23.51.51,0,0,1,.07-.53.33.33,0,0,1,.22-.14.18.18,0,0,1,.21.13Z"/><path class="cls-19" d="M932.41,942a7.17,7.17,0,0,0-1.21-1,.45.45,0,0,0-.2.35,1.4,1.4,0,0,0,1.36,1.52.58.58,0,0,0,.32-.1.38.38,0,0,0,0-.43,1,1,0,0,0-.3-.33Z"/><path class="cls-19" d="M953.17,990.6l-.3.13a.66.66,0,0,0,.26.42c.15.08.39,0,.37-.18a.39.39,0,0,0-.1-.16l-.39-.46Z"/><path class="cls-19" d="M947.36,980.35a1.91,1.91,0,0,0-.79.13.66.66,0,0,0-.43.62.62.62,0,0,0,.18.35.78.78,0,0,0,1.08,0,.76.76,0,0,0-.06-1.07Z"/><path class="cls-19" d="M937.36,970.9a.55.55,0,0,1,.87.34,1.48,1.48,0,0,1-.44.46,1,1,0,0,1-.33-.6Z"/><path class="cls-19" d="M983.34,927.56c-.2-.14-.39.26-.2.41a.5.5,0,0,0,.63-.16.53.53,0,0,0-.55-.26Z"/><path class="cls-19" d="M970.69,983.12l-.45.31a1,1,0,0,0,.23.35.52.52,0,0,0,.37-.62Z"/><path class="cls-19" d="M968.16,937.13l-.45.32a1,1,0,0,0,.23.34.51.51,0,0,0,.37-.62Z"/><path class="cls-19" d="M963.78,960.44a1.92,1.92,0,0,1,1.74-.6.44.44,0,0,1,.22.1.37.37,0,0,1,0,.34c-.15.69-.45,1.52-1.16,1.61a.91.91,0,0,1-.92-1.19l.58-.15Z"/><path class="cls-19" d="M997.24,984.37a1.93,1.93,0,0,1,1.75-.59.31.31,0,0,1,.21.09.39.39,0,0,1,0,.35c-.15.68-.45,1.51-1.15,1.61a.91.91,0,0,1-.92-1.2l.57-.15Z"/><path class="cls-19" d="M739.61,997.77a12.28,12.28,0,0,0,2.92-4.74,2.25,2.25,0,0,0,.14-.88,1.75,1.75,0,0,0-1.09-1.28,3.69,3.69,0,0,0-4,.76,4.42,4.42,0,0,0-1.14,3.94,3,3,0,0,0,1.19,2,1.73,1.73,0,0,0,2.17-.18.37.37,0,0,0-.59-.19Z"/><path class="cls-19" d="M763.27,1024.37a12.14,12.14,0,0,0,2.91-4.74,2.07,2.07,0,0,0,.15-.88,1.75,1.75,0,0,0-1.09-1.28,3.69,3.69,0,0,0-4,.76,4.42,4.42,0,0,0-1.14,3.94,3,3,0,0,0,1.18,2,1.74,1.74,0,0,0,2.18-.18.38.38,0,0,0-.59-.19Z"/><path class="cls-19" d="M731.19,998.21a3.14,3.14,0,0,0,.58-3,3.4,3.4,0,0,0-3,.77,2,2,0,0,0,0,2.84c.84.68,2.42,0,2.34-1Z"/><path class="cls-19" d="M733.16,988.29a3.57,3.57,0,0,0,.1-1.08s0-.09,0-.12a.15.15,0,0,0-.13-.05c-.38,0-.71.49-1.05.32-.06,0-.12-.08-.19-.07s-.14.17-.11.28a1,1,0,0,0,1.43.57l-.06.16Z"/><path class="cls-19" d="M758.24,998.88a6.6,6.6,0,0,0,.17-2,.32.32,0,0,0-.07-.23.32.32,0,0,0-.25-.09c-.71,0-1.33.92-2,.6-.11,0-.22-.15-.35-.14s-.26.32-.2.52a1.9,1.9,0,0,0,2.69,1.09c0,.1-.07.2-.11.29Z"/><path class="cls-19" d="M776.79,1004a6.6,6.6,0,0,0,.17-2,.32.32,0,0,0-.07-.23.3.3,0,0,0-.24-.09c-.72,0-1.34.92-2,.6-.12-.05-.23-.15-.36-.14s-.25.32-.2.52a1.9,1.9,0,0,0,2.69,1.09c0,.1-.07.2-.11.29Z"/><path class="cls-19" d="M738,984a1.63,1.63,0,0,0,.3-1.41,1.77,1.77,0,0,0-.64.2.59.59,0,0,0-.29.56c.06.3.41.43.71.52l-.22.12Z"/><path class="cls-19" d="M735.82,981.14a.64.64,0,0,0,0-.41.72.72,0,0,0-.31-.26,6.25,6.25,0,0,1-.92-.63c.11.6.22,1.2.32,1.81a.32.32,0,0,1,0,.14c0,.17-.27.19-.39.31s-.1.47,0,.68C735.52,984.28,735.66,981.88,735.82,981.14Z"/><path class="cls-19" d="M765.49,974.66a.64.64,0,0,0,0-.41.72.72,0,0,0-.31-.26,6.25,6.25,0,0,1-.92-.63c.11.6.22,1.2.32,1.81a.32.32,0,0,1,0,.14c0,.17-.27.19-.39.31s-.1.47,0,.68C765.19,977.8,765.33,975.4,765.49,974.66Z"/><path class="cls-19" d="M745.64,974.24c0-.18,0-.36-.07-.54a.86.86,0,0,0-.74.69c0,.35.39.71.7.52s.45-.37.57-.17Z"/><path class="cls-19" d="M749.28,982.9a.8.8,0,0,1-1.28,0,.78.78,0,0,1,.63-1.1.77.77,0,0,1,.68,1.06Z"/><path class="cls-19" d="M752.33,990.66c.15.37.26.89-.09,1.1s-.73-.11-1-.4c-.11-.12-.24-.27-.19-.43.12-.39.88,0,1.08-.4.12,0,.15.21,0,.23Z"/><path class="cls-19" d="M720.91,1056.17a1.88,1.88,0,0,0-.12-1.7,1,1,0,0,0-1.53-.07.7.7,0,0,0-.1.49,1.42,1.42,0,0,0,.1.29,1.61,1.61,0,0,0,.78.88.78.78,0,0,0,1-.37Z"/><path class="cls-19" d="M741.27,1017.48a.85.85,0,0,0-.52,0c-.16,0-.28.21-.42.31-.34.24-.81.16-1.2.3-.67.25-.9,1.07-1,1.76,0,.17-.05.36.08.47a.57.57,0,0,0,.34.1c.86.13.93,1,1.64,1.31a2.37,2.37,0,0,0,2-.38A2.32,2.32,0,0,0,741.27,1017.48Z"/><path class="cls-19" d="M793.84,1023.44a.79.79,0,0,0-.52-.05c-.17.06-.28.22-.43.32-.34.23-.81.15-1.2.3-.67.25-.89,1.06-1,1.76,0,.16-.06.36.07.47a.57.57,0,0,0,.34.1c.86.12.94,1,1.64,1.31a2.37,2.37,0,0,0,2-.38A2.32,2.32,0,0,0,793.84,1023.44Z"/><path class="cls-19" d="M735.33,989.4a.82.82,0,0,1,0,.44,1.25,1.25,0,0,1-.53-1c0-.21,0-.48.15-.58s.3,0,.45-.06c.3-.05.61-.35.86-.18a.38.38,0,0,1,.08.46,1.16,1.16,0,0,1-.37.36l-.92.64Z"/><path class="cls-19" d="M729.59,991c.15-.27-.28-.57-.57-.44a1.17,1.17,0,0,0-.49.77,1.11,1.11,0,0,0,1.21-.22Z"/><path class="cls-19" d="M731,986.56a1.14,1.14,0,0,0,.06-.45.37.37,0,0,0-.28-.33c-.25,0-.44.22-.69.29s-.54-.07-.75.07-.15.49,0,.65a1.19,1.19,0,0,0,.72.18,1.33,1.33,0,0,0,.66-.14.46.46,0,0,0,.22-.57Z"/><path class="cls-19" d="M731.38,984.57a.3.3,0,0,1-.4,0,.54.54,0,0,1-.17-.39.51.51,0,0,1,.05-.25.37.37,0,0,1,.52-.13.39.39,0,0,1,.1.53.44.44,0,0,1-.54.13Z"/><path class="cls-19" d="M711.05,978a.29.29,0,0,1-.4,0,.49.49,0,0,1-.17-.39.42.42,0,0,1,0-.25.38.38,0,0,1,.52-.13.38.38,0,0,1,.11.52.44.44,0,0,1-.54.14Z"/><path class="cls-19" d="M733.37,984.83a.44.44,0,0,0,.55-.52.75.75,0,0,0-.49,0,.37.37,0,0,0-.26.37.26.26,0,0,0,.37.18Z"/><path class="cls-19" d="M753.32,977a.43.43,0,0,0,.55-.51.72.72,0,0,0-.48,0,.34.34,0,0,0-.26.36.24.24,0,0,0,.36.18Z"/><path class="cls-19" d="M740.29,986.46a1.24,1.24,0,0,0,.57-.93h-.94a.79.79,0,0,0-.43.08.49.49,0,0,0-.06.73.71.71,0,0,0,.8.1Z"/><path class="cls-19" d="M746.26,993.35l.15,1.65c-.25.15-.5-.19-.59-.46a1.5,1.5,0,0,1-.11-.83c.08-.27.41-.5.66-.37Z"/><path class="cls-19" d="M746.51,1001.87a.59.59,0,0,0,.22-1,.9.9,0,0,0-1.14,0,.65.65,0,0,0-.26.44.62.62,0,0,0,.49.57,1.85,1.85,0,0,0,.81,0Z"/><path class="cls-19" d="M751.7,988.37a1,1,0,0,0,.7-.81,1.16,1.16,0,0,0-.8-.07.78.78,0,0,0-.61.79c.07.35.64.52.82.2Z"/><path class="cls-19" d="M748.9,991.09a.56.56,0,0,1-.67.25c0-.28-.05-.56-.08-.84a.67.67,0,0,1,.92.44Z"/><path class="cls-19" d="M747.47,1029.28l-1.23.54a.81.81,0,0,0-.31.21.77.77,0,0,0-.12.37c-.06.47,0,1.06.38,1.26s.95-.22,1.38-.51c.8-.56,3.46-.7,3.28-2.08S748.22,1028.94,747.47,1029.28Z"/><path class="cls-19" d="M745.46,999c0,.11.07.22.11.32a1.84,1.84,0,0,1-.77-.17.63.63,0,0,1-.34-.65c.07-.25.45-.39.62-.19a1.41,1.41,0,0,1,.35.7Z"/><path class="cls-19" d="M728,987.44a.6.6,0,0,1-.59.19.58.58,0,0,1-.41-.46c0-.15.06-.34.21-.33a.36.36,0,0,1,.17.07l.7.45-.1.11Z"/><path class="cls-19" d="M723.8,986.5c-.18-.21-.51-.15-.77,0s-.56.19-.78,0a.25.25,0,0,1-.11-.19c0-.19.28-.21.46-.29a1.88,1.88,0,0,0,.36-.27.92.92,0,0,1,1,0,.5.5,0,0,1,0,.55.51.51,0,0,1-.52.18Z"/><path class="cls-19" d="M724.45,983.88c0-.1,0-.2,0-.31a.39.39,0,0,0-.48.06.32.32,0,0,0,0,.45.28.28,0,0,0,.41-.16Z"/><path class="cls-19" d="M718.32,979.82l0-.31a.38.38,0,0,0-.47,0,.31.31,0,0,0,0,.45.28.28,0,0,0,.41-.16Z"/><path class="cls-19" d="M735.67,984.94c-.13.16.06.4.26.44a4.28,4.28,0,0,0,.62,0,.74.74,0,0,1,.52.32.35.35,0,0,1,.06.34.46.46,0,0,1-.18.16,2.26,2.26,0,0,1-1.15.36,1,1,0,0,1-1-.6.77.77,0,0,1,.15-.78.83.83,0,0,1,.76-.26Z"/><path class="cls-19" d="M755.25,965.15c-.12.17.06.4.27.44s.41,0,.61,0a.72.72,0,0,1,.53.31.35.35,0,0,1,.06.34.49.49,0,0,1-.19.16,2.16,2.16,0,0,1-1.14.36,1,1,0,0,1-1-.6.79.79,0,0,1,.14-.78.85.85,0,0,1,.77-.26Z"/><path class="cls-19" d="M740,981.59a.47.47,0,0,0,.06-.67.7.7,0,0,0-.7-.21c-.11,0-.23.09-.23.2a.24.24,0,0,0,.13.18l.73.6Z"/><path class="cls-19" d="M750,974a2.62,2.62,0,0,0,1.92-.26.4.4,0,0,0,.22-.24c.06-.25-.28-.36-.5-.49-.37-.23-.5-.72-.87-.93a1.6,1.6,0,0,0-1-.09c-.5.07-1.15.31-1.11.81a.92.92,0,0,0,.45.61,4.89,4.89,0,0,0,1.48.74Z"/><path class="cls-19" d="M762.62,989.33c.32.24.74-.13,1-.47a.79.79,0,0,0,.19-.69c-.13-.31-.56-.33-.89-.31l-.88.07a.5.5,0,0,0-.36.13.42.42,0,0,0,0,.33,4,4,0,0,0,.68,1.57Z"/><path class="cls-19" d="M752.78,997.78c2.57,2.46,5.21-.75,3.58-3.3S750.55,995.64,752.78,997.78Z"/><path class="cls-19" d="M733.05,993.76a.84.84,0,0,1-1.19-.58A2,2,0,0,1,733,993c.39.08.74.5.59.87l-.64.31Z"/><path class="cls-19" d="M729.56,1010.35c0-.19,0-.37-.07-.56a5.14,5.14,0,0,1-2,0,5.1,5.1,0,0,0-1-.18,1,1,0,0,0-.88.42c-.32.54.23,1.21.8,1.48a2.82,2.82,0,0,0,2.34.1,1.89,1.89,0,0,0,1.12-1.92l-.79.06Z"/><path class="cls-19" d="M726,1001.7c.24-.11.13-.3-.14-.36a3.14,3.14,0,0,0-.92,0l-2.1.22a1.9,1.9,0,0,0-1,.28c-.14.16,0,.32.32.39a4,4,0,0,0,1,0,5.62,5.62,0,0,0,3.06-.68l-.55-.17Z"/><path class="cls-19" d="M720.3,985.41a.23.23,0,0,1-.31.05.51.51,0,0,1-.17-.3.54.54,0,0,1,0-.28.41.41,0,0,1,.42-.3.52.52,0,0,1,.45.3.32.32,0,0,1,0,.27.18.18,0,0,1-.22.11Z"/><path class="cls-19" d="M785.94,986.83a7.44,7.44,0,0,0,1.46-.59.46.46,0,0,0-.23-.34,1.42,1.42,0,0,0-2,.47.48.48,0,0,0-.06.33.37.37,0,0,0,.36.23,1,1,0,0,0,.44-.11Z"/><path class="cls-19" d="M732.51,982.11c0-.11,0-.22,0-.32a.69.69,0,0,0-.49,0c-.15.09-.17.35,0,.4a.41.41,0,0,0,.19,0l.6-.13Z"/><path class="cls-19" d="M744.44,981.86a2.08,2.08,0,0,0,.25-.75.67.67,0,0,0-.36-.66.61.61,0,0,0-.4,0,.75.75,0,0,0-.5.94.77.77,0,0,0,1,.44Z"/><path class="cls-19" d="M757.6,977.59a.55.55,0,0,1-.71.59,1.43,1.43,0,0,1-.2-.59.92.92,0,0,1,.69,0Z"/><path class="cls-19" d="M775.05,1037.83c.22-.12,0-.48-.27-.38a.51.51,0,0,0-.16.63.54.54,0,0,0,.5-.36Z"/><path class="cls-19" d="M731,1000.84c0-.18,0-.36-.07-.54a1.18,1.18,0,0,0-.42,0,.51.51,0,0,0,.39.61Z"/><path class="cls-19" d="M773.55,1020.15c0-.18,0-.36-.07-.53a.85.85,0,0,0-.42,0,.51.51,0,0,0,.39.6Z"/><path class="cls-19" d="M754.65,1005.44a1.83,1.83,0,0,1-.28,1.79.35.35,0,0,1-.19.15.41.41,0,0,1-.32-.14c-.55-.45-1.15-1.1-.91-1.76a.94.94,0,0,1,1.51-.24c-.05.19-.09.38-.14.57Z"/><path class="cls-19" d="M717.48,1023.33a1.83,1.83,0,0,1-.28,1.79.28.28,0,0,1-.18.14.4.4,0,0,1-.33-.13c-.54-.45-1.15-1.1-.9-1.76a.93.93,0,0,1,1.5-.24c0,.19-.09.38-.13.57Z"/><path class="cls-19" d="M1730.53,827.19a21.09,21.09,0,0,0-9.41-.53,3.46,3.46,0,0,0-1.44.48,2.86,2.86,0,0,0-1.06,2.58,6,6,0,0,0,4.27,5.21,7.62,7.62,0,0,0,6.81-1.42,5,5,0,0,0,2-3.26,2.81,2.81,0,0,0-2-3,.61.61,0,0,0,.16,1Z"/><path class="cls-19" d="M1737.78,839.09a5.45,5.45,0,0,0-5,1.51,5.64,5.64,0,0,0,3.53,3.78c1.73.5,3.91-.46,4.27-2.21s-1.82-3.55-3.36-2.61Z"/><path class="cls-19" d="M1757.28,817.68a6.42,6.42,0,0,0-1.69.7.41.41,0,0,0-.16.16.25.25,0,0,0,0,.22c.3.56,1.29.65,1.3,1.28,0,.11,0,.24,0,.33s.36.07.5-.06a1.62,1.62,0,0,0-.24-2.52l.27,0Z"/><path class="cls-19" d="M1717.63,799.25a12.24,12.24,0,0,0-3.19,1.33.65.65,0,0,0-.3.29.53.53,0,0,0,.07.42c.56,1,2.43,1.23,2.45,2.41,0,.21-.05.45.07.62s.67.13.94-.11a3.08,3.08,0,0,0-.47-4.76l.52-.07Z"/><path class="cls-19" d="M1711.05,840.26a2.82,2.82,0,0,0-2.35.66,2.7,2.7,0,0,0,.8.78,1,1,0,0,0,1.07,0c.4-.33.33-.93.22-1.43l.36.23Z"/><path class="cls-19" d="M1708.49,845.71a1.07,1.07,0,0,0-.61.32,1.1,1.1,0,0,0-.15.65,10.18,10.18,0,0,1-.23,1.82c.83-.62,1.65-1.25,2.47-1.88a.63.63,0,0,1,.21-.12c.28-.07.5.24.78.33s.78-.24,1-.59C1713.45,843.68,1709.73,845.37,1708.49,845.71Z"/><path class="cls-19" d="M1675.55,807.65a1.14,1.14,0,0,0-.62.33,1.17,1.17,0,0,0-.15.64,10.17,10.17,0,0,1-.22,1.83l2.46-1.88a.68.68,0,0,1,.22-.12c.28-.07.5.24.77.33s.78-.24,1-.59C1680.51,805.63,1676.79,807.31,1675.55,807.65Z"/><path class="cls-19" d="M1690.44,836.83l-.75.52a1.47,1.47,0,0,0,1.61.54c.57-.23.76-1.12.24-1.43-.32-.2-.91-.37-.7-.68Z"/><path class="cls-19" d="M1686.21,787.18a1.29,1.29,0,0,1,1,1.87,1.33,1.33,0,0,1-2.14,0,1.28,1.28,0,0,1,1-1.82Z"/><path class="cls-19" d="M1709.9,814.27c.43-.52,1.13-1.09,1.71-.74s.41,1.16.19,1.76c-.09.27-.23.57-.51.62-.67.13-.75-1.24-1.44-1.25-.1-.17.2-.38.33-.23Z"/><path class="cls-19" d="M1721.29,840a1.23,1.23,0,0,1,.67-.34,2.07,2.07,0,0,1-1.07,1.53c-.29.22-.69.43-1,.24s-.28-.41-.44-.61c-.31-.4-1-.61-.94-1.11a.64.64,0,0,1,.64-.47,1.84,1.84,0,0,1,.81.26l1.7.83Z"/><path class="cls-19" d="M1728.17,847.05c-.53,0-.63.86-.2,1.17a1.92,1.92,0,0,0,1.53.11,1.83,1.83,0,0,0-1.28-1.59Z"/><path class="cls-19" d="M1781.38,834.38a1.84,1.84,0,0,0-.73.27.63.63,0,0,0-.28.66c.12.4.68.47,1,.77s.3.85.69,1a.72.72,0,0,0,.93-.56,1.77,1.77,0,0,0-.29-1.19,2.11,2.11,0,0,0-.71-.85.81.81,0,0,0-1,.12Z"/><path class="cls-19" d="M1717.12,849.47a.47.47,0,0,1,.35.56.86.86,0,0,1-.46.55.84.84,0,0,1-.41.14.62.62,0,0,1-.6-.66.66.66,0,0,1,.71-.56.7.7,0,0,1,.62.67Z"/><path class="cls-19" d="M1723.1,884.19a.47.47,0,0,1,.35.56.88.88,0,0,1-.45.55.9.9,0,0,1-.42.13.61.61,0,0,1-.6-.65.68.68,0,0,1,.71-.57.73.73,0,0,1,.63.68Z"/><path class="cls-19" d="M1716,846.38a.75.75,0,0,0-1.21-.4,1.25,1.25,0,0,0,.35.73.64.64,0,0,0,.76.09.42.42,0,0,0,0-.68Z"/><path class="cls-19" d="M1688.53,823.53a.74.74,0,0,0-1.21-.39,1.29,1.29,0,0,0,.35.72.64.64,0,0,0,.76.09.4.4,0,0,0,0-.67Z"/><path class="cls-19" d="M1713,835a2.16,2.16,0,0,0-1.84-.09c.24.45.49.9.74,1.35a1.38,1.38,0,0,0,.45.56.84.84,0,0,0,1.16-.48,1.15,1.15,0,0,0-.48-1.24Z"/><path class="cls-19" d="M1718.68,821l2.37-1.52c.41.25.1.87-.23,1.21a2.42,2.42,0,0,1-1.17.81c-.47.1-1.06-.19-1.06-.67Z"/><path class="cls-19" d="M1731.28,814a1,1,0,0,0-1.62.45,1.44,1.44,0,0,0,.93,1.62,1.14,1.14,0,0,0,.87,0,1,1,0,0,0,.48-1.16,2.91,2.91,0,0,0-.66-1.17Z"/><path class="cls-19" d="M1706.94,817a1.63,1.63,0,0,0-1.76-.4,1.85,1.85,0,0,0,.52,1.23,1.33,1.33,0,0,0,1.66.26c.48-.37.28-1.34-.33-1.34Z"/><path class="cls-19" d="M1713.23,818.9a1,1,0,0,1,.89.78l-1.2.77a1.07,1.07,0,0,1-.05-1.68Z"/><path class="cls-19" d="M1727.83,817.7l.4-.4a2.92,2.92,0,0,1,.34,1.25,1,1,0,0,1-.71,1c-.43.1-.93-.34-.77-.75a2.31,2.31,0,0,1,.78-1Z"/><path class="cls-19" d="M1724.05,852.1a.92.92,0,0,1,.38,1.66c-.2.15-.55.17-.66,0a.61.61,0,0,1,0-.3c0-.46.09-.91.14-1.37l.23.06Z"/><path class="cls-19" d="M1726,859c-.18.41.17.85.52,1.15s.73.67.66,1.12a.42.42,0,0,1-.2.3c-.29.13-.54-.24-.79-.43a3.42,3.42,0,0,0-.7-.32,1.49,1.49,0,0,1-.86-1.47.89.89,0,0,1,.85-.37.85.85,0,0,1,.69.62Z"/><path class="cls-19" d="M1721.51,860.07l-.49.2a.64.64,0,0,0,.45.65.53.53,0,0,0,.64-.41.45.45,0,0,0-.55-.48Z"/><path class="cls-19" d="M1720.2,872.17l-.49.19a.64.64,0,0,0,.45.65.53.53,0,0,0,.64-.41.45.45,0,0,0-.55-.47Z"/><path class="cls-19" d="M1714.33,843c.34,0,.56-.4.46-.73a8.54,8.54,0,0,0-.48-.89,1.19,1.19,0,0,1,.06-1,.57.57,0,0,1,.47-.35.66.66,0,0,1,.38.14,3.71,3.71,0,0,1,1.45,1.38,1.71,1.71,0,0,1-.15,1.88,1.4,1.4,0,0,1-1.29.4,1.36,1.36,0,0,1-1-.91Z"/><path class="cls-19" d="M1669.27,830c.34.06.55-.39.46-.72a8.68,8.68,0,0,0-.48-.9,1.23,1.23,0,0,1,0-1,.6.6,0,0,1,.48-.35.77.77,0,0,1,.38.14,3.68,3.68,0,0,1,1.44,1.38,1.67,1.67,0,0,1-.15,1.88,1.34,1.34,0,0,1-2.27-.51Z"/><path class="cls-19" d="M1705.92,839.29a.84.84,0,0,0-1.06.45,1.17,1.17,0,0,0,.23,1.18c.12.14.33.27.49.18a.47.47,0,0,0,.17-.33c.11-.51.22-1,.32-1.53Z"/><path class="cls-19" d="M1772.49,811.84a4.21,4.21,0,0,0-1.89-2.59.73.73,0,0,0-.53-.13c-.41.11-.32.69-.35,1.11,0,.71-.67,1.29-.71,2a2.56,2.56,0,0,0,.68,1.57c.5.67,1.36,1.43,2.09,1a1.51,1.51,0,0,0,.56-1.13,8.08,8.08,0,0,0,0-2.73Z"/><path class="cls-19" d="M1699.84,800.35c.12-.65-.77-1-1.44-1a1.4,1.4,0,0,0-1.18.27c-.37.43-.07,1.07.23,1.54l.78,1.23c.12.18.26.38.48.41a.75.75,0,0,0,.52-.21,6.77,6.77,0,0,0,1.83-2.22Z"/><path class="cls-19" d="M1720.24,808c1.68-5.65-5.2-7-7.76-2.62C1709.79,810,1718.77,813,1720.24,808Z"/><path class="cls-19" d="M1729.64,839.85a1.37,1.37,0,0,1,0,2.19,3.49,3.49,0,0,1-1.24-1.54,1.18,1.18,0,0,1,.85-1.54l1,.67Z"/><path class="cls-19" d="M1653.38,719.94c-.36-.27-.55,0-.43.47a5.12,5.12,0,0,0,.72,1.33l2,2.89c.37.55.84,1.18,1.24,1.29s.45-.3.33-.77a6.12,6.12,0,0,0-.69-1.48c-.93-1.62-2.24-3.51-3.42-3.9l.19.92Z"/><path class="cls-19" d="M1727.05,864.92a.36.36,0,0,1,.32.41.84.84,0,0,1-.31.48,1,1,0,0,1-.41.25.72.72,0,0,1-.79-.38.86.86,0,0,1,.12-.88.59.59,0,0,1,.37-.25.31.31,0,0,1,.35.24Z"/><path class="cls-19" d="M1712.55,849.76l-.5.23a1.14,1.14,0,0,0,.43.69c.25.14.66,0,.62-.3a.63.63,0,0,0-.16-.27l-.66-.77Z"/><path class="cls-19" d="M1702.84,832.62a3.25,3.25,0,0,0-1.32.22,1.12,1.12,0,0,0-.71,1,1,1,0,0,0,.28.58,1.32,1.32,0,0,0,1.82,0,1.26,1.26,0,0,0-.11-1.78Z"/><path class="cls-19" d="M1686.12,816.83a.92.92,0,0,1,1.45.57,2.64,2.64,0,0,1-.73.76,1.56,1.56,0,0,1-.56-1Z"/><path class="cls-19" d="M1741.86,837.26l-.76.52a1.61,1.61,0,0,0,.39.57.85.85,0,0,0,.6-1Z"/><path class="cls-19" d="M1739.54,697.05a3.21,3.21,0,0,1,2.92-1,.47.47,0,0,1,.41.73c-.25,1.15-.75,2.54-1.93,2.69a1.52,1.52,0,0,1-1.54-2l1-.25Z"/><polygon class="cls-20" points="1695.09 728.16 1682.11 720.37 1688.05 726.47 1695.09 728.16"/><polygon class="cls-11" points="1695.09 728.16 1688.05 726.47 1682.11 720.37 1686.66 727.56 1695.09 728.16"/><polygon class="cls-8" points="1845.46 410.49 1823.58 431.61 1838.63 423.19 1845.46 410.49"/><polygon class="cls-11" points="1845.46 410.49 1838.63 423.19 1823.58 431.61 1840.12 426.4 1845.46 410.49"/><polygon class="cls-5" points="1838.18 35.72 1847.31 75.48 1842.74 28.98 1821.96 18.87 1821.27 23.36 1838.18 35.72"/></g></g></g></g></svg>